<?xml version="1.0" encoding="UTF-8" standalone="no"?>
<svg id="svg4147" xmlns:rdf="http://www.w3.org/1999/02/22-rdf-syntax-ns#" xmlns="http://www.w3.org/2000/svg" height="640pt" width="598.43pt" version="1.1" xmlns:cc="http://creativecommons.org/ns#" xmlns:dc="http://purl.org/dc/elements/1.1/" viewBox="0 0 598.43457 640">
<path id="path4149" d="m246.09 1.3032c38.777-9.9392 69.416 39.188 51.149 72.181-11.409 20.352-24.224 46.693-12.009 69.558 44.26 97.084 77.743 214.74 27.21 315.54 44.924-38.129 88.883-93.877 76.432-156.64-2.307-8.0904 10.461-11.345 15.169-5.8466 6.763 10.382 0.23702 24.603 6.3996 34.953 12.515-32.535 20.811-66.777 26.815-101.11-21.269 6.0046-46.172 15.691-65.039-1.675-33.12-27.7-13.479-79.892 22.328-95.346-21.474-15.075-39.03-38.176-33.167-66.224 12.341-34.273 61.041-44.481 85.755-17.54 5.7834 4.6298 5.3725 16.291 12.183 18.93 4.2348-20.258 15.375-41.005 36.691-47.025 31.556-10.887 72.719 15.628 67.425 51.323 2.6072 9.9708-16.544 28.032 0.11061 30.892 32.851 8.7856 40.215 50.976 21.3 76.116-6.131 19.72-32.156 15.738-44.639 23.307 18.741 45.698-49.38 93.829-81.978 53.409-6.8578 24.429-16.971 47.721-25.124 71.628 20.4-8.2958 38.05-25.551 62.416-21.032 10.382-0.85328 15.643 16.37 3.0655 17.366-39.583-2.9865-69.068 30.939-94.477 57.043-50.138 74.093-115.03 144.19-201.12 174.92-7.5215 5.6411-27.621 2.0542-29.375 12.973 57.17-4.3612 100.69-44.197 149.02-70.269 36.738-23.797 85.218-38.556 127.34-21.49 10.524-16.149 7.2213-37.908 18.203-54.262 14.885-42.917 55.59-78.786 100.89-81.899 23.797 52.524 2.7495 120.45-43.391 154 52.84 22.912 66.919 83.827 72.75 135.62-43.802-11.393-92.565-23.765-122.24-60.899-3.0339-2.8127-6.0362-8.7066-11.045-6.3996-32.962 33.057-80.256 48.447-125.87 52.493 4.3612-50.912 35.538-99.407 79.26-126.11-53.52-2.7653-93.877 36.343-138.17 59.888-74.08 57.61-189.71 15.17-254.55 90.32-8.734-12.1-6.57-37.61 0.415-53.73 6.32-18.81 28.458-22.13 45.255-25.78 60.33-10.89 98.81-80.34 82.47-137.86-8.98-1.12-7.95 14.07-12.85 19.3-32.03 42.22-89.798 60.58-141.09 49.54 12.452-42.08 25.741-91.08 66.951-114.19 5.025-3.03 15.88-4.69 14.522-12.83-41.385-33.86-52.24-90.41-56.586-140.87 28.996 13.558 61.215 26.863 89.326 41.89 17.303-33.736 67.52-36.517 88.631-5.2777 26.373 17.619 60.378 15.312 87.003 33.025-37.497-68.231-135.64-80.477-157.67-159.8-29.47-15.596-73.43-8.7224-92.66-41.763-19.847-22.565-11.82-60.883 13.4-75.879 43.644-24.034 93.498 26.23 81.52 71.533 16.197 7.0317 13.336 25.772 14.443 39.994 19.894 54.673 76.89 76.59 118.67 110.82 19.215 13.526 30.339 34.906 46.409 51.244-10.37-64.07-32.36-127.83-68.89-182-14.68-10.6-27.72-24.158-33.76-41.697-5.02-25.773 5.15-59.92 34.78-64.36m1.675 16.987c-22.975 11.756-14.474 45.809-2.9549 62.416 7.6637-1.9436 5.7992-15.707 10.966-22.012 7.4267 3.824 8.8962 17.145 18.804 17.382 12.531-18.409 3.903-64.676-26.815-57.786m-175.67 9.5915c-26.215 5.4041-27.479 41.937-11.172 58.229 11.535 9.5599 26.468 13.4 41.052 15.027-0.17382-10.698-6.5734-20.795-4.9617-31.492 5.3725 2.544 10.255 9.1491 16.212 9.2123 8.6434-24.935-13.273-55.005-41.131-50.976m440.75 12.957c-25.583 5.4515-45.161 31.018-43.865 57.122 12.847-1.1061 13.178-28.759 28.822-19.91 4.9459 10.097-7.2529 18.63-9.6547 28.348 11.535-1.9594 15.09-26.231 28.569-14.869 10.16 8.5486-10.634 14.458-8.517 19.278 35.775-1.991 47.468-75.373 4.6456-69.969m-116.73 13.842c-31.571 10.792-10.508 60.678 16.844 63.001-3.8556-8.4696-15.28-20.763-1.5327-26.957 12.199-1.7856 12.941 16.355 24.366 18.662-4.0926-11.725-21.522-24.745-4.7879-34.874 10.84 4.1242 11.124 18.535 20.605 23.876-6.9053-24.366-27.273-49.332-55.495-43.707m143.31 63.358c-8.28 1.9436-17.634 4.693-24.398 9.2123 2.7969 6.1626 23.955-1.2167 18.756 13.084-7.4109 8.0272-20.337 1.4063-29.849 2.1806 1.7066 13.068 34.416 0.82168 25.361 20.542-6.4944 14.316-21.664-7.1739-28.775 0.33184 18.045 18.298 52.05 25.14 69.1 2.465 18.756-19.957-3.982-54.705-30.197-47.815m-123.44 31.398c-21.869 5.3883-52.003 27.321-40.341 53.061 17.666 30.797 63.332 7.4109 67.615-21.632-9.6389 0.72687-14.49 23.908-25.203 14.221-12.341-15.169 15.248-21.032 18.693-33.91-12.61-0.41084-21.964 28.617-33.088 15.027-11.235-11.835 18.741-20.479 12.325-26.768m58.118 29.249c0.48985 12.499 18.172 26.894 5.5937 38.066-17.666-1.5802-9.4177-31.129-21.648-34.732 3.7608 19.262 2.7021 39.393 11.077 57.581 13.178 19.799 45.082 10.018 49.996-11.093 0-16.197-2.386-35.285-19.768-41.684 1.8172 6.3364 2.8917 14.522-0.94809 20.005-14.206-1.9278-12.957-23.892-24.303-28.142m-426.85 75.09c2.2754 45.018 28.048 89.057 66.351 112.87-11.377-25.093-30.102-46.915-41.574-72.15-3.982-4.9459 3.2393-13.652 7.4741-7.4899 17.508 24.24 34.906 48.653 51.102 73.856 0.86908 3.1287 6.7946 4.1084 6.0678-0.14221 1.3905-50.818-42.443-96.01-89.421-106.94m103.91 6.447c-9.3545 2.5756-18.124 9.1333-21.111 18.63 1.0903 23.023 32.63 35.427 50.77 24.461 10.113-9.0385-9.0543-12.009-13.368-17.682-1.2167-8.7066 12.341-12.847 12.025-20.905-8.6118-4.693-18.614-6.7472-28.316-4.5034m70.886 30.054c-21.996 11.93-36.422 42.459-67.52 38.398-1.5644 5.4041 0.25283 22.059 4.8985 25.298 39.646-33.973 99.328-23.607 140.16 2.3228-30.418 33.815-71.249 72.64-123.2 63.443 5.0723 45.05-7.2055 94.461-38.714 127.99-1.3905 4.5824 4.9143 0.9955 7.3003 1.0429 65.924-19.594 133.57-59.382 160.78-125.51 25.314-57.66-18.614-134.27-83.701-132.99m-0.45824 64.865c-15.248 1.3273-33.61 4.0294-43.28 16.987 20.51-1.9436 40.404-8.675 60.994-9.3703 9.7179 1.912-2.2122 11.377-6.8104 14.3-19.546 7.806-44.766 10.54-60.931 21.553 33.673 8.1852 73.635-6.8895 91.775-36.264-13.668-3.2709-27.542-8.4538-41.748-7.2055m331.2 10.603c-42.38 12.12-74.962 58.971-72.877 101.62 20.163-15.059 30.687-44.181 43.533-66.746 5.6569-5.1039 18.741-0.63206 14.237 7.9482-12.546 24.398-29.723 47.91-40.831 72.039 44.102-11.978 73.335-75.294 55.937-114.86m-457.05 22.59c-42.648 5.0565-61.01 48.242-70.901 84.712 42.948 7.3477 96.342-17.571 106.87-62.653 5.9098-8.675-4.7879-7.7743-6.9527-3.745-16.418 15.802-36.58 26.641-54.357 40.752-9.0385 5.9098-15.881-6.842-8.28-13.131 18.899-15.928 39.82-29.517 60.915-42.316-5.5305-7.4109-19.452-2.8759-27.289-3.6185m347.51 114.86c-38.477 13.226-70.649 49.143-81.204 87.872 42.917 4.1716 89.832-30.307 99.123-73.588-21.901 14.111-36.976 40.057-61.089 52.54-5.4199 2.6704-14-4.7088-8.0114-9.5757 17.856-17.429 38.429-32.535 53.093-53.061 1.991-1.833 1.4537-6.368-1.912-4.1874m50.96 3.0181c10.856 22.217 44.892 35.364 52.034 62.985-0.93229 3.3973-5.7359 4.1558-8.8646 4.6614-22.438-15.896-40.183-37.987-59.35-56.554-0.079 42.538 40.499 70.886 76.874 82.895 5.0249 0.66366 21.206 9.3545 16.513-3.824-5.6411-39.962-31.366-89.215-77.206-90.163z"/>
</svg>
