<?xml version="1.0" encoding="UTF-8" standalone="no"?>
<!-- Created with Inkscape (http://www.inkscape.org/) -->

<svg
   xmlns:dc="http://purl.org/dc/elements/1.1/"
   xmlns:cc="http://creativecommons.org/ns#"
   xmlns:rdf="http://www.w3.org/1999/02/22-rdf-syntax-ns#"
   xmlns:svg="http://www.w3.org/2000/svg"
   xmlns="http://www.w3.org/2000/svg"
   xmlns:sodipodi="http://sodipodi.sourceforge.net/DTD/sodipodi-0.dtd"
   xmlns:inkscape="http://www.inkscape.org/namespaces/inkscape"
   id="svg4178"
   version="1.1"
   inkscape:version="0.91 r13725"
   width="365.625"
   height="521.25"
   viewBox="0 0 365.625 521.25"
   sodipodi:docname="FloralDesign4.svg">
  <metadata
     id="metadata4184">
    <rdf:RDF>
      <cc:Work
         rdf:about="">
        <dc:format>image/svg+xml</dc:format>
        <dc:type
           rdf:resource="http://purl.org/dc/dcmitype/StillImage" />
        <dc:title></dc:title>
      </cc:Work>
    </rdf:RDF>
  </metadata>
  <defs
     id="defs4182" />
  <sodipodi:namedview
     pagecolor="#ffffff"
     bordercolor="#666666"
     borderopacity="1"
     objecttolerance="10"
     gridtolerance="10"
     guidetolerance="10"
     inkscape:pageopacity="0"
     inkscape:pageshadow="2"
     inkscape:window-width="1600"
     inkscape:window-height="837"
     id="namedview4180"
     showgrid="false"
     inkscape:zoom="1.2853717"
     inkscape:cx="182.8125"
     inkscape:cy="260.625"
     inkscape:window-x="-8"
     inkscape:window-y="-8"
     inkscape:window-maximized="1"
     inkscape:current-layer="svg4178" />
  <path
     style="fill:#000000"
     d="m 194.77043,520.70793 c -0.29814,-0.29815 0.51567,-2.58083 1.80846,-5.07264 2.73433,-5.27029 2.33341,-8.73671 -0.95629,-8.26807 -1.57383,0.22421 -1.97217,0.84274 -1.77613,2.75786 0.34361,3.3567 -1.30118,7.37492 -3.01881,7.37492 -1.08048,0 -1.21612,-0.50008 -0.58551,-2.15872 C 191.34289,512.44612 189.85107,510 186.98467,510 c -2.32848,0 -3.07364,1.28446 -1.35967,2.34375 1.29318,0.79923 1.17991,5.47634 -0.1652,6.82145 -1.41481,1.41481 -3.69446,-0.28859 -2.95725,-2.20973 0.64476,-1.68019 -2.10557,-6.01797 -3.81562,-6.01797 -2.39119,0 -3.4675,2.33259 -1.98211,4.29566 1.76558,2.33337 1.7811,4.14184 0.0355,4.14184 -2.32509,0 -4.48319,-4.26021 -3.77998,-7.4619 0.53531,-2.43727 0.35314,-2.8506 -1.25643,-2.8506 -1.85662,0 -4.82895,2.25999 -4.82895,3.67166 0,0.39888 0.84375,1.48882 1.875,2.42209 2.1775,1.97061 2.46816,4.21875 0.54543,4.21875 -6.35505,0 -7.6583,-6.99721 -2.12254,-11.39597 1.6695,-1.3266 1.77058,-1.77254 0.69542,-3.06803 -1.53788,-1.85304 -4.28943,-1.18047 -7.55581,1.84688 -2.4835,2.30176 -9.44025,5.08066 -12.77614,5.10348 -1.09718,0.007 -3.57378,0.67335 -5.50356,1.47966 -2.483,1.03746 -6.48942,1.45261 -13.70512,1.42014 -11.50114,-0.0517 -16.76517,-1.52132 -16.76517,-4.68034 0,-2.29664 1.99236,-3.41219 7.30073,-4.08777 2.2107,-0.28135 5.37477,-1.50737 7.03125,-2.72448 1.65647,-1.21711 4.11809,-2.77418 5.47028,-3.46015 1.35217,-0.68597 4.04959,-3.15066 5.99423,-5.47708 3.11508,-3.72664 3.61379,-5.02595 4.19187,-10.92123 0.36088,-3.68025 1.32756,-7.98869 2.14819,-9.57431 3.00798,-5.81202 12.43785,-12.5858 17.52084,-12.5858 2.47194,0 2.40346,-0.72938 -0.30407,-3.23864 -3.24572,-3.00803 -7.38656,-4.44689 -12.67956,-4.40589 -8.54899,0.0662 -12.10908,1.79977 -20.48413,9.97454 -6.09844,5.9526 -8.94906,8.00393 -13.59375,9.78215 -3.23242,1.23753 -6.72088,2.75244 -7.75213,3.36645 -3.24562,1.93249 -19.598141,2.65524 -24.655679,1.08974 -24.229966,-7.50009 -25.454576,-8.01728 -31.98,-13.50627 -8.74845,-7.35891 -20.708071,-20.31194 -20.708071,-22.42814 0,-0.3534 -0.567369,-1.30858 -1.260821,-2.12262 -0.693452,-0.81404 -1.982878,-3.37851 -2.865393,-5.69882 C 23.181253,429.44815 19.203584,423.36441 14.361052,417.88792 12.649973,415.95284 11.25,413.78314 11.25,413.06635 c 0,-2.30615 3.053854,-2.6352 5.578596,-0.60108 1.314585,1.05913 5.726219,4.32415 9.803632,7.2556 4.077413,2.93146 8.033544,6.40834 8.791403,7.7264 0.757858,1.31806 2.906167,3.57982 4.774022,5.02613 1.867853,1.44631 6.619296,5.78669 10.558761,9.64529 3.984338,3.90255 8.451419,7.38525 10.066996,7.84859 4.220999,1.21057 30.846055,3.14771 35.765096,2.60215 5.419524,-0.60107 14.730814,-4.24442 18.805594,-7.35829 1.75981,-1.34482 5.44254,-3.58098 8.18386,-4.96926 2.74131,-1.38828 4.84044,-2.81922 4.66474,-3.17989 -2.681,-5.50305 -3.93095,-6.4321 -10.04082,-7.463 -4.15145,-0.70047 -7.70449,-0.74788 -10.85813,-0.14492 -6.57356,1.25685 -12.025144,0.21774 -16.178082,-3.08365 -1.93018,-1.53441 -4.775043,-3.32546 -6.321918,-3.98012 -2.867995,-1.21378 -7.96875,-5.78833 -7.96875,-7.14666 0,-0.41287 -2.320313,-4.44627 -5.15625,-8.96312 -2.835938,-4.51684 -5.15625,-8.66291 -5.15625,-9.21349 0,-0.55057 -0.84375,-2.5753 -1.875,-4.49939 -1.03125,-1.92409 -1.875,-4.60727 -1.875,-5.96264 0,-3.26547 -4.627594,-13.48 -6.106987,-13.48 -4.000031,0 -4.033048,5.81792 -0.0931,16.40625 1.343057,3.60937 2.44376,7.88055 2.446007,9.4915 0.005,3.57068 -2.149047,9.90139 -4.526969,13.30482 -0.96691,1.3839 -2.012319,3.57087 -2.323131,4.85993 -0.715979,2.96945 -7.769257,7.66897 -10.958314,7.30139 -3.665411,-0.42247 -3.445367,-3.54962 0.538412,-7.65158 3.261497,-3.35826 3.411538,-3.78848 3.009992,-8.63059 -0.286551,-3.45543 -1.056596,-5.77293 -2.391809,-7.1983 -1.083058,-1.1562 -2.418384,-3.28771 -2.96739,-4.7367 -1.191487,-3.14471 -1.746242,-2.89524 -5.246083,2.3591 -3.893793,5.84578 -9.01634,11.05668 -10.869213,11.05668 -3.244371,0 -4.573912,-1.13756 -4.573912,-3.91348 0,-2.34874 -0.288227,-2.6839 -1.875,-2.18027 -2.359367,0.74884 -5.301262,-0.14787 -5.939195,-1.81029 -0.268075,-0.6986 0.356608,-2.97608 1.388185,-5.06108 l 1.875593,-3.79091 -3.97235,-3.57511 C 4.1611083,383.89686 3.75,383.41664 3.75,381.79033 c 0,-0.83227 0.9011962,-2.47251 2.0026582,-3.64496 l 2.0026581,-2.13174 -2.4533876,-1.11783 c -2.9242621,-1.33239 -3.812553,-3.64005 -3.022415,-7.85186 0.703119,-3.74794 2.7113161,-5.63704 4.9741723,-4.67918 4.405548,1.86486 10.181037,2.13016 14.413297,0.66206 l 4.323233,-1.49965 -5.280173,-2.49713 C 14.541012,356.11255 13.125,353.74815 13.125,346.36484 c 0,-4.56699 -0.365021,-5.51347 -3.4382306,-8.91515 -1.8910266,-2.09314 -4.8563164,-4.39822 -6.5895327,-5.1224 -2.79831266,-1.16922 -3.08128783,-1.60959 -2.52625004,-3.93137 1.09495264,-4.58032 2.11464194,-5.1841 5.40620654,-3.20114 1.6109812,0.97051 4.4109488,2.02716 6.2221508,2.34813 1.811202,0.32096 5.375487,1.95432 7.920634,3.6297 3.677328,2.42065 5.037379,4.07062 6.623458,8.03538 1.097756,2.74409 2.863491,5.48628 3.923858,6.09375 6.023033,3.45057 11.130282,6.75449 11.679244,7.55543 1.462804,2.13423 18.590962,-4.29371 18.590962,-6.9769 0,-0.36393 -1.054688,-0.8633 -2.34375,-1.10972 -1.983033,-0.37908 -2.34375,-0.0953 -2.34375,1.84383 0,3.59312 -2.079815,2.035 -3.484504,-2.61047 -0.691867,-2.28809 -1.723349,-5.61031 -2.292181,-7.38272 -1.167293,-3.63715 -1.954517,-15.4628 -2.000982,-30.05869 -0.02415,-7.58574 -0.350206,-10.07912 -1.421441,-10.86984 -1.402176,-1.035 -1.239446,-6.0123 0.38024,-11.63016 l 0.675728,-2.34375 -2.143781,1.875 c -3.192448,2.79218 -6.373075,8.21306 -7.103563,12.1069 -0.842327,4.48999 -6.136411,10.04078 -12.140766,12.72944 -5.841057,2.61555 -14.237694,2.90467 -17.7385893,0.61079 -4.23125,-2.77242 -2.4495914,-6.41995 2.7256453,-5.58013 4.38594,0.71174 9.571996,-2.03176 11.659191,-6.16788 0.939933,-1.86264 2.007156,-6.23428 2.371606,-9.71474 0.7516,-7.17773 0.165702,-7.7086 -4.554361,-4.12661 -3.731032,2.83144 -9.427599,4.69091 -12.2220991,3.98952 -3.6463927,-0.91517 -4.0598468,-6.2609 -0.7804306,-10.09051 1.1712327,-1.36773 1.1078365,-1.62693 -0.5246423,-2.14506 -4.5677772,-1.44976 -3.402264,-7.26534 1.8796106,-9.37872 l 3.7405244,-1.49667 -2.987599,-2.79083 c -1.9062107,-1.78067 -2.7817366,-3.32731 -2.4188528,-4.27298 0.3128107,-0.81516 0.5687468,-1.669 0.5687468,-1.8974 0,-0.2284 1.0644169,-0.81997 2.365372,-1.31459 1.916949,-0.72882 2.25589,-1.33553 1.787868,-3.20027 -0.596054,-2.37487 2.007556,-8.04151 3.694776,-8.04151 0.484688,0 2.292166,1.07616 4.016617,2.39146 2.325631,1.77384 3.135367,2.03172 3.135367,0.99853 0,-3.13403 -2.036447,-6.36098 -5.187547,-8.22018 -4.646589,-2.74155 -4.031116,-4.95355 1.450078,-5.21155 2.313421,-0.10889 5.796787,0.41845 7.740815,1.17187 4.64613,1.80065 4.739312,1.77584 4.024667,-1.07153 -0.923441,-3.67928 -3.309865,-6.8696 -6.292232,-8.41184 -2.894662,-1.49689 -3.526586,-3.87817 -1.259972,-4.74794 2.86958,-1.10116 7.864101,0.74765 12.105468,4.48104 4.794073,4.21991 5.893722,6.01913 8.885611,14.53838 2.833869,8.06928 5.846986,13.46754 8.71039,15.60538 2.867948,2.14123 4.996881,1.44995 3.595984,-1.16766 -0.629526,-1.17628 -0.513184,-3.15307 0.369087,-6.27123 0.708618,-2.50441 1.564364,-6.45192 1.901656,-8.77223 0.337294,-2.32031 1.143244,-5.0625 1.791002,-6.09375 0.647757,-1.03125 1.666758,-3.5625 2.264447,-5.625 0.597688,-2.0625 3.412668,-8.97235 6.25551,-15.35524 2.842842,-6.38287 4.920557,-12.0069 4.617144,-12.49783 -1.078769,-1.74548 -5.41717,0.38339 -12.178166,5.9759 -3.770889,3.11916 -7.098463,6.43464 -7.394608,7.36771 -1.016019,3.20119 -10.089795,4.67345 -19.357619,3.14086 -2.746452,-0.45418 -3.526192,-1.05721 -3.926342,-3.03657 -0.60965,-3.01564 0.926096,-4.3707 5.84498,-5.15726 4.401975,-0.7039 6.86434,-3.05558 4.192107,-4.00368 -2.738266,-0.97151 -5.96496,-4.25253 -5.96496,-6.06539 0,-2.02167 2.530628,-2.90112 7.754519,-2.69488 5.911634,0.23339 7.245481,0.0713 7.245481,-0.88038 0,-0.47465 -1.371094,-1.15828 -3.046875,-1.51916 -4.273161,-0.92023 -8.203125,-3.07095 -8.203125,-4.48925 0,-0.65905 1.45477,-2.60829 3.232823,-4.33164 2.288696,-2.21829 3.315414,-4.11816 3.515625,-6.50538 0.21902,-2.61149 0.86426,-3.64933 2.860927,-4.60168 1.713837,-0.81745 2.578125,-1.95588 2.578125,-3.39586 0,-3.03632 3.456702,-7.10652 6.035363,-7.10652 1.182103,0 3.260858,0.87437 4.619457,1.94304 l 2.47018,1.94305 0,-2.28537 c 0,-1.25695 -0.884126,-3.40935 -1.964725,-4.7831 -3.306751,-4.20385 -1.834143,-5.61836 5.168372,-4.96446 5.790848,0.54076 5.958898,0.49492 5.524932,-1.50709 -0.246169,-1.13565 -0.890299,-2.98558 -1.431401,-4.11095 -1.948669,-4.0528 1.352659,-6.5486 4.99413,-3.77555 3.203138,2.43925 6.342182,10.55067 7.009037,18.11165 0.701645,7.95544 1.781707,11.95489 3.094292,11.4581 0.45133,-0.17081 3.322537,-5.1787 6.380459,-11.12865 4.252551,-8.27437 7.695464,-13.29898 14.642384,-21.36915 4.99539,-5.80309 9.08252,-10.85301 9.08252,-11.22204 0,-0.7927 -2.42768,-2.38542 -9.12291,-5.9852 -5.29283,-2.84576 -8.56794,-3.23528 -13.308221,-1.58281 -3.881659,1.35315 -6.01284,-0.19929 -3.594064,-2.61806 1.171063,-1.17107 3.341614,-1.55842 8.866075,-1.58224 6.24004,-0.0269 7.97725,0.33982 11.8181,2.49489 2.47651,1.38954 5.34731,2.52644 6.37956,2.52644 1.03227,0 4.38494,1.70322 7.4504,3.78493 4.9296,3.34763 5.57356,4.14501 5.57356,6.90142 0,3.16475 4.38093,11.95389 10.20369,20.47094 1.66895,2.44119 3.27513,5.92166 3.5693,7.73437 0.46478,2.86406 0.28515,3.29584 -1.37111,3.29584 -1.29642,0 -2.23633,-0.94772 -2.93901,-2.96342 -0.56818,-1.62989 -2.02022,-4.26661 -3.22673,-5.85937 -1.20653,-1.59278 -3.38818,-5.63815 -4.84813,-8.98971 -2.58201,-5.92744 -5.62545,-10.3125 -7.15738,-10.3125 -0.41526,0 -1.6017,1.65962 -2.63653,3.68805 -1.03482,2.02842 -2.70315,4.26355 -3.7074,4.96695 -2.16752,1.5182 -9.4492,13.84924 -9.4492,16.0016 0,0.82513 -0.53919,1.8376 -1.19822,2.24994 -1.07261,0.67112 -9.11428,16.21208 -9.11428,17.61383 0,1.01927 5.07638,5.31654 8.4375,7.14255 1.80469,0.98044 4.39929,2.67549 5.76578,3.76677 1.36649,1.09128 2.91627,1.71733 3.44395,1.3912 0.52767,-0.32612 1.67264,-2.74027 2.54436,-5.3648 1.82928,-5.50744 0.87202,-9.26859 -2.35899,-9.26859 -1.05953,0 -1.8951,-0.62003 -1.8951,-1.40625 0,-1.88113 5.92543,-1.89725 7.48312,-0.0203 1.49462,1.80091 1.49258,3.58696 -0.0183,15.95784 -0.69271,5.67187 -1.15909,15.58594 -1.0364,22.03125 0.15763,8.28008 -0.0609,11.30611 -0.74456,10.3125 -0.5322,-0.77344 -0.97411,-2.90904 -0.98201,-4.74578 C 120.00176,218.26171 116.89334,210 115.80354,210 c -0.45231,0 0.13201,6.59323 1.45401,16.40625 0.75288,5.58859 5.80657,28.37058 8.31855,37.5 0.93148,3.38533 3.56742,13.5782 7.73903,29.92597 1.70012,6.6624 3.5366,12.56866 4.08107,13.125 0.54448,0.55635 1.31113,1.85528 1.70367,2.88653 0.68559,1.8011 0.75211,1.80661 1.68759,0.13998 0.53562,-0.95426 0.97911,-3.27458 0.98552,-5.15625 0.0119,-3.50508 -3.53427,-17.66799 -4.84666,-19.35659 -0.40165,-0.5168 -1.01394,-2.20526 -1.36062,-3.75214 -0.90312,-4.02953 -3.1648,-11.84017 -6.24375,-21.5625 -1.46963,-4.64062 -2.9488,-10.33594 -3.28704,-12.65625 -0.33824,-2.32031 -1.44746,-7.04594 -2.46494,-10.5014 -1.01749,-3.45545 -1.69662,-7.04139 -1.5092,-7.96875 0.41676,-2.06211 5.72102,11.71588 11.08077,28.78265 2.18605,6.96094 5.15383,16.33678 6.59507,20.83522 1.44123,4.49842 3.10438,10.51014 3.69587,13.35937 0.5915,2.84922 1.44736,5.18041 1.90192,5.18041 0.45456,0 2.55274,-3.6335 4.66263,-8.07444 3.20253,-6.74076 3.7491,-8.71511 3.3091,-11.95313 -0.68922,-5.07212 -1.55797,-17.23453 -1.46779,-20.5489 0.039,-1.43425 -0.43281,-3.54362 -1.04852,-4.6875 -0.61572,-1.14388 -1.16859,-4.40009 -1.22861,-7.23603 -0.06,-2.83594 -0.81127,-12.75 -1.66945,-22.03125 -0.85818,-9.28125 -1.78155,-19.97627 -2.05194,-23.7667 -0.33443,-4.68822 -1.1208,-7.90975 -2.45947,-10.07577 -2.35429,-3.80932 -1.85744,-7.50871 1.55277,-11.56153 1.90578,-2.26487 2.12077,-3.10662 1.32684,-5.19482 -0.5211,-1.37059 -0.94746,-3.11058 -0.94746,-3.86663 0,-2.20017 2.76037,-2.67626 4.23398,-0.73027 1.2722,1.68006 1.33272,1.6606 1.36121,-0.43766 0.0164,-1.20773 -0.81394,-3.26854 -1.84519,-4.57955 -1.03125,-1.31102 -1.87554,-3.69788 -1.87621,-5.30413 -6.7e-4,-1.60624 -1.08158,-7.35013 -2.40202,-12.76419 -1.32044,-5.41406 -3.41347,-14.7812 -4.65117,-20.81586 -1.2377,-6.03466 -2.66533,-11.72998 -3.17251,-12.65625 -0.50718,-0.92627 -1.59977,-5.48101 -2.42799,-10.12164 -2.40896,-13.497873 -2.44713,-13.641348 -3.4625,-13.013817 -0.59261,0.366257 -0.83444,4.069315 -0.62684,9.598936 0.40324,10.740741 -0.32995,11.393791 -7.04087,6.271231 -2.39586,-1.8288 -4.72514,-3.3251 -5.17616,-3.3251 -1.80991,0 -1.85164,4.35225 -0.0744,7.76193 2.45361,4.70735 2.3805,5.04198 -1.37205,6.28043 -2.40277,0.79299 -4.22726,0.79161 -7.18728,-0.006 -4.02461,-1.08371 -11.45391,0.10889 -12.640719,2.02918 -0.802219,1.29802 -3.201769,0.93115 -3.201769,-0.48953 0,-1.8052 3.715284,-4.05477 8.819218,-5.33995 4.65931,-1.17322 4.99302,-1.71766 2.99053,-4.87897 -1.78332,-2.81532 -0.46954,-5.879395 2.88113,-6.719564 1.45908,-0.365868 3.40759,-1.474725 4.33002,-2.464143 0.92243,-0.989419 2.29352,-1.798941 3.04688,-1.798941 0.75334,0 1.36972,-0.608888 1.36972,-1.35309 0,-0.7442 0.92966,-2.004244 2.0659,-2.8001 1.75456,-1.228937 2.35253,-1.256687 3.96789,-0.184132 1.76807,1.173959 2.06817,0.932216 4.26222,-3.433462 4.41673,-8.78829 7.15868,-8.358126 8.49273,1.332367 1.03489,7.517282 2.38281,12.984965 3.46885,14.071005 0.87642,0.87642 4.70824,-4.494307 9.05677,-12.694093 1.73332,-3.268196 2.43567,-6.017077 2.43567,-9.532522 0,-5.704642 0.64873,-7.905795 2.33002,-7.905795 3.15915,0 4.00546,16.740225 1.12331,22.219069 -0.86808,1.650178 -1.57833,3.920672 -1.57833,5.04555 0,1.124881 -1.47656,3.437811 -3.28125,5.139851 -1.80469,1.70204 -3.28125,3.69887 -3.28125,4.4374 0,0.73852 -0.77872,2.34888 -1.7305,3.57857 -1.68215,2.17333 -1.6822,2.52403 -0.002,12.54831 0.95081,5.67187 2.31138,11.59102 3.02348,13.15364 0.71209,1.56263 1.78848,5.3595 2.39197,8.4375 0.60349,3.078 1.9819,8.54948 3.06313,12.15886 1.08123,3.60937 2.1238,7.14727 2.31682,7.86199 0.27807,1.02964 0.74075,0.94671 2.22817,-0.39939 2.49617,-2.259 4.96329,-10.91586 4.15705,-14.58664 -0.57567,-2.621 -0.43746,-2.84665 1.56956,-2.56252 1.89158,0.26778 2.23993,0.91192 2.47919,4.58431 0.17979,2.75948 -0.40127,5.85831 -1.64062,8.7496 -1.05545,2.46226 -1.919,5.60956 -1.919,6.994 0,1.38443 -1.11555,4.15882 -2.47899,6.16533 l -2.47901,3.64816 0.65832,17.42883 c 0.7284,19.28397 1.78891,31.4224 3.48853,39.92883 0.61814,3.09375 1.15899,6.74487 1.20189,8.1136 0.14808,4.72393 1.34727,1.66654 4.38128,-11.17025 1.67444,-7.08447 3.21866,-13.09112 3.4316,-13.34813 0.21295,-0.257 0.97033,0.33024 1.68307,1.30496 0.99144,1.35588 1.24875,5.12539 1.09522,16.04534 -0.17525,12.46576 -0.0345,14.03569 1.11188,12.39823 0.97217,-1.38867 1.33684,-5.52979 1.40625,-15.96879 0.0667,-10.02539 0.41717,-14.20171 1.21419,-14.46731 0.76038,-0.25339 0.95251,-1.79167 0.59782,-4.78651 -0.28748,-2.42722 -0.0551,-7.42673 0.51639,-11.11005 1.80363,-11.62465 2.22507,-31.93852 1.01747,-49.04234 -1.1346,-16.06979 -1.54525,-29.08322 -1.12419,-35.625 0.54828,-8.51829 0.13626,-21.904866 -0.78546,-25.519477 -6.22582,-24.415068 -7.87713,-37.655053 -6.51154,-52.208527 1.03356,-11.014867 3.8685,-22.832333 6.09261,-25.396996 0.67072,-0.773438 1.75518,-3.9375 2.40991,-7.03125 1.70688,-8.06562313 2.33567,-9.03987293 5.37589,-8.32955679 3.81783,0.89196619 4.41372,1.86819539 7.65969,12.54830679 1.64547,5.414062 3.43139,11.276734 3.9687,13.028159 1.17795,3.839608 2.46123,23.909463 2.09003,32.686992 -0.14691,3.473855 -0.91728,8.636411 -1.71192,11.472349 -2.68535,9.583452 -4.99889,17.323558 -6.46837,21.640352 -1.248,3.666167 -1.39605,8.824578 -1.00904,35.156248 0.58983,40.13118 0.53998,46.71856 -0.53157,70.23465 -0.49339,10.82812 -0.60114,21.31583 -0.23943,23.30602 0.36171,1.99019 0.2863,9.56085 -0.1676,16.8237 -0.62017,9.92351 -0.53645,14.00386 0.3369,16.41904 0.92645,2.56207 0.92505,3.3604 -0.007,3.93638 -0.87133,0.53851 -0.63861,1.28499 0.9138,2.93118 l 2.08286,2.20868 -0.71437,-4.6875 c -1.20978,-7.93838 -0.92784,-34.41427 0.39185,-36.79688 1.78155,-3.21646 3.91488,-2.68521 3.91488,0.97491 0,1.69636 0.63281,5.51381 1.40625,8.48324 0.77343,2.96943 1.4359,6.53853 1.47214,7.93135 0.11228,4.31501 1.66346,-0.48435 1.75708,-5.43637 0.0439,-2.32031 0.66531,-6.75 1.381,-9.84375 0.7157,-3.09375 2.00843,-10.88634 2.87276,-17.31687 1.48033,-11.01363 2.35334,-14.05801 5.65328,-19.71438 1.73243,-2.96953 1.74122,-5.34544 0.0376,-10.17391 -0.74655,-2.11593 -1.61602,-6.49319 -1.93217,-9.72725 -0.31614,-3.23404 -1.01637,-7.89792 -1.55607,-10.36414 -0.73073,-3.33923 -0.6871,-5.19422 0.17091,-7.26563 1.85514,-4.47872 3.73718,-3.54111 3.73718,1.86182 0,4.46218 1.48121,9.41911 2.81459,9.41911 0.35125,0 1.16902,-1.79297 1.81729,-3.98438 2.11026,-7.13354 7.61192,-20.77394 8.99552,-22.3028 2.95679,-3.26721 2.56157,-6.69449 -1.40111,-12.15032 -2.0598,-2.83594 -5.2657,-7.78921 -7.12422,-11.00728 -1.85851,-3.21806 -3.7595,-6.08613 -4.22444,-6.37347 -0.46493,-0.28735 -1.96003,-4.09768 -3.32244,-8.467391 -2.00388,-6.427136 -2.34906,-8.881104 -1.80685,-12.845275 0.36865,-2.695184 0.64335,-6.464274 0.61044,-8.375758 -0.0329,-1.911483 0.36951,-3.74077 0.89426,-4.065084 1.82842,-1.13002 3.68438,1.653149 3.69832,5.545925 0.0246,6.84799 2.65953,15.639508 6.13914,20.482889 1.80849,2.517282 3.54061,5.839134 3.84917,7.381894 0.35864,1.79321 1.51282,3.29723 3.19971,4.16955 1.45128,0.75049 3.76527,2.84153 5.14218,4.64677 1.37692,1.80523 2.79396,3.28223 3.14899,3.28223 1.49739,0 4.00848,-13.21614 3.68504,-19.394662 -0.32642,-6.229653 -0.27866,-6.386588 1.94299,-6.386588 1.75838,0 2.98733,1.175472 5.39082,5.15625 2.85903,4.73527 3.06719,5.59822 2.5496,10.56943 l -0.56363,5.41317 2.90106,-2.90105 c 3.82079,-3.82078 7.01192,-3.53769 7.41921,0.6582 0.21457,2.21043 0.85077,3.09994 2.51608,3.51791 1.54565,0.38794 2.31976,1.33764 2.52531,3.09817 0.21207,1.81631 0.9634,2.69365 2.64018,3.08303 3.33987,0.77557 3.6208,4.24923 0.53967,6.67284 -3.93626,3.09627 -3.16881,4.60863 2.03845,4.01709 7.56591,-0.85949 11.86115,-0.45114 13.13764,1.24901 1.87686,2.49975 0.84972,3.52341 -3.60669,3.59449 -3.35412,0.0535 -5.60899,1.01838 -11.8747,5.08137 -4.2539,2.75844 -7.73437,5.35525 -7.73437,5.77069 0,1.68486 3.70533,6.6763 7.1359,9.61274 2.00677,1.71772 5.28556,5.92208 7.28621,9.34302 2.00064,3.42094 4.03116,6.21989 4.51227,6.21989 0.48111,0 2.52847,3.52897 4.5497,7.84215 2.02123,4.31317 4.28594,8.34922 5.03269,8.96897 1.91777,1.5916 5.23307,-0.7571 7.9882,-5.65918 1.8609,-3.31104 2.10081,-4.75357 1.67428,-10.06724 -0.73866,-9.20214 3.11569,-15.97134 7.33662,-12.88493 1.16859,0.8545 1.46184,1.88835 1.02704,3.62077 -0.45116,1.79756 0.15481,3.65282 2.34266,7.17233 1.88428,3.03117 3.11064,6.40641 3.39214,9.33597 l 0.44089,4.58842 3.623,-0.48594 c 4.38813,-0.58858 9.2834,1.24364 9.2834,3.47461 0,0.88878 -0.85402,2.38884 -1.89781,3.33346 -2.53619,2.29523 -1.90872,3.63079 1.97233,4.19811 2.41644,0.35323 3.20714,0.92776 3.20842,2.33123 9.2e-4,1.02437 0.70328,1.99761 1.56079,2.16275 2.12868,0.40994 2.86529,2.73873 1.60885,5.08641 -0.83236,1.55528 -0.73785,2.11404 0.47211,2.79117 1.56643,0.87662 1.9405,3.23555 0.93045,5.86769 -1.03108,2.68696 -5.58904,4.26075 -12.33983,4.26075 -3.54905,0 -6.71211,0.25929 -7.02902,0.57621 -1.79439,1.79439 7.73835,11.27974 12.67095,12.60796 4.80342,1.29343 4.81075,3.96524 0.0146,5.33725 -7.43052,2.12564 -9.38554,2.22271 -13.02789,0.64683 -1.987,-0.85969 -4.87836,-1.88967 -6.42524,-2.28886 -1.54687,-0.39919 -3.55078,-1.03048 -4.45312,-1.4029 -2.39196,-0.98717 -2.18532,2.91746 0.23437,4.42858 1.03125,0.64402 1.875,1.66731 1.875,2.27397 0,0.60665 0.88,3.1419 1.95557,5.63386 1.35789,3.1461 2.0611,7.10958 2.30088,12.96835 l 0.3453,8.4375 5.4335,1.90538 c 8.48086,2.97399 11.80613,4.63552 16.59893,8.29395 5.37442,4.10238 7.72521,4.31263 9.12765,0.8163 3.17765,-7.922 5.33077,-9.74777 13.70575,-11.62201 6.46184,-1.4461 7.89568,-0.30899 4.90553,3.89029 -1.70679,2.39697 -2.00112,3.73534 -1.54816,7.03999 0.3076,2.24421 0.10504,5.38339 -0.45012,6.97595 -1.35134,3.87643 0.17505,5.79955 3.99649,5.03526 2.05863,-0.41173 3.1137,-0.10046 4.10716,1.21167 1.54238,2.03713 1.84201,7.47348 0.45902,8.32822 -1.59305,0.98455 -1.04427,5.9382 1.46238,13.20061 2.80903,8.13852 2.32474,10.11517 -1.56521,6.38837 -2.25728,-2.16262 -2.70966,-2.31651 -2.70966,-0.92176 0,0.92084 -1.2304,2.82364 -2.73424,4.22842 -1.51842,1.41841 -2.87326,3.77426 -3.04687,5.29801 -0.24537,2.15348 -0.83463,2.80452 -2.73867,3.02582 -1.82761,0.21242 -3.24374,-0.62312 -5.74094,-3.38722 -1.8232,-2.01807 -3.7638,-4.46527 -4.31246,-5.43823 -0.82018,-1.45449 -1.21629,-1.55194 -2.22781,-0.5481 -1.87259,1.85838 -1.64144,15.45386 0.30058,17.67889 0.82816,0.94886 1.3147,2.25253 1.0812,2.89706 -0.64467,1.7795 -2.92146,1.40157 -4.23586,-0.70312 -0.64402,-1.03125 -1.89991,-1.875 -2.79087,-1.875 -2.02029,0 -8.70881,-8.93091 -11.22757,-14.99174 -1.80814,-4.35087 -1.82467,-4.81494 -0.39524,-11.09967 2.14748,-9.44177 1.48706,-11.36002 -6.3522,-18.45022 l -6.6728,-6.03519 -0.61566,2.93967 c -0.3386,1.61682 -0.42808,3.42848 -0.19883,4.02591 0.75484,1.96706 0.83068,19.2317 0.0856,19.47963 -0.4009,0.13341 -1.15322,5.51212 -1.6718,11.95271 -0.52815,6.55932 -1.60044,13.23452 -2.43778,15.17573 l -1.49489,3.46558 3.1667,3.26789 c 20.35797,21.0086 24.03456,23.65272 31.36084,22.55408 2.29437,-0.34406 5.11585,-1.33201 6.26996,-2.19543 3.17653,-2.37645 7.06947,-3.85116 8.60789,-3.26081 1.64437,0.631 6.14675,9.34957 6.14675,11.90278 0,1.43718 -0.42543,1.66737 -2.10938,1.14134 -3.54319,-1.10683 -5.07323,-0.73894 -9.1207,2.19303 -2.14031,1.55044 -4.3846,2.98336 -4.9873,3.18425 -0.67936,0.22646 -0.12182,1.5228 1.46704,3.41105 3.68897,4.3841 3.49101,8.72374 -0.58384,12.79859 -1.73068,1.73068 -3.84978,4.21974 -4.70912,5.53125 -0.85933,1.31152 -2.40969,2.38457 -3.44524,2.38457 -1.03554,0 -2.13262,0.65101 -2.43795,1.44668 -1.16581,3.03806 0.81972,2.80291 9.82023,-1.16297 3.57355,-1.57461 5.79376,-1.07439 5.79376,1.30537 0,0.90637 -4.32422,5.8962 -9.60938,11.08852 -10.73136,10.54286 -18.51562,19.38532 -18.51562,21.03265 0,0.59922 -2.02471,3.27907 -4.49934,5.95524 -2.47465,2.67617 -5.69302,6.33377 -7.15196,8.12801 -2.79771,3.44069 -15.0561,13.144 -16.60508,13.144 -0.49996,0 -2.72128,0.82559 -4.9363,1.83464 -8.83035,4.02269 -30.97664,5.71575 -38.05734,2.90944 -1.80469,-0.71526 -5.15982,-1.95435 -7.45584,-2.75353 -2.29603,-0.79919 -6.09291,-2.91903 -8.4375,-4.71074 -3.9315,-3.00442 -9.67539,-5.70338 -16.30785,-7.66281 -2.52084,-0.74473 -2.63658,-0.65585 -2.07248,1.59171 0.48758,1.94265 0.29025,2.32132 -1.07284,2.05881 -1.00869,-0.19425 -1.86247,-1.43116 -2.15548,-3.12272 -0.32839,-1.89595 -1.01233,-2.7758 -2.11659,-2.72293 -0.89728,0.0429 -2.86691,0.14845 -4.37695,0.23438 -1.51005,0.086 -3.47824,0.88895 -4.37377,1.78448 -1.54597,1.54597 -1.4191,1.66374 2.51116,2.33124 2.27666,0.38665 5.33613,1.19685 6.79881,1.80043 3.92151,1.61823 8.94241,9.47997 13.38539,20.95885 1.39702,3.60938 3.42095,7.74494 4.49761,9.19014 7.04939,9.46236 13.69641,14.8357 20.65211,16.69481 7.36315,1.96803 8.06326,4.43385 2.10388,7.4101 -3.6423,1.81905 -4.59349,1.91901 -9.54718,1.00327 -3.02601,-0.55939 -7.42826,-1.02633 -9.78279,-1.03766 -2.35452,-0.0113 -6.01246,-0.80694 -8.12877,-1.76803 -2.11631,-0.9611 -6.0246,-2.21427 -8.68508,-2.78484 -2.66049,-0.57057 -6.30787,-1.65188 -8.10529,-2.40289 l -3.26805,-1.36548 0,2.89636 c 0,5.38835 -4.67908,12.64139 -6.79207,10.5284 z m 35.60658,-11.169 c 0.77114,-1.37795 2.91224,-1.12783 7.98236,0.93248 0.90235,0.36669 1.64063,0.25241 1.64063,-0.25392 0,-0.50634 -1.17631,-1.15588 -2.61403,-1.44342 -3.31175,-0.66235 -14.31591,-9.37934 -16.01092,-12.68311 -0.70466,-1.37347 -2.55234,-3.83937 -4.10596,-5.47978 -2.16262,-2.28345 -2.71037,-3.58092 -2.33679,-5.53522 0.56529,-2.95715 -3.0813,-13.76267 -5.57417,-16.51725 -3.25555,-3.59735 -13.10339,-6.41377 -14.02536,-4.01116 -0.29336,0.76447 -1.05567,1.38995 -1.69402,1.38995 -2.81831,0 -4.70083,3.83056 -4.5749,9.30897 0.19372,8.42669 6.26714,18.35192 10.54528,17.23316 1.71003,-0.44718 5.58924,2.76119 5.81151,4.80652 0.0594,0.5473 0.16494,1.50366 0.23438,2.12523 0.18252,1.63404 6.26241,5.90112 8.40814,5.90112 1.00314,0 2.31725,-0.67471 2.92024,-1.49936 0.9621,-1.31575 1.46231,-1.08257 4.08459,1.90405 2.59682,2.95761 5.65023,4.95998 7.8698,5.16088 0.3611,0.0327 1.00875,-0.56992 1.43922,-1.33914 z m -7.69669,-4.17987 c -1.76449,-3.41218 -1.77382,-3.79656 -0.0921,-3.79656 1.35505,0 5.22429,4.25965 5.22429,5.75143 0,2.03774 -3.81995,0.5827 -5.13218,-1.95487 z m -16.72367,-11.11348 c -2.91369,-3.04124 -3.30279,-5.80808 -0.81678,-5.80808 1.79131,0 6.23501,6.75012 5.15481,7.83032 -1.02843,1.02844 -1.72751,0.70255 -4.33803,-2.02224 z m 5.40627,-2.46138 c -0.91194,-1.3918 -1.29936,-3.08487 -0.92505,-4.04259 0.56296,-1.44041 0.92938,-1.29378 2.91062,1.16464 1.24662,1.54688 2.13698,3.208 1.97857,3.69141 -0.60964,1.86048 -2.46103,1.48057 -3.96414,-0.81346 z m -19.40123,-11.08108 c -0.75841,-1.16015 -1.69757,-3.11673 -2.087,-4.34795 -0.63976,-2.02267 -0.47648,-2.19431 1.69291,-1.77961 1.50324,0.28736 2.58279,-0.0149 2.88725,-0.80829 0.73695,-1.92045 2.94801,-1.51941 4.64273,0.8421 l 1.51377,2.10938 -0.56356,-2.57813 c -0.4645,-2.12496 -0.24166,-2.57812 1.26777,-2.57812 3.64685,0 6.21579,4.90615 3.82224,7.2997 -0.85793,0.85793 -1.47266,0.78599 -2.68888,-0.31468 -1.44105,-1.30413 -1.53941,-1.23183 -1.14328,0.8404 0.67007,3.5052 -1.60046,4.1384 -4.00886,1.11798 l -2.08039,-2.60905 0.46985,2.45783 c 0.60006,3.13899 -1.75619,3.35942 -3.72455,0.34844 z m 15.77433,-5.26425 c -2.83816,-4.49594 -3.05064,-6.00895 -0.7829,-5.57467 2.36416,0.45274 5.69429,6.92589 4.28701,8.33317 -0.81579,0.81579 -1.67448,0.13981 -3.50411,-2.7585 z M 131.25,507.21692 c 0,-0.49944 -0.63281,-0.66524 -1.40625,-0.36845 -0.77344,0.29681 -1.40625,0.70543 -1.40625,0.90808 0,0.20264 0.63281,0.36845 1.40625,0.36845 0.77344,0 1.40625,-0.40864 1.40625,-0.90808 z m 59.57642,-2.48897 c 3.28866,-2.15483 4.68389,-4.90347 2.84685,-5.60841 -0.77417,-0.29708 -2.46868,-2.35077 -3.76557,-4.56376 -1.2969,-2.21298 -2.9837,-4.26371 -3.74844,-4.55716 -0.76474,-0.29346 -2.32427,-3.60801 -3.46563,-7.36565 -1.98813,-6.54552 -2.1105,-6.71454 -2.91724,-4.0294 -0.46315,1.54147 -2.29135,5.7558 -4.06267,9.36518 -4.7176,9.61292 -5.29918,12.18863 -3.30747,14.64829 3.55535,4.39066 13.24596,5.50118 18.42017,2.11091 z m -51.30989,-1.7592 c 3.24971,-2.73445 3.92097,-2.8822 3.92097,-0.86301 0,1.17322 0.61333,1.34603 2.95325,0.8321 2.4765,-0.54394 2.85961,-0.40461 2.37317,0.86301 -0.89839,2.34118 1.06912,1.8085 6.29529,-1.70435 9.07501,-6.0999 14.47206,-11.87322 16.50409,-17.65472 2.87164,-8.17033 2.20601,-12.65005 -1.07741,-7.25091 -2.24596,3.69318 -4.97784,3.84388 -4.1881,0.23101 l 0.56356,-2.57813 -1.51377,2.10938 c -1.90956,2.66088 -3.16008,2.69613 -3.16008,0.0891 0,-1.95452 -0.0605,-1.96557 -1.85737,-0.33941 -1.79765,1.62686 -1.88365,1.60981 -2.67535,-0.53034 l -0.81799,-2.21122 -1.30015,2.08188 c -1.71574,2.74734 -2.72414,2.63463 -2.72414,-0.30446 0,-1.3125 1.03552,-3.42187 2.30114,-4.6875 2.44073,-2.44074 4.26136,-2.98049 4.26136,-1.26334 0,0.57079 0.60197,0.80681 1.33771,0.52448 0.73573,-0.28233 1.82127,0.0694 2.41229,0.78147 1.79195,2.15917 3.88467,0.57599 3.5661,-2.6978 -0.27025,-2.77718 -0.47338,-2.91566 -3.96349,-2.70198 -2.02324,0.12388 -5.09346,1.17856 -6.8227,2.34375 -3.69268,2.4882 -7.77991,8.95442 -7.77991,12.30826 0,1.29573 -0.42188,2.6166 -0.9375,2.93527 -1.08087,0.66802 -1.29018,6.09957 -0.23438,6.08214 0.38672,-0.007 1.6881,-1.53156 2.89195,-3.38929 2.70295,-4.17108 4.89154,-3.11929 3.00191,1.44266 -1.39669,3.37189 -3.16585,4.98999 -5.61321,5.13393 -0.98722,0.058 -2.7774,1.56433 -3.97818,3.34728 -1.20079,1.78294 -4.0042,4.6306 -6.22979,6.32812 -3.09911,2.36377 -3.60732,3.08641 -2.17061,3.08641 1.03177,0 3.12938,-1.05469 4.66134,-2.34375 z m 11.94768,-7.87498 c -0.94658,-1.53159 4.13752,-9.61111 5.83997,-9.28075 0.79569,0.1544 1.59123,0.71494 1.76789,1.24565 0.48359,1.4527 -6.87365,9.22308 -7.60786,8.0351 z m 6.66079,0.21873 c -1.74722,-1.74721 1.93032,-8.75 4.59508,-8.75 1.92855,0 1.66885,1.31072 -1.05502,5.32455 -2.94534,4.3402 -2.78269,4.18282 -3.54006,3.42545 z M 102.90743,470.625 c 0.64403,-1.03125 1.81504,-1.875 2.60225,-1.875 0.78721,0 2.50714,-0.70493 3.82207,-1.5665 1.93812,-1.26991 2.53589,-1.33169 3.15723,-0.32632 0.60274,0.97524 1.73722,0.68127 5.31062,-1.37612 6.30731,-3.63143 7.8254,-5.11697 7.8254,-7.65761 0,-2.54626 -0.79713,-2.74266 -3.33644,-0.82201 -2.48839,1.88211 -3.22606,1.7708 -3.22606,-0.48678 0,-1.32566 1.0604,-2.36589 3.4144,-3.34946 3.48329,-1.45542 7.8356,-1.09417 7.8356,0.65037 0,0.53204 1.37109,-0.0549 3.04687,-1.30448 1.67579,-1.24951 4.3125,-2.69842 5.85938,-3.21981 2.25905,-0.76144 2.48965,-1.0617 1.17187,-1.52588 -2.49822,-0.87998 -3.78492,-1.47373 -6.13298,-2.83006 -1.56277,-0.90271 -3.33446,-1.01956 -6.49786,-0.42858 -4.49964,0.84062 -9.28633,3.34169 -8.29425,4.33378 0.31115,0.31114 1.06494,0.0665 1.6751,-0.54367 1.46194,-1.46194 2.60937,-1.40852 2.60937,0.12148 0,3.32367 -8.21008,7.97498 -9.73151,5.51325 -0.25694,-0.41573 -1.98442,-0.57875 -3.83883,-0.36227 -2.44024,0.28489 -4.01515,1.23727 -5.70099,3.44752 -1.7784,2.3316 -3.26177,3.17896 -6.271851,3.58269 -2.38321,0.31965 -4.46135,0.0982 -5.254287,-0.55985 -0.721465,-0.59876 -4.739522,-1.1815 -8.929018,-1.29496 l -7.617264,-0.2063 3.75,1.71207 c 2.976301,1.35884 3.419483,1.84963 2.148038,2.37876 -2.255617,0.9387 -8.489091,-1.25756 -7.903135,-2.78454 0.306362,-0.79837 -0.639668,-1.41148 -2.748236,-1.78109 -10.722711,-1.87959 -10.312688,-1.86886 -8.956195,-0.23438 1.074866,1.29513 1.03525,1.61152 -0.264225,2.11017 -1.969528,0.75578 -6.822027,-1.24819 -7.537558,-3.11284 -0.303758,-0.79157 -0.115757,-1.96522 0.417779,-2.60809 0.707721,-0.85275 0.358929,-1.5693 -1.289712,-2.64953 -1.242879,-0.81437 -3.826643,-2.9161 -5.741698,-4.67052 -3.047779,-2.79214 -3.760728,-3.06065 -5.718049,-2.15352 -1.229871,0.56998 -2.239422,1.28882 -2.243445,1.59742 -0.004,0.3086 2.465557,2.98679 5.487954,5.95153 5.077449,4.9806 11.630759,8.95613 14.763361,8.95613 0.717129,0 1.303871,0.85419 1.303871,1.8982 0,1.12533 0.889614,2.23644 2.184922,2.72892 4.150971,1.57819 14.693416,3.96552 15.833525,3.58548 0.629125,-0.20971 3.055,0.34776 5.390833,1.23883 2.335833,0.89105 6.993146,1.66026 10.349579,1.70934 5.144371,0.0752 6.286481,-0.20519 7.273571,-1.78577 z m -22.75118,-2.55338 c -3.862348,-0.94938 -5.757855,-4.00912 -2.483647,-4.00912 3.068717,0 7.639897,2.01815 7.639897,3.37297 0,1.31112 -1.604772,1.50911 -5.15625,0.63615 z m 17.515369,-3.11774 c 0.542531,-1.62758 9.344001,-3.93826 10.520321,-2.76194 0.9734,0.9734 -2.79475,2.67163 -7.77089,3.50218 -2.411406,0.40248 -3.071125,0.22486 -2.749431,-0.74024 z M 183.75,467.63332 c 0,-1.10476 -2.5964,-0.92894 -3.309,0.22408 -0.33393,0.54031 -0.3287,1.70046 0.0116,2.57812 0.56642,1.46071 0.73211,1.44175 1.95808,-0.22408 0.73661,-1.00089 1.33929,-2.16105 1.33929,-2.57812 z m 81.04028,-0.69925 c 0.92121,-1.01791 1.3341,-2.31636 0.93959,-2.95472 -0.40951,-0.66259 0.005,-1.65658 0.98955,-2.37703 1.56195,-1.14212 1.5709,-1.28523 0.1153,-1.8438 -1.00539,-0.3858 -1.38304,-1.22014 -1.04063,-2.29899 0.7791,-2.45473 -3.21685,-2.87586 -5.80295,-0.61157 -1.95824,1.71456 -2.231,1.72283 -6.79688,0.2063 -4.93048,-1.63765 -5.47151,-2.21451 -3.7198,-3.96622 0.75762,-0.75762 -0.70685,-1.91212 -5.43628,-4.28566 -6.12531,-3.07408 -6.82353,-3.21515 -12.99009,-2.62449 -6.55948,0.62829 -10.73559,2.14443 -10.73559,3.89758 0,1.05561 6.39381,0.1816 8.01754,-1.09598 1.40444,-1.10504 5.10746,0.054 5.10746,1.5986 0,0.7133 -0.63281,1.29691 -1.40625,1.29691 -2.42371,0 -1.54334,2.38628 2.10937,5.71758 4.93589,4.50155 8.78584,6.92025 8.07764,5.07469 -1.40397,-3.65865 5.33278,-1.845 9.03174,2.43151 1.16985,1.35251 6.63017,3.13613 10.87032,3.55082 0.56462,0.0552 1.7661,-0.71676 2.66996,-1.71553 z m -17.05591,-6.59632 c -4.12162,-1.87088 -5.03179,-3.43216 -2.5549,-4.38264 1.73538,-0.66592 9.17711,4.0606 8.39239,5.33032 -0.75424,1.22037 -1.23204,1.1428 -5.83749,-0.94768 z M 281.33777,465 c 1.1177,0 1.54568,-0.47612 1.21129,-1.34753 -0.34341,-0.89491 0.77937,-2.00892 3.34283,-3.3167 4.19023,-2.1377 6.57458,-1.77963 4.54426,0.68243 -1.08901,1.32057 -0.97021,1.35039 1.12635,0.28266 3.47315,-1.76878 8.87449,-7.78879 8.59297,-9.57718 -0.13485,-0.85667 0.21736,-1.84345 0.7827,-2.19284 0.74298,-0.45919 0.73739,-0.98529 -0.0203,-1.89813 -0.73614,-0.88698 -0.7595,-1.80207 -0.0785,-3.07451 0.53327,-0.99643 0.7382,-2.04304 0.45543,-2.32582 -0.87406,-0.87406 -6.82425,3.12512 -8.82015,5.9281 -2.10264,2.95289 -9.07076,5.94854 -16.38972,7.04609 -3.93673,0.59034 -4.30483,0.81072 -2.48105,1.48538 1.40364,0.51924 1.88701,1.19869 1.40292,1.97199 -0.40622,0.64889 -0.74973,1.79795 -0.76336,2.55345 -0.0138,0.76481 -1.68689,1.91194 -3.77478,2.58814 -3.21388,1.04087 -3.31959,1.15044 -0.73947,0.76644 1.65578,-0.24643 3.28898,0.003 3.62932,0.55319 0.35227,0.56998 1.83171,0.75865 3.43479,0.43803 1.5488,-0.30976 3.59377,-0.56319 4.54439,-0.56319 z m 4.16552,-7.44412 c -0.55557,-0.89894 2.97894,-4.74338 4.36099,-4.74338 1.37706,0 0.79357,2.49217 -0.95372,4.07345 -1.96388,1.77728 -2.64065,1.91035 -3.40727,0.66993 z m -102.07976,3.46391 c 0.39692,-0.64225 1.00433,-3.06803 1.34979,-5.39063 0.34546,-2.3226 0.9605,-5.69947 1.36675,-7.50416 0.66615,-2.95918 0.58906,-3.15824 -0.78544,-2.02801 -1.28183,1.05404 -1.86167,1.01679 -3.64796,-0.23437 -2.9087,-2.03733 -3.58167,-1.87647 -3.58167,0.85613 0,1.75842 -0.49331,2.34375 -1.9753,2.34375 -1.41901,0 -1.81448,0.41912 -1.40423,1.48821 0.3141,0.81851 0.81628,3.24429 1.11596,5.39062 0.29969,2.14633 0.70741,4.42976 0.90606,5.07429 0.46852,1.52022 5.71704,1.5235 6.65604,0.004 z m 16.35546,-7.69968 c 6.84791,-1.37749 9.40846,-2.58918 10.27219,-4.86098 0.519,-1.36507 2.47242,-3.01092 4.82224,-4.06297 4.61728,-2.06722 6.68419,-1.45163 3.45723,1.02964 -1.2303,0.946 -1.9473,1.72938 -1.59333,1.74085 0.98629,0.032 11.39101,-10.37914 13.70922,-13.71762 2.67845,-3.85728 2.62994,-5.19194 -0.16322,-4.4909 -2.95774,0.74234 -3.7371,-1.44851 -1.85638,-5.21849 0.8009,-1.60546 1.22397,-3.15123 0.94014,-3.43506 -0.74362,-0.74362 -4.35942,5.46989 -4.36357,7.49853 -0.005,2.08658 -3.12808,1.78342 -3.53764,-0.34332 -0.31418,-1.63134 5.13185,-10.27229 6.47418,-10.27229 0.48859,0 1.73605,0.78975 2.77213,1.75501 1.37211,1.27832 1.74112,2.48784 1.35859,4.45312 -0.46103,2.36847 -0.37436,2.3079 0.70938,-0.4958 0.67902,-1.75666 2.11738,-3.52049 3.19637,-3.91963 2.87402,-1.06318 3.58623,-6.38371 3.31457,-24.76145 -0.25234,-17.07053 -0.81342,-22.23755 -2.17689,-20.04669 -0.65907,1.059 -1.15593,1.08042 -2.7106,0.11687 -1.12479,-0.69713 -1.9036,-0.79302 -1.9036,-0.23437 0,0.51999 -0.81885,0.94544 -1.81967,0.94544 -1.00082,0 -2.09307,0.44236 -2.42721,0.98302 -0.40668,0.65802 -0.98054,0.67347 -1.73573,0.0467 -0.86922,-0.72138 -1.11905,1.72229 -1.08841,10.64618 0.0218,6.37036 0.35618,11.38694 0.74289,11.14795 0.38672,-0.23899 0.70313,-1.83454 0.70313,-3.54565 0,-3.91662 2.20261,-6.1079 3.64582,-3.62708 0.54156,0.93094 1.00395,1.27074 1.02752,0.75511 0.0235,-0.51562 0.45182,-0.30469 0.95166,0.46875 1.21945,1.88696 1.18844,10.04676 -0.0411,10.80663 -0.53822,0.33263 -1.59291,0.0949 -2.34375,-0.52821 -1.07033,-0.88829 -1.36519,-0.88211 -1.36519,0.0286 0,0.69988 -0.74495,0.96682 -1.87406,0.67155 -2.32706,-0.60853 -2.51543,-0.29757 -4.78822,7.90407 -1.92594,6.94998 -1.83334,8.93612 0.26034,5.58362 0.67538,-1.08146 1.7593,-1.9663 2.40871,-1.9663 1.5394,0 1.61158,-0.2842 -1.62453,6.39637 -3.04072,6.27719 -5.32637,7.7774 -4.3407,2.84905 l 0.58842,-2.94208 -1.87749,2.38683 c -1.0326,1.31275 -1.87747,3.21113 -1.87747,4.2186 0,5.68404 -11.25155,19.52963 -19.371,23.83699 -2.43839,1.29357 -4.07613,2.88554 -4.32893,4.20798 -0.59224,3.09814 0.26499,3.3798 2.6043,0.85564 1.13293,-1.22245 3.49526,-2.51136 5.24962,-2.86427 z m 1.80436,-3.08573 c 0.0589,-1.98589 10.04883,-10.54688 12.30731,-10.54688 1.65945,0 0.70776,2.79323 -1.31253,3.85231 -1.16016,0.60818 -3.69263,2.52146 -5.6277,4.25174 -3.37108,3.01428 -5.41156,3.943 -5.36708,2.44283 z m 33.21542,-47.35729 c -0.29475,-0.76811 -0.40522,-3.45235 -0.24547,-5.96496 0.21024,-3.30669 0.67883,-4.56838 1.6967,-4.56838 2.05536,0 2.49899,9.0963 0.52359,10.73573 -1.17954,0.97893 -1.5355,0.94245 -1.97482,-0.20239 z m -66.98627,53.90303 c 0,-1.19711 -4.69629,-7.71762 -5.55849,-7.71762 -0.44188,0 -1.05644,0.65938 -1.36569,1.46528 -0.35672,0.92959 0.53985,2.47192 2.45238,4.21875 2.99801,2.73825 4.4718,3.40848 4.4718,2.03359 z M 60,455.25655 c 0,-0.20265 -0.654724,-0.61968 -1.454942,-0.92676 -0.834305,-0.32015 -1.210614,-0.16299 -0.882171,0.36844 C 58.213441,455.58906 60,456.01584 60,455.25655 Z m 98.4375,-5.09313 c 0,-0.42574 -1.09483,-1.79684 -2.43296,-3.04688 -1.33813,-1.25003 -3.4876,-4.06576 -4.77658,-6.25717 -2.56819,-4.36616 -3.65422,-4.82309 -5.57063,-2.34375 -1.17398,1.51883 -1.47559,1.39703 -4.06251,-1.64062 -4.51651,-5.30344 -3.24623,-9.02792 1.54419,-4.52755 2.47616,2.32623 4.12026,1.63072 2.02657,-0.85733 -3.0304,-3.6012 -8.35117,-13.72999 -7.87051,-14.98256 0.28089,-0.73199 0.0594,-2.17408 -0.49211,-3.20466 -3.77504,-7.05373 -5.37593,-22.22239 -3.35094,-31.7507 0.82066,-3.86152 1.69558,-9.188 1.94428,-11.83662 0.24869,-2.64861 0.72887,-5.91814 1.06706,-7.26562 0.38599,-1.53789 0.22806,-2.44996 -0.42423,-2.44996 -1.33072,0 -1.36368,-7.01684 -0.0445,-9.48169 0.66087,-1.23484 1.57687,-1.67361 2.7299,-1.30766 1.36221,0.43235 1.87208,-0.072 2.37151,-2.34589 0.67998,-3.09594 3.91628,-11.39889 7.58923,-19.47067 1.23875,-2.72231 2.25227,-5.98221 2.25227,-7.24422 0,-1.26201 1.06018,-5.11121 2.35596,-8.55376 1.29577,-3.44256 2.18781,-6.42733 1.98231,-6.63284 -0.39118,-0.39118 -3.5515,5.84631 -5.20402,10.27111 -0.52956,1.41796 -1.37026,2.57812 -1.86822,2.57812 -2.19589,0 -1.88206,-2.39208 1.14163,-8.7018 1.78354,-3.72182 3.48678,-8.03257 3.78499,-9.57945 0.35917,-1.86311 -0.26074,-1.07196 -1.83645,2.34375 -1.30824,2.83594 -3.14661,6 -4.08527,7.03125 -0.93865,1.03125 -3.19952,4.58989 -5.02415,7.90808 -3.04407,5.53582 -3.18711,6.12996 -1.73528,7.20835 1.46856,1.0908 1.42797,1.46566 -0.56475,5.2169 -3.43028,6.45741 -4.81387,8.0162 -5.75851,6.48775 -1.26362,-2.04458 -4.74466,6.66616 -4.16981,10.43425 0.30736,2.01469 -0.1917,4.32357 -1.46352,6.77102 -1.06145,2.04262 -1.92991,4.71883 -1.92991,5.94714 0,1.34264 -0.65749,2.40524 -1.64862,2.66443 -2.84732,0.74459 -6.01928,7.38877 -5.31631,11.1359 0.83455,4.4485 -1.29069,15.44493 -2.98497,15.44493 -3.78037,0 2.41939,25.33885 8.07641,33.00892 1.03042,1.39709 1.87349,2.78526 1.87349,3.08483 0,1.36874 4.24791,6.09375 5.47844,6.09375 3.49071,0 10.82781,8.10665 9.83373,10.86512 -0.50661,1.40576 12.60502,9.42539 15.8597,9.70045 0.38672,0.0327 0.70313,-0.28891 0.70313,-0.71465 z m -35.66788,-35.43246 c -1.53792,-4.04503 -2.22716,-10.66846 -1.11018,-10.66846 1.04517,0 3.96556,7.67676 3.96556,10.42417 0,2.79974 -1.82446,2.95583 -2.85538,0.24429 z m 4.02114,-2.21619 c -1.39178,-4.45944 -1.51519,-8.45227 -0.26124,-8.45227 1.38038,0 2.58988,2.81078 3.32815,7.73437 0.85759,5.71936 -1.34505,6.23493 -3.06691,0.7179 z m 4.64674,-1.13977 c -1.50473,-1.50473 -1.50147,-7.59424 0.004,-7.09248 1.46359,0.48786 2.99113,6.34754 1.93107,7.4076 -0.45484,0.45484 -1.30307,0.31669 -1.93488,-0.31512 z m -5.31422,-25.84777 c -0.62991,-4.58003 0.56692,-9.58973 2.29102,-9.58973 0.57054,0 0.9607,2.85553 0.9607,7.03125 0,5.41646 -0.30276,7.03125 -1.31828,7.03125 -0.86253,0 -1.53094,-1.54628 -1.93344,-4.47277 z m -5.18578,-2.94911 c 0,-5.18584 0.29876,-6.64062 1.36377,-6.64062 2.90361,0 2.68638,11.9312 -0.23496,12.90498 -0.80925,0.26975 -1.12881,-1.50366 -1.12881,-6.26436 z m 8.4375,-24.2351 c 0,-3.42348 1.70413,-8.67797 3.40439,-10.49704 1.10934,-1.18686 1.27092,-1.0599 1.19311,0.9375 -0.29618,7.60314 -4.5975,16.54683 -4.5975,9.55954 z m 8.98459,-20.71627 c -0.60239,-0.97469 4.27744,-12.31425 5.29929,-12.31425 1.44863,0 0.65045,3.91012 -1.72588,8.45476 -2.57826,4.9308 -2.77798,5.14653 -3.57341,3.85949 z m 148.04666,107.3181 c 4.64062,-2.40987 10.94187,-6.63562 14.00277,-9.39056 l 5.56528,-5.009 -2.04965,-5.35607 c -3.08383,-8.05854 -2.74438,-11.66863 1.69912,-18.06996 4.71521,-6.79276 4.92971,-10.80159 1.00158,-18.71879 -1.5123,-3.04807 -3.0443,-6.71593 -3.40442,-8.15079 -0.36013,-1.43487 -1.38947,-4.11928 -2.2874,-5.96535 -1.49104,-3.0654 -1.71622,-3.20025 -2.59642,-1.5548 -0.53008,0.99095 -1.48542,4.45404 -2.12299,7.69575 -0.63756,3.24172 -2.52354,8.15974 -4.19106,10.92894 -1.66753,2.76919 -3.31649,6.55214 -3.66439,8.40654 -0.34789,1.85441 -1.3862,4.10826 -2.30737,5.00857 -0.92116,0.90031 -3.68095,4.48458 -6.13286,7.96504 -2.45191,3.48047 -4.75268,6.32813 -5.11282,6.32813 -0.36014,0 -2.53796,1.67553 -4.8396,3.72339 -2.30162,2.04787 -4.76778,3.73537 -5.48037,3.75 -0.71257,0.0146 -2.68146,0.88313 -4.37531,1.92998 -1.8606,1.14992 -4.50219,1.85195 -6.67315,1.77346 -1.97639,-0.0714 -6.09749,0.12276 -9.158,0.43161 -5.92658,0.59807 -8.79473,2.48571 -11.98632,7.88863 l -1.59858,2.70618 5.87484,-0.086 c 5.06325,-0.0741 6.80485,0.40044 12.60684,3.43521 7.681,4.01759 13.95565,5.39791 22.69903,4.99339 5.11921,-0.23684 7.44311,-0.98265 14.53125,-4.6635 z m 29.0625,-8.05969 c 3.09375,-4.2053 7.00158,-9.15683 8.68406,-11.0034 1.68249,-1.84656 2.87925,-3.5372 2.65947,-3.75698 -0.77999,-0.77999 -5.18396,2.76087 -7.07255,5.68645 -4.75354,7.36358 -5.72197,8.59502 -6.7593,8.59502 -2.22384,0 -1.75602,-2.24936 1.15809,-5.56835 4.32516,-4.92608 2.75079,-5.09959 -1.99746,-0.22013 -3.93959,4.04843 -4.80164,5.77423 -4.75124,9.51176 0.0137,1.01655 -0.69417,2.6711 -1.57306,3.67677 -0.87891,1.00568 -1.09981,1.53817 -0.49092,1.18331 0.60891,-0.35486 1.38475,-0.19595 1.72409,0.35312 0.87479,1.41544 1.95044,0.33483 8.41882,-8.45757 z m -278.391164,3.25017 c -1.314548,-1.93709 -2.390086,-3.1965 -2.390086,-2.79869 0,1.14819 3.919817,7.18105 4.372025,6.72883 0.224481,-0.22448 -0.667392,-1.99304 -1.981939,-3.93014 z m 151.222154,-0.68221 c 0.51298,-2.70703 1.15513,-7.71922 1.42701,-11.13821 0.43354,-5.45186 0.29818,-6.20126 -1.10059,-6.09375 -1.30607,0.10039 -1.64657,-0.87843 -1.88014,-5.40468 -0.31666,-6.13607 0.99132,-8.71621 3.02396,-5.96512 1.03346,1.39874 1.293,0.60632 1.81189,-5.53208 0.99285,-11.74542 0.82073,-14.38178 -0.93893,-14.38178 -1.36025,0 -1.4721,-0.94265 -0.93733,-7.89973 0.72385,-9.41712 -0.78098,-21.9778 -2.87237,-23.97527 -0.8098,-0.77344 -1.21552,-0.94105 -0.90158,-0.37249 0.31393,0.56857 -0.003,1.81827 -0.70399,2.77711 -1.08198,1.4797 -1.50279,1.55412 -2.78247,0.49208 -1.32008,-1.09557 -1.5077,-0.94534 -1.5077,1.20726 0,2.82235 -1.32827,3.21523 -2.76522,0.81791 -0.93067,-1.55264 -1.0555,-1.5476 -2.32796,0.0939 -2.49449,3.2179 -3.63855,0.87514 -3.04281,-6.23088 0.54532,-6.50468 1.89282,-9.659 3.25315,-7.61522 0.76549,1.15008 4.79418,1.20682 6.5314,0.092 0.78139,-0.50145 1.4611,-0.0245 2.01283,1.41249 0.82718,2.15441 0.84074,2.14991 1.9362,-0.6429 0.60674,-1.54687 0.84625,-4.07812 0.53224,-5.625 -0.31402,-1.54687 -0.81534,-5.20562 -1.11406,-8.13053 -0.51254,-5.01851 -0.68043,-5.30893 -2.98081,-5.15625 -2.0039,0.13299 -2.54435,-0.33869 -3.03715,-2.65072 -0.58452,-2.74236 -0.61785,-2.71128 -1.33668,1.24675 -0.5973,3.28884 -1.05998,3.97486 -2.43781,3.61454 -1.41205,-0.36926 -1.79292,0.29408 -2.24467,3.9095 -0.29923,2.39482 -1.15858,8.57296 -1.90967,13.72921 -0.75108,5.15625 -1.5387,12.53906 -1.75026,16.40625 -0.21158,3.86719 -0.6646,8.71875 -1.00672,10.78125 -0.48981,2.95279 -0.39981,3.40122 0.42331,2.10938 0.57495,-0.90235 1.65721,-1.64063 2.40502,-1.64063 1.07218,0 1.35967,1.5528 1.35967,7.34375 0,7.64006 -0.47719,9.20537 -2.33599,7.66269 -1.26427,-1.04926 -1.06749,7.34412 0.5933,25.30606 0.54828,5.92969 1.21348,13.4127 1.47824,16.62892 0.26477,3.21621 0.84064,5.62563 1.27972,5.35428 0.43907,-0.27137 0.58975,-1.6372 0.33483,-3.03517 -0.53155,-2.91513 0.75734,-5.43193 2.29509,-4.48156 0.57327,0.3543 1.05514,1.35758 1.07082,2.22949 0.0257,1.43006 0.12433,1.42062 1.00708,-0.0964 0.64286,-1.1048 1.59793,-1.48514 2.78399,-1.1087 1.01249,0.32135 1.80542,0.13353 1.80542,-0.42766 0,-1.55947 2.54489,-1.17528 3.18011,0.48008 0.31253,0.81441 0.30374,3.13472 -0.0195,5.15625 -0.87989,5.50252 0.31309,4.43216 1.38915,-1.24638 z M 173.58757,423.52508 C 172.96387,422.90138 172.5,419.55847 172.5,415.6875 l 0,-6.75 3.30043,0 c 2.60577,0 3.58448,0.5229 4.64996,2.48437 1.29385,2.38186 1.35109,2.39733 1.38707,0.375 0.0219,-1.23331 0.62157,-2.10937 1.44379,-2.10937 1.07955,0 1.40625,1.19792 1.40625,5.15625 0,4.53125 -0.22727,5.15625 -1.875,5.15625 -1.03125,0 -1.875,0.42187 -1.875,0.9375 0,0.51562 -0.58361,0.9375 -1.29691,0.9375 -1.36633,0 -2.41882,-2.75316 -2.44029,-6.38346 -0.007,-1.23675 -0.42457,-1.91021 -0.97336,-1.57104 -0.58013,0.35854 -0.72425,2.37502 -0.3639,5.09146 0.61235,4.61617 -0.32107,6.46751 -2.27546,4.51311 z m 11.09993,-29.30633 c 0,-0.77344 -0.42188,-1.40625 -0.9375,-1.40625 -0.51563,0 -0.9375,0.45703 -0.9375,1.01562 0,2.3963 -2.39406,-0.0436 -2.90943,-2.96514 l -0.56568,-3.20673 -0.72338,3.04687 c -0.50513,2.12758 -1.26614,3.04688 -2.52227,3.04688 -1.63322,0 -1.77352,-0.62502 -1.52344,-6.78694 0.22678,-5.58774 0.56533,-6.84224 1.91608,-7.09999 1.2839,-0.24498 1.659,0.36437 1.72517,2.80257 l 0.0846,3.11561 0.87975,-3.04688 c 1.3708,-4.74752 3.20751,-3.7497 4.3142,2.34375 0.89525,4.92927 0.97292,5.05181 0.90746,1.43178 -0.0802,-4.43443 0.48145,-5.43505 2.5953,-4.62389 1.05901,0.40638 1.44668,1.92418 1.44668,5.66414 0,2.80995 -0.25607,5.77632 -0.56905,6.59192 -0.72309,1.88432 -3.18096,1.94356 -3.18096,0.0767 z m -16.099,38.02253 c 0.16897,-1.7751 -0.32278,-5.57198 -1.09279,-8.4375 -0.77002,-2.86551 -1.68667,-7.71383 -2.03699,-10.77403 -0.35033,-3.0602 -0.97089,-6.44232 -1.37905,-7.51582 -0.40814,-1.07351 -1.24238,-8.02436 -1.85386,-15.44635 -0.6115,-7.42198 -1.67834,-15.00861 -2.37076,-16.85917 -0.69243,-1.85056 -1.46978,-5.73882 -1.72743,-8.64058 -0.25766,-2.90176 -0.89475,-6.06582 -1.41577,-7.03125 -0.52101,-0.96543 -1.45174,-6.71908 -2.06828,-12.7859 -0.61654,-6.06681 -1.46518,-11.2433 -1.88587,-11.50329 -1.30565,-0.80695 -2.33841,7.04961 -1.71668,13.05937 0.32572,3.14847 1.30821,10.57605 2.18331,16.50574 0.8751,5.92969 1.95438,13.3125 2.39841,16.40625 0.44403,3.09375 1.22068,7.94531 1.72591,10.78125 0.50523,2.83594 1.83391,12.53906 2.95263,21.5625 1.11872,9.02344 2.42266,17.37532 2.89763,18.55973 0.47498,1.18442 0.86359,3.00674 0.86359,4.04958 0,1.43008 0.51843,1.82247 2.10937,1.59652 1.64574,-0.23373 2.17691,-1.00898 2.41663,-3.52705 z M 31.178994,431.78173 c -0.391109,-2.04595 -3.053994,-4.3007 -3.053994,-2.5859 0,0.73947 2.71751,4.86667 3.204405,4.86667 0.157072,0 0.08939,-1.02635 -0.150411,-2.28077 z m 123.071886,-3.10986 c -0.35724,-2.44921 -1.43147,-6.86221 -2.3872,-9.80666 -0.95571,-2.94444 -2.00432,-7.37413 -2.33023,-9.84375 -0.3259,-2.46962 -1.71776,-9.11778 -3.09302,-14.77369 l -2.50046,-10.28349 -0.79287,4.65849 c -0.55818,3.27955 -0.36915,6.73977 0.63859,11.68973 0.78731,3.86719 1.7149,8.92969 2.06133,11.25 0.34642,2.32031 1.6335,6.20863 2.86017,8.64071 1.22667,2.43207 2.23031,5.29457 2.23031,6.36111 0,1.84873 2.51052,6.56068 3.49552,6.56068 0.25706,0 0.17509,-2.00391 -0.18214,-4.45312 z m 44.66664,1.63152 c 0.37127,-1.28405 1.12718,-7.39714 1.67981,-13.58464 0.55263,-6.1875 1.46583,-13.57031 2.02933,-16.40625 0.5635,-2.83594 1.31738,-7.26563 1.67528,-9.84375 0.35791,-2.57813 1.11684,-6.16406 1.68653,-7.96875 0.56968,-1.80469 1.54256,-5.39063 2.16195,-7.96875 0.6194,-2.57813 1.99852,-8.27344 3.06472,-12.65625 2.01901,-8.2995 2.48011,-20.11725 0.84858,-21.74878 -1.15063,-1.15063 -1.55542,0.13592 -3.0082,9.56128 -0.59608,3.86719 -1.49802,8.65261 -2.00431,10.63427 -0.78102,3.0569 -0.66425,3.79042 0.77038,4.83945 1.58085,1.15595 1.52307,1.31291 -0.88752,2.41125 -1.9236,0.87646 -2.9331,2.36915 -3.975,5.87758 -0.76812,2.58653 -1.39657,6.00008 -1.39657,7.58567 0,1.5856 -0.43637,4.35668 -0.96971,6.15797 -0.53335,1.80128 -1.39207,9.39107 -1.90827,16.86619 -0.51621,7.47511 -1.5564,16.2552 -2.31154,19.51129 -0.75514,3.2561 -1.37298,6.76869 -1.37298,7.80575 0,2.70085 3.06942,1.85974 3.91752,-1.07353 z M 210,426.04163 c 0,-1.83334 1.44173,-6.79037 3.20386,-11.01562 4.42658,-10.61414 6.55009,-20.78338 5.65422,-27.07754 l -0.70877,-4.97972 -2.1638,4.70622 c -1.19009,2.58842 -2.82899,7.30264 -3.64197,10.47603 -1.75066,6.83349 -4.16418,31.224 -3.08972,31.224 0.4104,0 0.74618,-1.50001 0.74618,-3.33337 z m 48.76598,-1.38398 c 0.56069,-1.04767 1.67927,-1.78596 2.48574,-1.64063 0.8151,0.14688 1.82081,-0.67256 2.26458,-1.84515 1.01132,-2.67231 -0.587,-2.77015 -3.8288,-0.23437 -2.69093,2.10487 -4.68826,2.40458 -4.68582,0.70312 0.002,-1.34071 7.48714,-6.32812 9.4974,-6.32812 0.73354,0 2.33726,0.70291 3.56381,1.56202 2.12689,1.48973 2.31007,1.46323 3.95859,-0.57262 2.20458,-2.72254 2.17341,-3.49783 -0.19154,-4.76351 -1.36544,-0.73076 -1.74609,-1.57567 -1.31782,-2.92504 0.58325,-1.83764 0.52557,-1.84722 -1.82994,-0.30383 -1.3377,0.87649 -2.43218,1.98022 -2.43218,2.45272 0,0.47251 -0.73828,1.12093 -1.64062,1.44093 -0.90235,0.32 -2.27344,1.08751 -3.04688,1.70556 -1.94721,1.55601 -10.57833,4.21188 -13.76991,4.23712 -2.64032,0.0209 -7.758,3.13875 -6.77137,4.12537 0.28845,0.28845 2.9789,-0.11485 5.97878,-0.89622 2.99988,-0.78137 5.65735,-1.21765 5.90548,-0.96952 1.27231,1.27231 -1.04985,3.24746 -4.63708,3.94414 l -4.04965,0.78648 6.09375,0.55139 c 3.35156,0.30327 6.39532,0.6242 6.76389,0.7132 0.36858,0.089 1.12889,-0.69537 1.68958,-1.74304 z M 99.255413,424.06629 c -1.034766,-1.25355 -1.049579,-1.63847 -0.07566,-1.96617 0.930304,-0.31301 0.958014,-0.71229 0.119578,-1.72254 -0.82215,-0.99063 -0.8259,-1.63501 -0.01519,-2.61185 1.127283,-1.35831 -0.336741,-2.45323 -3.280219,-2.45323 -0.738497,0 -2.822497,-0.94922 -4.63111,-2.10938 -2.483216,-1.59288 -3.173232,-2.59015 -2.818089,-4.07293 0.600509,-2.50721 -3.210259,-6.31836 -5.456025,-5.45658 -2.854003,1.09518 -7.262503,-6.28646 -9.006071,-15.07986 -0.408955,-2.0625 -1.283747,-5.19748 -1.943981,-6.96663 -1.148408,-3.07724 -1.23462,-3.12419 -1.989538,-1.08345 -0.434012,1.17325 -1.631738,2.35353 -2.661613,2.62285 -2.248663,0.58803 -2.226942,0.28471 -0.355353,4.96227 1.196333,2.98992 1.782379,3.5716 2.771433,2.75075 1.543907,-1.28132 3.207338,-0.3762 3.223294,1.75392 0.0066,0.87191 1.273033,4.07226 2.814447,7.11189 2.06517,4.07246 2.53827,5.84506 1.798067,6.73694 -1.367772,1.64807 0.258655,4.65219 4.839203,8.93836 7.417355,6.94065 12.324124,10.01378 16.19807,10.14492 1.528748,0.0518 1.589278,-0.14184 0.46875,-1.49928 z m -11.945449,-7.89604 c -4.57882,-3.64571 -6.175203,-6.48825 -3.638089,-6.47803 1.87042,0.007 10.503656,6.93544 10.843828,8.70183 0.510516,2.6509 -2.092198,1.84767 -7.205739,-2.2238 z m 227.550866,6.1735 c 2.24376,-1.54688 5.54004,-4.07903 7.32506,-5.62703 l 3.24549,-2.81452 -2.82205,-2.7037 -2.82205,-2.70371 -0.56324,2.23698 c -0.30979,1.23034 -2.03561,3.20048 -3.83517,4.3781 -3.0919,2.02331 -3.86625,3.21841 -5.51832,8.51667 -0.80222,2.57278 -0.48341,2.49083 4.99028,-1.28279 z m -200.95458,1.37098 c -7.35959,-2.04326 -9.79387,-2.5146 -10.31185,-1.99663 -0.83118,0.83118 6.05427,2.77244 9.8431,2.77514 l 3.28125,0.002 -2.8125,-0.78085 z M 308.4375,417.6451 c 0,-0.71871 1.67468,-2.65256 3.72153,-4.29744 2.18467,-1.75566 4.1672,-4.38718 4.80075,-6.37231 0.59358,-1.85988 1.45013,-3.78238 1.90347,-4.27222 1.32692,-1.43378 0.95893,-4.73349 -1.05075,-9.42188 -1.03125,-2.40581 -1.875,-4.98528 -1.875,-5.73215 0,-2.6808 2.78068,-2.36921 6.46863,0.72483 3.49565,2.93272 4.17555,3.13232 10.66923,3.13232 6.17912,0 6.8884,-0.18142 6.50239,-1.66324 -0.78302,-3.00588 -4.8657,-5.36801 -9.27804,-5.36801 -3.13555,0 -4.68882,-0.55388 -6.42663,-2.29169 -1.35764,-1.35764 -2.06361,-2.88607 -1.73209,-3.75 0.71034,-1.85109 2.1321,-1.87721 2.83248,-0.052 0.62664,1.63297 3.15153,1.91252 3.15153,0.34893 0,-0.73327 1.22114,-0.83387 3.98437,-0.32825 2.19141,0.40099 4.82813,0.71336 5.85938,0.69415 2.55647,-0.0476 12.61481,-6.04956 12.63776,-7.54113 0.0337,-2.18799 -2.74479,-2.30957 -7.00599,-0.30658 -2.35995,1.10931 -6.08624,1.97663 -8.49227,1.97663 -5.95405,0 -13.14383,-2.52821 -14.92637,-5.24871 -0.81131,-1.23824 -2.30913,-2.25132 -3.32849,-2.25132 -1.01936,0 -1.85339,-0.40719 -1.85339,-0.90488 0,-1.47735 -5.71095,-7.53262 -7.10429,-7.53262 -0.70678,0 -1.98101,-1.34583 -2.83163,-2.99073 -0.85061,-1.6449 -2.44347,-3.76439 -3.5397,-4.70999 -3.87876,-3.3458 -9.84674,-7.29928 -11.01861,-7.29928 -0.6532,0 0.58296,1.30212 2.74704,2.8936 2.16408,1.59148 3.93469,3.20666 3.93469,3.58928 0,0.38261 1.21183,2.56096 2.69297,4.84077 1.74978,2.69332 2.89504,5.95103 3.26992,9.30135 0.59111,5.28263 4.54213,17.78967 7.99633,25.3125 1.19754,2.60807 1.94496,6.1885 1.95769,9.378 0.0176,4.40998 -0.45593,5.82949 -3.26066,9.77439 -2.54893,3.58513 -3.28125,5.53222 -3.28125,8.72421 0,2.50064 0.36697,3.88226 0.9375,3.52965 0.51562,-0.31868 0.9375,-1.16744 0.9375,-1.88615 z M 53.855648,402.79419 c 0.488276,-4.56857 0.200111,-7.02587 -1.390428,-11.85669 -3.112429,-9.45315 -3.669645,-13.94259 -2.174616,-17.5207 0.713382,-1.70737 1.831969,-3.1043 2.485748,-3.1043 1.910663,0 10.697506,-8.89805 13.856167,-14.03153 2.773215,-4.50704 4.786408,-5.783 6.007365,-3.80745 0.309673,0.50106 -0.148034,1.99626 -1.017127,3.32266 -1.495709,2.28274 -1.468087,2.898 0.516792,11.51085 3.331638,14.45678 3.429939,14.73973 6.021053,17.33084 1.355419,1.35542 2.464398,3.12478 2.464398,3.9319 0,0.80712 1.007851,3.06403 2.239669,5.01535 1.231818,1.95133 2.395041,4.35466 2.584942,5.34073 0.1899,0.98607 2.122943,2.98676 4.295649,4.44597 2.172706,1.4592 4.686696,3.89959 5.586649,5.4231 0.899953,1.52349 2.494219,3.01393 3.542813,3.31208 1.048584,0.29814 3.172148,1.0927 4.719028,1.76568 1.54687,0.67296 4.96224,1.41499 7.58971,1.64893 l 4.77721,0.42535 -1.66084,-4.3016 c -1.80781,-4.68229 -4.61233,-16.57288 -4.61233,-19.55534 0,-1.02324 -0.57778,-2.33996 -1.28396,-2.92604 -0.70618,-0.58606 -2.03358,-3.02841 -2.94977,-5.42742 -0.91618,-2.399 -2.88422,-6.16719 -4.37339,-8.37373 -3.567274,-5.2857 -7.996289,-15.90262 -10.512093,-25.19886 -2.358585,-8.71528 -3.68675,-9.54834 -8.493905,-5.3276 -4.441531,3.89972 -8.147801,4.5624 -11.530289,2.06162 -2.94268,-2.17562 -5.462953,-1.80264 -6.332533,0.93716 -0.79194,2.49518 -8.256469,6.56153 -15.434016,8.40776 -6.554364,1.68595 -10.340044,1.19128 -10.340044,-1.35108 0,-0.78024 -1.023639,-1.67552 -2.274754,-1.98953 -1.251114,-0.31402 -3.004,-1.37674 -3.8953,-2.36162 -0.891301,-0.98487 -2.402852,-1.79068 -3.359003,-1.79068 -1.136626,0 -3.277028,-2.40468 -6.182823,-6.94622 -2.921631,-4.56629 -5.499194,-7.45716 -7.523052,-8.4375 -4.810522,-2.33016 -5.5291974,-1.77121 -2.173792,1.69069 2.592147,2.67441 3.142517,4.02315 3.450383,8.45549 0.632954,9.1126 3.142615,11.85401 11.979376,13.08556 3.807163,0.5306 8.103965,2.83012 8.103965,4.33701 0,1.38403 -5.223653,3.75247 -8.276152,3.75247 -3.792976,0 -4.655849,1.42532 -5.416382,8.94694 -0.488373,4.82998 -1.27186,7.32939 -3.020246,9.63492 l -2.360806,3.11312 3.675953,-0.30062 c 3.216545,-0.26304 3.883603,-0.74318 5.337472,-3.84183 1.916409,-4.08447 6.468621,-7.22222 10.528911,-7.25737 1.546875,-0.0134 3.867187,-0.84934 5.15625,-1.85766 1.289062,-1.00832 2.61502,-1.84268 2.946573,-1.85415 1.712753,-0.0593 1.452643,3.51474 -0.66532,9.14166 -2.79993,7.43873 -2.476443,11.883 1.266334,17.39767 3.123272,4.60189 4.022427,13.48127 1.720859,16.99391 -0.835145,1.27459 -1.517104,2.85963 -1.515462,3.5223 0.0017,0.66268 1.64464,-1.26432 3.651111,-4.2822 2.859375,-4.30071 3.781294,-6.73305 4.264052,-11.25 z m 203.869292,9.50061 c 3.1194,-0.95195 15.08756,-12.04366 15.08756,-13.98267 0,-0.51548 1.13963,-2.43136 2.53252,-4.25753 1.5719,-2.06088 3.2802,-6.39209 4.50374,-11.41873 1.42711,-5.86305 2.41011,-8.18296 3.56123,-8.40465 1.0884,-0.2096 1.59001,0.31633 1.59001,1.66711 0,2.27872 -3.2604,12.3105 -5.2539,16.16551 -0.74621,1.44301 -1.11164,2.62366 -0.81206,2.62366 0.29959,0 1.58778,-2.2784 2.86265,-5.0631 2.81113,-6.14032 4.31977,-7.51805 7.38886,-6.74775 1.90762,0.47878 2.41377,0.1977 2.76585,-1.53594 1.148,-5.6527 1.52601,-7.23504 2.10982,-8.83174 0.61266,-1.6756 0.57215,-1.67546 -1.34318,0.005 -2.61163,2.29104 -4.05065,1.2587 -3.32224,-2.38334 0.41709,-2.08544 0.2741,-2.73015 -0.49946,-2.25207 -0.59612,0.36842 -1.08384,1.44357 -1.08384,2.38922 0,2.22725 -2.70219,3.29828 -3.44404,1.36506 -0.3083,-0.80344 0.33929,-3.43304 1.43911,-5.84357 1.09982,-2.41052 2.61191,-6.81361 3.36018,-9.78465 0.74827,-2.97103 1.60027,-5.78982 1.89331,-6.26397 0.86838,-1.40506 -3.09247,-3.57272 -5.63878,-3.08596 -1.29476,0.2475 -2.83015,1.3476 -3.41198,2.44466 -0.58182,1.09706 -1.83707,2.54761 -2.78943,3.22343 -0.95237,0.67584 -2.42622,2.57428 -3.27522,4.21875 -0.849,1.64449 -3.36703,5.31029 -5.59563,8.14622 -2.2286,2.83594 -5.64484,7.24328 -7.59164,9.79408 -1.9468,2.5508 -5.09071,6.14883 -6.98648,7.99562 -4.87687,4.75088 -9.7388,14.39184 -10.41265,20.6478 -0.30548,2.83594 -0.84728,6.53747 -1.20402,8.22562 l -0.6486,3.06936 5.51231,-0.57527 c 3.03177,-0.31641 6.94947,-1.01386 8.706,-1.54991 z m 24.36483,-9.0175 C 283.6904,400.78294 285,398.06565 285,397.23888 c 0,-2.05132 -1.68833,-2.93589 -3.20349,-1.67842 -0.68549,0.56891 -1.87235,0.79418 -2.63744,0.50058 -0.93056,-0.35709 -1.78348,0.41348 -2.57632,2.32757 -0.65187,1.57376 -1.45444,2.86139 -1.78347,2.86139 -0.32905,0 -1.1409,0.86892 -1.80414,1.93093 -1.1075,1.77339 -1.05368,1.84947 0.65978,0.93246 1.02611,-0.54916 2.12498,-1.41808 2.44194,-1.93093 0.8731,-1.41269 2.34064,-1.11563 2.34064,0.47379 0,0.77344 0.43672,1.40625 0.97048,1.40625 0.65799,0 0.64736,0.60376 -0.033,1.875 -1.89381,3.53862 -0.19444,1.87341 2.71477,-2.6602 z m 46.03523,1.25395 c 0,-2.61102 1.52166,-3.79832 4.39272,-3.42752 1.65611,0.21388 2.23542,-0.41067 3.02146,-3.25746 0.53487,-1.93715 0.86703,-3.62757 0.73811,-3.75647 -0.12891,-0.12892 -2.08419,0.18123 -4.34507,0.68922 -2.77004,0.62239 -5.02409,0.6052 -6.91135,-0.0527 -3.66934,-1.27913 -3.68386,-1.27438 -2.55385,0.83706 0.53376,0.99735 0.97048,3.38991 0.97048,5.3168 0,3.49318 2.33369,7.3389 3.8753,6.38614 0.44671,-0.2761 0.8122,-1.50688 0.8122,-2.73508 z M 31.255705,397.33658 c 3.788433,-4.75627 6.478865,-9.15213 7.092171,-11.58779 0.543493,-2.1584 1.629747,-4.45684 2.413897,-5.10763 2.187574,-1.81552 1.881371,-4.07599 -0.387641,-2.86164 -0.997352,0.53376 -3.039009,0.97048 -4.537017,0.97048 -2.02229,0 -3.009187,0.62668 -3.832499,2.43366 -0.609867,1.33851 -2.204218,3.86976 -3.543003,5.625 C 26.530983,389.33985 25.365637,390 22.828056,390 c -2.189519,0 -3.392071,0.51786 -3.809794,1.64062 -0.335715,0.90235 -1.426848,2.76068 -2.424738,4.12963 -2.346254,3.2187 -1.364182,4.67097 2.934251,4.33914 3.134187,-0.24196 3.467423,-0.0358 3.737621,2.31248 0.163156,1.41797 0.65432,2.57813 1.091477,2.57813 0.437158,0 3.541633,-3.44854 6.898832,-7.66342 z M 248.4375,386.59249 c 0,-1.40637 0.99622,-3.18273 2.46636,-4.39781 4.61752,-3.81636 7.96379,-7.655 11.78825,-13.52281 2.10043,-3.22265 4.10137,-5.85937 4.44651,-5.85937 0.34514,0 2.02682,-2.63672 3.73706,-5.85938 1.71024,-3.22265 3.68942,-6.5254 4.39818,-7.33944 1.49064,-1.71208 1.69777,-3.67618 0.38766,-3.67618 -1.70612,0 -6.40956,5.81318 -11.77076,14.54798 -1.03977,1.69406 -5.36399,6.77232 -9.60937,11.28502 -7.70294,8.18795 -7.71889,8.21538 -7.71889,13.27253 0,3.13969 0.35666,4.8472 0.9375,4.48822 0.51562,-0.31867 0.9375,-1.64112 0.9375,-2.93876 z m -137.12249,-4.96582 c -0.27191,-2.02721 -1.33596,-5.50768 -2.36456,-7.73437 -1.0286,-2.22671 -4.51505,-9.9548 -7.74766,-17.17355 C 97.970175,349.5 94.759922,342.7616 94.0689,341.74452 c -0.691018,-1.01706 -1.2564,-2.51847 -1.2564,-3.33644 0,-0.81797 -0.558317,-2.25076 -1.240703,-3.18397 -0.95359,-1.30411 -1.658676,-1.48136 -3.046875,-0.7659 -5.464232,2.81614 -12.493907,5.24808 -15.165547,5.24658 -1.675781,-9.3e-4 -3.046875,0.32991 -3.046875,0.73523 0,0.85013 3.814883,4.55998 4.689092,4.55998 0.322046,0 3.403212,-1.69942 6.847036,-3.77648 6.014827,-3.62772 6.352318,-3.71699 8.566912,-2.26592 1.700848,1.11443 2.458136,2.65793 2.887783,5.88586 0.75413,5.66573 1.524915,7.71243 8.093627,21.49135 3.01293,6.32008 5.47805,11.87573 5.47805,12.3459 0,1.42183 3.22239,6.61951 4.10782,6.62587 0.45461,0.003 0.60409,-1.6527 0.33219,-3.67991 z m -93.736529,-0.29855 c 0.513186,-0.64453 1.13378,-4.125 1.379097,-7.73437 l 0.446033,-6.5625 -6.923796,0 c -6.3884182,0 -6.9030064,0.14498 -6.6549306,1.875 0.1670058,1.16466 1.4059546,2.24255 3.2702853,2.84517 4.3531923,1.40711 4.5304823,1.91417 1.8027353,5.15591 -3.6201504,4.3023 -3.2409436,5.59267 1.643553,5.59267 2.257177,0 4.523838,-0.52734 5.037023,-1.17188 z M 255.12395,366.60313 c 2.38848,-2.34266 5.0903,-5.73594 6.00404,-7.54063 1.73981,-3.43626 5.07815,-7.85009 10.98138,-14.51919 2.30904,-2.60861 3.5227,-4.90104 3.53622,-6.6794 0.0324,-4.26188 3.07399,-9.82018 8.0226,-14.66079 2.50386,-2.44921 4.85763,-4.45312 5.23057,-4.45312 1.89355,0 1.66123,2.31024 -0.45545,4.52931 -3.93509,4.12541 -4.73457,7.3989 -2.94894,12.07451 1.83147,4.79564 3.82007,5.14407 5.56068,0.9743 1.67611,-4.01524 1.58947,-62.80857 -0.095,-64.49309 -1.21236,-1.21237 -5.02252,0.30439 -5.02252,1.99939 0,0.52578 -1.71713,3.48456 -3.81586,6.57506 -2.09872,3.09051 -5.21083,9.07933 -6.9158,13.30848 -3.56039,8.83155 -10.74697,22.73681 -16.32886,31.59454 -2.11205,3.35156 -7.06021,12.42187 -10.99591,20.15625 l -7.15581,14.0625 1.5985,6.5625 c 0.87919,3.60937 1.76895,7.11981 1.97726,7.80097 0.47829,1.56397 4.68088,-1.26738 10.82293,-7.29159 z M 116.1179,351.29039 c -0.50439,-1.65502 -2.33292,-7.8607 -4.0634,-13.79039 -5.16729,-17.70627 -14.054559,-41.5555 -16.56735,-44.45894 -0.453675,-0.5242 -1.639584,-0.45933 -3.00897,0.16461 -4.751901,2.16511 -8.049704,-3.72198 -6.303398,-11.25254 0.574444,-2.47717 0.498269,-3.55128 -0.257886,-3.63633 -0.59023,-0.0664 -5.065455,-0.18736 -9.944945,-0.26883 -10.56019,-0.17631 -12.218466,0.79828 -12.227727,7.18641 -0.0032,2.1914 -0.635989,5.19275 -1.40625,6.66966 -2.292844,4.39632 -1.120272,35.15559 1.531463,40.1738 0.467653,0.885 2.910895,2.22103 5.429427,2.96895 5.331126,1.58317 9.733953,0.90212 14.053867,-2.17392 3.339733,-2.3781 10.191998,-2.41441 11.391778,-0.0604 3.115444,6.11268 7.442991,15.80274 7.442991,16.66602 0,0.58157 1.76041,4.34697 3.91201,8.36757 2.15161,4.02059 4.55619,8.67325 5.34351,10.33925 l 1.4315,3.02909 2.08023,-8.45745 c 1.60206,-6.51341 1.86942,-9.14914 1.16315,-11.46659 z m 118.45689,11.10009 c -0.33904,-0.54133 -1.54597,-4.35923 -2.68207,-8.48423 -1.38427,-5.02608 -2.08866,-6.56165 -2.13543,-4.65526 -0.0509,2.07652 -0.77516,3.26141 -2.68174,4.38766 -1.98497,1.17255 -2.56585,2.17749 -2.41991,4.18651 0.10562,1.45398 0.22631,3.38187 0.2682,4.28421 0.0545,1.17334 0.86147,1.64063 2.83333,1.64063 1.51644,0 3.01257,0.41323 3.32471,0.9183 0.35918,0.58116 1.21772,0.51226 2.33844,-0.18764 0.97399,-0.60827 1.49351,-1.54884 1.15447,-2.09018 z m 12.43963,-21.34261 c 3.49818,-6.84976 7.51819,-13.93068 8.93335,-15.73537 2.22111,-2.83249 4.57271,-7.1518 11.48422,-21.09375 0.76684,-1.54688 2.95258,-6.82031 4.8572,-11.71875 1.90462,-4.89844 3.89086,-9.69427 4.41385,-10.65741 0.65067,-1.19825 0.63746,-2.06459 -0.0418,-2.7439 -0.69865,-0.69865 -1.69347,0.59174 -3.35822,4.35602 -1.30101,2.94181 -2.36547,5.50527 -2.36547,5.69656 0,0.1913 -1.47686,2.5424 -3.2819,5.2247 -1.80504,2.68228 -5.00883,8.51176 -7.11952,12.95441 -2.1107,4.44263 -4.81686,9.24126 -6.01369,10.66362 -1.19682,1.42235 -2.45518,3.85698 -2.79635,5.41029 -0.34116,1.55332 -1.01611,3.06883 -1.49988,3.36781 -0.48377,0.29899 -1.5144,2.06296 -2.29029,3.91994 -0.7759,1.85699 -2.25219,3.96573 -3.28066,4.6861 -1.02847,0.72036 -2.47758,2.76403 -3.22025,4.54148 -0.74267,1.77745 -2.00216,3.48188 -2.79888,3.78761 -0.79672,0.30573 -1.44858,1.50247 -1.44858,2.65943 0,2.89376 1.90061,8.10317 2.76213,7.57072 0.38746,-0.23946 3.56661,-6.03975 7.06479,-12.88951 z m -78.95432,3.71775 c 0.2674,-2.70703 0.11031,-5.38676 -0.34908,-5.95496 -0.49627,-0.61383 -0.40562,-2.26551 0.22336,-4.06982 0.95199,-2.73087 0.8271,-7.50276 -0.47982,-18.33459 -1.82568,-15.13125 -1.72661,-14.72349 -3.21543,-13.23467 -1.26635,1.26636 -1.2499,3.46015 0.15341,20.45159 0.86455,10.46819 1.56585,20.61511 1.55844,22.5487 -0.0202,5.27779 1.55248,4.22919 2.10912,-1.40625 z m -46.62167,0.17214 c 1.40557,-2.71806 1.34873,-3.2929 -1.04292,-10.54688 -1.39123,-4.21967 -3.26474,-9.14869 -4.16335,-10.95338 -0.89861,-1.80469 -2.5073,-6.44531 -3.57485,-10.3125 -2.41262,-8.73967 -11.97943,-26.6719 -14.971666,-28.06324 -2.085056,-0.9695 -2.136235,-1.27315 -1.5117,-8.97012 0.424462,-5.2313 0.3168,-7.96664 -0.313575,-7.96664 -0.527982,0 -1.239056,1.86107 -1.580166,4.13572 -0.3411,2.27463 -1.127283,4.33101 -1.74707,4.56971 -0.619786,0.2387 -1.702128,2.38998 -2.405205,4.78059 -1.504417,5.11537 -0.321439,7.81025 2.7151,6.18514 0.939756,-0.50294 2.336266,-0.67359 3.103366,-0.37923 1.771603,0.67983 7.390286,11.46088 9.489376,18.20807 0.88227,2.83594 2.14901,6.42188 2.81496,7.96875 1.36749,3.17637 3.96894,11.42799 7.09347,22.5 2.03578,7.21393 3.69392,11.71875 4.31345,11.71875 0.16182,0 0.96316,-1.29364 1.78078,-2.87474 z m 106.77077,-0.56388 c 1.17386,0.45045 1.18685,0.0358 0.0958,-3.05659 -1.66589,-4.72165 -5.08603,-11.16227 -5.13855,-9.67667 -0.0231,0.65332 -1.22222,1.17188 -2.70987,1.17188 l -2.66845,0 1.59634,4.71544 c 1.87109,5.52706 4.57175,8.63117 6.30673,7.24891 0.63796,-0.50826 1.77107,-0.6896 2.51801,-0.40297 z m -31.11967,-6.67237 c 2.07667,-16.89511 2.35625,-20.42864 1.68485,-21.29526 -1.20695,-1.55788 -1.69031,-7.30386 -0.85843,-10.20448 0.88032,-3.0695 -0.30374,-9.62953 -2.02822,-11.23695 -0.88047,-0.8207 -1.00197,-0.34504 -0.54071,2.11674 0.32724,1.74642 -0.0801,9.55111 -0.90525,17.34375 -1.37789,13.01296 -1.3037,22.9141 0.21357,28.5025 0.87932,3.2387 1.57812,1.73834 2.43419,-5.2263 z m 84.7026,0.32866 c -0.3449,-1.83847 -1.02986,-3.34267 -1.52211,-3.34267 -1.0438,0 -1.11241,1.83979 -0.2609,6.99647 0.54848,3.32155 0.70867,3.5019 1.51179,1.70204 0.49407,-1.10724 0.61611,-3.51737 0.27122,-5.35584 z m -216.181486,2.98545 c -0.01921,-1.5684 -1.634967,-4.0538 -2.241235,-3.44753 -0.726385,0.72639 0.47659,4.61941 1.427433,4.61941 0.455487,0 0.821698,-0.52734 0.813802,-1.17188 z m 174.404706,-4.09944 c 1.79625,-2.89923 4.00197,-6.3797 4.9016,-7.73437 0.89964,-1.35468 2.44616,-4.20816 3.43671,-6.34105 0.99055,-2.13289 2.97976,-5.71883 4.42047,-7.96875 1.4407,-2.24992 4.35142,-7.46576 6.46824,-11.59076 2.11684,-4.125 5.59902,-10.67342 7.73819,-14.55203 2.13917,-3.87862 4.54851,-8.92018 5.35411,-11.20346 0.80558,-2.28328 2.0926,-4.84524 2.86004,-5.69325 0.9928,-1.09704 1.34705,-3.40929 1.22799,-8.01529 -0.19126,-7.39872 1.12278,-10.70015 6.23503,-15.66511 1.95905,-1.90259 3.27744,-4.09093 3.27399,-5.43432 -0.006,-2.0608 -0.53598,-3.39656 -3.50077,-8.81154 -0.56462,-1.03125 -2.19446,-5.94607 -3.62186,-10.92182 l -2.59528,-9.04682 -6.81601,-0.63871 c -9.39623,-0.8805 -10.42717,-0.42037 -11.09398,4.95142 -0.30081,2.42326 -1.31958,5.88249 -2.26394,7.68718 -0.94435,1.80469 -2.02281,4.9548 -2.39657,7.00025 -0.37377,2.04545 -2.52449,9.16929 -4.77939,15.83075 -2.25489,6.66147 -4.38548,14.05823 -4.73465,16.43725 -0.34915,2.37902 -1.02724,5.37594 -1.50687,6.6598 -0.47961,1.28387 -1.50588,5.71356 -2.28059,9.84375 -0.7747,4.1302 -3.07026,12.48539 -5.10124,18.5671 -2.39437,7.16984 -3.48736,11.87577 -3.10869,13.38452 0.41224,1.64247 -0.1371,3.41652 -1.86769,6.03162 -2.85757,4.31808 -2.95515,4.97254 -0.98517,6.60748 0.91731,0.7613 1.26597,2.01611 0.93102,3.35066 -0.74357,2.96265 3.81274,12.53682 5.96623,12.53682 0.31525,0 2.04283,-2.37209 3.83908,-5.27132 z m 57.65987,3.42701 c -0.90714,-1.46778 0.59485,-10.35433 1.98504,-11.74452 0.70248,-0.70249 1.23406,-2.67847 1.18128,-4.39108 l -0.096,-3.11384 -0.73098,3.08527 c -0.40204,1.6969 -1.41355,3.83949 -2.24779,4.76132 -0.83423,0.92183 -1.5168,2.36126 -1.5168,3.19874 0,0.83748 -0.4839,2.58474 -1.07533,3.88279 -0.82997,1.82157 -0.80378,2.68732 0.11479,3.79412 1.29472,1.56005 3.29763,2.00265 2.38576,0.5272 z M 135.01176,312.68205 c -1.84138,-4.04205 -4.11692,-11.87244 -8.45321,-29.0883 -4.06111,-16.12335 -5.83077,-22.85447 -8.38017,-31.875 -2.46276,-8.71394 -3.74301,-14.44361 -5.18582,-23.20873 -0.47076,-2.85987 -1.16473,-3.7657 -3.69482,-4.82285 -5.77991,-2.415 -7.72003,-7.97566 -4.77184,-13.67682 0.77049,-1.48997 2.31991,-3.35273 3.44315,-4.13948 1.55852,-1.09163 1.72633,-1.53975 0.70848,-1.8919 -14.177146,-4.90474 -18.884616,-5.83243 -20.390269,-4.01824 -0.61806,0.74473 -2.806911,6.15587 -4.864114,12.02478 -2.057203,5.8689 -4.132323,11.35708 -4.611376,12.19595 -0.479053,0.83886 -1.168556,3.15918 -1.53223,5.15625 -0.363674,1.99707 -1.479631,5.73279 -2.479907,8.3016 -1.000275,2.56881 -2.245771,6.9809 -2.767769,9.80464 -0.521998,2.82375 -1.544275,5.98383 -2.271726,7.02242 -0.727451,1.03858 -1.322639,2.82818 -1.322639,3.9769 0,1.14871 -0.686988,2.47302 -1.52664,2.94291 -1.876049,1.04989 -1.140291,1.5573 5.641456,3.89056 4.111173,1.41446 6.228707,1.60352 11.033266,0.98512 9.729249,-1.25226 9.525596,-1.03632 8.761779,-9.2901 C 91.615815,249.06669 90.820885,247.5 87.541458,247.5 c -1.356296,0 -2.228958,-0.55057 -2.228958,-1.40625 0,-1.66192 3.564595,-1.87768 6.784357,-0.41066 1.745215,0.79518 2.419606,2.23188 3.350093,7.13697 0.640753,3.37776 1.997625,7.96909 3.015281,10.20297 1.989639,4.36753 2.437229,11.87358 0.942469,15.8051 -0.752409,1.979 -0.584841,2.56054 0.97904,3.3975 2.0785,1.11238 9.31783,11.93298 11.71554,17.51116 0.83794,1.94945 2.70683,7.1304 4.15309,11.51321 1.44626,4.38281 3.98306,11.55469 5.63732,15.9375 1.65426,4.38281 3.1976,8.59873 3.42963,9.3687 0.23772,0.78884 2.87085,-3.18218 6.03208,-9.097 l 5.61021,-10.49696 -1.94985,-4.28019 z m -79.825567,18.7867 c -1.312028,-1.47193 -2.014484,0.17022 -1.257939,2.94072 l 0.715935,2.62178 0.660974,-2.34375 c 0.363536,-1.28906 0.31,-2.7375 -0.11897,-3.21875 z m 82.596497,-4.69481 c -0.0164,-0.54598 -0.64922,-0.17377 -1.40625,0.82712 -0.75704,1.00089 -1.36302,2.26652 -1.34663,2.8125 0.0164,0.54598 0.64922,0.17377 1.40625,-0.82712 0.75704,-1.00089 1.36302,-2.26652 1.34663,-2.8125 z m 195.35248,-0.26671 c 0.31662,-1.94616 0.94196,-5.28905 1.38964,-7.42864 0.60945,-2.91268 0.34707,-5.81371 -1.04419,-11.5456 -1.46769,-6.0467 -1.61584,-7.88884 -0.705,-8.76609 0.89617,-0.86313 1.49888,-0.59603 2.7044,1.1985 2.44189,3.63497 4.33398,4.91827 10.65262,7.22505 7.30192,2.66575 11.99384,2.87862 11.98885,0.54392 -0.0108,-5.06171 -6.75355,-10.54687 -12.96495,-10.54687 -1.4939,0 -3.78884,-0.84375 -5.09986,-1.875 -1.31101,-1.03125 -2.84447,-1.875 -3.40768,-1.875 -1.45187,0 -1.27222,-3.31441 0.24804,-4.57612 0.69962,-0.58063 2.49258,-0.82685 3.98437,-0.54715 1.80253,0.33796 3.72621,-0.12302 5.73491,-1.37428 l 3.02257,-1.88283 -0.17804,-7.91675 -0.17804,-7.91675 -2.37578,1.30668 c -3.96797,2.18238 -5.3184,3.57573 -5.9586,6.14803 -1.18213,4.74971 -3.70016,6.78092 -8.18811,6.60506 -3.27275,-0.12824 -4.75239,-0.80431 -7.40924,-3.38541 -3.31218,-3.21772 -12.37324,-8.0262 -15.03858,-7.98061 -0.77344,0.0132 -2.33366,0.53964 -3.46717,1.16977 -2.04382,1.1362 -2.04697,1.17674 -0.38026,4.88866 0.96665,2.15281 4.30908,6.0471 7.86759,9.16658 3.40281,2.98301 6.45003,6.25254 6.77157,7.26563 0.32154,1.01309 1.12129,1.84199 1.77721,1.84199 3.04667,0 4.47237,10.4081 2.26274,16.51872 -0.87076,2.40805 -0.83994,3.91681 0.14497,7.09781 1.42983,4.618 5.53972,11.24877 6.57545,10.60864 0.38219,-0.2362 0.95395,-2.02177 1.27057,-3.96794 z M 183.75,313.95817 l 0,-11.35434 -3.28125,0.61556 c -2.94659,0.55279 -3.28125,0.40407 -3.28125,-1.45816 0,-1.14055 -0.28447,-1.78926 -0.63215,-1.44158 -0.34769,0.34768 -0.78587,5.32095 -0.97373,11.05171 -0.29044,8.8593 -0.13587,10.34062 1.0322,9.89238 1.78195,-0.6838 6.1819,1.36069 6.19137,2.87689 0.004,0.64453 0.21825,1.17187 0.47606,1.17187 0.25781,0 0.46875,-5.10945 0.46875,-11.35433 z m 34.81882,9.64781 c 1.3581,-0.56285 1.20384,-1.34142 -1.32145,-6.6699 -2.49773,-5.27033 -2.95404,-5.7758 -3.61096,-3.99999 -0.48691,1.31623 -1.26028,1.83762 -2.19417,1.47925 -1.58423,-0.60793 -2.00762,1.06208 -0.50474,1.99091 0.51563,0.31867 0.9375,1.20217 0.9375,1.96331 0,1.93882 2.81107,6.01888 4.0922,5.93954 0.58522,-0.0363 1.75596,-0.35264 2.60163,-0.70312 z m 78.33086,-3.66626 c -0.2377,-0.91216 -0.44781,-0.39285 -0.46691,1.15403 -0.0191,1.54687 0.17536,2.29318 0.43217,1.65847 0.2568,-0.63472 0.27243,-1.90035 0.0348,-2.8125 z m -239.719248,1.16254 c 1.665521,-2.00682 0.418656,-9.95135 -1.449327,-9.23454 -0.745858,0.28621 -1.402289,0.15884 -1.458736,-0.28304 -0.661077,-5.1751 -0.616469,-12.97455 0.08476,-14.81891 0.853199,-2.24408 -0.210926,-4.29592 -1.307645,-2.52139 -0.83237,1.3468 -1.047206,25.79644 -0.237983,27.08374 0.993098,1.57981 2.954517,1.47841 4.368937,-0.22586 z M 348.75,319.75068 c 0,-1.8165 2.44827,-3.17321 4.82479,-2.67367 0.79786,0.16771 1.26896,-0.59747 1.26896,-2.06111 0,-2.44592 -0.459,-2.62511 -11.25,-4.39204 -2.0625,-0.33771 -4.26393,-1.2842 -4.89206,-2.10332 -0.99947,-1.30335 -1.14578,-1.22083 -1.17188,0.66092 -0.0188,1.35449 1.79161,4.0144 4.89206,7.18763 5.44472,5.57253 6.32813,6.04459 6.32813,3.38159 z M 228.58066,308.90625 c 3.82656,-12.15765 7.00675,-22.86022 9.05359,-30.46875 0.90163,-3.35156 1.99495,-7.14844 2.4296,-8.4375 0.43467,-1.28906 1.06009,-4.45313 1.38985,-7.03125 0.71735,-5.60857 2.85996,-13.41994 4.08631,-14.89759 0.48507,-0.58447 1.50395,-3.58881 2.26418,-6.6763 0.76023,-3.08749 2.07911,-7.93392 2.93085,-10.76986 4.16201,-13.85778 4.26571,-17.67033 0.59243,-21.78143 -1.50425,-1.68357 -2.99893,-2.79711 -3.32149,-2.47455 -0.32257,0.32257 0.27516,2.85353 1.32829,5.62436 1.05314,2.77083 1.915,6.35873 1.91526,7.97313 4.4e-4,2.74884 -3.0481,12.07244 -6.13689,18.76892 -0.74946,1.6248 -1.36264,3.65644 -1.36264,4.51476 0,0.85832 -0.49962,2.48206 -1.11028,3.60832 -0.61065,1.12625 -1.41873,3.73524 -1.79572,5.79774 -1.41528,7.7428 -4.58534,18.32648 -6.79574,22.6885 -1.37932,2.72196 -2.55194,7.11847 -2.95245,11.06965 -0.62643,6.18004 -4.36739,19.45371 -6.07035,21.53882 -0.99976,1.22413 -1.1444,12.32613 -0.14572,11.18512 0.4126,-0.47139 2.07801,-5.07584 3.70092,-10.23209 z m 72.35684,4.95535 c 0,-0.92075 -0.67354,-1.6741 -1.49675,-1.6741 -1.28843,0 -1.45153,-1.23966 -1.17187,-8.90697 0.29296,-8.03202 -0.18836,-10.94184 -1.27925,-7.73366 -0.32697,0.96158 -0.25024,15.53777 0.10012,19.01786 0.17652,1.75338 3.84775,1.08251 3.84775,-0.70313 z m -77.19054,-11.75774 c 1.63113,-4.50869 3.25895,-10.9398 3.61737,-14.29136 0.35841,-3.35156 1.41624,-8.41406 2.35074,-11.25 0.93449,-2.83594 3.65095,-11.90625 6.03656,-20.15625 2.38562,-8.25 5.31294,-17.53125 6.50514,-20.625 5.01288,-13.00837 5.96834,-20.5152 3.0251,-23.76744 -3.2585,-3.6006 -0.0669,-21.70131 3.82651,-21.70131 1.4583,0 1.53955,1.37151 0.22661,3.82477 -1.33241,2.48962 -0.21033,7.75537 1.93856,9.09737 1.45771,0.91035 2.23289,0.69835 4.53772,-1.24103 1.52881,-1.28642 5.24124,-3.42526 8.24983,-4.75298 6.62274,-2.92268 6.29039,-2.61258 5.06676,-4.72746 -0.55113,-0.95256 -1.4231,-2.78661 -1.93772,-4.07567 -0.51461,-1.28906 -1.32811,-2.97656 -1.80776,-3.75 -0.47965,-0.77344 -1.11812,-2.03906 -1.41881,-2.8125 -0.30069,-0.77344 -1.38361,-2.67188 -2.40647,-4.21875 -1.02287,-1.54688 -2.65285,-4.5 -3.62219,-6.5625 -0.96934,-2.0625 -3.04422,-4.68471 -4.61085,-5.82713 -1.60171,-1.16801 -3.12188,-3.32224 -3.47323,-4.92188 -0.34364,-1.5646 -1.22411,-2.84474 -1.95657,-2.84474 -0.73246,0 -1.33176,-0.76441 -1.33176,-1.69869 0,-0.93429 -1.31696,-2.67237 -2.92658,-3.86241 -2.69835,-1.99498 -3.21223,-2.06944 -6.58968,-0.95478 -3.69749,1.22028 -10.32337,7.48365 -12.10734,11.44495 -0.52069,1.1562 -1.94114,3.73907 -3.15653,5.73973 -2.07954,3.42309 -2.12792,3.83354 -0.82069,6.96219 1.69138,4.04804 0.9662,10.31686 -1.56583,13.53582 -4.31724,5.48848 -5.73818,13.07807 -6.70399,35.80755 -0.50525,11.89066 -1.31762,22.58846 -1.80525,23.77287 -0.48764,1.18442 -0.88661,4.65015 -0.88661,7.70162 0,3.05147 -0.59435,7.35583 -1.32078,9.56526 -2.68492,8.16622 -2.66094,9.57944 0.32542,19.17365 2.62745,8.44117 10.19505,25.57504 11.30786,25.60225 0.25781,0.007 1.80332,-3.67747 3.43446,-8.18615 z m -15.9005,-5.22972 c -2.84622,-5.75734 -6.05354,-13.21008 -7.12738,-16.56164 -1.07384,-3.35156 -2.79451,-8.625 -3.82372,-11.71875 l -1.87129,-5.625 0.56466,5.15625 c 0.31056,2.83594 0.93546,5.86214 1.38866,6.72488 0.45322,0.86276 1.29443,3.81588 1.86936,6.5625 0.57493,2.74664 1.87152,6.35536 2.88132,8.01941 1.00979,1.66405 1.9968,5.18553 2.19335,7.82551 0.44027,5.91357 2.49286,9.3052 5.63144,9.3052 1.55837,0 2.34649,0.53962 2.39616,1.64062 0.0498,1.10429 0.2372,1.23171 0.57319,0.38977 0.27456,-0.68797 -1.82953,-5.96141 -4.67575,-11.71875 z m -181.891757,8.28295 c 5.570859,-1.65437 8.697258,-5.59431 10.534747,-13.27607 0.965547,-4.03654 2.083613,-5.69988 6.751111,-10.04357 3.630603,-3.37873 6.648465,-5.36946 8.598554,-5.67203 5.497063,-0.85291 17.889738,-1.71506 27.449936,-1.90968 10.249987,-0.20866 11.648449,-0.61367 11.648449,-3.37357 0,-2.1731 0.393027,-2.1424 -6.025329,-0.47063 -5.045759,1.31426 -5.379334,1.2763 -12.936367,-1.47208 -4.26638,-1.55162 -8.811742,-3.78071 -10.100804,-4.95354 -1.289063,-1.17283 -4.793001,-3.10017 -7.78653,-4.28298 -4.961639,-1.96043 -5.675986,-2.61558 -8.080864,-7.41112 -1.450946,-2.89332 -2.951525,-6.31526 -3.334621,-7.60432 -1.01094,-3.40167 -5.964912,-14.0625 -6.534692,-14.0625 -0.266615,0 -0.249644,3.90234 0.03772,8.67187 0.554604,9.20521 2.191352,14.21552 6.481171,19.83976 1.843579,2.41707 2.389677,4.0989 2.169002,6.67997 -0.257537,3.01222 -0.828051,3.73388 -4.499667,5.69175 -4.878376,2.60139 -8.182835,8.22524 -11.172846,19.01505 -2.392817,8.63478 -4.508426,12.07002 -8.271372,13.43071 -1.688389,0.61053 -3.069797,1.44718 -3.069797,1.85922 0,1.13593 2.892331,0.90281 8.142203,-0.65624 z m 131.903007,-6.61203 c 0.32015,-0.8343 0.16299,-1.21062 -0.36844,-0.88217 -0.50972,0.31502 -0.92677,0.96975 -0.92677,1.45494 0,1.34853 0.67197,1.05137 1.29521,-0.57277 z m 25.02149,-12.15083 c -0.55231,-3.17162 -1.03385,-7.63045 -1.0701,-9.90852 -0.14101,-8.86422 -1.56495,-7.90828 -2.20908,1.48304 -0.35366,5.15625 -1.25209,11.3527 -1.99652,13.76991 -1.8108,5.87979 -1.73818,6.13707 1.00483,3.56014 l 2.35834,-2.21553 1.15728,3.10807 1.1573,3.10808 0.30108,-3.56931 c 0.16559,-1.96313 -0.15082,-6.16427 -0.70313,-9.33588 z m 175.70423,7.01074 c -0.32638,-1.02834 -0.93816,-1.65664 -1.3595,-1.39623 -0.42135,0.2604 -2.66121,0.11941 -4.97746,-0.31331 -2.95804,-0.55262 -4.87228,-0.4315 -6.43205,0.40701 l -2.22067,1.19379 2.34375,0.89072 c 1.28906,0.4899 4.13451,1.1912 6.32321,1.55846 2.18871,0.36726 4.25099,1.10708 4.58286,1.64406 0.94491,1.52889 2.41858,-1.84602 1.73986,-3.9845 z m -201.04605,-5.69474 c 1.01069,-2.76513 1.83762,-5.43908 1.83762,-5.94209 0,-1.6397 -3.62393,6.14664 -4.27388,9.1828 -0.90333,4.21976 0.28915,2.63353 2.43626,-3.24071 z m 140.58762,0.57102 c 0,-1.80469 -0.42188,-3.28125 -0.9375,-3.28125 -1.04288,0 -1.24553,2.79392 -0.36845,5.07957 0.89316,2.32754 1.30595,1.75912 1.30595,-1.79832 z M 15.251123,281.68495 C 17.175505,280.3773 18.75,278.90074 18.75,278.4037 c 0,-0.49703 0.684469,-0.9037 1.521042,-0.9037 1.240366,0 1.307381,-0.25745 0.363165,-1.39516 -1.708906,-2.05911 0.997062,-2.80342 5.77907,-1.58962 3.748224,0.95141 4.013455,0.86157 8.415959,-2.85068 5.004462,-4.21983 5.517974,-6.15258 2.813118,-10.58797 -1.273687,-2.0886 -3.110241,-3.26615 -7.012332,-4.49618 -2.907682,-0.91657 -7.192068,-3.12089 -9.520859,-4.89849 -2.639895,-2.01508 -4.234163,-2.74808 -4.234163,-1.94675 0,0.70689 0.646863,1.82212 1.437473,2.47826 2.003976,1.66316 1.232399,3.17054 -1.906223,3.72409 -3.724505,0.65688 -3.922567,2.43271 -0.470432,4.21788 4.329911,2.23909 3.556797,5.15348 -1.865763,7.03333 -5.2280524,1.81243 -5.9469134,4.05746 -1.688572,5.2735 4.227764,1.20731 4.641457,4.21701 0.779983,5.67456 -2.162274,0.81616 -2.848966,1.65991 -2.848966,3.50055 0,3.015 0.563748,3.02044 4.938623,0.0476 z M 191.25,274.27408 c 0,-2.75423 -1.44943,-3.92282 -2.25661,-1.81936 -0.46805,1.21972 -0.84363,1.28606 -1.97323,0.34857 -1.12401,-0.93284 -1.39516,-0.89869 -1.39516,0.17567 0,1.84163 1.91397,3.58354 3.9375,3.58354 1.16412,0 1.6875,-0.70975 1.6875,-2.28842 z m 91.39309,-3.27667 c 0.35644,-1.62288 0.0984,-3.71549 -0.62863,-5.09874 -1.16266,-2.21194 -1.24018,-2.05446 -1.35505,2.7526 -0.13119,5.49017 0.99943,6.8274 1.98368,2.34614 z m 16.90818,-3.39695 c -1.53585,-1.22731 -3.64523,-2.18378 -4.6875,-2.12548 -1.04226,0.0583 -2.3169,-0.005 -2.83252,-0.13927 -1.74424,-0.4563 -3.28125,-0.028 -3.28125,0.91429 0,0.51562 1.1903,0.9375 2.6451,0.9375 1.4548,0 4.30246,0.80708 6.32812,1.79352 4.60446,2.24224 5.50785,1.55997 1.82805,-1.38056 z m -140.74532,-0.95839 c 0.88791,-2.31385 0.66827,-17.3351 -0.33588,-22.97009 -0.49771,-2.79303 -1.54203,-8.66417 -2.32071,-13.04698 -1.43436,-8.0734 -3.25718,-31.13596 -3.43293,-43.43395 l -0.0961,-6.7223 -1.07581,5.15625 c -0.59169,2.83594 -1.03119,9.375 -0.97666,14.53125 0.13002,12.29392 2.11194,38.45839 3.23997,42.77266 0.8482,3.24399 2.0083,15.55131 1.93319,20.50859 -0.0674,4.44892 1.82722,6.4299 3.06489,3.20457 z m 31.21873,-2.01485 c -0.2377,-0.91216 -0.44781,-0.39285 -0.46691,1.15403 -0.0191,1.54687 0.17536,2.29318 0.43217,1.65847 0.2568,-0.63472 0.27243,-1.90035 0.0348,-2.8125 z m 14.81519,-3.65541 c 0.20749,-3.02668 0.82228,-8.24525 1.36621,-11.59681 1.82901,-11.26993 2.82278,-21.97319 2.87247,-30.9375 0.0433,-7.81853 0.69014,-12.96688 3.29789,-26.25 0.59777,-3.04489 0.54549,-3.14618 -0.7257,-1.40625 -1.25482,1.71751 -2.03648,4.74983 -3.12252,12.11312 -0.5898,3.99877 -2.99346,17.73568 -4.54162,25.95536 -2.13918,11.3576 -2.08154,40.1827 0.076,38.02512 0.21999,-0.21998 0.56973,-2.87635 0.77722,-5.90304 z m -37.54585,2.23131 c 0.19808,-0.64453 0.59226,-3.91406 0.87595,-7.26562 0.47538,-5.61622 0.41229,-5.90418 -0.80495,-3.67466 -1.84175,3.37336 -2.9376,12.11216 -1.51888,12.11216 0.59824,0 1.24978,-0.52734 1.44788,-1.17188 z m 123.18877,-2.35684 c 2.08814,-0.45063 2.16822,-0.74173 1.55481,-5.65141 -1.11654,-8.93642 -1.93251,-9.58207 -5.28176,-4.17924 -3.32772,5.36808 -3.66947,6.62388 -2.50067,9.18909 0.743,1.63071 1.53751,2.17301 2.55244,1.74219 0.8105,-0.34404 2.46433,-0.83932 3.67518,-1.10063 z m -118.1062,-3.26816 -0.12342,-3.98437 -0.6327,3.28125 c -0.60156,3.11973 -0.44567,4.6875 0.46611,4.6875 0.22738,0 0.35788,-1.79297 0.29001,-3.98438 z m 9.42892,-0.9375 c -0.0383,-1.16015 -0.40729,-4.00781 -0.82016,-6.32812 -0.73458,-4.12834 -0.75318,-4.08313 -0.868,2.10937 -0.0681,3.67199 0.27616,6.32813 0.82015,6.32813 0.51562,0 0.90622,-0.94922 0.86801,-2.10938 z M 33.30345,247.82178 c -0.899771,-7.20153 -1.134223,-7.63357 -5.294077,-9.75577 -3.833645,-1.95578 -4.191343,-1.8542 -2.728712,0.77484 0.498113,0.89535 1.366156,4.02663 1.928984,6.95839 0.985952,5.13583 2.016707,6.30122 6.414002,7.25174 0.188318,0.0407 0.04423,-2.31243 -0.320197,-5.2292 z m 265.24409,-2.63049 c -0.86553,-1.82396 -2.11328,-3.31629 -2.77281,-3.31629 -1.76661,0 -2.64747,3.06967 -1.20348,4.19402 0.67967,0.52923 2.06875,2.22785 3.08681,3.77473 1.75545,2.66727 1.86683,2.70539 2.15709,0.73817 0.16834,-1.14089 -0.40208,-3.56667 -1.26761,-5.39063 z M 65.425236,248.4375 c 0.54988,0 1.175253,0.73828 1.389719,1.64062 0.300985,1.26637 0.646715,1.01424 1.515569,-1.10525 0.979491,-2.38939 0.88357,-2.98795 -0.73883,-4.61035 -1.583612,-1.5836 -2.091696,-1.67586 -3.373011,-0.61246 -2.277705,1.89032 -3.346082,4.36497 -2.658296,6.15731 0.568571,1.48166 0.703016,1.48691 1.740615,0.0679 0.618449,-0.84574 1.574354,-1.53774 2.124234,-1.53774 z m 115.195654,-8.67188 c -0.26007,-0.64453 -0.47287,-0.11718 -0.47287,1.17188 0,1.28906 0.2128,1.81641 0.47287,1.17187 0.26007,-0.64453 0.26007,-1.69921 0,-2.34375 z m 109.06823,-3.04195 c -0.59766,-1.81096 -0.80901,-4.55683 -0.46966,-6.10191 0.56097,-2.55409 0.39736,-2.80926 -1.80122,-2.80926 -2.88002,0 -3.02367,1.12476 -0.64437,5.0456 0.97563,1.60772 2.09362,4.39971 2.48441,6.2044 0.39081,1.80469 0.89212,2.75758 1.11404,2.11755 0.22191,-0.64004 -0.0855,-2.64541 -0.6832,-4.45638 z M 73.092015,232.56163 c 1.439149,-2.68907 1.219034,-4.78566 -0.435765,-4.15066 -0.773438,0.2968 -1.40625,0.0859 -1.40625,-0.46875 0,-0.5546 -0.632813,-0.76554 -1.40625,-0.46875 -1.893673,0.72668 -1.811197,4.08903 0.100302,4.08903 0.953993,0 1.308632,0.51578 0.966924,1.40625 -0.790672,2.06046 1.043684,1.71805 2.181039,-0.40712 z m 111.502035,-1.23351 c -0.0514,-0.64453 -0.43122,-2.22656 -0.84405,-3.51562 -0.66988,-2.0917 -0.76065,-1.96568 -0.84405,1.17187 -0.0514,1.9336 0.32843,3.51563 0.84405,3.51563 0.51562,0 0.89544,-0.52734 0.84405,-1.17188 z m 127.50178,-4.31115 c -2.78552,-3.01567 -6.43373,-7.20373 -8.10713,-9.3068 -2.5181,-3.16465 -3.93973,-4.02455 -8.24748,-4.98858 -4.44279,-0.99426 -5.16412,-1.45038 -4.9262,-3.11508 0.25166,-1.76079 1.00304,-1.97719 7.73431,-2.22749 4.10056,-0.15247 7.98443,-0.71614 8.6308,-1.25258 0.64638,-0.53645 1.6032,-0.71086 2.12627,-0.38758 1.70133,1.05148 6.40228,-2.17115 7.41819,-5.08538 0.91386,-2.6215 0.82535,-2.84098 -1.14572,-2.84098 -1.17486,0 -4.17538,1.03241 -6.66784,2.29426 -3.55155,1.79802 -4.93234,2.07987 -6.38382,1.30306 -1.01864,-0.54516 -4.33705,-0.81145 -7.37426,-0.59176 -3.91222,0.28298 -5.83033,0.0281 -6.57909,-0.87404 -1.34633,-1.62223 -0.68172,-2.24771 6.24847,-5.88051 7.02514,-3.68257 8.00366,-4.50001 7.36842,-6.1554 -0.28066,-0.7314 0.16629,-1.58944 0.99323,-1.90676 2.52929,-0.97058 1.88598,-7.14518 -1.30898,-12.56385 -1.54688,-2.62351 -2.8125,-5.17332 -2.8125,-5.66626 0,-0.49293 -0.3302,-0.89624 -0.73377,-0.89624 -0.40358,0 -0.57053,2.88902 -0.37101,6.42004 0.27274,4.82683 -0.0449,7.21151 -1.28009,9.60937 -1.56147,3.03135 -5.7896,7.40449 -7.16133,7.40695 -0.35197,6.2e-4 -0.87498,0.73942 -1.16225,1.64176 -0.68063,2.13794 -7.27231,5.47233 -13.1978,6.67609 -6.60725,1.34227 -16.66849,5.27362 -17.70606,6.91849 -1.48406,2.35274 0.0269,4.69773 2.46706,3.8289 3.21315,-1.14403 14.52472,-0.50931 17.88513,1.00359 1.63838,0.73762 5.00281,2.20459 7.47652,3.25994 5.97375,2.54857 8.8073,4.88607 12.94412,10.67804 2.70691,3.78995 4.42661,5.17203 8.003,6.43187 2.50538,0.88255 5.99054,1.63734 7.74481,1.6773 l 3.18958,0.0727 -5.06458,-5.48303 z m -128.53277,-12.0951 c 0.0628,-4.51171 0.59787,-13.89843 1.18905,-20.85937 0.70263,-8.27325 0.84744,-20.93525 0.41816,-36.5625 -0.36119,-13.14844 -0.61058,-29.49609 -0.55423,-36.32812 0.0564,-6.83204 -0.26128,-12.42188 -0.70587,-12.42188 -1.36445,0 -2.03187,29.68422 -0.94854,42.1875 0.63929,7.37836 0.75317,18.66337 0.30745,30.46875 -0.38934,10.3125 -0.80272,21.75249 -0.91862,25.42221 -0.11588,3.66971 -0.49029,7.12458 -0.83201,7.67749 -0.75579,1.22291 0.32827,8.61905 1.26331,8.61905 0.36692,0 0.71851,-3.69141 0.7813,-8.20313 z m -71.57536,2.50767 c -0.29858,-0.48312 -0.56301,-2.66882 -0.58762,-4.8571 -0.0544,-4.83198 -0.52243,-5.77151 -2.09304,-4.20092 -3.76329,3.7633 -3.70752,7.79686 0.13756,9.94868 1.80214,1.00852 3.37617,0.45726 2.5431,-0.89066 z M 80.452141,210.3209 c 0.818791,-3.65929 0.737458,-3.9236 -1.328915,-4.31862 -4.547607,-0.86932 -6.845869,5.3703 -2.951351,8.01272 2.592947,1.75932 3.171816,1.25972 4.280266,-3.6941 z m 242.750979,1.44332 c 2.61447,-0.96716 2.74815,-3.31013 0.23438,-4.10797 -2.11327,-0.67073 -2.42656,-2.35469 -0.75,-4.03125 0.875,-0.875 0.70565,-1.125 -0.7621,-1.125 -1.03791,0 -3.09248,1.25813 -4.5657,2.79586 -1.47324,1.53771 -4.61076,3.51101 -6.97228,4.38508 -5.19709,1.92362 -5.08685,1.84817 -4.37738,2.99612 0.64313,1.04059 13.80091,0.34199 17.19308,-0.91284 z M 53.227242,207.97831 c 5.670358,-5.31968 8.101404,-7.88609 10.154712,-10.72013 l 1.975706,-2.72693 12.555544,0 c 15.660882,0 30.880166,3.10868 35.231256,7.19632 2.34259,2.20075 2.87681,1.04243 1.07741,-2.33608 -1.29411,-2.42977 -3.03462,-3.88749 -6.97898,-5.84504 -1.60234,-0.79523 -4.13359,-2.61161 -5.625,-4.03641 -1.4914,-1.4248 -4.291065,-3.54741 -6.221462,-4.71692 -1.930406,-1.1695 -3.828844,-2.62502 -4.218753,-3.23448 -0.389909,-0.60946 -2.484068,-2.25835 -4.653688,-3.66421 -4.386322,-2.84223 -5.375277,-5.2729 -6.390594,-15.70693 -0.84527,-8.68652 -1.310162,-9.51421 -2.896119,-5.15625 -1.891386,5.19724 -1.908805,11.11837 -0.04109,13.96885 0.854598,1.30429 1.553816,2.99497 1.553816,3.75708 0,2.50301 3.709469,7.73589 6.330293,8.93002 l 2.569859,1.1709 -2.210187,1.7897 c -1.215602,0.98433 -3.377552,1.7897 -4.804334,1.7897 -1.426782,0 -4.227701,0.69072 -6.224265,1.53494 -1.996563,0.84422 -5.124443,1.66865 -6.950842,1.83206 -4.790376,0.42863 -11.275868,4.38449 -15.607806,9.52009 -2.06759,2.45116 -5.72091,5.43548 -8.118486,6.6318 -2.397578,1.19633 -4.359232,2.56022 -4.359232,3.03085 0,0.47065 2.364987,0.69145 5.255527,0.49067 4.402635,-0.3058 5.797753,-0.87374 8.596715,-3.4996 z M 48.75,197.77952 c 0,-0.49749 -1.792969,-0.89514 -3.984375,-0.88367 l -3.984375,0.0208 2.313586,1.77785 c 2.313378,1.77771 5.655164,1.237 5.655164,-0.91499 z m 260.05477,-1.20907 c 1.97596,-0.84364 2.79113,-1.90883 3.00647,-3.92862 0.1625,-1.52413 0.63004,-2.88953 1.03898,-3.03423 2.4937,-0.88234 3.48308,-2.0868 2.51193,-3.05795 -1.7386,-1.7386 -5.92005,0.0393 -8.9448,3.8032 -1.57505,1.95994 -4.14891,4.09585 -5.71969,4.7465 -2.52276,1.04495 -2.64803,1.26456 -1.07369,1.88217 2.66055,1.04374 6.13807,0.88804 9.1808,-0.41107 z M 281.25,190.34548 c 0,-0.49748 -0.94922,-1.40261 -2.10938,-2.01141 -2.09806,-1.10097 -2.0998,-1.09612 -0.32344,0.90451 1.98406,2.23457 2.43282,2.43875 2.43282,1.1069 z M 50.625,186.84939 c -0.773438,-0.27642 -1.950251,-1.19027 -2.615142,-2.03079 -1.04841,-1.32534 -1.321864,-1.34543 -2.059888,-0.15128 -1.051854,1.70194 0.480678,2.82721 3.73753,2.74431 1.383953,-0.0352 1.767872,-0.26547 0.9375,-0.56224 z m 166.19751,-1.53125 c 0.90759,-2.46383 -0.0881,-9.80923 -1.65351,-12.19837 -2.24819,-3.43116 -2.93664,-2.40576 -1.43652,2.13963 0.73505,2.22726 0.99185,5.39374 0.64353,7.93508 -0.46535,3.39506 -0.32122,4.12972 0.73094,3.72597 0.72082,-0.27661 1.49282,-0.99764 1.71556,-1.60231 z M 73.706432,185.16959 c 1.83354,-0.76611 3.164755,-1.71532 2.958257,-2.10937 -0.2065,-0.39406 -1.192875,-2.48836 -2.191947,-4.65402 -1.194002,-2.58819 -2.602188,-4.13612 -4.109238,-4.517 -1.261011,-0.31871 -3.692487,-1.80846 -5.40328,-3.31055 -1.710793,-1.5021 -4.370463,-3.38262 -5.910378,-4.17894 -2.797672,-1.44674 -2.799846,-1.44575 -2.799846,1.27393 0,1.49697 0.632812,3.24696 1.40625,3.88886 2.746063,2.27903 1.642836,3.75 -2.8125,3.75 -4.704908,0 -4.877188,0.36322 -2.890359,6.09375 l 1.30016,3.75 6.4201,0.53757 c 3.531054,0.29567 7.382867,0.61208 8.559586,0.70313 1.176717,0.091 3.639655,-0.46126 5.473195,-1.22736 z M 147.1875,183.1706 c 0,-0.77344 -0.42188,-1.14553 -0.9375,-0.82685 -0.51563,0.31868 -0.9375,1.21222 -0.9375,1.98565 0,0.77344 0.42187,1.14553 0.9375,0.82685 0.51562,-0.31868 0.9375,-1.21222 0.9375,-1.98565 z m 125.17792,-7.79017 c 0.28379,-0.73608 -0.14025,-1.99455 -0.94231,-2.79661 -1.7882,-1.78819 -4.55414,-0.42485 -4.98662,2.45792 -0.23253,1.54995 0.21954,1.86349 2.56533,1.77926 1.56618,-0.0563 3.0798,-0.70449 3.3636,-1.44057 z m -171.33726,-5.86549 c 0.61971,-1.64177 1.0286,-3.01287 0.90866,-3.04687 -0.11994,-0.034 -1.17686,-0.59872 -2.348717,-1.25493 -2.821509,-1.57996 -3.715162,0.45908 -1.949466,4.44807 1.579819,3.56906 1.993894,3.55119 3.389523,-0.14627 z M 72.1875,163.61536 c 0,-4.45931 -0.312106,-5.33914 -2.373008,-6.68949 -1.305154,-0.85517 -2.579529,-1.34834 -2.831943,-1.09592 -0.407666,0.40767 0.971416,8.68962 1.956263,11.74817 0.207538,0.64454 1.023395,1.17188 1.813015,1.17188 1.114477,0 1.435673,-1.14875 1.435673,-5.13464 z m 150.05938,-2.66751 c 1.5705,-4.005 7.99284,-10.66157 12.56372,-13.02193 2.04427,-1.05563 7.10677,-3.10063 11.25,-4.54443 9.70674,-3.38251 13.44168,-5.03042 16.90815,-7.46014 l 2.8125,-1.97134 -4.6875,0.485 c -2.57812,0.26673 -5.91194,0.60845 -7.40848,0.75936 -4.14429,0.4179 -3.86787,-1.44094 0.59427,-3.99637 l 4.00171,-2.29175 -4.21875,-0.4794 c -5.23201,-0.59454 -9.95121,0.63959 -13.49407,3.52889 -2.89335,2.3596 -4.7515,1.77495 -4.16121,-1.30928 0.44068,-2.30251 10.84498,-5.84893 17.34423,-5.91196 2.66486,-0.0259 5.51252,-0.30307 6.32812,-0.61605 2.5968,-0.99649 1.59725,-2.24345 -1.79832,-2.24345 -3.39591,0 -4.27808,-1.44067 -2.17188,-3.54687 1.64089,-1.64089 0.29683,-2.39494 -2.03983,-1.1444 -2.91689,1.56108 -5.05329,0.55085 -3.79747,-1.79569 0.53786,-1.005 0.96451,-2.59329 0.94812,-3.52953 -0.0275,-1.56944 -0.13725,-1.55595 -1.40665,0.17274 -9.98083,13.5922 -11.40711,15.14859 -12.70859,13.86786 -0.82399,-0.81086 -0.8667,-1.47599 -0.15048,-2.34375 1.85748,-2.25054 4.92079,-12.8433 4.88299,-16.88516 l -0.0375,-4.01395 -1.36663,2.51701 c -0.75165,1.38436 -1.55641,3.9993 -1.78836,5.81099 -0.23196,1.81168 -1.16072,4.68684 -2.06393,6.38924 -0.90321,1.70239 -2.30339,4.99977 -3.11152,7.3275 -0.80811,2.32774 -3.46622,7.23603 -5.90689,10.90733 -2.44068,3.67129 -4.43759,7.08088 -4.43759,7.57685 0,0.49597 -0.67429,2.2534 -1.49843,3.90543 -0.82413,1.65202 -1.92328,5.83011 -2.44254,9.28465 -0.51927,3.45455 -1.29671,6.97379 -1.72765,7.82055 -0.43094,0.84675 -0.52619,1.79689 -0.21166,2.11142 0.90998,0.90999 3.72746,-2.1087 5.00216,-5.35937 z m 43.06562,5.6037 c 0,-0.1779 -0.94922,-1.12712 -2.10938,-2.10937 l -2.10937,-1.78593 1.78593,2.10937 c 1.67833,1.98229 2.43282,2.53617 2.43282,1.78593 z m -3.75,-5.83193 c 0,-1.99206 -1.73287,-5.09462 -2.84548,-5.09462 -0.49749,0 -0.90452,0.84375 -0.90452,1.875 0,1.10455 -0.625,1.875 -1.52104,1.875 -1.24575,0 -1.30981,0.25452 -0.35396,1.40625 1.56912,1.89067 5.625,1.84624 5.625,-0.0616 z m -155.95806,-5.954 c 2.14086,0.38426 3.21939,-0.314 4.59556,-2.97524 1.47649,-2.85521 1.29748,-5.54038 -0.36933,-5.54038 -0.46926,0 -1.37744,1.26562 -2.01817,2.8125 -0.64073,1.54687 -1.73176,2.8125 -2.42451,2.8125 -0.69273,0 -1.69624,0.81602 -2.23001,1.81337 -1.34471,2.51262 -1.21246,3.30455 0.33709,2.01853 0.71916,-0.59685 1.66838,-1.02042 2.10937,-0.94128 z m 8.06166,-48.02075 c -0.76409,-2.94871 -3.9786,-5.09904 -3.9786,-2.66145 0,1.37691 3.80645,6.79763 4.37447,6.22961 0.23095,-0.23095 0.0528,-1.83663 -0.39587,-3.56816 z m 69.94009,-5.72924 c -0.0141,-4.072224 1.09297,-9.328901 2.277,-10.812122 1.08634,-1.36085 5.26608,-13.147723 5.327,-15.022136 0.0293,-0.90321 -0.73148,-0.780112 -2.89721,0.46875 -3.68751,2.126399 -5.67566,6.654223 -6.09517,13.881128 -0.17959,3.09375 -0.39665,6.257812 -0.48236,7.03125 -0.36371,3.282178 0.20452,7.5 1.0104,7.5 0.47897,0 0.86612,-1.37109 0.86034,-3.04688 z m -60.33308,-4.468871 c -1.29235,-2.499131 -1.69659,-2.70299 -3.47383,-1.75184 -1.95483,1.046193 -1.92103,1.124475 1.20409,2.78895 1.76846,0.941897 3.33169,1.730222 3.47383,1.751831 0.14214,0.02166 -0.39969,-1.233413 -1.20409,-2.788941 z m 63.39407,-24.569341 c 1.97857,-1.920234 3.87579,-4.662421 4.21602,-6.09375 0.34025,-1.431331 1.22018,-3.296512 1.9554,-4.144849 2.62087,-3.024082 -0.16053,-33.686111 -4.32479,-47.676319 -1.04851,-3.522576 -1.00775,-2.168749 0.49737,16.519168 0.71098,8.82766 -0.16504,16.58454 -1.81142,16.039569 -0.72266,-0.239208 -1.32765,-4.401716 -1.74548,-12.009295 -0.35171,-6.403756 -0.94986,-13.54163 -1.32924,-15.861942 -0.62416,-3.817416 -0.84282,-3.03254 -2.2985,8.250466 -0.88479,6.858068 -1.86867,12.729162 -2.18638,13.046874 -1.2676,1.267608 -1.80557,-0.955192 -1.69226,-6.992229 0.16221,-8.642533 -1.44437,-4.746322 -2.56793,6.227606 -1.26335,12.339398 -0.37328,27.513722 2.07238,35.330961 l 2.0789,6.644928 1.76926,-2.894928 c 0.9731,-1.592211 3.3881,-4.466028 5.36667,-6.38626 z M 4.921875,292.80523 c -3.93613838,-2.74571 -1.8883367,-6.29209 2.1176183,-3.66729 2.7372564,1.79352 7.1870157,1.84803 11.9555607,0.14646 3.567038,-1.27283 5.049274,-0.65551 4.136617,1.72285 -0.577543,1.50505 -7.678033,3.38544 -12.53119,3.31858 -1.9630769,-0.027 -4.5184498,-0.71132 -5.678606,-1.5206 z"
     id="path4188"
     inkscape:connector-curvature="0" />
</svg>
