<?xml version="1.0" encoding="UTF-8" standalone="no"?>
<svg id="svg4156" xmlns:rdf="http://www.w3.org/1999/02/22-rdf-syntax-ns#" xmlns="http://www.w3.org/2000/svg" height="595" viewBox="0 0 589 595" width="589" version="1.1" xmlns:cc="http://creativecommons.org/ns#" xmlns:dc="http://purl.org/dc/elements/1.1/">
<path id="path4166" d="m309.1 590.74c-4.6504-2.39-6.3419-6.0337-7.159-15.422-1.7723-20.363-10.721-31.499-32.02-39.846-9.9709-3.9076-12.936-1.9071-4.5006 3.0364 7.161 4.1966 12.584 12.747 12.584 19.842 0 7.451-5.4256 7.1522-6.3139-0.34776-0.9661-8.1572-8.3622-18.129-14.286-19.262-2.883-0.55112-2.9272-0.30649-0.56238 3.1095 4.6676 6.7423 5.4507 18.402 1.2755 18.992-3.1512 0.44555-4.0793-1.2603-4.0978-7.5317-0.0119-4.048-0.55101-5.8134-2.4429-8l-2.4276-2.8058-3.37 3.25c-5.505 5.309-7.874 4.532-7.6626-2.5131 0.33563-11.185-1.3188-12.408-24.835-18.356-43.508-11.004-62.945-28.966-56.271-51.999l1.3381-4.618-10.416-10.094c-12.726-12.332-14.124-13.192-17.757-10.928-1.4692 0.9157-5.3714 3.0833-8.6714 4.8168-12.873 6.7623-16.912 13.923-13.058 23.148 4.5606 10.915 24.032 8.3167 21.964-2.9309-1.04-5.61-3.84-6.85-7.41-3.28-3.1397 3.1397-2.5685 5 1.5352 5 3.2253 0 3.4414 0.17531 2.4648 2-1.379 2.5767-5.0233 2.5586-7.8114-0.039-3.7167-3.4627-1.9883-9.8791 3.3426-12.409 11.002-5.2208 18.55 9.9236 9.3216 18.703-4.458 4.2408-4.1221 5.6987 1.3205 5.7299 5.584 0.032 12.84 9.841 11.432 15.453-1.2128 4.8321-6.6049 2.5978-6.6049-2.7369 0-3.1819-4.9642-8.6898-7.8558-8.7162-17.953-0.16384-33.138-17.167-27.24-30.5 2.7468-6.2095 2.1129-7.8486-4.2054-10.875-22.311-10.688-24.253-42.081-3.4687-56.078 9.1277-6.1469 9.2019-6.5674 3.7322-21.133-6.433-17.13-7.168-17.65-10.436-7.4-2.84 8.91-7.601 20-11.806 27.5-6.019 10.73-7.72 15.8-7.72 23 0 6.1-1.229 8.5-4.351 8.5-5.5396 0-0.59166-24.387 7.71-38 9.2851-15.226 13.066-32.598 10.326-47.445-1.8074-9.7931-4.6117-9.5263-4.6814 0.44547-0.08857 12.663-11.473 27-21.44 27-9.0759 0-9.295-7.7401-0.24354-8.6009 14.229-1.35 16.091-14.26 8.349-57.9-2.224-12.54-4.686-14.33-18.134-13.25-20.725 1.66-29.852 18.11-18.499 33.35 8.507 11.41 25.964 8.81 25.964-3.87 0-6.84-8.941-11.12-13-6.23-3.1718 3.8217-6.8469 1.0384-4.5342-3.4339 7.3895-14.29 28.575 2.1671 22.163 17.216-6.5579 15.391-35.89 10.478-40.496-6.7821-0.78028-2.924-0.9402-2.9926-6.3092-2.7079-6.7206 0.35637-8.1676-0.98138-8.0696-7.4605 0.083487-5.5226 1.9426-7.7027 6.4486-7.562 5.5601 0.17354 7.6989-0.67801 9.2534-3.6842 4.728-9.15 14.236-14.06 29.044-15.01 11.303-0.72603 12.313-2.803 3.6257-7.4581l-5.3743-2.88-5.6257 1.5708c-6.7965 1.8977-8.1073 1.0091-4.6218-3.1332 3.4354-4.0828 8.3841-5.042 14.608-2.8316 5.0144 1.781 7.8404 2.1015 7.9688 0.90395 0.04423-0.4125 0.19121-5.7 0.32661-11.75 0.283-12.645 5.0049-28.685 10.277-34.911 4.7405-5.5978 8.6793-10.842 11.696-15.573 1.5839-2.4839 3.9464-5.7882 5.25-7.3429 3.664-4.3696 3.1174-4.955-3.8797-4.1558-22.001 2.513-37.761 18.392-33.62 33.875 1.7258 6.4532-0.7132 7.0804-5.5517 1.4277-14.226-16.62 9.107-45.5 36.421-45.09 13.977 0.21287 17.294-0.61568 19.006-4.7476 2.144-5.16 6.994-2.76 6.994 3.47 0 2.6916 1.3384 1.7598 9.6235-6.7003 8.8-8.98 17.38-19.81 17.38-21.93 0-4.574-23.856-13.569-28.87-10.886-3.4105 1.8253-2.6181 3.9083 1.6203 4.259 11.403 0.94373 7.7002 17.571-4.3137 19.372-19.754 2.96-30.224-18.99-15.628-32.75 13.247-12.5 32.718-10.53 48.978 4.94 8.7182 8.2974 8.7794 8.238 14.159-13.75 3.442-14.069 6.9163-16.669 14.3-10.701 9.8861 7.9898 19.601 6.5835 21.347-3.09 1.4824-8.2154 5.3679-10.767 14.85-9.7516 6.0877 0.65195 6.2844 0.59223 18.605-5.6491l12.45-6.308-0.21-5.948c-0.62753-17.715-29.527-24.731-33.72-8.1871-2.5905 10.221 9.0145 13.007 14.958 3.5921 4.6712-7.3997 8.438-3.2486 4.3161 4.7564-8.929 17.341-33.028 6.0026-25.497-11.995 9.0839-21.708 46.944-13.417 47.608 10.425 0.0791 2.8443 2.958 2.9421 12.391 0.42091 5.0349-1.3457 11.067-2.9404 13.404-3.5438 5.1497-1.3295 5.5935-3.6507 1.3043-6.8218-9.0634-6.7008-5.1763-31.769 6.2802-40.503 4.8638-3.7078 16.154-10.449 18.159-10.843 3.0532-0.59982 4.177-3.4534 2.2142-5.6222-5.21-5.7494 0.73-12.23 11.2-12.23 8.7469 0 13.604 7.5072 8.0866 12.5-2.7292 2.4699-2.5107 4.183 0.75 5.8793 12.962 6.7436 12.804 27.657-0.2468 32.619-8.3 3.158-19.5-1.544-19.5-8.189 0-3.4347 0.42496-3.4705 4.1351-0.34866 8.2 6.906 19.86 2.596 19.86-7.345 0-15.028-22.9-15.812-30.536-1.0453-9.3958 18.17 8.3672 31.69 47.886 36.449 7.6178 0.91732 15.493 2.367 17.5 3.2216 3.36 1.43 21.33 6.259 23.3 6.259 1.8412 0 0.72389-4.0397-1.5249-5.5131-2.35-1.536-7.63-11.77-7.63-14.78 0-5.8502 3.5236-6.1675 5.0721-0.45674 2.2263 8.2105 3.3311 10.287 7.7152 14.5 6.969 6.6972 8.5666 5.3511 2.7276-2.2984l-3.485-4.5657 0.59301-8.693c0.44-6.612 0.2-9.77-1.01-13.193-2.1465-6.0619-2.0538-7.2024 0.5539-6.8196 2.7179 0.39906 6.7558 7.9438 6.7954 12.697l0.0282 3.3778 4.1672-0.66636c5.3692-0.85857 5.7506-0.14824 5.0906 9.4809-0.9412 13.732 4.608 25.411 14.955 31.475 7.0328 4.1218 7.5952 3.9253 5.9859-2.092-3.49-13.048 1.77-21.452 13.43-21.452 8.6231 0 18.419 19.022 12.537 24.345-4.44 4.025-16.17-1.754-16.17-7.961 0-3.2805 2.5026-3.0343 4.56 0.44856 4.4833 7.5896 12.019 5.0557 8.0116-2.6939-5.4956-10.627-18.576-9.4918-18.568 1.6117 0.006 7.4722 6.7112 16.057 19.271 24.672 3.1447 2.1571 6.507 4.6469 7.4716 5.5329 0.96468 0.886 3.914 3.2514 6.554 5.2564s6.915 5.4681 9.5 7.6959c15.175 13.078 24.356 18.008 17.365 9.3265-6.5044-8.0781-8.3058-11.061-11.101-18.381-12.243-32.061 18.23-47.738 39.035-20.081 2.3702 3.1507 7.5924 9.1644 11.605 13.364 7.6234 7.9782 8.1449 8.9151 5.9678 10.722-3.0771 2.5538-14.063-3.7821-20.546-11.85-16.439-20.456-26.917-2.2565-11.736 20.384 17.742 26.458 32.097 37.637 32.13 25.021 0.0251-9.5419 0.71083-11.741 4.1506-13.308 4.043-1.8421 4.6849 0.007 1.7965 5.1746-2.4477 4.3795-2.5325 5.0054-1.5949 11.772 1.4436 10.417 2.029 10.41 4.0954-0.0503 1.2724-6.4408 4.9658-13.5 7.0634-13.5 2.482 0 2.247 5.0679-0.47185 10.175-4.8096 9.0348-3.5588 19.453 4.0099 33.398 2.8811 5.3085 4.9358 10.621 5.5527 14.357 0.60262 3.6497 2.1138 7.6115 3.9294 10.302 4.5053 6.6756 5.5614 9.138 7.4061 17.268 4.2867 18.893-0.97118 42.654-11.255 50.867-8.1822 6.5337-7.8261 5.8035-9.1187 18.697-1.8724 18.677-7.1465 45.795-12.046 61.936-2.6712 8.8004-6.784 21.419-8.4744 26-3.54 9.594-0.31321 7.3511 4.5164-3.1394 8.9127-19.359 16.871-42.999 20.91-62.107 4.7608-22.527 10.747-33.175 19.583-34.833 7.0298-1.3188 10.269-11.993 5.9389-19.568-2.9043-5.0804-3.363-11.901-0.93583-13.915 1.8765-1.5574 2.6032-0.71028 4.2213 4.9206 0.57572 2.0034 1.7568 6.0568 2.6246 9.0075 2.218 7.5414 2.0328 8.7658-1.9451 12.862-4.5959 4.7322-3.3169 5.7933 4.398 3.6484 7.4091-2.0599 9.2693-1.0886 5.5654 2.9059-1.3867 1.4955-3.0868 2.7191-3.7779 2.7191-0.69112 0-2.8532 1.6875-4.8047 3.75-7.5698 8.0006-9.6968 12.308-25.87 52.391-1.7853 4.4246-1.7294 5.8591 0.2282 5.8591 0.48544 0 2.4788-3.4875 4.4296-7.75 11.275-24.635 21.711-43.606 22.187-40.331 0.32126 2.2128-5.9635 17.116-10.999 26.081-3.0846 5.4922-14.521 29.252-15.282 31.75-0.96826 3.1766-9.1606 17.886-12.949 23.25-1.748 2.475-4.6877 6.975-6.5326 10s-6.0398 8.7879-9.3221 12.806c-6.6087 8.0911-6.7331 9.893-0.43016 6.2302 20.89-12.16 39.67-16.91 39.67-10.04 0 2.706-1.5316 3.3002-8.9182 3.4598-6.475 0.13992-11.082 1.6371-11.082 3.6015 0 0.61944 1.8802 0.74983 4.9468 0.34304 6.4629-0.85733 10.053 0.0609 10.053 2.5712 0 2.7495-2.3556 3.6541-11.5 4.416-18.73 1.5606-32.5 6.6282-32.5 11.96 0 2.0112 0.64183 2.0302 5.901 0.17468 9.5675-3.3756 17.269 5.3856 10.599 12.056-2.4343 2.4343-2.7588 2.4825-12.286 1.8264-11.677-0.80425-17.718 1.2222-32.641 10.95-10.281 6.7017-10.5 8.1144-1.2641 8.1794 23.957 0.16866 30.901 31.112 8.6035 38.339-9.88 3.2-22.91-4.69-22.91-13.89 0-7.965 12.159-14.082 18.777-9.4465 4.6268 3.2407 1.8333 6.0574-4.1779 4.2125-7.7182-2.3688-12.258 5.4785-6.3496 10.976 10.261 9.5462 26.216-5.2677 18.79-17.446-3.6819-6.0384-18.86-9.2758-26.134-5.5742-1.3233 0.67341-4.9199 2.1407-7.9923 3.2606s-8.4724 3.8394-12 6.0433-8.3094 4.9806-10.626 6.1705c-6.3765 3.2747-6.3106 5.5498 0.3694 12.754 2.6751 2.885 1.644 4.8139-1.6352 3.059-1.2062-0.64551-2.4516-0.91506-2.7677-0.59898-0.60568 0.60568 3.5368 4.5874 4.7726 4.5874 1.182 0 8.5934 7.1702 12.404 12 4.0435 5.1253 4.6193 9.4821 1.7253 13.056-2.7967 3.4538-5.1406 1.9841-5.2222-3.2746-0.13699-8.8342-8.7752-16.871-18.454-17.169-5.0728-0.15609-5.7996-0.50274-10.254-4.8904-5.73-5.6439-8.0249-5.9178-19.222-2.2942-4.1269 1.3355-12.074 3.8258-17.659 5.5341-9.8779 3.021-14.208 5.5074-11.207 6.4355 17.66 5.4616 27.096 14.511 25.271 24.238-0.83 4.4-6.52 10.37-9.88 10.37-3.3244 0-4.2207-1.9502-1.7865-3.8872 9.5356-7.5878 3.2542-20.184-11.995-24.052-19.708-4.9996-34.894-2.9673-24.912 3.3339 6.7713 4.2745 11.734 12.261 9.6822 15.581-1.1349 1.8363-2.3674 1.0978-5.9093-3.5408-5.2091-6.8221-17.509-14.988-21.431-14.228-1.3016 0.25233-0.90065 0.98929 1.8002 3.3088 8.5684 7.3585 13.46 14.498 12.835 18.733-0.54591 3.6952-2.2565 2.8949-5.5375-2.5906-4.5204-7.5576-10.865-13.572-17.272-16.375-3.025-1.323-6.2214-2.7904-7.103-3.261-2.485-1.3263-10.463-2.2947-12.798-1.5536-2.2871 0.7259-2.9411 4.5314-0.77876 4.5314 9.0238 0 17.403 19.577 16.296 38.075-1.3179 22.027-1.5802 22.713-7.5197 19.661zm2.3107-19.483c1.2904-23.873-8.0596-36.347-33.157-44.236-2.3375-0.73477-4.25-1.9086-4.25-2.6085 0-1.3042 1.0834-1.7716 6.75-2.9121 6.3368-1.2754 2.1994-5.4789-10.114-10.275-3.2796-1.2776-8.3821-1.6365-24.636-1.733-20.496-0.1217-29.621-1.4458-31.557-4.5793-1.1459-1.8541 0.11136-1.966 9.8682-0.87804 17.185 1.9163 27.478-5.0344 11.094-7.4915-8.2573-1.2383-14.143-3.4297-14.675-5.4639-0.5022-1.9204-5.9629-4.0571-10.398-4.0685-3.8351-0.01-5.5313-1.0602-4.2349-2.6224 1.2629-1.5217 12.413-1.985 13.298-0.55256 0.28235 0.45686 3.0012 1.3874 6.042 2.0679 3.0407 0.68048 5.7878 1.6567 6.1047 2.1693 0.31684 0.51266 2.012 0.92163 3.7671 0.90884 3.4575-0.0252 14.492-10.871 13.196-12.969-1.2093-1.9567-5.6689-0.96945-9.4893 2.1006-5.0038 4.0211-7.1766 3.4257-3.4895-0.95626 5.0943-6.0543-2.8033-5.9974-9.2582 0.0666-2.9746 2.7944-4.2384 1.444-1.4382-1.5367 1.1938-1.2708 2.1706-3.069 2.1706-3.9961 0-2.6776-5.2185-2.1463-8 0.81445-3.2256 3.4334-5.364 3.393-3.7854-0.0716 1.4576-3.199-0.33253-4.7142-3.9462-3.3403-3.1184 1.1856-3.069 1.1999-2.9073-0.83806 0.11687-1.4726-0.88662-1.7981-6.3295-2.0534-8.5303-0.40009-17.452 3.277-12.532 5.165 3.9145 1.5021-1.0883 5.106-8.645 6.2276-3.2954 0.48911-5.1014 1.5068-7.4229 4.1827-3.7618 4.3361-7.3054 4.0513-9.111-0.73214-1.5666-4.1505-3.3211-3.826-3.3211 0.61416 0 5.2874 6.1124 15.723 11.326 19.338 2.2955 1.5913 5.3491 3.8021 6.7858 4.9129 8.6541 6.6908 35.922 14.97 57.888 17.576 27.778 3.2957 34.411 5.3361 49 15.072 13.444 8.9721 18.225 17.201 20.012 34.447 2.0244 19.539 4.2843 18.806 5.3954-1.7482zm19.09-51.42c18.485-2.6358 39.609-9.4603 50.434-16.294 2.2142-1.3978 4.4521-2.5414 4.9731-2.5414 1.281 0 5.0924-4.9408 5.0924-6.6015 0-0.73247-1.9125-3.5449-4.25-6.2498s-5.7445-7.4042-7.5712-10.443c-5.2906-8.801-8.0426-10.716-4.7721-3.3209 3.0484 6.8929 3.1367 7.615 0.93112 7.615-4.7149 0-19.729-13.035-29.252-25.397-2.428-3.1517-6.0716-6.5756-8.0968-7.6088-7.0201-3.5814-18.437-18.613-24.3-31.994-0.84347-1.925-3.1827-7.325-5.1983-12-6.2443-14.483-7.8648-14.778-12.653-2.304-5.14 13.39-22.57 30.3-31.22 30.3-3.4456 0-3.307-1.0816 0.83386-6.5064 11.48-15.04 19.806-48.382 9.1372-36.593-4.74 5.2376-7.0262 3.2615-4.5445-3.928 2.0532-5.9482 2.5502-13.486 0.95425-14.472-0.55-0.33992-1-0.18646-1 0.34102 0 8.9381-14.088 27.985-26.878 36.34-10.297 6.7257-10.128 6.7733-12.134-3.4305-1.3641-6.9415-2.1737-7.0954-9.2179-1.7526-2.8987 2.1986-9.9953 6.3338-15.77 9.1892-29.884 14.776-39.445 27.962-22.265 30.707 18.048 2.8834 27.578 1.2692 30.944-5.2412 2.3683-4.5799-1.1105-5.5928-10.43-3.0366-3.9654 1.0877-2.4862-1.6067 2-3.643 10.133-4.5997 17.519 1.3276 12.588 10.102-3.6529 6.4994-21.763 9.2788-37.904 5.8171-6.53-1.4004-9.7294-0.16171-10.581 4.0967-1.1981 5.9905-9.1454 0.23198-14.696-10.649-5.2018-10.196-23.575-22.721-20.768-14.157 0.59789 1.8244 1.2661 5.875 1.4848 9.0014 0.45519 6.5052 1.777 8.6861 10.301 16.995 12.647 12.328 19.756 15.235 27.487 11.237 14.222-7.3546 30.817-5.9621 75.067 6.2993 8.4729 2.3478 29.172 2.3184 33.576-0.0477 9.8207-5.2764 14.367-13.888 11.528-21.837-4.6653-13.062 10.835-11.879 15.851 1.2093 6.4042 16.71-3.9394 33.552-24.703 40.223-8.7883 2.8235-9.4708 5.0938-1.6659 5.541 5.7861 0.33156 7.011 2.6681 2.4505 4.6744-2.6294 1.1568-3.7322 3.4523-2.3315 4.853 10.05 10.05 46.07-14.15 46.07-30.95 0-9.56 9.403-1.2201 10.668 9.4619 0.34736 2.9328 1.1266 5.4563 1.7317 5.6076 21.4 5.3527 25.718 10.386 10.567 12.314-4.6935 0.59729-14.144 2.7505-21 4.7849-23.169 6.8746-27.014 7.6846-34.133 7.1903-8.4559-0.58718-11.521 2.9345-5.5603 6.3897 0.12482 0.0724 5.402 0.42204 11.727 0.77708 6.325 0.35503 13.075 0.74045 15 0.85647 1.925 0.11603 7.1-0.30235 11.5-0.92973zm-74.5-63.37c0-1.6121 2.6616-3.1404 3.6856-2.1163 0.71 0.71-1.55 3.65-2.81 3.65-0.49 0-0.88-0.69-0.88-1.53zm-11.504-1.4744c-1.27-2.05 1.78-8 4.09-8 2.6597 0 3.6626 2.195 2.4546 5.3723-1.2048 3.1688-5.2209 4.7759-6.5522 2.6219zm-11.586-3.8264c0.53932-1.0077 1.6331-2.3738 2.4306-3.0356 0.79749-0.66186 1.7424-2.7624 2.0999-4.6678 0.74787-3.9865 3.1849-4.6506 4.4561-1.2144 1.6008 4.327-2.9059 10.75-7.5428 10.75-2.0405 0-2.2691-0.29011-1.4438-1.8322zm-12.451-2.2343c-0.76958-1.2452-0.40011-1.6915 3.2062-3.8728 1.8331-1.1088 3.0207-3.0104 3.7576-6.0166 1.2552-5.121 3.2186-6.3218 4.1658-2.5477 1.6973 6.7626-7.9641 17.559-11.13 12.437zm203.54 59.19c0-3.6592-2.2413-6.6372-4.3781-5.8173-2.9856 1.1457-3.0226 3.6575-0.0988 6.7093 3.1776 3.3167 4.4769 3.0578 4.4769-0.89203zm-31.56-0.65767c6.5906-1.9159 9.0809-3.6749 8.254-5.8298-0.92973-2.4229-3.2414-2.0274-9.2876 1.589-8.0946 4.8416-7.6273 6.7586 1.0336 4.2408zm-74.44-1.56c10.903-4.018 20.549-6.9076 23.059-6.9078 7.6221-0.00041 7.2685-4.3798-0.37543-4.6496l-5.1834-0.18296-0.11024-5.3338c-0.0606-2.9336-0.17314-5.8822-0.25-6.5524-0.26946-2.3495-2.8078-0.16151-4.6459 4.0047-2.379 5.3923-10.646 13.555-16.744 16.534-8.8198 4.3081-5.5359 6.694 4.25 3.0878zm-44.5-5.8123c5.9073-1.4055 4.5168-4.7044-2.2825-5.415-14.071-1.4707-12.124-6.1718 3.1766-7.6725 23.648-2.3193 37.022-16.449 31.982-33.787-2.1951-7.5509-4.6783-6.9584-5.4003 1.2886-1.13 12.8-11.76 22.49-24.69 22.49-4.3028 0-8.5409 2.0049-14.786 6.995-4.6201 3.6914-7.5 4.9715-7.5 3.3338 0-1.1842 3.269-4.3287 4.5-4.3287 1.7645 0 4.7983-3.7083 4.0389-4.937-1.0305-1.6674-8.115-1.2788-9.6139 0.52736-0.72593 0.8747-4.156 3.6142-7.6224 6.0878s-6.3026 5.0831-6.3026 5.7988c0 2.6412 3.625 5.6515 7.9852 6.6311 2.4669 0.55423 5.1669 1.619 6 2.3661 2.4543 2.201 12.586 2.5079 20.515 0.62134zm137.5 0.34002c0-1.766-9.3744-11.179-14.5-14.559-11.409-7.5248-6.8067-0.35402 8 12.463 2.6922 2.3305 6.5 3.5582 6.5 2.0957zm8-5.3299c0-3.06-13.29-16.11-16.4-16.11-1.4314 0-2.5867 0.3375-2.5672 0.75 0.13979 2.9588 7.9274 10.822 14.965 15.11 4.235 2.5805 4 2.566 4 0.24581zm15.5-5.1796c1.65-1.0603 4.2183-2.5087 5.7074-3.2187 1.4891-0.71001 5.4839-3.7251 8.8774-6.7001 3.3935-2.9751 7.8002-6.5949 9.7926-8.0442 30.37-22.1 55.85-74.46 53.75-110.47-1.91-32.62-14.58-50-42.63-58.49-15.066-4.5571-25.42-18.498-20.625-27.771 5.2416-10.136 21.843-10.367 29.153-0.40547 7.4806 10.194 0.96375 19.99-9.9811 15.003-3.8006-1.7317-3.1018-2.6943 2.203-3.0347 10.87-0.69 2.7-13.8-8.61-13.8-6.6419 0-9.6718 7.2216-6.3645 15.169 1.1949 2.8715 13.269 9.3613 26.57 14.282 23.218 8.5888 36.853 34.098 35.478 66.378-0.814 19.116 4.2756 2.0065 11.7-39.329 0.79026-4.4 1.4451-13.014 1.4552-19.143 0.0207-12.537 0.16763-12.303-7.8134-12.433-8.5169-0.1388-21.405-7.8229-26.889-16.031-7.98-11.94-14.03-22.6-18.94-33.39-16.97-37.23-24.82-45.94-41.53-46.02-6.7792-0.0326-7.6052-0.62369-5.4559-3.904 8.5734-13.085 23.355-13.508 41.898-1.1999 5.2488 3.4839 7.7468 3.9745 7.7468 1.5214 0-8.5872-21.846-25.408-32.75-25.217-7.9069 0.13848-8.4216-0.23479-4.8934-3.5493 3.7319-3.5059 8.5606-3.777 14.974-0.84079 7.9677 3.6477 8.4855 1.8494 3.6642-12.725-3.8301-11.578-6.7345-14.651-17.114-18.108-8.7-2.9-12.88-5.67-12.88-8.53 0-2.4532 1.0854-2.4347 4.2729 0.0726 2.6938 2.119 6.7271 2.6997 6.7271 0.96862 0-0.56727-0.7875-1.3074-1.75-1.6447-0.9625-0.33729-3.1-1.8259-4.75-3.3079-1.65-1.4821-5.475-3.6911-8.5-4.9089s-6.4894-2.7038-7.6986-3.3022c-1.2612-0.62406-8.7222-1.1342-17.5-1.1964l-15.3-0.11-9.5 4.3c-5.225 2.3628-11.21 5.6647-13.3 7.3376-6.3296 5.066-8.4113 2.4862-4.5766-5.6718 3.7025-7.8768 14.75-15.386 27.273-18.54 11.671-2.9389 5.7135-4.4952-11.642-3.0411-28.951 2.4257-60.077 16.996-76.636 35.873-8.0353 9.1606-9.7568 2.9072-2.4851-9.0271 1.9347-3.1753 3.3534-6.2662 3.1525-6.8687-1.0049-3.0148-15.902 14.012-23.206 26.525-2.1474 3.6784-2.1234 3.764 3.4026 12.117 2.1831 3.3 4.8892 7.6875 6.0136 9.75 2.868 5.2608 5.351 4.9648 8.3904-1 9.1767-18.01 17.59-23.898 44.613-31.223 13.421-3.6381 16.17-0.2475 9.878 12.183-3.3497 6.6178-2.8494 6.8004 9.122 3.3301 8.6324-2.5024 14.587-1.7843 14.178 1.7097-0.40413 3.4561 0.20057 3.4356 6.9811-0.2369 28.938-15.673 66.62-12.669 53.471 4.2639-6.0905 7.8433-6.5959 10.852-7.1354 42.478-0.57242 33.552-1.9284 39.381-11.625 49.973-5.9779 6.5299 1.3803 10.955 10.289 6.1873 17.106-9.1549 2.6521 25.367-14.772 35.28-8.9305 5.0811-9.1136 5.8052-1.4682 5.8052 11.261 0 23.276 4.3157 26.742 9.6054 2.9332 4.4767 1.5488 5.094-10.328 4.6047-9.9654-0.41059-11.766-0.1857-21.847 2.7281-6.5635 1.8972-14.509 3.4136-19.736 3.7667-10.643 0.71906-10.94 1.5872-1.5 4.3911 15.387 4.5704 9.4128 10.617-7.75 7.8441-3.85-0.62199-8.4094-1.356-10.132-1.6311-4.0028-0.6393-5.1781 1.1808-2.5927 4.0151 8.0051 8.7753 13.991 23.375 15.668 38.215 0.31326 2.7717 2.1683 10.422 4.1222 17 1.954 6.5783 4.1606 15.336 4.9036 19.461 1.3649 7.5773 6.6225 22.236 8.967 25 1.0794 1.2728 7.2625 15.568 12.111 28 0.75073 1.925 1.3847 5.1875 1.4089 7.25 0.0665 5.6862 2.6337 4.8705 4.5052-1.4315 2.5889-8.7179 2.0945-22.72-0.96126-27.223-3.7184-5.4794-3.1264-10.23 0.7285-5.8451 5.6421 6.4178 8.2148 22.109 5.424 33.082-2.1868 8.598 3.5315 3.3058 9.5434-8.8323 12.43-25.096 16.018-62.425 4.7693-49.613-14.572 16.597-40.092-2.2389-33.545-24.759 8.2556-28.398 51.828-22.519 54.634 7.3718 0.38725 4.125 1.2941 10.345 2.0152 13.822 2.3312 11.241-1.6792 29.75-9.1822 42.377-1.8626 3.1346-4.798 8.0846-6.5232 11s-7.0127 9.3238-11.75 14.241c-9.0966 9.4419-9.8702 11.112-6.5419 14.124 5.7627 5.2152 29.381-16.474 45.528-41.809 1.8423-2.8907 3.3612-5.593 3.3752-6.0051 0.0141-0.41213 1.9835-4.7127 4.3764-9.5567 12.648-25.603 15.711-55.016 7.5977-72.953-3.2451-7.1738-5.0984-8.3884-8.2631-5.4154-15.753 14.799-38.633-5.4866-26.003-23.054 7.5637-10.521 28.38-11.746 35.124-2.0674 0.9315 1.3368 3.1501 4.3129 4.9302 6.6134 11.981 15.483 13.475 19.678 13.363 37.512-0.15069 23.988-8.3565 48.033-23.692 69.423-1.874 2.6138-3.4072 5.0598-3.4072 5.4356 0 0.37583-1.7092 2.7373-3.7983 5.2477s-4.8768 6.1394-6.195 8.0644c-6.7229 9.8179-21.807 24.308-31.075 29.852-2.1623 1.2934-3.9315 2.7558-3.9315 3.25 0 1.4786 3.2978 0.88222 6.5-1.1755zm-8.5-47.81c0-1.2473 2.5679-3.2212 3.2731-2.516 0.97 0.97-0.38 3.4-1.88 3.4-0.76 0-1.39-0.39-1.39-0.88zm2-10.553c0-1.02 0.9-1.57 2.58-1.57 3.1327 0 2.7898 2.3485-0.41166 2.8196-1.4422 0.21221-2.1717-0.20766-2.1717-1.25zm1.17-12.74c0.22003-1.5534 1.1067-2.44 2.6601-2.6601 1.9388-0.27462 2.2746 0.0612 2 2-0.22003 1.5534-1.1067 2.44-2.6601 2.6601-1.9388 0.27462-2.2746-0.0612-2-2zm43.08-1.566c-1.73-0.59-1.6-5.26 0.14-5.26 0.76616 0 1.6039 0.5625 1.8616 1.25 0.71052 1.8953-0.59085 4.5012-2.0046 4.014zm1.3242-17.931c-0.35188-0.91697-0.20527-2.1017 0.32579-2.6328 1.4726-1.4726 4.1-0.0187 4.1 2.2686 0 2.5082-3.4928 2.7956-4.4258 0.36416zm-0.0184-16.243c-0.80833-1.3079 0.35185-3.8408 2.0594-4.4961 1.6728-0.64193 2.8766 1.6819 2.0232 3.9058-0.63409 1.6524-3.1971 2.023-4.0826 0.59024zm-5.2261-16.674c-1.0545-2.748 3.2769-6.2387 5.2691-4.2465 2.2982 2.2982 0.96698 5.8298-2.1976 5.8298-1.3552 0-2.7374-0.71247-3.0716-1.5833zm-19.32-101.42c0-8.6635 17.837-10.781 23.439-2.7832 2.4369 3.4792 1.925 3.7295-3.45 1.6871-6.5535-2.4901-8.6638-2.4044-14.57 0.59188-5.9 2.99-5.42 2.94-5.42 0.5zm-1-12.311c0-4.6639 9.2441-7.1657 15.165-4.1041 3.9308 2.0327 2.719 3.1166-4.1646 3.7252-3.025 0.26744-6.7375 0.80949-8.25 1.2046-2.1228 0.55447-2.75 0.36614-2.75-0.82569zm-4.75-8.4243c-4.12-1.43 1.28-6.27 6.97-6.27 4.0286 0 5.4588 2.5424 2.0275 3.6044-0.9625 0.29789-3.1 1.1154-4.75 1.8168-1.65 0.70136-3.5625 1.081-4.25 0.84367zm-51.019 229.96c-1.8911-2.6607-6.2302-11.47-6.2356-12.66-0.01-3.61-13.35-25.57-15.52-25.57-2.2023 0-2.6832 3.6874-0.92437 7.0885 1.0525 2.0352 1.4279 4.2932 1.038 6.2428-1.0229 5.1145 18.967 30.518 21.791 27.694 0.77316-0.77316 0.73214-1.5691-0.14441-2.8023zm-23.85-3.98c-0.36465-1.5125-1.8793-5.225-3.3659-8.25s-3.5083-7.975-4.4927-11c-3.7401-11.494-5.4198-15-7.1855-15-1.7342 0-1.6833 1.9126 0.16898 6.3458 1.7493 4.1867 1.8824 5.6542 0.51254 5.6542-2.1459 0-8.9087-13.098-10.456-20.25-0.86954-4.02-2.5576-3.3583-2.5512 1 0.0111 7.493 4.1638 17.66 12.6 30.847 6.867 10.735 16.457 17.652 14.77 10.653zm31.62-11.63c0-0.70916-3.0902-8.113-5.2682-12.622-6.3481-13.142-22.169-28.516-24.118-23.437-0.90305 2.3533 2.1125 7.4366 4.4116 7.4366 1.2876 0 1.9743 0.67508 1.9743 1.941 0 1.0675 0.45 2.2191 1 2.559 0.55 0.33992 1 1.5094 1 2.5989 0 3.1817 3.8881 9.9034 6.2909 10.876 1.215 0.49161 4.4591 3.1545 7.2091 5.9175 4.1977 4.2176 7.5 6.3003 7.5 4.7302zm44.98-22.469c4.131-12.679 5.102-25.032 2.5026-31.838-1.0004-2.6195-1.8645-7.6752-1.9318-11.302-0.47985-25.857-40.505-29.79-44.008-4.3251-2.5748 18.721 22.42 26.854 27.233 8.861 2.8088-10.502-5.4615-14.142-13.452-5.9208-4.0508 4.168-4.6506 4.4745-6.0384 3.0867-4.78-4.77 3.56-14.71 12.35-14.71 15.525 0 25.562 32.566 17.957 58.265-4.8829 16.5-0.0623 14.61 5.386-2.1117zm-326.68 10.78c2.0918-0.58088 5.2414-2.341 6.999-3.9115l3.1957-2.8554-2.7844-5.3329c-5.5856-10.698-9.3162-16.325-11.043-16.658-3.9434-0.75944-7.2997 6.1603-4.1167 8.4878 2.2084 1.6149 1.1456 4.3372-1.6933 4.3372-7.4812 0-7.4839-10.373-0.004-15.612 2.8157-1.9722 2.7444-5.568-0.25726-12.968-3.1895-7.8634-5.3843-8.2165-12.319-1.9814-21.18 19.042-4.6653 53.906 22.024 46.494zm51.7-11.22c7.7515-12.417 15.567-18.875 34-28.095 10.777-5.3905 21.334-15.209 27-25.112 6.7372-11.775 11.191-11.498 6.3858 0.39699-10.571 26.17 9.6166 28.555 21.775 2.5731 8.2864-17.708 12.571-61.759 5.7327-58.944-0.76622 0.31543-2.6314 2.3581-4.1448 4.5393-2.9124 4.1974-8.081 7.9243-10.998 7.9306-2.9522 0.006-1.9741-1.5303 3.2379-5.087 9.2824-6.3343 7.788-9.0158-2.0394-3.6593-7.7071 4.2008-7.9484 4.2747-7.9484 2.4341 0-0.72372 1.6875-2.268 3.75-3.4316 4.6115-2.6018 10.61-8.6739 10.094-10.219-0.22569-0.67706-2.1995 0.22301-4.8622 2.2172-4.8006 3.5953-11.7 6.399-12.807 5.2042-0.37132-0.40079-0.1024-0.93301 0.5976-1.1827 2.6961-0.96174 10.59-6.933 12.028-9.098 1.891-2.8479-1.1134-1.7245-9.5023 3.5531-6.9425 4.3677-12.41 4.1968-5.7312-0.17917 10.16-6.65 17.43-17.36 17.43-25.66 0-5.5736-1.4683-6.5419-2.2853-1.507-1.2905 7.9524-11.1 21.638-15.5 21.624-1.1682-0.004-0.16875-1.4699 3.1341-4.5973 6.5835-6.2339 8.92-11.83 9.0486-21.673l0.10214-7.8193-6.0484-5.8536c-8.8861-8.5998-17.71-10.843-29.484-7.4964-9.82 2.78-9.97 2.8-9.97 1.07 0-2.7626 6.6056-4.7789 23.778-7.2579 4.1924-0.60522 3.4132-1.8392-2.0108-3.1843-4.1011-1.017-7.192-0.67191-22.017 2.4585-4.4777 0.94551-3.2565-1.5347 1.8729-3.8037 3.1852-1.409 7.6945-2.2142 14.5-2.5892 5.4324-0.29934 9.8771-0.93996 9.8771-1.4236 0-1.7448-5.6169-3.0091-11.209-2.5231-4.0404 0.35115-6.0324 0.10692-6.8146-0.83555-3.1659-3.8147 10.832-5.0601 17.992-1.6008 4.7669 2.3031 8.032 2.7461 8.032 1.0897 0-2.4337-4.1547-8.8672-7.9276-12.276-2.24-2.02-4.07-4.1-4.07-4.63 0-0.52557-6.0724-7.3892-13.494-15.253-13.46-14.26-14.65-15.8-12.23-15.8 6.233 0 28.321 23.658 43.091 46.154 7.0818 10.786 11.589 12.636 6.4863 2.6617-1.2616-2.4661-1.0516-15.305 0.29885-18.269 2.3718-5.2057 3.4731-2.9164 3.0323 6.3035-0.637 13.323 2.8726 18.366 4.1665 5.9859 0.76202-7.2906 3.9307-14.476 6.7829-15.382 3.3348-1.0584 3.3397 0.25794 0.0246 6.6858-8.776 17.016 0.0887 32.2 18.816 32.229 14.995 0.0234 24.368-9.4963 27.108-27.533 1.73-11.4 1.86-11.84 3.38-11.84 4.0942 0 0.41713 22.221-4.9614 29.982-3.9136 5.6473-3.4465 8.3312 0.94865 5.4514 7.5135-4.923 14.506-23.55 13.155-35.043-0.63849-5.4326 1.2126-7.8852 2.8098-3.723 3.7979 9.8971 0.2733 25.314-8.831 38.627-4.2418 6.2029-3.0757 7.4635 3.0522 3.2995 4.2687-2.9007 8.2332-8.5017 9.5232-13.454 3.03-11.63 3.98-14.14 5.36-14.14 4.8119 0-1.7222 18.916-9.4182 27.265-5.5558 6.0274-5.4842 7.9684 0.21405 5.8019 5.8351-2.2185 11.999-10.079 14.951-19.067 1.5662-4.7687 1.7578 2.9392 0.20087 8.0813-1.8031 5.9553-10.296 15.869-13.666 15.95-5.852 0.14209-5.2499 5.9682 0.6168 5.9682 3.6742 0 11.864 4.8198 15.573 9.1656 1.7753 2.0796 4.2394 3.3628 8.5 4.4263 3.3 0.82376 7.8 1.9689 10 2.5447 5.486 1.436 14.393 0.48214 24.508-2.6245 21.155-6.4975 37.528-18.739 36.788-27.506l-0.3-3.51-7.4079 0.26603c-12.924 0.46413-29.855 7.1295-40.468 15.931-5.3104 4.4044-4.0684 1.31 1.9328-4.8154 3.2908-3.3589 9.5129-8.1282 13.943-10.687 24.607-14.215 30.771-28.572 30.567-71.195-0.11814-24.672 0.73913-30.239 5.5344-35.938 6.8705-8.1651-14.556-10.932-32.101-4.1452-13.615 5.2666-25.103 13.129-31.586 21.616-8.8868 11.634-10.799 10.131-3.9698-3.1208 7.1436-13.861 6.7049-15.705-3.1826-13.38-6.0972 1.4337-13.35 6.3652-18.102 12.308-3.3592 4.2013-4.491 6.677-6.5878 14.41-1.0407 3.8381-1.4528 4.25-4.2522 4.25h-3.0998l0.57971-5.6168c0.7429-7.198 4.3167-14.442 11.367-23.04 13.891-16.941 13.209-21.396-2.6562-17.346-4.3143 1.1015-8.7788 2.0028-9.9212 2.0028-11.393 0-30.535 31.88-27.92 46.5 0.39342 2.2 0.74124 8.6945 0.77294 14.432 0.0317 5.7378 0.56293 14.372 1.1805 19.188 2.7421 21.382-7.7773 35.079-22.893 29.81-3.537-1.233-4.0015-2.1396-4.8663-9.4975l-0.63434-5.3972 7.5163-7.4435c13.351-13.222 16.134-36.614 6.7848-57.027-1.66-3.63-3.02-6.96-3.02-7.39 0-1.1541-9.7516-12.711-17.092-20.256-3.5242-3.6224-7.6653-8.7365-9.2023-11.365-7.5563-12.92-19.211 23.833-14.254 44.951 2.947 12.556 2.928 12.245 0.78852 12.924-3.304 1.0486-5.1622-0.42836-6.6398-5.2778-0.77861-2.5553-2.1322-6.3191-3.0079-8.3639-0.87571-2.0448-1.5966-5.1948-1.602-7-0.041-13.774-17.814-33.886-34.285-38.8-11.646-3.4742-23.1-8.269-27.775-11.628-9.195-6.606-11.061-4.498-14.427 16.298-3.2883 20.314 5.8012 48.362 20.735 63.983 9.8479 10.301 1.2811 11.292-9.1272 1.0559-8.0282-7.8954-10.693-9.5902-18.326-11.656-6.9096-1.8696-8.1837-1.0525-7.4901 4.8036 1.0644 8.9874 11.436 30.161 14.773 30.161 0.54631 0 2.2793 1.4647 3.8511 3.2549 3.521 4.0101 10.317 7.7451 14.094 7.7451 4.4737 0 5.7397 0.84425 5.2339 3.4903-1.1509 6.0205-6.1645 6.8125-15.854 2.5043-6.4115-2.8508-9.8513-2.3122-18.454 2.8895-9.823 5.9396-10.529 9.805-1.5952 8.7395 6.5463-0.7808 12.052 2.1064 23.953 12.56 18.108 15.907 31.937 18.682 51.939 10.423 15.356-6.3406 22.648-4.3318 23.498 6.4736 1.3387 17.011-12.646 21.145-32.789 9.6922-10.594-6.0234-22.356-5.7621-41.703 0.92668-8.8758 3.0686-17.788 12.593-17.649 18.862 0.16118 7.2559 0.39113 7.4391 9.3414 7.4391 7.2796 0 8.5757 0.31809 14.448 3.5458 9.3226 5.1243 11.771 5.6314 18.98 3.9312 8.1794-1.9289 8.6381-1.8764 8.6381 0.98775 0 2.7701-1.7754 3.9823-8.9546 6.1143-3.1466 0.93446-6.9176 3.3165-10.959 6.9228-3.389 3.024-6.5553 5.4981-7.0362 5.4981-1.2158 0-9.8378 12.248-11.613 16.497-8.7917 21.042-9.0721 43.138-0.83714 65.968 4.2963 11.91 5.2488 12.098 11.4 2.2437zm10.045-65.501c-0.0893-6.6002 25.763-27.753 31.315-25.623 4.7614 1.8271 2.8111 4.9979-4.0811 6.6351-6.3129 1.4996-18.845 9.9381-21.951 14.781-4.8917 7.6272-5.2331 7.899-5.283 4.2072zm-10.04-2.09c0-1.0326 0.71346-2.4697 1.5855-3.1934 0.87201-0.7237 2.2706-3.028 3.1079-5.1207 3.1142-7.7831 23.433-21.015 26.918-17.53 1.5177 1.5177-0.88781 3.6774-6.2929 5.6496-10.592 3.865-18.047 10.003-21.891 18.025-2.074 4.3285-3.428 5.1852-3.428 2.169zm50-0.63862c0-2.2032 6.6687-5.2151 8.1864-3.6974 0.88848 0.88848 0.73005 1.6485-0.665 3.19-2.19 2.43-7.52 2.79-7.52 0.51zm-24-1.2166c0-3.4 17.84-15.26 22.97-15.26 5.6197 0-0.43827 4.6387-9.7415 7.4593-1.2485 0.37852-4.1735 2.1373-6.5 3.9084-5.5911 4.2564-6.73 4.9163-6.73 3.8995zm14.564-2.3714c0.87452-1.415 8.3949-4.8452 10.686-4.8739 2.8545-0.0358 2.0104 1.4634-2.1362 3.7939-4.1083 2.309-9.7495 3.0216-8.5495 1.08zm190.9-119.5c2.364-5.7426 4.4097-14.156 5.0059-20.588 1.307-14.1 5.5587-35.816 7.4406-38.004 1.0828-1.2588 0.0614 22.397-1.4552 33.706-1.5245 11.367-6.9821 25.234-10.359 26.32-1.0376 0.33368-1.2045-0.0444-0.63277-1.4332zm-237.96-9.44c-3.3-1.5951-6.6174-3.8106-7.372-4.9233-2.0111-2.9655-0.10989-2.6381 8.2652 1.4231 3.9087 1.8954 7.8943 3.6813 8.8568 3.9686 0.9625 0.28734 1.75 0.98655 1.75 1.5538 0 1.8738-5.407 0.92299-11.5-2.0222zm228.51 2.3388c0.007-0.43185 0.92114-3.6829 2.0312-7.2245s2.6832-11.417 3.4959-17.5c2.71-20.27 8.3-36.57 12.53-36.57 1.4958 0 1.1221 1.7031-2.4929 11.362-2.3961 6.402-3.7617 12.283-4.5604 19.638-1.5337 14.125-2.5628 19.051-5.1147 24.48-1.8837 4.0074-5.9276 7.9923-5.8917 5.8056zm-220.01-6.29c-1.925-1.0539-4.0889-1.935-4.8086-1.9581-1.6613-0.0532-8.8942-5.8253-9.5981-7.6596-0.87262-2.274 2.7817-1.6174 7.0172 1.2608 2.1392 1.4537 5.802 3.296 8.1396 4.094 3.4204 1.1676 4.25 1.9205 4.25 3.8569 0 2.8664-0.44056 2.9022-5 0.406zm0.25-8.2736c-3.4375-1.7344-6.25-3.7324-6.25-4.44 0-1.7006 4.4486-1.6558 5.8718 0.0591 0.61418 0.74004 2.9193 2.1584 5.1224 3.1519 2.2032 0.99348 4.0058 2.413 4.0058 3.1545 0 1.9818-1.7845 1.5891-8.75-1.9255zm216.78-12.153c-3.3808-8.8922 3.1328-30.739 11.512-38.611 3.3415-3.1392 3.8998-2.0877 1.1119 2.0941-4.3103 6.4653-8.5028 19.027-9.6476 28.906-1.2371 10.675-1.5279 11.419-2.9759 7.6106zm-219.45-20.89c-6.78-8.88-12.32-32.69-7.61-32.69 0.56726 0 1.0314 0.82802 1.0314 1.84 0 4.1912 4.2104 17.84 7.4864 24.268 4.9681 9.7484 4.4394 13.594-0.90549 6.587zm104.09 1.56c-0.24402-0.4125-0.75944-2.6584-1.1454-4.9909-0.38595-2.3325-1.5629-6.0233-2.6154-8.2017-1.05-2.18-1.91-4.35-1.91-4.82 0-0.46909-1.575-2.5724-3.5-4.674-3.87-4.23-4.46-6.57-1.66-6.57 3.3568 0 15.002 24.653 13.497 28.575-0.59094 1.54-1.9439 1.8837-2.6586 0.6754zm106.33-2.51c0-3.3679 2.3212-8.487 6.1444-13.551 5.7398-7.6023 5.9047-5.2415 0.39968 5.7197-4.15 8.27-6.54 11.13-6.54 7.83zm-116.01-3.9378c-0.71158-1.8181-3.2515-7.2889-5.6444-12.157-4.3056-8.76-5.2947-12.947-3.3435-14.153 0.55389-0.34231 1.2697 0.19363 1.5907 1.191 0.32099 0.99736 0.96703 2.7134 1.4356 3.8134 5.2788 12.391 8.9152 22.951 8.1625 23.704-0.54291 0.54291-1.4267-0.42018-2.201-2.3985zm-9.7917-2.5306c-4.9894-4.2577-11.027-21.146-9.5965-26.844 1.0505-4.1856 2.1343-2.6986 3.8769 5.3192 0.92643 4.2625 3.2823 11.027 5.2352 15.032 3.7576 7.7058 3.8835 9.3938 0.48436 6.4932zm-44.379-7.4736c-0.81018-1.2657-2.2742-5.1989-3.2534-8.7404-1.6562-5.99-4.4089-10.537-10.48-17.311-3.1246-3.4863-1.233-3.5822 2.8524-0.1446 3.9701 3.3406 7.5429 9.4745 11.149 19.142 2.8088 7.5289 2.6534 11.618-0.26803 7.0539zm-25.771-2.9957c-0.67948-1.8181-2.3627-6.1008-3.7405-9.5171-2.7045-6.706-2.7845-9.6174-0.19303-7.0259 2.2878 2.2878 7.3001 17.718 6.1342 18.883-0.62027 0.62027-1.4067-0.21613-2.2006-2.3404zm-9.5473 0.94437c-0.2372-0.6875-1.5731-4.3411-2.9686-8.1191-3.288-8.9013-2.9028-17.58 0.41644-9.3809 1.474 3.6408 5.0462 15.971 5.0462 17.418 0 1.6851-1.9192 1.7479-2.494 0.0816zm16.091-13.83c-3.7898-7.4598-4.5976-10.383-2.1791-7.8846 1.4045 1.4508 7.5824 13.133 7.5824 14.338 0 2.367-2.3455-0.43427-5.4034-6.4533zm145.77 279.09c-1.5192-26.703-2.4674-32.938-6.2986-41.417-5.1125-11.315-6.2542-3.8082-2.3726 15.6 0.85588 4.2794-1.443 3.4474-2.5778-0.93293-0.53434-2.0625-1.486-6.3433-2.1147-9.5129-1.22-6.12-3-6.87-3-1.26 0 4.37-0.87 6.52-2.64 6.52-3.3653 0 1.0348 15.076 6.7579 23.154 1.0343 1.4599 1.8805 3.0135 1.8805 3.4524 0 0.43892 1.4552 2.2995 3.2339 4.1345 3.871 3.9939 7.3436 4.12 7.1239 0.2587zm26.952-2.1012c-2.32-29.28-7.1-48.9-11.93-48.9-1.8738 0-1.8633 9.8615 0.0134 12.541 1.3413 1.9149 4.609 11.738 4.609 13.855 0 2.1615-2.8183-2.1332-5.0929-7.7609-2.18-5.4-8.91-10.64-13.67-10.64-2.5037 0 3.9519 16.33 10.081 25.5 12.137 18.159 16.539 22.4 15.985 15.399zm-232.31-7.91c0-2.1-4.1-6.99-5.86-6.99-0.63 0-1.14 0.13-1.14 0.29 0 0.37102 3.3039 6.8186 4.3442 8.4778 1.0506 1.6756 2.6558 0.6035 2.6558-1.7738zm16.295-6.7425c0.22733-0.4125-0.17502-4.125-0.8941-8.25-0.71907-4.125-1.2826-9.8133-1.2522-12.641 0.10667-9.9278 0.41331-9.7214-13.511-9.0923-18.89 0.85344-19.428 1.7876-7.9545 13.797 11.829 12.381 21.903 19.287 23.612 16.186zm135.02-5.0107c9.5588-10.83 13.798-23.651 10.715-32.406-3.56-10.09-7.04-9.43-7.04 1.32 0 8.331-2.7259 19.072-7.054 27.795-5.1344 10.349-3.9124 11.541 3.3706 3.2892zm98.68 0.87c0-6.5033-6.7185-30.871-10.491-38.052-2.077-3.9532-8.6843-9.843-11.941-10.645l-2.9325-0.72169 3.3312 5.9042c3.1737 5.6252 4.3036 7.7507 6.1753 11.617 1.9616 4.0522-2.1106 0.27292-7.2171-6.698-5.99-8.16-8.93-9.59-8.93-4.32 0 1.7604 0.86018 4.1091 1.9228 5.25 2.4224 2.6008 8.3659 13.815 10.056 18.973 2.47 7.54 20.02 23.93 20.02 18.7zm110.41-13.5c8.3584-25.126 6.2809-51.073-5.0628-63.231-2.1163-2.2683-5.3976-6.1768-7.2916-8.6855-6.2335-8.2565-15.33-9.8462-23.898-4.1763-10.646 7.0449-5.3957 23.436 7.1212 22.233 9.3-0.9 10.28-5.75 1.16-5.75-6.1269 0-7.551-2.4086-3.2185-5.4433 6.8026-4.7647 19.756 2.3223 25.595 14.003 7.0137 14.031 6.9034 38.823-0.26674 59.943-0.85284 2.512-1.5452 5.114-1.5386 5.7823 0.0233 2.3454 5.0592-7.6452 7.3987-14.678zm-368.41 7.92c0-0.81088-1.35-2.1724-3-3.0257-3.61-1.8668-4.0902-0.23004-0.75 2.5564 2.739 2.285 3.75 2.4115 3.75 0.46924zm410.72-27.53c5.7768-12.117 5.8022-12.179 8.4109-20.5 1.207-3.85 5.0729-13.975 8.5908-22.5 3.518-8.525 6.8257-17.725 7.3506-20.444 0.52488-2.7191 2.3687-8.0124 4.0974-11.763 3.3935-7.3624 3.1797-9.0775-0.84354-6.7668-4.4227 2.5401-12.203 21.225-12.298 29.535-0.0292 2.5571-10.881 35.583-12.121 36.888-0.49632 0.5225-0.9024 1.5088-0.9024 2.1918 0 0.68297-2.475 6.4096-5.5 12.726-3.025 6.3163-5.5143 12.08-5.5318 12.808-0.0175 0.72826-0.6925 2.1976-1.5 3.2652-0.80751 1.0676-1.4567 2.6426-1.4426 3.5 0.0389 2.3669 6.598-8.2612 11.69-18.941zm-219.35 10.75c1.8196-6.79-0.60688-26.949-4.3032-35.75-1.0395-2.475-2.4414-5.9797-3.1154-7.7882-1.3036-3.498-4.2721-5.7495-6.0951-4.6228-1.047 0.6471-0.8958 4.0305 0.59946 13.411 0.30685 1.925-0.56159 0.125-1.9299-4s-2.4963-8.9848-2.5067-10.8c-0.0215-3.7527-2.2751-8.7009-4.32-9.4856-5.0358-1.9324-4.822-30.029 0.25122-33.026 2.8047-1.6568 6.0498-7.0688 6.0498-10.09 0-2.5282-1.3146-1.8604-3.7556 1.908-1.2406 1.9151-3.8225 4.4971-5.7376 5.7376-3.3365 2.1612-3.4826 2.5068-3.4944 8.265-0.0101 4.9183-0.37551 6.2362-2.0124 7.2585-1.8333 1.1449-2 2.332-2 14.241 0 13.198-1.2357 17.082-2.6227 8.2415-0.40989-2.6125-0.77496-10.712-0.81127-17.999-0.0733-14.708-0.8865-16.239-4.3786-8.241-2.7862 6.381-3.2042 33.689-0.65797 42.99 0.82812 3.025 1.7908 9.8875 2.1392 15.25 0.695 10.696 0.86101 10.948 4.6975 7.1111 4.1901-4.1901 5.9108-11.257 6.2395-25.624 0.29-12.46 0.65-14.74 2.35-14.74 1.4918 0 3.1129 12.313 2.8307 21.5-0.25718 8.3718-0.074 9.349 2.6246 14 1.5956 2.75 4.2582 7.475 5.9168 10.5 5.5678 10.154 12.848 16.242 14.052 11.75zm30.154-11.5c-1.5749-19.326-8.7965-40.129-10.299-29.667-0.15141 1.0544-0.77872 3.5828-1.394 5.6186-0.95947 3.1745-0.80509 4.4306 1.0844 8.8227 1.2117 2.8167 2.0274 5.6484 1.8127 6.2925-0.49354 1.4806-8.6967-13.196-8.7145-15.591-0.01-1.83-3.63-3.73-7.08-3.73-5.3068 0 3.3772 18.503 14.08 30.001 9.5496 10.259 11.461 9.9403 10.508-1.7508zm-211.92 2.0708c1.981-0.7602 0.88971-1.9716-2.3621-2.622-3.79-0.76-8.24-4.41-8.24-6.77 0-2.1218 3.3888-2.7254 4.57-0.8141 3.8568 6.2404 18.187 4.9382 21.064-1.914 7.0246-16.73 14.407-27.761 22.169-33.127 4.6154-3.1908 3.7427-4.9814-3.8024-7.8018-6.527-2.4397-8.9661-2.5299-19.264-0.71233-7.0402 1.2426-9.2912-7.4315-4.7049-18.131 2.9232-6.8196 3.0384-6.7605-12.709-6.5156-10.895 0.16943-14.921-0.1347-17.821-1.3462-8.6543-3.616-12.081-1.5613-9.5691 5.7384 4.9981 14.527 8.8774 18.152 19.568 18.282 3.85 0.0469 7.7553 0.15938 8.6785 0.25 11.822 1.1605 11.359 22.34-0.5374 24.572-9.3 1.74-29.64-12.73-29.64-21.09 0-2.0857-3.9739-4.7436-5.2237-3.4938-1.7136 1.7136 3.5817 25.465 6.3822 28.626 0.46283 0.5225 0.84151 1.7227 0.84151 2.667 0 1.3884 2.4952 9.5434 7.5785 24.768 0.45342 1.358 19.217 0.89826 23.028-0.56427zm239.1-20.77c-0.30782-1.8969-1.3344-5.1594-2.2813-7.25-5.75-12.69-7.63-16.3-8.49-16.3-0.53019 0-3.0475-2.025-5.594-4.5s-4.9398-4.5-5.3183-4.5c-1.7493 0-1.8093 1.4957-0.15597 3.8871 0.99357 1.4371 2.166 3.2307 2.6055 3.9859 0.85234 1.4647-12.072-8.419-13.025-9.9603-0.3-0.5-1.66-0.91-3-0.91-8.4903 0 9.3904 24.417 25.508 34.833 8.2189 5.3112 10.526 5.4811 9.7532 0.71841zm-43.376-16.149c-1.7214-28.779-1.9509-30.625-4.4727-35.99-2.2132-4.7083-8.4337-10.922-12.471-12.457-6.5298-2.4826-12.082 0.33725-7.7229 3.9226 1.918 1.5777 5.0974 11.698 4.015 12.781-0.29718 0.29718-1.6605-1.6702-3.0296-4.3719-4.773-9.4191-8.7542-9.9563-9.8103-1.3237-2.0689 16.911 5.8292 29.527 23.301 37.219 9.5479 4.2037 10.43 4.2228 10.19 0.22001zm-195.42-1.8577c1.8614-1.8614 2.2249-2.8099 1.3948-3.6399-1.3909-1.3909-11.302 3.849-11.304 5.9761-0.002 2.2275 6.9947 0.57795 9.9089-2.3362zm-8.3092-5.0223c6.3119-2.6373 4.619-6.8327-3.1007-7.6841-3.3-0.36397-8.1375-0.98499-10.75-1.38-5.3905-0.81514-5.6424-0.39032-2.5 4.217 3.7609 5.5143 10.191 7.4206 16.351 4.8472zm-37.062-25.4c-0.382-6.39-1.141-13.64-1.685-16.12-0.5445-2.475-0.9817-10.049-0.97156-16.83 0.01014-6.7817-0.46336-13.532-1.0522-15l-1.071-2.67-0.8945 3c-2.2698 7.6126-2.2722 39.74-0.0034 46.296 1.182 3.41 2.149 6.85 2.149 7.64 0 2.8284 1.9987 6.68 3.11 5.9931 0.78092-0.48264 0.90588-4.1614 0.41814-12.31zm283.47 9.05c0-1.2098-1.8937-2.8244-5.566-4.7457-3.9254-2.0537-8.7497-6.3092-16.367-14.437-5.9407-6.339-12.549-12.411-14.684-13.494-2.13-1.08-4.78-2.7-5.88-3.59-4.02-3.26-15.5-5.41-15.5-2.9 0 0.55 1.2375 1.0074 2.75 1.0164 4.0121 0.024 10.687 4.1007 11.07 6.7606 0.38883 2.7049 0.51526 2.701-5.2195 0.16422-4.72-2.09-12.1-2.36-12.1-0.44 0 0.55 1.932 1.1393 4.2934 1.3096 5.9489 0.42901 12.408 4.7503 25.744 17.223 12.49 11.69 31.46 19.61 31.46 13.14zm-296.01-32.17c0.02171-24.236 1.362-37.737 4.976-50.125 1.154-3.96 9.852-12.88 12.556-12.88 6.0035 0 7.4451 6.1662 2.4286 10.387-3.24 2.72-5.952 10.54-5.952 17.16 0 4.1202-0.05716 4.1083 4.5951 0.95121 6.5145-4.4208 8.1183-3.0463 3.894 3.3371-6.246 9.4384-8.3209 25.98-5.3784 42.877 1.6477 9.4618 3.269 7.5397 4.0439-4.7942 0.70188-11.172 2.2124-16.673 10.166-37.029 7.186-18.391 7.2403-21.709 0.26841-16.391-6.3415 4.8369-8.1381 3.2758-3.2588-2.8317 17.805-22.286-6.8509-39.291-26.228-18.089-11.238 12.296-12.911 30.272-7.0751 76.029 3.4557 27.096 4.9348 24.531 4.9645-8.6078zm315.89 19.011c6.9394-1.644 16.555-3.4905 21.367-4.1033 8.4713-1.0786 11.238-2.7387 7.1682-4.3006-2.8831-1.1064-17.945-0.62927-28.005 0.88711-5.4521 0.82176-12.483 1.4968-15.624 1.5-4.5826 0.005-6.1139 0.43834-7.75 2.1945-6.8648 7.3685 1.7743 8.814 22.844 3.8223zm-378.88-4.62c0-1.5926-0.89593-1.745-2.8781-0.4895-0.75796 0.48009-1.0811 1.3535-0.71798 1.941 0.8755 1.42 3.5961 0.32 3.5961-1.45zm263.67-6.4063c5.9057-10.22 6.827-11.404 11.776-15.142 11.841-8.9416 8.7008-13.603-5.233-7.7668-4.42 1.86-19.21 15.92-19.21 18.27 0 8.5374 8.596 11.693 12.666 4.6494zm-147.76 0.0947c1.1298-0.71532 0.78957-1.6316-1.75-4.7125-4.3682-5.2994-4.256-9.1928 0.38227-13.265 4.3066-3.7812 10.71-4.3836 12.43-1.1693 2.6112 4.8791-0.23692 8.9394-3.9277 5.5994-4.4843-4.0583-7.9874 1.4725-4.0956 6.4664 3.6448 4.677 15.74 3.1973 34.486-4.2188 6.8087-2.6936 7.9109-4.322 3.9459-5.8294-1.5342-0.58329-6.8688-5.007-11.855-9.8304-10.766-10.415-14.887-12.127-23.156-9.6183-7.8019 2.367-9.3665 2.0733-9.3406-1.7531 0.0537-7.94 8.7065-20.53 16.713-24.318 4.9647-2.3487 6.5317-4.5314 4.2608-5.935-2.2247-1.375-11.106-16.114-12.588-20.892-4.707-15.169-1.8588-30.669 4.8506-26.397 3.1906 2.0315 14.702 6.1661 15.353 5.5146 0.77805-0.77805-5.6592-18.242-9.3892-25.472-4.99-9.673-22.633 13.22-31.55 40.939l-1.5085 4.6892 3.3912 3.3108c11.183 10.918 10.635 22.468-2.4514 51.652-12.79 28.524-13.18 32.491-3.3491 34.047 13.749 2.1764 17.251 2.3946 19.149 1.193zm399.62-9.2721c1.4373-0.65488 3.2276-2.6609 3.9784-4.4579 0.91065-2.1795 2.5725-3.7717 4.9917-4.7825 9.9607-4.1618 14.293-11.469 15.458-26.069 0.39476-4.95 1.0314-9.6966 1.4147-10.548 0.44926-0.99776-0.2021-2.3927-1.8325-3.9243-1.3912-1.307-2.5324-3.0854-2.5361-3.952-0.01-0.86-0.91-2.92-2-4.57-1.0928-1.65-1.9898-3.9901-1.9934-5.2003-0.004-1.2102-0.60917-2.5602-1.3457-3-1.58-0.94-3.66-6.6-3.66-9.95 0-1.29-0.5-2.35-1.11-2.35-0.68377 0-0.86736-0.96041-0.47921-2.5069 0.41165-1.6402 0.23185-2.4181-0.52002-2.25-0.63207 0.14131-1.844-2.0344-2.6933-4.8348-1.2924-4.2619-2.0456-5.2398-4.6216-6-2.5094-0.74061-3.1354-1.5082-3.3909-4.1583-0.17235-1.7875-0.73485-3.25-1.25-3.25s-1.7621-0.7875-2.7711-1.75c-7.219-6.8868-8.4913-4.8114-2.437 3.9753 6.1386 8.909 10.27 16.946 10.276 19.991 0.002 1.2558 2.0254 6.5582 4.4955 11.783 4.7863 10.125 5.5576 15.045 2.9433 18.777-5.4831 7.8282-13.31-4.605-14.872-23.623-1.49-18.2-19.57-41.71-19.57-25.45 0 3.9154-1.7229 4.2964-4.748 1.05-2.0145-2.1619-9.252-16.988-9.252-18.953 0-6.5523-16.508-27.389-23.055-29.101-9.553-2.4982 9.9674 41.603 24.708 55.82 9.255 8.9267 11.288 12.526 7.8247 13.855-1.5362 0.58951-2.4548-0.20195-7.1027-6.1203-3.7645-4.7934-8.8803-4.754-8.0988 0.0624 1.077 6.6365 5.1258 13.197 13.17 21.342 18.455 18.684 24.118 28.382 19.354 33.146-5.2839 5.2839-9.9379-0.62576-13.23-16.8-0.27991-1.375-4.0101-6.6312-8.2892-11.681-10.652-12.569-15.064-18.864-16.44-23.459-2.2946-7.6588-17.274-17.636-27.928-18.602-7.08-0.64-12.91 0.36-12.91 2.22 0 1.3769 0.72647 1.7133 6.5 3.0099 11.899 2.6723 25.933 19.542 34.532 41.512 13.162 33.627 35.295 56.82 48.487 50.809zm7.9537-38.853c-0.90352-1.4619 1.3974-3.9562 3.6495-3.9562 2.324 0 2.5612 3.5237 0.29577 4.393-2.2491 0.86305-3.2075 0.75693-3.9453-0.43681zm-427.28-54.95c6.0112-12.171 5.3078-13.332-3.7807-6.2411-16.98 13.25-17.597 14.46-7.17 14.03l7.25-0.29 3.7-7.5zm401.71-22.583c0.89487-0.88212-3.3484-4.4177-5.3155-4.429-1.1522-0.007-4.072-1.1422-6.4883-2.5234-5.5369-3.1651-6.2432-2.5229-2.2398 2.0366 1.7232 1.9626 3.1331 3.9697 3.1331 4.4603 0 1.7492 9.2082 2.1336 10.911 0.45548zm-405.13-15.98c4.5155-3.1628 2.9601-6.4433-3.055-6.4433-7.967 0-11.915-3.7473-8.4293-8 8.0377-9.8053 24.551-8.7462 39.324 2.522 5.0019 3.8152 6.115 0.96806 1.63-4.1691-12.857-14.727-41.267-15.652-47.953-1.5617-5.9103 12.455 7.5496 25.31 18.483 17.652zm127.22-7.31c0-2.2318 3.4375-10.234 6.4985-15.127 1.2041-1.925 3.7152-6.105 5.5802-9.2888 4.5195-7.7155 6.4267-7.4714 10.071 1.2888 5.0555 12.154 7.4693 13.109 12.351 4.8846 14.505-24.438 61.476-45.518 97.255-43.647 16.999 0.88913 12.502-2.3389-8.1298-5.8365-33.467-5.6734-49.005-3.6094-61.613 8.1844-5.07 4.733-11.02 6.929-11.02 4.063 0-0.87963 1.3435-2.2941 2.9855-3.1432 6.0683-3.138 5.278-9.4506-1.2041-9.6182-8.216-0.21242-14.226 0.91375-36.1 6.7647-10.47 2.8006-12.066 4.0188-13.292 10.148-0.77962 3.8981 0.98235 4.2662 5.0614 1.0576 9.4659-7.4459 32.296-3.73 33.365 5.4307 0.38244 3.2746-0.0788 3.3283-4.598 0.53535-11.34-7.0082-34.137-0.84327-39.592 10.707-1.0306 2.182-2.9431 5.2392-4.25 6.7939-3.5077 4.1728-2.6738 18.643 1.5266 26.492 1.4571 2.7226 5.0973 2.9432 5.0973 0.30886zm259.97-6.1878c-0.57-1.07-1.47-1.94-2.01-1.94-0.53 0-0.96-0.46-0.96-1.02 0-0.56348-1.7942-3.8654-3.987-7.3375-12.99-20.567-7.7926-36.314 10.237-31.017 2.7442 0.80611 2.1307-2.3252-0.83645-4.2693-10.065-6.5949-21.375-1.4846-24.872 11.239-0.75852 2.7592 2.9844 14.93 6.0395 19.638 1.3306 2.0507 2.4193 4.0605 2.4193 4.4662 0 1.4238 13.129 13.344 14.062 12.767 0.58192-0.35964 0.54572-1.3262-0.0945-2.5224zm-217.46-6.66c2.2075-3.3482 5.9468-8.3802 8.3095-11.182 6.0243-7.1444 3.2804-6.3479-4.7117 1.3679-6.4239 6.2017-11.576 13.976-10.46 15.783 1.0321 1.6699 2.8923 0.0518 6.8617-5.9688zm-59.778-5.356c0.67939-1.3316 1.2545-3.546 1.2781-4.921s1.5881-5.2 3.4767-8.5c9.5647-16.712 11.072-21.503 6.7599-21.494-6.1056 0.01368-16.915 7.543-20.314 14.149-3.3508 6.5135-6.379 8.1035-13.98 7.3402-9.8636-0.99057-12.559 3.7947-3.6546 6.4888 8.1134 2.4548 17.228 6.0377 20.198 7.9393 3.6194 2.3178 4.6235 2.1563 6.2353-1.0027zm182.02-22.61c6.5414-0.42969 9.2522-0.98331 9.2522-1.8896 0-4.1032-14.136-2.5055-24.75 2.7972-3.8625 1.9298-2.4598 2.7715 1.9978 1.1988 2.3363-0.82429 8.4113-1.7722 13.5-2.1065zm-71.836-1.6989c7.6874-4.4504 15.104-7.2873 25.088-9.596 10.937-2.5291 11.626-4.0891 1.5-3.3943-11.576 0.79426-35.5 11.953-35.5 16.557 0 1.401 1.0707 0.97243 8.9121-3.5671zm-48.19-39.784c-1.9427-2.3777-3.6873-5.1764-3.8769-6.2194-0.47305-2.6021 1.8306-3.202 2.6296-0.68477 1.63 5.134 19.53 12.494 19.53 8.028 0-0.46-0.84-1.425-1.86-2.143-14.22-10.011-19.36-21.57-14.14-31.807 4.0424-7.9237 0.42242-9.945-4.9252-2.75-13.906 18.711-13.851 32.704 0.15811 39.635 5.8405 2.8896 6.8381 1.2613 2.4887-4.0621zm26.33-57.352c5.6464-2.9199 2.9865-8.1514-3.2666-6.4249-4.0128 1.108-5.2821 3.1497-3.7443 6.023 1.2444 2.3252 3.0872 2.4309 7.0109 0.40188zm144.3 76.776c-1.6389-4.8685-4.7998-10.515-6.4701-11.558-2.3152-1.4459-2.4205-3.2696-0.23712-4.1074 1.8742-0.71921 4.8798 1.037 9.494 5.5476 2.9427 2.8766 3.3026 2.9902 4.4596 1.4079 2.4259-3.3176 8.196 1.1917 6.6671 5.2102-0.85493 2.247-5.9452 1.4969-6.7861-1-0.70917-2.1058-0.78638-2.0578-1.2051 0.75-0.76754 5.1467-4.629 7.5918-5.9223 3.75z"/>
</svg>
