<?xml version="1.0" encoding="utf-8"?>

<!DOCTYPE svg PUBLIC "-//W3C//DTD SVG 1.1//EN" "http://www.w3.org/Graphics/SVG/1.1/DTD/svg11.dtd">
<svg version="1.1" id="Layer_1" xmlns="http://www.w3.org/2000/svg" xmlns:xlink="http://www.w3.org/1999/xlink" x="0px" y="0px"
	 viewBox="0 0 1680.0969 1661.7244" enable-background="new 0 0 1680.0969 1661.7244" xml:space="preserve">
<path d="M845.1573,673.043c29.397-35.7811,54.2369-75.8185,73.517-118.3371c30.5603-33.3702,65.3784-62.6388,103.2667-85.3064
	c-18.1141,41.1588-42.4255,80.0858-71.383,115.3223C911.7375,609.5508,876.084,639.3837,845.1573,673.043z M673.8589,790.075
	c-24.9457-39.0151-55.3477-75.0115-89.8273-106.4869c-22.2933-39.3765-39.3699-81.535-49.22-124.5735
	c33.5468,29.9464,63.0559,65.0969,87.6194,103.5258C634.0486,707.1333,651.4039,750.2606,673.8589,790.075z M732.2288,989.1544
	c-44.8143,11.6685-88.4435,29.4589-129.0333,52.5245c-44.3383,9.0342-89.7104,12.2473-133.6863,8.3157
	c38.8472-22.6509,81.3962-39.8536,125.5349-51.3398C641.0445,1001.3859,687.4241,998.2071,732.2288,989.1544z M939.6018,995.1602
	c-2.751,46.2266,0.6865,93.2182,10.0804,138.9489c-5.1094,44.96-16.0742,89.1042-33.4026,129.713
	c-9.5379-43.9454-12.7504-89.7278-10.0347-135.2556C923.0571,1085.6614,934.366,1040.5695,939.6018,995.1602z M1009.3955,799.7927
	c43.114,16.9012,88.8678,28.1531,135.2632,33.3506c41.1807,18.7526,79.7761,42.8221,113.0425,71.8513
	c-44.7421-4.5088-89.2764-15.6011-131.7367-32.2527C1090.3546,843.494,1050.9642,818.8044,1009.3955,799.7927z M1057.6659,662.5403
	c24.5636-38.429,54.0728-73.5795,87.6195-103.5258c-9.8501,43.0386-26.9268,85.197-49.2201,124.5735
	c-34.4796,31.4755-64.8816,67.4718-89.8273,106.4869C1028.693,750.2606,1046.0483,707.1333,1057.6659,662.5403z M729.539,584.7218
	c-28.9576-35.2365-53.2689-74.1635-71.3831-115.3223c37.8883,22.6677,72.7064,51.9362,103.2667,85.3064
	c19.2801,42.5186,44.12,82.556,73.5169,118.3371C804.0128,639.3837,768.3594,609.5508,729.539,584.7218z M554.1324,872.7418
	c-42.4604,16.6516-86.9947,27.744-131.7366,32.2527c33.2663-29.0292,71.8618-53.0987,113.0424-71.8513
	c46.3954-5.1975,92.1492-16.4494,135.2632-33.3506C629.1326,818.8044,589.7423,843.494,554.1324,872.7418z M773.8521,1128.5665
	c2.7156,45.5278-0.4968,91.3102-10.0347,135.2556c-17.3286-40.6088-28.2933-84.7531-33.4026-129.713
	c9.3939-45.7307,12.8314-92.7223,10.0804-138.9489C745.7309,1040.5695,757.0398,1085.6614,773.8521,1128.5665z M1085.0529,998.6548
	c44.1387,11.4861,86.6876,28.6889,125.5349,51.3398c-43.976,3.9316-89.348,0.7185-133.6864-8.3157
	c-40.5897-23.0656-84.219-40.8561-129.0333-52.5245C992.6729,998.2071,1039.0524,1001.3859,1085.0529,998.6548z M840.0485,681.2182
	c24.264-23.0252,51.3034-44.2076,80.2341-62.722c-24.5487,25.1443-51.529,47.819-80.2341,67.3415
	c-28.7052-19.5225-55.6854-42.1971-80.2342-67.3415C788.7451,637.0106,815.7844,658.193,840.0485,681.2182z M1000.0417,797.4601
	c29.3962,15.9613,57.8975,35.1316,84.4458,56.9251c-31.4996-15.5772-61.4019-34.2301-88.8392-55.4976
	c9.6966-33.333,22.9241-65.9996,39.2518-97.1169C1026.2319,735.0068,1014.442,767.2684,1000.0417,797.4601z M938.9297,985.5435
	c-6.0961,32.8899-15.5208,65.92-28.0438,97.9036c5.0809-34.7715,13.5805-68.9743,25.3285-101.6408
	c34.6979-1.0784,69.8533,1.4072,104.493,7.3199C1006.4196,991.1528,972.0936,989.9092,938.9297,985.5435z M741.1672,985.5435
	c-33.1639,4.3658-67.4899,5.6093-101.7778,3.5827c34.6398-5.9128,69.7951-8.3984,104.4931-7.3199
	c11.7479,32.6665,20.2476,66.8693,25.3285,101.6408C756.6879,1051.4635,747.2633,1018.4333,741.1672,985.5435z M680.0552,797.4601
	c-14.4003-30.1917-26.1902-62.4533-34.8584-95.6893c16.3277,31.1172,29.5552,63.7839,39.2518,97.1169
	c-27.4373,21.2675-57.3396,39.9203-88.8392,55.4976C622.1577,832.5917,650.6589,813.4214,680.0552,797.4601z M840.0485,432.5228
	c6.655,32.0582,10.1039,65.0031,10.4419,98.0319c-3.9471,12.5974-7.4312,25.3423-10.4419,38.1899
	c-3.0107-12.8476-6.4948-25.5925-10.4419-38.1899C829.9445,497.5259,833.3935,464.5811,840.0485,432.5228z M1236.5651,720.609
	c-28.4326,16.2358-58.6993,29.6965-90.0072,40.2244c-13.2006,0.1389-26.3983,0.7637-39.5474,1.8705
	c11.2885-6.8334,22.3329-14.0854,33.0939-21.7321C1171.6211,731.0866,1204.0194,724.1863,1236.5651,720.609z M1085.1093,1186.7423
	c-24.2274-22.024-46.3822-46.6497-66.0695-73.172c-4.2112-12.5115-8.8838-24.8702-13.9998-37.0338
	c9.9873,8.6243,20.2972,16.8872,30.8951,24.7587C1055.0756,1128.2147,1071.6498,1156.8949,1085.1093,1186.7423z M594.9877,1186.7423
	c13.4594-29.8474,30.0336-58.5276,49.1741-85.4471c10.5979-7.8715,20.9078-16.1344,30.8951-24.7587
	c-5.1159,12.1636-9.7885,24.5223-13.9997,37.0338C641.3699,1140.0927,619.215,1164.7183,594.9877,1186.7423z M443.5318,720.609
	c32.5457,3.5773,64.9439,10.4776,96.4607,20.3627c10.761,7.6467,21.8055,14.8987,33.0939,21.7321
	c-13.1491-1.1068-26.3469-1.7316-39.5474-1.8705C502.2311,750.3055,471.9645,736.8448,443.5318,720.609z M840.0485,657.324
	c13.3068-40.5286,21.7358-82.9868,25.025-125.809c17.3037-41.8098,40.0115-81.2218,67.8618-115.481
	c-2.9445,44.872-12.4758,89.7662-27.6357,132.782c-26.1223,34.1694-48.1604,71.4915-65.251,110.6327
	c-17.0906-39.1412-39.1288-76.4633-65.251-110.6327c-15.1599-43.0158-24.6912-87.91-27.6357-132.782
	c27.8503,34.2592,50.5581,73.6711,67.8618,115.481C818.3126,574.3373,826.7416,616.7955,840.0485,657.324z M1022.7664,790.0764
	c42.6569,0.1315,85.6418-4.9724,127.3847-15.077c45.1106,3.5369,89.6106,12.9543,130.7993,28.8548
	c-43.5858,11.0658-89.228,15.8741-134.8231,14.7487c-40.5693-14.2848-82.8749-23.7112-125.3817-27.87
	c31.9443-28.3494,60.6295-60.8421,85.0543-96.2448c36.2258-27.7106,75.9774-50.6484,117.7433-67.3151
	c-23.9762,37.0739-54.4421,70.8492-88.8584,100.226C1094.9749,743.7601,1057.1993,764.8969,1022.7664,790.0764z M952.9744,1004.8743
	c13.0566,40.6099,31.1938,79.9137,53.7031,116.491c10.5762,43.9957,15.371,89.2279,12.9767,133.3142
	c-23.993-38.033-42.6701-79.9556-55.6895-123.6669c1.049-42.9979-3.0591-86.1458-12.2391-127.8572
	c36.8332,21.6203,76.5999,38.8608,117.8174,51.1501c37.5487,25.8898,71.6478,56.6075,100.4052,91.1791
	c-42.6683-11.3463-84.2051-29.8839-122.7793-53.538C1019.3374,1059.236,987.5619,1029.8411,952.9744,1004.8743z M727.1226,1004.8743
	c-34.5875,24.9668-66.363,54.3617-94.1944,87.0723c-38.5742,23.6541-80.1109,42.1917-122.7793,53.538
	c28.7573-34.5715,62.8564-65.2893,100.4051-91.1791c41.2176-12.2893,80.9842-29.5298,117.8174-51.1501
	c-9.1801,41.7115-13.2881,84.8593-12.2391,127.8572c-13.0194,43.7113-31.6966,85.6339-55.6895,123.6669
	c-2.3943-44.0863,2.4005-89.3185,12.9767-133.3142C695.9288,1084.788,714.0659,1045.4841,727.1226,1004.8743z M657.3305,790.0764
	c-34.4329-25.1795-72.2084-46.3163-111.9184-62.6773c-34.4164-29.3767-64.8822-63.1521-88.8585-100.226
	c41.7659,16.6666,81.5175,39.6045,117.7433,67.3151c24.4249,35.4026,53.11,67.8954,85.0543,96.2448
	c-42.5068,4.1588-84.8124,13.5852-125.3817,27.87c-45.5951,1.1254-91.2374-3.6829-134.8231-14.7487
	c41.1886-15.9005,85.6887-25.3179,130.7993-28.8548C571.6887,785.1041,614.6735,790.2079,657.3305,790.0764z M1074.6595,526.5305
	c-28.5261,8.9276-56.3655,20.5154-83.0803,34.4247c27.5547-33.4406,50.8887-70.1566,68.7388-109.0854
	c0.4597-1.0634,0.8882-2.145,1.3391-3.2134c28.5624-12.8611,59.0964-22.4416,90.5521-28.8638
	c3.6124,31.9007,3.9365,63.9008,0.531,95.0396c-0.8767,0.759-1.7731,1.5007-2.6423,2.2665
	c-31.5074,29.0062-59.2159,62.5439-82.5049,99.0837C1072.5662,586.477,1074.984,556.4193,1074.6595,526.5305z M1219.6572,972.7875
	c-17.3057-24.3712-36.9292-47.2672-58.4131-68.3763c40.3187,15.8723,82.4484,26.7183,124.9878,31.6652
	c1.1534,0.1086,2.3146,0.1819,3.47,0.2806c21.058,23.1901,39.605,49.2692,55.4332,77.2007
	c-29.223,13.2935-59.5569,23.4903-90.2239,29.874c-0.9928-0.5994-1.9752-1.2227-2.9722-1.8126
	c-37.3228-21.002-77.7815-36.9906-119.7296-47.8483C1161.9979,989.321,1191.3317,982.3322,1219.6572,972.7875z M840.0485,1248.5894
	c17.8306-23.9897,33.542-49.7281,46.9791-76.6835c-2.6363,43.2501,0.0673,86.6694,8.5079,128.6555
	c0.2531,1.1305,0.5423,2.2573,0.8055,3.3868c-15.5479,27.1934-34.6192,52.8916-56.2925,76.5764
	c-21.6733-23.6848-40.7447-49.3831-56.2925-76.5764c0.2632-1.1295,0.5523-2.2563,0.8054-3.3868
	c8.4407-41.9861,11.1443-85.4054,8.508-128.6555C806.5064,1198.8612,822.2178,1224.5996,840.0485,1248.5894z M460.4396,972.7875
	c28.3256,9.5447,57.6594,16.5335,87.4478,20.9832c-41.9481,10.8577-82.4068,26.8463-119.7296,47.8483
	c-0.9969,0.59-1.9793,1.2133-2.9721,1.8126c-30.667-6.3837-61.0008-16.5804-90.2239-29.874
	c15.8282-27.9315,34.3753-54.0107,55.4332-77.2007c1.1555-0.0987,2.3166-0.1719,3.47-0.2806
	c42.5394-4.9468,84.6691-15.7928,124.9878-31.6652C497.3689,925.5203,477.7453,948.4163,460.4396,972.7875z M605.4373,526.5305
	c-0.3245,29.8887,2.0934,59.9465,7.0666,89.6519c-23.289-36.5397-50.9975-70.0775-82.5049-99.0837
	c-0.8693-0.7658-1.7656-1.5075-2.6424-2.2665c-3.4055-31.1387-3.0814-63.1389,0.5311-95.0396
	c31.4557,6.4222,61.9897,16.0026,90.5521,28.8638c0.4509,1.0684,0.8793,2.1501,1.3391,3.2134
	c17.8502,38.9287,41.1841,75.6448,68.7388,109.0854C661.8029,547.046,633.9634,535.4581,605.4373,526.5305z M1096.9515,294.1978
	c34.5499-15.2768,70.766-26.7267,106.9906-33.9371c-2.1459,37.4111-8.6414,74.9695-19.2301,111.3513
	c-37.3243,8.0464-73.7264,19.9697-108.0712,35.6386C1087.71,371.0324,1094.3933,332.8334,1096.9515,294.1978z M391.3643,433.5349
	c-3.8526-37.5798-3.5507-75.5616,0.7858-112.2412c34.9169,13.6015,68.6299,31.3852,99.959,52.6983
	c-3.8812,37.9841-3.7904,76.289,0.4985,113.7947C461.5826,466.0674,427.3184,447.907,391.3643,433.5349z M305.8434,1147.6458
	c-36.931-7.9487-72.9605-19.9729-106.5049-35.4319c23.7257-29.0049,51.0569-55.5723,81.0081-78.7819
	c34.9257,15.429,71.3839,27.1794,108.3792,34.6904C358.4822,1090.9172,330.6224,1117.8926,305.8434,1147.6458z M958.5757,1449.6534
	c-18.972,32.6671-41.5414,63.2175-66.6095,90.3431c-20.2537-31.5275-37.075-65.7308-49.8932-101.3883
	c25.4665-28.4484,47.9081-59.4911,66.4836-92.3547C920.89,1382.0608,937.9359,1416.8928,958.5757,1449.6534z M1447.5074,922.1935
	c25.2056,28.1382,47.2865,59.0435,65.338,91.267c-36.2432,9.5198-73.9706,14.9485-111.8439,16.1205
	c-19.1865-33.011-41.775-63.947-67.2902-91.7688C1371.5775,937.1475,1409.9723,931.6996,1447.5074,922.1935z M1187.4893,487.7867
	c4.2889-37.5057,4.3798-75.8106,0.4985-113.7947c31.329-21.3131,65.042-39.0968,99.959-52.6983
	c4.3364,36.6797,4.6384,74.6614,0.7858,112.2412C1252.7784,447.907,1218.5143,466.0674,1187.4893,487.7867z M603.456,407.2506
	c-34.3447-15.6689-70.7468-27.5921-108.0712-35.6386c-10.5887-36.3818-17.0842-73.9402-19.23-111.3513
	c36.2245,7.2104,72.4406,18.6602,106.9906,33.9371C585.7036,332.8334,592.387,371.0324,603.456,407.2506z M346.3854,937.8123
	c-25.5151,27.8218-48.1036,58.7578-67.2901,91.7688c-37.8732-1.172-75.6006-6.6007-111.8438-16.1205
	c18.0515-32.2234,40.1324-63.1288,65.338-91.267C270.1247,931.6996,308.5194,937.1475,346.3854,937.8123z M771.5403,1346.2535
	c18.5755,32.8636,41.0171,63.9064,66.4836,92.3547c-12.8182,35.6575-29.6396,69.8608-49.8932,101.3883
	c-25.0681-27.1256-47.6375-57.676-66.6095-90.3431C742.161,1416.8928,759.2069,1382.0608,771.5403,1346.2535z M1291.3712,1068.1224
	c36.9954-7.511,73.4535-19.2615,108.3792-34.6904c29.9512,23.2096,57.2823,49.777,81.0081,78.7819
	c-33.5443,15.459-69.5739,27.4832-106.5049,35.4319C1349.4745,1117.8926,1321.6146,1090.9172,1291.3712,1068.1224z
	 M1032.4305,157.2599c10.7791,35.8888,17.5212,73.4036,20.0143,111.213c-32.3209,20.3267-62.4499,43.9811-89.3644,70.4517
	c-1.9857-37.8197-8.7702-76.0009-19.5801-113.1816C970.7412,199.5708,1000.8576,176.4247,1032.4305,157.2599z M241.1906,452.5819
	c37.4633,0.8387,75.2254,6.0193,111.9546,15.332c9.3441,37.0203,22.5305,72.9842,39.3884,106.7613
	c-36.5822-9.7984-74.9912-15.1446-113.6927-16.3532C262.3676,524.3267,249.6608,488.5317,241.1906,452.5819z M277.5518,1296.3553
	c12.3745-35.3705,28.9706-69.6836,49.1775-101.7373c38.0959,2.5531,76.3745,1.1256,113.7077-4.4696
	c-20.6234,31.7639-37.5769,66.641-50.6858,103.0748C352.3293,1298.3851,314.3596,1299.4088,277.5518,1296.3553z M1091.2643,1522.514
	c-29.8153-22.699-57.3206-49.0861-81.5612-78.2092c14.2004-35.4423,24.6716-72.2886,30.8869-109.5236
	c23.8363,29.4296,51.7675,56.3309,82.3671,80.0569C1116.3022,1452.0237,1105.5426,1488.4513,1091.2643,1522.514z
	 M1557.8051,818.5143c-30.8015,21.3417-64.3967,39.3467-99.5852,53.4014c-29.3195-24.4577-61.1266-45.8024-94.6185-63.2198
	c35.355-13.5754,69.5709-31.8265,101.5914-53.5969C1498.5018,772.9191,1529.8217,794.4089,1557.8051,818.5143z M1401.2561,558.322
	c-38.7015,1.2086-77.1105,6.5548-113.6927,16.3532c16.8579-33.7771,30.0443-69.7411,39.3884-106.7613
	c36.7292-9.3128,74.4913-14.4933,111.9546-15.332C1430.4362,488.5317,1417.7292,524.3267,1401.2561,558.322z M736.5966,225.7429
	c-10.8099,37.1808-17.5944,75.362-19.5801,113.1816c-26.9145-26.4706-57.0435-50.125-89.3644-70.4517
	c2.493-37.8094,9.2352-75.3242,20.0143-111.213C679.2393,176.4247,709.3557,199.5708,736.5966,225.7429z M214.9041,755.0991
	c32.0206,21.7703,66.2365,40.0214,101.5915,53.5969c-33.492,17.4174-65.2991,38.7621-94.6186,63.2198
	c-35.1885-14.0547-68.7837-32.0596-99.5851-53.4014C150.2752,794.4089,181.595,772.9191,214.9041,755.0991z M557.1398,1414.8381
	c30.5997-23.726,58.5308-50.6273,82.3671-80.0569c6.2153,37.235,16.6865,74.0813,30.8868,109.5236
	c-24.2407,29.1232-51.7458,55.5103-81.5612,78.2092C574.5543,1488.4513,563.7946,1452.0237,557.1398,1414.8381z
	 M1290.3456,1293.2233c-13.1088-36.4338-30.0624-71.3109-50.6858-103.0748c37.3334,5.5952,75.6119,7.0227,113.7078,4.4696
	c20.2069,32.0537,36.803,66.3668,49.1775,101.7373C1365.7373,1299.4088,1327.7676,1298.3851,1290.3456,1293.2233z
	 M963.0024,386.4358c0.0684-1.1565,0.1008-2.3193,0.1595-3.4776c26.4745-25.7826,57.0897-48.213,90.1566-66.8909
	c-1.119,37.9542-6.6251,75.6405-16.7394,111.7223c-0.8591,0.4924-1.7299,0.9664-2.5853,1.464
	c-35.9937,23.099-69.0443,51.2948-98.2751,83.1991C950.1743,471.6044,959.5438,429.1218,963.0024,386.4358z M437.6953,589.4312
	c-1.0788-0.4224-2.1746-0.8126-3.2581-1.2263c-16.3397-33.1461-28.2116-69.1942-35.7571-106.4145
	c35.7507,12.7928,69.8911,29.6751,101.0814,50.4442c0.2028,0.9692,0.3846,1.9438,0.5934,2.9111
	c10.8458,41.3701,27.4484,81.5159,48.7584,119.1752C514.7314,627.95,477.2234,605.9113,437.6953,589.4312z M468.4265,1151.757
	c-0.7351,0.8954-1.4448,1.817-2.1731,2.7197c-36.5731,5.2971-74.5254,5.4486-112.2557,1.1232
	c23.2143-30.0479,49.8203-57.3003,79.2112-80.546c0.9845,0.1066,1.9676,0.2349,2.952,0.3352
	c42.6968,2.469,86.0083-0.9152,128.4095-9.5449C528.8656,1090.3942,496.3149,1119.2561,468.4265,1151.757z M1012.7266,1296.298
	c0.6245,0.9758,1.2817,1.9357,1.915,2.9072c-6.2637,36.4199-17.8476,72.5616-33.6207,107.1086
	c-21.4036-31.3634-39.1005-65.0887-52.1262-100.2245c0.4056-0.9033,0.8314-1.7986,1.231-2.704
	c15.5422-39.844,25.7076-82.0815,30.603-125.0741C973.0439,1219.8549,990.4345,1259.7313,1012.7266,1296.298z M1318.3914,823.3035
	c1.121-0.2924,2.2369-0.6208,3.3567-0.923c32.7018,17.2115,63.4949,39.3969,91.4769,65.0736
	c-36.4424,10.6641-73.9857,17.0732-111.427,18.6039c-0.7338-0.6649-1.4536-1.3466-2.1912-2.0063
	c-33.0912-27.0941-70.1201-49.814-109.4957-67.7552C1233.427,837.4218,1276.7257,833.2048,1318.3914,823.3035z M1130.9836,654.3209
	c21.3099-37.6592,37.9125-77.8051,48.7583-119.1752c0.2089-0.9673,0.3906-1.9419,0.5935-2.9111
	c31.1903-20.7691,65.3307-37.6514,101.0814-50.4442c-7.5455,37.2203-19.4175,73.2683-35.7572,106.4145
	c-1.0835,0.4137-2.1793,0.8039-3.2581,1.2263C1202.8735,605.9113,1165.3655,627.95,1130.9836,654.3209z M744.3782,512.4526
	c-29.2309-31.9044-62.2814-60.1001-98.2751-83.1991c-0.8554-0.4976-1.7261-0.9716-2.5853-1.464
	c-10.1143-36.0818-15.6204-73.7681-16.7394-111.7223c33.0669,18.6779,63.682,41.1083,90.1566,66.8909
	c0.0586,1.1583,0.0911,2.3211,0.1595,3.4776C720.5532,429.1218,729.9226,471.6044,744.3782,512.4526z M489.9859,836.2964
	c-39.3757,17.9412-76.4046,40.6612-109.4958,67.7552c-0.7375,0.6598-1.4575,1.3414-2.1913,2.0063
	c-37.4412-1.5306-74.9846-7.9398-111.427-18.6039c27.982-25.6767,58.7751-47.8621,91.477-65.0736
	c1.1198,0.3022,2.2357,0.6306,3.3567,0.923C403.3712,833.2048,446.6699,837.4218,489.9859,836.2964z M719.3681,1178.3113
	c4.8954,42.9926,15.0608,85.2301,30.603,125.0741c0.3996,0.9054,0.8254,1.8007,1.231,2.704
	c-13.0257,35.1357-30.7227,68.8611-52.1262,100.2245c-15.7731-34.547-27.357-70.6887-33.6207-107.1086
	c0.6334-0.9716,1.2906-1.9314,1.9151-2.9072C689.6624,1259.7313,707.053,1219.8549,719.3681,1178.3113z M1115.5265,1065.8441
	c42.4011,8.6298,85.7126,12.0139,128.4094,9.5449c0.9845-0.1003,1.9677-0.2286,2.952-0.3352
	c29.391,23.2457,55.9969,50.4982,79.2113,80.546c-37.7303,4.3254-75.6827,4.174-112.2557-1.1232
	c-0.7283-0.9027-1.4381-1.8243-2.1732-2.7197C1183.782,1119.2561,1151.2313,1090.3942,1115.5265,1065.8441z M932.4589,371.927
	c-0.6385,0.7563-1.295,1.4998-1.9285,2.2597c-25.9229,34.0167-47.3361,71.8158-63.8925,111.7937
	c-0.3872-43.3288-6.1125-86.454-17.4614-127.7488c-0.3314-1.1102-0.6989-2.214-1.0395-3.3225
	c16.0596-33.2825,37.1564-64.8311,61.8406-93.692C921.9073,297.2651,929.6234,334.5617,932.4589,371.927z M414.4582,613.9963
	c0.522,0.8409,1.0262,1.6951,1.5532,2.5325c24.3412,35.1658,53.6732,67.2116,86.5782,95.3115
	c-41.3278-13.0211-84.1115-20.9024-126.8922-22.8698c-1.1582-0.0279-2.3216-0.0195-3.4811-0.0381
	c-26.6908-25.5584-50.1761-55.3718-69.9966-87.7664C340.1899,600.9597,378.0454,605.1466,414.4582,613.9963z M484.6087,1181.4478
	c0.9611-0.2366,1.9292-0.4521,2.8884-0.6946c40.9666-12.283,80.508-30.2767,117.4008-52.8879
	c-25.1548,35.2814-45.8713,73.5356-60.9623,113.6145c-0.3845,1.093-0.736,2.202-1.112,3.2991
	c-32.5554,17.4865-68.1669,30.6095-105.1009,39.4493C449.2599,1248.0526,464.94,1213.3438,484.6087,1181.4478z M1045.9648,1290.0828
	c0.072-0.9871,0.1661-1.9745,0.2321-2.9617c0.9775-42.7572-3.9165-85.9237-14.0206-127.998
	c25.7813,34.8262,55.7615,66.3499,89.2155,93.0874c0.9207,0.7034,1.8668,1.3804,2.7939,2.077
	c6.5704,36.3656,8.0465,74.2894,5.0406,112.1475C1098.3865,1344.2836,1070.2217,1318.6453,1045.9648,1290.0828z M1322.7515,789.7715
	c-0.9165-0.3735-1.8265-0.7681-2.745-1.1359c-40.3624-14.1424-82.9286-22.827-126.066-26.2192
	c41.0885-13.7576,80.3337-32.5291,116.1006-56.0833c0.9534-0.6583,1.8896-1.3489,2.8386-2.0153
	c36.6162,4.9887,73.14,15.3039,108.2162,29.8615C1390.4987,756.6645,1357.4119,775.5281,1322.7515,789.7715z M1377.8772,601.166
	c-19.8204,32.3946-43.3057,62.2079-69.9966,87.7664c-1.1595,0.0186-2.3229,0.0102-3.4811,0.0381
	c-42.7808,1.9674-85.5645,9.8487-126.8922,22.8698c32.905-28.0999,62.2369-60.1457,86.5782-95.3115
	c0.5269-0.8374,1.0311-1.6915,1.5531-2.5325C1302.0515,605.1466,1339.907,600.9597,1377.8772,601.166z M770.1193,261.2171
	c24.6842,28.8609,45.781,60.4095,61.8406,93.692c-0.3406,1.1085-0.7081,2.2123-1.0395,3.3225
	c-11.3489,41.2949-17.0742,84.42-17.4614,127.7488c-16.5564-39.9779-37.9697-77.777-63.8925-111.7937
	c-0.6335-0.7599-1.2901-1.5034-1.9285-2.2597C750.4736,334.5617,758.1896,297.2651,770.1193,261.2171z M259.001,734.1793
	c35.0762-14.5576,71.6-24.8728,108.2162-29.8615c0.949,0.6664,1.8853,1.3571,2.8387,2.0153
	c35.7668,23.5542,75.012,42.3257,116.1005,56.0833c-43.1375,3.3922-85.7036,12.0768-126.066,26.2192
	c-0.9185,0.3677-1.8285,0.7623-2.7451,1.1359C322.6851,775.5281,289.5983,756.6645,259.001,734.1793z M550.8706,1366.4349
	c-3.0059-37.858-1.5298-75.7819,5.0406-112.1475c0.9271-0.6967,1.8732-1.3737,2.7939-2.077
	c33.454-26.7375,63.4342-58.2612,89.2155-93.0874c-10.1041,42.0743-14.9981,85.2408-14.0206,127.998
	c0.0659,0.9872,0.16,1.9746,0.232,2.9617C609.8752,1318.6453,581.7104,1344.2836,550.8706,1366.4349z M1242.3741,1284.2281
	c-36.934-8.8398-72.5455-21.9629-105.101-39.4493c-0.376-1.097-0.7275-2.2061-1.1119-3.2991
	c-15.0911-40.0789-35.8076-78.3331-60.9624-113.6145c36.8928,22.6112,76.4343,40.605,117.4009,52.8879
	c0.9592,0.2424,1.9274,0.458,2.8884,0.6946C1215.157,1213.3438,1230.8369,1248.0526,1242.3741,1284.2281z M840.0485,124.592
	c20.6848,28.5534,38.4767,59.6126,52.8304,92.1998c-20.1426,25.9355-37.9192,53.6293-52.8304,82.5534
	c-14.9113-28.9241-32.6878-56.6179-52.8305-82.5534C801.5717,184.2045,819.3636,153.1454,840.0485,124.592z M1529.4247,625.4531
	c-20.7639,28.4959-44.8049,55.0148-71.3617,78.7361c-30.8905-11.1423-62.7222-19.4909-94.8384-24.7344
	c22.9005-23.1195,43.7457-48.5839,62.1874-75.7551C1460.8398,607.2809,1495.8768,614.6042,1529.4247,625.4531z M1266.1064,1435.8635
	c-33.5177-10.9419-66.1677-25.6116-96.9344-43.5382c1.0513-32.8218-0.8452-65.6753-5.783-97.8401
	c29.0647,14.6355,59.7242,26.5916,91.2644,35.7341C1262.1953,1365.0199,1266.0575,1400.6051,1266.1064,1435.8635z
	 M413.9905,1435.8635c0.0489-35.2584,3.9111-70.8436,11.4529-105.6442c31.5402-9.1426,62.1998-21.0986,91.2644-35.7341
	c-4.9377,32.1648-6.8342,65.0183-5.7829,97.8401C480.1582,1410.252,447.5081,1424.9216,413.9905,1435.8635z M150.6722,625.4531
	c33.5479-10.8489,68.5849-18.1722,104.0127-21.7534c18.4417,27.1713,39.2868,52.6356,62.1874,75.7551
	c-32.1163,5.2435-63.948,13.592-94.8385,24.7344C195.4771,680.468,171.4361,653.949,150.6722,625.4531z M840.0485,607.9167
	c2.6522-10.7358,5.6404-21.4256,8.9597-32.0287c-1.6501,21.8773-4.645,43.6264-8.9597,65.0096
	c-4.3148-21.3832-7.3096-43.1323-8.9597-65.0096C834.408,586.4911,837.3962,597.1808,840.0485,607.9167z M1069.7556,774.8087
	c11.0299-0.7952,22.12-1.2565,33.2299-1.3763c-21.3165,5.1911-42.9266,9.0637-64.5966,11.5679
	c19.0033-10.7114,38.7625-20.2805,59.0591-28.6103C1088.3895,762.8235,1079.1464,768.9688,1069.7556,774.8087z M982.0153,1044.8457
	c4.1647,10.2444,8.0305,20.649,11.5775,31.1781c-11.5242-18.6691-21.8851-38.0248-30.9631-57.8602
	c16.0594,14.7632,31.2661,30.5983,45.4602,47.3275C999.1721,1058.864,990.4713,1051.9722,982.0153,1044.8457z M698.0816,1044.8457
	c-8.456,7.1265-17.1569,14.0183-26.0746,20.6454c14.1942-16.7292,29.4009-32.5643,45.4603-47.3275
	c-9.0781,19.8354-19.439,39.1912-30.9631,57.8602C690.0511,1065.4948,693.9169,1055.0901,698.0816,1044.8457z M610.3413,774.8087
	c-9.3908-5.84-18.634-11.9852-27.6924-18.4186c20.2966,8.3298,40.0558,17.8989,59.0591,28.6103
	c-21.6699-2.5043-43.28-6.3768-64.5965-11.5679C588.2213,773.5522,599.3113,774.0135,610.3413,774.8087z M840.0485,666.4012
	c13.795-26.1127,30.0366-51.5206,48.3533-75.4932c-13.5071,29.8964-29.7416,58.495-48.3533,85.0773
	c-18.6118-26.5823-34.8462-55.1809-48.3533-85.0773C810.0118,614.8807,826.2534,640.2885,840.0485,666.4012z M1014.1335,792.8814
	c29.0976,5.0506,58.2808,12.6458,86.7403,22.6581c-32.6072-3.6075-64.8228-10.21-95.8554-19.6964
	c19.53-25.9152,41.7121-50.1925,65.9714-72.2771C1053.8506,748.3942,1034.7053,771.6923,1014.1335,792.8814z M947.6389,997.5306
	c4.1883,29.2341,5.9829,59.3362,5.2551,89.4966c-6.6451-32.126-10.321-64.8051-10.8885-97.2503
	c30.6819,10.5659,60.6257,24.1602,89.1259,40.4075C1002.2221,1021.5566,974.148,1010.5478,947.6389,997.5306z M732.458,997.5306
	c-26.5091,13.0172-54.5832,24.0259-83.4924,32.6538c28.5001-16.2474,58.4439-29.8417,89.1259-40.4075
	c-0.5675,32.4453-4.2433,65.1243-10.8885,97.2503C726.4751,1056.8668,728.2697,1026.7648,732.458,997.5306z M665.9634,792.8814
	c-20.5718-21.1891-39.7172-44.4872-56.8563-69.3154c24.2592,22.0846,46.4413,46.3619,65.9713,72.2771
	c-31.0327,9.4865-63.2482,16.0889-95.8553,19.6964C607.6826,805.5272,636.8658,797.932,665.9634,792.8814z M1258.1061,274.0381
	c2.5485-16.0019,4.3553-31.9807,5.3969-47.8158l0.2826-34.7989l-34.4207,5.1233c-45.1095,9.3933-89.5475,25.1383-131.4156,46.2341
	c-1.2642-47.3099-8.4779-94.223-21.1914-137.8775l-11.6359-32.7972l-30.5933,16.5872
	c-39.1759,24.2551-75.549,54.2491-107.6771,88.3924c-17.369-44.0243-40.1929-85.641-67.07-122.3146l-19.7331-23.9087
	l-19.7331,23.9087c-26.8771,36.6736-49.7011,78.2903-67.07,122.3146c-32.1282-34.1433-68.5013-64.1374-107.6772-88.3924
	l-30.5933-16.5872l-11.6359,32.7972c-12.7135,43.6546-19.9272,90.5676-21.1913,137.8775
	c-41.8682-21.0957-86.3062-36.8408-131.4157-46.2341l-34.4206-5.1233l0.2826,34.7989c1.0415,15.835,2.8484,31.8139,5.3968,47.8158
	c-14.4311-7.3686-29.0696-14.0247-43.8078-19.9085l-33.0084-11.0222l-5.764,34.3191c-5.0061,45.8044-3.7637,92.9329,3.3615,139.2709
	c-45.3851-13.4172-92.2312-21.0536-137.6778-22.4523l-34.7877,0.9314l6.3215,34.2216
	c10.9619,44.7538,28.2481,88.6153,50.7921,129.7219c-47.2369,2.9146-93.8698,11.7612-137.0539,25.9901l-28.8364,11.3791
	l16.6407,26.1555c26.5732,36.8944,59.1001,71.4616,95.6023,101.5847c-42.4004,20.0048-82.1663,45.329-117.3403,75.0923
	l-25.2292,23.9702l27.5964,21.2012c37.5893,25.5813,79.9771,46.9388,124.5809,62.7607
	c-33.0012,33.3001-61.7078,70.6976-84.5809,110.6967l-15.5091,31.1528l33.1831,10.4846c15.3819,3.9028,31.137,7.1221,47.1432,9.6432
	c-11.4674,11.4479-22.3213,23.313-32.4715,35.5116l-20.6829,27.9868l30.8582,16.0872
	c42.0156,18.9154,87.2214,32.2974,133.4933,39.8401c-26.7853,39.0176-48.5242,81.2111-63.8982,124.0012l-9.8642,33.3729
	l34.5002,4.563c45.9508,3.4042,93.0073,0.5181,139.0684-8.22c-11.8251,45.8256-17.8218,92.9099-17.6339,138.3773l1.9112,30.9414
	l30.0176-7.7438c43.3002-13.8716,86.2269-34.1246,126.1555-59.5317c5.9233,46.507,17.7197,92.1522,35.1569,134.802l15.0008,31.4016
	l28.6913-19.6942c35.9449-27.8445,69.3557-61.5579,98.1866-99.0894c21.4723,41.6764,48.1686,80.5344,79.1418,114.6484
	l24.8354,24.3767l20.2256-28.319c8.465-13.423,16.3954-27.4122,23.7393-41.856c7.3439,14.4437,15.2743,28.433,23.7393,41.856
	l20.2256,28.319l24.8355-24.3767c30.9731-34.114,57.6695-72.972,79.1418-114.6484c28.8308,37.5315,62.2416,71.2449,98.1865,99.0894
	l28.6914,19.6942l15.0007-31.4016c17.4373-42.6498,29.2336-88.295,35.1569-134.802
	c39.9286,25.4071,82.8553,45.6602,126.1555,59.5317l30.0176,7.7438l1.9113-30.9414c0.1879-45.4674-5.8088-92.5518-17.6339-138.3773
	c46.0612,8.738,93.1177,11.6241,139.0684,8.22l34.5002-4.563l-9.8641-33.3729c-15.3741-42.7902-37.1129-84.9836-63.8983-124.0012
	c46.272-7.5427,91.4777-20.9247,133.4933-39.8401l30.8583-16.0872l-20.683-27.9868c-10.1501-12.1986-21.004-24.0637-32.4714-35.5116
	c16.0062-2.5211,31.7614-5.7404,47.1432-9.6432l33.1831-10.4846l-15.5092-31.1528c-22.8732-39.999-51.5797-77.3965-84.5809-110.6967
	c44.6038-15.8219,86.9916-37.1794,124.5809-62.7607l27.5963-21.2012l-25.2291-23.9702
	c-35.174-29.7633-74.9399-55.0875-117.3403-75.0923c36.5023-30.123,69.0292-64.6902,95.6024-101.5847l16.6406-26.1555
	l-28.8364-11.3791c-43.1841-14.2289-89.817-23.0755-137.0538-25.9901c22.5441-41.1066,39.8302-84.9681,50.7921-129.7219
	l6.3215-34.2216l-34.7877-0.9314c-45.4467,1.3987-92.2928,9.0351-137.6779,22.4523c7.1252-46.338,8.3676-93.4665,3.3615-139.2709
	l-5.764-34.3191l-33.0083,11.0222C1287.1758,260.0133,1272.5372,266.6695,1258.1061,274.0381z M840.0485,703.6155
	c24.8167,14.8135,51.0345,27.6102,78.1808,38.2228c18.4819,22.5382,38.7541,43.5185,60.5113,62.5429
	c-6.4197,28.1796-10.4884,57.0687-12.1929,86.1659c-15.7239,24.542-29.4129,50.3052-40.7828,76.8765
	c-28.7842,2.6025-57.5167,7.6602-85.7164,15.0306c-28.1998-7.3705-56.9323-12.4281-85.7165-15.0306
	c-11.3699-26.5712-25.0588-52.3345-40.7828-76.8765c-1.7045-29.0972-5.7732-57.9863-12.1929-86.1659
	c21.7572-19.0244,42.0294-40.0047,60.5113-62.5429C789.0139,731.2258,815.2318,718.429,840.0485,703.6155z M840.0485,687.5144
	c44.2476-24.6464,85.2785-56.1323,121.0629-92.6833c28.9799-15.097,59.3149-27.4243,90.2628-36.2509
	c1.1688,32.1606-1.1812,64.8203-6.584,97.0471c-23.7041,45.3278-40.9697,94.0803-50.7365,143.7784
	c37.1133,34.4658,79.7375,63.7589,125.5576,86.4969c23.3134,22.8964,44.4114,47.9373,62.3694,74.6428
	c-30.2255,11.0499-62.0128,18.9073-94.3319,23.7275c-50.4343-8.5369-102.1359-9.8921-152.4198-3.8234
	c-21.3103,45.9474-35.998,95.5375-43.4641,146.1414c-14.5715,29.2478-31.8671,57.0513-51.7163,82.3827
	c-19.8492-25.3314-37.1449-53.1349-51.7164-82.3827c-7.466-50.6039-22.1538-100.194-43.4641-146.1414
	c-50.2838-6.0687-101.9855-4.7135-152.4198,3.8234c-32.3191-4.8203-64.1064-12.6777-94.3318-23.7275
	c17.9579-26.7055,39.0559-51.7465,62.3694-74.6428c45.8201-22.738,88.4442-52.0311,125.5575-86.4969
	c-9.7668-49.6981-27.0324-98.4506-50.7365-143.7784c-5.4028-32.2269-7.7528-64.8865-6.5839-97.0471
	c30.9478,8.8265,61.2828,21.1539,90.2628,36.2509C754.7699,631.3821,795.8008,662.868,840.0485,687.5144z M1010.254,615.1773
	c-51.6471,35.4007-110.0975,61.6471-170.2055,76.5704c-60.108-14.9233-118.5584-41.1697-170.2055-76.5704
	c17.7082,60.0587,24.6078,123.7589,20.2264,185.5366c-32.7673,52.5546-75.7913,100.0336-125.4192,138.2135
	c62.5914,1.7176,125.306,14.8401,182.7061,38.0975c39.8567,47.4037,71.7168,102.9938,92.6922,161.991
	c20.9753-58.9972,52.8354-114.5873,92.6922-161.991c57.4001-23.2574,120.1147-36.3799,182.7061-38.0975
	c-49.6279-38.1799-92.6519-85.6589-125.4192-138.2135C985.6461,738.9362,992.5457,675.236,1010.254,615.1773z M840.0485,693.0175
	c50.5045-7.9225,100.349-23.5154,146.9314-45.8062c-6.8051,51.1907-6.2319,103.4142,1.84,153.895
	c23.1415,45.5844,53.3741,88.1709,88.9686,125.5851c-50.7881,9.3469-100.2785,26.0298-145.7942,49.3062
	c-36.2022,36.0952-67.3621,78.008-91.9458,123.4221c-24.5838-45.4141-55.7436-87.3268-91.9458-123.4221
	c-45.5157-23.2763-95.0061-39.9593-145.7942-49.3062c35.5945-37.4142,65.827-80.0008,88.9685-125.5851
	c8.072-50.4808,8.6451-102.7043,1.8401-153.895C739.6995,669.5021,789.544,685.095,840.0485,693.0175z M951.0993,696.5967
	c-37.0585,3.9449-74.4658,3.9927-111.0508,0.0874c-36.5851,3.9053-73.9924,3.8575-111.0508-0.0874
	c-7.6999,36.4637-19.2139,72.0549-34.2335,105.6426c-7.5912,36.0013-19.1962,71.5629-34.3997,105.5886
	c32.2997,18.5909,62.5909,40.5397,89.8934,65.2033c31.8935,18.3447,62.1285,40.3709,89.7906,65.3447
	c27.6622-24.9738,57.8972-47,89.7906-65.3447c27.3025-24.6636,57.5938-46.6124,89.8934-65.2033
	c-15.2036-34.0256-26.8085-69.5873-34.3997-105.5886C970.3131,768.6517,958.7991,733.0605,951.0993,696.5967z M923.8439,734.1105
	c-28.9153-8.3259-57.044-19.0809-83.7954-32.0817c-26.7514,13.0007-54.8802,23.7558-83.7955,32.0817
	c-16.8537,24.9272-35.7746,48.3558-56.4056,69.7805c4.0978,29.4595,5.6342,59.535,4.6172,89.608
	c18.4991,23.7318,34.9341,48.9664,48.9349,75.2083c29.2839,5.2062,58.3622,13.0389,86.649,23.2991
	c28.2867-10.2602,57.3651-18.0929,86.649-23.2991c14.0007-26.2419,30.4357-51.4766,48.9348-75.2083
	c-1.017-30.0729,0.5195-60.1484,4.6172-89.608C959.6185,782.4663,940.6976,759.0378,923.8439,734.1105z M840.0485,697.9345
	c33.7148,6.5964,68.3333,9.8361,103.0123,9.7263c10.612,33.0156,24.3908,64.9385,41.0828,94.9649
	c4.1449,34.1031,11.7615,68.0284,22.5823,100.9761c-28.1205,20.295-54.2231,43.2641-77.6218,68.4178
	c-31.1532,14.4805-61.0643,32.2078-89.0557,52.6804c-27.9914-20.4726-57.9025-38.1999-89.0557-52.6804
	c-23.3987-25.1537-49.5013-48.1229-77.6218-68.4178c10.8208-32.9478,18.4374-66.873,22.5823-100.9761
	c16.692-30.0264,30.4708-61.9493,41.0828-94.9649C771.7151,707.7706,806.3336,704.5309,840.0485,697.9345z"/>
</svg>
