<?xml version="1.0" encoding="UTF-8" standalone="no"?>
<!-- Created with Inkscape (http://www.inkscape.org/) -->

<svg
   xmlns:dc="http://purl.org/dc/elements/1.1/"
   xmlns:cc="http://creativecommons.org/ns#"
   xmlns:rdf="http://www.w3.org/1999/02/22-rdf-syntax-ns#"
   xmlns:svg="http://www.w3.org/2000/svg"
   xmlns="http://www.w3.org/2000/svg"
   xmlns:sodipodi="http://sodipodi.sourceforge.net/DTD/sodipodi-0.dtd"
   xmlns:inkscape="http://www.inkscape.org/namespaces/inkscape"
   id="svg4156"
   version="1.1"
   inkscape:version="0.91 r13725"
   width="407.8125"
   height="627.1875"
   viewBox="0 0 407.8125 627.1875"
   sodipodi:docname="GrassOfParnassus.svg">
  <metadata
     id="metadata4162">
    <rdf:RDF>
      <cc:Work
         rdf:about="">
        <dc:format>image/svg+xml</dc:format>
        <dc:type
           rdf:resource="http://purl.org/dc/dcmitype/StillImage" />
        <dc:title></dc:title>
      </cc:Work>
    </rdf:RDF>
  </metadata>
  <defs
     id="defs4160" />
  <sodipodi:namedview
     pagecolor="#ffffff"
     bordercolor="#666666"
     borderopacity="1"
     objecttolerance="10"
     gridtolerance="10"
     guidetolerance="10"
     inkscape:pageopacity="0"
     inkscape:pageshadow="2"
     inkscape:window-width="1600"
     inkscape:window-height="837"
     id="namedview4158"
     showgrid="false"
     inkscape:zoom="1.0682611"
     inkscape:cx="203.90625"
     inkscape:cy="313.59375"
     inkscape:window-x="-8"
     inkscape:window-y="-8"
     inkscape:window-maximized="1"
     inkscape:current-layer="svg4156" />
  <path
     style="fill:#000000"
     d="m 202.12717,624.15149 c -0.73363,-3.66814 0.0244,-11.83712 1.98012,-21.33899 0.79595,-3.86719 1.77841,-8.71875 2.18321,-10.78125 1.70886,-8.70657 8.53036,-28.80032 13.20805,-38.90625 8.34312,-18.02491 11.98765,-25.41292 15.03034,-30.46875 0.93094,-1.54688 3.73827,-6.86798 6.23852,-11.82467 2.50024,-4.9567 5.40472,-10.44108 6.45441,-12.1875 1.0497,-1.74643 2.66789,-5.28471 3.59598,-7.86283 0.9281,-2.57813 2.16359,-5.32031 2.74555,-6.09375 0.58194,-0.77344 2.25935,-3.72656 3.72756,-6.5625 1.46822,-2.83594 3.24089,-5.82228 3.93928,-6.63632 0.69839,-0.81404 1.26981,-1.99128 1.26981,-2.61608 0,-0.62482 0.80112,-2.27909 1.78027,-3.67618 4.80531,-6.85645 11.17171,-17.20344 9.06177,-14.72767 -1.31831,1.54687 -5.63979,7.66406 -9.60329,13.59375 -3.96352,5.92969 -7.95685,11.90241 -8.87407,13.27271 -0.91722,1.37031 -3.86356,6.64375 -6.54742,11.71875 -2.68387,5.07501 -7.65914,14.28979 -11.05618,20.47729 -5.5056,10.02816 -7.65367,14.44673 -11.84984,24.375 -0.65378,1.54687 -3.16495,7.03125 -5.58036,12.1875 -2.41542,5.15625 -5.77265,12.77506 -7.4605,16.93069 -1.68784,4.15563 -3.49526,8.37438 -4.01646,9.375 -1.42794,2.74135 -2.65528,5.91797 -4.68735,12.13181 -3.27585,10.01718 -4.08335,13.04339 -4.75007,17.80159 -0.73082,5.21557 -3.2273,6.9682 -4.43151,3.1111 -0.37136,-1.18948 -1.02218,-2.38738 -1.44627,-2.66199 -0.42408,-0.27462 -1.18037,-3.43869 -1.68064,-7.03125 -1.20768,-8.67278 -3.53794,-19.63675 -4.61758,-21.72593 -0.47778,-0.92456 -1.16057,-3.36852 -1.51728,-5.43102 -0.87238,-5.04387 -5.75226,-19.40095 -8.05392,-23.69534 -1.02124,-1.90541 -1.85559,-3.89252 -1.85411,-4.41578 0.005,-1.61505 -5.88511,-15.78037 -10.72515,-25.79513 -5.34013,-11.04953 -6.24497,-12.47007 -7.28223,-11.43281 -0.6685,0.6685 0.48849,3.98113 3.72131,10.65459 2.58029,5.32646 5.77201,12.93373 7.09271,16.90506 1.3207,3.97132 3.4181,9.4557 4.66088,12.1875 3.40662,7.48817 4.27041,10.2669 8.10117,26.06066 4.12718,17.01589 9.18486,42.97127 10.00181,51.32812 0.48624,4.9739 0.34724,5.85938 -0.91983,5.85938 -0.82095,0 -1.70386,-0.94922 -1.96202,-2.10938 -1.1893,-5.34465 -3.26096,-17.87971 -4.22211,-25.54687 -2.14932,-17.14536 -6.30509,-33.7871 -12.17384,-48.75 -1.6179,-4.125 -4.01988,-10.875 -5.33775,-15 -2.18495,-6.83913 -10.63561,-25.05494 -12.5726,-27.10089 -0.47933,-0.5063 -1.33026,-0.41545 -2.10115,0.22434 -3.57574,2.9676 -20.06444,6.77023 -35.34639,8.15161 -6.41107,0.57952 -11.72071,1.78162 -16.40625,3.71437 -1.546875,0.63809 -5.34375,2.1573 -8.4375,3.37603 -3.09375,1.21873 -7.831651,3.33292 -10.528669,4.6982 -4.2981,2.17577 -5.449585,2.38033 -9.324287,1.65646 -4.731351,-0.88391 -8.09942,-3.25713 -32.089211,-22.61075 C 36.428152,504.50391 33.616835,502.5 33.21671,502.5 c -0.99372,0 -11.678648,-9.2824 -13.99796,-12.16057 -1.03125,-1.27973 -3.905932,-4.64803 -6.38818,-7.4851 -2.48225,-2.83707 -6.1981871,-8.6073 -8.2576383,-12.82272 l -3.74445698,-7.66441 0.0516819,-12.98047 c 0.0294673,-7.40104 0.80578094,-18.24498 1.80608074,-25.22827 1.5376654,-10.73473 2.2953858,-13.37495 6.1335415,-21.37189 3.4501681,-7.18854 5.7137271,-10.45724 10.6703071,-15.40846 8.980166,-8.97046 17.075983,-12.96712 29.918518,-14.76989 8.827072,-1.2391 11.058962,-1.23543 20.154446,0.0332 10.391333,1.44934 13.770711,2.65095 19.320337,6.86973 4.881004,3.71051 6.064804,6.96559 6.542104,17.98888 0.234422,5.41406 0.848747,10.37109 1.365159,11.01562 0.555872,0.69379 3.147319,1.17188 6.35202,1.17188 5.03445,0 5.61897,-0.23448 8.35636,-3.35219 1.61879,-1.84371 4.06111,-5.04137 5.42737,-7.10592 2.94073,-4.44376 8.68068,-8.61097 13.87291,-10.07174 2.05257,-0.57747 7.37567,-1.31678 11.82912,-1.64291 7.44425,-0.54515 8.88059,-0.34525 17.8125,2.47906 6.20903,1.96332 10.73036,4.00075 12.52782,5.64536 1.54688,1.41535 3.72388,3.04044 4.8378,3.61133 1.99225,1.02105 2.01958,0.93493 1.67458,-5.27813 -0.19289,-3.47386 -0.80892,-23.19111 -1.36895,-43.81611 -0.56004,-20.625 -1.45367,-39.22074 -1.98585,-41.32385 -0.81417,-3.21742 -1.51297,-4.01464 -4.40635,-5.02688 -4.17179,-1.4595 -10.92154,-7.72252 -13.31761,-12.35727 -2.26615,-4.38343 -5.96755,-22.38307 -4.83558,-23.51505 1.54296,-1.54295 13.47453,4.03789 18.35199,8.58391 l 4.57504,4.26414 -0.5495,-8.4375 c -0.30222,-4.64063 -1.00488,-12.23438 -1.56146,-16.875 -0.55659,-4.64063 -1.21204,-16.45313 -1.45657,-26.25 -0.26502,-10.61793 -0.8228,-17.9398 -1.38095,-18.12767 -0.51498,-0.17334 -2.72571,-1.8115 -4.91272,-3.64037 -2.187,-1.82886 -5.24199,-3.95094 -6.78887,-4.71576 -3.58345,-1.77173 -8.11902,-7.52999 -11.8064,-14.98914 -2.60482,-5.26927 -3.07682,-5.74841 -4.77018,-4.84215 -2.70804,1.4493 -6.26636,0.26779 -6.90938,-2.29421 l -0.54576,-2.1745 -7.15792,3.75076 c -10.77372,5.64544 -23.69014,7.77164 -31.248591,5.14388 -9.316876,-3.2391 -20.55742,-12.1911 -24.100183,-19.19348 -3.02297,-5.97497 -4.781572,-15.95293 -3.940024,-22.35488 0.906924,-6.8993 1.792793,-10.39409 3.429936,-13.53127 0.690635,-1.32343 1.2583,-2.9244 1.261476,-3.55772 0.01168,-2.32947 10.382345,-11.47855 16.161987,-14.25824 8.030239,-3.86212 16.345509,-6.62152 19.953459,-6.62152 1.652,0 4.98903,-0.27213 7.41561,-0.60473 l 4.41197,-0.60473 -5.73443,-2.75226 c -4.60077,-2.20815 -6.00452,-2.5281 -7.10062,-1.61842 -2.06394,1.71292 -11.605825,-0.46806 -18.841237,-4.306519 C 76.692609,90.694523 72.6448,83.781185 72.783372,67.96875 72.930017,51.235078 77.840629,39.746787 90.17182,27.288773 95.544666,21.860671 98.758247,19.532084 105,16.544168 c 6.91371,-3.309578 8.99959,-3.863526 15.75466,-4.183966 9.11626,-0.432449 14.07257,0.646896 23.25811,5.064965 4.74362,2.281588 8.23989,4.866841 11.91976,8.813827 5.53002,5.93145 5.394,5.944159 6.71399,-0.62734 1.20425,-5.995258 6.15222,-6.68556 9.29126,-1.296242 2.55057,4.378988 3.35094,18.681691 1.22682,21.923496 -0.88604,1.35227 -1.13362,2.689703 -0.64443,3.481221 0.4369,0.706924 0.54525,2.530939 0.24076,4.053367 -0.34418,1.72087 -0.20165,2.550527 0.37673,2.193065 0.51169,-0.316242 1.00139,-2.453146 1.08821,-4.748675 0.23261,-6.149529 3.57196,-16.025744 7.7364,-22.880543 2.0145,-3.315937 3.66273,-6.192085 3.66273,-6.39144 0,-0.199355 1.90081,-2.861862 4.22402,-5.916684 C 194.74474,9.5917697 204.51075,2.7334358 211.11827,1.0925557 213.538,0.4916501 219.32676,0 223.98217,0 c 6.85075,0 9.4158,0.42076693 13.45517,2.2071704 5.83746,2.5816022 12.62076,9.7680936 16.32139,17.2915256 2.29809,4.672057 2.41038,5.536153 1.88824,14.53125 -0.60099,10.353189 -1.44895,13.327964 -7.3453,25.768219 -4.2207,8.904923 -7.33475,13.60944 -14.16105,21.393659 -2.44921,2.792914 -4.45312,5.219988 -4.45312,5.393498 0,0.173509 2.00391,-0.673444 4.45312,-1.882117 2.86267,-1.412706 7.00275,-2.411308 11.59183,-2.795982 6.34446,-0.531819 7.70041,-0.340854 12.1875,1.716427 9.83185,4.507796 20.32998,17.2696 21.75386,26.44457 0.31256,2.01408 1.59066,4.75626 2.84022,6.09375 1.24956,1.33747 3.00434,3.88143 3.89953,5.65321 2.56743,5.08153 1.12166,15.41504 -3.71383,26.54419 -0.50528,1.16293 -0.29029,1.64063 0.73839,1.64063 4.69763,0 1.70172,5.63886 -6.60783,12.43717 -9.36135,7.65881 -23.24422,13.77378 -31.32839,13.79919 -3.92311,0.0124 -4.59269,0.3527 -6.94275,3.52926 -1.43049,1.9336 -3.30557,4.14844 -4.16685,4.92188 -0.86128,0.77344 -3.54387,4.14844 -5.96129,7.5 -2.41743,3.35156 -6.49228,8.625 -9.05523,11.71875 -2.56295,3.09375 -5.35796,6.89062 -6.21116,8.4375 -0.85318,1.54687 -1.81119,3.02344 -2.12889,3.28125 -0.66334,0.53828 -5.04438,6.45065 -6.08376,8.21024 -0.9521,1.61183 3.84269,-0.42257 6.5147,-2.76415 1.06449,-0.93285 2.43558,-1.69609 3.04688,-1.69609 1.28613,0 1.49215,1.52905 0.30489,2.26282 -0.44362,0.27418 -1.07649,2.46785 -1.40641,4.87485 -0.78609,5.73512 -4.00716,12.05499 -7.87496,15.45096 -3.66965,3.222 -11.6267,7.41137 -14.07672,7.41137 -2.90146,0 -4.96195,2.20979 -5.25999,5.64113 -0.15597,1.79582 -0.63552,4.08212 -1.06566,5.08069 -0.94612,2.19641 -0.93251,7.13482 0.0802,29.12193 0.42751,9.28125 0.74249,19.40625 0.69995,22.5 -0.17183,12.49851 1.74218,54.17455 2.99235,65.15625 0.73376,6.44531 1.38126,18.25781 1.43892,26.25 0.0576,7.99219 0.22936,16.00781 0.38159,17.8125 0.15221,1.80469 0.57189,10.03125 0.9326,18.28125 0.36072,8.25 0.80844,16.47656 0.99491,18.28125 0.18649,1.80469 0.6054,13.40625 0.93093,25.78125 0.57922,22.01913 2.81697,58.94686 3.65414,60.30145 0.23218,0.37568 0.71981,10.16467 1.0836,21.7533 0.3638,11.58864 0.77738,21.20398 0.91906,21.36744 0.1417,0.16345 0.78219,-1.31311 1.42332,-3.28125 0.64114,-1.96814 2.37069,-6.22572 3.84345,-9.46129 1.47275,-3.23558 2.67773,-6.07267 2.67773,-6.30465 0,-0.23198 1.20498,-3.06908 2.67772,-6.30465 1.47276,-3.23557 3.21288,-7.57035 3.86696,-9.63285 0.65407,-2.0625 2.14327,-5.64844 3.30934,-7.96875 1.16606,-2.32031 3.81495,-7.80469 5.88645,-12.1875 7.87988,-16.67212 12.50678,-25.94042 15.21052,-30.46875 1.53934,-2.57813 3.67388,-6.526 4.74342,-8.77306 1.81717,-3.81775 10.90421,-18.6996 15.22415,-24.93257 9.59025,-13.8372 19.39394,-28.72909 19.39394,-29.45955 0,-0.49353 0.31641,-1.03794 0.70312,-1.20982 1.18673,-0.52743 8.65094,-10.9166 9.55887,-13.30465 1.3942,-3.66701 -1.06278,-6.2266 -5.977,-6.2266 -3.57879,0 -4.48401,0.47498 -7.83632,4.1118 -2.08456,2.26149 -4.83046,5.7598 -6.10199,7.77403 -2.63225,4.16978 -7.70254,8.87485 -12.15621,11.28063 -3.70018,1.99876 -15.23269,2.15808 -20.84672,0.288 -4.46595,-1.48764 -12.05285,-6.92068 -16.09815,-11.52803 -1.60016,-1.8225 -3.80216,-5.9964 -4.89334,-9.27537 -2.05077,-6.16259 -3.98817,-21.93882 -3.34909,-27.27172 0.20008,-1.66958 0.62562,-5.0064 0.94566,-7.41517 0.68752,-5.17459 6.44536,-16.80959 13.98097,-28.25165 4.88679,-7.42011 8.95044,-11.66247 22.03787,-23.00707 3.67991,-3.18986 16.27605,-10.45545 18.12632,-10.45545 0.67018,0 1.61929,-0.39504 2.10913,-0.87788 0.48985,-0.48284 4.6875,-1.3419 9.32813,-1.90904 4.64062,-0.56714 10.125,-1.44542 12.1875,-1.95175 7.73583,-1.89907 18.35081,-2.45624 24.24786,-1.27274 23.49853,4.71604 44.66058,12.00304 52.15839,17.96036 11.81824,9.3901 18.86175,17.62444 25.06362,29.30105 2.05401,3.86719 5.03167,9.35156 6.61702,12.1875 3.45491,6.18026 7.29576,17.62099 8.77636,26.14205 2.30102,13.24277 0.51069,34.22696 -3.90108,45.7239 -3.61013,9.40784 -11.67207,22.36854 -17.28127,27.78203 -11.54247,11.13975 -33.4022,24.35543 -42.96134,25.97301 -2.69888,0.4567 -6.17269,1.09529 -7.71956,1.41908 -1.54688,0.3238 -6.39844,0.14787 -10.78125,-0.39093 -9.56844,-1.17631 -19.61814,-5.84641 -29.046,-13.49768 -9.94803,-8.07343 -12.85994,-14.13118 -11.88374,-24.72214 0.77775,-8.43791 2.34503,-11.3227 11.26538,-20.73534 8.15454,-8.60458 9.71459,-11.43851 8.64431,-15.70287 -1.27643,-5.08568 -6.5429,-3.60637 -12.03958,3.3818 -8.86493,11.27036 -23.83932,34.95099 -31.47402,49.77327 -4.6064,8.94304 -11.06061,21.33713 -14.34269,27.54243 -10.92055,20.64707 -23.24207,45.84267 -26.11695,53.40514 -1.17609,3.09375 -2.92406,7.60098 -3.88439,10.01605 -2.78233,6.99718 -5.33162,18.75293 -7.84703,36.18572 -1.28578,8.91098 -2.33779,16.6102 -2.33779,17.10938 0,2.22177 -1.69967,0.6124 -2.24783,-2.12841 z m -5.56878,-29.07337 c -0.26007,-0.64453 -0.47287,-0.11718 -0.47287,1.17188 0,1.28906 0.2128,1.81641 0.47287,1.17187 0.26007,-0.64453 0.26007,-1.69921 0,-2.34375 z m -0.71147,-16.17187 c -0.44498,-7.73438 -1.22145,-21.44531 -1.72552,-30.46875 -0.50405,-9.02344 -1.34732,-21.25781 -1.87391,-27.1875 -0.52659,-5.92969 -1.38423,-22.80469 -1.90586,-37.5 -1.43636,-40.46512 -2.01781,-50.96008 -2.90862,-52.5 -0.54989,-0.95057 -0.82453,-0.0392 -0.84753,2.8125 -0.0187,2.32031 -0.64913,8.29929 -1.40092,13.28662 -0.75178,4.98734 -1.15142,10.68265 -0.88807,12.65625 0.26335,1.97361 0.63387,12.86963 0.82339,24.21338 0.18953,11.34375 0.67851,32.01562 1.08663,45.9375 0.40812,13.92187 0.79187,27.42187 0.85277,30 0.10323,4.36992 2.56793,14.05598 5.67051,22.2846 0.73299,1.94403 1.33271,4.1314 1.33271,4.86084 0,1.67631 1.81492,6.51899 2.26045,6.03146 0.18315,-0.20042 -0.031,-6.69253 -0.47603,-14.4269 z m -11.55828,-27.89063 c -0.28255,-2.1914 -0.83574,-6.30468 -1.22932,-9.14062 -0.39356,-2.83594 -0.71557,-15.91406 -0.71557,-29.0625 0,-37.80765 -0.39399,-48.7263 -1.65763,-45.9375 -6.9545,15.34837 -14.71914,29.12734 -17.90236,31.76917 -1.60985,1.33606 -2.09612,3.85583 -0.74409,3.85583 0.83984,0 5.43673,9.67342 10.4694,22.03125 1.6799,4.125 3.40705,8.34375 3.83812,9.375 2.3999,5.74132 6.28326,16.28568 6.81907,18.51562 0.9558,3.9779 1.69689,3.04938 1.12238,-1.40625 z M 80.742334,523.75009 c 3.802654,-1.71871 10.288916,-4.3474 14.413916,-5.84154 4.125,-1.49413 6.80312,-2.85306 5.95138,-3.01985 -0.85175,-0.16678 -3.131361,0.35807 -5.065817,1.16633 -1.934466,0.80828 -3.768832,1.21679 -4.076382,0.90783 -0.807697,-0.81142 3.577547,-4.15036 5.450925,-4.15036 0.871003,0 1.984425,-0.3664 2.474269,-0.81423 0.489845,-0.44781 3.000005,-1.59721 5.578125,-2.55418 5.87522,-2.18084 20.61377,-12.32962 27.78382,-19.13159 9.05876,-8.59371 16.25318,-18.94268 18.55213,-26.6867 1.89019,-6.36714 2.85602,-19.83126 1.57164,-21.90944 -0.28255,-0.45719 -0.70348,-2.36105 -0.93539,-4.23081 -0.23191,-1.86976 -2.15814,-6.54532 -4.28052,-10.39012 -6.0591,-10.97638 -11.27344,-14.51488 -22.5257,-15.28612 -6.74182,-0.4621 -14.07618,0.79109 -14.0697,2.40402 9.4e-4,0.34673 1.58343,1.47417 3.51563,2.50542 2.58776,1.38113 4.56705,3.72699 7.51451,8.90625 5.47025,9.61225 6.11904,12.53309 6.14313,27.65625 0.0183,11.48258 -0.24784,13.8144 -2.12665,18.63413 -4.40192,11.29234 -16.9386,26.37866 -30.054522,36.1669 -4.895484,3.65343 -10.454536,7.89981 -12.35345,9.4364 -3.145019,2.54495 -5.453678,3.52844 -5.453678,2.32328 0,-0.70016 7.853114,-7.96696 8.609768,-7.96696 0.358157,0 2.525986,-1.62262 4.817399,-3.60582 2.291408,-1.98321 5.672849,-4.53699 7.514314,-5.67507 3.729949,-2.30524 14.002959,-14.07192 20.007719,-22.9168 4.99082,-7.35137 6.98577,-15.67526 6.80206,-28.38142 -0.14923,-10.32086 -1.39799,-15.83275 -5.10793,-22.54593 -3.23547,-5.85462 -6.45162,-9.21041 -11.56744,-12.0697 -6.21663,-3.47455 -10.492646,-2.84575 -13.012281,1.91349 -2.155537,4.07152 -5.513056,20.58797 -7.288445,35.85367 -3.788878,32.57869 -10.487593,65.35538 -13.771792,67.38512 -1.835413,1.13435 -1.814545,-0.64671 0.07143,-6.09639 3.051005,-8.81613 9.379569,-42.98197 11.394917,-61.5174 2.060684,-18.95241 5.918263,-35.54452 9.095449,-39.12108 1.304672,-1.46868 1.273819,-1.68647 -0.328181,-2.31661 -0.972535,-0.38254 -4.9323,-0.68474 -8.799488,-0.67157 -5.787064,0.0197 -7.90456,0.47512 -11.966578,2.57359 -10.061218,5.19773 -18.13265,16.75178 -21.198928,30.34574 -2.952604,13.09 -1.490576,26.37564 4.438534,40.33356 1.362334,3.20711 2.476972,6.22865 2.476972,6.71451 0,0.48587 1.655087,3.76812 3.677972,7.29388 3.642111,6.34798 6.083263,13.85566 7.068757,21.73974 0.470471,3.76384 1.111783,5.76449 1.847808,5.76449 0.16301,0 3.407644,-1.40621 7.210297,-3.12491 z M 68.391241,522.86526 C 66.561111,521.20343 61.963113,517.52344 58.173468,514.6875 44.233586,504.25575 35.35202,494.43338 31.894612,485.625 c -0.708364,-1.80469 -2.466825,-5.53243 -3.907692,-8.28388 -1.440866,-2.75144 -2.893041,-6.54832 -3.227056,-8.4375 -0.334014,-1.88918 -1.190063,-5.73835 -1.902331,-8.55371 -1.690933,-6.6837 -1.649936,-20.2123 0.08879,-29.29868 3.058704,-15.9845 12.88248,-29.30115 26.272427,-35.61367 6.182892,-2.91485 7.159027,-3.09381 16.875,-3.09381 l 10.3125,0 5.398289,3.61187 c 5.586294,3.73766 9.132961,7.45957 9.132961,9.58423 0,0.67347 0.361941,1.44818 0.804313,1.72159 0.442373,0.2734 0.740215,-3.41869 0.661873,-8.20465 -0.124416,-7.60061 -0.460606,-9.24464 -2.656769,-12.99211 -3.790515,-6.46802 -7.448062,-8.14848 -21.543701,-9.89829 -17.780762,-2.20727 -26.35008,-0.60782 -36.256284,6.76718 -11.77039,8.76284 -20.39401,19.48099 -24.1518498,30.01793 -2.3859576,6.69019 -3.0349875,12.27351 -3.1831395,27.38314 -0.2195175,22.38799 2.4449586,30.46505 14.7492393,44.71067 6.403855,7.41422 17.166705,16.48397 31.281932,26.36094 2.947528,2.0625 7.151976,5.22656 9.343217,7.03125 2.191241,1.80469 4.461827,3.45338 5.045747,3.66378 0.583919,0.21039 1.612938,1.15961 2.286707,2.10937 0.673769,0.94977 1.939394,1.71543 2.8125,1.70148 1.143567,-0.0183 0.657005,-0.87026 -1.740044,-3.04687 z m -0.566038,-8.41214 c -0.701324,-2.70703 -1.90515,-6.25125 -2.675169,-7.87605 -0.770019,-1.6248 -1.400034,-3.27909 -1.400034,-3.67619 0,-0.39709 -0.730952,-1.52969 -1.624337,-2.51686 -1.57334,-1.73852 -3.681246,-6.75404 -8.17293,-19.44652 -4.340552,-12.26543 -4.819615,-27.78442 -1.273366,-41.25 1.155051,-4.38589 7.614065,-15.61775 11.321528,-19.6875 4.894094,-5.37234 16.750995,-11.25 22.694433,-11.25 3.503428,0 2.97019,-2.38012 -1.494227,-6.66953 -4.865438,-4.67472 -7.509734,-6.03622 -14.083681,-7.25148 -15.836426,-2.92752 -33.848778,7.22046 -41.814634,23.55798 -4.365336,8.95305 -6.456288,21.90324 -5.224917,32.36022 1.087445,9.23475 4.611771,23.38999 6.349604,25.50281 0.636169,0.77344 1.886002,3.28542 2.777408,5.58219 3.940958,10.15415 10.843906,18.14458 24.920119,28.84601 2.835937,2.15601 6.210937,4.9693 7.5,6.25175 1.289062,1.28245 2.598357,2.35722 2.909543,2.38839 0.311187,0.0311 -0.0081,-2.15818 -0.70934,-4.86522 z m 61.549797,-3.9768 c 22.96632,-4.72621 36.3428,-16.82727 46.33499,-41.91705 5.15831,-12.95219 6.67489,-19.58017 8.15498,-35.6402 0.98771,-10.71724 0.93475,-12.35473 -0.52303,-16.17188 -0.89211,-2.33596 -2.009,-4.24719 -2.48198,-4.24719 -0.47298,0 -0.85996,-0.87092 -0.85996,-1.93538 0,-3.10606 -7.47462,-10.9706 -13.69007,-14.40422 -8.86311,-4.89628 -25.66342,-6.80116 -34.01031,-3.85621 -4.53565,1.60027 -10.39599,6.09591 -13.85072,10.6253 -2.15759,2.82876 -2.21631,3.0833 -0.49924,2.16435 1.07025,-0.57278 2.1831,-1.4252 2.47299,-1.89426 1.40051,-2.26606 13.65072,-5.78513 20.79492,-5.97367 8.38995,-0.22142 13.39914,1.71464 20.39809,7.8839 6.61522,5.83101 11.84695,19.71861 11.6134,30.82769 -0.46941,22.32812 -11.77225,46.08447 -29.14696,61.26124 -3.19047,2.78686 -7.48835,5.91281 -9.55085,6.94654 -6.99635,3.50663 -15.94678,8.773 -14.0625,8.27427 1.03125,-0.27295 5.03906,-1.14739 8.90625,-1.94322 z m -13.45813,-0.5613 c 3.53479,-1.078 8.32532,-3.1248 10.64563,-4.54847 2.32031,-1.42367 5.9243,-3.44247 8.00885,-4.48621 5.57893,-2.7934 16.68406,-13.63455 21.5817,-21.06871 4.57674,-6.94705 9.35374,-16.76049 12.22997,-25.12413 1.40614,-4.0888 1.76629,-7.77634 1.73972,-17.8125 -0.031,-11.73435 -0.21782,-13.05488 -2.56381,-18.12892 -4.05294,-8.76585 -10.87765,-15.52794 -17.75839,-17.59545 -8.20535,-2.46552 -21.97138,-0.12523 -29.07768,4.94335 l -3.06661,2.18727 7.50187,0.55882 c 4.36577,0.3252 8.87279,1.26486 10.78125,2.24775 13.0673,6.7299 19.95603,19.93952 20.04798,38.44343 0.0731,14.71791 -2.97122,22.17797 -14.59733,35.77016 -6.23911,7.2942 -17.23663,17.19859 -19.09677,17.19859 -0.27407,0 -2.80138,1.70138 -5.61626,3.78085 -2.81487,2.07946 -6.06639,4.1621 -7.22559,4.62807 -3.93361,1.58122 0.008,0.97518 6.46547,-0.9939 z M 347.8125,497.32905 c 3.86719,-1.36891 7.69728,-3.08576 8.51132,-3.81524 0.81404,-0.72947 1.78231,-1.32631 2.15171,-1.32631 1.20453,0 14.11308,-9.04657 19.57689,-13.71986 11.72571,-10.02923 21.61621,-28.63166 23.35998,-43.93639 0.52874,-4.64062 1.31812,-9.13291 1.75417,-9.98285 0.43605,-0.84994 0.5978,-4.85776 0.35945,-8.90625 -1.09965,-18.67778 -8.23869,-38.02763 -21.56656,-58.45465 -6.94243,-10.64035 -20.1333,-21.88218 -30.04175,-25.60285 -18.63166,-6.9963 -33.05768,-10.08502 -48.16771,-10.31306 -15.46964,-0.23347 -34.60344,3.45604 -44.45716,8.57254 -8.38295,4.3528 -24.51207,20.31753 -32.89002,32.55477 -10.66877,15.58335 -14.96715,44.70868 -8.48582,57.49899 2.92275,5.76776 9.90824,13.62108 14.08474,15.83454 4.27488,2.26559 20.42228,2.19311 25.05779,-0.11247 2.89217,-1.43849 11.06547,-10.54032 11.06547,-12.32256 0,-0.29318 -1.2725,0.12498 -2.82777,0.92924 -3.23777,1.67432 -16.82305,2.07877 -20.67193,0.61543 -3.82794,-1.45538 -12.77588,-9.62488 -15.83047,-14.45326 -1.55009,-2.45022 -3.64431,-7.72365 -4.65383,-11.71875 -2.94948,-11.67223 -1.03003,-21.89528 7.17224,-38.19962 3.28432,-6.52853 18.83107,-21.57613 20.53322,-19.87398 0.29587,0.29586 -1.08839,1.91135 -3.07614,3.58995 -7.11859,6.0115 -13.03147,12.76817 -15.54593,17.76438 -9.84102,19.55403 -10.58769,31.02259 -2.99525,46.00556 3.0908,6.09938 12.20487,13.40999 18.19462,14.59431 6.24827,1.23543 15.84816,-0.0711 19.79945,-2.69463 l 3.20306,-2.12675 -7.0985,-3.43275 c -8.48875,-4.10507 -14.72002,-10.55718 -18.79303,-19.45906 -2.30205,-5.03128 -2.73303,-7.20074 -2.80731,-14.13143 -0.0744,-6.94793 0.37357,-9.52009 2.95894,-16.98748 5.9174,-17.09136 12.12519,-24.26343 27.90345,-32.23782 5.67964,-2.8705 8.72885,-2.82616 3.84179,0.0559 -1.76708,1.04209 -6.27699,3.70565 -10.02204,5.91904 -3.74504,2.21338 -8.02078,5.55461 -9.50163,7.42496 -4.43581,5.6025 -9.32629,16.03037 -11.43189,24.37595 -1.70324,6.75079 -1.84717,8.7496 -1.02768,14.27097 0.52412,3.53135 1.97918,8.64715 3.23345,11.36843 2.92553,6.34722 10.1777,13.9388 16.16193,16.91829 5.17991,2.57903 12.65625,4.2075 12.65625,2.75672 0,-0.49847 -1.42243,-3.2685 -3.16096,-6.1556 -7.14141,-11.85951 -7.98064,-31.8419 -2.05303,-48.88413 5.77788,-16.61176 12.78877,-24.77047 25.84417,-30.07536 3.07041,-1.24761 6.62073,-2.26839 7.88961,-2.26839 1.26888,0 2.52431,-0.35153 2.78985,-0.78119 0.59678,-0.9656 6.02293,-0.24817 6.72592,0.88928 0.28192,0.45617 -0.0397,0.86457 -0.7146,0.90753 -4.55874,0.29021 -16.01641,3.06411 -20.44596,4.94994 -10.55343,4.49302 -21.13853,23.90501 -23.27929,42.69179 -1.80729,15.8605 4.64382,35.93295 12.18212,37.90426 1.64821,0.43101 1.76018,0.17193 1.07762,-2.49344 -1.72557,-6.73831 0.56057,-22.43113 4.53059,-31.09942 2.63649,-5.75662 8.30993,-14.90786 11.91494,-19.21875 8.16839,-9.76781 11.33995,-13.13534 14.19902,-15.0764 1.80469,-1.22522 4.15219,-3.08035 5.21667,-4.12251 2.33586,-2.28688 4.77493,-3.90553 7.89425,-5.23888 1.28133,-0.5477 3.73127,-1.66092 5.44433,-2.47381 2.58428,-1.22633 3.74408,-1.28943 6.81095,-0.37057 5.25581,1.57467 4.71245,3.10655 -0.84061,2.36991 -3.8876,-0.51571 -5.36679,-0.1901 -10.33537,2.27507 -3.18915,1.5823 -7.12722,4.05344 -8.75127,5.49142 -18.11997,16.04398 -29.21322,32.3228 -32.66599,47.9358 -2.07093,9.36446 -2.30841,15.82339 -0.71905,19.55649 1.14523,2.6899 4.41121,6.84412 5.37513,6.83699 0.29684,-0.002 2.86002,-3.22912 5.69596,-7.17093 4.46832,-6.21074 10.38235,-13.20751 24.37344,-28.83578 1.80554,-2.01681 4.54843,-4.7545 6.09531,-6.08374 1.54687,-1.32925 9.0193,-8.53321 16.6054,-16.00882 7.58609,-7.47561 14.23062,-13.73792 14.76563,-13.91625 2.98337,-0.99445 -0.85842,3.26671 -17.54291,19.45792 -10.18359,9.88251 -20.78014,20.58376 -23.54789,23.78053 -2.76776,3.19677 -6.37637,7.28887 -8.01915,9.09356 -1.64278,1.80469 -5.86206,7.28906 -9.3762,12.1875 -3.51414,4.89844 -7.11227,9.5952 -7.99587,10.43724 -0.88358,0.84206 -4.52477,5.82538 -8.09151,11.07405 -12.53658,18.44832 -12.85031,20.31595 -0.49693,2.95822 4.18312,-5.8777 7.60568,-11.06417 7.60568,-11.52547 0,-0.4613 0.52734,-0.73572 1.17188,-0.60981 0.64453,0.1259 2.70184,-0.0759 4.57181,-0.44844 4.28969,-0.8546 8.31881,0.59391 8.31881,2.9907 0,2.15079 2.33551,3.2452 4.52104,2.11855 0.86499,-0.44591 3.26021,-1.10558 5.32271,-1.46593 2.0625,-0.36035 5.32298,-1.68151 7.24553,-2.9359 1.92254,-1.25439 3.78867,-2.28071 4.14696,-2.28071 0.35829,0 4.24856,-1.79297 8.64504,-3.98437 9.17837,-4.57493 20.74372,-14.59546 20.74372,-17.97294 0,-1.12348 0.35518,-2.44347 0.78929,-2.93332 0.43411,-0.48984 1.55494,-3.84375 2.49072,-7.45312 0.9358,-3.60938 2.26812,-6.89987 2.96071,-7.31221 0.69261,-0.41234 1.26965,-1.46703 1.28233,-2.34375 0.0127,-0.87672 0.87432,-4.12529 1.91474,-7.21904 2.5667,-7.63216 2.7931,-19.66269 0.43767,-23.25754 -2.37262,-3.62107 -0.81199,-4.52812 1.92267,-1.11746 1.90044,2.37022 2.25579,3.85036 2.25971,9.41241 0.005,6.58322 -2.10784,16.97707 -3.79369,18.66571 -0.48903,0.48985 -0.88915,1.78031 -0.88915,2.8677 0,1.08738 -0.6194,2.79598 -1.37644,3.79687 -0.75703,1.00089 -1.38984,2.39161 -1.40625,3.09049 -0.0164,0.69887 -1.11676,4.83421 -2.44524,9.18964 -3.70157,12.13553 -7.11766,15.30681 -28.15119,26.13378 -6.64929,3.42271 -12.57021,6.62162 -13.15758,7.10867 -0.58737,0.48706 -3.61736,1.33464 -6.73331,1.8835 -6.56762,1.15686 -6.82982,2.58689 -1.01796,5.55188 9.83766,5.0188 23.25115,6.64521 34.92257,4.23441 9.92612,-2.0503 14.10231,-3.82539 21.70915,-9.22749 9.18534,-6.52309 14.99044,-15.54604 17.87192,-27.77864 1.44205,-6.12186 1.49381,-7.82288 0.43621,-14.33532 -0.65999,-4.06409 -0.94784,-7.64139 -0.63967,-7.94958 1.2219,-1.2219 2.84255,5.27641 3.21001,12.87119 0.32626,6.74317 0.0143,9.12799 -1.96588,15.02675 -2.73344,8.14277 -7.60189,15.82349 -13.13672,20.72518 -5.04672,4.46942 -15.86881,10.48582 -21.24462,11.81066 -8.11515,1.99995 -20.12104,3.05699 -24.43359,2.15123 -10.329,-2.16941 -15.21705,-3.75604 -18.72658,-6.07854 l -3.77818,-2.50028 0.23538,3.54989 c 0.70658,10.65603 12.42443,21.19513 31.70297,28.51382 6.36912,2.4179 23.45326,0.3693 28.125,-3.37254 0.77344,-0.61949 2.7784,-1.66932 4.45548,-2.33296 6.14657,-2.43226 17.14033,-15.38263 20.92497,-24.64906 1.45399,-3.55998 2.70109,-3.2424 1.84074,0.46875 -1.2113,5.22509 -7.23361,14.28853 -12.99526,19.55763 -4.97025,4.54534 -7.84854,6.30687 -18.91343,11.57514 -1.80469,0.85925 -6.44531,2.02571 -10.3125,2.59212 -6.43223,0.9421 -7.5504,0.84852 -13.125,-1.09849 -13.71373,-4.78971 -30.77781,-17.38151 -32.41957,-23.92281 -0.8573,-3.41579 -2.02613,-2.93131 -3.3162,1.37454 -0.61793,2.0625 -1.47862,3.75 -1.91263,3.75 -1.39053,0 -0.84393,-4.66922 0.85152,-7.27408 1.63438,-2.511 1.633,-2.5153 -0.36016,-1.12668 -6.89847,4.80609 -14.67329,16.8116 -15.78041,24.36736 -1.10204,7.5211 4.04287,17.17633 11.7427,22.03702 1.94007,1.22472 4.60056,3.29992 5.91221,4.61157 1.31165,1.31164 3.05361,2.38481 3.87102,2.38481 0.81742,0 3.15036,0.84898 5.18431,1.88662 5.85198,2.98546 10.11906,3.70229 19.66471,3.30346 6.52272,-0.27252 10.78798,-1.0382 15.9375,-2.86103 z m -15.46875,-9.26587 c -2.57813,-0.63378 -5.74219,-1.71345 -7.03125,-2.39924 -3.53578,-1.88106 -14.0625,-10.39201 -14.0625,-11.36966 0,-1.71664 2.13032,-0.7699 7.41111,3.29357 8.20683,6.31502 12.75919,8.37533 18.76155,8.49113 13.75325,0.26533 32.47154,-7.66137 37.5692,-15.90956 2.07214,-3.3528 3.75814,-4.28159 3.75814,-2.07031 0,2.11302 -4.4724,7.39863 -8.64709,10.21936 -6.76884,4.57356 -15.58525,8.30708 -22.93899,9.71408 -8.14316,1.55805 -8.60318,1.55899 -14.82017,0.0306 z m -25.97642,-17.25739 c -3.69386,-3.67293 -7.2403,-12.15321 -6.64264,-15.88392 0.65805,-4.1076 2.15031,-3.87679 2.15031,0.3326 0,3.8849 3.92944,12.31928 6.61603,14.20105 1.75762,1.23107 2.5567,4.03801 1.11834,3.92839 -0.38671,-0.0294 -1.84563,-1.18962 -3.24204,-2.57812 z m 75.66392,-8.61829 c 0.31867,-0.51563 0.76545,-0.9375 0.99283,-0.9375 0.22738,0 0.41342,0.42187 0.41342,0.9375 0,0.51562 -0.44678,0.9375 -0.99283,0.9375 -0.54606,0 -0.73209,-0.42188 -0.41342,-0.9375 z m 9.84375,-15 c 0,-0.51563 0.42187,-0.9375 0.9375,-0.9375 0.51562,0 0.9375,0.42187 0.9375,0.9375 0,0.51562 -0.42188,0.9375 -0.9375,0.9375 -0.51563,0 -0.9375,-0.42188 -0.9375,-0.9375 z m 2.8125,-20.15625 c 0,-0.77344 0.42187,-1.40625 0.9375,-1.40625 0.51562,0 0.9375,0.63281 0.9375,1.40625 0,0.77344 -0.42188,1.40625 -0.9375,1.40625 -0.51563,0 -0.9375,-0.63281 -0.9375,-1.40625 z m 0,-9.78842 c 0,-1.06168 0.42187,-1.93033 0.9375,-1.93033 0.51562,0 0.9375,0.60791 0.9375,1.35092 0,0.74301 -0.42188,1.61166 -0.9375,1.93033 -0.51563,0.31867 -0.9375,-0.28924 -0.9375,-1.35092 z m -13.51552,-46.59576 c -0.78485,-2.0453 0.25724,-2.99597 1.36464,-1.24492 1.10863,1.75299 1.13223,2.78535 0.0636,2.78535 -0.46046,0 -1.1032,-0.6932 -1.42831,-1.54043 z m -5.60356,-11.19416 c -0.35038,-0.91304 -0.14085,-1.34164 0.54422,-1.11328 1.40142,0.46714 2.17303,2.59787 0.94078,2.59787 -0.50342,0 -1.17167,-0.66806 -1.485,-1.48459 z M 349.6875,336.5625 c 0,-0.51563 0.84375,-0.9375 1.875,-0.9375 1.03125,0 1.875,0.42187 1.875,0.9375 0,0.51562 -0.84375,0.9375 -1.875,0.9375 -1.03125,0 -1.875,-0.42188 -1.875,-0.9375 z m -83.625,-4.875 c 0.875,-0.875 1.375,-0.875 2.25,0 0.875,0.875 0.625,1.125 -1.125,1.125 -1.75,0 -2,-0.25 -1.125,-1.125 z M 330,330 c 0,-0.51563 0.42187,-0.9375 0.9375,-0.9375 0.51562,0 0.9375,0.42187 0.9375,0.9375 0,0.51562 -0.42188,0.9375 -0.9375,0.9375 C 330.42187,330.9375 330,330.51562 330,330 Z m -45.67898,-1.24565 c 0.44895,-1.34843 3.49148,-2.05205 3.49148,-0.80744 0,0.49331 -0.86784,1.12385 -1.92853,1.40123 -1.2268,0.32081 -1.79551,0.10475 -1.56295,-0.59379 z m 36.30398,0.30815 c 0,-0.51563 1.05469,-0.9375 2.34375,-0.9375 1.28906,0 2.34375,0.42187 2.34375,0.9375 0,0.51562 -1.05469,0.9375 -2.34375,0.9375 -1.28906,0 -2.34375,-0.42188 -2.34375,-0.9375 z m -28.59375,-1.875 c -0.31867,-0.51563 -0.13264,-0.9375 0.41342,-0.9375 0.54606,0 0.99283,0.42187 0.99283,0.9375 0,0.51562 -0.18604,0.9375 -0.41342,0.9375 -0.22738,0 -0.67416,-0.42188 -0.99283,-0.9375 z m 3.75,0 c -0.31867,-0.51563 0.0534,-0.9375 0.82685,-0.9375 0.77343,0 1.66698,0.42187 1.98565,0.9375 0.31867,0.51562 -0.0534,0.9375 -0.82685,0.9375 -0.77343,0 -1.66698,-0.42188 -1.98565,-0.9375 z m 7.47678,-1.83743 c 0.33144,-0.53628 1.70273,-0.97507 3.0473,-0.97507 2.93866,0 2.59869,0.44905 -0.99326,1.31195 -1.74251,0.4186 -2.44931,0.30268 -2.05404,-0.33688 z M 188.14042,427.32422 c -0.29927,-0.74787 -0.52142,-0.52573 -0.5664,0.56641 -0.0407,0.98827 0.18086,1.54199 0.49239,1.23047 0.31152,-0.31153 0.34482,-1.12013 0.074,-1.79688 z m -1.54785,-30.51629 c -0.57237,-10.18967 -1.4306,-30.76106 -1.90721,-45.71418 -0.47659,-14.95313 -1.29723,-34.65737 -1.82362,-43.78721 -0.5264,-9.12984 -1.19565,-22.84077 -1.48722,-30.46875 -0.29158,-7.62797 -0.70598,-14.7299 -0.9209,-15.78206 -0.21493,-1.05215 0.4818,-3.37246 1.54827,-5.15625 1.06648,-1.78378 1.38983,-2.71589 0.71858,-2.07136 -3.68535,3.53862 -3.63263,-1.7823 0.0921,-9.28941 3.21569,-6.48126 3.45171,-7.7971 1.24683,-6.95101 -2.47349,0.94917 -3.09119,-1.17151 -3.12028,-10.7127 -0.0332,-10.8872 -0.55389,-13.125 -3.05396,-13.125 -1.84923,0 -1.88063,0.36303 -1.2672,14.64712 1.14424,26.64391 1.51478,32.62876 3.09811,50.04038 1.04357,11.47579 0.88823,19.93966 -0.37382,20.36836 -0.62543,0.21246 -2.36027,-2.04326 -3.89999,-5.07097 -3.39152,-6.66906 -8.58025,-12.81529 -13.37309,-15.84089 -1.97691,-1.24795 -3.78717,-2.269 -4.02281,-2.269 -1.2313,0 0.95256,7.84535 3.784,13.59375 3.52594,7.15837 7.75002,11.11274 13.53454,12.67035 3.73596,1.00599 4.48739,2.31101 5.12003,8.89215 1.08013,11.23621 1.39234,18.25924 1.85464,41.71875 0.85749,43.51382 1.24518,53.25191 2.19035,55.01812 0.50054,0.93535 1.24422,3.81 1.65262,6.38813 1.32001,8.33272 1.47516,1.86342 0.41007,-17.09832 z M 174.70354,284.76802 c -3.90932,-5.68455 -7.97675,-9.45422 -11.63509,-10.78336 -2.93877,-1.0677 -2.69797,-0.70137 2.71582,4.13154 3.26728,2.91672 7.02954,7.02826 8.36056,9.13674 1.39658,2.21232 2.59154,3.31919 2.82553,2.61723 0.223,-0.66901 -0.79707,-2.96498 -2.26682,-5.10215 z m 13.51231,-37.2168 c 0.89535,-0.48746 3.10446,-1.13055 4.90915,-1.42909 6.408,-1.06007 15.54196,-9.73144 17.31136,-16.43463 l 0.61867,-2.34375 -1.69939,1.99854 c -1.32861,1.56249 -16.03091,11.42985 -18.96942,12.73123 -0.90862,0.40239 -4.97756,6.36398 -4.34359,6.36398 0.29992,0 1.27787,-0.39882 2.17322,-0.88628 z m 2.21624,-10.12935 c 1.16613,-1.48693 1.13297,-1.52009 -0.35397,-0.35396 -0.90234,0.70767 -1.64062,1.44596 -1.64062,1.64063 0,0.7716 0.76987,0.27498 1.99459,-1.28667 z m 10.76208,-4.47755 c 1.6021,-0.80758 4.0909,-2.69788 5.53066,-4.20067 l 2.61776,-2.73235 -3.65567,0.986 c -3.66482,0.98846 -9.02473,5.29258 -10.90997,8.76092 -0.97416,1.79221 -0.93385,1.80039 1.24882,0.2532 1.24051,-0.87932 3.56629,-2.25952 5.1684,-3.0671 z m -13.35423,-0.91307 2.60785,-3.75 -2.88015,3.24584 c -1.58407,1.78521 -2.88014,3.64849 -2.88014,4.14062 0,0.49213 0.12253,0.71901 0.2723,0.50417 0.14976,-0.21485 1.44583,-2.07813 2.88014,-4.14063 z m 5.2991,-1.8683 c 2.24764,-2.70695 2.25235,-2.74035 0.1335,-0.94798 -1.20792,1.02179 -2.63065,2.70627 -3.16163,3.74329 -1.01953,1.99116 -0.70538,1.70117 3.02813,-2.79531 z m -4.04367,-4.09203 c 1.2598,-1.21567 4.57694,-5.302 7.37144,-9.08072 2.79449,-3.77872 5.5061,-7.1332 6.02579,-7.45438 2.16018,-1.33506 0.73824,-2.29252 -1.63323,-1.09974 -1.41796,0.71321 -5.79351,2.28066 -9.72343,3.48322 l -7.1453,2.18646 0.17913,5.21275 c 0.42745,12.43791 0.49078,12.86557 1.6049,10.83774 0.56659,-1.03125 2.06091,-2.86965 3.3207,-4.08532 z m 22.03775,-17.40953 c 1.91228,-2.61532 4.27667,-5.59889 5.2542,-6.63014 0.97753,-1.03125 3.19164,-3.98438 4.92025,-6.5625 3.67244,-5.47725 10.27211,-13.73175 14.39115,-17.99964 1.59227,-1.64981 3.85949,-4.04542 5.03827,-5.32358 1.17878,-1.27816 3.37673,-2.59485 4.88434,-2.92597 3.94069,-0.86552 28.12867,-16.13005 28.12867,-17.75142 0,-0.4981 -0.50625,-0.39939 -1.125,0.21936 -0.61875,0.61875 -2.17359,1.125 -3.4552,1.125 -1.28161,0 -3.20114,0.81201 -4.26563,1.80445 -3.59263,3.34952 -14.09087,8.33872 -18.81042,8.9395 -2.57813,0.32818 -6.48047,1.053 -8.67188,1.61071 -3.5182,0.89537 -3.98437,1.32661 -3.98437,3.6857 0,1.46944 -0.71165,4.4732 -1.58144,6.67504 -2.27173,5.75076 -11.3964,19.31814 -15.59952,23.19478 -3.40226,3.13798 -17.50654,22.56269 -17.50654,24.11037 0,0.97225 8.02749,-8.21469 12.38312,-14.17166 z m -18.47687,-2.37205 c 1.03125,-0.41382 4.95563,-1.93352 8.72085,-3.37713 3.76522,-1.44361 6.99589,-2.86521 7.17927,-3.1591 0.18338,-0.2939 -2.75936,-0.3967 -6.53943,-0.22844 -3.9179,0.1744 -7.72059,-0.14778 -8.84462,-0.74935 -1.58597,-0.84878 -2.47141,-0.7074 -4.52519,0.72256 -3.85657,2.6852 -8.36025,3.93962 -14.14417,3.93962 -4.65369,0 -5.06428,0.15296 -3.80114,1.4161 2.66601,2.66602 16.61511,3.57824 21.95443,1.43574 z m -8.60981,-7.9601 c 1.96772,-0.70178 4.36692,-1.99022 5.33154,-2.86319 0.96463,-0.87297 2.19622,-1.31384 2.73687,-0.9797 0.54066,0.33415 3.4008,1.00104 6.35589,1.48199 14.88948,2.42333 27.32278,-9.581 25.12477,-24.25793 -0.55748,-3.72257 -1.46301,-5.14398 -6.13906,-9.63653 -3.01682,-2.89845 -5.78054,-6.44695 -6.14162,-7.88558 -0.88893,-3.54183 -12.32386,-13.50765 -17.19165,-14.98297 -1.69022,-0.51226 -0.66965,0.93743 3.9303,5.58287 8.68239,8.76825 11.97418,14.91572 12.62997,23.58667 0.62827,8.30726 -0.75663,13.89936 -4.59565,18.55674 -2.23024,2.70567 -3.4408,3.38089 -6.06144,3.38089 -1.80104,0 -4.09064,-0.43672 -5.08799,-0.97048 -0.99735,-0.53377 -1.81337,-0.60149 -1.81337,-0.15049 0,0.451 -1.05469,1.30055 -2.34375,1.88789 -2.93778,1.33854 -2.93855,0.82529 -0.005,-3.02141 4.00568,-5.2517 5.35638,-17.37753 2.93396,-26.33926 -0.69689,-2.57813 -3.645,-9.59506 -6.55138,-15.59319 -2.9062,-5.99813 -5.28414,-11.58797 -5.28414,-12.42188 0,-0.8339 -0.33515,-1.51618 -0.74477,-1.51618 -1.08007,0 -0.33869,16.73528 1.2252,27.65625 0.73838,5.15625 1.62183,14.80795 1.96323,21.44823 0.50529,9.82828 0.38905,11.996 -0.62514,11.65794 -0.86504,-0.28835 -1.32651,-2.68935 -1.50966,-7.85448 -0.14508,-4.09156 -0.91698,-14.18919 -1.71534,-22.43919 -0.79836,-8.25 -1.61166,-17.74219 -1.80734,-21.09375 -0.19568,-3.35156 -0.4092,-6.9375 -0.47448,-7.96875 -0.10313,-1.62885 -0.23473,-1.67648 -1.00243,-0.36278 -1.09726,1.87764 -4.80561,14.09323 -6.96014,22.92723 -1.71964,7.05094 -2.01058,18.2602 -0.6255,24.09952 1.18674,5.00311 5.25897,10.05478 8.10533,10.05478 2.57376,0 2.70799,0.29104 1.32556,2.87413 -1.11673,2.08662 -6.38767,2.51772 -8.2321,0.6733 -0.62703,-0.62704 -2.92625,-1.99814 -5.10937,-3.04688 -3.09451,-1.48657 -4.53749,-3.02857 -6.54743,-6.99678 -3.35665,-6.62703 -3.25309,-9.59603 0.70313,-20.15881 1.80469,-4.81835 3.28125,-9.06288 3.28125,-9.43228 0,-0.3694 1.05749,-2.84227 2.34998,-5.49528 l 2.34998,-4.82365 -2.38827,2.8125 c -6.65163,7.83313 -10.80774,14.68078 -12.04527,19.84591 -0.72036,3.00663 -1.77812,6.65421 -2.35058,8.10575 -2.21081,5.60575 -0.67777,11.81087 4.54822,18.40921 4.14983,5.23959 7.58342,6.56856 16.91094,6.54539 4.38281,-0.0109 9.57871,-0.59399 11.54644,-1.29577 z m -7.32769,-5.87533 c -5.54932,-1.34246 -9.99998,-9.75164 -10.31097,-19.48182 -0.21448,-6.71053 0.35339,-11.29021 2.73117,-22.02564 0.74123,-3.34663 1.22401,-6.20849 1.07283,-6.35968 -0.55104,-0.55103 -5.46229,10.74177 -8.11476,18.65886 -3.39732,10.14033 -3.49892,15.85549 -0.37282,20.97312 2.64619,4.33199 9.84399,8.80478 14.05705,8.7352 1.8958,-0.0313 2.20137,-0.19429 0.9375,-0.50004 z m 26.76178,-6.12579 c 4.0733,-4.3153 5.10159,-7.41361 5.05614,-15.23437 -0.0385,-6.62514 -0.39741,-8.15615 -3.07675,-13.125 -1.73652,-3.22039 -6.56053,-9.23192 -11.28458,-14.0625 -4.5383,-4.64063 -8.72774,-9.28125 -9.30988,-10.3125 -0.76835,-1.36111 -1.06626,-1.48185 -1.08695,-0.44055 -0.0157,0.78895 2.10031,5.64052 4.7022,10.78125 6.98354,13.79789 8.39429,18.59873 8.39429,28.56608 0,5.23248 -0.51316,9.72535 -1.33561,11.69375 -1.47195,3.52287 -1.04968,4.03938 3.40846,4.1692 1.49479,0.0435 3.36169,-0.79478 4.53268,-2.03536 z m -95.99292,-3.62786 c -6.68023,-2.25901 -12.244407,-5.66811 -14.251953,-8.73202 -0.824601,-1.2585 -1.786912,-4.29901 -2.138467,-6.7567 -0.6165,-4.30986 -0.850366,-4.58785 -6.587586,-7.83034 -3.271617,-1.84902 -7.122702,-4.93678 -8.557967,-6.86172 -3.376984,-4.5291 -4.071021,-2.77323 -1.791168,4.53154 0.962179,3.08288 1.75563,6.2825 1.763223,7.11027 0.01607,1.752 10.05291,12.97379 14.323965,16.01505 3.879715,2.76261 10.212393,4.38541 17.096093,4.38103 l 5.625,-0.004 -5.48114,-1.85353 z m 15.80309,-2.71555 c 0.32387,-0.52404 0.94997,-0.72962 1.39132,-0.45684 1.09273,0.67533 5.2884,-1.22137 10.05398,-4.54501 3.0169,-2.10408 4.32158,-3.86258 5.50161,-7.41531 1.10891,-3.33862 2.34077,-5.09126 4.35105,-6.19047 1.5423,-0.84333 3.7072,-2.27244 4.81088,-3.1758 1.69271,-1.38546 1.73306,-1.54664 0.2579,-1.03005 -1.39031,0.48686 -1.64732,0.247 -1.25374,-1.17004 1.24628,-4.48703 1.56329,-8.7396 0.80441,-10.79103 -0.73518,-1.98737 -0.94786,-1.67884 -1.89856,2.75412 -1.48112,6.90619 -2.2734,8.16119 -9.86688,15.62947 -9.57973,9.42176 -18.28814,12.48896 -27.88807,9.82248 -3.37876,-0.9385 -6.24484,-3.28849 -5.23828,-4.29505 0.28655,-0.28654 1.53423,0.1429 2.77262,0.95432 4.1578,2.72429 10.36373,2.90303 16.86976,0.48584 4.60334,-1.71028 7.34425,-3.62593 12.58503,-8.79578 6.38324,-6.29686 6.81927,-7.00819 9.22324,-15.04681 1.3878,-4.64062 3.1189,-9.82291 3.8469,-11.51618 3.4393,-7.99961 -0.31197,-2.94864 -8.20475,11.04743 -4.54229,8.0547 -11.55828,15.95626 -17.60829,19.83079 -3.19338,2.0451 -5.27584,2.66439 -8.90625,2.64862 -5.33863,-0.0232 -13.59438,-3.21711 -12.12187,-4.68962 0.58506,-0.58506 2.22466,-0.21858 4.6143,1.03139 4.75489,2.48721 12.16099,1.98341 16.52512,-1.12412 5.77578,-4.11272 13.33895,-13.57555 16.43861,-20.56754 1.0145,-2.28842 2.54592,-4.73977 3.40315,-5.44743 0.85724,-0.70767 1.55861,-1.68504 1.55861,-2.17194 0,-0.48689 1.11509,-2.43914 2.47798,-4.33833 2.40311,-3.34875 1.42191,-2.39397 -13.15061,12.79639 -7.78731,8.11746 -14.97092,12.63282 -24.78746,15.58052 -6.12144,1.83814 -9.03724,2.32894 -9.72863,1.63755 -0.691386,-0.69139 0.24263,-1.29222 3.11634,-2.0047 11.46216,-2.84184 15.53595,-4.45431 19.83126,-7.84956 5.09907,-4.03058 11.18267,-9.97041 17.45365,-17.0412 2.26534,-2.55425 6.83541,-6.87086 10.15572,-9.59246 7.02724,-5.76011 7.03303,-6.43378 0.0128,-1.4869 -15.85348,11.17127 -20.52237,14.35757 -21.11976,14.41328 -0.36712,0.0342 -2.56594,1.47811 -4.88625,3.2086 -6.99792,5.21909 -24.784762,17.2105 -26.510681,17.87279 -0.887878,0.34071 -1.597425,0.25793 -1.576772,-0.18395 0.03562,-0.76129 13.447643,-10.44921 18.633723,-13.45968 1.33238,-0.77344 4.07327,-2.67188 6.09085,-4.21875 2.01759,-1.54688 5.69408,-4.07813 8.16999,-5.625 7.78502,-4.86386 26.11802,-17.50278 26.65989,-18.37956 0.80154,-1.29691 -0.14225,-1.03085 -5.45597,1.53805 -2.70451,1.30748 -10.82353,4.7389 -18.04228,7.62539 -20.14178,8.05388 -31.89334,16.67113 -34.62224,25.38799 -0.701466,2.24069 -2.411653,2.9073 -2.405128,0.9375 0.0019,-0.64453 1.389431,-3.47533 3.082884,-6.29067 2.217264,-3.68614 4.905634,-6.37539 9.605494,-9.60861 6.17977,-4.2513 20.87111,-11.99134 22.76075,-11.99134 0.4819,0 3.35447,-1.10072 6.38347,-2.44604 3.02901,-1.34533 6.51501,-2.8337 7.74668,-3.30748 3.70286,-1.42439 1.72604,-1.76248 -2.27601,-0.38926 -2.04236,0.7008 -5.18995,1.41263 -6.99464,1.58186 -1.80469,0.16922 -4.33594,0.84018 -5.625,1.49102 -1.28906,0.65084 -3.90088,1.18595 -5.80404,1.18913 -1.90317,0.003 -3.70097,0.39519 -3.99513,0.87114 -0.29416,0.47596 -1.90108,1.16141 -3.57096,1.52324 -3.55549,0.7704 -15.14942,6.44181 -18.443717,9.02212 -5.382208,4.21571 -8.082702,12.94159 -5.313258,17.1683 0.849933,1.29715 1.123458,2.35847 0.607833,2.35847 -2.220787,0 -3.975404,-4.5847 -3.295278,-8.61034 1.356053,-8.0264 6.187681,-12.9863 18.25205,-18.73661 6.56416,-3.12871 13.34033,-5.40137 16.20486,-5.43494 1.43611,-0.0169 3.65277,-0.71313 4.9259,-1.54732 1.27314,-0.83419 3.91482,-1.49463 5.87039,-1.46764 1.95558,0.027 4.16862,-0.33872 4.91786,-0.81268 1.69674,-1.07336 2.05979,-1.07452 -13.16901,0.0419 -21.92996,1.60775 -34.385888,5.63042 -40.178678,12.9758 -3.594095,4.55738 -4.41918,8.58712 -2.512957,12.27336 1.547966,2.99343 0.668255,3.93166 -1.376422,1.46798 -1.642359,-1.97892 -1.629151,-8.17236 0.02423,-11.36419 3.58678,-6.92421 9.777956,-11.02729 20.969342,-13.89701 5.596,-1.43494 19.56262,-3.43768 22.13698,-3.17434 0.77344,0.0791 6.46875,0.0506 12.65625,-0.0633 13.30402,-0.24493 12.0473,-1.19281 -3.75,-2.82843 -6.1875,-0.64064 -12.12076,-1.50701 -13.18503,-1.92528 -1.06426,-0.41826 -2.6135,-0.38079 -3.44273,0.0833 -0.82925,0.46407 -4.81005,1.08107 -8.84624,1.37113 -12.525117,0.90009 -20.120663,4.41868 -29.253458,13.55147 -1.539871,1.53988 -3.657249,5.0916 -4.705285,7.89273 -1.802934,4.81877 -1.826476,5.36094 -0.437288,10.07052 1.717024,5.82101 6.984315,11.45683 13.62504,14.57834 4.38173,2.05976 5.463741,4.09883 5.463741,10.29663 0,2.76274 4.644028,7.42628 9.375,9.41437 6.05378,2.54398 18.13368,3.85027 19.2282,2.07929 z M 87.65625,149.0625 c -0.318674,-0.51563 -0.132634,-0.9375 0.413422,-0.9375 0.546055,0 0.992828,0.42187 0.992828,0.9375 0,0.51562 -0.186039,0.9375 -0.413422,0.9375 -0.227382,0 -0.674154,-0.42188 -0.992828,-0.9375 z M 146.25,175.60433 c 2.5276,-3.0993 3.9233,-6.53205 3.5876,-8.82379 -0.26823,-1.83116 -1.04093,-0.907 -4.15662,4.97135 -3.54131,6.6814 -3.26481,8.55343 0.56902,3.85244 z m 83.4375,-3.96515 c 0,-2.02033 0.25607,-4.34065 0.56905,-5.15625 0.43281,-1.12787 -0.0405,-1.48293 -1.97663,-1.48293 -2.27753,0 -2.48083,0.2584 -1.92999,2.45312 0.33863,1.34922 0.85898,3.66953 1.15632,5.15625 0.78612,3.93061 2.18125,3.31007 2.18125,-0.97019 z m -84.97107,-3.12356 c 1.40255,-2.44921 2.35011,-4.45312 2.10568,-4.45312 -0.80329,0 -4.06136,5.10742 -4.78433,7.5 -0.89011,2.94572 -0.49698,2.49856 2.67865,-3.04688 z m 112.77994,1.50858 c 7.83031,-3.09475 14.55351,-7.25964 20.06435,-12.42948 3.72281,-3.49244 3.87995,-3.79897 1.50123,-2.92852 -1.46123,0.53472 -2.99688,0.76203 -3.41254,0.50513 -0.99514,-0.61502 -8.63845,3.68394 -10.80372,6.07652 -0.93434,1.03243 -2.16075,1.87896 -2.72537,1.88116 -0.56461,0.002 -2.92501,1.26656 -5.24532,2.80965 -2.32031,1.5431 -6.2177,3.47199 -8.66085,4.28642 -2.44315,0.81443 -4.69882,1.89616 -5.01258,2.40384 -1.00195,1.62121 7.54107,0.0645 14.2948,-2.60472 z m -9.05887,-10.73914 c 5.61179,-1.88253 12.58726,-8.46164 16.01723,-15.10709 2.06543,-4.0017 2.50273,-14.65801 0.67645,-16.48429 -0.86676,-0.86676 -0.58006,-1.70104 1.27255,-3.70313 1.31526,-1.42136 3.35653,-4.34802 4.53617,-6.50368 3.0219,-5.52217 2.30677,-13.43664 -1.7464,-19.327723 -3.89227,-5.657216 -11.07403,-11.501778 -15.64615,-12.73292 -6.1954,-1.668247 -17.72223,0.859089 -24.79735,5.436984 -4.10066,2.653299 -16.1253,9.262739 -20.625,11.336679 -5.73451,2.6431 -7.04925,4.66686 -3.04687,4.69004 2.1808,0.0126 18.99797,-5.09954 25.07812,-7.623371 9.54361,-3.96149 18.69096,-4.73759 24.63949,-2.090521 1.91703,0.853078 3.84633,1.471087 4.28732,1.373362 2.03696,-0.451406 6.22944,5.87969 6.22944,9.40714 0,2.64318 -1.58994,2.0605 -2.31161,-0.84716 -0.78462,-3.16128 -3.93401,-6.69276 -7.03563,-7.889199 -5.79,-2.233472 -16.35024,-1.735209 -22.99651,1.085039 -1.03125,0.43759 -5.03906,1.85285 -8.90625,3.14503 -3.86719,1.29216 -8.50781,3.00192 -10.3125,3.79944 -3.17467,1.40296 -2.99198,1.43298 5.625,0.92446 17.03615,-1.00536 20.19182,-0.97052 26.25114,0.28981 3.87073,0.80511 8.2327,2.61944 11.95313,4.97182 5.80954,3.67328 6.84394,5.42892 4.95681,8.41294 -0.91648,1.44918 -0.86619,1.51842 -2.33505,-3.21494 -0.66218,-2.13387 -7.90259,-6.28054 -13.61283,-7.79623 -3.95826,-1.05066 -7.94928,-1.22733 -16.9007,-0.74814 -15.65512,0.83805 -23.65752,1.46077 -25.08626,1.95215 -0.64901,0.22321 -2.25516,-0.003 -3.56921,-0.50253 -1.31405,-0.4996 -2.16131,-0.53965 -1.8828,-0.089 0.55561,0.89898 8.82629,3.32172 10.47225,3.06763 0.56524,-0.0873 4.26968,0.89963 8.23208,2.19309 3.96241,1.29346 8.22112,2.35175 9.46383,2.35175 1.2427,0 2.52019,0.42187 2.83886,0.9375 0.31868,0.51562 1.63693,0.9375 2.92946,0.9375 1.29253,0 3.09516,0.39876 4.00584,0.88614 0.91068,0.48738 3.64973,0.98936 6.0868,1.11551 2.43707,0.12616 4.6485,0.58124 4.91429,1.01131 0.75661,1.22422 -12.42985,0.096 -17.3048,-1.48064 -10.00524,-3.23582 -20.52722,-6.21986 -21.93159,-6.21986 -0.82594,0 -4.07053,-0.79951 -7.21023,-1.77669 -3.13969,-0.97719 -5.70852,-1.65166 -5.70852,-1.49886 0,0.61042 6.74977,4.21305 7.89343,4.21305 0.67306,0 2.81633,1.26563 4.76282,2.8125 1.94649,1.54688 4.11387,2.8125 4.81641,2.8125 0.70254,0 1.27734,0.4434 1.27734,0.98534 0,0.54193 1.58203,1.62227 3.51562,2.40074 1.9336,0.77847 5.625,2.38562 8.20313,3.57144 2.57812,1.18583 5.74219,2.45935 7.03125,2.83005 1.28906,0.37071 3.77947,1.32375 5.53425,2.11786 2.3413,1.05955 5.18008,1.32868 10.66545,1.01114 6.51842,-0.37735 7.69704,-0.72162 9.21053,-2.69027 l 1.73558,-2.25755 0.0208,2.15722 c 0.0335,3.46673 -5.34533,5.18501 -14.49924,4.63179 -6.43497,-0.3889 -9.12303,-1.15428 -18.76116,-5.34189 -11.60165,-5.04074 -16.48498,-7.66723 -19.6299,-10.5579 -0.99957,-0.91875 -2.47613,-1.65765 -3.28125,-1.64196 -1.2171,0.0237 -1.1873,0.18958 0.17678,0.98408 1.58615,0.92385 2.32138,3.67491 0.98213,3.67491 -0.36217,0 -2.04967,-1.34839 -3.75,-2.99641 -2.84867,-2.76106 -3.09148,-2.83897 -3.09148,-0.99202 0,3.22322 7.41641,17.84032 11.36886,22.407 1.99712,2.30751 3.63114,4.80262 3.63114,5.5447 0,0.96421 1.14718,1.34923 4.0201,1.34923 5.82225,0 12.15617,3.43831 13.26489,7.20072 1.53729,5.2168 6.3473,5.79291 17.40251,2.08434 z m -10.84194,-8.23531 c -6.61085,-1.707 -14.09756,-6.38953 -21.65728,-13.54543 -7.92511,-7.50178 -10.35854,-10.58406 -9.2395,-11.7031 0.33039,-0.33038 2.5794,1.68562 4.99783,4.48 2.41842,2.79438 5.38427,5.94849 6.59076,7.00911 1.2065,1.06063 3.73775,3.29919 5.625,4.97456 1.88726,1.67538 3.97356,3.04648 4.63624,3.04688 0.66267,4e-4 2.13923,0.57862 3.28125,1.28493 3.36836,2.08325 13.23088,3.70081 18.10651,2.96967 4.58313,-0.68729 9.75113,-4.58176 9.75113,-7.34821 0,-0.74997 0.65934,-1.91079 1.4652,-2.57959 1.2895,-1.07019 1.38637,-0.88722 0.80782,1.52584 -0.90966,3.79401 -1.72357,5.20145 -4.52117,7.81821 -2.05677,1.92379 -3.51315,2.3048 -9.69547,2.53644 -4.00132,0.14991 -8.56806,-0.0612 -10.14832,-0.46931 z m 11.78431,-26.12787 c 0.003,-0.38672 3.59921,-0.78547 7.99231,-0.88611 4.82396,-0.11051 7.77055,0.16797 7.43981,0.70312 -0.64364,1.04144 -15.43928,1.21687 -15.43212,0.18299 z m 14.80242,-11.53389 c 0.22304,-1.51965 0.72101,-2.76299 1.10661,-2.76299 0.84041,0 0.0811,4.54133 -0.85621,5.12059 -0.36076,0.22296 -0.47343,-0.83796 -0.2504,-2.3576 z m -40.37979,46.03012 c -2.97894,-0.95208 -6.04719,-2.25469 -6.81834,-2.89469 -1.15397,-0.95771 -1.3033,-0.9062 -0.84386,0.29107 0.8036,2.09416 5.97514,4.39761 9.7972,4.36374 3.00659,-0.0266 2.82788,-0.17396 -2.135,-1.76012 z m -66.78174,-8.01186 c 3.86834,-8.38104 5.30898,-12.10052 6.67852,-17.24279 2.33405,-8.76367 0.78335,-6.1933 -3.37043,5.58666 -2.20214,6.24518 -5.01373,13.3211 -6.24798,15.72425 -1.23425,2.40316 -1.56449,3.52563 -0.73387,2.49438 0.83061,-1.03125 2.48381,-3.98438 3.67376,-6.5625 z m 71.72924,6.63896 c 0,-1.03534 -6.74382,-4.39303 -8.1936,-4.07953 -1.13994,0.24652 -0.34577,0.96857 2.5686,2.33533 4.32613,2.02886 5.625,2.43161 5.625,1.7442 z m -73.54505,-12.02959 c 0.88311,-2.70703 1.99894,-5.41979 2.47962,-6.02836 0.59261,-0.75026 0.22499,-1.45384 -1.14183,-2.18534 -1.10871,-0.59336 -2.21099,-0.88367 -2.44952,-0.64514 -0.65677,0.65676 -1.63128,13.78072 -1.02328,13.78072 0.29115,0 1.25191,-2.21484 2.13501,-4.92188 z m 116.14211,-3.57312 c 2.11779,-3.89107 2.62302,-6.15518 2.9242,-13.10438 0.20025,-4.62034 0.14474,-8.40062 -0.12335,-8.40062 -0.26809,0 -1.45903,1.04836 -2.64652,2.3297 -1.95375,2.10812 -2.11673,2.9898 -1.71366,9.27047 0.38995,6.07628 0.13587,7.61694 -2.03992,12.3695 -2.05046,4.47879 -2.17699,5.14966 -0.72311,3.83391 0.96924,-0.87715 2.9143,-3.71151 4.32236,-6.29858 z m 9.68609,1.5005 c 1.11747,-2.30009 2.53752,-6.92678 3.15565,-10.28153 0.99687,-5.41022 0.9312,-6.52684 -0.58109,-9.8805 -0.93774,-2.07954 -2.00829,-3.78097 -2.379,-3.78097 -0.37072,0 -0.95939,2.52231 -1.30817,5.60513 -0.69969,6.18449 -3.73915,16.25231 -5.79088,19.18156 -1.94576,2.77798 -1.64745,3.33831 1.77727,3.33831 2.73481,0 3.33058,-0.48603 5.12622,-4.182 z m -115.32612,-3.10837 c 1.63257,-2.90475 1.76923,-3.64713 0.67139,-3.64713 -0.75813,0 -1.37842,0.46328 -1.37842,1.02951 0,0.56622 -0.8951,2.69956 -1.9891,4.74073 -2.54576,4.74984 -0.0717,2.80161 2.69613,-2.12311 z m -6.34638,-4.66276 c -0.007,-0.38671 -0.42331,-1.33593 -0.92315,-2.10937 -0.73488,-1.13715 -0.91153,-1.0026 -0.92315,0.70312 -0.008,1.16016 0.40753,2.10938 0.92315,2.10938 0.51563,0 0.93104,-0.31641 0.92315,-0.70313 z m 35.11162,-2.33906 c -1.51444,-1.67321 -2.80687,-3.16796 -2.87208,-3.32168 -0.0652,-0.15372 -0.3728,0.38307 -0.68356,1.19286 -0.3822,0.99603 0.4144,2.06953 2.46231,3.31818 4.13131,2.51895 4.29177,2.3444 1.09333,-1.18936 z m -21.33185,-1.82109 c -0.29927,-0.74787 -0.52142,-0.52573 -0.5664,0.56641 -0.0407,0.98827 0.18086,1.54199 0.49239,1.23047 0.31152,-0.31153 0.34482,-1.12013 0.074,-1.79688 z M 161.25,130.20185 c 0,-0.51563 -0.42188,-0.67678 -0.9375,-0.3581 -0.51563,0.31868 -0.9375,1.00128 -0.9375,1.5169 0,0.51563 0.42187,0.67678 0.9375,0.3581 0.51562,-0.31868 0.9375,-1.00128 0.9375,-1.5169 z m 37.61633,-0.13935 c -0.92589,-0.919 -1.03357,-0.81132 -0.52481,0.52481 0.35206,0.92458 0.87627,1.44489 1.16492,1.15625 0.28865,-0.28865 6e-4,-1.04512 -0.64011,-1.68106 z m -8.80773,0.62109 c -0.31153,-0.31152 -1.12013,-0.34482 -1.79688,-0.074 -0.74787,0.29927 -0.52573,0.52142 0.56641,0.5664 0.98827,0.0407 1.54199,-0.18087 1.23047,-0.49239 z m -15.30915,-4.43402 c 0.4186,-1.74251 0.30268,-2.44931 -0.33688,-2.05404 -0.53628,0.33144 -0.97507,1.70273 -0.97507,3.04729 0,2.93867 0.44905,2.5987 1.31195,-0.99325 z m 16.24665,2.55902 c -0.31153,-0.31152 -1.12013,-0.34482 -1.79688,-0.074 -0.74787,0.29927 -0.52573,0.52142 0.56641,0.5664 0.98827,0.0407 1.54199,-0.18087 1.23047,-0.49239 z m -10.35568,-3.35937 c -0.29927,-0.74787 -0.52142,-0.52573 -0.5664,0.56641 -0.0407,0.98827 0.18086,1.54199 0.49239,1.23047 0.31152,-0.31153 0.34482,-1.12013 0.074,-1.79688 z m 15.41152,-0.45703 c -1.10516,-1.90051 -1.37204,-1.29221 -0.46737,1.06532 0.3215,0.83784 0.78205,1.32586 1.02343,1.08449 0.24138,-0.24138 -0.008,-1.2088 -0.55606,-2.14981 z m -28.68905,-3.49367 c 0.71358,-2.37106 0.94581,-4.31102 0.51606,-4.31102 -0.66293,0 -2.87895,6.93442 -2.87895,9.0089 0,1.60274 1.16194,-0.70741 2.36289,-4.69788 z m 24.00155,2.55617 c -1.10516,-1.90051 -1.37204,-1.29221 -0.46737,1.06532 0.3215,0.83784 0.78205,1.32586 1.02343,1.08449 0.24138,-0.24138 -0.008,-1.2088 -0.55606,-2.14981 z m -30.34297,-4.70163 c 2.13515,-1.944 3.0855,-3.50994 2.71542,-4.47435 -0.47886,-1.2479 -0.87569,-1.29407 -2.49716,-0.29057 -1.646,1.0187 -1.70149,1.24053 -0.37955,1.5175 1.18068,0.24737 0.46478,1.46469 -3.01534,5.12731 -4.48514,4.72036 -3.3065,4.02286 3.17663,-1.87989 z m 15.04372,0.92721 c 0.1674,-1.12993 -0.36869,-2.16706 -1.30606,-2.52676 -2.06627,-0.79291 -2.18964,-0.59747 -1.59081,2.52006 0.56464,2.93954 2.46173,2.94392 2.89687,0.007 z m 19.99341,-3.34667 c -1.56082,-1.56082 -2.44481,-0.0101 -0.99208,1.7403 0.8786,1.05865 1.38674,1.18508 1.64531,0.40937 0.20576,-0.61728 -0.0882,-1.58464 -0.65323,-2.14967 z m -9.21336,0.0195 c -1.05549,-1.16016 -2.15042,-2.74219 -2.43315,-3.51563 -0.44324,-1.2125 -0.52426,-1.20456 -0.58807,0.0576 -0.0722,1.42801 3.15808,5.5674 4.34467,5.5674 0.32761,0 -0.26795,-0.94921 -1.32345,-2.10937 z m 4.57663,-2.78126 c -0.67271,-0.67271 -1.10937,-0.72806 -1.10937,-0.14062 0,1.25135 1.1087,2.36005 1.73437,1.73437 0.26641,-0.2664 -0.0148,-0.98358 -0.625,-1.59375 z m -15.54932,-2.37496 c 0.0968,-3.72696 -1.17766,-17.343052 -2.11252,-22.570033 -0.33945,-1.89793 -0.89488,-2.779489 -1.42024,-2.25414 -1.46107,1.46107 -2.64104,16.893193 -1.67941,21.963873 1.0642,5.61145 1.4881,6.37592 3.53558,6.37592 1.19066,0 1.60801,-0.87515 1.67659,-3.51562 z m -20.7163,1.64062 c 0.68531,-1.10886 -0.23205,-1.10886 -2.8125,0 -1.80772,0.7768 -1.80129,0.80808 0.17904,0.8716 1.12973,0.0363 2.31478,-0.35597 2.63346,-0.8716 z m 27.38784,-5.07491 c 2.25313,-4.35708 1.14774,-10.679187 -3.1029,-17.746406 -2.01293,-3.346752 -3.82522,-5.919655 -4.02731,-5.717563 -0.2021,0.202092 0.21977,3.014608 0.93746,6.250035 0.71771,3.235422 1.30491,9.754914 1.30491,14.487764 0,8.31724 0.0581,8.55259 1.73661,7.03346 0.95513,-0.86444 2.37318,-2.80272 3.15123,-4.30729 z m 6.83091,4.70646 c 0,-0.71827 -0.65955,-1.55904 -1.46567,-1.86838 -0.80612,-0.30934 -1.20309,-0.98728 -0.88218,-1.50655 0.32093,-0.51926 0.13674,-0.94412 -0.40932,-0.94412 -1.32184,0 -1.25486,1.48087 0.17019,3.76272 1.35222,2.16526 2.58698,2.4308 2.58698,0.55633 z m -28.5552,-0.63142 c 0.88492,-1.43184 0.18415,-1.81791 -2.17832,-1.20011 -1.13184,0.29598 -1.8268,0.91206 -1.54436,1.36906 0.70848,1.14633 2.97332,1.04355 3.72268,-0.16895 z m 7.46145,-11.61072 c 0,-8.837836 0.35051,-12.959718 1.17187,-13.780648 1.30588,-1.305187 1.54576,-2.671769 0.46875,-2.670309 -1.24624,0.0017 -5.85937,9.103408 -5.85937,11.560559 0,1.308413 -0.43078,3.511969 -0.95729,4.896788 -0.96399,2.53548 0.47753,8.8542 2.01995,8.8542 0.37729,0 0.95378,0.84375 1.28109,1.875 1.34542,4.23905 1.875,1.20686 1.875,-10.73559 z M 146.25,109.7034 c -4.4842,-1.00207 -14.3836,-1.89951 -13.72868,-1.24458 0.61235,0.61235 10.03976,1.90659 14.19743,1.94908 2.70202,0.0277 2.6836,-5e-5 -0.46875,-0.7045 z m 60.70312,-0.66215 c -0.90234,-0.2358 -2.3789,-0.2358 -3.28125,0 -0.90234,0.23581 -0.16406,0.42875 1.64063,0.42875 1.80469,0 2.54297,-0.19294 1.64062,-0.42875 z m -48.28561,-2.31124 C 157.4438,105.5063 146.25,104.85159 146.25,106.00374 c 0,0.86347 3.38032,1.46803 9.32812,1.66829 3.15378,0.1062 3.90771,-0.1237 3.08939,-0.94202 z m 40.58979,0.0826 c 1.009,-1.6326 -0.14017,-1.97835 -1.42599,-0.42904 -0.73946,0.89099 -0.81059,1.42891 -0.18893,1.42891 0.54833,0 1.27504,-0.44994 1.61492,-0.99987 z M 141.09375,105 c 0.36223,-0.58611 -1.28615,-0.88472 -4.39779,-0.7967 l -4.97721,0.14082 L 135.9375,105 c 2.32031,0.36074 4.29932,0.71925 4.39779,0.7967 0.0985,0.0774 0.43978,-0.28107 0.75846,-0.7967 z m 49.69501,-2.82466 c 0.33169,-0.53667 -0.44994,-0.46998 -1.82278,0.15553 -1.32191,0.6023 -2.40348,1.4641 -2.40348,1.9151 0,0.95929 3.3759,-0.69471 4.22626,-2.07063 z M 136.02,100.23 c 2.34111,-2.341106 0.22928,-3.986831 -4.07884,-3.178622 -2.21655,0.415828 -4.47288,0.036 -7.33669,-1.235203 -2.27464,-1.009641 -6.24509,-2.586384 -8.82322,-3.503873 -2.57812,-0.917488 -6.12625,-2.428987 -7.88472,-3.358888 -3.59063,-1.898758 -5.209,-1.522581 -3.908,0.908375 1.01672,1.899755 9.96095,10.417401 11.04943,10.522441 2.05179,0.198 4.25293,0.78167 4.72387,1.2526 0.29014,0.29013 3.69184,0.46737 7.55932,0.39386 5.36303,-0.10194 7.42744,-0.52928 8.69885,-1.80069 z m 4.12961,1.03073 c 0.32845,-0.53143 -0.0479,-0.68859 -0.88217,-0.36844 -1.62414,0.62324 -1.9213,1.29521 -0.57277,1.29521 0.48519,0 1.13992,-0.41705 1.45494,-0.92677 z m 14.53789,-1.05888 c 0,-0.515628 -0.42188,-0.676775 -0.9375,-0.3581 -0.51563,0.31868 -0.9375,1.00128 -0.9375,1.5169 0,0.51563 0.42187,0.67678 0.9375,0.3581 0.51562,-0.31868 0.9375,-1.00128 0.9375,-1.5169 z m 4.2573,0.98578 c 1.009,-1.632602 -0.14017,-1.978352 -1.42599,-0.42904 -0.73946,0.89099 -0.81059,1.42891 -0.18893,1.42891 0.54833,0 1.27504,-0.44994 1.61492,-0.99987 z m -51.1323,-1.335771 c 0,-0.25335 -1.44546,-2.354287 -3.21212,-4.66874 -1.76667,-2.314463 -3.46928,-5.018361 -3.7836,-6.008665 -0.3143,-0.990303 -1.592071,-2.056707 -2.839471,-2.369784 -6.245681,-1.567567 -10.539014,-15.167317 -6.316297,-20.007795 1.966374,-2.254046 4.395754,-2.748619 5.413391,-1.102057 0.664472,1.075151 3.238097,-3.122116 3.238097,-5.280952 0,-1.782569 4.38981,-6.645483 5.23644,-5.800794 0.38965,0.388752 -0.16355,1.654377 -1.22934,2.8125 -1.06579,1.158122 -2.44957,4.437819 -3.07506,7.288215 -1.04822,4.776713 -0.96806,5.547535 1.02367,9.84375 1.18851,2.563666 2.97188,5.781263 3.96303,7.150212 0.99114,1.368949 1.52802,2.932447 1.19305,3.474438 -0.81525,1.319101 2.54653,3.349494 8.82571,5.330408 2.83594,0.894663 5.8888,1.989077 6.78415,2.432032 0.89535,0.442955 2.57532,0.805373 3.73326,0.805373 1.77627,0 1.52181,-0.391838 -1.62791,-2.506895 -6.94664,-4.664702 -13.70724,-10.947829 -15.39393,-14.306738 -4.06445,-8.093989 -4.84997,-24.435821 -1.17461,-24.436484 0.35628,-6.4e-5 0.64779,4.141208 0.64779,9.202828 0,7.941246 0.3169,9.819527 2.31153,13.700349 1.27134,2.473572 3.80259,5.607244 5.625,6.963714 1.82241,1.356469 3.52441,2.743288 3.78222,3.081818 3.34667,4.39446 20.81159,11.136192 25.22242,9.736242 2.82476,-0.89654 2.42075,-2.046825 -0.9561,-2.722193 -1.60664,-0.321329 -4.29624,-1.745157 -5.9769,-3.164063 -1.68065,-1.418905 -5.63956,-4.6243 -8.79758,-7.123099 -3.15801,-2.498801 -5.74184,-4.845032 -5.74184,-5.213849 0,-0.368818 -0.74515,-1.488408 -1.65591,-2.487979 -3.18537,-3.496032 -9.72964,-15.520033 -10.27452,-18.877701 -0.75898,-4.677066 1.23845,-3.299357 2.61199,1.801599 0.57476,2.134486 2.06278,5.378668 3.30673,7.209293 1.24394,1.830626 2.26171,3.787176 2.26171,4.347889 0,1.457646 9.84577,11.671909 16.02443,16.624185 5.25902,4.215171 13.05745,6.949308 16.28668,5.710135 0.79139,-0.303685 1.43889,-0.130879 1.43889,0.384014 0,1.005895 4.60519,2.471754 5.3682,1.708731 0.2527,-0.252701 -0.95723,-1.125773 -2.68874,-1.940162 C 151.22093,88.550957 146.78068,85.388852 141.29313,79.994733 127.69385,66.626996 111.05802,45.9375 113.90869,45.9375 c 0.73783,0 6.32245,6.40049 11.84023,13.569996 7.5382,9.794745 19.39277,21.889418 25.03192,25.538942 2.74978,1.779589 5.22407,3.011149 5.49842,2.736801 1.42467,-1.424677 -12.71271,-23.27641 -19.69082,-30.435478 -5.62208,-5.767892 -6.95186,-6.630931 -13.23268,-8.58816 -2.53713,-0.790624 -4.80671,-2.018694 -5.04349,-2.729046 -0.2368,-0.710398 -0.002,-1.026448 0.52276,-0.702391 0.5243,0.324037 0.89544,-0.08831 0.82475,-0.916323 -0.30755,-3.602448 16.56991,-5.641191 19.75682,-2.386562 0.92243,0.942028 3.23598,2.872838 5.1412,4.290688 5.04282,3.752802 8.56013,9.589972 12.48241,20.715283 0.6455,1.830902 0.67687,1.832509 1.33406,0.06833 0.68281,-1.833008 -1.33222,-12.380819 -2.69736,-14.119447 -0.40978,-0.521889 -1.26657,-2.567104 -1.90398,-4.544922 -1.39135,-4.317278 -5.78392,-9.53509 -9.75635,-11.589312 -6.40851,-3.31397 -17.42413,-1.323809 -23.92565,4.322584 -2.35159,2.042292 -3.84093,2.500785 -3.84093,1.182432 0,-1.457057 4.21782,-4.538253 9.63501,-7.038551 13.33893,-6.156582 24.43475,-0.79613 31.02891,14.99025 1.32593,3.174252 2.69468,7.546807 3.04167,9.716787 0.4764,2.979246 0.83541,3.579994 1.466,2.453182 1.43979,-2.572766 0.92633,-12.991573 -0.95754,-19.429718 -2.18778,-7.476751 -3.42523,-9.859802 -7.51472,-14.471706 -8.21695,-9.266628 -27.01588,-4.754369 -36.49585,8.760006 -1.69277,2.413169 -4.13847,5.915 -5.43489,7.781845 -1.89638,2.730794 -3.12729,3.500265 -6.29723,3.936559 -5.422813,0.746365 -9.267698,2.843876 -13.208139,7.205473 -4.236643,4.689456 -5.869213,8.618825 -7.014406,16.882682 -1.483141,10.70254 1.442018,18.133394 9.176686,23.311756 2.835118,1.898119 14.136999,4.618166 14.136999,3.402375 z m 93.70672,-6.310056 c 15.48865,-8.397809 28.22164,-18.029222 29.60744,-22.395478 0.40731,-1.283351 0.0403,-2.324904 -1.11975,-3.17794 -1.48181,-1.089604 -1.70548,-2.504034 -1.58279,-10.009277 0.16656,-10.189657 1.68878,-15.340297 5.14573,-17.411234 2.2664,-1.357723 2.75316,-1.35187 5.74767,0.06912 3.5782,1.697966 4.40732,3.581255 4.40603,10.008006 -9.3e-4,5.694059 -2.27844,11.852761 -5.89271,15.936149 -1.6429,1.856138 -4.41875,5.674365 -6.16854,8.484949 -1.74981,2.810583 -5.22429,6.797652 -7.72108,8.860152 -2.49678,2.0625 -4.5456,4.139945 -4.55291,4.616544 -0.007,0.4766 0.93591,0.0355 2.09606,-0.980207 1.16016,-1.015712 3.27369,-2.42839 4.69674,-3.139281 1.42305,-0.710891 5.03748,-4.488549 8.03207,-8.394793 9.27481,-12.09839 14.50577,-23.167561 17.14495,-36.280198 1.40606,-6.985939 0.5505,-9.621201 -4.91613,-15.142483 -5.16375,-5.21537 -8.3557,-6.432575 -12.9191,-4.926515 -4.54302,1.499328 -6.61689,0.793878 -9.1369,-3.108012 -4.50719,-6.978772 -13.21429,-7.8123337 -23.78366,-2.276894 -9.93555,5.203495 -20.44851,20.497882 -22.41304,32.60679 -1.52823,9.419654 -1.17084,14.612511 1.77145,25.738815 1.49462,5.651948 2.51232,10.608239 2.26156,11.013981 -0.25077,0.405743 0.24075,1.687673 1.09224,2.848733 1.45719,1.986963 1.50722,1.422351 0.85118,-9.60773 -1.09726,-18.448303 -1.06273,-19.823255 0.64733,-25.78125 2.59521,-9.04189 4.72142,-14.53125 5.62843,-14.53125 0.97432,0 0.13643,4.077989 -1.54101,7.5 -2.68005,5.467391 -3.52652,12.496583 -3.0364,25.214494 0.27034,7.014841 0.94383,13.899477 1.49664,15.299191 0.55283,1.399716 0.66092,2.757669 0.24023,3.017674 -0.42069,0.260006 -0.83948,3.183207 -0.93061,6.496003 l -0.16571,6.023256 3.97004,-1.367781 c 2.18352,-0.752287 7.15357,-3.093872 11.04455,-5.203534 z M 187.5,94.742831 c 0,-0.485193 0.40345,-1.13152 0.89656,-1.436276 0.49311,-0.304756 0.66941,-1.14601 0.3918,-1.869454 -0.5516,-1.437441 2.53014,-8.437415 15.07838,-34.249601 3.90751,-8.037887 4.33406,-8.414752 2.65271,-2.34375 -0.2856,1.03125 -2.51817,6.09375 -4.96128,11.25 -2.4431,5.15625 -5.34565,11.484375 -6.45012,14.0625 -1.10447,2.578125 -2.64847,5.904796 -3.43111,7.392603 -2.19532,4.17332 -0.99093,3.907007 2.49862,-0.552496 1.73338,-2.215184 3.49161,-4.449482 3.90718,-4.965107 1.96085,-2.432948 7.79902,-11.860568 10.74033,-17.34375 3.59164,-6.695508 4.92693,-8.518541 4.92693,-6.726596 0,3.723137 -15.14386,28.212055 -19.64948,31.774906 -2.18631,1.72883 -0.4349,1.42346 2.51745,-0.438935 7.8888,-4.976407 20.84196,-15.589028 23.67601,-19.397932 1.79451,-2.411772 3.40192,-3.967493 3.57203,-3.45716 0.73726,2.211772 -6.69752,9.93911 -16.67851,17.334823 -5.92969,4.393777 -11.90266,8.85712 -13.27328,9.91854 -2.56339,1.98512 -6.41422,2.614107 -6.41422,1.047685 z m 0.6896,-10.928237 c -0.71948,-0.719467 0.21197,-3.189594 1.20274,-3.189594 0.79975,0 0.69098,2.416686 -0.14645,3.254115 -0.27274,0.272737 -0.74807,0.243702 -1.05629,-0.06452 z m 0.6225,-6.429497 c 1.04072,-4.146523 2.47948,-7.343515 3.0487,-6.774299 0.30709,0.307085 0.22625,1.314812 -0.17963,2.239395 -0.98221,2.237403 -1.11378,2.759085 -1.25148,4.962307 -0.0644,1.03125 -0.5848,1.875 -1.15632,1.875 -0.6353,0 -0.81456,-0.894778 -0.46127,-2.302403 z m 2.79895,-13.400722 c 0.26808,-0.902344 0.76412,-2.800781 1.10231,-4.21875 0.3382,-1.417969 0.9806,-2.578125 1.42757,-2.578125 0.45538,0 0.46008,0.927359 0.0107,2.109375 -0.91021,2.394013 -1.02662,2.952103 -1.02662,4.921875 0,0.773437 -0.4503,1.40625 -1.00068,1.40625 -0.55037,0 -0.78134,-0.738281 -0.51327,-1.640625 z M 195.21757,51.5625 c 0.64402,-1.03125 1.50619,-1.875 1.91593,-1.875 0.40973,0 0.29341,0.84375 -0.2585,1.875 -0.55191,1.03125 -1.41408,1.875 -1.91593,1.875 -0.50545,0 -0.39014,-0.836364 0.2585,-1.875 z M 216.5625,50.625 c 0,-0.515625 0.42187,-0.9375 0.9375,-0.9375 0.51562,0 0.9375,0.421875 0.9375,0.9375 0,0.515625 -0.42188,0.9375 -0.9375,0.9375 -0.51563,0 -0.9375,-0.421875 -0.9375,-0.9375 z m -18.75,-5.378852 c 0,-1.406744 2.74974,-4.594618 2.78269,-3.226058 0.0164,0.681361 -0.603,1.871651 -1.37644,2.645088 -0.77344,0.773438 -1.40625,1.034875 -1.40625,0.58097 z m 22.50434,-1.418023 c 0.007,-1.718006 4.2807,-11.925666 5.50739,-13.152359 1.32729,-1.327284 1.31206,-1.111415 -0.28303,4.011734 C 224.17113,39.087961 221.40293,45 220.71259,45 c -0.22005,0 -0.39814,-0.527344 -0.39575,-1.171875 z m 25.38218,-5.9375 c 0.045,-1.092134 0.26713,-1.314281 0.5664,-0.566406 0.27081,0.676758 0.23751,1.485351 -0.074,1.796875 -0.31153,0.311523 -0.5331,-0.242188 -0.4924,-1.230469 z M 212.8125,36.500868 c 0,-1.620631 1.86424,-4.625868 2.86956,-4.625868 0.51073,0 0.27411,1.265625 -0.52581,2.8125 -1.50084,2.902313 -2.34375,3.554472 -2.34375,1.813368 z m 31.875,-1.813368 c 0,-0.515625 0.42187,-0.9375 0.9375,-0.9375 0.51562,0 0.9375,0.421875 0.9375,0.9375 0,0.515625 -0.42188,0.9375 -0.9375,0.9375 -0.51563,0 -0.9375,-0.421875 -0.9375,-0.9375 z m -7.08913,-3.897253 c -0.88132,-1.723698 -2.17805,-3.471367 -2.88163,-3.883706 -0.70359,-0.412341 -1.27924,-1.36156 -1.27924,-2.109375 0,-3.517794 4.2612,0.447531 5.63737,5.245937 1.20705,4.20878 0.48121,4.576079 -1.4765,0.747144 z M 195,31.09307 c 0,-0.563593 2.46497,-3.076086 5.47772,-5.583317 6.38875,-5.31678 11.94543,-7.236296 17.49103,-6.042161 l 3.75,0.807486 -5.87092,0.630543 c -6.54834,0.7033 -10.95611,2.742186 -16.86346,7.800463 C 196.79297,30.582518 195,31.656662 195,31.09307 Z m 47.71426,-2.210968 c -1.19778,-1.705469 -2.50943,-3.241477 -2.91477,-3.413352 -1.05682,-0.448116 -0.91092,-2.03125 0.18721,-2.03125 1.15234,0 6.09797,7.352833 5.40902,8.041784 -0.27703,0.277018 -1.48367,-0.891713 -2.68146,-2.597182 z m -37.40176,1.68695 c 0,-0.202646 0.63281,-0.611281 1.40625,-0.908076 0.77344,-0.296797 1.40625,-0.130995 1.40625,0.368447 0,0.499442 -0.63281,0.908077 -1.40625,0.908077 -0.77344,0 -1.40625,-0.165802 -1.40625,-0.368448 z m 13.125,-5.256552 c 0,-0.515625 0.42187,-0.9375 0.9375,-0.9375 0.51562,0 0.9375,0.421875 0.9375,0.9375 0,0.515625 -0.42188,0.9375 -0.9375,0.9375 -0.51563,0 -0.9375,-0.421875 -0.9375,-0.9375 z m -20.49683,73.323975 c -0.67635,-0.22545 -1.67547,0.03581 -2.22025,0.580603 -0.69569,0.695691 -0.32966,0.817692 1.22973,0.409913 1.26769,-0.33151 1.69266,-0.756469 0.99052,-0.990516 z M 211.40625,94.6875 c 0.31868,-0.515625 0.13264,-0.9375 -0.41342,-0.9375 -0.54606,0 -0.99283,0.421875 -0.99283,0.9375 0,0.515625 0.18604,0.9375 0.41342,0.9375 0.22738,0 0.67415,-0.421875 0.99283,-0.9375 z M 160.9299,89.296875 c -0.23692,-0.386719 -1.94399,-6.510277 -3.79349,-13.607906 -4.3175,-16.568704 -7.57629,-22.913762 -15.00005,-29.20602 -4.30958,-3.652732 -4.80229,-3.826699 -10.83776,-3.826699 -4.05654,0 -6.89261,0.472802 -7.91229,1.319059 -1.43572,1.191537 -1.04021,1.58263 4.09103,4.045387 3.12422,1.499481 7.78212,4.828049 10.35089,7.396818 5.28735,5.287357 14.9893,19.364064 18.66579,27.082486 2.83204,5.945574 3.74354,7.5 4.39788,7.5 0.25782,0 0.27492,-0.316406 0.038,-0.703125 z M 81.1543,76.637076 c 0.06952,-9.951646 2.263167,-16.928923 7.104352,-22.596573 3.00547,-3.518552 8.985579,-7.733769 9.806801,-6.912548 0.256763,0.256758 2.449417,-0.240782 4.872567,-1.105644 3.01294,-1.075368 4.99847,-2.536989 6.28073,-4.623468 3.73486,-6.077343 8.24492,-10.913646 13.87358,-14.877145 6.21556,-4.376764 10.27601,-5.867345 16.12642,-5.919978 4.87112,-0.04382 2.82874,-1.190576 -4.97136,-2.791313 -3.84767,-0.78962 -9.08012,-1.016865 -15,-0.651451 -7.81229,0.482225 -9.85507,0.976252 -14.52179,3.511944 -2.98684,1.622929 -6.344181,4.186408 -7.460725,5.696622 -1.116553,1.510213 -2.522231,2.556991 -3.123731,2.326174 C 91.46866,27.668167 79.737052,44.016383 77.73031,51.5625 76.02603,57.971251 75.624663,69.23484 76.895137,75 c 0.961257,4.361992 3.266719,10.321129 3.988313,10.308951 0.115665,-0.002 0.237547,-3.904296 0.27085,-8.671875 z M 94.708669,75.413308 C 93.490053,72.292045 92.8859,71.48443 92.856351,72.937181 c -0.04434,2.180302 2.588171,8.1808 3.283843,7.485124 0.207318,-0.207317 -0.436866,-2.461366 -1.431525,-5.008997 z m 77.474721,-0.647683 c -0.26007,-0.644531 -0.47287,-0.117188 -0.47287,1.171875 0,1.289062 0.2128,1.816406 0.47287,1.171875 0.26007,-0.644531 0.26007,-1.699219 0,-2.34375 z M 96.642066,72.089235 C 96.14805,70.854218 95.717109,70.33659 95.684428,70.93895 c -0.07941,1.463075 1.012716,4.23891 1.482778,3.768842 0.205191,-0.205189 -0.03112,-1.38354 -0.52514,-2.618557 z m 69.704824,-3.814409 c 1.52417,-3.055269 1.76178,-9.520309 0.52811,-14.368576 -0.69093,-2.715296 -0.71953,-2.682894 -0.82768,0.9375 -0.0616,2.0625 -0.69416,6.802481 -1.40567,10.533291 -1.34188,7.036216 -0.8101,7.939892 1.70524,2.897785 z m 4.92779,-0.522609 c -0.2377,-0.912157 -0.44781,-0.392842 -0.46691,1.154033 -0.0191,1.546875 0.17536,2.293185 0.43217,1.658467 0.2568,-0.634718 0.27243,-1.900343 0.0348,-2.8125 z m 2.8125,-5.625 c -0.2377,-0.912157 -0.44781,-0.392842 -0.46691,1.154033 -0.0191,1.546875 0.17536,2.293185 0.43217,1.658467 0.2568,-0.634718 0.27243,-1.900343 0.0348,-2.8125 z m 59.67544,-1.424092 c 0.93874,-5.358355 0.99268,-15.242069 0.082,-15.039921 -1.12816,0.250446 -3.21133,13.208471 -2.56858,15.977421 0.70444,3.03469 1.86742,2.596204 2.4865,-0.9375 z m -63.39093,-7.94784 c -0.20295,-1.945094 -0.3724,-0.58341 -0.37656,3.025965 -0.004,3.609375 0.16189,5.200816 0.36899,3.536535 0.2071,-1.66428 0.21051,-4.617405 0.007,-6.5625 z m 69.50861,1.013298 c 1.10857,-9.561372 -0.55052,-12.116794 -2.47962,-3.819257 -1.28372,5.521546 -1.475,9.413856 -0.51006,10.378799 1.26037,1.260359 2.36369,-1.160412 2.98968,-6.559542 z M 167.31422,36.84452 c -0.2751,-5.001139 -0.65208,-9.244876 -0.83772,-9.430526 -0.72534,-0.725334 -1.61752,12.934728 -1.02193,15.64646 1.32735,6.043399 2.3466,2.636543 1.85965,-6.215934 z m 3.78988,-2.867563 c -0.3586,-2.870204 -1.04688,-6.099349 -1.5295,-7.17588 -0.78469,-1.750328 -0.82648,-1.709461 -0.39509,0.386423 0.26531,1.289062 0.50098,5.296875 0.52369,8.90625 0.0323,5.135807 0.25998,6.186316 1.04712,4.832129 0.62119,-1.068697 0.75647,-3.725884 0.35378,-6.948922 z m 72.18829,-21.03759 C 237.50696,6.5045831 236.99207,6.1873099 229.02425,4.1475468 l -6.75701,-1.7297937 -6.83674,2.2931259 -6.83675,2.2931258 6.65708,0.4823727 c 3.83308,0.2777456 7.4069,1.0789168 8.42468,1.8886225 3.01893,2.401741 5.01078,5.086165 5.0433,6.796875 0.0373,1.961025 1.13827,2.060042 4.53087,0.407484 1.39237,-0.678227 3.16438,-1.184598 3.93782,-1.125271 3.33672,0.255952 8.50221,1.704654 9.01048,2.527063 0.30375,0.491477 0.77485,0.671027 1.04687,0.399001 0.27203,-0.272026 -1.50658,-2.720379 -3.95246,-5.440785 z"
     id="path4166"
     inkscape:connector-curvature="0" />
</svg>
