<svg width="280" height="255" xmlns="http://www.w3.org/2000/svg">

 <g>
  <title/>
  <path id="imagebot_24" d="M 250.78991218243394 129.56999261553372 C 250.80791218243394 190.07799261553373 201.76191218243395 239.13999261553374 141.24991218243395 239.13999261553374 C 80.74091218243395 239.13999261553374 31.689912182433947 190.07899261553374 31.709912182433946 129.56999261553372 C 31.690912182433944 69.06199261553373 80.73791218243394 19.99999261553373 141.24991218243395 19.99999261553373 C 201.75891218243393 19.99999261553373 250.80991218243395 69.06099261553373 250.78991218243394 129.56999261553372 z" fill="#999999" stroke-linecap="round" stroke-width="4" stroke="#010101" stroke-linejoin="round"/>
 </g>
 <g>
  <title/>
 </g>
 <g>
  <title/>
  <path id="imagebot_23" d="M 56.25191218243395 229.36999261553373 C 56.24591218243395 250.21199261553372 73.13891218243394 252.86699261553372 93.98091218243394 252.86699261553372 S 131.71591218243395 250.21199261553372 131.70991218243395 229.36999261553373 C 131.71591218243395 208.52899261553372 114.11191218243394 197.02399261553373 93.98091218243394 191.63099261553373 C 62.66291218243394 183.23899261553373 56.24591218243395 208.52899261553372 56.25191218243395 229.36999261553373 z" fill="#000000" stroke-linecap="round" stroke-width="4" stroke="#010101" stroke-linejoin="round"/>
 </g>
 <g>
  <title/>
  <path id="imagebot_22" d="M 123.34991218243394 241.11999261553373 C 124.85991218243394 246.74999261553373 120.36291218243394 248.72399261553372 114.57691218243394 250.27399261553373 S 103.90991218243394 252.36299261553373 102.40291218243395 246.73199261553373 C 100.89191218243394 241.10099261553373 104.35891218243394 235.27999261553373 110.14391218243395 233.72899261553374 S 121.84191218243394 235.48799261553373 123.34991218243394 241.11999261553373 z" fill="#ffffff" stroke-linecap="round" stroke-width="4" stroke="#010101" stroke-linejoin="round"/>
 </g>
 <g>
  <title/>
  <path id="imagebot_21" d="M 85.26691218243394 247.21999261553373 C 83.75991218243395 252.85199261553373 78.87791218243395 252.31199261553374 73.09291218243395 250.76299261553373 C 67.30691218243395 249.21199261553372 62.80891218243394 247.23799261553373 64.31991218243394 241.60799261553373 C 65.82691218243394 235.97699261553373 71.73991218243394 232.66799261553373 77.52591218243394 234.21799261553372 C 83.31091218243395 235.76799261553373 86.77691218243395 241.58899261553373 85.26691218243394 247.21999261553373 z" fill="#ffffff" stroke-linecap="round" stroke-width="4" stroke="#010101" stroke-linejoin="round"/>
 </g>
 <g>
  <title/>
  <path id="imagebot_20" d="M 103.89991218243395 246.29999261553374 C 103.90191218243395 252.12899261553372 99.04691218243394 252.87099261553374 93.05691218243395 252.87099261553374 C 87.06791218243394 252.87099261553374 82.21291218243394 252.12899261553372 82.21491218243395 246.29999261553374 C 82.21291218243394 240.46999261553373 87.06791218243394 235.74299261553372 93.05691218243395 235.74299261553372 C 99.04691218243394 235.74299261553372 103.90191218243395 240.46899261553372 103.89991218243395 246.29999261553374 z" fill="#ffffff" stroke-linecap="round" stroke-width="4" stroke="#010101" stroke-linejoin="round"/>
 </g>
 <g>
  <title/>
 </g>
 <g>
  <title/>
  <path id="imagebot_19" d="M 226.24991218243395 229.36999261553373 C 226.25591218243395 250.21199261553372 209.36291218243394 252.86699261553372 188.52091218243393 252.86699261553372 S 150.78591218243395 250.21199261553372 150.79191218243395 229.36999261553373 C 150.78491218243394 208.52899261553372 168.38991218243393 197.02399261553373 188.52091218243393 191.63099261553373 C 219.83991218243395 183.23899261553373 226.25591218243395 208.52899261553372 226.24991218243395 229.36999261553373 z" fill="#000000" stroke-linecap="round" stroke-width="4" stroke="#010101" stroke-linejoin="round"/>
 </g>
 <g>
  <title/>
  <path id="imagebot_18" d="M 218.80991218243395 241.11999261553373 C 220.31991218243394 246.74999261553373 215.82291218243395 248.72399261553372 210.03691218243395 250.27399261553373 C 204.25191218243395 251.82499261553374 199.37091218243395 252.36299261553373 197.86291218243394 246.73199261553373 C 196.35191218243395 241.10099261553373 199.81891218243393 235.27999261553373 205.60391218243396 233.72899261553374 S 217.30191218243394 235.48799261553373 218.80991218243395 241.11999261553373 z" fill="#ffffff" stroke-linecap="round" stroke-width="4" stroke="#010101" stroke-linejoin="round"/>
 </g>
 <g>
  <title/>
  <path id="imagebot_17" d="M 180.72991218243394 247.21999261553373 C 179.22191218243395 252.85199261553373 174.34091218243395 252.31199261553374 168.55491218243395 250.76299261553373 C 162.76991218243396 249.21199261553372 158.27191218243394 247.23799261553373 159.78291218243393 241.60799261553373 C 161.29091218243394 235.97699261553373 167.20391218243395 232.66799261553373 172.98891218243395 234.21799261553372 C 178.77291218243394 235.76799261553373 182.23891218243395 241.58899261553373 180.72991218243394 247.21999261553373 z" fill="#ffffff" stroke-linecap="round" stroke-width="4" stroke="#010101" stroke-linejoin="round"/>
 </g>
 <g>
  <title/>
  <path id="imagebot_16" d="M 199.36991218243395 246.29999261553374 C 199.37191218243396 252.12899261553372 194.51691218243394 252.87099261553374 188.52691218243393 252.87099261553374 C 182.53791218243396 252.87099261553374 177.68191218243393 252.12899261553372 177.68391218243394 246.29999261553374 C 177.68191218243393 240.46999261553373 182.53791218243396 235.74299261553372 188.52691218243393 235.74299261553372 C 194.51791218243395 235.74299261553372 199.37191218243396 240.46899261553372 199.36991218243395 246.29999261553374 z" fill="#ffffff" stroke-linecap="round" stroke-width="4" stroke="#010101" stroke-linejoin="round"/>
 </g>
 <g>
  <title/>
 </g>
 <g>
  <title/>
  <path id="imagebot_15" d="M 13.503912182433945 11.655992615533732 C 35.456912182433946 -6.452007384466269 78.73791218243394 5.091192615533731 104.58991218243395 12.586992615533731 C 90.53691218243395 61.89399261553373 101.76991218243394 92.68199261553373 89.68191218243395 120.59699261553374 C 61.911912182433944 148.25699261553373 18.927912182433946 178.70699261553372 21.349912182433947 160.68699261553374 C 33.01691218243395 73.83599261553373 -20.558087817566054 39.74699261553373 13.503912182433945 11.656992615533731 L 13.503912182433945 11.655992615533732 z" fill="#000000" stroke-width="4" stroke-linecap="round" stroke="#010101" stroke-linejoin="round"/>
 </g>
 <g>
  <title/>
  <path id="imagebot_14" d="M 266.97991218243396 11.655992615533732 C 245.02691218243393 -6.452007384466269 201.74591218243395 5.091292615533731 175.89091218243394 12.58691261553373 C 189.94691218243395 61.89391261553373 178.71551218243394 92.68291261553374 190.80191218243394 120.59691261553372 C 218.57291218243395 148.25491261553373 261.55591218243393 178.71091261553374 259.13491218243394 160.68591261553374 C 247.46791218243393 73.83691261553373 301.04291218243395 39.74591261553373 266.98061218243396 11.655912615533731 L 266.97991218243396 11.655992615533732 z" fill="#000000" stroke-width="4" stroke-linecap="round" stroke="#010101" stroke-linejoin="round"/>
 </g>
 <g>
  <title/>
  <path id="imagebot_13" d="M 140.23991218243395 4.001792615533731 C 59.88591218243395 4.001792615533731 39.93991218243394 39.216792615533734 53.69591218243394 90.57079261553373 C 70.00291218243395 151.42979261553373 123.15391218243394 177.13979261553374 140.23891218243395 177.13979261553374 S 210.74291218243394 150.43379261553372 226.78291218243393 90.57079261553373 C 240.51691218243394 39.31479261553373 220.59411218243395 4.001792615533731 140.23991218243395 4.001792615533731 z" fill="#ffffff" stroke-linecap="round" stroke-width="4" stroke="#010101" stroke-linejoin="round"/>
 </g>
 <g>
  <title/>
  <path id="imagebot_12" d="M 190.27991218243395 58.100992615533734 C 190.28291218243393 70.61999261553373 180.13491218243394 80.76999261553374 167.61691218243394 80.76999261553374 C 155.09691218243395 80.76999261553374 144.94991218243393 70.61999261553373 144.95391218243395 58.100992615533734 C 144.94991218243393 45.58199261553373 155.09791218243396 35.43199261553373 167.61691218243394 35.43199261553373 C 180.13591218243394 35.43099261553373 190.28291218243393 45.58199261553373 190.27991218243395 58.100992615533734 z" fill="#ffffff" stroke-linecap="round" stroke-width="4" stroke="#010101" stroke-linejoin="round"/>
 </g>
 <g>
  <title/>
  <path id="imagebot_11" d="M 170.13991218243393 62.100992615533734 C 170.14191218243394 66.27399261553373 166.75891218243393 69.65799261553373 162.58591218243396 69.65799261553373 S 155.02991218243395 66.27399261553373 155.03091218243395 62.100992615533734 C 155.02991218243395 57.92799261553373 158.41291218243396 54.54399261553373 162.58591218243396 54.54399261553373 S 170.14191218243394 57.92799261553373 170.13991218243393 62.100992615533734 z" fill="#010101"/>
 </g>
 <g>
  <title/>
  <path id="imagebot_10" d="M 137.54991218243396 58.100992615533734 C 137.55391218243395 70.61999261553373 127.40491218243395 80.76999261553374 114.88691218243395 80.76999261553374 S 92.22091218243395 70.61999261553373 92.22391218243395 58.100992615533734 C 92.22091218243395 45.58199261553373 102.36891218243395 35.43199261553373 114.88691218243395 35.43199261553373 S 137.55391218243395 45.58199261553373 137.54991218243396 58.100992615533734 z" fill="#ffffff" stroke-linecap="round" stroke-width="4" stroke="#010101" stroke-linejoin="round"/>
 </g>
 <g>
  <title/>
  <path id="imagebot_9" d="M 128.10991218243396 62.100992615533734 C 128.11191218243394 66.27399261553373 124.72891218243394 69.65799261553373 120.55591218243394 69.65799261553373 S 112.99991218243395 66.27399261553373 113.00091218243395 62.100992615533734 C 112.99991218243395 57.92799261553373 116.38291218243394 54.54399261553373 120.55591218243394 54.54399261553373 S 128.11191218243394 57.92799261553373 128.10991218243396 62.100992615533734 z" fill="#010101"/>
 </g>
 <g>
  <title/>
 </g>
 <g>
  <title/>
  <path id="imagebot_8" d="M 109.14991218243395 95.14799261553372 C 145.68891218243394 231.51799261553373 98.95791218243394 227.41799261553373 140.23691218243394 228.18799261553374 C 181.51491218243393 228.95648261553373 136.93511218243395 232.46309261553372 171.32391218243396 95.14799261553372" fill="#ffffff" stroke-width="4" stroke-linecap="round" stroke="#010101" stroke-linejoin="round"/>
 </g>
 <g>
  <title/>
  <path id="imagebot_7" d="M 130.18991218243394 213.75999261553372 L 150.29591218243394 213.75999261553372" fill="none" stroke-width="4" stroke-linecap="round" stroke="#687588" stroke-linejoin="round"/>
 </g>
 <g>
  <title/>
  <path id="imagebot_6" d="M 132.18991218243394 197.75999261553372 L 148.29591218243394 197.75999261553372" fill="none" stroke-width="4" stroke-linecap="round" stroke="#687588" stroke-linejoin="round"/>
 </g>
 <g>
  <title/>
  <path id="imagebot_5" d="M 132.18991218243394 181.75999261553372 L 148.29591218243394 181.75999261553372" fill="none" stroke-width="4" stroke-linecap="round" stroke="#687588" stroke-linejoin="round"/>
 </g>
 <g>
  <title/>
  <path id="imagebot_4" d="M 130.18991218243394 165.75999261553372 L 150.29591218243394 165.75999261553372" fill="none" stroke-width="4" stroke-linecap="round" stroke="#687588" stroke-linejoin="round"/>
 </g>
 <g>
  <title/>
  <path id="imagebot_3" d="M 128.18991218243394 149.75999261553372 L 152.29591218243394 149.75999261553372" fill="none" stroke-width="4" stroke-linecap="round" stroke="#687588" stroke-linejoin="round"/>
 </g>
 <g>
  <title/>
  <path id="imagebot_2" d="M 126.18991218243394 133.75999261553372 L 154.29591218243394 133.75999261553372" fill="none" stroke-width="4" stroke-linecap="round" stroke="#687588" stroke-linejoin="round"/>
 </g>
 <g>
  <title/>
  <path id="imagebot_1" d="M 122.18991218243394 117.75999261553373 L 158.29591218243394 117.75999261553373" fill="none" stroke-width="4" stroke-linecap="round" stroke="#687588" stroke-linejoin="round"/>
 </g>
 <metadata>image/svg+xmlOpenclipartCartoon Elephant2010-09-03T16:28:14Cartoon Elephant.  Remixed from Studiofibonacci's Cartoon Rhino.https://openclipart.org/detail/83479/cartoon-elephant-by-14thwarrior14thWarriorafricaanimalcartoonelephantindiamammalremix</metadata>
</svg>