<?xml version="1.0" encoding="UTF-8" standalone="no"?>
<svg id="svg2" xmlns:rdf="http://www.w3.org/1999/02/22-rdf-syntax-ns#" xmlns="http://www.w3.org/2000/svg" height="174.81mm" width="158.04mm" version="1.1" xmlns:cc="http://creativecommons.org/ns#" xmlns:dc="http://purl.org/dc/elements/1.1/" viewBox="0 0 560.00002 619.40123">
<g id="layer1" transform="translate(-210.08 18.517)">
<path id="path4160" d="m484.43 599.18c-6.7273-4.2654-8.1007-29.209-2.3108-41.969 10.096-22.25 4.2962-45.646-6.0261-24.309-11.04 22.821-25.59 32.691-37.088 25.157-11.164-7.3146 2.3161-26.305 26.422-37.224 18.687-8.4645 20.646-11.151 20.646-28.314v-14.421l-5.8878 6.9226c-3.2383 3.8074-6.8617 9.172-8.052 11.921-4.553 10.516-30.818 20.939-37.053 14.703-6.6416-6.6416 5.4442-22.015 22.749-28.938 24.41-9.7648 31.563-17.635 16.111-17.727-9.1276-0.0544-25.097-5.8632-32.675-11.885-22.277-17.703-56.021-21.156-81.96-8.3868-16.632 8.1881-20.625 6.4608-14.694-6.3561 8.0267-11.821 23.561-17.394 35.49-19.71 13.269-2.4722 16.627-4.8907 15.121-10.89-5.9386-23.661 14.602-19.293 26.867 5.7129 8.5584 17.449 11.055 18.637 12.761 6.074 2.5309-18.641 9.8619-19.969 12.249-2.2191 0.78693 5.8517 2.1058 11.539 2.9307 12.639 0.82494 1.0997 2.134 4.6452 2.909 7.8789 1.7348 7.238 12.451 21.113 16.306 21.113 3.6562 0 3.5844-0.68232-1.0213-9.7102-5.4624-10.707-12.109-29.411-15.023-42.276-4.392-19.39-15.653-41.787-24.881-49.487-5.3684-4.4791-14.487-2.8078-25.296 4.6363-10.525 7.2488-24.521 9.1918-26.336 3.656-1.278-3.8982 13.859-16.696 21.34-18.043 9.2133-1.6584 11.099-2.8618 7.7796-4.965-4.2199-2.6739-13.316-2.0863-19.827 1.2807-18.005 9.311-37.039 12.707-38.87 6.9365-3.0004-9.4533 3.9716-15.556 22.994-20.127 13.166-3.1641 13.07-3.1068 10.632-6.3171-3.6752-4.8406-8.6759-27.541-6.067-27.541 0.31149 0 6.7705 5.8484 14.353 12.996 7.5828 7.1481 14.871 12.996 16.196 12.996 2.4242 0 11.104 9.1835 21.455 22.7 10.464 13.664 12.471 7.5579 4.2262-12.858-13.267-27.102-35.527-53.832-61.965-69.047-12.989-7.0172-34.379 0.49273-28.212 9.9051 6.2768 9.5796 3.2425 17.308-6.7953 17.308-5.7072 0-7.8119 3.0422-7.8119 11.292 0 13.394-6.8516 15.753-20.037 6.8976-10.162-6.825-11.398-6.5564-17.855 3.8809-7.6916 12.433-14.807 8.8485-20.235-10.192-3.47-12.173-4.4348-12.808-11.067-7.2898-19.955 16.604-29.859 13.264-23.655-7.9764 1.1927-4.0831 0.53984-4.4296-9.4196-4.9986-9.4614-0.54059-10.777-1.1496-11.359-5.2568-0.90095-6.3593 4.8523-17.824 9.7199-19.369 5.605-1.779 2.8777-4.9783-4.2439-4.9783-11.299 0-10.222-12.968 1.6669-20.075 5.2023-3.1096 6.5894-4.7876 4.5123-5.4586-17.95-5.7979-15.355-26.31 2.981-23.561 10.203 1.53 10.243 1.4552 5.6604-10.544-4.9492-12.959 7.2617-19.647 22.449-12.294 9.9832 4.8328 10.896 4.8706 10.906 0.45196 0.008-3.8679 7.2586-16.711 10.651-18.866 3.4031-2.1624 13.371 4.8151 14.754 10.328 2.3855 9.5047 5.4817 10.71 15.796 6.147 17.352-7.6757 22.636-3.3548 19.176 15.682-2.1618 11.894-0.66912 13.725 8.3822 10.284 18.326-6.9675 23.374 3.5332 10.075 20.956-3.9242 5.141-6.8484 9.5936-6.4982 9.8947 0.35014 0.30116 6.9349 3.7848 14.633 7.7414 7.6979 3.9566 16.906 9.8558 20.461 13.109 3.5558 3.2535 11.908 9.275 18.56 13.381 12.247 7.5594 33.766 30.615 38.449 41.195 7.0327 15.888 7.6138 4.3068 0.83558-16.652-4.9145-15.196 2.2508-51.716 10.147-51.716 6.6075 0 9.6319 56.893 4.4767 84.214-2.7368 14.504-1.8582 20.079 8.9428 56.748 2.5914 8.7976 5.7059 21.485 6.9211 28.194 4.4259 24.435 13.5 41.009 20.899 38.169 2.9572-1.1348 3.271-9.3906 3.271-86.057v-84.802l-5.0768-13.488c-12.899-34.269-30.2-47.686-61.405-47.619-15.454 0.033-17.495-0.37775-17.495-3.5205 0-3.5526 9.6587-11.828 13.805-11.828 3.1944 0 2.7-3.6795-1.7288-12.865-5.6465-11.711-6.3292-26.124-1.2374-26.124 2.5214 0 5.3277 2.9535 8.1697 8.5981 7.5081 14.913 10.133 16.314 14.277 7.6244 6.7126-14.077 11.841-9.4868 11.017 9.8595l-0.68525 16.085 8.9895 11.036c4.9442 6.0696 10.812 12.328 13.04 13.907 2.2276 1.5794 7.2633 9.0197 11.19 16.534l7.1403 13.662 0.36412-50.652c0.20027-27.859 0.39791-54.731 0.43918-59.715 0.0562-6.7941-1.5362-11.681-6.3625-19.525-3.5407-5.7543-6.4376-12.248-6.4376-14.431 0-5.2448-2.6853-5.0057-11.567 1.0298-12.471 8.4742-20.005 5.0524-17.561-7.9759l1.317-7.02h-7.6886c-12.545 0-17.043-10.351-8.4883-19.534 5.5495-5.9567 5.0458-7.8028-2.8393-10.405-12.228-4.0355-14.888-15.66-4.6029-20.113 2.4436-1.0582 6.2425-3.0508 8.4419-4.4281s4.3316-2.6869 4.7383-2.9103c0.40667-0.22336-2.9826-4.2723-7.5316-8.9976-14.995-15.576-12.998-24.848 4.9528-22.995l10.278 1.0608-0.22054-11.324s-2.751-8.522-0.22056-11.324c1.7127-1.8962 7.6398-0.62901 7.6398-0.62901 5.7958-0.47719 9.2975 0.63537 14.508 4.6095 7.7603 5.9191 9.8088 5.4857 11.531-2.4393 3.4854-16.041 23.467-16.235 26.662-0.25887 1.638 8.19 3.663 8.6657 11.487 2.6982 5.2104-3.9741 8.712-5.0867 14.508-4.6095 0 0 5.9271-1.2672 7.6398 0.62901 2.5305 2.8016-0.22056 11.324-0.22056 11.324l-0.22054 11.324 10.278-1.0608c17.95-1.8527 19.948 7.4197 4.9528 22.995-4.549 4.7253-7.9383 8.7742-7.5316 8.9976 0.40665 0.22338 2.5389 1.533 4.7383 2.9103 2.1994 1.3772 5.9982 3.3699 8.4419 4.4281 10.285 4.4537 7.6247 16.078-4.6029 20.113-7.885 2.6023-8.3888 4.4484-2.8392 10.405 8.555 9.1827 4.057 19.534-8.4883 19.534h-7.6886l1.317 7.02c2.4441 13.028-5.09 16.45-17.561 7.9759-8.91-6.0545-11.567-6.275-11.567-0.96 0 2.2213-2.4019 7.8435-5.3375 12.494l-5.3375 8.4551-0.89515 61.986-0.89516 61.986 7.3746-13.996c4.056-7.6979 9.1971-15.288 11.425-16.868 2.2276-1.5794 8.0954-7.8376 13.04-13.907l8.9895-11.036-0.68525-16.085c-0.82422-19.346 4.3044-23.936 11.017-9.8595 4.144 8.69 6.769 7.2882 14.277-7.6244 2.842-5.6446 5.6483-8.5981 8.1697-8.5981 5.0918 0 4.4091 14.413-1.2374 26.124-4.4287 9.1856-4.9232 12.865-1.7288 12.865 4.1463 0 13.805 8.2755 13.805 11.828 0 3.1428-2.0417 3.5536-17.495 3.5205-31.205-0.0668-48.506 13.35-61.405 47.619l-5.0768 13.488v84.802c0 76.666 0.3138 84.922 3.271 86.057 7.3987 2.8391 16.473-13.734 20.899-38.169 1.2152-6.7089 4.3297-19.396 6.9211-28.194 10.801-36.668 11.68-42.243 8.9428-56.748-5.1552-27.321-2.1308-84.214 4.4767-84.214 7.896 0 15.061 36.52 10.147 51.716-6.7782 20.959-6.1971 32.54 0.83558 16.652 4.6829-10.58 26.202-33.635 38.449-41.195 6.6524-4.1061 15.005-10.128 18.56-13.381 3.5558-3.2535 12.763-9.1527 20.461-13.109 7.6979-3.9566 14.283-7.4402 14.633-7.7414 0.35015-0.30114-2.5741-4.7538-6.4982-9.8947-13.299-17.423-8.2507-27.924 10.075-20.956 9.0513 3.4413 10.544 1.61 8.3822-10.284-3.4601-19.037 1.8234-23.358 19.176-15.682 10.314 4.5626 13.411 3.3577 15.796-6.147 1.3837-5.5133 11.351-12.491 14.754-10.328 3.3923 2.1555 10.643 14.998 10.651 18.866 0.01 4.4187 0.92233 4.3808 10.906-0.45196 15.187-7.3521 27.398-0.66474 22.449 12.294-4.5826 11.999-4.5425 12.074 5.6604 10.544 18.336-2.7496 20.931 17.763 2.981 23.561-2.0772 0.67093-0.69003 2.349 4.5123 5.4586 11.889 7.1066 12.966 20.075 1.6669 20.075-8.315 0-9.4145 3.2571-2.3352 6.9179 4.295 2.221 6.342 5.0506 7.2832 10.067 2.0736 11.053 0.3768 13.007-11.298 13.007-9.7299 0-10.222 0.24624-8.9825 4.4988 6.2242 21.363-3.6212 24.733-23.626 8.088-6.6324-5.5187-7.5972-4.8832-11.067 7.2898-5.4276 19.04-12.543 22.624-20.235 10.192-6.4572-10.437-7.6928-10.706-17.855-3.8809-13.185 8.8554-20.037 6.4968-20.037-6.8976 0-8.2498-2.1047-11.292-7.8119-11.292-10.038 0-13.072-7.7286-6.7953-17.308 6.1672-9.4123-15.223-16.922-28.212-9.9051-23.925 16.22-51.218 43.049-61.965 69.047-8.245 20.416-6.2379 26.523 4.2262 12.858 10.351-13.517 19.031-22.7 21.455-22.7 1.3252 0 8.6136-5.8484 16.196-12.996 7.5828-7.1481 14.042-12.996 14.353-12.996 2.6089 0-2.3918 22.7-6.067 27.541-2.4374 3.2103-2.5339 3.153 10.632 6.3171 19.022 4.5714 25.994 10.674 22.994 20.127-1.8316 5.771-20.865 2.3745-38.87-6.9365-6.511-3.367-15.608-3.9546-19.827-1.2807-3.3192 2.1032-1.4336 3.3066 7.7796 4.965 7.4813 1.3467 22.618 14.145 21.34 18.043-1.815 5.5358-15.811 3.5928-26.336-3.656-10.808-7.4441-19.927-9.1154-25.296-4.6363-9.2283 7.6995-20.489 30.096-24.881 49.487-2.914 12.865-9.5604 31.569-15.023 42.276-4.6057 9.0279-4.6775 9.7102-1.0213 9.7102 3.8552 0 14.571-13.875 16.306-21.113 0.77501-3.2337 2.0841-6.7792 2.909-7.8789 0.82492-1.0997 2.1437-6.7872 2.9307-12.639 2.387-17.75 9.718-16.422 12.249 2.2191 1.7057 12.563 4.2026 11.375 12.761-6.074 12.265-25.006 32.806-29.374 26.867-5.7129-1.5057 5.9991 1.8526 8.4176 15.121 10.89 12.335 3.5584 29.755 7.7523 35.49 19.71 5.9318 12.817 1.9388 14.544-14.694 6.3561-25.038-12.326-60.476-9.1982-80.387 7.0953-6.1429 5.0269-27.416 13.131-34.59 13.176-15.107 0.0966-7.7177 8.0578 16.453 17.727 17.305 6.9224 29.39 22.296 22.749 28.938-6.2354 6.2354-32.5-4.187-37.053-14.703-1.1903-2.7492-4.8137-8.1138-8.052-11.921l-5.8878-6.9226v14.421c0 17.163 1.959 19.849 20.646 28.314 24.106 10.919 37.586 29.909 26.422 37.224-11.497 7.5333-26.047-2.3365-37.088-25.157-8.6238-17.826-9.9811-17.55-9.9811 2.033-1.9622 11.989 3.4579 15.867 6.781 24.034 8.6916 21.722-2.4721 49.056-16.423 40.211zm-197.2-312.18c-1.5216-19.007-2.5849-21.059-9.9521-19.21-5.893 1.479-7.2534 16.45-2.9266 32.207 6.0663 22.091 14.968 13.108 12.879-12.996zm418.56 13.05c4.1699-16.56 2.9939-30.775-2.6634-32.195-7.5996-1.9074-8.6544-0.0252-10.168 18.144-2.2031 26.449 7.1347 36.674 12.831 14.051zm-384.8-4.0139c-1.8439-8.9621-30.864-37.29-30.864-30.128 0 3.0456 6.1193 23.58 8.1672 27.407 8.8495 16.536 25.962 18.587 22.697 2.7217zm356.12 4.1593c4.4607-4.4607 12.91-26.901 12.91-34.288 0-6.8873-29.065 20.954-30.769 29.474-2.631 13.155 6.9381 15.734 17.858 4.8139zm-426.79-5.831c12.981-6.823 25.31-31.358 15.758-31.358-8.3428 0-30.647 27.993-27.002 33.89 1.6681 2.699 1.0115 2.8468 11.245-2.532zm490.74 2.532c3.6445-5.8969-18.659-33.89-27.002-33.89-12.917 0 9.8961 33.557 24.323 35.778 0.75987 0.11697 1.9656-0.73232 2.6795-1.8873zm-402.94-14.83c0-5.059-11.667-16.499-18.148-17.795-3.3999-0.67998-8.799-3.1001-11.998-5.378-5.4796-3.9018-9.8427-3.8495-9.8427 0.11797 0 2.6711 17.432 18.512 24.653 22.402 7.9205 4.2673 15.337 4.5832 15.337 0.65327zm319.25-0.65327c7.2202-3.89 24.653-19.731 24.653-22.402 0-3.9675-4.3631-4.0198-9.8427-0.11797-3.1991 2.278-8.5982 4.698-11.998 5.378-6.4813 1.2962-18.148 12.737-18.148 17.795 0 3.9299 7.4161 3.6141 15.337-0.65327zm-408.27-12.11c3.948-3.4664 7.8216-6.3163 8.6082-6.3331 4.534-0.0972 7.0926-3.7583 4.6681-6.6797-2.2019-2.6531-3.4801-2.6715-10.62-0.15235-4.4642 1.575-10.282 2.8637-12.928 2.8637-13.108 0-23.614 10.308-17.18 16.855 3.6356 3.6996 20.307-0.28042 27.452-6.5538zm510.54 1.1508c0.69068-6.0103-8.013-11.452-18.317-11.452-2.6463 0-8.4201-1.2732-12.831-2.8293-5.8978-2.0808-8.609-2.2395-10.249-0.59984-3.2594 3.2594-2.7499 4.994 1.9008 6.47 2.2716 0.72101 6.9954 3.7984 10.497 6.8387 11.928 10.356 27.889 11.221 28.998 1.5726zm-468.29-14.52c8.8267-5.5519 7.9615-23.121-1.3281-26.969-17.168-7.111-32.807 9.2652-22.67 23.738 5.8086 8.2929 14.162 9.4175 23.998 3.2309zm420.17-2.2029c12.568-13.824-3.392-32.218-21.461-24.734-6.9814 2.8918-8.2424 6.2495-6.3876 17.009 2.4514 14.22 18.018 18.538 27.849 7.7248zm-365.7 3.0767c6.7567-2.3554 8.64-7.8022 2.6977-7.8022-16.569-6.8554-22.193-5.7084-37.373-3.676-8.6534 0.97916-9.0164 6.7972-0.65186 10.45 8.0172 3.5013 26.675 4.0443 35.327 1.028zm323.1-0.88567c9.0583-3.7848 9.1108-9.5725 0.0962-10.593-15.75-7.2622-29.077 0.0296-37.373 3.676-5.5846 0-4.2402 5.431 1.8995 7.6734 8.4293 3.0786 27.156 2.678 35.377-0.7568zm-412.09-6.86c3.0678-2.9667 0.37356-8.8562-4.6968-10.267-12.405-3.4518-35.98-1.2607-35.98 3.344 0 7.5094 34.073 13.309 40.677 6.923zm499.08-0.99907c15.106-5.2251 7.4563-11.31-13.647-10.855-14.485 0.31217-19.245 2.2411-19.245 7.7985 0 8.0813 14.476 9.4265 32.892 3.0566zm-429.76-13.3c12.072-6.2924 22.088-21.119 16.47-24.382-7.2335-4.2018-40.636 18.149-37.876 25.344 1.7698 4.6122 11.554 4.1722 21.405-0.96246zm349.27 0.96246c2.7608-7.1946-30.642-29.546-37.876-25.344-5.5098 3.2006 4.3683 17.908 16.496 24.56 8.8716 4.8661 19.662 5.262 21.38 0.78449zm-415.28-5.57c0-4.1671-13.016-14.215-21.839-16.858-9.7834-2.9312-16.151-2.9076-16.151 0.0596 0 2.9838 5.9769 9.6549 8.6502 9.6549 1.1176 0 3.4525 1.273 5.1886 2.8288 6.4312 5.7634 24.151 8.9292 24.151 4.3148zm478.58-1.3618c24.193-11.035 26.509-22.501 3.1302-15.496-9.0271 2.7046-21.839 12.725-21.839 17.081 0 3.3046 9.8118 2.4737 18.708-1.5843zm-429.14-8.28c7.1633-7.4585 12.571-20.2 11.668-27.493-0.34039-2.7493-0.7337-6.1234-0.87406-7.498-1.0357-10.144-18.589 1.9904-24.805 17.147-9.2855 22.642-0.87962 33.348 14.011 17.844zm376.94 3.7149c10.481-7.9563-8.5308-41.205-23.562-41.205-1.6122 0-3.0462 1.1247-3.1865 2.4993-0.14036 1.3746-0.53367 4.7487-0.87406 7.498-2.1 16.962 17.386 38.978 27.622 31.207zm-417.54-0.95c1.9618-3.1742-4.9615-25.125-9.436-29.917-9.4378-10.108-21.396-12.824-21.396-4.8597 0 9.7902 27.266 40.545 30.832 34.777zm454.35-6.7571c20.783-21.679 25.182-40.095 7.3627-30.826-9.3168 4.8461-14.303 11.702-17.535 24.111-4.6481 17.845-2.106 19.523 10.172 6.7153zm-438.03-5.4985c5.5261-15.321 1.4017-37.99-6.9118-37.99-5.8668 0-8.948 11.359-7.2116 26.585 2.3437 20.553 8.9107 25.856 14.123 11.404zm420.42 4.4988c3.3852-6.4351 4.7988-27.916 2.3295-35.398-5.357-16.232-17.402-2.369-15.504 17.844 1.7009 18.11 8.2744 26.869 13.174 17.554zm-210.55-95.98c8.3168-21.725-1.7078-50.696-10.903-31.511-4.89 10.203-0.5247 41.008 5.8111 41.008 0.8009 0 3.0923-4.2738 5.092-9.4974zm-22.95-20.722c11.739-20.1 9.6674-29.22-3.4675-15.264-12.921 13.729-19.707 27.781-15.463 32.024 3.1262 3.1262 11.803-4.5556 18.931-16.76zm55.85 11.575c0-7.7251-19.503-33.337-25.385-33.337-4.6956 0-2.7457 8.0623 5.2688 21.785 9.8503 16.866 20.117 22.762 20.117 11.552zm-66.67-25.419c12.469-13.275 12.752-14.465 2.5925-10.881-4.6225 1.6309-10.961 2.9653-14.085 2.9653-7.121 0-20.32 12.34-18.439 17.24 2.7878 7.2649 19.132 2.1728 29.932-9.3251zm87.388 9.083c1.7873-4.6577-11.667-16.998-18.532-16.998-3.1242 0-9.4624-1.3344-14.085-2.9653-4.6225-1.6309-8.1097-2.1704-7.7494-1.1989 1.4253 3.8425 19.726 21.895 23.08 22.767 7.9832 2.0755 16.166 1.3159 17.287-1.6047zm-51.67-22.154c18.294-8.6812 6.1184-35.216-13.087-28.521-12.371 4.3124-13.213 22.584-1.3119 28.453 7.7908 3.8421 6.4586 3.8358 14.399 0.06778zm-36.771-1.1592c17.637-5.2841 5.379-18.215-17.553-18.517-19.89-0.26161-26.444 8.9036-11.09 15.509 6.3946 2.7508 9.4622 3.5603 19.145 5.0519 0.97212 0.14976 5.246-0.76989 9.4974-2.0437zm88.09-3.0375c15.373-6.5522 8.7902-15.741-11.09-15.479-15.109 0.19875-25.283 4.8656-25.283 11.597 0 8.926 19.624 11.02 36.372 3.882zm-77.24-18.835c3.0173-4.882-29.435-29.798-38.811-29.798-3.6837 0-1.4783 8.5642 4.1743 16.21 7.6317 10.322 30.991 19.486 34.636 13.588zm58.09-2.792c13.524-6.7392 27.388-27.006 18.475-27.006-9.376 0-41.828 24.915-38.811 29.798 2.199 3.558 9.6456 2.5359 20.336-2.7913zm-52.15-9.5109c-0.77481-2.4743-1.331-6.6289-1.2359-9.2323 0.38909-10.655-13.259-28.258-21.909-28.258-2.8432 0-2.3005 10.571 0.93693 18.251 6.2142 14.741 26.229 32.08 22.208 19.239zm37.933-3.9989c10.755-12.501 17.705-33.491 11.09-33.491-8.6505 0-22.298 17.602-21.909 28.258 0.095 2.6034-0.46109 6.758-1.2359 9.2323-2.3533 7.5151 3.9476 5.425 12.055-3.9989zm-17.817-3.4991c5.9891-16.663 2.0446-36.99-7.1777-36.99-7.1235 0-10.324 7.5057-9.3779 21.994 1.498 22.946 10.702 31.283 16.556 14.996z"/>
</g>
</svg>
