<?xml version="1.0" encoding="UTF-8" standalone="no"?>
<!-- Created with Inkscape (http://www.inkscape.org/) -->

<svg
   xmlns:dc="http://purl.org/dc/elements/1.1/"
   xmlns:cc="http://creativecommons.org/ns#"
   xmlns:rdf="http://www.w3.org/1999/02/22-rdf-syntax-ns#"
   xmlns:svg="http://www.w3.org/2000/svg"
   xmlns="http://www.w3.org/2000/svg"
   xmlns:sodipodi="http://sodipodi.sourceforge.net/DTD/sodipodi-0.dtd"
   xmlns:inkscape="http://www.inkscape.org/namespaces/inkscape"
   id="svg4184"
   version="1.1"
   inkscape:version="0.91 r13725"
   width="372.1875"
   height="652.5"
   viewBox="0 0 372.1875 652.5"
   sodipodi:docname="LeafySpurge.svg">
  <metadata
     id="metadata4190">
    <rdf:RDF>
      <cc:Work
         rdf:about="">
        <dc:format>image/svg+xml</dc:format>
        <dc:type
           rdf:resource="http://purl.org/dc/dcmitype/StillImage" />
        <dc:title></dc:title>
      </cc:Work>
    </rdf:RDF>
  </metadata>
  <defs
     id="defs4188" />
  <sodipodi:namedview
     pagecolor="#ffffff"
     bordercolor="#666666"
     borderopacity="1"
     objecttolerance="10"
     gridtolerance="10"
     guidetolerance="10"
     inkscape:pageopacity="0"
     inkscape:pageshadow="2"
     inkscape:window-width="1600"
     inkscape:window-height="837"
     id="namedview4186"
     showgrid="false"
     inkscape:zoom="1.0268199"
     inkscape:cx="186.09375"
     inkscape:cy="326.25"
     inkscape:window-x="-8"
     inkscape:window-y="-8"
     inkscape:window-maximized="1"
     inkscape:current-layer="svg4184" />
  <path
     style="fill:#000000"
     d="m 182.77525,651.99777 c -0.0205,-0.49721 -0.25421,-29.89052 -0.5194,-65.31846 l -0.48216,-64.41446 -2.52747,-2.92098 c -5.15576,-5.95851 -28.74293,-19.60322 -33.95949,-19.64492 -0.78762,-0.007 -2.47512,-0.74786 -3.75,-1.6479 -1.27489,-0.90005 -4.46844,-2.71047 -7.09676,-4.02316 -2.62833,-1.31269 -6.08803,-3.87784 -7.6882,-5.70034 -1.60018,-1.8225 -4.72316,-4.0704 -6.93996,-4.99533 -2.21681,-0.92493 -4.87431,-2.03584 -5.90556,-2.46868 -1.03125,-0.43285 -4.44062,-1.80047 -7.57638,-3.03914 -15.212027,-6.00902 -27.972998,-17.46225 -43.04862,-38.63703 -2.0625,-2.89693 -5.781483,-7.59036 -8.264406,-10.42985 C 46.117327,418.57997 40.3125,407.20137 40.3125,399.93413 c 0,-7.04369 5.938195,-8.09236 15.970743,-2.82041 5.944572,3.12379 9.622051,6.47049 19.11058,17.39163 28.493347,32.79537 42.158547,45.41178 57.731177,53.30037 4.56748,2.31374 22.24621,13.97746 29.05054,19.16639 2.31373,1.76443 4.30079,3.11407 4.41568,2.99918 0.11489,-0.1149 -1.03989,-3.94941 -2.56616,-8.52114 -2.74799,-8.23112 -3.57965,-14.57515 -1.91073,-14.57515 0.79459,0 6.63567,10.72807 6.63567,12.18745 0,0.35089 1.30284,2.92023 2.89522,5.70964 1.59236,2.78941 2.62674,4.24597 2.29862,3.23679 -0.32811,-1.00917 -0.30469,-6.82489 0.052,-12.92383 0.71215,-12.17504 1.91448,-13.86324 3.79426,-5.32755 0.61607,2.79744 1.78425,6.98469 2.59597,9.305 1.44029,4.1171 1.46273,3.91379 0.93167,-8.4375 -0.2993,-6.96094 -0.63491,-14.97656 -0.74582,-17.8125 -0.24049,-6.14967 -1.3387,-10.88908 -2.79431,-12.05903 -0.5824,-0.46811 -3.37921,-1.7816 -6.21515,-2.91888 -7.14499,-2.86532 -9.29131,-4.06017 -21.37507,-11.89943 -5.8266,-3.77996 -11.01016,-6.87266 -11.51905,-6.87266 -0.50888,0 -4.81197,-1.86529 -9.56243,-4.14507 -4.75046,-2.2798 -12.10357,-5.23314 -16.34026,-6.56297 -11.85633,-3.72155 -23.807065,-10.18162 -28.401446,-15.35263 -2.15409,-2.42444 -5.105611,-5.72925 -6.558935,-7.34401 -1.453324,-1.61476 -3.271786,-4.14601 -4.041027,-5.625 -0.769241,-1.47899 -2.547197,-3.74376 -3.951012,-5.03282 -2.96475,-2.7224 -7.206843,-11.53864 -10.375185,-21.5625 -2.720648,-8.60746 -2.764835,-9.97131 -0.36468,-11.25583 3.283697,-1.75738 8.249537,1.5854 20.145355,13.56094 13.875747,13.96874 16.348031,15.8645 25.06775,19.22217 8.17784,3.149 20.27003,9.05164 25.55725,12.4754 8.73979,5.65951 20.8301,14.61012 25.70098,19.02674 2.88009,2.6115 6.50214,5.69092 8.04902,6.84316 3.94,2.93485 10.53634,8.49313 14.22544,11.98679 l 3.11831,2.95313 -0.0162,-10.45313 c -0.009,-5.74921 -0.42779,-14.46093 -0.93079,-19.35937 -1.04113,-10.13904 -0.39659,-9.25223 -14.89648,-20.49573 -4.23057,-3.28046 -9.36861,-8.18521 -11.41788,-10.89943 -2.04926,-2.71423 -5.92956,-6.47493 -8.62289,-8.35711 -2.69333,-1.88218 -6.2482,-4.41029 -7.89972,-5.61802 -1.65152,-1.20774 -6.50308,-3.58164 -10.78125,-5.27534 -4.27817,-1.69369 -9.12144,-4.06943 -10.76282,-5.2794 -1.6414,-1.20999 -3.20569,-2.19997 -3.47624,-2.19997 -1.11808,0 -21.882252,-13.50704 -24.47696,-15.9222 -1.546875,-1.43984 -4.078125,-3.27645 -5.625,-4.08135 -5.058916,-2.63237 -19.641007,-17.67268 -22.890068,-23.60935 -1.687404,-3.08322 -4.715721,-8.07971 -6.729595,-11.1033 -4.100048,-6.15576 -4.558107,-8.6229 -1.76552,-9.50923 4.770707,-1.51417 13.269577,2.43996 23.539717,10.95195 3.934993,3.26135 10.818038,8.25004 15.295654,11.08598 4.477615,2.83594 11.172132,7.50086 14.876712,10.36649 7.54295,5.83477 21.73753,15.88351 22.43662,15.88351 0.25025,0 4.41365,2.66392 9.252,5.91982 4.83834,3.2559 10.90635,7.12398 13.48448,8.59572 10.63295,6.06988 13.14283,8.62193 17.41743,17.71003 4.00086,8.5061 10.22599,18.63894 12.20065,19.85934 1.13892,0.7039 0.55872,-75.36444 -0.60116,-78.8158 -0.34433,-1.02458 -1.45105,-3.70847 -2.45939,-5.96421 -7.26887,-16.26102 -7.77666,-19.90764 -6.41304,-46.0549 0.60504,-11.60156 1.69895,-24.99156 2.43091,-29.75553 0.73197,-4.76398 1.33085,-8.89433 1.33085,-9.17856 0,-0.28424 -1.16016,0.58013 -2.57813,1.92081 -3.53319,3.3406 -19.27902,14.57808 -23.50459,16.77475 -1.89669,0.986 -4.08134,2.15518 -4.85478,2.59816 -0.77344,0.44299 -2.88281,1.5494 -4.6875,2.45869 -1.80469,0.90929 -4.75781,2.46685 -6.5625,3.46123 -3.59546,1.98112 -6.93594,3.32787 -15.46875,6.23645 -3.09375,1.05457 -7.36551,2.70652 -9.49279,3.67102 -2.12728,0.96449 -7.611654,2.84504 -12.187498,4.179 C 79.008571,252.39079 55.215203,258.75 53.845594,258.75 c -2.083951,0 -1.626731,-1.35053 1.953663,-5.77068 1.814592,-2.24018 4.604782,-5.6839 6.200422,-7.6527 3.493591,-4.3106 15.5252,-12.30369 28.937821,-19.22459 5.414062,-2.79365 10.18623,-5.39179 10.60482,-5.77364 0.4186,-0.38185 -6.673489,-0.89879 -15.760178,-1.14875 -13.976515,-0.38447 -16.765168,-0.70231 -18.104822,-2.06354 -1.488528,-1.5125 -1.430327,-1.73213 0.96972,-3.65946 9.141232,-7.34076 16.971842,-11.43148 27.062513,-14.1375 2.789438,-0.74804 8.446697,-2.46361 12.571697,-3.81238 7.54725,-2.46776 15.06742,-4.26319 27.1875,-6.49102 4.9369,-0.90747 6.09804,-1.39038 4.6875,-1.94948 -1.03125,-0.40877 -5.97207,-2.58778 -10.97961,-4.84224 -5.00753,-2.25446 -9.56507,-4.09902 -10.12786,-4.09902 -0.5628,0 -2.57536,-1.05469 -4.4724,-2.34375 -1.89702,-1.28906 -3.81479,-2.34375 -4.2617,-2.34375 -0.44691,0 -2.35288,-0.70671 -4.2355,-1.57046 -4.44419,-2.03904 -24.761894,-11.63971 -34.36043,-16.23626 -4.125,-1.97537 -9.061571,-4.24477 -10.970158,-5.04309 l -3.470159,-1.45149 0.188909,12.38503 c 0.171012,11.21176 -0.0084,12.75408 -1.894311,16.28077 -2.785937,5.2099 -5.92395,7.50342 -11.988874,8.76249 -2.778551,0.57682 -6.549296,2.06493 -8.379433,3.30689 -1.830137,1.24197 -3.907963,2.03539 -4.617392,1.76315 -0.709428,-0.27224 -2.081017,-2.25584 -3.047976,-4.40801 -2.09284,-4.65805 -2.331212,-16.92477 -0.437689,-22.52371 0.665612,-1.96814 0.998103,-3.79054 0.738867,-4.04977 -0.259235,-0.25924 -2.214187,0.41779 -4.344338,1.50452 -2.130151,1.08672 -4.232445,1.7537 -4.671764,1.48219 -0.691638,-0.42745 -1.898618,2.31923 -1.93663,4.40712 -0.007,0.38672 1.23798,0.70313 2.766713,0.70313 3.672707,0 5.093996,2.67892 4.28466,8.07597 -0.339109,2.26135 -1.012587,4.11153 -1.496618,4.11153 -0.484032,0 -0.880057,-0.42991 -0.880057,-0.95536 0,-0.5371 -0.973316,-0.71107 -2.223178,-0.39738 -1.809729,0.45421 -2.594301,-0.0425 -4.21875,-2.67092 -2.133205,-3.4516 -2.586775,-6.7503 -1.058072,-7.69509 1.766325,-1.09165 1.075611,-5.92357 -0.938128,-6.5627 -2.819151,-0.89477 -6.0228603,-5.82633 -8.3138368,-12.79776 -1.6589886,-5.04829 -1.8816179,-6.98097 -1.1693307,-10.15112 0.483885,-2.15362 1.1099475,-4.14582 1.39125,-4.42712 0.2813024,-0.28131 -0.5451435,-1.89674 -1.8365465,-3.58986 -3.04024789,-3.98597 -3.95940225,-9.29024 -1.9888061,-11.47702 0.8026233,-0.89068 1.7488559,-2.77958 2.1027391,-4.19754 0.8741652,-3.50268 2.4109633,-3.29153 1.705784,0.23437 -0.4797907,2.39895 -0.2777065,2.8125 1.3743591,2.8125 3.1296609,0 3.3182437,1.68428 0.7660086,6.84142 -1.5564783,3.14506 -2.0799713,5.1721 -1.4884793,5.7636 0.591492,0.59148 1.4225817,0.18393 2.3630878,-1.15883 1.6050201,-2.29148 3.7015618,-2.70559 4.5531318,-0.89932 0.303866,0.64454 0.369298,0.11719 0.145403,-1.17187 -1.792886,-10.32247 -1.75891,-11.02346 0.609511,-12.57531 1.92575,-1.2618 5.689169,-1.89408 13.94561,-2.34298 1.224601,-0.0666 1.42234,-0.92123 1.067516,-4.61396 -0.83314,-8.67065 4.5728,-13.527609 9.719639,-8.7326 1.024356,0.95433 3.529686,2.09687 5.567401,2.53899 l 3.704937,0.80383 -3.04563,0.33282 c -1.806577,0.19742 -3.440958,1.0715 -4.01736,2.14852 -0.534451,0.99863 -1.981971,2.47762 -3.216709,3.28666 -2.060538,1.35012 -2.456575,1.33232 -4.820493,-0.21658 l -2.575513,-1.68754 0.621927,2.32595 c 0.342059,1.27927 0.627686,2.64236 0.634726,3.02907 0.007,0.38672 1.805771,0.70548 3.997177,0.70836 8.54784,0.0113 16.623354,4.29886 16.653427,8.84204 0.007,1.06369 0.265535,2.87691 0.574433,4.02937 0.555696,2.07323 0.589266,2.0658 3.175833,-0.70313 2.460955,-2.63446 6.549432,-3.83868 6.549432,-1.92905 0,0.4782 -1.0589,1.70238 -2.353112,2.72041 -3.097159,2.43623 -5.146888,7.52529 -5.146888,12.77867 l 0,4.24128 3.984375,-1.59057 c 2.191406,-0.87482 5.41434,-2.5589 7.162075,-3.74242 1.747736,-1.18351 3.672713,-2.15183 4.277727,-2.15183 2.117127,0 9.888323,-10.357 9.888323,-13.17859 0,-1.1905 -2.807631,-1.11488 -6.508629,0.17529 -2.496752,0.87037 -2.962698,1.45533 -2.613653,3.28125 0.233625,1.22213 0.0614,2.22205 -0.382723,2.22205 -0.444122,0 -0.807495,-0.42188 -0.807495,-0.9375 0,-0.51563 -0.792094,-0.9375 -1.760208,-0.9375 -2.132568,0 -3.249957,-1.32634 -4.671223,-5.54474 -1.196051,-3.54994 0.232475,-9.45526 2.287276,-9.45526 1.846571,0 3.639667,-5.37988 2.322189,-6.96735 -0.611953,-0.73735 -1.331559,-3.58463 -1.599123,-6.327272 l -0.48648,-4.986628 3.828784,-1.791451 C 72.174452,90.1431 73.125,89.153924 73.125,87.505424 c 0,-2.016646 -0.395645,-2.195321 -4.921875,-2.222739 -6.758159,-0.04094 -8.574771,-1.558423 -7.745017,-6.469699 C 60.883377,76.295845 60.755693,75 60.082404,75 c -0.560947,0 -1.022503,0.949219 -1.02568,2.109375 -0.0032,1.160156 -0.644131,3.333449 -1.424344,4.82954 -0.780213,1.49609 -1.17106,3.499997 -0.868548,4.453125 0.302511,0.953128 0.134872,1.73296 -0.372531,1.73296 -0.507403,0 -1.099528,-0.527344 -1.315834,-1.171875 -0.216305,-0.644531 -1.833493,-1.171875 -3.59375,-1.171875 -2.734291,0 -3.241102,-0.348852 -3.479442,-2.394996 C 47.449191,78.63803 54.291845,73.125 60.738324,73.125 c 1.683353,0 3.428305,-0.868048 4.711411,-2.34375 2.412227,-2.774304 5.143053,-3.000962 7.519868,-0.624147 1.667803,1.667803 1.745464,1.660743 2.578125,-0.234375 1.011072,-2.301178 6.658339,-3.14774 9.796045,-1.468491 1.811411,0.969438 1.89716,0.897339 0.97719,-0.821642 -1.475357,-2.75673 -1.230918,-7.218391 0.472944,-8.63247 1.154311,-0.957993 2.102785,-0.994914 4.295607,-0.167217 1.867557,0.704924 3.597386,0.764475 5.14248,0.177033 1.418644,-0.53937 2.954719,-0.549945 3.931726,-0.02707 0.97857,0.523716 2.21982,0.5132 3.18508,-0.02698 1.06405,-0.595475 2.63615,-0.444516 4.80408,0.461303 3.65254,1.52613 5.21696,5.643253 3.42009,9.000732 -0.57851,1.080968 -0.7625,2.877017 -0.40887,3.991219 0.59914,1.887727 0.43801,1.85336 -2.36375,-0.504162 -1.65369,-1.391494 -3.59632,-2.529986 -4.31696,-2.529986 -1.41461,0 -4.17089,-4.615732 -4.17089,-6.984694 0,-0.827806 -0.806625,-1.452806 -1.875,-1.452806 -1.875,0 -1.875,0 0,1.875 2.58239,2.582391 2.34731,5.109638 -0.703125,7.559169 -1.532578,1.230675 -2.127525,2.232232 -1.467028,2.469659 0.6111,0.21967 2.858222,1.665017 4.993603,3.211881 4.5552,3.299765 7.43913,8.965157 7.46846,14.671528 l 0.0206,4.005991 2.57812,-1.640586 c 1.41797,-0.902321 2.79844,-1.941623 3.06772,-2.30956 1.09259,-1.492918 10.95099,-5.45038 13.59868,-5.458924 2.88006,-0.0093 6.51681,1.89442 8.6461,4.525936 0.99566,1.230496 1.17188,1.001631 1.17188,-1.522007 0,-3.559726 3.83415,-14.108522 6.24595,-17.18432 3.57504,-4.559287 9.35453,-9.567071 12.9728,-11.240615 4.01889,-1.858845 3.83982,-2.048842 -1.6884,-1.79135 -1.95987,0.09128 -4.17434,-0.341051 -4.92103,-0.960751 -1.05765,-0.877774 -1.96675,-0.874424 -4.11439,0.01516 -1.51622,0.628039 -3.09864,0.930519 -3.51647,0.67218 -0.97797,-0.604655 -0.83655,8.960377 0.15623,10.566734 0.41322,0.668592 0.37617,1.040757 -0.0823,0.827033 -0.45849,-0.213724 -2.62659,-1.158012 -4.818,-2.098417 -3.6453,-1.56432 -3.98431,-2.000348 -3.98364,-5.12366 5.5e-4,-2.573521 0.80823,-4.321116 3.28125,-7.099756 1.80424,-2.027257 3.28047,-4.186553 3.28047,-4.798434 0,-1.527409 7.58863,-2.452916 9.19325,-1.121206 0.69851,0.579717 1.08079,2.043949 0.8495,3.253847 -0.45714,2.391394 2.20008,4.945469 5.1452,4.945469 1.40663,0 1.2401,-0.639656 -1.14609,-4.402295 -3.11694,-4.914884 -3.47038,-8.438855 -1.4272,-14.229836 l 1.36467,-3.867869 -3.15603,0 c -2.79297,0 -3.38136,0.465452 -5.11467,4.045991 -1.07725,2.225296 -1.95863,5.178421 -1.95863,6.5625 0,1.38408 -0.42188,2.516509 -0.9375,2.516509 -1.35233,0 -1.07959,-4.550458 0.53382,-8.90625 0.76397,-2.0625 1.49529,-5.964844 1.62516,-8.671875 0.22525,-4.695069 0.12694,-4.923188 -2.1333,-4.950383 -3.95151,-0.04754 -0.21671,-1.538372 5.61397,-2.240939 4.4574,-0.537092 5.45996,-0.353784 7.26563,1.32846 1.15209,1.07334 2.09472,2.632457 2.09472,3.464704 0,1.209113 0.35378,1.10527 1.76057,-0.516778 2.60285,-3.001116 8.64033,-7.631939 9.95019,-7.631939 0.62725,0 2.25673,1.034543 3.6211,2.298985 1.36435,1.264442 2.48064,1.918724 2.48064,1.453961 0,-0.464764 1.47229,-1.967991 3.27174,-3.340504 3.85044,-2.936869 7.10603,-2.603739 8.69788,0.890016 0.5726,1.256702 1.91055,2.560872 2.97323,2.898154 1.06268,0.337282 1.93215,1.035115 1.93215,1.55074 0,0.515625 -0.79379,0.685561 -1.76398,0.377636 -1.11326,-0.353337 -1.96699,-0.03081 -2.31432,0.874324 -0.92532,2.411329 -6.71877,1.83699 -8.85419,-0.877769 -1.00023,-1.271578 -2.08554,-2.045015 -2.41181,-1.718751 -0.94941,0.949424 -0.71047,1.676284 1.23894,3.768726 3.88577,4.170879 8.48036,12.431622 8.48036,15.247059 0,3.972144 -1.9814,8.329922 -5.48673,12.067193 -1.62292,1.730312 -2.95103,3.206875 -2.95135,3.28125 -3.2e-4,0.07438 2.05793,-0.0075 4.5739,-0.181965 5.74361,-0.398262 9.55975,1.480421 13.1918,6.49431 l 2.72814,3.766099 1.8803,-4.250713 c 1.35337,-3.059541 3.13609,-5.047119 6.36163,-7.092695 5.49353,-3.48389 8.84362,-4.485486 19.0464,-5.694414 4.36582,-0.517305 8.88963,-1.179436 10.05292,-1.471404 2.04743,-0.513873 2.06719,-0.62344 0.61779,-3.426269 -1.83243,-3.543534 -4.48754,-5.944502 -8.62251,-7.797171 -1.72642,-0.773525 -4.05362,-2.393343 -5.17153,-3.599597 l -2.03258,-2.193189 0.34932,3.662952 c 0.22557,2.365315 -0.21232,4.520118 -1.23607,6.082547 -0.97291,1.484871 -1.36668,3.290904 -1.01929,4.675041 0.74431,2.965565 -0.74857,2.903135 -2.11156,-0.0883 -0.60764,-1.333636 -1.85577,-2.34375 -2.89601,-2.34375 -6.12331,0 -6.49205,-12.124688 -0.45244,-14.876521 1.2322,-0.561429 2.24037,-1.410029 2.24037,-1.885776 0,-0.475749 1.37109,-1.737027 3.04687,-2.802841 1.67579,-1.065814 3.9828,-2.626675 5.1267,-3.468579 1.94439,-1.431059 2.28148,-1.406107 5.17659,0.383169 l 3.09676,1.913904 1.85466,-2.309433 c 1.02007,-1.270187 3.31117,-3.345929 5.09133,-4.612759 2.94867,-2.098385 3.21411,-2.670038 2.98322,-6.424718 -0.2495,-4.0572857 -0.20065,-4.1312942 3.14074,-4.7581419 1.8668,-0.3502136 3.61325,-1.2076629 3.88101,-1.9054428 0.71835,-1.871954 5.54805,-3.59580891 10.35526,-3.69607601 3.51516,-0.0733177 4.59686,0.34914109 6.47069,2.52713901 1.85045,2.1508105 2.21068,3.4976687 2.0287,7.5851617 -0.18769,4.215471 -0.47035,4.904878 -1.86191,4.541109 -1.90547,-0.498113 -1.96353,-0.244089 -0.70239,3.07297 0.72076,1.89575 1.37248,2.329899 2.81177,1.873086 1.43196,-0.454487 2.08921,-0.02739 2.78857,1.812055 0.94787,2.493092 2.30071,3.09445 3.30518,1.469195 2.72075,-4.402264 14.65774,7.820618 13.22247,13.539156 -0.28812,1.147967 -1.77176,3.657499 -3.29698,5.576741 -1.52523,1.919241 -3.01131,3.993153 -3.30244,4.608692 -0.40268,0.851445 -0.66012,0.838835 -1.07617,-0.05272 -0.30079,-0.644531 -1.16943,-1.171875 -1.93033,-1.171875 -0.76091,0 -1.13038,-0.409486 -0.82107,-0.909967 0.30932,-0.500483 -0.13226,-2.253283 -0.98129,-3.895114 -0.99958,-1.932984 -1.357,-4.135459 -1.01406,-6.248764 l 0.52961,-3.263618 -2.3018,2.162428 c -1.26599,1.189336 -2.58595,1.878273 -2.93326,1.530971 -0.34729,-0.347302 -1.6319,1.04623 -2.85467,3.096736 -2.40873,4.03926 -9.21032,9.012324 -17.07032,12.481162 l -4.95415,2.1864 4.91951,5.382723 c 2.70572,2.960499 6.08654,5.986219 7.51291,6.723824 2.6778,1.384744 8.38329,11.357248 8.38329,14.65296 0,0.948894 0.17411,1.725261 0.38692,1.725261 0.21281,0 2.63859,-1.511656 5.39063,-3.359236 l 5.0037,-3.359236 9.47754,0.439018 9.47755,0.439019 -1.78623,-5.739168 c -0.98244,-3.156542 -1.66139,-7.393651 -1.50879,-9.415797 0.24026,-3.183992 0.74856,-3.920312 3.79354,-5.495277 l 3.51611,-1.818649 -2.81298,-2.627721 c -3.37066,-3.148669 -3.40761,-3.542036 -0.70362,-7.492105 2.53537,-3.703724 8.79504,-6.444935 14.88522,-6.518467 5.40998,-0.06532 6.59689,1.201867 5.53515,5.909516 -0.83841,3.717372 -2.80478,5.817166 -6.35787,6.789261 -1.16015,0.317409 -2.10937,1.20932 -2.10937,1.982027 0,0.895938 0.53724,1.198759 1.48293,0.835867 0.8156,-0.312979 4.08514,-0.570396 7.26562,-0.572039 l 5.7827,-0.003 0.0242,-4.193034 c 0.0333,-5.772791 1.72308,-7.317243 4.4566,-4.073182 1.14496,1.358808 3.05124,2.95787 4.23618,3.553472 1.54476,0.776467 1.99115,1.597347 1.57745,2.900814 -0.3525,1.11049 -0.1386,1.817917 0.54962,1.817917 0.81462,0 0.9966,1.817531 0.65711,6.5625 -0.45692,6.386068 0.53614,8.886303 1.69524,4.268094 0.6101,-2.430818 4.05251,-5.205594 6.45813,-5.205594 1.7,0 1.71429,0.09198 0.50752,3.266016 -0.73658,1.937349 -0.56,2.980925 0.84312,4.982905 1.03892,1.482339 1.99822,4.922239 2.31361,8.296234 0.45381,4.854979 0.244,6.138654 -1.33055,8.140368 -1.02813,1.307055 -2.80584,2.510174 -3.95045,2.673596 -1.14461,0.163422 -2.22183,1.035412 -2.39381,1.937756 -0.24377,1.279025 0.33261,1.640625 2.61511,1.640625 1.61029,0 4.12958,0.621469 5.59843,1.381041 2.55952,1.323583 2.69472,1.285072 3.24958,-0.925641 0.80986,-3.226745 4.60142,-5.504324 8.02377,-4.819854 2.9947,0.598938 4.63505,-0.775898 2.94372,-2.467232 -1.2835,-1.283487 -1.35225,-2.543314 -0.1388,-2.543314 0.49748,0 1.37121,0.87204 1.94163,1.937867 0.80973,1.512989 0.70043,2.451706 -0.49849,4.28149 -1.21469,1.853855 -1.29954,2.628066 -0.40599,3.704719 0.89776,1.081747 0.79847,1.726991 -0.48381,3.143899 -1.53321,1.694169 -1.51625,1.834808 0.34111,2.828838 1.93613,1.036181 1.93808,1.07879 0.20671,4.527731 -0.96131,1.914936 -2.02412,5.642346 -2.36182,8.283136 -0.60978,4.76849 -0.59459,4.8053 2.21483,5.36718 2.37211,0.47442 2.82881,1.00795 2.82881,3.30459 0,1.96145 0.94058,3.56465 3.31387,5.64843 1.96808,1.728 2.74494,2.90962 1.91295,2.90962 -0.77052,0 -2.36723,-1.01086 -3.54825,-2.24635 -2.78674,-2.91527 -8.16371,-3.57381 -10.56508,-1.29394 -2.56902,2.43903 -11.97518,2.52791 -18.76974,0.17737 -4.95468,-1.71405 -5.73149,-1.65305 -4.02514,0.31605 0.78194,0.90234 2.19415,3.43359 3.13823,5.625 1.33753,3.10469 2.2135,3.98437 3.9676,3.98437 1.46266,0 2.42283,-0.65671 2.74142,-1.875 0.26968,-1.03125 0.863,-1.875 1.31848,-1.875 0.45549,0 0.83462,-0.73828 0.84251,-1.64062 0.008,-0.92647 0.31418,-1.23254 0.70313,-0.70313 0.37882,0.51563 2.22941,0.98195 4.11242,1.03627 5.69343,0.16427 6.71427,0.90369 6.02648,4.36515 -0.33179,1.66984 -0.59463,3.9853 -0.58407,5.14545 0.0198,2.17147 -1.27781,2.83157 -2.30356,1.17188 -0.31867,-0.51563 -1.57906,-0.9375 -2.80087,-0.9375 -1.22179,0 -2.96059,-0.73828 -3.86398,-1.64063 -0.98344,-0.9823 -3.06167,-1.64062 -5.17922,-1.64062 -2.99507,0 -3.62421,0.35893 -4.10818,2.34375 -2.21704,9.09237 -10.90304,21.79266 -15.73365,23.00506 -2.6776,0.67204 -9.64862,-3.12579 -13.37928,-7.28906 -2.42132,-2.7021 -2.73434,-3.73065 -2.67786,-8.79948 0.0572,-5.13338 0.44979,-6.27234 3.71631,-10.78125 2.0088,-2.77284 4.07594,-5.33499 4.59364,-5.69367 0.51771,-0.35868 0.73844,-0.85499 0.49052,-1.10292 -0.24792,-0.24792 -2.85921,1.16821 -5.80287,3.14698 -2.94366,1.97875 -6.52547,4.21169 -7.95958,4.96207 -1.43411,0.75039 -6.40436,3.59107 -11.04498,6.31261 -4.64063,2.72153 -10.75781,6.21457 -13.59375,7.76228 -2.83594,1.54773 -6.97103,4.01842 -9.18908,5.49045 -2.21805,1.47201 -5.38211,3.34924 -7.03125,4.17162 -6.16921,3.0764 -26.89816,14.92698 -26.89875,15.37781 -3.4e-4,0.25781 7.27553,0.50367 16.16861,0.54636 11.68646,0.0561 18.24852,0.53322 23.66922,1.72098 11.16142,2.44567 22.96875,6.59927 22.96875,8.07999 0,1.64086 -2.71983,3.31573 -8.04413,4.95358 -3.05229,0.93893 -7.51773,2.33952 -9.92321,3.11242 -7.36343,2.36594 -20.73754,3.37023 -47.18891,3.54354 -21.76403,0.14258 -26.10105,0.41116 -30.9375,1.9158 l -5.625,1.74996 4.6875,0.76542 c 10.1892,1.66376 15.43202,2.91031 25.78125,6.12983 5.92969,1.84465 11.20312,3.65129 11.71875,4.01474 0.51562,0.36345 3.46875,1.66165 6.5625,2.8849 6.52705,2.58075 22.29437,10.5996 25.92476,13.18467 1.36932,0.97504 2.9082,1.77281 3.41972,1.77281 2.48293,0 11.43677,12.72761 11.43677,16.25704 0,1.99225 -0.52827,2.29524 -4.92188,2.82298 -2.70703,0.32515 -8.95483,0.59485 -13.884,0.59933 -13.90799,0.0127 -23.33842,-2.88546 -44.00662,-13.52386 -1.28906,-0.66351 -5.50781,-2.75467 -9.375,-4.64702 -6.89128,-3.37215 -11.07382,-6.31678 -20.57646,-14.4864 -4.87112,-4.18781 -5.78942,-3.96595 -3.32333,0.80291 2.45053,4.73882 6.83873,18.96284 7.8052,25.30002 0.51115,3.35156 0.81397,11.36719 0.67294,17.8125 -0.26082,11.92011 -2.38072,22.73486 -6.98315,35.625 -1.01257,2.83594 -1.44823,5.29687 -0.96813,5.46875 0.4836,0.17312 0.87293,6.28819 0.87293,13.71093 0,7.36915 0.25927,14.69483 0.57617,16.2793 l 0.57618,2.88086 3.6557,-4.87305 c 7.06092,-9.41215 17.55313,-20.0041 24.39326,-24.62513 6.38509,-4.31363 33.61395,-18.36539 50.72354,-26.17645 3.99772,-1.82509 9.69303,-4.43138 12.65625,-5.79175 2.96321,-1.36038 6.65327,-2.79338 8.20015,-3.18446 2.85997,-0.72305 18.34714,-6.85842 21.3154,-8.44426 2.13915,-1.14288 5.14481,-1.10904 5.87109,0.0661 1.37663,2.22744 -3.78244,6.8416 -24.13599,21.58674 -5.02535,3.64061 -10.9316,8.5297 -13.125,10.86464 -2.1934,2.33493 -6.51925,6.19974 -9.613,8.58844 -3.09375,2.38872 -5.83594,4.61002 -6.09375,4.93624 -0.25781,0.32621 -2.94568,2.16635 -5.97304,4.08917 -3.02735,1.92282 -8.14317,5.47247 -11.36846,7.88811 -3.2253,2.41562 -9.33606,6.71236 -13.57945,9.5483 -4.2434,2.83594 -8.40884,5.84231 -9.25654,6.68084 -3.29636,3.2607 -18.79407,11.0435 -26.15064,13.13259 l -7.73437,2.19638 0.10687,18.76073 c 0.0588,10.31838 0.3752,24.11054 0.70313,30.64921 l 0.59625,11.8885 7.96875,-12.78779 c 4.38281,-7.03329 8.86059,-14.55772 9.95062,-16.72097 1.09004,-2.16325 2.883,-5.1987 3.98438,-6.74544 1.10137,-1.54673 2.0025,-3.2283 2.0025,-3.7368 0,-0.5085 2.47234,-4.66213 5.49407,-9.23027 6.23197,-9.42125 28.69464,-31.68613 39.97468,-39.62271 3.60937,-2.53954 7.65865,-5.47605 8.9984,-6.52557 1.33974,-1.04953 5.98037,-4.33292 10.3125,-7.29641 4.33213,-2.96351 9.77504,-6.89645 12.09535,-8.73988 9.91813,-7.87967 13.67014,-8.32547 12.90456,-1.53326 -0.35274,3.12953 -2.38938,7.02053 -8.70135,16.62399 -4.53246,6.89596 -10.69609,16.33499 -13.69698,20.97561 -7.28205,11.2611 -10.15304,14.66101 -19.39558,22.96875 -4.30232,3.86719 -9.79273,8.9652 -12.20091,11.32891 -2.40817,2.36371 -6.72783,5.79004 -9.59924,7.61407 -4.56371,2.89903 -13.27748,9.39422 -20.50607,15.28511 -1.25913,1.02611 -5.26694,4.77259 -8.90625,8.32549 -3.63931,3.5529 -10.10845,9.40842 -14.37588,13.01225 -5.79228,4.8916 -7.62436,6.97648 -7.22797,8.22537 0.29203,0.9201 0.56998,10.77944 0.61767,21.90961 0.0477,11.13018 0.34716,20.23105 0.66548,20.22415 0.66401,-0.0144 3.48169,-7.93372 4.91556,-13.81558 0.53422,-2.19141 1.29494,-3.98438 1.6905,-3.98438 0.39556,0 1.48015,-1.6875 2.41021,-3.75 0.93006,-2.0625 2.04882,-3.75 2.48613,-3.75 0.43731,0 0.79669,3.0586 0.79863,6.79688 l 0.004,6.79687 1.9866,-3.28125 c 2.49555,-4.12187 16.28266,-17.4644 20.03763,-19.3915 1.54688,-0.79388 4.07813,-2.62176 5.625,-4.06196 2.59965,-2.42039 9.42228,-7.48976 24.84375,-18.45949 3.35157,-2.38406 7.99219,-6.09242 10.3125,-8.2408 2.32032,-2.14838 8.22657,-7.23286 13.125,-11.29886 8.81558,-7.31746 13.02759,-11.3387 21.93469,-20.94128 8.24241,-8.88598 14.62781,-11.70623 14.62781,-6.46067 0,5.67859 -5.46904,19.72056 -11.83709,30.39213 -0.96616,1.6191 -3.21548,5.41597 -4.99848,8.4375 -1.78301,3.02152 -7.9002,10.14243 -13.59375,15.82421 -8.91889,8.90047 -11.7795,11.10671 -20.66443,15.9375 -5.67187,3.08384 -10.94531,5.756 -11.71875,5.93813 -0.77343,0.18214 -2.03906,0.85544 -2.8125,1.49621 -1.89506,1.56983 -9.67709,5.20391 -11.14386,5.20391 -2.21655,0 -12.89959,8.3648 -19.41108,15.19884 -3.58046,3.75782 -9.74453,10.62928 -13.69794,15.26991 -3.9534,4.64062 -8.91607,9.85882 -11.02814,11.59598 l -3.84014,3.15846 0.43417,16.99779 c 0.37901,14.83835 0.8626,35.8914 2.9477,128.32589 0.3753,16.63745 0.24053,19.45313 -0.93109,19.45313 -0.825,0 -1.55513,-1.21194 -1.83559,-3.04688 -0.48793,-3.19238 -1.60189,-55.2376 -1.97148,-92.10937 -0.11887,-11.85938 -0.56149,-32.10938 -0.9836,-45 -0.42211,-12.89063 -0.71191,-24.70313 -0.644,-26.25 0.0679,-1.54688 2.44179,-7.45313 5.27532,-13.125 3.88301,-7.77266 5.40193,-12.01996 6.16724,-17.2453 1.68913,-11.53285 1.12321,-10.54955 -6.40527,11.12927 -2.05496,5.91743 -4.18825,10.90962 -4.74064,11.09375 -0.67086,0.22362 -1.03832,-3.19313 -1.10665,-10.29022 -0.0563,-5.84375 -0.38452,-19.27344 -0.72944,-29.84375 -0.34492,-10.57031 -0.44033,-19.60732 -0.21201,-20.08223 0.22831,-0.4749 0.37038,-3.21709 0.31572,-6.09375 -0.0547,-2.87665 -0.31836,-26.44212 -0.58597,-52.36771 -0.26761,-25.9256 -0.75854,-48.58722 -1.09096,-50.35917 -0.52695,-2.80887 -0.77795,-3.04816 -1.95875,-1.86736 -1.14861,1.14862 -1.34419,8.94085 -1.28752,51.29666 0.0368,27.46827 0.53035,56.0595 1.0969,63.53606 1.27222,16.78912 1.26279,19.76226 -0.0653,20.58307 -0.76831,0.47483 -0.70182,4.13412 0.249,13.70425 0.71346,7.18103 1.40597,16.43143 1.53891,20.55643 0.13295,4.125 0.34172,9.82031 0.46395,12.65625 0.12223,2.83594 -0.16231,5.64971 -0.6323,6.25283 -0.52215,0.67006 -0.39967,3.2988 0.31491,6.75844 0.93779,4.54037 0.93437,6.84448 -0.0173,11.6324 -0.91645,4.61068 -1.05874,18.44529 -0.62471,60.74156 0.75625,73.69675 0.72816,76.03339 -0.93391,77.70629 -0.75014,0.75502 -1.38065,0.96595 -1.40113,0.46875 z m -3.3651,-139.60937 c -1.48027,-2.34302 -2.98458,-4.2608 -3.34291,-4.26172 -0.35833,-9.3e-4 -2.4677,-1.94232 -4.6875,-4.31422 -2.21979,-2.37189 -5.93443,-5.41497 -8.25474,-6.76239 -2.32031,-1.34742 -6.11719,-3.79959 -8.4375,-5.44928 -2.32031,-1.64969 -8.4375,-5.21928 -13.59375,-7.93245 -9.78467,-5.14859 -24.85552,-14.85337 -44.727881,-28.80226 -7.936246,-5.57063 -30.06928,-26.99596 -36.625358,-35.45426 -1.947406,-2.51244 -5.005068,-6.39984 -6.794806,-8.63867 -1.789737,-2.23883 -3.936953,-5.22663 -4.771592,-6.63956 -0.834637,-1.41293 -2.35189,-3.09004 -3.371671,-3.7269 -1.742827,-1.08841 -1.814993,-0.97121 -1.201986,1.95206 1.124756,5.36368 3.959575,10.90876 9.569942,18.71944 2.982844,4.15268 6.375073,8.87844 7.538286,10.50169 1.163215,1.62325 3.483527,4.70058 5.15625,6.83849 1.672724,2.13791 4.939754,6.35666 7.260066,9.375 C 77.965088,454.08951 89.161628,465 90.782748,465 c 0.600739,0 1.092252,0.35882 1.092252,0.79736 0,0.99481 8.44631,6.30111 11.404,7.16444 2.01981,0.58958 15.40529,6.71303 20.18508,9.23407 1.13181,0.59696 4.92868,3.02374 8.4375,5.39285 3.50882,2.36911 8.06717,5.0285 10.12967,5.90977 12.52186,5.35036 35.34283,18.42603 37.72985,21.61796 2.75432,3.68311 2.51267,1.80459 -0.35095,-2.72805 z m 3.51312,-11.03994 c -1.08387,-8.57579 -2.95894,-16.32503 -5.27909,-21.81721 l -1.18813,-2.8125 -0.71267,2.73457 c -0.92735,3.5583 0.98708,13.19432 4.38828,22.0878 1.47446,3.85542 2.68084,7.61714 2.68084,8.35937 0,0.74223 0.2721,1.07741 0.60467,0.74484 0.33257,-0.33257 0.11031,-4.51616 -0.4939,-9.29687 z m -12.30185,-3.07103 C 165.30429,492.61762 138.14368,473.87602 122.39526,465 c -2.28715,-1.28906 -6.17432,-4.03125 -8.63818,-6.09375 -7.77986,-6.51256 -37.481373,-36.4198 -39.546013,-39.81994 -3.099792,-5.10485 -15.208883,-17.09224 -19.518668,-19.32248 -5.289115,-2.73703 -9.14599,-3.69391 -8.1176,-2.01395 6.903921,11.27812 25.659121,33.52515 35.351213,41.93287 1.488994,1.29167 5.171226,4.50767 8.182739,7.14664 5.752771,5.04115 24.152749,17.92852 31.297179,21.92061 2.30697,1.28906 4.94304,2.97656 5.85791,3.75 2.78278,2.35254 12.85098,8.28545 17.2883,10.1875 4.70251,2.01573 23.14097,14.27826 25.66788,17.07046 0.90392,0.99882 1.85867,1.60085 2.12168,1.33784 0.26301,-0.263 -0.51112,-1.53127 -1.72028,-2.81837 z m 0.62696,-9.11021 c -2.89352,-5.81541 -5.27217,-10.26592 -5.28591,-9.89003 -0.15445,4.22689 8.62459,22.38575 10.10625,20.9041 0.24232,-0.24233 -1.92683,-5.19866 -4.82034,-11.01407 z m 33.84189,-21.82347 c 2.11183,-4.125 4.1052,-8.34375 4.42971,-9.375 0.95123,-3.02279 -6.42097,4.65927 -8.82438,9.19527 -1.14519,2.16135 -3.528,6.4005 -5.29513,9.42033 -1.76714,3.01983 -3.21297,5.71617 -3.21297,5.99187 0,0.2757 2.03919,-1.35132 4.53155,-3.6156 2.92801,-2.66007 5.89024,-6.77082 8.37122,-11.61687 z m 6.78473,-4.98673 c 0,-1.12804 13.91341,-14.64823 18.28125,-17.7646 2.0625,-1.47154 12.08203,-6.83257 22.26562,-11.91338 10.1836,-5.08082 18.51563,-9.49928 18.51563,-9.81881 0,-0.31953 1.34814,-1.37733 2.99587,-2.35067 4.29213,-2.53542 9.37568,-7.43363 16.18852,-15.59826 6.96157,-8.34288 14.56561,-19.23069 14.56561,-20.85571 0,-0.62612 0.5718,-1.97055 1.27067,-2.98761 1.41843,-2.06425 6.40104,-15.58376 5.92051,-16.06431 -0.16883,-0.16881 -2.66208,2.96051 -5.54056,6.95407 -9.26336,12.85182 -13.54887,17.38522 -30.71312,32.48972 -13.10685,11.534 -33.47183,27.16935 -45.46875,34.90895 -2.0625,1.33059 -5.74418,4.34976 -8.18153,6.70927 -2.43733,2.35952 -4.7541,3.96743 -5.14839,3.57315 -0.6143,-0.6143 2.76123,-4.10252 10.51742,-10.86858 1.03125,-0.89961 5.51294,-4.0061 9.95931,-6.90332 4.44636,-2.89722 9.35776,-6.45726 10.91423,-7.91122 1.55646,-1.45395 4.80453,-4.09894 7.21792,-5.87775 2.41339,-1.77882 7.20511,-5.55426 10.64826,-8.38988 3.44316,-2.83562 7.05484,-5.78874 8.02598,-6.5625 1.87006,-1.48998 15.20056,-13.87892 16.64501,-15.46933 0.4683,-0.51563 2.95998,-3.61327 5.53705,-6.88364 2.57708,-3.27038 5.26817,-6.52872 5.98021,-7.24076 0.71204,-0.71204 2.24794,-2.88784 3.4131,-4.83511 1.16517,-1.94727 2.96754,-4.48971 4.00526,-5.64987 1.03771,-1.16015 1.44259,-2.10937 0.89972,-2.10937 -0.54287,0 -3.0355,2.42578 -5.53917,5.39062 -2.50367,2.96485 -5.40258,6.00644 -6.442,6.75909 -1.03944,0.75265 -4.89139,4.25888 -8.5599,7.79163 -3.66851,3.53275 -7.67633,7.11168 -8.90625,7.95317 -1.22993,0.8415 -4.97842,3.90245 -8.32998,6.80213 -5.44333,4.70942 -17.43722,14.05038 -22.83671,17.78547 -5.15996,3.56938 -24.14081,18.73175 -29.0136,23.17676 -2.99424,2.73137 -5.80232,4.96613 -6.24018,4.96613 -0.70367,0 -6.40187,7.11356 -8.94076,11.16152 -0.51562,0.8221 -1.19705,1.70567 -1.51427,1.96348 -0.31722,0.25781 -0.86198,1.52344 -1.21058,2.8125 -0.48177,1.78149 0.67833,0.9381 4.83582,-3.51563 3.00831,-3.22265 5.76792,-5.85937 6.13247,-5.85937 1.44938,0 0.53742,5.89411 -1.59629,10.31709 -1.24252,2.57561 -1.87533,4.68291 -1.40625,4.68291 0.46907,0 0.85285,-0.34559 0.85285,-0.76798 z m -29.60297,-25.7164 c -0.88376,-2.79565 -4.81621,-7.89955 -6.61963,-8.59159 -0.82657,-0.31718 -0.26604,0.94229 1.31976,2.96543 1.51609,1.93423 3.2543,4.46601 3.86267,5.62616 0.60838,1.16016 1.33066,2.10938 1.60508,2.10938 0.27441,0 0.19887,-0.94922 -0.16788,-2.10938 z m -6.2626,-2.31415 c -4.95083,-5.99916 -12.03672,-11.76996 -19.91568,-16.21944 -4.64063,-2.62071 -10.96875,-6.32983 -14.0625,-8.24251 -3.09375,-1.91268 -8.78906,-4.90735 -12.65625,-6.65482 -15.36271,-6.94198 -32.585944,-15.51322 -37.03125,-18.42883 -9.897871,-6.49184 -23.629718,-21.80492 -29.2329,-32.59908 -0.845953,-1.62967 -1.714469,-2.44084 -1.930036,-1.8026 -0.657803,1.9476 8.128353,18.99749 14.012007,27.19086 8.562221,11.92347 21.138979,21.57137 35.900929,27.5404 1.03125,0.41699 4.19531,1.3796 7.03125,2.13916 6.3908,1.71164 21.22141,7.75711 24.375,9.9361 4.00786,2.76924 16.80959,10.37465 19.96425,11.8606 1.65247,0.77837 5.53575,2.84638 8.6295,4.5956 6.84217,3.86856 7.63432,3.97888 4.91568,0.68456 z M 156.98008,413.7841 c -11.17655,-10.28387 -21.95904,-19.6343 -25.26133,-21.9063 -3.57436,-2.45916 -13.49548,-7.62738 -21.5625,-11.23256 -17.673595,-7.89839 -26.256537,-13.70198 -37.5,-25.35666 -2.578125,-2.67242 -5.940817,-5.7538 -7.472647,-6.84751 l -2.785148,-1.98857 2.268563,3.72688 c 5.289691,8.69008 14.346627,20.0467 20.104139,25.20886 8.118445,7.27894 11.202331,9.30821 20.973503,13.80101 4.48887,2.064 11.11472,5.17495 14.72409,6.91325 3.60938,1.73828 9.72656,4.67349 13.59375,6.52268 9.69465,4.63575 12.35738,6.10465 14.53125,8.01624 1.63078,1.43401 10.50768,6.38118 11.66758,6.50243 0.22967,0.024 -1.24689,-1.48788 -3.28125,-3.35975 z m 50.25019,-19.46067 c 4.50462,-7.22483 18.60594,-22.14556 66.69725,-70.57288 26.55807,-26.74363 27.94748,-28.06734 27.94748,-26.62597 0,0.69573 -10.23047,11.59194 -22.73438,24.21379 -59.74035,60.30388 -63.53683,64.2794 -69.15049,72.41163 -1.24577,1.80469 -2.91334,3.79518 -3.70571,4.42331 -0.80062,0.63468 -0.97104,1.1553 -0.38358,1.17188 0.58139,0.0164 1.61554,-0.64311 2.29812,-1.46556 0.68257,-0.82245 4.00376,-3.54588 7.38042,-6.05207 3.37665,-2.50618 6.56124,-4.90966 7.07687,-5.34107 0.51562,-0.4314 3.89062,-3.04102 7.5,-5.79917 9.11794,-6.96755 27.05864,-22.09626 32.87065,-27.71857 8.24283,-7.97377 11.80777,-12.79302 33.17187,-44.84328 5.703,-8.55559 6.58363,-10.17395 6.59991,-12.1289 0.0129,-1.55631 -0.21078,-1.5451 -3.59228,0.18001 -1.98336,1.01184 -6.38877,4.07901 -9.78979,6.81594 -7.41157,5.96435 -17.09019,13.1411 -23.77931,17.63248 -2.68777,1.80469 -6.07524,4.34063 -7.52771,5.63544 -1.45246,1.2948 -5.8049,5.0324 -9.67209,8.30576 -6.90861,5.84776 -20.5199,19.67009 -20.58952,20.90874 -0.0195,0.34717 -1.03094,1.82373 -2.2476,3.28125 -1.21667,1.45753 -3.8033,5.60318 -5.74807,9.21256 -3.32467,6.17036 -8.21701,14.91576 -10.32106,18.44955 -0.51562,0.86601 -3.04687,4.66288 -5.625,8.4375 -2.57812,3.77463 -4.84687,7.28482 -5.04168,7.80045 -0.63739,1.6872 6.63437,-5.55598 8.3657,-8.33282 z m -29.62888,-15.80206 c -0.96917,-1.16331 -2.8918,-3.38075 -4.2725,-4.92762 -1.38071,-1.54688 -4.51142,-6.82031 -6.95714,-11.71875 -2.44572,-4.89844 -5.41508,-10.21341 -6.59859,-11.81104 -1.1835,-1.59763 -7.3471,-6.15363 -13.69687,-10.12446 -10.23713,-6.4018 -28.64563,-18.76291 -31.25691,-20.9887 -0.52903,-0.45092 -2.21653,-1.61455 -3.75,-2.58583 -1.53347,-0.97128 -4.64645,-3.25777 -6.91772,-5.08109 -2.27128,-1.82332 -6.138726,-4.58076 -8.594338,-6.12763 -12.719346,-8.01238 -26.260182,-17.59011 -31.338572,-22.16646 -1.546875,-1.39395 -4.478138,-2.84016 -6.51392,-3.21381 l -3.701419,-0.67936 6.852229,5.99856 c 3.768727,3.29922 7.999179,6.84232 9.401005,7.87357 1.401825,1.03125 3.780836,3.07588 5.286689,4.54362 1.505854,1.46775 7.800416,6.27363 13.987916,10.67974 6.1875,4.4061 11.46094,8.31862 11.71875,8.69447 0.88848,1.29526 12.69262,8.11784 26.71875,15.44296 7.73437,4.03926 16.21297,9.09141 18.84133,11.22701 5.81048,4.72113 17.28886,17.84572 21.76014,24.88095 3.43522,5.40507 9.7494,12.98023 10.40841,12.48703 0.21168,-0.15842 -0.40807,-1.23984 -1.37724,-2.40316 z m -5.71884,-1.88075 c -1.57314,-1.67578 -5.31314,-6.40873 -8.31109,-10.51767 -2.99795,-4.10894 -9.30625,-11.28081 -14.01843,-15.9375 -7.80702,-7.71508 -9.76956,-9.07952 -22.10719,-15.36997 -18.70935,-9.53911 -27.991556,-15.21234 -33.495581,-20.47227 -0.663289,-0.63388 -2.456258,-1.89106 -3.984372,-2.79374 -1.528113,-0.90268 -2.778387,-1.9416 -2.778387,-2.30872 0,-0.36712 -2.636719,-2.25369 -5.859375,-4.19239 -3.222656,-1.93868 -7.601476,-5.23877 -9.73071,-7.3335 -9.122128,-8.97433 -17.457057,-16.54272 -17.819281,-16.1805 -1.147718,1.14773 15.022446,23.33334 21.018513,28.8376 6.062401,5.56515 26.182303,20.64473 31.061873,23.28043 1.3325,0.71975 4.57426,2.72265 7.2039,4.45089 2.62965,1.72824 9.14219,5.04954 14.47232,7.38067 15.91382,6.95988 20.49133,9.92279 26.33483,17.04585 2.90169,3.53709 7.12044,7.67226 9.375,9.18928 2.25455,1.51702 5.48495,3.93051 7.17868,5.36331 4.17219,3.52948 4.96268,3.29018 1.4593,-0.44177 z m 33.8987,-50.02732 c 7.55165,-6.44104 20.89019,-16.27818 29.0625,-21.43354 3.09375,-1.95164 8.36719,-5.31627 11.71875,-7.47696 3.35156,-2.1607 7.14844,-4.42962 8.4375,-5.04205 1.28906,-0.61243 3.82031,-2.01936 5.625,-3.12651 4.36597,-2.67846 11.29575,-6.55253 18.77139,-10.49408 3.36333,-1.77332 9.26958,-5.28469 13.125,-7.80305 3.85543,-2.51835 8.22453,-5.10837 9.70914,-5.75557 1.48459,-0.64721 2.52381,-1.35219 2.30938,-1.56663 -0.43483,-0.43484 -10.95571,3.30073 -15.32116,5.43997 -3.02687,1.48327 -20.34501,9.38353 -33.28125,15.18236 -11.52413,5.16584 -30.61094,15.18785 -35.44352,18.6105 -6.7958,4.81311 -19.73291,17.54694 -23.32473,22.95823 -3.69181,5.56196 -8.70509,15.08447 -8.71316,16.55028 -0.003,0.51563 2.4176,-1.62369 5.37875,-4.75404 2.96115,-3.13036 8.33703,-8.21037 11.94641,-11.28891 z m -3.6491,13.83595 c 6.79794,-1.85504 15.16032,-6.42798 25.2116,-13.78691 3.09375,-2.26506 11.32031,-7.94796 18.28125,-12.62867 12.64368,-8.50193 25.18508,-18.55101 32.31526,-25.89332 2.07817,-2.13999 5.66633,-5.05283 7.9737,-6.47297 2.30736,-1.42015 6.31518,-4.2353 8.90625,-6.2559 2.59107,-2.02059 6.16079,-4.80306 7.9327,-6.18327 8.73299,-6.80241 8.11174,-6.93996 -2.05938,-0.45595 -3.48573,2.22213 -6.57248,4.04024 -6.85942,4.04024 -0.28694,0 -1.90448,1.05469 -3.59453,2.34375 -1.69005,1.28906 -3.46156,2.34375 -3.9367,2.34375 -0.47513,0 -3.81032,1.73085 -7.41151,3.84634 -3.60119,2.11549 -8.65699,5.01311 -11.23512,6.43917 -19.30454,10.67804 -37.28668,21.80277 -46.2629,28.62074 -5.03596,3.8251 -21.41381,17.76583 -23.1121,19.67288 -0.51562,0.579 -2.20312,2.45129 -3.75,4.16064 -2.31983,2.5635 -2.48406,3.01331 -0.9375,2.56786 1.03125,-0.29703 4.87353,-1.3583 8.5384,-2.35838 z M 189.42851,280.3125 c 1.53823,-5.92969 3.29231,-14.65821 3.89795,-19.39671 1.45718,-11.40106 -0.44156,-21.70614 -7.35022,-39.89176 l -5.07836,-13.36778 0.51129,16.875 c 0.28123,9.28125 0.71789,25.3125 0.97037,35.625 0.25249,10.3125 0.71912,23.17969 1.03696,28.59375 l 0.57789,9.84375 1.31867,-3.75 c 0.72526,-2.0625 2.57721,-8.60156 4.11545,-14.53125 z m -8.12431,11.01562 c -0.17093,-1.16015 -0.55863,-12.44531 -0.86157,-25.07812 -0.30294,-12.63281 -0.68024,-24.86719 -0.83846,-27.1875 -0.15821,-2.32031 -0.63773,-10.125 -1.06557,-17.34375 -1.06335,-17.94069 -1.44405,-15.62884 -4.274,25.95456 -1.24633,18.31351 -0.48307,27.81179 2.99951,37.32669 1.03799,2.83594 2.12741,5.89453 2.42092,6.79687 0.77095,2.37016 1.98563,2.01852 1.61917,-0.46875 z M 84.81115,239.0625 c 0.557071,0 3.123351,-1.37109 5.702844,-3.04688 4.729078,-3.07227 14.275676,-7.95476 28.079756,-14.36104 7.06323,-3.27795 10.04094,-4.51719 20.85937,-8.68101 2.44922,-0.94266 5.92969,-2.41622 7.73438,-3.27456 1.80469,-0.85835 7.5,-2.99894 12.65625,-4.75685 7.66506,-2.61324 8.94751,-3.30577 7.03125,-3.79688 -2.68893,-0.68913 -15.90847,2.89588 -23.57157,6.39239 -4.42462,2.01885 -8.31933,3.27429 -19.08468,6.15187 -1.54687,0.41348 -9.98437,4.24556 -18.75,8.51573 -16.946169,8.25533 -34.923186,19.77302 -41.776844,26.76601 l -4.160656,4.24525 12.133522,-7.07702 c 6.673437,-3.89235 12.589306,-7.07701 13.146378,-7.07701 z m -10.986758,12.25651 c 2.966897,-0.99329 6.87092,-2.09248 8.675608,-2.44264 1.804687,-0.35015 4.546875,-1.22216 6.09375,-1.93779 1.546875,-0.71563 4.921875,-1.89108 7.5,-2.61211 18.70242,-5.23055 48.67435,-19.50295 62.8125,-29.91081 5.15625,-3.79579 10.0045,-7.66863 10.7739,-8.60629 1.29531,-1.57859 1.23617,-1.65318 -0.79851,-1.0074 -1.20857,0.38358 -4.79119,1.44406 -7.9614,2.35664 -3.17019,0.91256 -8.29524,2.71809 -11.38899,4.01228 -3.09375,1.2942 -6.67969,2.673 -7.96875,3.064 -2.07586,0.62966 -5.83232,2.21832 -15.46875,6.54194 -1.54687,0.69404 -6.60937,2.91041 -11.25,4.92524 -4.64062,2.01484 -11.60156,5.49705 -15.46875,7.73824 -3.867188,2.2412 -10.617188,5.84039 -15,7.99822 -11.312395,5.56951 -20.736367,11.6662 -18.050608,11.67756 1.158103,0.005 4.533103,-0.80378 7.5,-1.79708 z m 204.228748,-9.58057 c 1.32372,-2.1418 -23.21516,-14.33252 -51.64689,-25.65777 -3.09375,-1.23233 -10.26563,-3.52223 -15.9375,-5.08865 -5.67188,-1.56643 -13.26563,-3.87012 -16.875,-5.11931 -3.60938,-1.24919 -6.72809,-2.1074 -6.93047,-1.90714 -1.33753,1.32353 17.81264,17.0595 24.91554,20.47347 2.99884,1.44137 7.13993,3.4682 9.20243,4.50408 19.50464,9.79607 33.6094,13.83899 47.62795,13.6518 5.05475,-0.0675 9.39452,-0.4529 9.64394,-0.85648 z m 2.2387,-2.44157 c -0.0461,-1.57072 -8.3054,-9.52375 -13.57309,-13.06987 -12.04614,-8.10926 -23.9103,-13.23402 -47.07768,-20.33535 -15.53015,-4.76034 -24.96859,-6.37444 -30.76162,-5.26062 -2.04777,0.39371 -2.82761,0.76436 -1.733,0.82366 1.09462,0.0593 3.8368,0.92377 6.09375,1.92107 2.25696,0.99729 8.3223,2.93312 13.47855,4.30186 8.50088,2.25659 19.81722,6.14141 27.1875,9.3333 1.54687,0.6699 3.86719,1.5339 5.15625,1.91998 1.28906,0.38607 5.50781,2.17911 9.375,3.98453 21.26759,9.92889 27.38637,13.13166 29.91121,15.65649 1.60463,1.60463 1.97302,1.74208 1.94313,0.72495 z m -167.46499,-25.4686 c 4.56258,-1.13713 13.54451,-4.16534 19.95984,-6.72935 6.41534,-2.56402 13.82983,-5.07254 16.47665,-5.57451 7.96044,-1.50967 6.46417,-2.12299 -3.48209,-1.4273 -21.46063,1.50107 -44.86924,5.75202 -61.40625,11.15122 -2.320313,0.75756 -6.117188,1.92267 -8.4375,2.58913 l -4.21875,1.21175 3.28125,0.6827 c 6.733522,1.401 29.07959,0.27643 37.82685,-1.90364 z m -25.416186,-5.6134 c 17.278996,-5.41794 33.970906,-8.395 53.542466,-9.54953 8.84296,-0.52164 16.46798,-1.05689 16.94448,-1.18943 0.4765,-0.13254 -1.7189,-1.58647 -4.87866,-3.23094 l -5.74502,-2.98996 -8.95906,0.929 c -9.81639,1.01791 -23.03171,3.72369 -29.44837,6.02941 -2.25623,0.81074 -4.77932,1.47408 -5.60687,1.47408 -1.98945,0 -10.106598,3.23706 -19.227563,7.6678 -8.839518,4.29402 -8.141232,4.47168 3.378597,0.85957 z M 187.5,197.85365 c 0,-0.95652 10.44308,-8.9541 14.20785,-10.88074 1.72475,-0.88265 4.67317,-2.81263 6.55206,-4.28886 1.87889,-1.47623 3.60706,-2.68405 3.8404,-2.68405 0.23333,0 3.9695,-2.10907 8.30259,-4.68682 4.33309,-2.57775 8.2351,-4.68712 8.67113,-4.6875 0.43603,-3.7e-4 1.91259,-0.78492 3.28125,-1.74344 1.36865,-0.95852 8.81659,-5.0357 16.55097,-9.06042 7.73437,-4.02471 15.32812,-8.24058 16.875,-9.36859 1.54687,-1.12802 3.44531,-2.32159 4.21875,-2.65237 1.61655,-0.69137 3.96536,-2.13241 7.96875,-4.88898 2.99763,-2.06404 13.66406,-8.2796 18.70142,-10.8977 4.04856,-2.1042 21.00017,-13.28759 23.95483,-15.80359 l 2.34375,-1.99579 -2.8125,1.79588 c -1.54688,0.98775 -9.5625,5.54075 -17.8125,10.1178 -8.25,4.57706 -17.74219,10.27697 -21.09375,12.66649 -5.68844,4.05561 -16.84347,10.40097 -37.03125,21.06466 -4.64063,2.4513 -9.49219,5.182 -10.78125,6.06824 -1.28906,0.88624 -5.71875,3.39264 -9.84375,5.56977 -8.11822,4.28472 -27.44844,16.99213 -34.16218,22.45771 -2.2892,1.86362 -4.81242,3.87587 -5.60717,4.47166 -1.17963,0.88434 -0.9748,0.99339 1.11531,0.59384 1.40816,-0.26919 2.56029,-0.79443 2.56029,-1.1672 z m -9.69161,-3.08803 c -0.26007,-0.64453 -0.47287,-0.11718 -0.47287,1.17188 0,1.28906 0.2128,1.81641 0.47287,1.17187 0.26007,-0.64453 0.26007,-1.69921 0,-2.34375 z m -20.10014,-2.19608 c -4.26828,-2.34898 -8.20598,-4.12238 -8.75043,-3.94089 -1.08437,0.36145 13.74388,8.25706 15.45449,8.22905 0.58104,-0.009 -2.43579,-1.93918 -6.70406,-4.28816 z m 26.04175,2.31981 c 0,-0.51563 -0.42188,-0.67678 -0.9375,-0.3581 -0.51563,0.31868 -0.9375,1.00128 -0.9375,1.5169 0,0.51563 0.42187,0.67678 0.9375,0.3581 0.51562,-0.31868 0.9375,-1.00128 0.9375,-1.5169 z m -14.88579,-3.49516 c -1.57073,-1.98319 -3.60362,-4.19803 -4.51755,-4.92188 -0.91393,-0.72383 -0.0862,0.55285 1.83958,2.83706 1.92569,2.28422 3.50126,4.49907 3.50126,4.92188 0,0.42281 0.45732,0.76875 1.01628,0.76875 0.55895,0 -0.26886,-1.62262 -1.83957,-3.60581 z m 4.57329,0.41526 c 0,-0.72355 -1.91588,-3.36027 -4.25752,-5.85937 l -4.25751,-4.54383 3.78473,5.15625 c 2.0816,2.83594 3.78655,5.47266 3.78877,5.85937 0.002,0.38672 0.21497,0.70313 0.47278,0.70313 0.25781,0 0.46875,-0.59199 0.46875,-1.31555 z m 2.9013,-18.8407 -0.88539,-8.4375 0.36881,11.25 c 0.53108,16.19988 0.7559,18.59813 1.0985,11.71875 0.16692,-3.35156 -0.0949,-9.89063 -0.58192,-14.53125 z m 52.4112,18.10389 c 23.74654,0.12793 41.95058,-1.33713 48.00277,-3.86327 1.70004,-0.70957 4.67301,-1.5864 6.6066,-1.94849 6.6772,-1.25039 3.47027,-2.25873 -9.375,-2.94776 -28.41664,-1.52428 -52.71051,0.61233 -67.55113,5.94102 -6.22711,2.23592 -8.8146,4.48106 -3.93324,3.41284 1.80469,-0.39494 13.61719,-0.66238 26.25,-0.59434 z m -69.65348,-4.31529 c -1.90934,-1.95533 -3.47152,-3.90031 -3.47152,-4.32217 0,-1.07381 -5.81375,-9.93518 -6.51826,-9.93518 -0.31761,0 -1.38562,-1.37109 -2.37335,-3.04688 -0.98772,-1.67578 -2.14067,-3.46875 -2.56211,-3.98437 -1.635,-2.00039 -5.43032,-7.71544 -8.20172,-12.35026 -1.59513,-2.66765 -3.9351,-5.83171 -5.19994,-7.03125 -1.26485,-1.19955 -2.30701,-2.52685 -2.31592,-2.94957 -0.0188,-0.89362 -5.05434,-8.35173 -6.87106,-10.17676 -0.68008,-0.68319 -2.40916,-3.24607 -3.8424,-5.69528 -1.43325,-2.44922 -2.67128,-4.45267 -2.7512,-4.45211 -0.0799,5.6e-4 -0.21065,2.155 -0.29054,4.78763 -0.21295,7.01801 -2.58302,12.38563 -6.74124,15.26729 -1.93974,1.34423 -4.03025,2.44406 -4.64558,2.44406 -0.61532,0 -2.71994,1.44655 -4.676902,3.21456 -7.394237,6.68024 -10.155194,5.33725 -10.463269,-5.08956 l -0.09695,-3.28125 -2.552906,2.96041 c -3.029919,3.51356 -7.570659,5.94584 -11.100099,5.94584 -1.400605,0 -2.321944,0.22462 -2.047418,0.49913 0.843371,0.84338 15.911528,7.0917 21.458596,8.89827 4.735135,1.54212 11.171156,4.53257 24.761016,11.50502 5.02645,2.57888 19.80914,10.00875 26.71875,13.429 2.32031,1.14856 5.19229,2.3675 6.38217,2.70875 2.14312,0.61467 2.13653,0.5672 -0.70312,-5.05811 -3.12668,-6.19389 -3.27151,-6.66956 -2.03084,-6.66956 0.45963,0 1.51495,1.69761 2.34514,3.77246 1.57634,3.93967 8.50944,12.16504 10.25382,12.16504 0.55459,0 -0.55382,-1.59982 -2.46315,-3.55515 z M 146.25,186.5625 c -1.83597,-1.1865 -3.07704,-1.1865 -2.34375,0 0.31868,0.51562 1.29279,0.93104 2.16471,0.92315 1.36619,-0.0124 1.39094,-0.13996 0.17904,-0.92315 z m 52.01874,-6.80692 c 4.13188,-4.25942 23.59476,-23.64145 43.25083,-43.07115 24.16471,-23.88641 35.29729,-35.49597 34.37645,-35.84933 -0.74903,-0.28743 -2.38084,-0.5226 -3.62625,-0.5226 -1.25814,0 -3.83142,-1.415737 -5.7908,-3.185916 l -3.52643,-3.185925 -2.77295,2.211066 c -2.16257,1.724372 -3.50087,2.095378 -6.07992,1.685503 -3.99946,-0.635615 -7.48705,-2.355506 -9.51924,-4.694373 -2.11131,-2.429909 -4.53744,-10.114554 -5.21606,-16.521574 l -0.57302,-5.40997 -2.26924,5.40997 c -1.24809,2.975483 -4.15434,10.050594 -6.45836,15.722469 -2.30402,5.671875 -4.80779,11.64188 -5.56394,13.26668 -0.75614,1.6248 -1.37481,3.40624 -1.37481,3.95875 0,0.55251 -1.00496,3.23094 -2.23326,5.95206 -1.22829,2.72114 -3.16521,7.26782 -4.30427,10.10376 -1.13905,2.83594 -3.08721,7.34497 -4.32924,10.02007 -1.24203,2.6751 -2.25823,5.44351 -2.25823,6.15204 0,0.70852 -0.80063,2.94948 -1.77917,4.97992 -7.83636,16.26018 -11.3874,24.19202 -11.14976,24.90493 0.15337,0.46013 1.75403,-0.15738 3.55702,-1.37225 5.10249,-3.43809 12.36414,-7.31748 12.82835,-6.85328 0.23076,0.23077 -2.62285,2.46544 -6.34136,4.96594 -3.71851,2.50051 -7.94335,5.60107 -9.38852,6.89013 -2.70147,2.40965 -8.82821,12.1875 -7.63661,12.1875 0.36646,0 4.04691,-3.48499 8.17879,-7.74442 z m -165.237698,3.26711 c 1.512315,-3.24974 8.041672,-13.35071 13.408095,-20.74241 2.694656,-3.71162 4.417328,-9.39908 4.00584,-13.2254 l -0.288727,-2.68482 -6.5625,3.21171 c -3.609375,1.76644 -7.860441,4.67822 -9.446813,6.47062 -3.165209,3.57627 -6.021937,12.25518 -6.021937,18.295 0,3.91524 1.891656,12.23281 2.772567,12.19092 0.279775,-0.0133 1.239839,-1.59533 2.133475,-3.51562 z m 10.562708,0.94478 c 5.313497,-2.65805 8.014724,-5.06978 9.9691,-8.90068 1.765919,-3.46148 1.904599,-4.9016 1.414303,-14.68667 -0.298979,-5.96688 -0.556772,-11.19018 -0.572875,-11.60733 -0.0161,-0.41715 -0.451153,-0.49772 -0.966778,-0.17904 -0.515625,0.31868 -0.9375,2.25604 -0.9375,4.30524 0,4.43208 -3.342007,11.41665 -8.961279,18.72848 -2.206933,2.87167 -5.312597,7.42602 -6.901476,10.12076 l -2.88887,4.89954 3.516438,-0.63668 c 1.93404,-0.35017 4.782062,-1.26981 6.328937,-2.04362 z M 142.5,185.13049 c 0,-0.27198 -5.80078,-3.33257 -12.89063,-6.80132 -7.08984,-3.46874 -14.36718,-7.21762 -16.17187,-8.33084 -4.21677,-2.60111 -24.417173,-10.76552 -25.633176,-10.36019 -0.509161,0.16972 1.358603,1.40626 4.150589,2.74785 2.791987,1.3416 10.854687,5.22077 17.917107,8.62038 7.06243,3.39962 13.14352,6.18113 13.51355,6.18113 0.76129,0 14.14522,6.12216 16.30193,7.45692 1.61254,0.99798 2.8125,1.20536 2.8125,0.48607 z m 43.09177,-4.82458 c 0.0183,-0.60519 2.30551,-6.3005 5.08276,-12.65625 2.77723,-6.35575 6.85432,-15.77466 9.06019,-20.93091 2.20587,-5.15625 4.96451,-11.1714 6.13029,-13.367 1.16579,-2.19559 2.61782,-5.57059 3.22675,-7.5 1.63819,-5.19064 7.06891,-18.76789 9.65289,-24.133 1.24169,-2.578125 3.23265,-7.429688 4.42435,-10.78125 1.19169,-3.351563 2.724,-6.925901 3.40511,-7.942974 2.32521,-3.472107 1.59954,-4.169713 -2.92193,-2.808954 -3.90285,1.174587 -13.06123,0.666309 -18.49845,-1.026641 -0.98421,-0.306447 -1.76946,0.15689 -2.11592,1.248501 -0.30301,0.954685 -2.3012,3.503565 -4.44043,5.664179 C 195.23613,89.466466 194.16303,90 190.69622,90 c -5.1943,0 -7.81255,-1.046693 -12.15478,-4.859075 l -3.54186,-3.109675 0.7276,14.53125 c 0.40018,7.99219 0.74382,15.375 0.76364,16.40625 0.11393,5.9258 1.77507,36.07287 2.11795,38.4375 0.2243,1.54687 0.69262,7.03125 1.04071,12.1875 0.34809,5.15625 1.20217,11.01007 1.89796,13.0085 0.69578,1.99842 1.28001,4.95154 1.29829,6.5625 l 0.0332,2.929 1.33981,-2.34375 c 0.73689,-1.28906 1.35476,-2.8389 1.37302,-3.44409 z m -13.17235,-2.41529 c -0.0675,-5.69196 -0.22435,-6.33967 -0.965,-3.98437 -0.81039,2.57705 -0.32772,10.78125 0.63427,10.78125 0.22622,0 0.37505,-3.05859 0.33073,-6.79688 z m 55.61376,3.5261 c 12.78716,-1.78204 41.17075,-2.48255 50.60925,-1.24904 10.41647,1.36134 10.67074,0.5781 0.62247,-1.91737 -18.51527,-4.59824 -39.80587,-5.39994 -51.81304,-1.95104 -5.06892,1.45598 -16.10269,7.7918 -12.29561,7.06039 1.54687,-0.29719 7.3415,-1.1715 12.87693,-1.94294 z m -36.80403,-3.69886 c 0.0114,-0.48173 0.83985,-2.59111 1.84085,-4.6875 1.00099,-2.09638 2.06878,-5.07724 2.37285,-6.62411 0.61075,-3.10698 -3.00975,4.04552 -6.16915,12.1875 l -1.81893,4.6875 1.87677,-2.34375 c 1.03222,-1.28906 1.88614,-2.73789 1.89761,-3.21964 z m -20.8218,-32.71639 c -0.45284,-9.88362 -1.11646,-29.57178 -1.47473,-43.75147 l -0.65137,-25.78125 -3.63699,6.400864 c -3.97456,6.994965 -8.68577,12.09813 -12.88484,13.956827 -3.08435,1.365262 -3.12601,1.496165 -1.26086,3.962118 0.75704,1.000891 1.37644,2.539481 1.37644,3.419081 0,1.56241 -10.13973,11.07018 -15.20139,14.25397 -3.57092,2.24611 -11.05828,2.08998 -15.34916,-0.32005 -4.00022,-2.24679 -5.19474,-1.87314 -2.05299,0.64219 1.20049,0.96112 5.02536,5.96625 8.49972,11.1225 3.47436,5.15625 7.78785,11.27344 9.58554,13.59375 1.79769,2.32031 3.55166,4.85156 3.8977,5.625 0.34605,0.77344 2.98271,4.90509 5.85925,9.18145 2.87654,4.27636 6.29755,9.52411 7.60225,11.66168 1.30468,2.13756 4.89061,5.84745 7.96875,8.2442 l 5.59658,4.3577 1.47472,-9.29916 c 1.21288,-7.64809 1.32853,-12.48983 0.65138,-27.26939 z m 40.97376,27.56483 c 3.59554,-3.64583 6.32776,-6.6288 6.07159,-6.6288 -0.25617,0 -4.04173,3.44165 -8.41235,7.6481 -4.37064,4.20646 -7.10285,7.18941 -6.0716,6.6288 1.03125,-0.56061 4.81681,-4.00226 8.41236,-7.6481 z m -189.070244,2.19541 c 0.379944,-2.65923 -2.03981,-4.48644 -4.968076,-3.75149 -2.316243,0.58134 -2.336208,0.65812 -0.895549,3.44405 1.736814,3.35863 5.400237,3.55071 5.863625,0.30744 z m 197.805214,-4.0448 c 4.3365,-3.04405 18.49255,-11.07151 20.83533,-11.81508 1.84603,-0.5859 26.42651,-14.81047 34.673,-20.06505 1.28873,-0.82116 5.73821,-3.39147 9.88773,-5.71178 20.84332,-11.6551 20.9002,-11.69362 17.53473,-11.87332 -4.44589,-0.23737 -9.13214,-1.33761 -11.05021,-2.59439 -2.13961,-1.40192 -5.68197,-10.41306 -6.24832,-15.89463 -0.26594,-2.57395 -0.7832,-2.16547 -10.59209,8.36454 -10.63989,11.42211 -24.94807,25.88159 -43.85078,44.31452 -9.23177,9.00235 -15.94005,17.05828 -14.20464,17.05828 0.2613,0 1.61816,-0.80239 3.01525,-1.78309 z m -70.43306,-3.59056 c -3.05117,-4.36287 -7.576,-9.68606 -6.53892,-7.69263 1.53372,2.94807 8.24615,11.98853 8.62215,11.61254 0.21301,-0.21301 -0.72444,-1.97697 -2.08323,-3.91991 z m 26.56698,-5.4076 c 0,-0.77344 -0.42188,-1.40625 -0.9375,-1.40625 -0.51563,0 -0.9375,0.63281 -0.9375,1.40625 0,0.77344 0.42187,1.40625 0.9375,1.40625 0.51562,0 0.9375,-0.63281 0.9375,-1.40625 z M 15,160.3125 c 0,-0.51563 -0.474609,-0.9375 -1.054687,-0.9375 -1.26449,0 -0.40024,-5.27817 1.175046,-7.17627 0.587798,-0.70826 2.862082,-1.26123 5.187203,-1.26123 l 4.140479,0 -1.994661,-2.10938 c -2.354278,-2.48967 -6.51588,-10.36267 -6.51588,-12.32686 0,-0.75547 -1.205392,-2.2319 -2.678647,-3.28094 l -2.678649,-1.90738 -1.9276168,2.07791 c -1.9352525,2.08613 -2.4072805,3.48667 -2.2011646,6.53102 0.1339444,1.97838 5.5946544,2.31901 7.5145754,0.46875 0.983451,-0.94776 1.152162,-0.8133 0.882193,0.70313 -0.269346,1.51293 -1.192102,1.93018 -4.778498,2.16074 -3.0609848,0.19679 -4.444693,0.69659 -4.444693,1.60546 0,2.30589 3.7535794,11.45424 5.731291,13.9685 C 13.301854,161.30182 15,161.99347 15,160.3125 Z M 7.5305301,139.04755 c 0.038653,-0.97019 6.5319699,-4.05809 6.5319699,-3.10628 0,0.38728 -0.527344,1.12605 -1.171875,1.6417 -1.69156,1.35332 -5.3959888,2.36551 -5.3600949,1.46458 z M 20.625,156.4622 c 0,-2.20399 0.342201,-2.78149 1.40625,-2.37317 0.773437,0.29679 1.40625,0.0783 1.40625,-0.48564 0,-1.53677 -5.871102,-0.12695 -7.265625,1.74467 -1.50313,2.0174 -1.53949,3.83205 -0.04687,2.33944 0.61875,-0.61875 1.725094,-1.125 2.458542,-1.125 1.079075,0 1.110838,0.26834 0.166458,1.40625 -0.955848,1.15173 -0.891783,1.40625 0.353958,1.40625 1.076686,0 1.521042,-0.85094 1.521042,-2.9128 z m 7.743954,0.53111 c 1.4127,-1.30993 2.568546,-2.53607 2.568546,-2.72475 0,-0.18868 -1.476563,0.11011 -3.28125,0.66398 -2.189672,0.67203 -3.28125,1.57848 -3.28125,2.72475 0,2.31983 0.945589,2.16263 3.993954,-0.66398 z m 56.700335,1.36416 c -2.624685,-1.52843 -8.734194,-3.94024 -7.957926,-3.14151 0.90951,0.93583 7.446106,3.99279 8.669887,4.05464 0.515625,0.0261 0.195243,-0.38485 -0.711961,-0.91313 z M 200.54602,151.875 c 0.003,-0.77344 -0.61071,0.0133 -1.36396,1.74826 -0.75326,1.73498 -1.33529,3.63342 -1.29342,4.21875 0.10584,1.4793 2.65049,-4.23459 2.65738,-5.96701 z m -25.5306,3.57422 c -0.29927,-0.74787 -0.52142,-0.52573 -0.5664,0.56641 -0.0407,0.98827 0.18086,1.54199 0.49239,1.23047 0.31152,-0.31153 0.34482,-1.12013 0.074,-1.79688 z m 145.99065,-10.3711 c -0.55507,-8.10008 -0.0932,-12.5631 2.33779,-22.58966 l 0.87413,-3.60529 -2.47272,2.19904 c -3.55516,3.16168 -4.5447,4.36505 -8.67335,10.54751 -2.92922,4.38638 -3.69692,6.40746 -3.69692,9.73274 0,3.7052 0.47968,4.67642 4.09539,8.29215 2.29784,2.29782 4.98083,4.09539 6.11267,4.09539 1.96215,0 2.00104,-0.23701 1.42301,-8.67188 z M 136.989,148.35937 c -5.8402,-9.81457 -18.79994,-28.689 -21.40351,-31.17187 -1.31076,-1.25 -1.38842,-1.25 -0.69887,0 0.94121,1.70618 17.24998,26.07325 21.17693,31.64062 3.73937,5.30144 4.21551,5.06026 0.92545,-0.46875 z m 191.34895,-0.46875 c 5.80227,-8.5577 6.63214,-10.81915 6.04782,-16.48074 -0.3866,-3.74576 -1.2625,-6.02684 -3.26358,-8.49924 -1.50434,-1.85867 -3.11052,-3.37377 -3.5693,-3.36691 -0.45877,0.007 -1.41468,1.69436 -2.12422,3.75 -1.5438,4.47257 -2.672,29.51877 -1.32967,29.51877 0.49601,0 2.40354,-2.21484 4.23895,-4.92188 z m -288.242569,0.74934 c 2.439728,-1.26365 5.596025,-2.72977 7.013994,-3.25805 1.417969,-0.52828 2.578125,-1.53732 2.578125,-2.24233 0,-1.27336 -5.921666,-7.4858 -12.169179,-12.76675 -2.566512,-2.16943 -12.424119,-7.00272 -22.844038,-11.20067 -2.039805,-0.82178 2.108279,14.67367 6.010118,22.45121 0.922172,1.83817 2.931881,4.68582 4.466021,6.32813 3.550342,3.80065 8.496341,4.02849 14.944959,0.68846 z m 162.223559,-1.00852 c -0.28865,-0.28864 -0.81286,0.23167 -1.16492,1.15625 -0.50876,1.33613 -0.40108,1.44381 0.52481,0.52481 0.64071,-0.63594 0.92876,-1.39241 0.64011,-1.68106 z M 97.656891,132.65625 c 1.995121,-3.85662 2.603859,-6.52342 4.975469,-21.79687 0.24543,-1.58063 -0.13246,-2.10938 -1.50753,-2.10938 -2.480789,0 -5.798311,3.48879 -8.628548,9.074 -3.25643,6.42625 -3.797752,10.36501 -2.514437,18.29548 2.000879,12.36476 1.89383,12.22512 4.172592,5.44302 1.126116,-3.35156 2.702222,-7.35938 3.502454,-8.90625 z M 82.15631,142.73437 c 3.138161,-3.64733 3.641384,-7.68413 1.719559,-13.79411 -0.897896,-2.85464 -1.777151,-5.19026 -1.9539,-5.19026 -0.176749,0 -1.219164,1.79297 -2.316477,3.98438 -1.935837,3.86598 -7.12949,10.07812 -8.425817,10.07812 -0.650026,0 -11.003598,6.07392 -11.926152,6.99648 -0.276937,0.27694 4.263799,0.50352 10.090524,0.50352 10.394395,0 10.635853,-0.0486 12.812263,-2.57813 z m 19.09369,-0.0478 c 9.83789,-4.45604 12.40664,-11.71093 8.59088,-24.26314 -1.06875,-3.51571 -2.58174,-7.23595 -3.36221,-8.2672 -1.36365,-1.80181 -1.4202,-1.75896 -1.44886,1.09785 -0.0443,4.4242 -3.53413,18.67747 -6.273007,25.6209 -1.322034,3.35156 -2.639222,6.6903 -2.927072,7.41941 -0.28785,0.72912 -0.135272,1.09558 0.339075,0.81436 0.474347,-0.28122 2.760882,-1.3712 5.081194,-2.42218 z m -50.123835,-5.57722 c -0.669429,-7.44649 -1.296749,-10.44692 -3.038668,-14.53376 -1.517967,-3.5614 -1.452294,-3.52505 -10.587497,-5.85899 -0.773438,-0.1976 -5.625,-0.0553 -10.78125,0.31624 l -9.375,0.67552 4.6875,2.1393 c 10.567965,4.82305 16.606923,8.08877 17.648078,9.54364 0.606058,0.84687 2.248342,2.28386 3.649521,3.1933 1.40118,0.90944 3.721493,3.51168 5.15625,5.78278 1.434759,2.27108 2.724982,4.13 2.867163,4.13092 0.142181,9.3e-4 0.04043,-2.4241 -0.226097,-5.38895 z m 303.259205,-4.94125 c 0.55761,-1.0419 0.78738,-2.26079 0.51059,-2.70864 -0.88492,-1.43183 -5.18382,-2.03863 -7.11615,-1.00449 -1.80196,0.96438 -1.80969,1.08222 -0.21514,3.27448 2.02286,2.78112 5.44913,3.00147 6.8207,0.43865 z M 5.625,124.6875 l 1.9131072,-3.75 -2.3074751,0 c -1.2691114,0 -2.5745699,0.43217 -2.901019,0.96038 -0.5847087,0.94607 0.2766722,6.53962 1.0070726,6.53962 0.2063639,0 1.2361053,-1.6875 2.2883143,-3.75 z m 84.413666,-7.91366 c 1.657406,-1.65741 0.920848,-2.36081 -1.505947,-1.43814 -5.471766,2.08036 -14.819287,-0.16858 -17.895843,-4.30562 -1.77629,-2.38856 -2.429397,0.18072 -0.831439,3.27083 0.79451,1.53641 1.444563,3.44244 1.444563,4.23562 0,1.1679 1.114259,1.39962 5.859375,1.21844 l 5.859375,-0.22372 1.875,3.77721 1.875,3.7772 1.210541,-4.70649 c 0.665797,-2.58858 1.615016,-5.11098 2.109375,-5.60533 z m 167.893424,8.14804 c 1.16613,-1.48694 1.13297,-1.5201 -0.35397,-0.35397 -0.90234,0.70767 -1.64062,1.44596 -1.64062,1.64063 0,0.7716 0.76987,0.27498 1.99459,-1.28666 z m -84.83222,-14.53125 c -0.30855,-8.37891 -0.59649,-16.92188 -0.63986,-18.98438 -0.0609,-2.897827 -0.25279,-3.321315 -0.84425,-1.863563 -0.42098,1.03754 -0.41942,8.209416 0.004,15.937503 0.42287,7.72808 0.79403,15.42215 0.82482,17.09794 0.0307,1.67578 0.31718,3.04687 0.6364,3.04687 0.31924,0 0.32799,-6.85547 0.0194,-15.23437 z m -104.415898,7.50342 c -0.811727,-3.31544 -2.252769,-4.81636 -3.196237,-3.32905 -0.936587,1.47646 -1.029453,5.62182 -0.175779,7.84646 0.568897,1.48251 0.769692,1.44794 2.256876,-0.38865 0.985468,-1.21701 1.427415,-2.85329 1.11514,-4.12876 z m 286.202548,0.18369 c 0.92611,-1.02334 1.86907,-4.35069 2.29827,-8.10967 0.4003,-3.50587 1.02402,-7.50157 1.38605,-8.87932 l 0.65822,-2.505 -6.88016,2.19382 c -10.80543,3.44547 -15.21701,5.63088 -19.4008,9.61083 -4.16394,3.96106 -4.87731,5.83673 -2.24498,5.90275 0.90235,0.0226 3.32813,0.68414 5.39063,1.47002 4.15703,1.58396 13.18831,2.97807 15.64241,2.41463 0.86894,-0.1995 2.28661,-1.14363 3.15036,-2.09806 z M 219.16027,110.625 c 1.19773,-2.83594 3.16048,-7.6875 4.36168,-10.78125 1.20119,-3.09375 3.92358,-9.375404 6.04977,-13.959232 2.12617,-4.583827 3.86578,-9.094086 3.86578,-10.022796 0,-0.928711 0.42187,-1.949298 0.9375,-2.267972 0.51562,-0.318674 0.92467,-1.081852 0.90899,-1.695953 -0.0375,-1.468035 -1.77905,1.50401 -4.28994,7.320953 -4.35414,10.087133 -16.30499,39.302 -16.27804,39.79304 0.0525,0.95741 2.2461,-3.18207 4.44426,-8.38679 z m 97.24636,5.09853 4.68712,-2.75478 -4.19096,-0.29838 c -7.24592,-0.51587 -18.84082,3.57866 -15.85456,5.59876 2.45459,1.66045 10.45946,0.33367 15.3584,-2.5456 z m 47.1742,0.75126 c 0.22302,-1.5632 -0.1706,-2.09979 -1.54032,-2.09979 -1.92689,0 -3.38377,2.33501 -2.42489,3.88651 0.98327,1.59096 3.65507,0.38707 3.96521,-1.78672 z m -66.09279,-1.86541 c 0.25594,-1.9336 0.49214,-6.32015 0.52489,-9.7479 0.0327,-3.42774 0.48293,-8.068364 1.00039,-10.312496 0.51746,-2.244127 0.95116,-5.326008 0.96376,-6.848623 L 300,84.931972 l -3.82421,3.705889 c -4.72063,4.574564 -5.72568,6.351664 -6.52797,11.542559 -0.72881,4.71552 1.43512,12.94985 4.20848,16.01438 2.45574,2.71357 3.09992,2.43235 3.63174,-1.58542 z m -160.56221,-1.0642 c 2.29236,-1.48765 6.06636,-4.41867 8.38667,-6.51338 l 4.21875,-3.80857 -2.63014,-2.62724 c -2.44663,-2.44394 -2.71522,-2.513118 -3.84974,-0.991546 -1.07302,1.439086 -2.4471,1.575346 -11.43236,1.133676 -5.61702,-0.27611 -11.15843,-0.7029 -12.31424,-0.948445 -2.10268,-0.446691 -7.89678,1.518415 -10.26005,3.479755 -1.60374,1.33099 -0.37693,2.92073 4.84777,6.28191 11.46738,7.37725 16.48037,8.24647 23.03334,3.99384 z M 89.0625,112.85379 c 1.927244,-0.31355 3.976313,-1.46385 4.965637,-2.78757 l 1.684397,-2.25372 -3.793767,0 c -2.396287,0 -3.803247,-0.43167 -3.819504,-1.17187 -0.01416,-0.64454 -2.541384,-2.39995 -5.616064,-3.90092 -5.514657,-2.69211 -7.8818,-5.040866 -8.548721,-8.482344 -0.40963,-2.113793 -1.727472,-2.660405 -3.5847,-1.48686 -1.193495,0.754145 -1.183599,1.082656 0.0772,2.562885 2.061705,2.420512 4.619696,8.290319 5.21709,11.971629 0.497122,3.06341 0.588441,3.12068 3.448911,2.1631 1.616047,-0.541 3.679136,-1.62443 4.584641,-2.40763 0.905505,-0.78319 1.914841,-1.15553 2.242969,-0.8274 0.991782,0.99179 -1.53267,3.32837 -4.918899,4.55285 -4.953634,1.79125 -3.564234,3.94992 1.967057,3.05616 1.546875,-0.24995 4.289063,-0.69469 6.09375,-0.98831 z m 217.5,-1.35307 c 5.27312,-1.25861 6.88493,-4.04237 6.20664,-10.71947 -0.49185,-4.841869 -1.01044,-6.019913 -3.72494,-8.461554 -1.73444,-1.560104 -3.87723,-4.236028 -4.76174,-5.946497 -0.88452,-1.710469 -1.74188,-2.96527 -1.90525,-2.788446 -0.16337,0.176823 -0.53208,3.485559 -0.81935,7.352747 -0.28728,3.867187 -0.82186,10.58239 -1.18797,14.92267 -0.63471,7.52455 -0.58251,7.85731 1.12284,7.15758 0.98369,-0.40362 3.26508,-1.08628 5.06977,-1.51703 z m 35.15625,-8.80622 c 3.09375,-1.4329 8.28533,-3.445491 11.53685,-4.472419 3.25152,-1.026918 5.73911,-2.039868 5.52798,-2.250993 -0.90125,-0.901266 -15.27763,-3.148083 -20.92694,-3.270584 -5.08053,-0.110165 -6.49069,0.204384 -8.09111,1.804802 -2.12421,2.124207 -3.76845,10.870744 -2.8793,15.316464 l 0.52093,2.60463 4.34329,-3.56332 c 2.38882,-1.95982 6.87455,-4.73569 9.9683,-6.16858 z m -18.28125,8.43305 c 0,-0.23923 -1.56781,-1.5003 -3.48401,-2.8024 -3.03797,-2.06435 -3.58908,-2.1797 -4.30468,-0.90098 -1.01134,1.80715 -1.02199,1.79826 3.56994,2.97971 2.0625,0.53066 3.85547,1.00843 3.98437,1.06173 0.12891,0.0533 0.23438,-0.0988 0.23438,-0.33806 z M 73.30861,108.04688 c -0.271634,-1.41797 -0.674802,-2.03686 -0.895929,-1.37533 -0.398763,1.19297 0.314593,3.95345 1.021641,3.95345 0.202492,0 0.145922,-1.16016 -0.125712,-2.57812 z m -35.406825,-1.7076 c 1.906895,-1.90689 1.861706,-3.18142 -0.16741,-4.72173 -4.220428,-3.203769 -9.670501,0.62667 -6.257547,4.39794 1.97335,2.18052 4.443729,2.30502 6.424957,0.32379 z m 285.925875,-1.57365 c 0.23423,-1.16016 0.64831,-3.75726 0.92017,-5.771349 0.5732,-4.24665 4.18067,-8.485457 8.57347,-10.073913 3.79762,-1.37324 5.49771,-3.955789 4.20013,-6.380327 -0.52741,-0.985477 -0.95893,-2.452323 -0.95893,-3.259659 0,-2.403547 3.53957,-5.217882 6.5625,-5.217882 2.10227,0 2.8125,-0.434028 2.8125,-1.71875 0,-2.553446 -1.06651,-3.150692 -2.39119,-1.339076 -1.03206,1.411423 -1.45655,1.447351 -3.59279,0.304073 -1.33235,-0.713051 -2.66881,-2.072659 -2.96991,-3.021352 -0.94365,-2.973188 -3.10827,-1.94862 -3.78328,1.79073 -0.34905,1.933594 -0.99696,4.218667 -1.43981,5.077943 -1.05218,2.0416 -7.73559,4.110075 -17.93239,5.549969 -4.51172,0.637101 -8.20313,1.468609 -8.20313,1.847796 0,0.379188 1.50104,2.007363 3.33564,3.618167 4.00127,3.513162 6.92806,9.560138 6.95627,14.37218 0.0179,3.0566 0.41639,3.68604 3.06747,4.84541 4.14664,1.81341 4.35663,1.78636 4.84328,-0.62396 z M 101.25,103.81424 c 0,-2.03608 -3.728831,-8.386387 -8.998807,-15.325224 -2.785031,-3.666979 -5.063693,-6.951852 -5.063693,-7.299719 0,-0.347867 -1.891723,-2.60667 -4.203829,-5.019562 -3.20084,-3.34037 -4.464559,-4.126347 -5.296634,-3.294272 -0.616417,0.616417 -1.290452,5.197327 -1.546195,10.508338 l -0.453389,9.415533 3.640648,3.366538 c 4.226006,3.907818 9.17561,6.636718 14.172962,7.814078 5.200634,1.22526 7.748937,1.17076 7.748937,-0.16571 z m -30.712769,-3.70921 c -0.824027,-1.651799 -1.647424,-2.555699 -1.829769,-2.008668 -0.523185,1.569554 1.507048,6.137358 2.464764,5.545458 0.487402,-0.30123 0.21094,-1.84108 -0.634995,-3.53679 z m 34.809369,-0.0269 c 1.2724,-4.747927 0.53371,-12.4305 -1.60001,-16.64063 -1.65899,-3.273432 -3.17608,-4.715189 -6.770465,-6.43425 C 94.428319,75.784725 91.503073,74.34611 90.47558,73.806326 88.196505,72.609038 82.5,71.264994 82.5,71.924554 c 0,0.262402 2.017211,2.854693 4.482691,5.760646 6.96155,8.205272 12.075171,15.410552 14.307729,20.160119 2.27231,4.834111 3.21935,5.355441 4.05618,2.232811 z m 22.38778,-2.056674 c 9.96377,0.594225 11.01562,0.506128 11.01562,-0.922594 0,-2.418628 -5.4032,-6.814401 -9.72581,-7.912445 -3.35336,-0.851829 -4.5116,-0.687981 -8.70612,1.23159 -4.46028,2.041188 -12.50043,8.53268 -12.50403,10.095553 -8.5e-4,0.3684 2.00237,-0.18944 4.45159,-1.239623 3.99508,-1.713037 5.58616,-1.841859 15.46875,-1.252481 z m 157.70291,-4.760931 c 2.59543,-1.768208 6.6174,-4.900094 8.93771,-6.959748 3.59373,-3.190013 3.91746,-3.748969 2.1851,-3.7728 -6.04148,-0.08311 -28.4351,8.078983 -28.4351,10.364107 0,0.397005 1.15894,1.633444 2.57542,2.747644 3.44719,2.711578 8.45001,1.903894 14.73687,-2.379203 z M 149.49033,83.312233 c 4.96924,-9.776924 7.48976,-13.330251 12.85532,-18.12292 l 4.9981,-4.464455 -4.38751,0.548143 c -5.94332,0.742513 -11.6326,4.944377 -16.58711,12.250525 -3.78626,5.583409 -4.05858,6.421911 -4.47815,13.788823 l -0.44674,7.843901 2.44259,-2.8125 c 1.34343,-1.546875 3.86501,-5.611057 5.6035,-9.031517 z m 3.32217,8.649227 c 1.28906,-0.820566 3.06759,-2.335862 3.95229,-3.367324 3.87465,-4.517423 12.55595,-23.44324 11.15158,-24.311192 -0.35954,-0.222205 -2.84659,1.570887 -5.52678,3.984648 -4.55373,4.101049 -7.58885,8.73619 -12.36646,18.885656 -1.08336,2.301474 -2.68045,4.969826 -3.54911,5.929671 -1.51394,1.672887 -1.46391,1.716706 1.20768,1.057822 1.53288,-0.378038 3.84174,-1.358715 5.1308,-2.179281 z m 102.08408,0.634635 c 1.52196,-4.114257 -2.43638,-15.946777 -9.01951,-26.961672 -2.43357,-4.071838 -2.53695,-4.133081 -3.16545,-1.875 -1.35573,4.870909 -0.83734,14.110072 1.1189,19.942025 2.07727,6.192745 3.90945,8.85501 6.95073,10.099777 2.86542,1.172794 3.28066,1.0512 4.11533,-1.20513 z m 6.24876,-4.029076 c 3.15215,-7.127561 3.00315,-11.727045 -0.54702,-16.887049 -1.56155,-2.269634 -4.62014,-5.373292 -6.79688,-6.897017 -2.17673,-1.523726 -5.11785,-3.873118 -6.53582,-5.220871 -1.41796,-1.347754 -2.57812,-2.208901 -2.57812,-1.91366 0,1.051525 2.89771,7.450916 3.597,7.943723 3.20997,2.262146 8.94211,17.630961 9.01492,24.170493 0.0244,2.189764 0.38395,3.982733 0.79905,3.984375 0.41508,0.0017 1.78618,-2.329355 3.04687,-5.179994 z m 99.43591,2.884125 c 0.76509,-1.993805 -0.59159,-3.879897 -1.62158,-2.254359 -1.10551,1.744721 -1.03708,3.615715 0.13225,3.615715 0.53181,0 1.20201,-0.61261 1.48933,-1.361356 z M 356.25,90.583542 c 0,-0.710302 0.63281,-1.816646 1.40625,-2.458542 0.77344,-0.641896 1.40625,-1.537302 1.40625,-1.989792 0,-1.214362 -3.19819,-0.99952 -4.5,0.302292 -1.61743,1.617427 -1.41983,5.4375 0.28125,5.4375 0.77344,0 1.40625,-0.581156 1.40625,-1.291458 z m -85.72297,-2.335155 c 2.03045,-0.963386 5.16828,-2.400356 6.97297,-3.193265 3.96826,-1.743497 16.02334,-5.325607 18.42679,-5.475434 3.48957,-0.217533 -5.93866,-1.660808 -11.19128,-1.71316 -8.29739,-0.0827 -12.3706,2.216534 -16.92779,9.555347 -1.90172,3.06249 -1.95752,3.045533 2.71931,0.826512 z m -75.59799,-3.802424 c 0.99221,-0.99222 2.67971,-2.272688 3.75,-2.845485 2.3767,-1.271976 2.50612,-2.728935 0.30533,-3.437663 -7.50105,-2.415603 -12.29312,-5.03303 -17.15169,-9.368242 C 178.72323,66.020058 175.7732,63.75 175.27706,63.75 c -1.1344,0 -1.18522,8.515924 -0.0682,11.423344 0.45863,1.193723 2.60386,4.174312 4.76717,6.623531 3.68761,4.174976 4.2211,4.453125 8.54112,4.453125 3.2974,0 5.12087,-0.51305 6.41186,-1.804037 z M 54.706853,82.076015 c 2.618402,-2.426653 3.071423,-3.787738 1.569628,-4.715899 -2.093325,-1.293746 -7.366395,4.061047 -6.067944,6.161986 0.831464,1.345337 1.834115,1.023012 4.498316,-1.446087 z M 72.264175,82.5 c 0.961148,0 1.176715,-6.523454 0.291773,-8.829575 -0.715752,-1.865219 -2.243448,-1.939646 -2.243448,-0.109296 0,0.755495 -1.265625,2.815096 -2.8125,4.576889 -1.546875,1.761793 -2.8125,3.43463 -2.8125,3.717417 0,0.696889 3.917141,1.40023 5.4673,0.98168 C 70.841504,82.651702 71.790723,82.5 72.264175,82.5 Z M 343.18663,81.529515 C 344.2265,80.972996 345,79.573361 345,78.248265 c 0,-1.83102 -0.47975,-2.310765 -2.31077,-2.310765 -2.90332,0 -4.91967,3.221816 -3.2645,5.216177 1.33346,1.606712 1.44178,1.617533 3.7619,0.375838 z M 67.282392,74.169977 c 1.343709,-2.55646 0.945803,-3.67693 -0.642695,-1.809776 -3.804043,4.47135 -4.764697,5.883087 -4.764697,7.001996 0,1.581094 3.729543,-2.000042 5.407392,-5.19222 z M 171.80249,72.890625 c -0.53033,-8.919005 -0.94807,-9.46865 -1.06874,-1.40625 -0.0598,3.996094 0.23457,7.265625 0.6542,7.265625 0.41962,0 0.60617,-2.636719 0.41454,-5.859375 z m 55.13144,3.004911 c 3.02747,-2.155749 9.52466,-11.191118 10.75609,-14.958036 0.69601,-2.129088 1.26605,-5.625 0.91721,-5.625 -0.0781,0 -2.43333,0.678762 -5.23395,1.508362 -5.61023,1.661861 -22.28804,12.152578 -26.54658,16.698393 l -2.70454,2.886995 4.91788,0.9375 c 7.55102,1.439458 14.64482,0.865332 17.89389,-1.448214 z m 78.31139,0.837602 c 0.98227,-1.109273 3.48497,-3.113179 5.56157,-4.453125 7.04639,-4.546736 22.13336,-17.464758 21.33248,-18.265645 -0.96164,-0.961638 -17.50579,0.456281 -21.39062,1.833286 -4.40765,1.562319 -6.35187,4.3898 -8.38451,12.193646 -2.5568,9.816236 -1.34686,13.466486 2.88108,8.691838 z m 13.60876,0.566522 c 8.69235,-0.862787 10.72878,-2.730399 12.54125,-11.501575 1.90717,-9.229446 1.81827,-10.686171 -0.42736,-7.003168 -1.01064,1.657517 -3.43484,4.050629 -5.38712,5.318027 -1.95228,1.267399 -5.02616,3.627674 -6.83085,5.245058 -1.80469,1.617384 -4.78603,3.728594 -6.62522,4.691578 -1.83918,0.962984 -3.94855,2.4807 -4.6875,3.372703 -1.24024,1.497133 -1.09126,1.578412 1.93772,1.057193 1.80469,-0.310547 6.07027,-0.841463 9.47908,-1.179816 z M 196.58387,68.741982 c -1.25299,-1.972153 -3.15952,-4.373905 -4.23672,-5.337229 -2.16864,-1.939361 -8.99367,-3.041595 -12.84627,-2.074654 l -2.48569,0.62387 3.60178,2.635768 c 1.98098,1.449672 4.44454,3.58447 5.47457,4.743995 2.03646,2.292489 6.12888,4.643053 9.83989,5.65175 3.28496,0.892892 3.55354,-1.677294 0.65244,-6.2435 z m 11.07238,1.099748 c 10.00455,-7.862464 21.80389,-14.828353 27.89609,-16.468813 6.0306,-1.623872 3.55701,-1.795851 -4.00577,-0.278504 -20.86387,4.186003 -23.58166,5.298084 -27.1527,11.110513 -0.95504,1.554478 -2.04119,4.469341 -2.41367,6.477473 -0.76621,4.130931 -0.62306,4.109729 5.67605,-0.840669 z m 94.04986,-10.483223 c 0.60851,-1.126258 1.10639,-2.286414 1.10639,-2.578125 0,-1.092916 -3.41195,-0.474947 -5.5165,0.999146 -1.85512,1.299371 -2.09777,2.06698 -1.61258,5.10121 0.31412,1.964425 1.05231,4.756606 1.64041,6.204847 1.05294,2.592949 1.08613,2.554414 2.17258,-2.523085 0.60682,-2.835938 1.60119,-6.077734 2.2097,-7.203993 z M 94.151784,68.839285 c 2.101528,-2.101524 1.868832,-2.503105 -2.791781,-4.817916 -4.559793,-2.26474 -4.951597,-1.848574 -3.143292,3.338734 1.14199,3.275916 3.540554,3.873704 5.935073,1.479182 z M 342.1875,64.572708 c 0,-4.105844 -0.19868,-4.637407 -1.36994,-3.665339 -2.01783,1.674649 -2.62255,4.387795 -1.46152,6.557219 1.73674,3.245123 2.83146,2.127046 2.83146,-2.89188 z m -232.5,0.771042 c 0,-3.825142 -4.15537,-5.945106 -6.33974,-3.234375 -1.74893,2.170357 0.34014,5.390625 3.49703,5.390625 2.34131,0 2.84271,-0.380324 2.84271,-2.15625 z m 30.86063,-2.387629 c 0.63752,-1.191217 0.58932,-2.06867 -0.1545,-2.8125 -1.212,-1.21199 -3.51177,-1.458153 -3.53143,-0.377996 -0.007,0.386719 -0.26718,1.652344 -0.5781,2.8125 -0.45368,1.692945 -0.18005,2.109375 1.38607,2.109375 1.07325,0 2.36833,-0.779121 2.87796,-1.731379 z M 91.875,60.9375 C 91.875,60.421875 91.453125,60 90.9375,60 90.421875,60 90,60.421875 90,60.9375 c 0,0.515625 0.421875,0.9375 0.9375,0.9375 0.515625,0 0.9375,-0.421875 0.9375,-0.9375 z m 83.46327,-3.493381 c 6.02268,-4.204954 8.41173,-8.3315 8.41173,-14.529336 0,-3.833862 -1.97321,-7.071099 -9.87204,-16.196033 l -2.43459,-2.8125 0.29255,13.125 c 0.16089,7.21875 -0.0712,15.128906 -0.51564,17.578125 -0.91354,5.033722 0.0341,5.686065 4.11799,2.834744 z m -6.42218,-3.547961 c 0.83748,-4.721631 0.94186,-22.271051 0.16056,-26.999212 l -0.59021,-3.571803 -3.22453,3.103053 c -1.7735,1.70668 -4.75772,5.181165 -6.63161,7.721079 -2.87067,3.890949 -3.40708,5.372177 -3.40708,9.408041 0,5.810524 2.77801,10.838003 7.2045,13.038217 4.36159,2.167967 5.72569,1.60046 6.48837,-2.699375 z m -21.19024,-0.153604 c 1.75927,-1.89828 2.03309,-2.691949 1.12711,-3.266895 -2.26391,-1.436706 -4.52469,-0.787296 -5.41546,1.555591 -0.4901,1.289062 -1.42888,2.373401 -2.08617,2.409642 -1.1514,0.06349 1.77631,1.608724 3.30281,1.743216 0.41134,0.03624 1.79361,-1.062459 3.07171,-2.441554 z M 307.4341,51.796875 c -0.0363,-1.417969 -0.41283,-3.421875 -0.83687,-4.453125 -0.77098,-1.875 -0.77098,-1.875 -1.48285,0 -0.39154,1.03125 -1.32189,2.586697 -2.06747,3.45655 -1.72434,2.011769 -0.77791,3.5747 2.16467,3.5747 1.88743,0 2.27687,-0.451751 2.22252,-2.578125 z m 24.82884,-1.041113 c 0.88468,-1.431455 -0.63951,-2.025748 -2.11783,-0.825753 -1.19373,0.968982 -1.33643,0.903914 -0.85261,-0.3888 0.34158,-0.912713 -0.11652,-2.183828 -1.11158,-3.084354 -1.57435,-1.424766 -1.72569,-1.405417 -2.16562,0.276887 -0.54604,2.088077 0.11445,3.3859 2.1097,4.145423 2.13652,0.813296 3.58573,0.770077 4.13794,-0.123402 z m -76.04156,-5.409081 c 10.29671,-5.752004 13.21734,-11.873922 9.6545,-20.236749 -0.72139,-1.693275 -2.06028,-4.892032 -2.97531,-7.108348 -1.99155,-4.823785 -3.66086,-6.249683 -2.82813,-2.415745 0.97863,4.505688 -2.05214,13.444033 -7.92925,23.384964 -3.06938,5.191753 -5.58069,9.755339 -5.58069,10.1413 0,1.077987 3.27215,-0.197628 9.65888,-3.765422 z m 46.97616,1.414447 c 1.7013,-3.410339 1.26989,-4.573628 -1.69613,-4.573628 -2.71845,0 -4.51593,3.490365 -3.01748,5.859375 1.53365,2.424655 3.07195,2.005048 4.71361,-1.285747 z m -56.65072,-2.933003 c 7.97772,-12.615002 9.06015,-14.505031 10.06717,-17.578125 1.062,-3.240899 1.49132,-6.890667 1.29785,-11.033486 -0.0854,-1.828463 -0.46144,-2.042688 -2.67747,-1.525261 -3.77579,0.881624 -15.0636,7.044097 -17.69187,9.658704 -3.43546,3.417614 -3.57772,5.763022 -0.78053,12.867829 2.2233,5.64712 5.7602,12.532214 6.43785,12.532214 0.12892,0 1.63506,-2.214844 3.347,-4.921875 z m 67.2813,1.806488 C 316.58403,43.153627 316.51556,41.25 313.67043,41.25 c -1.2469,0 -2.9344,-0.256073 -3.75,-0.569052 -1.19762,-0.459568 -1.48293,0.141673 -1.48293,3.125 0,5.541395 0.91987,5.85344 5.39062,1.828665 z m -6.34247,-5.087738 c 0.007,-0.644531 -0.66359,-1.171875 -1.4922,-1.171875 -0.98862,0 -1.31092,0.509816 -0.9375,1.482925 0.31298,0.81561 0.57551,1.975767 0.5834,2.578125 0.0191,1.461017 1.82767,-1.36905 1.8463,-2.889175 z m -89.62775,1.368859 c 2.19963,-1.608409 1.75972,-8.012397 -0.65101,-9.477037 C 213.73782,30.331059 209.94692,38.946916 213,42 c 1.44622,1.446222 2.79687,1.422794 4.8579,-0.08426 z m 66.62019,-1.811833 c 2.34653,-3.350144 1.39888,-10.398464 -1.1835,-8.802466 -0.53764,0.332282 -1.26728,0.135328 -1.62141,-0.437677 -0.79512,-1.28653 -4.15813,3.551587 -4.167,5.994749 -0.0181,4.997261 4.32786,7.020303 6.97191,3.245394 z M 232.4768,33.220219 c -0.50287,-1.322629 -0.9143,-3.628099 -0.9143,-5.123265 0,-1.813993 -0.66416,-3.073932 -1.99615,-3.786794 -1.72054,-0.920803 -2.29839,-0.698829 -4.18504,1.60764 -2.71374,3.317598 -2.74934,4.140056 -0.31327,7.23702 1.41897,1.803914 2.80347,2.47018 5.13305,2.47018 3.03688,0 3.14612,-0.115429 2.27571,-2.404781 z m -76.89005,-1.713355 c 1.22312,-3.217058 0.22136,-5.940778 -2.36694,-6.435563 -2.46502,-0.471218 -4.7339,1.458219 -5.24458,4.459949 -0.23124,1.359292 0.13572,1.79844 1.33419,1.596647 0.90924,-0.153095 1.9036,0.374249 2.20968,1.171875 0.83805,2.183927 3.10378,1.742269 4.06765,-0.792908 z m 117.22626,-2.17453 c -1.03154,-0.72251 -1.87551,-2.133482 -1.87551,-3.135494 0,-1.002012 -0.46701,-1.82184 -1.0378,-1.82184 -0.57079,0 -0.80647,0.602854 -0.52372,1.339674 0.28274,0.736822 0.80037,2.865769 1.1503,4.730995 0.60978,3.250428 0.70946,3.325035 2.39922,1.795819 1.72346,-1.559709 1.72094,-1.624969 -0.11249,-2.909154 z m -52.47314,0.231893 c -0.64753,-0.78022 -1.57664,-1.171789 -2.0647,-0.870154 -0.48805,0.301636 -0.12451,1.106248 0.80788,1.788027 2.09787,1.534002 2.84117,0.99116 1.25682,-0.917873 z M 281.25,27.012134 c 0,-1.6868 -3.51852,-2.544351 -5.24867,-1.279233 -1.7005,1.243438 -1.70221,1.346558 -0.0523,3.169661 1.59168,1.758787 1.82521,1.78179 3.50317,0.345072 0.98879,-0.846635 1.79781,-1.85261 1.79781,-2.2355 z m -94.38415,-1.465259 c 0.89882,-1.526509 -1.25012,-4.921875 -3.11506,-4.921875 -2.38587,0 -3.42384,2.353468 -1.86588,4.230689 1.21613,1.465354 4.27516,1.889843 4.98094,0.691186 z M 251.25,11.258591 c 0,-0.934828 -2.39971,-1.883591 -4.76418,-1.883591 -1.8717,0 -2.17205,0.74771 -1.25761,3.13072 0.43266,1.127476 1.08839,1.218148 3.28125,0.453715 1.5073,-0.525447 2.74054,-1.290826 2.74054,-1.700844 z m 6.71624,-4.3379402 C 257.5378,3.2458593 256.52487,2.43218 254.03649,3.7639183 c -1.5534,0.8313526 -1.78878,1.3188844 -0.90153,1.8672337 0.67061,0.4144652 0.93214,1.4421103 0.59236,2.327583 -0.89322,2.32768 0.10936,3.314821 2.4744,2.436293 1.61116,-0.5984924 2.00858,-1.3810219 1.76452,-3.4743772 z M 266.25,8.320539 c 0,-3.1772061 -1.7992,-5.508039 -4.25173,-5.508039 -2.50532,0 -2.85978,1.2464333 -1.42651,5.0162251 1.40215,3.6879379 5.67824,4.0583049 5.67824,0.4918139 z"
     id="path4194"
     inkscape:connector-curvature="0" />
</svg>
