<?xml version="1.0" encoding="UTF-8" standalone="no"?>
<!-- Created with Inkscape (http://www.inkscape.org/) -->

<svg
   xmlns:dc="http://purl.org/dc/elements/1.1/"
   xmlns:cc="http://creativecommons.org/ns#"
   xmlns:rdf="http://www.w3.org/1999/02/22-rdf-syntax-ns#"
   xmlns:svg="http://www.w3.org/2000/svg"
   xmlns="http://www.w3.org/2000/svg"
   xmlns:sodipodi="http://sodipodi.sourceforge.net/DTD/sodipodi-0.dtd"
   xmlns:inkscape="http://www.inkscape.org/namespaces/inkscape"
   id="svg4216"
   version="1.1"
   inkscape:version="0.91 r13725"
   width="335.625"
   height="679.6875"
   viewBox="0 0 335.625 679.6875"
   sodipodi:docname="LongFloweredBluebell.svg">
  <metadata
     id="metadata4222">
    <rdf:RDF>
      <cc:Work
         rdf:about="">
        <dc:format>image/svg+xml</dc:format>
        <dc:type
           rdf:resource="http://purl.org/dc/dcmitype/StillImage" />
        <dc:title></dc:title>
      </cc:Work>
    </rdf:RDF>
  </metadata>
  <defs
     id="defs4220" />
  <sodipodi:namedview
     pagecolor="#ffffff"
     bordercolor="#666666"
     borderopacity="1"
     objecttolerance="10"
     gridtolerance="10"
     guidetolerance="10"
     inkscape:pageopacity="0"
     inkscape:pageshadow="2"
     inkscape:window-width="1600"
     inkscape:window-height="837"
     id="namedview4218"
     showgrid="false"
     inkscape:zoom="0.98574713"
     inkscape:cx="167.8125"
     inkscape:cy="339.84375"
     inkscape:window-x="-8"
     inkscape:window-y="-8"
     inkscape:window-maximized="1"
     inkscape:current-layer="svg4216" />
  <path
     style="fill:#000000"
     d="m 141.64398,674.53125 c -1.60051,-2.83594 -3.26185,-5.15625 -3.69187,-5.15625 -0.97655,0 -3.62234,-5.26757 -4.29943,-8.55985 -0.56601,-2.75217 -2.5888,-3.59502 -8.67547,-3.61485 -2.16098,-0.007 -4.18979,-0.43467 -4.50846,-0.9503 -0.31868,-0.51562 -1.59947,-0.9375 -2.84621,-0.9375 -2.60942,0 -4.61888,-2.68136 -5.62063,-7.5 -0.37518,-1.80469 -1.68222,-4.47378 -2.90453,-5.93131 -1.55573,-1.85512 -2.22238,-3.81754 -2.22238,-6.54206 l 0,-3.89201 -4.3396,4.66707 c -2.38678,2.56688 -5.129647,6.41691 -6.095244,8.55562 -1.863487,4.12746 -6.865867,9.11885 -10.199208,10.17681 -2.849329,0.90435 -3.382812,-0.1016 -0.774366,-1.46015 3.7733,-1.96525 7.303747,-5.86799 9.706646,-10.73022 1.274091,-2.57813 4.377272,-6.85441 6.895942,-9.50286 3.23351,-3.40013 4.33763,-5.19107 3.75678,-6.09375 -0.45244,-0.70311 -0.59367,-2.37133 -0.31386,-3.70713 2.13998,-10.21577 -18.913674,0.0642 -26.44254,12.91126 -1.304994,2.2268 -2.754504,4.04873 -3.221133,4.04873 -1.17648,0 -1.07571,-0.59108 0.679403,-3.98509 1.64578,-3.18259 2.134704,-3.77699 8.122376,-9.87467 3.718957,-3.78727 13.55112,-9.57774 16.262934,-9.57774 0.68125,0 1.51473,-1.09997 1.85215,-2.44437 1.10156,-4.38898 -3.015693,-5.31028 -9.857995,-2.20588 -4.441853,2.01529 -6.241624,1.74297 -3.307597,-0.50048 2.400332,-1.83537 8.769496,-3.74615 11.472672,-3.44185 1.92548,0.21675 2.04981,0.0265 1.11918,-1.71236 -0.5758,-1.07592 -0.91775,-2.88885 -0.75985,-4.02876 0.27179,-1.9623 -0.01,-2.05874 -5.292077,-1.81297 -3.989533,0.18563 -6.794219,0.96566 -9.843753,2.73771 -2.345535,1.36297 -7.006798,3.85189 -10.35836,5.53094 -6.653303,3.33314 -11.835594,7.76787 -13.165813,11.26661 -0.467653,1.23003 -1.327732,2.23641 -1.911285,2.23641 -1.470835,0 -0.39249,-2.46334 3.174577,-7.25191 2.266745,-3.04296 5.164746,-5.13045 11.902521,-8.57361 4.898437,-2.5032 10.319583,-5.29192 12.04699,-6.19712 1.727407,-0.90522 5.946157,-1.86023 9.374997,-2.12225 7.557893,-0.57756 9.515513,-1.48265 9.515513,-4.39944 0,-1.86405 -0.60475,-2.33054 -3.69915,-2.85333 -4.694325,-0.7931 -13.980999,0.33742 -16.546483,2.01431 -1.900371,1.24215 -3.503531,1.21598 -13.119194,-0.21415 -2.914727,-0.4335 -4.217478,-0.18627 -5.435268,1.03152 -0.880929,0.88093 -1.898008,1.30422 -2.260173,0.94064 -0.362165,-0.36358 0.375521,-1.49931 1.639302,-2.52383 2.041892,-1.65531 3.148143,-1.79192 9.933544,-1.22671 5.848545,0.48719 8.273032,0.31448 10.358466,-0.73789 3.636816,-1.83525 11.743987,-2.67873 15.471546,-1.60968 2.54014,0.72851 3.28014,0.55189 4.73999,-1.13133 2.47147,-2.84963 2.17563,-4.18354 -1.68464,-7.59574 -5.72235,-5.05815 -8.121565,-6.28684 -12.288565,-6.2933 -4.545052,-0.007 -5.324755,-1.43781 -1.268992,-2.3286 3.480536,-0.76445 9.006417,1.51306 12.963687,5.34302 l 3.02281,2.92557 3.34595,-1.80121 c 1.84029,-0.99067 3.5836,-2.74745 3.87404,-3.90396 0.39032,-1.55427 1.76904,-2.47127 5.28575,-3.51562 2.61673,-0.77709 5.49998,-1.41288 6.4072,-1.41288 0.90724,0 1.9398,-0.46968 2.29458,-1.04374 0.35479,-0.57405 2.49901,-1.86381 4.76494,-2.86614 4.46844,-1.97661 6.02618,-4.0219 12.37354,-16.24637 7.7014,-14.83223 8.21091,-25.11821 1.63572,-33.0215 -9.47267,-11.386 -20.00742,-28.06093 -18.61059,-29.45776 0.65706,-0.65706 1.82619,-0.51443 3.69206,0.45045 2.96122,1.53132 10.07823,8.50789 11.85281,11.61895 3.38879,5.94096 12.83183,18.14876 13.16934,17.02509 0.21521,-0.7165 1.11085,-15.83414 1.99032,-33.59476 1.7837,-36.02149 1.9653,-63.62138 0.4287,-65.15798 -0.54312,-0.54312 -3.81405,-0.95633 -7.26874,-0.91825 -5.5788,0.0615 -7.43453,0.62204 -16.59375,5.01227 -16.68873,7.99929 -33.09663,11.42172 -54.758206,11.42172 -11.215641,0 -28.274327,-2.08771 -30.53873,-3.73745 -0.524185,-0.38189 -3.273377,-1.25715 -6.109314,-1.94502 -7.910971,-1.91882 -30.653059,-13.34562 -36.4814034,-18.33013 -5.4867674,-4.69239 -8.79418821,-9.81157 -8.3369731,-12.90386 0.2504245,-1.6937 10.3903425,-10.77256 12.2112575,-10.93345 0.370773,-0.0327 3.762628,-2.06348 7.537457,-4.5127 3.77483,-2.44921 9.37772,-5.5909 12.450869,-6.98152 3.073148,-1.39062 8.32973,-3.77667 11.681293,-5.30234 3.351562,-1.52567 9.229479,-3.25134 13.062038,-3.83483 14.526139,-2.21151 38.041687,-0.72962 51.625462,3.25331 2.83594,0.83153 6.66899,1.89086 8.51791,2.35407 9.84675,2.46691 28.03851,13.10322 34.61648,20.23947 2.16508,2.34882 5.35383,7.29079 7.08613,10.98215 3.63723,7.75059 4.36968,7.02774 0.87833,-0.86681 -3.83386,-8.66905 -5.06108,-14.00158 -6.13563,-26.66043 -1.17447,-13.83618 -0.23719,-23.63703 3.04639,-31.85494 3.58019,-8.96027 7.27519,-14.87128 11.03263,-17.64928 1.59085,-1.17618 2.83276,-2.95913 2.83276,-4.06689 0,-1.0849 0.40216,-3.49805 0.89369,-5.36256 3.52425,-13.36839 6.76204,-27.45304 6.39525,-27.81983 -0.2412,-0.24121 -1.96634,0.19979 -3.83363,0.98 -2.46686,1.03072 -6.88499,1.41856 -16.15965,1.41856 -12.01423,0 -13.17996,-0.16633 -19.83144,-2.82971 -8.89606,-3.56216 -13.81748,-6.98028 -21.33799,-14.82005 l -2.0922,-2.18102 -0.5148,8.74352 c -0.80814,13.72576 0.19289,17.84351 5.77174,23.74234 4.9235,5.20587 5.14964,5.73538 6.60684,15.46992 1.61716,10.80316 -1.19861,16.45935 -9.33531,18.75235 -4.39584,1.2388 -10.91721,1.17923 -13.34844,-0.12193 -1.08635,-0.5814 -4.24643,-1.00473 -7.022413,-0.94072 -9.024189,0.20804 -12.441647,-3.0454 -12.441647,-11.84448 0,-3.37961 -0.25,-4.09522 -1.125,-3.22022 -1.378435,1.37843 -5.108442,1.47838 -5.924029,0.15874 -0.346575,-0.56078 -1.945226,-0.71337 -3.809464,-0.36365 -3.733169,0.70035 -7.891507,-1.47509 -7.891507,-4.12845 0,-1.35222 -0.619043,-1.59287 -3.294162,-1.28057 -1.811789,0.21152 -3.892027,-0.1116 -4.622751,-0.71805 -0.730723,-0.60645 -3.653198,-1.34255 -6.494389,-1.63579 -4.092174,-0.42235 -5.713096,-1.10455 -7.799125,-3.28243 -2.301277,-2.40259 -2.605516,-3.38483 -2.412796,-7.78969 0.121291,-2.77225 0.820604,-6.78217 1.55403,-8.91096 1.239432,-3.59748 1.223454,-3.77092 -0.2265,-2.45873 -1.172525,1.06111 -3.506557,1.36003 -9.396932,1.20341 -7.526657,-0.20012 -7.943458,-0.32759 -10.527686,-3.21985 -1.479917,-1.65631 -3.357252,-3.01148 -4.171856,-3.01148 -4.510795,0 -8.784256,-5.97785 -6.875635,-9.61784 1.757704,-3.35218 6.517749,-9.35243 9.941779,-12.53205 3.352072,-3.1128 2.860331,-4.10011 -2.042111,-4.10011 -2.651756,0 -4.063053,-1.60906 -4.846328,-5.52544 -0.482821,-2.4141 -0.04965,-3.77539 2.208943,-6.94189 1.545246,-2.16641 3.565341,-5.41548 4.489099,-7.22017 2.115995,-4.13389 3.693798,-5.35797 8.568208,-6.64738 3.577669,-0.94639 4.227906,-1.63676 7.96875,-8.46062 2.240266,-4.08658 6.309008,-10.84593 9.041647,-15.02077 2.732639,-4.17483 4.81169,-7.74736 4.620113,-7.93893 -0.191576,-0.19158 -1.689974,0.96339 -3.329774,2.5666 -2.532644,2.47612 -3.203228,2.73086 -4.454714,1.69222 -1.304438,-1.08258 -1.169927,-1.38052 1.173839,-2.59997 7.373599,-3.83647 9.335304,-6.31514 18.29977,-23.1224 1.925129,-3.60938 5.636512,-10.57031 8.247519,-15.46875 2.611007,-4.89844 5.967662,-10.80469 7.459233,-13.125 3.167791,-4.92787 3.347878,-5.625 1.453079,-5.625 -1.877695,0 -1.802111,-0.39688 0.979537,-5.14341 2.540039,-4.33425 5.277578,-6.57877 9.235315,-7.5721 1.342769,-0.33702 2.441398,-0.97405 2.441398,-1.41563 0,-1.43011 -3.229673,-2.52904 -5.15625,-1.75447 -1.03125,0.4146 -2.953967,0.78348 -4.272705,0.81971 -1.866969,0.0513 -2.761717,0.89096 -4.042204,3.79324 -0.904473,2.05003 -2.808751,4.55636 -4.231728,5.5696 -1.422975,1.01325 -4.219053,4.50392 -6.213506,7.75705 -1.994452,3.25311 -3.968239,6.05538 -4.386192,6.22726 -0.417953,0.17188 -0.759915,0.82757 -0.759915,1.45708 0,0.62952 -1.339876,3.23108 -2.977502,5.78125 -3.554675,5.53547 -5.654647,9.36318 -13.543843,24.68697 -5.635526,10.94633 -5.978655,11.98161 -5.978655,18.03863 0,5.15665 -0.571358,7.70363 -2.892802,12.89544 -2.498291,5.58732 -3.297373,6.55963 -5.859375,7.12965 -6.534947,1.45394 -8.753189,1.3717 -12.341191,-0.45757 -2.022947,-1.03137 -4.367249,-1.8752 -5.209558,-1.8752 -3.680154,0 -6.7069571,-8.25263 -4.551136,-12.40874 4.884259,-9.41616 8.857809,-13.49071 14.892113,-15.27069 2.761414,-0.81455 3.796407,-1.99609 6.804316,-7.76779 1.951133,-3.74392 4.915261,-8.87876 6.586949,-11.41078 1.671689,-2.53202 4.274359,-6.63027 5.78371,-9.10721 3.627849,-5.95354 8.312563,-13.38287 13.325802,-21.13292 2.247395,-3.47429 4.086172,-6.85066 4.086172,-7.50305 0,-0.65239 1.274304,-2.3889 2.831788,-3.85891 1.557484,-1.47002 3.281192,-3.51248 3.830463,-4.53879 0.895106,-1.67252 0.771575,-1.79737 -1.191163,-1.20377 -1.204411,0.36425 -4.200082,1.88073 -6.657047,3.36996 -2.456964,1.48923 -4.918791,2.70769 -5.470725,2.70769 -1.286566,0 -26.227084,12.86328 -31.780816,16.39122 -2.320313,1.47395 -6.583567,3.8906 -9.473897,5.37032 -2.890331,1.47972 -6.1422224,3.51684 -7.2264251,4.52693 -2.2503574,2.09654 -3.9251063,2.38022 -3.9237544,0.66465 5.08e-4,-0.64453 3.4809767,-3.03238 7.7343745,-5.30634 4.253399,-2.27395 8.788139,-4.86101 10.077202,-5.74902 1.918825,-1.32185 20.890106,-11.36799 27.749076,-14.69438 17.199472,-8.34121 21.705795,-11.01053 20.310424,-12.03085 -0.809024,-0.59157 -1.197987,-1.51726 -0.864362,-2.05707 0.886305,-1.43408 -1.626239,-2.11546 -7.80051,-2.11546 -4.388204,0 -6.705581,0.64196 -11.87645,3.29001 -4.732752,2.42369 -8.458928,3.54199 -14.150788,4.24697 -9.469936,1.17291 -12.360508,0.0627 -14.915726,-5.72882 l -1.696562,-3.84536 -9.1597161,0.31548 c -6.8713677,0.23665 -9.15948672,0.0227 -9.15880056269,-0.8564 C -2.4151664e-4,113.74693 2.5786128,113.4375 9.7656253,113.4375 c 10.5904807,0 11.1511957,-0.28921 9.8043057,-5.05686 -0.86143,-3.04924 1.277074,-7.7147 3.920795,-8.553784 1.187973,-0.377044 0.507748,-1.498022 -3.095565,-5.10134 -3.838334,-3.838332 -4.497204,-4.983341 -3.902083,-6.781184 0.393813,-1.189695 0.660429,-4.60412 0.592481,-7.587611 -0.108046,-4.744092 0.214713,-5.802465 2.573078,-8.4375 2.558483,-2.858626 3.0245,-3.008263 9.097118,-2.921065 10.03599,0.144109 17.509153,2.68501 21.673473,7.369056 l 3.477022,3.910969 13.125,1.665999 c 7.21875,0.916299 14.8125,2.051834 16.875,2.523409 6.511475,1.488804 37.98442,7.407411 39.38984,7.407411 1.04214,0 1.14719,-0.520282 0.46653,-2.310561 -1.19025,-3.130601 0.0884,-3.689104 4.3599,-1.904359 l 3.51755,1.469727 -2.07003,-2.203451 C 128.43152,85.714457 127.5,84.212309 127.5,83.588248 c 0,-0.624061 -1.16016,-1.568354 -2.57812,-2.09843 C 118.14818,78.957625 79.423872,59.689058 71.127365,54.722569 68.223978,52.984531 65.402306,51.5625 64.856983,51.5625 c -1.062746,0 -9.623682,-4.524454 -15.430934,-8.155248 C 47.477564,42.189025 44.629908,40.941607 43.097924,40.63521 41.197473,40.255119 40.3125,39.51964 40.3125,38.320312 c 0,-1.748242 1.434715,-2.451079 2.03125,-0.995068 0.418785,1.022165 18.423777,10.847748 27.113367,14.796155 1.243898,0.565207 5.307286,2.78005 9.029753,4.921875 3.722466,2.141824 7.151822,3.894226 7.620793,3.894226 0.46897,0 3.138992,1.371094 5.933381,3.046875 4.522825,2.712317 8.803466,4.776815 18.115206,8.736728 1.54688,0.657824 6.9785,3.127187 12.07027,5.487471 5.09177,2.360285 9.4509,4.291426 9.68696,4.291426 0.48506,0 -7.32317,-6.380181 -20.95655,-17.123775 C 105.87593,61.372211 99.1875,55.964731 96.09375,53.359603 93,50.754475 88.238248,47.123602 85.51208,45.290997 c -4.269779,-2.870262 -5.461737,-3.251246 -8.601269,-2.749215 -2.004529,0.320538 -5.789367,0.08772 -8.41075,-0.517365 -3.930826,-0.907342 -6.02001,-2.282915 -11.920338,-7.848657 l -7.154186,-6.748497 0.459275,-7.156484 C 50.371042,12.694296 52.0688,9.375 55.457801,9.375 c 1.204457,0 1.729699,-0.6884867 1.729699,-2.267288 0,-3.1135229 5.765535,-6.63960668 10.78125,-6.59359328 6.470118,0.0593558 17.287388,8.49239108 20.81709,16.22879528 0.621275,1.36171 1.148618,4.920036 1.171875,7.907391 0.04171,5.357734 0.115551,5.503107 5.43291,10.695965 2.964844,2.895425 9.398435,8.728646 14.296875,12.962716 4.89844,4.234069 9.98614,8.702135 11.30601,9.929035 1.31987,1.226901 4.4818,3.918229 7.02652,5.980729 2.54472,2.0625 6.3141,5.332031 8.3764,7.265625 2.06231,1.933594 3.98363,3.515625 4.2696,3.515625 0.28599,0 0.34759,-1.476563 0.1369,-3.28125 -0.29416,-2.519703 -0.0413,-3.28125 1.08923,-3.28125 2.05616,0 4.85368,3.198221 9.02049,10.3125 4.01993,6.863503 5.63696,11.838083 5.64462,17.364947 0.005,3.248615 0.53398,4.222943 3.821,7.031253 3.43849,2.93771 12.72815,14.36654 15.59045,19.18052 2.67622,4.50101 5.5743,10.6196 6.78203,14.31856 0.71634,2.19397 1.4596,3.83187 1.65169,3.63978 0.19209,-0.19209 0.76351,-2.92154 1.26982,-6.06544 1.42346,-8.83887 8.6719,-25.68856 14.58625,-33.90712 2.25978,-3.140184 5.85026,-6.741621 10.74883,-10.781611 12.54614,-10.347178 20.1732,-17.387417 40.35273,-37.248024 9.47606,-9.326311 12.8046,-11.277562 15.46765,-9.067432 1.67031,1.386243 1.47188,8.002826 -0.54555,18.190817 -0.61263,3.09375 -1.68212,8.789063 -2.37665,12.65625 -3.38251,18.834142 -4.42899,24.163069 -5.33898,27.1875 -4.85111,16.12298 -9.43257,24.65887 -18.02117,33.57593 -6.31027,6.55159 -15.58429,13.56508 -20.84231,15.76202 -4.74903,1.98428 -18.74976,6.02522 -23.44198,6.76592 l -3.89518,0.61488 1.1922,3.75 c 0.6557,2.0625 2.06445,6.49219 3.13053,9.84375 1.06608,3.35156 2.41315,7.92012 2.99348,10.15237 l 1.05514,4.05861 3.78553,-5.28643 c 6.5412,-9.13468 15.5359,-14.72032 36.41472,-22.6133 19.28381,-7.29 22.0802,-8.57798 30.1948,-13.90742 4.27568,-2.80815 11.40685,-8.40765 15.84706,-12.44338 9.57119,-8.69927 14.27951,-11.57658 16.04858,-9.80751 1.38049,1.38049 2.39914,12.87991 2.51543,28.39622 0.0845,11.27368 0.2303,10.5683 -5.75388,27.83321 -1.2448,3.59137 -11.51444,15.18013 -13.45221,15.18013 -0.72001,0 -3.35826,1.26085 -5.86278,2.8019 -5.52594,3.40015 -8.74373,4.56176 -25.80315,9.31492 -19.02652,5.30124 -24.93535,6.09785 -31.82456,4.29053 -2.68292,-0.70385 -8.1354,-2.7688 -12.11662,-4.58878 l -7.23857,-3.30908 0.016,17.1333 c 0.008,9.42332 -0.40921,19.03073 -0.92892,21.34983 -0.51972,2.31909 -2.42005,13.04994 -4.22297,23.84633 -3.2049,19.19196 -5.54777,29.4396 -10.35279,45.28289 -3.24372,10.69529 -3.13607,13.11695 0.71985,16.19358 l 3.09772,2.47168 3.90321,-5.28418 c 13.53395,-18.32231 34.09801,-33.59684 51.77627,-38.45826 2.32031,-0.63808 5.48438,-1.59009 7.03125,-2.11559 1.54687,-0.5255 4.92187,-1.50921 7.5,-2.18602 2.57812,-0.67681 8.0625,-2.15848 12.1875,-3.29259 4.125,-1.13412 8.76562,-2.38209 10.3125,-2.77328 3.98342,-1.00736 22.94536,-10.21381 25.93957,-12.59425 1.37613,-1.09405 4.28821,-3.04387 6.47129,-4.33293 2.18308,-1.28906 5.69777,-3.49623 7.81043,-4.90481 2.11267,-1.40859 4.29041,-2.56874 4.83945,-2.57813 1.8075,-0.0308 4.37367,6.89299 5.1847,13.98909 0.62064,5.43017 0.47033,8.09924 -0.67867,12.05166 -2.18042,7.50037 -5.3822,14.24108 -8.77474,18.47344 -1.65324,2.0625 -3.65965,5.01563 -4.45869,6.5625 -4.23412,8.19684 -24.9281,27.16291 -35.63022,32.65512 -1.67578,0.86 -4.20703,2.1563 -5.625,2.88067 -14.211,7.25973 -24.82366,9.77539 -49.92187,11.83362 -11.1555,0.91483 -20.22304,3.19962 -21.02851,5.29865 -0.25458,0.6634 1.21255,4.84985 3.26028,9.30322 4.16474,9.0574 6.4447,17.45716 8.91141,32.83109 1.48734,9.26992 1.54958,12.03422 0.56071,24.90321 -1.40707,18.3116 -4.46795,30.99739 -10.53455,43.66043 -2.53377,5.28881 -4.60684,9.80136 -4.60684,10.0279 0,0.53136 -6.67911,11.93553 -7.71248,13.16859 -0.85464,1.01979 -7.30544,13.42841 -13.1238,25.24472 -2.01281,4.08771 -5.109,9.61576 -6.88043,12.28453 -1.77143,2.66878 -3.22079,5.16399 -3.22079,5.54492 0,0.38092 -0.73828,1.65952 -1.64063,2.84134 -2.16184,2.8314 -3.00171,4.06192 -9.87587,14.46963 -12.68221,19.20128 -14.26266,22.92153 -10.47141,24.64894 2.37428,1.0818 10.35913,0.24351 11.23885,-1.17992 0.30308,-0.49039 5.6145,-0.79256 11.97498,-0.68127 9.16839,0.16041 12.37723,-0.1452 16.21534,-1.54432 4.9623,-1.80891 7.92034,-1.60889 11.15102,0.75406 2.81939,2.06214 1.21901,2.67831 -2.7016,1.04017 -3.20466,-1.33898 -3.91164,-1.30598 -9.58947,0.44772 -4.574,1.41277 -8.61343,1.87811 -15.91578,1.83353 -5.38231,-0.0329 -11.28691,0.43558 -13.12132,1.04099 -1.83442,0.60541 -4.78178,0.93187 -6.5497,0.72547 -3.53097,-0.41222 -3.87081,0.32751 -1.80816,3.93574 0.73689,1.28906 1.35476,3.49771 1.37303,4.90809 l 0.0332,2.56435 3.04688,-1.85771 c 3.88339,-2.36775 9.01781,-2.37009 14.07272,-0.007 3.50945,1.64103 5.56368,1.82118 17.5679,1.54066 7.47657,-0.17471 14.33203,-0.63423 15.23438,-1.02113 1.01045,-0.43326 1.64062,-0.29592 1.64062,0.35754 0,1.95996 -4.14152,2.60073 -17.69493,2.73775 -11.6919,0.11821 -14.0457,-0.11567 -17.77758,-1.76646 -3.84444,-1.70058 -4.78257,-1.7794 -8.83048,-0.74196 -2.49098,0.63842 -4.89829,1.60567 -5.34959,2.14944 -0.93351,1.12482 2.93656,10.35184 3.92661,9.3618 0.34155,-0.34155 2.85946,0.0617 5.59536,0.89611 5.62577,1.71576 20.02038,3.6706 25.46698,3.4585 1.98968,-0.0775 4.11894,0.27519 4.73169,0.78373 0.61275,0.50854 2.57431,1.08553 4.35903,1.2822 1.78471,0.19668 4.08513,0.80706 5.11205,1.35641 1.02691,0.54935 3.27798,1.22101 5.00238,1.4926 4.57109,0.7199 4.79636,1.56698 0.41672,1.56698 -2.08547,0 -5.30628,-0.63281 -7.15739,-1.40625 -1.85109,-0.77344 -4.78543,-1.40625 -6.52073,-1.40625 -1.73531,0 -3.42474,-0.26962 -3.75428,-0.59915 -0.32954,-0.32955 -2.19282,-0.70732 -4.14062,-0.83951 -8.54222,-0.57972 -21.61176,-2.61067 -24.49907,-3.80705 -3.44137,-1.4258 -7.63611,-0.86873 -7.63611,1.01427 0,0.65457 0.63847,2.71821 1.41883,4.58587 0.97456,2.33245 2.0189,3.39574 3.33521,3.39574 1.85484,0 9.25395,3.67805 12.12096,6.02524 1.82306,1.49253 8.37619,3.34976 11.8194,3.34976 1.58256,0 4.8031,1.45164 7.79958,3.51562 4.85115,3.3415 5.50164,3.52335 13.13311,3.67143 10.12939,0.19656 9.65335,0.12787 9.25101,1.33489 -0.29926,0.89779 -7.36963,1.32483 -15.88228,0.95926 -1.3601,-0.0584 -4.52417,-1.50422 -7.03125,-3.21291 -2.90369,-1.97899 -7.2159,-3.72504 -11.87965,-4.81017 -4.02673,-0.9369 -7.82361,-2.19906 -8.4375,-2.80481 -2.96025,-2.92095 -8.85672,-6.15331 -11.22487,-6.15331 -2.54167,0 -2.63823,0.16941 -2.53821,4.45312 0.0572,2.44922 -0.28011,6.48062 -0.74952,8.95866 -0.69827,3.68622 -0.56789,4.87959 0.71697,6.5625 2.41126,3.15829 7.52321,12.46284 7.52321,13.69343 0,2.13695 4.28603,6.88232 9.12561,10.1036 5.34159,3.55544 9.62439,8.09743 9.62439,10.20687 0,2.16289 -1.24932,1.50151 -3.75,-1.98521 -1.28906,-1.79735 -4.5624,-4.56106 -7.27408,-6.14158 -5.54432,-3.23154 -9.08911,-7.42587 -9.88675,-11.69839 -0.29554,-1.58304 -2.03963,-5.15935 -3.87576,-7.94737 -1.83612,-2.78801 -3.33841,-5.60608 -3.33841,-6.26238 0,-4.28381 -5.51955,2.4632 -6.22489,7.6092 -0.5475,3.99443 -4.66658,11.90075 -8.25047,15.83622 -0.83641,0.91846 -2.76372,1.91852 -4.28291,2.22235 -6.01266,1.20254 -5.58541,4.87326 1.78951,15.37476 4.78298,6.81071 5.52305,8.38922 3.93325,8.38922 -0.4664,0 -2.15751,-2.32031 -3.75801,-5.15625 z m -8.51898,-21.4172 c 0,-2.31328 -2.98667,-5.75238 -4.06187,-4.67718 -0.34565,0.34565 -1.57704,0.16179 -2.73642,-0.40858 -1.15938,-0.57036 -3.58452,-1.20983 -5.38921,-1.42105 -1.80469,-0.21121 -4.01953,-0.70438 -4.92187,-1.09594 -1.27755,-0.55435 -1.64063,-0.26111 -1.64063,1.32503 0,5.03461 3.82203,6.84983 17.57812,8.3485 0.64454,0.0702 1.17188,-0.86164 1.17188,-2.07078 z m 9.10514,-1.90935 c -0.1891,-0.57664 -1.89324,-1.17938 -3.78698,-1.33942 -3.10955,-0.26277 -3.44316,-0.0681 -3.44316,2.00969 0,2.22149 0.13032,2.26759 3.78698,1.33942 2.08285,-0.52868 3.63226,-1.43304 3.44316,-2.00969 z m 6.79716,-10.89548 c 0.0279,-1.11678 -1.04661,-1.36079 -5.1733,-1.17482 -3.29035,0.14827 -6.24341,-0.30046 -8.01868,-1.21849 -1.71154,-0.88507 -4.03526,-1.2585 -5.94382,-0.95518 -2.11747,0.33652 -3.50656,0.0487 -4.28362,-0.88761 -0.63248,-0.76209 -1.96301,-1.38562 -2.95672,-1.38562 -0.99373,0 -2.98794,-0.6108 -4.43158,-1.35734 -1.44364,-0.74654 -3.84848,-1.22938 -5.34407,-1.07298 -2.16897,0.22683 -2.78048,0.79836 -3.02175,2.82419 -0.31385,2.63517 2.18464,7.50206 3.44987,6.72011 0.95357,-0.58934 13.41985,2.23571 14.82065,3.35857 0.74485,0.59707 1.28759,0.26317 1.7038,-1.04819 0.86498,-2.72529 2.18185,-2.38521 2.53153,0.65377 0.27627,2.4011 0.59767,2.57876 4.68095,2.58743 2.41137,0.005 4.71567,0.34067 5.12066,0.74566 0.89752,0.89751 6.81684,-5.81791 6.86608,-7.7895 z m 0.11188,-3.74672 c 0.47344,0 0.86082,-0.99308 0.86082,-2.20686 0,-1.21376 1.05469,-3.34487 2.34375,-4.7358 2.83807,-3.06233 2.9695,-3.77071 0.44937,-2.42197 -1.0419,0.55761 -2.22546,0.80921 -2.63013,0.55911 -0.40467,-0.25009 -2.44049,-0.6602 -4.52405,-0.91134 -2.08357,-0.25115 -5.3297,-0.74579 -7.21362,-1.09922 -1.88393,-0.35343 -3.40744,-0.49017 -3.3856,-0.30388 0.0219,0.18629 0.57864,2.65902 1.2373,5.49496 1.04674,4.50678 1.50941,5.19316 3.67318,5.44931 2.06725,0.24473 2.70578,-0.25785 3.87111,-3.04687 1.83601,-4.3942 2.36828,-4.21977 1.72641,0.56574 -0.46034,3.43213 -0.32656,3.82998 1.10338,3.28125 0.89499,-0.34343 2.01462,-0.62443 2.48808,-0.62443 z m -13.72502,-4.93605 c -1.05271,-4.79296 -8.97173,-12.86542 -12.62743,-12.87211 -1.30325,-0.003 -3.35033,-0.69132 -4.54909,-1.53096 -1.19875,-0.83964 -3.50747,-1.84571 -5.13047,-2.2357 -1.62301,-0.39 -3.63376,-0.9925 -4.46834,-1.33891 -2.11285,-0.87696 -3.09134,3.11638 -1.25956,5.14047 0.7539,0.83306 1.37073,2.66932 1.37073,4.08058 0,4.2291 1.58595,6.19268 5.00173,6.19268 1.68342,0 3.46155,0.38904 3.9514,0.86454 0.48984,0.47551 2.41405,1.14428 4.27601,1.48616 2.98223,0.54758 3.47458,0.36089 4.13436,-1.56767 0.68132,-1.99151 0.78164,-1.89287 1.11058,1.09197 0.35198,3.19406 0.47368,3.28367 4.58048,3.37216 4.20071,0.0906 4.21627,0.0789 3.6096,-2.68321 z m 19.35146,-8.18895 c 1.17188,0 1.79688,-0.65217 1.79688,-1.875 0,-1.03125 0.42187,-1.875 0.9375,-1.875 1.34495,0 1.15874,-4.28198 -0.23438,-5.38981 -0.64453,-0.51254 -2.01562,-0.78775 -3.04687,-0.61158 -1.03125,0.17617 -3.12338,-0.58868 -4.64919,-1.69968 -2.16865,-1.57906 -4.05783,-2.00791 -8.65478,-1.96467 -3.90231,0.0367 -6.24032,-0.37815 -6.94997,-1.23321 -0.58817,-0.70871 -1.42907,-1.28855 -1.86866,-1.28855 -0.98409,0 0.01,5.6539 1.27749,7.26795 0.50727,0.64582 0.6741,2.4152 0.37075,3.93197 -0.67306,3.36531 0.40286,3.83071 9.71716,4.20313 l 6.53845,0.26144 0,-2.676 c 0,-1.47179 0.39345,-2.67599 0.87432,-2.67599 1.2598,0 2.15271,3.39457 1.54126,5.85937 -0.2878,1.16016 -0.28107,1.58204 0.0149,0.9375 0.29602,-0.64453 1.34682,-1.17187 2.33509,-1.17187 z m -24.0213,-9.67519 c -1.66932,-6.94967 -2.28974,-8.13731 -4.25088,-8.13731 -0.95889,0 -3.27328,-1.52983 -5.14307,-3.39963 -4.57455,-4.57456 -8.52829,-5.40818 -13.21648,-2.78661 -2.64331,1.4781 -3.68414,2.72079 -3.90871,4.66678 -0.41584,3.60352 2.96149,7.14446 6.81436,7.14446 1.59511,0 4.36923,0.99512 6.16471,2.21138 1.79547,1.21626 4.21829,2.51177 5.38403,2.87891 1.82593,0.57504 2.19983,0.26601 2.69922,-2.2309 0.84422,-4.22112 2.2125,-4.47493 2.2125,-0.41042 0,1.95648 0.69237,4.2622 1.57161,5.23374 2.34314,2.58915 3.02804,0.47209 1.67271,-5.1704 z m 25.85724,-3.96562 c 0.87628,-1.05585 0.97177,-2.40189 0.34916,-4.92188 -0.7421,-3.00364 -1.18194,-3.43085 -3.28135,-3.18724 -1.34851,0.15648 -2.95956,-0.36356 -3.63041,-1.17188 -0.74959,-0.90321 -2.74255,-1.45319 -5.26589,-1.45319 -5.40986,0 -8.54195,-1.55889 -9.67764,-4.81673 -1.21741,-3.49228 -2.66576,-3.41092 -3.60205,0.20233 -0.78819,3.04169 -0.40752,10.71603 0.48717,9.82135 0.28795,-0.28794 1.28219,0.16302 2.20942,1.00216 1.049,0.94933 2.49438,1.31382 3.82608,0.96485 1.17711,-0.30846 3.58013,-0.0449 5.34003,0.58572 2.54377,0.91149 3.2806,0.9063 3.59375,-0.0253 0.54001,-1.60649 2.11267,-1.48186 2.11267,0.16741 0,3.56606 5.28294,5.55085 7.53906,2.8324 z m -27.90021,-10.49982 c 0.25344,-1.93359 0.76901,-4.46551 1.14571,-5.62649 0.59303,-1.82773 0.28747,-2.19035 -2.27807,-2.70345 -1.99231,-0.39847 -3.42912,-1.49405 -4.38593,-3.34432 -0.78264,-1.51344 -2.7401,-3.92857 -4.34992,-5.36694 -3.71532,-3.31964 -6.33314,-2.84874 -6.33314,1.13923 0,1.57504 -0.67987,3.61497 -1.51084,4.53317 -1.40366,1.55102 -1.32053,1.84274 1.17188,4.1125 1.47549,1.34367 3.94834,3.02617 5.49521,3.73889 1.54688,0.71272 4.00841,2.58672 5.4701,4.16445 3.53608,3.81683 5.01238,3.64549 5.575,-0.64704 z m 26.98773,-1.71782 c 1.01931,-1.2282 0.99874,-2.15578 -0.11959,-5.39063 -1.22878,-3.55438 -1.60469,-3.87785 -4.16324,-3.58239 -6.92963,0.8002 -7.1102,0.73929 -9.29991,-3.13728 -1.16502,-2.0625 -2.39869,-3.6521 -2.7415,-3.53243 -4.08034,1.42436 -5.56149,1.27205 -7.7655,-0.79849 -1.29764,-1.21908 -3.21864,-3.74541 -4.26889,-5.61408 -1.86163,-3.31232 -1.99952,-3.37474 -5.49485,-2.48753 -5.10226,1.2951 -5.36748,3.14831 -1.02589,7.1683 2.01321,1.86408 3.81853,4.23298 4.01184,5.26423 0.25878,1.38054 1.33817,2.01983 4.09308,2.42422 6.17746,0.90677 7.9725,1.88378 9.30047,5.06205 1.17603,2.81463 1.66987,3.07514 6.96553,3.67427 3.13487,0.35467 5.94845,1.04724 6.2524,1.53903 0.8372,1.35463 2.87715,1.07219 4.25605,-0.58927 z m -44.89221,-4.34468 c -0.67271,-0.67271 -1.10937,-0.72806 -1.10937,-0.14062 0,1.25135 1.1087,2.36005 1.73438,1.73437 0.2664,-0.2664 -0.0148,-0.98359 -0.62501,-1.59375 z m 40.375,-7.28407 c 2.34424,-0.0183 2.06535,-2.58166 -1.08411,-9.96435 l -2.72475,-6.38711 2.69641,-5.19004 c 1.48302,-2.85453 4.79246,-8.14318 7.35431,-11.75255 5.55249,-7.82285 16.14487,-25.28492 17.34302,-28.59083 0.46777,-1.29067 1.91239,-4.03417 3.21026,-6.09667 1.29787,-2.0625 3.81509,-6.70313 5.59382,-10.3125 1.77873,-3.60938 5.0193,-9.51563 7.20127,-13.125 2.18196,-3.60938 4.27938,-7.54919 4.66091,-8.75513 0.38153,-1.20596 2.54604,-4.84245 4.81002,-8.0811 4.2846,-6.12917 11.34666,-21.63113 14.48902,-31.80492 1.07635,-3.48481 2.41961,-12.7199 3.28201,-22.56423 1.3253,-15.1284 1.32388,-17.58063 -0.0155,-26.59569 -2.10975,-14.20101 -3.80081,-19.98373 -9.01013,-30.81101 -2.53189,-5.26247 -4.60346,-9.92833 -4.60346,-10.36857 0,-0.44024 -1.80202,-3.31063 -4.00448,-6.37865 -2.20247,-3.06801 -4.47025,-6.64288 -5.03949,-7.94417 -0.56925,-1.30128 -3.45754,-5.6255 -6.41842,-9.60937 l -5.38342,-7.24341 -5.48197,0 c -4.77089,0 -5.90324,0.36987 -8.72958,2.85143 -4.17107,3.66225 -7.63639,9.61751 -10.51736,18.07435 -1.88337,5.5285 -2.30497,8.65585 -2.3608,17.51172 -0.0374,5.92969 0.43216,13.52344 1.04341,16.875 1.58976,8.71675 9.5781,29.4142 14.1116,36.5625 0.49052,0.77344 2.59864,5.20312 4.68471,9.84375 2.08608,4.64062 4.19737,9.1682 4.69175,10.06126 4.30802,7.78215 10.27905,29.95261 10.27905,38.16615 0,5.90162 -0.42135,7.37982 -4.3199,15.15532 -2.37594,4.73871 -5.64547,10.76773 -7.26562,13.39781 -1.62015,2.63008 -4.00042,6.80856 -5.28948,9.28553 -2.45558,4.71846 -6.16796,8.85972 -7.10351,7.92417 -0.30162,-0.30162 -0.12889,-1.33227 0.38384,-2.29032 0.51274,-0.95805 1.39349,-10.16997 1.95724,-20.47092 0.56374,-10.30095 1.45901,-25.05712 1.98947,-32.7915 0.53047,-7.73437 1.1336,-19.54687 1.34028,-26.25 l 0.37579,-12.1875 -3.64391,-7.03125 -3.64391,-7.03125 -0.0435,12.65625 c -0.0239,6.96094 -0.44612,19.19531 -0.93822,27.1875 -2.34817,38.13673 -3.41552,69.30819 -2.62903,76.78012 0.13019,1.23688 -0.25516,2.42036 -0.85633,2.62996 -0.67177,0.23423 -1.5608,-1.70908 -2.30671,-5.04215 -0.89345,-3.99235 -2.65699,-7.4072 -6.6839,-12.94247 -3.00862,-4.13557 -6.87305,-9.62859 -8.58762,-12.20671 C 140.61187,496.02175 135,490.27868 135,491.89869 c 0,0.54973 3.65169,5.79662 8.11488,11.65978 10.99441,14.44303 12.51032,17.62589 12.50936,26.26518 -8.7e-4,7.80008 -1.23067,11.60698 -7.3792,22.8427 -5.72118,10.45476 -8.02377,13.26208 -11.93697,14.55355 -6.75452,2.2292 -8.09671,5.97431 -3.87937,10.82468 1.73492,1.99533 1.91982,2.01712 4.52786,0.53348 1.4955,-0.85074 2.72175,-1.78258 2.72501,-2.07075 0.003,-0.28817 0.64828,-1.34286 1.43337,-2.34375 1.32918,-1.69455 1.38603,-1.57523 0.82612,1.73331 -0.42595,2.517 -0.19109,4.0206 0.80544,5.15625 0.7737,0.88172 1.70823,2.59092 2.07674,3.79821 0.5141,1.68429 1.13985,2.06904 2.68901,1.65343 1.11045,-0.29792 2.75728,-0.54742 3.65962,-0.55446 z m 42.27231,-104.30968 c 0.38835,-4.10565 -1.83359,-17.65653 -4.26578,-26.01562 -1.57529,-5.41406 -3.19424,-11.10938 -3.59767,-12.65625 -0.40341,-1.54688 -2.26036,-7.03125 -4.12653,-12.1875 -3.19967,-8.8407 -6.27054,-17.8792 -9.43909,-27.78207 -1.56313,-4.88532 -1.76728,-7.37418 -0.60488,-7.37418 0.43188,0 1.53429,2.42578 2.44982,5.39062 0.91553,2.96485 3.68703,11.08594 6.15888,18.04688 8.44775,23.78955 13.90551,43.31231 15.06995,53.90625 0.0567,0.51562 0.47023,-0.53906 0.919,-2.34375 0.44877,-1.80469 0.6232,-6.23438 0.38762,-9.84375 -0.23559,-3.60938 -0.66384,-11.3559 -0.95167,-17.2145 -0.663,-13.49507 -2.45594,-23.99874 -6.42315,-37.62925 -1.72585,-5.92969 -3.63028,-13.10156 -4.23205,-15.9375 -1.65755,-7.81146 -2.47198,-10.95902 -5.2154,-20.15625 -1.38424,-4.64063 -2.87628,-9.70313 -3.31564,-11.25 C 174.68148,353.04469 174.68355,330 176.26041,330 c 0.60856,0 0.76544,3.27069 0.4384,9.14062 -0.53067,9.52514 0.83995,17.34442 6.03922,34.45313 1.09688,3.60937 2.79044,10.16736 3.76347,14.57329 0.97303,4.40593 3.04417,12.42155 4.60254,17.8125 3.56037,12.3166 5.58038,24.68878 6.19228,37.92671 0.26218,5.67187 0.73172,13.05469 1.04342,16.40625 0.31171,3.35156 0.1553,7.88345 -0.34759,10.07085 -0.5104,2.22014 -0.54491,3.7488 -0.0781,3.4603 0.45992,-0.28425 0.83621,-0.9772 0.83621,-1.53992 0,-0.5627 1.00136,-3.17452 2.22524,-5.80404 6.37052,-13.68707 8.55538,-30.98236 6.19502,-49.03952 -2.55983,-19.58313 -3.13806,-23.31108 -3.75032,-24.17892 -0.36377,-0.51563 -0.96304,-2.20313 -1.33172,-3.75 -0.36867,-1.54688 -1.2113,-4.07813 -1.87251,-5.625 -2.64529,-6.18851 -3.25331,-7.97231 -4.67407,-13.71263 -1.95265,-7.88937 -3.22675,-17.6617 -2.3716,-18.1902 0.37534,-0.23198 0.97593,1.57783 1.33464,4.02178 1.17133,7.98042 4.01309,18.33789 7.50267,27.34512 5.26102,13.5797 7.31197,26.41311 7.42708,46.47343 0.0903,15.72862 -0.0798,17.51188 -2.50332,26.25 -2.42712,8.75113 -9.34629,24.44663 -11.46236,26.00127 -1.39945,1.02816 -2.14889,0.85995 -2.02457,-0.4544 z m -16.71708,21.32813 c 0.76884,-1.54688 2.48072,-4.71094 3.8042,-7.03125 7.6843,-13.47212 9.66983,-23.49968 6.58993,-33.28125 -0.81176,-2.57813 -1.49124,-5.53125 -1.50996,-6.5625 -0.0469,-2.58641 -8.97004,-23.42894 -9.5883,-22.39627 -0.27456,0.45857 -0.80843,10.74783 -1.1864,22.86502 -0.37797,12.11719 -0.87579,23.08594 -1.10626,24.375 -0.23048,1.28906 -0.61455,8.46094 -0.85349,15.9375 -0.46744,14.6261 -0.42438,14.69425 3.85028,6.09375 z m -82.0396,-73.48571 5.15625,-0.64403 -12.65625,-3.12768 c -19.942049,-4.92818 -20.071248,-4.94311 -28.320763,-3.27154 -4.140128,0.8389 -8.931582,1.2432 -10.869644,0.91718 -5.360373,-0.90171 -1.712548,0.833 6.658041,3.16621 12.243991,3.41289 27.421172,4.53504 40.032366,2.95986 z m 21.74813,-3.89587 c 5.66154,-1.15374 11.89979,-3.17855 15.71994,-5.10234 3.48344,-1.75423 9.02895,-4.09076 12.32335,-5.1923 3.2944,-1.10154 6.39061,-2.39142 6.88045,-2.86641 1.35493,-1.31384 -6.38346,-1.05663 -12.47405,0.4146 -2.91036,0.70303 -8.2447,1.79537 -11.85407,2.42745 -3.60937,0.63207 -9.9375,1.81946 -14.0625,2.63865 -9.49228,1.88507 -29.234186,2.12782 -31.875,0.39194 -1.620803,-1.06541 -1.090188,-1.16368 3.91391,-0.72487 10.118937,0.88733 26.63489,-1.09499 49.99234,-6.00032 6.60675,-1.3875 11.69347,-1.91723 15.46875,-1.61093 l 5.625,0.45635 -4.21875,-1.87883 c -2.54528,-1.13355 -8.86727,-2.40754 -15.9375,-3.21168 -19.9686,-2.27114 -32.77227,-4.44652 -45.46875,-7.72525 -22.306338,-5.76039 -44.692246,-6.26659 -68.4375,-1.54755 -16.8649762,3.35167 -15.8803247,2.86953 -12.8523819,6.29335 1.3969349,1.57958 4.8601949,4.6626 7.6961319,6.85117 13.150119,10.14827 25.547846,13.13481 42.524113,10.24383 10.722037,-1.82591 13.113995,-1.56327 29.194637,3.20556 3.609375,1.07039 9.09375,2.5424 12.1875,3.27113 3.09375,0.72874 5.76967,1.3822 5.94649,1.45214 0.17681,0.0699 4.54536,-0.73363 9.70789,-1.78569 z m 42.00187,-17.23886 c 0,-1.74059 -21.88067,-15.95666 -28.17013,-18.3024 -1.77986,-0.66382 -4.92362,-1.8258 -6.98612,-2.58219 -6.26376,-2.2971 -18.0094,-4.06603 -32.895778,-4.95417 -14.050164,-0.83825 -22.416384,-2.24209 -23.464035,-3.93723 -0.840869,-1.36055 0.385798,-2.08164 1.727782,-1.01565 1.829908,1.45355 6.934077,2.14243 22.526569,3.04028 21.105532,1.21531 34.263782,4.34561 45.889812,10.91704 3.08799,1.74543 5.83367,3.17351 6.10151,3.17351 1.12323,0 13.39539,8.65484 13.39539,9.447 0,0.47602 0.38794,0.8655 0.86208,0.8655 1.2635,0 -1.74354,-7.40438 -4.68217,-11.52909 -3.06041,-4.29567 -13.59976,-12.62357 -20.18092,-15.94642 -11.98396,-6.05074 -31.75901,-10.87473 -45.456557,-11.08881 -8.178889,-0.12783 -22.191406,2.78468 -32.261183,6.7055 -2.578125,1.00384 -9.374676,2.42691 -15.103446,3.16239 -12.435043,1.59646 -13.337464,2.02124 -30.5174629,14.36501 -5.7168038,4.10751 -6.1254937,4.62217 -4.824448,6.07539 1.0117922,1.13014 1.8662148,1.33509 2.964659,0.71111 1.6583742,-0.94204 12.9627069,-3.09586 27.3244479,-5.20611 15.600728,-2.29232 39.555932,-1.58985 49.042373,1.43813 7.434765,2.37311 28.261527,6.57528 37.207627,7.50732 19.5308,2.03477 26.18052,3.15366 31.09484,5.23201 5.28673,2.23586 6.40516,2.57144 6.40516,1.92188 z M 52.240765,371.53845 c 1.662108,-0.7788 6.724608,-2.437 11.25,-3.6849 l 8.227985,-2.2689 -7.5,0.42252 c -4.607971,0.2596 -10.030525,1.31607 -14.0625,2.73981 -6.059029,2.1395 -12.65625,5.11171 -12.65625,5.70193 0,0.70549 12.138614,-1.69119 14.740765,-2.91046 z M 209.55702,349.35057 c 2.70655,-1.86527 9.83795,-3.28147 21.739,-4.3171 5.78313,-0.50324 11.26751,-1.30752 12.1875,-1.78729 0.92,-0.47977 5.89148,-2.85668 11.04773,-5.28202 11.17094,-5.25448 16.13712,-8.46594 26.63963,-17.22693 6.81155,-5.68207 9.22665,-7.05775 17.67409,-10.06741 5.38145,-1.91731 11.11237,-4.37916 12.73537,-5.47077 4.17679,-2.80929 15.23936,-17.81867 17.65146,-23.94905 2.80292,-7.12359 3.36351,-18.20746 1.20654,-23.8554 -0.89681,-2.34828 -1.98657,-4.2696 -2.42169,-4.2696 -0.43511,0 -2.93893,1.62562 -5.56402,3.61248 -7.49662,5.67397 -23.35402,14.32733 -31.35888,17.11249 -2.0625,0.7176 -7.54688,3.88372 -12.1875,7.0358 -14.66024,9.95777 -20.30427,11.98219 -36.09375,12.94625 -10.64134,0.64973 -11.82996,0.97078 -19.21875,5.1911 -8.65832,4.94543 -29.49398,26.86598 -29.52148,31.05864 -0.009,1.41761 7.09619,12.10574 8.04792,12.10574 0.24999,0 2.08597,-0.83231 4.07998,-1.84958 7.62278,-3.88885 13.8279,-5.65915 34.6886,-9.89655 3.84038,-0.78009 9.19316,-2.46416 11.89506,-3.74236 5.38345,-2.54678 5.96617,-2.69785 5.96617,-1.54677 0,0.42749 -2.21484,1.7412 -4.92188,2.91937 -2.70703,1.17816 -5.56479,2.45992 -6.35059,2.84836 -0.7858,0.38843 -5.00455,1.41119 -9.375,2.27279 -14.38022,2.83496 -17.26394,3.50898 -22.58606,5.27905 -6.95264,2.31236 -12.07897,4.79683 -12.07897,5.85405 0,1.13153 3.07108,6.29914 3.74353,6.29914 0.28973,0 1.35893,-0.5735 2.37599,-1.27443 z m -7.11893,-16.00624 c 6.50249,-6.62555 21.0366,-13.0259 44.63939,-19.65775 7.62896,-2.14356 16.30275,-5.10323 23.19824,-7.91571 1.44071,-0.58762 3.76102,-1.34343 5.15625,-1.67957 9.02916,-2.17535 28.53467,-16.11699 35.23597,-25.18505 4.95946,-6.71102 8.09674,-10.14157 8.71198,-9.52633 1.01426,1.01426 -8.05053,12.55328 -13.7199,17.46474 -8.08005,6.99986 -17.76204,14.02051 -21.59752,15.66089 -5.99073,2.56214 -31.22803,11.35072 -43.59375,15.18097 -22.46752,6.95927 -29.79964,10.32418 -36.85474,16.91365 -4.79186,4.47561 -5.77279,3.42803 -1.17592,-1.25584 z m -3.63296,-0.79919 c -0.12756,-3.87228 7.22455,-12.83124 15.67186,-19.09705 8.55368,-6.3447 26.47038,-15.59541 26.45517,-13.65926 -0.003,0.37396 -4.11622,2.68707 -9.14063,5.14024 -13.43052,6.55749 -22.70478,13.49852 -27.07897,20.26644 -6.53683,10.11399 -5.84473,9.25293 -5.90743,7.34963 z m 60.41362,8.53947 c 4.95869,-1.20974 11.29386,-3.33156 13.34822,-4.47069 0.90848,-0.50374 3.97209,-1.97317 6.80803,-3.2654 2.83594,-1.29223 7.26562,-4.05169 9.84375,-6.13214 8.52019,-6.87546 19.24147,-16.25616 18.93246,-16.56517 -0.16719,-0.16718 -2.59694,0.56541 -5.39947,1.62798 -2.80252,1.06257 -6.45099,2.3359 -8.10771,2.82963 -1.65672,0.49372 -6.46601,3.51887 -10.68731,6.72256 -12.94165,9.82184 -16.94768,12.46899 -25.68968,16.97545 -7.98569,4.1166 -7.85618,4.42658 0.95171,2.27778 z m -138.91797,-7.98925 c 0.50416,-0.31159 -0.51743,-1.05856 -2.27019,-1.65994 -2.50818,-0.86056 -3.72595,-0.83037 -5.71841,0.14183 -1.39236,0.67939 -3.21022,1.23525 -4.0397,1.23525 -0.85678,0 -1.23327,0.44475 -0.87171,1.02977 0.64125,1.03755 10.98139,0.43886 12.90001,-0.74691 z m -18.70148,-1.94227 c -0.7969,-0.79705 -2.446038,-0.98988 -4.988622,-0.58331 -5.490886,0.87804 -4.667795,2.25873 1.190447,1.99692 4.032745,-0.18023 4.760525,-0.45109 3.798175,-1.41361 z m 10.91974,-3.09232 c 2.05715,-1.4207 2.59572,-1.46145 4.16356,-0.31503 0.99042,0.72422 3.17758,1.31676 4.86036,1.31676 2.75733,0 3.12069,-0.32577 3.67825,-3.29782 1.61254,-8.59556 -1.85371,-21.11708 -6.23023,-22.50613 -2.95134,-0.93672 -5.00221,-5.01201 -5.61492,-11.15737 -0.81505,-8.17485 2.0417,-86.3316 3.60917,-98.74181 0.82731,-6.55005 -0.006,-7.68887 -1.71328,-2.34375 -2.31767,7.25267 -4.35747,6.33314 -4.57522,-2.0625 -0.0485,-1.86879 -0.37992,-2.45743 -1.02214,-1.81521 -0.52903,0.52903 -1.35559,10.48401 -1.86427,22.45312 -0.50264,11.8265 -1.33973,26.77616 -1.86021,33.22147 -0.52049,6.44531 -1.35997,19.37182 -1.86548,28.72556 -1.52901,28.29128 -1.14161,26.75955 -8.16368,32.27798 -3.302354,2.59521 -6.407408,5.77888 -6.900116,7.0748 -1.498481,3.9413 -1.115928,15.00514 0.577381,16.69844 1.806132,1.80614 4.988063,1.89688 7.458807,0.2127 1.017075,-0.69328 2.798447,-1.49753 3.958608,-1.78723 1.73659,-0.43363 2.10937,-0.13903 2.10937,1.667 0,1.68811 0.5942,2.26979 2.57813,2.52382 2.87283,0.36787 3.43276,0.19167 6.81591,-2.1448 z m -6.79092,-16.03031 c -0.38545,-6.16626 0.26398,-9.21383 1.96479,-9.22014 0.85242,-0.003 0.12117,14.38649 -0.77821,15.31389 -0.41628,0.42925 -0.95024,-2.31293 -1.18658,-6.09375 z m -10.681501,4.42815 c -1.173357,-3.05772 0.728428,-8.22579 4.554403,-12.37648 3.234288,-3.50878 3.995668,-3.94368 4.700218,-2.68473 0.62107,1.10978 0.2049,2.00246 -1.59273,3.41648 -2.965897,2.33298 -5.20851,6.47309 -5.20851,9.61548 0,2.76751 -1.647253,4.12999 -2.453381,2.02925 z m 19.760611,-1.29232 c 0.37298,-1.69818 -0.0941,-4.22149 -1.30362,-7.04331 -2.27836,-5.3152 -2.33992,-5.64629 -1.12517,-6.05121 1.22016,-0.40672 4.80906,7.39667 4.80906,10.45637 0,2.98514 -0.89186,5.28436 -2.04979,5.28436 -0.51253,0 -0.65722,-1.15858 -0.33048,-2.64621 z m 71.00239,-8.13504 c 1.90624,-7.73438 4.33067,-18.70313 5.38765,-24.375 3.72467,-19.98728 5.65615,-30.09147 7.43716,-38.90625 0.98973,-4.89844 2.01475,-12.07031 2.27783,-15.9375 0.60982,-8.96417 -0.82485,-25.49849 -3.05049,-35.15625 -0.9506,-4.125 -2.01243,-9.39844 -2.35961,-11.71875 -0.9789,-6.54232 -3.24107,-12.9537 -7.27723,-20.625 -2.03466,-3.86719 -4.08428,-7.49569 -4.55469,-8.06333 -0.47041,-0.56765 -1.11341,-3.0989 -1.42888,-5.625 -0.31548,-2.52611 -1.12832,-6.28042 -1.8063,-8.34292 -1.86709,-5.67987 -6.92174,-16.40625 -7.7312,-16.40625 -0.39323,0 -1.4843,-1.42854 -2.42458,-3.17454 -0.94029,-1.746 -3.64688,-5.01554 -6.01465,-7.26563 l -4.30505,-4.09108 4.39521,5.02327 c 4.47566,5.11521 5.51516,7.32585 2.98896,6.35645 -2.44223,-0.93717 -1.5302,0.1095 1.99253,2.28667 3.44261,2.12764 7.85122,9.99824 7.85122,14.01659 0,2.48979 -2.57404,2.36843 -5.53822,-0.26111 -1.30781,-1.16015 -0.78647,-0.21093 1.1585,2.10938 5.31888,6.34528 5.31722,6.34267 5.31722,8.39793 0,2.16093 -2.34369,2.61349 -3.11572,0.60164 -0.77161,-2.0108 -11.39404,-7.04751 -19.31994,-9.16071 -11.75591,-3.13436 -26.63962,-4.75728 -43.65809,-4.76046 -18.815949,-0.004 -22.686623,0.80185 -26.23933,5.4597 -1.399075,1.83427 -2.326362,3.55246 -2.060639,3.81818 0.70545,0.70545 4.473522,-1.41011 7.440594,-4.17748 3.377841,-3.15049 3.276919,-1.34579 -0.234375,4.19093 -3.873572,6.10799 -3.458909,7.21118 0.899409,2.39282 3.949538,-4.36641 5.566407,-4.04857 3.22996,0.63494 -0.806044,1.61577 -1.317647,3.38143 -1.136888,3.92369 0.47866,1.43598 8.257519,-8.44433 8.257519,-10.48828 0,-2.53593 3.54065,-4.43173 9.60876,-5.14492 4.58137,-0.53845 5.44316,-0.39355 5.98003,1.00553 0.44978,1.17212 -0.27427,2.33346 -2.55888,4.10434 -1.75239,1.35832 -3.9368,3.31652 -4.85424,4.35154 -0.91744,1.03503 -4.34049,4.68641 -7.60677,8.11419 -3.266284,3.42778 -6.136731,7.26831 -6.378775,8.53449 -0.423309,2.21437 -0.266091,2.29278 4.123325,2.05632 3.57872,-0.19279 4.96104,-0.75135 6.40622,-2.58861 1.94598,-2.4739 2.48829,-7.63121 0.90533,-8.60953 -1.49262,-0.92249 -1.14854,-1.7597 2.45204,-5.96618 4.69884,-5.48953 12.91329,-9.50257 19.45117,-9.50257 10.86377,0 34.34679,6.37445 34.34679,9.32341 0,1.253 -1.97398,1.26149 -5.23274,0.0225 -4.06843,-1.54682 -20.83818,-1.22723 -25.70476,0.48987 -6.31275,2.22735 -16.76992,8.6909 -21.78338,13.46423 -2.44179,2.32484 -4.2682,4.3984 -4.0587,4.60791 0.20952,0.2095 3.26204,-2.0037 6.78338,-4.91825 5.12002,-4.23771 6.92958,-5.224 9.03408,-4.92393 1.9256,0.27455 3.09362,-0.21212 4.35367,-1.81402 0.94713,-1.20408 1.89673,-2.18923 2.11024,-2.18923 0.64903,0 0.10654,13.4099 -0.65765,16.25639 -0.7224,2.69082 1.834,13.31815 3.44285,14.31248 0.42653,0.26361 0.77551,-1.65497 0.77551,-4.26353 0,-2.60856 0.389,-4.74283 0.86445,-4.74283 0.47544,0 2.37388,1.76344 4.21875,3.91875 3.81921,4.46189 4.1389,3.79128 1.50155,-3.14969 -1.01902,-2.68183 -1.62427,-5.10455 -1.345,-5.38381 0.27927,-0.27927 2.36712,1.48855 4.63966,3.92849 6.15536,6.60879 8.29635,5.93242 3.25421,-1.02805 -1.72102,-2.37581 -3.80286,-4.07757 -5.39062,-4.40647 -7.57949,-1.57005 -8.15089,-1.88044 -9.01626,-4.8978 -0.58544,-2.04133 -0.4707,-4.38228 0.36027,-7.35019 0.96563,-3.44893 1.82128,-4.60253 4.11301,-5.54529 4.93406,-2.02975 12.25032,-2.53777 19.92074,-1.38321 6.20526,0.93403 7.99833,1.63847 11.52986,4.52977 2.30002,1.88306 5.04221,3.84562 6.09375,4.36125 2.42551,1.18936 8.65839,13.66508 13.05254,26.12593 5.92124,16.79136 6.61715,31.47025 2.85043,60.12407 -1.22008,9.28125 -2.685,20.67187 -3.25538,25.3125 -1.37511,11.18778 -4.2153,24.32928 -7.49682,34.6875 -1.47016,4.64062 -3.14657,11.13636 -3.72537,14.43495 -1.19046,6.78457 -0.62229,7.77216 4.23648,7.36388 l 2.8125,-0.23633 3.46587,-14.0625 z m -105.721808,8.48294 c -1.001764,-0.74385 -2.763088,-1.10767 -3.953714,-0.8167 -1.348289,0.3295 -2.83284,-0.0958 -3.990122,-1.14312 -2.145389,-1.94156 -3.636283,-1.07645 -2.164945,1.25622 0.70431,1.11663 2.297006,1.60342 5.305212,1.62153 2.364313,0.0143 4.603514,0.33063 4.976003,0.70313 0.372489,0.37249 0.892551,0.46195 1.155691,0.19882 0.26314,-0.26315 -0.334516,-1.08209 -1.328125,-1.81988 z M 86.25,311.12632 c 0,-2.14118 0.888428,-3.77407 3.28125,-6.03079 2.644417,-2.494 3.28125,-3.79416 3.28125,-6.69897 0,-1.9824 -0.699021,-4.60235 -1.553378,-5.82212 -1.372828,-1.95999 -1.421965,-3.04666 -0.42275,-9.34922 0.621846,-3.92231 1.946509,-14.93616 2.943694,-24.47522 1.914918,-18.31808 3.324253,-28.35545 6.446684,-45.91359 1.66869,-9.38344 1.73646,-10.85614 0.53063,-11.53096 -0.760311,-0.42549 -1.38238,-1.46984 -1.38238,-2.32078 0,-0.92145 -0.321338,-1.18697 -0.794541,-0.65655 -0.436997,0.48985 -1.732518,6.58594 -2.878931,13.54688 -1.146403,6.96094 -4.84332,24.04687 -8.215359,37.96875 -8.275715,34.1673 -8.629369,35.97541 -7.884851,40.3125 0.619398,3.60821 0.669319,3.65252 1.320321,1.17187 0.639203,-2.43568 2.515861,-3.65947 2.515861,-1.64062 0,0.51562 0.527344,0.83203 1.171875,0.70312 0.817133,-0.16342 1.24778,1.53934 1.422623,5.625 0.150318,3.5126 -0.131295,5.85938 -0.703125,5.85938 -0.930188,0 -1.051744,-0.49956 -1.429826,-5.87609 -0.23227,-3.30301 -1.18616,-4.2874 -1.93074,-1.99247 -1.094284,3.37279 -2.002735,5.54994 -4.979791,11.93432 l -2.988771,6.4095 2.694495,-0.59181 c 1.857601,-0.408 3.067727,-0.14209 3.896169,0.85612 0.660922,0.79636 2.204706,1.44793 3.430633,1.44793 1.872484,0 2.228958,-0.46958 2.228958,-2.93618 z m 2.069442,-13.48352 c -1.347075,-5.03657 -1.430286,-7.0178 -0.294744,-7.0178 1.098168,0 1.683947,1.63572 2.475082,6.91139 0.837602,5.58553 -0.694892,5.66033 -2.180338,0.10641 z M 67.4375,310.63374 c 0.223438,-0.19387 -0.01413,-0.77287 -0.52793,-1.28667 -0.620573,-0.62058 -1.967488,-0.57396 -4.012225,0.13884 -2.211455,0.77091 -2.724872,1.29128 -1.823608,1.84829 1.114844,0.68901 5.292324,0.2292 6.363763,-0.70046 z M 53.404018,307.0988 c -0.840479,-0.81962 -2.368196,-1.14157 -3.939966,-0.8303 -3.553188,0.70367 -2.279101,2.169 1.88592,2.169 2.985113,0 3.24987,-0.17256 2.054046,-1.3387 z m 20.957225,-1.23943 c 0.706416,-1.41796 1.807106,-4.51181 2.445977,-6.87521 1.434778,-5.30773 0.10819,-11.21647 -3.278623,-14.60329 -2.938279,-2.93828 -2.874079,-4.63845 0.618111,-16.36919 1.59319,-5.35173 5.806079,-21.54293 9.361975,-35.98043 3.555898,-14.4375 7.078237,-28.35937 7.827421,-30.9375 2.531308,-8.71086 2.808265,-11.71875 1.078997,-11.71875 -2.740318,0 -6.165101,2.91371 -6.165101,5.2451 0,1.21933 -0.595588,3.80752 -1.32353,5.75155 -0.727941,1.94403 -1.574148,5.01116 -1.880461,6.81585 -0.665147,3.91882 -3.227818,13.02422 -4.221682,15 -0.389057,0.77344 -2.908484,8.36719 -5.598726,16.875 -13.172673,41.6582 -12.373069,39.64086 -16.517077,41.6712 -2.051446,1.00509 -4.63073,2.72827 -5.731742,3.82929 -2.495684,2.49568 -5.816341,9.88474 -6.575352,14.63133 -0.689932,4.31459 0.901132,5.35286 5.867218,3.82873 2.903194,-0.89102 3.370929,-0.77367 4.640697,1.16424 1.910636,2.916 6.588091,3.77574 9.644965,1.7728 2.261727,-1.48193 2.434768,-1.46042 3.710869,0.46149 1.84366,2.7767 4.557338,2.52644 6.096064,-0.56221 z M 60.700382,294.74978 c -0.714129,-1.15547 0.943371,-8.93961 2.165883,-10.17166 1.143329,-1.15224 1.090403,-0.3353 -0.388937,6.00339 -0.656276,2.81201 -1.455901,4.68774 -1.776946,4.16827 z m 7.737118,-5.43011 c 0,-3.89536 0.352498,-6.08747 0.922259,-5.73534 0.899036,0.55564 0.509949,10.60846 -0.447655,11.56607 -0.261032,0.26102 -0.474604,-2.36279 -0.474604,-5.83073 z m -16.350658,2.00845 c 1.388469,-4.50105 3.15073,-6.83951 5.943861,-7.88731 3.478199,-1.30479 3.874214,-0.21289 0.565097,1.55809 -1.287935,0.68928 -3.080904,2.85907 -3.984375,4.82173 -1.778692,3.86398 -3.584049,4.942 -2.524583,1.50749 z m 46.710049,6.97383 c 1.037184,-1.67821 3.390609,-23.64071 3.390609,-31.64174 0,-7.89568 -0.18951,-8.7784 -2.395669,-11.15889 -1.317628,-1.42174 -2.549278,-2.43137 -2.737012,-2.24365 -0.187735,0.18774 -1.028119,5.82453 -1.867519,12.52621 -0.8394,6.70168 -1.824595,14.50518 -2.18932,17.34112 -0.506269,3.93652 -0.259033,6.25139 1.045148,9.78578 0.939563,2.54624 1.510322,5.38659 1.268353,6.31186 -0.361837,1.38368 -0.132684,1.51789 1.290825,0.75605 0.951928,-0.50945 1.939481,-1.26398 2.194585,-1.67674 z m 152.921859,-8.0882 c 3.09375,-0.26758 7.52344,-1.23494 9.84375,-2.14969 5.17,-2.03819 14.20927,-6.97979 13.69969,-7.48937 -0.53141,-0.5314 -18.75035,4.05196 -21.0954,5.307 -1.07654,0.57614 -4.70447,1.89604 -8.06206,2.93309 -6.71131,2.07292 -7.73543,2.82903 -3.05786,2.25766 1.67579,-0.2047 5.57813,-0.59111 8.67188,-0.85869 z M 32.587997,285.9264 c -0.64784,-1.03736 -1.740607,-1.67018 -2.42837,-1.40625 C 29.471864,284.78407 28.226465,285 27.392075,285 c -2.478709,0 -0.04331,1.68695 3.076675,2.13114 1.546875,0.22023 2.921543,0.46363 3.054819,0.54089 0.133276,0.0772 -0.287731,-0.70828 -0.935572,-1.74563 z m 23.120323,-8.02312 c 2.415176,-0.60616 2.948895,-1.80595 8.520287,-19.15328 2.401225,-7.47656 4.738998,-14.4375 5.19505,-15.46875 1.602045,-3.62263 12.119729,-40.17536 11.685116,-40.60998 -0.2418,-0.2418 -0.724631,0.35903 -1.072955,1.33517 -0.348325,0.97614 -1.163787,2.40762 -1.81214,3.18106 -1.513171,1.80511 -9.323399,16.58858 -20.059199,37.96875 -8.042977,16.01746 -8.424911,17.04958 -7.515846,20.31047 1.09329,3.92171 0.04043,9.96745 -2.889229,16.59041 -1.002047,2.26529 -1.821904,4.2666 -1.821904,4.44735 0,0.18074 1.747763,-1.56747 3.883918,-3.88492 2.136155,-2.31746 4.785261,-4.43978 5.886902,-4.71628 z m 118.36227,5.96015 c 4.69852,-1.38059 6.86284,-2.49663 7.17786,-3.70126 0.54022,-2.06583 0.26052,-2.08912 -5.23294,-0.43583 -4.88859,1.47124 -19.10903,1.29635 -26.48426,-0.32573 -6.05688,-1.33212 -17.34375,-5.71589 -17.34375,-6.73623 0,-1.01792 0.58432,-0.9958 2.59085,0.0981 0.89535,0.48812 4.37009,1.81202 7.72165,2.942 6.80518,2.29436 22.96403,3.47462 30.63002,2.23725 l 4.52623,-0.73058 -3.28125,-0.91811 c -16.04403,-4.48912 -32.46376,-11.28391 -38.90625,-16.10012 -1.54688,-1.15639 -4.18359,-2.80871 -5.85938,-3.67181 -1.67578,-0.8631 -3.04687,-1.99115 -3.04687,-2.50677 0,-1.0642 4.70909,1.18779 8.90625,4.25917 7.47872,5.47274 26.45395,13.13669 39.07597,15.78249 l 6.21126,1.30199 -5.65192,-5.25713 c -3.10856,-2.89141 -6.33725,-5.62723 -7.17487,-6.07959 -0.83762,-0.45235 -3.42138,-2.63792 -5.74169,-4.85679 -4.48816,-4.29197 -17.73267,-11.10466 -23.67188,-12.17632 C 136.58203,246.63928 135,245.93196 135,245.41633 c 0,-1.70199 6.80037,0.25831 15.71949,4.53136 8.02049,3.84252 11.4527,6.33712 23.9843,17.43228 8.86353,7.84754 8.58197,6.34826 -1.0925,-5.81747 -11.23642,-14.12992 -14.4191,-17.07278 -22.63138,-20.92602 -7.82832,-3.6731 -8.08642,-3.72377 -20.87153,-4.09777 -10.03946,-0.29368 -13.03856,-0.10554 -13.36111,0.83818 -0.22875,0.66928 -0.53968,7.43982 -0.69097,15.04566 -0.21406,10.76204 -0.008,13.82864 0.92624,13.82812 0.66073,-3.7e-4 1.44073,0.62325 1.73335,1.3858 0.8444,2.2005 13.45898,12.49895 18.12982,14.80105 2.33642,1.15155 6.14648,2.58685 8.46679,3.18955 5.91217,1.53568 20.59387,0.6353 28.75809,-1.76364 z M 43.549236,281.01562 c 3.677982,-7.95728 5.278597,-14.50657 4.150458,-16.98256 -0.797372,-1.75004 -0.471159,-2.98765 1.805053,-6.84811 1.528071,-2.59162 3.041339,-5.54075 3.362816,-6.55363 0.321477,-1.01289 2.619049,-5.66856 5.105717,-10.34594 2.486668,-4.67737 5.08412,-9.92459 5.772118,-11.66047 0.687997,-1.73589 1.752202,-3.78897 2.364901,-4.56241 0.612698,-0.77344 3.009379,-5.20312 5.32596,-9.84375 2.316579,-4.64062 5.753613,-10.84301 7.637852,-13.78309 C 80.95835,197.49559 82.5,194.84402 82.5,194.5433 c 0,-0.30073 0.738281,-1.67504 1.640625,-3.05404 2.226688,-3.40293 2.215185,-8.67611 -0.01893,-8.67649 -1.630668,-2.6e-4 -10.996697,13.09152 -10.996697,15.37114 0,0.58759 -0.994256,2.53736 -2.209459,4.33284 -1.215202,1.79547 -3.612702,6.00669 -5.327778,9.35825 -1.715075,3.35156 -4.608106,8.41406 -6.428956,11.25 -4.619338,7.19453 -12.828825,21.92684 -15.813505,28.37808 -2.62465,5.67305 -2.437024,5.55075 -11.728523,7.6455 -1.431085,0.32264 -3.434991,1.41964 -4.453125,2.43777 -1.018135,1.01813 -2.248372,1.85115 -2.73386,1.85115 C 23.358118,263.4375 15,274.14757 15,275.52081 c 0,1.33295 3.154675,2.91669 5.809809,2.91669 1.364728,0 2.529983,0.79072 3.108508,2.10937 1.062119,2.42093 4.598042,3.26097 6.629518,1.575 1.117188,-0.92719 1.781211,-0.77702 3.464023,0.78334 1.145041,1.06174 3.13658,2.12089 4.425642,2.35369 1.289062,0.23279 2.454679,0.48071 2.590259,0.55093 0.135579,0.0702 1.270244,-2.08717 2.521477,-4.7942 z m -1.224539,-9.13121 c 0.564283,-1.61869 0.790779,-4.39238 0.503326,-6.16375 -0.287452,-1.77136 -0.173445,-3.22066 0.25335,-3.22066 2.040289,0 1.441891,11.25487 -0.635133,11.94578 -0.885529,0.29458 -0.913277,-0.29019 -0.121543,-2.56137 z m -6.623873,-3.05629 c 2.008122,-5.1385 4.144985,-8.04481 5.164984,-7.02481 0.328872,0.32887 -0.269877,1.70121 -1.330556,3.04965 -1.060679,1.34843 -2.407117,3.9019 -2.992084,5.67437 -0.584968,1.77247 -1.44658,3.22267 -1.914693,3.22267 -0.468113,0 0.01445,-2.21484 1.072349,-4.92188 z M 27.1875,266.72463 c 0,-0.77021 1.750797,-2.66864 3.890661,-4.21875 3.974677,-2.87924 7.850927,-3.77741 7.10583,-1.64651 -0.225369,0.64454 -1.064349,1.05708 -1.864402,0.91679 -0.800052,-0.14031 -3.030141,1.23078 -4.955752,3.04687 -3.966409,3.7408 -4.176337,3.83639 -4.176337,1.9016 z m 50.870735,12.88474 c 0.243471,-1.93359 1.599455,-8.15625 3.013296,-13.82812 6.348685,-25.46887 6.023416,-23.42315 4.118188,-25.90066 l -1.710527,-2.22434 -0.02085,2.8759 c -0.02179,3.00597 -1.563722,9.16228 -6.467588,25.82241 -3.177019,10.79343 -3.536482,13.91222 -1.803258,15.64544 1.819392,1.81939 2.401681,1.33448 2.870735,-2.39063 z m -57.19886,1.95724 c -0.644531,-0.26007 -1.699219,-0.26007 -2.34375,0 -0.644531,0.26007 -0.117188,0.47287 1.171875,0.47287 1.289062,0 1.816406,-0.2128 1.171875,-0.47287 z M 186.9144,239.53125 c 0.25631,-3.09375 0.76427,-13.00781 1.1288,-22.03125 0.80011,-19.80595 -0.69272,-30.22184 -6.30955,-44.0233 -1.98476,-4.87688 -3.60865,-9.22584 -3.60865,-9.66434 0,-1.60156 -5.87692,-8.0508 -10.13762,-11.12488 -6.75053,-4.87047 -8.4675,-5.53792 -16.06909,-6.24664 -9.07067,-0.84569 -12.15899,-0.50732 -14.99856,1.64333 -1.90934,1.4461 -2.3066,2.56869 -2.34375,6.62299 l -0.0447,4.88176 4.74043,1.53366 c 7.52948,2.43601 10.91519,5.95409 12.17071,12.64661 0.7402,3.94562 0.60746,3.9995 -4.16825,1.69213 l -3.57277,-1.72617 0.45874,4.06992 c 0.38585,3.42327 0.19856,4.06993 -1.17878,4.06993 -1.24508,0 -1.49846,0.50551 -1.05727,2.10937 0.31914,1.16016 1.87165,7.59375 3.45002,14.29688 1.57838,6.70312 3.8576,15.77344 5.06492,20.15625 1.20733,4.38281 2.46534,9.55078 2.79556,11.48437 0.33022,1.9336 1.10863,3.52905 1.72979,3.54544 1.21916,0.0322 -2.01157,2.78269 -3.26853,2.78269 -0.41708,0 -0.76553,-1.37109 -0.77435,-3.04688 -0.008,-1.67578 -0.86996,-6.21093 -1.91365,-10.07812 -1.04368,-3.86719 -2.50611,-10.19531 -3.24984,-14.0625 -2.76612,-14.38303 -7.01571,-30.34175 -9.01509,-33.85493 -1.19436,-2.09863 -1.30349,-1.86182 -1.74289,3.78171 -0.25781,3.31129 -0.89063,6.15107 -1.40625,6.31061 -1.18562,0.36688 -4.77519,-7.95882 -6.25749,-14.51371 -0.82437,-3.64538 -0.85667,-5.71807 -0.11958,-7.67085 0.5819,-1.54164 0.71119,-3.99413 0.30502,-5.78618 l -0.70498,-3.1104 -2.80892,6.09375 c -3.80012,8.24406 -4.32354,10.81753 -2.71807,13.36352 1.63798,2.59754 2.63756,13.01202 1.72435,17.96573 -0.72339,3.92402 -2.61014,5.50299 -3.23467,2.70701 -0.55523,-2.48569 -1.58678,9.4524 -2.18275,25.26062 l -0.5213,13.82812 9.66543,0.0329 c 12.04425,0.0411 19.29115,1.56002 27.05476,5.67082 6.03625,3.19617 16.79499,12.96257 20.83347,18.91188 1.14934,1.69317 3.56628,4.83877 5.37097,6.99021 l 3.28125,3.91171 1.58356,-11.8994 c 0.87097,-6.54467 1.79328,-14.43066 2.04959,-17.52441 z M 25.501752,255.6702 c -1.106922,-1.17827 -2.86796,-2.20673 -3.913419,-2.28548 -2.946457,-0.22196 -2.240566,1.39169 0.911667,2.08403 1.546875,0.33975 2.8125,1.00609 2.8125,1.48074 0,0.47465 0.495413,0.86301 1.100919,0.86301 0.605506,0 0.195256,-0.96403 -0.911667,-2.1423 z m 11.529498,-0.29756 c 1.101433,-0.31678 3.063529,-2.92228 4.7558,-6.31533 2.874808,-5.76405 13.019268,-25.22475 17.553714,-33.67431 1.316621,-2.45341 2.880939,-5.93662 3.476263,-7.74047 0.595324,-1.80385 2.630815,-6.13073 4.523315,-9.61529 1.892499,-3.48456 4.017472,-7.59511 4.722162,-9.13453 0.704691,-1.53943 1.702819,-3.60983 2.218064,-4.6009 0.832114,-1.60057 0.636538,-1.56734 -1.750004,0.29732 -1.477747,1.15459 -5.57534,4.28578 -9.105759,6.95819 -4.826552,3.65354 -7.16881,6.25436 -9.441654,10.48393 -1.662489,3.09375 -4.785682,8.20743 -6.940429,11.36373 -2.154748,3.1563 -3.917722,6.03567 -3.917722,6.39859 0,0.36293 -1.73558,3.58128 -3.856843,7.1519 -3.489864,5.87431 -4.142199,6.49203 -6.855852,6.49203 -2.069403,0 -3.73709,0.79914 -5.380138,2.57812 -4.186164,4.5325 -8.294004,11.30018 -7.738168,12.74866 0.644001,1.67824 3.003453,2.72156 4.317778,1.90926 0.518415,-0.3204 2.144063,0.73292 3.612551,2.34071 2.660283,2.91264 5.502924,3.59624 9.806922,2.35839 z M 34.6875,242.8125 c 1.052209,-2.0625 2.326408,-3.75 2.831554,-3.75 1.328861,0 1.163756,0.58508 -1.190929,4.2203 -2.884113,4.45255 -3.990305,4.13545 -1.640625,-0.4703 z m -6.5625,1.06393 c 0,-1.26411 3.702381,-5.65998 5.64081,-6.6974 1.160221,-0.62092 1.939356,-0.62027 2.323909,0.002 0.31818,0.51483 -0.453618,1.40632 -1.715107,1.98109 -1.261489,0.57477 -2.833129,2.05313 -3.492532,3.28524 -1.178776,2.20263 -2.75708,3.02074 -2.75708,1.42919 z m 12.555948,-1.60936 c 0.312979,-0.8156 0.569052,-1.65935 0.569052,-1.875 0,-0.21563 0.382379,-0.39207 0.849731,-0.39207 0.467353,0 0.629086,0.84375 0.359409,1.875 -0.269678,1.03125 -0.908131,1.875 -1.418784,1.875 -0.510653,0 -0.672387,-0.66731 -0.359408,-1.48293 z m 62.699342,3.12355 0.40061,-7.26562 -2.55452,0 c -2.111049,0 -2.656224,0.50858 -3.140443,2.92969 -1.030275,5.15137 -0.644906,7.08228 1.992193,9.98188 1.41796,1.55912 2.65089,2.56137 2.73983,2.22722 0.089,-0.33415 0.34199,-3.87707 0.56233,-7.87317 z M 89.0625,235.69414 c 0,-0.30572 0.81831,-4.62994 1.818467,-9.60938 2.078723,-10.34924 3.996461,-23.70734 3.477949,-24.22585 -0.1926,-0.1926 -0.860678,1.66582 -1.484615,4.12983 -0.623936,2.46401 -1.722892,6.58938 -2.442121,9.16751 -0.71923,2.57812 -2.147584,7.96851 -3.174118,11.97862 -1.026535,4.01012 -2.120067,7.70153 -2.430073,8.20313 -0.310005,0.5016 0.51594,0.912 1.835433,0.912 1.319492,0 2.399078,-0.25013 2.399078,-0.55586 z m 15.35234,-5.77227 c 1.21314,-10.9996 1.72609,-28.59575 0.81722,-28.03404 -0.49605,0.30657 -1.16462,2.57364 -1.48571,5.03791 -1.3423,10.30155 -3.48609,24.26195 -3.950356,25.72473 -0.44595,1.40506 0.314046,1.96878 3.442286,2.55328 0.32012,0.0598 0.84957,-2.31703 1.17656,-5.28188 z m -76.805465,-9.4854 c -0.489844,-0.44744 -2.367188,-1.0728 -4.171875,-1.38969 -3.046346,-0.53492 -3.15097,-0.47668 -1.461441,0.81353 1.918138,1.46478 7.197254,2.00472 5.633316,0.57616 z m 8.316985,-3.28132 c 0.799978,-1.22093 2.174716,-4.42177 3.054973,-7.11301 1.49075,-4.5577 1.494666,-5.11502 0.05711,-8.12959 -1.109126,-2.32586 -1.261394,-3.55576 -0.541199,-4.37137 1.059879,-1.2003 3.223495,-5.32749 11.161597,-21.29118 2.692196,-5.41406 6.753119,-12.67779 9.024276,-16.14163 2.271161,-3.46384 4.12938,-6.53568 4.12938,-6.82631 0,-0.29064 1.884072,-3.33692 4.186827,-6.76952 3.155692,-4.70404 3.936551,-6.54267 3.170603,-7.46558 -0.558925,-0.67346 -0.80302,-2.03977 -0.542435,-3.03625 0.416557,-1.59292 0.211082,-1.69208 -1.700988,-0.82089 -1.196128,0.545 -2.637526,2.09634 -3.203106,3.44742 -0.56558,1.35108 -3.088495,5.40963 -5.606477,9.01901 -4.409185,6.3203 -18.196343,27.96836 -20.290628,31.85956 -0.5596,1.03974 -2.212457,4.21075 -3.673016,7.04669 -3.622686,7.0341 -4.987202,8.4375 -8.203697,8.4375 -3.08099,0 -6.761643,3.36991 -11.10076,10.16357 -3.309332,5.18135 -2.734322,7.10266 1.903722,6.36101 3.135056,-0.50132 3.500613,-0.31757 4.46824,2.24597 1.035264,2.74272 3.357308,3.70007 4.497965,1.85445 0.828292,-1.3402 2.34375,-1.15835 2.34375,0.28125 0,3.67359 4.713225,4.53118 6.86386,1.2489 z m -1.807912,-7.70058 c 0.312979,-0.8156 0.569052,-3.34685 0.569052,-5.625 0,-2.27813 0.421875,-4.14207 0.9375,-4.14207 1.016926,0 1.294352,7.35421 0.368448,9.76707 -0.312979,0.81562 -0.990927,1.48293 -1.506552,1.48293 -0.515625,0 -0.681427,-0.66731 -0.368448,-1.48293 z m -5.432274,-4.76206 c 1.25355,-4.16523 3.207818,-7.506 3.174594,-5.42689 -0.03596,2.2505 -2.613541,9.26655 -3.514734,9.56695 -0.647058,0.21569 -0.525513,-1.2637 0.34014,-4.14006 z M 21.5625,203.53665 c 0,-1.23565 5.269804,-6.66165 6.469884,-6.66165 1.641751,0 1.232829,0.88409 -1.988676,4.2995 -3.002527,3.18325 -4.481208,3.9627 -4.481208,2.36215 z m -1.170745,12.79486 c -0.214224,-0.64267 -1.914208,-1.41632 -3.777746,-1.71923 -3.06966,-0.49896 -3.301733,-0.38909 -2.468144,1.16849 1.06622,1.99225 6.897795,2.50646 6.24589,0.55074 z M 240.71247,203.42628 c 2.24035,-0.99101 5.78313,-3.26534 7.87284,-5.05405 6.15038,-5.26451 9.24638,-6.27261 21.72071,-7.07263 7.13329,-0.45748 12.74544,-1.31783 14.96691,-2.29445 6.76775,-2.97532 11.50416,-9.22838 14.27714,-18.8489 0.89174,-3.09375 2.0138,-6.48441 2.49348,-7.53478 0.48091,-1.05308 0.66748,-7.99223 0.41591,-15.46875 -0.25094,-7.45744 -0.49156,-15.24647 -0.53472,-17.30897 -0.12632,-6.03809 -1.13084,-6.66663 -4.95369,-3.09959 -5.78771,5.40042 -14.07606,12.51509 -21.6064,18.54682 -4.01038,3.21227 -9.02486,7.89603 -11.14327,10.40834 -4.47042,5.30166 -5.88434,5.90235 -13.27685,5.64063 -8.6422,-0.30597 -16.5513,1.6914 -29.32002,7.40449 -8.45956,3.78505 -20.08467,17.61878 -20.0519,23.8615 0.008,1.60209 0.6619,1.24368 3.89255,-2.13481 4.71582,-4.9316 11.72279,-10.1874 18.61617,-13.96359 4.64216,-2.54298 9.38045,-4.18799 34.21698,-11.87923 4.13439,-1.28032 10.88439,-4.20027 15,-6.48878 4.11562,-2.28853 7.65233,-4.00784 7.85937,-3.82069 0.70181,0.63438 -4.10724,4.73027 -7.87643,6.70839 -5.80532,3.04671 -15.03393,6.38356 -25.3125,9.15242 -5.15625,1.389 -9.79687,2.84619 -10.3125,3.23822 -0.51562,0.39202 -2.61573,1.25409 -4.6669,1.91571 -5.22414,1.68507 -18.87901,9.90426 -22.90504,13.78709 -2.13234,2.0565 -2.71593,3.03346 -1.59265,2.66625 3.06264,-1.00124 18.48931,-2.34357 21.07178,-1.83353 4.56169,0.90092 28.76465,-2.17902 33.46616,-4.25872 4.81654,-2.13059 6.4449,-2.43225 5.58065,-1.03386 -1.01657,1.64484 -9.01018,4.67916 -17.70344,6.72009 -7.05908,1.65728 -10.24978,1.90923 -18.39548,1.45261 -11.67434,-0.65443 -22.09573,0.49002 -26.89829,2.95388 l -3.46653,1.77844 3.90812,2.46708 c 2.19277,1.38424 5.27419,2.46709 7.02049,2.46709 1.71181,0 3.53955,0.42717 4.06165,0.94927 1.33245,1.33245 11.34871,2.73732 15.79216,2.21499 2.04059,-0.23988 5.54319,-1.24697 7.78354,-2.23798 z m 15.69378,-1.29639 c 8.97319,-2.16143 20.55037,-6.37896 22.47131,-8.18623 1.6414,-1.54427 -18.45816,0.1837 -21.64802,1.86108 -5.89344,3.09908 -14.90798,9.64974 -12.54204,9.11405 1.28906,-0.29187 6.5625,-1.54688 11.71875,-2.7889 z M 102.61047,189.84564 c 0.0531,-8.07066 -1.09131,-7.9642 -4.143214,0.38545 -1.690725,4.62561 -1.70144,4.87551 -0.148894,3.47047 2.394708,-2.16718 2.931638,-1.90076 2.931638,1.45469 0,1.63281 0.2958,2.67295 0.65735,2.31141 0.36153,-0.36154 0.67794,-3.79145 0.70312,-7.62202 z m 3.32703,4.68561 c 0,-0.77344 -0.40864,-1.40625 -0.90808,-1.40625 -0.49944,0 -0.66524,0.63281 -0.36845,1.40625 0.2968,0.77344 0.70543,1.40625 0.90808,1.40625 0.20264,0 0.36845,-0.63281 0.36845,-1.40625 z m -38.269523,-8.4375 c 3.769764,-2.83594 7.187575,-5.15625 7.595136,-5.15625 0.616616,0 4.424387,-7.7319 4.424387,-8.98398 0,-0.21506 -0.738281,-0.40817 -1.640625,-0.42912 -1.242053,-0.0289 -0.90042,-0.67176 1.40625,-2.6464 1.675781,-1.43457 3.046875,-3.33952 3.046875,-4.23323 0,-1.97076 5.146428,-12.53154 7.333466,-15.04872 1.536424,-1.76835 1.519196,-1.77377 -0.74519,-0.23438 -1.274887,0.8667 -2.645981,1.57583 -3.046875,1.57583 -1.06601,0 -0.889719,-3.57278 0.284555,-5.76693 0.557401,-1.04151 0.773456,-2.13365 0.480121,-2.42699 -0.293334,-0.29333 -1.357158,1.32483 -2.364051,3.59591 -1.006894,2.2711 -3.965136,7.67707 -6.573871,12.01327 -2.608736,4.33621 -4.743155,8.38619 -4.743155,8.99996 0,0.61378 -1.178547,2.76129 -2.618993,4.77224 -2.679586,3.74088 -10.79111,19.12504 -10.083957,19.12504 0.215497,0 3.476163,-2.32031 7.245927,-5.15625 z m 49.178093,-3.94869 c 0.5758,-0.19194 1.71019,1.25082 2.52086,3.20611 l 1.47395,3.55508 0.0483,-3.12738 c 0.0544,-3.5212 -2.8312,-15.15387 -3.75907,-15.15387 -0.33155,0 -2.03629,0.94983 -3.78833,2.11073 -3.21065,2.12739 -6.73151,8.16097 -7.79499,13.35802 -0.54906,2.68315 -0.50937,2.72627 0.8629,0.9375 C 111.18265,180.80964 112.5,180.37028 112.5,185 c 0,4.52079 1.18691,5.02239 2.32087,0.98081 0.53806,-1.91773 1.4494,-3.64382 2.0252,-3.83575 z m -38.150577,1.95554 c 1.103134,-1.86968 1.800351,-3.60476 1.549371,-3.85573 -0.478639,-0.47864 -4.297796,5.33548 -4.30386,6.55201 -0.007,1.41189 0.792211,0.62953 2.754489,-2.69628 z m 31.695137,-12.35797 c 2.1914,-2.33148 3.98437,-4.70025 3.98437,-5.26393 0,-0.56367 1.08012,-3.05388 2.40027,-5.53377 2.14956,-4.03794 2.21005,-4.40709 0.57904,-3.53421 -3.72956,1.996 -10.25829,10.42207 -12.29494,15.86801 -1.17595,3.14448 -3.46987,6.90422 -5.287029,8.66549 -1.765416,1.7111 -3.209841,3.46605 -3.209841,3.89987 0,0.43384 2.214844,-1.60772 4.92188,-4.5368 2.70703,-2.92908 6.71484,-7.23318 8.90625,-9.56466 z m -8.12097,1.48723 C 103.77135,170.27972 105,167.43117 105,166.89975 c 0,-1.26934 -12.551558,5.40022 -15.832117,8.41275 -1.40375,1.28906 -1.863034,1.81641 -1.020633,1.17187 0.842402,-0.64453 2.025764,-1.17187 2.629695,-1.17187 1.339526,0 1.460762,2.47768 0.160555,3.28125 -0.515625,0.31868 -0.9375,1.02804 -0.9375,1.57637 0,0.65663 0.451555,0.62221 1.322786,-0.10085 1.79495,-1.48968 2.810905,0.27457 1.533068,2.66222 -1.826506,3.41286 -0.994025,3.28677 2.851309,-0.43185 2.107687,-2.03824 5.060817,-6.11964 6.562497,-9.06978 z m -8.217063,-3.77719 c 5.852887,-3.78534 9.868313,-5.58834 10.952873,-4.91804 0.44136,0.27278 1.06746,0.0672 1.39133,-0.45684 1.19511,-1.93372 -8.427722,-1.32623 -15.989764,1.00944 -5.790349,1.78845 -9.833974,4.60027 -6.615578,4.60027 1.685853,0 2.044576,1.44078 0.583542,2.34375 -0.515625,0.31868 -0.9375,0.94693 -0.9375,1.39613 0,1.39086 5.507412,-0.67133 10.615097,-3.97471 z m 23.755793,-2.81205 c -0.26007,-0.64453 -0.47287,-0.11718 -0.47287,1.17188 0,1.28906 0.2128,1.81641 0.47287,1.17187 0.26007,-0.64453 0.26007,-1.69921 0,-2.34375 z m -27.380081,-4.05799 c 1.450593,-0.36408 2.466166,-1.65933 3.186717,-4.06432 0.728871,-2.43276 4.069821,-6.64989 10.748764,-13.56769 5.33015,-5.52076 9.39825,-10.21879 9.04024,-10.44006 -0.35802,-0.22126 -2.48514,0.12875 -4.72694,0.77781 -2.81507,0.81504 -4.23181,1.79769 -4.57967,3.17644 -0.70379,2.78952 -7.477676,11.04407 -10.600689,12.91783 -3.054229,1.83251 -9.365533,13.33378 -6.770421,12.33794 0.865084,-0.33197 2.530983,-0.84405 3.701999,-1.13795 z M 259.4669,156.00425 c 2.34495,-2.25718 2.88241,-3.1625 1.62685,-2.74035 -1.03125,0.34673 -4.61719,1.54716 -7.96875,2.66763 l -6.09375,2.03722 3.75,0.57008 c 2.0625,0.31356 4.0726,0.62997 4.4669,0.70313 0.39428,0.0731 2.29272,-1.3838 4.21875,-3.23771 z m -56.49815,-3.08083 c 12.13315,-3.20213 26.38436,-10.92862 33.29865,-18.05332 4.27782,-4.408 7.17403,-12.24418 8.32778,-22.53219 0.87118,-7.76825 1.41487,-9.05868 7.03073,-16.687297 4.17313,-5.668796 6.6447,-13.06524 11.28635,-33.775613 4.12797,-18.418432 3.01761,-19.878907 -7.30572,-9.609375 -31.69013,31.524986 -37.81296,38.20891 -39.40376,43.014741 -1.88447,5.692984 -2.99746,6.814834 -10.42153,10.504514 -3.09375,1.53754 -6.55675,3.79152 -7.69556,5.00882 -5.14449,5.49905 -11.52319,24.66066 -11.52319,34.61561 0,4.54004 0.33889,5.65923 2.0836,6.88128 2.7941,1.95706 3.23825,1.85739 3.92553,-0.88097 0.91924,-3.66254 18.61673,-20.15962 21.62652,-20.15962 0.41059,0 3.53632,-2.34924 6.94606,-5.22054 9.35202,-7.8752 9.62185,-8.07591 10.14865,-7.5491 0.7895,0.78951 -8.32397,9.17042 -14.34335,13.1904 -9.40528,6.28121 -18.19948,13.77261 -21.0764,17.95407 -1.51146,2.19684 -2.74811,4.23464 -2.74811,4.52846 0,0.93719 3.10018,0.54987 9.84375,-1.22987 z m -13.59375,-2.0511 c 0,-2.22571 6.02121,-15.26552 9.23644,-20.00285 3.4409,-5.06984 10.29363,-12.80166 21.07947,-23.78362 12.39509,-12.620472 14.60414,-14.665799 15.19816,-14.071777 0.33844,0.338434 -3.963,5.338986 -9.55874,11.112337 -5.59574,5.77335 -12.07252,12.46578 -14.39283,14.87205 -8.76091,9.08549 -14.18264,17.51931 -18.27213,28.42341 -1.52465,4.06529 -3.29037,5.91691 -3.29037,3.45045 z m -75.28096,0.72126 c 2.74816,-4.4681 16.34603,-9.7142 29.81221,-11.50163 5.79544,-0.76926 4.20562,-1.47637 -7.20481,-3.2045 -7.80702,-1.18238 -8.3475,-1.14601 -13.125,0.88332 -7.55753,3.21021 -11.11776,5.65336 -12.13426,8.32695 -1.59992,4.20808 0.61747,8.80349 2.65186,5.49586 z M 172.5,139.73487 c 0,-1.16239 -10.4181,-8.48228 -16.40625,-11.52725 -8.67344,-4.41044 -25.45582,-8.43894 -29.87543,-7.17141 -3.73134,1.07014 -9.6305,1.07366 -13.34632,0.008 -1.59328,-0.45695 -7.39181,-1.12568 -12.885638,-1.48606 -8.188499,-0.53716 -9.901361,-0.42747 -9.503779,0.6086 0.266744,0.69513 1.63838,1.78101 3.048079,2.41306 1.4097,0.63207 4.015829,2.51725 5.791397,4.18929 l 3.228311,3.04008 13.17794,-0.27456 c 20.70801,-0.43148 37.97518,2.54275 51.61544,8.89062 5.43397,2.52885 5.15625,2.45831 5.15625,1.30965 z m -93.75,-9.52623 c 0,-1.11833 -5.731607,-1.03896 -7.5,0.10386 -1.185059,0.76584 -1.132417,0.91104 0.334677,0.92315 1.13229,0.009 1.558676,0.48929 1.219619,1.37285 -0.348427,0.90799 -0.07079,1.18563 0.837199,0.8372 0.769517,-0.29528 1.372028,0.0303 1.389695,0.75087 0.03401,1.38738 3.71881,-2.56408 3.71881,-3.98793 z m 94.1462,-0.59927 c -0.82719,-1.93359 -1.72513,-4.0518 -1.99543,-4.70714 -0.2703,-0.65535 -5.39996,-3.6001 -11.39924,-6.54389 -10.1158,-4.96374 -11.31619,-5.33143 -16.53278,-5.06409 -3.09375,0.15855 -6.98615,0.32987 -8.64976,0.38072 -4.24313,0.12969 -2.31452,2.22269 2.84436,3.08679 5.85197,0.9802 26.54003,8.93732 27.83665,10.70665 0.43307,0.59094 8.59611,5.62771 9.15321,5.64772 0.13582,0.005 -0.42983,-1.57316 -1.25701,-3.50676 z m -76.80245,-2.55374 c -1.546875,-1.27052 -3.61832,-2.58391 -4.60321,-2.91865 -0.98489,-0.33473 -3.884723,-2.87905 -6.444072,-5.65404 -2.559348,-2.77499 -5.096599,-5.04544 -5.638334,-5.04544 -0.541735,0 0.0111,1.06028 1.22853,2.35616 2.741932,2.91866 1.831286,3.98489 -3.761664,4.40439 l -4.21875,0.31642 3.279817,0.97387 c 4.165408,1.23681 4.905889,3.86107 1.229022,4.35563 l -2.633839,0.35427 2.757141,0.79744 c 1.710363,0.49469 4.295976,0.38587 6.810329,-0.28662 5.721254,-1.5302 8.17969,-1.35595 10.719299,0.75975 1.217278,1.01409 2.635106,1.85575 3.150731,1.87034 0.515625,0.0146 -0.328125,-1.01299 -1.875,-2.28352 z M 36.897177,121.8878 c 4.543568,-0.0106 5.395837,-0.2606 4.939781,-1.44906 -0.370262,-0.96489 0.289104,-1.78815 2.009073,-2.50845 2.48939,-1.04251 2.430538,-1.08931 -2.127281,-1.69156 -7.753791,-1.02454 -12.054227,-0.17619 -13.383318,2.64013 -1.638489,3.47193 -1.435468,4.22938 0.961443,3.58704 1.160156,-0.31092 4.580292,-0.57106 7.600302,-0.5781 z M 254.1471,105.31591 c 4.29414,-12.26051 4.71736,-15.737998 1.17941,-9.69091 -1.35754,2.320312 -3.45124,5.28433 -4.65268,6.58672 -2.14185,2.3218 -4.10287,11.15012 -4.05541,18.25703 l 0.0188,2.8125 1.92224,-3.75 c 1.05724,-2.0625 3.57168,-8.4594 5.58765,-14.21534 z M 25.298144,117.42188 c 0.0079,-0.64454 -0.618457,-1.17188 -1.391894,-1.17188 -1.41471,0 -1.957807,2.88594 -0.767161,4.07659 0.732031,0.73203 2.137671,-1.15906 2.159055,-2.90471 z M 45.46875,120 c 0.318674,-0.51562 0.157532,-0.9375 -0.358093,-0.9375 -0.515625,0 -1.198233,0.42188 -1.516907,0.9375 -0.318674,0.51563 -0.157532,0.9375 0.358093,0.9375 0.515625,0 1.198233,-0.42187 1.516907,-0.9375 z m 86.86007,-2.76731 c -1.88242,-0.74859 -4.18543,-2.06847 -5.11782,-2.93307 -1.69093,-1.56801 -8.07853,-3.1196 -9.00962,-2.18849 -0.26996,0.26995 0.082,0.84488 0.78225,1.27763 0.76084,0.47022 1.09028,1.74302 0.81877,3.16331 l -0.45429,2.37652 8.20163,-0.16742 c 8.18051,-0.16699 8.19283,-0.17093 4.77908,-1.52848 z m -18.82852,-0.43826 c -0.86628,-1.04382 -0.78238,-1.51072 0.38934,-2.16644 3.25922,-1.82395 -1.5864,-3.69405 -13.57714,-5.2399 -16.817185,-2.16808 -19.562593,-2.43717 -34.723447,-3.40336 -11.904723,-0.75868 -14.232226,-1.18121 -18.39053,-3.33861 -5.428606,-2.81647 -15.910786,-3.631926 -18.548316,-1.44298 -1.74425,1.44761 -1.958507,7.20882 -0.290832,7.8203 0.9375,0.34374 0.9375,0.67812 0,1.67187 -2.914879,3.08978 -1.417858,3.43403 15.598981,3.58714 16.718485,0.15043 31.024479,1.26688 33.162083,2.58799 0.619459,0.38284 0.184839,-0.50078 -0.965824,-1.96361 -2.055964,-2.61374 -2.823531,-6.15683 -1.333799,-6.15683 0.417074,0 1.57723,0.6194 2.578125,1.37644 1.000895,0.75703 2.429537,1.38984 3.17476,1.40625 0.745223,0.0164 2.501227,1.12802 3.902231,2.47026 2.402257,2.30151 3.285854,2.48019 15.520049,3.13853 7.135019,0.38394 13.340829,0.7623 13.790679,0.84079 0.44986,0.0785 0.321,-0.45603 -0.28636,-1.18784 z M 42.1875,112.5 c 0,-0.51562 1.476562,-0.9375 3.28125,-0.9375 1.804687,0 3.28125,0.42188 3.28125,0.9375 0,0.51563 -1.476563,0.9375 -3.28125,0.9375 -1.804688,0 -3.28125,-0.42187 -3.28125,-0.9375 z m 4.6875,-5.15625 c -1.289063,-0.73689 -3.082031,-1.35476 -3.984375,-1.37303 -2.351469,-0.0476 -2.035455,-1.90822 0.324101,-1.90822 2.171917,0 7.410274,2.79378 7.410274,3.95213 0,1.05283 -1.069344,0.86152 -3.75,-0.67088 z M 165,117.66975 c 0,-0.72366 -11.06851,-6.11473 -12.39514,-6.03723 -0.65924,0.0385 1.74613,1.51508 5.34527,3.28125 6.98103,3.42575 7.04987,3.45265 7.04987,2.75598 z M 24.645687,111.56614 c 0.625597,-2.39229 -0.291645,-9.37864 -1.231325,-9.37864 -1.345906,0 -1.9176,3.14024 -1.3097,7.19402 0.647827,4.32002 1.737596,5.25694 2.541025,2.18462 z m 132.259933,-3.58885 c -3.93043,-3.89668 -15.34312,-11.361418 -15.34312,-10.035531 0,0.251794 0.64899,2.079791 1.4422,4.062211 1.09635,2.74005 2.38906,4.02319 5.39063,5.35071 4.04487,1.78896 12.11404,5.02287 12.72904,5.10147 0.18871,0.0241 -1.70972,-1.99137 -4.21875,-4.47886 z m -12.99937,2.44301 c 1.03125,-0.0611 3.14062,0.18445 4.6875,0.54577 1.57341,0.36753 0.95386,-0.085 -1.40625,-1.02724 -3.01614,-1.20409 -4.67766,-2.5998 -5.82859,-4.89618 -2.62164,-5.230803 -7.13698,-11.05145 -10.3453,-13.335975 l -2.99811,-2.134843 2.44407,3.260959 c 2.76232,3.685562 5.47793,8.768659 5.47793,10.253589 0,0.63933 -0.58328,0.69378 -1.64063,0.15316 -0.90234,-0.46136 -3.89808,-1.49446 -6.6572,-2.29578 -4.95549,-1.439207 -4.99645,-1.434707 -3.36402,0.36911 0.9089,1.00433 2.74449,2.39819 4.07908,3.09746 1.33459,0.69927 3.67018,1.94447 5.1902,2.76711 l 2.76369,1.49569 -2.29494,0.87799 c -1.3527,0.5175 -2.66059,0.53328 -3.18556,0.0384 -0.48984,-0.46176 -3.23203,-0.79532 -6.09375,-0.74125 l -5.20312,0.0983 3.75,1.29116 c 2.55714,0.88044 6.13571,1.1325 11.25,0.79243 4.125,-0.2743 8.34375,-0.54875 9.375,-0.60989 z m -28.25472,-3.07655 c 0.3839,-1.00043 1.94592,-1.40625 5.41279,-1.40625 2.68025,0 4.67405,-0.19913 4.43068,-0.4425 -1.40713,-1.40713 -45.097,-9.864928 -55.65125,-10.773366 -6.703125,-0.576956 -12.87832,-1.255903 -13.722656,-1.508774 -0.844337,-0.25287 -3.543889,0.608287 -5.999007,1.91369 -2.455116,1.305394 -5.139296,2.376047 -5.964842,2.379225 -0.950868,0.0037 -0.641991,0.454463 0.842755,1.230009 1.289062,0.673322 3.398437,1.888686 4.6875,2.700806 1.721047,1.08428 7.076288,1.7692 20.15625,2.57797 16.924498,1.04647 29.564231,2.28075 38.90625,3.7992 2.32031,0.37714 4.70096,0.74208 5.29032,0.81098 0.58937,0.0689 1.31441,-0.50755 1.61121,-1.28099 z m 44.58285,-0.70312 c -0.21485,-0.12891 -1.65626,-1.28907 -3.20313,-2.57813 l -2.8125,-2.34375 2.27279,2.57813 c 1.25004,1.41796 2.69145,2.57812 3.20313,2.57812 0.51168,0 0.75455,-0.10547 0.53971,-0.23437 z m 46.40506,-4.24066 c 2.53451,-1.40592 4.88918,-3.189033 5.23262,-3.96247 0.34342,-0.773438 1.30871,-2.777344 2.14507,-4.453125 1.85734,-3.721457 1.09813,-3.828128 -3.33623,-0.46875 -3.47599,2.633334 -10.74566,11.502105 -9.39572,11.462475 0.41034,-0.0121 2.81975,-1.1722 5.35426,-2.57813 z m -88.0228,-2.999676 c -1.61746,-1.787278 -1.61772,-1.886775 -0.007,-2.505113 0.9229,-0.35415 3.72158,-0.225281 6.21929,0.286369 4.36405,0.893963 4.48082,0.863447 2.99182,-0.781884 -0.85202,-0.941691 -2.40545,-1.712166 -3.45186,-1.712166 -1.04642,0 -4.25056,-0.600844 -7.12033,-1.335214 -2.86976,-0.734367 -8.80369,-1.985961 -13.1865,-2.781321 -4.382813,-0.795359 -11.554688,-2.133132 -15.9375,-2.972827 -7.831226,-1.500371 -20.503915,-3.51668 -31.21024,-4.965755 -4.553844,-0.616352 -5.977432,-1.29945 -8.831255,-4.237605 -4.513417,-4.646789 -8.605286,-6.25775 -17.524612,-6.899408 -8.003824,-0.575797 -8.16241,-0.409223 -4.006006,4.207755 l 1.898952,2.109375 -2.256521,2.401956 c -2.199577,2.341343 -2.215861,2.472799 -0.645322,5.209307 1.451821,2.529653 1.470932,3.021427 0.193193,4.971502 -1.072019,1.636109 -1.188844,2.766887 -0.478801,4.634441 0.851377,2.239294 1.401631,2.469628 5.884283,2.463132 6.280927,-0.0094 16.227375,-3.005972 19.178646,-5.778546 1.331672,-1.251042 2.541915,-1.756198 2.925186,-1.220975 0.359561,0.502113 1.919372,0.967252 3.466247,1.033641 18.660953,0.800897 33.052575,2.745914 47.34375,6.39847 8.50781,2.174442 15.64194,3.814592 15.85363,3.644792 0.21168,-0.1698 -0.37309,-1.14627 -1.29949,-2.169926 z M 39.375,90.9375 C 39.375,90.421875 40.457422,90 41.780382,90 c 1.322961,0 3.230117,-0.441384 4.238126,-0.980854 2.579924,-1.380733 4.45595,-0.03818 2.22558,1.592707 C 46.243904,92.074424 39.375,92.326629 39.375,90.9375 Z m 0.691647,-3.507225 C 39.15799,87.218702 38.655545,86.65565 38.950101,86.179048 39.675922,85.004645 48.75,85.070342 48.75,86.25 c 0,0.515625 -0.316406,0.997577 -0.703125,1.071005 -2.026187,0.384718 -6.532255,0.446417 -7.980228,0.10927 z M 46.875,83.4375 C 45.070312,82.449475 42.433594,81.623408 41.015625,81.601796 39.597656,81.580183 38.4375,81.093674 38.4375,80.520665 c 0,-0.687551 1.195517,-0.834003 3.515625,-0.430667 5.219663,0.907403 8.671875,2.471904 8.671875,3.929989 0,1.567857 0.248135,1.606399 -3.75,-0.582487 z m 107.40691,14.524303 c 0.82427,-4.393746 -1.61436,-11.662567 -6.24534,-18.615509 -2.01387,-3.023601 -3.66157,-5.941569 -3.66157,-6.484374 0,-0.542806 -0.24997,-0.736953 -0.55548,-0.431437 -0.80798,0.80798 2.29196,10.979317 4.3884,14.398924 0.98564,1.607736 1.79208,3.400705 1.79208,3.984375 0,2.097715 -1.85686,1.001737 -3.3642,-1.985657 -1.68838,-3.346191 -5.91365,-8.203125 -7.13628,-8.203125 -1.14661,0 1.84105,6.799798 3.7228,8.472926 0.89178,0.792922 2.38719,2.33307 3.32312,3.422553 2.57636,2.999024 0.26766,3.541152 -2.80877,0.659547 C 141.1118,90.721388 134.56546,86.25 133.59077,86.25 c -0.59755,0 2.2615,4.601949 3.96962,6.389506 1.18121,1.236147 14.20262,8.448554 15.44401,8.554244 0.36334,0.0309 0.93823,-1.423434 1.27751,-3.231947 z M 22.528579,86.841079 c -1.342671,-1.342671 -1.196321,-4.346379 0.356815,-7.323316 1.169213,-2.241062 1.12787,-2.679529 -0.381453,-4.045446 -2.291532,-2.073808 -2.600941,-1.167893 -2.409621,7.055116 0.184621,7.935098 1.264593,11.05319 2.588648,7.473929 0.503191,-1.360255 0.444513,-2.561381 -0.154389,-3.160283 z m 113.013971,-7.63256 c -1.71198,-3.299829 -1.07901,-4.540342 1.62372,-3.182203 1.12886,0.567263 0.39382,-0.486283 -1.63344,-2.341214 -2.02726,-1.854931 -3.96284,-3.372602 -4.30129,-3.372602 -0.33845,0 -2.89853,-2.096335 -5.68908,-4.658524 -2.79054,-2.562187 -5.81199,-4.910929 -6.71433,-5.219426 -0.90235,-0.308496 -1.64063,-0.895098 -1.64063,-1.303559 0,-0.804735 -0.34113,-1.133407 -18.010913,-17.353076 L 87.259419,30.838762 87.32076,25.703273 C 87.401383,18.9535 83.848845,11.846598 78.455775,7.96875 69.363614,1.4310962 67.03125,1.2419552 67.03125,7.0422883 c 0,3.2447277 -0.283642,3.7468647 -2.171871,3.8449187 -3.041333,0.157934 -4.176828,1.598814 -4.793878,6.083163 -0.472189,3.431597 -0.915418,4.005511 -3.815501,4.940501 -5.334516,1.719854 -4.928891,4.450705 1.566215,10.544489 7.458758,6.997893 9.818942,8.116239 16.808825,7.96467 3.205574,-0.06951 6.816155,0.249337 8.023513,0.708549 2.727831,1.037512 17.078544,11.683436 21.452487,15.9143 3.33146,3.222479 19.45968,15.972674 27.38333,21.647945 2.44922,1.754239 4.48644,3.645354 4.52715,4.202476 0.0529,0.723258 0.19428,0.722686 0.49456,-0.002 0.2313,-0.558222 -0.20229,-2.215473 -0.96353,-3.68278 z M 76.004727,36.480135 c -2.283337,-0.447937 -4.60365,-1.302857 -5.15625,-1.899824 -0.74912,-0.809265 -0.408469,-0.936952 1.339023,-0.501904 1.289062,0.32092 3.925781,0.589251 5.859375,0.596291 2.494311,0.0091 3.515625,0.421328 3.515625,1.419052 0,0.773437 -0.316406,1.360027 -0.703125,1.303532 -0.386719,-0.05649 -2.57131,-0.469211 -4.854648,-0.917147 z m 3.784339,-4.659766 C 78.555865,30.793381 77.776502,29.723497 78.057149,29.442851 78.840729,28.65927 82.5,31.23428 82.5,32.569263 c 0,1.495057 -0.02455,1.488273 -2.710934,-0.748894 z m 2.513297,-4.364496 c -0.87401,-2.43052 -1.431738,-4.576499 -1.239395,-4.768841 0.579922,-0.579922 3.141119,3.85303 3.818924,6.609843 1.050434,4.27239 -0.875427,2.897909 -2.579529,-1.841002 z M 55.103901,19.16559 c 1.145979,-0.802675 2.083599,-2.4058 2.083599,-3.5625 0,-1.1567 0.50625,-2.60934 1.125,-3.22809 0.875,-0.875 0.692176,-1.125 -0.822708,-1.125 -2.485947,0 -4.042915,1.895421 -4.983798,6.067173 -0.83171,3.687694 -0.433021,3.971361 2.597907,1.848417 z M 62.282719,9.3982041 C 63.987683,8.7499777 64.6875,7.7950991 64.6875,6.1169539 64.6875,4.8151293 64.345175,3.75 63.926776,3.75 62.594374,3.75 59.0625,7.5203876 59.0625,8.9427704 c 0,1.6222476 0.110254,1.6378406 3.220219,0.4554337 z"
     id="path4226"
     inkscape:connector-curvature="0" />
</svg>
