<?xml version="1.0" encoding="utf-8"?>

<!DOCTYPE svg PUBLIC "-//W3C//DTD SVG 1.1//EN" "http://www.w3.org/Graphics/SVG/1.1/DTD/svg11.dtd">
<svg version="1.1" id="Layer_1" xmlns="http://www.w3.org/2000/svg" xmlns:xlink="http://www.w3.org/1999/xlink" x="0px" y="0px"
	 viewBox="0 0 1823.2161 1636.9493" enable-background="new 0 0 1823.2161 1636.9493" xml:space="preserve">
<g>
	<path opacity="0.96" fill="#010202" enable-background="new    " d="M878.7961,117.7625
		c-0.3248,5.8475-0.9745,12.0202-1.2994,17.8679c-6.1726,0.9745-12.67,2.2739-18.8425,3.2486
		c2.9239-5.198,5.8477-10.071,9.0964-15.2691c-4.5482,0.65-8.7715,0.9747-13.3197,1.6244
		c-1.6243-6.4975-3.2487-12.6699-4.2233-18.8424c3.8984-5.198,10.7208-8.4466,16.8932-9.4213
		c2.9238,1.9494,5.1979,4.5483,8.4466,6.1727c2.2742-4.5483,4.2233-9.0966,6.4974-13.3199
		c2.9238,5.198,5.8477,10.071,9.0964,15.2691C887.2427,109.6406,883.0194,113.5392,878.7961,117.7625z M136.3065,1517.4561
		c5.2265-2.6425,10.8971-5.1661,16.1238-7.8087c3.9302,4.8584,8.3043,9.8357,12.2346,14.6938
		c-5.9635,0.0669-11.6456-0.0287-17.7716-0.2432c2.837,3.6139,5.2299,7.109,8.0666,10.723
		c-4.8148,4.6554-9.3481,9.1484-14.2064,13.0786c-6.4508-0.7771-12.6754-5.061-16.6057-9.9193
		c0.2263-3.5068,1.34-6.7756,1.1224-10.4012c-5.076,0.3047-9.9895,0.8907-14.7841,1.033c3.0397-5.1311,5.798-10.0997,8.6752-15.5122
		C125.0494,1514.202,130.5373,1515.9102,136.3065,1517.4561z M1719.7214,1460.6241c-4.9016-3.2051-9.9225-6.8541-14.8243-10.0593
		c2.2424-5.8329,4.3657-12.1096,6.6079-17.9424c3.0397,5.1311,5.798,10.0996,8.6752,15.5121
		c1.7112-4.2638,3.5416-8.0836,5.2531-12.3473c6.4391,1.842,12.5968,3.5215,18.4297,5.7637
		c2.5524,5.9752,1.9546,13.5078-0.2876,19.3407c-3.1501,1.5574-6.5378,2.2273-9.569,4.2286
		c2.8019,4.2435,5.7662,8.2057,8.2866,12.2869c-5.9635-0.067-11.6456,0.0287-17.7716,0.2432
		C1722.5319,1472,1721.2673,1466.3933,1719.7214,1460.6241z M932.0748,105.0925c3.2487-5.198,6.1726-10.071,9.0964-15.2691
		c2.2741,4.2233,4.2233,8.7716,6.4974,13.3199c3.2487-1.6244,5.5228-4.2233,8.4467-6.1727
		c6.1724,0.9747,12.9948,4.2233,16.8932,9.4213c-0.9746,6.1725-2.5991,12.345-4.2233,18.8424
		c-4.5482-0.6497-8.7715-0.9745-13.3196-1.6244c3.2487,5.198,6.1724,10.071,9.0963,15.2691
		c-6.1725-0.9747-12.6699-2.2741-18.8425-3.2486c-0.3248-5.8477-0.9746-12.0204-1.2994-17.8679
		C940.1966,113.5392,935.9733,109.6406,932.0748,105.0925z M98.6946,1477.6503c-6.126-0.2145-11.8081-0.3102-17.7716-0.2432
		c2.5204-4.0812,5.4848-8.0433,8.2866-12.2869c-3.0312-2.0013-6.4189-2.6713-9.569-4.2286
		c-2.2421-5.8329-2.8399-13.3655-0.2875-19.3407c5.8328-2.2422,11.9905-3.9216,18.4297-5.7637
		c1.7114,4.2637,3.5418,8.0835,5.253,12.3473c2.8773-5.4125,5.6355-10.381,8.6752-15.5121
		c2.2421,5.8328,4.3655,12.1095,6.6079,17.9424c-4.9019,3.2052-9.9227,6.8542-14.8244,10.0593
		C101.9487,1466.3933,100.6841,1472,98.6946,1477.6503z M1704.0546,1513.0999c2.8772,5.4125,5.6355,10.3811,8.6752,15.5122
		c-4.7946-0.1422-9.708-0.7283-14.7841-1.033c-0.2175,3.6256,0.8961,6.8944,1.1224,10.4012
		c-3.9303,4.8583-10.1549,9.1422-16.6057,9.9193c-4.8583-3.9302-9.3916-8.4232-14.2064-13.0786
		c2.8368-3.614,5.2297-7.1091,8.0667-10.723c-6.126,0.2145-11.808,0.3101-17.7716,0.2432
		c3.9304-4.8582,8.3044-9.8354,12.2347-14.6938c5.2267,2.6426,10.8972,5.1663,16.1238,7.8087
		C1692.6787,1515.9102,1698.1666,1514.202,1704.0546,1513.0999z M911.608,364.8531c-1.4103-2.9161-3.629-5.6286-5.8478-7.9861
		c2.3487-6.3414,4.1691-12.9281,5.8478-19.5782c1.6786,6.6501,3.499,13.2368,5.8477,19.5782
		C915.237,359.2245,913.0182,361.937,911.608,364.8531z M333.8873,1365.4948c-1.8203,2.6793-3.06,5.9572-3.9922,9.0574
		c-6.6662,1.1366-13.2806,2.8534-19.8791,4.7247c4.9198-4.7787,9.7138-9.6486,14.0313-14.8534
		C327.1983,1365.1663,330.6568,1365.7314,333.8873,1365.4948z M1489.3287,1365.4948c3.2305,0.2367,6.689-0.3285,9.84-1.0713
		c4.3175,5.2048,9.1116,10.0747,14.0314,14.8534c-6.5985-1.8713-13.2129-3.5881-19.879-4.7247
		C1492.3888,1371.4519,1491.149,1368.1741,1489.3287,1365.4948z M911.608,141.1035c-4.692-5.6575-9.8027-10.9684-15.269-15.8691
		c5.0854,0.8376,10.1818,1.3006,15.269,1.4276c5.0871-0.1269,10.1835-0.5899,15.2689-1.4276
		C921.4107,130.1351,916.2999,135.446,911.608,141.1035z M140.1145,1477.3695c-2.5536,6.8921-4.5975,13.9736-6.1086,21.1578
		c-1.8173-4.8229-3.9645-9.4679-6.3982-13.937c-2.6535-4.3422-5.6027-8.5243-8.8708-12.5095
		C125.7142,1474.3644,132.8689,1476.135,140.1145,1477.3695z M1683.1016,1477.3695c7.2455-1.2345,14.4003-3.0051,21.3776-5.2887
		c-3.2681,3.9852-6.2173,8.1674-8.8708,12.5095c-2.4336,4.4691-4.5808,9.1141-6.3981,13.937
		C1687.6991,1491.3431,1685.6552,1484.2616,1683.1016,1477.3695z M911.608,110.8059c-4.0827,0.9596-8.2921,1.582-12.6701,1.7588
		c3.2488-5.8477,8.7715-11.3705,9.0965-18.5177c-5.198-10.071-14.2944-19.4924-10.071-32.1623
		c-10.7206,2.2744-19.4922,8.7716-23.3906,19.1676c-5.1981-2.5991-10.071-7.4722-16.2435-5.198
		c-12.0203,4.5481-22.4161,12.345-34.4363,17.218c4.2234,11.6955,5.5229,24.0404,9.4213,35.7359
		c1.6243,7.1472,9.4212,8.1216,15.2688,10.071c-4.2233,9.4211-4.873,20.1419,0.9747,29.2382
		c7.147-6.1727,14.944-11.0455,24.3653-11.0455c11.0455,0.3247,12.0201-12.6699,14.6191-20.4671
		c11.0456,14.9443,17.2181,32.812,20.4669,51.0047c0.6277,3.8365,1.5102,7.5982,2.599,11.2946
		c1.0887-3.6964,1.9712-7.458,2.599-11.2946c3.2487-18.1927,9.4212-36.0604,20.4668-51.0047
		c2.599,7.7971,3.5736,20.7918,14.6191,20.4671c9.4213,0,17.2182,4.8728,24.3653,11.0455
		c5.8477-9.0963,5.198-19.8171,0.9747-29.2382c5.8476-1.9494,13.6445-2.9239,15.2689-10.071
		c3.8984-11.6955,5.1979-24.0404,9.4213-35.7359c-12.0202-4.873-22.4161-12.6699-34.4363-17.218
		c-6.1725-2.2741-11.0455,2.5989-16.2435,5.198c-3.8984-10.396-12.67-16.8932-23.3906-19.1676
		c4.2233,12.6699-4.873,22.0913-10.071,32.1623c0.325,7.1472,5.8478,12.6699,9.0965,18.5177
		C919.9001,112.3878,915.6907,111.7655,911.608,110.8059z M113.8759,1492.5184c2.8724,3.0558,5.5161,6.3901,7.8582,10.0931
		c-6.6886,0.1104-14.2329-1.9111-20.585,1.3811c-6.1228,9.5371-9.7337,22.1254-22.8178,24.8029
		c7.33,8.1472,17.3426,12.495,28.2949,10.6731c0.3481,5.8011-1.4356,12.4578,3.6201,16.6663
		c9.9488,8.1357,21.8991,13.2405,32.1294,21.2137c8.0169-9.5054,18.0582-16.8031,26.2375-26.0271
		c5.3775-4.9802,2.3229-12.2197,1.0874-18.2587c10.2706-1.0531,19.8799-5.8507,24.8337-15.4633
		c-8.9193-3.1031-17.0377-7.4191-21.7483-15.5781c-5.2415-9.7281-16.9825-4.0748-25.0345-2.427
		c7.4193-17.038,19.807-31.3174,33.938-43.2272c3.0086-2.4619,5.8251-5.1069,8.4819-7.8981
		c-3.7456,0.9053-7.4444,2.0219-11.0809,3.3965c-17.3797,6.2828-35.9398,9.8712-54.4048,7.7776
		c5.453-6.1494,16.2194-13.4907,10.4155-22.894c-4.7107-8.1592-4.3891-17.3479-2.617-26.6238
		c-10.8015-0.5161-19.7611,5.407-25.8084,13.775c-4.612-4.0895-9.3544-10.3546-16.3562-8.1877
		c-12.0778,2.4717-23.4186,7.5188-35.6589,9.7089c1.7899,12.8463,0.2356,25.7479,2.3069,38.4318
		c1.1168,6.4825,7.7735,8.2662,12.6234,11.4683c-7.0541,8.5741-8.295,19.4192-4.9044,29.8407
		c8.8608-9.9924,21.5681-6.8254,32.8889-7.3594c6.0272-3.855,8.0486-11.3993,11.4885-17.1366
		C111.0999,1484.5463,112.6656,1488.5029,113.8759,1492.5184z M1709.3401,1492.5184c1.2103-4.0155,2.776-7.9722,4.8119-11.8521
		c3.4399,5.7373,5.4613,13.2816,11.4885,17.1366c11.3208,0.5339,24.0281-2.6331,32.8889,7.3594
		c3.3906-10.4215,2.1497-21.2666-4.9044-29.8407c4.85-3.202,11.5066-4.9857,12.6234-11.4683
		c2.0713-12.6838,0.517-25.5854,2.3069-38.4318c-12.2402-2.1901-23.5811-7.2372-35.6588-9.7089
		c-7.0018-2.1669-11.7441,4.0983-16.3562,8.1877c-6.0472-8.368-15.0068-14.2911-25.8083-13.775
		c1.7722,9.2759,2.0938,18.4646-2.6169,26.6238c-5.8041,9.4033,4.9624,16.7446,10.4154,22.894
		c-18.465,2.0936-37.025-1.4948-54.4048-7.7776c-3.6365-1.3746-7.3353-2.4912-11.0809-3.3965
		c2.6569,2.7911,5.4733,5.4362,8.4819,7.8981c14.131,11.9098,26.5187,26.1892,33.938,43.2272
		c-8.052-1.6478-19.7931-7.3011-25.0345,2.427c-4.7107,8.1591-12.8291,12.475-21.7484,15.5781
		c4.9539,9.6125,14.5631,14.4102,24.8337,15.4633c-1.2356,6.0389-4.2902,13.2784,1.0874,18.2587
		c8.1793,9.224,18.2206,16.5217,26.2374,26.0271c10.2303-7.9733,22.1805-13.078,32.1294-21.2137
		c5.0558-4.2085,3.2721-10.8651,3.6202-16.6663c10.9524,1.8219,20.9648-2.5259,28.2949-10.6731
		c-13.0842-2.6775-16.6951-15.2657-22.8179-24.8029c-6.3522-3.2922-13.8964-1.2708-20.585-1.3811
		C1703.8241,1498.9086,1706.4678,1495.5742,1709.3401,1492.5184z M911.608,257.8729c-0.7224,1.222-1.3776,2.4879-1.9493,3.8074
		c-9.7461,21.4412-8.1218,46.1313-11.0455,69.1972c-2.9239,20.4669-11.0457,41.5834-27.2892,55.2279
		c-13.6445,11.3705-34.761,10.071-47.756-0.9746c-17.543-15.9185-18.1927-47.431-0.6497-63.6746
		c6.1726-6.4974,16.2435-10.071,24.6902-5.5229c7.7969,2.599,11.0456,10.7206,14.6192,17.543
		c-6.8223,0-13.9695-1.9492-21.1166-0.3249c-8.1218,4.5482-9.7462,15.2688-7.7969,23.7155
		c3.2487,13.3198,22.7408,16.5685,31.1875,6.4974c11.3705-13.9694,12.0202-35.4108,1.6244-50.03
		c-11.6954-16.2435-38.6597-19.1673-52.9539-4.5482c-11.0457,10.7206-14.2943,26.3146-17.2181,40.6088
		c-25.3398-1.2995-48.7306,13.3196-61.7253,34.4362c16.5684-6.4973,34.761-11.3704,52.629-6.8222
		c21.4414,3.8984,30.2129,29.2383,51.9792,32.4869c21.7664,3.8985,41.2585-11.3704,53.2787-27.9388
		c6.4974,0.9746,15.5938,3.8985,18.8425-4.2233c0.238-0.3422,0.4543-0.6844,0.6497-1.0264c0.1954,0.342,0.4117,0.6842,0.6497,1.0264
		c3.2487,8.1218,12.345,5.1979,18.8425,4.2233c12.0202,16.5684,31.5123,31.8372,53.2787,27.9388
		c21.7662-3.2486,30.5377-28.5885,51.9791-32.4869c17.868-4.5482,36.0607,0.3249,52.629,6.8222
		c-12.9948-21.1165-36.3855-35.7357-61.7253-34.4362c-2.9238-14.2943-6.1725-29.8882-17.2181-40.6088
		c-14.2943-14.6191-41.2585-11.6953-52.9539,4.5482c-10.3958,14.6192-9.746,36.0606,1.6245,50.03
		c8.4466,10.071,27.9387,6.8223,31.1875-6.4974c1.9493-8.4466,0.3248-19.1673-7.7969-23.7155
		c-7.147-1.6243-14.2943,0.3249-21.1166,0.3249c3.5736-6.8223,6.8223-14.944,14.6193-17.543
		c8.4466-4.5482,18.5175-0.9746,24.6901,5.5229c17.543,16.2435,16.8932,47.756-0.6497,63.6746
		c-12.9949,11.0456-34.1115,12.3451-47.756,0.9746c-16.2435-13.6445-24.3653-34.7611-27.2892-55.2279
		c-2.9237-23.0658-1.2994-47.756-11.0455-69.1972C912.9855,260.3608,912.3304,259.0949,911.608,257.8729z M241.2397,1418.9849
		c1.4195,0.0146,2.8433-0.051,4.272-0.2156c23.4416-2.2803,44.0118-16.032,65.4493-25.0328
		c19.1867-7.7013,41.5351-11.226,61.4734-3.981c16.6694,6.1313,26.1023,25.0685,23.034,41.8452
		c-5.0144,23.152-31.9801,39.4708-54.8189,32.4c-8.7133-2.0969-16.8435-9.0319-17.128-18.6208
		c-1.6476-8.0519,3.7615-14.9261,7.8831-21.4321c3.4112,5.9083,5.2967,13.0725,10.2769,18.4498
		c7.9997,4.7596,18.0963,0.806,24.4366-5.1053c9.9109-9.4734,2.9783-27.9784-9.9668-30.2579
		c-17.7831-2.8624-36.6768,7.2957-44.1395,23.6083c-8.2196,18.2502,2.7305,43.0638,22.5381,48.1334
		c14.8072,4.2056,29.9362-0.7781,43.7773-5.3931c11.5446,22.5947,35.9005,35.5421,60.6853,36.2377
		c-13.9111-11.1-27.2276-24.4188-32.2227-42.167c-7.3445-20.5181,10.2147-40.7843,2.1449-61.2588
		c-7.507-20.7994-30.4763-30.0457-50.8351-32.1714c-2.4047-6.1141-4.4207-15.4537-13.0788-14.2064
		c-0.4154-0.035-0.8198-0.0511-1.2137-0.0494c0.1985-0.3403,0.3867-0.6986,0.564-1.0759c5.4093-6.8743-1.671-13.29-5.7638-18.4297
		c8.3385-18.6941,11.8156-43.2091-2.4437-60.1101c-13.6965-17.226-40.0273-12.1523-54.1241-28.7719
		c-12.8728-13.2001-17.749-31.3918-20.4063-48.9893c-11.7901,21.8121-12.7552,49.3787,1.04,70.674
		c-10.9172,9.6792-22.7977,20.2896-26.5592,35.2157c-5.5134,19.6887,10.5008,41.5786,30.4158,43.5853
		c17.8585,1.6934,36.1025-9.59,42.5151-26.4219c4.4984-12.3505-8.0611-27.6068-21.2207-23.7604
		c-8.2896,2.5352-16.7618,9.3022-16.6397,18.61c2.1668,7.0017,7.4285,12.2168,10.8396,18.1251
		c-7.6951,0.3163-16.353,1.5636-22.5023-3.8892c-8.1621-5.0409-10.1028-15.5494-7.5621-24.1437
		c5.2958-23.3145,32.9113-38.5081,55.4686-31.2747c16.0633,5.7311,27.7469,23.3689,24.722,40.8706
		c-3.6947,20.8895-17.9213,38.4816-34.1842,51.2471c-18.5137,14.0649-40.7082,25.0033-54.4037,44.1643
		C242.7055,1416.548,241.9368,1417.7483,241.2397,1418.9849z M1581.9763,1418.9849c-0.697-1.2366-1.4658-2.4369-2.3226-3.5918
		c-13.6956-19.161-35.89-30.0994-54.4038-44.1643c-16.2628-12.7655-30.4894-30.3575-34.1842-51.2471
		c-3.0248-17.5017,8.6588-35.1395,24.722-40.8706c22.5574-7.2334,50.1729,7.9602,55.4686,31.2747
		c2.5406,8.5942,0.6,19.1028-7.5621,24.1437c-6.1493,5.4528-14.8071,4.2054-22.5022,3.8892
		c3.4111-5.9083,8.6727-11.1234,10.8396-18.1251c0.1219-9.3077-8.3501-16.0748-16.6398-18.61
		c-13.1597-3.8464-25.7191,11.4099-21.2207,23.7604c6.4126,16.8319,24.6565,28.1152,42.515,26.4219
		c19.915-2.0067,35.9292-23.8966,30.4158-43.5853c-3.7615-14.9261-15.642-25.5365-26.5592-35.2157
		c13.7953-21.2953,12.8302-48.8618,1.04-70.674c-2.6572,17.5974-7.5334,35.7892-20.4063,48.9893
		c-14.0969,16.6195-40.4276,11.5459-54.1241,28.7719c-14.2593,16.901-10.7822,41.416-2.4437,60.1101
		c-4.0927,5.1396-11.173,11.5554-5.7637,18.4297c0.1772,0.3773,0.3655,0.7356,0.564,1.0759
		c-0.3939-0.0017-0.7983,0.0144-1.2137,0.0494c-8.658-1.2473-10.6741,8.0923-13.0787,14.2064
		c-20.3588,2.1257-43.328,11.3719-50.8351,32.1714c-8.0697,20.4745,9.4895,40.7407,2.1449,61.2588
		c-4.9951,17.7482-18.3116,31.067-32.2227,42.167c24.7849-0.6956,49.1407-13.6429,60.6853-36.2377
		c13.8411,4.615,28.9701,9.5986,43.7773,5.3931c19.8076-5.0696,30.7577-29.8832,22.5381-48.1334
		c-7.4628-16.3126-26.3564-26.4707-44.1395-23.6083c-12.9451,2.2795-19.8777,20.7845-9.9667,30.2579
		c6.3403,5.9114,16.4369,9.865,24.4365,5.1053c4.9802-5.3773,6.8658-12.5415,10.277-18.4498
		c4.1216,6.506,9.5308,13.3802,7.8831,21.4321c-0.2844,9.589-8.4148,16.5239-17.1281,18.6208
		c-22.8387,7.0708-49.8044-9.248-54.8188-32.4c-3.0684-16.7767,6.3646-35.7139,23.0339-41.8452
		c19.9382-7.245,42.2866-3.7203,61.4734,3.981c21.4375,9.0009,42.0076,22.7526,65.4492,25.0328
		C1579.1329,1418.9338,1580.5569,1418.9995,1581.9763,1418.9849z"/>
	<path opacity="0.96" fill="#010202" enable-background="new    " d="M911.608,20.8308c-2.1054-0.7728-4.269-1.3918-6.4974-1.8287
		c-17.8678-2.9239-34.4362,6.8222-48.4057,16.5683c-21.4414,15.9188-42.558,35.7359-70.172,39.9592
		c22.741,34.1112,9.0964,77.644,26.3146,113.3795c11.3704,21.7665,38.0098,25.0151,59.7761,25.3399
		c-19.1674,28.2637-20.142,66.9234-3.2487,96.4867c0.9746-10.071,0.3249-20.4669,5.1979-29.5633
		c8.1218-15.9187,21.4415-29.5631,24.0404-47.756c1.2994-9.0963-7.7969-13.6446-13.9694-18.1927
		c7.147-8.4466,14.6191-16.8932,23.0657-24.3652c-0.6497-4.5483-1.6243-9.4213-2.5989-13.9694
		c-15.9186,5.5228-32.8119,12.6699-50.03,9.0961c-17.8679-4.2233-28.5886-21.1166-34.7612-37.0351
		c-8.4466-22.416-15.5938-45.4817-22.7408-68.2227c20.7917-9.0963,41.5834-18.8426,62.7-27.614
		c15.9186-6.1725,35.0859-10.3958,50.6797-1.6242c0.2183,0.1292,0.4349,0.2602,0.6497,0.3929
		c0.2148-0.1327,0.4313-0.2637,0.6497-0.3929c15.5938-8.7716,34.761-4.5483,50.6797,1.6242
		c21.1165,8.7714,41.9082,18.5177,62.7,27.614c-7.1471,22.741-14.2943,45.8067-22.7409,68.2227
		c-6.1726,15.9185-16.8932,32.8118-34.7612,37.0351c-17.2181,3.5738-34.1114-3.5734-50.03-9.0961
		c-0.9746,4.548-1.9492,9.4211-2.5989,13.9694c8.4466,7.4719,15.9186,15.9185,23.0657,24.3652
		c-6.1725,4.548-15.2689,9.0963-13.9694,18.1927c2.5989,18.1929,15.9187,31.8373,24.0405,47.756
		c4.873,9.0963,4.2233,19.4922,5.1979,29.5633c16.8932-29.5633,15.9186-68.2229-3.2487-96.4867
		c21.7663-0.3247,48.4057-3.5733,59.7761-25.3399c17.2182-35.7354,3.5736-79.2682,26.3146-113.3795
		c-27.6141-4.2233-48.7307-24.0404-70.1721-39.9592c-13.9695-9.7461-30.5378-19.4921-48.4057-16.5683
		C915.877,19.439,913.7134,20.0581,911.608,20.8308z"/>
	<path opacity="0.96" fill="#010202" enable-background="new    " d="M1787.2607,1537.5059
		c1.7219-1.4369,3.3398-3.0011,4.8324-4.7125c11.4661-14.012,11.3099-33.2336,9.8544-50.2047
		c-3.0654-26.5282-9.6692-54.7241,0.4802-80.7502c-40.9116,2.6387-71.7898-30.9443-111.3467-33.9006
		c-24.5356-1.0363-40.6687,20.4099-51.8331,39.0977c-14.8933-30.7313-47.8864-50.9052-81.9355-51.0569
		c8.2345,5.8796,17.5625,10.5149,23.0037,19.2832c9.7251,14.993,14.8816,33.3505,29.3376,44.6976
		c7.228,5.6735,15.7151,0.0699,22.7401-3.0015c3.7415,10.4128,7.3204,21.1071,9.568,32.1581
		c4.2638,1.7114,8.9712,3.304,13.3972,4.7339c3.1765-16.5472,5.4335-34.7509,17.1376-47.8752
		c12.5914-13.3624,32.5818-14.2002,49.454-11.5865c23.6361,3.8931,47.1852,9.2362,70.453,14.4172
		c-2.5182,22.5543-4.4735,45.4336-7.4355,68.1067c-2.6138,16.8722-8.5399,35.5833-23.9332,44.702
		c-0.2212,0.1245-0.4429,0.2466-0.6652,0.3662c0.0074,0.2524,0.0127,0.5055,0.0154,0.7592
		c-0.2004,17.8905-13.4417,32.3782-26.7465,43.0779c-18.1545,13.9017-36.9908,27.0348-55.2644,40.4927
		c-16.1207-17.5599-32.5227-35.2825-47.7122-53.8054c-10.6996-13.3049-19.9692-31.0359-14.6927-48.6217
		c5.514-16.6982,20.1503-27.7546,32.8925-38.7792c-3.4514-3.118-7.1843-6.3986-10.7983-9.2354
		c-10.6942,3.579-21.7452,5.8267-32.6338,7.7928c-0.8524-7.6195-0.2433-17.7714-8.7706-21.1942
		c-17.0549-6.8457-35.5313-2.1327-53.3781-3.0583c-10.3142-0.328-18.9926-6.0886-28.2015-10.2802
		c17.1559,29.4116,51.1234,47.8975,85.1842,45.4299c-10.6018,19.0125-21.1082,43.7073-7.943,64.4375
		c22.3386,32.7792,66.8615,42.729,85.0322,79.4789c17.4645-21.8029,45.1848-30.1818,69.6917-40.7911
		c15.425-7.225,32.1497-16.7006,38.5514-33.6365C1786.3317,1541.8989,1786.8773,1539.7156,1787.2607,1537.5059z"/>
	<path opacity="0.96" fill="#010202" enable-background="new    " d="M35.9553,1537.5059c0.3834,2.2097,0.9291,4.3931,1.6649,6.5413
		c6.4018,16.9359,23.1263,26.4115,38.5514,33.6365c24.5068,10.6094,52.2272,18.9883,69.6917,40.7911
		c18.1707-36.7499,62.6935-46.6997,85.0322-79.4789c13.1652-20.7302,2.6588-45.425-7.9431-64.4375
		c34.0608,2.4675,68.0284-16.0183,85.1843-45.4299c-9.209,4.1915-17.8873,9.9521-28.2015,10.2802
		c-17.8468,0.9257-36.3231-3.7874-53.3781,3.0583c-8.5274,3.4229-7.9181,13.5747-8.7706,21.1942
		c-10.8885-1.9662-21.9395-4.2139-32.6337-7.7928c-3.6141,2.8368-7.347,6.1173-10.7984,9.2354
		c12.7422,11.0245,27.3784,22.0809,32.8925,38.7792c5.2765,17.5858-3.9932,35.3168-14.6927,48.6217
		c-15.1895,18.5229-31.5914,36.2455-47.7122,53.8054c-18.2735-13.4579-37.1099-26.5909-55.2644-40.4927
		c-13.3049-10.6997-26.546-25.1874-26.7465-43.0779c0.0027-0.2537,0.0079-0.5067,0.0154-0.7592
		c-0.2224-0.1196-0.4441-0.2417-0.6652-0.3662c-15.3933-9.1188-21.3195-27.8298-23.9333-44.702
		c-2.9621-22.6731-4.9174-45.5524-7.4355-68.1067c23.2678-5.181,46.8169-10.5242,70.453-14.4172
		c16.8722-2.6136,36.8625-1.7759,49.4539,11.5865c11.7041,13.1244,13.9611,31.328,17.1375,47.8752
		c4.426-1.4299,9.1335-3.0225,13.3973-4.7339c2.2476-11.051,5.8265-21.7452,9.568-32.1581c7.025,3.0714,15.5121,8.6749,22.74,3.0015
		c14.4561-11.3472,19.6126-29.7046,29.3377-44.6976c5.4411-8.7683,14.7691-13.4036,23.0036-19.2832
		c-34.0492,0.1517-67.0421,20.3256-81.9356,51.0569c-11.1644-18.6877-27.2975-40.1339-51.833-39.0977
		c-39.5569,2.9563-70.4351,36.5393-111.3468,33.9006c10.1495,26.0261,3.5457,54.222,0.4803,80.7502
		c-1.4556,16.9711-1.6117,36.1927,9.8543,50.2047C32.6154,1534.5048,34.2333,1536.069,35.9553,1537.5059z"/>
	<path opacity="0.96" fill="#010202" enable-background="new    " d="M911.608,395.4375
		c-12.9929,9.0194-26.7218,16.9158-41.5834,22.8301c14.0845,2.0573,28.246,0.7997,41.5834-3.2845
		c13.3373,4.0842,27.4989,5.3417,41.5834,3.2845C938.3298,412.3532,924.6008,404.4568,911.608,395.4375z"/>
	<path opacity="0.96" fill="#010202" enable-background="new    " d="M1462.8419,1350.2026
		c-1.3146-15.7618-1.2886-31.5997,1.0203-47.4274c-8.8239,11.1688-14.8156,24.0619-17.9473,37.6545
		c-10.2057,9.5084-18.3756,21.1438-23.6361,34.37C1434.8315,1364.8865,1448.5344,1356.9451,1462.8419,1350.2026z"/>
	<path opacity="0.96" fill="#010202" enable-background="new    " d="M360.3741,1350.2026
		c14.3074,6.7424,28.0104,14.6838,40.5631,24.5972c-5.2606-13.2262-13.4304-24.8616-23.6361-34.37
		c-3.1317-13.5927-9.1234-26.4857-17.9473-37.6545C361.6627,1318.6029,361.6887,1334.4408,360.3741,1350.2026z"/>
	<path opacity="0.96" fill="#010202" enable-background="new    " d="M760.5433,721.3713
		c-5.1979,3.2487-10.3958,6.4974-15.5937,10.071c0.3248-5.8477,0.6497-11.3705,0.9745-17.2181
		c-3.5735,1.9492-7.1472,4.2232-10.7208,6.4973c-4.2233-5.1979-8.4466-10.0709-12.0202-15.9185
		c1.9493-4.5482,5.198-9.0964,9.0965-12.6699c3.5734-6.1726,9.4212,1.2996,13.9694,2.2741
		c-0.6497-5.8476-0.9746-11.3705-1.2994-17.2181c5.1979,3.5735,10.3958,7.1472,15.5937,11.3702
		c-2.5989,5.1979-4.873,10.7206-7.1471,16.2435C755.9951,710.3257,758.2692,715.8484,760.5433,721.3713z M718.1735,1318.0615
		c5.4124,2.8772,10.8248,5.7544,16.5186,8.4691c-5.2267,2.6425-10.172,5.1226-15.3986,7.765
		c3.4749,2.1202,7.231,4.078,10.9872,6.0358c-2.3898,6.2565-4.4984,12.3505-7.7758,18.369
		c-4.9135,0.5861-10.4766,0.0466-15.5207-1.5427c-7.1324-0.0084-3.5851-8.8088-5.0152-13.235
		c-4.7394,3.4866-9.3599,6.5293-14.2616,9.7345c0.4958-6.2883,0.9917-12.5767,2.05-19.1897
		c5.801-0.3483,11.7209-1.1401,17.6409-1.9323C710.8818,1327.5232,714.5275,1322.7924,718.1735,1318.0615z M1256.1073,1056.4098
		c-0.2145-6.1259-0.429-12.2517-0.9249-18.54c4.9019,3.2052,9.5222,6.2479,14.4241,9.453
		c0.0988-4.0693-0.0839-8.3013-0.2665-12.5331c6.6132-1.0586,12.9449-2.2795,19.7959-2.4506
		c2.9642,3.9622,5.2787,9.0498,6.4243,14.2128c3.5588,6.181-5.8361,7.5092-8.9542,10.9607
		c5.389,2.3612,10.3345,4.8413,15.561,7.4838c-5.6937,2.7147-11.3875,5.4294-17.6438,7.8193
		c-3.202-4.8496-6.8478-9.5804-10.4938-14.3113C1267.9471,1057.9938,1262.0272,1057.2018,1256.1073,1056.4098z M1069.8198,704.8029
		c-2.274-5.5229-4.5482-11.0457-7.1471-16.2435c5.1979-4.2231,10.3959-7.7967,15.5938-11.3702
		c-0.325,5.8476-0.6498,11.3705-1.2994,17.2181c4.5481-0.9745,10.3959-8.4467,13.9694-2.2741
		c3.8984,3.5735,7.1472,8.1217,9.0964,12.6699c-3.5736,5.8476-7.7969,10.7206-12.0203,15.9185
		c-3.5735-2.2741-7.1471-4.5482-10.7207-6.4973c0.3248,5.8476,0.6497,11.3704,0.9746,17.2181
		c-5.1979-3.5737-10.3959-6.8223-15.5938-10.071C1064.9468,715.8484,1067.2209,710.3257,1069.8198,704.8029z M549.1865,1058.5044
		c-3.6459,4.7308-7.2917,9.4617-10.4938,14.3113c-6.2562-2.3899-11.95-5.1046-17.6437-7.8193
		c5.2266-2.6425,10.172-5.1226,15.561-7.4838c-3.1181-3.4515-12.5131-4.7797-8.9542-10.9607
		c1.1456-5.163,3.4601-10.2506,6.4243-14.2128c6.851,0.171,13.1828,1.392,19.796,2.4506
		c-0.1827,4.2318-0.3652,8.4637-0.2665,12.5331c4.9017-3.2051,9.5222-6.2478,14.424-9.453
		c-0.496,6.2883-0.7104,12.4142-0.9249,18.54C561.1887,1057.2018,555.2689,1057.9938,549.1865,1058.5044z M1115.8176,1332.5353
		c5.92,0.7921,11.84,1.584,17.6409,1.9323c1.0583,6.613,1.5542,12.9014,2.05,19.1897c-4.9017-3.2052-9.5222-6.2479-14.2616-9.7345
		c-1.4301,4.4261,2.1172,13.2266-5.0151,13.235c-5.0441,1.5894-10.6073,2.1288-15.5208,1.5427
		c-3.2773-6.0186-5.3859-12.1125-7.7758-18.369c3.7562-1.9578,7.5125-3.9155,10.9872-6.0358
		c-5.2266-2.6425-10.1719-5.1226-15.3986-7.765c5.6938-2.7147,11.1062-5.5919,16.5187-8.4691
		C1108.6885,1322.7924,1112.3342,1327.5232,1115.8176,1332.5353z M832.2888,986.1525c2.2723-0.2844,4.5623-0.8109,6.8732-1.6362
		c19.817-6.1724,28.5885-26.6394,34.7611-44.832c6.1724-3.5734,16.8932-5.1979,15.2689-14.6192
		c0.9745-8.4465-7.472-11.6953-13.6447-14.6191c-0.9745-27.939-12.9948-55.8777-4.5482-83.4918
		c6.3197-23.3553,20.7732-44.3868,40.6088-58.1804c19.8356,13.7936,34.2891,34.8251,40.6088,58.1804
		c8.4467,27.614-3.5735,55.5527-4.5482,83.4918c-6.1726,2.9238-14.6192,6.1726-13.6447,14.6191
		c-1.6243,9.4213,9.0965,11.0458,15.269,14.6192c6.1726,18.1926,14.9441,38.6597,34.761,44.832
		c2.311,0.8253,4.601,1.3519,6.8732,1.6362c-0.8899,2.1101-1.5789,4.3566-2.0196,6.7706
		c-4.563,20.2482,8.7762,38.078,21.4451,52.5199c0.0085,7.1323-3.9451,17.229,5.0262,20.533
		c6.8276,5.0673,13.8643-0.6234,19.4828-4.5071c24.6831,13.1255,54.8889,16.6851,74.5801,37.8071
		c17.0664,17.1506,28.0535,40.1835,30.0813,64.2584c-21.8635,10.2814-47.304,12.2827-70.6902,6.078
		c-28.1377-6.4919-46.3233-30.8712-70.0319-45.6847c0.5541-6.8075,1.964-15.7469-5.8382-19.1261
		c-7.347-6.1174-14.1141,2.3549-20.2951,5.9137c-18.8415-3.7507-40.9523-6.3879-56.2062,7.6879
		c-1.8702,1.5887-3.4713,3.3086-4.8536,5.1343c-1.3824-1.8257-2.9835-3.5455-4.8537-5.1343
		c-15.2539-14.0758-37.3646-11.4386-56.2062-7.6879c-6.181-3.5588-12.9481-12.0311-20.2951-5.9137
		c-7.8022,3.3792-6.3923,12.3186-5.8382,19.1261c-23.7086,14.8135-41.8941,39.1927-70.0319,45.6847
		c-23.3862,6.2047-48.8267,4.2034-70.6901-6.078c2.0278-24.075,13.0148-47.1078,30.0813-64.2584
		c19.6911-21.1221,49.8969-24.6816,74.5801-37.8071c5.6184,3.8837,12.6552,9.5743,19.4828,4.5071
		c8.9713-3.304,5.0176-13.4006,5.0261-20.533c12.6689-14.4419,26.0082-32.2717,21.4451-52.5199
		C833.8676,990.5091,833.1786,988.2626,832.2888,986.1525z M911.608,753.9163c-12.9102,5.5927-25.6672,11.9422-39.9591,12.612
		c-16.5684,0-26.6393-14.6191-37.0352-25.3397c-16.8932-17.868-38.3347-30.5378-61.7253-37.6851
		c26.6393-6.8222,49.7051-23.0656,67.573-43.2077c8.7715-9.7461,19.8171-20.7916,34.1114-19.1673
		c13.1486,1.7828,25.0742,7.2347,37.0352,12.4755c11.961-5.2407,23.8866-10.6926,37.0352-12.4755
		c14.2943-1.6243,25.3398,9.4212,34.1113,19.1673c17.868,20.1421,40.9337,36.3855,67.5729,43.2077
		c-23.3905,7.1473-44.832,19.8171-61.7252,37.6851c-10.3959,10.7206-20.4668,25.3397-37.0352,25.3397
		C937.2751,765.8585,924.5182,759.5089,911.608,753.9163z M670.8259,1170.9631c11.2985,8.3843,23.1758,16.2573,30.9019,28.2997
		c8.2842,14.3486,0.6592,30.3798-3.4272,44.7433c-7.0275,23.564-7.2792,48.4677-1.7736,72.2981
		c-19.2278-19.6592-44.8279-31.5129-71.2054-36.916c-12.826-2.7233-27.9146-6.7664-33.655-19.9576
		c-5.0303-12.2784-6.2716-25.3323-7.7136-38.3112c-10.519-7.7383-21.2034-15.3401-29.3217-25.8358
		c-8.5538-11.567-4.5109-26.6555-0.4563-39.1249c8.5096-25.5452,11.0439-53.6423,3.6324-80.1238
		c17.885,16.6832,39.5781,28.9171,63.4988,34.6132c14.4823,3.6427,32.1783,5.0549,40.4625,19.4036
		C668.3345,1142.7637,669.2142,1156.9863,670.8259,1170.9631z M1152.3901,1170.9631c1.6117-13.9768,2.4913-28.1995,9.0573-40.9115
		c8.2842-14.3486,25.9801-15.7609,40.4625-19.4036c23.9207-5.696,45.6138-17.9299,63.4988-34.6132
		c-7.4115,26.4814-4.8771,54.5786,3.6324,80.1238c4.0547,12.4694,8.0975,27.5579-0.4563,39.1249
		c-8.1183,10.4957-18.8026,18.0975-29.3217,25.8358c-1.4419,12.9789-2.6832,26.0327-7.7135,38.3112
		c-5.7405,13.1913-20.829,17.2344-33.655,19.9576c-26.3776,5.4031-51.9777,17.2568-71.2056,36.916
		c5.5056-23.8304,5.2539-48.7341-1.7736-72.2981c-4.0864-14.3635-11.7114-30.3947-3.4272-44.7433
		C1129.2144,1187.2205,1141.0917,1179.3474,1152.3901,1170.9631z M911.608,638.8912
		c-26.4511-19.1044-44.069-50.5416-43.5327-83.5286c1.9493-19.4921,6.1726-38.9844,7.7969-58.8015
		c6.8223-2.5989,15.5938-6.4973,13.6446-15.5937c0.6497-9.0965-9.0964-10.071-15.5938-12.0203
		c-4.5482-20.142-16.2435-42.558-38.0098-47.431c-21.4415-5.5228-39.9591,14.6191-61.4005,8.7715
		c-17.543-3.5735-31.8373-15.2688-44.5073-26.9642c3.8984,24.3653,19.4922,46.7813,43.2078,55.8779
		c-3.2487,14.2942-6.8223,29.5632-1.2996,43.5326c7.1472,19.8171,33.4616,27.9389,51.3296,17.5429
		c13.6445-9.0964,21.4414-26.6394,19.1672-42.8829c-1.2994-12.0201-16.2434-18.8424-26.9642-13.9694
		c-7.7969,4.5482-11.6953,14.944-10.3959,23.7156c2.2741,9.7461,14.2943,9.4212,22.0912,12.3449
		c-7.7969,10.7209-24.6902,15.269-34.7612,5.198c-16.5684-17.8678-8.4466-47.1061,9.0964-61.4005
		c16.5684-13.9695,44.1824-7.472,54.5783,10.7206c9.7461,16.8934,9.4212,37.3602,5.1979,55.8777
		c-4.5482,23.3907-17.8679,44.1824-19.4922,68.2229c-1.2994,12.9948,3.5736,25.6647,9.0964,37.36
		c-17.8679,9.4213-32.4871,24.3653-43.5326,41.2585c-8.7715,13.9694-21.4414,25.015-35.7358,33.4616
		c0-6.8223,3.5736-14.6192,0-21.1165c-9.0963-6.4975-20.4668-11.3705-22.0911-24.0405
		c-9.4212,6.8223-14.6192,16.8932-12.6699,28.2637c-5.5229-0.9745-12.0202-4.5482-16.8932,0
		c-9.7462,8.7715-15.9187,21.1166-25.6647,30.213c8.7715,8.7715,15.2688,19.1674,23.3906,28.2637
		c4.873,5.8476,12.6699,3.5735,19.1674,2.9238c-1.2996,11.0455,3.8984,20.7917,12.6699,27.2891
		c1.2994-13.6445,14.6191-17.543,23.0657-25.6647c1.2996-6.8223-0.6497-13.3196-1.2994-19.8171
		c13.9694,8.4467,26.6393,19.1675,35.4108,33.1369c11.0457,17.543,25.9897,32.162,43.8575,42.558
		c-4.873,10.071-9.4212,20.7917-9.4212,32.1622c0,24.0405,12.9948,45.157,18.5176,68.2227
		c5.1979,20.142,6.8223,43.2077-4.5482,61.7254c-11.0456,17.8678-38.6595,23.0657-54.5782,9.0963
		c-12.345-11.0457-20.142-28.5887-16.5684-45.1571c1.9493-10.7206,10.3959-22.0911,22.416-21.4413
		c8.4467-0.9746,14.2944,5.198,20.142,10.3959c-7.1471,2.9239-16.8932,2.9239-21.1166,10.3958
		c-4.873,13.9694,8.1218,33.4616,23.7156,26.9643c19.4922-5.8478,14.9441-31.8375,6.1725-45.1571
		c-11.6953-21.7664-45.8067-21.7664-59.4512-2.2742c-10.3958,14.9442-6.8222,34.4363-2.5989,51.0048
		c-1.238,0.5803-2.476,1.1698-3.7079,1.7735c0.0931,1.3687,0.2016,2.7357,0.3181,4.0979
		c-16.4603,4.6267-35.1277,11.278-42.8719,27.7531c-10.0585,21.5626,6.9973,51.1039,31.6951,50.3492
		c15.921,0.9366,40.7027-8.1194,36.021-27.9241c-2.17-16.7533-25.5482-18.261-35.2095-7.0562
		c-4.3593,7.3935,0.5139,15.8339,1.5552,23.4854c-7.4253-2.4652-15.6948-4.4431-19.0741-12.2455
		c-6.5728-10.0848-0.949-23.085,7.3607-30.1335c12.5618-11.379,31.653-13.3982,47.3914-8.2299
		c20.0572,6.8013,29.3626,33.3146,19.4114,51.8143c-10.3515,19.106-31.1392,29.2321-51.1816,34.8016
		c-22.7369,6.75-47.5217,6.0544-68.3414,18.0747c-9.8472,5.6852-16.8574,14.9844-23.1427,24.24
		c-17.937-10.276-38.0696-15.9084-58.785-16.7028c-16.4836-0.6116-32.1031-6.2236-46.4028-14.0981
		c5.9518-2.686,12.5533-4.2466,17.8118-8.7832c2.8104-11.3759-0.4733-24.8602,10.6934-32.8079
		c-10.0126-4.3477-21.052-3.9762-29.968,2.672c-2.686-5.9518-4.6151-13.8411-12.1158-15.1375
		c-11.9385-2.4855-24.1902-2.9144-36.1724-6.1249c-3.0046,12.9885-10.6096,24.5066-13.3328,37.3328
		c-1.5023,6.4943,4.8412,10.3344,8.4466,14.63c-10.8218,3.9971-16.9445,13.5342-18.1422,25.1042
		c11.7846-4.9282,21.6901,2.4824,31.8652,7.1113c7.4137-0.1538,12.3792-7.1471,18.2875-10.5582
		c-0.1678,16.6025-3.3986,33.0979-11.1107,47.6788c-9.1072,18.0123-14.7394,38.1449-13.9647,58.3296
		c-12.8899,1.0648-26.2989,3.1797-36.903,10.8024c-20.0075,13.4269-31.3537,35.358-49.3366,50.9922
		c-13.925,12.9163-31.4874,23.431-50.9905,23.4374c-20.9533,0.0933-40.3873-20.5725-36.5735-41.9059
		c3.6078-22.3398,24.868-43.9927,48.6262-38.5779c13.7572,3.6863,18.2651,20.5903,12.879,32.7031
		c-6.4305-5.2905-12.1593-15.8628-21.7367-12.9591c-8.2462,3.2604-15.2999,11.8345-15.3403,20.8608
		c1.1402,11.7209,14.5205,21.2517,25.5799,16.3669c15.2044-6.1522,26.4986-21.676,27.5541-38.0408
		c0.0692-20.6721-20.1217-39.4001-40.8575-35.6813c-14.8592,2.2019-26.2957,12.9312-37.0505,22.8917
		c-19.7356-15.99-46.9454-18.2866-69.9955-9.4801c16.4634,5.1248,33.7391,11.6564,45.6053,25.0624
		c15.7849,15.6449,7.6003,41.7526,23.1039,57.5601c15.1033,16.4137,40.3638,15.3341,60.0814,9.202
		c4.9368,4.6522,10.6539,12.6053,18.2068,7.4944c8.8523-2.8601,7.8427-12.4056,6.6822-19.6134
		c16.35-11.3153,31.1191-24.7189,47.0251-36.1531c28.2994-16.958,64.3338-17.4191,94.1042-4.0638
		c-3.3193,32.4595-21.7358,63.4357-50.5715,79.4646c-17.8553,8.058-36.8478,14.1466-54.8221,22.6484
		c-5.6619-4.6088-13.4238-10.2559-20.3268-4.0197c-8.2026,3.9855-4.1736,12.9132-2.613,19.5148
		c-15.1694,14.0098-28.7345,35.3463-22.0716,56.6329c5.9379,21.3303,32.64,27.296,38.2966,48.7887
		c5.6768,16.9794,2.6955,35.2063-1.098,52.0265c19.1517-15.5588,30.7677-40.2715,26.7878-65.358
		c14.0035-4.3336,29.0136-8.8733,38.3501-20.6409c13.5885-16.0981,7.465-42.948-10.4722-53.2241
		c-14.7-7.2683-33.7911-5.2491-46.7213,4.8422c-9.76,7.1354-8.1963,23.4884,1.3842,30.3363
		c7.8373,4.4783,18.7895,2.6565,25.7362-2.8546c7.3033-6.8425,1.0118-17.09-0.3546-25.3041
		c13.183,1.3918,25.5684,13.7478,21.8822,27.505c-7.1898,23.2826-36.5718,30.868-57.7226,22.8226
		c-20.3821-7.3639-28.5622-34.5271-18.0048-52.6266c9.757-16.887,27.6443-26.8391,45.7926-32.4403
		c22.531-7.7566,47.197-6.6172,68.8288-17.2307c11.9036-5.3719,20.4395-15.9271,27.8066-26.5576
		c17.093,10.7633,37.3445,15.9519,57.4972,17.071c16.4836,0.6116,32.3843,6.0613,46.8466,14.2172
		c-5.9083,3.4113-14.4474,4.2148-18.2875,10.5583c-1.0788,11.1263,0.3862,23.41-9.774,31.1517
		c10.6189,4.7478,21.9396,4.214,30.8121-3.1594c1.9174,5.2703,2.0712,12.6838,8.4466,14.63
		c12.4694,4.0547,26.2468,3.2277,38.9975,7.1199c3.2107-11.9822,8.9651-22.8069,12.7819-34.3888
		c2.6276-7.1439-3.2402-12.7593-7.0516-18.0614c10.2155-4.3972,16.0569-13.772,17.298-24.6169
		c-12.4662,5.6969-22.5022-3.889-33.7592-7.1432c-6.5581,2.2858-11.2103,7.2225-16.5124,11.0339
		c0.3303-16.3212,3.2798-32.6541,10.9919-47.2351c9.6699-18.3373,14.8583-38.5887,14.9276-59.2607
		c11.1583-0.8153,22.7167-2.2368,32.5638-7.922c20.8196-12.0203,32.6097-33.8324,49.8239-50.1481
		c14.8445-14.5725,34.0078-27.5122,55.7298-26.9238c20.9968,0.6318,39.3053,21.9473,35.1667,42.7179
		c-3.3933,16.214-14.6876,31.7378-30.823,36.9272c-10.259,3.6721-24.3294,2.0424-29.7767-8.6923
		c-5.0674-6.8278-2.6456-14.9783-1.0679-22.6414c6.1057,4.7275,10.9788,13.168,19.5613,13.0896
		c14.5344-2.7645,24.9177-23.7645,11.494-34.0205c-14.8105-13.9568-35.0441,2.9768-42.1934,17.233
		c-13.0026,21.0116,4.0531,50.553,27.7562,52.6234c18.14,1.5309,33.2338-11.3101,45.4708-23.2517
		c1.1216,0.782,2.2511,1.5593,3.3899,2.3245c1.1387-0.7651,2.2683-1.5425,3.3898-2.3245
		c12.237,11.9417,27.3309,24.7826,45.4708,23.2517c23.7031-2.0704,40.7588-31.6118,27.7562-52.6234
		c-7.1494-14.2562-27.3829-31.1898-42.1934-17.233c-13.4238,10.256-3.0404,31.256,11.494,34.0205
		c8.5825,0.0784,13.4556-8.3621,19.5613-13.0896c1.5778,7.6631,3.9996,15.8136-1.0678,22.6414
		c-5.4473,10.7346-19.5178,12.3644-29.7767,8.6923c-16.1354-5.1895-27.4296-20.7133-30.823-36.9272
		c-4.1385-20.7706,14.1699-42.0861,35.1667-42.7179c21.722-0.5884,40.8853,12.3513,55.7298,26.9238
		c17.2142,16.3157,29.0043,38.1278,49.8239,50.1481c9.8472,5.6852,21.4055,7.1067,32.5638,7.922
		c0.0692,20.672,5.2577,40.9235,14.9275,59.2607c7.7122,14.5811,10.6617,30.9139,10.9921,47.2351
		c-5.3021-3.8114-9.9543-8.7482-16.5125-11.0339c-11.257,3.2542-21.293,12.8401-33.7592,7.1432
		c1.2411,10.845,7.0825,20.2197,17.2981,24.6169c-3.8114,5.3021-9.6793,10.9175-7.0516,18.0614
		c3.8168,11.5819,9.5712,22.4066,12.7819,34.3888c12.7507-3.8922,26.5281-3.0652,38.9976-7.1199
		c6.3752-1.9462,6.5292-9.3597,8.4465-14.63c8.8726,7.3734,20.1932,7.9072,30.8121,3.1594
		c-10.1604-7.7417-8.6953-20.0254-9.774-31.1517c-3.8401-6.3435-12.3792-7.1471-18.2875-10.5583
		c14.4622-8.1559,30.3629-13.6056,46.8464-14.2172c20.1528-1.1191,40.4043-6.3077,57.4973-17.071
		c7.3671,10.6305,15.9031,21.1857,27.8065,26.5576c21.6318,10.6135,46.2979,9.4741,68.8289,17.2307
		c18.1483,5.6012,36.0355,15.5533,45.7926,32.4403c10.5574,18.0995,2.3773,45.2627-18.0048,52.6266
		c-21.1508,8.0454-50.5328,0.46-57.7225-22.8226c-3.6862-13.7572,8.6991-26.1132,21.8822-27.505
		c-1.3665,8.2141-7.658,18.4615-0.3546,25.3041c6.9467,5.5111,17.8989,7.3329,25.7362,2.8546
		c9.5806-6.8479,11.1443-23.2009,1.3843-30.3363c-12.9303-10.0913-32.0214-12.1105-46.7214-4.8422
		c-17.937,10.2761-24.0607,37.126-10.472,53.2241c9.3364,11.7676,24.3466,16.3073,38.3501,20.6409
		c-3.98,25.0865,7.636,49.7992,26.7877,65.358c-3.7936-16.8202-6.7748-35.0471-1.098-52.0265
		c5.6565-21.4927,32.3586-27.4584,38.2965-48.7887c6.663-21.2866-6.9021-42.6232-22.0715-56.6329
		c1.5605-6.6016,5.5896-15.5293-2.613-19.5148c-6.9031-6.2362-14.6649-0.5891-20.3268,4.0197
		c-17.9742-8.5018-36.9667-14.5905-54.822-22.6484c-28.8358-16.0289-47.2522-47.0051-50.5715-79.4646
		c29.7704-13.3552,65.8048-12.8942,94.1041,4.0638c15.9061,11.4342,30.6752,24.8378,47.0251,36.1531
		c-1.1604,7.2078-2.17,16.7533,6.6823,19.6134c7.5529,5.111,13.27-2.8422,18.2068-7.4944
		c19.7175,6.1321,44.978,7.2117,60.0814-9.202c15.5035-15.8075,7.319-41.9152,23.1039-57.5601
		c11.8662-13.406,29.1418-19.9376,45.6053-25.0624c-23.0502-8.8065-50.26-6.5099-69.9956,9.4801
		c-10.7548-9.9606-22.1913-20.6898-37.0505-22.8917c-20.7357-3.7189-40.9266,15.0092-40.8574,35.6813
		c1.0555,16.3647,12.3497,31.8885,27.5541,38.0408c11.0594,4.8848,24.4397-4.646,25.58-16.3669
		c-0.0404-9.0264-7.0942-17.6005-15.3403-20.8608c-9.5774-2.9037-15.3062,7.6686-21.7367,12.9591
		c-5.3861-12.1128-0.8782-29.0168,12.879-32.7031c23.7582-5.4148,45.0184,16.238,48.6262,38.5779
		c3.8137,21.3334-15.6202,41.9991-36.5736,41.9059c-19.5031-0.0063-37.0654-10.5211-50.9905-23.4374
		c-17.9828-15.6342-29.3291-37.5653-49.3365-50.9922c-10.6041-7.6227-24.0131-9.7375-36.903-10.8024
		c0.7748-20.1847-4.8574-40.3173-13.9646-58.3296c-7.7122-14.5809-10.943-31.0763-11.1108-47.6788
		c5.9083,3.4111,10.8739,10.4044,18.2875,10.5582c10.1752-4.6289,20.0806-12.0396,31.8652-7.1113
		c-1.1976-11.5701-7.3203-21.1072-18.1421-25.1042c3.6055-4.2957,9.9489-8.1357,8.4465-14.63
		c-2.7231-12.8262-10.3281-24.3442-13.3328-37.3328c-11.9822,3.2105-24.2338,3.6395-36.1724,6.1249
		c-7.5007,1.2964-9.4298,9.1857-12.1158,15.1375c-8.9159-6.6482-19.9553-7.0197-29.968-2.672
		c11.1669,7.9476,7.8832,21.432,10.6935,32.8079c5.2585,4.5366,11.86,6.0972,17.8119,8.7832
		c-14.2997,7.8745-29.9192,13.4866-46.4028,14.0981c-20.7155,0.7943-40.848,6.4268-58.785,16.7028
		c-6.2853-9.2556-13.2955-18.5548-23.1427-24.24c-20.8196-12.0203-45.6045-11.3247-68.3413-18.0747
		c-20.0425-5.5695-40.8301-15.6956-51.1817-34.8016c-9.9512-18.4997-0.6458-45.013,19.4114-51.8143
		c15.7384-5.1683,34.8296-3.1491,47.3914,8.2299c8.3097,7.0485,13.9336,20.0487,7.3607,30.1335
		c-3.3793,7.8024-11.6488,9.7803-19.0741,12.2455c1.0414-7.6514,5.9146-16.0919,1.5553-23.4854
		c-9.6614-11.2048-33.0396-9.6971-35.2096,7.0562c-4.6817,19.8047,20.1,28.8607,36.021,27.9241
		c24.6979,0.7548,41.7535-28.7866,31.6951-50.3492c-7.7441-16.4752-26.4116-23.1264-42.8719-27.7531
		c0.1165-1.3622,0.2249-2.7292,0.3181-4.0979c-1.2319-0.6037-2.47-1.1932-3.708-1.7735
		c4.2234-16.5684,7.7969-36.0605-2.5989-51.0048c-13.6445-19.4922-47.756-19.4922-59.4512,2.2742
		c-8.7716,13.3196-13.3198,39.3093,6.1725,45.1571c15.5938,6.4973,28.5886-12.9949,23.7156-26.9643
		c-4.2233-7.4719-13.9695-7.4719-21.1166-10.3958c5.8477-5.1979,11.6953-11.3705,20.142-10.3959
		c12.0201-0.6498,20.4667,10.7206,22.4161,21.4413c3.5735,16.5684-4.2234,34.1114-16.5684,45.1571
		c-15.9187,13.9694-43.5326,8.7715-54.5782-9.0963c-11.3705-18.5177-9.7461-41.5834-4.5482-61.7254
		c5.5228-23.0657,18.5176-44.1823,18.5176-68.2227c0-11.3705-4.5482-22.0911-9.4212-32.1622
		c17.8679-10.3959,32.8119-25.015,43.8575-42.558c8.7714-13.9694,21.4415-24.6902,35.4108-33.1369
		c-0.6498,6.4975-2.599,12.9948-1.2994,19.8171c8.4465,8.1218,21.7662,12.0202,23.0657,25.6647
		c8.7715-6.4974,13.9695-16.2435,12.6699-27.2891c6.4974,0.6497,14.2944,2.9238,19.1674-2.9238
		c8.1218-9.0964,14.6191-19.4922,23.3906-28.2637c-9.7461-9.0964-15.9186-21.4415-25.6647-30.213
		c-4.873-4.5482-11.3704-0.9745-16.8933,0c1.9493-11.3705-3.2487-21.4414-12.6699-28.2637
		c-1.6243,12.67-12.9948,17.543-22.0912,24.0405c-3.5735,6.4973,0,14.2942,0,21.1165
		c-14.2943-8.4466-26.9642-19.4922-35.7357-33.4616c-11.0455-16.8932-25.6647-31.8372-43.5326-41.2585
		c5.5228-11.6954,10.3958-24.3653,9.0964-37.36c-1.6243-24.0405-14.9441-44.8322-19.4922-68.2229
		c-4.2233-18.5175-4.5482-38.9844,5.1979-55.8777c10.3959-18.1927,38.0099-24.6901,54.5783-10.7206
		c17.543,14.2944,25.6647,43.5327,9.0964,61.4005c-10.071,10.071-26.9643,5.5229-34.7612-5.198
		c7.7969-2.9237,19.8171-2.5989,22.0913-12.3449c1.2994-8.7716-2.5991-19.1674-10.3959-23.7156
		c-10.7208-4.873-25.6647,1.9493-26.9642,13.9694c-2.2742,16.2435,5.5228,33.7865,19.1673,42.8829
		c17.8679,10.3959,44.1824,2.2742,51.3295-17.5429c5.5228-13.9694,1.9492-29.2383-1.2996-43.5326
		c23.7156-9.0966,39.3094-31.5126,43.2079-55.8779c-12.6699,11.6953-26.9644,23.3907-44.5073,26.9642
		c-21.4414,5.8476-39.9589-14.2943-61.4005-8.7715c-21.7662,4.873-33.4616,27.289-38.0098,47.431
		c-6.4974,1.9493-16.2435,2.9239-15.5938,12.0203c-1.9492,9.0963,6.8223,12.9948,13.6447,15.5937
		c1.6243,19.8171,5.8476,39.3094,7.7969,58.8015C955.6771,588.3497,938.0591,619.7869,911.608,638.8912z"/>
	<path opacity="0.96" fill="#010202" enable-background="new    " d="M911.608,452.1921
		c-11.8622-11.975-26.5799-21.0822-42.8829-26.4526c18.0451,18.5396,31.5761,40.4648,42.8829,63.4857
		c11.3067-23.021,24.8377-44.9461,42.8828-63.4857C938.1879,431.1099,923.4702,440.2171,911.608,452.1921z"/>
	<path opacity="0.96" fill="#010202" enable-background="new    " d="M1413.691,1321.8253
		c16.3016-4.2855,31.5476-12.4778,44.35-23.9114c-25.0782,6.3578-50.8315,7.1134-76.4216,5.3948
		c14.2833,21.3024,26.5056,43.9832,33.5388,68.8805C1418.6588,1355.3853,1418.1305,1338.0857,1413.691,1321.8253z"/>
	<path opacity="0.96" fill="#010202" enable-background="new    " d="M409.525,1321.8253
		c-4.4395,16.2604-4.9678,33.5599-1.4672,50.3639c7.0332-24.8973,19.2554-47.5781,33.5388-68.8805
		c-25.5901,1.7186-51.3434,0.963-76.4216-5.3948C377.9774,1309.3475,393.2233,1317.5398,409.525,1321.8253z"/>
	<path opacity="0.96" fill="#010202" enable-background="new    " d="M911.608,505.9037
		c-4.7428,13.0656-5.7352,27.391-10.071,40.6875c-2.9238,9.0965-10.7207,14.9441-17.543,21.1166
		c6.5647,8.9518,16.6924,13.2443,27.614,12.6259c10.9216,0.6185,21.0493-3.674,27.614-12.6259
		c-6.8223-6.1725-14.6193-12.0201-17.543-21.1166C917.3431,533.2946,916.3508,518.9693,911.608,505.9037z"/>
	<path opacity="0.96" fill="#010202" enable-background="new    " d="M1367.1754,1294.9695
		c-8.9438-10.6401-20.8538-18.6622-30.2009-29.0656c-6.4159-7.0803-7.5817-16.7563-9.516-25.751
		c-11.0349,1.2094-19.8162,7.834-24.7413,17.6016c-5.9965,9.149-7.3429,20.0662-2.8727,30.2273
		c8.7566-2.822,17.7192-6.6505,27.059-4.6343C1340.5865,1286.2407,1353.4888,1292.5439,1367.1754,1294.9695z"/>
	<path opacity="0.96" fill="#010202" enable-background="new    " d="M456.0406,1294.9695
		c13.6866-2.4255,26.5888-8.7288,40.272-11.6219c9.3396-2.0162,18.3023,1.8123,27.059,4.6343
		c4.4702-10.1611,3.1237-21.0782-2.8727-30.2273c-4.9252-9.7676-13.7065-16.3922-24.7413-17.6016
		c-1.9344,8.9946-3.1001,18.6707-9.516,25.751C476.8943,1276.3073,464.9845,1284.3293,456.0406,1294.9695z"/>
	<path opacity="0.96" fill="#010202" enable-background="new    " d="M787.1827,795.767
		c-1.9493,18.8424-0.9745,38.9844,8.7715,56.2025c7.1472,13.6447,18.1927,24.6902,29.2383,35.0859
		c-3.8984-10.7206-9.4212-21.4415-8.7715-33.1367c0.6497-17.2183,7.472-34.4362,2.9238-51.3296
		c-2.2741-9.4212-13.3198-9.7461-20.7917-12.345c3.2487-10.3959,6.8222-20.7917,11.0455-31.1876
		c-2.9238-3.8984-5.5228-7.472-8.1218-11.3705c-13.9694,13.3198-29.5632,29.5632-50.3549,29.2383
		c-19.1673-0.9746-34.1114-15.2689-46.4564-28.5885c-13.3197-14.9441-26.9642-29.5633-40.6088-44.1824
		c15.9186-17.2181,31.5125-35.0859,47.756-51.9793c12.0202-12.0202,27.6139-23.3907,45.4818-21.1166
		c18.1927,2.9239,31.5124,17.2181,44.8322,28.9135c2.5989-3.5736,4.873-7.4719,7.4719-11.0456
		c-4.2233-10.3958-7.7969-21.1166-11.0455-31.8372c6.8222-2.599,17.2181-2.2742,20.142-10.3959
		c6.8222-20.7917-5.5228-42.2331-1.2996-63.3497c1.6245-7.1472,4.5482-14.2943,7.1472-21.4414
		c-14.6193,12.6699-27.9389,27.9388-34.1114,46.4564c-5.198,13.9694-4.5482,29.2383-3.2487,44.1823
		c-18.8425-7.7969-41.2585-15.269-60.4259-3.8985c-24.0403,14.9441-31.8372,44.1824-46.7813,66.5984
		c-7.1472,12.0202-17.8678,21.4414-29.2383,29.5632v0.3251c14.6192,4.5482,22.416,18.8425,31.1876,30.2129
		c12.9948,21.7664,21.1166,48.7306,43.5326,63.3498C744.6247,811.0359,768.0153,803.5638,787.1827,795.767z"/>
	<path opacity="0.96" fill="#010202" enable-background="new    " d="M769.2823,1257.7933
		c17.2927-7.733,34.2488-18.6482,44.287-35.6976c8.243-13.012,12.2859-28.1003,15.7661-42.864
		c-7.3351,8.7365-13.8583,18.8798-24.3115,24.1647c-15.2363,8.0464-33.5587,10.7472-45.9147,23.1327
		c-7.0219,6.6801-1.7805,16.4082-0.2952,24.1786c-10.6274,2.3845-21.4172,4.4877-32.532,6.0281
		c-1.9142,4.4813-3.7096,8.5189-5.7863,12.7189c18.52,5.438,40.3841,10.8209,50.4986,28.9895
		c8.7396,17.0867,3.8325,37.1757-1.5302,54.5267c-6.2821,19.0071-12.1205,38.1333-17.9587,57.2594
		c-22.8706-5.1769-46.1415-9.7477-68.8934-15.3683c-16.4199-4.3997-34.0639-12.219-41.0284-28.8301
		c-6.5642-17.2173-0.8448-35.8995,2.6237-53.2825c-4.3943-0.464-8.9074-0.4843-13.3018-0.9481
		c-6.8914,8.8553-14.389,17.3105-22.0491,25.4843c-5.6619-4.6086-10.5786-13.7742-19.0741-12.2455
		c-21.4172,4.4877-33.8135,25.8995-54.2126,32.8003c-7.0019,2.1669-14.6533,3.2083-22.1424,4.5311
		c18.282,6.3256,38.1651,10.2263,57.2881,6.3131c14.6968-2.4832,27.5952-10.6804,39.8873-19.2777
		c2.6689,20.2166,7.406,43.3654,26.8369,54.2797c24.9621,13.3474,54.1816,5.4806,81.0665,7.2145
		c13.9834,0.1796,27.5027,4.7533,40.2216,10.5396l0.2816-0.1625c-3.3708-14.9347,5.1101-28.8341,10.5714-42.1157
		c12.3528-22.1371,31.6436-42.6528,33.0963-69.3752C803.7845,1287.0151,785.6183,1270.4943,769.2823,1257.7933z"/>
	<path opacity="0.96" fill="#010202" enable-background="new    " d="M1178.359,1042.2823
		c-15.3433-11.1094-33.2742-20.3362-53.0585-20.5049c-15.3901-0.6326-30.4786,3.4103-45.0045,7.7781
		c11.2336,1.9843,23.2795,2.5618,33.083,8.972c14.5867,9.1719,26.0867,23.6891,42.9908,28.197
		c9.296,2.7411,15.1002-6.6622,21.0869-11.8337c7.3788,8.0114,14.595,16.3041,21.4865,25.1595
		c4.838-0.5828,9.2324-1.0469,13.9081-1.3484c-4.5507-18.7577-10.8209-40.384-0.1437-58.2278
		c10.4276-16.1121,30.2788-21.9069,47.9866-25.9382c19.6017-4.0631,39.0846-8.57,58.5674-13.077
		c6.952,22.395,14.6292,44.8335,21.1375,67.3475c4.3997,16.4199,6.45,35.6097-4.4535,49.9468
		c-11.6284,14.2933-30.6675,18.6814-47.4558,24.369c1.7954,4.0375,4.0343,7.9561,5.8298,11.9937
		c11.1146,1.5404,22.1859,3.8059,33.0946,6.3529c-1.1603,7.2076-6.6396,16.0483-1.0679,22.6414
		c14.595,16.3041,39.3364,16.3336,55.5122,30.5494c5.3774,4.9803,10.1051,11.0859,14.9952,16.9104
		c-3.6628-18.9956-10.2263-38.1652-23.1768-52.7695c-9.4989-11.4863-23.0471-18.558-36.6387-24.9047
		c16.1736-12.4197,33.8525-28.0964,33.5891-50.3811c-0.9218-28.2916-22.3445-49.6631-34.2853-73.813
		c-6.8362-12.1998-9.6349-26.1947-10.9833-40.1027l-0.2815-0.1625c-11.2485,10.3865-27.5261,9.9916-41.759,11.9028
		c-25.3477,0.3706-52.7601-6.0778-76.6288,6.0254C1186.4148,997.7916,1181.1904,1021.7844,1178.359,1042.2823z"/>
	<path opacity="0.96" fill="#010202" enable-background="new    " d="M1036.0333,795.767
		c1.9493,18.8424,0.9746,38.9844-8.7715,56.2025c-7.1472,13.6447-18.1927,24.6902-29.2383,35.0859
		c3.8985-10.7206,9.4213-21.4415,8.7715-33.1367c-0.6497-17.2183-7.472-34.4362-2.9238-51.3296
		c2.2741-9.4212,13.3198-9.7461,20.7917-12.345c-3.2486-10.3959-6.8222-20.7917-11.0455-31.1876
		c2.9238-3.8984,5.5228-7.472,8.1218-11.3705c13.9694,13.3198,29.5632,29.5632,50.3549,29.2383
		c19.1672-0.9746,34.1113-15.2689,46.4564-28.5885c13.3196-14.9441,26.9641-29.5633,40.6088-44.1824
		c-15.9186-17.2181-31.5125-35.0859-47.756-51.9793c-12.0201-12.0202-27.6139-23.3907-45.4818-21.1166
		c-18.1927,2.9239-31.5123,17.2181-44.8322,28.9135c-2.5989-3.5736-4.873-7.4719-7.4719-11.0456
		c4.2233-10.3958,7.7969-21.1166,11.0455-31.8372c-6.8222-2.599-17.2181-2.2742-20.142-10.3959
		c-6.8222-20.7917,5.5229-42.2331,1.2996-63.3497c-1.6245-7.1472-4.5482-14.2943-7.1472-21.4414
		c14.6192,12.6699,27.9389,27.9388,34.1113,46.4564c5.1981,13.9694,4.5482,29.2383,3.2488,44.1823
		c18.8425-7.7969,41.2585-15.269,60.4259-3.8985c24.0403,14.9441,31.8373,44.1824,46.7814,66.5984
		c7.1471,12.0202,17.8678,21.4414,29.2383,29.5632v0.3251c-14.6193,4.5482-22.416,18.8425-31.1876,30.2129
		c-12.9948,21.7664-21.1166,48.7306-43.5326,63.3498C1078.5913,811.0359,1055.2007,803.5638,1036.0333,795.767z"/>
	<path opacity="0.96" fill="#010202" enable-background="new    " d="M644.8569,1042.2823
		c15.3434-11.1094,33.2742-20.3362,53.0585-20.5049c15.3902-0.6326,30.4786,3.4103,45.0045,7.7781
		c-11.2336,1.9843-23.2795,2.5618-33.0831,8.972c-14.5865,9.1719-26.0866,23.6891-42.9908,28.197
		c-9.2961,2.7411-15.1002-6.6622-21.0869-11.8337c-7.3788,8.0114-14.595,16.3041-21.4865,25.1595
		c-4.8381-0.5828-9.2324-1.0469-13.908-1.3484c4.5505-18.7577,10.8209-40.384,0.1437-58.2278
		c-10.4277-16.1121-30.2789-21.9069-47.9866-25.9382c-19.6017-4.0631-39.0847-8.57-58.5675-13.077
		c-6.952,22.395-14.6291,44.8335-21.1374,67.3475c-4.3997,16.4199-6.45,35.6097,4.4534,49.9468
		c11.6285,14.2933,30.6675,18.6814,47.4558,24.369c-1.7953,4.0375-4.0344,7.9561-5.8298,11.9937
		c-11.1147,1.5404-22.1859,3.8059-33.0946,6.3529c1.1603,7.2076,6.6396,16.0483,1.0679,22.6414
		c-14.595,16.3041-39.3364,16.3336-55.5122,30.5494c-5.3774,4.9803-10.1051,11.0859-14.9952,16.9104
		c3.6629-18.9956,10.2263-38.1652,23.1768-52.7695c9.4988-11.4863,23.047-18.558,36.6386-24.9047
		c-16.1736-12.4197-33.8526-28.0964-33.5891-50.3811c0.9218-28.2916,22.3445-49.6631,34.2852-73.813
		c6.8362-12.1998,9.6349-26.1947,10.9833-40.1027l0.2816-0.1625c11.2484,10.3865,27.5261,9.9916,41.7589,11.9028
		c25.3477,0.3706,52.7602-6.0778,76.6288,6.0254C636.8013,997.7916,642.0256,1021.7844,644.8569,1042.2823z"/>
	<path opacity="0.96" fill="#010202" enable-background="new    " d="M1053.9337,1257.7933
		c-17.2926-7.733-34.2487-18.6482-44.287-35.6976c-8.243-13.012-12.2859-28.1003-15.7661-42.864
		c7.3351,8.7365,13.8583,18.8798,24.3115,24.1647c15.2363,8.0464,33.5587,10.7472,45.9146,23.1327
		c7.022,6.6801,1.7805,16.4082,0.2953,24.1786c10.6274,2.3845,21.4172,4.4877,32.532,6.0281
		c1.9143,4.4813,3.7096,8.5189,5.7863,12.7189c-18.52,5.438-40.384,10.8209-50.4985,28.9895
		c-8.7396,17.0867-3.8325,37.1757,1.53,54.5267c6.2822,19.0071,12.1205,38.1333,17.9587,57.2594
		c22.8706-5.1769,46.1416-9.7477,68.8934-15.3683c16.4199-4.3997,34.0638-12.219,41.0283-28.8301
		c6.5642-17.2173,0.8448-35.8995-2.6237-53.2825c4.3942-0.464,8.9073-0.4843,13.3018-0.9481
		c6.8914,8.8553,14.389,17.3105,22.0491,25.4843c5.6619-4.6086,10.5785-13.7742,19.0741-12.2455
		c21.4172,4.4877,33.8135,25.8995,54.2126,32.8003c7.0018,2.1669,14.6532,3.2083,22.1423,4.5311
		c-18.2821,6.3256-38.165,10.2263-57.2881,6.3131c-14.6969-2.4832-27.5952-10.6804-39.8873-19.2777
		c-2.6689,20.2166-7.406,43.3654-26.8368,54.2797c-24.9622,13.3474-54.1818,5.4806-81.0665,7.2145
		c-13.9834,0.1796-27.5028,4.7533-40.2217,10.5396l-0.2815-0.1625c3.3707-14.9347-5.1101-28.8341-10.5714-42.1157
		c-12.3528-22.1371-31.6436-42.6528-33.0962-69.3752C1019.4315,1287.0151,1037.5978,1270.4943,1053.9337,1257.7933z"/>
	<path opacity="0.96" fill="#010202" enable-background="new    " d="M899.2629,729.1683c11.6954-14.2943,11.3705-37.3601,0-51.6544
		c-9.7461-9.4212-24.3653-3.2487-34.1113,2.9239c5.8476,2.5989,14.9439,2.5989,18.1927,9.4213
		c3.5735,9.4212,3.5735,20.142-0.6497,29.2383c-3.5736,6.4974-11.6954,5.5226-17.8679,7.4719
		C874.2479,734.3663,889.5168,739.2394,899.2629,729.1683z"/>
	<path opacity="0.96" fill="#010202" enable-background="new    " d="M655.566,1194.0283
		c-18.2269-2.9813-38.04,8.8329-44.7339,25.8271c-3.2859,13.1509,9.3691,22.7253,19.5878,28.0793
		c-0.6731-6.3636-5.2213-14.2413-0.9373-20.4659c6.3722-7.8054,15.6567-13.1659,25.646-14.0565
		c7.4136-0.1538,10.6304,7.3672,15.4048,11.738C672.5751,1213.0929,669.1608,1197.4331,655.566,1194.0283z"/>
	<path opacity="0.96" fill="#010202" enable-background="new    " d="M1179.995,1172.646
		c6.5315,17.2756,26.6696,28.5272,44.734,25.8271c13.032-3.7297,14.9961-19.4766,14.5236-31.0032
		c-5.1746,3.7646-9.7227,11.6423-17.2555,11.0447c-9.9458-1.6158-19.2302-6.9762-24.9962-15.1819
		c-3.8401-6.3435,1.0649-12.8898,2.463-19.21C1188.001,1148.3834,1176.1464,1159.1702,1179.995,1172.646z"/>
	<path opacity="0.96" fill="#010202" enable-background="new    " d="M923.9531,729.1683
		c-11.6953-14.2943-11.3705-37.3601,0-51.6544c9.7461-9.4212,24.3653-3.2487,34.1114,2.9239
		c-5.8477,2.5989-14.944,2.5989-18.1927,9.4213c-3.5736,9.4212-3.5736,20.142,0.6497,29.2383
		c3.5735,6.4974,11.6953,5.5226,17.8678,7.4719C948.9681,734.3663,933.6992,739.2394,923.9531,729.1683z"/>
	<path opacity="0.96" fill="#010202" enable-background="new    " d="M643.2209,1172.646
		c-6.5315,17.2756-26.6695,28.5272-44.7339,25.8271c-13.032-3.7297-14.9961-19.4766-14.5235-31.0032
		c5.1745,3.7646,9.7227,11.6423,17.2554,11.0447c9.9458-1.6158,19.2302-6.9762,24.9963-15.1819
		c3.84-6.3435-1.0649-12.8898-2.4631-19.21C635.2151,1148.3834,647.0697,1159.1702,643.2209,1172.646z"/>
	<path opacity="0.96" fill="#010202" enable-background="new    " d="M1167.65,1194.0283
		c18.2268-2.9813,38.0399,8.8329,44.7339,25.8271c3.286,13.1509-9.3691,22.7253-19.5878,28.0793
		c0.6731-6.3636,5.2212-14.2413,0.9373-20.4659c-6.3723-7.8054-15.6567-13.1659-25.646-14.0565
		c-7.4137-0.1538-10.6305,7.3672-15.4048,11.738C1150.6409,1213.0929,1154.0552,1197.4331,1167.65,1194.0283z"/>
	<path opacity="0.96" fill="#010202" enable-background="new    " d="M830.7154,734.3663
		c14.2942-9.7462,30.5377-16.5684,48.0807-18.5177c1.6243-4.873,1.2994-8.7716-0.9745-11.3705
		c-20.4669-0.3248-39.6342,9.7462-54.9031,22.741C824.8676,728.8434,828.4412,732.4171,830.7154,734.3663z"/>
	<path opacity="0.96" fill="#010202" enable-background="new    " d="M694.3414,1250.7932
		c-15.5876-7.5061-29.6175-18.1622-40.0771-32.3802c-5.0323,1.0298-8.2462,3.2604-9.3598,6.5292
		c9.9521,17.8873,28.2575,29.4512,47.1458,36.177C692.4824,1258.6189,693.7904,1253.7373,694.3414,1250.7932z"/>
	<path opacity="0.96" fill="#010202" enable-background="new    " d="M1209.7672,1110.6831
		c1.2933,17.2522-0.9203,34.7306-8.0035,50.8979c3.408,3.8431,6.9467,5.5111,10.3344,4.8412
		c10.5148-17.5624,11.3767-39.1973,7.7573-58.9178C1217.474,1108.3802,1212.5924,1109.6882,1209.7672,1110.6831z"/>
	<path opacity="0.96" fill="#010202" enable-background="new    " d="M992.5007,734.3663
		c-14.2943-9.7462-30.5378-16.5684-48.0807-18.5177c-1.6243-4.873-1.2994-8.7716,0.9746-11.3705
		c20.4668-0.3248,39.6342,9.7462,54.903,22.741C998.3484,728.8434,994.7748,732.4171,992.5007,734.3663z"/>
	<path opacity="0.96" fill="#010202" enable-background="new    " d="M613.4488,1110.6831
		c-1.2933,17.2522,0.9202,34.7306,8.0036,50.8979c-3.408,3.8431-6.9467,5.5111-10.3344,4.8412
		c-10.5148-17.5624-11.3767-39.1973-7.7573-58.9178C605.742,1108.3802,610.6236,1109.6882,613.4488,1110.6831z"/>
	<path opacity="0.96" fill="#010202" enable-background="new    " d="M1128.8746,1250.7932
		c15.5875-7.5061,29.6174-18.1622,40.077-32.3802c5.0323,1.0298,8.2462,3.2604,9.3599,6.5292
		c-9.952,17.8873-28.2576,29.4512-47.1458,36.177C1130.7336,1258.6189,1129.4257,1253.7373,1128.8746,1250.7932z"/>
	<path opacity="0.96" fill="#010202" enable-background="new    " d="M911.608,828.3907
		c-11.4673-1.0994-22.6942,2.6347-28.5886,13.1825c7.1472,5.198,14.2943,10.7209,17.2181,19.1674
		c5.2176,14.425,6.0859,30.0099,11.3705,44.2892c5.2846-14.2792,6.1528-29.8641,11.3705-44.2892
		c2.9238-8.4465,10.0709-13.9694,17.2181-19.1674C934.3021,831.0254,923.0753,827.2913,911.608,828.3907z"/>
	<path opacity="0.96" fill="#010202" enable-background="new    " d="M1087.8934,1133.726
		c6.6857-9.3812,9.0653-20.9711,2.8779-31.3497c-8.0752,3.5907-16.4318,7.0188-25.2085,5.3276
		c-15.1013-2.6938-29.0323-9.7344-44.0408-12.2975c9.7238,11.7163,22.7867,20.2606,32.6703,31.9918
		c5.8529,6.7554,7.0624,15.7063,7.9904,24.495C1074.2646,1152.0624,1083.1119,1144.2065,1087.8934,1133.726z"/>
	<path opacity="0.96" fill="#010202" enable-background="new    " d="M735.3226,1133.726
		c4.7815,10.4806,13.6287,18.3364,25.7106,18.1672c0.928-8.7887,2.1375-17.7396,7.9904-24.495
		c9.8836-11.7312,22.9465-20.2755,32.6703-31.9918c-15.0085,2.5631-28.9396,9.6036-44.0408,12.2975
		c-8.7769,1.6912-17.1333-1.7369-25.2085-5.3276C726.2573,1112.7549,728.6369,1124.3447,735.3226,1133.726z"/>
	<path opacity="0.96" fill="#010202" enable-background="new    " d="M911.608,916.5759
		c-11.5158,23.5719-25.3597,46.1234-44.1824,64.6917c16.6151-4.8333,32.3874-13.5995,44.1824-26.2985
		c11.795,12.699,27.5673,21.4652,44.1824,26.2985C936.9677,962.6993,923.1238,940.1478,911.608,916.5759z"/>
	<path opacity="0.96" fill="#010202" enable-background="new    " d="M1011.5228,1089.6333
		c-14.656-21.7589-27.2642-45.0237-33.9334-70.6088c-4.1218,16.8057-4.4162,34.848,0.684,51.4123
		c-16.8953,3.8652-32.3731,13.1414-44.8664,25.1139C958.8989,1088.5338,985.351,1087.8203,1011.5228,1089.6333z"/>
	<path opacity="0.96" fill="#010202" enable-background="new    " d="M811.6932,1089.6333
		c26.1718-1.813,52.6238-1.0995,78.1158,5.9174c-12.4933-11.9725-27.9712-21.2487-44.8664-25.1139
		c5.1002-16.5643,4.8057-34.6066,0.684-51.4123C838.9574,1044.6096,826.3492,1067.8744,811.6932,1089.6333z"/>
	<path opacity="0.96" fill="#010202" enable-background="new    " d="M911.608,993.4618
		c-12.9077-3.9182-26.632-5.2814-40.284-3.7475c14.3344,5.9111,27.6605,13.7044,40.284,22.5848
		c12.6235-8.8804,25.9495-16.6737,40.2839-22.5848C938.2401,988.1804,924.5157,989.5436,911.608,993.4618z"/>
	<path opacity="0.96" fill="#010202" enable-background="new    " d="M944.9376,1051.1904
		c9.8471-9.2192,17.8898-20.4233,23.3874-33.0132c-12.2864,9.4584-25.6985,17.1024-39.701,23.5945
		c1.3789,15.3726,1.4651,30.8098-0.5829,46.1793C936.1954,1076.8951,941.8771,1064.3279,944.9376,1051.1904z"/>
	<path opacity="0.96" fill="#010202" enable-background="new    " d="M878.2784,1051.1904
		c3.0605,13.1375,8.7422,25.7047,16.8965,36.7606c-2.048-15.3695-1.9619-30.8068-0.5829-46.1793
		c-14.0025-6.4921-27.4147-14.1361-39.701-23.5945C860.3885,1030.7671,868.4313,1041.9712,878.2784,1051.1904z"/>
	<path opacity="0.96" fill="#010202" enable-background="new    " d="M941.889,1014.4648
		c9.8844-3.026,19.2944-7.8656,26.1685-15.1084C958.348,1001.6882,949.4518,1007.4176,941.889,1014.4648z M911.608,1066.9131
		c-2.3217,10.0731-2.8354,20.6422,0,30.2168C914.4434,1087.5553,913.9296,1076.9862,911.608,1066.9131z M881.327,1014.4648
		c-7.5628-7.0472-16.4589-12.7766-26.1685-15.1084C862.0326,1006.5992,871.4426,1011.4388,881.327,1014.4648z M911.608,1031.9475
		c-1.8503-5.5509-6.4327-6.6783-11.2772-6.5109C902.6081,1029.7158,905.8757,1033.1206,911.608,1031.9475
		c-3.8821,4.3779-2.5673,8.91,0,13.0219C914.1753,1040.8575,915.4901,1036.3254,911.608,1031.9475
		c5.7324,1.1731,8.9999-2.2317,11.2772-6.5109C918.0406,1025.2692,913.4583,1026.3966,911.608,1031.9475z"/>
	<path opacity="0.96" fill="#010202" enable-background="new    " d="M877.4966,701.2294c0.6497-1.9492,2.274-5.8476,2.9238-7.7968
		c-17.543-3.2488-34.7611-8.7716-49.3803-19.4923c-2.5989,2.5989-5.5228,4.873-8.1216,7.4719
		c10.7206,8.1218,22.0911,16.2435,35.7357,19.8171C864.8266,702.204,871.9738,705.4528,877.4966,701.2294z"/>
	<path opacity="0.96" fill="#010202" enable-background="new    " d="M642.2534,1226.8479
		c-2.0129,0.4119-6.2012,0.9545-8.2141,1.3663c5.958,16.817,9.7841,34.4897,7.8094,52.5107
		c3.5501,0.9513,6.9815,2.3463,10.5317,3.2976c1.6733-13.3452,3.0217-27.2533-0.7057-40.8566
		C649.4324,1237.3331,648.6724,1229.5192,642.2534,1226.8479z"/>
	<path opacity="0.96" fill="#010202" enable-background="new    " d="M1215.074,1167.7653
		c1.3632,1.5374,3.9271,4.8932,5.2903,6.4304c11.585-13.5682,24.9771-25.7181,41.5709-33.0184
		c-0.9512-3.5502-1.4587-7.2194-2.41-10.7695c-12.3939,5.2235-25.1128,11.0098-35.0299,21.0394
		C1220.5649,1156.3054,1214.1779,1160.8707,1215.074,1167.7653z"/>
	<path opacity="0.96" fill="#010202" enable-background="new    " d="M945.7194,701.2294c-0.6497-1.9492-2.274-5.8476-2.9238-7.7968
		c17.543-3.2488,34.7611-8.7716,49.3803-19.4923c2.5989,2.5989,5.5228,4.873,8.1216,7.4719
		c-10.7206,8.1218-22.0911,16.2435-35.7357,19.8171C958.3894,702.204,951.2422,705.4528,945.7194,701.2294z"/>
	<path opacity="0.96" fill="#010202" enable-background="new    " d="M608.142,1167.7653
		c-1.3632,1.5374-3.9271,4.8932-5.2903,6.4304c-11.585-13.5682-24.9769-25.7181-41.5709-33.0184
		c0.9513-3.5502,1.4588-7.2194,2.4101-10.7695c12.394,5.2235,25.1129,11.0098,35.0299,21.0394
		C602.6511,1156.3054,609.0381,1160.8707,608.142,1167.7653z"/>
	<path opacity="0.96" fill="#010202" enable-background="new    " d="M1180.9626,1226.8479
		c2.0128,0.4119,6.2012,0.9545,8.2141,1.3663c-5.958,16.817-9.7842,34.4897-7.8094,52.5107
		c-3.5502,0.9513-6.9816,2.3463-10.5316,3.2976c-1.6733-13.3452-3.0217-27.2533,0.7057-40.8566
		C1173.7836,1237.3331,1174.5437,1229.5192,1180.9626,1226.8479z"/>
</g>
</svg>
