<?xml version="1.0"?>
<svg xmlns:rdf="http://www.w3.org/1999/02/22-rdf-syntax-ns#" xmlns="http://www.w3.org/2000/svg" xmlns:cc="http://creativecommons.org/ns#" xmlns:dc="http://purl.org/dc/elements/1.1/" xmlns:svg="http://www.w3.org/2000/svg" id="svg2" viewBox="0 0 444.18 503.45" version="1.0">
  <path id="path2311" d="m168.4 502.94c-1.15-0.28-2.87-0.6-3.81-0.73-0.94-0.12-2.25-0.45-2.9-0.74-2.96-1.28-11.91-3.49-14.15-3.49-1.73 0-2.34-0.39-2.1-1.31 0.1-0.4-0.34-1.01-1.75-2.44-1.03-1.05-2.39-2.56-3-3.36-0.62-0.8-2.04-2.55-3.16-3.91-1.12-1.35-2.4-2.89-2.83-3.42-0.44-0.52-1.62-1.92-2.64-3.09-1.93-2.23-2.17-2.52-4.08-4.85-2.14-2.63-2.98-3.55-3.63-3.99-0.36-0.24-0.9-0.85-1.21-1.35-0.55-0.91-2.73-3.71-5.87-7.55-0.9-1.09-2.83-3.47-4.3-5.28-1.46-1.81-3.24-4.01-3.95-4.89s-1.57-1.97-1.9-2.43c-0.33-0.45-2.2-2.74-4.15-5.07-5.436-6.48-5.734-6.84-7.277-8.75-0.792-0.97-1.566-1.77-1.72-1.77s-0.619 0.28-1.033 0.63c-1.644 1.38-3.728 1.08-5.122-0.75-0.596-0.78-0.666-1.06-0.514-2.08 0.181-1.21 0.984-2.81 1.409-2.81 0.479 0 0.563-0.87 0.129-1.35-0.598-0.66-0.81-0.62-1.586 0.3-0.555 0.66-0.858 0.79-1.835 0.79-2.1 0-4.054-1.32-4.046-2.74 0.004-0.71 1.185-2.78 1.853-3.25 0.564-0.4 0.703-1.38 0.194-1.38-0.175 0-0.56 0.29-0.856 0.66-0.723 0.89-3.304 1.2-4.561 0.55-1.043-0.54-1.274-0.97-1.506-2.84l-0.186-1.49 1.072-0.71c1.777-1.18 1.759-2.12-0.07-3.74-0.622-0.54-1.318-1.35-1.547-1.78-0.229-0.44-1.167-1.56-2.086-2.5-0.918-0.95-1.952-2.12-2.298-2.61-0.346-0.48-1.142-1.11-1.769-1.39-1.243-0.55-1.721-1.17-1.514-1.96 0.181-0.69-1.317-2.73-2.005-2.73-0.773 0-1.578-0.94-1.578-1.85 0-0.92-2.261-3.76-3.673-4.61-1.37-0.82-2.384-1.88-2.384-2.49 0-0.51-2.307-3.46-11.281-14.45-5.952-7.29-7.839-9.61-8.469-10.44-2.117-2.79-6.631-8.05-7.243-8.45-0.327-0.22-1.02-1.07-1.539-1.9-0.52-0.83-1.66-2.27-2.533-3.21-0.874-0.93-1.589-1.79-1.589-1.9s-0.785-1.06-1.744-2.11c-2.188-2.41-2.828-3.74-2.585-5.36 0.282-1.88 0.65-2.14 4.329-3.02 1.811-0.43 4.181-1.03 5.267-1.34 4.448-1.25 11.03-2.8 14.879-3.5 2.537-0.46 3.08-0.65 2.953-1.04-0.289-0.89-14.604-11.88-16.761-12.87-1.057-0.48-2.139-1.25-6.216-4.38-1.449-1.12-3.856-3.65-4.392-4.62-1.549-2.81-1.514-2.69-2.331-8.06-0.165-1.08-0.406-2.31-0.536-2.73s-0.239-1.31-0.243-1.98-0.238-2.22-0.52-3.45-0.516-2.79-0.52-3.47c-0.005-0.92-0.311-1.86-1.192-3.67-0.708-1.45-1.185-2.8-1.185-3.35 0-1.34 0.977-4.39 1.678-5.23 1.491-1.81 2.59-3.79 3.174-5.74 0.667-2.23 1.205-5.7 1.205-7.78 0-1.36 1.866-12.81 2.527-15.5 0.227-0.93 0.506-2.23 0.619-2.9 0.607-3.58 4.918-18.33 5.932-20.29 0.208-0.4 0.799-2.12 1.314-3.81 0.514-1.7 1.073-3.35 1.242-3.66 1.182-2.2 7.062-19.25 7.191-20.85 0.058-0.72 0.187-2.01 0.286-2.85 0.107-0.91 0.046-2.32-0.15-3.47-0.33-1.92-0.326-1.95 0.468-3.6 0.797-1.66 1.466-2.64 4.33-6.35 1.879-2.43 2.228-3.69 2.257-8.09 0.022-3.46 0.587-7.71 1.27-9.57 1.404-3.81 1.899-4.95 2.773-6.4 0.539-0.89 1.238-2.14 1.555-2.77 0.316-0.63 1.045-1.84 1.619-2.68 0.575-0.85 1.265-2.06 1.534-2.69s1.118-1.83 1.887-2.68c0.769-0.84 1.695-1.92 2.058-2.4 0.493-0.66 0.958-0.93 1.843-1.1 2.187-0.43 3.116-0.31 4.344 0.53 1.298 0.9 1.654 0.94 3.151 0.43 0.585-0.21 2.307-0.5 3.828-0.66 3.114-0.32 6.7-1.41 8.724-2.66 0.71-0.44 1.364-0.79 1.453-0.79 0.09 0 0.947-0.4 1.906-0.89 0.958-0.48 3.342-1.48 5.297-2.22 2.802-1.05 4.224-1.42 6.715-1.75 5.02-0.67 7.54-1.19 8.95-1.84 0.73-0.34 3.04-1.45 5.14-2.48 2.1-1.02 4.59-2.12 5.53-2.43 0.94-0.32 2.95-1.13 4.48-1.81 1.52-0.68 3.11-1.35 3.54-1.49 0.68-0.21 1.11-0.9 3.61-5.9 1.61-3.22 3.28-6.18 3.88-6.87 1.17-1.37 2.59-2.15 3.66-2.03 0.98 0.11 1.1 1.04 0.21 1.62-1.52 1-2.64 2.58-3.47 4.89-0.99 2.78-4.06 8.28-7.14 12.8-0.47 0.68-1.05 1.79-1.29 2.46-0.25 0.67-1.07 2.64-1.83 4.38-1.39 3.15-2.01 4.74-3.15 8.07-0.33 0.97-1.11 2.63-1.72 3.69-0.62 1.07-1.6 2.77-2.18 3.78-0.57 1.01-1.4 2.35-1.83 2.98-0.43 0.62-0.7 1.21-0.61 1.3s0.61 0.01 1.15-0.19c1-0.36 7.3-3.36 8.48-4.04 0.36-0.21 1.79-0.93 3.16-1.6 1.57-0.77 3.32-1.91 4.7-3.07 2.19-1.85 5.85-3.91 8.19-4.62 0.66-0.2 1.85-0.37 2.65-0.37 1.71 0 2.79 0.58 4.38 2.37 2.03 2.28 2.51 3.06 2.42 4-0.08 0.8-0.16 0.88-1.09 0.95-0.95 0.08-1.12-0.03-2.9-1.89-2.67-2.8-3.67-3.04-6.23-1.51-0.66 0.39-1.76 0.93-2.47 1.19-0.7 0.27-1.66 0.82-2.14 1.24-0.47 0.42-0.95 0.76-1.05 0.76s-0.72 0.46-1.36 1.03c-1.13 1-5.04 3.17-6.41 3.58-0.37 0.1-0.9 0.4-1.19 0.66-0.46 0.42-5.9 2.89-6.35 2.89-0.35 0-3.43 1.45-4.35 2.04-0.67 0.44-1.66 0.71-3.33 0.92-2.11 0.27-2.44 0.25-3.06-0.15-0.8-0.52-0.87-1.07-0.22-1.61 1.97-1.63 5.31-5.03 6.2-6.33 1.62-2.36 5.32-9.8 5.7-11.46 0.18-0.8 0.55-1.82 0.8-2.27 0.26-0.45 0.56-1.21 0.66-1.69 0.11-0.47 0.59-1.7 1.08-2.72 0.49-1.03 0.9-2.01 0.9-2.19s0.19-0.75 0.44-1.26c0.24-0.51 0.38-0.98 0.3-1.06-0.07-0.07-1.13 0.23-2.35 0.68s-2.7 0.98-3.3 1.17-1.96 0.85-3.03 1.46c-2.94 1.69-4.84 2.58-6.77 3.17-0.96 0.3-2.51 0.77-3.42 1.05-0.92 0.28-2.64 0.57-3.823 0.63-1.181 0.07-2.739 0.24-3.464 0.39-0.724 0.15-1.931 0.38-2.683 0.52-0.752 0.13-1.641 0.42-1.975 0.63-0.335 0.22-1.26 0.58-2.057 0.8-0.796 0.23-2.159 0.77-3.028 1.2-4.932 2.42-7.794 3.7-8.283 3.7-0.305 0-1.765 0.41-3.245 0.91-1.481 0.5-3.047 0.95-3.48 0.99-0.512 0.05-0.819 0.25-0.878 0.56-0.05 0.26 0.63 1.94 1.512 3.73 0.881 1.79 1.602 3.39 1.602 3.55s0.238 0.76 0.528 1.33 0.689 1.72 0.886 2.57c0.197 0.84 0.615 2.11 0.929 2.82 1.103 2.5 2.116 5.92 2.384 8.05 0.148 1.19 0.444 2.76 0.656 3.51 0.213 0.74 0.702 2.65 1.088 4.24s0.815 3.19 0.954 3.56c0.438 1.14 1.224 6.59 1.416 9.81 0.179 3.01 0.202 3.1 0.741 2.91 0.783-0.26 1.687-0.19 2.128 0.17 0.206 0.18 0.51 0.97 0.676 1.76 0.392 1.89 0.563 13.79 0.222 15.5-0.179 0.9-0.15 4.36 0.09 10.93 0.253 6.9 0.282 11.17 0.102 15.14-0.137 3.04-0.246 6.6-0.242 7.9 0.009 2.7 0.667 7.49 1.429 10.4 0.284 1.09 0.691 3.4 0.905 5.14s0.617 3.87 0.895 4.74c0.279 0.87 0.644 2.75 0.812 4.19 0.167 1.44 0.407 2.89 0.533 3.22 0.186 0.49 0.538 6.01 0.56 8.78 0.024 2.98-0.141 6.27-0.331 6.62-0.359 0.67-1.514 0.85-2.28 0.35-0.542-0.36-0.703-0.37-0.881-0.09-0.326 0.53-0.57 2.25-0.396 2.8 0.089 0.28 1.339 1.09 2.975 1.92 2.454 1.25 3.22 1.82 5.874 4.37 1.679 1.61 3.46 3.14 3.958 3.4 0.501 0.25 1.661 1.19 2.581 2.07 1.69 1.63 3.36 2.88 7.41 5.59 1.23 0.82 2.54 1.76 2.9 2.1 0.85 0.77 6.3 3.92 7.46 4.3 0.56 0.19 1.12 0.21 1.52 0.06 0.59-0.22 2.52-0.56 8.4-1.51 4.9-0.8 9.93-1.74 13.96-2.61 2.24-0.49 5.03-1.07 6.18-1.29 1.16-0.22 3.45-0.65 5.08-0.96s4.49-0.72 6.35-0.9c1.86-0.19 3.51-0.41 3.66-0.51 0.15-0.09 0.96-0.27 1.81-0.4s3.61-0.65 6.15-1.16c2.53-0.5 5.85-1.06 7.37-1.23 3.32-0.37 5.6-0.76 12.38-2.11 2.82-0.56 6.08-1.15 7.24-1.31 4.27-0.61 10.59-1.62 12.45-2 1.05-0.21 2.32-0.38 2.81-0.38 0.69 0 1.12-0.23 1.9-1.03 0.56-0.57 1.5-1.37 2.1-1.78 0.59-0.41 2.37-1.75 3.94-2.98 3.5-2.74 5.07-3.91 6.95-5.18 0.8-0.54 1.77-1.27 2.16-1.63 0.39-0.35 2.01-1.6 3.6-2.78 4.92-3.63 6.94-5.21 8.99-7.01 2.27-1.99 4.63-3.89 9.03-7.24 1.71-1.3 3.56-2.72 4.11-3.16 0.55-0.43 2.12-1.64 3.48-2.68 1.36-1.05 3.08-2.41 3.83-3.03s2.34-1.9 3.53-2.84c1.18-0.95 3.95-3.14 6.14-4.88 4.43-3.5 6.46-5.07 8.33-6.45 0.69-0.5 2.78-2.1 4.63-3.55 1.86-1.45 3.88-2.99 4.49-3.43 0.61-0.43 1.91-1.47 2.89-2.3 0.97-0.83 2.61-2.06 3.64-2.74 1.02-0.68 2.34-1.66 2.92-2.18 1.36-1.2 4.5-3.71 9.14-7.29 1.77-1.37 2.57-2.16 2.57-2.53 0-0.57-1.12-4.23-1.74-5.68-0.52-1.22-0.47-1.56 0.45-3 0.95-1.48 3.46-3.48 4.83-3.86 0.52-0.15 1.31-0.57 1.75-0.94 0.44-0.38 0.93-0.68 1.09-0.68s1.09 0.81 2.07 1.81c2.17 2.21 2.81 2.42 4.29 1.46 2.05-1.33 9.18-6.85 11.52-8.91 0.67-0.59 2.48-1.97 4.02-3.05 1.54-1.09 3.32-2.39 3.95-2.9 2.71-2.19 4.2-3.34 7.8-6 2.1-1.56 5.06-3.81 6.58-5s3.3-2.43 3.95-2.75c0.89-0.45 1.21-0.77 1.27-1.29 0.05-0.5 0.85-1.38 2.86-3.16 3.56-3.15 5.69-5.13 8.21-7.61 1.11-1.09 3.54-3.4 5.4-5.14 5-4.65 4.3-3.97 24.12-23.29 3-2.93 4.79-4.48 5.15-4.48 0.62 0 1.51 0.89 2.56 2.54 0.38 0.59 1.43 1.72 2.33 2.5 1.68 1.44 3.67 3.27 8.14 7.47 4.82 4.52 8.31 7.66 11.65 10.49 1.85 1.56 3.52 3.07 3.71 3.35 0.2 0.28 1.25 1.26 2.34 2.19l1.98 1.7-0.07 2.32c-0.15 4.81-0.61 5.88-2.51 5.88-0.58 0-1.55 0.26-2.16 0.57s-2.11 0.9-3.32 1.31-2.34 0.85-2.5 0.99c-0.91 0.73-12.32 5.12-19.52 7.52-1.88 0.62-4.08 1.43-4.87 1.78-0.8 0.36-1.81 0.74-2.24 0.84-0.44 0.11-1.56 0.54-2.5 0.96s-3.14 1.3-4.87 1.97c-5.22 2-5.49 2.12-5.59 2.4-0.05 0.15 0.22 0.41 0.59 0.58 0.89 0.4 1.79 2.38 1.54 3.39-0.34 1.43-0.85 2.07-2.64 3.28-1.54 1.05-2.06 1.25-3.55 1.41-2.29 0.24-3.23 0.01-4.47-1.11-0.95-0.86-1.03-1.03-1.03-2.35 0-1.29-0.05-1.41-0.59-1.41-0.32 0-1.42 0.29-2.43 0.65-1.02 0.36-2.18 0.65-2.59 0.66-0.41 0-1 0.14-1.32 0.3-0.85 0.45-4.88 3.64-5.96 4.72-0.51 0.52-1.32 1.21-1.79 1.54-0.47 0.32-1.04 0.93-1.25 1.35-0.37 0.71-0.35 0.77 0.3 1.29 0.38 0.3 1.02 0.55 1.42 0.55 0.55 0 1.05 0.34 1.98 1.38 1.71 1.9 1.98 2.59 1.57 4.12-0.36 1.38-1.38 3.49-1.81 3.77-0.48 0.31-0.66 0.24-1.09-0.42-0.38-0.58-0.37-0.74 0.12-1.99 0.67-1.67 0.7-3.21 0.08-3.91-0.66-0.75-2.7-1.35-5.6-1.64-1.37-0.14-3.65-0.39-5.06-0.55-2.75-0.32-6.2-0.13-6.91 0.38-0.26 0.19-0.44 0.76-0.48 1.47l-0.05 1.15 2.89 0.71c1.59 0.38 3.73 0.95 4.74 1.27 1.02 0.31 3.03 0.88 4.48 1.26 2.8 0.74 3.82 1.22 3.82 1.78s0.81 1.12 2.33 1.61c1.78 0.59 3.11 1.75 3.89 3.43 0.99 2.12 0.86 3.07-0.66 4.69-0.7 0.75-1.47 1.74-1.71 2.2-0.68 1.34-1.71 2.01-2.87 1.85-0.54-0.07-0.98-0.02-0.98 0.12 0 0.13 0.29 0.83 0.66 1.54 0.74 1.48 0.82 2.35 0.28 3.39-0.63 1.22-2.6 2.84-3.7 3.04-1.24 0.24-3.67 1.55-4.79 2.59-0.83 0.78-1.13 1.58-1.69 4.54-0.28 1.51-0.39 1.68-2.44 3.62-1.93 1.83-2.25 2.04-3.2 2.04-1.38 0.01-3.42 0.57-5.23 1.42-0.8 0.38-1.75 0.69-2.11 0.69s-0.98 0.13-1.38 0.28l-0.71 0.27 0.76 0.8c0.72 0.75 0.77 0.91 0.72 2.82-0.09 3.22-2.23 11.93-3.25 13.21-0.29 0.37-0.85 1.14-1.24 1.71-0.39 0.58-1.17 1.59-1.73 2.24s-1.18 1.56-1.37 2.02c-0.19 0.47-0.69 1.02-1.1 1.24-0.96 0.51-2.35 1.85-6.43 6.22-4.39 4.71-5.91 6.45-6.97 8.04-1.65 2.44-1.79 2.63-2.63 3.55-0.86 0.94-5.38 9.91-5.38 10.67 0 0.57-0.98 2.42-1.41 2.68-0.2 0.12-0.56 0.6-0.8 1.06-0.71 1.38-4.1 5.06-5.17 5.61-0.85 0.43-2.99 1.21-10.93 3.99-0.87 0.3-2.12 0.82-2.78 1.15s-1.64 0.69-2.19 0.79c-0.54 0.1-1.36 0.53-1.82 0.94-0.76 0.7-0.99 0.76-2.88 0.76-4.84 0-14.66-4.2-20.23-8.64-1.23-0.98-2.78-2.16-3.44-2.61-1.68-1.16-2.79-2.51-3.14-3.82-0.17-0.62-0.41-1.4-0.55-1.74-0.13-0.34-0.53-1.82-0.89-3.29-0.87-3.62-1.81-6.08-2.35-6.19-0.24-0.05-0.86 0.25-1.38 0.66-0.51 0.41-1.33 1.04-1.8 1.4-0.48 0.37-2.39 1.86-4.25 3.31-1.86 1.46-3.82 2.95-4.35 3.3-1.23 0.83-7.33 6.72-7.33 7.08 0 0.15-0.22 0.95-0.49 1.78-0.28 0.84-0.69 2.47-0.91 3.63-0.23 1.15-0.61 3.11-0.86 4.34-0.24 1.23-0.71 3.13-1.04 4.21-0.74 2.41-1.29 4.75-1.71 7.38-0.17 1.08-0.76 3.34-1.31 5-0.55 1.67-1.07 3.56-1.17 4.21-0.1 0.66-0.52 2.32-0.94 3.69-0.41 1.38-0.93 3.21-1.15 4.08-0.21 0.87-0.8 2.95-1.31 4.61-1.49 4.9-3.25 11.08-3.6 12.64-0.64 2.84-3.11 11.75-3.8 13.7-0.39 1.08-0.87 2.56-1.07 3.29-0.99 3.55-2.91 9.48-4.11 12.71-0.74 1.99-1.62 4.56-1.96 5.72-0.33 1.16-2.11 6.49-3.94 11.85-1.84 5.36-3.49 10.34-3.67 11.06-0.19 0.73-0.53 1.67-0.77 2.11-0.83 1.51-2.2 4.75-2.79 6.58-0.33 1.02-0.92 2.68-1.32 3.7-0.4 1.03-0.93 2.57-1.18 3.43s-1.25 3.34-2.23 5.51-1.99 4.6-2.25 5.4-0.69 1.89-0.96 2.43c-0.28 0.55-0.74 2.01-1.04 3.26s-0.83 2.71-1.18 3.24-0.81 1.57-1.03 2.3c-0.22 0.74-0.57 1.49-0.78 1.66-0.21 0.18-0.52 0.75-0.69 1.29-0.17 0.53-1.22 2.86-2.35 5.18-1.12 2.31-2.72 5.75-3.56 7.63-2.01 4.52-3.66 7.84-4.79 9.61-0.5 0.8-1.65 2.75-2.54 4.34-2.39 4.26-3.05 4.57-7.42 3.52zm-20.26-10.13c1.06-0.69 3.71-4.41 5.31-7.44 0.81-1.54 1.74-3.16 2.07-3.61s0.95-1.51 1.38-2.37c1.44-2.91 2.68-5.14 3.31-5.98 0.64-0.85 3.91-7.19 6.35-12.31 0.72-1.51 1.8-3.53 2.4-4.48s1.18-2.02 1.29-2.37c0.2-0.66 1.52-3.2 3.96-7.62 1.91-3.45 4.59-8.77 4.6-9.09 0-0.15 0.39-0.86 0.87-1.58s1.14-1.96 1.48-2.76c0.33-0.8 0.88-1.92 1.21-2.5 0.32-0.58 1.16-2.42 1.86-4.08 0.69-1.67 2.88-6.29 4.87-10.27 1.99-3.99 3.69-7.52 3.79-7.85 0.1-0.34 0.93-2.2 1.85-4.14s2.34-5.16 3.16-7.16c1.64-4.01 1.75-4.27 4.06-9.11 0.88-1.85 1.6-3.43 1.6-3.52s0.9-2.13 2.01-4.53c1.1-2.41 2.27-5.1 2.61-5.97 0.33-0.87 1.56-3.54 2.73-5.92 1.17-2.39 2.21-4.73 2.3-5.2l0.16-0.85h-1.18c-1.69 0-2.91 0.76-6.64 4.15-3 2.72-4.07 3.38-4.46 2.74-0.08-0.12 0.1-0.6 0.38-1.07 0.29-0.47 0.46-0.94 0.39-1.06-0.12-0.19-3.53 0.42-3.83 0.69-0.07 0.06 0.46 0.62 1.18 1.25 1.22 1.05 1.29 1.18 1 1.8-0.17 0.37-0.55 0.75-0.85 0.84-0.3 0.1-0.54 0.38-0.54 0.62 0 0.84-0.78 1.6-1.78 1.76-2.77 0.43-4.48 0.79-7.96 1.71-2.1 0.55-4.17 1.08-4.6 1.18-0.46 0.1-1.43 0.84-2.38 1.8-0.89 0.9-3.03 2.81-4.76 4.25-1.73 1.45-4.19 3.72-5.47 5.06-1.29 1.33-2.79 2.73-3.34 3.12-1.13 0.78-2.27 0.8-2.73 0.04-0.24-0.39-0.16-0.59 0.5-1.13 0.43-0.37 1.68-1.48 2.76-2.47 2.46-2.25 5.51-4.74 5.79-4.74 0.37 0 3.96-3.58 3.96-3.95 0-0.26-0.45-0.3-2.02-0.15-1.12 0.1-2.24 0.3-2.51 0.44s-2.06 1.65-3.99 3.36c-1.92 1.7-3.96 3.44-4.53 3.87-0.57 0.42-1.63 1.37-2.36 2.1-0.72 0.73-2.66 2.43-4.31 3.77-2.55 2.07-3.12 2.42-3.82 2.36-1.24-0.12-1.25-1.02-0.01-1.97 0.54-0.41 1.82-1.46 2.85-2.34 1.76-1.51 4.38-3.55 7.24-5.65 0.69-0.51 2.36-1.95 3.7-3.2 2.83-2.65 3.04-3.31 1.02-3.16-0.68 0.05-1.29-0.04-1.39-0.2-0.42-0.69-1.42-0.09-4.69 2.82-3.92 3.5-9.58 8.31-10.81 9.21-1.48 1.06-3.5 0.55-2.51-0.64 0.19-0.24 1.55-1.4 3.01-2.57 9.01-7.22 11.34-9.35 11.71-10.72 0.25-0.94 0.51-1.23 2.88-3.12 0.56-0.44 0.6-0.56 0.27-0.79-0.78-0.52-1.61-0.27-2.85 0.87-0.68 0.62-1.6 1.42-2.05 1.77-0.45 0.36-2.62 2.19-4.82 4.07s-4.8 4.08-5.79 4.87c-4.13 3.35-6.75 5.64-6.83 5.97-0.05 0.2 0.16 0.76 0.46 1.24 0.93 1.51 0.55 3.59-0.65 3.59-0.29 0-0.34 0.26-0.21 1.19 0.14 1.03 0.07 1.29-0.47 1.87-1.51 1.63-2.94 1.35-4.96-0.97-0.75-0.86-1.53-1.56-1.73-1.56s-1.35 0.85-2.55 1.9-2.5 2.15-2.89 2.44-2.11 1.71-3.81 3.16c-3.68 3.12-5.61 4.62-9.46 7.38-1.58 1.13-4.12 3.08-5.64 4.32-1.52 1.25-4.01 3.19-5.53 4.31-5.04 3.72-5.31 3.96-5.76 5.1-0.28 0.71-1.13 1.72-2.47 2.96-1.972 1.81-2.079 1.87-3.08 1.71-1.305-0.21-2.921 0.66-2.895 1.56 0.026 0.87 2.399 3.72 3.163 3.8 1.137 0.11 9.082-6.25 15.522-12.44 1.81-1.74 4.05-3.76 4.98-4.48 5.55-4.33 5.94-4.59 6.8-4.6 0.67-0.01 0.86 0.1 0.86 0.49 0 0.57-1.76 2.47-3.33 3.62-2.28 1.66-5.12 4.13-9.46 8.22-1.02 0.96-2.38 2.17-3.03 2.67-0.64 0.51-2 1.7-3.01 2.66-1.02 0.95-2.26 1.98-2.77 2.29-0.5 0.3-1.75 1.39-2.76 2.42-1.829 1.85-1.84 1.87-1.44 2.58 0.7 1.26 1.62 1.09 4.47-0.8 1.37-0.92 3.32-2.32 4.32-3.11 6.08-4.76 13.02-10.44 16.31-13.34 0.85-0.74 1.53-1.12 2.01-1.12 0.95 0 1.45 0.58 1.09 1.25-0.23 0.43-3.64 3.33-5.79 4.92-0.38 0.28-1.37 1.13-2.19 1.88s-2.48 2.06-3.69 2.9c-1.2 0.85-3.16 2.29-4.35 3.2-1.18 0.91-2.43 1.81-2.76 1.98-0.83 0.44-5.94 4.91-6.11 5.33-0.19 0.52 1.21 2.5 1.89 2.67 0.44 0.11 0.89-0.07 1.58-0.62 0.54-0.43 2.46-1.89 4.27-3.24s3.88-2.95 4.61-3.56c3.55-2.98 4.91-3.64 5.32-2.58 0.2 0.52-0.85 1.5-5.72 5.35-8.73 6.92-8.6 6.76-7.09 8.32 0.48 0.49 1.04 0.9 1.24 0.9 0.39 0 8.41-5.52 10.33-7.11 1.95-1.61 3.65-2.28 4.08-1.59 0.3 0.49-0.4 1.31-2.05 2.42-2.67 1.81-7.84 5.79-9.2 7.09-0.69 0.66-1.26 1.39-1.26 1.62 0 0.58 2.03 3.1 2.5 3.1 0.61 0 2.91-1.46 5.08-3.24 1.12-0.91 2.58-2.03 3.25-2.49s1.95-1.55 2.84-2.43c0.89-0.87 2.53-2.38 3.65-3.34 1.12-0.97 2.75-2.42 3.63-3.23 5.64-5.2 7.41-6.38 8.41-5.55 0.61 0.51 0.48 0.96-0.46 1.62-1.39 0.98-6.4 5.36-10.07 8.81-1.88 1.78-3.9 3.59-4.48 4.03-1.36 1.04-4.5 3.51-6.4 5.05-0.82 0.66-2.06 1.53-2.75 1.93-0.68 0.4-1.25 0.79-1.25 0.87 0 0.39 2.22 2.71 2.59 2.71 0.24-0.01 1.03-0.48 1.76-1.06 0.72-0.58 2.38-1.87 3.68-2.87 2.23-1.7 3.64-2.83 10.04-8.08 1.43-1.18 3.55-3 4.71-4.05 1.16-1.04 2.7-2.35 3.43-2.89 0.72-0.54 1.97-1.57 2.76-2.29 3.1-2.79 6.84-5.36 7.82-5.36 0.61 0 0.75 0.37 0.44 1.18-0.17 0.45-8.47 7.19-9.58 7.78-0.36 0.19-1.78 1.43-3.16 2.76-1.37 1.32-3.43 3.14-4.57 4.04s-2.91 2.4-3.95 3.34c-1.03 0.93-2.49 2.14-3.24 2.69-4.45 3.24-5.99 4.6-7.42 6.49-0.74 0.99-0.72 1.21 0.24 2.43 1.12 1.4 1.45 1.55 2.3 1.01 1.19-0.77 4.58-3.31 6.11-4.6 0.8-0.67 2.87-2.39 4.61-3.82s3.93-3.31 4.87-4.19c2.12-1.97 5.79-4.97 10.44-8.51 3.53-2.69 4.65-3.2 5.01-2.28 0.34 0.88-0.86 2.09-5.36 5.37-1.18 0.87-2.23 1.7-2.32 1.85s-0.99 0.93-2 1.73-2.76 2.31-3.89 3.35c-1.14 1.05-2.7 2.4-3.49 3.01-0.78 0.61-2.27 1.86-3.3 2.77-2.92 2.55-4.32 3.69-5.48 4.46-0.59 0.38-1.75 1.35-2.59 2.13-1.15 1.1-1.47 1.56-1.34 1.94 0.27 0.76 1.19 1.68 1.68 1.68 0.4 0 2.25-1.19 5.71-3.67 0.7-0.5 3.26-2.52 5.7-4.48 2.44-1.97 5.22-4.18 6.19-4.92 0.96-0.75 2.41-1.97 3.2-2.71 1.65-1.54 2.71-1.75 2.84-0.55 0.06 0.52-0.35 1.08-1.97 2.67-1.13 1.11-2.54 2.36-3.13 2.77-0.6 0.41-2.22 1.6-3.6 2.64s-3.03 2.21-3.66 2.6c-0.63 0.4-1.79 1.28-2.59 1.96s-1.98 1.58-2.63 1.99c-0.66 0.42-1.75 1.26-2.43 1.88-0.68 0.63-1.35 1.13-1.48 1.13-0.84 0-0.38 1.75 0.72 2.74 0.54 0.5 0.56 0.49 2.03-0.53 0.82-0.56 2.04-1.37 2.71-1.8 0.66-0.43 2.69-1.88 4.49-3.24 3.29-2.46 4.25-2.85 4.44-1.82 0.06 0.27-0.18 0.79-0.52 1.16-0.63 0.68-4.77 3.85-6.67 5.11-1.45 0.96-3.82 3.34-3.82 3.85 0 0.54 0.86 1.65 4.34 5.6 1.59 1.81 3.91 4.58 5.14 6.15 2.8 3.58 5.79 7.01 6.1 7.01 0.13 0 0.53-0.19 0.89-0.43zm-7.27-9.35c-0.43-0.8 0.81-2.48 2.65-3.58 2.75-1.66 4.06-0.87 2.01 1.21-0.67 0.68-1.22 1.38-1.22 1.54 0 0.55-1.37 1.39-2.27 1.39-0.62 0-0.96-0.16-1.17-0.56zm-5.52-5.37c-0.49-0.58 0-1.48 1.3-2.4 0.59-0.41 1.94-1.39 2.99-2.16s2.2-1.52 2.55-1.66c0.83-0.32 1.86-0.07 1.86 0.46 0 0.59-4.1 4.95-5.27 5.61-1.17 0.65-2.95 0.73-3.43 0.15zm38.65-86.26c-0.8-0.46-0.51-1.19 0.92-2.28 0.76-0.58 1.87-1.51 2.46-2.07 1.66-1.57 4.02-3.57 5.25-4.45 1.87-1.33 4.68-3.7 5.92-4.99 1.39-1.45 1.92-1.78 2.48-1.56 0.84 0.32 0.43 1.29-1.23 2.92-0.9 0.89-2.14 2.01-2.75 2.49-3.46 2.74-5.21 4.25-7.45 6.43-2.46 2.39-4.27 3.81-4.85 3.79-0.16 0-0.5-0.13-0.75-0.28zm11.39-2.44c0-0.67 1.55-2.49 3.34-3.93 0.99-0.78 3.16-2.76 4.82-4.39 1.67-1.63 4.75-4.35 6.85-6.05s3.98-3.29 4.18-3.53 0.52-0.44 0.71-0.44c0.5 0 1.17 0.75 1.01 1.15-0.07 0.19-1.1 1.12-2.29 2.07-2.06 1.65-5.97 5.11-11.11 9.83-1.31 1.2-2.73 2.45-3.16 2.78-0.44 0.34-1.37 1.12-2.07 1.74-1.27 1.12-2.28 1.46-2.28 0.77zm-91.595 36.24c0.794-0.69 2.244-1.84 3.221-2.57 4.424-3.28 8.574-6.29 9.904-7.18 0.79-0.54 2.36-1.78 3.49-2.76 1.12-0.98 2.15-1.78 2.29-1.78s0.84-0.51 1.55-1.15c1.13-1 3.62-2.98 6.51-5.17 0.48-0.36 2.31-1.84 4.07-3.29s3.63-2.92 4.16-3.26c0.53-0.35 1.52-1.12 2.19-1.71 2.01-1.79 3.47-2.94 4.38-3.47 1-0.58 1.32-1.45 0.81-2.17-0.99-1.38-3.36-3.74-3.77-3.74-0.26 0-1.37 0.81-2.48 1.8-1.1 0.99-3.31 2.84-4.9 4.12-1.6 1.28-3.43 2.79-4.08 3.34-0.66 0.56-2.27 1.88-3.59 2.92-1.32 1.05-3.28 2.62-4.35 3.49-1.06 0.86-2.95 2.33-4.18 3.26s-3.07 2.42-4.08 3.31-2.21 1.91-2.66 2.26c-0.45 0.36-2.23 1.87-3.951 3.38-2.887 2.51-5.38 4.34-6.403 4.71-0.714 0.25-3.151 2.28-3.318 2.76-0.243 0.69 2.508 4.15 3.305 4.15 0.24 0 1.087-0.56 1.882-1.25zm-5.309-6.42c2.321-1.74 4.663-3.61 7.896-6.29 2.673-2.22 7.798-6.22 9.988-7.79 0.42-0.31 1.52-1.21 2.44-2 0.91-0.79 1.93-1.63 2.27-1.85 0.33-0.22 1.4-1.08 2.37-1.89 1.6-1.36 4.69-3.78 7.65-6.01 0.64-0.48 1.58-1.29 2.11-1.82 0.52-0.52 1.28-1.11 1.67-1.32 0.39-0.2 1.85-1.35 3.23-2.56 1.87-1.65 2.51-2.36 2.51-2.84 0-0.45-0.69-1.36-2.28-3-1.25-1.3-2.42-2.36-2.61-2.36-0.18 0-1.11 0.71-2.07 1.58s-1.83 1.58-1.94 1.58c-0.1 0-1.08 0.86-2.18 1.91-1.09 1.05-3.57 3.33-5.5 5.07-1.92 1.73-4.64 4.23-6.04 5.53-1.39 1.31-3.36 3.08-4.38 3.94-1.01 0.85-2.73 2.4-3.815 3.44-1.086 1.04-3.338 3.04-5.003 4.45-2.933 2.48-7.22 6.36-9.829 8.89-1.422 1.38-1.42 1.44 0.146 3.44 0.996 1.27 1.571 1.25 3.367-0.1zm-5.353-6.22c0.655-0.54 1.996-1.7 2.978-2.57s2.936-2.59 4.341-3.82 3.818-3.4 5.362-4.83c1.543-1.43 3.102-2.79 3.465-3.02 0.362-0.23 2.081-1.68 3.821-3.21 1.73-1.53 3.51-3.06 3.95-3.39 0.43-0.33 2.27-1.96 4.08-3.62 6.72-6.15 7.43-6.78 9.94-8.85 1.41-1.16 2.67-2.33 2.8-2.6 0.18-0.37-0.02-0.82-0.92-1.97-0.64-0.81-1.37-1.82-1.64-2.24s-0.57-0.77-0.68-0.77c-0.23 0-2.79 1.97-3.87 2.98-0.42 0.39-2.09 1.83-3.72 3.19-1.63 1.37-3.27 2.85-3.65 3.3-0.62 0.73-2.82 2.55-7.37 6.07-0.84 0.65-2.305 1.89-3.254 2.74-0.949 0.86-2.792 2.35-4.096 3.32-1.303 0.96-2.543 1.96-2.754 2.22-0.212 0.26-1.1 0.95-1.975 1.53s-1.887 1.33-2.249 1.65-2.258 1.58-4.214 2.78c-4.278 2.64-7.373 5.06-7.373 5.75 0 0.47 1.613 2.13 2.071 2.13 0.758 0 4.883-2.9 8.067-5.66 1.014-0.89 3.029-2.54 4.477-3.69 1.448-1.14 3.522-2.86 4.608-3.82 1.087-0.95 3.101-2.61 4.477-3.68 1.375-1.08 3.405-2.73 4.505-3.68 1.1-0.94 3-2.42 4.21-3.28 1.22-0.87 2.86-2.11 3.64-2.77 2.31-1.94 2.99-2.38 3.61-2.38 0.7 0 0.95 0.31 0.73 0.9-0.15 0.38-5.77 5.17-7.81 6.65-0.43 0.31-1.99 1.63-3.45 2.92-1.47 1.29-3.03 2.57-3.46 2.84-0.86 0.55-7.169 5.72-10.568 8.66-2.811 2.44-6.154 5.06-8.17 6.42-2.668 1.79-3.433 3.09-2.439 4.15 0.801 0.85 1.131 0.81 2.53-0.35zm-5.843-9.42c1.158-0.75 2.699-1.69 3.423-2.1 1.938-1.08 4.803-2.99 6.452-4.29 0.797-0.63 2.041-1.6 2.765-2.17 4.271-3.35 6.108-4.85 8.822-7.23 1.668-1.46 3.678-3.13 4.478-3.7 0.8-0.58 2.39-1.88 3.53-2.89 3.74-3.3 11.11-9.51 14.8-12.46 0.8-0.64 1.42-1.35 1.42-1.63 0-0.57-1.5-1.16-2.27-0.88-0.27 0.1-1.86 1.18-3.52 2.41-5.22 3.85-5.34 3.93-10.87 7.68-2.14 1.45-4.63 3.2-5.53 3.9-4.219 3.24-7.328 5.79-9.017 7.37-1.013 0.96-2.317 2.11-2.896 2.57-0.58 0.45-1.646 1.39-2.37 2.08-0.725 0.69-2.147 1.88-3.16 2.65-1.014 0.78-2.909 2.37-4.211 3.55-2.133 1.93-3.579 3.02-5.73 4.32-0.915 0.56-0.908 0.81 0.045 1.77 0.914 0.91 0.973 0.89 3.839-0.95zm-3.306-3.73c0.515-0.38 1.41-1.13 1.989-1.67s1.646-1.43 2.37-1.97 1.899-1.47 2.611-2.07c3.571-3.01 7.293-6.21 8.672-7.47 0.847-0.77 2.734-2.32 4.194-3.44 1.459-1.12 3.196-2.45 3.858-2.96 0.663-0.51 2.242-1.61 3.512-2.45 2.07-1.36 2.3-1.59 2.3-2.32 0-0.79-0.03-0.81-0.85-0.63-0.47 0.11-1.27 0.28-1.78 0.39-1.455 0.3-4.236 1.93-6.751 3.96-2.617 2.11-3.238 2.63-4.563 3.82-0.803 0.73-2.036 1.79-2.74 2.36-0.704 0.58-1.675 1.41-2.157 1.85s-1.505 1.31-2.274 1.93-1.988 1.61-2.708 2.21c-0.72 0.59-2.083 1.57-3.028 2.18-0.946 0.61-1.972 1.28-2.281 1.48s-1.524 1.12-2.699 2.03c-2.4 1.86-2.569 2.29-1.359 3.5 0.769 0.77 0.788 0.78 1.763 0.37 0.542-0.23 1.406-0.72 1.921-1.1zm-4.147-3.71c3.941-2.53 7.391-5.18 12.061-9.28 1.086-0.95 2.805-2.4 3.819-3.23 1.013-0.82 2.673-2.22 3.686-3.09 1.014-0.88 2.985-2.42 4.379-3.42 2.827-2.03 3.184-2.53 2.323-3.23-1.146-0.92-1.803-0.65-4.858 2.05-1.014 0.9-2.206 1.81-2.65 2.04-0.443 0.23-1.59 1.25-2.548 2.26-0.958 1.02-2.255 2.17-2.881 2.57-0.626 0.39-2.587 2.02-4.357 3.61-1.771 1.59-4.437 3.72-5.925 4.73-3.82 2.59-4.559 3.22-5.065 4.28-0.35 0.74-0.378 1.02-0.13 1.32 0.423 0.51 0.397 0.52 2.146-0.61zm-2.594-4.46c2.574-1.8 6.368-4.82 10.31-8.2 1.593-1.37 3.786-3.15 4.872-3.95 4.668-3.45 5.759-4.32 7.476-5.93 1.931-1.81 2.095-2.37 0.791-2.7-0.945-0.24-2.416 0.56-3.07 1.67-0.277 0.47-1.18 1.26-2.008 1.77-0.827 0.5-1.735 1.17-2.018 1.49-0.282 0.32-1.402 1.16-2.488 1.87s-3.088 2.32-4.448 3.57c-1.361 1.25-3.849 3.26-5.53 4.47-3.656 2.63-7.402 5.98-7.402 6.63 0 1.27 0.997 1.07 3.515-0.69zm-3.383-4.95c2.616-2.48 3.113-2.86 8.163-6.32 1.448-0.99 3.581-2.45 4.74-3.25 3.15-2.16 8.837-6.62 9.01-7.07 0.083-0.22 0.164-0.83 0.179-1.36 0.045-1.54-0.732-1.41-3.125 0.54-4.338 3.53-8.252 6.59-10.129 7.92-1.077 0.76-2.38 1.74-2.896 2.18-0.517 0.44-1.413 1.1-1.992 1.48-0.58 0.37-1.547 1.14-2.149 1.7-0.603 0.56-1.893 1.67-2.866 2.47-2.96 2.42-3.208 2.77-2.595 3.64 0.219 0.32 0.54 0.57 0.713 0.57s1.5-1.12 2.947-2.5zm75.97 1.17c0-0.49-2.11-3.14-2.51-3.14-0.53 0-0.48 0.32 0.19 1.21 1.38 1.83 2.32 2.62 2.32 1.93zm5.74-1.95c0.83-0.65 2.72-2.16 4.22-3.36 1.49-1.2 3.59-2.89 4.68-3.76 1.08-0.87 2.34-2.04 2.79-2.6l0.83-1.01-0.85 0.44c-1.12 0.57-2.19 0.44-2.53-0.32-0.14-0.33-0.47-0.59-0.74-0.59-0.87 0-1.47-0.52-1.64-1.43-0.26-1.35 0.04-1.92 1.21-2.31 1.18-0.39 3.38-2.02 3.4-2.52 0.03-0.84-1.3-0.22-3.23 1.52-1.12 1.01-2.15 1.84-2.29 1.84-0.13 0-1.16 0.78-2.29 1.73s-3.35 2.81-4.94 4.15c-4.63 3.88-5.24 4.49-5.05 5.07 0.28 0.89 3.75 4.33 4.36 4.33 0.31 0 1.24-0.54 2.07-1.18zm-86.392-2.18c0.598-0.4 1.836-1.32 2.752-2.04 1.493-1.17 9.519-7.58 11.252-8.98 0.376-0.31 2.403-1.72 4.503-3.13 5.322-3.59 5.437-3.71 3.963-4.48-1.227-0.63-1.816-0.48-3.266 0.82-0.746 0.67-2.126 1.76-3.067 2.41-0.942 0.66-2.186 1.64-2.765 2.18-0.58 0.54-2.08 1.65-3.335 2.47-1.254 0.81-3.004 2.13-3.889 2.92-1.729 1.54-2.857 2.23-3.648 2.23-0.768 0-0.861-0.26-0.41-1.15 0.769-1.52 1.686-2.53 3.328-3.64 0.898-0.61 2.404-1.74 3.345-2.51 0.942-0.77 3.252-2.61 5.135-4.07 4.491-3.51 4.241-3.26 3.83-3.76-0.538-0.64-1.457-0.48-2.742 0.5-0.655 0.5-1.653 1.15-2.217 1.44-0.565 0.28-2.26 1.66-3.767 3.06s-3.333 2.99-4.057 3.54-1.613 1.32-1.975 1.72c-0.66 0.72-4.583 3.76-6.895 5.35-1.358 0.92-1.71 1.59-1.274 2.41 0.392 0.73 0.811 0.67 1.996-0.27 1.124-0.89 2.357-0.97 2.848-0.19 0.229 0.37 0.121 0.62-0.561 1.32-1.05 1.09-1.442 2.57-0.677 2.57 0.279 0 0.996-0.32 1.593-0.72zm75.122-2.71c0-0.76-4.11-4.94-4.49-4.56-0.2 0.2-0.17 0.39 0.09 0.66 0.21 0.2 0.94 1.08 1.63 1.94 1.95 2.45 2.77 3.03 2.77 1.96zm5.57-3.22c1.33-1.05 2.97-2.39 3.63-2.97s1.62-1.38 2.13-1.76c1.75-1.34 4.6-4.11 4.41-4.3-0.1-0.11-0.64 0.1-1.19 0.47-2.72 1.79-4.66 2.23-6 1.36-0.69-0.46-1.52-0.4-2.94 0.18-0.73 0.3-0.97 0.29-1.74-0.08-0.89-0.42-0.91-0.41-2.45 0.57-0.85 0.55-2.01 1.41-2.58 1.9-1.24 1.1-1.19 1.66 0.3 3.29 0.55 0.6 1.42 1.58 1.94 2.17 0.54 0.63 1.17 1.08 1.49 1.08 0.31 0 1.66-0.86 3-1.91zm-84.995-3.02c3.205-2.12 7.985-5.95 13.482-10.79 3.073-2.71 4.061-3.73 4.061-4.2 0-1.25-1.947-0.56-3.662 1.3-0.564 0.61-2.126 2-3.47 3.09-1.345 1.08-2.986 2.46-3.647 3.06-0.662 0.59-1.795 1.39-2.52 1.76-0.728 0.37-1.874 1.32-2.566 2.12-0.688 0.79-1.965 1.88-2.838 2.41-1.517 0.92-2.883 2.68-2.432 3.13 0.262 0.26 0.702 0.03 3.592-1.88zm72.705-0.85c0.09-0.14-0.03-0.63-0.26-1.07-0.54-1.04-0.43-2.46 0.2-2.58 0.27-0.05 0.75 0.25 1.14 0.72 1.07 1.26 1.8 1.1 4.15-0.91 2.56-2.18 2.63-2.64 0.37-2.37-2.11 0.26-2.08 0.26-4.43-0.1-2.38-0.36-2.79-0.24-5.29 1.47-2.68 1.83-2.67 2.31 0.04 2.68 1.2 0.17 1.78 0.37 1.97 0.71 0.4 0.7 1.39 1.7 1.69 1.7 0.15 0 0.34-0.11 0.42-0.25zm-78.058-1.49c0.499-0.52 1.974-1.67 3.277-2.54 1.304-0.88 2.738-1.9 3.188-2.28 0.45-0.37 1.445-1.15 2.211-1.73 0.767-0.58 2.235-1.77 3.264-2.65s2.641-2.17 3.583-2.87c2.881-2.16 3.686-3.03 3.686-4.02 0-1.58-0.21-1.45-5.483 3.23-0.822 0.73-1.969 1.67-2.549 2.08-1.071 0.78-2.455 1.93-4.638 3.87-0.668 0.59-1.752 1.39-2.408 1.77-3.381 1.96-4.135 2.48-4.283 2.95-0.089 0.28-0.43 0.84-0.757 1.23-0.974 1.19-1.087 1.91-0.298 1.91 0.164 0 0.708-0.43 1.207-0.95zm137.23-1.3c2.7-0.21 6.1-0.36 7.56-0.33 2.71 0.06 3.59-0.19 2.85-0.8-0.7-0.58-3.25-0.91-7.69-0.98-3.53-0.06-4.86-0.19-6.32-0.6-1.01-0.29-2.55-0.72-3.42-0.95-2.46-0.64-4.09-1.22-5.66-1.99-0.8-0.39-1.78-0.79-2.18-0.89-0.43-0.1-0.96-0.56-1.34-1.16-0.34-0.54-0.82-1.15-1.06-1.34-0.23-0.2-0.43-0.69-0.43-1.09 0-1.38 1.03-1.67 4.31-1.19 1.32 0.19 3.06 0.43 3.86 0.52 0.79 0.1 2.16 0.47 3.03 0.84 0.86 0.36 3.06 1.06 4.87 1.54 1.81 0.49 3.76 1.09 4.34 1.33 0.79 0.34 1.48 0.41 2.77 0.3 4.69-0.42 6.6-0.86 13.82-3.21 5.48-1.79 7.91-2.5 9.07-2.65 0.73-0.1 1.33-0.27 1.33-0.38 0-0.39-1.69-1.24-3.12-1.57-1.09-0.26-1.83-0.26-3.29-0.03-1.03 0.17-3.42 0.42-5.3 0.56-1.89 0.15-4.2 0.4-5.14 0.57-2.5 0.46-5.9 0.38-7.9-0.17-0.94-0.26-2.42-0.57-3.29-0.68-2.89-0.37-4.47-0.78-5.14-1.31-1.65-1.34-4.56-2.07-8.22-2.09-1.41-0.01-1.53-0.07-1.92-0.8-0.44-0.87-0.23-1.65 0.55-1.95 1.26-0.48 6.87 0.15 16.05 1.8 4.86 0.88 4.21 0.95 14.87-1.57 2.1-0.5 4.77-1.02 5.93-1.16 5.53-0.66 6.54-1.02 6.85-2.43 0.26-1.15-0.23-1.45-2.73-1.68-1.11-0.1-2.23-0.3-2.5-0.44-0.55-0.29-6.89 0.43-8.04 0.91-0.84 0.35-13.65 0.3-15.04-0.05-0.51-0.14-2.76-0.38-5.01-0.55-4.03-0.31-4.8-0.5-7.37-1.77-0.55-0.28-1.11-0.85-1.39-1.43-0.43-0.86-0.44-1.06-0.1-1.84 0.77-1.82 1.36-2.09 5.09-2.38 1.86-0.15 5.3-0.19 7.65-0.11 4.36 0.16 6.3-0.07 7.67-0.93 0.53-0.33 1.88-3.22 1.88-4.03 0-0.6-1.33-1.37-2.97-1.71-1.29-0.27-1.93-0.25-4.02 0.13-1.37 0.25-2.82 0.39-3.22 0.31-0.39-0.07-2.28-0.05-4.18 0.04-3.77 0.2-7.8-0.01-8.32-0.43-0.56-0.46-3.72-1.62-5.08-1.88-0.72-0.14-1.51-0.33-1.76-0.43-0.68-0.26-0.83-1.11-0.33-1.88 0.7-1.06 1.46-0.91 7.98 1.64l1.66 0.65 5.3-0.27c4.61-0.24 5.41-0.35 6.18-0.83 0.54-0.33 0.86-0.72 0.81-0.98-0.07-0.35-0.56-0.45-2.71-0.57-2.72-0.15-6.69-1.15-8.02-2.02-0.47-0.31-1.58-0.48-3.83-0.61-2.61-0.15-3.58-0.33-5.53-1.03-1.31-0.47-2.85-0.91-3.43-0.99-1.19-0.17-5.54 0.3-7.9 0.84-0.86 0.2-2.58 0.6-3.81 0.89s-3.07 0.63-4.09 0.77c-1.01 0.14-2.49 0.44-3.29 0.65-0.79 0.22-3.05 0.82-5 1.33l-3.56 0.94-3.95-0.24c-2.17-0.13-4.54-0.36-5.26-0.5-2.32-0.44-5.77-0.34-7.25 0.22-1.64 0.63-5.89 3.79-7.15 5.34-1.03 1.25-2.06 3.04-2.06 3.57 0 0.19-0.47 0.85-1.05 1.48s-1.37 1.84-1.76 2.69c-0.38 0.86-0.97 1.91-1.29 2.35-0.7 0.94-2.9 5.48-3.15 6.52-0.15 0.59-0.09 0.72 0.31 0.72 0.27-0.01 0.78-0.24 1.15-0.53 0.36-0.28 0.9-0.51 1.21-0.52 0.31 0 1.54 0.82 2.76 1.84 1.22 1.01 3.16 2.3 4.32 2.87 5.8 2.86 7.99 3.76 10.01 4.14 1.16 0.22 2.7 0.56 3.42 0.76 0.72 0.21 3.04 0.8 5.14 1.33 2.1 0.52 4.71 1.23 5.81 1.57 1.09 0.34 3.82 0.99 6.05 1.44 2.24 0.46 4.96 1.05 6.04 1.33 1.09 0.27 3.17 0.68 4.61 0.91 3.67 0.58 5.42 1.21 10.4 3.73 5.74 2.91 7.01 3.25 11.59 3.09 1.96-0.06 5.77-0.29 8.47-0.51zm6.36-34.56c-0.37-0.23-0.95-2.61-0.73-2.97 0.29-0.47 1.42-0.25 1.81 0.35 0.65 1.01 0.76 1.92 0.29 2.39s-0.88 0.54-1.37 0.23zm-146.98 31.59c0.772-0.69 3.529-2.92 6.127-4.93 2.598-2.02 5.324-4.21 6.057-4.87s2.103-1.78 3.045-2.48c2.422-1.81 3.141-2.52 2.98-2.94-0.32-0.83-1.347-0.29-3.995 2.12-3.648 3.33-4.829 3.84-6.635 2.91-1.104-0.57-0.99-1.27 0.358-2.2 1.474-1.01 5.256-4.21 5.529-4.68 0.323-0.55-0.025-0.88-0.927-0.88-0.597 0-1.069 0.26-1.766 0.99-0.523 0.54-1.423 1.34-2 1.77s-1.825 1.49-2.772 2.37c-0.948 0.87-2.724 2.41-3.947 3.43-4.596 3.81-6.581 6-5.974 6.61 0.282 0.28 2.215-0.95 3.744-2.4 2.575-2.43 4.469-3.73 5.918-4.08 0.731-0.18 1.506-0.25 1.721-0.17 0.751 0.29 0.434 1.39-0.701 2.45-0.601 0.55-1.52 1.43-2.041 1.94-1.523 1.5-3.5 3.04-4.634 3.62-1.348 0.68-2.352 1.75-2.148 2.28 0.243 0.64 0.55 0.51 2.061-0.86zm90.851-1.82c0.86-0.68 1.21-1.36 0.61-1.17-0.58 0.18-2.23 1.39-2.23 1.63 0 0.47 0.7 0.27 1.62-0.46zm-31.25-0.83c3.32-0.56 6.09-1.83 9.74-4.45 2.59-1.85 2.76-2.36 1.12-3.33-1.55-0.9-2.38-0.86-3.85 0.22-2.79 2.03-9.24 4.87-12.23 5.38-1.372 0.24-1.604 1.01-0.603 2.01 0.823 0.83 1.803 0.86 5.823 0.17zm-8.452-3.58c0.496-0.76 3.252-8.44 3.592-10.01 0.67-3.13 3.5-8.93 7.86-16.14 1.18-1.94 3.97-5.69 4.72-6.32 1.31-1.12 4.03-2.96 5.38-3.65 0.74-0.37 1.99-1.1 2.77-1.62 1.41-0.94 1.42-0.96 0.89-1.4-0.3-0.24-1.47-0.76-2.6-1.15-2.32-0.8-4.16-1.7-7.58-3.72-4.11-2.42-10.98-7.35-11.26-8.07-0.07-0.2-1.113-1.1-2.306-2s-2.484-2.02-2.869-2.48c-2.448-2.97-5.819-5.72-7.005-5.72-0.768 0-3.135-1.13-4.272-2.04-1.366-1.09-1.537-1.69-1.102-3.88 0.628-3.16-0.244-3.7-3.908-2.43-1.992 0.68-2.692 0.79-5.25 0.82-2.472 0.02-3.025-0.05-3.409-0.43-1.121-1.12 0.873-2.91 4.025-3.61 1.805-0.41 2.874-1.26 2.612-2.09-0.202-0.63-0.866-1.1-4.648-3.24l-2.475-1.41-3.95 0.03c-3.656 0.02-4.072 0.08-5.588 0.72-0.901 0.39-1.914 0.7-2.252 0.7s-1.102 0.36-1.698 0.8c-0.595 0.44-1.902 1.24-2.903 1.78-2.55 1.37-4.835 2.99-7.441 5.27-1.231 1.07-2.712 2.19-3.292 2.48-0.579 0.29-1.438 0.82-1.907 1.17-2.175 1.63-4.243 2.06-5.431 1.12-0.845-0.66-0.887-1.5-0.123-2.47 0.526-0.67 0.674-0.72 1.898-0.57 1.16 0.14 1.512 0.05 2.787-0.66 0.803-0.46 2.247-1.57 3.211-2.47 2.202-2.07 6.84-5.55 8.095-6.08 0.523-0.22 1.247-0.67 1.609-1.01 0.985-0.92 3.084-1.89 5.421-2.5 1.146-0.3 2.736-0.72 3.532-0.94 0.797-0.23 2.515-0.48 3.819-0.57 1.954-0.13 2.731-0.06 4.43 0.41 1.133 0.31 2.521 0.8 3.084 1.09 0.562 0.28 1.071 0.52 1.128 0.52 0.058 0 0.172-0.62 0.254-1.38 0.081-0.76 0.64-2.56 1.242-4 1.325-3.17 1.982-6.11 2.493-11.19 0.212-2.11 0.615-5.68 0.895-7.92 0.602-4.83 0.528-3.76 0.67-9.74 0.128-5.41 0.716-11.15 1.389-13.57 0.242-0.87 0.462-2.6 0.488-3.85 0.026-1.24 0.12-3.08 0.209-4.08 0.089-0.99 0.189-4 0.223-6.68l0.063-4.87-0.674-0.03c-0.938-0.04-1.279-0.3-1.279-1 0-0.32-0.175-1.12-0.39-1.76-0.272-0.81-0.421-2.72-0.495-6.3-0.228-11.08-0.694-15.08-2.554-21.99-0.273-1.01-0.804-3.2-1.18-4.87-0.816-3.61-1.043-4.37-2.636-8.82-0.675-1.88-1.38-3.96-1.569-4.61-0.188-0.65-0.648-1.84-1.023-2.63-0.375-0.8-0.683-1.65-0.684-1.9-0.002-0.24-0.112-0.51-0.246-0.59s-0.442-0.77-0.684-1.53c-0.983-3.07-5.115-7.57-6.946-7.57-0.828 0.01-2.646 1.99-3.926 4.28-0.465 0.83-1.376 2.21-2.025 3.07-0.649 0.85-1.427 2.12-1.728 2.83-0.302 0.7-0.843 1.66-1.203 2.13-0.36 0.48-0.872 1.49-1.138 2.26-0.265 0.78-0.658 1.75-0.873 2.18-0.677 1.32-1.909 9.9-1.643 11.43 0.236 1.36 0.406 1.84 0.643 1.84 0.117 0 1.027-0.67 2.022-1.48 2.373-1.95 2.848-2.16 3.506-1.56 0.485 0.44 0.548 0.44 1.288 0 0.947-0.56 1.627-0.35 1.627 0.5 0 0.91-0.595 1.56-5.133 5.58-2.246 1.99-4.085 3.69-4.087 3.78-0.001 0.09-0.692 0.9-1.534 1.81-1.415 1.52-1.594 1.63-2.378 1.48-0.675-0.14-0.985-0.04-1.518 0.46-1.369 1.28-1.712 3.04-1.031 5.29 0.289 0.95 0.316 1.57 0.117 2.63-0.143 0.77-0.363 2.01-0.488 2.77-0.396 2.39-1.347 5.58-3.167 10.61-0.603 1.66-1.552 4.33-2.11 5.92s-1.219 3.37-1.468 3.95c-0.494 1.15-1.544 4.48-2.779 8.82-0.433 1.52-1.232 3.89-1.776 5.27-0.544 1.37-1.194 3.27-1.444 4.21-0.251 0.94-0.702 2.48-1.003 3.43-0.545 1.7-1.467 5.4-2.034 8.16-0.164 0.8-0.643 2.99-1.064 4.87-0.422 1.88-0.905 4.31-1.074 5.4s-0.474 2.69-0.678 3.55c-0.204 0.87-0.478 2.96-0.608 4.64-0.332 4.3-1.078 6.46-4.278 12.41-1.48 2.76-1.577 3.93-0.55 6.66 1.125 3 1.606 4.78 1.889 7 0.137 1.07 0.55 3.19 0.92 4.71 0.369 1.52 0.673 3.06 0.674 3.43 0.002 0.36 0.165 1.19 0.363 1.84 0.197 0.65 0.445 1.93 0.55 2.83 0.122 1.06 0.416 1.98 0.826 2.59 0.35 0.51 0.795 1.31 0.99 1.77 0.194 0.46 1.648 2.04 3.231 3.51 2.151 2 3.33 2.88 4.664 3.48 1.601 0.73 2.566 1.33 6.586 4.12 0.626 0.44 2.253 1.8 3.616 3.04 1.362 1.24 3.129 2.75 3.926 3.36 1.802 1.39 4.055 3.21 5.266 4.26 0.507 0.43 1.534 1.18 2.283 1.65 0.748 0.47 1.874 1.21 2.501 1.63 1.269 0.87 6.669 4.47 10.182 6.8 1.256 0.83 2.621 1.72 3.034 1.97 0.413 0.26 1.598 0.98 2.633 1.62 3.191 1.95 6.26 4.04 8.423 5.73 1.137 0.89 2.857 2.02 3.821 2.5s2.92 1.65 4.347 2.59c5.83 3.86 6.849 4.26 7.65 3.04zm-59.226-55.43c-2.317-0.1-4.865-0.32-5.661-0.48-0.797-0.16-2.338-0.42-3.424-0.58-2.071-0.3-3.16-0.8-3.16-1.45 0-0.21 0.346-0.77 0.769-1.24 0.703-0.79 0.891-0.86 2.173-0.81 0.772 0.03 2.174 0.3 3.115 0.61 2.129 0.71 6.605 0.97 9.743 0.57 1.381-0.18 3.225-0.21 4.813-0.08 2.33 0.19 2.648 0.28 3.357 0.96 0.964 0.92 0.994 1.55 0.101 2.14-0.815 0.53-5.13 0.67-11.826 0.36zm9.678-9.92c-0.181-0.08-0.329-0.48-0.329-0.9 0-0.83 0.64-1.4 3.776-3.36 0.845-0.53 2.445-1.61 3.555-2.4 2.405-1.7 3.777-2.26 4.546-1.85 0.393 0.21 0.509 0.5 0.449 1.12-0.066 0.67-0.378 1.04-1.661 1.95-6.84 4.89-8.947 6-10.336 5.44zm-16.172-12.59c-0.4-0.88-0.039-1.68 2.43-5.41 2.2-3.32 9.683-11.87 12.922-14.77 5.328-4.77 10.437-8.71 11.144-8.61 1.472 0.21 0.309 2.2-2.481 4.24-2.973 2.17-6.306 5.13-10.218 9.07-4.061 4.09-5.013 5.21-4.701 5.52 0.095 0.09 0.496-0.09 0.892-0.4 0.396-0.32 1.253-0.96 1.905-1.42s2.074-1.57 3.16-2.45c2.771-2.24 9.991-7.62 11.169-8.32 0.898-0.53 1.019-0.54 1.401-0.16s0.357 0.5-0.288 1.34c-0.831 1.09-1.687 1.81-5.515 4.63-2.732 2.01-3.66 2.76-7.002 5.67-2.057 1.79-3.837 3.26-4.75 3.93-1.378 1.02-3.93 3.77-4.885 5.26-0.659 1.03-1.153 1.51-1.657 1.62-0.395 0.08-1.033 0.32-1.417 0.53-1.045 0.56-1.772 0.47-2.109-0.27zm39.703-8.6c-0.811-0.63-1.597-2.07-1.856-3.39-0.1-0.51-0.423-1.77-0.718-2.8-0.605-2.11-0.532-2.4 1.094-4.44 0.78-0.98 0.826-1.15 0.664-2.45-0.241-1.93 0.285-2.76 1.662-2.64l0.969 0.08 0.141-1.22c0.146-1.27 0.603-2.07 1.18-2.07 0.486 0 0.654 0.62 0.66 2.46 0.003 0.89 0.19 3.04 0.416 4.78 0.851 6.56 0.819 6.91-0.854 8.91-0.374 0.45-0.621 1.09-0.621 1.6 0 1.61-1.422 2.22-2.737 1.18zm-13.678-61.24c-0.662-0.66 0.333-2.2 1.668-2.58 0.362-0.11 1.784-0.82 3.16-1.58 1.376-0.77 4.161-2.2 6.189-3.19 3.214-1.57 3.915-1.81 5.467-1.91 2.012-0.12 2.564 0.15 2.564 1.26 0 1.24-0.962 1.86-2.929 1.86-1.407 0-2.035 0.15-3.538 0.88-1.005 0.49-2.302 1.04-2.881 1.23-1.183 0.37-3.007 1.3-5.925 3.03-1.827 1.08-3.302 1.47-3.775 1zm-13.122-13.97c-0.581-0.14-0.807-0.79-0.486-1.39 0.34-0.63 1.002-1.02 7.244-4.22 2.897-1.49 5.8-3.06 6.452-3.5s2.06-1.4 3.129-2.14c4.152-2.85 4.242-2.9 4.7-2.44 0.343 0.34 0.36 0.54 0.097 1.17-0.326 0.79-3.008 3.23-3.548 3.23-0.168 0-0.896 0.49-1.618 1.08-1.875 1.56-3.716 2.69-7.763 4.79-6.569 3.42-7.195 3.68-8.207 3.42zm-4.194 160.23c0.853-0.76 2.363-1.99 3.355-2.74s3.048-2.32 4.569-3.5 3.279-2.52 3.906-2.99c2.964-2.19 3.739-3.15 2.818-3.51-0.476-0.18-3.211 1.35-3.555 1.99-0.138 0.26-1.47 1.3-2.961 2.32-1.49 1.01-3.464 2.57-4.386 3.46-0.921 0.89-1.779 1.61-1.906 1.61s-0.867 0.57-1.646 1.26c-0.778 0.68-1.816 1.55-2.305 1.93-0.78 0.6-0.846 0.74-0.531 1.12 0.565 0.68 0.98 0.53 2.642-0.95zm177.51-1.23c0-0.31-0.51-0.65-0.7-0.46s0.14 0.7 0.45 0.7c0.14 0 0.25-0.11 0.25-0.24zm-1.21-4.38c0.22-0.22 0.55-0.88 0.72-1.46 0.27-0.89 0.26-1.11-0.05-1.32-0.65-0.44-2.94-0.05-4.86 0.83l-1.84 0.85 1.82 0.38c1 0.2 2.19 0.54 2.63 0.73 1.07 0.47 1.1 0.47 1.58-0.01zm-182.78-1.52c1.895-1.39 7.272-5.42 9.355-7.02 1.226-0.94 2.703-2.03 3.282-2.41 1.138-0.75 1.622-1.39 1.366-1.81-0.234-0.38-0.926 0.05-4.023 2.48-2.93 2.31-3.69 2.85-5.267 3.81-0.566 0.34-1.238 0.97-1.495 1.4-0.256 0.44-0.84 0.95-1.298 1.14-0.728 0.31-3.358 3.02-2.923 3.02 0.09 0 0.542-0.27 1.003-0.61zm9.643-2.14c1.187-0.75 1.542-1.2 0.95-1.2-0.409 0-2.571 1.83-2.179 1.84 0.112 0 0.665-0.28 1.229-0.64zm-13.017-0.93c0.263-0.29 0.41-0.6 0.327-0.68-0.251-0.25-1.25 0.4-1.25 0.82 0 0.54 0.358 0.48 0.923-0.14zm20.181-4.47c0.5-0.42 0.535-0.52 0.179-0.53-0.392 0-1.269 0.64-1.269 0.93 0 0.27 0.513 0.08 1.09-0.4zm170.11-0.47c0.15-0.4 0.55-1.32 0.89-2.05 0.33-0.74 0.85-2.22 1.15-3.3 0.31-1.08 1.04-3.27 1.63-4.86 2.69-7.23 4.46-12.81 4.46-14.06 0-1.5 0.08-1.55-8.67 5.91-1.53 1.31-3.15 2.67-3.6 3.03s-1.82 1.5-3.05 2.53c-1.23 1.04-3 2.46-3.93 3.16-3.35 2.5-8.14 6.85-8.14 7.37 0 0.83 4.35-0.05 5.75-1.16 0.5-0.4 1.47-1.13 2.15-1.64 1.18-0.87 2.74-2.26 7.73-6.85 3.4-3.13 5.7-4.37 5.7-3.05 0 0.39-3.79 3.95-8.02 7.53-3.6 3.05-4.35 3.73-4.35 3.97 0 0.12 0.47 0.35 1.05 0.51 1.75 0.47 3.18-0.34 6.06-3.45 2.42-2.62 3.67-3.56 4.37-3.29 0.81 0.31 0.24 1.21-2.66 4.22-1.67 1.73-3.03 3.24-3.03 3.35s0.33 0.38 0.72 0.59c0.4 0.21 1.14 0.8 1.64 1.32 1.09 1.14 1.76 1.21 2.15 0.22zm-22.22-1.71c0.18-0.15 0.33-0.54 0.33-0.87 0-1.34 0.96-2.86 2.5-3.94 0.82-0.58 2.64-1.94 4.04-3.03 3.59-2.78 5.37-4.16 7.15-5.53 0.85-0.65 2.11-1.7 2.81-2.33s2.05-1.72 2.99-2.42c6.76-5.05 9.68-7.42 9.93-8.06 0.08-0.21-0.15-0.7-0.51-1.09-1.62-1.77-2.29-3.74-1.27-3.74 0.91 0 1.82 0.58 2.54 1.62 1.09 1.57 1.67 1.57 3.46 0.02 0.83-0.73 1.75-1.57 2.03-1.89l0.51-0.56-1.73-1.74c-1.43-1.43-1.85-1.71-2.36-1.57-0.67 0.17-4.35 3.09-4.91 3.89-0.19 0.27-0.49 0.49-0.67 0.49-0.32 0-5.85 4.27-9.39 7.26-6.34 5.34-13.17 10.59-14.79 11.37-0.95 0.46-0.96 0.46-1.13 2.57-0.1 1.16-0.36 2.72-0.57 3.48-0.39 1.36-0.62 1.59-3.11 3.11-0.6 0.36-0.91 2.98-0.39 3.31 0.42 0.26 2.05 0.04 2.54-0.35zm-14.15-2.05c0-0.34-0.98-0.33-1.19 0.01-0.09 0.14-0.09 0.38 0 0.53 0.19 0.31 1.19-0.14 1.19-0.54zm15.19-11.94c0.31-0.55 6.27-5.38 9.84-7.97 0.42-0.31 1.45-1.16 2.29-1.87 0.83-0.72 1.94-1.59 2.46-1.94 2.29-1.52 8.66-6.89 8.66-7.29 0-0.55-3.13-3.74-3.67-3.74-0.23 0-1.14 0.57-2.04 1.25-6.38 4.87-9.94 7.6-11.53 8.87-3.09 2.45-6.81 5.27-7.64 5.79-0.44 0.27-1.47 1.08-2.31 1.8-1.19 1.03-1.51 1.46-1.51 2.07 0 0.42-0.14 0.99-0.32 1.28-0.17 0.28-0.26 0.57-0.18 0.64 0.08 0.08 0.94 0.26 1.92 0.39 0.98 0.14 2.04 0.44 2.36 0.66 0.72 0.5 1.4 0.52 1.67 0.06zm90.8-5.58c1.16-0.1 2.4-0.3 2.77-0.45 0.82-0.33 6.4-2.31 9.78-3.48 2.98-1.03 3.89-1.59 5.7-3.58 1.1-1.2 4-5.51 4-5.93 0-0.06 0.59-1.31 1.32-2.76 0.72-1.45 1.67-3.55 2.12-4.66 1.14-2.84 3.89-6.53 7.67-10.26 6.91-6.81 10.31-10.34 10.15-10.5-0.1-0.1-1.04-0.05-2.09 0.11-3.77 0.58-5.38 0.59-6.86 0.07-0.76-0.27-1.89-0.63-2.51-0.8-0.93-0.25-1.34-0.58-2.33-1.93-2.22-3.02-2.88-4.73-4.18-10.96-0.48-2.26-1.07-4.99-1.32-6.08s-0.59-3.03-0.75-4.32c-0.16-1.3-0.42-2.39-0.58-2.45-0.16-0.05-1.76 1.11-3.56 2.58-1.79 1.47-3.74 3-4.32 3.41-0.58 0.42-1.34 1.07-1.7 1.45-0.35 0.38-1.18 1.13-1.84 1.65-0.66 0.53-2.44 2.04-3.96 3.35-1.53 1.32-3.66 3.03-4.74 3.81-1.09 0.78-2.52 1.9-3.17 2.49-0.66 0.58-1.89 1.6-2.74 2.25-0.84 0.65-2.83 2.31-4.41 3.69-1.58 1.37-3.55 3.02-4.38 3.66-3.51 2.71-6.84 5.47-7.82 6.46-0.58 0.59-1.61 1.48-2.3 1.99-1.11 0.83-4.85 3.9-7.31 6.01l-0.92 0.79 0.56 1.14c0.7 1.42 1.83 4.68 2.58 7.47 1.27 4.7 3.2 7.06 8.27 10.14 1.07 0.65 2.43 1.48 3.03 1.85 2.11 1.31 3.23 1.8 6.23 2.77 3.15 1.02 5.36 1.44 6.71 1.29 0.44-0.05 1.74-0.17 2.9-0.27zm-10.21-8.55c-0.55-0.44-0.59-0.76-0.77-5.3-0.2-5.15-0.52-7.48-1.63-11.68-0.48-1.79-0.65-2.95-0.54-3.62 0.1-0.6 0.06-0.99-0.11-0.99-0.3 0-1.35 1.27-1.35 1.64 0 0.13-0.36 0.76-0.79 1.39-0.44 0.63-1.61 2.96-2.62 5.18-2.01 4.44-2.6 5.31-3.5 5.18-0.51-0.08-0.6-0.24-0.58-1.15 0.02-1.25 3.79-9.36 6.12-13.16 0.8-1.3 1.7-2.86 2.01-3.47 0.74-1.46 2.33-2.72 3.45-2.72 0.88 0 1.96-0.95 1.96-1.73 0-0.46 1.69-2.22 2.14-2.21 0.2 0 0.53 0.11 0.74 0.24 0.31 0.19 0.26 0.56-0.32 2.3-0.37 1.13-1.17 3.1-1.77 4.38-1.63 3.46-2.19 7.11-1.5 9.62 0.92 3.3 1.22 5.8 1.29 10.71 0.04 2.75-0.01 5.14-0.12 5.3-0.34 0.53-1.5 0.58-2.11 0.09zm13.17-23.36c-0.95-1.05-2.22-4.55-3.97-10.91-0.66-2.42-0.47-3.46 0.66-3.59 0.8-0.1 0.86 0.02 1.26 2.58 0.15 0.95 0.57 2.49 0.94 3.43 1.78 4.47 2.49 6.7 2.49 7.83 0 0.47-0.04 0.85-0.1 0.85-0.07 0-0.28 0.07-0.48 0.14-0.2 0.08-0.56-0.07-0.8-0.33zm-106.06 31.27c0-0.59 0.18-0.87 0.75-1.16 0.4-0.21 1.05-0.84 1.43-1.39 1.53-2.2 6.06-6.13 10.86-9.42 4.9-3.36 5.52-4.03 3.56-3.76-0.81 0.11-1.44 0.49-2.74 1.68-0.93 0.85-2.38 1.95-3.23 2.44-2.22 1.3-4.21 2.84-5.88 4.52-0.8 0.81-1.93 1.79-2.51 2.17-3.38 2.26-5.98 4.36-5.85 4.75s1.68 0.92 2.76 0.94c0.77 0.02 0.85-0.05 0.85-0.77zm5.4 0.23c0.66-0.18 1.9-1 3.29-2.18 1.23-1.04 3.37-2.72 4.74-3.72 1.38-1 3.34-2.47 4.35-3.28s2.49-1.95 3.29-2.53c3.01-2.22 3.92-2.91 5.62-4.28 0.97-0.77 1.75-1.52 1.75-1.66 0-0.92-3.42 0.04-4.98 1.41-0.55 0.48-1.98 1.64-3.19 2.58-5.67 4.42-9.02 7.01-11.44 8.82-1.45 1.08-3.26 2.48-4.03 3.09-0.76 0.62-1.65 1.33-1.97 1.58-0.59 0.45-0.58 0.45 0.47 0.46 0.57 0 1.52-0.13 2.1-0.29zm-48.91-0.91c0.33-0.22 0.59-0.56 0.59-0.76 0-0.19 0.48-0.74 1.06-1.23 2.35-1.97 3.68-3.21 3.68-3.44 0-0.57-1.43-0.05-1.82 0.66-0.39 0.69-0.9 1.13-3.85 3.31-0.66 0.5-1.32 1.12-1.46 1.39-0.23 0.42-0.16 0.48 0.48 0.48 0.41 0 1-0.18 1.32-0.41zm38.79-1.89c0.78-0.55 1.67-1.38 1.98-1.84 0.32-0.46 1.15-1.28 1.85-1.81 0.71-0.54 2.65-2.13 4.32-3.55 1.66-1.42 3.38-2.87 3.82-3.23 0.59-0.5 0.71-0.73 0.48-0.97-0.6-0.61-1.89-0.01-3.19 1.5-0.69 0.81-2.82 2.57-4.8 3.99-4.78 3.41-7.75 6.05-7.35 6.53 0.51 0.61 1.4 0.42 2.89-0.62zm-28.72-0.33c0.6-0.6 0.68-1.05 0.18-1.05-0.49 0-1.54 1.03-1.36 1.33 0.24 0.38 0.6 0.3 1.18-0.28zm22.67-0.61c0.78-0.63 2.12-1.82 2.97-2.65 0.85-0.82 2.1-1.81 2.77-2.19 0.67-0.39 1.65-1.09 2.18-1.55 0.53-0.47 1.24-1 1.58-1.17 1.42-0.74 2.35-2.1 1.43-2.1-0.21 0-1.23 0.72-2.28 1.6-1.06 0.88-2.34 1.82-2.86 2.09-1.66 0.87-3.08 1.93-5.79 4.31-1.46 1.28-2.59 2.43-2.51 2.56 0.31 0.49 1.13 0.2 2.51-0.9zm-5.06-0.72c1.57-1.82 4.32-4.42 6.07-5.73 1.02-0.76 1.86-1.51 1.86-1.64 0-0.86-3.02 0.55-3.94 1.84-0.28 0.4-1.88 1.78-3.55 3.07s-3.04 2.48-3.04 2.65c0 0.32 0.51 0.53 1.41 0.58 0.27 0.02 0.81-0.33 1.19-0.77zm-5.69-0.55c0.47-0.57 0.63-1.81 0.22-1.81-0.37 0-2.75 1.68-2.86 2.02-0.25 0.8 1.93 0.62 2.64-0.21zm-8.5-1.12c1.9-0.99 3.69-2.23 3.69-2.54 0-0.14-0.57-0.25-1.26-0.25-1.24 0-1.28 0.02-2.79 1.87-0.84 1.03-1.43 1.83-1.31 1.78 0.12-0.06 0.88-0.44 1.67-0.86zm81.2-8.2c1.51-1.15 1.81-1.66 1.4-2.38-0.7-1.26-2.42-3.01-2.93-3.01-1.03 0-3.56 2.12-3.56 2.99 0 0.59 2.81 3.3 3.45 3.32 0.23 0.01 0.97-0.41 1.64-0.92zm-11.6-1.43c2.21-1.67 2.23-1.78 0.68-3.87-1.52-2.07-1.91-2.36-2.69-2-0.7 0.32-3.33 2.67-3.33 2.97 0 0.41 3.23 3.94 3.6 3.94 0.2 0 0.99-0.46 1.74-1.04zm17.65-3.45c1.59-1.13 2.17-1.9 1.86-2.42-0.48-0.81-2.84-3.36-3.11-3.36-0.64 0-3.84 2.67-3.84 3.2 0 0.68 2.57 3.65 3.16 3.65 0.25 0 1.12-0.48 1.93-1.07zm-11.14-1.78c0.72-0.7 1.31-1.4 1.31-1.56 0-0.4-2.85-3.75-3.19-3.75-0.86 0-3.65 2.21-3.65 2.89 0 0.26 0.61 1.2 1.36 2.08 1.75 2.08 2.32 2.12 4.17 0.34zm16.49-2.73c2.08-1.59 3.78-3.21 3.78-3.6-0.02-0.58-2.55-3.72-3.01-3.72-0.36 0-4.19 3.09-4.82 3.89-0.18 0.23-0.33 0.55-0.33 0.72 0 0.45 2.78 3.29 3.22 3.29 0.22 0 0.74-0.26 1.16-0.58zm-11.73-1.2c1.38-0.93 2.87-2.37 2.87-2.77 0-0.46-2.49-3.51-3.04-3.72-0.45-0.17-4.07 2.63-4.07 3.15 0 0.6 2.63 3.8 3.12 3.8 0.24 0 0.75-0.21 1.12-0.46zm19.19-4.87c0.54-0.47 1.82-1.55 2.86-2.39 1.07-0.86 1.89-1.73 1.89-2 0-0.47-2.9-3.45-3.36-3.45-0.55 0-6.12 4.59-6.12 5.04 0 0.13 0.6 1.01 1.34 1.95 1.55 1.97 1.99 2.08 3.39 0.85zm-11.71-1.13c1.86-1.47 2.77-2.38 2.77-2.76 0-0.44-2.78-3.42-3.19-3.42-0.65 0-5.1 3.41-5.19 3.98-0.1 0.58 2.74 3.64 3.37 3.65 0.22 0 1.23-0.65 2.24-1.45zm-157.83-4.84c-0.163-1.39-0.361-4.01-0.441-5.82-0.191-4.32-0.835-10.41-1.316-12.46-0.211-0.89-0.386-2.1-0.388-2.69-0.01-2.62-1.651-9.58-2.313-9.8-0.461-0.15-1.114 1.37-1.121 2.62-0.003 0.62-0.112 1.61-0.241 2.19-0.128 0.58-0.305 2.73-0.392 4.78-0.087 2.04-0.333 4.3-0.547 5-0.213 0.7-0.39 1.52-0.392 1.8-0.003 0.29-0.176 0.86-0.386 1.26-1.023 1.96-1.152 5.49-0.265 7.25 0.242 0.48 0.54 2.01 0.666 3.42 0.125 1.41 0.232 2.58 0.237 2.61 0.006 0.03 0.813-0.02 1.794-0.1 1.674-0.14 1.837-0.1 2.657 0.59 0.481 0.4 1.174 1.21 1.539 1.78 0.596 0.95 0.693 1.01 0.935 0.58 0.184-0.33 0.176-1.28-0.026-3.01zm165.32-1.38c2.38-1.79 3.27-2.76 3.05-3.33-0.24-0.64-1.28-1.8-2.16-2.41-0.71-0.5-0.92-0.53-1.44-0.26-0.92 0.48-3.4 2.45-4.28 3.37-0.67 0.71-0.73 0.9-0.48 1.47 0.47 1.01 2.18 2.78 2.7 2.78 0.26 0 1.44-0.73 2.61-1.62zm13.32-0.24c0.87-0.73 2.14-1.8 2.83-2.38s1.25-1.2 1.25-1.37c0-0.55-2.11-3.31-2.66-3.48-0.58-0.19-1.25 0.18-3.27 1.8-1.99 1.61-3.29 2.88-3.29 3.24 0 0.51 2.68 3.52 3.14 3.52 0.23 0 1.13-0.6 2-1.33zm-4.95-6.47c2.86-2.16 3.76-2.99 3.76-3.45 0-0.56-2.64-3.23-3.2-3.23-0.26 0-0.93 0.39-1.47 0.87-0.55 0.48-1.73 1.45-2.64 2.15s-1.72 1.56-1.81 1.9c-0.25 1 1.7 3.51 2.72 3.51 0.18 0 1.37-0.79 2.64-1.75zm12.74 0.1c3.34-2.6 5.77-4.79 5.77-5.18 0-0.7-2.32-3.44-2.91-3.44-0.58 0-6.68 4.74-7.09 5.5-0.18 0.35 0.01 0.83 0.81 2.01 1.27 1.87 1.56 2.23 1.8 2.23 0.1 0 0.83-0.5 1.62-1.12zm58.29-0.33c4.05-1.53 5.28-2.48 6.85-5.27 1.69-2.99 2.03-4.28 2.89-10.79 0.23-1.74 0.54-3.44 0.69-3.79 0.35-0.8 0.15-0.98-0.67-0.61-0.4 0.19-0.66 0.52-0.66 0.85 0 1.03-1.82 4.5-3.43 6.53-2.43 3.06-4.57 4.85-6.46 5.36-5.01 1.38-8.02 1.31-8.02-0.18 0-0.5 0.46-0.74 1.84-0.95 4.99-0.78 5.98-1.13 7.99-2.79 1.4-1.17 2.57-2.82 3.85-5.43 1.1-2.28 1.02-2.63-0.65-2.86-3.63-0.52-4.43-0.73-10.33-2.77-0.62-0.21-1.3-0.56-1.52-0.78-0.63-0.63-0.48-1.82 0.31-2.44 0.89-0.7 1.46-0.69 2.38 0.07 0.87 0.72 5.74 2.37 8.33 2.82 0.99 0.17 2.42 0.25 3.16 0.18 3.52-0.36 6-0.8 7.79-1.4 1.08-0.36 2.8-0.83 3.82-1.04 2.03-0.42 3.43-0.95 4.95-1.88 1.05-0.65 1.21-1.05 1.8-4.39 0.39-2.21 0.41-2.18-2.77-3.28-2.58-0.89-4.87-1.37-6.6-1.37-0.61 0-1.63-0.18-2.26-0.41s-2.41-0.51-3.95-0.61c-3-0.21-4.18-0.66-4.18-1.61 0-0.87 0.75-1.02 3.69-0.78 3.6 0.3 4.47 0.3 4.47 0.02s-0.84-0.62-3.42-1.37c-1.09-0.32-2.75-1.04-3.7-1.6-0.95-0.55-1.92-1.01-2.15-1.01s-1.41 0.98-2.62 2.17c-2.44 2.4-6.88 6.08-9.24 7.66-1.51 1.01-3.71 2.91-7.01 6.07l-1.68 1.6 0.18 2.64c0.2 2.88 0.37 3.82 1.19 6.59 0.99 3.38 1.91 6.83 2.28 8.56 0.4 1.86 2.44 6.36 3.33 7.3 0.3 0.33 0.74 0.6 0.97 0.6 0.22 0 1.12 0.23 1.99 0.51 2.25 0.73 4.42 0.69 6.57-0.12zm14.52-26.44c-0.34-0.38-0.44-0.86-0.37-1.87l0.08-1.37-1.96-0.52c-1.09-0.28-2.1-0.61-2.24-0.72-0.46-0.35-2.8-0.84-3.29-0.68-0.67 0.21-1.78-0.28-3.37-1.47-1.53-1.16-1.61-1.43-0.95-3.43 0.54-1.65 1.3-2.14 1.99-1.29 0.26 0.32 0.48 0.92 0.48 1.32 0 0.59 0.25 0.89 1.25 1.53 2.04 1.31 3.67 1.88 11.12 3.88 2.88 0.78 4.15 1.47 4.38 2.4 0.24 0.96-0.25 1.32-1.06 0.79-1.21-0.79-2.23-0.57-3.46 0.75-1.2 1.28-1.89 1.46-2.6 0.68zm-77.29 19.92c0.95-0.76 2.46-1.94 3.35-2.63 1.15-0.88 1.63-1.43 1.63-1.84 0-0.76-1.99-3.1-2.64-3.1-0.58 0-6.73 4.57-7.11 5.29-0.2 0.36-0.16 0.71 0.12 1.25 0.44 0.87 2.12 2.42 2.6 2.41 0.17 0 1.1-0.62 2.05-1.38zm13.42-0.37c0.35-0.24 1.48-1.16 2.49-2.05 1.01-0.88 2.29-1.93 2.83-2.33 1.34-1 1.66-1.64 1.17-2.37-0.65-0.98-2.45-2.82-2.76-2.82-0.16 0-1.04 0.6-1.95 1.32-0.91 0.73-2.51 1.98-3.56 2.79-2.04 1.58-2.38 2.13-1.9 3.03 0.45 0.85 2.37 2.87 2.72 2.87 0.17 0 0.6-0.2 0.96-0.44zm-2.95-7.92c1.39-1.12 2.98-2.37 3.52-2.77 0.55-0.4 1-0.91 1-1.13 0-0.62-2.37-3.01-2.98-3.01-0.88 0-7.28 5.26-7.29 5.99 0 0.18 0.42 0.92 0.94 1.64 1.32 1.83 1.71 1.77 4.81-0.72zm14.04-1.3c2.53-1.95 4.91-4.05 5.07-4.47 0.18-0.46-2.45-3.51-3.03-3.51-0.45 0-5.62 4.06-6.65 5.21-0.71 0.8-0.41 1.6 1.13 3.04 0.72 0.67 1.36 1.23 1.43 1.23 0.06 0 0.98-0.68 2.05-1.5zm-4.89-6.09c1-0.83 2.5-2.02 3.33-2.64 0.84-0.61 1.52-1.23 1.52-1.38 0-0.4-2.39-2.88-2.78-2.88-0.45 0-6.71 4.73-6.89 5.2-0.3 0.79 1.59 3.23 2.49 3.23 0.28 0 1.33-0.69 2.33-1.53zm15.3-2.26c3.26-2.45 4.82-3.9 4.82-4.48 0-0.26-0.57-1.06-1.27-1.79-1.26-1.32-1.27-1.33-2.04-0.93-0.42 0.22-1.04 0.71-1.36 1.09s-0.75 0.68-0.95 0.68c-0.19 0-0.57 0.25-0.84 0.55-0.27 0.29-1.29 1.13-2.26 1.84-0.97 0.72-1.83 1.5-1.92 1.74-0.12 0.3 0.28 0.86 1.3 1.84 0.81 0.77 1.57 1.41 1.7 1.41 0.12 0 1.39-0.88 2.82-1.95zm-6.87-4.6c1.83-1.34 6.26-5.16 6.36-5.48 0.16-0.52-1.77-2.46-2.46-2.46-0.34 0-1.01 0.33-1.48 0.74-0.48 0.41-1.64 1.31-2.58 2-1.93 1.42-3.68 2.98-3.68 3.27 0 0.31 2.25 2.68 2.55 2.68 0.14 0 0.73-0.34 1.29-0.75zm14.8-2.12c0.97-0.5 6.11-5.15 6.11-5.53 0-0.41-1.92-2.65-2.4-2.8-0.57-0.18-1.56 0.45-3.55 2.23-0.73 0.66-1.95 1.71-2.7 2.34-0.74 0.62-1.36 1.32-1.36 1.54 0 0.4 2.31 2.71 2.71 2.72 0.12 0 0.65-0.22 1.19-0.5zm-17.06-4.25c0-0.37-0.13-0.31-0.69 0.31-0.5 0.57-0.5 0.57 0.09 0.26 0.33-0.17 0.6-0.43 0.6-0.57zm2.6-1.85c1.54-1.03 1.99-1.57 1.28-1.55-0.33 0.01-3.37 2.6-3.06 2.61 0.09 0.01 0.89-0.47 1.78-1.06zm10.1-0.18c3.7-2.68 5.47-4.27 5.47-4.94 0-0.78-1.46-2.5-2.12-2.5-0.27 0-1.77 1.01-3.33 2.25-1.57 1.24-3.2 2.52-3.63 2.85-0.74 0.57-0.76 0.64-0.42 1.45 0.31 0.74 1.7 2.13 2.15 2.14 0.08 0 0.93-0.56 1.88-1.25zm55.7-0.71c0.86-0.5 1.68-1.21 1.86-1.59 0.4-0.89 0.4-3.1-0.01-3.51-0.18-0.18-0.32-0.69-0.33-1.15-0.01-0.77-0.11-0.86-1.46-1.28-0.79-0.25-2.24-0.64-3.2-0.87-0.97-0.22-2.3-0.65-2.95-0.95-1.46-0.66-1.34-0.66-2.27 0.03-0.76 0.56-0.8 0.56-3.09 0.14-1.27-0.23-3.24-0.43-4.38-0.44-1.13 0-2.91-0.2-3.95-0.43-3.49-0.79-3.45-0.79-4.1 0.27-0.97 1.57-0.73 1.98 1.95 3.29 2.86 1.39 4.45 1.87 12.25 3.71 2.9 0.68 3.31 0.86 4.26 1.88 0.49 0.52 0.97 0.76 1.54 0.76 0.46 0 1.13 0.23 1.5 0.52s0.71 0.53 0.75 0.53c0.05 0 0.78-0.41 1.63-0.91zm-40.08-2.13c1.15-0.95 2.65-2.14 3.34-2.66 0.69-0.51 1.25-1.14 1.25-1.4 0-0.68-2.05-2.91-2.68-2.91-0.3 0-1.15 0.44-1.89 0.97-2.16 1.56-5.7 4.57-5.7 4.85 0 0.54 2.45 2.87 3.01 2.87 0.32 0 1.51-0.77 2.67-1.72zm-20.33-1.04c0.16-0.42-0.06-0.5-0.73-0.24-0.58 0.22-0.52 0.63 0.08 0.63 0.28 0 0.57-0.18 0.65-0.39zm4.33-3.53c0.16-0.49-1.98 0.71-2.17 1.22-0.1 0.25 0.2 0.18 0.95-0.24 0.61-0.34 1.16-0.78 1.22-0.98zm10.22-0.56c2.82-2.17 4.84-4.02 4.84-4.45 0-0.5-1.86-2.13-2.43-2.13-0.2 0-0.97 0.51-1.71 1.12-0.74 0.62-2.13 1.74-3.08 2.51-2.01 1.61-2.13 2.08-0.83 3.38 1.03 1.04 1.34 1 3.21-0.43zm-8.97-0.28c0.28-0.45-0.04-0.55-0.4-0.12-0.21 0.25-0.23 0.41-0.06 0.41 0.16 0 0.36-0.13 0.46-0.29zm60.37-0.91c0.32-0.65 1.23-1.8 2.03-2.54 1.71-1.59 1.8-2.14 0.62-3.78-0.67-0.93-1.17-1.29-2.57-1.82-2.57-0.98-5.02-1.72-5.66-1.73-0.3 0-1.33-0.23-2.27-0.52s-2.3-0.53-3.02-0.53c-0.73 0-2.5-0.18-3.93-0.39-1.44-0.22-3.47-0.4-4.53-0.4-1.05 0-2.77-0.18-3.83-0.4l-1.92-0.4-0.86 0.94c-0.98 1.07-1.05 1.45-0.43 2.39 0.66 1.01 3.04 2.02 8.1 3.42 1.68 0.47 2.79 1.34 2.79 2.2 0 0.72 1.27 1.35 2.4 1.17 0.49-0.07 2.07 0.05 3.52 0.28 6.16 0.95 6.72 1.13 7.29 2.39 0.26 0.57 0.63 0.8 1.42 0.89 0.15 0.01 0.53-0.51 0.85-1.17zm-19.6-9.47c-0.38-0.98 0.7-1.82 1.42-1.1 0.39 0.39 0.38 0.47-0.06 0.96-0.57 0.63-1.15 0.69-1.36 0.14zm-17.1 8.62c1.01-0.68 2.72-2.09 3.82-3.11 1.09-1.03 2.55-2.25 3.24-2.72 0.69-0.46 1.25-0.9 1.25-0.97s-0.19-0.91-0.43-1.85c-0.69-2.76-1.13-2.68-5.76 1.1-1.88 1.53-4.15 3.33-5.05 3.99-1.86 1.37-2.1 1.77-1.53 2.55 0.22 0.3 0.67 0.94 0.99 1.41 0.33 0.47 0.82 0.85 1.12 0.85 0.29 0 1.35-0.56 2.35-1.25zm-19.34-1.77c0.19-0.22 0.21-0.4 0.07-0.4-0.15 0-0.41 0.18-0.59 0.4-0.19 0.22-0.22 0.39-0.07 0.39s0.41-0.18 0.59-0.39zm34.66-1.41c-0.07-0.12-0.62-0.43-1.21-0.7-0.98-0.44-1.12-0.45-1.49-0.07-0.66 0.65-0.18 0.99 1.39 0.99 0.79 0 1.38-0.1 1.31-0.22zm-22.01-1.27c0.76-0.51 4.41-3.27 7.63-5.75 2.9-2.24 3.01-2.49 1.7-3.83-0.56-0.57-1.18-1.04-1.38-1.04-0.47 0-7.91 5.63-9.07 6.86-0.33 0.36-0.88 0.83-1.23 1.05-0.76 0.5-0.63 1.07 0.51 2.29 0.93 0.99 0.98 1 1.84 0.42zm-6.12-3.82c1.55-0.96 1.76-1.54 1.38-3.72-0.72-4.12-1.22-4.92-3.05-4.92-0.87 0-3.28 2.31-3.28 3.14 0 0.61 0.83 3.71 1.35 5.05s1.88 1.51 3.6 0.45zm7.07-4.17c4.43-3.04 5.75-4.21 5.16-4.57-0.24-0.15-1.01 0.31-2.83 1.69-0.57 0.44-1.51 1.1-2.07 1.47-1.61 1.06-2.77 2.47-2.04 2.47 0.13 0 0.93-0.48 1.78-1.06zm24.32-1.15c0-0.2-0.19-0.52-0.42-0.71-0.88-0.74-0.94-1.54-0.23-3.05 0.68-1.42 0.69-2.63 0.03-2.38-0.63 0.24-3.75 2.56-5.17 3.84-1.01 0.91-1.37 1.38-1.18 1.58 0.78 0.81 6.97 1.45 6.97 0.72zm-9.78-2.78c4.97-3.77 7.94-6.29 7.94-6.75 0-0.57-1.33-1.96-1.88-1.96-0.57 0-0.93 0.22-4.44 2.68-3.06 2.15-6.22 4.7-6.43 5.19-0.31 0.69 1.24 2.63 2.11 2.66 0.16 0 1.37-0.82 2.7-1.82zm-5.27-3.1c0.67-0.39 1.96-1.31 2.84-2.04 0.89-0.73 2.76-2.21 4.15-3.28 2.4-1.85 2.87-2.42 2.28-2.79-0.39-0.24-1.1 0.22-4.15 2.67-1.53 1.24-3.21 2.52-3.73 2.85-1.03 0.65-3.19 2.75-3.19 3.09 0 0.38 0.54 0.23 1.8-0.5zm24.01-2.7c0.11-0.77 0.46-1.15 2.37-2.59 2.15-1.62 2.62-2.07 2.63-2.49 0-0.41-1.93-2.3-2.35-2.3-0.93 0-8.71 6.36-8.71 7.12 0 0.95 1.07 1.25 4.21 1.2l1.72-0.03 0.13-0.91zm-4.33-5.8c5.02-4.06 4.75-3.79 4.39-4.59-0.44-0.96-1.47-1.4-2.13-0.92-0.28 0.2-1.73 1.25-3.23 2.32-3.07 2.2-4.45 3.4-4.45 3.87 0 0.59 1.37 1.98 1.86 1.9 0.26-0.05 1.87-1.21 3.56-2.58zm36.4-0.68c0.83-0.96 0.65-2.28-0.42-3.27-0.42-0.38-0.83-0.87-0.9-1.07-0.22-0.61-1.02 0.02-1.36 1.07-0.2 0.63-0.6 1.08-1.28 1.44-0.54 0.29-1.04 0.68-1.11 0.86-0.41 1.06 1.16 1.97 3.13 1.81 1.03-0.08 1.44-0.25 1.94-0.84zm-23.9-0.11c0.18 0 2.84-2.1 5.98-4.74 0.33-0.27 0.59-0.64 0.59-0.82 0-0.44-2.28-2.61-2.75-2.61-0.2 0-0.75 0.33-1.23 0.73-0.47 0.39-1.41 1.13-2.1 1.64-0.68 0.51-1.78 1.33-2.45 1.83-1.36 1.02-1.48 1.54-0.68 2.85 0.54 0.9 1.44 1.43 2.06 1.23 0.19-0.06 0.45-0.11 0.58-0.11zm-18.5-1.24c0.39-0.25 1.28-0.97 1.97-1.6s1.64-1.31 2.11-1.51c0.95-0.4 2.75-2.14 2.48-2.4-0.27-0.27-1.81 0.47-2.81 1.36-0.51 0.44-1.91 1.56-3.1 2.47-1.2 0.92-2.17 1.77-2.17 1.89 0 0.38 0.75 0.27 1.52-0.21zm16.42-6.21c1.79-1.34 3.29-2.63 3.33-2.87 0.11-0.53-0.92-1.54-1.57-1.54-0.81 0-6.8 4.44-6.8 5.04 0 0.29 1.33 1.81 1.58 1.81 0.12 0 1.68-1.1 3.46-2.44zm11.89-0.5c1.65-0.88 7.57-6.28 7.55-6.88 0-0.17-0.18-0.61-0.38-0.98-0.66-1.14-0.5-2.32 0.42-3.18 0.45-0.42 1.01-0.78 1.25-0.79 3.84-0.24 3.65-0.27 4.1 0.68 0.23 0.48 0.41 1 0.41 1.16s0.13 0.29 0.29 0.29c0.49 0 3.7-1.89 3.84-2.27 0.08-0.19 0.9-0.9 1.83-1.56s2.13-1.68 2.67-2.27 2.12-1.82 3.5-2.74 2.79-1.97 3.14-2.34l0.63-0.67h-0.92c-1.72 0-2.03-1.03-0.69-2.27 1.77-1.63 6.03-4.64 9.44-6.67 1.84-1.09 4.13-2.92 3.64-2.91-0.56 0.02-2.78 0.88-3.3 1.29-0.36 0.29-1.01 0.6-1.45 0.69-0.44 0.1-0.86 0.35-0.94 0.56-0.15 0.39-3.22 2.78-4.82 3.75-2.17 1.31-4.04-0.11-2.1-1.59 0.44-0.34 1.18-0.93 1.65-1.31 0.46-0.37 2.09-1.55 3.61-2.62 3.31-2.31 6.58-4.93 6.58-5.26 0-0.63-1.4-0.12-2.72 0.97-1.47 1.23-2.78 0.52-2.28-1.24 0.22-0.76 0.16-1.03-0.46-1.94-1.11-1.64-3.21-3.57-3.89-3.57-0.53 0-1.41 0.67-1.15 0.89 0.05 0.05 0.87 0.32 1.8 0.6 2.35 0.68 2.67 1.26 1.99 3.51-0.55 1.81-1.07 2.31-2.68 2.55-1.61 0.25-2.39 0.78-6.41 4.32-1.09 0.95-2.63 2.21-3.42 2.8-0.8 0.58-1.69 1.33-1.98 1.65-0.29 0.33-1.18 1.01-1.97 1.52-0.8 0.5-1.81 1.25-2.24 1.66-0.88 0.84-5.48 4.51-7.9 6.32-3.02 2.24-8.7 6.68-10.6 8.27-1.05 0.87-2.33 1.93-2.83 2.34-0.51 0.42-0.92 0.94-0.92 1.17 0 0.56 1.04 1.64 1.58 1.64 0.83 0 6.77-4.52 12.64-9.62 1.53-1.33 3.07-2.57 3.43-2.76s1.98-1.45 3.6-2.8c2.41-2.01 3.01-2.65 3.26-3.5 0.18-0.59 0.79-1.51 1.43-2.13l1.12-1.1 1.8 0.2c1.47 0.15 1.93 0.32 2.53 0.92 1.38 1.38 0.62 3.89-1.53 5.03-1.02 0.54-1.25 0.57-2.52 0.3-1.36-0.29-1.44-0.28-2.59 0.52-1.07 0.74-3.73 2.86-9.32 7.43-1.06 0.87-2.86 2.29-4 3.16-1.78 1.37-3.29 2.7-6.75 5.99-0.91 0.86-0.74 1.4 0.78 2.43 1.1 0.75 1.43 0.8 2.25 0.36zm7.21-0.98c1.14-0.42 2.67-1.07 3.42-1.45 0.74-0.38 1.45-0.69 1.57-0.69 0.13 0 0.82-0.29 1.55-0.64 0.72-0.35 2.09-0.94 3.03-1.3 4.42-1.69 7.84-3.05 8.56-3.42 0.86-0.44 5.88-2.4 9.21-3.6 1.16-0.42 2.76-1.07 3.56-1.46 1.91-0.94 14.14-5.9 14.53-5.9 0.11 0 1.1-0.41 2.18-0.91s2.47-1.08 3.09-1.29c1.65-0.57 3.64-1.74 3.64-2.15 0-0.59-1.05-1.17-1.68-0.94-0.31 0.12-1.24 0.3-2.06 0.4-1.78 0.22-6.1 1.72-8.12 2.82-1.45 0.79-6.36 2.59-7.07 2.59-0.21 0-1.6 0.6-3.09 1.32-1.49 0.73-2.82 1.32-2.97 1.32s-0.82 0.29-1.51 0.66c-0.68 0.36-1.42 0.66-1.66 0.66-0.23 0.01-0.89 0.3-1.47 0.66s-1.21 0.65-1.4 0.65-1.63 0.59-3.18 1.32c-1.56 0.72-3.06 1.32-3.34 1.32-0.28 0.01-1.1 0.3-1.82 0.66-0.73 0.36-1.55 0.65-1.82 0.65-0.28 0-1.56 0.49-2.85 1.08-1.36 0.63-2.56 1.02-2.87 0.94-0.37-0.09-0.78 0.14-1.37 0.79-0.63 0.69-1.22 1.01-2.35 1.27-1.52 0.35-2.04 0.71-5.49 3.79-0.71 0.64-1.29 1.26-1.29 1.38 0 0.42 0.98 0.24 3.07-0.53zm-22.75-2.11c1.83-1.21 3.09-2.42 3.09-2.96 0-0.42-0.59-0.23-1.48 0.5-2.64 2.16-4.58 3.89-4.58 4.08 0 0.28 0.56-0.02 2.97-1.62zm26.77-4.88c0.51-0.61 0.22-1.76-0.59-2.36-0.67-0.5-0.79-0.51-1.42-0.15-1.02 0.57-1.02 0.95 0 1.97 1 0.99 1.52 1.13 2.01 0.54zm-17.53-2.87c0.45-0.55 1.24-1.27 1.76-1.58 0.89-0.54 2.11-1.47 5.46-4.14 0.83-0.66 2.16-1.62 2.95-2.13 0.8-0.51 1.62-1.14 1.83-1.39 0.21-0.26 1.22-1.11 2.24-1.9 1.02-0.78 2.57-2.02 3.44-2.75s2.47-1.99 3.55-2.8c1.09-0.82 2.5-1.94 3.14-2.49 0.63-0.56 1.27-1.01 1.42-1.01 0.14 0 0.82-0.5 1.5-1.12 0.68-0.61 2.26-1.99 3.51-3.06 2.23-1.9 2.28-1.98 2.28-3.11 0-0.8 0.21-1.46 0.66-2.12 0.74-1.1 0.68-1.39-0.19-0.76-0.33 0.24-1.21 0.86-1.96 1.37-1.29 0.9-1.35 1-1.34 2.1 0.01 0.63-0.15 1.35-0.35 1.6-0.62 0.75-4.7 4.14-5.71 4.76-0.53 0.31-1.85 1.39-2.94 2.38-1.1 1-2.64 2.3-3.44 2.9-0.8 0.61-2.57 1.99-3.95 3.07s-3.13 2.4-3.9 2.93-1.46 1.12-1.53 1.31c-0.08 0.19-0.9 0.83-1.83 1.44-0.93 0.6-1.69 1.19-1.69 1.3 0 0.27-3.54 3.18-4.92 4.05-1.25 0.79-3.57 3.3-3.36 3.64 0.21 0.33 2.39-1.28 3.37-2.49zm27.29-11.94c0-0.53-1-1.67-1.47-1.67-0.53 0-0.67 0.83-0.24 1.49 0.49 0.74 1.71 0.87 1.71 0.18zm18.43-4.98c1.09-0.79 2.47-1.66 3.07-1.94 0.6-0.27 1.17-0.63 1.27-0.79s0.66-0.6 1.24-0.96c0.58-0.37 1-0.72 0.94-0.79-0.21-0.21-3.38 1.49-3.53 1.9-0.09 0.21-0.74 0.68-1.45 1.04-1.91 0.97-4.17 2.46-4.17 2.76 0 0.51 0.71 0.19 2.63-1.22zm-8.69-11.27c0-0.7-0.62-1.35-1.04-1.09-0.3 0.19-0.37 1.27-0.1 1.54 0.1 0.1 0.4 0.18 0.66 0.18 0.33 0 0.48-0.2 0.48-0.63zm-159.26 317.9c-0.47-0.47-0.4-1.17 0.37-3.65 0.37-1.22 0.9-3.02 1.17-3.99 0.51-1.88 1.3-7.38 1.3-9.1 0-0.56 0.48-3.35 1.05-6.19 0.58-2.84 1.06-5.85 1.07-6.69 0-0.85 0.13-2.36 0.28-3.38 0.15-1.01 0.32-2.99 0.37-4.39 0.13-3.55 0.75-4.43 3.12-4.43 1.73 0 4.01-0.81 6.11-2.18 2.05-1.33 3.14-2.69 3.36-4.21 0.08-0.54 0.39-1.33 0.69-1.75 0.41-0.57 0.54-1.17 0.54-2.38 0-0.9 0.13-2.15 0.3-2.8 0.3-1.19 0.02-7.03-0.56-11.7-0.14-1.08-0.43-3.87-0.66-6.19-0.23-2.31-0.65-5.28-0.93-6.58-0.44-2.06-1.87-9.57-2.25-11.85-0.07-0.43-0.3-1.56-0.5-2.5s-0.49-2.31-0.64-3.03c-0.78-3.83-1.67-7.66-1.86-8.02-0.11-0.22-0.46-1.59-0.78-3.04-1.22-5.63-1.4-6.36-1.88-7.64-0.28-0.72-0.93-2.44-1.45-3.82-0.52-1.37-1.16-2.85-1.42-3.29-0.26-0.43-0.61-1.22-0.78-1.75-0.32-1-5.35-11.09-7.48-14.99-0.67-1.24-1.23-2.49-1.23-2.77 0-0.27-0.24-0.89-0.52-1.36-0.5-0.81-1.84-6.93-2.66-12.13-0.36-2.28-0.27-2.75 0.63-3.32 1.03-0.65 1.72 0.66 2.27 4.28 0.65 4.28 3.08 11.58 5 15.06 0.85 1.52 1.62 3.06 1.72 3.42 0.3 1.04 2 4.27 2.66 5.06 0.33 0.4 0.68 1.11 0.79 1.58 0.1 0.48 0.68 1.87 1.29 3.1 1.03 2.09 2.24 5.1 3.71 9.22 1.26 3.56 1.69 5.19 1.82 6.98 0.08 1.01 0.37 2.55 0.64 3.42 0.58 1.83 0.13 1.73 5.17 1.1 7.21-0.91 9.91-1.3 13.16-1.9 1.89-0.34 4.32-0.7 5.4-0.79 1.09-0.09 2.63-0.35 3.43-0.58 1.49-0.42 5.54-0.89 7.62-0.88 1.5 0.01 2.31 0.6 3.21 2.31 0.38 0.73 2.04 2.72 3.72 4.45 1.66 1.73 3.66 3.9 4.44 4.84 0.78 0.93 2.24 2.56 3.24 3.62 1.01 1.07 2.07 2.33 2.37 2.82 0.81 1.34 4.49 5.55 10.74 12.31 1.12 1.21 2.42 2.72 2.89 3.36 0.46 0.64 1.09 1.41 1.39 1.71s1.23 1.4 2.05 2.44c0.83 1.04 1.63 1.97 1.77 2.06 0.53 0.33 0.3 1.68-0.36 2.12-0.56 0.36-0.75 0.36-1.52 0.04-1.12-0.47-2.17-1.55-4.52-4.66-1.04-1.37-2.9-3.63-4.13-5.02s-3.3-3.75-4.61-5.25c-1.3-1.49-2.9-3.31-3.55-4.05-0.66-0.74-1.54-1.82-1.97-2.4-0.42-0.58-1.72-2.07-2.89-3.31-1.17-1.23-2.89-3.19-3.83-4.34s-2.66-3.04-3.83-4.2c-1.16-1.16-2.78-2.85-3.59-3.76-0.82-0.9-1.7-1.65-1.97-1.66s-1.55-0.12-2.86-0.24c-2.06-0.18-2.52-0.15-3.53 0.29-1.74 0.75-4.33 1.32-7.13 1.57-1.38 0.12-3.27 0.33-4.22 0.48-0.94 0.15-2.72 0.39-3.95 0.54-1.23 0.14-3.54 0.47-5.13 0.71-1.59 0.25-3.46 0.43-4.15 0.42-1-0.02-1.25 0.06-1.25 0.41 0 0.9 0.8 4.72 1.44 6.9 0.36 1.23 0.66 2.54 0.66 2.92 0.01 0.37 0.25 1.62 0.54 2.76 0.29 1.15 0.65 3.03 0.8 4.19 0.62 4.9 0.73 5.6 1.11 6.85 0.8 2.61 1.39 7.38 2.02 16.48 0.1 1.53 0.26 2.9 0.35 3.04 0.08 0.14 0.04 2.38-0.1 4.98-0.2 3.75-0.35 4.85-0.71 5.35-0.24 0.34-0.74 1.13-1.1 1.74-1.48 2.52-2.4 3.74-3.48 4.63-2.04 1.68-4.73 3.13-7.19 3.87-1.4 0.43-1.9 1.55-2.1 4.75-0.09 1.55-0.29 3.65-0.45 4.67-0.15 1.01-0.26 2.2-0.24 2.63 0.04 0.95-0.71 5.28-1.06 6.15-0.13 0.34-0.42 2.41-0.64 4.61-0.35 3.63-0.88 6.57-1.84 10.38-0.26 1.01-0.28 1.59-0.08 2.17 0.41 1.18 0.08 2.01-1.14 2.9-1.14 0.82-2.5 1.03-3.06 0.47zm-232.32-12.25c-0.738-0.27-1.316-0.95-1.316-1.54 0-0.32 0.389-1.16 0.865-1.86 0.475-0.71 1.089-1.82 1.364-2.47 1.212-2.87 4.179-6.98 6.561-9.09 0.968-0.85 1.809-1.79 1.869-2.09s0.348-1.66 0.639-3.04c0.292-1.38 0.637-3.15 0.767-3.95 0.702-4.3 2.119-10.51 3.518-15.41 1.551-5.42 2.277-7.36 4.94-13.16 0.731-1.6 1.331-3.22 1.332-3.62 0.003-1.02-0.895-1.17-2.949-0.5-0.912 0.29-2.309 0.65-3.106 0.8-2.839 0.52-6.323 1.32-6.785 1.57-0.259 0.14-1.238 0.39-2.175 0.56-0.938 0.17-2.239 0.46-2.89 0.65-0.652 0.19-2.133 0.54-3.292 0.78s-2.64 0.61-3.292 0.81c-4.8955 1.52-7.3515 2.05-9.622 2.08-2.9451 0.03-3.808-0.38-3.808-1.83 0-1.76 1.4498-2.54 5.9958-3.24 1.0528-0.17 2.4156-0.3 3.0284-0.3 0.6129-0.01 3.0108-0.31 5.3278-0.68s5.635-0.89 7.373-1.16 4.582-0.9 6.321-1.4c1.738-0.5 4.048-1.1 5.135-1.34 1.086-0.24 2.508-0.57 3.16-0.74 0.651-0.16 1.777-0.36 2.501-0.45l1.317-0.16 1.58-3.16c3.809-7.64 6.733-10.64 8.572-8.8 0.659 0.65 0.501 1.37-0.553 2.48-0.409 0.44-0.978 1.34-1.263 2.01-0.288 0.67-0.897 1.48-1.37 1.82-0.921 0.66-3.491 5.7-5.367 10.53-0.534 1.37-1.425 3.45-1.98 4.6-0.554 1.16-1.095 2.41-1.201 2.77s-0.492 1.37-0.857 2.24c-0.366 0.87-1.166 3.53-1.779 5.92s-1.407 5.41-1.765 6.72c-0.638 2.33-1.129 4.64-2.043 9.61-0.253 1.38-0.704 3.41-1.004 4.51-0.299 1.11-0.53 2.53-0.514 3.16 0.049 1.86-0.828 3.01-3.072 4.03-2.179 0.99-2.83 1.73-4.535 5.17-0.798 1.6-1.192 2.75-1.245 3.63-0.042 0.7-0.306 1.67-0.587 2.16-0.421 0.72-0.766 0.93-1.956 1.21-0.795 0.18-1.445 0.33-1.445 0.32 0 0-0.177-0.07-0.395-0.15zm97.63-154.71c-1.11-0.82-2.67-6.85-3.08-11.93-0.15-1.88-0.34-3.84-0.41-4.34-0.07-0.51-0.19-2.28-0.27-3.93-0.08-1.66-0.22-3.12-0.3-3.26-0.09-0.14-0.14-3.59-0.12-7.66 0.04-7.12 0.39-12.63 1.21-18.99 0.2-1.6 0.5-4.14 0.66-5.66s0.4-3.36 0.54-4.09c0.14-0.72 0.49-3.5 0.78-6.18 0.54-4.94 1.18-8.71 1.62-9.55 0.29-0.55 0.84-0.6 1.25-0.1 0.22 0.26 0.16 1.59-0.23 5.2-0.29 2.66-0.66 5.53-0.81 6.37-0.31 1.76-0.71 4.7-1.01 7.56-0.11 1.08-0.4 3.22-0.63 4.74-1.16 7.59-1.65 21.62-1 28.96 0.15 1.67 0.4 4.81 0.56 6.98 0.37 5.04 0.89 8.69 1.42 9.93 0.23 0.54 0.42 1.21 0.42 1.48s0.3 1.06 0.67 1.76c0.86 1.62 0.8 2.86-0.15 2.97-0.36 0.04-0.86-0.07-1.12-0.26zm13.59-0.25c-0.7-0.35-1.12-1.26-1.31-2.82-0.08-0.67-0.32-2.08-0.54-3.12-0.31-1.5-0.33-2.18-0.11-3.24 0.16-0.74 0.3-2.31 0.3-3.5 0.01-1.19 0.13-2.75 0.27-3.47 0.14-0.73 0.41-2.27 0.61-3.43 0.45-2.67 1.34-6.47 2.19-9.35 0.9-3.02 1.31-4.64 1.52-6.05 0.19-1.23 1.56-5.81 1.98-6.58 0.13-0.24 0.54-1.74 0.9-3.32 0.61-2.64 1.41-4.7 4.55-11.83 0.58-1.3 1.36-3.38 1.74-4.61s1.3-3.72 2.03-5.53c1.97-4.82 4.36-12.11 5.01-15.27 0.32-1.52 1.04-4.15 1.6-5.84 0.95-2.87 1.81-6.41 2.22-9.17 0.18-1.17 0.35-1.86 1.97-8.03 0.53-2.02 0.86-3.97 0.91-5.4 0.05-1.23 0.28-3.13 0.52-4.22 0.24-1.08 0.54-2.56 0.68-3.29 0.13-0.72 0.49-2.2 0.79-3.29 0.31-1.08 0.84-3.4 1.18-5.13 0.83-4.21 1.62-7.21 2.11-7.96 0.22-0.33 0.52-1.58 0.67-2.78 0.15-1.19 0.32-2.35 0.38-2.56 0.07-0.22 0.24-1.29 0.38-2.37 0.15-1.09 0.41-2.72 0.59-3.63 0.37-1.93 0.13-2.43-0.88-1.88-0.34 0.18-2.44 0.48-4.66 0.65-6.6 0.52-6.76 0.4-6.94-5.47-0.11-3.73-0.18-4.12-0.83-5.34-0.38-0.72-0.7-1.5-0.7-1.73 0-0.85-1.34-3.78-2.32-5.09-1.44-1.91-3.3-5.23-4.22-7.53-0.44-1.09-1.18-2.68-1.65-3.54s-1-2.16-1.18-2.9c-0.18-0.73-0.69-2.69-1.14-4.36-1.22-4.56-1.02-7.14 0.56-7.32 0.8-0.1 1.13 0.55 1.03 2.05-0.07 1.21 0.81 4.7 1.78 7 1.4 3.34 3.92 8.82 4.7 10.25 0.24 0.44 0.83 1.6 1.31 2.58s1.32 2.37 1.86 3.08c1.21 1.58 2.43 3.54 2.43 3.88 0 0.14 0.34 0.72 0.74 1.29 0.73 1.01 0.74 1.07 0.8 5.37 0.03 2.39 0.12 4.55 0.2 4.8 0.11 0.35 0.43 0.46 1.31 0.46 1.36 0 5.88-0.65 7.22-1.04 1.49-0.44 2.74-0.33 3.4 0.29 0.43 0.39 0.55 0.71 0.42 1.11-0.49 1.51-1.37 8.5-1.11 8.76 0.07 0.07 0.83 0.01 1.69-0.13 1.12-0.18 2.13-0.15 3.52 0.09 2.14 0.36 2.97 0.28 7.23-0.7 2.27-0.53 2.64-0.69 2.71-1.19 0.06-0.41-0.14-0.69-0.71-0.98-0.44-0.23-0.95-0.41-1.15-0.41-0.19 0-1.27-0.58-2.39-1.29s-2.54-1.41-3.16-1.57c-2.25-0.57-3-2.47-1.1-2.82 1.55-0.29 3.39 0.35 5.87 2.04 1.25 0.86 3.81 2.06 4.4 2.06 0.21 0 0.87-0.65 1.47-1.45 0.6-0.79 1.68-1.87 2.41-2.39l1.32-0.95-0.16-1.21c-0.27-1.91-1.28-3.77-3.3-6.07-1.58-1.79-2.09-2.2-3.16-2.52-0.7-0.2-1.62-0.55-2.03-0.76-0.42-0.21-1.35-0.47-2.08-0.57-0.72-0.11-2.3-0.61-3.5-1.13l-2.18-0.93-0.64 0.6c-0.84 0.79-2.24 0.58-3.53-0.53-0.52-0.44-1.6-1.3-2.4-1.92-2.09-1.6-3.7-2.93-6.44-5.32-1.34-1.17-3.55-2.75-4.98-3.56-4.95-2.78-6.21-3.98-9.42-9.01-0.67-1.05-1.31-2.21-1.41-2.57-0.11-0.37-0.49-1.24-0.84-1.95-0.77-1.53-0.67-2.55 0.35-3.62l0.68-0.71-0.42-2.9c-0.23-1.6-0.42-3.32-0.42-3.83s-0.13-1.53-0.29-2.26c-0.28-1.29-0.34-1.37-1.91-2.15-2.54-1.28-2.92-1.65-3.95-3.79-0.93-1.927-1.56-4.615-2.26-9.617-0.13-0.934-0.55-3.654-0.94-6.044-0.47-2.918-0.64-4.788-0.53-5.694 0.15-1.255 0.12-1.358-0.45-1.488-0.97-0.223-3.37-1.184-4.03-1.617-0.33-0.22-0.69-0.789-0.79-1.264-0.09-0.476-0.46-1.596-0.81-2.49-0.73-1.86-0.8-3.24-0.25-4.791 0.33-0.955 0.33-1.199-0.02-2.033-0.52-1.261-0.09-3.509 0.97-5.015 0.7-1.009 0.75-1.208 0.6-2.789-0.17-1.769 0.13-3.192 0.92-4.419 0.31-0.482 0.42-1.33 0.43-3.16 0.01-2.195 0.1-2.663 0.72-3.819 0.54-1.018 0.74-1.853 0.88-3.686 0.12-1.654 0.36-2.729 0.77-3.555 0.36-0.723 0.65-1.885 0.73-2.98 0.11-1.375 0.32-2.088 0.93-3.057 0.64-1.033 0.83-1.717 1.04-3.77 0.23-2.19 0.37-2.658 1.11-3.698 0.62-0.861 0.81-1.348 0.68-1.758-0.3-0.942 0.38-3.083 1.4-4.417 0.91-1.191 0.96-1.36 0.97-3.283 0.01-1.856 0.08-2.109 0.81-3.009 0.43-0.541 1.19-1.118 1.68-1.283 0.81-0.272 0.92-0.435 1.18-1.7541 0.26-1.263 0.55-1.735 2.23-3.5854 1.06-1.172 2.24-2.2495 2.62-2.3945 1.34-0.5108 1.81-0.573 2.47-0.3237 0.51 0.1951 1.03 0.102 2.31-0.413 1.69-0.6836 2.34-0.6927 3.89-0.0549 0.81 0.3299 0.91 0.3138 1.32-0.2086 1.16-1.4788 3.2-2.0096 5.29-1.3813 0.85 0.2531 1.11 0.206 2.24-0.39498 1.57-0.83255 2.53-0.85974 3.87-0.10907l1.02 0.57325 1.28-0.59989c1.41-0.66235 3.41-0.66984 4.94-0.01855 0.73 0.30874 0.95 0.28364 2-0.22593l1.19-0.57333 1.77 0.54884c1.66 0.51056 1.84 0.51996 2.65 0.13559 1.42-0.67525 3.57-0.36839 4.48 0.64157 0.54 0.6012 2.16 0.7082 3.52 0.2332 1.38-0.4819 3.01-0.0788 4.43 1.1015 1.22 1.0094 1.31 1.0385 2.72 0.8803 1.81-0.2045 3.4 0.2065 4.83 1.2507 1.03 0.7541 1.19 0.7907 2.83 0.6427 1.99-0.1787 3.08 0.107 4.45 1.1592 0.71 0.5467 1.33 0.7469 2.69 0.87 1.9 0.1712 3.24 0.7057 3.91 1.5556 0.3 0.3759 0.82 0.5552 1.79 0.6234 0.86 0.0606 2.07 0.4364 3.29 1.0244 1.07 0.51 2.04 0.936 2.17 0.947 0.13 0.01 1.01 0.58 1.95 1.265 2.08 1.516 3.42 3.538 3.42 5.166 0 0.591 0.38 2.137 0.84 3.435 0.69 1.923 0.85 2.775 0.86 4.598 0.02 1.735 0.13 2.404 0.52 2.975 0.43 0.641 0.47 1.048 0.32 3.108-0.14 2.072-0.1 2.46 0.33 3.082 0.79 1.121 1.24 4.645 0.84 6.549-0.32 1.491-0.3 1.653 0.5 3.952l0.84 2.396-0.65 1.807c-0.61 1.725-0.62 1.857-0.23 2.92 0.35 0.941 0.37 1.469 0.12 3.423-0.29 2.273-0.28 2.322 0.35 2.989 1.23 1.304 1.55 4.48 0.65 6.455-0.44 0.976-0.45 1.16-0.1 1.975 0.52 1.198 0.3 3.603-0.45 5.048-0.45 0.863-0.55 1.389-0.44 2.336 0.08 0.704-0.01 1.822-0.23 2.636-0.21 0.776-0.38 1.945-0.39 2.597-0.02 1.735-0.63 3.187-1.7 4.047-0.52 0.416-1.25 1.404-1.62 2.197-0.38 0.793-1.3 2.133-2.05 2.978-2.3 2.578-3.6 5.503-4.48 10.133-0.61 3.189-1.6 5.489-2.92 6.819-1 0.99-1.31 1.61-2.45 4.93-1.73 5.02-2.09 5.8-3.86 8.41-0.83 1.22-1.73 2.64-2.01 3.15-0.28 0.5-1.04 1.63-1.68 2.5s-1.37 1.96-1.61 2.42c-0.4 0.75-0.41 0.9-0.05 1.45 0.22 0.33 0.48 1.2 0.59 1.92 0.21 1.37 0.92 3.01 1.51 3.46 0.19 0.15 1.42 0.65 2.72 1.13 1.3 0.47 2.96 1.08 3.69 1.35 0.72 0.27 1.67 0.57 2.1 0.67 1.1 0.25 6.06 2.67 7.57 3.69 0.69 0.47 1.61 0.93 2.04 1.02 0.43 0.1 1.11 0.52 1.51 0.95 0.57 0.6 0.96 0.77 1.79 0.77 0.63 0 1.89 0.38 3.16 0.95 2.21 0.99 5.24 2.3 7.9 3.43 0.87 0.36 2.52 1.13 3.68 1.7s2.52 1.11 3.03 1.19c1.4 0.23 4.24 1.18 5.13 1.72 1.25 0.76 1.91 0.64 2.36-0.43 0.61-1.46 1.41-1.67 3.15-0.82 2.55 1.25 5.26 3.2 6.57 4.74 1.73 2.03 6.2 9.63 6.8 11.57 0.27 0.87 0.73 1.96 1.02 2.43 0.52 0.84 0.95 1.97 2.09 5.51 0.33 1.02 0.95 2.79 1.39 3.95 2.71 7.19 4.63 13.52 4.27 14.1-0.17 0.29 0.31 6.32 0.68 8.47 0.44 2.55 2.77 8.37 4.19 10.48 0.44 0.65 0.87 1.6 0.97 2.11 0.09 0.51 0.43 1.46 0.76 2.11 0.52 1.05 1.18 4.01 1.97 8.95 0.13 0.8 0.41 1.88 0.63 2.4 0.21 0.51 0.47 1.87 0.58 3.02 0.1 1.15 0.53 3.08 0.96 4.32 1.23 3.57 1.27 4.96 0.17 5.55-1.54 0.82-2.33-0.32-3.52-5.07-0.38-1.49-0.85-3.31-1.05-4.03-0.21-0.73-0.45-1.79-0.54-2.37s-0.33-1.83-0.53-2.77-0.56-2.84-0.8-4.21c-0.44-2.5-1.36-5.48-2.16-6.98-0.23-0.43-0.7-1.32-1.04-1.97-0.34-0.66-0.72-1.37-0.84-1.58-0.13-0.22-0.83-1.66-1.57-3.21-1.86-3.92-2.41-6.24-2.41-10.27-0.01-4.12-0.45-6.57-1.98-11.02-1.14-3.32-1.66-4.96-3.42-10.92-0.39-1.31-0.94-2.97-1.23-3.69s-0.82-2.08-1.17-3.01c-0.71-1.91-2.59-5.53-3.79-7.3-0.44-0.65-1.02-1.63-1.29-2.16-0.71-1.38-2.34-3.29-3.58-4.19-1.77-1.28-3.52-2.22-3.81-2.04-0.15 0.09-0.27 0.55-0.27 1.03 0 1.68-1.38 2.11-3.42 1.08-0.36-0.19-3.03-1.17-5.93-2.19-5.32-1.88-6.96-2.51-10.79-4.12-1.16-0.49-3.53-1.45-5.27-2.13-3.2-1.26-7.88-3.49-9.09-4.33-1.33-0.94-9.67-4.89-10.65-5.05-0.44-0.07-0.55 0.12-0.71 1.2-0.1 0.71-0.37 1.47-0.59 1.69-0.35 0.35-0.46 0.35-1.05-0.04-0.36-0.23-0.96-0.82-1.33-1.31-0.65-0.86-2.9-5.84-3.56-7.88-0.71-2.2-1.48-1.37-1.73 1.86-0.09 1.26-0.35 2.98-0.56 3.83s-0.41 2.39-0.44 3.41l-0.05 1.87 2.37 0.98c3.02 1.24 4.71 2.57 6.92 5.42 0.97 1.26 2.48 3.07 3.35 4.03 0.87 0.95 1.79 2.09 2.04 2.51 1.64 2.75 2.47 3.93 3.88 5.48 0.87 0.97 1.59 1.92 1.59 2.11 0 0.6-0.93 1.22-1.83 1.22-0.73 0-1.14-0.29-2.52-1.73-0.91-0.94-2.42-2.87-3.37-4.28-0.95-1.4-1.95-2.79-2.22-3.08s-1.57-1.95-2.9-3.7c-1.64-2.15-2.88-3.5-3.83-4.15-0.78-0.53-1.5-0.97-1.61-0.97-0.25 0 0.04 2.57 0.51 4.48 0.19 0.79 0.49 2.63 0.65 4.08s0.41 3.08 0.55 3.62c0.34 1.31-0.18 9.8-0.73 11.92-0.22 0.87-0.63 2.02-0.9 2.55-0.63 1.24-0.63 1.26 0.13 1.26 1.04 0 1.3 0.57 0.98 2.16-0.16 0.77-0.46 3.89-0.68 6.93s-0.46 6.3-0.54 7.24c-0.16 2.04-0.23 8.17-0.17 15.41 0.05 6.82-0.14 12.55-0.46 14.26-0.15 0.76-0.2 1.95-0.11 2.66 0.09 0.8 0 1.83-0.25 2.72-0.22 0.78-0.47 2.85-0.56 4.58-0.17 3.25-0.62 6.32-1.48 10.01-0.27 1.16-0.62 3.41-0.78 5-0.16 1.6-0.51 3.67-0.78 4.61-0.57 2.02-0.99 6.15-1.22 11.98-0.09 2.32-0.3 4.93-0.47 5.8-0.44 2.33-0.34 10.23 0.18 14.09 0.41 3.03 1.01 8.81 1.01 9.74 0 0.41 0.55 2.26 1.18 4.02 0.52 1.44 0.46 2.73-0.17 3.35-1.06 1.07-2.21 0.35-2.97-1.84-1.63-4.7-2.21-8.1-2.95-17.25-0.37-4.53-0.25-8.96 0.4-14.94 0.36-3.29 0.75-7.57 1.05-11.39 0.26-3.19 0.54-5.21 1.55-11.19 0.31-1.81 0.8-4.66 1.08-6.32 0.28-1.67 0.7-4.51 0.92-6.32 0.23-1.81 0.53-4.13 0.66-5.14 0.44-3.22 0.84-11.86 0.94-20.01 0.05-4.35 0.21-9.15 0.36-10.67 0.14-1.52 0.38-4.17 0.53-5.9 0.15-1.72 0.4-3.85 0.54-4.74 0.33-2.06 0.34-5.16 0.01-5.16-0.14 0-0.45 0.39-0.69 0.86s-0.66 1.1-0.93 1.39c-0.55 0.61-2.08 4.81-2.08 5.73 0 0.33-0.58 1.78-1.29 3.23-0.86 1.73-1.45 3.39-1.75 4.86-0.24 1.23-0.73 2.99-1.07 3.91-0.76 2.05-0.81 2.76-0.17 2.56 0.93-0.29 1.05 0.17 1.23 4.98 0.34 8.64 0.46 27.84 0.19 30.91-0.26 3.12-0.54 3.86-1.19 3.18-0.3-0.31-0.4-2.94-0.53-14.47-0.17-15.71-0.37-22.14-0.69-22.48-0.26-0.28-0.67 0.47-1.34 2.42-0.28 0.81-1.34 2.99-2.36 4.84-1.57 2.85-1.82 3.49-1.69 4.22 0.09 0.48 0.06 1.16-0.08 1.52-0.23 0.61-0.09 8.36 0.38 21.59 0.38 10.67 0.28 14.29-0.48 17.45-0.14 0.58-0.39 0.99-0.62 0.99-0.21 0-0.4-0.09-0.41-0.2s-0.04-5.08-0.07-11.05c-0.03-5.96-0.15-10.94-0.26-11.06-0.12-0.11-0.5 0.11-0.83 0.51-0.68 0.79-0.77 1.31-1.2 7.31-0.15 2.1-0.38 4.47-0.51 5.27s-0.39 2.4-0.58 3.55c-0.19 1.19-0.34 4.13-0.33 6.72 0 3.85 0.08 4.75 0.46 5.46 0.49 0.91 1.22 1.12 1.74 0.49 0.16-0.2 1.1-0.9 2.07-1.56 0.98-0.65 2.66-2.03 3.75-3.05 1.92-1.81 2.89-2.3 2.89-1.45 0 1.05-2.09 3.47-4.34 5.01-0.73 0.49-1.97 1.42-2.77 2.07-0.79 0.64-1.81 1.3-2.26 1.45-0.66 0.23-0.93 0.58-1.44 1.9-0.69 1.73-1.62 2.65-2.69 2.65-0.85 0-3.94-2.4-4.17-3.24-0.42-1.51-0.23-2.92 0.65-4.82 0.96-2.09 1.95-3.07 3.09-3.07 0.4 0 0.81-0.11 0.9-0.26 0.09-0.14 0.27-1.71 0.41-3.49 0.14-1.77 0.54-5.3 0.9-7.83 0.35-2.54 0.68-6.08 0.72-7.87 0.08-3.52 0.08-3.52-1.42-3.84-0.82-0.17-2.25-1.87-2.74-3.26l-0.33-0.97-0.45 1.06c-0.46 1.09-1.26 4.56-1.71 7.5-0.15 0.94-0.38 2.13-0.51 2.64-0.13 0.5-0.37 2.93-0.53 5.39-0.16 2.47-0.4 5.02-0.53 5.68-0.42 2.16 0.02 13.02 0.85 20.92 0.43 4.11 0.34 11.04-0.16 13.43-0.22 1.02-0.53 2.73-0.69 3.82-0.71 4.76-1.11 6.49-1.73 7.43-0.35 0.54-0.64 1.14-0.64 1.32 0 0.75-1.05 2.05-1.66 2.05-1.44 0-1.56-1-0.47-3.74 0.44-1.08 0.96-3.14 1.19-4.69 0.23-1.52 0.69-4.31 1.02-6.19 0.52-2.91 0.6-4.21 0.57-8.69-0.04-3.85-0.16-5.75-0.48-7.06s-0.4-2.49-0.3-4.35c0.08-1.46 0-3.36-0.18-4.45-0.25-1.5-0.25-2.91 0.02-6.71 0.19-2.65 0.43-6.67 0.55-8.94 0.11-2.27 0.28-4.24 0.36-4.38 0.48-0.77 0.73-4.91 0.71-11.51-0.05-9.94 0.52-16.75 1.45-17.52 0.54-0.45 0.46-1.28-0.22-2.42-0.32-0.54-1.28-2.2-2.14-3.69-1.8-3.16-3.21-5.39-3.86-6.13-0.25-0.29-1.02-1.62-1.7-2.96-1.89-3.73-1.93-3.66-2.49 4.15-0.5 7.09-0.56 9.57-0.7 26.6-0.21 26.85-0.33 31.22-0.91 32.15-0.5 0.82-0.64-0.4-0.67-5.91-0.02-3.21-0.11-11.46-0.19-18.34-0.14-12.79 0.15-31.02 0.62-38.02 0.25-3.8 0.28-3.94 1.04-4.81 0.91-1.03 0.93-0.91-0.86-4.48-0.64-1.28-1.25-2.71-1.35-3.17-0.23-1.07-0.84-1.64-1.02-0.95-0.5 1.9-1.39 6.1-2.16 10.23-0.3 1.65-0.37 2.67-0.21 3.29 0.13 0.5 0.27 4.82 0.3 9.6 0.04 4.78 0.27 15.44 0.5 23.7 0.55 19.92 0.46 24.58-0.49 23.63-0.37-0.37-0.7-4.45-0.87-10.86-0.08-3.11-0.21-6.61-0.28-7.77-0.08-1.16-0.26-6.02-0.41-10.8-0.54-17.11-0.47-15.93-1.02-15.93-0.35 0-1.11 2.37-1.31 4.08-0.11 0.87-0.75 2.98-1.42 4.69-0.68 1.7-1.24 3.23-1.24 3.4 0 0.16 0.2 0.52 0.44 0.78 0.39 0.43 0.4 0.68 0.1 2.36-0.23 1.32-0.29 3.24-0.17 6.39 0.08 2.48 0.23 9.01 0.31 14.51 0.09 5.5 0.26 11.07 0.37 12.38 0.26 2.89 0.07 10.47-0.3 11.65-0.25 0.83-0.81 1.12-1.14 0.6-0.08-0.14-0.21-2.54-0.27-5.33-0.07-2.79-0.17-6.86-0.24-9.03s-0.25-8.45-0.41-13.96c-0.28-10.09-0.41-11.97-0.76-11.55-0.27 0.31-2.05 5.21-2.39 6.58-0.37 1.45-0.39 21.56-0.03 23.67 0.15 0.87 0.28 2.14 0.28 2.83s0.34 2.88 0.77 4.88c0.79 3.76 0.8 4.91 0.02 5.32-1.18 0.64-1.78-1.16-2.62-7.82-0.4-3.21-0.54-5.88-0.56-10.79-0.01-3.59-0.08-7.42-0.17-8.5l-0.15-1.96-0.88 1.04c-0.48 0.58-0.95 1.46-1.04 1.97-0.2 1.17-1.06 3.54-1.7 4.74-0.68 1.24-2.89 6.5-2.89 6.86 0 0.16-0.57 2.03-1.28 4.15-0.73 2.21-1.36 4.64-1.46 5.67-0.1 1-0.47 2.53-0.82 3.41-0.36 0.87-0.65 1.84-0.66 2.14 0 0.3-0.37 1.97-0.82 3.7-0.44 1.74-0.92 3.76-1.06 4.48-0.14 0.73-0.37 1.79-0.51 2.37-0.38 1.5-0.83 6.17-0.86 8.96-0.05 4.24 0.14 5.96 0.81 7.45 0.6 1.31 0.61 1.45 0.22 2.05-0.45 0.68-1.41 0.81-2.42 0.33zm51.13-40c0.19-0.6-0.07-2.51-0.44-3.21-0.65-1.24-2.24 0.19-1.92 1.73 0.09 0.46 0.34 1.1 0.55 1.43 0.48 0.76 1.58 0.79 1.81 0.05zm2.33-34.11c0.35-2.12-0.69-3.81-1.6-2.59-0.78 1.04 0.12 4.3 1.09 3.98 0.16-0.05 0.38-0.68 0.51-1.39zm-6.04-6.51c0.8-1.21 1.75-2.35 2.11-2.54s0.71-0.5 0.78-0.69c0.17-0.45-2.9-6.6-3.38-6.79-0.62-0.23-0.84 0.97-1.18 6.15-0.21 3.27-0.15 6.06 0.13 6.06 0.04 0 0.74-0.99 1.54-2.19zm9.13 1.86c0.01-0.18-0.01-1.58-0.05-3.1s-0.08-3.55-0.09-4.52c-0.01-0.96-0.1-1.83-0.19-1.93-0.1-0.1-0.37 0.44-0.6 1.21-0.47 1.61-0.57 7.34-0.14 8.16 0.31 0.56 1.03 0.69 1.07 0.18zm-4.04-1.44c0.85-0.15 0.86-0.15 0.86-1.71 0-1.35-0.07-1.55-0.46-1.48-0.48 0.09-2.18 2.68-2.18 3.33 0 0.24 0.16 0.3 0.46 0.18 0.26-0.1 0.85-0.24 1.32-0.32zm0.95-10.36c0.59-0.94 1.55-2.65 2.15-3.81s1.34-2.58 1.64-3.16 0.87-1.82 1.26-2.76c0.4-0.94 1.24-2.8 1.86-4.12 0.63-1.33 1.29-2.94 1.46-3.59 0.29-1.06 0.27-1.24-0.22-1.86-0.58-0.74-0.6-0.39 0.32-5.76 0.79-4.58 0.59-14.32-0.45-22.33-0.38-2.84-0.42-8.34-0.1-10.6 0.16-1.09 0.14-1.51-0.08-1.51-0.16 0-1.01 0.44-1.88 0.99-1.3 0.8-1.93 1.48-3.51 3.75-1.9 2.73-3.17 5.06-4.01 7.37-1.1 3.02-1.36 3.64-2.07 4.82-0.66 1.13-1.73 4.43-1.73 5.37 0 0.19-0.52 1.5-1.15 2.91-0.64 1.41-1.7 3.97-2.37 5.67-0.67 1.71-1.79 3.96-2.5 5.01-1.69 2.51-2.15 3.43-2.13 4.32 0.01 1.12 0.83 3.24 1.74 4.48 0.45 0.62 1.51 2.28 2.35 3.69 0.84 1.42 2.04 3.4 2.66 4.42 0.63 1.01 1.47 2.49 1.88 3.29 1.18 2.3 3.22 5.3 3.54 5.2 0.16-0.05 0.76-0.86 1.34-1.79zm-14.29-23.18c0.24-0.5 0.79-1.67 1.24-2.62 0.89-1.88 2.98-7.16 3.49-8.82 0.18-0.58 0.49-1.38 0.69-1.78s0.67-1.77 1.03-3.03c0.37-1.26 1.19-3.43 1.83-4.82 1.52-3.25 1.52-3.5 0.06-3.27-0.62 0.09-1.75 0.37-2.52 0.6-1.22 0.37-1.65 0.38-3.55 0.08-1.19-0.19-2.81-0.43-3.61-0.53-0.8-0.09-1.73-0.33-2.07-0.52-0.34-0.18-0.71-0.24-0.82-0.12-0.21 0.24-0.85 4.47-1.35 8.92-0.16 1.44-0.39 2.83-0.53 3.07-0.13 0.25-0.23 0.79-0.23 1.22 0 0.93 1.66 5.43 3.3 8.95 1.94 4.14 2.24 4.4 3.04 2.67zm28.29-10.58c0.72-1.42 2.11-4.15 3.09-6.07 0.98-1.91 1.95-4.17 2.16-5.01s0.47-3.33 0.57-5.53c0.2-4.62 0.28-4.37-2.89-9.26-3.22-4.98-3.81-5.62-4.88-5.28-0.74 0.23-1.35 2.25-1.35 4.47 0 1.02-0.12 2.28-0.26 2.78-0.58 2.03-0.59 5.56-0.03 9.72 0.31 2.23 0.56 4.78 0.56 5.67s0.19 3.04 0.42 4.77c0.25 1.87 0.37 4.13 0.3 5.58-0.07 1.33-0.05 2.5 0.04 2.59s0.34-0.29 0.55-0.84c0.22-0.55 0.99-2.17 1.72-3.59zm5.06-28.57c-0.07-0.4-0.28-1.67-0.47-2.83-0.42-2.68-1.13-4.3-2.02-4.64-1.07-0.4-1.2-0.02-0.9 2.51 0.22 1.78 0.44 2.48 1 3.25 1.02 1.39 1.99 2.43 2.28 2.43 0.13 0 0.18-0.33 0.11-0.72zm-9.36-2.18c0.55-0.79 1-1.74 1.01-2.1 0-0.92 0.24-1.2 1.38-1.67l1-0.42-0.07-3.63c-0.07-3.11-0.14-3.64-0.51-3.71-0.32-0.06-0.61 0.41-1.14 1.84-1.2 3.25-1.87 4.51-3.3 6.28-1.76 2.17-2.23 3.21-1.81 4.01 0.43 0.81 0.76 1 1.66 0.92 0.61-0.05 0.99-0.38 1.78-1.52zm-3.67-3.91c0.73-0.88 1.39-2.35 1.16-2.59-0.09-0.09-0.77 0.03-1.52 0.27-0.74 0.24-1.69 0.44-2.11 0.44-0.95 0-0.95 0.16 0.06 1.53 0.95 1.3 1.54 1.38 2.41 0.35zm-2.55-5.57c2.47-0.85 7.82-4.26 8.68-5.54 0.26-0.39 1.37-1.4 2.46-2.25 2.28-1.79 2.66-2.16 5.17-4.98 3.39-3.82 5.34-6.53 7-9.74 0.75-1.45 1.58-2.95 1.86-3.34 0.27-0.39 0.66-1.17 0.86-1.74s0.62-1.52 0.92-2.12c0.92-1.81 2.25-6.65 3.59-13.079 0.24-1.158 1.09-4.121 1.9-6.583 0.8-2.462 1.68-5.603 1.95-6.979l0.49-2.501-0.7-0.572c-0.39-0.314-1.13-0.65-1.65-0.747-0.51-0.096-1.46-0.356-2.11-0.576-1.35-0.458-3.88-0.677-7.16-0.621-1.71 0.029-2.61-0.094-3.71-0.504-1.34-0.502-1.52-0.513-2.4-0.144-1.4 0.584-3 0.49-4.64-0.271-1.38-0.641-1.47-0.651-2.61-0.261-1.82 0.617-3.48 0.527-4.55-0.246-0.49-0.357-1.13-0.822-1.42-1.033-0.43-0.312-0.79-0.332-1.92-0.103-1.59 0.32-2.92 0.035-4.51-0.964-0.83-0.523-1.51-0.633-5.55-0.889-2.97-0.189-5.4-0.493-6.82-0.857-1.91-0.486-2.41-0.524-3.66-0.273-2.31 0.463-3.29 0.372-4.43-0.413-0.98-0.677-1.14-0.702-4.09-0.638-2.71 0.059-3.19 0-4.19-0.509-2.1-1.072-4.2-0.279-4.2 1.589 0 1.031-0.38 1.514-1.64 2.05-0.99 0.423-0.91 1.06 0.19 1.522 1.79 0.744 0.72 1.907-1.97 2.151-1.3 0.118-1.69 0.057-2.11-0.328-0.74-0.668-0.66-1.054 0.4-1.856 0.5-0.385 0.84-0.814 0.76-0.952-0.09-0.144-0.35-0.076-0.61 0.161-0.82 0.738-1.67 0.491-3.19-0.922-2.09-1.939-4.96-3.669-6.09-3.669-1.04 0-2.63 1.058-3.1 2.053-0.52 1.115-0.29 4.538 0.68 10.323 0.21 1.232 0.55 3.294 0.76 4.584 0.61 3.837 1.15 5.7 2.32 7.925 0.89 1.712 1.28 2.202 2.1 2.602 0.91 0.44 1.17 0.46 2.58 0.16 1.5-0.32 1.59-0.31 2.22 0.27 0.81 0.77 0.81 1.17-0.01 2.93-0.92 1.98-0.91 2.08 0.82 11.02 0.24 1.23 0.46 3.14 0.5 4.24 0.11 3.18 0.84 4.81 2.99 6.68 1.78 1.55 3.6 2.72 6.95 4.49 0.99 0.51 2.41 1.51 3.16 2.21 0.76 0.7 2.35 2.18 3.53 3.28 2.29 2.14 2.98 2.45 2.98 1.36 0-0.65 0.81-1.72 1.31-1.72 0.13 0 0.57 0.3 0.96 0.66s0.81 0.66 0.94 0.66 0.68 0.46 1.21 1.03c0.65 0.68 1.43 1.15 2.32 1.41 0.73 0.22 2.02 0.77 2.86 1.22 0.85 0.45 1.73 0.82 1.96 0.82s1.31 0.23 2.4 0.51c2.67 0.68 5.28 0.68 7.26 0.01zm-3.57-9.48c-0.51-0.12-1.73-0.4-2.72-0.62-3.01-0.68-4.46-2.25-3.59-3.87 0.37-0.7 1.03-0.64 2.81 0.26 0.84 0.42 2.08 0.85 2.77 0.95 1.15 0.17 1.25 0.14 1.25-0.36 0-0.9-1.89-1.81-4.47-2.15-3.11-0.41-3.97-0.67-5.23-1.58s-1.45-1.83-0.51-2.49c0.75-0.52 1.6-0.52 2.64 0.02 0.73 0.38 1.04 0.39 2.62 0.09 2.18-0.41 4.17-0.06 5.33 0.94 0.9 0.77 0.98 0.78 2.06 0.22 1.29-0.66 2.72-0.56 3.58 0.26 0.72 0.69 2.81 1.48 3.93 1.48 0.33 0.01 0.67 0.18 0.75 0.39 0.23 0.6-1.19 2.24-2.46 2.83-0.63 0.3-1.53 0.96-1.99 1.48-2.3 2.54-2.09 2.42-4.05 2.39-0.99-0.02-2.22-0.13-2.72-0.24zm0.67-10.42c-1.11-1.11 0.12-3.66 1.52-3.12 1.22 0.47 0.38 3.54-0.97 3.54-0.07 0-0.32-0.19-0.55-0.42zm4.13-2.89c-1.47-1.02-0.04-3.27 3.53-5.55 2.16-1.38 2.3-1.97 1.42-5.93-0.28-1.25-0.59-3.99-0.69-6.08-0.18-3.774-0.18-3.808 0.53-5.225 0.39-0.785 1.05-1.783 1.45-2.217 0.41-0.435 1.06-1.301 1.45-1.925 0.57-0.927 1.09-1.325 2.85-2.173 1.18-0.57 2.32-1.037 2.54-1.037s1.71-0.622 3.31-1.383c2.71-1.288 3.04-1.382 4.89-1.382 1.44 0 2.18 0.125 2.68 0.457 0.48 0.312 0.96 0.405 1.52 0.294 1.1-0.221 1.89 0.547 2.62 2.568 0.71 1.953 0.64 2.647-0.33 2.986-1.09 0.383-1.51 0.06-2.35-1.828-0.28-0.617-0.49-0.772-1-0.707-0.36 0.046-1.54 0.176-2.63 0.288-2.91 0.302-5.41 0.985-7.62 2.08-2.83 1.407-2.78 1.75 0.22 1.515 2.08-0.162 2.42-0.13 2.56 0.237 0.1 0.241-0.05 0.66-0.33 0.97-0.48 0.537-0.48 0.556 0.42 1.307 1.14 0.948 2.12 0.975 3.76 0.103 1.2-0.641 2.67-0.847 3.26-0.457 0.51 0.342 0.89 1.319 0.89 2.283 0 1.136-0.75 1.996-1.76 1.996-0.41 0-1.02 0.3-1.46 0.72-0.73 0.69-0.88 0.73-3.57 0.76-1.55 0.02-3.11-0.08-3.47-0.21-0.35-0.14-1.15-0.8-1.76-1.47-1.1-1.197-1.13-1.208-2.12-0.917-0.57 0.167-1.39 0.211-1.92 0.101-0.75-0.159-0.94-0.335-1.05-0.973-0.08-0.455-0.3-0.78-0.53-0.78-0.57 0-0.41 7.459 0.24 11.189 0.53 3.07 0.56 5.81 0.06 6.41-0.18 0.22-0.25 0.67-0.16 1.04 0.25 1.01-0.49 2.17-1.8 2.8-1.44 0.69-4.74 0.78-5.65 0.14zm-4.57-4.08c-1.02-0.67-1.32-0.75-1.91-0.53-1.98 0.76-2.26-1.42-0.29-2.24 2.03-0.85 4.33-0.07 5.29 1.79 0.41 0.8 0.41 0.85-0.16 1.31-0.83 0.67-1.53 0.59-2.93-0.33zm-14.41-18.72c-0.62-0.31-1.45-0.969-1.84-1.465-1.03-1.322-2.81-2.449-3.86-2.449-0.56 0-1.17-0.241-1.67-0.658-0.43-0.362-1.03-0.658-1.34-0.658-0.75 0-0.99-0.691-0.44-1.291 0.76-0.844 6.05-2.115 7.11-1.708 0.38 0.145 0.44 0.371 0.31 1.188-0.18 1.095-0.25 1.038 1.84 1.384 1.47 0.241 3.97-0.267 4.93-1 0.49-0.374 1.1-0.68 1.35-0.68 0.26 0 1.29 0.433 2.3 0.962 1.99 1.045 2.96 2.344 2.8 3.732-0.07 0.636-0.21 0.718-1.39 0.849-1.36 0.149-3.73 1.209-4.33 1.941-0.56 0.671-4.31 0.575-5.77-0.147zm-30.02-3.772c-0.88-1.008-2-2.854-2.27-3.75-0.09-0.318-0.04-1.063 0.12-1.655 0.25-0.928 0.46-1.151 1.53-1.622 2.66-1.174 2.56-1.079 2.5-2.306-0.07-1.516-0.46-1.917-1.77-1.841-1.84 0.105-2.26-0.001-2.55-0.642-0.22-0.468-0.18-0.857 0.15-1.637 0.39-0.953 0.39-1.082-0.03-1.868-0.38-0.702-0.4-0.914-0.11-1.259 0.19-0.229 0.6-0.415 0.91-0.415 0.72 0 3.77 2.513 4.7 3.861 0.79 1.15 1.88 4.896 1.64 5.65-0.09 0.276-0.54 0.691-1 0.923s-1.22 0.787-1.69 1.234c-1.1 1.043-1.12 1.971-0.07 3.17 0.98 1.108 1 1.812 0.1 2.523-0.94 0.742-1.23 0.693-2.16-0.366zm40.6-4.386c-1.14-0.596-2.45-1.373-2.92-1.726-0.47-0.354-1.48-0.866-2.24-1.139s-2.09-0.862-2.95-1.309c-1.09-0.57-1.88-0.798-2.63-0.765-1.09 0.049-2.89-0.308-4.26-0.843-0.42-0.163-1.59-0.373-2.6-0.467-1.53-0.143-1.85-0.252-1.85-0.643 0-0.259-0.3-0.617-0.66-0.796-1.01-0.502-0.99-1.373 0.03-1.731 1.17-0.407 3.52-0.362 5.24 0.101 0.8 0.214 2.01 0.391 2.69 0.392 2.4 0.006 6.33 1.619 8.95 3.677 0.39 0.307 1.1 0.691 1.58 0.854 1.34 0.456 4.42 2.356 4.98 3.069 0.61 0.779 0.66 2.03 0.08 2.25-0.8 0.31-1.4 0.15-3.44-0.924zm19.88 53.028c0.13-0.25 0.51-1.56 0.84-2.91 0.69-2.78 0.56-3.25-0.72-2.59-1.24 0.64-1.51 1.09-1.15 1.97 0.17 0.41 0.23 1.06 0.14 1.45-0.21 0.83 0.07 2.54 0.41 2.54 0.13 0 0.35-0.21 0.48-0.46zm25.59-54.042c0-0.226 0.24-0.869 0.54-1.429 0.63-1.165 0.42-1.595-0.65-1.327-0.9 0.225-1.34 0.927-1.71 2.695-0.52 2.517-0.44 2.677 0.76 1.501 0.58-0.566 1.06-1.214 1.06-1.44zm0.66-7.649c0.69-0.426 1-0.478 1.57-0.264 1.41 0.54 1.69 0.377 2.54-1.51 0.72-1.573 0.77-1.868 0.49-2.567-0.65-1.623-0.62-1.966 0.25-3.176 1.09-1.515 1.26-2.632 0.66-4.297-0.45-1.255-0.45-1.377-0.01-2.714 0.25-0.77 0.53-2.012 0.61-2.759 0.14-1.326 0.12-1.387-0.97-2.45-1.19-1.168-1.18-1.047-0.43-3.455 0.34-1.11 0.33-1.323-0.18-2.634-0.76-2.006-0.75-3.836 0.04-4.886 0.57-0.765 0.6-0.928 0.33-2.182-0.16-0.746-0.55-1.7-0.86-2.121l-0.57-0.766 0.6-1.383c0.93-2.176 0.74-4.788-0.46-6.079-0.65-0.694-0.66-0.768-0.35-2.166 0.47-2.099 0.17-3.745-0.78-4.233-0.98-0.51-1.2-1.288-0.61-2.179 0.54-0.813 0.72-3.115 0.35-4.547-0.13-0.516-0.54-1.218-0.9-1.56-0.57-0.532-0.67-0.852-0.66-2.221 0-3.255-1.64-5.658-3.6-5.267-0.67 0.135-0.88 0.03-1.46-0.726-0.37-0.487-1.28-1.169-2.02-1.515-1.23-0.578-1.43-0.602-2.39-0.285-1.21 0.399-1.6 0.204-2.13-1.057-0.47-1.1418-1.99-1.5584-3.38-0.929-1.37 0.618-1.92 0.46-2.47-0.7055-0.71-1.4975-1.43-1.8471-3.54-1.702-0.99 0.0676-2.11 0.207-2.49 0.3098-0.49 0.1343-0.79 0.062-1.05-0.2577-1.54-1.8935-2.6-2.2762-4.76-1.7225-1.71 0.4368-2.37 0.2238-3.2-1.0245-0.84-1.2711-1.79-1.5193-4.2-1.0988-2.46 0.4281-2.91 0.3726-4-0.4986-1.26-0.9967-2.08-1.017-2.69-0.0658-0.87 1.3745-1.02 1.3866-2.45 0.1975-1.25-1.0452-2.48-1.2066-3.81-0.4997-1.66 0.878-1.88 0.895-2.79 0.2192-1.16-0.8499-2.66-0.841-4.06 0.024-1.28 0.7853-1.86 0.8106-2.9 0.1248-1.04-0.6894-1.72-0.6621-3.29 0.1317-1.53 0.776-1.8 0.7964-2.99 0.2278-1.23-0.5838-2.02-0.3299-3.42 1.0915-1.32 1.3367-2.39 1.5554-3.2 0.6558-0.78-0.8589-2.09-0.6962-3.18 0.395-0.99 0.9896-1.81 1.1564-2.63 0.535-0.75-0.5657-1.06-0.4986-2.16 0.4645-0.54 0.4774-1.32 1.0754-1.72 1.3289-0.4 0.2536-0.98 1.0184-1.28 1.6997-1.12 2.5439-1.13 2.5549-1.95 2.5549-0.65 0-0.87 0.184-1.37 1.175-0.66 1.319-0.73 2.137-0.29 3.852 0.25 1.024 0.23 1.246-0.18 1.697-0.25 0.285-0.62 0.518-0.81 0.518-0.6 0-1.49 2.07-1.31 3.066 0.52 2.924 0.57 2.625-0.63 3.386-1.05 0.66-1.1 0.752-0.95 1.666 0.22 1.373 0.22 1.312-0.04 3.295-0.2 1.51-0.37 1.924-1.06 2.561l-0.81 0.76 0.04 2.993c0.04 2.928 0.02 3.012-0.71 3.882-0.7 0.83-0.74 0.994-0.58 2.512 0.16 1.555 0.12 1.707-0.92 3.534-1.11 1.967-1.11 1.983-0.62 4.374 0.13 0.662 0.01 1.043-0.64 1.941-1.13 1.552-1.24 2.458-0.55 4.449 0.65 1.868 0.59 2.03-1.07 2.87-1.52 0.773-1.68 2.421-0.39 3.957 0.86 1.016 0.83 1.495-0.13 2.59-0.99 1.131-0.99 1.674 0.03 4.08 1.02 2.414 1.03 2.426 2.53 2.999l1.24 0.472 0.53-0.75c0.3-0.412 0.94-1.202 1.43-1.754l0.88-1.003-1.94 0.145c-1.08 0.082-2.1 0.034-2.31-0.109-0.36-0.25-0.46-1.904-0.14-2.421 0.24-0.389 1.33-0.295 1.7 0.145 0.5 0.609 0.72 0.48 0.97-0.591 0.3-1.252 0.87-1.376 2.18-0.469 0.55 0.383 1.62 0.859 2.37 1.057 1.33 0.35 1.38 0.342 1.92-0.28 0.3-0.351 0.71-0.639 0.91-0.639 0.19 0 0.96 0.477 1.7 1.059 1.17 0.931 1.45 1.04 2.29 0.895 0.53-0.09 1.41-0.389 1.95-0.664 1.5-0.75 2.27-0.663 2.6 0.291 0.17 0.491 0.52 0.853 0.91 0.951 0.7 0.176 4.05-0.019 5.15-0.3 0.56-0.142 0.83-0.038 1.31 0.51 0.83 0.959 2.18 1.266 4.26 0.971 0.94-0.133 1.95-0.372 2.25-0.529 1-0.54 1.59-0.344 2.08 0.7 0.46 0.95 0.52 0.987 1.8 0.979 0.89-0.005 1.79-0.242 2.78-0.724 1.84-0.899 2.17-0.895 2.83 0.038 0.75 1.042 2.52 1.535 3.82 1.063 0.78-0.283 1.12-0.281 1.92 0.008 0.53 0.193 2.23 0.425 3.77 0.514 2.49 0.145 2.88 0.237 3.6 0.841 1.47 1.233 2.21 1.402 4.1 0.928 0.93-0.232 1.82-0.421 1.98-0.421s0.85 0.484 1.54 1.075c1.11 0.961 1.34 1.056 2.19 0.901 0.52-0.096 1.46-0.402 2.09-0.68 1.56-0.683 1.79-0.651 2.97 0.416 1.2 1.086 2.37 1.211 3.71 0.396 1.15-0.7 1.94-0.664 2.89 0.13 0.96 0.81 2.24 0.86 3.43 0.133 1.15-0.699 1.69-0.665 2.91 0.184l1.03 0.711 1.26-0.448c1.72-0.612 2.29-0.565 2.81 0.234 0.65 0.988 1.51 1.238 2.63 0.768 1.06-0.442 1.8-0.208 2.07 0.656 0.23 0.702 1.5 0.701 2.64-0.003zm-114.75 223.51c-1.72-1.33-3.87-17.26-3.24-23.96 0.22-2.37 0.86-3.53 1.56-2.83 0.3 0.3 0.4 1.21 0.45 4.08 0.05 3.8 0.82 12.48 1.14 13 0.1 0.17 0.29 1.28 0.41 2.47s0.43 2.71 0.67 3.36c1.11 2.91 0.56 5.08-0.99 3.88zm50.76-10.38c-0.83-0.44-3.04-2.38-6.06-5.34-5.66-5.55-6.88-6.54-10-8.1-2.99-1.5-4.68-2.82-4.57-3.6 0.16-1.06 1.37-0.86 4.67 0.79 4.91 2.45 9.33 5.64 11.17 8.07 2.2 2.89 4.28 5.14 5.43 5.85 1.06 0.64 1.34 0.7 2.7 0.55 1.38-0.16 1.53-0.13 1.53 0.32 0 0.87-1.79 2.17-2.95 2.15-0.33-0.01-1.2-0.32-1.92-0.69zm77.4-12.06c-0.35-0.35-0.64-0.88-0.64-1.16 0-0.8 0.72-4.06 1.15-5.2 0.21-0.56 0.58-1.97 0.82-3.13 0.65-3.19 1.48-6.53 1.75-7.03 0.13-0.25 0.36-1.44 0.51-2.64 0.16-1.2 0.5-3.3 0.77-4.68 1.12-5.67 1.6-8.43 1.85-10.8 0.15-1.37 0.39-3.51 0.52-4.74s0.49-4.55 0.78-7.37c0.69-6.53 0.97-8.88 1.2-9.92 0.18-0.8 0.15-0.84-0.7-0.92-0.79-0.08-0.88-0.17-0.86-0.88 0.01-0.43 0.29-1.74 0.62-2.9 1.26-4.44 1.89-7.51 2.25-11.06 0.41-3.86 0.65-7.08 0.55-7.18-0.15-0.14-0.24 0.28-0.82 3.63-0.24 1.37-0.55 2.82-0.7 3.21-0.35 0.95-1.09 1.58-1.62 1.38-0.67-0.26-0.55-2.57 0.36-6.96 0.44-2.1 0.97-4.65 1.18-5.66 0.21-1.02 0.63-3.57 0.93-5.67 0.57-3.96 0.95-5 1.85-5 0.76 0 0.86 0.53 0.53 2.83-0.69 4.7-0.8 5.67-0.66 5.88 0.07 0.12 0.41 0.12 0.74-0.01 1.19-0.45 1.27-0.13 0.96 4-0.16 2.1-0.4 4.22-0.54 4.71s-0.26 1.36-0.26 1.95c0 1.05-1.31 8.15-1.83 9.87-0.5 1.69-0.38 2.1 0.59 2.06 0.99-0.04 2.03 0.44 2.03 0.93 0 0.19-0.35 0.68-0.79 1.09-0.7 0.68-0.79 0.93-0.79 2.32 0 0.86-0.18 2.28-0.41 3.16s-0.37 1.87-0.31 2.18c0.06 0.32 0.01 1.97-0.11 3.66-0.26 3.57-0.02 4.55 0.71 2.89 0.26-0.57 0.55-1.57 0.65-2.22 0.11-0.66 0.46-2.43 0.78-3.95 0.32-1.53 0.67-3.54 0.78-4.48s0.45-3.31 0.76-5.27c0.3-1.95 0.73-4.92 0.95-6.58 0.22-1.67 0.53-4.04 0.7-5.27 0.36-2.66 0.64-6.38 1.02-13.69 0.31-5.8 0.49-24.61 0.28-28-0.13-1.94-0.09-2.1 0.49-2.57 0.82-0.67 1.52-0.64 1.98 0.09 0.87 1.34 1.33 17.44 0.73 25.21-0.15 1.96-0.34 5.51-0.41 7.9s-0.28 5.77-0.45 7.51c-0.17 1.73-0.35 3.81-0.39 4.61-0.13 2.55-1.31 12.23-1.53 12.59-0.21 0.35-0.94 4.07-0.9 4.65 0.07 1.36-1.31 6.85-2.72 10.8-0.16 0.44-0.44 1.34-0.63 2.01s-0.53 1.58-0.76 2.03c-0.23 0.44-0.42 1.14-0.42 1.54 0 0.41-0.29 1.57-0.65 2.58-0.36 1.02-0.65 2.23-0.66 2.7 0 0.5-0.54 1.9-1.32 3.39-0.72 1.39-1.32 2.68-1.32 2.87s0.32 0.58 0.7 0.86c0.63 0.46 0.73 0.77 1.05 3.38 0.52 4.31 1.79 11.17 2.63 14.21 0.49 1.8 0.46 2.58-0.12 3.1-0.68 0.62-2.06 0.57-2.41-0.08-0.15-0.29-0.46-1.74-0.68-3.23-0.96-6.5-2.07-10.82-2.58-10-0.17 0.27-0.76 2.82-1.23 5.32-0.15 0.8-0.45 1.89-0.66 2.43-0.21 0.55-0.51 1.85-0.66 2.9-0.16 1.05-0.64 3.13-1.07 4.62-0.6 2.09-0.73 2.9-0.55 3.55 0.13 0.47 0.18 1.03 0.11 1.25-0.35 1.18-2.1 1.4-3.1 0.4zm-56.33-1.62c-0.65-0.64-1.46-2.37-1.46-3.11 0-0.67 0.65-1.2 1.45-1.2 0.45 0 1.71 2.51 1.71 3.41 0 0.51-0.64 1.33-1.05 1.33-0.12 0-0.42-0.19-0.65-0.43zm6.36-0.93c-0.59-0.33-0.56-0.83 0.09-1.42 0.49-0.44 0.57-0.44 0.95-0.07 0.78 0.79-0.08 2.02-1.04 1.49zm-20.59-6.18c-0.72-0.21-1.74-0.48-2.26-0.6-1.38-0.3-1.58-0.5-1.51-1.49 0.03-0.49-0.02-0.97-0.11-1.06-0.64-0.64-4.95-2.89-7.04-3.68-1.38-0.52-2.78-1.05-3.1-1.18-0.83-0.34-0.79-1.43 0.07-2 1.04-0.67 3.03-0.34 5.65 0.94 1.22 0.59 2.4 1.24 2.62 1.43 0.23 0.2 1.3 0.83 2.39 1.4 3.78 2 4.18 2.27 4.49 3.01 0.17 0.41 0.71 0.98 1.2 1.27 1 0.59 1.12 1.05 0.43 1.66-0.73 0.64-1.42 0.71-2.83 0.3zm-42.6-5.02c-0.2-0.35-0.44-1.93-0.6-3.9-0.08-1.02-0.25-2.97-0.38-4.35-0.14-1.37-0.48-5.94-0.77-10.14-0.28-4.2-0.65-9.11-0.8-10.92-0.16-1.81-0.4-5.47-0.54-8.13s-0.31-5.2-0.39-5.66c-0.07-0.46-0.44-4.14-0.8-8.18-0.37-4.04-0.72-7.42-0.77-7.51-0.29-0.47-1.39-20.54-1.61-29.43-0.14-5.92-0.02-7.08 0.77-7.57 1.09-0.67 1.27 0.72 1.63 13.02 0.07 2.24 0.24 5.74 0.38 7.77 0.15 2.02 0.45 6.47 0.68 9.87 0.22 3.41 0.52 7.2 0.66 8.43 0.55 4.67 1.38 16.29 1.97 27.52 0.26 5 0.28 5.2 0.62 9.05 0.17 1.94 0.25 3.7 0.16 3.92-0.08 0.21 0.04 1.88 0.26 3.71 0.48 3.95 0.45 12.44-0.04 12.61-0.17 0.05-0.36 0-0.43-0.11zm42.64-4.22c-0.21-0.71-0.18-5.09 0.09-14.43 0.14-4.63 0.32-11.98 0.41-16.33 0.2-10.13 0.54-16.92 0.89-17.86 0.19-0.49 0.44-0.71 0.74-0.65 0.42 0.08 0.46 0.49 0.42 4.3-0.02 2.31-0.17 8.24-0.33 13.16-0.15 4.92-0.41 13.34-0.57 18.7-0.35 11.83-0.47 13.39-1.07 13.51-0.25 0.04-0.5-0.13-0.58-0.4zm-72.233-1.58c-0.306-0.73-0.417-2.04-0.442-5.2-0.035-4.46 0.151-6 1.506-12.52 0.226-1.09 0.955-4.82 1.621-8.3 0.665-3.47 1.438-7.22 1.716-8.33 0.552-2.17 1.562-7.18 1.562-7.68s-1.707 3.18-2.593 5.61c-0.449 1.23-1.061 3.23-1.359 4.43-1.047 4.22-2.043 6.12-3.015 5.75-0.747-0.29-0.552-1.74 0.91-6.75 1.516-5.21 1.467-4.93 0.976-5.48-0.246-0.27-0.447-0.78-0.447-1.14 0-1.59 2.621-12.36 4.06-16.69 0.337-1.01 0.818-2.54 1.068-3.39 0.69-2.37 2.09-3.45 2.86-2.22 0.36 0.56 0.04 2.01-1.24 5.71-0.89 2.54-1.17 3.98-0.8 3.98 0.09 0 0.46-0.24 0.83-0.52 0.8-0.64 1.21-0.67 1.67-0.12 0.24 0.3 0.59 0.37 1.18 0.26 1.17-0.22 1.6 0.34 1.07 1.38-0.35 0.67-1.29 4.08-2.42 8.75-0.87 3.63-1.16 4.73-1.68 6.45-0.31 1.01-0.67 2.61-0.8 3.55-0.42 3.06-0.81 5.09-1.454 7.64-0.35 1.37-0.83 3.74-1.067 5.27-0.237 1.52-0.736 4.24-1.109 6.05-0.579 2.81-0.682 4.01-0.699 8.18-0.018 4.21-0.085 4.98-0.488 5.59-0.626 0.96-0.93 0.9-1.416-0.26zm125.15-12.34c-0.09-0.23-0.4-2.39-0.7-4.81-0.61-4.94-1.27-9.1-2.23-14.13-0.36-1.89-0.83-4.55-1.04-5.93-0.21-1.37-0.56-3.48-0.78-4.68s-0.48-3.28-0.58-4.64c-0.16-2.28-0.13-2.5 0.39-3.02 0.31-0.31 0.75-0.56 0.98-0.56 0.46 0 0.4-0.66-0.28-2.9-0.2-0.65-0.51-1.88-0.69-2.73-0.32-1.49-0.31-1.57 0.26-2.03 1.07-0.87 1.41-0.42 2.28 2.99 0.25 0.98 0.73 2.17 1.07 2.64 0.34 0.46 0.81 1.11 1.04 1.43 0.24 0.32 0.49 1.09 0.56 1.71s0.34 2.02 0.62 3.1c0.27 1.09 0.62 3.16 0.79 4.61 0.16 1.45 0.52 3.42 0.8 4.37 0.63 2.14 0.67 3.99 0.1 4.46-0.34 0.29-0.49 0.26-0.9-0.16-0.49-0.49-0.81-1.53-2.4-7.75-0.74-2.89-2.36-7.99-2.48-7.84-0.22 0.25 0.49 6.11 1.17 9.72 1.74 9.16 2.67 14.93 2.94 18.27 0.53 6.51 0.56 7.51 0.23 7.91-0.42 0.5-0.95 0.49-1.15-0.03zm-133.24-9.74c-0.09-0.23 0.016-0.47 0.253-0.56 0.492-0.19 1.03 0.28 0.782 0.68-0.259 0.42-0.855 0.35-1.035-0.12zm186.87-1.81c-0.43-0.37-0.94-1.02-1.12-1.46-0.28-0.67-0.26-0.9 0.1-1.45 0.75-1.14 1.58-0.88 2.53 0.78 0.46 0.8 0.79 1.72 0.74 2.04-0.12 0.88-1.26 0.92-2.25 0.09zm-2.71-10.96c-0.85-0.87-1.79-2.11-2.1-2.75-0.51-1.06-0.52-1.22-0.16-1.91 0.21-0.42 1.05-1.2 1.87-1.74 0.81-0.54 1.54-1.15 1.62-1.36 0.19-0.48-0.93-1.82-2.36-2.84-1.44-1.02-2.01-1.74-2.02-2.57 0-0.97 1.44-2.25 2.97-2.63 1.53-0.39 1.68-0.6 1.08-1.51-1.96-2.96-5.26-10.73-4.96-11.67 0.21-0.69 1.25-1.34 1.8-1.14 0.23 0.09 0.5 0.48 0.58 0.86 0.37 1.75 2.73 6.98 5 11.08 0.79 1.43 0.84 2.98 0.13 3.69-0.29 0.29-0.99 0.65-1.57 0.8-1.26 0.34-1.49 0.62-0.9 1.1 1.05 0.87 2.98 3.46 2.98 4.02 0 0.64-0.54 1.49-2.2 3.43-1.23 1.44-1.18 1.93 0.36 3.71 1.06 1.23 1.31 2.13 0.73 2.71-0.62 0.61-1.34 0.29-2.85-1.28zm-50.16-19.39c-3.9-7.36-4.7-9.32-4.99-12.34-0.17-1.68-0.13-1.89 0.38-2.36 0.8-0.72 1.32-0.29 1.91 1.6 1.21 3.89 1.84 5.49 3.51 9.05 1.38 2.91 1.8 4.08 1.81 5 0.01 1.11-0.04 1.21-0.69 1.28-0.63 0.08-0.81-0.12-1.93-2.23zm1.35-6.37c-0.58-0.64-1.41-3.22-2.92-9.09-0.64-2.48-1.47-5.51-1.84-6.75-0.37-1.23-0.74-2.94-0.83-3.81-0.14-1.39-0.08-1.66 0.42-2.19 0.71-0.75 1.38-0.66 1.63 0.21 0.1 0.36 0.61 2.14 1.14 3.95 1.43 4.88 1.62 5.62 2.39 9.22 0.38 1.81 1 4.15 1.36 5.2 0.53 1.52 0.62 2.09 0.42 2.77-0.29 1.02-1.09 1.24-1.77 0.49zm-25.17-2.26c-0.42-0.51-0.12-1.39 0.54-1.6 1.1-0.35 1.8 1.17 0.78 1.71-0.68 0.36-0.94 0.34-1.32-0.11zm-107.17-0.26c-0.362-0.43-0.185-4.97 0.676-17.37 0.381-5.48 0.402-6.92 0.13-8.8-0.323-2.23-0.321-2.25 0.323-2.89 0.792-0.8 1.787-0.65 2.45 0.37 0.571 0.87 0.787 4.35 0.378 6.07-0.168 0.7-0.351 2.65-0.408 4.33s-0.219 3.52-0.361 4.08c-0.141 0.57-0.393 2.92-0.558 5.24-0.5 6.98-0.93 9.11-1.883 9.29-0.23 0.04-0.566-0.1-0.747-0.32zm133.78-4.73c-0.17-0.2-0.41-1-0.55-1.78-0.13-0.77-0.47-2.77-0.76-4.44-0.29-1.66-0.66-3.85-0.82-4.87-0.57-3.68-1.53-8.66-1.87-9.77-0.47-1.51 0.84-3.08 1.78-2.15 0.44 0.44 1.02 2.53 1.55 5.54 0.2 1.14 0.61 2.47 0.91 2.95 0.29 0.48 0.78 1.8 1.08 2.94 0.48 1.86 0.52 2.52 0.36 6.55-0.1 2.46-0.29 4.68-0.42 4.94-0.3 0.55-0.84 0.59-1.26 0.09z"/>
  <metadata>
    <rdf:RDF>
      <cc:Work>
        <dc:format>image/svg+xml</dc:format>
        <dc:type rdf:resource="http://purl.org/dc/dcmitype/StillImage"/>
        <cc:license rdf:resource="http://creativecommons.org/licenses/publicdomain/"/>
        <dc:publisher>
          <cc:Agent rdf:about="http://openclipart.org/">
            <dc:title>Openclipart</dc:title>
          </cc:Agent>
        </dc:publisher>
        <dc:title>Boy playing balalaika</dc:title>
        <dc:date>2009-03-22T12:13:28</dc:date>
        <dc:description>Source: http://commons.wikimedia.org/wiki/File:Balalaika_(PSF).png</dc:description>
        <dc:source>http://openclipart.org/detail/22771/boy-playing-balalaika-by-papapishu</dc:source>
        <dc:creator>
          <cc:Agent>
            <dc:title>papapishu</dc:title>
          </cc:Agent>
        </dc:creator>
        <dc:subject>
          <rdf:Bag>
            <rdf:li>black and white</rdf:li>
            <rdf:li>boy</rdf:li>
            <rdf:li>clip art</rdf:li>
            <rdf:li>clipart</rdf:li>
            <rdf:li>coloring book</rdf:li>
            <rdf:li>contour</rdf:li>
            <rdf:li>drawing</rdf:li>
            <rdf:li>line art</rdf:li>
            <rdf:li>music</rdf:li>
            <rdf:li>musical instruments</rdf:li>
            <rdf:li>outline</rdf:li>
            <rdf:li>people</rdf:li>
            <rdf:li>psf</rdf:li>
            <rdf:li>string instruments</rdf:li>
            <rdf:li>wikimedia commons</rdf:li>
          </rdf:Bag>
        </dc:subject>
      </cc:Work>
      <cc:License rdf:about="http://creativecommons.org/licenses/publicdomain/">
        <cc:permits rdf:resource="http://creativecommons.org/ns#Reproduction"/>
        <cc:permits rdf:resource="http://creativecommons.org/ns#Distribution"/>
        <cc:permits rdf:resource="http://creativecommons.org/ns#DerivativeWorks"/>
      </cc:License>
    </rdf:RDF>
  </metadata>
</svg>
