<?xml version="1.0"?>
<svg xmlns:rdf="http://www.w3.org/1999/02/22-rdf-syntax-ns#" xmlns="http://www.w3.org/2000/svg" xmlns:cc="http://creativecommons.org/ns#" xmlns:dc="http://purl.org/dc/elements/1.1/" xmlns:svg="http://www.w3.org/2000/svg" id="svg2" viewBox="0 0 321.85 418.76" version="1.0">
  <path id="path2315" d="m35.839 416.46c0.506-1.32 2.397-5.26 4.203-8.75 1.806-3.48 3.294-7.23 3.306-8.32 0.013-1.1 0.548-2 1.19-2 0.641-0.01 1.541-0.42 2-0.92 0.492-0.54 0.268-0.58-0.547-0.11-0.944 0.55-1.233 0.36-0.917-0.59 0.255-0.76 0.966-1.39 1.58-1.39s1.702-0.65 2.417-1.45c1.122-1.25 1.061-1.27-0.45-0.13-0.963 0.73-1.75 0.88-1.75 0.33 0-1.25 2.509-3.41 3.181-2.73 0.274 0.27 1.358-0.52 2.408-1.76l1.911-2.26-2.25 1.91c-1.238 1.04-2.25 1.44-2.25 0.87s0.675-1.59 1.5-2.28c0.825-0.68 1.5-1.72 1.5-2.31 0-0.58-1.437 0.26-3.194 1.87l-3.194 2.94 2.694-3.33c2.39-2.95 3.183-5.03 2.818-7.4-0.179-1.16 3.032-6.01 7.126-10.77 4.349-5.06 5.037-4.55 1.004 0.74l-2.746 3.6 2.496-1.38c1.373-0.76 2.758-1.31 3.079-1.23 0.321 0.09 0.632-0.38 0.692-1.03 0.06-0.66 0.532-3.9 1.049-7.2 0.518-3.3 0.722-6.37 0.453-6.82-0.652-1.11-4.825 2.86-8.319 7.91-1.909 2.76-3.534 4.06-4.999 4-1.307-0.05-2.77 0.91-3.678 2.41l-1.507 2.5 2.023-2.25c1.841-2.05 4.203-3.02 4.203-1.73 0 0.76-5.186 8.48-5.692 8.48-0.234 0-0.148-0.45 0.192-1s0.43-1 0.2-1c-0.458 0-7.7 10.71-7.7 11.39 0 0.23 1.012 0.23 2.25 0 1.542-0.3 1.761-0.19 0.697 0.34-6.381 3.17-17.094 15.62-18.505 21.52-0.363 1.51-1.09 2.75-1.618 2.75-0.534 0-0.651-1-0.263-2.25 1.633-5.28 5.03-10.49 9.913-15.21 5.796-5.59 6.68-7.21 5.35-9.8-0.623-1.21-0.073-4.33 1.762-10 1.467-4.53 2.821-10.85 3.009-14.03 0.188-3.19 0.582-6.19 0.877-6.66 0.294-0.48 0.245-1.62-0.109-2.54-0.483-1.26-1.413-1.54-3.753-1.11-3.676 0.67-5.098-0.07-6.585-3.42-0.605-1.36-2.201-4.28-3.546-6.48s-2.454-4.72-2.463-5.59c-0.009-0.88-2.624-4.71-5.812-8.5-3.187-3.8-7.012-8.7-8.5-10.89-2.7194-4.01-3.5319-6.97-1.739-6.35 1.72 0.59 15.96 21.23 17.138 24.83 1.19 3.64 5.464 10 6.72 10 0.396 0 1.288-3.04 1.981-6.75 1.478-7.92 8.616-23.65 11.906-26.23 2.988-2.36 2.91-5.38-0.189-7.41-3.744-2.46-5.837-7.23-5.124-11.69 0.333-2.08 0.138-5.01-0.433-6.51-0.658-1.73-0.689-3.08-0.085-3.69 1.096-1.09-4.158-6.72-6.279-6.72-2.336 0-6.601-4.07-8.149-7.77-2.276-5.45-1.076-6.41 1.302-1.04 1.576 3.55 3.089 5.2 6.26 6.82 2.299 1.17 4.35 1.96 4.557 1.76 0.206-0.21-0.1-2.11-0.682-4.21-0.582-2.11-0.778-5.33-0.435-7.16 0.447-2.38 0.012-4.53-1.528-7.55-2.855-5.59-7.118-16.99-6.564-17.54 0.242-0.24 1.003 1.28 1.691 3.37 1.303 3.98 8.685 20.33 9.17 20.32 0.659-0.02 0.206-16.88-0.472-17.57-1.363-1.38-0.779-2.7 0.666-1.5 1.125 0.94 1.487 0.81 1.756-0.58 0.186-0.97 0.345 6.54 0.352 16.69 0.008 10.16 0.355 19.32 0.772 20.37 0.746 1.87 0.785 1.87 2.313 0 1.519-1.87 1.54-1.86 0.913 0.08-0.353 1.09-0.905 4.81-1.228 8.26-0.742 7.95 0.534 9.54 8.995 11.24 3.728 0.75 6.911 2.05 7.961 3.24 1.701 1.94 1.75 1.86 1.75-2.72 0-3.04-0.891-6.49-2.5-9.7-1.375-2.73-2.5-5.92-2.5-7.09 0-1.16-1.186-3.35-2.635-4.86-3.398-3.55-4.742-13.4-3.143-23.05 0.511-3.08 0.173-4.17-2.055-6.63-4.346-4.81-7.047-8.18-6.556-8.18 0.252 0-0.013-0.88-0.591-1.96s-1.647-1.74-2.376-1.46c-1.878 0.73-11.585-3.17-15.105-6.06-3.664-3.01-2.7-4.47 1.153-1.76 2.849 2.01 12.798 7.24 13.775 7.24 0.973 0 0.551-3.87-0.494-4.51-0.564-0.35-0.961-1.17-0.881-1.81 0.316-2.57-0.154-3.59-1.425-3.1-1.625 0.62-1.841-0.66-1.937-11.48-0.063-7.12 0.218-8.64 1.848-10 1.435-1.19 1.846-2.63 1.624-5.66-0.24-3.26 0.751-6.14 5.087-14.75 4.98-9.88 5.225-10.69 3.256-10.69-1.171 0-3.774 1.46-5.785 3.25-2.01 1.79-5.094 4.35-6.852 5.7-1.808 1.38-4.477 5.18-6.146 8.75-1.622 3.46-3.357 6.55-3.856 6.86-0.498 0.31-0.906 1.38-0.906 2.38s-0.675 2.38-1.5 3.06c-1.875 1.56-1.935 4.4-0.125 5.9 0.756 0.63 1.375 2.26 1.375 3.64 0 1.88-0.309 2.24-1.242 1.47-1.639-1.36-3.779 1.12-2.913 3.38 0.346 0.9 0.036 2.35-0.688 3.22-0.725 0.88-1.218 2.89-1.097 4.48 0.124 1.64-0.764 4.41-2.045 6.39-2.997 4.63-4.565 4.54-1.827-0.1 1.175-1.99 2.311-5.48 2.526-7.75 0.566-6 1.176-8.15 3.193-11.23 1.313-2 1.468-2.86 0.572-3.16-2.138-0.71-1.361-3.62 3.422-12.8 6.425-12.34 9.741-16.94 13.266-18.4 1.659-0.69 3.271-2.06 3.583-3.04 0.311-0.98 1.451-2.01 2.533-2.3 1.082-0.28 1.967-1.22 1.967-2.08s1.912-2.49 4.25-3.61c2.337-1.12 4.925-2.44 5.75-2.91 2.916-1.69 12.453-4.05 13.232-3.27 0.435 0.44-2.145 1.83-5.732 3.1-6.757 2.38-9.086 4.07-5.618 4.07 1.1 0 2.278-0.45 2.618-1s1.857-1 3.37-1c1.514 0 3.731-0.91 4.927-2.02l2.175-2.03-2.061-5.22c-1.134-2.88-2.699-8.38-3.478-12.23s-1.801-8.88-2.271-11.19c-0.471-2.3-0.646-6.8-0.39-10 0.257-3.19 0.347-7.61 0.202-9.81-0.441-6.65-0.193-15.742 0.555-20.385 0.404-2.509 0.161-7.579-0.569-11.844-1.397-8.168-0.728-9.751 3.654-8.651 1.679 0.421 2.272-0.028 2.796-2.116 0.784-3.126 9.067-11.502 11.373-11.502 1.374 0 1.349 0.182-0.178 1.299-1.516 1.108-0.5 1.339 6.912 1.571 5.986 0.188 8.483-0.061 8.027-0.799-0.364-0.589-2.098-1.103-3.853-1.142-1.755-0.038-4.091-0.472-5.191-0.964-3.083-1.379 8.26 0.007 13.199 1.612 2.31 0.75 5.9 2.278 7.99 3.393 2.08 1.116 4.28 2.03 4.9 2.03s3.03 4.224 5.36 9.387 6.26 12.456 8.72 16.206c4.47 6.798 4.48 6.838 3.93 13.865-0.3 3.87-0.5 8.17-0.44 9.54 0.5 11.18 0.35 12.18-2.21 14.35-4.87 4.15-8.27 10.43-8.74 16.2-0.37 4.39-0.16 5.45 1.05 5.45 0.83 0 1.74-0.88 2.02-1.95s1.98-2.84 3.78-3.94c3.68-2.23 5.94-6.69 5.94-11.7 0-3.01 0.96-5.95 6.81-20.91 0.86-2.2 2.12-4.67 2.79-5.5 0.67-0.82 1.02-3.07 0.79-5-0.36-2.872 0.04-3.884 2.23-5.652 2.5-2.013 2.6-2.423 1.63-6.251-0.89-3.533-0.77-4.439 0.93-6.596 1.27-1.61 2.97-2.499 4.79-2.499 3.25 0 4.38-2.66 3.45-8.153-0.52-3.068-0.44-3.197 0.91-1.538 1.05 1.285 1.69 1.471 2.2 0.64 0.44-0.712 2.04-0.956 4.1-0.623 2.52 0.409 3.37 0.184 3.37-0.889 0-0.791 0.76-1.437 1.69-1.437 1.48 0 1.44-0.188-0.25-1.469-2.72-2.058-8.41-1.934-10.05 0.219-0.8 1.054-1.34 1.256-1.36 0.508-0.01-0.683 0.91-1.808 2.06-2.5 2.03-1.225 6.88-9.729 8.41-14.758 0.42-1.375 2.28-5.796 4.13-9.824 3.88-8.433 3.85-8.297 1.88-7.541-2.21 0.847-2.76-1.745-1.66-7.776 0.86-4.739 0.75-5.567-0.94-7.148-1.05-0.984-1.91-2.862-1.91-4.174 0-3.305 4.62-8.5375 7.54-8.5375 1.3 0 2.72-0.6093 3.16-1.354 3.68-6.2236 17.13-3.716 19.57 3.6469 1.32 3.9756 0.34 6.7326-4.22 11.914l-4 4.54 4.63-0.987c3.72-0.794 5.23-0.67 7.72 0.635 7.12 3.722 10.77 6.316 12.41 8.814 0.96 1.458 3.53 4.027 5.71 5.709 2.19 1.682 4.62 3.627 5.41 4.321s2.53 2.002 3.87 2.907c2.23 1.511 2.28 1.694 0.57 2.232-1.03 0.322-4.19-0.03-7.03-0.782-5.5-1.458-7.34-0.821-7.34 2.545 0 0.958-0.43 2.006-0.95 2.329-1.27 0.785-3.35-3.238-2.64-5.1 0.31-0.81 0.17-1.228-0.31-0.928-0.49 0.3-1.57-1.139-2.41-3.198-2.91-7.123-3.19-7.269-12.67-6.464l-8.49 0.721-1.16 8c-2.85 19.617-9.53 42.22-11.61 39.314-0.69-0.953-0.79-0.813-0.36 0.508 0.74 2.263-0.21 4.074-7.55 14.439-5.9 8.337-6.96 10.607-4.51 9.657 0.74-0.28 1.92 0.19 2.62 1.04 0.71 0.85 1.85 1.54 2.54 1.54s1.82 0.68 2.5 1.5c0.69 0.83 2.02 1.5 2.97 1.5s2.53 0.89 3.51 1.98c0.98 1.08 2.21 1.72 2.72 1.4 1-0.62 4.8 2.38 4.8 3.78 0 0.46-0.67 0.84-1.5 0.84-0.82 0-1.5-0.45-1.5-1s-0.9-1-2.01-1c-1.1 0-2.75-0.86-3.65-1.91s-2.2-1.7-2.89-1.43c-0.68 0.26-1.54 0-1.91-0.59-1.22-1.98-9.58-5.19-11.72-4.51-1.38 0.44-1.84 0.29-1.39-0.45 0.38-0.61 0.21-1.11-0.37-1.11s-1.06 0.48-1.06 1.06-0.42 0.8-0.93 0.48c-0.51-0.31-1.26-0.04-1.66 0.6-0.5 0.82-0.06 1 1.43 0.61 2.24-0.58 2.97 0.63 1.08 1.8-1.5 0.93 3.36 5.92 9.9 10.15 6.81 4.42 31.09 16.49 37.95 18.88l5.27 1.83 2.59-2.58c2.94-2.95 2.57-6.83-0.66-6.83-2.21 0-4.54-3.53-2.96-4.5 0.55-0.34 1.27 0.08 1.6 0.94s1.46 1.56 2.5 1.56 1.89 0.45 1.89 1 0.95 1 2.11 1c1.77 0 2-0.41 1.46-2.59-0.85-3.39 5.37-11.41 8.85-11.41 3.03 0 8.79 3.95 10.25 7.04 2.1 4.42 0.57 7.97-4.37 10.15-3.06 1.36-4.32 2.47-4.09 3.63 0.17 0.93 0.76 1.59 1.3 1.48 0.55-0.1 1.6 0.97 2.35 2.39 0.97 1.87 1.57 2.24 2.14 1.32 0.58-0.95 1.08-0.74 1.91 0.82 0.65 1.22 1.72 1.87 2.56 1.54 0.95-0.36 1.66 0.31 2.08 1.97 0.37 1.49 1.16 2.33 1.91 2.04 0.71-0.27 1.52 0.43 1.82 1.57 0.36 1.38 1.06 1.86 2.13 1.45 1.08-0.42 1.59-0.05 1.59 1.12 0 1.42 0.27 1.51 1.5 0.48 1.25-1.04 1.5-0.89 1.5 0.88 0 1.17 0.34 2.1 0.75 2.07s3.23-2.79 6.25-6.13c10.22-11.29 10.82-11.82 13.28-11.82 3.38 0 8.93 3.93 10.7 7.57 1.31 2.7 2.34 3.25 9 4.74 4.14 0.93 8.51 1.69 9.71 1.69 3.9 0 3.28 1.51-1.78 4.36l-4.95 2.78 3.52 4.11c3.44 4.02 4.28 5.76 2.77 5.74-0.41 0-5.87-0.9-12.12-2-6.25-1.09-13.72-1.99-16.6-1.99-4.4 0-5.38 0.35-6.19 2.17-0.86 1.93-0.11 2.86 6.87 8.5 4.31 3.48 8.24 6.33 8.73 6.33s1.04 0.39 1.23 0.87c0.18 0.48 5.51 4.38 11.83 8.66 13.2 8.94 24.95 18.43 24.98 20.16 0.01 0.79-1.11 1-3.42 0.63-1.9-0.31-4.59-0.28-5.97 0.07-2.32 0.58-2.51 1.05-2.39 5.91 0.08 2.9-0.31 6.08-0.86 7.06-0.92 1.65-1.16 1.57-2.8-0.94-0.98-1.5-2.97-3.79-4.41-5.08-4.17-3.74-22.86-17.34-23.83-17.34-0.49 0-2.87-2.02-5.3-4.5-2.43-2.47-4.71-4.5-5.08-4.5s-2.64-1.8-5.04-4c-2.41-2.2-4.72-4-5.13-4-1.67 0-0.61 3.91 1.22 4.49 2.32 0.74 6.03 5.61 6.03 7.92 0 1 0.86 1.59 2.33 1.59 2.48 0 4.66 2.07 8.95 8.52 1.47 2.21 4.71 6.01 7.19 8.46 2.49 2.44 4.53 5.02 4.53 5.73s0.68 1.29 1.5 1.29c1.89 0 1.93 1.4 0.1 2.92-1.59 1.32-5.89 0.6-9.35-1.56-1.48-0.92-2.25-1.02-2.25-0.29 0 0.61 1.01 1.93 2.25 2.94 1.24 1 1.98 2.09 1.65 2.42-0.32 0.33-1.81-0.36-3.3-1.53s-3.02-1.79-3.4-1.38c-0.39 0.42-0.14 0.96 0.55 1.2 0.69 0.25 1.25 0.85 1.25 1.33 0 0.49-0.79 0.59-1.75 0.23-1.52-0.57-1.57-0.43-0.41 0.99 1.17 1.44 1.01 1.73-1.22 2.29-3.64 0.91-13.33-7.67-17.51-15.5-3.33-6.26-3.81-8.96-1.92-10.85 0.93-0.93 0.68-1.89-1.09-4.29-1.8-2.44-2.17-3.89-1.69-6.76 0.71-4.3 0.73-9.99 0.04-12.27-0.36-1.18-1.56-1.54-4.53-1.37-4.71 0.26-10.15 3.8-20.11 13.09-4.26 3.98-7.71 6.36-9.5 6.57-2.5 0.29-2.83 0.75-3.03 4.24-0.24 4.39-0.95 5.44-4.11 6.05-1.2 0.23-2.62 0.69-3.17 1.03-0.54 0.34-1.96 0.8-3.15 1.03s-3.1 1.24-4.26 2.24c-1.15 1-3.37 2.46-4.93 3.25-4.53 2.26-15.25 12.59-17.07 16.45-1.65 3.45-5.1 5.32-7.88 4.25-0.71-0.27-2.07 0.07-3.02 0.77-1.35 0.98-1.53 1.81-0.8 3.72 1.04 2.74 0.46 4.12-2.14 5.08-2.01 0.74-2.24 2.92-0.63 5.93 1.07 2 1.19 1.94 2.75-1.37 1.88-3.99 6.13-9.61 6.13-8.1 0 0.56-0.67 2.31-1.49 3.89-0.82 1.57-1.5 3.56-1.5 4.41-0.01 0.85-0.54 2.08-1.19 2.73-0.65 0.66-0.99 1.39-0.74 1.63 0.52 0.53 8.38-1.23 11.92-2.67 3.07-1.24 10.02-1.58 9.32-0.45-0.27 0.45-1.02 0.63-1.66 0.39-0.64-0.23-2.13 0.46-3.31 1.53-1.59 1.45-3.65 1.97-7.93 2.01-4.81 0.04-6.2 0.47-8.31 2.59-1.4 1.39-3.91 2.88-5.58 3.31-1.9 0.49 0.34 0.67 6.03 0.48 4.98-0.17 10.53-0.09 12.33 0.17 3.57 0.53 5.23 2.91 3.01 4.32-2.4 1.52-5.06 1-5.61-1.1-0.5-1.9-1.07-1.98-10.16-1.36-5.3 0.35-10.39 1.03-11.31 1.51-0.93 0.47-2.95 0.87-4.5 0.88-1.55 0-6.31 1.09-10.57 2.42-7.07 2.2-7.75 2.26-7.75 0.68 0-0.94 0.36-2.15 0.8-2.67s1.65-3.42 2.69-6.45c1.04-3.02 2.39-6.47 3.01-7.66 1.19-2.29 0.82-9.34-0.49-9.34-0.43 0-1.01 0.9-1.3 2s-0.11 1.75 0.38 1.44c1.45-0.89 1.05 1.28-0.52 2.85-1.11 1.11-1.17 1.71-0.26 2.62 0.82 0.82 0.85 1.39 0.1 1.88-0.59 0.39-2.37 3.41-3.95 6.71-1.59 3.3-3.26 6.16-3.71 6.35-0.46 0.19-0.31 0.97 0.32 1.74 1.82 2.19 0.48 3.93-4.06 5.29-2.31 0.69-4.01 1.45-3.78 1.69 0.24 0.23 3.32 1.07 6.85 1.87l6.42 1.44-12.57-0.47c-6.92-0.26-13.64-0.08-14.95 0.4l-2.38 0.88 2.63 1.72c3.24 2.13 4.44 5.44 5.36 14.81 0.39 4 1.54 9.23 2.56 11.61 1.02 2.39 1.85 5.43 1.85 6.75 0 2.97-0.02 2.97 5.85 0 2.64-1.34 11.73-4.24 20.22-6.46 17.94-4.68 27.99-8.08 35.83-12.13l5.6-2.89-13-0.22-13-0.21 13.5-0.65c12.01-0.58 14.16-0.97 19.42-3.49 5.35-2.56 13.08-9.51 17.32-15.57 3.62-5.16 3.2-16.35-1.08-28.52-0.76-2.17-1.69-6.64-2.07-9.94-0.78-6.87-1.98-10.4-5.35-15.84-1.31-2.12-2.2-4.03-1.98-4.25 0.99-0.99 6.94 9.01 7.99 13.43l1.16 4.89 3.55-0.98c4.31-1.19 16.33-0.37 16.84 1.15 0.2 0.61 1.24 1.1 2.3 1.1 1.61 0 1.83 0.47 1.28 2.75-0.87 3.64-2.23 5.25-4.44 5.25-1 0-2.1 0.45-2.44 1s0.28 1 1.38 1c4.28 0 3.57 4.93-0.74 5.12-1.69 0.07-2.01 0.28-0.89 0.57 0.96 0.25 1.75 0.88 1.75 1.38 0 0.51 0.78 0.93 1.74 0.93 1.38 0 1.15 0.55-1.1 2.63-2.07 1.93-2.5 2.84-1.57 3.41 0.97 0.6 0.88 1.16-0.41 2.44-0.91 0.92-1.66 2.36-1.66 3.2 0 0.98-0.56 1.32-1.56 0.93-1.23-0.47-1.42-0.13-0.89 1.55 0.62 1.96 0.4 2.09-2.68 1.55-2.98-0.53-3.11-0.47-1.09 0.51 2.44 1.19 2.46 3.35 0.03 3.17-1.04-0.08-1.34 0.6-1.02 2.31 0.36 1.84-0.04 2.55-1.66 2.98-1.24 0.32-2.13 1.36-2.13 2.47 0 1.05-0.79 2.21-1.75 2.58-1.69 0.65-2.84 1.45-5.65 3.96-1.02 0.91-1.62 0.91-2.61 0-1.01-0.94-1.16-0.84-0.7 0.49 0.74 2.08-1.49 4.07-3.64 3.24-0.88-0.34-3.15 0.35-5.05 1.52-6.9 4.26-19.27 10.11-26.6 12.57-11.29 3.8-11.09 3.16-3.86 12.1 7.73 9.56 13.44 15.38 15.11 15.42 2.54 0.07-3.57 3.97-6.21 3.97-2.73 0-2.74 0-1.94 5.25 3.33 21.92 4.03 32.89 2.84 44.51-1.74 16.93-2.51 17.29-2.14 0.97 0.19-7.83-0.06-16.7-0.55-19.73l-0.89-5.5-1.27 6c-2.36 11.2-6.06 24.24-5.53 19.5 0.39-3.49-0.24-2.26-2.85 5.52-1.84 5.51-3.92 10.91-4.61 12-1.24 1.97-1.25 1.97-0.61-0.01 1.36-4.26 6.51-25.38 7.92-32.51 4.15-20.98 4.81-26.03 3.57-27.53-0.94-1.12-0.95-1.8-0.06-2.87 1.53-1.85 0.4-6.35-2.48-9.81-1.82-2.2-2.37-2.42-2.85-1.17-1.16 3.04-0.66 4.21 1.57 3.63 2.12-0.55 2.14-0.42 1.48 7.84-0.88 11.03-6.91 35.25-11.37 45.7-3.69 8.65-5.38 10.62-2.78 3.24 2.02-5.73 1.84-6.32-0.56-1.78-3.09 5.86-3.02 4.45 0.19-3.89 1.61-4.2 2.75-7.82 2.52-8.06-0.24-0.23-1.17 1.52-2.08 3.89s-2.54 5.44-3.62 6.81c-1.43 1.83-1.17 0.74 0.96-4 9.65-21.5 11.84-28.08 14.55-43.69 1.07-6.11-1.29-4.26-3.72 2.94-1.63 4.81-3.72 8.6-6.2 11.25-2.06 2.2-4.87 5.68-6.26 7.74-1.38 2.05-2.86 3.52-3.28 3.26s-1.38 0.28-2.13 1.2c-0.76 0.94-0.84 1.38-0.19 0.98 0.64-0.38 1.92 0.05 2.83 0.96 1.33 1.33 1.59 1.37 1.33 0.19-0.18-0.82 2.71-4.76 6.42-8.78 3.71-4.01 6.75-6.86 6.75-6.33 0 0.54-0.94 1.82-2.09 2.86s-4.92 5.95-8.38 10.91-8.17 11.04-10.45 13.51c-3.45 3.74-3.22 3.25 1.4-2.87 4.22-5.61 5.3-7.69 4.47-8.69-0.87-1.05-1.63-0.77-3.77 1.42-1.91 1.96-2.11 2.04-0.68 0.3 1.47-1.79 1.66-2.55 0.72-2.89-0.77-0.28 2.25-4.15 7.71-9.86 7.95-8.32 9.22-10.16 11.03-16.01 1.15-3.73 1.99-9.07 1.92-12.25-0.06-3.11-0.31-4.75-0.56-3.65-1.59 7.14-3.53 12.49-4.35 11.98-0.52-0.32-0.68 0.11-0.35 0.96 0.32 0.85 0.99 1.3 1.47 1 1.26-0.77-0.05 2.42-2.78 6.81-2.99 4.81-17.38 21.01-18.06 20.34-0.28-0.28 2.54-3.79 6.26-7.8 8.7-9.37 14.19-17.49 12.77-18.91-1.01-1.01-5.29 4.01-18.23 21.37-2.36 3.16-4.72 5.75-5.25 5.75-0.52 0 2.78-4.84 7.35-10.75 15.93-20.62 17.76-23.24 18.77-26.93 0.57-2.04 0.85-3.88 0.64-4.1-0.22-0.21-2.06 2.22-4.1 5.41-9.58 14.97-30.66 39.83-33.81 39.86-0.47 0.01-4.91 4.29-9.86 9.51-5.03 5.31-6.8 6.85-4 3.5 2.75-3.3 6.22-7.12 7.7-8.5 1.48-1.37 3.16-3.4 3.74-4.5 1.34-2.56-1.79 0.14-11.59 10-7.449 7.5-7.243 6.15 0.27-1.75 5.61-5.9 4.28-6.26-1.87-0.5-2.6 2.43-1.99 1.58 1.42-2 3.28-3.43 6.66-6.13 7.5-5.99 1 0.16 1.43-0.4 1.23-1.59-0.17-1.01 1.63-5.06 4-9s4.63-7.96 5.03-8.92c0.66-1.61 0.53-1.63-1.54-0.27-1.24 0.81-4.02 5.09-6.17 9.51-2.16 4.42-4.39 7.86-4.97 7.65-0.57-0.21-0.93-0.89-0.79-1.51s0.36-1.68 0.5-2.35c0.14-0.68 0.76-1.79 1.39-2.46 1.88-2.04 10.01-17.62 10.73-20.57 0.97-3.97-0.01-3.38-2.49 1.5-1.19 2.34-3.78 6.73-5.77 9.75-1.98 3.03-3.76 6.18-3.94 7-0.18 0.83-1.04 2.29-1.91 3.26-0.87 0.96-1.32 2.01-1.01 2.32 0.31 0.32-1.66 3.55-4.38 7.19-2.716 3.64-6.303 8.99-7.967 11.9-1.663 2.91-3.449 5.55-3.968 5.87-1.692 1.05 6.25-11.88 11.235-18.29 2.68-3.44 4.41-6.25 3.86-6.25-1.25 0-10.768 12.09-17.779 22.57-2.888 4.32-5.25 7.47-5.25 7 0-1.45 11.073-17.79 15.975-23.57 5.504-6.49 7.744-11.46 2.484-5.5-1.937 2.2-7.17 8.84-11.623 14.75s-8.286 10.75-8.517 10.75c-0.682 0 8.658-12.98 14.296-19.86 6.134-7.5 8.144-12.18 3.224-7.52-3.036 2.88-19.434 24.88-21.701 29.12-0.659 1.23-1.673 2.13-2.254 2-0.582-0.13-2.227 1.89-3.657 4.49s-2.796 4.54-3.035 4.3c-0.768-0.77 5.595-11.04 6.686-10.79 0.577 0.13 0.838-0.32 0.578-1-0.259-0.68 1.445-3.32 3.786-5.87 4.649-5.05 13.258-16.7 13.258-17.93 0-0.43 0.337-1.11 0.75-1.52 1.438-1.44 0.738-2.65-0.796-1.38-0.85 0.7-1.305 1.91-1.011 2.67 0.294 0.77 0.12 1.14-0.385 0.83-0.982-0.61-2.488 1.23-2.532 3.08-0.014 0.62-2.726 4.17-6.026 7.91-3.3 3.73-6.593 7.62-7.319 8.64-0.725 1.03-1.807 1.56-2.404 1.19-0.611-0.37-0.802-0.21-0.436 0.38 0.357 0.58-1.148 4.13-3.346 7.89-2.197 3.76-3.99 6.62-3.984 6.36 0.006-0.27 0.662-2.64 1.459-5.26 0.797-2.63 1.192-5.45 0.877-6.27-0.314-0.81-0.129-2.04 0.411-2.72 0.539-0.68 1.238-3.04 1.551-5.24 0.528-3.7 0.486-3.79-0.562-1.25-1.119 2.72-3.747 3.84-3.747 1.6 0-0.66-0.866-0.37-2 0.65-1.1 1-2 1.3-2 0.68s1.139-1.88 2.531-2.79 2.29-1.9 1.996-2.19c-0.294-0.3-1.658 0.52-3.031 1.81-2.532 2.37-3.539 1.56-1.246-1.01 1.065-1.19 0.989-1.2-0.513-0.07-0.97 0.74-1.704 1.84-1.632 2.45 0.262 2.22-0.15 3.17-2.635 6.06-2.512 2.92-2.834 3.79-3.925 10.64-0.314 1.96-1.265 4.44-2.113 5.5-1.482 1.85-1.501 1.84-0.487-0.26 0.58-1.2 1.055-3.81 1.055-5.78 0-1.98 1.12-6.26 2.49-9.51 1.369-3.26 2.238-6.57 1.931-7.37-0.306-0.8-0.077-1.75 0.511-2.12 0.587-0.36 1.068-1.38 1.068-2.27s-1.393 0.49-3.094 3.06c-2.817 4.25-4.98 6.46-3.355 3.42 0.367-0.69-0.476 0.1-1.874 1.75s-4.688 7.16-7.31 12.25c-4.78 9.27-6.115 11.35-4.399 6.83zm40.974-23.67c1.957-2.42 2.77-3.79 1.808-3.04-1.483 1.17-1.756 1.17-1.792 0-0.041-1.37-6.958 5.8-6.958 7.21 0 2.03 3.777-0.24 6.942-4.17zm-4.942 3.27c0-0.46 1.205-1.92 2.677-3.25l2.678-2.43-2.246 3.25c-2.266 3.28-3.109 3.94-3.109 2.43zm5.88-10.51c5.711-2.55 7.699-7.97 4.563-12.45-0.856-1.22-2.431-2.22-3.5-2.22-2.13 0-2.443 1.2-1.013 3.87 1.796 3.36-2.388 6.13-9.242 6.13-5.339 0-7.398-1.8-5.693-4.99 1.633-3.05 0.876-4.14-1.899-2.73-3.636 1.85-6.426 6.11-5.634 8.6 1.69 5.33 14.228 7.45 22.418 3.79zm-6.305-0.55c-0.298-0.48 0.83-1.15 2.507-1.48 1.685-0.34 2.772-1.07 2.428-1.62-0.65-1.05 4.11-3.73 5.018-2.82 1.246 1.24-0.99 3.77-4.626 5.22-4.605 1.85-4.619 1.85-5.327 0.7zm40.424-3.74c0-1.12-1.88-0.14-2.41 1.26-0.53 1.38-0.39 1.44 0.89 0.38 0.84-0.69 1.52-1.43 1.52-1.64zm-39.999-6.88c0-1.92-0.405-3.5-0.9-3.5s-0.9 1.58-0.9 3.5c0 1.93 0.405 3.5 0.9 3.5s0.9-1.57 0.9-3.5zm21.566-1.75c1.097 0.63 2.054 0.09 3.267-1.85 1.089-1.75 1.087-1.99-0.009-1.42-0.728 0.38-0.386-0.13 0.76-1.14 1.896-1.67 8.165-11.17 11.415-17.31l1.31-2.48-2.4 1.76c-1.33 0.97-3.08 2.01-3.91 2.31-1.24 0.46-9.208 15.82-9.624 18.56-0.069 0.45-0.188 1.16-0.265 1.57-0.078 0.41-0.592 0.08-1.144-0.75-0.874-1.31-1.135-1.27-2.034 0.25-0.567 0.96-1.486 1.75-2.041 1.75-0.556 0 0.817-2.16 3.049-4.81 4.152-4.93 5.379-7.52 2.393-5.06-3.239 2.67-7.333 9.2-7.333 11.71v2.54l3.066-2.94c1.686-1.62 3.261-2.83 3.5-2.69zm1.434 2.51c0-0.28-0.675 0.06-1.5 0.74-0.825 0.69-1.5 1.47-1.5 1.75 0 0.27 0.675-0.06 1.5-0.75 0.825-0.68 1.5-1.47 1.5-1.74zm30.219-8.62l2.08-2.87-2.4 0.74c-1.32 0.41-2.43 0.8-2.47 0.87-0.04 0.06-0.96 1.7-2.06 3.62-4.82 8.5-2.03 7.14 4.85-2.36zm5.28 0.68c5.76-6.5 22.48-28.47 22.49-29.54 0.02-1.8-2.77 0.7-5.59 5.01-1.7 2.6-7.14 9.45-12.09 15.22-8.82 10.28-12.16 15-10.59 14.98 0.43-0.01 3.03-2.56 5.78-5.67zm-39.917-0.3c2.566-2.75 5.169-4.7 5.79-4.34 0.62 0.35 0.805 0.28 0.411-0.15-0.395-0.44 0.168-1.92 1.25-3.3 2.336-2.97 2.496-4.13 0.515-3.84-1.447 0.21-13.548 14.35-13.548 15.83 0 1.47 0.928 0.77 5.582-4.2zm3.772-10.97c-0.963-0.93-11.354 11.16-11.354 13.2 0 1.31 1.931-0.43 5.961-5.37 3.278-4.01 5.705-7.54 5.393-7.83zm16.345 5.7c6.41-10.55 7.55-12.75 6.59-12.73-0.44 0-2.01 2.14-3.51 4.75-1.5 2.6-4.3 7.32-6.23 10.48-1.92 3.16-3.13 5.75-2.68 5.75s3.08-3.71 5.83-8.25zm-1.84-3.51c4.11-6.81 6.35-13.1 4.17-11.76-0.56 0.35-1.03 1.14-1.03 1.74 0 0.61-2.47 5.09-5.5 9.96-3.02 4.86-5.48 9.4-5.47 10.08 0.05 1.77 2.93-1.92 7.83-10.02zm-26.978 5.5c-1.231 1.78-1.961 3.51-1.622 3.85 0.679 0.68 6.172-5.2 9.089-9.72 1.017-1.58 2.329-2.87 2.917-2.87 0.587 0 0.813-0.25 0.501-0.57-1.1-1.1-10.296 4.41-12.604 7.55-1.286 1.75-2.605 2.91-2.932 2.59-0.919-0.92 5.785-7.45 10.52-10.25 2.337-1.38 4.25-2.92 4.25-3.41 0-1.53-0.994-1.07-7.611 3.56-3.514 2.45-6.389 4.05-6.389 3.54s2.458-2.63 5.462-4.72c5.134-3.56 6.662-5.29 4.679-5.29-0.473 0-2.821 1.55-5.218 3.45-4.793 3.79-7.077 3.81-2.673 0.01 1.512-1.3 2.75-2.68 2.75-3.07 0-0.38-0.903 0.12-2.006 1.12-2.513 2.27-3.904 1.15-1.655-1.33 2.334-2.58 2.075-3.86-0.339-1.68-1.947 1.76-2.002 1.75-2.086-0.59-0.078-2.18-0.176-2.12-1.021 0.59-0.969 3.11-0.506 16.74 0.673 19.81 0.573 1.5 1.172 1.2 4.112-2.03 3.096-3.4 3.217-3.45 1.203-0.54zm-22.94-5.46c2.993-3.63 4.775-6.18 3.961-5.69-1.865 1.15-10.902 10.9-10.902 11.77 0 1.67 1.939-0.02 6.941-6.08zm74.738-3.45c5.24-5.42 15.36-18.12 14.85-18.63-0.21-0.21-1.88 0.18-3.7 0.86-2.4 0.89-4.57 3.15-7.79 8.1-2.45 3.78-5.82 8.36-7.5 10.18-1.67 1.83-3.64 4.36-4.38 5.62l-1.34 2.31 2.84-2.05c1.56-1.13 4.72-4 7.02-6.39zm-7.29-3.67c1.99-2.39 3.36-4.76 3.05-5.25-1.28-2.08-2.05-1.11-6.5 8.09-1.43 2.97-1.24 2.8 3.45-2.84zm5.38-0.41c7.18-9.84 8.37-11.75 7.3-11.75-0.59 0-1.78 0.79-2.64 1.75-2.55 2.83-11.43 14.35-11.43 14.82 0 0.24 0.66 0.43 1.47 0.43s3.19-2.36 5.3-5.25zm-62.128-3.24c-0.684-1.78-9.86-6.51-12.64-6.51-1.136 0-3.695-0.68-5.687-1.51s-3.804-1.33-4.028-1.11c-0.982 0.98 5.013 5.57 9.404 7.19 2.645 0.98 5.383 2.21 6.084 2.75 0.701 0.53 1.547 0.69 1.881 0.36s1.559 0.06 2.721 0.87c2.212 1.55 3.275 0.59 2.265-2.04zm33.358-0.72c0-1.41-1.86 0.09-3.139 2.52-1.143 2.18-1.136 2.18 0.999 0.29 1.18-1.05 2.14-2.32 2.14-2.81zm13-7.77c7.15-8 7.32-8.28 2.05-3.52-5.41 4.89-5.69 5.17-10.05 9.98-3.43 3.77-3.44 3.81-0.5 1.77 1.65-1.14 5.48-4.85 8.5-8.23zm9.34 7.53c0.37-0.97 0.08-1.26-0.89-0.89-1.58 0.61-1.99 2.34-0.56 2.34 0.5 0 1.15-0.65 1.45-1.45zm-26.399-4.26c1.359-1.22 2.229-2.45 1.949-2.73-0.29-0.29-2.29 1.36-4.454 3.66-3.818 4.06-2.505 3.57 2.505-0.93zm27.069-4.79c3.01-3.3 4.13-4.88 2.48-3.5-3.19 2.65-6.73 6.21-9.99 10.02l-2 2.34 2.02-1.43c1.11-0.78 4.48-4.13 7.49-7.43zm-86.628 5.95c0.342-0.89 0.174-1.29-0.393-0.94-0.543 0.33-0.988 1.03-0.988 1.55 0 1.44 0.717 1.12 1.381-0.61zm53.108-1.07c0.945-1.44 1.224-2.32 0.62-1.95-1.154 0.72-3.483 4.57-2.759 4.57 0.231 0 1.193-1.18 2.139-2.62zm13.51-3.12c0-0.28-0.67 0.06-1.5 0.74-0.82 0.69-1.5 1.47-1.5 1.75 0 0.27 0.68-0.06 1.5-0.75 0.83-0.68 1.5-1.47 1.5-1.74zm23 0.62c0-0.55-0.45-0.72-1-0.38s-1 1.07-1 1.62 0.45 0.72 1 0.38 1-1.07 1-1.62zm-47.999-0.33c0-0.8-0.788-1.95-1.75-2.56-1.483-0.94-1.33-1.05 1-0.69 4.138 0.64 3.485-2.09-0.944-3.94-2.031-0.85-5.294-1.79-7.25-2.1-4.657-0.72-13.078-4.95-12.977-6.53 0.055-0.86 0.22-0.88 0.548-0.08 0.258 0.62 1.33 0.91 2.383 0.64 1.053-0.28 4.069 0.24 6.702 1.14 6.652 2.28 16.288 3.24 16.288 1.62 0-0.68-0.9-1.47-2-1.76s-2-0.86-2-1.27-2.138-1.54-4.75-2.51c-2.613-0.97-6.144-2.6-7.847-3.63-1.703-1.02-3.39-1.56-3.75-1.2-0.359 0.36-0.653 0.15-0.653-0.47 0-0.61-1.58-1.41-3.511-1.78-3.547-0.66-5.838-2.43-3.155-2.43 0.799 0 1.693-0.63 1.988-1.4 0.758-1.97-4.481-2.57-8.333-0.95-2.293 0.96-3.717 2.75-5.615 7.04-3.365 7.61-3.588 13.39-0.639 16.53 2.61 2.78 9.693 5.46 16.765 6.36 2.75 0.35 5.187 0.81 5.417 1.03 0.229 0.21 3.491 0.39 7.25 0.39 5.303 0 6.833-0.32 6.833-1.45zm-10.5-3.2c-1.1-0.24-3.013-0.64-4.25-0.91-1.238-0.26-2.25-0.88-2.25-1.37 0-0.91 10.582 1.18 11.713 2.31 0.668 0.67-1.973 0.65-5.213-0.03zm-16.494-3.56c-0.003-0.39-1.702-1.22-3.774-1.84-2.351-0.7-4.209-2.06-4.94-3.61-0.99-2.1-0.955-2.3 0.224-1.33 2.122 1.77 3.686 0.19 2.984-3.01-0.347-1.58-0.154-3.09 0.441-3.46 0.583-0.36 1.059 0 1.059 0.8 0 0.85 1.584 1.88 3.75 2.46l3.75 0.99-3.51 0.11c-2.33 0.07-3.922 0.76-4.739 2.07-1.486 2.38-0.561 3.02 7.999 5.5 3.162 0.92 5.75 1.81 5.75 1.98 0 0.16-2.022 0.24-4.494 0.18-2.472-0.07-4.497-0.45-4.5-0.84zm55.993 3.71c1.29-1.37 2.12-2.5 1.85-2.5-0.28 0-1.56 1.13-2.85 2.5-1.29 1.38-2.12 2.5-1.85 2.5 0.28 0 1.56-1.12 2.85-2.5zm26.97-4.75c2.88-3.16 5.06-5.75 4.85-5.75s-3.07 2.75-6.35 6.12-5.47 5.95-4.85 5.75 3.47-2.96 6.35-6.12zm-12.55 2.61c0.52-1.37 0.38-1.43-0.9-0.38-1.73 1.44-1.91 2.02-0.63 2.02 0.5 0 1.18-0.74 1.53-1.64zm22.83-3.38l2.15-3.48-2.29 1.99c-2.8 2.43-4.86 5.93-3.15 5.36 0.63-0.21 2.11-1.95 3.29-3.87zm8.75 0.4c0-1.12-1.88-0.14-2.41 1.26-0.53 1.38-0.39 1.44 0.89 0.38 0.84-0.69 1.52-1.43 1.52-1.64zm10.5 1.62c-0.34-0.55-0.82-1-1.06-1s-0.44 0.45-0.44 1 0.48 1 1.06 1 0.78-0.45 0.44-1zm-18.52-6.48c0.72-0.86 1.1-1.77 0.85-2.02-0.25-0.26-2.23 1.4-4.39 3.68-3.57 3.75-3.65 3.95-0.85 2.03 1.7-1.16 3.68-2.82 4.39-3.69zm6.85-1.02c-0.31-0.31-1.35 0.69-2.31 2.22l-1.76 2.78 2.31-2.22c1.28-1.22 2.07-2.47 1.76-2.78zm7.17 0.5c-1.17-1.65-2.36-3-2.62-3-0.27 0 0.31 1.35 1.28 3s2.16 3 2.62 3c0.47 0-0.1-1.35-1.28-3zm-53.93-3.09c2.44-1.27 4.77-2.22 5.18-2.11 1.06 0.28 0.94-3.56-0.13-4.23-0.49-0.3-1.19-3.58-1.57-7.3-1.5-14.77-3.54-17.68-13.049-18.61-4.051-0.4-8.762 0-14.5 1.23-8.279 1.78-8.422 1.86-5.5 3.05 2.789 1.13 6.868 0.95 13.5-0.63 1.444-0.34 2.148-0.21 1.667 0.3-0.459 0.49-1.134 0.84-1.5 0.78-0.367-0.05-2.617 0.73-5 1.75-2.383 1.03-5.012 1.86-5.842 1.86s-2.654 0.9-4.052 2c-1.55 1.22-4.057 2-6.422 2-2.133 0-4.66 0.42-5.615 0.93s-2.636 1.26-3.736 1.66c-5.096 1.88 12.631 2.53 24 0.88 1.987-0.29 2.494-0.15 1.5 0.42-2.068 1.17-16.724 3.17-21 2.87-2.548-0.19-3.5 0.15-3.5 1.23 0 2.08 4.111 2.76 17.691 2.89 7.65 0.08 11.938 0.52 12.405 1.28 0.515 0.83-0.22 0.97-2.622 0.49-1.835-0.37-4.943-0.36-6.906 0.02-3.317 0.65-3.392 0.74-1.068 1.31 1.375 0.34 2.507 1.04 2.515 1.57 0.028 1.71 1.644 3.58 4.844 5.6 4.078 2.57 12.48 2.01 18.71-1.24zm-17.069-1.91c-4.095-2.24-3.551-2.42 2.64-0.86 3.111 0.78 4.109 1.4 3.193 1.99-1.747 1.1-1.762 1.1-5.833-1.13zm-14.732-21.4c1.656-1.26 1.609-1.45-0.75-2.99-2.499-1.64-2.518-1.63-2.518 1.37 0 3.32 0.616 3.63 3.268 1.62zm16.973-11.44c0.673-0.67-1.535-7.69-2.859-9.09-0.908-0.95-8.023-0.88-10.032 0.11-1.183 0.58-2.917 2.91-3.853 5.19-0.936 2.27-2.053 4.83-2.483 5.68-0.7 1.39 0.206 1.41 8.821 0.23 5.28-0.72 9.963-1.68 10.406-2.12zm-9.67-1.73c-1.732-1.73-1.965-2.43-0.812-2.43 0.418 0 1.322 0.9 2.009 2 1.497 2.4 0.964 2.59-1.197 0.43zm4.429-0.31c0-0.48 0.749-1.49 1.664-2.25 1.508-1.24 1.552-1.16 0.464 0.88-1.239 2.33-2.128 2.9-2.128 1.37zm-16.5 1.88c0.35-0.57-0.49-1-1.941-1-1.408 0-2.559 0.45-2.559 1s0.873 1 1.941 1c1.067 0 2.219-0.45 2.559-1zm28.5-5.56c0-0.24-0.45-0.44-1-0.44s-1 0.48-1 1.06 0.45 0.78 1 0.44 1-0.81 1-1.06zm-28.211-0.57c-0.198-0.59-2.031-1.65-4.074-2.36-3.339-1.14-3.715-1.1-3.715 0.44 0 2.39 0.511 2.71 4.579 2.86 2.156 0.08 3.427-0.29 3.21-0.94zm40.63-0.87c1.46 0 8.3-6.6 9.82-9.5 1.05-2 1.05-2-1.33 0-1.3 1.1-1.9 1.33-1.32 0.5 0.58-0.82 1.63-3.52 2.35-6 0.71-2.47 1.75-5.75 2.31-7.28s0.73-3.07 0.38-3.43c-0.36-0.35 0.27-1.62 1.39-2.81 1.3-1.38 1.79-2.81 1.36-3.94-0.58-1.51-0.87-1.34-1.95 1.09-1.26 2.85-1.27 2.85-1.3 0.37-0.03-1.37 0.32-4.37 0.76-6.66 0.65-3.31 0.53-4.05-0.54-3.64-1.21 0.46-1.86 3.68-1.42 7.05 0.09 0.69-0.26 1.25-0.78 1.25-1.58 0-2.18 2.98-0.99 4.89 0.88 1.41 0.76 2.56-0.53 5.15-1.07 2.15-1.32 3.67-0.69 4.3 0.62 0.62 0.55 1.71-0.2 3.06-1.16 2.09-1.38 2.7-1.61 4.6-0.07 0.55-0.74 1-1.49 1s-3.05 1.15-5.12 2.55c-5.14 3.49-5.88 2.09-1.04-1.97 3.73-3.13 3.95-3.63 4.12-9.35 0.09-3.33 0.38-6.42 0.64-6.89 0.25-0.46 0.42-2.75 0.36-5.09-0.06-2.79 0.33-4.25 1.15-4.25 0.69 0 1.22-0.79 1.17-1.75-0.05-1.04-0.28-1.25-0.58-0.5-0.83 2.05-2.33 1.42-2.42-1-0.05-1.5-0.27-1.75-0.65-0.75-0.31 0.83-1.06 1.83-1.67 2.24-0.76 0.5-0.71 0.74 0.15 0.75 0.69 0 1.25 1.14 1.25 2.51 0 1.38-0.43 2.5-0.97 2.5-0.53 0-0.68 0.75-0.32 1.68 0.47 1.22 0.23 1.51-0.91 1.07-1.16-0.44-1.54 0.08-1.53 2.08 0.01 1.47 0.22 2.11 0.46 1.42s0.79-1.25 1.22-1.25c1.01 0-0.24 6.84-1.77 9.67-0.64 1.19-0.83 2.36-0.42 2.59s0.11 0.25-0.65 0.05c-1.05-0.27-1.12-0.03-0.3 0.97 0.84 1.01 0.24 2.12-2.6 4.74-2.04 1.88-4.19 3.43-4.78 3.45-1.12 0.03-4.429 2.99-4.429 3.96 0 1.65 6.529 0.19 10.559-2.36 5.11-3.25 8.81-3.24 5.87 0.02-0.92 1.01-1.95 1.8-2.3 1.75-1.85-0.23-3.13 0.29-3.13 1.27 0 0.61 0.71 0.83 1.58 0.5 0.87-0.34 2.15-0.61 2.84-0.61zm9.15-3.11c0.37-0.6-0.5-0.32-1.95 0.62-1.44 0.95-2.62 1.91-2.62 2.14 0 0.73 3.85-1.6 4.57-2.76zm-20.13-2.97c1.6-0.78 3.11-2.02 3.35-2.77 0.35-1.07 0.01-1.11-1.67-0.21-1.65 0.88-2.12 0.85-2.13-0.15-0.01-0.83-0.28-0.92-0.75-0.25-0.408 0.57-2.269 1.99-4.138 3.15l-3.399 2.1 2.917-0.23c1.604-0.12 4.225-0.86 5.82-1.64zm42.45-3.92c-0.05-2.44-0.09-2.42-1.43 0.5-1.89 4.15-1.89 6.46 0.01 3.94 0.81-1.06 1.45-3.06 1.42-4.44zm75.04 0.41c-1.77-2.13-3.15-1.69-1.91 0.62 0.59 1.11 1.53 1.75 2.08 1.41 0.64-0.4 0.58-1.12-0.17-2.03zm-149.51-6.36c0.181-1.4 1.996-6.3 4.034-10.89 3.72-8.37 4.249-11.4 1.17-6.7-2.185 3.33-7.637 19.7-7.557 22.69l0.064 2.35 0.98-2.45c0.539-1.35 1.128-3.6 1.309-5zm18.706 4.28c-0.872-1.5-1.067-1.55-1.092-0.25-0.032 1.69 1.019 3.21 1.728 2.5 0.234-0.24-0.052-1.25-0.636-2.25zm9.437-0.78c1.873-1.4 1.861-1.43-0.325-0.88-1.246 0.32-2.51 0.97-2.809 1.45-0.846 1.37 0.984 1.04 3.134-0.57zm30.43-0.8c-0.02-1.82-0.21-1.96-0.99-0.75-1.25 1.94-1.25 3 0 3 0.55 0 0.99-1.01 0.99-2.25zm25.01-0.87c0-1.1-0.45-1.72-1-1.38s-1 1.52-1 2.62 0.45 1.72 1 1.38 1-1.52 1-2.62zm-84.941-16.42c3.682-11.32 3.694-12.4 0.059-5.46-3.16 6.04-5.183 14.06-4.997 19.8l0.12 3.7 0.938-4.5c0.516-2.47 2.262-8.57 3.88-13.54zm6.816 10.54c-0.02-0.82-0.655-0.15-1.41 1.5-0.756 1.65-1.358 3.68-1.338 4.5 0.02 0.83 0.654 0.15 1.41-1.5s1.357-3.67 1.338-4.5zm70.125 5c0.59-1.1 0.66-2 0.15-2-0.5 0-1.15 0.9-1.44 2s-0.35 2-0.15 2 0.85-0.9 1.44-2zm-56.732-0.4c0.32 0.32 0.426-0.24 0.234-1.26-0.191-1.01-0.383-2.2-0.425-2.65-0.042-0.44-0.533-0.52-1.092-0.18-0.559 0.35-0.777 1.02-0.484 1.49 0.293 0.48 0.075 1.15-0.484 1.49-0.559 0.35-1.016 1.11-1.016 1.69 0 0.73 0.425 0.71 1.342-0.05 0.738-0.61 1.604-0.85 1.925-0.53zm18.312 0.4c1.85 0 2.42-0.53 2.41-2.25-0.02-1.81-0.21-1.95-0.97-0.75-0.52 0.83-1.08 1.36-1.23 1.18-0.46-0.51-5.79 1.7-5.79 2.4 0 0.35 0.71 0.36 1.58 0.03 0.87-0.34 2.67-0.61 4-0.61zm-44.59-15.5c2.408-5.73 2.859-7.02 3.514-10 0.77-3.5 0.411-3.26-2.235 1.5-2.748 4.94-5.007 12.57-5.626 19l-0.529 5.5 1.808-6.5c0.994-3.57 2.375-7.85 3.068-9.5zm20.996 12.69c-0.014-1.45-0.15-1.48-0.985-0.19-1.266 1.96-1.266 3.28 0 2.5 0.55-0.34 0.993-1.38 0.985-2.31zm138.26 2.15c-0.69-0.28-1.81-0.28-2.5 0s-0.12 0.5 1.25 0.5c1.38 0 1.94-0.22 1.25-0.5zm-89.85-1.93c0.33-0.87 0.37-1.97 0.09-2.43-0.29-0.46-0.06-1.12 0.49-1.47 0.56-0.34 1.02-1.08 1.02-1.63 0-1.71-1.8 0.02-3.44 3.3-1.9 3.81-1.9 3.82-0.17 3.82 0.77 0 1.67-0.71 2.01-1.59zm27.41-6.91c-1.18-2.99-4.74-8.25-8.05-11.92-0.95-1.06-1.97-2.64-2.25-3.5-0.77-2.31-10.93-9.54-19.28-13.71-4-1.99-7.46-3.93-7.68-4.3-0.64-1.02 3.83-8.52 4.77-8.01 0.45 0.24 1.28-0.38 1.85-1.39 0.98-1.75 1.09-1.74 2.48 0.25 0.81 1.14 2.34 2.08 3.41 2.08 2.35 0 2.35-0.07 0.35-4.28-1.27-2.66-1.4-4.25-0.61-7.78l0.99-4.44 0.1 4.85c0.1 4.38 2.56 10.65 4.19 10.65 1.52 0 5.73-5.27 7.36-9.22 2.87-6.97 3.12-7.25 6.83-7.86 4.71-0.76 8.33-3.12 13.47-8.76 5.36-5.88 5.58-8.69 0.76-9.59-1.92-0.36-4.73-1.77-6.25-3.12l-2.75-2.46 2.97 1.06c1.63 0.59 3.55 1.56 4.27 2.15 0.72 0.6 1.59 0.81 1.93 0.46 1.17-1.17-7.11-7.71-11.14-8.8-2.22-0.6-5.75-1.72-7.85-2.49-2.09-0.77-4.2-1.16-4.68-0.87-0.47 0.29-1.15 0.07-1.5-0.5s-1.17-0.7-1.82-0.3c-0.65 0.41-2.11 0.62-3.25 0.47-2.33-0.3-3.32 1.42-7.05 12.26-1.4 4.07-2.38 9.23-2.38 12.52 0 3.46-0.6 6.46-1.56 7.83-0.85 1.22-1.25 2.22-0.87 2.22 0.37 0 0.13 0.66-0.53 1.46-0.67 0.8-0.94 1.89-0.61 2.42s-0.33 2.53-1.46 4.45c-2.77 4.69-4.09 9.46-2.75 9.91 0.6 0.2 0.75 1.29 0.35 2.56-0.58 1.8-1.29 2.13-3.89 1.79-1.75-0.22-4.45-0.9-5.99-1.5-3.2-1.24-17.914-1.3-21.689-0.09-2.484 0.8-2.481 0.8 0.5 1.08 1.65 0.16 4.545 0.17 6.433 0.04 1.888-0.14 5.396 0.5 7.786 1.41 2.4 0.92 5.42 1.4 6.71 1.08 3.11-0.78 5 1.52 5.49 6.7 0.05 0.45 0.55 0.52 1.12 0.17 1.02-0.63 4.79 3.33 6.14 6.46 0.58 1.33 0.69 1.34 0.73 0.06 0.03-0.82-1.29-3.48-2.93-5.91-3.25-4.79-3.11-7.11 0.18-3.07 1.32 1.61 1.83 1.87 1.47 0.73-1.16-3.61 1.6-1.58 3.12 2.29 1.71 4.37 3.69 3.57 2.54-1.03-0.54-2.17-0.41-2.34 0.92-1.24 0.85 0.7 1.83 3.08 2.19 5.3 0.38 2.41 1.06 3.77 1.68 3.38 0.6-0.37 0.76-1.91 0.37-3.67-0.89-4.06 0.79-2.89 2.76 1.92 0.86 2.09 2.08 4.93 2.7 6.3 1.05 2.3 1.1 2.2 0.68-1.25-0.26-2.06-0.05-3.75 0.45-3.75 1.6 0 3.69 5.33 4.27 10.85 0.76 7.29 1.69 7.74 1.69 0.82 0-5.73 1.26-7.55 2.37-3.42 0.33 1.24 0.62 4.28 0.63 6.75 0.02 3.28 0.29 4.09 1 3 0.53-0.82 0.98-2.83 0.99-4.45 0.02-5.66 2.29-0.78 2.99 6.45 0.09 0.86 0.59 0.44 1.18-1l1.04-2.5 1.03 2.5c0.57 1.38 1 3.85 0.97 5.5l-0.06 3 0.93-3c0.63-2.03 0.54-3.97-0.26-6zm-32.31-50.5c1-1.1 2.04-2 2.31-2 0.28 0-0.31 0.9-1.31 2-0.99 1.1-2.03 2-2.31 2-0.27 0 0.32-0.9 1.31-2zm0-4c1-1.1 2.04-2 2.31-2 0.28 0-0.31 0.9-1.31 2-0.99 1.1-2.03 2-2.31 2-0.27 0 0.32-0.9 1.31-2zm6.88-10.68c0.52-5.25 6.66-15 11.73-18.65 2.04-1.47 4.06-2.67 4.5-2.67 0.43 0-1.04 1.34-3.26 2.98-4.68 3.44-8.49 8.8-10.33 14.52-2.33 7.26-3.1 8.38-2.64 3.82zm10.7-0.62c-0.04-1.54 0.61-4.13 1.45-5.75 2.87-5.55 2.59-3.34-0.87 7.05-0.28 0.83-0.54 0.24-0.58-1.3zm-66.475 70.57c-0.332-0.33-0.569 0.26-0.525 1.31 0.048 1.17 0.285 1.41 0.604 0.61 0.289-0.72 0.253-1.59-0.079-1.92zm1.36-8.64c0.02-0.48-0.639-0.31-1.464 0.37-0.825 0.69-1.484 2.2-1.465 3.37 0.034 2.01 0.119 1.99 1.465-0.37 0.786-1.37 1.445-2.89 1.464-3.37zm142.54 4.37c0.34-0.55-0.33-1-1.5-1-1.16 0-1.84 0.45-1.5 1s1.02 1 1.5 1c0.49 0 1.16-0.45 1.5-1zm5.5-0.21c0-0.43-0.9-0.79-2-0.79s-2 0.42-2 0.94 0.9 0.87 2 0.79c1.1-0.09 2-0.51 2-0.94zm-145.71-1.79c0.287-1.1 0.356-2 0.151-2-0.204 0-0.852 0.9-1.441 2-0.591 1.11-0.659 2-0.152 2 0.505 0 1.154-0.9 1.442-2zm25.319-0.73c-0.34-0.33-0.57 0.26-0.53 1.31 0.05 1.17 0.28 1.41 0.6 0.61 0.29-0.72 0.26-1.59-0.07-1.92zm-13.954-1.73c-0.326-0.84-1.06-1.54-1.632-1.54-0.658 0-0.592 0.72 0.181 1.96 1.379 2.21 2.351 1.93 1.451-0.42zm42.114-1.75c0.72-1.7 0.8-2.94 0.19-3.31-0.53-0.33-1.02-0.12-1.08 0.46-0.31 2.57-0.42 2.94-1.13 3.64-0.41 0.42-0.75 1.44-0.75 2.29 0 1.91 1.23 0.54 2.77-3.08zm-39.127-4.14c-3.679-6.27-9.15-11.6-12.634-12.3-1.637-0.32-2.731-0.99-2.432-1.47 0.595-0.96-3.7-2.89-6.391-2.86-1.461 0.01-1.485 0.15-0.185 1.04 1.186 0.81 0.976 0.97-1 0.73-3.818-0.44-1.998-2.3 2.17-2.21 2.544 0.06 5.698 1.4 10.28 4.39 6.511 4.24 9.17 4.78 6.442 1.31-1.266-1.62-1.233-1.65 0.358-0.41 0.962 0.76 1.75 2.15 1.75 3.09 0 0.95 1.081 2.21 2.402 2.81 3.218 1.47 2.925-0.73-0.703-5.28-2.846-3.57-12.685-7.99-15.905-7.14-0.987 0.25-1.794 0.05-1.794-0.46 0-0.84-2.225-0.6-7.322 0.79-1.018 0.28-1.595 1.1-1.307 1.85 0.284 0.74-0.02 1.52-0.676 1.74-0.657 0.22 1.456 0.71 4.694 1.09s7.251 1.47 8.919 2.42c4.136 2.35 13.359 11.6 14.195 14.23 0.374 1.18 0.918 1.9 1.21 1.61 0.291-0.29-0.641-2.53-2.071-4.97zm-10.642-15.15c-1.375-0.78-2.05-1.43-1.5-1.43s2.125 0.65 3.5 1.43c1.375 0.79 2.05 1.43 1.5 1.43s-2.125-0.64-3.5-1.43zm-3.584 16.75c1.729-2.05 1.745-2.25 0.18-2.25-0.943 0-1.455 0.42-1.139 0.93 0.317 0.51 0.118 1.22-0.441 1.56-0.559 0.35-1.016 1.13-1.016 1.74s0.117 0.92 0.261 0.69c0.143-0.23 1.113-1.43 2.155-2.67zm29.583 0.19c0-1.4-0.41-2.3-0.91-2-0.49 0.31-0.67 1.46-0.38 2.56 0.72 2.75 1.29 2.51 1.29-0.56zm-9.75-0.94c-0.27-1.37-0.65-2.5-0.87-2.5-0.21 0-0.379 1.13-0.379 2.5 0 1.38 0.389 2.5 0.859 2.5 0.48 0 0.65-1.12 0.39-2.5zm123.25 1.5c-0.34-0.55-1.49-1-2.56-1s-1.94 0.45-1.94 1 1.15 1 2.56 1c1.45 0 2.29-0.43 1.94-1zm-92.51-4.25c0-0.41-0.44-0.75-0.99-0.75s-0.99 1.01-0.98 2.25c0.01 1.82 0.2 1.96 0.98 0.75 0.53-0.82 0.98-1.84 0.99-2.25zm27.55 0.32c-0.36-0.59-1.64-1.06-2.85-1.05-2.1 0.01-2.09 0.06 0.31 1.33 2.75 1.44 3.55 1.36 2.54-0.28zm-100.54-2.28c0-0.54 0.876-2.09 1.946-3.45 1.894-2.41 1.898-2.56 0.121-5.72-1.003-1.79-2.883-6.14-4.177-9.68-1.321-3.62-2.503-5.67-2.697-4.68-0.429 2.2 2.505 11.2 4.963 15.23 1.979 3.24 2.381 4.96 0.957 4.08-1.222-0.75-2.807 1.36-3.699 4.94-0.676 2.71-0.589 2.86 0.92 1.62 0.916-0.76 1.666-1.81 1.666-2.34zm27.038 0.17c-1.905-1.63-3.072-2.96-2.595-2.96 2.103 0-2.964-3.95-5.797-4.52-1.73-0.34-3.934-0.85-4.896-1.12-0.963-0.27-1.75-0.08-1.75 0.42s2.73 1.73 6.067 2.74c5.785 1.75 5.96 1.9 3.75 3.12-2.137 1.19-2.162 1.29-0.317 1.33 1.1 0.03 3.35 0.94 5 2.03 4.31 2.86 4.55 2.39 0.538-1.04zm11.324 1.54c-0.317-0.82-1.033-1.5-1.592-1.5-0.585 0-0.488 0.64 0.23 1.5 0.685 0.83 1.401 1.5 1.591 1.5s0.087-0.67-0.229-1.5zm30.407-1c0.12-1.37-0.24-2.5-0.78-2.5s-0.99 1.13-0.99 2.5c0 1.38 0.35 2.5 0.78 2.5s0.88-1.12 0.99-2.5zm-18.65-1.17c-1.18-2.03-1.46-1.38-0.5 1.13 0.35 0.9 0.84 1.42 1.1 1.16 0.25-0.26-0.01-1.29-0.6-2.29zm-52.761-1.95c0.95-2 1.508-3.85 1.239-4.12-0.512-0.51-4.587 5.69-4.593 6.99-0.01 1.94 1.797 0.39 3.354-2.87zm117.14 2.62c0.34-0.55-0.28-1-1.38-1s-2.28 0.45-2.62 1 0.28 1 1.38 1 2.28-0.45 2.62-1zm-51.89-2.73c-0.34-0.33-0.57 0.26-0.53 1.31 0.05 1.17 0.28 1.41 0.6 0.61 0.29-0.72 0.26-1.59-0.07-1.92zm-65.614-6.52c0.01-1.48-0.867-0.69-2.914 2.62-1.144 1.85-2.067 3.99-2.05 4.75 0.031 1.37 4.954-5.93 4.964-7.37zm20.609 5.52c-0.332-0.33-0.569 0.26-0.525 1.31 0.048 1.17 0.285 1.41 0.604 0.61 0.289-0.72 0.253-1.59-0.079-1.92zm54.005 0c-0.34-0.33-0.57 0.26-0.53 1.31 0.05 1.17 0.28 1.41 0.6 0.61 0.29-0.72 0.26-1.59-0.07-1.92zm4.39 1.23c0-0.82-0.18-1.5-0.39-1.5-0.22 0-0.65 0.68-0.97 1.5-0.32 0.83-0.14 1.5 0.39 1.5 0.54 0 0.97-0.67 0.97-1.5zm25.12-0.77c-0.98-0.98-1.1-0.86-0.55 0.56 0.37 0.99 0.93 1.55 1.24 1.24s0-1.12-0.69-1.8zm3.38-0.73c-0.34-0.55-0.82-1-1.06-1s-0.44 0.45-0.44 1 0.48 1 1.06 1 0.78-0.45 0.44-1zm-61.01-1.75c-0.19-0.96-0.43-1.86-0.54-2s-0.26-0.68-0.32-1.21c-0.38-2.86-14.85-10.11-19.917-9.98-1.216 0.03 0.806 1.1 4.495 2.38 7.778 2.7 12.945 5.52 13.575 7.41 0.244 0.73-1.475-0.06-3.82-1.76-2.344-1.7-4.724-3.09-5.288-3.09s1.162 1.56 3.836 3.46 5.251 4.15 5.729 5c1.17 2.09 2.66 1.95 2.25-0.21zm15 0.77c0.73-1.18-0.96-4.63-3.86-7.93-1.78-2.01-1.84-2.3-0.38-1.78 2.43 0.87 2.19 0-0.37-1.37-1.49-0.8-1.92-0.81-1.44-0.04 0.97 1.58 0.02 1.38-4.58-0.97-2.24-1.14-3.77-1.59-3.4-1 0.9 1.46-0.45 1.29-3.459-0.43-1.375-0.78-3.175-1.44-4-1.44-0.825-0.01 0.975 1.32 4 2.97 5.309 2.89 9.269 6.42 10.269 9.15 0.35 0.98 0.79 1.03 1.67 0.21 0.9-0.84 0.43-1.86-1.95-4.25-1.73-1.73-2.74-3.14-2.25-3.14 1.61 0 6.11 5.45 6.8 8.25 0.69 2.81 1.87 3.52 2.95 1.77zm-12.99-11.02c-0.34-0.55-0.17-1 0.38-1s1.28 0.45 1.62 1 0.17 1-0.38 1-1.28-0.45-1.62-1zm66.06 10.5c1.89-1.46 1.87-1.56-0.92-4.05-3.19-2.83-5.93-2.88-6.47-0.11-0.36 1.87 2.49 5.5 4.39 5.6 0.58 0.03 1.93-0.61 3-1.44zm-10.56-2.95c0-2.6 4.9-5.78 9.69-6.3 7.2-0.77 22.31-11.71 22.31-16.16 0-0.99-1.7-3.78-3.77-6.2-2.08-2.41-5.01-6.3-6.52-8.64-1.5-2.34-3.13-4.25-3.6-4.25-0.48 0-3.62 2.79-6.99 6.2-5 5.06-6.12 6.8-6.12 9.49 0 3.07-0.43 3.49-6.25 6.16-7.48 3.43-11.16 7.13-11.38 11.43-0.09 1.73-0.65 3.32-1.26 3.52-1.64 0.55-1.34 3.76 0.49 5.28 1.35 1.13 1.85 0.98 3.36-1.02 1.8-2.39 4.04-2.12 4.04 0.5 0 0.79 0.68 1.44 1.5 1.44 0.83 0 1.5 0.51 1.5 1.12 0 0.78 0.46 0.74 1.5-0.12 0.83-0.68 1.5-1.78 1.5-2.45zm-2.17 0.7c-0.57-2.53-0.23-13.93 0.38-12.84 0.41 0.74 0.65 4.09 0.52 7.46-0.21 5.67-0.48 7.25-0.9 5.38zm16.59-2.33c-1.53-1.6-3.4-2.92-4.15-2.92-0.74 0 0.35 1.83 2.42 4.07s3.94 3.56 4.15 2.92c0.21-0.63-0.88-2.46-2.42-4.07zm-120.31-1.17c0.664-1.21 0.608-1.75-0.18-1.75-0.662 0-0.869-0.71-0.492-1.69 0.57-1.49 0.398-1.47-1.393 0.15-2.437 2.21-2.687 0.91-0.441-2.3 0.881-1.26 1.371-2.52 1.088-2.8-0.549-0.55-5.69 7.74-5.69 9.17 0 0.47 0.708-0.02 1.574-1.09 1.535-1.89 1.562-1.88 1.093 0.31-0.292 1.37-0.082 2.01 0.533 1.63 0.64-0.4 0.771 0.25 0.355 1.75-0.647 2.33-0.629 2.33 0.966 0.37 0.894-1.1 2.058-2.79 2.587-3.75zm-3.108 0.37c0-0.55 0.45-1.28 1-1.62s1-0.17 1 0.38-0.45 1.28-1 1.62-1 0.17-1-0.38zm55.639 3.38c-0.32-0.82-0.03-1.52 0.64-1.54 2.5-0.09-6.5-6.77-11.879-8.82-8.406-3.22-9.743-2.48-2.4 1.33 3.575 1.86 8.079 4.92 9.999 6.82 4.09 4.02 4.41 4.22 3.64 2.21zm-38.139-0.5c0.34-0.55 0.168-1-0.382-1s-1.278 0.45-1.618 1-0.168 1 0.382 1 1.278-0.45 1.618-1zm-0.83-5.93c2.343-2.73 5.475-4.78 10.334-6.75 7.339-2.97 7.75-3.59 5.84-8.87-1.006-2.79-0.876-3.59 1-6.23 2.423-3.4 2.547-6.06 0.827-17.68-1.169-7.91-1.2-7.97-4.175-8-2.512-0.03-3.047-0.48-3.312-2.78-0.245-2.13 0.253-3 2.25-3.91 2.863-1.3 3.346-3.96 1.066-5.85-0.825-0.68-1.5-1.76-1.5-2.4s-1.35-1.67-3-2.29c-3.997-1.51-3.782-0.31 0.75 4.18l3.75 3.71-4.19-2.09c-2.673-1.33-4.898-1.82-6.143-1.35-2.49 0.95-10.051 10.03-10.808 12.99-0.317 1.24-0.925 2.25-1.351 2.25-1.467 0-5.404 11.14-4.2 11.88 0.71 0.44 1.079 4.15 1.011 10.16-0.07 6.2 0.427 11.01 1.442 13.96 3.03 8.8 4.97 13 6.002 13 0.575 0 2.558-1.77 4.407-3.93zm0.33-13.95c0-1.03 0.787-2.47 1.75-3.2 1.489-1.12 1.563-1.11 0.5 0.08-1.885 2.11-1.509 3.18 1 2.82 1.602-0.23 2.227-0.97 2.17-2.57-0.086-2.46 2.043-3.09 2.897-0.86 0.916 2.38-2.175 5.61-5.374 5.61-2.212 0-2.943-0.46-2.943-1.88zm6.25-16.22c-1.238-0.46-2.25-1.23-2.25-1.71 0-1.13 3.378-4.2 4.579-4.16 0.506 0.02 0.045 0.7-1.025 1.51-1.471 1.11-1.665 1.75-0.793 2.62 1.365 1.37 4.239-0.52 4.239-2.78 0-1.8 1.632-1.78 2.324 0.02 1.17 3.05-3.309 5.9-7.074 4.5zm-24.807 25.78c2.83-4.17 3.255-5.5 1.215-3.81-0.738 0.61-1.587 0.87-1.886 0.57-0.685-0.68-4.78 4.44-4.75 5.95 0.012 0.61 0.902-0.01 1.978-1.39 2.165-2.77 2.624-2.07 0.864 1.32-1.542 2.97-0.504 1.9 2.579-2.64zm133.56 3.32c0-0.55-0.45-1-1-1s-1 0.45-1 1 0.45 1 1 1 1-0.45 1-1zm95.96-4.55c-0.71-0.86-2.23-2.01-3.38-2.56-1.51-0.74-1.32-0.31 0.73 1.55 3.11 2.84 4.65 3.43 2.65 1.01zm23.54-2.45c-2.18-2.41-0.9-2.67 1.67-0.34 2 1.81 2.57 0.48 0.63-1.46-0.93-0.93-0.91-1.2 0.12-1.2 1.02 0 1.06-0.32 0.16-1.4-0.88-1.07-0.88-1.5 0.01-1.8 0.65-0.21-1.15-2.34-4-4.72-7.43-6.22-5.43-6.32 2.37-0.11 3.6 2.86 6.54 4.73 6.54 4.14 0-0.58-3.3-3.55-7.34-6.58-7.24-5.46-10.08-6.95-7.66-4.03 1 1.21 0.98 1.51-0.13 1.53-1.38 0.03 2.57 4.07 7.1 7.24 1.33 0.93 2.09 2 1.7 2.39s-2.46-1-4.6-3.09c-3.76-3.67-6.12-4.13-5.68-1.09 0.12 0.8 0.53 1.77 0.91 2.15 0.37 0.38 0.24 1.23-0.31 1.89-0.72 0.86 0.47 2.19 4.26 4.77 6.13 4.19 6.7 4.41 4.25 1.71zm-5.64-5c-2.08-1.76-2.12-1.93-0.36-1.41 1.67 0.5 1.59 0.26-0.5-1.47-1.37-1.14-2.17-2.08-1.78-2.1 1.21-0.03 9.79 6.31 9.25 6.85-0.28 0.27-1.03-0.03-1.69-0.69-1.43-1.43-3.14-1.57-2.28-0.18 0.97 1.57-0.07 1.18-2.64-1zm-254.26 5.33c1.635-0.63 1.623-0.74-0.168-1.52-1.38-0.61-1.016-0.71 1.284-0.36 1.766 0.27 3.485 0.04 3.819-0.5 0.335-0.54 1.007-0.73 1.495-0.43 1.918 1.18 4.123-4.56 4.589-11.96 0.588-9.32-0.705-10.43-6.606-5.68-2.14 1.71-4.354 3.12-4.921 3.12-1.359 0-3.041 6.24-1.995 7.4 0.448 0.5 0.355 1.77-0.205 2.81-0.561 1.05-0.73 3.23-0.374 4.85 0.717 3.27 0.634 3.21 3.082 2.27zm0.828-5.45c-1.075-1.74-1.369-9.96-0.334-9.32 0.512 0.31 2.12-0.36 3.573-1.51 3.256-2.56 3.783-2.09 3.814 3.39 0.021 3.77-0.384 4.59-3.18 6.42-2.129 1.4-3.429 1.74-3.873 1.02zm2.577-6.44c0-0.24-0.45-0.44-1-0.44s-1 0.48-1 1.06 0.45 0.78 1 0.44 1-0.81 1-1.06zm91.499 11.18c1.73-1.26 1.53-1.41-2.31-1.77-4.42-0.42-5.36 0.37-2.44 2.07 2.3 1.34 2.54 1.32 4.75-0.3zm54.52-0.14c1.87-2.26 0.79-2.52-1.44-0.35-1.06 1.03-1.46 1.87-0.88 1.87s1.63-0.68 2.32-1.52zm-101.02-5.98c0-1.55-0.567-2.5-1.5-2.5-1.8 0-1.969 2.13-0.3 3.8 1.655 1.66 1.8 1.55 1.8-1.3zm54.999 0.5c0-0.55-0.48-1-1.06-1s-0.78 0.45-0.44 1 0.82 1 1.06 1 0.44-0.45 0.44-1zm11.14-1.97c1.3-1.08 2-1.98 1.56-2-1.07-0.04-6.7 2.9-6.7 3.5 0 1.16 2.99 0.3 5.14-1.5zm158.27 0.17c-0.58-0.39-3.71-2.74-6.98-5.23-7.65-5.84-14.08-9.97-15.54-9.97-0.63 0 2.17 2.19 6.23 4.86 4.06 2.68 9.39 6.48 11.85 8.45 2.46 1.98 4.69 3.36 4.97 3.09 0.28-0.28 0.04-0.82-0.53-1.2zm-166.43-0.72c-0.69-0.84-1.47-1.32-1.72-1.07-0.7 0.69 0.71 2.59 1.92 2.59 0.67 0 0.59-0.57-0.2-1.52zm63.02-0.27c0-3.01-5.19-8.27-8.39-8.5-1.59-0.12-3.09 0.35-3.33 1.04-0.25 0.69 0.07 1.25 0.69 1.25 0.63 0 3.16 0.92 5.64 2.05 3.64 1.66 4.38 2.42 3.88 4-0.35 1.1-0.16 1.95 0.44 1.95 0.59 0 1.07-0.8 1.07-1.79zm-8-0.24c1.28-0.86 1.15-1.3-0.86-2.99-1.3-1.09-2.94-1.98-3.64-1.98-2.31 0-2.43 2.8-0.19 4.37 2.65 1.85 2.8 1.86 4.69 0.6zm-7.07-7.33c1.78-3.17 3.95-3.68 10.54-2.49 1.45 0.26 2.1-0.33 2.5-2.29 0.48-2.42 8.92-10.12 20.63-18.86 1.84-1.37 3.36-2.83 3.38-3.23 0.01-0.4-1.89-1.7-4.23-2.89-2.34-1.2-6.91-4.58-10.17-7.52-3.26-2.95-6.68-5.36-7.6-5.36s-4.64 3.11-8.25 6.91c-3.66 3.84-8.1 7.46-10.01 8.15-3.3 1.19-3.42 1.41-2.97 5.44 0.43 3.79 0.18 4.42-2.54 6.35-1.66 1.18-4.19 2.15-5.61 2.15-2.51 0-2.34 0.38 4.65 10.61 5.74 8.4 7.32 10.14 7.59 8.38 0.18-1.22 1.12-3.63 2.09-5.35zm-109.93 5.38c0-1.37 7.847-5.23 9.082-4.47 0.558 0.35 1.78 0.33 2.716-0.03 1.601-0.61 1.601-0.71-0.005-1.61-3.025-1.7-10.644 0.9-12.36 4.22-0.86 1.66-1.053 2.87-0.459 2.87 0.564 0 1.026-0.44 1.026-0.98zm67.319-1.89c1.73-1.48 1.73-1.62 0.06-2.84-2.67-1.95-4.94-1.55-6.14 1.09-2.01 4.4 1.74 5.48 6.08 1.75zm8.67 0.62c-0.02-1.82-0.21-1.96-0.99-0.75-1.25 1.94-1.25 3 0 3 0.55 0 0.99-1.01 0.99-2.25zm-50.18-0.37c-0.89-0.89-2.12-1.31-2.73-0.93-1.63 1.01-0.3 2.55 2.19 2.55 1.99 0 2.03-0.13 0.54-1.62zm2.19-2.99c0-0.21-1.57-0.39-3.5-0.39-1.92 0-3.5 0.36-3.5 0.8s1.58 0.62 3.5 0.39c1.93-0.22 3.5-0.58 3.5-0.8zm99 0.05c0-0.24-0.45-0.44-1-0.44s-1 0.48-1 1.06 0.45 0.78 1 0.44 1-0.81 1-1.06zm-104.84-12.21c-0.1-3.52 0.47-4.92 3.22-8 4.23-4.73 4.97-6.18 9.17-17.94 3.87-10.84 4.42-14.33 1.89-12.24-0.85 0.71-1.43 0.88-1.29 0.37 0.14-0.5-0.54-2.42-1.51-4.25-1.57-2.94-1.97-3.17-3.54-2-0.97 0.73-3.86 2.88-6.43 4.77-2.57 1.9-4.67 3.8-4.67 4.23s-1.69 1.69-3.75 2.81c-3.649 1.97-3.669 2.01-0.75 1.53 1.65-0.27 0.39 0.36-2.8 1.41-9.425 3.1-9.533 3.16-7.199 4.12 1.371 0.56 1.518 0.84 0.468 0.89-1.9 0.09-2.527 5.07-0.638 5.07 2.238 0 11.999-3.13 15.669-5.03 1.93-0.99 6.2-4.18 9.5-7.09 3.3-2.9 4.88-3.98 3.5-2.4-6.29 7.25-14.72 12.4-23.749 14.5-4.071 0.95-5.25 1.65-5.25 3.13 0 2.93 2.97 22.03 3.579 23.02 0.296 0.48 1.572 0.87 2.834 0.87s3.576 1.19 5.146 2.64l2.84 2.64 1.94-4.39c1.07-2.41 1.89-6.31 1.82-8.66zm-13.888-12.83c0.332-0.33 1.195-0.37 1.916-0.08 0.798 0.32 0.561 0.55-0.604 0.6-1.054 0.05-1.645-0.19-1.312-0.52zm0.729-9.4c0.825-0.53 1.95-0.97 2.5-0.97s0.325 0.44-0.5 0.97-1.95 0.97-2.5 0.97-0.325-0.44 0.5-0.97zm63.769 34.16c0.99-0.62 0.88-1.17-0.5-2.41-2.27-2.06-7.16-3.93-8.35-3.2-1.66 1.03-0.96 2.4 1.54 3.03 1.35 0.34 2.98 1.25 3.62 2.02 1.33 1.6 1.91 1.69 3.69 0.56zm64.3-8.54c-2.33-4.33-8.68-4.08-11.11 0.45-0.78 1.47-0.8 1.95-0.07 1.5 0.6-0.37 1.89-0.23 2.85 0.31 1.32 0.74 2.27 0.51 3.78-0.9 2.56-2.4 5.52-1.16 3.07 1.29-0.85 0.85-2.09 1.73-2.75 1.95-0.7 0.24-0.86 0.93-0.39 1.69 0.6 0.99 1.42 0.68 3.36-1.27 2.31-2.31 2.44-2.81 1.26-5.02zm-110.41 5.19c-2.01-0.73-3.16-0.71-3.95 0.08-0.81 0.82-0.06 1.09 2.84 1.03 3.91-0.08 3.92-0.09 1.11-1.11zm9-1.35c0.81-2.11-0.55-3.25-1.7-1.43-1.22 1.94-1.2 2.97 0.07 2.97 0.57 0 1.3-0.69 1.63-1.54zm-30.14-2.71c-0.315-1.79-1.21-7.91-1.989-13.61-1.339-9.79-1.948-12.05-2.967-11.03-0.241 0.24 0.421 6.05 1.47 12.91 1.049 6.87 1.921 13.04 1.937 13.73 0.017 0.69 0.5 1.25 1.075 1.25 0.63 0 0.818-1.29 0.474-3.25zm69.48 2.25c0-0.55-0.7-1-1.56-1s-1.28 0.45-0.94 1 1.04 1 1.56 1 0.94-0.45 0.94-1zm-45-2.53c0-0.72 0.27-2.02 0.61-2.89 0.47-1.22-0.07-1.58-2.4-1.58-2.48 0-3.21 0.56-4.11 3.15-0.61 1.73-1.1 3.22-1.1 3.3s1.58-0.03 3.5-0.26c2.01-0.23 3.5-0.96 3.5-1.72zm47.49-0.48c-0.34-0.56-1.05-0.76-1.56-0.45-1.39 0.86-1.13 1.46 0.63 1.46 0.86 0 1.28-0.46 0.93-1.01zm-114-14.97c1.529-3.02 3.882-7.23 5.227-9.37 1.468-2.32 1.913-3.71 1.113-3.46-1.954 0.59-11.548 19.64-12.248 24.31-0.596 3.98-0.589 3.97 1.263-1 1.025-2.75 3.115-7.47 4.645-10.48zm235.51 13.98c-0.82-0.53-1.95-0.97-2.5-0.97s-0.32 0.44 0.5 0.97c0.83 0.53 1.95 0.97 2.5 0.97s0.33-0.44-0.5-0.97zm-236-3.08c0-2.9 4.59-13.21 9.277-20.85 3.51-5.71-0.036-2.35-3.915 3.72-4.026 6.29-8.71 17.84-7.82 19.28 1.192 1.93 2.458 0.82 2.458-2.15zm175-0.92c0-0.55-0.48-1-1.06-1s-0.78 0.45-0.44 1 0.82 1 1.06 1 0.44-0.45 0.44-1zm-103.75-1.93c3.15 0.87 3.53 0.24 1-1.68-3.38-2.57-11.25-1.1-11.25 2.1 0 1.21 0.57 1.23 3.75 0.12 2.26-0.78 4.85-0.99 6.5-0.54zm-57.829-19.32c0.995-1.51 1.347-2.75 0.781-2.75-1.31 0-5.988 7.7-9.492 15.63-4.145 9.37-3.199 8.87 2.115-1.13 2.632-4.95 5.6-10.24 6.596-11.75zm164.58 19.25c0-0.55-0.48-1-1.06-1s-0.78 0.45-0.44 1 0.82 1 1.06 1 0.44-0.45 0.44-1zm-43.13-1.9c0.76-0.48 1.21-1.28 1-1.77-0.2-0.5-1.16-0.11-2.12 0.88-1.84 1.88-1.22 2.37 1.12 0.89zm45.63-1.1c-0.34-0.55-0.82-1-1.06-1s-0.44 0.45-0.44 1 0.48 1 1.06 1 0.78-0.45 0.44-1zm-53-2c-0.34-0.55-1.07-1-1.62-1s-0.72 0.45-0.38 1 1.07 1 1.62 1 0.72-0.45 0.38-1zm11.11-1.73c-0.34-0.33-0.57 0.26-0.53 1.31 0.05 1.17 0.28 1.41 0.6 0.61 0.29-0.72 0.26-1.59-0.07-1.92zm44.89 1.73c-0.34-0.55-0.82-1-1.06-1s-0.44 0.45-0.44 1 0.48 1 1.06 1 0.78-0.45 0.44-1zm-112-1c-0.34-0.55-1.29-1-2.12-1-0.82 0-1.22 0.45-0.88 1s1.29 1 2.12 1c0.82 0 1.22-0.45 0.88-1zm61.5-2.1c0-1.36-5.73-3.94-7.36-3.31-2.29 0.87-2.88 3.41-0.8 3.41 0.98 0 2.65 0.64 3.72 1.42 1.91 1.4 4.44 0.54 4.44-1.52zm54 1.04c0-0.58-0.45-0.78-1-0.44s-1 0.82-1 1.06 0.45 0.44 1 0.44 1-0.48 1-1.06zm-114-1.94c0-0.55-0.67-1-1.5-1-0.82 0-1.5 0.45-1.5 1s0.68 1 1.5 1c0.83 0 1.5-0.45 1.5-1zm117 0c0-0.55-0.79-0.99-1.75-0.98-1.49 0.01-1.53 0.15-0.25 0.98 1.89 1.22 2 1.22 2 0zm-156.42-2c0.23 0 0.418-0.67 0.418-1.5 0-1.67-3.533-2.06-4.5-0.5-0.936 1.52 0.506 3.21 2.183 2.57 0.814-0.31 1.669-0.57 1.899-0.57zm103.42-0.89c0-1.22-5.76-4.11-8.2-4.11-2.27 0-4.8 1.62-4.8 3.06 0 0.37 1.07 0.46 2.38 0.21s3.66 0.21 5.21 1.03c2.67 1.4 5.41 1.3 5.41-0.19zm57 0.61c0-0.15-0.87-1.02-1.93-1.93-1.82-1.55-1.93-1.54-1.79 0.28 0.09 1.13 0.88 1.93 1.93 1.93 0.99 0 1.79-0.12 1.79-0.28zm-120-1.72c0-0.55-0.67-1-1.5-1-0.82 0-1.5 0.45-1.5 1s0.68 1 1.5 1c0.83 0 1.5-0.45 1.5-1zm50.99-3.99c1.15-0.62 3.53-0.99 5.27-0.82 2.55 0.25 3.42-0.18 4.43-2.19 0.68-1.37 4.07-5.51 7.53-9.19l6.28-6.7-3.38-0.62c-5.61-1.04-23.19-8.2-30.02-12.22-3.52-2.07-8.52-5.67-11.13-8l-4.73-4.24-0.56 2.82c-0.31 1.55-1.91 4.25-3.55 6.01-3.74 4.01-4.84 8.31-2.6 10.17 1.18 0.97 1.45 2.25 1 4.66-0.6 3.22-0.53 3.31 2.79 3.31 4.71 0 13.57 7.21 13.65 11.09 0.02 0.88 1.59 2.44 3.5 3.46 1.9 1.03 4.45 3.21 5.66 4.84 2.12 2.87 2.22 2.9 2.98 0.86 0.43-1.17 1.72-2.62 2.88-3.24zm19.01 1.49c0-0.82-0.18-1.5-0.39-1.5-0.22 0-0.65 0.68-0.97 1.5-0.32 0.83-0.14 1.5 0.39 1.5 0.54 0 0.97-0.67 0.97-1.5zm-69-0.5c0-0.55-0.48-1-1.06-1s-0.78 0.45-0.44 1 0.82 1 1.06 1 0.44-0.45 0.44-1zm109.51-3.31c-0.83-1.99-1.51-4.49-1.51-5.55s-0.67-2.18-1.5-2.5c-2.12-0.81-1.86 1.05 1.03 7.26 2.76 5.93 4.41 6.58 1.98 0.79zm-164.78-4.3c-0.711-0.71-4.003 2.73-5.851 6.11-0.601 1.1 0.621 0.33 2.717-1.72 2.095-2.04 3.505-4.02 3.134-4.39zm167.78 2.29c-0.84-2.02-2.03-3.68-2.63-3.68-0.64 0-0.8 0.72-0.38 1.75 0.39 0.96 1.17 3.02 1.73 4.58 0.6 1.67 1.39 2.46 1.92 1.92 0.53-0.53 0.27-2.4-0.64-4.57zm-42.52 0.32c0.46 0 1.07 0.56 1.35 1.25 0.33 0.83 0.53 0.73 0.58-0.3 0.2-3.97-6.97-5.6-8.88-2.01-0.57 1.06-1.04 2.15-1.04 2.43 0 1.13 4.6 1.05 5.82-0.11 0.73-0.69 1.7-1.26 2.17-1.26zm35.09-2.51c-1.72-5.57-5.09-10.73-3.58-5.49 1.01 3.52 4.3 11 4.84 11 0.24 0-0.32-2.48-1.26-5.51zm-103.89 3.83c-0.72-0.29-1.59-0.25-1.92 0.08s0.26 0.57 1.31 0.52c1.17-0.05 1.41-0.28 0.61-0.6zm-72.939-0.98c-0.688-0.28-1.813-0.28-2.5 0-0.688 0.28-0.125 0.5 1.25 0.5s1.937-0.22 1.25-0.5zm208.91-6.32c-1.43-4.1 1.18-4.83 4.53-1.26 2.11 2.25 2.46 2.38 1.99 0.74-0.32-1.1-0.88-3.24-1.24-4.75s-1.2-2.75-1.87-2.75c-1.22 0-1.89 0.62-7.38 6.75-1.6 1.79-3.57 3.25-4.39 3.25s-2.35 0.97-3.39 2.14l-1.91 2.14 3.81-0.69c2.09-0.39 4.73-1.63 5.86-2.76 1.67-1.67 2.23-1.8 2.93-0.7 0.48 0.76 0.94 2.27 1.02 3.37 0.13 1.69 0.22 1.64 0.59-0.31 0.25-1.27 0-3.6-0.55-5.17zm-16.49 4.4c0.33-0.86 1.73-2 3.1-2.52 2.48-0.95 2.48-0.96-3.16-6.42-3.11-3.01-6.09-5.48-6.63-5.48s-0.98-0.37-0.98-0.83-2.02-2.28-4.5-4.06c-2.59-1.86-4.5-4.03-4.5-5.11 0-1.03-0.5-2.19-1.11-2.56-0.73-0.46-0.89-0.01-0.45 1.36 0.48 1.52 0.11 2.21-1.42 2.7-1.14 0.36-2.8 1.76-3.69 3.12-2.44 3.72-0.75 6.11 8.99 12.73 4.72 3.21 9.11 6.47 9.76 7.24 1.55 1.87 3.84 1.79 4.59-0.17zm-117.67-0.42c0-0.55-0.42-1-0.94-1s-1.22 0.45-1.56 1 0.08 1 0.94 1 1.56-0.45 1.56-1zm28.8-1.81c-4.02-5.04-6.23-6.12-12.49-6.16-5.42-0.02-8.51 1.11-7.04 2.58 0.6 0.59 8.46 1.72 11.48 1.65 1.24-0.02 2.25 0.36 2.25 0.85s0.34 0.8 0.75 0.69c1.69-0.44 5.23 1.42 4.61 2.43-0.41 0.66-0.2 0.79 0.53 0.34 0.93-0.58 0.91-1.12-0.09-2.38zm42.2-0.19c0-1.11-0.67-2-1.5-2-2.72 0-1.78 2.97 1.25 3.92 0.14 0.05 0.25-0.82 0.25-1.92zm-110.54-1.06c-0.702-1.14-3.462-1.26-3.462-0.15 0 0.43 0.91 0.85 2.022 0.94 1.111 0.08 1.76-0.27 1.44-0.79zm40.537 0.06c0-0.55-0.42-1-0.94-1s-1.22 0.45-1.56 1 0.08 1 0.94 1 1.56-0.45 1.56-1zm97-0.43c0-1.35-2.14-5.76-2.58-5.33-0.78 0.79 0.67 5.76 1.69 5.76 0.49 0 0.89-0.19 0.89-0.43zm-24.54-2.64c-0.74-1.2-3.46-1.21-3.46-0.01 0 1.08 2.17 2 3.27 1.38 0.42-0.24 0.5-0.86 0.19-1.37zm-100.17-2.98c8.97-4.37 16.95-11.61 18.72-16.98 1.25-3.79 1.22-4.33-0.31-5.45-0.93-0.68-1.7-1.81-1.7-2.5 0-1 0.32-1 1.56 0.03 1.34 1.11 2.25 0.62 6.23-3.36 4-4 4.67-5.24 4.67-8.67 0-4.35-2.41-7.79-4.53-6.47-0.93 0.57-0.72 0.98 0.77 1.54 1.97 0.72 3.56 5.14 2.66 7.35-0.6 1.46-8.32 4.94-9.14 4.12-0.36-0.37-0.06-1.04 0.67-1.49 0.97-0.6 1.02-1.01 0.17-1.53-0.87-0.54-0.87-1.06 0-2.11 0.64-0.77 0.88-2.15 0.52-3.07-0.39-1.03 0.21-2.57 1.57-4.01 1.21-1.29 1.68-2.35 1.05-2.35s-1.89 1.13-2.79 2.5c-2.1 3.21-4.41 3.24-4.41 0.06 0-1.34-0.45-2.72-1-3.06s-1-1.52-1-2.62-0.45-1.72-1-1.38c-1.63 1.01-1.14-0.14 0.69-1.63 1.46-1.18 1.58-1.16 0.84 0.13-0.51 0.9-0.48 1.16 0.06 0.67 0.5-0.46 0.91-2.26 0.91-4 0-2.84 0.29-3.15 2.75-2.98 2.15 0.15 2.75-0.25 2.75-1.818 0-1.618 0.44-1.872 2.25-1.314 2.7 0.832 2.26 0.34 3.54 3.942 0.72 2.05 1.08 2.39 1.13 1.08 0.05-1.06 0.73-2.639 1.52-3.517 1.28-1.406 1.1-2.122-1.53-6.028-3.62-5.388-4.57-6.359-2.99-3.033l1.19 2.5-2.19-2.5c-1.97-2.259-2.12-2.296-1.53-0.39 0.86 2.748-2.21 6.585-5.45 6.825-2.78 0.206-5.19-1.219-4.35-2.574 0.31-0.501 0.02-0.787-0.64-0.636-2.44 0.559-1.94-2.01 0.51-2.625 3.13-0.785 3.23-2.008 0.33-4.039-6.13-4.29-15.301-2.337-37.006 7.882-8.499 4.002-10.783 5.795-10.783 8.485 0 1.38 0.586 1.68 2.519 1.31 2.899-0.55 10.481 3.93 10.481 6.2 0 0.77-1.615 3.52-3.589 6.11-3.295 4.32-3.458 4.83-1.984 6.31 1.359 1.36 1.927 1.4 3.707 0.29 1.555-0.97 2.394-1.02 3.225-0.19 1.448 1.45-0.971 3.12-3.268 2.26-1.412-0.53-1.426-0.39-0.129 1.2 1.301 1.6 1.252 1.95-0.441 3.19-1.435 1.05-1.536 1.39-0.412 1.39 0.82 0 2.012-0.52 2.649-1.16 0.877-0.87 1.972-0.6 4.517 1.15 2.575 1.76 3.329 2.96 3.227 5.14-0.073 1.56-0.446 3.15-0.828 3.53-0.644 0.64-0.279 6.22 0.921 14.09 0.273 1.79 0.988 3.25 1.59 3.25 0.601 0 3.314-1.36 6.028-3.03l4.935-3.04-1.824 2.57c-1.003 1.42-3.512 3.47-5.574 4.56-2.063 1.09-3.75 2.48-3.75 3.09 0 1.8 6.032 0.34 13.289-3.2zm-0.26-28.18c-0.02-0.96 1.36-3.21 3.07-5l3.09-3.27-1.94 3c-1.07 1.65-2.45 3.9-3.07 5-0.96 1.73-1.12 1.76-1.15 0.27zm23.97-2.77c0.83-0.53 1.95-0.97 2.5-0.97s0.33 0.44-0.5 0.97c-0.82 0.53-1.95 0.97-2.5 0.97s-0.32-0.44 0.5-0.97zm-41.393-1.41c0.334-0.88 1.047-1.59 1.584-1.59 1.315 0 0.492 2.27-1.003 2.77-0.731 0.25-0.955-0.21-0.581-1.18zm4.718-8.84c-0.436-0.69-0.857-2.04-0.934-3-0.248-3.09-0.432-3.28-1.47-1.5-0.561 0.96-1.495 1.75-2.077 1.75-0.617 0-0.755-0.73-0.331-1.75 0.399-0.96 0.748-2.37 0.774-3.12 0.059-1.72 5.802-4.19 8.533-3.66 3.96 0.76 10.26 5.53 7.303 5.53-0.617 0-1.01 0.55-0.872 1.22 0.171 0.83-1.413 1.23-4.999 1.25-2.887 0.02-5.242 0.26-5.235 0.53 0.03 1.06 1.549 2.73 2.984 3.27 1.021 0.39 0.8 0.6-0.691 0.65-1.205 0.05-2.548-0.48-2.985-1.17zm9.158-5.72c0.586-0.95-1.016-1.53-6.896-2.48-1.856-0.3-2.565-0.13-1.955 0.48 0.526 0.53 2.175 1.06 3.663 1.18 1.488 0.13 2.706 0.58 2.706 1.01 0 1.11 1.764 0.97 2.482-0.19zm8.247-25.153c0.68-0.683 1.49-0.99 1.8-0.682s-0.25 0.867-1.24 1.242c-1.42 0.543-1.54 0.428-0.56-0.56zm23.46 75.443c-0.72-0.29-1.59-0.25-1.92 0.08s0.26 0.57 1.31 0.52c1.17-0.05 1.41-0.28 0.61-0.6zm-48.525-3.57c-0.669-3.89-1.845-13.84-1.801-15.25 0.016-0.55-1.071-1.58-2.416-2.28-1.346-0.71-2.447-1.64-2.447-2.08 0-0.82 0.817-0.99 5.75-1.23 4.344-0.21 4.617-0.96 1.058-2.91-3.285-1.8-3.324-1.79-5.619 0.62-2.138 2.24-4.189 2.44-4.189 0.4 0-0.48 1.114-2.19 2.476-3.81 2.448-2.91 2.454-2.96 0.526-4.71-2.899-2.62-3.38-5.27-1.481-8.17 0.927-1.42 1.193-2.27 0.591-1.9-0.603 0.37-1.887 0.22-2.854-0.34-1.596-0.93-1.562-1.03 0.369-1.06 1.171-0.01 2.688-0.7 3.373-1.53 0.785-0.94 0.852-1.5 0.181-1.5-0.585 0-1.365 0.49-1.735 1.09-0.369 0.6-1.515 0.87-2.547 0.6-1.501-0.4-2.097 0.33-2.993 3.66-0.898 3.33-0.78 5.83 0.598 12.65 0.944 4.68 2.331 11.92 3.081 16.09 1.949 10.84 4.318 14.86 8.776 14.9 1.55 0.01 1.768-0.53 1.303-3.24zm-5.025-12.44c-1.126-1.13-0.686-2.31 0.861-2.31 0.825 0 1.5 0.42 1.5 0.94 0 1.26-1.562 2.17-2.361 1.37zm9.929 9.19c-0.538-3.57-1.342-6.5-1.786-6.5-0.443 0-0.547 1.91-0.231 4.25 0.907 6.71 1.431 8.75 2.242 8.75 0.415 0 0.314-2.92-0.225-6.5zm185.03 3.9c-0.35-0.93-0.87-1.46-1.15-1.18-0.27 0.27-0.2 1.25 0.15 2.18 0.36 0.93 0.87 1.46 1.15 1.19 0.27-0.28 0.21-1.26-0.15-2.19zm-65.6 0.71c0-1.23-2.82-2.21-3.44-1.2-0.28 0.44-0.22 1.1 0.13 1.45 0.96 0.96 3.31 0.77 3.31-0.25zm78-2.14c0-5.57-4.52-10.97-9.19-10.97-3.59 0-3.79 2.72-0.27 3.6 2.81 0.71 7.46 6.16 7.46 8.75 0 0.91 0.45 1.65 1 1.65s1-1.36 1-3.03zm-151.51 1.02c-0.34-0.56-1.05-0.76-1.56-0.45-1.39 0.86-1.13 1.46 0.63 1.46 0.86 0 1.28-0.46 0.93-1.01zm88.86-0.53c-0.33-0.85-0.81-1.33-1.07-1.07s-0.18 0.96 0.18 1.54c0.99 1.6 1.56 1.29 0.89-0.47zm-12.35-1.35c0-1.13-2.6-2.17-3.4-1.37-1.21 1.2-0.55 2.26 1.4 2.26 1.1 0 2-0.4 2-0.89zm-69-1.04c0-1.59-5.16-5.07-7.51-5.07-1.24 0-2.8 0.68-3.49 1.5-1.07 1.29-0.69 1.5 2.76 1.5 2.33 0 4.51 0.63 5.24 1.5 1.39 1.68 3 1.99 3 0.57zm134.97 0.18c-0.07-1.67-2.91-4.4-3.92-3.78-0.7 0.43-0.27 1.36 1.18 2.57 2.59 2.16 2.78 2.25 2.74 1.21zm-63.97-1.25c0-0.55-0.79-0.99-1.75-0.98-1.49 0.01-1.53 0.15-0.25 0.98 1.89 1.22 2 1.22 2 0zm-71.44-6.7c-3.58-3.08-10.01-3.2-11.6-0.21-1.43 2.66-0.85 3.2 2.2 2.04 3.12-1.19 7.21-0.4 9.53 1.83 1.59 1.53 1.86 1.55 2.17 0.19 0.2-0.86-0.83-2.59-2.3-3.85zm66.42 3.18c-0.69-0.84-1.47-1.32-1.72-1.07-0.7 0.69 0.71 2.59 1.92 2.59 0.67 0 0.59-0.57-0.2-1.52zm7.24 0.38c0.27-0.83 1.04-0.79 2.83 0.16 2.25 1.2 2.34 1.17 1.07-0.37-0.99-1.19-2.43-1.55-5-1.23-4.89 0.59-4.9 0.6-2.62 1.58 2.77 1.19 3.28 1.17 3.72-0.14zm-20.72-2.86c-3.29-3.44-2.31-4.11 1.2-0.81 1.44 1.35 2.68 1.83 3.26 1.25 1.03-1.04-11.2-14.44-13.18-14.44-0.64 0 0.35 1.57 2.21 3.49 2.92 3.02 4.79 7.51 3.13 7.51-0.99 0-11.12-10.4-11.12-11.42 0-0.54 1.89 0.79 4.2 2.97l4.21 3.95-3.46-4.15c-3.1-3.73-6.97-6.81-5.44-4.34 0.86 1.39-0.86 1.24-2.31-0.21-0.66-0.66-1.2-0.76-1.2-0.22 0 1.59 19.16 19.42 20.87 19.42 0.28 0-0.79-1.35-2.37-3zm0.14-2.58c-1.58-1.39-2.58-2.81-2.22-3.17 0.35-0.35 2.08 0.79 3.84 2.55 3.78 3.78 2.52 4.26-1.62 0.62zm-3.64 3.07c0-0.1-0.98-1.04-2.17-2.08-1.2-1.05-1.84-1.35-1.44-0.66 1.04 1.78-0.4 1.55-2.57-0.41-1.01-0.91-2.07-1.42-2.37-1.12-0.71 0.71 5.25 4.45 7.1 4.45 0.8 0 1.45-0.08 1.45-0.18zm8.5-5.49c-2.71-2.75-5.39-4.99-5.96-4.98-1.18 0.03 8.89 9.98 10.1 9.98 0.43 0-1.43-2.25-4.14-5zm13 3c-2.75-1.18-3.73-1.18-3 0 0.34 0.55 1.6 0.97 2.81 0.93 2.11-0.07 2.12-0.1 0.19-0.93zm-33-2c-0.34-0.55-1.15-0.99-1.81-0.98-0.71 0.01-0.59 0.4 0.31 0.98 1.92 1.24 2.27 1.24 1.5 0zm23.89-0.42c-0.3-0.78-1.27-1.7-2.16-2.04-1.33-0.51-1.29-0.26 0.23 1.42 2.18 2.41 2.68 2.57 1.93 0.62zm-61.78-3.31c-0.34-0.33-0.57 0.26-0.53 1.31 0.05 1.17 0.28 1.41 0.6 0.61 0.29-0.72 0.26-1.59-0.07-1.92zm34.89-5.27c-3.26-3.3-6.4-5.98-6.97-5.95-0.98 0.04 11.39 11.95 12.42 11.95 0.27 0-2.18-2.7-5.45-6zm-9.94-5.69c-5.48-5.34-10.12-9.13-10.34-8.46-0.23 0.67 0.2 1.96 0.94 2.86 1.49 1.82 18.05 15.22 18.84 15.25 0.28 0.01-3.97-4.33-9.44-9.65zm-16.56 1.83c0-4.77-7.65-6.91-10.44-2.92-2.09 2.98-2.07 6.19 0.02 5.39 0.87-0.34 2.4-0.61 3.39-0.61s2.03-0.9 2.32-2c0.99-3.77 3.02-2.28 2.39 1.75-0.54 3.45-0.47 3.6 0.87 1.81 0.8-1.07 1.45-2.61 1.45-3.42zm84-2.17c-3.03-2.33-4.04-2.41-6.56-0.5-1.87 1.42-1.85 1.47 0.56 1.53 1.38 0.04 3.38 0.73 4.45 1.54 1.36 1.03 2.26 1.15 3 0.41s0.3-1.63-1.45-2.98zm5.49-1.98c-1.09-1.77-7.15-4.06-8.93-3.37-2.11 0.81-1.98 2.38 0.19 2.39 0.96 0 3.1 0.84 4.75 1.87 3 1.88 5.37 1.34 3.99-0.89zm-109.3-3.67c-0.72-0.29-1.59-0.25-1.92 0.08s0.26 0.57 1.31 0.52c1.17-0.05 1.41-0.28 0.61-0.6zm17.25-0.21c0.3-0.5-0.12-1.16-0.94-1.47-0.91-0.35-1.5 0-1.5 0.89 0 1.62 1.56 1.99 2.44 0.58zm-18.2-1.77c-0.69-0.28-1-0.92-0.69-1.42 0.31-0.51 0.09-0.92-0.49-0.92s-1.06 0.68-1.06 1.5c0 0.83 0.79 1.47 1.75 1.42 1.06-0.05 1.25-0.28 0.49-0.58zm20.11-2.81c0.75-1.96-1.34-3.16-2.45-1.41-1.25 1.99-1.1 2.88 0.49 2.88 0.77 0 1.65-0.66 1.96-1.47zm1.65-5.59c0-0.52-0.45-0.94-1-0.94s-1 0.7-1 1.56 0.45 1.28 1 0.94 1-1.04 1-1.56zm-76.054-3.34c4.262-1.54 2.492-3.09-2.464-2.16-2.426 0.45-3.23 1.05-2.829 2.1 0.654 1.7 0.758 1.7 5.293 0.06zm78.054-1.1c0-0.82-0.45-1.5-1-1.5s-1 0.68-1 1.5c0 0.83 0.45 1.5 1 1.5s1-0.67 1-1.5zm3.41-5c-1.73-2.64-2.91-3.11-3.88-1.55-0.45 0.73 3.52 3.76 5.24 4.01 0.15 0.02-0.46-1.08-1.36-2.46zm9.09-2.5c2.51-4.951 1.85-7.08-0.86-2.748-1.5 2.418-3 7.748-2.17 7.748 0.27 0 1.64-2.25 3.03-5zm4.5-1.424c0-0.649 1.45-3.182 3.23-5.627 1.77-2.446 2.45-3.83 1.5-3.075s-1.75 0.98-1.77 0.5c-0.05-1.066-2.68 3.716-4.68 8.512-1.35 3.214-1.34 3.404 0.12 2.194 0.88-0.73 1.6-1.85 1.6-2.504zm-16.75-2.237c-0.69-0.277-1.81-0.277-2.5 0-0.69 0.278-0.12 0.505 1.25 0.505 1.38 0 1.94-0.227 1.25-0.505zm5.39-3.837c-0.32-0.825-0.14-1.5 0.39-1.5 0.54 0 0.97-0.45 0.97-1s-1.12-1-2.5-1c-4.01 0-3.22 4.545 0.86 4.921 0.47 0.043 0.6-0.596 0.28-1.421zm11.36-4.371c0-6.417-15.73-11.094-17.29-5.14-0.61 2.34-0.66 2.323 2.9 0.971 4.19-1.593 12.39 1.581 12.39 4.796 0 1.32 0.44 2.089 1 1.744 0.55-0.34 1-1.407 1-2.371zm6.03-2.682c1.21-1.954 1.98-3.768 1.72-4.031-0.53-0.528-3.03 3.084-4.04 5.834-1.03 2.797-0.05 2.035 2.32-1.803zm-13.82 0.913c-2.19-1.665-7.85-1.739-8.47-0.11-0.34 0.897 1.03 1.272 4.85 1.329 4.57 0.067 5.08-0.107 3.62-1.219zm10.7-7.86c0.04-1.822-0.12-1.779-1.86 0.482-1.46 1.897-1.64 2.804-0.78 3.847 0.94 1.128 1.26 1.045 1.86-0.483 0.4-1.015 0.75-2.746 0.78-3.846zm6.85-5.713c-0.32-0.967-5.78 8.597-5.74 10.055 0.01 0.362 1.39-1.518 3.05-4.178 1.67-2.659 2.88-5.304 2.69-5.877zm-79.759 8.154c0-0.583-0.45-0.781-1-0.441-0.55 0.339-1 0.816-1 1.059 0 0.242 0.45 0.441 1 0.441s1-0.477 1-1.059zm21.569-4.81c-1.61-3.12-3.34-4.694-4.2-3.832-0.28 0.275 0.52 1.455 1.78 2.622l2.28 2.122-3.22-1.119c-2.29-0.801-3.21-1.744-3.21-3.31 0-1.205-1.3-3.748-2.89-5.652-2.79-3.335-2.97-3.398-4.83-1.71-1.85 1.667-3.28 1.458-3.28-0.478 0-0.491 0.45-0.614 1-0.274 0.55 0.339 1 0.141 1-0.441 0-0.583-1.56-1.059-3.464-1.059-4.157 0-6.035 2.554-4.618 6.281 0.911 2.395 6.422 5.719 9.482 5.719 0.88 0 1.6 0.485 1.6 1.079 0 0.671 1.1 0.838 2.9 0.443 3.34-0.733 10.06 1.693 10.18 3.676 0.06 0.917 0.22 0.952 0.56 0.119 0.27-0.65-0.22-2.534-1.07-4.186zm-20.568-7.63c-0.736-1.374-1-2.836-0.588-3.248 0.868-0.868 3.586 2.497 3.586 4.438 0 2.12-1.558 1.502-2.998-1.19zm8.568 0.927c-1.78-1.786-1.99-3.049-0.64-3.886 0.9-0.555 4.07 3.091 4.07 4.68 0 1.286-1.75 0.879-3.43-0.794zm74.36 6.779c1.46-5.527 2.17-9.305 2.48-13.228 0.15-1.936 0.79-5.761 1.42-8.5 1.69-7.4 3.01-25.123 2.14-28.783-0.75-3.149-0.77-3.135-0.87 0.958-0.14 5.791-3 30.107-4.04 34.346-0.47 1.925-0.86 4.175-0.87 5 0 0.825-0.72 4.109-1.6 7.298-1.84 6.727-1.96 8.047-0.62 7.218 0.54-0.33 1.42-2.269 1.96-4.309zm-85.672 2.045c-0.63-0.21-0.897-1.028-0.594-1.817 0.63-1.642-1.214-1.971-2.19-0.392-0.871 1.41 1.476 4.106 2.841 3.262 0.77-0.475 0.753-0.783-0.057-1.053zm67.162-0.896c0.95-2.482-0.1-2.821-1.37-0.442-0.62 1.148-0.7 2.086-0.19 2.086s1.21-0.74 1.56-1.644zm-69.434-3.606c-0.009-0.688-0.403-1.861-0.875-2.607-0.607-0.958-0.86-0.59-0.86 1.25 0 1.433 0.394 2.607 0.875 2.607s0.868-0.563 0.86-1.25zm-8.032-3c0.766-1.788 1.598-3.651 1.849-4.14 0.258-0.502-0.135-0.523-0.904-0.048-0.749 0.463-0.351-0.443 0.884-2.013s2.048-3.052 1.807-3.294c-0.665-0.664-3.437 1.104-3.518 2.245-0.039 0.55-0.584 1.17-1.21 1.379-0.728 0.243-0.84-0.118-0.308-1 0.697-1.157 0.554-1.155-0.885 0.013-0.944 0.766-1.484 1.624-1.201 1.908 0.284 0.284-0.04 1.184-0.718 2.002-1.047 1.262-0.895 1.379 1.01 0.774 2.08-0.66 2.17-0.52 1.242 1.921-1.205 3.17-1.226 3.503-0.22 3.503 0.429 0 1.407-1.463 2.172-3.25zm87.046-1.642c0-2.113-1.62-0.194-2.44 2.892-0.64 2.402-0.6 2.424 0.89 0.558 0.85-1.067 1.55-2.62 1.55-3.45zm-56.23 0.704c-0.22-0.653-0.93-1.366-1.58-1.584-0.73-0.243-0.96 0.214-0.58 1.188 0.69 1.818 2.76 2.196 2.16 0.396zm62.17-3.06c0.98-2.827 0.94-3.055-0.3-1.752-1.76 1.851-3.29 6.522-1.84 5.627 0.55-0.343 1.51-2.087 2.14-3.875zm-86.398-2.819c1.076-1.741-0.15-2.11-1.521-0.458-0.789 0.951-0.865 1.525-0.202 1.525 0.585 0 1.36-0.48 1.723-1.067zm77.458-2.933c0-0.55-0.45-1-1-1s-1 0.45-1 1 0.45 1 1 1 1-0.45 1-1zm10.86-5c0-0.946-0.32-0.761-0.86 0.5-0.47 1.1-0.86 2.675-0.86 3.5 0 0.945 0.32 0.76 0.86-0.5 0.47-1.1 0.86-2.675 0.86-3.5zm-9.86 2c0-0.55-0.45-1-1-1s-1 0.45-1 1 0.45 1 1 1 1-0.45 1-1zm2-4.619c0-0.825-0.45-1.221-1-0.881-0.55 0.339-1 1.293-1 2.118s0.45 1.221 1 0.882c0.55-0.34 1-1.294 1-2.119zm3-6.441c0-0.582-0.45-0.78-1-0.44-0.55 0.339-1 0.816-1 1.059 0 0.242 0.45 0.441 1 0.441s1-0.477 1-1.06zm1-3c0-0.582-0.45-0.78-1-0.44-0.55 0.339-1 0.816-1 1.059 0 0.242 0.45 0.441 1 0.441s1-0.477 1-1.06zm47-3.059c0-0.55-0.45-0.721-1-0.381-0.55 0.339-1 1.068-1 1.618s0.45 0.721 1 0.382c0.55-0.34 1-1.069 1-1.619zm-45-0.441c0-0.242-0.45-0.44-1-0.44s-1 0.476-1 1.059c0 0.582 0.45 0.78 1 0.441 0.55-0.34 1-0.817 1-1.06zm19.5-8.584c2.2-0.623 6.48-1.442 9.5-1.821l5.5-0.69-3-1.239c-1.65-0.682-4-2.174-5.22-3.316-1.87-1.759-3.01-1.983-7.42-1.46-2.86 0.339-5.69 1.14-6.28 1.779-0.81 0.871-0.45 0.983 1.42 0.446 1.38-0.394 3.63-0.889 5-1.1 1.64-0.251 1.81-0.183 0.5 0.197-2.62 0.761-7.76 4.423-7.11 5.069 0.28 0.277 2.63-0.222 5.23-1.109 2.61-0.887 5.89-1.58 7.31-1.541 1.53 0.042 0.02 0.801-3.76 1.881-6.2 1.772-10.22 4.054-7.12 4.042 0.8-0.003 3.25-0.515 5.45-1.138zm16.89-0.293c-0.31-0.791-1.19-1.193-1.97-0.896-1.68 0.648-0.89 2.333 1.11 2.333 0.81 0 1.18-0.607 0.86-1.437zm-29.41-15.443c-0.58-1.308-1.21-2.208-1.4-2-0.19 0.209-0.08 3.98 0.23 8.38l0.58 8 0.83-6c0.52-3.846 0.44-6.855-0.24-8.38zm-8.37 10.15c-0.34-0.332-0.57 0.259-0.53 1.313 0.05 1.165 0.28 1.402 0.6 0.604 0.29-0.722 0.26-1.584-0.07-1.917zm12.05-9.52c-0.27-0.688-0.5-0.125-0.5 1.25s0.23 1.937 0.5 1.25c0.28-0.688 0.28-1.813 0-2.5zm-4.51-11.666c3.99-2.2346 9.66-0.5153 12.57 3.8133l2.28 3.3976v-3.059c0-6.9277-11.5-11.23-15.71-5.8778-1.44 1.8318-2.63 2.284-5.32 2.0245-2.85-0.2742-3.02-0.1968-0.97 0.4306 1.9 0.5821 2.6 1.5917 2.92 4.2257l0.43 3.461 0.57-3.466c0.4-2.3526 1.43-3.9415 3.23-4.9499zm11.85 7.0619c0-0.47-1.1-2.045-2.45-3.5005-1.73-1.8601-3.43-2.6329-5.75-2.6021l-3.3 0.0439 4 1.4154c2.2 0.7785 4.62 2.3333 5.37 3.4563 1.47 2.188 2.13 2.554 2.13 1.187zm-59.11 380.35c6.15-7.55 12.62-14.47 10.27-11-1.11 1.65-4.79 5.93-8.18 9.5-4.81 5.07-5.27 5.4-2.09 1.5zm-97.889 1.82c0-1.15 0.885-3.16 1.967-4.46 2.524-3.03 2.533-2.26 0.033 2.64-1.454 2.85-2 3.35-2 1.82zm8.417-14.58c1.397-4.65 15.583-23.31 15.583-20.5 0 0.33-2.813 4.36-6.25 8.94-3.438 4.58-7.063 9.45-8.056 10.83-1.108 1.53-1.602 1.81-1.277 0.73zm79.662-65.1c0.23-0.2 4.7-0.6 9.92-0.89 6.31-0.35 8.16-0.25 5.5 0.31-3.95 0.82-16.22 1.28-15.42 0.58zm25.42-3.2c3.3-0.74 7.13-1.32 8.5-1.28 1.38 0.05-0.42 0.68-4 1.41-8.48 1.74-12.3 1.63-4.5-0.13zm-141-7.83c-6.24-4.1-6.8401-4.84-9.4111-11.61-2.7121-7.14-2.6336-10.62 0.3862-17.14 1.3613-2.94 2.7406-7.37 3.0651-9.85 1.6578-12.67 6.1558-27.68 8.9988-30.04 0.955-0.79 0.635 0.65-0.918 4.16-1.31 2.95-3.206 9.58-4.214 14.73-1.8147 9.27-1.8125 9.41 0.2329 15.25 2.2891 6.53 1.5611 7.94-1.1495 2.23l-1.7374-3.66-1.466 3.91c-3.5955 9.59-3.785 11.15-2.0293 16.66 0.9193 2.89 1.936 6.24 2.2594 7.45 0.3234 1.22 2.9268 3.88 5.7859 5.93 6.547 4.69 7.356 5.39 6.147 5.32-0.523-0.03-3.2-1.53-5.95-3.34zm3.33-8.64c-4.072-2.15-6.9362-5.73-8.6772-10.87-1.836-5.41-1.3953-5.74 2.5971-1.92 2.0621 1.98 6.2251 4.99 9.2501 6.7s5.219 3.11 4.876 3.11c-1.742 0.03-9.506-3.25-11.083-4.68-0.993-0.89-2.0626-1.37-2.377-1.06-0.8203 0.82 6.558 8.75 8.141 8.75 0.729 0 1.603 0.45 1.943 1 0.91 1.47-0.541 1.16-4.67-1.03zm154.89-4.7c2.32-0.21 6.37-0.21 9 0 2.63 0.2 0.73 0.37-4.22 0.38-4.95 0-7.1-0.17-4.78-0.38zm15.16-0.55c0.48-0.48 2.17-0.71 3.75-0.52 2.64 0.33 2.57 0.4-0.88 0.88-2.15 0.3-3.37 0.15-2.87-0.36zm-1.02-4.9c1.29-1.47 2.91-2.46 3.59-2.2s1.8-0.22 2.5-1.06c0.7-0.85 1.65-1.31 2.1-1.03 0.44 0.28 1.1 0.05 1.44-0.51 0.35-0.56 1.09-1.02 1.65-1.02 1.2 0-3.24 5.87-4.51 5.95-0.48 0.03-0.3-0.63 0.39-1.47 0.7-0.84 1.03-1.76 0.75-2.04-0.29-0.29-1.67 0.85-3.08 2.52-2.83 3.36-4.25 3.95-3.25 1.35 0.55-1.45 0.31-1.41-1.65 0.24-2.27 1.92-2.27 1.92 0.07-0.73zm-147.86-2.82c-1.122-2.2-2.496-4-3.053-4-1.589 0-8.304-2.97-7.816-3.46 0.241-0.24 2.64 0.12 5.331 0.81 4.95 1.26 7.7 3.82 9.023 8.4 1.083 3.75-1.287 2.56-3.485-1.75zm142-1.37c0-1.17 5.66-3.45 10.26-4.15 2.61-0.39 4.74-1.04 4.74-1.45s-2.32-2.37-5.16-4.36c-3.76-2.63-4.74-3.77-3.62-4.2 0.9-0.35 2.69 0.47 4.31 1.97 1.52 1.41 3.08 2.56 3.46 2.56 1.22 0 5.01 3.69 5.01 4.87 0 0.62-1.25 1.13-2.78 1.13-2.72 0-10.99 1.98-14.47 3.47-0.96 0.41-1.75 0.48-1.75 0.16zm25.6-5.51c-2.01-2.23-1.55-5.12 0.82-5.12 0.81 0 1.92-0.78 2.46-1.74 0.53-0.96 1.34-1.37 1.8-0.92 0.45 0.46-0.38 1.87-1.85 3.13-1.83 1.58-2.34 2.62-1.63 3.33 0.56 0.56 0.85 1.55 0.64 2.19-0.25 0.73-1.08 0.41-2.24-0.87zm-9.6-10.03c3.58-0.32 7.06-0.95 7.75-1.4 0.69-0.44 1.25-0.38 1.25 0.15 0 1.56-2.81 2.17-9.33 2l-6.17-0.15 6.5-0.6zm-3.97-3.79c0.02-0.44 1.14-1.61 2.5-2.6 1.36-0.98 2.46-1.43 2.44-1-0.02 0.44-1.14 1.61-2.5 2.6s-2.45 1.44-2.44 1zm14.26-3.2c-0.65-1.05-4.13-3.81-7.74-6.14-3.6-2.33-6.55-4.43-6.55-4.66s2.71 1.03 6.01 2.79c6.36 3.39 10.99 7.12 10.99 8.86 0 1.67-1.41 1.22-2.71-0.85zm-168.53-33.35c-1.858-2.34-4.165-5.6-5.126-7.25l-1.749-3 2.1 2.5c1.155 1.38 3.906 4.64 6.115 7.25 2.208 2.61 3.57 4.75 3.026 4.75-0.543 0-2.508-1.91-4.366-4.25zm-3.727-22.71c-0.809-0.51-1.211-1.19-0.893-1.51 0.319-0.32 1.148 0.11 1.844 0.95 1.442 1.74 1.166 1.9-0.951 0.56zm173.58-70.62c-1.04-2.71-0.74-3.77 0.73-2.55 0.74 0.61 1.64 0.82 2 0.46 0.36-0.37 0.66 0.31 0.66 1.5 0 2.51-2.49 2.94-3.39 0.59zm-4.45-1.66c-0.64-0.64-1.16-1.79-1.16-2.57 0-0.94-0.74-1.24-2.25-0.9-3.19 0.73-8.19-2.42-8.53-5.36-0.27-2.34-0.22-2.36 1.24-0.5 0.84 1.06 1.81 1.64 2.16 1.28 0.36-0.35 1.77 0.24 3.15 1.32 1.38 1.09 3.11 1.97 3.87 1.97 0.75 0 1.36 0.45 1.36 1s0.68 1 1.5 1c0.83 0 1.5 0.65 1.5 1.44 0 2.02-1.46 2.7-2.84 1.32z"/>
  <metadata>
    <rdf:RDF>
      <cc:Work>
        <dc:format>image/svg+xml</dc:format>
        <dc:type rdf:resource="http://purl.org/dc/dcmitype/StillImage"/>
        <cc:license rdf:resource="http://creativecommons.org/licenses/publicdomain/"/>
        <dc:publisher>
          <cc:Agent rdf:about="http://openclipart.org/">
            <dc:title>Openclipart</dc:title>
          </cc:Agent>
        </dc:publisher>
        <dc:title>Man playing bagpipes</dc:title>
        <dc:date>2009-03-22T10:05:23</dc:date>
        <dc:description>Source: http://commons.wikimedia.org/wiki/File:Bagpipe_(PSF).jpg</dc:description>
        <dc:source>http://openclipart.org/detail/22757/man-playing-bagpipes-by-papapishu</dc:source>
        <dc:creator>
          <cc:Agent>
            <dc:title>papapishu</dc:title>
          </cc:Agent>
        </dc:creator>
        <dc:subject>
          <rdf:Bag>
            <rdf:li>bagpipes</rdf:li>
            <rdf:li>black and white</rdf:li>
            <rdf:li>clip art</rdf:li>
            <rdf:li>clipart</rdf:li>
            <rdf:li>coloring book</rdf:li>
            <rdf:li>contour</rdf:li>
            <rdf:li>drawing</rdf:li>
            <rdf:li>line art</rdf:li>
            <rdf:li>man</rdf:li>
            <rdf:li>music</rdf:li>
            <rdf:li>musical instruments</rdf:li>
            <rdf:li>outline</rdf:li>
            <rdf:li>people</rdf:li>
            <rdf:li>psf</rdf:li>
            <rdf:li>wikimedia commons</rdf:li>
          </rdf:Bag>
        </dc:subject>
      </cc:Work>
      <cc:License rdf:about="http://creativecommons.org/licenses/publicdomain/">
        <cc:permits rdf:resource="http://creativecommons.org/ns#Reproduction"/>
        <cc:permits rdf:resource="http://creativecommons.org/ns#Distribution"/>
        <cc:permits rdf:resource="http://creativecommons.org/ns#DerivativeWorks"/>
      </cc:License>
    </rdf:RDF>
  </metadata>
</svg>
