<?xml version="1.0"?>
<svg xmlns:rdf="http://www.w3.org/1999/02/22-rdf-syntax-ns#" xmlns="http://www.w3.org/2000/svg" xmlns:cc="http://creativecommons.org/ns#" xmlns:dc="http://purl.org/dc/elements/1.1/" xmlns:svg="http://www.w3.org/2000/svg" id="svg2" viewBox="0 0 253.15 576.66" version="1.0">
  <path id="path2311" d="m160.31 576.09c-6.89-1.92-11.86-5.89-15.57-12.44l-2.32-4.09 0.08-5.43c0.08-4.68 0.31-6.06 1.73-9.96 1.51-4.18 2.15-5.15 2.74-4.14 0.35 0.62-0.43 5.2-1.64 9.56-0.61 2.2-1.11 5.02-1.11 6.27 0 2.88 1.26 6.5 2.59 7.43 0.57 0.4 1.03 1.25 1.03 1.89 0 2.15 5.56 6.28 10.89 8.09 6.61 2.24 14.24 1.76 16.8-1.07 1.36-1.5 0.67-1.72-3.16-1-3.86 0.73-9.72 0.41-14.15-0.77-2.63-0.7-9.35-4.7-9.35-5.57 0-0.59 0.06-0.57 5.26 1.91 5.41 2.58 10.94 3.54 16.83 2.92 4.68-0.5 5.56-1.5 6.3-7.23 1-7.85 0.76-13.57-0.81-18.89-0.77-2.58-1.82-5.26-2.33-5.94-0.52-0.67-0.94-1.6-0.94-2.06 0.01-1.68-3.34-11.57-3.99-11.82-0.37-0.14-1.04 0.05-1.49 0.42-0.95 0.79-0.8 2.88 0.53 7.2 1.42 4.63 1.63 8.12 0.55 9.31-1.18 1.31-4.34 1.95-4.93 1s-0.21-1.41 1.91-2.29c2.57-1.08 2.22-2.59-0.61-2.59-1.86 0-2.04-0.12-1.92-1.24 0.08-0.69-0.22-1.64-0.66-2.13-0.87-0.96-0.59-2.34 0.57-2.78 1.12-0.43 0.88-1.87-0.31-1.87-0.57 0-1.44-0.46-1.92-1.03-1.22-1.42-1.83-1.31-3.43 0.62-1.49 1.8-1.63 2.26-0.85 2.74 0.98 0.61 0.51 1.69-1 2.31-1.71 0.71-2.62 0.39-2.62-0.94 0-2.08-2.45-2.8-4.53-1.34-1.09 0.76-1.23 0.7-2.83-1.11-2.1-2.37-2.38-3.04-2.43-5.67-0.06-3.53-2.12-12.27-3.43-14.53-1.17-2.02-2.48-3.3-5.65-5.53-1.21-0.85-1.32-1.17-1.02-3.16 0.36-2.39-0.07-3.53-3.14-8.3-5.9-9.18-17.54-29.03-18.12-30.92-0.29-0.94-3.27-7.86-5.39-12.53-2.55-5.61-5.7-16.45-5.7-19.62 0-2.07-1.242-3.56-2.612-3.12-0.525 0.16-5.097 2.23-10.16 4.6-5.062 2.36-10.6 4.93-12.307 5.71-4.01 1.83-4.572 2.29-3.842 3.17 0.755 0.91 0.238 2.36-1.38 3.88-1.146 1.08-1.761 1.23-4.517 1.12-4.612-0.18-6.793 1.18-8.965 5.57-2.024 4.09-2.028 4.12-0.462 4.12 1.857 0 2.113 0.93 0.586 2.14-1.492 1.17-1.373 2.05 0.22 1.63 1.536-0.4 1.31 1.11-0.273 1.84-1.755 0.8-2.119 1.97-0.994 3.22 0.51 0.56 0.984 1.89 1.052 2.95 0.069 1.06 0.288 2.57 0.487 3.34 0.553 2.16-0.101 3.96-1.573 4.33-1.396 0.35-1.724 1.48-0.559 1.93 0.399 0.15 1.213 0.15 1.809-0.01 0.967-0.25 1.05-0.11 0.771 1.28-0.25 1.25-0.112 1.62 0.698 1.88 0.555 0.18 1.644 1.62 2.42 3.2 1.263 2.58 1.718 3.01 4.346 4.14 7.778 3.34 9.337 4.72 9.782 8.67 0.421 3.73-0.523 4.72-5.19 5.41-10.998 1.64-26.938-2.77-32.244-8.91-1.963-2.28-4.799-7.55-5.875-10.92-1.584-4.96-4.012-8.77-7.833-12.29-2.092-1.93-4.884-4.51-6.206-5.74-1.321-1.23-3.712-4.21-5.314-6.62-4.7362-7.12-4.4954-10.68 1.081-16 4.247-4.06 9.782-7.36 13.763-8.21 6.571-1.41 15.37-5.01 15.37-6.29 0-0.77 2.084-2.57 2.605-2.24 0.802 0.49 0.577 2.07-0.488 3.43-1.187 1.51-7.358 4.76-11.964 6.3l-3.341 1.12 0.038 3.36c0.043 3.76 1.447 10.18 2.829 12.93 1.909 3.79 5.117 5.3 11.204 5.26 2.784-0.01 3.463 0.19 5.114 1.5 2.22 1.76 2.845 1.85 4.009 0.57 1.214-1.35 1.06-2.16-0.407-2.16-2.065 0-2.049-0.95 0.058-3.26 1.093-1.19 2.434-3.17 2.979-4.39 0.794-1.79 1.62-2.58 4.156-4 2.889-1.61 3.327-1.72 5.027-1.2 2.188 0.68 4.558 0.22 4.558-0.87 0-0.56-0.611-0.76-2.281-0.76-1.864 0-2.738-0.36-4.784-1.98-4.87-3.86-9.08-10.22-10.012-15.14-0.283-1.49-0.633-2.83-0.778-2.98-0.6-0.6-1.328 0.95-1.625 3.46-0.627 5.29-2.993 5.56-2.617 0.3 0.227-3.18 2.173-7.27 4.133-8.7 1.393-1.01 1.47-1.01 3.022-0.09l1.592 0.94 9.132-9.27c7.657-7.77 10.101-9.9 15.138-13.2 3.303-2.16 6.721-4.3 7.596-4.75 0.874-0.45 1.732-1.05 1.906-1.33 0.571-0.93-3.853-6.7-7.389-9.64-5.305-4.42-12.306-8.98-16.708-10.89-4.152-1.8-12.695-7.32-20.007-12.93-7.012-5.39-20.097-17.69-23.822-22.41-5.784-7.33-13.064-18.83-14.016-22.15-0.2525-0.88-1.0549-2.38-1.7835-3.34-2.0895-2.74-2.9197-5.3-4.961-15.28-0.97014-4.75-1.0693-6.66-0.88635-17.07 0.20664-11.76 0.33301-12.81 2.7464-22.84 1.344-5.59 5.4631-18.31 6.7373-20.8 1.1831-2.32 3.7521-13 4.3581-18.12 0.764-6.45 3.474-20.55 4.748-24.7 1.488-4.85 8.947-20.38 12.663-26.38 1.872-3.01 2.453-3.6 10.043-10.07 2.662-2.27 6.702-5.77 8.978-7.78 4.803-4.24 9.883-7.8 11.821-8.29 1.297-0.33 4.987-3.64 4.987-4.48 0-0.23-0.326-0.41-0.724-0.41-1.334 0-9.102-9.78-9.102-11.46 0-1.49 2.213-2.62 4.353-2.22 2.222 0.42 2.384 0.02 0.406-1-0.796-0.41-2.451-1.73-3.678-2.92-2.074-2.01-2.207-2.3-1.907-4.18 0.226-1.41 0.08-2.39-0.487-3.26-0.709-1.08-0.72-1.45-0.088-2.97 0.398-0.95 1.111-2.05 1.585-2.44 0.914-0.758 2.919-4.905 2.919-6.037 0-1.259 2.664-2.881 4.183-2.548 1.261 0.277 1.471 0.114 2.031-1.584 0.343-1.041 0.686-2.867 0.761-4.057 0.098-1.561 0.758-3.07 2.369-5.418 3.328-4.849 5.239-5.886 6.197-3.365 0.285 0.749 1.017 2.063 1.628 2.921l1.111 1.559 0.945-1.167c0.52-0.642 0.945-1.952 0.945-2.912 0-1.187 0.471-2.271 1.471-3.391 1.877-2.101 2.944-1.733 3.33 1.149 0.443 3.304 2.417 4.969 6.232 5.258 2.761 0.209 3.088 0.12 3.853-1.048 1.08-1.649 11.1-9.717 13.75-11.065 1.95-0.996 2.6-1.011 6.12-0.14 1 0.249 1.83 0.031 2.98-0.784 2.08-1.482 6.89-2.323 12.85-2.248 3.44 0.043 5.07 0.279 5.69 0.825 0.48 0.42 2.03 0.931 3.44 1.134 5.02 0.723 11.92 4.269 16.41 8.426 0.76 0.708 1.92 1.552 2.56 1.875 2.14 1.067 5.21 7.538 8.13 17.162 0.61 2.011 1.11 4.013 1.11 4.448 0 1.117 2.35 5.407 4.16 7.607 1.23 1.49 1.53 2.35 1.54 4.45 0.01 1.43 0.36 3.18 0.76 3.89 1.06 1.85 0.94 4.86-0.33 8.63-1.17 3.46-1.62 3.8-4.81 3.61-1.35-0.08-1.57 0.12-1.9 1.7-0.22 1.05-0.95 2.2-1.77 2.8-1.74 1.27-2.78 3.71-2.46 5.79 0.21 1.36-0.02 1.76-1.61 2.84-1.01 0.7-1.95 1.55-2.09 1.9-0.13 0.35 0.32 1.86 1.02 3.36s1.27 3.03 1.28 3.39c0 0.37 0.93 2.42 2.07 4.57s2.07 4.34 2.07 4.86c0 0.53 0.23 1.11 0.52 1.28 0.28 0.18 0.51 0.74 0.51 1.26 0 1.3 7.17 15.25 9.74 18.96 1.17 1.68 2.95 4.7 3.94 6.7 1 2.01 2.6 4.57 3.55 5.69 3.72 4.41 8.8 12.35 11.23 17.54 1.42 3.03 2.87 5.45 3.26 5.45 1.61 0 10.01-3.28 14.31-5.6 7.58-4.06 7.8-4.24 10.6-8.56 1.5-2.31 3.22-5.19 3.83-6.4 1.05-2.07 1.07-2.37 0.38-4.91-0.4-1.49-0.99-4.46-1.32-6.59-0.32-2.14-1.07-5.86-1.67-8.28s-1.38-6.14-1.74-8.27c-0.97-5.83-1.81-9.11-6.14-24.05-0.66-2.28-1.49-5.3-1.85-6.73-0.64-2.5-0.95-3.64-3.86-14.22-0.75-2.7-2.03-7.47-2.87-10.6-3.79-14.288-6.92-21.235-11.67-25.893-1.8-1.761-4.71-3.678-8.91-5.854-3.43-1.779-7.54-4.208-9.13-5.398-4.36-3.267-11.69-13.62-13.45-18.984-0.41-1.273-1.48-4.293-2.38-6.711-3.15-8.529-4.34-15.644-3.98-23.791 0.27-5.868 1.86-11.724 4.18-15.396 1.9-3.0018 5.78-6.2761 9.56-8.0604 3.32-1.569 3.68-1.6253 9.91-1.5696 7.4 0.066028 9.17 0.57619 16.07 4.6207 7.7 4.5133 14.6 12.786 18.45 22.107 0.73 1.766 1.78 4.204 2.33 5.418 1.16 2.557 1.86 6.662 1.05 6.159-0.29-0.18-1.07-1.787-1.73-3.571-3.13-8.436-7.49-15.609-12.69-20.871-7.18-7.2713-15.67-11.575-22.86-11.588-9.92-0.0169-17.49 5.3196-20.26 14.276-1.5 4.863-2.24 12.857-1.58 17.1 0.3 1.941 0.79 5.158 1.09 7.149 0.96 6.42 4.6 16.849 6.41 18.352 1.94 1.608 4.69-1.532 3.27-3.72-0.67-1.023-2.2-5.441-5.38-15.553-0.43-1.359-0.99-4.152-1.25-6.206-0.25-2.053-0.62-4.681-0.8-5.838-0.48-3.027 1.06-11.306 2.58-13.91 1.56-2.655 5.15-6.0193 8.14-7.6104 1.97-1.0562 2.96-1.2005 8.2-1.2005 5.67 0 6.13 0.0822 9.31 1.657 4.21 2.0808 9.44 6.4109 13.16 10.892 6.56 7.899 11.2 20.86 12.04 33.595 0.21 3.21 0.51 4.461 1.22 5.106 2.47 2.23 3.48-1.673 2.29-8.84-0.87-5.222-1.02-8.998-0.34-8.249 1.6 1.774 3.71 21.475 2.61 24.426-1.39 3.723-4.39 8.832-7.21 12.287-1.72 2.099-3.57 4.816-4.13 6.037-1.15 2.542-1.32 6.789-0.46 11.529 0.31 1.707 0.76 4.15 0.99 5.43 0.39 2.173 1.55 6.523 4.06 15.253 0.58 2 1.38 5.02 1.8 6.73 1.98 8.22 5.23 20.02 7.84 28.44 1.58 5.12 3.35 10.94 3.93 12.93 0.59 1.99 1.89 5.95 2.89 8.8 1 2.84 2.17 6.17 2.6 7.41l0.78 2.23 2.48-0.34c2.67-0.36 4.64 0.3 4.64 1.56 0 0.42-0.31 0.62-0.72 0.46-1.08-0.41-4.98 1.54-6.98 3.5-1.73 1.69-3.64 5.14-3.66 6.61-0.01 0.41-0.99 2.39-2.19 4.39-6.67 11.2-10.6 15.48-15.93 17.34-1.84 0.64-5.8 2.02-8.79 3.07-2.98 1.04-5.78 2.11-6.2 2.38-0.43 0.26-1.82 0.64-3.11 0.83-2.67 0.4-9.31 2.19-16.81 4.53-2.84 0.89-5.63 1.61-6.2 1.62-2.1 0.01-15.82 3.51-20.17 5.16-1.43 0.53-3.81 1.25-5.31 1.58-2.39 0.54-2.9 0.5-4.14-0.3-1.65-1.06-6.42-5.28-13.48-11.91-2.75-2.58-7.56-6.64-10.69-9.02s-6.6-5.1-7.72-6.04-2.23-1.71-2.47-1.71c-0.23 0-1.28 1.34-2.33 2.98-4.13 6.46-8.162 11.72-12.442 16.22-4.25 4.46-4.429 4.74-3.466 5.41 0.559 0.39 2.064 1.44 3.344 2.33 4.002 2.79 11.054 7.2 11.524 7.2 0.24 0 2.11 1.01 4.16 2.25 5.26 3.18 18.07 9.76 22.2 11.4 1.91 0.76 4.94 2.05 6.72 2.87 4.99 2.3 10.07 3.79 11.93 3.49 2.1-0.33 7.85-2.02 12.51-3.68 1.99-0.71 4.01-1.3 4.49-1.31 1.22-0.03 11.64-4.63 26.54-11.71 5.2-2.46 10.16-5.27 11.41-6.44 0.59-0.55 1.31-1.01 1.61-1.01s1.45-0.62 2.56-1.38c2.61-1.78 10.89-5.34 12.45-5.34 1.48 0 7.91-1.75 9.44-2.57 0.62-0.33 2.13-0.91 3.37-1.28 2.55-0.77 9.66-5.5 10.8-7.19 1.15-1.7 4.97-5.51 5.53-5.51 1.17 0 0.48 3.96-1.05 6.04-1.47 2-1.53 2.24-1.04 4.8 0.58 3.04 0.25 3.99-1.93 5.71-3.25 2.56-9.05 3.53-10.52 1.76-0.55-0.66-1.25-0.75-3.55-0.46-1.58 0.19-3.46 0.64-4.17 1-0.71 0.35-3.04 0.95-5.17 1.34-5.2 0.93-13.29 5.24-14.17 7.53-0.16 0.42 0.63 2.94 1.77 5.59 1.13 2.66 2.06 5.14 2.06 5.53s0.57 1.87 1.27 3.3c0.71 1.43 2.06 4.48 3.02 6.78 1.12 2.72 2.81 5.49 4.8 7.9 6.38 7.73 12.84 14.65 15.78 16.91 3.39 2.61 3.68 3.03 4.55 6.61 0.34 1.38 1.54 4.35 2.66 6.59 2.01 3.99 2.05 4.18 2.05 9.66 0 4.5-0.19 5.98-0.99 7.54-0.55 1.08-1.24 2.64-1.53 3.48-0.69 1.98-1.89 2.4-3.72 1.32-1.44-0.85-1.49-0.84-2.33 0.44-0.47 0.72-1.27 1.31-1.78 1.31-1.97 0-2.08-3.84-0.21-8.05 1-2.27 1.44-2.83 1.8-2.27 0.7 1.11 0.59 2.31-0.39 4.36-0.68 1.42-0.73 1.97-0.25 2.45 1.29 1.29 2.25-0.77 2.54-5.47 0.23-3.59 0.12-4.68-0.58-5.74-1.13-1.74-1.87-1.66-1.87 0.19 0 1.26-0.17 1.46-1.06 1.22-1.14-0.3-2.51 1.05-2.54 2.49-0.03 1.31-1.76 2.54-3.57 2.54-2.2 0-3.99-1.95-4.42-4.82-0.38-2.48-2.92-5.94-6.18-8.39-5.02-3.77-9.84-9.6-10.75-13-2.13-7.95-6.41-16.16-11.63-22.32-1.53-1.8-2.77-3.46-2.77-3.68 0-0.23-1.4-2.24-3.11-4.46-1.7-2.23-3.1-4.23-3.1-4.45 0-0.71-3.01-1.98-4.7-1.98-0.9 0-2.38 0.46-3.28 1.01-0.89 0.56-3.48 1.7-5.75 2.53-4.55 1.68-9.35 3.62-13.68 5.51-2.66 1.16-5.01 1.81-10.09 2.77-3.47 0.66-13.22-2.38-22.9-7.13-2.93-1.44-5.45-2.62-5.6-2.62-0.83 0-12.35-6.16-15.46-8.26-1.99-1.35-5.67-3.56-8.18-4.9-2.506-1.34-5.299-3.07-6.205-3.83-1.43-1.21-5.045-3.18-5.828-3.18-0.147 0-0.581 0.76-0.965 1.68-0.873 2.11-0.297 9.07 0.901 10.9 0.445 0.68 2.863 2.95 5.372 5.05 6.955 5.81 22.165 21.34 24.955 25.5 1.36 2.02 3.79 5.61 5.39 7.98 1.61 2.36 3.74 5.97 4.74 8.01 3.13 6.38 5.72 11.15 6.57 12.11 0.44 0.51 1.76 2.82 2.92 5.15 1.16 2.32 2.37 4.39 2.68 4.58 2.33 1.44 6.84 11.59 11.24 25.33 4.26 13.28 5.51 18.08 6.34 24.19 0.24 1.77 0.94 5.89 1.54 9.16 0.8 4.31 1.09 7.9 1.07 13.02-0.05 10.03-0.5 11.04-7.11 16.01-6.05 4.55-10.75 6.79-14.61 6.97-2.66 0.12-2.9 0.23-3.05 1.42-0.24 1.92 1.25 6.44 2.78 8.45 0.74 0.96 2 3.22 2.81 5 1.63 3.58 2.53 6.02 7.5 20.25 1.25 3.58 1.78 6.44 3.09 16.55 1.73 13.41 2.2 16.52 3.14 20.43 0.44 1.85 0.94 4.24 1.1 5.32 0.35 2.21 1.75 3.47 3.87 3.47 2.52 0 4.74 4.31 3.32 6.47-0.45 0.69-0.81 1.85-0.81 2.57 0 2.09 1.73 6.49 4.08 10.4 2.5 4.14 3.69 7.79 3.9 12 0.08 1.64 0.52 3.72 0.99 4.61 0.46 0.89 1.5 4.14 2.32 7.22 0.81 3.08 2.08 6.79 2.81 8.23 2.36 4.63 3.36 10.39 3.38 19.32 0.02 10.41-0.98 13.18-5.6 15.55-2.64 1.35-11.24 1.79-14.93 0.76zm-11.08-50.54c0.3-0.64 0.75-1.84 1-2.67 0.73-2.42 2.78-2.79 6.05-1.09l2.68 1.39 0.77-1.16c1.48-2.19 4.22-4.62 5.23-4.62 1.54 0 1.73-1.31 0.58-4.01-0.57-1.35-1.42-4.17-1.89-6.27-1.03-4.59-1.88-6.35-3.63-7.49-1.08-0.71-1.32-1.28-1.32-3.1 0-1.58 0.3-2.51 1.03-3.17 1.3-1.18 1.31-1.66 0.04-2.06-1.36-0.43-4.25 0.85-8.57 3.81-1.99 1.36-5.71 3.36-8.27 4.44-5.8 2.44-5.69 2.38-4.84 2.91 2.32 1.47 6.8-0.03 11.9-3.99 3.05-2.36 3.76-2.64 4.34-1.71 0.84 1.35-5.52 6.22-9.72 7.44-1.64 0.48-2.98 1.14-2.99 1.48 0 0.33 0.79 3.17 1.77 6.29 0.98 3.13 2.05 7.17 2.37 8.97 0.75 4.2 1.36 5.77 2.24 5.77 0.38 0 0.94-0.52 1.23-1.16zm15.89-2.41c1.26-1.39 0.91-3.88-0.57-4.09-1.24-0.17-1.89 0.73-2.47 3.4-0.33 1.53-0.25 1.68 0.9 1.68 0.68 0 1.65-0.45 2.14-0.99zm-92.171-24.68c0.302-0.18 0.413-1.22 0.257-2.38-0.369-2.75-2.354-4.78-6.824-6.96-7.596-3.72-9.568-5.29-9.568-7.65 0-1.08-0.441-2.05-1.293-2.85-0.711-0.67-1.293-1.51-1.293-1.88 0-0.36-0.461-0.97-1.024-1.37-1.937-1.36-3.746-4.58-3.383-6.02 0.185-0.74 0.311-1.74 0.28-2.24-0.106-1.74-0.067-4.28 0.09-5.78 0.129-1.24-0.146-1.69-1.492-2.49-1.524-0.9-1.768-0.91-3.207-0.17-2.177 1.13-3.123 1.03-6.863-0.74-1.803-0.85-3.634-1.55-4.069-1.55-1.635 0-3.222-1.79-4.945-5.57-1.967-4.32-3.316-9.44-3.316-12.58 0-1.42-0.26-2.16-0.836-2.38-1.219-0.47-6.178 2.3-9.132 5.1-2.491 2.35-2.541 2.46-2.18 4.65 0.405 2.46 1.572 4.08 8.379 11.68 2.358 2.63 4.287 5.24 4.287 5.8 0 1.66-1.215 0.77-4.743-3.5-5.135-6.22-6.468-8.04-7.496-10.22-0.736-1.56-1.255-2.03-2.24-2.03-1.939 0-1.825 1.25 0.475 5.21 2.752 4.75 5.988 8.6 9.349 11.13 1.515 1.13 3.589 2.86 4.609 3.83 4.731 4.49 5.532 5.12 6.338 4.99 1.055-0.16 3.861 3.4 5.92 7.53 1.675 3.35 4.444 6.35 8.068 8.74 3.197 2.11 10.712 4.66 14.69 5 3.574 0.29 6.007 1.27 4.807 1.93-1.694 0.92-16.129-1.97-19.406-3.89-2.916-1.71-6.488-5.79-8.164-9.33-1.292-2.73-4.417-7.16-4.788-6.79-0.393 0.39 2.155 6.57 4.085 9.91 4.079 7.04 8.429 9.71 20.044 12.28 5.568 1.23 13.057 1.54 14.584 0.59zm70.041-0.77c1.39-0.61 3.61-1.87 4.93-2.81 1.33-0.94 3.37-2.21 4.55-2.8 3.56-1.82 3.61-2.42 0.88-12.02-2.59-9.11-3.69-14.28-4.17-19.55-0.17-1.85-0.68-5.11-1.12-7.24-0.45-2.13-1.15-5.74-1.55-8.01-1.6-9.07-5.77-19.98-9.63-25.2-2.24-3.04-2.69-4.08-3.55-8.28-0.55-2.64-1-6.08-1-7.64-0.02-4.06-1.81-16.61-3.06-21.36-0.98-3.76-1.58-5.5-4.89-14.33-2.32-6.18-11.1-21.79-13.94-24.78-0.97-1.02-2.77-3.25-4-4.95-1.23-1.71-3.33-4.39-4.67-5.95-1.35-1.57-3.002-4.01-3.684-5.43-0.682-1.43-2.277-4.3-3.543-6.38-1.266-2.09-3.249-5.4-4.406-7.36-2.873-4.86-3.265-5.22-8.121-7.5-3.794-1.78-4.788-2.02-9.152-2.21-8.579-0.38-19.849 1.86-24.672 4.89-6.647 4.18-10.71 13.2-11.774 26.13-0.313 3.8 0.258 6.65 1.336 6.65 0.235 0 0.979 0.87 1.654 1.94 3.472 5.49 15.765 15.36 29.56 23.73 12.266 7.44 20.104 13.76 24.045 19.38 2.173 3.1 4.466 9.17 5.158 13.65 0.219 1.42 0.879 5.03 1.466 8.02 0.583 2.98 1.463 8.57 1.943 12.41 1.05 8.35 3.26 17.26 5.77 23.27 2.23 5.34 14.27 29.78 17.33 35.2 1.22 2.15 3.06 4.94 4.09 6.21 1.03 1.26 2.92 3.93 4.21 5.92 2.74 4.27 5.64 7.5 6.72 7.5 0.42 0 1.9-0.5 3.29-1.1zm-73.652-60.68c1.787-0.98 6.974-3.27 11.525-5.09 11.256-4.51 18.041-8.12 18.295-9.74 0.106-0.68-0.075-3.44-0.402-6.14-0.326-2.71-0.839-7.01-1.139-9.57s-0.896-5.59-1.326-6.73c-1.582-4.19-3.819-8.57-4.511-8.84-1.866-0.71-18.448 11.29-21.687 15.7-2.325 3.17-6.184 6.8-11.587 10.89l-4.255 3.23 0.307 2.44c0.567 4.51 4.677 11.28 8.545 14.08 1.178 0.85 2.331 1.55 2.563 1.55s1.884-0.8 3.672-1.78zm68.372-30.22c0.16-0.24 1.66-0.96 3.36-1.6 3.61-1.35 10.83-5.68 13.97-8.38 3.49-3.01 4.42-7.04 2.95-12.86-0.39-1.55-0.86-4.49-1.04-6.53-0.17-2.05-0.54-4.84-0.82-6.21-0.27-1.37-0.99-5.17-1.59-8.45-1.99-10.89-3.16-16.24-4.65-21.2-0.81-2.7-1.88-6.31-2.38-8.02-1.71-5.89-6.07-13.78-12.65-22.9-1.59-2.2-3.22-3.88-3.91-4.06-1.38-0.34-4.11 1.08-13.17 6.86-3.53 2.25-8.44 4.8-11.9 6.19-3.23 1.3-6.172 2.48-6.527 2.63-0.356 0.15-0.647 0.68-0.647 1.17 0 1.68 5.014 9.25 9.764 14.72 5.45 6.29 10.03 12.8 11.79 16.76 0.67 1.51 2.3 4.65 3.62 6.97 6.28 11.08 9.91 23.3 11.31 38.12 0.54 5.73 1.53 8.39 2.52 6.79zm-105.55-71.49c-0.05-0.96 0.139-4.5 0.42-7.85l0.51-6.1-1.584-2.57c-0.871-1.42-1.583-3.14-1.583-3.83s-0.26-1.42-0.577-1.61c-0.345-0.22-0.468-1.17-0.306-2.37 0.221-1.65 0.082-2.11-0.777-2.57-0.82-0.44-0.988-0.91-0.777-2.21 0.23-1.42 0.108-1.67-0.846-1.74-2.08-0.15-2.924-1.95-2.924-6.22 0-2.92 0.218-4.15 0.859-4.86 1.185-1.31 0.586-1.68-1.572-0.96-1.6 0.52-2.067 0.45-3.9-0.6-2.74-1.57-4.182-4.12-3.212-5.67 0.594-0.95 0.574-1.18-0.137-1.58-1.29-0.72-0.984-1.88 0.779-2.95 1.57-0.96 1.582-1 0.517-1.57-1.133-0.6-1.475-2.31-0.574-2.87 0.284-0.18 0.517-0.91 0.517-1.63 0-3.53 2.769-10.3 4.899-11.97 0.719-0.57 1.307-1.5 1.307-2.06 0-0.69 0.458-1.15 1.347-1.38 1.113-0.27 1.282-0.53 0.971-1.47-0.208-0.63-0.406-2.24-0.442-3.58-0.073-2.7 0.177-2.41-6.085-6.89-3.806-2.73-6.954-5.76-8.106-7.8-0.359-0.64-0.718-0.8-1.0341-0.46-0.7589 0.81-3.7581 11.23-5.0622 17.59-0.4086 1.99-1.0879 5.16-1.5095 7.05-0.5231 2.35-0.7666 6.42-0.7666 12.83 0 11.35 0.5385 14.37 4.3319 24.34 0.704 1.85 1.7462 4.59 2.3159 6.09 1.8916 5 5.3516 10.28 13.304 20.3 5 6.3 8.2 9.48 9.189 9.14 0.329-0.11 0.557-1 0.508-1.97zm213.83-20.25c0.36-0.74 0.89-3.22 1.18-5.53 0.49-3.95 0.45-4.35-0.83-7.4-0.74-1.78-2.15-5.42-3.13-8.1-2.09-5.72-2.26-5.95-5.35-7.55-1.29-0.66-5.53-4.31-9.4-8.1-7.64-7.48-6.65-5.97-13.38-20.34-1.6-3.41-4.14-10.08-4.14-10.86 0-1.34-2.37-5.97-3.19-6.23-0.95-0.3-2.24 0.18-8.45 3.2-7.82 3.8-8.88 5.4-5.93 8.92 2.54 3.02 5.82 7.38 7.43 9.89 0.83 1.28 2.35 3.37 3.38 4.65 4.87 6.03 7.79 11.95 7.79 15.78 0 4.9 3.52 10.29 9.52 14.58 1.45 1.03 3.45 2.64 4.45 3.56 0.99 0.93 2.39 1.76 3.1 1.86 1.12 0.14 1.31 0.46 1.45 2.36 0.18 2.45 0.94 2.91 1.44 0.89 0.61-2.43-0.24-4.47-3.15-7.53-2.71-2.83-3.88-4.79-3.88-6.47 0-1.35 2.43-3.31 4.11-3.31 1.73 0 6.4 3.04 7.33 4.77 0.51 0.95 0.43 1-1.18 0.65-0.95-0.2-2.59-0.81-3.64-1.34-4.05-2.05-4.69-0.48-1.47 3.59 2.56 3.24 3.12 3.59 3.49 2.19 0.17-0.67 0.62-1.05 1.12-0.95 0.62 0.13 0.8 0.64 0.69 1.97-0.43 5.14-0.36 6.45 0.36 6.45 1.14 0 2.17-3.59 1.54-5.38-0.28-0.82-0.45-2.47-0.36-3.65l0.16-2.15 3.1 3.78c2.91 3.55 3.13 4 3.54 7.4 0.25 1.99 0.47 5.08 0.5 6.86 0.06 3.43 0.64 3.92 1.8 1.54zm-141.34-0.31c3.63-0.95 9.57-3.82 16.81-8.11 2.14-1.27 4.87-2.82 6.08-3.44 1.21-0.63 2.2-1.5 2.2-1.94-0.01-0.45-0.96-2.06-2.12-3.59-1.16-1.54-3.55-5.61-5.32-9.05-5.16-10.1-8.44-14.67-16.75-23.32-4.78-4.97-13.352-12.17-14.494-12.17-0.373 0-1.539-0.49-2.591-1.08l-1.913-1.09-4.137 2.35c-6.882 3.9-10.476 4.83-21.464 5.53-12.079 0.78-18.977 0.11-25.726-2.47-0.776-0.3-3.901 3.1-4.29 4.66-0.155 0.62-0.826 1.24-1.518 1.41-0.796 0.18-1.379 0.81-1.626 1.73-0.212 0.79-0.603 1.72-0.87 2.05-0.266 0.34-0.995 2.01-1.62 3.72-1.65 4.51-3.488 8.27-4.421 9.04-0.738 0.61-0.736 0.76 0.022 1.6 0.782 0.86 0.691 1.03-1.409 2.58l-2.244 1.66 1.81-0.26c2.164-0.31 3.103-0.04 3.103 0.9 0 0.37 0.873 1.11 1.939 1.63 1.568 0.77 1.971 1.27 2.102 2.63 0.121 1.26 0.413 1.68 1.153 1.68 2.419 0 4.362 9.16 2.305 10.86-1.144 0.95-0.943 1.62 0.388 1.28 0.919-0.23 1.548 0.18 2.989 1.93 1.004 1.22 2.261 3.21 2.794 4.42 0.532 1.21 1.272 2.2 1.643 2.2 0.372 0 1.326-0.82 2.12-1.82 2.43-3.06 6.903-5.82 11.875-7.33 2.513-0.76 4.964-1.71 5.448-2.12 1.217-1.02 11.635-1.77 15.67-1.12 6.838 1.09 9.864 2.47 14.395 6.53 1.754 1.57 3.688 3.3 4.297 3.84 2.096 1.87 3.137 0.81 1.25-1.27-0.552-0.61-2.454-2.85-4.227-4.99-3.606-4.34-10.329-11.37-10.868-11.37-0.194 0-1.829-0.84-3.634-1.86-5.453-3.08-9.469-4.12-10.053-2.6-0.151 0.39-1.249 0.87-2.441 1.06-1.191 0.19-3.361 0.95-4.822 1.69-1.636 0.83-3.013 1.21-3.586 0.99-0.884-0.34-0.88-0.41 0.07-1.33 0.55-0.53 2.656-1.8 4.681-2.82 4.322-2.18 7.004-2.37 11.963-0.87 3.374 1.03 4.663 0.67 2.555-0.71-1.927-1.26-9.517-3.89-11.361-3.94-2.019-0.04-5.421-1.21-4.741-1.62 0.269-0.16 3.219-0.17 6.556-0.02 6.761 0.31 5.973-0.04 13.033 5.69 2.19 1.78 4.394 3.23 4.897 3.23 0.502 0 1.476 0.87 2.164 1.92 1.497 2.3 5.131 4.97 6.203 4.56 0.422-0.16 1.55-1.63 2.507-3.26 2.265-3.85 4.107-6.32 4.72-6.32 1.311 0 0.318 3.4-2.155 7.38-1.456 2.34-2.648 4.78-2.651 5.41-0.002 0.63 0.665 1.94 1.483 2.9 0.818 0.97 2.137 2.6 2.931 3.64 0.795 1.03 1.842 1.88 2.328 1.88 0.729 0 0.909 0.61 1.032 3.46 0.135 3.12 0.701 4.83 1.596 4.8 0.18 0 1.95-0.43 3.94-0.95zm-0.77-9.63c0-0.13 0.75-0.61 1.68-1.06l1.68-0.81-1.22 1.06c-1.15 0.99-2.14 1.37-2.14 0.81zm-68.098-22.87c-1.54-0.3-2.012-1.77-0.848-2.63 0.626-0.47 1.699-0.6 3.261-0.39 1.28 0.16 3.705 0.47 5.39 0.68 1.684 0.2 3.145 0.62 3.246 0.93 0.419 1.28-6.932 2.21-11.049 1.41zm15.184-2.04c-0.575-0.57 0.175-1.22 1.419-1.22 0.659 0 1.489 0.35 1.843 0.78 0.551 0.66 0.386 0.77-1.144 0.77-0.983 0-1.936-0.15-2.118-0.33zm23.308-32.27c8.579-3.55 7.601-2.04 7.765-11.95 0.172-10.43 0.278-10.24-5.225-9.34-2.04 0.33-5.105 0.85-6.812 1.16-1.715 0.32-4.726 0.42-6.731 0.24-3.34-0.3-3.89-0.53-6.914-2.88-1.807-1.41-3.15-2.55-2.985-2.55s1.531 0.49 3.035 1.1c2.344 0.94 3.876 1.1 10.739 1.16 7.005 0.06 8.025-0.04 8.171-0.78 0.108-0.54-0.597-1.23-2.035-1.98-1.21-0.63-4.887-3.03-8.171-5.32-5.681-3.97-6.145-4.19-9.59-4.55-9.094-0.98-15.485-5.82-18.604-14.11-1.492-3.96-1.679-6.04-0.546-6.04 0.814 0 1.978 1.95 3.147 5.26 1.658 4.7 8.969 11.5 11.373 10.58 0.972-0.37 0.961-1.57-0.021-2.39-0.425-0.35-1.028-1.6-1.34-2.78-0.312-1.17-0.921-2.89-1.353-3.81-0.798-1.7-0.583-3.56 0.343-2.99 0.279 0.17 0.957 1.33 1.508 2.58 2.411 5.45 6.749 10.52 10.257 11.99 0.913 0.38 3.621 1.97 6.017 3.53 2.396 1.57 6.187 3.7 8.424 4.75 2.238 1.04 4.939 2.59 6.004 3.45l1.936 1.55 1.814-0.98c0.997-0.54 1.814-1.15 1.814-1.36s1.381-1.78 3.069-3.48c5.622-5.7 13.997-17.35 13.997-19.48 0-0.36-0.76-1.4-1.68-2.32-0.92-0.91-2.083-2.27-2.575-3.01-0.492-0.73-2.703-3.2-4.913-5.48-2.211-2.28-4.527-4.72-5.148-5.43-2.384-2.74-4.435-4.14-6.048-4.15-2.16 0-5.495-0.95-5.495-1.57 0-0.87 3.407-0.52 6.592 0.67 2.549 0.96 4.257 2.26 9.659 7.34 3.609 3.4 7.258 6.6 8.098 7.12 0.85 0.51 1.66 1.24 1.81 1.62 0.49 1.28 7.47 6.65 8.25 6.35 0.84-0.31 1.03-2.41 0.3-3.19-0.44-0.47-1.2-3.26-2.09-7.73-0.23-1.14-0.64-2.65-0.93-3.36-0.28-0.71-0.68-2.99-0.88-5.07-0.36-3.73-0.34-3.81 1.51-6.59 1.02-1.55 2.81-3.57 3.96-4.5 1.97-1.58 3.54-3.81 3.54-5 0-0.29-1.41-2.04-3.15-3.89l-3.15-3.37-1.61 0.83c-0.89 0.46-2.62 1.83-3.83 3.05-5.31 5.3-11.433 6.68-17.38 3.9-8.805-4.12-15.639-18.09-13.053-26.68 0.437-1.45 0.578-2.76 0.324-3.02-0.247-0.24-1.678-0.44-3.18-0.43-3.364 0.03-5.012 1.08-20.861 13.27-6.004 4.62-11.686 9.74-13.651 12.29-5.519 7.18-14.485 24.19-16.018 30.38-1.753 7.08-4.084 19.34-4.526 23.79-0.337 3.4-1.407 9.34-2.388 13.26-0.713 2.84 0.158 4.47 4.797 8.98 6.275 6.09 15.308 10.74 23.981 12.34 1.707 0.31 3.569 0.66 4.138 0.78 0.569 0.11 5.633 0.23 11.253 0.27l10.22 0.06 5.038-2.09zm-11.254-66.62c0-1.37 7.455-5.02 9.025-4.41 1.29 0.49 0.923 1.7-0.621 2.04-0.782 0.17-2.879 0.87-4.66 1.56-3.625 1.4-3.744 1.42-3.744 0.81zm95.2 45.73c4.64-1.27 8.11-2.5 8.41-2.97 0.58-0.92 0.48-1.18-1.97-5.08-2.35-3.74-7-13.17-9.07-18.36-1.87-4.71-4.97-11.04-8.36-17.08-1.28-2.27-3.47-6.39-4.86-9.16-3.15-6.24-3.05-6.52 2.74-7.7 5.12-1.04 9.54-3.34 12.82-6.67 2.26-2.29 2.51-2.8 2.73-5.42 0.17-2.1 0.03-3.12-0.54-3.77-0.43-0.49-1.16-1.65-1.63-2.57s-1.17-1.68-1.56-1.68-1.42 1.1-2.28 2.46c-1.94 3.01-4.96 6-5.79 5.72-1.02-0.34-2.04-4.1-2.05-7.59 0-2.77 0.2-3.53 1.31-4.85 1.72-2.04 1.47-2.91-1.06-3.84-3.73-1.37-3.99-1.4-4.48-0.51-0.64 1.14-1.34 1.08-4.71-0.41-3.47-1.54-3.84-2.03-2.13-2.81 1.84-0.84 1.38-2.15-1.05-2.99-1.12-0.39-2.43-1.07-2.92-1.5-0.83-0.76-1.43-3.73-1.67-8.25-0.08-1.66-0.3-2.07-1.11-2.07-0.69 0-1.13 0.51-1.43 1.67-0.4 1.54-3.2 4.28-4.38 4.28-0.28 0-1.53 0.67-2.79 1.5-4.08 2.66-7.23 2.59-7.93-0.19-0.28-1.12-0.62-1.31-2.38-1.31-1.78 0-2.09 0.18-2.39 1.38-0.19 0.75-0.05 2.5 0.3 3.89 0.92 3.58 0.12 4.63-4.45 5.82-1.95 0.5-5.095 1.36-6.995 1.91-3.94 1.13-6.872 0.78-9.176-1.08-0.734-0.59-1.885-1.35-2.559-1.69-1.084-0.55-1.365-0.46-2.456 0.81-1.632 1.9-1.692 6.72-0.143 11.51 1.365 4.23 3.461 7.01 7.697 10.22 3.148 2.38 3.451 2.5 5.981 2.29 2.06-0.17 3.123-0.6 4.681-1.91 2.08-1.75 8.19-4.19 10.48-4.19 0.95 0 2.7 1.37 6.5 5.11 5.75 5.63 8.38 7.26 12.47 7.68 2.24 0.23 3.07 0.07 4.59-0.86 2.04-1.27 2.31-1.97 0.95-2.45-4.08-1.45-8.38-6.1-6.95-7.52 0.51-0.51 1.29-0.41 3.86 0.51 1.77 0.64 3.75 1.15 4.41 1.15s1.59 0.2 2.07 0.45 1.48 0.59 2.22 0.77c1.08 0.25 1.45 0.07 1.91-0.93 0.52-1.16 0.44-1.28-1.09-1.59-1.93-0.41-3.98-1.6-3.98-2.33 0-0.9 4.75-0.58 5.84 0.4 0.55 0.5 1.72 0.91 2.61 0.91 2.56 0 2.43 1.53-0.24 2.81-1.21 0.59-2.4 1.07-2.64 1.07-1.05 0-4.12 3-5.07 4.95-1.38 2.86-2.88 4.1-5.77 4.8-3.86 0.94-5.63 0.73-8.17-0.96-1.28-0.85-2.73-1.55-3.21-1.55-1.37 0-4.37 2.25-6.63 4.98-4.02 4.87-4.44 7.35-2.32 13.84 0.74 2.26 1.29 5.18 1.29 6.79 0 7.71 3.14 14.37 8.2 17.38 1.04 0.62 2.74 1.93 3.77 2.91 1.04 0.98 2.71 2.28 3.72 2.89 1.93 1.17 9.1 7.17 13.52 11.32 2.51 2.36 2.69 2.43 5 2.14 1.32-0.17 5.96-1.28 10.31-2.48zm-26.67-84.06c-2.84-1.37-4.4-2.83-4.4-4.11 0-0.85 0.32-1.08 1.52-1.08 0.84 0 1.67 0.23 1.84 0.51 0.18 0.29 0.75 0.52 1.26 0.52 0.52 0 1.23 0.35 1.59 0.78 0.41 0.49 1.55 0.77 3.13 0.77 3.09 0 3.66 0.78 1.72 2.37-1.81 1.48-3.92 1.56-6.66 0.24zm-4.91-7.75c-1.35-0.88 0.17-1.66 2.9-1.48 1.83 0.11 2.52 0.37 2.52 0.93 0 0.93-4.19 1.35-5.42 0.55zm50.34 86.66c1.47-0.39 4.3-1.1 6.29-1.56 6.37-1.49 9.17-2.34 10.39-3.14l1.19-0.78-1.46-4.04c-0.8-2.23-1.83-4.77-2.29-5.66-0.46-0.88-1.31-2.88-1.9-4.45s-2.5-4.61-4.27-6.81c-1.77-2.19-4.14-5.18-5.26-6.64-1.13-1.47-2.49-3.13-3.03-3.7-1.01-1.07-6.11-11.32-8.11-16.29-2.42-6.04-2.77-6.73-3.4-6.73-0.35 0-1.6 1.15-2.78 2.55-2.73 3.27-7.98 6.21-12.13 6.79-4.79 0.68-5.23 1.85-2.34 6.18 1.98 2.98 8.41 15.84 10.34 20.73 3.3 8.3 7.34 15.9 10.78 20.26 3.46 4.37 3.65 4.45 7.98 3.29zm49.81-63.19c0.17-0.44-0.31-3.06-1.07-5.82-1.31-4.76-3.55-13.26-6.24-23.71-0.67-2.6-1.48-5.22-1.79-5.82-0.69-1.28-2.51-1.43-2.97-0.25-0.3 0.78 0.84 6.27 2.61 12.62 2.27 8.12 3.55 12.88 3.96 14.74 0.47 2.17 2.3 7.67 2.84 8.54 0.49 0.8 2.32 0.59 2.66-0.3zm-74.39-8.48c1.65-2.24 1.48-3.52-0.55-4.07-0.93-0.25-1.84-0.37-2.03-0.27-0.69 0.38-0.98 3.14-0.46 4.49 0.68 1.79 1.63 1.75 3.04-0.15zm6.28-9.99c0.69-1.24 0.7-1.5 0.05-1.9-1.72-1.08-5.85 2-4.17 3.1 1.36 0.88 3.28 0.32 4.12-1.2zm1.17-4.58c0.51-0.27 0.92-0.65 0.92-0.86-0.01-0.61-4.49-2.6-5.07-2.24-0.73 0.45-1.32 2.97-0.87 3.7 0.39 0.64 3.39 0.28 5.02-0.6zm-95.278-22.69c0-0.28-0.247-0.52-0.548-0.52s-0.404 0.24-0.228 0.52c0.176 0.29 0.422 0.52 0.547 0.52 0.126 0 0.229-0.23 0.229-0.52zm17.533-0.72c0.684-0.38 1.641-0.59 2.127-0.46 1.054 0.27 1.847-1.32 0.847-1.7-0.886-0.34-5.526 0.7-6.417 1.44-0.565 0.47-0.569 0.65-0.022 1 0.949 0.6 2.027 0.51 3.465-0.28zm15.279-3.98c0.554-0.53 0.847-1.12 0.652-1.31-0.44-0.44-4.29 1.25-5.12 2.25-0.95 1.15 3.201 0.27 4.468-0.94zm-23.503-4.04c0-0.57-1.591-1.22-1.999-0.81-0.164 0.16 0.044 0.51 0.462 0.78 0.967 0.61 1.537 0.62 1.537 0.03zm7.484-1.27c1.253-0.91 0.767-2.12-1.39-3.431-2.414-1.471-2.991-1.328-2.991 0.741 0 1.25 0.34 2.02 1.15 2.59 1.409 0.98 1.998 1 3.231 0.1zm84.055-1.91c0-1.04-1.55-3.537-2.69-4.339-1.49-1.039-1.81-1.016-2.45 0.169-0.44 0.822-0.14 1.27 1.88 2.844 2.49 1.936 3.26 2.256 3.26 1.326zm-79.366-1.556c0.389-0.63-2.123-4.468-3.357-5.128-0.954-0.511-2.619 0.245-2.591 1.176 0.03 1.002 2.2 3.364 3.602 3.921 1.703 0.677 1.945 0.677 2.346 0.031zm124.03-3.073c-0.09-2.43-0.6-7.254-0.97-9.078-0.17-0.873-0.52-1.025-1.97-0.857-1.62 0.191-1.85 0.031-3.11-2.235-0.75-1.343-1.37-3.094-1.37-3.891 0-1.497 1.16-3.075 2.25-3.075 1.31 0 2.92 1.671 3.51 3.654 0.34 1.135 0.83 1.995 1.08 1.909 0.26-0.085 1.14-1.319 1.96-2.743 1.29-2.237 1.41-2.755 0.87-3.817-1.02-2.013-2.19-2.471-3.84-1.502-3.02 1.77-6.6 2.458-10.17 1.953-3.79-0.537-4.79-0.32-5.25 1.136-0.42 1.321 0.38 2.22 3.45 3.893 3.7 2.01 6.94 6.525 9.3 12.93 1.38 3.739 1.89 4.4 3.26 4.205 0.93-0.132 1.07-0.484 1-2.482zm-116.32-2.738c0.636-1.809-0.023-2.479-2.915-2.959-1.223-0.204-2.628-0.542-3.124-0.752-1.113-0.472-1.676 0.731-1.21 2.588 0.805 3.205 6.222 4.044 7.249 1.123zm10.641-0.202c0-0.195-0.51-0.893-1.13-1.552l-1.12-1.197h2.67c1.47 0 2.68-0.19 2.68-0.422s-0.9-0.928-2-1.547c-1.1-0.618-2.29-1.47-2.64-1.892-0.53-0.638-0.39-0.875 0.84-1.402 0.81-0.35 1.56-0.697 1.67-0.773s-0.19-0.727-0.66-1.447c-0.88-1.343-2.39-1.64-4.906-0.966l-1.229 0.329 1.221 0.922c1.644 1.24 1.054 1.647-1.547 1.063-1.901-0.427-2.232-0.357-2.913 0.614-1.398 1.997-0.475 5.004 1.537 5.004 0.374 0 1.061 0.582 1.527 1.293s1.294 1.293 1.84 1.293c0.54 0 1.13 0.233 1.31 0.517 0.36 0.577 2.85 0.719 2.85 0.163zm36.61-18.882c0.2-1.04-1.46-2.02-4.29-2.536-1.14-0.207-2.94-0.544-4.01-0.748-1.33-0.254-1.94-0.185-1.94 0.221 0 0.849 3.13 2.639 4.66 2.663 0.71 0.011 1.87 0.355 2.58 0.766 1.6 0.92 2.78 0.776 3-0.366zm-25.88-0.805c0.13-0.403-0.28-0.646-1.09-0.646-1.45 0-2.26 0.794-1.24 1.214 1 0.413 2.09 0.147 2.33-0.568zm83.71-1.541c-0.53-0.525-0.96 0.266-0.53 0.964 0.32 0.527 0.45 0.528 0.62 0.002 0.12-0.359 0.08-0.794-0.09-0.966zm3.3-0.14c0-0.284-0.23-0.517-0.51-0.517-0.29 0-0.52 0.233-0.52 0.517 0 0.285 0.23 0.518 0.52 0.518 0.28 0 0.51-0.233 0.51-0.518zm4.32-0.792c-0.16-0.418-0.5-0.759-0.75-0.759-0.53 0-0.62 1.217-0.13 1.71 0.55 0.551 1.19-0.14 0.88-0.951zm-25.3-2.738c-0.87-0.761-2.46-2.488-3.52-3.84-2.03-2.571-3.39-3.32-2.34-1.293 0.7 1.367 6.81 7.111 7.19 6.757 0.14-0.133-0.46-0.864-1.33-1.624zm27.48-2.004c-0.24-0.626-0.47-0.694-0.91-0.263-0.43 0.431-0.39 0.803 0.13 1.436 0.8 0.967 1.31 0.206 0.78-1.173zm-3.91 0.88c0-0.285-0.25-0.518-0.55-0.518s-0.4 0.233-0.23 0.518c0.18 0.284 0.43 0.517 0.55 0.517 0.13 0 0.23-0.233 0.23-0.517zm-15.81-2.758c-0.18-0.475-0.66-0.863-1.05-0.863-0.87 0-0.9 0.263-0.16 1.641 0.66 1.237 1.72 0.555 1.21-0.778zm8.05-0.62c0-0.783-1.36-1.637-1.84-1.156-0.14 0.136-0.1 0.631 0.08 1.098 0.41 1.072 1.76 1.117 1.76 0.058zm6.92-0.655c0.14-0.227 0.05-0.749-0.21-1.16-0.35-0.564-0.6-0.601-1.06-0.149-0.32 0.328-0.44 0.85-0.24 1.159 0.4 0.661 1.15 0.734 1.51 0.15zm3.94-0.592c0-0.552-0.25-1.16-0.56-1.351-0.79-0.489-1.7 0.572-1.33 1.545 0.44 1.155 1.89 1.007 1.89-0.194zm3.53-0.119c-0.21-1.421-1.46-1.899-1.46-0.558 0 1.074 0.42 1.681 1.16 1.681 0.26 0 0.39-0.505 0.3-1.123zm-27.93-2.325c-0.25-1.297-1.46-1.476-1.46-0.215 0 0.635 0.34 1.077 0.82 1.077s0.74-0.351 0.64-0.862zm3.94-0.861c-0.39-1.016-1.78-1.164-1.78-0.19 0 0.962 1.17 1.993 1.68 1.483 0.23-0.237 0.28-0.819 0.1-1.293zm3.91 0.202c0-0.61-1.01-1.263-1.38-0.892-0.37 0.37 0.29 1.379 0.9 1.379 0.26 0 0.48-0.219 0.48-0.487zm4.14-0.258c0-0.824-0.94-1.592-1.39-1.139-0.43 0.425 0.24 1.884 0.86 1.884 0.29 0 0.53-0.335 0.53-0.745zm7.24-0.776c0-0.552-0.25-1.16-0.56-1.351-0.79-0.489-1.71 0.572-1.33 1.544 0.44 1.156 1.89 1.007 1.89-0.193zm3.78 0.31c0.4-1.047-0.46-2.086-1.42-1.717-0.68 0.26-0.74 0.538-0.29 1.369 0.64 1.204 1.33 1.343 1.71 0.348zm3.46-1.344c0-0.702-0.91-1.164-1.24-0.629-0.31 0.5 0.14 1.115 0.81 1.115 0.24 0 0.43-0.219 0.43-0.486zm-27.71-1.506c0.15-0.243-0.06-0.883-0.46-1.423-0.56-0.768-0.86-0.845-1.35-0.356-0.5 0.492-0.5 0.793 0.02 1.422 0.74 0.891 1.38 1.018 1.79 0.357zm3.61-1.482c-0.79-1.256-1.76-1.417-1.76-0.293 0 1.341 1.09 2.372 1.78 1.684 0.36-0.364 0.36-0.803-0.02-1.391zm8.59-0.121c0-1.045-1.48-1.858-2.15-1.185-0.55 0.544 1.02 2.829 1.66 2.431 0.27-0.164 0.49-0.725 0.49-1.246zm-4.66-0.025c0-0.569-0.23-1.034-0.52-1.034-0.28 0-0.51 0.465-0.51 1.034s0.23 1.034 0.51 1.034c0.29 0 0.52-0.465 0.52-1.034zm11.29-0.862c-0.25-1.298-1.46-1.476-1.46-0.216 0 0.636 0.33 1.078 0.81 1.078s0.75-0.352 0.65-0.862zm3.97-0.467c0-0.541-0.41-1.063-0.91-1.159-0.91-0.175-1.31 1.393-0.55 2.154 0.62 0.611 1.46 0.034 1.46-0.995zm3.88 0.069c0-0.375-0.35-0.97-0.77-1.321-0.63-0.518-0.83-0.479-1.09 0.202-0.37 0.946 0.69 2.52 1.4 2.084 0.25-0.156 0.46-0.59 0.46-0.965zm-12.16 0.226c-0.17-0.285-0.42-0.518-0.54-0.518-0.13 0-0.23 0.233-0.23 0.518 0 0.284 0.24 0.517 0.55 0.517 0.3 0 0.4-0.233 0.22-0.517zm-15.86-2.76c0.2-1.049-1.31-1.736-2.1-0.951-0.4 0.407-0.37 0.79 0.12 1.378 0.8 0.974 1.75 0.77 1.98-0.427zm3.97 0.686c0.49-0.789-0.23-2.581-1.04-2.581-1.1 0-1.39 0.886-0.66 2.048 0.72 1.167 1.21 1.32 1.7 0.533zm8.01-1.822c0-0.825-1.37-1.626-1.89-1.104-0.17 0.165-0.16 0.659 0 1.098 0.4 1.034 1.89 1.039 1.89 0.006zm6.73-1.018c0-0.426-0.22-0.776-0.49-0.776-0.65 0-1.12 0.808-0.7 1.221 0.58 0.583 1.19 0.355 1.19-0.445zm3.73-0.87c-0.79-0.79-1.37-0.207-0.93 0.934 0.25 0.675 0.48 0.741 0.94 0.281s0.46-0.749-0.01-1.215zm3.93 0.523c-0.21-1.421-1.46-1.899-1.46-0.558 0 1.074 0.42 1.681 1.16 1.681 0.26 0 0.39-0.505 0.3-1.123zm-34.56-1.925c0-1.092-1.34-1.851-1.83-1.042-0.49 0.787 0.15 2.021 1.04 2.021 0.44 0 0.79-0.44 0.79-0.979zm6.43-1.262c-0.18-0.474-0.65-0.862-1.05-0.862-0.9 0-0.96 1.895-0.07 2.22 0.93 0.341 1.51-0.355 1.12-1.358zm4.13 0.766c0.15-0.243-0.06-0.883-0.48-1.422-0.62-0.816-0.83-0.858-1.23-0.253-0.26 0.401-0.36 1.041-0.21 1.422 0.3 0.775 1.5 0.933 1.92 0.253zm3.41-1.111c0-0.284-0.23-0.517-0.52-0.517-0.28 0-0.52 0.233-0.52 0.517 0 0.285 0.24 0.517 0.52 0.517 0.29 0 0.52-0.232 0.52-0.517zm4.33 0.105c0.41-0.662-0.54-1.823-1.17-1.433-0.83 0.513-0.71 1.845 0.17 1.845 0.41 0 0.86-0.185 1-0.412zm7.39-1.363c-0.17-0.446-0.55-0.81-0.84-0.81-0.6 0-0.74 1.698-0.18 2.249 0.56 0.568 1.36-0.552 1.02-1.439zm3.51-0.329c-0.44-0.717-0.75-0.584-0.75 0.325 0 0.443 0.24 0.66 0.53 0.481 0.28-0.178 0.39-0.541 0.22-0.806zm4.02-0.576c-0.79-0.79-1.38-0.207-0.94 0.934 0.26 0.675 0.48 0.741 0.95 0.281 0.46-0.46 0.45-0.749-0.01-1.215zm3.3-0.283c-0.53-0.525-0.96 0.266-0.53 0.964 0.33 0.527 0.45 0.528 0.62 0.002 0.12-0.359 0.08-0.794-0.09-0.966zm-38.07-0.673c0-1.251-1.48-1.972-2.07-1.011-0.61 0.983-0.04 2.062 1.09 2.062 0.64 0 0.98-0.365 0.98-1.051zm6.73-0.729c0-0.41-0.26-0.902-0.57-1.093-0.73-0.451-1.72 0.546-1.27 1.276 0.51 0.82 1.84 0.688 1.84-0.183zm3.89 0.205c0.48-0.784-0.83-2.213-1.46-1.585-0.58 0.58-0.13 2.125 0.62 2.125 0.28 0 0.66-0.243 0.84-0.54zm3.14-1.389c-0.52-0.525-0.96 0.266-0.53 0.964 0.33 0.527 0.45 0.528 0.63 0.002 0.12-0.359 0.07-0.794-0.1-0.966zm4.86 0.408c0-1.199-0.93-1.895-1.61-1.21-0.65 0.65-0.02 2.214 0.89 2.214 0.4 0 0.72-0.452 0.72-1.004zm7.24-0.776c0-0.823-0.94-1.592-1.39-1.139-0.42 0.426 0.24 1.885 0.86 1.885 0.29 0 0.53-0.336 0.53-0.746zm3.42-0.666c-0.53-0.526-0.96 0.266-0.53 0.964 0.33 0.527 0.45 0.527 0.62 0.002 0.12-0.359 0.08-0.794-0.09-0.966zm4.34-0.14c0-0.69-0.34-1.034-1.03-1.034-1.14 0-1.18 0.064-0.72 1.25 0.45 1.172 1.75 1.011 1.75-0.216zm-35.25-2.359c-0.24-1.238-1.26-1.509-1.67-0.442-0.41 1.066 0.68 2.532 1.36 1.843 0.27-0.266 0.41-0.896 0.31-1.401zm7.12 0.589c0.37-0.978-0.74-3.001-1.51-2.744-0.73 0.24-1.08 1.68-0.68 2.734 0.37 0.959 1.82 0.966 2.19 0.01zm3.58-0.839c0.48-0.784-0.83-2.213-1.46-1.585-0.58 0.58-0.13 2.125 0.62 2.125 0.28 0 0.65-0.243 0.84-0.54zm4.02-0.304c0.48-0.487-0.65-2.337-1.22-1.984-0.74 0.461-0.58 2.311 0.2 2.311 0.38 0 0.84-0.147 1.02-0.327zm4.21-0.144c0.44-0.709-0.25-2.115-1.03-2.115-0.91 0-1.43 0.896-1.07 1.835 0.32 0.835 1.65 1.012 2.1 0.28zm7.01-1.309c0-0.41-0.22-0.879-0.48-1.042-0.62-0.38-1.23 0.588-0.81 1.27 0.47 0.77 1.29 0.626 1.29-0.228zm3.81-0.547c-0.32-0.821-1.22-1.077-1.22-0.345 0 0.547 0.56 1.12 1.1 1.12 0.23 0 0.28-0.349 0.12-0.775zm4.47 0.063c0-1.046-1.37-2.072-1.81-1.357-0.52 0.828 0.1 2.069 1.01 2.069 0.44 0 0.8-0.32 0.8-0.712zm2.68-0.951c-0.37-0.371-0.62-0.402-0.62-0.078 0 0.691 0.62 1.302 0.96 0.957 0.15-0.147-0.01-0.543-0.34-0.879zm-31.65-2.215c-0.45-0.547-0.85-0.648-1.19-0.303-0.35 0.345-0.29 0.79 0.16 1.337 0.45 0.546 0.85 0.647 1.2 0.302 0.34-0.344 0.29-0.79-0.17-1.336zm3.75 0.043c0.07-0.261-0.16-0.571-0.51-0.69-0.36-0.119-0.65 0.172-0.65 0.647 0 0.875 0.93 0.91 1.16 0.043zm4.27-0.338c0-0.399-0.41-0.804-0.91-0.9-0.89-0.172-1.26 0.926-0.54 1.636 0.54 0.542 1.45 0.08 1.45-0.736zm4.3-0.346c-0.26-1.348-1.97-1.499-1.97-0.173 0 0.74 0.33 1.072 1.07 1.072s1.02-0.278 0.9-0.899zm6.82-0.652c0-0.285-0.23-0.518-0.52-0.518-0.28 0-0.52 0.233-0.52 0.518 0 0.284 0.24 0.517 0.52 0.517 0.29 0 0.52-0.233 0.52-0.517zm8.27-0.518c0-0.689-0.34-1.034-1.03-1.034-1 0-1.4 1.012-0.69 1.724s1.72 0.307 1.72-0.69zm-28.44-2.844c0-0.393-0.26-0.875-0.58-1.07-0.81-0.505-1.55 0.895-0.88 1.693 0.63 0.765 1.46 0.412 1.46-0.623zm3.62-0.259c0-0.574-0.35-1.034-0.78-1.034s-0.77 0.46-0.77 1.034c0 0.575 0.34 1.035 0.77 1.035s0.78-0.46 0.78-1.035zm4.14 0.031c0-0.552-0.26-1.161-0.57-1.352-0.79-0.488-1.7 0.572-1.33 1.545 0.44 1.155 1.9 1.007 1.9-0.193zm3.96-0.324c0.43-1.123-0.66-2.18-1.45-1.397-0.66 0.662-0.25 2.207 0.59 2.207 0.3 0 0.69-0.364 0.86-0.81zm7.41-0.452c0-0.824-0.93-1.592-1.39-1.139-0.42 0.425 0.24 1.884 0.86 1.884 0.29 0 0.53-0.335 0.53-0.745zm7.99-0.243c0.51-0.819-0.3-2.115-1.32-2.115-1.03 0-1.18 0.414-0.66 1.768 0.34 0.892 1.52 1.098 1.98 0.347zm-28.67-3.667c0-0.574-0.35-1.034-0.78-1.034-0.79 0-1.06 1.094-0.43 1.724 0.66 0.656 1.21 0.341 1.21-0.69zm4.13 0.031c0-0.698-0.94-1.183-1.56-0.801-0.28 0.179-0.39 0.541-0.22 0.806 0.38 0.628 1.78 0.624 1.78-0.005zm3.63-0.548c0-0.574-0.35-1.034-0.78-1.034-0.79 0-1.06 1.094-0.43 1.724 0.65 0.656 1.21 0.341 1.21-0.69zm4.65 0.56c0-1.061-0.67-2.111-1.35-2.111-0.42 0-0.72 0.532-0.72 1.293 0 0.948 0.28 1.293 1.04 1.293 0.56 0 1.03-0.214 1.03-0.475zm15-1.551c0-1.514-0.74-2.165-1.94-1.722-0.89 0.327-0.81 1.441 0.17 2.418 1.21 1.211 1.77 0.99 1.77-0.696zm-8.54-0.043c-0.17-0.285-0.42-0.517-0.54-0.517-0.13 0-0.23 0.232-0.23 0.517 0 0.284 0.25 0.517 0.55 0.517s0.4-0.233 0.22-0.517zm3.88 0.03c0-0.267-0.23-0.63-0.51-0.806-0.29-0.176-0.52 0.043-0.52 0.487 0 0.443 0.23 0.806 0.52 0.806 0.28 0 0.51-0.219 0.51-0.487zm-23.96-2.392c0.43-1.124-0.66-2.18-1.45-1.397-0.66 0.662-0.25 2.207 0.59 2.207 0.3 0 0.69-0.364 0.86-0.81zm7.41-1.258c0-0.285-0.23-0.518-0.51-0.518-0.29 0-0.52 0.233-0.52 0.518 0 0.284 0.23 0.517 0.52 0.517 0.28 0 0.51-0.233 0.51-0.517zm4.14-0.259c0-0.427-0.23-0.776-0.52-0.776-0.28 0-0.51 0.349-0.51 0.776s0.23 0.776 0.51 0.776c0.29 0 0.52-0.349 0.52-0.776zm-5.17-3.59c0-0.824-0.94-1.592-1.39-1.139-0.43 0.426 0.24 1.884 0.86 1.884 0.29 0 0.53-0.335 0.53-0.745zm4.27 0.436c0.51-0.503-0.18-1.759-0.96-1.759-0.4 0-0.72 0.31-0.72 0.689 0 1.146 0.98 1.771 1.68 1.07zm-8.41-0.755c0-0.302-0.23-0.404-0.52-0.229-0.28 0.176-0.51 0.423-0.51 0.548 0 0.126 0.23 0.228 0.51 0.228 0.29 0 0.52-0.246 0.52-0.547zm15.57-0.64c-0.66-0.664-1.34-0.151-0.84 0.644 0.19 0.308 0.58 0.414 0.87 0.235 0.35-0.219 0.34-0.508-0.03-0.879zm-3.93 0.153c-0.18-0.285-0.42-0.517-0.55-0.517-0.12 0-0.23 0.232-0.23 0.517 0 0.284 0.25 0.517 0.55 0.517s0.4-0.233 0.23-0.517zm8.01 0c0-0.285-0.24-0.517-0.54-0.517s-0.41 0.232-0.23 0.517c0.17 0.284 0.42 0.517 0.55 0.517 0.12 0 0.22-0.233 0.22-0.517zm-37.75 536.32c-1.37-1.37-1.32-3.36 0.12-4.36 2.49-1.75 5.14-0.32 3.25 1.76-1.02 1.13-0.66 2.08 0.8 2.08 0.55 0 1 0.35 1 0.78 0 1.22-3.88 1.03-5.17-0.26zm8.79-1.55c0-0.86 0.35-1.03 2.07-1.03 2.14 0 2.93 1.11 1.25 1.75-1.77 0.68-3.32 0.35-3.32-0.72zm-9.48-6.03c-0.19-0.19-0.34-0.89-0.34-1.56 0-1.09 0.22-1.2 2.53-1.2 2.92 0 3.81 1.03 1.98 2.31-1.15 0.81-3.55 1.07-4.17 0.45zm-7.59-3.51c0-0.91 0.32-1.04 0.76-0.32 0.16 0.26 0.06 0.63-0.23 0.8-0.29 0.18-0.53-0.03-0.53-0.48zm36.93-82.81c-2.53-0.93-3.79-2.2-5.59-5.61-2.56-4.85-1.37-10.44 3-13.97 1.77-1.44 2.37-1.61 6.19-1.77l4.23-0.18 3.19 2.35c3.49 2.57 4.28 3.67 4.86 6.8 0.79 4.28-1.96 10.19-5.55 11.89-2.61 1.24-7.66 1.48-10.33 0.49zm11.72-12.14c1.87-1 0.91-3.71-2.08-5.92-1.64-1.21-4.68-1.8-4.67-0.91 0.01 1.61 1.33 4.43 2.69 5.76 1.76 1.72 2.49 1.91 4.06 1.07zm50.63-232.49c-0.88-1.06 0.26-2.3 2.12-2.3 1.36 0 3.08-1.13 3.08-2.03 0-0.56-2.44-3.14-2.98-3.14-0.25 0-0.9 0.34-1.45 0.76-1.36 1.03-2.48 0.98-3.51-0.16-0.81-0.89-0.8-1 0.05-1.74 0.5-0.44 1.76-1.07 2.8-1.41 2.74-0.87 3.35-1.78 2.29-3.39-1-1.54-2.26-1.6-5.47-0.3-1.76 0.71-2.6 0.81-3.49 0.4-2.56-1.16-0.51-5.76 3.27-7.34 1.46-0.6 1.8-1.06 2.08-2.81 0.18-1.15 0.53-1.97 0.78-1.81 0.7 0.43 0.54 2.99-0.28 4.66-1.21 2.48-1.23 3.59-0.04 3.45 2.06-0.24 3.39 0.44 4.7 2.43 1.01 1.52 1.26 2.4 1.01 3.53-0.23 1.06-0.08 1.7 0.53 2.21 1.39 1.15 1.81 2.99 1.47 6.38l-0.33 3.2-3 0.08c-2.08 0.06-3.2-0.15-3.63-0.67z"/>
  <metadata>
    <rdf:RDF>
      <cc:Work>
        <dc:format>image/svg+xml</dc:format>
        <dc:type rdf:resource="http://purl.org/dc/dcmitype/StillImage"/>
        <cc:license rdf:resource="http://creativecommons.org/licenses/publicdomain/"/>
        <dc:publisher>
          <cc:Agent rdf:about="http://openclipart.org/">
            <dc:title>Openclipart</dc:title>
          </cc:Agent>
        </dc:publisher>
        <dc:title>tennis player</dc:title>
        <dc:date>2009-03-22T09:44:30</dc:date>
        <dc:description>Source: http://commons.wikimedia.org/wiki/File:Backhand_sports_(PSF).jpg</dc:description>
        <dc:source>http://openclipart.org/detail/22753/tennis-player-by-papapishu</dc:source>
        <dc:creator>
          <cc:Agent>
            <dc:title>papapishu</dc:title>
          </cc:Agent>
        </dc:creator>
        <dc:subject>
          <rdf:Bag>
            <rdf:li>black and white</rdf:li>
            <rdf:li>clip art</rdf:li>
            <rdf:li>clipart</rdf:li>
            <rdf:li>coloring book</rdf:li>
            <rdf:li>contour</rdf:li>
            <rdf:li>drawing</rdf:li>
            <rdf:li>game</rdf:li>
            <rdf:li>girl</rdf:li>
            <rdf:li>line art</rdf:li>
            <rdf:li>outline</rdf:li>
            <rdf:li>people</rdf:li>
            <rdf:li>player</rdf:li>
            <rdf:li>psf</rdf:li>
            <rdf:li>sport</rdf:li>
            <rdf:li>tennis</rdf:li>
            <rdf:li>wikimedia commons</rdf:li>
            <rdf:li>woman</rdf:li>
          </rdf:Bag>
        </dc:subject>
      </cc:Work>
      <cc:License rdf:about="http://creativecommons.org/licenses/publicdomain/">
        <cc:permits rdf:resource="http://creativecommons.org/ns#Reproduction"/>
        <cc:permits rdf:resource="http://creativecommons.org/ns#Distribution"/>
        <cc:permits rdf:resource="http://creativecommons.org/ns#DerivativeWorks"/>
      </cc:License>
    </rdf:RDF>
  </metadata>
</svg>
