<?xml version="1.0" encoding="UTF-8" ?>
<!DOCTYPE svg PUBLIC "-//W3C//DTD SVG 1.1//EN" "http://www.w3.org/Graphics/SVG/1.1/DTD/svg11.dtd">
<svg width="537pt" height="517pt" viewBox="0 0 537 517" version="1.1" xmlns="http://www.w3.org/2000/svg">
<path fill="#000000" opacity="1.00" d=" M 268.01 0.00 L 268.92 0.00 C 288.28 3.83 303.53 17.35 313.53 33.50 C 321.50 29.91 327.94 34.61 323.43 43.36 C 327.03 45.02 336.21 37.74 340.64 43.29 C 343.08 47.85 343.02 55.91 350.21 54.91 C 358.07 52.14 356.96 61.93 351.96 63.81 C 357.59 66.33 360.49 56.11 365.64 60.37 C 364.61 71.82 350.57 77.09 340.51 75.49 C 324.49 75.56 309.90 63.63 304.00 50.30 C 301.83 64.66 286.90 81.62 271.37 77.02 C 273.12 69.18 288.79 67.69 288.06 56.97 C 286.00 59.82 280.11 65.07 279.55 58.48 C 280.32 44.38 255.76 45.16 257.17 59.17 C 256.16 65.10 250.93 59.27 248.92 56.97 C 248.17 68.02 264.71 69.65 265.61 77.82 C 248.67 80.16 235.69 65.35 233.14 49.83 C 226.23 65.83 209.27 77.36 191.50 75.55 C 182.96 75.46 171.91 69.99 171.36 60.37 C 176.40 56.02 179.68 66.50 184.95 63.75 C 180.74 62.24 178.64 54.14 184.82 54.89 C 193.73 57.16 193.79 47.96 196.77 42.65 C 202.05 39.23 208.21 43.41 213.72 44.17 C 213.22 40.35 210.71 35.91 213.66 32.48 C 218.06 31.35 223.91 36.42 226.60 30.52 C 234.23 13.96 250.93 4.30 268.01 0.00 M 266.43 5.58 C 236.27 9.62 225.07 56.27 253.16 70.86 C 246.15 63.20 239.53 51.56 245.54 41.62 C 252.93 39.38 246.67 53.92 253.43 53.78 C 252.29 41.85 272.09 45.48 268.89 31.66 C 264.85 46.42 285.17 41.65 283.57 53.78 C 290.31 54.00 284.04 37.98 292.14 42.01 C 296.96 52.25 290.82 63.18 283.84 70.86 C 313.62 55.81 298.91 4.67 266.43 5.58 M 240.46 18.54 C 233.02 22.21 230.41 30.26 226.59 36.95 C 217.51 33.13 216.85 37.71 220.92 44.03 C 218.59 51.50 210.82 47.72 206.49 44.35 C 195.08 42.11 199.44 64.50 186.43 58.62 C 184.29 62.34 194.01 63.16 194.61 67.32 C 191.28 72.99 177.95 60.66 178.06 66.58 C 198.98 80.96 229.06 62.64 231.64 38.69 C 231.80 31.59 241.96 24.00 240.46 18.54 M 295.81 18.40 C 303.62 31.33 306.28 47.24 315.26 59.73 C 326.01 70.74 347.69 77.39 359.23 65.07 C 355.39 64.75 348.04 70.59 342.20 68.04 C 342.58 62.67 350.91 63.93 351.27 58.44 C 343.24 62.47 338.95 53.88 337.73 47.36 C 332.04 37.47 322.80 54.45 317.08 45.97 C 313.83 42.84 321.80 37.67 318.54 35.59 C 305.37 41.98 306.97 20.96 295.81 18.40 Z" />
<path fill="#000000" opacity="1.00" d=" M 190.45 83.55 C 216.68 80.97 241.82 87.07 265.74 97.21 C 287.77 94.70 308.04 79.33 331.46 84.35 C 379.32 77.89 427.93 114.21 436.70 161.22 C 445.08 178.45 444.50 198.37 442.51 216.90 C 441.44 226.11 448.41 232.82 454.27 238.76 C 471.29 260.73 481.50 287.41 483.58 314.73 C 487.68 366.43 444.98 410.36 397.88 423.31 C 388.67 427.22 375.95 426.29 370.83 436.92 C 353.13 469.17 321.54 493.80 285.44 501.51 C 243.46 509.42 201.57 485.60 176.94 453.09 C 168.53 444.15 165.31 428.50 151.23 426.73 C 115.74 419.45 83.25 397.61 64.74 366.25 C 51.05 340.06 48.66 306.25 61.64 279.75 C 64.89 257.93 81.97 242.47 93.26 225.04 C 95.54 204.13 89.30 181.57 99.98 161.95 C 107.99 119.46 147.19 86.11 190.45 83.55 M 186.66 87.42 C 169.41 87.92 153.48 104.04 156.52 121.67 C 167.37 117.60 176.90 109.68 181.96 98.96 C 184.71 93.15 201.82 84.57 186.66 87.42 M 211.06 87.72 C 195.82 87.63 184.76 100.32 179.12 113.00 C 200.21 114.65 215.43 99.13 230.98 89.37 C 226.00 86.60 217.42 87.57 211.06 87.72 M 316.49 87.71 C 313.26 88.74 306.92 86.47 305.95 90.11 C 323.07 98.79 336.28 115.10 357.88 113.00 C 351.60 96.49 334.77 84.41 316.49 87.71 M 343.78 87.21 C 355.81 95.77 362.42 117.54 380.49 121.66 C 383.99 101.26 363.11 84.79 343.78 87.21 M 234.76 93.35 C 226.18 97.09 217.57 101.16 212.81 109.69 C 225.10 109.49 236.77 119.47 248.95 112.99 C 261.65 105.88 276.83 107.01 289.46 113.60 C 301.02 118.78 312.48 109.35 324.18 109.69 C 312.76 89.66 286.23 90.72 268.94 102.45 C 258.49 97.05 246.69 92.78 234.76 93.35 M 158.31 95.39 C 146.38 102.51 132.56 109.02 125.29 121.22 C 134.43 118.00 144.38 117.39 153.06 122.56 C 148.59 112.77 159.73 101.04 158.31 95.39 M 377.98 95.37 C 379.06 102.33 387.68 112.65 383.94 122.56 C 392.62 117.39 402.57 118.00 411.71 121.22 C 404.23 109.05 390.32 101.84 377.98 95.37 M 267.44 112.56 C 261.44 113.46 254.45 115.10 250.16 119.09 C 260.23 130.21 276.77 130.21 286.84 119.09 C 281.96 114.83 274.19 112.77 267.44 112.56 M 203.40 114.52 C 190.42 119.30 174.23 115.29 164.09 125.19 C 151.80 130.59 141.90 140.81 137.88 153.88 C 120.79 178.03 126.70 209.74 129.32 237.08 C 112.03 251.95 99.27 271.33 89.62 291.66 C 89.51 302.58 86.08 313.07 84.43 323.70 C 90.17 338.14 90.22 356.80 105.62 365.38 C 121.01 385.06 146.50 393.45 170.13 397.69 C 174.91 399.29 183.51 396.25 184.90 403.13 C 192.12 423.51 207.62 438.64 221.93 454.12 C 231.76 458.79 241.86 463.06 250.86 469.26 C 262.51 470.55 274.48 470.55 286.14 469.26 C 294.84 463.52 304.22 458.90 313.87 454.93 C 330.80 439.00 345.33 420.91 354.28 399.31 C 382.29 396.01 412.96 388.48 431.38 365.38 C 443.36 358.42 447.32 344.36 449.60 331.82 C 456.69 318.95 445.81 304.87 447.29 291.03 C 438.99 277.00 432.33 261.21 420.29 249.70 C 416.42 242.86 404.49 240.01 407.99 230.47 C 415.93 194.45 408.93 151.33 379.13 127.78 C 370.36 125.26 364.94 115.91 354.69 118.43 C 324.98 109.64 294.01 121.68 268.13 135.88 C 248.79 122.44 226.24 117.82 203.40 114.52 M 131.31 123.65 C 118.76 126.66 110.32 137.95 106.96 149.86 C 121.23 140.34 140.50 141.28 151.03 126.00 C 145.83 121.64 137.69 122.90 131.31 123.65 M 391.85 123.54 C 387.66 123.45 383.76 126.56 389.01 129.04 C 399.38 142.03 417.18 140.65 429.99 149.96 C 426.20 133.24 409.73 118.93 391.85 123.54 M 131.83 144.61 C 111.06 147.15 97.19 166.13 97.07 186.56 C 108.07 176.53 125.60 170.08 130.85 153.90 C 131.27 151.02 140.08 140.99 131.83 144.61 M 401.21 143.74 C 406.82 155.74 412.38 170.07 425.75 175.23 C 431.54 177.58 434.63 184.32 439.89 186.67 C 439.85 164.53 423.58 145.30 401.21 143.74 M 121.38 175.48 C 111.30 178.02 103.72 186.00 98.26 194.41 C 96.38 204.95 96.96 216.20 98.57 226.71 C 89.67 232.29 86.10 242.55 79.68 250.38 C 79.28 260.53 79.64 274.10 87.90 280.66 C 93.95 268.79 106.59 256.95 101.56 242.08 C 97.45 221.10 123.46 210.68 120.41 190.36 C 120.08 185.64 122.67 178.43 121.38 175.48 M 414.94 175.25 C 417.84 188.10 413.80 203.35 424.62 213.37 C 435.56 223.47 436.75 239.16 434.34 252.98 C 437.25 263.03 444.21 272.79 449.79 280.86 C 464.86 263.44 455.76 238.59 438.26 226.78 C 445.65 206.15 437.78 180.55 414.94 175.25 M 118.49 214.35 C 108.05 222.23 103.80 236.50 108.19 248.83 C 113.74 245.37 117.99 239.00 123.57 234.94 C 122.47 228.34 122.50 217.95 118.49 214.35 M 417.19 214.27 C 415.42 220.51 413.99 228.05 413.43 234.95 C 418.68 239.15 423.24 244.44 428.12 248.77 C 434.23 238.13 428.33 219.64 417.19 214.27 M 73.38 258.31 C 61.10 275.95 63.21 302.14 81.07 314.70 C 85.52 295.54 82.00 273.92 73.38 258.31 M 462.07 258.40 C 455.68 276.78 450.89 295.60 456.58 315.01 C 473.85 301.54 476.61 273.32 462.07 258.40 M 60.36 293.45 C 52.40 311.02 61.50 335.42 81.85 338.68 C 82.85 321.31 66.15 306.70 60.36 293.45 M 476.13 293.60 C 470.13 309.11 453.47 320.68 455.11 338.70 C 475.77 336.28 484.92 308.44 476.13 293.60 M 57.84 327.15 C 59.11 341.67 63.47 355.95 71.39 368.21 C 70.87 358.26 75.19 348.29 81.61 342.05 C 71.13 341.89 64.44 333.80 57.84 327.15 M 478.38 327.20 C 472.72 334.88 465.28 341.83 455.14 341.89 C 462.05 349.12 466.07 357.88 465.61 368.21 C 473.08 356.01 479.27 340.89 478.38 327.20 M 83.41 345.37 C 69.44 359.95 76.55 386.15 93.92 393.90 C 88.45 378.40 95.27 357.04 83.41 345.37 M 452.18 345.26 C 442.81 360.31 448.02 377.82 443.08 393.91 C 460.93 386.49 467.97 357.45 452.18 345.26 M 96.79 364.91 C 90.27 386.75 104.80 408.84 125.81 415.12 C 123.43 409.09 119.09 403.70 118.74 396.98 C 117.92 383.06 104.89 374.69 96.79 364.91 M 439.67 365.46 C 431.71 375.06 419.01 383.32 418.26 396.98 C 417.91 403.72 413.56 409.10 411.18 415.14 C 432.40 409.28 447.32 384.87 439.67 365.46 M 122.20 388.18 C 120.25 411.56 142.36 424.67 163.17 426.65 C 171.49 445.52 189.89 462.44 211.69 453.90 C 203.69 442.58 194.12 428.79 178.63 427.40 C 167.38 425.37 159.21 416.64 154.13 406.87 C 147.84 395.06 132.83 394.13 122.20 388.18 M 413.50 388.69 C 403.73 393.92 391.16 394.63 384.38 404.40 C 379.03 413.99 372.20 424.25 360.70 426.71 C 344.14 427.79 333.55 441.56 325.37 453.86 C 346.80 462.40 366.67 446.19 373.58 426.41 C 391.80 424.56 411.93 415.75 414.39 395.68 C 413.62 393.64 416.24 387.67 413.50 388.69 M 159.89 401.51 C 156.94 412.11 177.28 426.78 187.78 423.08 C 186.01 417.27 182.47 411.75 179.79 406.21 C 174.19 402.01 166.04 404.28 159.89 401.51 M 376.46 401.48 C 370.61 404.58 362.68 402.11 357.22 406.19 C 354.70 412.05 350.15 417.61 349.26 423.88 C 362.64 424.21 375.07 415.05 378.86 402.32 C 378.17 401.71 377.37 401.43 376.46 401.48 M 185.83 458.11 C 197.05 476.89 223.32 483.02 242.03 471.03 C 225.93 457.80 205.18 459.92 185.83 458.11 M 349.48 458.44 C 330.70 459.68 310.67 458.54 294.97 471.02 C 310.81 480.12 330.86 479.66 344.26 466.31 C 346.09 464.76 353.98 458.71 349.48 458.44 M 243.83 475.46 C 234.54 479.14 225.09 482.54 214.88 482.51 C 228.83 495.81 255.22 495.35 265.01 477.04 C 259.96 473.66 250.17 476.07 243.83 475.46 M 274.04 475.64 C 269.72 475.59 274.09 480.33 275.28 481.68 C 286.95 495.84 309.48 494.23 322.12 482.51 C 305.36 482.58 291.14 471.33 274.04 475.64 M 268.37 478.42 C 263.99 487.26 256.26 492.50 246.88 495.07 C 258.73 500.63 277.97 499.66 290.20 495.06 C 280.78 492.87 271.97 485.80 268.37 478.42 Z" />
<path fill="#000000" opacity="1.00" d=" M 87.98 131.76 C 85.57 128.10 85.83 116.96 92.15 122.80 C 108.13 145.18 83.12 175.33 59.36 176.39 C 71.72 183.41 84.01 200.27 75.80 216.00 C 69.04 212.05 71.10 196.93 61.02 192.92 C 62.76 195.97 66.55 203.15 59.95 202.46 C 46.86 197.17 40.36 219.28 52.68 223.26 C 59.66 226.12 52.26 229.31 49.07 231.28 C 58.74 231.73 65.50 224.34 72.95 220.08 C 73.44 236.62 52.99 246.63 37.79 243.33 C 42.66 250.15 49.10 256.25 50.41 265.01 C 54.92 280.45 49.08 306.07 29.44 305.52 C 22.81 301.68 43.39 292.69 32.51 295.25 C 21.95 298.47 33.25 283.81 25.03 280.91 C 13.39 276.31 22.25 266.83 25.70 260.00 C 22.23 259.43 18.01 260.19 15.31 257.45 C 13.74 252.52 22.23 248.76 16.96 244.11 C 6.60 235.05 2.99 221.43 0.00 208.54 L 0.00 202.24 C 3.68 179.30 27.16 166.93 47.26 161.73 C 45.71 153.13 51.89 149.04 59.45 155.32 C 61.51 151.59 57.06 141.65 64.53 139.06 C 71.38 139.74 80.34 138.74 79.80 129.69 C 81.80 122.68 88.29 138.28 87.98 131.76 M 90.08 128.41 C 88.64 133.59 93.17 141.18 87.99 145.00 C 83.37 143.42 87.09 134.67 81.19 134.15 C 85.04 147.66 65.62 139.04 61.99 147.50 C 60.82 152.04 67.12 160.09 60.27 162.26 C 55.76 164.77 54.65 156.20 50.26 158.30 C 52.40 172.85 32.55 163.86 26.89 173.92 C 35.11 175.05 43.53 169.88 52.09 171.58 C 73.41 173.84 94.31 156.43 93.53 134.42 C 93.96 133.38 92.22 127.16 90.08 128.41 M 34.04 175.72 C 19.33 178.58 -0.14 190.31 5.77 208.03 C 8.24 233.65 43.84 251.32 63.04 230.91 C 53.33 236.26 41.82 236.87 32.88 229.70 C 33.37 221.69 44.44 230.88 46.85 226.27 C 37.74 221.70 43.30 206.88 31.06 203.99 C 43.04 210.32 46.54 193.87 56.52 196.61 C 57.54 190.41 45.71 192.35 46.18 186.11 C 57.97 181.30 67.10 193.18 72.95 200.77 C 68.76 184.60 50.82 171.99 34.04 175.72 M 9.96 227.15 C 9.40 238.38 30.00 243.23 19.04 253.02 C 22.29 257.05 28.29 250.11 29.93 256.16 C 35.22 264.48 18.08 264.90 23.86 273.89 C 28.10 278.55 38.20 283.76 30.74 290.69 C 33.50 292.62 38.40 286.05 42.26 285.33 C 45.42 292.28 30.79 297.52 36.00 301.80 C 51.53 289.44 51.28 263.09 36.96 250.02 C 27.46 243.05 18.98 234.07 9.96 227.15 Z" />
<path fill="#000000" opacity="1.00" d=" M 445.39 122.27 C 453.41 117.68 448.91 130.26 449.10 133.81 C 450.88 131.55 456.17 124.37 457.44 130.44 C 457.02 139.19 466.41 139.87 472.79 139.33 C 482.26 142.90 470.91 160.74 483.88 152.73 C 492.96 149.21 485.95 163.46 493.38 163.72 C 513.01 166.58 533.58 181.85 537.00 202.11 L 537.00 208.41 C 534.90 223.63 527.30 236.48 518.16 247.96 C 524.88 254.80 520.30 261.60 511.28 260.05 C 515.09 266.96 522.54 275.73 512.20 281.09 C 502.87 283.54 516.27 300.19 503.77 294.92 C 494.42 293.54 514.27 301.78 507.56 305.52 C 499.87 307.01 493.44 301.15 489.87 294.99 C 480.32 277.98 486.01 256.53 499.21 243.33 C 486.54 245.36 472.10 240.96 466.03 228.84 C 464.49 227.19 460.81 219.80 465.49 220.38 C 471.76 225.59 478.99 231.78 487.70 230.73 C 484.08 229.45 477.55 225.79 484.34 223.27 C 496.63 219.25 490.14 197.18 477.05 202.46 C 470.47 203.16 474.21 195.94 475.99 192.91 C 468.76 198.28 464.93 206.99 463.72 215.69 C 460.54 217.34 460.09 213.39 459.54 211.17 C 454.93 196.32 467.03 182.92 477.64 176.39 C 453.68 175.38 428.24 144.42 445.39 122.27 M 446.47 127.99 C 439.30 138.32 446.93 153.78 455.43 161.65 C 468.94 176.60 490.97 168.36 507.93 174.66 C 513.12 173.21 505.96 171.07 504.05 169.94 C 498.29 164.44 483.52 170.97 486.72 158.55 C 482.41 155.72 481.27 164.97 476.72 162.25 C 468.25 159.12 480.53 147.78 471.75 144.09 C 465.85 142.04 452.24 144.70 455.82 134.12 C 449.90 134.70 453.64 143.42 449.00 144.99 C 443.71 141.02 448.76 133.29 446.47 127.99 M 492.36 175.43 C 479.45 177.46 467.15 188.04 463.93 200.89 C 470.72 192.90 478.49 182.12 490.89 186.06 C 491.15 192.37 479.80 190.33 480.36 196.58 C 490.12 194.44 494.11 210.08 505.85 203.95 C 493.89 206.91 499.17 221.65 490.15 226.27 C 492.39 230.87 504.04 221.72 503.85 229.64 C 495.39 237.28 483.45 235.96 473.95 230.92 C 497.85 255.63 540.00 224.63 530.98 194.33 C 523.39 181.10 507.28 174.09 492.36 175.43 M 525.57 227.43 C 517.37 237.04 506.41 243.63 497.56 252.55 C 485.73 266.27 486.57 289.31 500.33 301.54 C 507.28 300.14 493.96 292.98 495.11 289.24 C 493.27 279.37 503.72 294.15 506.27 290.69 C 498.80 283.76 508.89 278.55 513.14 273.89 C 518.92 264.90 501.77 264.48 507.07 256.16 C 508.22 249.91 516.55 257.60 517.59 252.41 C 506.24 243.74 531.28 235.17 525.57 227.43 Z" />
<path fill="#000000" opacity="1.00" d=" M 201.09 132.64 C 221.40 127.75 236.66 143.43 254.30 149.63 C 258.07 152.80 265.31 165.53 265.66 152.90 C 268.55 143.56 272.80 155.59 272.93 158.75 C 293.14 141.68 324.25 123.06 351.53 137.38 C 357.83 139.09 360.33 153.79 367.12 146.02 C 365.70 148.28 363.75 151.83 367.87 152.20 C 384.71 155.55 392.37 173.88 394.72 189.02 C 392.48 205.32 392.48 222.58 384.19 237.31 C 383.25 242.62 394.47 236.27 394.71 241.67 C 391.91 243.94 388.69 245.63 385.95 247.95 C 395.21 252.27 403.05 258.56 409.44 266.56 C 429.49 280.10 440.59 311.14 423.07 331.10 C 430.74 333.19 420.53 331.11 422.52 336.21 C 422.92 360.66 396.15 377.40 373.75 376.55 C 365.30 377.82 356.54 381.69 348.17 377.65 C 340.51 376.80 348.20 385.02 346.68 389.09 C 342.04 388.44 335.59 378.69 335.52 387.60 C 329.74 416.14 306.45 455.93 271.62 444.43 C 266.54 442.09 269.68 455.26 267.83 444.12 C 246.27 453.12 222.56 438.06 213.46 418.42 C 210.43 407.16 200.63 398.42 201.33 386.09 C 200.35 378.51 192.90 391.28 190.26 388.40 C 189.29 384.53 196.24 376.70 188.83 377.65 C 180.46 381.69 171.70 377.82 163.25 376.55 C 139.61 377.68 112.18 358.91 114.46 333.13 C 104.81 332.22 115.50 332.67 113.19 329.72 C 97.53 311.59 106.85 283.53 123.51 269.50 C 132.39 263.78 137.24 253.05 147.89 249.89 C 156.58 246.86 139.68 244.01 142.90 240.03 C 146.97 238.24 156.47 241.88 151.60 234.56 C 142.17 210.36 135.81 176.84 158.06 157.04 C 161.85 152.58 176.01 154.00 169.88 146.02 C 174.97 152.78 178.39 143.36 181.93 139.94 C 187.20 135.47 194.30 133.47 201.09 132.64 M 203.20 135.44 C 193.44 137.43 181.78 141.43 178.30 151.78 C 180.66 155.75 185.32 159.07 184.08 164.36 C 175.31 167.54 175.99 151.35 167.00 156.81 C 150.63 163.53 145.28 183.56 147.24 199.80 C 154.93 215.88 160.24 235.73 176.50 246.52 C 180.44 252.49 185.03 245.82 184.98 241.16 C 179.69 237.03 172.08 235.42 168.97 228.90 C 171.84 225.62 186.02 227.70 177.86 222.12 C 154.47 214.53 142.54 181.51 162.44 164.41 C 163.69 169.87 156.69 176.98 156.89 184.08 C 154.66 201.96 171.56 212.88 183.92 222.16 C 186.41 226.09 199.43 222.77 192.09 218.90 C 176.06 210.24 152.16 194.58 163.17 173.63 C 160.69 198.58 187.41 216.55 209.69 222.27 C 219.47 224.50 222.05 234.05 226.36 241.60 C 233.90 247.03 240.93 253.84 244.14 262.77 C 250.76 266.92 238.55 249.14 245.46 252.31 C 252.37 257.96 246.48 272.23 258.92 268.68 C 268.47 256.85 248.48 259.96 248.05 249.07 C 252.41 249.60 255.03 253.73 259.17 254.87 C 254.23 248.07 247.72 242.09 245.34 233.67 C 243.20 224.14 230.67 221.82 230.79 210.99 C 230.63 190.01 227.45 164.09 208.19 151.53 C 204.06 151.43 194.29 149.57 202.37 147.29 C 225.82 148.17 228.32 175.75 234.08 192.72 C 242.77 188.42 235.69 176.89 233.43 169.85 C 230.13 152.56 211.58 140.13 194.33 145.41 C 188.28 149.85 189.61 141.50 193.35 142.28 C 207.83 137.64 227.62 142.14 233.52 157.42 C 239.02 164.12 237.93 173.26 241.17 180.89 C 245.74 180.14 244.73 171.60 250.22 170.81 C 255.51 178.83 252.24 194.23 265.41 189.33 C 261.73 171.11 247.98 157.21 233.62 146.41 C 226.76 137.25 213.70 136.47 203.20 135.44 M 333.14 135.56 C 323.13 136.76 310.37 136.88 303.92 145.93 C 289.30 156.81 275.39 170.89 271.59 189.33 C 284.76 194.23 281.49 178.83 286.78 170.81 C 292.26 171.59 291.26 180.14 295.82 180.88 C 299.21 173.30 298.09 164.14 303.48 157.41 C 309.42 142.16 329.20 137.39 343.67 142.23 C 348.26 142.21 347.68 149.61 341.86 145.27 C 315.56 138.00 300.50 166.54 298.72 188.13 C 300.24 193.30 305.66 194.42 305.24 186.97 C 307.92 170.66 314.35 148.76 333.80 147.18 C 342.54 147.90 334.25 153.91 329.01 151.59 C 305.40 165.23 308.79 196.84 303.28 219.18 C 290.96 228.00 289.53 244.38 278.17 254.22 C 280.25 255.28 285.05 249.13 288.95 249.05 C 287.82 254.95 281.98 259.80 275.93 259.51 C 275.26 266.63 279.07 270.91 286.19 268.13 C 288.14 262.99 286.62 253.27 293.83 251.78 C 293.13 253.94 288.72 268.87 293.49 261.38 C 296.40 249.15 310.74 245.78 314.33 234.38 C 318.92 220.13 336.34 222.44 346.36 214.35 C 362.11 206.89 375.71 190.89 373.80 173.60 C 384.18 192.72 363.73 209.44 347.76 216.79 C 333.95 221.36 351.18 227.77 354.67 220.70 C 368.88 211.55 386.29 196.69 378.68 177.52 C 377.18 174.70 370.46 159.63 377.39 166.65 C 393.82 186.29 380.64 214.66 358.54 222.54 C 351.06 228.37 367.50 225.00 367.67 229.55 C 364.39 235.62 357.11 237.13 352.02 241.16 C 351.97 245.82 356.56 252.48 360.50 246.53 C 376.52 235.59 382.18 215.92 389.76 199.79 C 392.13 182.61 384.36 156.44 363.95 156.42 C 363.56 161.97 348.91 170.13 353.64 159.04 C 366.58 146.71 343.84 136.01 333.14 135.56 M 241.92 148.05 C 253.15 158.27 263.74 170.61 268.87 184.61 C 272.77 169.23 284.61 158.66 294.94 148.02 C 282.06 151.75 273.82 163.04 268.87 174.85 C 262.74 164.48 255.59 150.98 241.92 148.05 M 174.82 153.01 C 178.38 162.11 182.74 158.20 174.82 153.01 M 361.54 153.40 C 358.89 154.63 357.61 157.32 356.84 159.98 C 359.02 158.91 362.43 153.87 361.54 153.40 M 247.29 181.27 C 244.54 186.74 241.69 192.16 237.82 196.94 C 233.18 205.60 233.76 221.91 246.91 222.01 C 250.38 234.57 258.20 245.57 268.15 253.82 C 278.75 246.61 286.41 234.50 290.11 222.05 C 312.18 218.43 297.34 189.53 288.34 181.68 C 286.04 187.52 294.03 189.63 293.59 194.75 C 290.78 195.03 288.55 192.86 286.01 192.03 C 286.30 197.19 294.01 198.78 291.67 204.77 C 287.68 206.18 286.11 201.57 283.88 199.28 C 278.47 203.92 276.30 194.07 271.92 193.25 C 272.75 201.93 284.03 204.56 284.85 213.27 C 288.83 226.33 278.38 237.42 268.85 244.73 C 258.46 238.43 247.82 225.84 252.48 212.62 C 252.85 204.61 266.14 200.37 264.34 193.35 C 259.56 201.22 252.63 198.41 247.71 204.93 C 240.07 202.62 250.71 196.52 250.99 192.03 C 248.45 192.86 246.21 195.02 243.41 194.75 C 242.75 190.03 253.03 185.18 247.29 181.27 M 268.16 198.25 C 263.11 201.88 261.08 210.75 267.57 213.71 C 276.02 213.74 274.63 200.59 268.16 198.25 M 260.20 210.32 C 255.25 213.05 267.39 225.15 267.73 218.43 C 264.11 216.75 263.74 210.58 260.20 210.32 M 275.29 210.13 C 274.32 214.07 270.04 216.31 269.22 219.86 C 272.46 222.97 282.19 211.06 275.29 210.13 M 149.95 214.88 C 148.03 228.45 158.57 239.76 166.98 248.77 C 154.22 250.24 139.61 253.76 133.01 266.03 C 145.85 258.00 160.95 252.59 174.91 250.40 C 162.62 241.52 155.92 228.19 149.95 214.88 M 386.44 215.38 C 381.61 229.23 372.39 241.44 362.27 251.16 C 376.58 251.92 391.14 258.45 403.97 266.04 C 397.46 253.86 382.72 250.21 370.02 248.77 C 378.09 240.56 390.19 226.34 386.44 215.38 M 256.98 217.20 C 255.17 222.53 258.94 232.48 264.73 233.83 C 268.42 227.19 262.49 220.22 256.98 217.20 M 279.28 217.30 C 274.29 221.10 268.62 227.26 272.27 233.83 C 277.72 232.99 282.93 220.89 279.28 217.30 M 197.54 226.68 C 191.78 227.48 186.27 229.52 180.55 230.55 C 179.31 236.91 190.45 228.92 193.22 230.81 C 195.41 234.36 188.76 234.28 188.82 237.86 C 193.13 236.94 200.35 231.38 202.76 236.74 C 196.61 241.76 193.11 246.67 186.12 251.57 C 194.73 251.94 201.13 242.04 210.34 245.36 C 223.18 246.00 230.35 258.66 232.96 269.77 C 223.50 279.94 205.13 283.70 194.23 272.72 C 190.38 267.96 189.91 259.52 183.33 257.69 C 189.47 263.99 184.60 271.13 189.58 277.00 C 186.31 288.23 176.31 261.53 178.15 273.95 C 179.73 285.36 171.17 266.34 167.40 269.89 C 173.77 280.38 184.24 294.19 198.26 291.05 C 203.27 290.49 202.42 282.51 207.79 283.51 C 219.90 284.03 232.47 279.89 241.95 272.84 C 238.06 260.31 229.28 249.65 218.54 242.35 C 221.76 230.13 207.70 223.92 197.54 226.68 M 330.26 226.48 C 322.05 227.48 316.65 234.28 318.46 242.35 C 307.72 249.65 298.93 260.31 295.05 272.84 C 306.76 285.67 328.60 277.93 338.10 290.80 C 352.23 294.81 363.22 280.47 369.60 269.89 C 365.82 266.34 357.26 285.36 358.85 273.95 C 360.69 261.53 350.68 288.23 347.42 276.99 C 351.77 271.02 348.51 264.19 353.78 257.80 C 345.15 260.02 346.74 273.36 338.01 276.17 C 326.75 283.59 313.53 277.79 304.16 270.53 C 305.30 253.23 325.31 237.48 341.57 248.60 C 343.55 250.85 354.32 253.62 348.78 249.15 C 340.85 247.62 342.71 239.94 335.29 238.77 C 332.20 230.92 344.42 236.21 348.18 237.86 C 348.24 234.28 341.59 234.36 343.78 230.81 C 346.54 228.93 357.70 236.91 356.45 230.55 C 347.77 228.99 339.26 225.05 330.26 226.48 M 212.03 250.41 C 210.71 254.57 218.59 268.01 225.14 262.13 C 222.45 257.04 218.19 251.20 212.03 250.41 M 324.23 250.41 C 318.53 252.06 313.78 257.31 312.17 262.86 C 319.00 267.23 327.45 253.29 324.23 250.41 M 203.43 251.18 C 204.31 254.48 207.28 262.65 211.70 261.23 C 212.03 256.74 208.42 250.35 203.43 251.18 M 330.62 251.29 C 328.24 252.86 321.56 261.47 327.92 261.80 C 328.93 258.50 337.93 250.70 330.62 251.29 M 196.45 253.65 C 184.41 251.91 191.76 267.12 200.10 263.28 C 207.60 263.33 202.25 250.24 196.45 253.65 M 336.59 253.37 C 326.50 260.37 341.60 269.26 345.72 259.69 C 351.95 253.80 340.34 253.59 336.59 253.37 M 171.99 255.65 C 154.61 255.91 140.10 265.70 126.15 274.41 C 110.52 284.57 102.72 310.11 115.21 325.89 C 119.99 329.07 126.26 320.74 131.02 326.05 C 129.56 331.77 122.47 331.87 118.31 334.79 C 117.24 356.04 140.70 374.79 161.03 370.25 C 178.52 370.32 197.92 366.79 210.93 354.84 C 204.23 338.50 197.34 360.89 186.95 359.73 C 186.94 355.43 187.91 351.23 188.71 347.05 C 180.42 349.83 175.77 358.75 167.20 361.22 C 152.50 370.36 132.66 361.53 124.29 347.66 C 123.98 342.24 129.35 348.35 130.93 350.08 C 141.08 361.90 159.22 362.35 171.49 353.44 C 178.15 347.21 191.54 345.05 189.74 333.35 C 177.60 337.52 170.44 351.53 157.16 354.14 C 149.56 356.81 138.84 356.16 134.28 348.68 C 134.97 344.70 139.81 349.67 141.93 350.54 C 157.70 355.06 170.52 342.71 181.84 333.87 C 191.46 327.50 193.51 312.91 206.39 310.73 C 220.60 311.01 230.37 297.80 244.88 298.04 C 242.10 295.11 236.48 297.12 232.54 296.69 C 237.82 287.61 253.31 300.96 253.64 286.21 C 244.60 275.25 241.20 293.95 230.89 290.47 C 233.86 287.61 238.30 285.90 239.90 281.83 C 230.14 287.23 219.27 288.83 208.41 290.16 C 199.01 298.22 185.76 296.48 175.59 290.89 C 159.18 289.52 138.11 285.78 125.72 299.80 C 125.07 303.29 119.94 310.91 120.54 303.31 C 127.54 280.26 155.64 287.76 173.80 286.81 C 168.30 273.06 149.33 280.91 138.15 282.27 C 122.13 284.28 117.93 301.59 114.62 314.00 C 108.93 299.57 122.11 277.76 139.24 276.29 C 147.69 273.52 156.58 278.19 164.94 275.85 C 163.70 271.68 156.84 269.95 157.49 265.18 C 163.86 264.43 170.64 263.35 176.87 265.51 C 180.86 259.94 180.48 252.51 171.99 255.65 M 359.36 255.44 C 354.76 256.04 359.26 262.69 360.12 265.51 C 366.55 263.50 373.72 264.02 380.16 265.63 C 378.65 269.69 373.42 271.96 372.22 275.81 C 380.17 278.16 388.80 273.43 396.88 276.23 C 414.42 277.48 428.02 298.52 422.43 314.10 C 419.04 301.65 414.93 284.29 398.83 282.26 C 387.72 280.98 368.54 272.92 363.28 286.82 C 379.07 288.52 398.32 280.80 411.04 294.01 C 414.23 296.66 419.36 304.62 415.01 306.73 C 406.17 284.86 374.04 287.24 355.29 293.45 C 341.28 301.52 329.62 286.63 315.61 288.38 C 308.86 288.45 303.46 283.52 297.09 281.89 C 298.37 286.37 304.81 286.77 305.39 291.39 C 298.66 291.74 295.05 285.91 290.89 282.06 C 287.63 283.64 280.91 285.67 284.83 290.28 C 286.76 299.94 300.80 287.14 304.48 296.70 C 300.43 297.10 295.15 295.16 292.00 297.99 C 302.75 299.39 312.30 304.28 321.44 309.67 C 333.89 308.66 343.91 317.37 348.94 328.03 C 362.62 340.94 382.44 359.27 401.89 347.19 C 403.88 353.29 390.17 356.72 385.28 355.46 C 369.21 354.63 360.80 338.83 347.29 333.24 C 347.26 338.32 348.51 343.53 353.80 345.27 C 366.81 355.53 385.85 366.70 401.29 354.24 C 405.34 352.47 409.00 344.14 412.77 346.22 C 406.25 361.64 383.95 370.63 369.10 360.90 C 360.66 358.66 356.48 349.46 348.27 347.08 C 349.08 351.18 350.61 355.18 350.08 359.46 C 339.69 361.34 332.77 338.23 326.07 354.84 C 340.35 368.42 362.10 369.66 380.87 371.31 C 399.46 370.58 420.13 355.15 418.74 334.78 C 414.52 331.93 407.45 331.77 405.98 326.06 C 410.74 320.73 417.01 329.08 421.79 325.89 C 433.49 311.14 427.11 289.67 415.10 277.03 C 398.45 266.83 380.55 253.79 359.36 255.44 M 206.65 263.54 C 204.01 265.31 200.90 265.53 197.93 266.29 C 199.02 274.10 218.05 262.26 206.65 263.54 M 266.84 263.29 C 264.95 266.67 264.20 270.55 264.02 274.40 C 259.89 275.19 250.40 270.98 250.97 277.71 C 253.72 281.78 263.24 282.88 258.16 289.14 C 253.28 293.79 259.63 300.93 263.84 294.02 C 269.33 283.15 275.02 302.63 280.89 294.85 C 280.33 291.10 277.71 288.01 277.16 284.27 C 279.89 281.23 287.04 280.42 285.86 275.27 C 282.69 271.92 277.11 275.41 273.07 274.56 C 271.73 271.22 273.04 261.57 266.84 263.29 M 327.45 263.17 C 322.95 266.91 340.56 272.03 338.38 266.04 C 334.39 266.26 331.24 262.94 327.45 263.17 M 214.11 267.74 C 211.11 270.09 203.79 269.17 204.28 273.77 C 209.97 276.02 216.35 274.36 221.60 271.73 C 222.58 267.64 216.88 267.20 214.11 267.74 M 320.02 267.62 C 306.66 270.96 330.26 279.48 332.96 272.19 C 328.83 270.45 324.79 266.75 320.02 267.62 M 268.28 297.30 C 255.96 302.20 270.16 310.40 266.64 319.18 C 262.23 321.13 264.63 309.59 259.88 308.91 C 262.91 324.79 256.72 340.38 259.31 356.11 C 247.93 376.33 228.41 402.33 244.01 424.94 C 254.28 431.60 238.79 430.35 238.13 423.86 C 226.89 407.56 240.34 389.53 244.02 373.26 C 230.52 373.48 233.04 391.47 229.10 400.33 C 222.98 419.06 240.12 429.75 251.82 438.19 C 236.97 438.84 220.06 420.34 223.75 403.83 C 222.90 394.42 230.24 387.25 231.02 378.34 C 226.46 378.46 223.26 383.57 218.37 382.74 C 217.43 373.25 231.45 361.88 217.05 357.94 C 209.39 372.90 211.66 391.30 216.12 407.02 C 217.24 429.21 242.08 448.69 263.82 440.73 C 266.88 436.69 263.15 429.40 268.04 425.78 C 275.71 428.06 268.00 440.16 275.54 441.68 C 293.48 446.48 309.79 434.25 318.30 419.40 C 322.93 400.41 328.48 379.95 321.56 360.50 C 319.88 355.25 314.20 361.67 312.07 363.93 C 315.84 369.45 317.68 376.22 318.63 382.74 C 313.73 383.57 310.54 378.46 305.97 378.33 C 306.49 386.39 312.99 392.79 313.15 401.06 C 317.69 418.87 302.55 436.63 285.29 438.98 C 285.87 433.29 295.06 433.80 298.09 429.20 C 314.80 416.76 306.99 394.60 301.94 378.23 C 300.80 374.54 296.33 373.64 292.97 373.25 C 295.52 388.21 307.91 401.59 301.81 417.69 C 300.95 423.04 293.11 432.92 289.46 428.37 C 307.45 415.30 295.88 391.30 289.27 374.76 C 283.53 366.54 274.27 357.91 277.72 346.82 C 281.03 335.61 272.92 324.82 276.63 313.47 C 276.95 301.10 273.91 319.18 271.06 319.74 C 264.84 311.76 282.86 301.38 268.28 297.30 M 251.31 303.34 C 239.78 305.64 227.48 307.24 218.32 315.41 C 214.11 319.75 208.98 311.82 204.42 315.38 C 192.48 322.66 193.25 337.91 193.49 350.14 C 198.53 351.10 195.26 329.83 200.09 340.85 C 206.09 350.94 197.82 324.99 206.76 330.92 C 208.51 337.05 212.29 345.92 214.92 349.51 C 205.99 328.39 226.47 306.89 246.95 311.94 C 256.49 329.56 245.12 352.87 224.21 352.17 C 212.69 357.25 227.06 353.63 231.06 354.60 C 233.01 359.40 238.70 353.04 241.88 356.29 C 242.65 362.47 233.73 361.38 230.03 363.16 C 230.06 367.33 237.59 362.76 237.16 367.74 C 233.03 369.40 225.99 368.86 225.64 374.74 C 232.08 372.10 238.76 370.02 245.10 367.15 C 253.65 362.78 260.40 349.20 250.99 342.76 C 255.48 330.32 256.77 314.46 251.31 303.34 M 284.94 303.24 C 279.81 316.29 282.71 330.53 285.83 343.55 C 279.99 346.35 280.20 354.38 283.88 358.96 C 289.13 369.40 301.91 370.05 311.27 374.80 C 312.55 367.48 296.11 370.31 301.21 365.15 C 318.47 362.75 288.75 362.93 296.48 355.56 C 304.34 357.62 308.93 352.28 317.29 355.76 C 314.47 347.70 300.59 353.62 295.66 346.33 C 284.31 338.04 286.40 322.83 290.16 311.18 C 311.52 308.15 330.70 327.88 322.10 349.47 C 325.05 345.92 328.18 336.32 330.82 330.49 C 339.29 326.89 330.75 350.58 336.91 340.84 C 342.04 330.13 337.80 350.33 343.93 350.53 C 343.08 338.37 344.97 323.45 333.22 315.73 C 328.36 311.40 322.53 320.23 318.09 314.98 C 308.85 306.89 296.47 305.55 284.94 303.24 M 234.44 317.41 C 229.35 318.79 223.31 320.92 220.98 326.07 C 226.71 329.43 242.58 320.90 234.44 317.41 M 300.13 317.17 C 298.86 325.53 310.18 327.46 316.02 326.07 C 313.17 320.37 306.13 317.80 300.13 317.17 M 243.45 322.23 C 236.85 324.88 236.85 336.31 240.76 339.95 C 245.57 337.42 246.29 324.92 243.45 322.23 M 292.77 321.94 C 291.58 327.88 291.57 334.97 295.40 340.05 C 301.72 338.38 299.89 323.63 292.77 321.94 M 226.74 329.50 C 224.17 330.26 219.12 330.09 220.03 333.97 C 222.62 335.76 239.61 328.25 226.74 329.50 M 305.31 328.70 C 305.55 334.73 313.21 331.98 316.95 334.78 C 318.18 328.65 308.92 329.87 305.31 328.70 M 234.38 331.24 C 229.79 333.06 232.96 339.83 232.23 343.96 C 238.82 345.36 236.44 332.41 234.38 331.24 M 301.83 330.93 C 301.66 335.05 297.98 344.76 304.77 343.96 C 304.01 339.61 307.53 332.22 301.83 330.93 M 224.44 336.25 C 217.01 335.83 216.18 353.20 224.67 347.79 C 232.04 347.95 232.40 333.84 224.44 336.25 M 309.33 336.24 C 301.76 341.03 310.81 350.58 317.96 348.72 C 319.49 342.50 317.00 334.26 309.33 336.24 M 208.56 361.39 C 196.78 369.73 182.47 372.46 168.75 373.81 C 181.11 379.48 194.57 373.15 205.95 368.01 C 203.51 380.08 202.31 396.29 212.10 404.89 C 209.51 393.33 206.34 381.53 209.80 369.73 C 208.81 368.06 213.65 359.47 208.56 361.39 M 326.09 361.18 C 330.00 375.68 328.69 390.49 324.86 404.87 C 335.07 396.39 332.97 380.10 331.00 368.05 C 342.41 373.18 355.65 379.37 368.10 373.86 C 354.37 372.29 338.82 368.41 326.09 361.18 Z" />
<path fill="#000000" opacity="1.00" d=" M 207.17 157.00 C 229.98 164.41 222.48 193.67 228.62 211.31 C 230.48 221.20 240.58 226.38 243.26 235.44 C 239.61 236.74 236.28 234.63 233.23 232.91 C 237.38 238.72 232.40 246.39 227.45 239.69 C 220.03 212.35 183.51 216.50 170.71 194.08 C 169.64 191.40 166.78 184.70 171.16 185.27 C 177.58 213.38 220.19 208.34 228.43 235.50 C 229.64 237.21 234.88 237.52 230.57 232.74 C 224.68 213.10 200.01 209.92 192.89 191.06 C 197.78 194.74 201.12 200.11 206.27 203.53 C 206.11 200.82 210.56 193.99 214.20 200.83 C 212.88 193.99 208.29 188.44 206.05 181.95 C 221.44 195.25 217.71 220.40 235.37 231.73 C 241.92 231.26 232.76 225.41 230.98 223.92 C 218.18 203.32 227.34 173.49 207.17 157.00 Z" />
<path fill="#000000" opacity="1.00" d=" M 328.08 157.35 C 330.10 155.94 330.22 158.92 328.65 159.57 C 305.96 176.49 322.82 213.15 299.41 229.49 C 298.17 232.83 302.86 231.99 303.98 230.05 C 319.39 217.89 315.97 194.23 331.08 181.98 C 327.95 188.07 324.42 194.13 322.81 200.84 C 326.42 193.96 330.90 200.84 330.73 203.53 C 335.87 200.11 339.22 194.74 344.11 191.06 C 336.87 210.70 309.87 213.42 305.95 235.04 C 304.81 237.32 307.86 236.78 308.56 235.46 C 317.16 208.14 359.24 213.66 365.81 185.07 C 371.67 190.36 362.99 199.64 357.85 203.85 C 342.56 214.47 320.07 216.91 311.11 235.32 C 311.52 240.62 301.64 245.99 302.67 238.17 C 307.02 227.82 298.34 238.45 293.73 235.46 C 296.07 226.96 305.26 222.38 307.56 213.54 C 315.18 195.78 306.15 167.05 328.08 157.35 Z" />
<path fill="#000000" opacity="1.00" d=" M 201.45 164.19 C 217.74 166.39 221.16 187.94 220.76 200.73 C 214.30 193.86 216.09 179.05 207.69 171.34 C 206.26 167.80 197.43 168.63 201.45 164.19 Z" />
<path fill="#000000" opacity="1.00" d=" M 333.09 164.24 C 335.75 162.68 338.71 167.76 334.85 167.83 C 321.91 173.09 322.74 189.07 317.74 199.76 C 316.39 202.73 314.32 199.07 315.27 197.32 C 318.38 185.18 318.84 168.89 333.09 164.24 Z" />
<path fill="#000000" opacity="1.00" d=" M 177.19 181.34 C 183.08 179.35 178.91 188.05 182.96 190.10 C 187.08 200.77 203.07 201.27 205.97 211.77 C 193.20 206.65 175.33 198.04 177.19 181.34 Z" />
<path fill="#000000" opacity="1.00" d=" M 357.40 181.15 C 366.50 193.77 341.56 209.72 331.06 211.02 C 338.57 201.38 356.53 195.32 357.40 181.15 Z" />
<path fill="#000000" opacity="1.00" d=" M 268.11 270.08 C 267.63 277.28 271.15 280.32 278.03 278.06 C 271.00 280.51 270.69 284.28 275.09 289.88 C 270.54 283.07 266.30 284.04 261.95 289.97 C 266.12 284.22 266.15 280.52 258.94 278.06 C 265.47 279.88 269.70 278.33 268.11 270.08 Z" />
<path fill="#000000" opacity="1.00" d=" M 152.08 291.62 C 169.54 293.07 187.29 302.12 204.62 294.92 C 207.77 292.68 213.98 288.59 216.79 292.38 C 218.85 296.29 208.39 298.95 214.60 300.44 C 223.98 300.57 218.14 310.37 211.05 308.04 C 186.47 310.86 179.41 340.43 157.13 347.41 C 153.77 347.37 146.18 349.29 146.33 344.48 C 175.91 345.79 184.55 304.79 214.10 304.03 C 193.61 297.35 179.20 324.62 159.00 326.05 C 163.98 320.84 173.45 320.80 177.08 314.05 C 170.65 318.22 173.25 313.43 170.24 310.77 C 178.31 305.36 159.56 309.60 155.33 310.20 C 170.03 297.71 199.54 313.67 211.07 295.15 C 186.25 311.26 155.43 284.61 131.23 301.96 C 133.45 293.40 144.67 292.60 152.08 291.62 Z" />
<path fill="#000000" opacity="1.00" d=" M 321.79 291.29 C 330.12 290.96 336.74 299.08 345.78 297.60 C 365.11 299.31 392.51 280.89 405.80 301.96 C 381.48 284.54 350.89 311.33 325.83 295.23 C 338.15 313.53 366.08 297.56 381.71 310.20 C 375.58 308.86 369.36 308.19 363.10 307.88 C 368.73 309.53 365.70 319.27 359.92 314.05 C 363.55 320.82 373.07 320.81 378.01 326.10 C 357.78 324.59 343.16 297.42 323.06 304.04 C 352.53 304.89 361.12 345.83 390.67 344.48 C 390.98 349.17 383.76 347.32 380.57 347.53 C 359.45 342.07 352.96 315.84 332.19 309.74 C 327.20 307.73 320.76 309.21 316.94 304.76 C 315.56 299.03 327.68 302.20 323.39 297.56 C 320.68 296.99 318.41 291.87 321.79 291.29 Z" />
<path fill="#000000" opacity="1.00" d=" M 150.11 298.45 C 158.99 298.84 168.96 297.85 177.01 301.25 C 165.87 308.14 146.75 296.57 138.75 310.87 C 131.52 306.12 145.10 299.78 150.11 298.45 Z" />
<path fill="#000000" opacity="1.00" d=" M 376.08 298.75 C 384.76 296.32 402.64 301.53 398.94 310.67 C 390.52 298.47 372.38 306.63 360.39 301.83 C 362.36 297.50 371.55 300.65 376.08 298.75 Z" />
<path fill="#000000" opacity="1.00" d=" M 179.56 319.37 C 181.43 318.66 183.55 318.48 182.11 321.01 C 173.33 328.75 164.91 339.31 152.22 339.49 C 149.38 340.42 142.86 337.60 146.03 334.33 C 159.56 339.08 168.97 324.75 179.56 319.37 Z" />
<path fill="#000000" opacity="1.00" d=" M 354.41 318.82 C 366.91 321.16 374.44 338.48 388.81 334.79 C 393.80 333.02 391.61 339.45 387.96 339.44 C 373.96 340.53 361.55 329.32 354.41 318.82 Z" />
<path fill="#000000" opacity="1.00" d=" M 262.04 334.02 C 266.22 333.96 266.28 339.35 268.86 340.70 C 270.33 338.01 271.31 334.33 274.96 334.01 C 279.25 339.37 273.54 346.27 275.67 352.27 C 276.64 372.89 297.20 386.80 296.66 407.76 C 295.49 410.88 295.68 417.81 290.94 418.01 C 300.29 391.64 270.67 372.97 272.25 347.39 C 272.37 344.96 276.10 338.87 271.35 340.36 C 262.55 360.44 280.90 378.35 277.11 398.66 C 275.97 396.20 272.14 371.20 271.20 383.80 C 269.11 382.08 267.35 383.44 265.05 383.78 C 266.32 370.69 260.38 394.62 260.78 399.07 C 254.69 379.15 275.10 360.50 265.65 340.37 C 259.91 338.92 266.54 348.40 264.90 351.05 C 263.50 372.63 242.68 388.40 244.24 410.60 C 245.27 413.01 247.17 421.88 243.09 416.07 C 232.04 392.70 260.41 375.51 261.14 352.99 C 263.51 346.76 257.85 339.61 262.04 334.02 Z" />
<path fill="#000000" opacity="1.00" d=" M 258.38 375.05 C 262.64 385.42 245.88 400.71 255.22 412.88 C 257.79 416.95 251.55 416.35 250.67 413.25 C 244.28 400.29 252.18 386.30 258.38 375.05 Z" />
<path fill="#000000" opacity="1.00" d=" M 276.98 375.21 C 285.60 382.68 296.43 409.63 281.40 415.76 C 288.83 402.26 278.84 388.82 276.98 375.21 Z" />
<path fill="#000000" opacity="1.00" d=" M 60.73 401.68 C 86.64 388.50 111.55 424.23 103.15 448.07 C 114.22 437.98 136.66 431.08 145.88 445.94 C 138.91 447.94 126.16 444.34 119.95 452.15 C 123.54 450.65 132.15 448.58 128.05 456.11 C 120.87 466.27 138.73 479.11 145.96 468.78 C 150.32 463.25 152.92 471.31 153.04 474.94 C 157.05 466.05 148.76 454.96 150.31 448.32 C 166.46 453.88 167.64 476.23 160.73 489.84 C 181.52 475.12 223.14 487.42 218.06 517.00 L 213.30 517.00 C 212.69 513.38 211.73 509.78 210.02 506.53 C 205.65 506.67 210.78 518.48 205.09 514.93 C 199.71 509.28 191.77 511.10 187.00 517.00 L 184.37 517.00 C 179.15 515.16 176.84 509.83 173.78 505.72 C 171.36 508.25 170.98 512.27 168.36 514.53 C 162.60 517.10 161.92 505.04 155.93 509.06 C 140.00 517.17 120.08 517.00 104.13 508.91 C 89.52 495.52 83.63 474.48 86.64 455.23 C 76.92 453.74 77.57 446.34 83.94 441.08 C 76.97 438.31 66.47 435.79 71.55 425.66 C 77.94 417.90 58.38 413.64 68.88 409.04 C 78.20 403.01 56.29 410.65 60.73 401.68 M 68.30 402.10 C 67.82 408.56 79.51 403.86 81.96 409.38 C 85.27 416.86 69.62 407.16 71.72 414.10 C 82.12 416.57 74.24 426.77 75.58 433.36 C 77.15 441.21 89.73 433.90 90.62 442.34 C 92.51 447.69 82.34 446.46 84.40 451.53 C 97.68 452.65 83.42 472.16 91.79 477.66 C 94.07 469.91 93.64 460.46 97.48 452.55 C 106.75 431.68 92.38 402.27 68.30 402.10 M 124.39 442.71 C 95.33 445.92 85.40 486.77 105.99 505.04 C 132.67 521.36 171.50 490.90 157.49 460.90 C 157.83 470.97 156.83 484.88 145.85 488.94 C 140.28 486.57 150.51 478.35 147.40 475.35 C 140.19 482.49 127.17 472.70 120.81 483.84 C 130.28 475.47 117.88 465.24 121.78 455.97 C 116.33 456.46 114.91 464.50 109.07 463.60 C 109.03 452.37 119.56 445.26 129.76 443.96 C 135.83 441.15 126.13 442.50 124.39 442.71 M 176.76 488.47 C 162.77 491.14 153.39 503.62 139.92 507.71 C 129.57 513.36 152.13 510.14 154.75 505.56 C 160.24 498.49 164.63 515.87 166.71 506.63 C 165.70 497.27 178.28 499.39 177.67 507.21 C 182.83 521.39 198.36 496.59 203.31 510.81 C 207.74 508.53 201.34 502.25 202.03 498.20 C 209.74 497.34 209.16 509.32 215.65 509.74 C 211.49 493.72 192.24 485.48 176.76 488.47 Z" />
<path fill="#000000" opacity="1.00" d=" M 433.70 448.19 C 425.51 424.35 450.25 388.66 476.25 401.66 C 480.70 410.72 457.93 402.99 468.71 409.40 C 477.97 413.82 460.35 417.28 465.06 424.16 C 470.00 433.61 461.54 439.86 452.65 441.16 C 459.91 445.97 459.90 453.94 450.36 455.14 C 453.42 474.36 447.40 495.54 432.85 508.91 C 417.20 517.19 397.48 517.00 381.75 509.10 C 375.39 504.44 371.17 521.79 366.52 511.52 C 362.96 499.42 359.54 515.69 352.63 517.00 L 350.00 517.00 C 345.22 511.11 337.29 509.28 331.91 514.93 C 326.22 518.51 331.35 506.62 326.98 506.56 C 325.14 509.75 324.31 513.37 323.82 517.00 L 319.04 517.00 C 313.24 487.82 355.77 474.74 376.26 489.84 C 369.38 476.05 370.77 454.25 386.69 448.35 C 388.71 454.77 379.33 465.52 383.82 474.11 C 385.58 476.07 384.74 462.98 389.95 467.79 C 395.77 478.40 413.58 469.35 409.95 459.05 C 405.63 452.21 410.54 448.32 417.04 452.14 C 410.81 444.22 398.12 447.91 391.12 445.95 C 399.95 431.38 422.95 437.72 433.70 448.19 M 463.66 402.46 C 444.51 406.79 432.23 429.04 438.31 447.71 C 441.78 457.42 443.49 467.76 445.19 477.59 C 450.97 472.76 445.08 459.67 447.26 453.27 C 455.11 452.85 452.82 447.01 446.78 445.52 C 443.93 438.35 452.53 436.97 457.64 437.26 C 468.59 433.29 452.49 418.58 463.89 414.81 C 469.96 411.06 458.77 410.92 456.08 412.66 C 447.94 405.71 480.74 403.42 463.66 402.46 M 404.76 442.23 C 414.62 446.11 428.41 449.82 427.96 463.64 C 422.20 464.33 420.55 456.64 415.21 455.97 C 419.12 465.24 406.73 475.46 416.18 483.84 C 409.72 472.72 396.93 482.48 389.56 475.33 C 386.67 477.31 398.07 489.88 389.54 488.79 C 380.18 482.70 379.11 471.05 379.55 460.91 C 365.44 490.89 404.23 521.51 431.02 505.03 C 454.29 484.58 437.97 438.59 404.76 442.23 M 348.64 488.33 C 336.94 489.71 324.12 497.66 321.35 509.73 C 327.84 509.33 327.26 497.34 334.97 498.20 C 335.66 502.24 329.27 508.52 333.68 510.79 C 336.12 502.08 346.25 507.65 350.61 511.75 C 361.55 516.10 357.50 497.09 367.24 500.71 C 372.07 500.90 369.15 512.99 373.58 508.60 C 380.08 496.56 391.50 516.75 401.00 510.35 C 383.38 503.89 369.24 484.57 348.64 488.33 Z" />
</svg>
