<?xml version="1.0" standalone="no"?>
<!DOCTYPE svg PUBLIC "-//W3C//DTD SVG 20010904//EN"
 "http://www.w3.org/TR/2001/REC-SVG-20010904/DTD/svg10.dtd">
<svg version="1.0" xmlns="http://www.w3.org/2000/svg"
 width="1800.000000pt" height="1800.000000pt" viewBox="0 0 1800.000000 1800.000000"
 preserveAspectRatio="xMidYMid meet">
<metadata>
Created by potrace 1.13, written by Peter Selinger 2001-2015
</metadata>
<g transform="translate(0.000000,1800.000000) scale(0.100000,-0.100000)"
fill="#000000" stroke="none">
<path d="M2 15973 l3 -2027 59 -31 c52 -26 70 -30 140 -30 145 0 81 -56 1102
967 1013 1015 949 942 949 1083 0 39 -8 92 -17 120 -20 59 -398 1479 -398
1494 0 8 72 11 228 11 l227 0 334 -1247 c184 -687 345 -1286 358 -1333 l23
-84 -55 54 -55 55 -230 -230 c-320 -319 -353 -368 -354 -525 -2 -140 61 -262
177 -343 88 -63 146 -82 242 -82 158 0 214 37 525 349 l235 236 58 -58 c41
-39 57 -50 53 -35 -18 57 -866 3229 -866 3235 0 5 97 8 215 8 l214 0 11 -42
c56 -214 93 -346 100 -363 5 -11 16 -36 23 -56 30 -74 128 -139 212 -139 93 0
191 71 221 162 24 74 7 193 -62 421 -5 16 13 17 280 17 l285 0 10 -37 c228
-870 437 -1627 460 -1668 65 -116 203 -168 361 -134 117 25 200 123 200 237 0
40 -55 261 -205 820 -113 421 -205 769 -205 774 0 4 141 8 314 8 l313 0 47
-177 c59 -221 89 -285 161 -351 144 -132 346 -122 491 23 96 96 120 236 70
418 l-25 87 299 0 299 0 10 -37 c6 -21 141 -526 300 -1122 160 -596 289 -1087
286 -1091 -2 -4 -53 -10 -113 -14 -59 -3 -186 -15 -282 -26 -95 -11 -175 -18
-177 -16 -2 2 -46 163 -98 357 -67 252 -105 375 -131 427 -65 130 -162 190
-324 199 -72 4 -94 2 -145 -18 -80 -30 -154 -104 -183 -182 -41 -108 -34 -159
74 -561 53 -197 94 -359 92 -360 -1 -2 -68 -19 -148 -39 -126 -32 -375 -104
-420 -122 -13 -4 -20 10 -34 67 -22 85 -58 170 -92 215 -36 48 -135 93 -204
93 -174 0 -320 -121 -320 -265 0 -29 16 -111 36 -184 20 -73 34 -134 32 -135
-1 -2 -47 -22 -102 -45 -54 -23 -166 -74 -248 -112 -83 -39 -151 -69 -153 -67
-1 2 -111 410 -244 908 -132 498 -248 928 -256 957 -27 92 -125 163 -225 163
-98 0 -195 -69 -225 -161 -13 -38 -15 -67 -10 -117 5 -49 491 -1898 520 -1979
2 -7 -51 -45 -125 -90 -71 -43 -130 -80 -130 -83 0 -3 43 -48 95 -100 l95 -95
-989 -990 -989 -990 -48 -97 c-44 -90 -47 -104 -47 -172 0 -64 4 -84 32 -140
58 -119 159 -180 298 -180 77 0 88 3 159 40 71 37 130 94 1075 1039 l999 1000
-110 110 -110 110 -80 300 c-44 165 -80 300 -80 302 0 2 194 108 314 172 33
17 60 30 61 28 1 -1 85 -312 186 -692 l184 -690 67 -70 67 -71 -390 -389
c-214 -215 -398 -403 -409 -420 -25 -42 -50 -130 -50 -181 0 -108 75 -244 168
-303 56 -35 140 -61 197 -61 50 0 139 25 180 50 17 11 205 195 420 409 l390
391 118 -117 c66 -65 116 -109 113 -98 -34 119 -666 2489 -666 2498 0 17 474
196 486 184 3 -3 43 -144 89 -314 46 -169 89 -324 96 -343 53 -148 189 -228
368 -218 108 6 202 68 252 166 21 42 24 60 24 162 0 113 -2 121 -84 423 -46
169 -81 310 -78 314 14 13 623 130 632 121 2 -2 159 -588 351 -1303 191 -715
350 -1303 353 -1306 3 -4 53 -1 111 7 58 7 170 16 250 20 l144 7 -15 -24 c-9
-13 -307 -529 -663 -1145 l-647 -1121 -102 -7 c-56 -4 -172 -11 -257 -17 -85
-6 -164 -9 -176 -8 -18 4 59 142 632 1134 359 621 651 1131 649 1133 -6 7
-288 -60 -405 -97 -69 -21 -131 -40 -139 -42 -11 -3 -38 84 -112 361 -128 476
-135 496 -205 562 -64 58 -109 73 -229 73 -96 0 -116 -3 -155 -23 -81 -43
-132 -103 -163 -196 -34 -101 -27 -147 103 -632 111 -411 119 -449 103 -458
-10 -5 -76 -49 -148 -97 -141 -95 -292 -212 -424 -332 l-85 -76 -426 -738
-426 -738 -48 -8 c-27 -4 -50 -6 -53 -4 -15 16 184 447 294 635 36 62 63 115
61 117 -2 3 -364 -357 -805 -798 -895 -897 -855 -850 -861 -997 -3 -59 1 -88
18 -135 20 -53 39 -77 174 -211 188 -187 226 -209 361 -209 132 0 169 21 356
202 l149 145 0 57 c0 124 62 557 94 665 10 32 262 483 283 506 4 5 366 59 370
56 2 -2 -168 -299 -377 -661 l-380 -658 1 -186 c1 -102 4 -218 8 -258 l6 -72
541 937 541 937 59 7 c119 15 539 56 542 53 2 -2 -105 -191 -238 -422 -207
-357 -245 -429 -262 -495 -17 -66 -18 -86 -8 -132 29 -139 165 -226 307 -197
69 13 113 41 156 94 19 23 183 301 366 618 l332 576 76 7 c42 3 114 6 161 6
l84 0 -14 -22 c-25 -38 -58 -137 -58 -172 0 -88 71 -192 148 -217 20 -6 51
-20 67 -30 36 -21 173 -61 232 -67 64 -6 135 22 187 75 27 27 91 125 162 249
l118 204 181 0 c100 0 242 -3 317 -6 l134 -7 -362 -628 c-200 -346 -373 -650
-386 -676 -30 -63 -32 -189 -5 -245 18 -34 32 -51 113 -127 63 -59 220 -78
304 -38 95 46 112 72 588 897 249 431 455 786 456 788 4 3 511 -34 617 -45
l56 -6 -65 -111 c-113 -192 -129 -252 -96 -349 22 -64 89 -130 159 -156 67
-25 115 -26 178 -5 80 27 129 88 271 335 109 190 133 225 150 222 12 -1 125
-17 251 -34 127 -17 237 -34 247 -38 13 -5 -76 -166 -483 -870 -275 -476 -510
-893 -524 -927 -14 -34 -25 -80 -25 -101 0 -172 183 -295 352 -237 101 34 107
43 669 1015 285 495 519 910 519 922 0 19 -37 144 -45 155 -2 2 -88 18 -192
36 -103 18 -187 37 -186 42 1 5 46 86 100 181 85 147 101 169 112 155 9 -13
11 -14 8 -2 -2 8 -163 607 -356 1330 -193 723 -356 1324 -361 1335 -4 11 -19
45 -33 76 -34 78 -87 133 -165 171 -59 29 -76 33 -152 33 -76 0 -93 -4 -152
-33 -77 -37 -130 -92 -165 -169 -51 -111 -52 -104 121 -753 86 -322 159 -591
161 -598 3 -8 -13 0 -34 18 l-40 31 -15 -23 c-8 -13 -213 -367 -456 -788 -242
-421 -444 -768 -448 -771 -7 -6 -245 3 -505 19 l-117 7 122 210 c156 270 167
298 168 401 0 45 -5 96 -12 115 -27 80 -107 155 -190 178 -62 18 -192 11 -240
-13 -72 -35 -112 -92 -341 -490 l-227 -393 -372 -7 c-204 -3 -373 -5 -375 -2
-2 2 287 506 642 1121 355 615 643 1120 641 1122 -2 2 -52 8 -111 13 -58 4
-108 10 -109 12 -9 10 -708 2640 -703 2644 3 3 142 7 308 7 l303 2 367 -1368
c201 -753 370 -1372 375 -1376 5 -4 45 -17 89 -29 44 -12 97 -27 117 -34 l36
-13 -99 -170 c-123 -212 -132 -237 -127 -363 4 -109 18 -149 75 -205 60 -60
94 -72 213 -72 82 0 113 4 142 18 43 22 128 104 149 144 12 24 116 206 205
360 l25 43 -79 39 -78 39 -263 984 c-145 540 -323 1204 -396 1475 l-132 492
26 -4 c14 -3 67 -9 116 -15 50 -6 176 -25 280 -41 l190 -31 104 -392 c153
-574 168 -617 248 -686 68 -60 137 -85 233 -85 76 0 93 4 152 33 145 71 223
230 188 383 -6 30 -41 164 -77 297 -35 134 -62 246 -60 249 7 6 182 -49 357
-112 260 -94 256 -92 274 -128 9 -17 354 -1294 766 -2837 413 -1543 762 -2833
776 -2867 67 -161 226 -259 407 -252 149 7 263 85 330 227 28 59 32 79 35 167
l3 100 -670 2503 c-369 1376 -671 2504 -671 2507 0 9 287 -169 465 -289 l179
-121 72 0 c64 0 77 3 115 30 64 45 89 101 89 198 0 74 -24 170 -290 1163 -159
595 -297 1114 -305 1152 -18 89 -28 109 -97 213 -88 133 -167 190 -294 212
-77 13 -224 -8 -299 -44 -99 -46 -189 -160 -215 -271 -14 -63 -12 -176 5 -238
124 -456 514 -1915 512 -1916 -1 -1 -65 32 -142 73 -161 87 -413 207 -606 289
-74 31 -135 57 -137 59 -1 1 -34 120 -73 264 -96 358 -114 397 -211 445 -45
23 -65 26 -149 26 -90 0 -101 -2 -168 -36 -111 -56 -151 -122 -151 -252 0 -43
7 -101 15 -128 20 -65 19 -78 -2 -69 -36 14 -481 123 -577 141 -80 15 -100 22
-107 39 -5 11 -70 250 -144 530 -75 281 -144 528 -154 550 -26 60 -65 100
-123 129 -46 23 -64 26 -157 26 -90 0 -114 -4 -156 -24 -71 -32 -109 -68 -139
-128 -46 -93 -41 -134 79 -580 58 -216 107 -400 110 -408 4 -14 -4 -15 -72 -9
-43 4 -165 13 -272 19 -107 6 -197 12 -199 15 -2 2 -137 498 -298 1102 -162
604 -297 1106 -300 1116 -5 16 12 17 265 17 l270 0 11 -42 c69 -262 113 -420
127 -452 32 -72 69 -112 134 -145 75 -37 155 -41 263 -12 91 25 143 63 178
130 42 81 39 167 -12 357 -22 82 -40 152 -40 156 0 4 147 8 328 8 l327 0 188
-708 c104 -389 193 -721 198 -739 28 -92 127 -163 227 -163 82 0 227 38 280
74 61 41 102 118 102 191 0 37 -50 240 -165 670 -92 340 -169 630 -172 646
l-5 29 1353 0 1354 0 269 -1008 c148 -554 280 -1041 293 -1083 53 -166 184
-272 353 -285 52 -4 88 1 180 25 422 111 420 110 500 191 96 95 134 212 112
343 -7 40 -117 464 -246 942 l-233 870 580 3 c320 1 584 -1 588 -5 4 -5 650
-2408 1435 -5341 l1429 -5334 3 2319 2 2319 -550 2053 c-302 1129 -550 2055
-550 2057 0 2 -265 4 -590 4 l-590 0 0 1110 0 1110 290 0 c160 0 290 3 290 8
0 4 -8 36 -18 72 l-19 65 -8131 3 -8132 2 2 -2027z m12878 1947 c0 -16 -7 -20
-30 -20 -20 0 -30 -5 -30 -15 0 -9 9 -15 25 -15 18 0 25 -5 25 -20 0 -15 -7
-20 -25 -20 -25 0 -25 -1 -25 -80 l0 -80 -35 0 -35 0 0 80 c0 64 -3 80 -15 80
-8 0 -15 9 -15 20 0 11 7 20 15 20 8 0 15 9 15 19 0 29 38 51 87 51 36 0 43
-3 43 -20z m1350 -115 l0 -135 -35 0 -35 0 0 135 0 135 35 0 35 0 0 -135z
m-2631 119 c26 -5 31 -11 31 -34 0 -27 -1 -27 -38 -17 -49 13 -95 2 -90 -21 2
-11 20 -20 56 -28 29 -7 62 -20 73 -30 25 -22 24 -65 -2 -98 -18 -23 -27 -26
-82 -26 -90 0 -107 7 -107 41 0 27 1 27 29 18 43 -15 105 -8 109 13 2 13 -10
21 -49 32 -63 19 -89 41 -89 73 0 68 60 97 159 77z m3101 -29 c0 -21 5 -25 30
-25 23 0 30 -4 30 -20 0 -16 -7 -20 -30 -20 l-31 0 3 -57 c3 -55 4 -58 31 -61
19 -2 27 -9 27 -23 0 -16 -7 -19 -47 -19 -67 0 -83 18 -83 97 0 49 -3 63 -15
63 -8 0 -15 9 -15 20 0 11 7 20 15 20 9 0 15 9 15 25 0 22 4 25 35 25 31 0 35
-3 35 -25z m-2806 -31 c9 -3 16 -17 16 -30 0 -21 -3 -23 -19 -14 -63 33 -120
-37 -78 -95 11 -14 22 -17 55 -12 39 5 42 3 42 -19 0 -23 -3 -24 -61 -24 -54
0 -64 3 -90 29 -46 46 -36 126 18 155 29 16 89 21 117 10z m267 -23 c15 -18
19 -40 19 -97 l0 -74 -35 0 c-21 0 -35 5 -35 12 0 9 -3 9 -12 0 -17 -17 -78
-15 -100 5 -18 16 -24 59 -10 79 13 20 50 34 87 34 25 0 35 4 32 13 -2 7 -23
12 -55 12 -43 -1 -52 2 -52 16 0 24 16 29 84 25 47 -2 63 -7 77 -25z m179 19
c0 -7 6 -7 19 0 31 16 69 12 91 -10 17 -17 20 -33 20 -100 l0 -80 -35 0 -35 0
0 75 c0 61 -3 77 -16 82 -28 10 -44 -25 -44 -94 l0 -63 -35 0 -35 0 0 100 0
100 35 0 c19 0 35 -5 35 -10z m761 -5 c56 -30 66 -109 20 -156 -25 -25 -37
-29 -81 -29 -44 0 -56 4 -81 29 -31 31 -37 68 -19 115 19 50 102 71 161 41z
m199 -2 c0 -15 1 -15 18 0 10 10 28 17 40 17 18 0 22 -6 22 -29 0 -25 -3 -28
-27 -23 -37 7 -53 -20 -53 -90 l0 -58 -35 0 -35 0 0 100 0 100 35 0 c26 0 35
-4 35 -17z m458 11 c15 -4 22 -14 22 -30 0 -21 -3 -23 -26 -14 -34 13 -71 13
-80 -1 -9 -14 14 -29 46 -29 39 0 70 -27 70 -59 0 -47 -28 -62 -106 -59 -61 3
-69 5 -72 24 -3 19 1 20 58 16 50 -4 60 -2 60 11 0 11 -14 18 -44 22 -53 8
-79 33 -74 71 5 45 73 67 146 48z m273 -9 c56 -30 66 -109 20 -156 -25 -25
-37 -29 -81 -29 -44 0 -56 4 -81 29 -31 31 -37 68 -19 115 19 50 102 71 161
41z m361 -62 c3 -67 6 -78 22 -81 27 -6 36 15 36 91 l0 67 35 0 35 0 0 -100 0
-100 -35 0 c-21 0 -35 5 -35 12 0 9 -3 9 -12 0 -7 -7 -29 -12 -49 -12 -55 0
-69 25 -69 122 l0 78 35 0 34 0 3 -77z m759 62 c56 -30 66 -109 20 -156 -25
-25 -37 -29 -81 -29 -44 0 -56 4 -81 29 -31 31 -37 68 -19 115 19 50 102 71
161 41z m199 5 c0 -7 6 -7 19 0 31 16 69 12 91 -10 17 -17 20 -33 20 -100 l0
-80 -35 0 -35 0 0 75 c0 61 -3 77 -16 82 -28 10 -44 -25 -44 -94 l0 -63 -35 0
-35 0 0 100 0 100 35 0 c19 0 35 -5 35 -10z m-14888 -370 c17 -62 23 -70 153
-200 l135 -135 -31 115 c-16 63 -41 155 -54 203 l-24 88 91 -3 91 -3 84 -313
c47 -173 83 -315 81 -315 -2 -1 -144 -141 -316 -312 l-312 -310 0 628 0 628
42 -3 41 -3 19 -65z m998 65 c0 -3 90 -341 200 -751 110 -411 200 -751 200
-758 0 -6 -337 -349 -750 -761 l-750 -750 0 425 0 425 543 542 542 542 -118
438 c-64 241 -130 486 -146 546 l-29 107 154 0 c85 0 154 -2 154 -5z m4604
-6256 c-328 -569 -602 -1040 -609 -1047 -10 -11 -233 -47 -241 -39 -2 1 253
445 566 987 l568 984 153 77 c85 42 155 76 157 75 1 -2 -266 -468 -594 -1037z
m4671 50 c42 -50 108 -133 147 -185 l70 -94 -96 -167 c-309 -539 -393 -678
-407 -677 -8 1 -119 12 -247 25 -197 20 -231 26 -227 39 18 46 669 1159 676
1155 4 -3 42 -46 84 -96z"/>
<path d="M15850 17485 l0 -235 235 0 235 0 0 235 0 235 -235 0 -235 0 0 -235z
m400 0 l0 -165 -165 0 -165 0 0 165 0 165 165 0 165 0 0 -165z"/>
<path d="M15990 17480 l0 -100 100 0 100 0 0 100 0 100 -100 0 -100 0 0 -100z"/>
<path d="M16450 17685 c0 -32 -2 -35 -30 -35 -28 0 -30 -3 -30 -35 0 -32 2
-35 30 -35 27 0 30 -3 30 -30 0 -28 3 -30 35 -30 33 0 35 -2 35 -35 0 -33 -2
-35 -35 -35 -33 0 -35 -2 -35 -35 0 -32 -2 -35 -30 -35 l-30 0 0 -100 0 -100
-135 0 -135 0 0 -65 0 -65 -35 0 c-33 0 -35 -2 -35 -35 0 -32 -2 -35 -30 -35
l-30 0 0 -65 0 -65 30 0 c28 0 30 -3 30 -35 0 -33 2 -35 35 -35 32 0 35 -2 35
-30 0 -28 -3 -30 -35 -30 -33 0 -35 -2 -35 -35 0 -33 2 -35 35 -35 l35 0 0
-65 0 -65 -65 0 -65 0 0 30 0 30 -70 0 -70 0 0 -30 0 -30 70 0 70 0 0 -70 0
-70 -70 0 -70 0 0 -30 0 -30 135 0 135 0 0 30 c0 28 -3 30 -35 30 -33 0 -35 2
-35 35 l0 35 70 0 70 0 0 -35 c0 -32 2 -35 30 -35 27 0 30 -3 30 -30 0 -28 3
-30 35 -30 32 0 35 2 35 30 l0 30 65 0 65 0 0 -30 c0 -27 -3 -30 -30 -30 l-30
0 0 -135 0 -135 30 0 30 0 0 -100 0 -100 35 0 c32 0 35 -2 35 -30 0 -28 3 -30
35 -30 32 0 35 2 35 30 0 27 3 30 30 30 27 0 30 -3 30 -30 0 -28 3 -30 35 -30
32 0 35 2 35 30 0 28 -3 30 -35 30 -33 0 -35 2 -35 35 0 32 -2 35 -30 35 l-30
0 0 65 0 65 30 0 30 0 0 100 0 100 35 0 35 0 0 -130 0 -130 65 0 65 0 0 -35
c0 -32 -2 -35 -30 -35 l-30 0 0 -65 0 -65 130 0 130 0 0 30 0 30 -65 0 -65 0
0 35 c0 33 2 35 35 35 33 0 35 2 35 35 l0 35 -70 0 -70 0 0 30 0 30 70 0 70 0
0 65 0 65 30 0 c28 0 30 3 30 35 l0 35 -65 0 -65 0 0 65 0 65 35 0 c32 0 35
-2 35 -30 0 -27 3 -30 30 -30 27 0 30 3 30 30 l0 30 70 0 70 0 0 -30 c0 -28
-3 -30 -35 -30 l-35 0 0 -100 0 -100 -35 0 c-33 0 -35 -2 -35 -35 l0 -35 100
0 100 0 0 -65 0 -65 35 0 35 0 0 -65 0 -65 35 0 c32 0 35 2 35 30 0 27 3 30
30 30 27 0 30 -3 30 -30 0 -28 3 -30 35 -30 32 0 35 2 35 30 0 27 3 30 30 30
27 0 30 -3 30 -30 l0 -30 70 0 70 0 0 30 c0 27 3 30 30 30 l30 0 0 70 0 70
-30 0 -30 0 0 65 0 65 -35 0 c-33 0 -35 -2 -35 -35 0 -33 -2 -35 -35 -35 -32
0 -35 -2 -35 -30 0 -27 -3 -30 -30 -30 l-30 0 0 -70 0 -70 -35 0 -35 0 0 100
0 100 35 0 c33 0 35 2 35 35 0 32 2 35 30 35 27 0 30 3 30 30 0 27 -3 30 -30
30 l-30 0 0 100 0 100 -35 0 c-33 0 -35 2 -35 35 0 32 -2 35 -30 35 -28 0 -30
-3 -30 -35 l0 -35 -70 0 -70 0 0 35 c0 32 -2 35 -30 35 l-30 0 0 65 0 65 65 0
65 0 0 -30 0 -30 100 0 100 0 0 65 0 65 30 0 c28 0 30 3 30 35 0 32 -2 35 -30
35 l-30 0 0 65 0 65 30 0 c28 0 30 -3 30 -35 0 -33 2 -35 35 -35 l35 0 0 -100
0 -100 35 0 35 0 0 -65 0 -65 -35 0 -35 0 0 -65 0 -65 -35 0 c-33 0 -35 -2
-35 -35 0 -33 2 -35 35 -35 33 0 35 2 35 35 0 33 2 35 35 35 l35 0 0 -70 0
-70 30 0 30 0 0 70 0 70 -30 0 c-27 0 -30 3 -30 30 0 27 3 30 30 30 l30 0 0
370 0 370 -30 0 c-27 0 -30 3 -30 30 0 28 -3 30 -35 30 l-35 0 0 -65 0 -65
-65 0 -65 0 0 35 c0 33 -2 35 -35 35 -32 0 -35 2 -35 30 l0 30 -65 0 -65 0 0
-65 0 -65 100 0 100 0 0 -100 0 -100 -35 0 c-33 0 -35 -2 -35 -35 0 -32 -2
-35 -30 -35 -28 0 -30 3 -30 35 0 33 -2 35 -35 35 l-35 0 0 -65 0 -65 35 0
c33 0 35 -2 35 -35 0 -32 2 -35 30 -35 28 0 30 -3 30 -35 l0 -35 -65 0 -65 0
0 35 c0 33 -2 35 -35 35 l-35 0 0 65 0 65 -30 0 c-27 0 -30 -3 -30 -30 0 -28
-3 -30 -35 -30 -32 0 -35 2 -35 30 0 28 -3 30 -35 30 -33 0 -35 2 -35 35 l0
35 100 0 100 0 0 35 0 35 -165 0 -165 0 0 30 c0 28 3 30 35 30 l35 0 0 100 0
100 30 0 c27 0 30 -3 30 -30 0 -28 3 -30 35 -30 33 0 35 -2 35 -35 0 -33 2
-35 35 -35 33 0 35 -2 35 -35 0 -32 2 -35 30 -35 l30 0 0 70 0 70 -65 0 -65 0
0 30 0 30 65 0 65 0 0 70 0 70 -30 0 c-27 0 -30 3 -30 30 0 27 3 30 30 30 28
0 30 3 30 35 0 32 -2 35 -30 35 -28 0 -30 3 -30 35 0 32 2 35 30 35 l30 0 0
65 0 65 -30 0 c-28 0 -30 3 -30 35 l0 35 -100 0 -100 0 0 -70 0 -70 -35 0
c-33 0 -35 2 -35 35 0 33 -2 35 -35 35 -33 0 -35 2 -35 35 0 32 -2 35 -30 35
-28 0 -30 -3 -30 -35 0 -33 -2 -35 -35 -35 -33 0 -35 2 -35 35 0 33 -2 35 -35
35 -33 0 -35 -2 -35 -35 0 -32 -2 -35 -30 -35 -28 0 -30 3 -30 35 l0 35 -70 0
-70 0 0 -35z m400 -70 c0 -33 2 -35 35 -35 32 0 35 -2 35 -30 0 -28 -3 -30
-35 -30 -33 0 -35 -2 -35 -35 0 -32 -2 -35 -30 -35 l-30 0 0 -165 0 -165 -35
0 c-33 0 -35 -2 -35 -35 l0 -35 100 0 100 0 0 -35 c0 -33 -2 -35 -35 -35 -32
0 -35 -2 -35 -30 l0 -30 -65 0 -65 0 0 65 0 65 -35 0 c-33 0 -35 2 -35 35 0
32 -2 35 -30 35 l-30 0 0 130 0 130 65 0 65 0 0 35 c0 33 2 35 35 35 33 0 35
2 35 35 0 33 -2 35 -35 35 -32 0 -35 2 -35 30 0 28 3 30 35 30 33 0 35 2 35
35 0 32 2 35 30 35 28 0 30 -3 30 -35z m340 0 c0 -33 -2 -35 -35 -35 -32 0
-35 -2 -35 -30 0 -28 -3 -30 -35 -30 l-35 0 0 -135 0 -135 -30 0 c-28 0 -30 3
-30 35 0 33 -2 35 -35 35 l-35 0 0 -70 0 -70 -35 0 -35 0 0 100 0 100 70 0 70
0 0 70 0 70 30 0 30 0 0 65 0 65 70 0 70 0 0 -35z m-670 -365 l0 -70 -35 0
c-32 0 -35 -2 -35 -30 0 -28 3 -30 35 -30 33 0 35 -2 35 -35 0 -33 2 -35 35
-35 l35 0 0 -65 0 -65 30 0 c28 0 30 -3 30 -35 l0 -35 170 0 170 0 0 -35 c0
-32 2 -35 30 -35 27 0 30 -3 30 -30 0 -28 3 -30 35 -30 33 0 35 -2 35 -35 0
-33 2 -35 35 -35 33 0 35 -2 35 -35 l0 -35 -100 0 -100 0 0 -65 0 -65 30 0
c28 0 30 3 30 35 0 33 2 35 35 35 33 0 35 -2 35 -35 0 -33 -2 -35 -35 -35 -33
0 -35 -2 -35 -35 0 -32 -2 -35 -30 -35 -28 0 -30 3 -30 35 0 33 -2 35 -35 35
-33 0 -35 2 -35 35 0 33 -2 35 -35 35 -32 0 -35 2 -35 30 l0 30 70 0 70 0 0
100 0 100 -70 0 -70 0 0 -30 c0 -28 3 -30 35 -30 33 0 35 -2 35 -35 0 -33 -2
-35 -35 -35 -33 0 -35 2 -35 35 0 32 -2 35 -30 35 l-30 0 0 -70 0 -70 -70 0
-70 0 0 -65 0 -65 100 0 100 0 0 -35 c0 -32 -2 -35 -30 -35 -27 0 -30 -3 -30
-30 0 -27 3 -30 30 -30 l30 0 0 -135 0 -135 -30 0 -30 0 0 100 0 100 -35 0
-35 0 0 65 0 65 -35 0 c-33 0 -35 2 -35 35 0 32 -2 35 -30 35 -28 0 -30 -3
-30 -35 l0 -35 -70 0 -70 0 0 70 0 70 -30 0 c-27 0 -30 3 -30 30 0 28 -3 30
-35 30 -32 0 -35 -2 -35 -30 0 -28 -3 -30 -35 -30 -32 0 -35 2 -35 30 0 27 -3
30 -30 30 l-30 0 0 100 0 100 -35 0 c-33 0 -35 2 -35 35 0 33 -2 35 -35 35
-33 0 -35 2 -35 35 0 33 2 35 35 35 32 0 35 2 35 30 l0 30 100 0 100 0 0 35
c0 33 -2 35 -35 35 -33 0 -35 2 -35 35 0 33 2 35 35 35 33 0 35 -2 35 -35 0
-33 2 -35 35 -35 l35 0 0 65 0 65 30 0 30 0 0 70 0 70 35 0 35 0 0 -70z m1200
-235 c0 -33 -2 -35 -35 -35 -32 0 -35 -2 -35 -30 0 -28 3 -30 35 -30 l35 0 0
-70 0 -70 -35 0 -35 0 0 70 0 70 -35 0 c-32 0 -35 2 -35 30 0 28 3 30 35 30
33 0 35 2 35 35 0 33 2 35 35 35 33 0 35 -2 35 -35z m-270 -795 l0 -100 -100
0 -100 0 0 100 0 100 100 0 100 0 0 -100z"/>
<path d="M16250 16885 c0 -32 -2 -35 -30 -35 -28 0 -30 -3 -30 -35 0 -32 2
-35 30 -35 27 0 30 -3 30 -30 l0 -30 70 0 70 0 0 -70 0 -70 30 0 c28 0 30 3
30 35 0 33 2 35 35 35 l35 0 0 -100 0 -100 35 0 35 0 0 135 0 135 30 0 c27 0
30 3 30 30 0 27 -3 30 -30 30 -27 0 -30 -3 -30 -30 0 -28 -3 -30 -35 -30 -32
0 -35 2 -35 30 0 28 -3 30 -35 30 -32 0 -35 -2 -35 -30 0 -27 -3 -30 -30 -30
l-30 0 0 65 0 65 -35 0 c-33 0 -35 2 -35 35 0 33 -2 35 -35 35 -33 0 -35 -2
-35 -35z"/>
<path d="M17320 17485 l0 -235 230 0 230 0 0 235 0 235 -230 0 -230 0 0 -235z
m400 0 l0 -165 -165 0 -165 0 0 165 0 165 165 0 165 0 0 -165z"/>
<path d="M17450 17480 l0 -100 100 0 100 0 0 100 0 100 -100 0 -100 0 0 -100z"/>
<path d="M15920 17085 c0 -33 -2 -35 -35 -35 l-35 0 0 -200 0 -200 35 0 35 0
0 200 0 200 35 0 c33 0 35 2 35 35 0 33 -2 35 -35 35 -33 0 -35 -2 -35 -35z"/>
<path d="M15850 16020 l0 -230 235 0 235 0 0 230 0 230 -235 0 -235 0 0 -230z
m400 -5 l0 -165 -165 0 -165 0 0 165 0 165 165 0 165 0 0 -165z"/>
<path d="M15990 16020 l0 -100 100 0 100 0 0 100 0 100 -100 0 -100 0 0 -100z"/>
<path d="M2290 15580 c-66 -16 -113 -51 -240 -176 l-135 -133 250 -251 250
-250 62 62 63 63 -96 96 -95 96 41 37 c37 33 47 37 88 35 26 -1 59 -8 75 -16
15 -7 27 -11 27 -8 0 2 25 -6 55 -20 30 -13 55 -22 55 -19 0 3 8 0 18 -5 16
-8 31 3 93 65 41 41 70 74 64 73 -13 -3 -95 22 -120 37 -11 6 -33 15 -50 19
-16 5 -32 9 -35 10 -3 1 -21 6 -41 12 -38 11 -103 11 -131 -2 -17 -7 -17 -5
-3 29 20 48 19 88 -5 134 -20 37 -80 104 -80 88 0 -5 -6 -3 -14 3 -21 18 -68
28 -96 21z m33 -200 c19 -17 37 -38 39 -48 7 -27 -17 -74 -61 -117 l-41 -39
-65 64 -65 64 47 48 c25 26 50 45 54 42 4 -2 10 0 14 6 11 19 44 10 78 -20z"/>
<path d="M1607 14982 l-177 -177 255 -255 255 -255 180 180 180 180 -50 50
-50 50 -115 -115 -115 -114 -55 54 -55 54 105 106 105 106 -50 49 -50 49 -105
-104 -105 -104 -50 49 -50 49 112 113 113 113 -50 50 -50 50 -178 -178z"/>
<path d="M1132 14507 l-232 -232 50 -50 50 -49 85 84 85 85 203 -203 202 -202
65 65 65 65 -203 203 -202 202 85 85 85 84 -47 48 c-26 26 -50 48 -53 48 -3 0
-110 -105 -238 -233z"/>
<path d="M14342 14559 c-30 -5 -116 -27 -192 -49 -76 -22 -146 -40 -154 -40
-9 0 -16 -4 -16 -8 0 -4 -17 -14 -37 -21 -86 -31 -172 -112 -214 -200 -37 -79
-45 -154 -26 -261 8 -52 126 -507 261 -1009 135 -503 244 -916 242 -918 -2 -2
-43 51 -91 118 -215 299 -444 567 -749 879 -215 220 -265 260 -321 260 -85 0
-165 -85 -165 -176 0 -49 26 -158 46 -194 8 -14 484 -1781 1059 -3926 l1045
-3902 0 -110 0 -109 -54 -129 c-118 -284 -242 -543 -391 -813 l-68 -125 -13
45 c-7 24 -245 913 -529 1974 -342 1281 -526 1951 -546 1991 -35 73 -99 136
-177 172 -49 23 -73 27 -168 30 -105 3 -114 2 -177 -26 -88 -40 -159 -108
-200 -191 -31 -64 -32 -70 -31 -186 l2 -120 416 -1550 c229 -852 419 -1557
422 -1565 3 -8 -67 57 -156 145 l-160 160 -1120 -1120 c-617 -616 -1134 -1141
-1151 -1168 -38 -58 -69 -154 -69 -212 0 -103 58 -216 147 -284 49 -38 146
-71 207 -71 51 0 138 25 186 52 19 12 547 532 1173 1157 l1137 1136 280 -280
280 -279 -179 -181 c-150 -152 -183 -191 -212 -250 -29 -59 -34 -82 -37 -155
-3 -68 0 -96 18 -143 46 -123 200 -289 320 -346 48 -23 68 -26 155 -26 94 0
105 2 170 34 59 29 97 61 253 215 l182 181 295 -295 295 -295 -832 -832 -833
-833 -590 0 -590 0 476 478 c439 440 479 482 510 547 32 65 34 76 34 171 0 98
-1 103 -42 185 -50 100 -157 222 -229 261 -87 46 -147 60 -237 57 -69 -3 -94
-10 -152 -38 -66 -31 -120 -83 -885 -847 l-815 -814 -559 0 -558 0 168 173
c99 101 180 194 196 223 37 69 51 154 37 229 -44 236 -302 369 -514 263 -24
-12 -173 -153 -383 -361 l-342 -342 -225 225 -225 225 784 785 c431 432 798
807 817 835 57 86 79 150 79 240 0 90 -20 150 -83 247 -45 70 -162 172 -236
207 -49 23 -69 26 -156 26 -94 0 -105 -2 -170 -34 -66 -32 -121 -85 -880 -842
l-810 -809 -242 242 -243 243 269 270 c307 309 311 315 311 465 0 130 -22 174
-149 301 -129 129 -178 153 -301 147 -131 -6 -156 -23 -460 -324 l-266 -263
-309 309 -310 310 518 518 518 518 62 -7 c34 -4 107 -10 162 -13 l100 -7 180
312 c143 248 184 327 198 383 30 121 4 211 -83 289 -88 79 -232 95 -327 36
-59 -37 -109 -112 -348 -526 -131 -227 -243 -413 -250 -413 -52 0 -435 117
-435 132 0 6 258 457 573 1003 l572 992 264 6 c146 4 266 5 267 4 2 -2 -49
-93 -112 -203 -133 -229 -153 -285 -135 -376 15 -70 58 -138 111 -177 106 -77
296 -60 377 32 16 18 123 196 238 395 188 326 211 362 234 362 15 0 138 9 276
20 137 10 250 18 251 17 1 -1 -291 -508 -648 -1126 -357 -618 -647 -1125 -645
-1127 6 -6 256 41 364 69 l92 23 -162 -166 c-200 -203 -220 -236 -225 -380 -3
-78 0 -105 17 -150 33 -86 89 -160 166 -217 97 -73 160 -96 255 -91 150 6 56
-78 1398 1262 l1202 1201 -198 198 -198 198 -91 -153 c-50 -84 -128 -205 -173
-268 -116 -163 -305 -394 -281 -345 5 11 172 301 370 645 338 586 390 668 412
642 3 -4 67 -239 143 -522 l137 -515 182 -182 182 -183 -601 -602 c-688 -690
-649 -642 -649 -813 0 -134 20 -177 150 -319 80 -86 111 -113 164 -139 61 -30
73 -32 166 -32 94 0 105 2 170 34 65 31 113 77 662 624 557 556 591 591 578
611 -7 12 -247 896 -534 1966 -392 1465 -523 1970 -532 2045 -6 55 -15 106
-18 113 -5 8 -248 -404 -641 -1085 -348 -604 -639 -1104 -645 -1111 -13 -14
-481 -70 -492 -59 -2 3 13 36 35 74 91 159 106 216 78 301 -28 84 -97 139
-212 171 -86 23 -172 2 -229 -57 -20 -21 -100 -149 -179 -287 l-143 -250 -59
-7 c-57 -6 -537 -29 -540 -25 0 1 241 421 537 932 296 512 549 961 563 998 15
38 26 87 26 111 0 141 -109 246 -255 246 -95 0 -158 -33 -225 -117 -14 -17
-304 -516 -645 -1108 l-620 -1076 -342 3 c-188 2 -344 6 -347 9 -4 3 85 163
196 355 227 393 252 447 246 544 -7 109 -59 183 -166 236 -125 62 -310 29
-380 -68 -7 -9 -18 -23 -25 -30 -7 -7 -140 -233 -296 -503 -155 -269 -287
-494 -292 -500 -9 -9 -595 28 -606 39 -3 2 237 424 533 937 297 513 547 953
556 978 34 93 15 200 -47 264 -18 19 -59 52 -92 73 -190 127 -349 137 -456 28
-31 -31 -216 -343 -663 -1118 l-619 -1075 -35 0 c-19 0 -85 8 -147 17 l-112
17 300 520 c352 608 362 628 363 704 2 263 -289 385 -456 191 -23 -26 -164
-260 -314 -520 -149 -259 -274 -474 -277 -477 -3 -2 -13 31 -22 74 -10 43 -19
80 -22 82 -2 3 -117 -107 -256 -245 -139 -137 -269 -264 -289 -282 -42 -38
-87 -125 -117 -228 -34 -116 -25 -361 16 -454 12 -25 24 -56 28 -70 4 -14 15
-36 25 -50 10 -14 21 -36 25 -50 12 -41 36 -67 199 -230 l156 -154 -1613
-1616 c-1236 -1237 -1619 -1626 -1635 -1660 -39 -83 -75 -248 -69 -315 18
-187 112 -289 267 -289 127 -1 -13 -131 1835 1715 l1690 1689 243 -243 242
-242 -290 -290 c-361 -360 -396 -412 -388 -568 6 -122 33 -163 242 -373 225
-226 248 -239 406 -239 167 0 166 0 530 361 l306 304 249 -250 250 -250 -606
-607 c-376 -377 -616 -625 -632 -653 -67 -121 -75 -247 -23 -355 42 -84 228
-271 311 -311 54 -26 70 -29 165 -29 177 0 129 -38 840 671 l615 614 273 -273
272 -272 -888 -888 -887 -887 -544 0 -545 0 81 82 c55 58 90 104 114 153 32
65 34 76 34 170 0 140 -22 183 -169 331 -146 146 -191 169 -326 169 -175 -1
-150 17 -645 -476 l-431 -429 -499 0 -500 0 981 983 c925 926 983 986 1015
1052 31 63 34 78 34 160 0 140 -17 167 -254 406 -177 178 -202 199 -254 218
-103 37 -230 22 -336 -40 -20 -12 -657 -643 -1417 -1401 l-1381 -1380 -164 4
c-155 3 -167 5 -214 30 -59 31 -94 67 -126 128 l-24 45 -3 1345 -2 1345 1370
1370 c754 754 1393 1399 1419 1435 78 104 93 161 89 321 -2 99 -7 143 -20 169
-9 19 -19 46 -23 60 -13 46 -65 146 -93 176 -14 16 -76 80 -136 142 l-109 112
170 173 c192 194 213 229 213 352 0 124 -21 158 -209 346 -148 149 -172 169
-226 189 -47 17 -76 21 -135 18 -119 -5 -163 -32 -354 -219 l-162 -158 -265
265 -264 264 1005 1007 c553 554 1019 1018 1036 1032 78 64 134 180 134 276 0
62 -33 159 -71 208 -69 90 -181 147 -289 147 -56 0 -162 -31 -205 -60 -16 -10
-499 -489 -1072 -1062 l-1043 -1043 -250 250 -250 250 414 415 c259 259 421
430 434 455 32 65 52 149 52 218 0 54 -6 76 -33 128 -58 113 -162 169 -316
169 -78 0 -95 -3 -148 -30 -33 -16 -74 -45 -91 -62 -17 -18 -153 -154 -301
-303 l-271 -270 0 485 0 485 778 780 c849 850 809 804 840 957 30 142 -8 259
-117 369 -149 148 -339 169 -511 56 -25 -16 -314 -298 -643 -626 -486 -483
-610 -613 -659 -684 -33 -49 -66 -104 -74 -123 -12 -29 -14 -899 -14 -6039 l0
-6005 1123 0 1122 0 37 94 37 94 -47 122 -46 123 23 18 c29 24 67 24 79 2 5
-10 15 -51 22 -91 8 -40 16 -69 20 -65 3 4 17 43 30 86 l24 77 38 0 c25 0 41
-5 44 -15 3 -7 -26 -107 -65 -220 -39 -114 -71 -211 -71 -216 0 -5 651 -9
1673 -9 l1672 0 37 94 37 94 -47 122 -46 123 23 18 c29 24 67 24 79 2 5 -10
15 -51 22 -91 8 -40 16 -69 20 -65 3 4 17 43 30 86 l24 77 38 0 c25 0 41 -5
44 -15 3 -7 -26 -107 -65 -220 -39 -114 -71 -211 -71 -216 0 -5 2348 -9 6080
-9 l6080 0 0 1245 0 1244 -335 1253 c-185 689 -347 1286 -360 1326 -43 132
-134 222 -259 258 -73 20 -204 14 -311 -16 -38 -11 -106 -28 -150 -39 -208
-53 -294 -99 -358 -193 -20 -29 -43 -77 -51 -107 -37 -128 -63 -20 525 -2215
298 -1112 544 -2027 546 -2033 4 -10 -23 -13 -113 -13 l-118 0 44 45 45 45
-278 278 -277 277 -323 -323 -322 -322 -470 0 -470 0 558 558 557 557 -91 92
-92 91 -378 1413 -379 1413 0 122 c0 120 1 126 50 273 173 524 295 1089 349
1621 9 96 20 166 24 155 3 -11 52 -193 108 -405 57 -212 106 -387 109 -390 4
-3 17 -27 29 -53 13 -27 45 -70 71 -97 116 -115 262 -136 500 -71 41 11 134
34 205 50 103 25 141 39 183 67 100 70 162 190 162 316 0 43 -21 139 -75 341
-1335 4985 -2009 7492 -2019 7514 -8 15 -22 46 -32 68 -10 22 -45 67 -79 100
-107 108 -219 141 -383 114z m120 -2989 c644 -1075 1008 -2271 1078 -3540 11
-201 12 -563 1 -703 l-6 -88 -609 2273 c-335 1250 -611 2280 -614 2288 -9 28
45 -54 150 -230z m-13852 -1945 c0 0 -47 -47 -105 -105 l-105 -105 0 210 0
210 105 -105 c58 -58 105 -105 105 -105z m780 -780 l225 -225 -608 -608 -607
-607 0 455 0 455 377 377 c208 208 380 378 383 378 3 0 106 -101 230 -225z
m10245 -912 c-14 -81 -41 -210 -60 -285 -31 -125 -41 -149 -112 -272 l-78
-135 -90 -16 c-49 -9 -105 -19 -124 -22 l-34 -6 34 60 c194 342 485 838 487
832 2 -4 -9 -74 -23 -156z m-10013 -1766 l-1222 -1222 0 650 0 650 897 897
898 898 325 -325 325 -325 -1223 -1223z m3156 972 c40 -6 72 -14 70 -18 -13
-30 -91 -162 -98 -166 -7 -4 -64 118 -84 183 -7 20 -5 22 16 18 13 -3 56 -10
96 -17z m6282 4 c0 -3 -233 -410 -517 -903 l-518 -898 -125 -81 c-146 -96
-476 -263 -640 -325 -63 -24 -117 -42 -119 -40 -2 2 277 489 620 1083 l623
1079 101 12 c55 7 199 27 320 45 253 37 255 37 255 28z m-5555 -98 c127 -13
270 -28 318 -31 48 -4 89 -10 91 -13 3 -4 -21 -51 -52 -106 -50 -88 -57 -106
-57 -155 1 -99 42 -147 215 -247 96 -56 124 -66 175 -67 106 0 144 39 290 294
65 113 123 211 130 219 11 11 62 11 316 1 167 -7 306 -14 308 -16 2 -1 -218
-386 -488 -854 -395 -683 -490 -854 -480 -866 15 -18 447 -234 468 -234 9 0
-146 -162 -344 -360 l-360 -360 -377 377 -378 378 259 260 258 260 86 151
c178 309 169 387 -60 519 -28 17 -73 43 -99 60 -90 55 -198 31 -262 -59 -16
-23 -45 -70 -65 -106 -59 -104 -52 -99 -89 -57 l-33 38 -265 -266 -265 -265
-212 212 -213 213 308 310 c295 296 312 315 369 415 226 396 223 392 252 386
14 -3 130 -17 256 -31z m9060 -3533 c31 -118 55 -215 53 -218 -2 -2 -57 49
-121 114 l-117 117 62 102 c35 56 63 101 64 100 1 -1 28 -98 59 -215z m-5992
-2484 l-318 -318 -605 0 -605 0 620 620 620 620 302 -302 303 -303 -317 -317z
m887 -253 l64 -65 -134 0 -134 0 64 65 c35 36 67 65 70 65 3 0 35 -29 70 -65z
m-877 -198 c16 -11 17 -33 15 -222 l-3 -210 -45 0 -45 0 -3 214 c-2 165 1 216
10 223 19 12 52 10 71 -5z m3940 0 c16 -11 17 -33 15 -222 l-3 -210 -45 0 -45
0 -3 214 c-2 165 1 216 10 223 19 12 52 10 71 -5z m-11866 -33 c43 -32 44 -91
3 -137 -16 -19 -48 -42 -70 -51 l-40 -16 0 -70 c0 -76 -10 -90 -67 -90 -53 0
-54 3 -51 186 l3 169 35 18 c48 25 149 19 187 -9z m134 16 c18 -10 19 -23 19
-186 l0 -174 -25 -10 c-16 -6 -34 -6 -50 0 l-25 10 0 179 c0 134 3 181 13 184
21 9 47 7 68 -3z m903 4 c11 -4 16 -19 16 -44 0 -35 3 -39 28 -42 23 -3 27 -8
30 -40 3 -36 2 -38 -27 -38 l-30 0 -3 -107 -3 -108 -40 0 -40 0 -3 107 c-3
102 -4 107 -25 110 -18 2 -22 9 -22 38 0 29 4 36 23 38 18 3 22 10 22 42 0 28
5 40 18 43 27 7 39 7 56 1z m1257 -11 c44 -26 64 -76 63 -158 -1 -154 -117
-258 -218 -196 -42 26 -66 71 -73 134 -7 68 10 129 50 174 54 61 122 79 178
46z m1036 9 c6 -4 27 -41 45 -82 l35 -75 18 55 c33 103 41 111 88 108 l42 -3
3 -182 c2 -177 2 -182 -19 -193 -11 -7 -32 -9 -45 -6 -22 6 -24 11 -25 79 l-1
72 -17 -70 c-13 -56 -20 -70 -35 -70 -15 0 -25 16 -42 65 l-22 65 -1 -72 c-1
-70 -2 -73 -27 -79 -15 -4 -39 -3 -53 2 l-26 9 -3 179 c-2 123 1 183 9 192 12
15 56 19 76 6z m2290 0 c6 -4 27 -41 45 -82 l35 -75 18 55 c33 103 41 111 88
108 l42 -3 3 -182 c2 -177 2 -182 -19 -193 -11 -7 -32 -9 -45 -6 -22 6 -24 11
-25 79 l-1 72 -17 -70 c-13 -56 -20 -70 -35 -70 -15 0 -25 16 -42 65 l-22 65
-1 -72 c-1 -70 -2 -73 -27 -79 -15 -4 -39 -3 -53 2 l-26 9 -3 179 c-2 123 1
183 9 192 12 15 56 19 76 6z m1597 2 c11 -4 16 -19 16 -44 0 -35 3 -39 28 -42
23 -3 27 -8 30 -40 3 -36 2 -38 -27 -38 l-30 0 -3 -107 -3 -108 -40 0 -40 0
-3 106 c-3 105 -3 107 -27 112 l-25 4 0 -101 c0 -66 -4 -106 -12 -114 -18 -18
-75 -15 -86 4 -7 13 -13 14 -30 5 -33 -17 -51 -13 -83 18 -35 36 -38 85 -10
148 21 45 52 71 91 75 14 2 30 9 36 17 8 10 23 12 52 8 23 -3 45 -1 48 4 3 5
14 9 25 9 16 0 19 7 19 39 0 29 5 41 18 44 27 7 39 7 56 1z m210 0 c11 -4 16
-19 16 -44 0 -35 3 -39 28 -42 23 -3 27 -8 30 -40 3 -36 2 -38 -27 -38 l-30 0
-3 -107 -3 -108 -40 0 -40 0 -3 107 c-3 102 -4 107 -25 110 -18 2 -22 9 -22
38 0 29 4 36 23 38 18 3 22 10 22 42 0 28 5 40 18 43 27 7 39 7 56 1z m833 -2
c6 -4 27 -41 45 -82 l35 -75 18 55 c33 103 41 111 88 108 l42 -3 3 -182 c2
-177 2 -182 -19 -193 -11 -7 -32 -9 -45 -6 -22 6 -24 11 -25 79 l-1 72 -17
-70 c-13 -56 -20 -70 -35 -70 -15 0 -25 16 -42 65 l-22 65 -1 -72 c-1 -70 -2
-73 -27 -79 -15 -4 -39 -3 -53 2 l-26 9 -3 179 c-2 123 1 183 9 192 12 15 56
19 76 6z m1027 2 c12 -5 16 -21 16 -72 l0 -65 24 22 c55 52 93 -4 103 -152 l6
-96 -26 -12 c-48 -22 -57 -9 -57 86 0 63 -3 85 -13 85 -27 0 -37 -25 -37 -97
0 -68 -1 -73 -24 -79 -61 -15 -61 -16 -64 184 -2 182 -2 183 20 192 29 11 33
11 52 4z m564 -23 c2 -13 -6 -37 -18 -53 l-21 -29 26 -20 c73 -58 73 -151 0
-219 -21 -20 -37 -25 -75 -25 -38 0 -54 5 -75 25 -35 33 -48 66 -35 91 11 19
50 27 50 10 0 -5 14 -14 31 -20 33 -11 68 -1 70 22 5 46 -19 71 -69 72 -31 0
-38 4 -40 24 -3 17 5 31 25 47 l28 23 -47 1 c-37 0 -48 4 -53 20 -3 10 -1 29
5 40 10 19 19 20 103 18 88 -3 92 -4 95 -27z m500 -155 c2 -123 -1 -183 -9
-192 -18 -22 -68 -18 -77 7 l-8 20 -18 -20 c-24 -27 -58 -27 -82 0 -28 31 -27
170 2 219 18 31 25 35 62 34 l42 -1 0 48 c0 53 16 71 60 66 l25 -2 3 -179z
m639 158 c34 -22 56 -72 61 -144 6 -85 -11 -145 -53 -187 -40 -40 -88 -44
-130 -11 -39 31 -55 77 -55 160 0 157 83 242 177 182z m243 -119 l0 -145 30 0
c23 0 31 -5 36 -25 3 -14 3 -36 0 -50 l-7 -26 -107 3 c-104 3 -107 4 -110 27
-2 12 -1 34 2 47 5 20 13 24 41 24 l35 0 0 90 0 90 -25 -10 c-20 -8 -27 -6
-35 10 -30 57 15 108 98 109 l42 1 0 -145z m290 126 c16 -31 12 -38 -27 -58
-34 -16 -83 -73 -83 -95 0 -5 10 -2 22 6 31 22 84 20 107 -3 48 -48 26 -162
-38 -195 -70 -37 -151 -6 -172 64 -17 57 0 157 38 218 44 70 130 106 153 63z
m874 13 c14 -5 16 -31 16 -185 0 -169 -1 -179 -20 -189 -12 -6 -35 -10 -53 -8
-28 3 -36 11 -69 73 l-37 70 -1 -73 0 -73 -57 3 -58 3 0 185 0 185 49 0 48 0
39 -95 38 -95 0 97 c1 67 5 98 14 101 18 8 73 8 91 1z m267 -11 c44 -26 64
-76 63 -158 -1 -154 -117 -258 -218 -196 -42 26 -66 71 -73 134 -7 68 10 129
50 174 54 61 122 79 178 46z m506 -9 c52 -39 54 -97 7 -153 l-26 -31 43 -66
c38 -59 41 -67 26 -81 -8 -9 -37 -18 -64 -20 l-48 -5 -30 63 -30 62 -5 -64
c-4 -57 -8 -65 -30 -72 -15 -5 -36 -5 -53 2 l-27 11 2 172 3 173 50 18 c63 22
146 18 182 -9z m298 5 c4 -11 4 -31 1 -45 -5 -19 -13 -24 -36 -24 l-30 0 0
-95 0 -95 34 0 c30 0 35 -4 41 -29 3 -17 1 -39 -5 -50 -10 -19 -20 -21 -111
-21 -94 0 -100 1 -110 23 -16 35 4 77 36 77 25 0 25 0 25 95 0 92 -1 95 -23
95 -29 0 -47 18 -47 45 0 38 19 45 121 45 90 0 98 -2 104 -21z m436 11 c16 -9
19 -22 19 -85 0 -68 2 -75 20 -75 18 0 20 7 20 79 0 85 4 91 60 91 48 0 51
-13 48 -201 l-3 -174 -52 -3 -53 -3 0 65 c0 59 -2 66 -20 66 -16 0 -19 -8 -22
-62 l-3 -63 -57 -3 -58 -3 0 185 c0 138 3 186 13 189 22 9 68 7 88 -3z m699
-15 c9 -25 5 -49 -12 -72 -7 -8 -16 -9 -32 -2 -33 16 -76 -4 -76 -36 0 -19 10
-29 43 -46 63 -32 77 -48 77 -88 0 -73 -53 -111 -154 -111 -71 0 -86 11 -86
64 0 47 8 55 45 43 35 -10 65 -5 65 13 0 6 -20 19 -44 30 -80 34 -84 92 -12
164 43 43 87 63 144 65 26 1 34 -4 42 -24z m447 -1 c52 -39 54 -97 7 -153
l-26 -31 43 -66 c38 -59 41 -67 26 -81 -8 -9 -37 -18 -64 -20 l-48 -5 -30 63
-30 62 -5 -64 c-4 -57 -8 -65 -30 -72 -15 -5 -36 -5 -53 2 l-27 11 2 172 3
173 50 18 c63 22 146 18 182 -9z m311 -2 c6 -40 -14 -52 -84 -52 l-64 0 0 -30
c0 -29 2 -30 45 -30 45 0 45 0 45 -35 0 -35 0 -35 -45 -35 l-45 0 0 -40 0 -40
70 0 c65 0 70 -2 76 -24 3 -13 1 -34 -6 -45 -10 -19 -19 -21 -120 -21 l-110 0
0 190 0 191 118 -3 c114 -3 117 -4 120 -26z m262 3 c9 -25 5 -49 -12 -72 -7
-8 -16 -9 -32 -2 -33 16 -76 -4 -76 -36 0 -19 10 -29 43 -46 63 -32 77 -48 77
-88 0 -73 -53 -111 -154 -111 -71 0 -86 11 -86 64 0 47 8 55 45 43 35 -10 65
-5 65 13 0 6 -20 19 -44 30 -80 34 -84 92 -12 164 43 43 87 63 144 65 26 1 34
-4 42 -24z m258 -3 c6 -40 -14 -52 -84 -52 l-64 0 0 -30 c0 -29 2 -30 45 -30
45 0 45 0 45 -35 0 -35 0 -35 -45 -35 l-45 0 0 -40 0 -40 70 0 c65 0 70 -2 76
-24 3 -13 1 -34 -6 -45 -10 -19 -19 -21 -120 -21 l-110 0 0 190 0 191 118 -3
c114 -3 117 -4 120 -26z m259 2 c52 -39 54 -97 7 -153 l-26 -31 43 -66 c38
-59 41 -67 26 -81 -8 -9 -37 -18 -64 -20 l-48 -5 -30 63 -30 62 -5 -64 c-4
-57 -8 -65 -30 -72 -15 -5 -36 -5 -53 2 l-27 11 2 172 3 173 50 18 c63 22 146
18 182 -9z m176 12 c8 -8 25 -53 38 -100 13 -47 26 -86 30 -86 3 0 14 37 24
83 24 109 29 117 69 117 60 0 61 -10 14 -206 l-43 -179 -63 -3 c-34 -2 -62 0
-62 3 0 3 -25 84 -56 181 -30 97 -52 180 -47 184 9 9 38 17 65 19 9 0 23 -5
31 -13z m475 -14 c6 -40 -14 -52 -84 -52 l-64 0 0 -30 c0 -29 2 -30 45 -30 45
0 45 0 45 -35 0 -35 0 -35 -45 -35 l-45 0 0 -40 0 -40 70 0 c65 0 70 -2 76
-24 3 -13 1 -34 -6 -45 -10 -19 -19 -21 -120 -21 l-110 0 0 190 0 191 118 -3
c114 -3 117 -4 120 -26z m157 9 c79 -36 126 -103 127 -180 0 -108 -83 -181
-207 -181 l-55 0 0 184 c0 138 3 186 13 189 27 11 84 6 122 -12z m-14271 3
c12 -5 16 -21 16 -66 l0 -60 26 16 c79 52 147 -51 114 -173 -17 -63 -51 -94
-98 -88 -20 2 -48 0 -62 -5 -13 -5 -35 -7 -47 -3 -23 5 -23 6 -23 185 0 160 2
180 18 189 20 12 34 13 56 5z m2200 0 c12 -5 16 -21 16 -66 l0 -60 26 16 c79
52 147 -51 114 -173 -17 -63 -51 -94 -98 -88 -20 2 -48 0 -62 -5 -13 -5 -35
-7 -47 -3 -23 5 -23 6 -23 185 0 160 2 180 18 189 20 12 34 13 56 5z m5898
-20 c45 -42 26 -151 -40 -222 l-38 -41 50 -3 c55 -3 64 -15 52 -64 -7 -25 -7
-25 -119 -22 l-112 3 -3 36 c-3 32 2 40 37 68 49 39 110 120 113 152 4 36 -30
26 -70 -19 l-34 -37 -19 24 c-25 30 -18 65 19 104 45 47 123 57 164 21z m2928
11 c32 -16 38 -41 19 -77 -9 -16 -17 -19 -41 -14 -16 3 -41 3 -54 0 -51 -13
-73 -120 -34 -162 25 -27 41 -28 70 -4 l22 18 -27 -1 c-34 0 -50 23 -41 58 6
26 8 27 87 27 l80 0 -3 -102 -3 -103 -37 -3 c-33 -3 -38 0 -38 17 l0 21 -32
-20 c-50 -31 -94 -26 -133 13 -80 80 -69 274 19 328 38 23 106 25 146 4z m667
-1 c3 -9 2 -28 -3 -43 -8 -21 -17 -27 -47 -29 l-37 -3 0 -135 c0 -130 -1 -135
-23 -145 -15 -7 -31 -7 -50 0 l-27 11 0 134 0 135 -42 3 c-39 3 -43 6 -46 31
-7 56 -4 57 138 57 111 0 132 -2 137 -16z m-13484 -105 c54 -58 19 -129 -64
-129 -28 0 -39 -4 -39 -15 0 -23 45 -29 81 -11 41 20 46 20 59 -4 36 -68 -110
-122 -178 -65 -40 34 -55 75 -50 136 6 61 33 100 79 116 45 15 78 7 112 -28z
m3400 0 c54 -58 19 -129 -64 -129 -28 0 -39 -4 -39 -15 0 -23 45 -29 81 -11
41 20 46 20 59 -4 36 -68 -110 -122 -178 -65 -40 34 -55 75 -50 136 6 61 33
100 79 116 45 15 78 7 112 -28z m2290 0 c54 -58 19 -129 -64 -129 -28 0 -39
-4 -39 -15 0 -24 45 -29 85 -9 36 17 38 17 51 -1 12 -16 14 -7 14 71 0 57 4
94 12 102 17 17 57 15 64 -2 4 -12 11 -12 29 -4 53 24 110 -27 103 -90 -4 -36
-42 -42 -66 -12 -17 21 -19 21 -35 5 -13 -12 -17 -34 -17 -91 0 -70 -1 -74
-24 -80 -43 -10 -61 -1 -67 36 -4 19 -7 29 -8 22 -2 -22 -64 -52 -108 -52 -78
0 -130 68 -121 161 6 61 33 100 79 116 45 15 78 7 112 -28z m-6179 25 c13 -5
16 -27 16 -133 0 -85 -4 -131 -12 -139 -18 -18 -75 -15 -86 4 -7 13 -13 14
-30 5 -33 -17 -51 -13 -83 18 -22 22 -29 39 -29 68 1 79 55 153 115 157 13 0
27 7 30 14 5 13 52 16 79 6z m930 0 c13 -5 16 -27 16 -133 0 -85 -4 -131 -12
-139 -18 -18 -75 -15 -86 4 -7 13 -13 14 -30 5 -33 -17 -51 -13 -83 18 -22 22
-29 39 -29 68 1 79 55 153 115 157 13 0 27 7 30 14 5 13 52 16 79 6z m102 -8
c4 -12 11 -12 29 -4 53 24 110 -27 103 -90 -4 -36 -42 -42 -66 -12 -17 21 -19
21 -35 5 -13 -12 -17 -34 -17 -91 0 -70 -1 -74 -24 -80 -59 -14 -61 -10 -64
130 -2 86 1 133 9 142 15 18 58 18 65 0z m1020 0 c4 -12 11 -12 29 -4 53 24
110 -27 103 -90 -4 -36 -42 -42 -66 -12 -17 21 -19 21 -35 5 -13 -12 -17 -34
-17 -91 0 -70 -1 -74 -24 -80 -59 -14 -61 -10 -64 130 -2 86 1 133 9 142 15
18 58 18 65 0z m552 8 c16 -5 22 -14 22 -35 0 -26 -4 -29 -30 -29 -40 0 -38
-10 10 -49 51 -41 53 -75 9 -125 -36 -42 -84 -54 -126 -34 -23 11 -28 20 -28
48 l0 35 53 -3 c43 -3 52 -1 52 13 0 9 -16 22 -37 32 -53 21 -73 42 -73 73 0
26 29 62 60 73 21 8 61 8 88 1z m816 0 c13 -5 16 -27 16 -133 0 -85 -4 -131
-12 -139 -18 -18 -75 -15 -86 4 -7 13 -13 14 -30 5 -33 -17 -51 -13 -83 18
-22 22 -29 39 -29 68 1 79 55 153 115 157 13 0 27 7 30 14 5 13 52 16 79 6z
m2290 0 c13 -5 16 -27 16 -133 0 -85 -4 -131 -12 -139 -18 -18 -75 -15 -86 4
-7 13 -13 14 -30 5 -33 -17 -51 -13 -83 18 -22 22 -29 39 -29 68 1 79 55 153
115 157 13 0 27 7 30 14 5 13 52 16 79 6z m1500 0 c13 -5 16 -27 16 -135 l0
-129 -25 -6 c-14 -3 -36 -3 -50 0 l-25 6 0 129 c0 94 3 131 13 134 18 8 53 8
71 1z m1140 0 c13 -5 16 -27 16 -133 0 -85 -4 -131 -12 -139 -18 -18 -75 -15
-86 4 -7 13 -13 14 -30 5 -33 -17 -51 -13 -83 18 -22 22 -29 39 -29 68 1 79
55 153 115 157 13 0 27 7 30 14 5 13 52 16 79 6z m102 -8 c4 -12 11 -12 29 -4
53 24 110 -27 103 -90 -4 -36 -42 -42 -66 -12 -17 21 -19 21 -35 5 -13 -12
-17 -34 -17 -91 0 -70 -1 -74 -24 -80 -59 -14 -61 -10 -64 130 -2 86 1 133 9
142 15 18 58 18 65 0z m329 -11 c29 -28 31 -47 9 -69 -20 -20 -40 -20 -48 -1
-8 22 -21 18 -34 -10 -24 -52 -3 -94 33 -65 22 18 60 8 63 -18 4 -27 -43 -78
-81 -87 -58 -15 -117 49 -117 128 0 47 20 87 60 121 40 33 83 34 115 1z m801
11 c4 -12 11 -12 29 -4 53 24 110 -27 103 -90 -4 -36 -42 -42 -66 -12 -17 21
-19 21 -35 5 -13 -12 -17 -34 -17 -91 0 -70 -1 -74 -24 -80 -59 -14 -61 -10
-64 130 -2 86 1 133 9 142 15 18 58 18 65 0z m-9466 -11 c0 -13 5 -13 34 2 80
38 118 -10 124 -159 4 -97 4 -97 -21 -103 -55 -14 -62 -6 -67 77 -5 81 -16
102 -46 96 -16 -3 -19 -15 -22 -86 -3 -77 -4 -82 -27 -88 -13 -3 -33 -3 -44 1
-20 6 -21 14 -21 135 0 139 0 138 58 139 22 1 32 -4 32 -14z m3538 3 c7 -7 12
-29 12 -49 0 -33 -6 -41 -51 -75 l-50 -39 51 -3 c42 -3 53 -7 61 -26 8 -17 8
-30 -1 -45 -10 -20 -17 -22 -118 -19 -94 3 -107 5 -110 21 -7 37 8 63 64 107
l57 45 -59 5 c-56 5 -59 6 -62 33 -6 54 0 57 101 57 59 0 97 -4 105 -12z
m2290 0 c7 -7 12 -29 12 -49 0 -33 -6 -41 -51 -75 l-50 -39 51 -3 c42 -3 53
-7 61 -26 8 -17 8 -30 -1 -45 -10 -20 -17 -22 -118 -19 -94 3 -107 5 -110 21
-7 37 8 63 64 107 l57 45 -59 5 c-56 5 -59 6 -62 33 -6 54 0 57 101 57 59 0
97 -4 105 -12z"/>
<path d="M775 14130 l-60 -60 165 -165 c180 -180 181 -183 38 -131 -38 13 -68
22 -68 20 0 -1 -19 4 -42 12 -24 9 -51 17 -60 19 -9 2 -26 9 -37 15 -12 6 -21
8 -21 5 0 -3 -8 -1 -17 4 -10 5 -31 11 -48 14 -16 3 -43 11 -58 18 -27 12 -30
11 -103 -62 l-74 -74 250 -250 250 -250 62 63 63 62 -165 165 c-91 91 -158
164 -150 161 8 -3 26 -8 40 -10 14 -3 55 -16 92 -29 37 -14 69 -23 71 -21 2 3
25 -4 51 -15 25 -11 46 -18 46 -15 0 2 9 0 21 -6 11 -6 29 -13 40 -16 17 -3
42 -10 74 -18 6 -1 21 -6 34 -10 20 -7 33 2 97 65 l74 74 -247 247 c-136 137
-250 248 -253 248 -3 0 -32 -27 -65 -60z"/>
<path d="M127 13502 l-127 -127 0 -95 0 -95 208 -208 207 -207 180 180 180
180 -50 50 -49 50 -118 -117 -118 -118 -55 55 -55 54 107 108 107 108 -49 50
-49 50 -108 -107 -108 -107 -50 49 -50 49 115 116 115 116 -48 47 c-26 26 -50
47 -52 47 -3 0 -63 -57 -133 -128z"/>
<path d="M16970 8608 c-184 -50 -339 -93 -343 -98 -8 -7 109 -467 122 -482 5
-6 117 18 130 28 2 2 -16 73 -39 159 -23 86 -40 158 -38 159 7 6 125 36 139
36 10 0 24 -40 48 -132 19 -73 37 -137 41 -141 7 -8 116 15 127 27 4 3 -11 67
-31 143 -20 75 -33 139 -29 143 4 4 34 14 66 23 44 12 59 13 62 4 2 -7 21 -75
41 -152 21 -77 38 -141 40 -143 1 -2 124 29 132 33 3 3 -118 457 -127 471 -4
8 -113 -17 -341 -78z"/>
<path d="M17418 8068 c-36 -47 -80 -98 -114 -134 -12 -13 -20 -25 -17 -28 3
-2 -5 -9 -16 -16 -12 -6 -21 -15 -21 -20 0 -16 -76 -90 -84 -82 -4 4 -11 7
-14 7 -4 1 -18 7 -32 15 -14 7 -27 13 -30 13 -3 0 -15 3 -28 8 -13 5 -29 9
-37 9 -8 0 -16 4 -19 9 -3 5 -18 12 -33 15 -16 4 -57 18 -93 31 -36 13 -75 26
-87 30 l-22 6 23 -84 c27 -96 32 -107 51 -107 8 0 24 -4 37 -9 13 -5 27 -9 31
-9 4 0 19 -8 33 -16 13 -9 24 -14 24 -10 0 4 6 2 13 -4 6 -5 26 -13 42 -16 17
-4 39 -14 50 -22 19 -14 19 -16 3 -28 -10 -7 -18 -16 -18 -19 0 -4 -15 -21
-33 -39 -18 -19 -36 -41 -40 -51 -3 -9 -11 -17 -17 -17 -5 0 -10 -5 -10 -10 0
-6 -12 -21 -27 -34 l-26 -23 18 -74 c10 -41 22 -84 26 -97 9 -23 9 -22 41 15
18 21 39 42 45 46 7 4 13 12 13 18 0 5 16 25 35 45 19 19 35 39 35 45 0 5 7
12 15 15 8 4 15 10 15 14 0 4 13 23 29 42 16 18 38 44 49 57 13 17 23 22 33
15 16 -10 165 -63 193 -69 11 -3 24 -9 30 -15 5 -5 17 -10 26 -10 8 0 27 -6
42 -14 15 -8 40 -17 57 -21 l30 -6 -24 87 c-23 83 -35 103 -61 104 -7 0 -25 7
-40 15 -16 8 -36 15 -45 15 -9 0 -19 3 -23 8 -4 4 -11 7 -14 8 -4 0 -14 3 -22
6 -8 4 -24 9 -35 14 -11 4 -23 6 -27 6 -19 -4 -5 27 31 66 21 23 36 42 33 42
-3 0 6 10 19 23 14 12 36 38 51 57 l26 35 -23 89 c-14 49 -26 91 -29 93 -2 2
-19 -15 -38 -39z"/>
<path d="M17323 7222 c-177 -48 -324 -90 -328 -93 -6 -7 28 -156 38 -166 4 -3
527 132 669 173 15 4 14 12 -6 87 -14 51 -28 83 -37 84 -8 1 -159 -37 -336
-85z"/>
<path d="M17668 7024 c-27 -8 -48 -16 -48 -17 0 -1 13 -51 30 -112 16 -60 26
-113 22 -116 -4 -3 -124 -36 -267 -74 -143 -38 -263 -71 -267 -74 -5 -5 29
-157 38 -170 2 -2 125 30 274 69 148 40 273 71 276 68 2 -3 16 -48 30 -99 13
-52 27 -101 30 -110 4 -15 9 -15 64 0 32 9 62 19 65 23 4 4 -30 147 -76 317
-93 347 -79 323 -171 295z"/>
</g>
</svg>
