<?xml version="1.0" standalone="no"?>
<!DOCTYPE svg PUBLIC "-//W3C//DTD SVG 20010904//EN"
 "http://www.w3.org/TR/2001/REC-SVG-20010904/DTD/svg10.dtd">
<svg version="1.0" xmlns="http://www.w3.org/2000/svg"
 width="1800.000000pt" height="1800.000000pt" viewBox="0 0 1800.000000 1800.000000"
 preserveAspectRatio="xMidYMid meet">

<g transform="translate(0.000000,1800.000000) scale(0.100000,-0.100000)"
fill="#000000" stroke="none">
<path d="M520 13885 l0 -4115 25 16 25 16 0 4089 0 4089 555 0 555 0 0 -3770
0 -3770 25 16 25 16 0 3764 0 3764 -605 0 -605 0 0 -4115z"/>
<path d="M4060 14910 c0 -1699 3 -3090 8 -3090 4 0 15 7 25 14 16 13 17 171
17 3080 l0 3066 405 0 405 0 0 -2820 c0 -2498 -2 -2821 -15 -2826 -8 -4 -15
-15 -15 -25 0 -19 47 -19 2115 -19 l2116 0 -133 -117 c-271 -238 -327 -294
-415 -417 -79 -112 -193 -318 -193 -351 0 -13 -278 -15 -2556 -15 l-2555 0
-490 -282 c-352 -204 -489 -288 -489 -300 0 -17 150 -18 3065 -18 l3065 0 5
-22 c3 -13 14 -66 25 -118 30 -141 71 -235 133 -303 51 -58 54 -59 145 -81
l92 -22 -182 -27 c-112 -17 -245 -45 -341 -72 l-159 -44 -302 -176 -303 -176
-164 -189 c-90 -105 -175 -212 -189 -240 l-24 -50 -3578 0 -3578 0 0 -450 0
-450 1753 -1 c1359 0 1748 -3 1733 -12 -10 -7 -133 -96 -273 -198 -233 -171
-281 -211 -560 -475 l-306 -289 -106 -160 c-59 -88 -118 -180 -131 -203 l-24
-42 -1043 0 -1043 0 0 -369 0 -369 62 -17 c35 -9 151 -40 258 -69 l195 -52 3
-3057 2 -3057 605 0 605 0 0 2894 0 2895 33 -9 c39 -12 61 -36 189 -220 56
-80 140 -187 187 -238 73 -81 97 -100 171 -137 92 -46 200 -80 380 -121 108
-24 126 -25 280 -19 141 6 185 12 305 41 363 90 506 136 787 250 155 63 297
123 315 134 33 19 53 20 489 20 281 0 454 -4 454 -10 0 -5 -12 -70 -26 -144
l-26 -135 31 -148 c25 -120 48 -191 122 -375 81 -204 98 -236 160 -320 39 -51
75 -96 82 -99 37 -21 552 -213 665 -248 l132 -42 0 -1984 0 -1985 410 0 410 0
2 2027 3 2027 125 26 c119 25 142 35 449 183 179 87 395 195 480 242 147 79
166 93 316 231 380 348 627 590 686 671 l60 83 3390 0 3389 0 0 25 c0 14 -63
261 -140 548 l-140 522 0 1398 0 1398 55 115 c41 86 66 157 96 277 l41 162 -7
149 c-7 143 -10 159 -65 350 -32 111 -72 237 -89 281 l-31 80 0 3602 0 3603
-290 0 -290 0 0 -3365 c0 -1851 -3 -3365 -7 -3365 -5 0 -75 29 -156 65 l-148
64 -252 37 -252 36 -340 -6 c-258 -5 -375 -12 -483 -27 -79 -11 -146 -18 -148
-16 -3 2 108 89 246 192 218 164 267 205 373 319 160 172 295 373 333 496 24
81 25 93 19 230 -8 180 -25 251 -117 495 -58 150 -85 208 -133 279 -55 81 -68
93 -152 145 l-91 56 -22 80 c-12 44 -26 97 -32 118 l-11 37 -3191 0 -3191 0
-139 -80 c-76 -44 -140 -80 -142 -80 -2 0 -4 965 -4 2145 l0 2145 -410 0 -410
0 0 -2400 0 -2400 25 16 25 16 0 2374 0 2374 360 0 360 0 0 -2152 0 -2153 -95
-54 c-68 -38 -95 -58 -95 -72 0 -19 49 -19 2297 -21 l2298 -3 -140 -39 c-77
-22 -270 -86 -430 -144 -242 -86 -351 -133 -659 -279 -311 -149 -406 -199
-608 -325 l-240 -148 -2105 0 -2106 0 -182 -105 c-100 -58 -185 -105 -188
-105 -4 0 -7 1265 -7 2810 l0 2810 -455 0 -455 0 0 -3090z m11790 -482 l0
-3553 -33 53 c-41 67 -261 233 -372 282 l-75 33 0 3368 0 3369 240 0 240 0 0
-3552z m-1910 -669 c12 -44 20 -83 18 -85 -2 -2 -60 12 -129 31 -183 51 -434
75 -789 75 l-275 0 -310 -55 c-217 -39 -368 -72 -502 -110 l-193 -55 -2321 2
-2321 3 238 138 239 137 3161 0 3162 0 22 -81z m-450 -29 c144 -15 227 -29
318 -54 124 -35 156 -50 292 -137 106 -69 159 -149 250 -384 56 -143 126 -365
116 -365 -1 0 -23 29 -49 64 -44 60 -58 70 -200 150 -144 80 -162 88 -286 116
-129 29 -141 30 -380 30 l-246 0 -380 -64 c-220 -37 -562 -104 -813 -160
l-434 -95 -576 -216 c-317 -119 -585 -221 -597 -227 -11 -6 -195 -114 -410
-241 -312 -185 -462 -281 -750 -483 -357 -250 -361 -253 -445 -355 -47 -57
-104 -127 -128 -155 -31 -37 -57 -89 -92 -179 l-49 -126 -11 -195 -12 -195 57
-75 c31 -42 55 -77 53 -78 -1 -2 -17 1 -34 5 -44 12 -119 103 -153 187 -33 80
-56 182 -111 488 l-39 222 15 96 c12 81 23 114 69 205 30 60 92 162 139 227
90 128 141 178 473 467 177 155 191 165 580 406 380 235 415 254 768 423 467
223 766 333 1351 498 334 94 435 118 690 164 l299 54 265 1 c200 1 314 -4 460
-19z m421 -640 c124 -28 142 -36 283 -115 150 -84 152 -85 213 -168 l62 -84 6
-94 c10 -144 -18 -222 -142 -409 -161 -243 -259 -339 -633 -620 -511 -384
-609 -449 -900 -598 -633 -324 -959 -450 -1625 -628 -391 -104 -462 -120 -785
-174 -327 -54 -375 -60 -600 -70 l-246 -10 -254 40 c-245 38 -260 42 -391 96
l-136 55 -62 84 -61 83 11 176 c11 176 11 176 59 302 35 89 61 141 92 178 24
28 79 96 123 149 78 96 87 103 440 351 290 203 436 297 750 483 215 127 399
235 410 241 12 6 280 108 597 227 l576 216 434 95 c238 53 600 124 803 159
l370 63 236 1 c229 1 241 0 370 -29z m-4416 -538 c-6 -5 -64 -42 -130 -82 -66
-41 -141 -91 -166 -112 l-45 -38 -2092 2 -2093 3 203 117 203 117 2065 1
c1135 0 2060 -4 2055 -8z m5248 -1147 l246 -36 258 -112 c247 -108 264 -117
387 -210 125 -94 132 -101 188 -195 55 -93 107 -220 148 -364 10 -38 16 -68
14 -68 -3 0 -69 53 -147 118 -78 65 -192 149 -252 186 -110 66 -113 67 -360
131 -206 53 -287 69 -465 91 -201 24 -232 25 -465 19 -241 -7 -263 -9 -615
-66 l-365 -59 -260 -91 c-159 -56 -383 -146 -577 -231 l-317 -139 -273 -205
-273 -204 -123 -153 c-67 -83 -174 -231 -237 -328 l-115 -176 -36 -204 c-36
-204 -36 -204 -20 -283 9 -44 14 -82 11 -84 -13 -13 -82 288 -110 475 l-24
166 35 186 34 186 132 220 c117 195 144 233 241 337 80 86 117 119 140 124 18
4 145 46 282 94 285 100 610 245 995 442 210 108 289 155 450 267 l195 137
160 24 c157 24 345 33 716 38 133 2 193 -3 402 -33z m-6376 -72 c-19 -96 -16
-152 16 -328 l33 -180 -1507 -3 c-829 -1 -2189 -1 -3022 0 l-1515 3 462 267
461 267 2539 1 2539 0 -6 -27z m6381 -418 c168 -21 254 -38 457 -90 247 -64
250 -65 360 -131 60 -37 173 -120 250 -184 77 -64 152 -124 166 -133 37 -25
66 -139 74 -297 6 -121 5 -130 -30 -270 -43 -175 -50 -192 -144 -350 -65 -111
-91 -142 -225 -279 -83 -84 -231 -226 -328 -315 l-178 -162 -240 -129 c-209
-111 -279 -142 -533 -237 -246 -93 -337 -122 -582 -183 -159 -41 -328 -85
-375 -99 -53 -16 -186 -40 -350 -62 -256 -34 -273 -35 -480 -29 -194 5 -231 9
-383 42 -170 35 -422 120 -587 195 -107 50 -319 222 -387 316 -73 100 -78 112
-106 257 l-25 130 34 194 34 194 115 176 c63 97 167 242 232 323 l118 147 273
205 273 205 317 139 c194 85 418 175 577 231 l260 91 340 56 c260 44 376 59
495 64 295 12 366 11 578 -15z m-3338 -542 c-19 -21 -60 -65 -91 -98 -36 -39
-103 -138 -188 -280 l-131 -220 -35 -190 c-28 -150 -34 -203 -29 -252 l6 -63
-339 0 -339 0 -166 123 c-103 76 -220 175 -310 262 -162 156 -199 212 -236
359 l-20 76 22 0 c11 0 129 5 261 10 219 10 270 16 595 70 305 52 402 72 690
149 184 49 337 90 339 90 3 1 -11 -16 -29 -36z m-2458 -178 c42 -17 143 -38
303 -63 l240 -37 26 -95 c44 -165 73 -209 249 -377 220 -210 471 -393 686
-501 203 -102 252 -115 408 -110 l120 3 23 -90 c12 -49 23 -93 23 -96 0 -3
-51 -25 -114 -48 l-114 -42 -93 -111 c-52 -60 -120 -151 -153 -201 -32 -51
-99 -149 -148 -219 l-90 -127 -270 135 -269 135 -167 30 -167 30 -119 -16
c-185 -25 -262 -59 -386 -169 -94 -84 -105 -98 -186 -237 -63 -109 -92 -171
-111 -238 l-26 -91 -51 45 c-216 190 -271 227 -608 406 -180 96 -328 179 -328
185 0 7 -57 35 -127 63 -120 47 -137 51 -286 67 l-159 16 -61 -27 c-34 -14
-92 -49 -130 -78 l-70 -51 7 -87 c4 -49 2 -139 -5 -201 -13 -129 -7 -117 -240
-553 l-138 -260 -198 -237 c-197 -236 -200 -240 -508 -509 -281 -246 -334
-287 -565 -443 -140 -95 -381 -249 -535 -342 -273 -164 -288 -172 -566 -285
-288 -117 -431 -163 -794 -253 -113 -27 -168 -35 -285 -41 -133 -6 -155 -4
-260 20 -180 40 -288 74 -380 120 -123 62 -132 75 -164 230 -15 72 -35 162
-45 201 l-18 72 38 203 39 204 204 305 204 305 234 242 c178 186 302 303 528
498 l294 254 406 253 405 252 417 187 418 187 247 56 c217 49 273 57 450 70
l202 15 62 -25 c34 -14 116 -52 181 -85 65 -32 124 -59 133 -59 8 0 37 -13 63
-30 58 -35 72 -37 72 -10 0 12 12 26 32 36 17 9 73 48 124 86 l93 70 37 96
c21 54 86 194 145 312 l107 215 159 183 160 183 304 177 305 177 160 43 c132
36 456 96 541 101 13 0 51 -10 85 -24z m6897 -2142 l-1 -1268 -27 100 -28 100
-2581 3 -2582 2 15 36 c14 34 47 247 60 389 8 89 -23 248 -62 314 -14 25 -54
78 -88 116 -34 39 -80 97 -104 130 -23 33 -55 67 -71 75 l-30 15 86 120 c47
66 94 135 106 153 l20 32 375 0 375 0 86 -68 c160 -124 190 -143 356 -212 150
-62 187 -73 388 -114 210 -43 235 -46 438 -52 180 -5 248 -2 420 16 113 11
239 30 280 40 41 11 201 49 355 86 154 37 314 79 355 94 41 15 100 33 130 40
30 7 149 48 264 92 l209 78 408 0 409 0 0 23 c0 12 -9 55 -20 95 -15 55 -20
102 -20 201 l0 130 125 118 c69 65 175 178 236 251 61 72 112 132 115 132 2 0
4 -570 3 -1267z m-8782 1040 c-41 -82 -90 -191 -110 -243 l-37 -95 -88 -66
c-49 -37 -102 -74 -118 -82 l-30 -15 -105 116 c-58 64 -135 153 -172 198 -57
68 -137 142 -219 202 -10 7 -87 26 -170 43 -201 38 -373 39 -699 4 l-233 -25
-247 -80 c-351 -114 -624 -244 -1002 -478 l-278 -172 -1769 0 -1770 0 0 420 0
420 3560 0 3560 0 -73 -147z m3883 140 c0 -5 6 -47 13 -95 l13 -86 -105 -7
c-141 -9 -191 5 -400 110 l-166 84 323 0 c177 1 322 -2 322 -6z m-4952 -112
c83 -17 160 -36 170 -43 79 -58 158 -131 208 -191 32 -40 99 -117 149 -172
102 -112 121 -138 84 -112 -13 9 -32 17 -41 17 -10 0 -71 26 -136 58 -64 32
-142 69 -173 81 l-57 23 -218 -16 c-197 -15 -244 -22 -467 -72 l-247 -56 -418
-187 -417 -187 -405 -252 -406 -253 -294 -254 c-227 -196 -350 -312 -533 -502
l-239 -248 -204 -305 -204 -305 -41 -214 -40 -213 31 -132 c17 -72 33 -142 36
-156 3 -14 8 -34 11 -45 10 -36 -44 23 -115 125 -36 52 -101 143 -144 201 -73
100 -79 112 -94 190 -17 93 -14 235 12 444 15 120 15 121 86 250 91 164 283
479 398 649 84 126 100 143 388 414 265 251 327 304 538 459 159 118 352 246
579 387 447 276 695 396 1065 516 247 80 248 80 461 104 312 35 483 34 677 -3z
m5092 -483 c40 -112 44 -119 94 -158 114 -87 136 -80 -258 -80 l-347 0 40 58
c21 31 76 100 120 152 l81 95 108 42 c95 37 108 40 113 25 4 -9 26 -70 49
-134z m4280 -225 c0 -10 -76 -13 -347 -13 l-348 0 240 131 c132 72 269 147
305 168 l65 37 42 -156 c24 -85 43 -161 43 -167z m-8120 -23 c83 -9 127 -19
210 -52 58 -22 112 -49 120 -58 8 -9 166 -97 350 -195 297 -158 348 -189 450
-271 63 -52 143 -120 177 -151 l62 -58 3 -166 4 -167 -236 -7 c-191 -5 -278
-13 -465 -41 -203 -30 -255 -42 -440 -101 -186 -58 -239 -80 -457 -189 -229
-114 -264 -136 -490 -297 -240 -172 -245 -177 -451 -390 l-208 -216 -144 -301
-144 -301 -31 -202 -32 -201 17 -163 c12 -119 26 -194 51 -279 18 -64 38 -122
42 -128 5 -6 41 -53 81 -104 41 -51 71 -95 69 -98 -3 -2 -30 5 -59 16 -48 18
-61 30 -121 111 -58 80 -78 119 -157 317 -71 179 -97 257 -120 366 l-29 139
39 200 38 200 116 271 c110 259 120 278 215 411 99 139 110 160 89 167 -6 2
48 55 120 118 86 75 169 159 237 242 l105 126 192 82 c106 46 329 151 497 235
l305 152 363 88 364 87 314 -7 c278 -7 314 -6 314 7 0 14 -44 17 -323 23
l-323 7 -365 -87 -364 -88 -300 -150 c-255 -127 -615 -292 -615 -282 0 2 29
38 65 81 49 59 102 147 204 339 235 439 227 423 241 561 7 65 9 155 6 199 l-7
81 64 46 c89 66 162 98 212 92 22 -2 87 -9 145 -14z m2343 -39 l157 -29 118
-87 c64 -48 127 -100 140 -114 37 -43 109 -201 126 -278 30 -136 19 -238 -56
-493 -41 -143 -120 -289 -195 -361 -143 -139 -310 -192 -608 -193 l-170 0 -84
39 c-73 34 -95 51 -173 135 -162 173 -205 294 -195 560 7 201 22 250 131 438
79 137 92 153 181 232 81 72 109 90 180 117 46 18 127 38 182 46 54 8 100 15
103 16 3 0 76 -12 163 -28z m827 -394 c19 -28 65 -85 101 -127 91 -104 115
-150 139 -263 18 -92 19 -103 5 -224 -25 -209 -34 -254 -70 -348 -66 -170
-203 -292 -403 -359 l-102 -35 -243 26 c-133 14 -244 28 -247 32 -3 3 -25 7
-50 8 -44 1 -320 67 -348 82 -8 4 49 11 126 14 195 9 354 44 447 99 196 114
298 290 385 661 40 174 22 341 -55 502 -43 89 -81 139 -140 183 -16 13 71 -28
195 -89 217 -107 227 -113 260 -162z m-1762 -769 c12 -28 20 -53 18 -55 -1 -2
-82 2 -178 8 l-176 10 -274 -50 c-150 -28 -363 -76 -472 -106 l-198 -54 -312
-166 -311 -165 -242 -227 c-212 -199 -268 -260 -449 -478 -114 -137 -213 -257
-221 -266 -7 -9 -45 -126 -83 -260 l-70 -244 0 -227 0 -228 73 -146 72 -145
161 -84 c158 -83 165 -86 372 -136 l212 -51 322 32 c292 28 340 36 532 82 207
50 215 53 400 145 148 74 251 136 470 283 459 307 465 312 652 502 163 165
176 181 276 343 58 94 109 176 113 183 4 8 38 100 76 205 65 182 70 199 85
344 l16 153 -32 113 c-17 61 -33 119 -36 128 -4 15 2 15 58 5 l62 -11 27 -154
c15 -85 30 -215 33 -290 l7 -136 -78 -190 c-75 -181 -84 -198 -195 -350 -106
-146 -137 -180 -345 -376 -502 -476 -530 -500 -703 -594 -85 -46 -305 -156
-488 -244 l-334 -160 -251 -51 c-231 -46 -273 -51 -511 -65 l-259 -15 -131 41
c-168 53 -431 154 -466 179 -22 15 -121 136 -212 256 -26 35 -78 260 -93 396
l-15 148 31 194 30 195 144 301 144 301 203 211 c200 207 207 213 446 385 226
161 261 183 490 297 218 109 271 131 457 189 315 100 590 139 1021 145 l110 2
22 -52z m-70 -84 c109 -6 113 -8 126 -33 8 -14 23 -35 35 -45 12 -11 21 -23
21 -28 0 -4 -242 -8 -537 -7 -618 1 -608 -4 -173 79 212 41 269 48 335 45 44
-3 131 -8 193 -11z m366 -279 c16 -9 -18 -28 -210 -117 -126 -59 -450 -210
-721 -336 l-491 -229 -56 88 -57 87 -66 8 c-65 7 -67 6 -87 -22 -12 -16 -29
-37 -40 -48 -18 -18 -17 -21 20 -144 31 -102 48 -138 89 -195 44 -61 60 -74
127 -108 43 -22 81 -39 86 -39 10 0 72 135 72 157 0 8 -7 28 -16 44 -22 43
-12 46 17 4 14 -19 154 -173 311 -342 157 -169 322 -353 367 -408 76 -94 81
-102 81 -148 0 -31 -9 -65 -25 -96 l-24 -49 -45 9 c-86 16 -178 73 -302 186
-64 59 -134 122 -154 140 -20 18 -89 118 -159 232 -121 197 -126 202 -218 278
-52 43 -98 79 -103 81 -5 2 -34 -1 -63 -8 -52 -10 -54 -12 -82 -70 -26 -55
-47 -74 -374 -344 -333 -274 -355 -294 -579 -536 -129 -137 -241 -250 -250
-250 -10 0 -30 -20 -45 -46 -19 -31 -40 -51 -70 -64 -42 -19 -42 -19 -56 0 -7
11 -20 20 -27 20 -14 0 -84 128 -84 155 0 8 6 15 13 15 7 0 104 105 216 234
164 189 275 303 579 594 208 198 416 392 463 431 73 61 87 77 93 109 12 74 15
70 -192 241 l-198 164 45 42 c52 48 165 109 190 102 9 -2 136 -57 282 -122
230 -101 266 -120 262 -136 -4 -12 0 -19 9 -19 8 0 306 134 663 298 l650 299
70 -66 c39 -36 79 -71 89 -76z m-6894 130 c0 -3 -28 -51 -63 -108 -35 -56 -95
-160 -135 -232 -70 -129 -71 -131 -86 -250 -24 -191 -30 -398 -13 -480 l14
-71 -496 133 c-273 73 -668 179 -878 235 l-383 102 0 338 0 338 1020 0 c561 0
1020 -2 1020 -5z m6595 -14 c-620 -286 -1117 -511 -1127 -511 -11 0 -556 236
-566 245 -2 2 96 55 217 120 329 174 266 163 951 164 557 1 564 0 525 -18z
m7300 -701 l191 -715 -3355 -3 c-1845 -1 -3356 0 -3359 2 -2 3 16 31 39 63 28
38 71 125 122 248 l79 190 -7 155 c-4 89 -17 213 -31 290 -13 74 -24 139 -24
144 0 4 15 6 33 2 17 -3 128 -15 245 -26 l213 -21 107 35 c70 24 133 53 182
86 83 54 181 161 212 228 l19 42 2571 -2 2571 -3 192 -715z m-6780 485 c33
-16 61 -29 62 -30 7 -4 -41 -335 -62 -435 -22 -102 -33 -128 -92 -230 -85
-149 -264 -413 -316 -467 l-41 -43 -321 0 -320 0 -203 219 c-112 121 -230 255
-262 298 -59 78 -59 78 -36 90 13 7 323 152 690 322 366 171 683 319 703 330
42 21 23 26 198 -54z m199 -59 l39 -11 38 -138 38 -137 -15 -138 c-13 -125
-20 -153 -80 -322 -79 -220 -62 -186 -192 -395 -99 -161 -114 -179 -271 -338
-182 -185 -190 -191 -647 -497 -219 -147 -322 -209 -470 -283 -187 -93 -192
-95 -404 -146 -193 -46 -246 -54 -518 -81 l-303 -29 -206 50 c-200 48 -211 52
-364 132 -132 69 -160 87 -173 115 -20 42 -20 42 5 42 12 0 48 12 80 26 44 20
63 35 75 59 l15 33 122 -40 122 -40 230 -1 230 -1 291 52 291 52 339 135 c211
84 361 150 398 174 l58 39 72 -33 c39 -19 96 -37 126 -40 l55 -7 28 56 c21 45
27 71 27 124 0 37 -5 73 -10 78 -8 8 13 30 67 74 43 35 140 125 216 199 117
115 156 161 251 301 62 91 143 217 179 280 59 102 70 128 92 230 19 90 65 400
65 443 0 9 35 3 104 -17z m-2504 -356 c102 -84 185 -159 184 -166 0 -8 -1 -24
-2 -37 -1 -16 -33 -48 -99 -104 -54 -45 -192 -172 -307 -282 l-209 -201 -299
0 -300 0 7 33 c10 45 8 43 244 327 168 202 250 290 394 426 101 96 186 168
192 164 6 -4 93 -76 195 -160z m-1194 -11 c-90 -126 -102 -148 -211 -404 -63
-148 -119 -294 -126 -322 l-11 -53 -430 0 c-237 0 -429 2 -427 4 2 2 110 68
239 146 391 237 690 446 885 618 94 82 171 148 173 147 2 -2 -40 -63 -92 -136z
m1724 -19 c52 -73 98 -156 138 -245 l49 -110 -26 -57 -26 -56 -62 31 c-91 47
-143 119 -189 265 l-35 112 28 40 c27 39 29 40 73 34 25 -4 47 -10 50 -14z
m-6257 -334 l532 -143 3 -2886 2 -2887 -555 0 -555 0 0 3036 0 3035 21 -6 c11
-4 260 -71 552 -149z m6304 -210 c50 -41 86 -82 118 -133 25 -40 45 -76 45
-78 0 -3 -140 -5 -311 -5 l-311 0 107 88 c87 70 112 98 136 144 22 44 36 59
57 64 15 3 32 7 37 8 11 3 17 -1 122 -88z m-1212 -414 c-94 -92 -247 -256
-340 -364 l-170 -198 -3 177 -2 176 51 181 c28 99 53 184 56 189 2 4 133 7
291 7 l287 0 -170 -168z m1464 63 c35 -58 83 -122 106 -143 23 -20 92 -83 153
-140 l112 -102 -54 -36 c-31 -20 -202 -94 -392 -170 l-337 -134 -291 -52 -291
-51 -210 0 -210 1 -116 39 -117 38 237 252 c203 217 266 277 450 428 l213 175
342 0 341 0 64 -105z m931 39 c-69 -69 -246 -219 -259 -219 -5 0 -43 41 -84
90 -42 50 -97 114 -122 143 l-47 52 288 0 288 0 -64 -66z m-1400 -3389 l0
-2005 -360 0 -360 0 0 1969 0 1969 63 6 c34 3 150 11 257 17 108 6 233 19 280
29 47 10 93 18 103 19 16 1 17 -101 17 -2004z"/>
<path d="M13235 12984 c-183 -19 -306 -40 -600 -100 -616 -127 -906 -200
-1325 -335 l-375 -121 -375 -191 -375 -190 -410 -290 c-410 -289 -485 -347
-485 -377 0 -10 -31 -25 -105 -48 -71 -22 -105 -37 -105 -47 0 -8 5 -15 11
-15 24 0 328 101 331 109 3 9 1517 957 1546 968 17 7 15 -20 -4 -60 -14 -29
-14 -41 -2 -103 l14 -69 -1021 -567 -1020 -568 -27 -59 c-31 -69 -58 -192 -58
-263 0 -43 7 -63 50 -132 44 -71 72 -102 152 -164 9 -7 99 -36 200 -64 l183
-50 320 -5 320 -5 310 46 c271 41 345 56 592 121 529 142 1144 369 1643 609
447 215 685 364 1030 645 227 185 255 212 378 358 104 122 145 180 182 254 47
93 49 101 61 226 l11 130 -30 59 c-37 73 -123 146 -267 227 l-100 56 -170 21
c-202 24 -190 24 -480 -6z m290 -11 c-72 -18 -1825 -353 -1844 -353 -13 0 -22
2 -19 5 11 11 645 157 993 229 294 60 417 81 600 100 223 23 313 29 270 19z
m212 -18 c122 -16 217 -46 197 -64 -5 -5 -532 -119 -1172 -254 -1307 -277
-1221 -252 -1243 -351 -10 -47 -9 -56 9 -92 62 -121 72 -162 72 -286 0 -96 4
-126 19 -156 25 -51 34 -129 20 -191 -21 -97 -103 -151 -198 -130 -71 16 -117
47 -137 92 -10 22 -32 58 -48 80 -16 22 -41 70 -56 106 -24 60 -30 66 -64 74
-28 7 -41 17 -52 41 -15 33 -64 246 -64 277 0 11 -4 27 -10 37 -20 36 -28 109
-14 133 7 13 13 43 14 66 0 33 -4 43 -20 48 -11 3 -25 3 -32 -1 -7 -4 -363
-225 -792 -492 -428 -266 -788 -487 -800 -490 l-21 -5 20 21 c11 11 205 150
430 309 l410 290 375 190 375 191 280 90 c259 83 288 90 389 97 125 8 1959
358 1964 375 5 13 1 13 149 -5z m392 -180 c44 -35 71 -67 91 -107 l30 -57 -11
-112 c-10 -105 -14 -119 -59 -208 -37 -73 -79 -133 -177 -249 -118 -140 -148
-169 -373 -353 -200 -163 -287 -226 -475 -344 -531 -334 -1422 -702 -2198
-910 -247 -65 -321 -80 -592 -121 l-310 -46 -300 5 -300 5 -183 51 c-181 49
-198 57 -273 123 -41 36 -119 170 -119 205 0 52 30 182 56 240 l25 56 44 -60
c24 -32 61 -69 83 -81 58 -32 269 -52 562 -52 l237 0 319 60 319 60 360 124
c397 138 593 201 599 195 12 -12 64 -203 59 -216 -6 -15 12 -33 35 -33 6 0 12
7 12 15 0 12 13 15 58 15 108 0 201 43 252 116 14 20 34 45 44 57 20 21 20 25
-19 118 -4 12 1 18 22 23 39 10 680 351 953 509 124 71 318 190 432 264 l207
134 124 167 c148 199 253 355 296 439 l31 62 38 -22 c21 -12 67 -44 101 -72z
m-210 33 c-12 -24 -48 -82 -81 -130 l-59 -88 -532 1 -532 1 595 128 c327 70
603 128 613 129 16 1 16 -2 -4 -41z m-186 -286 c-15 -21 -55 -75 -88 -120
l-60 -81 -1009 -1 -1009 0 26 20 c20 16 144 46 489 120 l463 98 608 1 609 1
-29 -38z m-195 -262 c-28 -38 -369 -261 -628 -411 -107 -62 -341 -190 -519
-286 l-323 -173 -97 0 -96 0 -119 288 c-68 164 -121 306 -124 332 -2 25 -22
86 -44 135 -44 101 -41 92 -39 123 l1 22 1005 0 1006 0 -23 -30z m-2524 -305
c37 -166 49 -192 96 -200 36 -6 40 -10 60 -65 12 -32 33 -74 47 -92 13 -18 37
-58 53 -88 29 -58 62 -83 134 -106 34 -10 -102 -13 -803 -13 -464 -1 -841 2
-838 6 9 8 1221 682 1223 680 1 -1 14 -56 28 -122z m765 -421 c72 -176 131
-328 131 -338 0 -22 -25 -62 -69 -109 -41 -44 -133 -77 -212 -77 l-48 0 -30
98 c-57 188 -81 268 -81 274 0 3 18 8 41 12 86 14 139 64 159 151 15 64 4 177
-21 227 -18 36 -28 130 -10 98 5 -8 68 -159 140 -336z m-321 -236 l18 -63 -52
-11 c-29 -5 -58 -15 -66 -20 -7 -6 -49 -21 -93 -34 -44 -12 -233 -76 -419
-141 -325 -114 -350 -121 -579 -164 l-240 -45 -441 0 c-439 0 -441 0 -478 23
-34 20 -108 105 -108 124 0 4 154 94 343 200 l342 191 877 1 877 1 19 -62z
m542 58 c0 -2 -21 -12 -46 -22 -39 -15 -47 -15 -55 -3 -16 25 -10 29 46 29 30
0 55 -2 55 -4z"/>
<path d="M11830 11215 c0 -16 6 -25 15 -25 9 0 15 9 15 25 0 16 -6 25 -15 25
-9 0 -15 -9 -15 -25z"/>
<path d="M11580 11118 c0 -7 4 -19 9 -27 12 -19 43 -6 39 16 -4 21 -48 31 -48
11z"/>
<path d="M13830 10764 c-328 -61 -486 -100 -808 -201 l-83 -26 -45 21 c-24 12
-53 22 -64 22 -24 0 -158 -65 -292 -142 -115 -66 -130 -86 -81 -112 27 -14 26
-15 -152 -104 -169 -84 -195 -101 -422 -277 l-242 -187 -105 -177 c-68 -113
-128 -230 -168 -326 -34 -82 -65 -152 -69 -155 -4 -3 -10 -64 -14 -137 l-8
-132 48 -135 47 -134 181 -141 181 -140 216 -81 215 -80 297 -31 297 -30 448
56 448 56 351 110 c285 89 399 130 600 217 l249 107 225 169 c192 144 255 198
428 370 l203 201 83 155 c74 137 89 174 126 311 l43 156 -49 129 c-58 153
-131 269 -230 366 -38 37 -90 76 -116 88 -26 11 -50 25 -53 30 -3 6 -15 10
-25 10 -13 0 -20 10 -25 39 -8 49 -33 71 -115 103 -82 32 -136 41 -177 29 -28
-8 -35 -6 -46 9 -10 14 -43 24 -134 39 -106 19 -160 21 -469 20 l-349 -1 -345
-64z m1139 16 c118 -20 131 -24 115 -39 -12 -12 -1314 -382 -1493 -425 l-145
-34 -229 114 c-126 64 -227 117 -225 120 3 2 119 38 257 79 194 57 323 87 559
132 l307 58 325 5 c179 3 345 7 370 8 25 1 96 -7 159 -18z m358 -76 c72 -28
103 -54 103 -85 0 -11 -7 -19 -17 -19 -26 0 -1682 -527 -1698 -540 -10 -8 -21
-7 -44 4 -23 12 -63 16 -173 16 -156 0 -206 -9 -255 -46 -33 -25 -45 -64 -20
-64 17 0 37 -77 37 -148 0 -51 6 -87 25 -147 7 -25 19 -17 -944 -598 l-714
-430 -78 38 c-58 29 -81 46 -90 67 -10 24 -9 31 4 41 9 7 121 99 249 204 205
170 302 239 813 583 319 215 581 396 583 404 2 8 -112 79 -312 192 -173 98
-313 181 -310 185 6 11 106 66 233 130 l114 58 303 -152 302 -151 144 33 c78
18 457 123 841 232 383 109 706 199 716 199 11 0 23 5 26 10 11 18 94 10 162
-16z m220 -213 c48 -50 69 -84 92 -142 l29 -76 -28 -152 c-16 -83 -32 -157
-36 -164 -17 -27 -155 -205 -193 -247 l-40 -45 -1 447 c0 501 -7 461 75 451
34 -4 50 -16 102 -72z m-227 -417 l0 -466 -95 -106 c-52 -59 -130 -135 -173
-169 l-77 -63 -325 0 -325 0 -280 346 c-284 352 -321 402 -307 416 7 7 1548
503 1575 507 4 0 7 -209 7 -465z m460 215 c28 -42 72 -131 99 -200 l48 -125
-43 -152 c-35 -128 -54 -173 -119 -294 l-77 -143 -187 -189 c-162 -164 -217
-211 -426 -369 l-240 -182 -249 -107 c-201 -87 -315 -128 -600 -217 l-351
-110 -440 -55 -440 -55 -285 29 -285 30 -215 80 -216 81 -174 135 -175 135
-47 127 c-48 131 -56 183 -39 267 5 22 9 32 10 21 2 -30 61 -125 92 -148 28
-21 28 -22 9 -35 -25 -17 -25 -32 -3 -79 15 -30 33 -44 108 -81 l90 -46 51 28
51 28 170 -57 c100 -33 232 -69 324 -86 271 -53 480 -42 1196 60 l283 41 207
73 c137 48 237 77 293 85 47 7 139 26 205 43 97 26 125 37 148 61 29 31 33 48
18 76 -9 15 6 25 117 78 110 52 150 78 297 196 147 117 193 162 342 329 183
206 299 353 313 396 5 15 21 93 36 174 l27 147 -26 70 c-14 38 -23 72 -20 75
11 11 71 -55 123 -135z m-2989 -151 c147 -84 265 -156 261 -159 -4 -4 -242
-165 -529 -358 l-523 -351 -295 0 -294 0 33 73 c18 39 76 144 129 231 l96 160
238 184 c224 173 249 190 423 278 102 51 187 93 189 93 1 1 124 -68 272 -151z
m882 -118 c43 -29 45 -43 17 -130 -27 -86 -27 -210 1 -293 11 -34 25 -67 31
-74 16 -19 -10 -90 -45 -123 -49 -47 -100 -70 -156 -70 -62 0 -95 12 -126 46
-22 23 -25 36 -25 99 0 99 -15 167 -45 214 -22 33 -28 56 -35 147 -4 60 -11
116 -14 125 -4 8 -2 27 3 42 14 36 66 46 227 44 121 -2 133 -4 167 -27z m481
-594 c212 -263 386 -484 386 -492 0 -8 -8 -22 -18 -32 -20 -20 -187 -68 -303
-87 l-76 -12 -237 271 -236 271 34 31 c33 30 56 84 56 130 0 12 -12 48 -27 80
-25 52 -28 71 -28 160 0 59 5 107 11 115 6 8 14 27 18 43 6 25 9 27 20 15 8
-8 188 -229 400 -493z m-816 60 c5 -110 5 -111 39 -143 18 -18 49 -35 67 -39
30 -5 119 -2 185 8 15 2 28 -4 38 -19 l15 -23 -473 0 c-260 0 -469 4 -463 8
15 15 294 182 302 182 4 0 65 38 137 85 109 70 131 81 139 68 5 -9 11 -66 14
-127z m-1435 -285 c-26 -21 -133 -108 -237 -194 l-189 -156 -28 20 c-39 27
-85 113 -97 178 -8 46 -7 61 10 100 11 25 24 56 29 69 l9 22 276 0 276 0 -49
-39z m2000 -176 c103 -118 187 -218 187 -222 0 -5 -93 -41 -208 -81 -202 -70
-213 -73 -452 -107 -450 -65 -729 -95 -887 -95 -189 0 -388 37 -618 113 -157
53 -159 54 -135 70 14 9 219 133 455 276 l430 260 520 0 520 1 188 -215z
m1026 211 c-52 -52 -159 -121 -258 -168 -68 -32 -127 -57 -131 -56 -4 2 -49
54 -99 116 l-92 112 292 0 c161 0 290 -2 288 -4z"/>
<path d="M5780 8550 c-275 -56 -499 -111 -527 -131 -11 -8 -228 -178 -481
-378 l-462 -365 0 -43 c0 -25 5 -43 11 -43 6 0 118 -7 248 -15 205 -14 298
-26 711 -96 485 -81 632 -112 661 -136 28 -24 29 -73 3 -129 -30 -63 -37 -69
-94 -81 -37 -8 -149 6 -645 79 -431 64 -617 87 -660 84 l-60 -5 -45 46 c-25
25 -84 74 -133 108 -85 61 -89 62 -168 69 l-81 7 -49 -42 c-45 -38 -49 -44
-49 -86 0 -35 7 -54 30 -83 17 -21 39 -65 50 -97 l19 -58 -53 -55 c-45 -47
-107 -158 -452 -807 l-399 -752 -59 -21 c-66 -22 -161 -26 -201 -8 -24 11 -25
15 -19 57 9 59 23 88 481 953 212 400 387 736 390 746 4 16 -5 22 -60 37 l-65
17 -78 -30 c-86 -32 -318 -109 -347 -114 -9 -2 -80 -52 -158 -113 -128 -100
-151 -123 -258 -260 -115 -148 -204 -293 -380 -626 -55 -104 -65 -132 -96
-275 -20 -87 -34 -167 -31 -176 2 -9 -1 -19 -6 -20 -7 -3 -7 -54 1 -158 l12
-155 50 -77 50 -76 100 -36 100 -36 202 0 c111 0 276 5 366 11 l163 11 272 93
c214 73 352 130 656 267 l385 174 305 221 c238 173 388 292 680 542 l375 320
218 273 217 273 75 190 c56 143 85 234 116 369 l41 178 -26 105 c-32 125 -97
263 -125 263 -10 0 -53 29 -95 64 l-77 63 -106 7 c-166 10 -193 7 -443 -44z
m531 4 c3 -2 -1 -37 -9 -79 l-15 -75 -496 1 -496 1 130 34 c72 19 238 57 370
84 236 48 242 49 375 43 74 -3 138 -7 141 -9z m104 -84 c33 -28 65 -50 72 -50
21 0 80 -131 106 -233 l24 -95 -38 -168 c-29 -124 -59 -220 -114 -359 l-75
-190 -214 -269 -213 -269 -374 -319 c-293 -250 -440 -368 -679 -541 l-305
-221 -385 -174 c-304 -137 -442 -194 -656 -267 l-272 -93 -163 -11 c-90 -6
-246 -11 -346 -11 l-182 0 -98 35 -98 36 -47 72 c-43 66 -47 79 -52 152 -4 44
-9 105 -12 135 -3 30 -1 50 3 43 5 -6 45 -25 89 -42 l81 -30 191 6 191 6 -6
-56 c-5 -54 -5 -56 25 -71 46 -24 173 -21 250 5 l63 21 39 78 c22 43 44 81 50
85 6 4 151 58 323 121 295 108 327 123 607 271 287 153 302 162 550 349 175
132 339 267 525 434 149 133 280 248 292 257 21 14 34 14 136 -1 146 -21 203
-12 246 41 16 19 34 55 41 79 20 70 -7 164 -48 164 -9 0 -34 5 -55 11 -36 10
-38 12 -23 28 13 15 130 197 278 433 52 84 146 359 175 516 15 78 29 142 32
142 4 0 33 -23 66 -50z m-135 -110 c0 -58 -121 -403 -168 -478 -162 -259 -266
-420 -283 -438 l-20 -21 -487 83 c-370 62 -529 85 -658 93 -330 21 -321 20
-316 44 3 14 160 145 451 374 l446 352 518 1 c320 0 517 -4 517 -10z m-2090
-892 c44 -14 171 -101 222 -152 39 -41 52 -74 69 -180 7 -40 18 -70 33 -86 29
-31 46 -63 46 -86 0 -28 -42 -82 -73 -95 -45 -19 -102 13 -133 73 -16 32 -36
54 -62 67 -74 39 -166 111 -189 150 -13 22 -30 61 -37 85 -8 25 -28 63 -45 85
-43 54 -40 78 11 123 38 33 47 36 83 32 22 -3 56 -11 75 -16z m-490 -210 c0
-6 -30 -68 -67 -139 l-68 -129 -279 0 c-166 0 -276 4 -270 9 5 5 44 37 87 71
75 59 89 65 284 131 112 38 212 73 220 78 19 10 93 -7 93 -21z m1325 -53 c486
-70 495 -72 495 -83 0 -4 -32 -36 -71 -70 l-70 -62 -394 0 c-389 0 -394 0
-400 21 -4 11 -20 35 -35 53 -22 24 -32 50 -40 99 -5 36 -13 73 -16 81 -5 14
8 19 66 25 9 0 218 -28 465 -64z m-935 -94 c0 -5 30 -31 68 -57 37 -26 71 -51
77 -56 5 -4 -52 -8 -128 -8 -90 0 -137 4 -137 11 0 12 99 119 111 119 5 0 9
-4 9 -9z m-832 -698 c-160 -302 -315 -598 -346 -659 l-55 -112 -186 -4 c-183
-5 -187 -4 -261 22 -113 41 -114 45 -73 232 36 167 43 181 256 563 98 176 267
412 340 478 l31 27 292 0 292 0 -290 -547z m1070 502 c18 -36 32 -50 76 -72
55 -27 55 -27 95 -8 41 18 91 78 91 108 0 16 29 17 377 17 324 0 375 -2 363
-14 -137 -130 -398 -348 -600 -500 -248 -187 -263 -196 -550 -349 -277 -147
-314 -164 -593 -266 -163 -60 -295 -106 -293 -102 2 3 149 278 326 611 177
333 324 608 327 613 2 4 84 7 182 7 l177 0 22 -45z"/>
<path d="M4725 8281 c-166 -78 -629 -374 -952 -609 -258 -187 -310 -232 -269
-232 39 0 305 109 481 198 l200 100 325 271 c179 149 326 278 328 286 5 24
-46 17 -113 -14z m-31 -70 c-5 -5 -126 -107 -269 -226 l-260 -217 -205 -102
c-209 -105 -296 -143 -306 -134 -9 9 412 309 586 418 257 161 454 279 459 274
3 -2 0 -8 -5 -13z"/>
<path d="M9380 8224 c-86 -9 -153 -31 -263 -87 -64 -34 -127 -72 -140 -86 -30
-33 -116 -170 -147 -236 -22 -46 -25 -65 -28 -230 -5 -217 5 -268 78 -442 l52
-122 81 -51 82 -50 121 0 c218 0 364 44 523 156 74 52 87 66 118 129 37 72 76
189 112 332 24 92 27 219 10 322 -13 73 -74 203 -113 239 -13 12 -82 44 -153
71 -129 49 -229 65 -333 55z m258 -80 c85 -25 164 -51 174 -57 28 -17 92 -150
112 -232 15 -60 16 -86 7 -170 -13 -129 -55 -351 -74 -395 -23 -55 -139 -173
-216 -219 -124 -76 -148 -81 -349 -81 l-177 0 -51 29 c-71 41 -143 145 -144
208 0 12 -9 42 -20 68 -14 34 -22 86 -30 198 -9 136 -8 159 9 222 31 119 65
188 137 278 69 85 69 86 179 133 186 80 227 82 443 18z"/>
<path d="M9357 7825 c-57 -16 -97 -40 -97 -60 0 -8 -9 -19 -20 -25 -11 -6 -29
-32 -41 -57 -18 -40 -20 -57 -14 -117 9 -96 47 -180 98 -217 37 -27 47 -29
129 -29 75 0 96 4 138 25 27 14 61 41 77 62 28 36 28 39 28 172 0 156 -12 195
-74 237 -30 20 -47 24 -106 23 -38 0 -92 -7 -118 -14z"/>
<path d="M8990 16330 l0 -1670 25 16 25 16 0 1644 0 1644 475 0 475 0 0 -1370
0 -1370 25 12 25 11 0 1369 0 1368 -525 0 -525 0 0 -1670z"/>
<path d="M12530 17355 c0 -355 3 -645 8 -645 4 0 15 7 25 14 16 12 17 55 17
635 l0 621 390 0 390 0 -1 -952 c-1 -761 -3 -944 -13 -908 l-12 45 -893 3
-893 2 -264 -152 c-188 -109 -264 -158 -264 -170 0 -17 59 -18 1195 -18 l1195
0 0 1085 0 1085 -440 0 -440 0 0 -645z m810 -1357 l37 -138 -1141 0 c-663 0
-1135 4 -1126 9 8 5 116 68 240 140 l225 130 864 -2 864 -2 37 -137z"/>
<path d="M17138 9988 l-3 -8013 -229 858 -230 857 -3493 0 c-3333 0 -3493 -1
-3493 -18 0 -14 28 -25 150 -57 l150 -39 0 -1773 0 -1773 -475 0 -475 0 0
1909 0 1909 -25 4 -25 5 0 -1928 0 -1929 525 0 525 0 0 1781 c0 1522 2 1780
14 1777 8 -2 568 -151 1245 -333 l1231 -330 0 -1447 0 -1448 440 0 440 0 2
1329 3 1328 810 -217 c446 -119 874 -234 953 -255 l142 -38 0 -1073 0 -1074
290 0 290 0 0 996 c0 943 1 995 18 990 9 -2 280 -75 602 -161 322 -86 593
-158 603 -161 16 -5 17 -54 17 -835 l0 -829 430 0 430 0 0 9000 0 9000 -430 0
-430 0 -2 -8012z m832 -983 l0 -8975 -390 0 -390 0 0 809 c0 634 3 810 12 813
10 4 10 17 0 64 -9 48 -12 1770 -12 8162 l0 8102 390 0 390 0 0 -8975z m-1076
-6272 c137 -511 251 -934 253 -941 3 -6 -2 -12 -11 -12 -9 0 -16 -7 -16 -16 0
-11 6 -15 19 -11 15 4 20 -2 25 -26 3 -17 5 -32 3 -33 -2 -2 -6862 1833 -7292
1950 -43 12 456 14 3361 15 l3410 1 248 -927z m-3899 37 l360 -96 3 -1322 2
-1322 -390 0 -390 0 0 1425 0 1425 28 -7 c15 -3 189 -50 387 -103z m2638 -707
l217 -57 0 -988 0 -988 -240 0 -240 0 0 1051 0 1051 23 -5 c12 -4 120 -32 240
-64z"/>
<path d="M9292 14868 c-151 -87 -212 -127 -212 -140 0 -17 101 -18 2315 -18
l2315 0 0 25 c0 13 -13 74 -30 135 -16 61 -30 113 -30 115 0 3 -933 5 -2073 5
l-2072 0 -213 -122z m4347 10 c12 -46 26 -95 31 -110 l9 -28 -2262 0 c-1322 0
-2256 4 -2247 9 8 5 94 55 190 110 l174 101 2042 0 2042 0 21 -82z"/>
<path d="M4060 2591 l0 -2591 455 0 455 0 0 2470 c0 1493 -4 2470 -9 2470 -5
0 -16 3 -25 6 -15 6 -16 -215 -16 -2455 l0 -2461 -405 0 -405 0 0 2570 c0
1554 -4 2570 -9 2570 -5 0 -16 3 -25 6 -15 6 -16 -226 -16 -2585z"/>
</g>
</svg>
