<?xml version="1.0" encoding="UTF-8" standalone="no"?>
<!-- Created with Inkscape (http://www.inkscape.org/) -->

<svg
   xmlns:dc="http://purl.org/dc/elements/1.1/"
   xmlns:cc="http://creativecommons.org/ns#"
   xmlns:rdf="http://www.w3.org/1999/02/22-rdf-syntax-ns#"
   xmlns:svg="http://www.w3.org/2000/svg"
   xmlns="http://www.w3.org/2000/svg"
   xmlns:sodipodi="http://sodipodi.sourceforge.net/DTD/sodipodi-0.dtd"
   xmlns:inkscape="http://www.inkscape.org/namespaces/inkscape"
   id="svg24760"
   version="1.1"
   inkscape:version="0.91 r13725"
   width="506.25"
   height="495.9375"
   viewBox="0 0 506.25 495.9375"
   sodipodi:docname="SagebrushButtercup.svg">
  <metadata
     id="metadata24766">
    <rdf:RDF>
      <cc:Work
         rdf:about="">
        <dc:format>image/svg+xml</dc:format>
        <dc:type
           rdf:resource="http://purl.org/dc/dcmitype/StillImage" />
        <dc:title></dc:title>
      </cc:Work>
    </rdf:RDF>
  </metadata>
  <defs
     id="defs24764" />
  <sodipodi:namedview
     pagecolor="#ffffff"
     bordercolor="#666666"
     borderopacity="1"
     objecttolerance="10"
     gridtolerance="10"
     guidetolerance="10"
     inkscape:pageopacity="0"
     inkscape:pageshadow="2"
     inkscape:window-width="1600"
     inkscape:window-height="837"
     id="namedview24762"
     showgrid="false"
     inkscape:zoom="1.3509767"
     inkscape:cx="253.125"
     inkscape:cy="247.96875"
     inkscape:window-x="-8"
     inkscape:window-y="-8"
     inkscape:window-maximized="1"
     inkscape:current-layer="svg24760" />
  <path
     style="fill:#000000"
     d="m 203.75416,494.00674 c -2.24882,-1.44063 -3.42017,-3.30421 -4.85154,-7.71858 -3.46607,-10.68955 -8.3913,-23.86153 -9.76021,-26.10267 -0.74471,-1.21921 -2.13149,-4.89634 -3.08174,-8.17139 -1.34464,-4.63436 -1.94826,-5.6557 -2.72233,-4.60631 -1.50556,2.04106 -6.33932,8.16972 -8.85367,11.22542 -1.8344,2.22937 -2.83952,2.66438 -5.61834,2.43158 -4.05448,-0.33969 -5.87047,-3.31532 -6.46665,-10.59604 -0.48053,-5.86858 3.15289,-29.37143 5.85858,-37.89633 0.42829,-1.34942 -0.31278,-1.4945 -5.99392,-1.17349 -12.83498,0.72524 -26.94805,-6.82671 -32.44202,-17.35983 -1.15524,-2.21484 -1.37419,-2.32772 -1.37904,-0.71098 -0.003,1.05704 -0.40917,2.32527 -0.90219,2.81829 -0.49302,0.49302 -2.19493,4.04537 -3.78202,7.89411 -2.77679,6.73379 -8.90004,17.61539 -13.6866,24.3224 -4.5638,6.39489 -14.041111,15.17321 -18.84254,17.45284 -5.684275,2.69877 -6.933006,2.80181 -10.651486,0.87891 -2.483311,-1.28416 -3.052508,-1.28213 -5.570354,0.0199 -3.419684,1.76839 -7.145097,1.01668 -8.644596,-1.74428 -0.597876,-1.10083 -1.535966,-5.16558 -2.084646,-9.03277 -0.606125,-4.27207 -1.437346,-7.03125 -2.118213,-7.03125 -0.616339,0 -4.413214,3.17658 -8.4375,7.05907 -4.024288,3.88249 -9.004385,8.28847 -11.066885,9.79108 -3.789346,2.76067 -4.404514,3.26519 -11.362114,9.31832 -2.124163,1.84802 -5.832369,4.23159 -8.240458,5.2968 -3.68309,1.6292 -4.88155,1.77067 -7.547269,0.89091 -1.742908,-0.57521 -3.721679,-1.71187 -4.397268,-2.5259 -2.1956386,-2.64558 -4.5552342,-11.80042 -5.659936,-21.9596 -0.9256112,-8.51221 -0.8505563,-11.34323 0.5219474,-19.6875 2.1053388,-12.79961 5.5016446,-24.26519 9.0504206,-30.55328 2.732507,-4.84173 2.766325,-5.02752 0.719706,-3.9539 -1.181141,0.6196 -3.715385,2.35535 -5.631655,3.85723 -1.9162687,1.50187 -4.9748624,2.9726 -6.7968747,3.26826 L 0,390.24533 l 0,-3.816 c 0,-9.54573 15.880953,-32.50369 31.900879,-46.11683 3.337329,-2.83594 6.676467,-5.73472 7.420306,-6.44172 4.803091,-4.56527 16.219249,-12.09313 25.567766,-16.8595 12.191726,-6.21598 15.389993,-7.3549 30.43019,-10.83643 11.111829,-2.57218 17.743189,-3.08162 18.301729,-1.40598 0.216,0.64801 1.59005,0.78427 3.77507,0.37436 3.39578,-0.63705 4.97238,-2.0814 20.32514,-18.62019 l 3.37267,-3.6332 -3.81156,2.47154 c -2.09635,1.35935 -6.3151,3.34259 -9.375,4.40719 -3.05989,1.06462 -6.50946,2.54421 -7.66572,3.288 -1.15625,0.7438 -4.10938,1.61394 -6.5625,1.93365 -2.45312,0.31972 -5.04938,1.05037 -5.76947,1.62367 -0.72009,0.5733 -6.19217,1.72156 -12.160178,2.5517 -16.280294,2.26454 -28.098375,0.37569 -39.499322,-6.31307 -5.900138,-3.46151 -7.496276,-5.12877 -9.312612,-9.72752 -0.712785,-1.80469 -2.12043,-5.15497 -3.128101,-7.44505 -2.612714,-5.93781 -3.099424,-13.62816 -1.190135,-18.80495 4.454298,-12.07726 5.293961,-16.50614 4.295697,-22.65803 -1.7603,-10.84801 -1.34577,-14.03955 2.864872,-22.05715 2.113221,-4.02383 4.403631,-9.42545 5.089797,-12.00357 4.374138,-16.43489 4.378585,-16.44562 8.479405,-20.44592 11.541371,-11.25846 16.720901,-13.77283 28.371609,-13.77283 8.522248,0 23.789868,3.14026 28.901308,5.94444 6.15493,3.37664 11.56566,5.22989 11.56566,3.96138 0,-1.85085 -1.7496,-2.90446 -7.96875,-4.79877 -8.34403,-2.54153 -21.06966,-9.00695 -22.96875,-11.66955 -0.25781,-0.36146 -2.15625,-1.71465 -4.21875,-3.00708 -3.832046,-2.40128 -21.084142,-19.23626 -26.370137,-25.73256 -5.223184,-6.41911 -9.561592,-12.29792 -11.302601,-15.31573 -0.936244,-1.62285 -2.851479,-4.92507 -4.256077,-7.33826 C 46.840037,93.786028 44.088336,86.564925 44.072648,79.036654 c -0.01475,-7.076962 2.570356,-9.846528 9.285272,-9.947827 l 4.992089,-0.07531 -0.767201,-5.209885 c -0.967803,-6.572118 -0.653576,-30.288769 0.516538,-38.986293 0.487538,-3.623901 2.231621,-9.634455 3.875739,-13.356788 2.816877,-6.3774941 3.289259,-6.9097779 8.189435,-9.2279329 9.427326,-4.4598389 18.44951,-2.12433906 32.68596,8.4611489 6.04143,4.492095 5.85723,4.317994 10.10229,9.548843 2.05372,2.530626 7.02603,7.888617 11.04959,11.906645 l 7.31554,7.305507 2.28423,-5.165034 c 1.25632,-2.840769 2.88433,-6.550122 3.61781,-8.243006 1.7065,-3.938657 6.13705,-8.874978 8.58613,-9.566287 5.20241,-1.468496 13.28663,11.177907 20.98701,32.830625 4.46802,12.563664 6.15463,25.550049 6.1672,47.485814 0.005,8.121095 0.0917,14.765625 0.19351,14.765625 0.10177,0 1.29524,-2.21484 2.65217,-4.92187 1.35692,-2.70704 3.01575,-5.55469 3.68628,-6.32813 0.67054,-0.773437 1.87791,-2.708175 2.68305,-4.299422 2.88728,-5.706286 16.65457,-18.558563 22.89349,-21.371923 4.97158,-2.241874 15.35075,-1.164712 23.25271,2.413191 3.63035,1.643777 12.17245,2.247858 21.52226,1.522013 5.15625,-0.40029 10.59213,-0.478943 12.07972,-0.174785 5.4828,1.121028 17.55191,8.123217 20.69432,12.006315 3.72784,4.606499 7.96663,12.468571 8.11596,15.053401 0.10836,1.87568 0.11028,1.87571 0.53269,0.007 0.80583,-3.56409 4.39377,-11.718752 5.15607,-11.718752 0.42075,0 0.76499,-0.759375 0.76499,-1.6875 0,-0.928125 0.35609,-2.088282 0.79133,-2.578125 0.43522,-0.489844 1.76854,-3.421875 2.96294,-6.515625 1.1944,-3.09375 2.63128,-6.257813 3.19305,-7.03125 0.56179,-0.773438 2.49799,-4.27203 4.30268,-7.774648 1.80469,-3.502618 4.75781,-8.224402 6.5625,-10.492853 1.80469,-2.268451 5.39062,-6.963159 7.96875,-10.432682 13.22621,-17.799243 26.77152,-24.765961 36.98805,-19.023952 3.9911,2.243125 6.14737,5.415746 7.08692,10.427321 l 0.65325,3.484435 3.88589,-1.972103 c 2.13724,-1.084658 5.72324,-3.230801 7.96889,-4.769208 2.24566,-1.538408 7.94097,-4.453353 12.65625,-6.477655 4.71529,-2.024304 9.99577,-4.338014 11.73443,-5.141577 8.06232,-3.72623 25.68508,-7.783308 33.87007,-7.797507 9.76924,-0.01694 20.29143,5.004633 23.37434,11.155095 0.9226,1.840621 2.89628,7.143459 4.38594,11.784084 5.53186,17.233011 2.45464,36.784044 -7.6471,48.585659 -2.82964,3.305794 -3.0766,4.063955 -2.60925,8.010044 1.10559,9.334949 -9.42014,27.189689 -20.50356,34.780099 -3.24865,2.22481 -6.96131,4.85003 -8.25037,5.83384 -10.31977,7.87594 -23.62194,17.28262 -28.8576,20.40673 -9.28725,5.5417 -9.90315,6.12166 -8.76316,8.25174 1.41859,2.65065 3.86685,9.52731 4.92005,13.81939 0.5061,2.0625 2.56331,6.49219 4.57157,9.84375 4.75612,7.93742 5.62914,10.41689 5.62914,15.98732 0,4.79312 -4.82663,21.46461 -6.83008,23.59147 -0.62627,0.66486 -3.53499,4.37146 -6.46382,8.2369 -7.3368,9.68302 -16.00739,16.80302 -25.66188,21.07269 -2.67667,1.18376 -5.19719,2.68705 -5.60114,3.34065 -1.24515,2.01469 9.44516,0.23004 14.38994,-2.40227 2.40395,-1.27972 4.73573,-2.32676 5.18174,-2.32676 0.44601,0 3.48319,-1.27536 6.7493,-2.83412 3.2661,-1.55877 10.92017,-4.19549 17.00903,-5.85938 10.7657,-2.94192 11.57425,-3.0236 29.35191,-2.96527 22.58227,0.0741 34.85657,1.84999 43.2708,6.26061 6.808,3.56865 8.00591,5.60843 6.58115,11.20616 -1.00119,3.93353 -0.95098,4.09446 1.98229,6.35418 8.24008,6.34788 13.82084,13.59586 16.87661,21.91843 5.63868,15.35724 6.91709,27.20043 3.29988,30.57036 -1.12848,1.05134 -2.47239,1.91153 -2.98646,1.91153 -0.51407,0 -1.83075,0.84182 -2.92596,1.87071 -1.37919,1.29567 -3.84727,2.04046 -8.02918,2.42292 -3.32083,0.30371 -6.50326,0.69049 -7.07206,0.85952 -0.6827,0.20288 -0.28374,2.54489 1.17384,6.89083 1.21442,3.62093 2.37354,9.38374 2.57584,12.80624 0.35709,6.04156 0.27423,6.31629 -2.84573,9.43625 -3.00974,3.00975 -3.64254,3.22622 -9.97914,3.41376 -20.67568,0.6119 -32.83342,-0.49064 -42.85938,-3.88677 -2.83594,-0.96063 -6.42187,-1.96974 -7.96875,-2.24245 -11.54155,-2.03479 -40.94826,-22.46819 -53.16886,-36.94465 -2.946,-3.48981 -7.89575,-9.50917 -10.99944,-13.37636 -14.89262,-18.55616 -16.38328,-19.98619 -25.80832,-24.75886 -8.08308,-4.09314 -9.1585,-4.40727 -11.86171,-3.46494 -1.63499,0.56997 -4.28086,1.08524 -5.87969,1.14505 -1.59884,0.0598 -2.214,0.29296 -1.36703,0.5181 0.90796,0.24136 1.36867,1.06434 1.1226,2.00533 -0.22955,0.87778 0.48533,2.5649 1.58861,3.74914 2.66093,2.85617 1.82742,4.54805 -2.86281,5.811 l -3.86446,1.04058 3.58181,2.67782 c 1.96998,1.4728 6.92541,5.87821 11.01204,9.7898 4.08664,3.91159 7.71035,7.11198 8.05269,7.11198 0.34235,0 2.57147,2.50978 4.9536,5.57729 5.30041,6.82541 7.21972,13.47637 7.21972,25.01848 0,7.60621 -0.27508,8.8506 -3.3178,15.00859 -1.8248,3.69309 -4.99567,8.62086 -7.04639,10.95061 -4.9088,5.57669 -15.95087,11.78216 -27.79556,15.62065 -10.65022,3.45142 -10.70228,3.56722 -4.02775,8.95964 1.80469,1.45803 4.57728,3.90787 6.16131,5.44409 2.62097,2.54188 3.50762,2.80983 9.8563,2.9787 5.42155,0.14421 8.05902,0.73423 11.8348,2.64757 2.6722,1.3541 5.5142,2.2104 6.31557,1.90289 0.92581,-0.35528 1.45702,-0.037 1.45702,0.87295 0,0.8305 1.18738,1.69285 2.82668,2.0529 5.31151,1.16661 12.05001,9.98995 13.60125,17.80939 1.0257,5.17039 0.66652,7.63789 -1.95831,13.45276 -4.35567,9.64923 -12.72645,17.25916 -15.70663,14.27898 -0.66275,-0.66275 -1.65803,0.0529 -3.17176,2.28054 -1.21328,1.7855 -3.23139,3.50372 -4.48469,3.81828 -4.34038,1.08936 -12.36187,-0.30682 -18.39827,-3.20232 -5.60723,-2.68969 -13.02077,-8.71292 -13.02077,-10.57895 0,-0.45682 -0.6478,-0.83058 -1.43957,-0.83058 -0.82263,0 -2.26321,-1.9084 -3.36148,-4.45313 -1.65186,-3.82739 -1.83418,-5.57286 -1.29754,-12.42187 0.86256,-11.00857 2.11765,-15.57053 4.76013,-17.30196 1.2155,-0.79642 2.66708,-2.30213 3.22575,-3.34601 0.89206,-1.66682 0.14548,-2.76262 -6.13001,-8.99753 l -7.14579,-7.09956 -1.89639,3.60691 c -1.04302,1.9838 -2.38295,4.0956 -2.97762,4.6929 -2.18934,2.19901 -14.80407,7.96837 -20.04966,9.16973 -9.24992,2.11845 -9.85251,2.42452 -9.13362,4.639 2.70678,8.33797 2.70263,48.19567 -0.006,55.97384 -0.82469,2.36834 -2.95511,5.71697 -4.73427,7.4414 -2.98875,2.89681 -3.69472,3.13534 -9.27963,3.13534 -5.16504,0 -6.74442,-0.43491 -10.85193,-2.98828 -2.64392,-1.64356 -4.94725,-2.98828 -5.11848,-2.98828 -0.17124,0 -1.47684,3.26953 -2.90135,7.26562 -3.42423,9.60584 -8.1143,16.09089 -11.66272,16.12627 -0.77344,0.007 -2.74032,-0.84061 -4.37084,-1.88515 z m 8.05536,-4.54905 c 3.11289,-3.93036 5.12187,-8.1806 7.26309,-15.366 1.55516,-5.21874 2.92184,-6.05961 6.57357,-4.04449 8.42601,4.6497 12.97319,6.31872 15.78027,5.79211 4.37051,-0.81991 7.74962,-4.91609 8.9729,-10.87701 1.09724,-5.34675 1.36536,-44.61621 0.34644,-50.74322 -0.55511,-3.33806 -0.71149,-3.45456 -5.42431,-4.04091 -2.669,-0.33207 -5.90742,-0.95283 -7.19648,-1.37948 -1.28906,-0.42664 -4.11022,-1.25394 -6.26922,-1.83844 -3.88903,-1.05285 -13.41828,-7.75741 -13.41828,-9.4408 0,-0.48093 -1.18493,-2.89691 -2.63319,-5.36882 -1.44825,-2.47191 -3.304,-6.18188 -4.12388,-8.24438 l -1.49069,-3.75 -0.62843,3.30495 c -0.65913,3.46637 0.59826,30.61439 2.45221,52.94505 0.99013,11.92597 0.47728,30.45954 -0.8073,29.17496 -0.26917,-0.26915 -0.42436,-4.6274 -0.34489,-9.68499 0.0795,-5.05759 -0.2816,-14.0431 -0.80236,-19.9678 -0.52076,-5.92469 -1.1975,-13.7253 -1.50385,-17.33467 -0.30635,-3.60938 -0.6833,-14.19097 -0.83767,-23.51464 -0.23577,-14.24011 -0.54283,-17.35224 -1.91938,-19.45312 -0.9013,-1.37555 -1.9672,-2.50099 -2.3687,-2.50099 -0.40149,0 -1.84213,2.77809 -3.20142,6.17355 -5.08142,12.69315 -15.29064,24.66834 -24.59002,28.84353 l -3.8662,1.73584 -3.38586,13.82117 c -4.13712,16.88778 -4.72387,29.65041 -1.51087,32.86341 3.15969,3.15969 3.07885,3.21471 12.39423,-8.43517 5.31349,-6.6451 6.87836,-6.96919 8.21636,-1.70169 0.56484,2.22371 2.04939,6.15249 3.299,8.73061 1.2496,2.57813 4.41582,11.22656 7.03604,19.21875 3.42318,10.44139 5.42648,15.12494 7.11773,16.64062 1.29453,1.16016 2.7166,2.10938 3.16014,2.10938 0.44355,0 2.1135,-1.65029 3.71102,-3.66731 z m 25.981,-40.16082 c -0.31682,-2.44921 -1.04828,-9.6999 -1.62546,-16.11265 -0.95815,-10.64549 -2.2473,-17.51374 -4.10231,-21.8561 -0.48245,-1.12936 -0.27827,-1.64062 0.65522,-1.64062 3.13596,0 4.75909,8.79516 6.0122,32.57812 0.61079,11.59192 0.12271,15.24403 -0.93965,7.03125 z M 186.5625,431.1512 c 0,-3.89394 5.5777,-22.84363 8.95834,-30.43501 0.70479,-1.58266 2.33467,-7.02812 3.62195,-12.10103 2.19917,-8.66645 3.6029,-11.80698 4.76014,-10.64973 0.27318,0.27317 -0.1166,1.96445 -0.86615,3.7584 -0.74956,1.79394 -2.20642,6.39387 -3.23748,10.22206 -1.03106,3.8282 -2.98826,9.91349 -4.34932,13.52286 -1.36106,3.60938 -3.0425,8.67188 -3.73652,11.25 -0.69402,2.57813 -1.69671,5.82696 -2.22821,7.21963 -0.53151,1.39267 -1.06716,4.24032 -1.19034,6.32813 -0.26125,4.42755 -1.73241,5.17883 -1.73241,0.88469 z M 33.252198,450.06849 c 3.593396,-2.8736 9.077771,-7.70717 12.1875,-10.74126 8.043177,-7.84753 16.313789,-14.63973 17.826276,-14.63973 1.187858,0 1.714046,1.83507 4.783038,16.68077 0.576993,2.7911 2.780224,3.57662 6.302601,2.24707 2.06982,-0.78127 3.908434,-0.79358 6.877162,-0.046 6.568801,1.65405 9.727213,0.50264 16.192887,-5.90314 6.282648,-6.22447 12.265838,-13.2221 12.265838,-14.34552 0,-0.38774 1.17834,-2.45366 2.61855,-4.59094 1.44021,-2.13728 5.01781,-8.80453 7.95023,-14.8161 2.93243,-6.01158 6.00418,-11.60264 6.82611,-12.42457 1.36757,-1.36757 1.34924,-1.54627 -0.21586,-2.10523 -5.56994,-1.98923 -13.29783,-5.99408 -15.39865,-7.98011 l -2.43837,-2.30514 -1.12439,2.8726 c -0.61841,1.57993 -2.78304,7.87051 -4.8103,13.97907 C 99.633141,406.38102 93.217529,420 91.765485,420 c -0.913701,0 0.140775,-3.92994 1.509291,-5.625 1.597477,-1.97864 6.411371,-14.15708 8.889334,-22.48866 1.14831,-3.86094 2.89641,-8.60483 3.88467,-10.54196 l 1.79682,-3.52206 -2.42467,-3.66392 c -1.33357,-2.01516 -3.06643,-5.70878 -3.85082,-8.20804 -1.834782,-5.84607 -1.702454,-18.1422 0.26076,-24.23161 1.69384,-5.25385 9.34249,-21.73907 11.09179,-23.90625 0.6243,-0.77344 2.30574,-3.45588 3.73653,-5.96097 l 2.60143,-4.55472 -4.78656,0.65832 c -3.87199,0.53254 -4.78656,0.39679 -4.78656,-0.7104 0,-1.17648 -0.75712,-1.20492 -5.39062,-0.2025 -2.96485,0.64142 -9.104021,1.86072 -13.642614,2.70956 -4.53859,0.84884 -8.968278,1.91074 -9.84375,2.35978 -0.875471,0.44904 -4.544891,2.16285 -8.154266,3.80848 -15.31233,6.98137 -20.672542,10.32534 -31.40625,19.59278 -13.695823,11.82491 -28.279117,28.05341 -31.2717759,34.79967 -0.3430988,0.77344 -2.3007976,4.57031 -4.3504421,8.4375 -3.6866941,6.95591 -4.4608655,9.375 -3.0002402,9.375 0.413898,0 5.2654605,-2.93764 10.7812502,-6.52809 5.515789,-3.59045 10.028708,-6.4363 10.028708,-6.32412 0,0.11218 -1.738988,3.78811 -3.864416,8.16872 -7.121036,14.67678 -8.241982,17.82704 -10.2692273,28.86022 -1.6118402,8.77235 -1.8973629,12.86414 -1.4203287,20.35452 0.6601827,10.36618 2.256049,18.10204 4.715503,22.8581 1.413707,2.73381 1.960813,3.05806 4.352707,2.57968 1.504669,-0.30094 2.735762,-0.15006 2.735762,0.33529 0,1.33868 6.262498,-2.52132 13.564698,-8.36083 z m -13.519668,1.10338 c 0.02477,-0.38671 0.763047,-2.06249 1.640625,-3.72394 0.877577,-1.66146 2.845748,-5.45833 4.373713,-8.4375 1.527965,-2.97917 3.889981,-6.89324 5.248925,-8.69793 1.358944,-1.80469 7.700556,-12.14063 14.092471,-22.96875 6.391915,-10.82813 14.132048,-23.0625 17.200296,-27.1875 3.068249,-4.125 8.554609,-11.50781 12.191912,-16.40625 3.637303,-4.89844 7.035153,-9.47093 7.550778,-10.16111 C 83.730164,351.31487 104.97252,330 105.5399,330 c 1.18414,0 -5.898031,8.32185 -13.265971,15.58806 -4.249291,4.19062 -8.714115,9.10484 -9.921831,10.92049 -1.207716,1.81565 -7.161792,9.88405 -13.23128,17.92977 -6.069487,8.04573 -12.13589,16.63152 -13.480895,19.07952 -1.345004,2.448 -2.946492,5.08372 -3.558861,5.85716 -1.489353,1.88109 -8.018562,13.11651 -8.018562,13.79828 0,0.53911 -3.691117,6.33899 -10.435203,16.39691 -1.97355,2.94329 -5.540804,9.16594 -7.92723,13.82812 -2.386425,4.66218 -4.715518,8.47669 -5.175761,8.47669 -0.460243,0 -0.816543,-0.31641 -0.791776,-0.70313 z m 13.624006,-76.98755 c -0.284885,-0.46096 2.534757,-3.96629 6.265871,-7.78963 5.837374,-5.98167 12.914218,-11.30983 29.661473,-22.33219 1.958588,-1.28906 6.563866,-4.33634 10.23395,-6.77173 3.670085,-2.43538 10.799502,-6.58345 15.843151,-9.21792 5.043649,-2.63448 9.836299,-5.38798 10.650339,-6.11891 1.67851,-1.50712 4.08448,-1.81053 3.21618,-0.40559 -0.58828,0.95187 -8.31637,5.58139 -19.551936,11.71263 -6.553837,3.57643 -19.740399,11.98378 -24.16711,15.40822 -1.353163,1.04678 -5.782851,4.12468 -9.84375,6.83976 -4.0609,2.71509 -10.624971,8.21634 -14.586825,12.22498 -3.961854,4.00866 -7.436458,6.91133 -7.721343,6.45038 z m 297.697244,78.99171 c 0.96729,-0.8754 1.75872,-2.3451 1.75872,-3.266 0,-2.23454 1.64699,-3.14135 3.26562,-1.798 2.53674,2.1053 6.34578,0.6823 9.59081,-3.58299 1.70084,-2.23558 2.86298,-4.43596 2.58255,-4.88972 -0.28044,-0.45376 0.31459,-2.44114 1.32229,-4.4164 4.48563,-8.79255 3.49162,-14.30583 -3.87943,-21.5173 -5.36774,-5.2515 -7.61682,-5.9469 -13.35059,-4.12788 -2.0625,0.65433 -4.30731,1.36683 -4.98847,1.58335 -0.93664,0.29773 -0.76529,1.05819 0.70313,3.12038 1.06788,1.4997 1.94795,3.92722 1.95571,5.3945 0.0142,2.68344 1.65559,8.15207 3.14719,10.48551 0.88838,1.38977 3.37255,10.25944 3.39006,12.10414 0.0276,2.90351 -1.53523,0.69453 -2.98558,-4.22005 -2.41221,-8.17383 -3.15709,-8.8327 -10.36478,-9.16811 -4.59474,-0.21381 -7.26322,-0.91016 -10.29384,-2.68623 l -4.09118,-2.39759 -1.74697,3.02506 c -0.96082,1.66377 -3.38967,4.83395 -5.39743,7.04482 -2.75839,3.03746 -3.50816,4.52661 -3.06812,6.09375 0.98418,3.50507 8.51462,9.7676 13.83022,11.50161 2.70053,0.88094 5.33194,1.92237 5.84756,2.31429 2.9101,2.21189 10.03674,1.8787 12.77253,-0.59715 z m -30.13975,-22.93002 c 3.61979,-3.73587 4.84498,-5.82066 5.7209,-9.73473 1.7824,-7.9646 -0.32194,-14.56095 -4.17365,-13.08291 -2.06341,0.79181 -5.75611,8.36119 -7.07177,14.49592 -0.93577,4.36336 -0.58459,13.07571 0.52707,13.07571 0.21515,0 2.46399,-2.13929 4.99745,-4.75399 z m 23.34378,-4.26945 c 2.68267,-0.53653 2.92969,-0.89544 2.92969,-4.25671 0,-4.63303 -2.7552,-8.47579 -8.398,-11.71298 -5.31211,-3.04747 -9.51995,-6.8903 -8.80734,-8.04333 0.57494,-0.93026 -3.59479,-5.16992 -11.60439,-11.79897 -3.58119,-2.96394 -5.40833,-3.89237 -6.79438,-3.45245 -1.04274,0.33095 -1.89589,0.91601 -1.89589,1.30015 0,0.38413 4.42969,5.23676 9.84375,10.78363 l 9.84375,10.08522 0,5.37553 c 0,4.84337 0.30163,5.66333 3.04687,8.28267 3.86589,3.68859 6.60375,4.48368 11.83594,3.43724 z M 173.72314,406.11508 c 2.43519,-1.0772 7.25027,-4.85123 11.18753,-8.76874 5.45406,-5.42668 7.72029,-8.5822 10.74235,-14.95775 2.10655,-4.4441 4.11145,-9.08472 4.45534,-10.3125 0.68245,-2.43648 3.02763,-8.59061 4.45149,-11.68139 0.49383,-1.07198 1.00894,-9.29854 1.14468,-18.28125 0.17139,-11.34143 0.75495,-18.65568 1.90973,-23.93574 1.58572,-7.25055 1.5866,-7.72002 0.0188,-10.11288 l -1.64419,-2.50935 -1.06897,2.14414 c -0.58793,1.17927 -1.90026,2.14413 -2.91628,2.14413 -2.34998,0 -2.8618,-4.1053 -1.39355,-11.17781 0.73106,-3.5215 1.55722,-5.1679 2.74972,-5.47975 2.0201,-0.52826 3.17529,-6.20647 1.56306,-7.68304 -3.52288,-3.22648 -6.23888,2.14572 -6.49214,12.84133 -0.1429,6.03527 -0.51034,7.58937 -2.19185,9.27088 -2.56808,2.56807 -4.98881,1.7428 -4.98881,-1.70078 l 0,-2.58178 -1.45941,2.0836 c -0.80267,1.14598 -2.27924,2.0836 -3.28125,2.0836 -2.64849,0 -2.38532,-4.64671 0.57255,-10.10929 1.31693,-2.43208 3.86438,-7.12684 5.66102,-10.43282 2.95181,-5.43159 3.32604,-8.57988 0.81312,-6.84073 -1.59502,1.10391 -6.99353,8.92206 -6.99353,10.12809 0,2.07651 -4.18949,8.52198 -7.16659,11.02567 -5.00336,4.20775 -7.10061,2.7683 -4.21311,-2.89168 1.76999,-3.46948 6.32008,-8.69174 7.57299,-8.69174 0.3438,0 2.36928,-2.47325 4.50106,-5.4961 2.78029,-3.94245 3.58914,-5.78291 2.86136,-6.51069 -1.31744,-1.31744 -7.30571,4.1679 -7.30571,6.69216 0,1.00334 -4.06904,5.79092 -9.375,11.03052 -5.15625,5.09176 -9.375,9.65542 -9.375,10.14146 0,0.48605 -0.55088,1.4412 -1.22418,2.12256 -0.6733,0.68137 -2.22754,3.03181 -3.45389,5.22322 -1.22633,2.1914 -2.56344,3.98437 -2.97136,3.98437 -1.06792,0 0.91397,-4.82329 2.88915,-7.03125 0.92253,-1.03125 2.47179,-3.35156 3.4428,-5.15625 0.97102,-1.80469 2.38228,-4.04096 3.13614,-4.9695 0.75386,-0.92855 1.27742,-3.07267 1.16346,-4.76471 -0.14463,-2.1475 0.47216,-3.80949 2.04262,-5.50404 l 2.24979,-2.42757 -2.23101,-0.55995 c -3.17929,-0.79795 -2.83747,-3.81732 0.81585,-7.20651 4.0052,-3.71563 8.00949,-5.77454 10.14468,-5.21618 2.52,0.659 4.63845,-2.92348 3.38454,-5.72353 -1.44866,-3.23492 -4.633,-2.3603 -5.7941,1.59142 -1.2677,4.31454 -6.33926,7.56029 -12.86561,8.23387 -4.69531,0.48459 -5.25356,0.33069 -7.04051,-1.94105 l -1.94083,-2.46737 -5.48314,4.63563 c -5.04596,4.26601 -21.32377,21.08891 -26.82739,27.72574 -1.28275,1.54688 -3.29396,4.5 -4.46936,6.5625 -2.99537,5.25608 -12.61437,24.57606 -14.41862,28.96015 -2.13749,5.19378 -2.80186,12.57076 -1.55028,17.2137 0.91274,3.38596 1.81036,4.40833 5.95979,6.78808 4.24576,2.43499 5.82091,2.80288 12.03365,2.81053 14.5289,0.0179 16.59335,1.38486 17.75661,11.75767 0.9089,8.10464 3.1775,15.60631 5.77024,19.08068 0.91765,1.22969 1.66846,2.71796 1.66846,3.30727 0,1.44597 2.88917,3.82575 6.19627,5.10381 4.04323,1.56254 16.23582,0.66684 21.27687,-1.56306 z m -20.20596,-38.69616 c 4.47527,-6.07292 6.5388,-9.24615 7.66107,-11.78098 0.88858,-2.007 2.88425,-3.82006 2.88425,-2.62034 0,0.98945 -9.32946,16.17793 -10.90498,17.75345 -3.15344,3.15344 -2.93515,1.11892 0.35966,-3.35213 z m 33.8729,-4.37205 c 6.60938,-12.66783 11.40011,-26.66768 13.59402,-39.7255 0.83375,-4.9623 1.5159,-9.28652 1.5159,-9.60937 0,-0.32285 0.48198,-0.587 1.07106,-0.587 2.50547,0 -2.09115,22.3727 -7.31942,35.625 -2.75801,6.99082 -7.44827,16.7108 -8.91837,18.48216 -2.52187,3.03866 -2.49007,0.69618 0.0568,-4.18529 z m -48.17675,-10.87664 c -0.48739,-1.14781 0.0239,-3.28697 1.50914,-6.31354 2.63321,-5.36604 4.24459,-6.22017 2.05835,-1.09106 -0.82419,1.93359 -1.79817,4.78125 -2.16443,6.32812 -0.56831,2.40029 -0.77395,2.55806 -1.40306,1.07648 z m 24.84917,-0.99337 c 0,-1.1829 4.78067,-10.81129 5.62803,-11.33498 1.46064,-0.90273 1.12789,0.35715 -1.52817,5.78595 -2.15984,4.41456 -4.09986,7.04031 -4.09986,5.54903 z M 143.90625,338.4375 c 0.31868,-0.51563 0.76545,-0.9375 0.99283,-0.9375 0.22738,0 0.41342,0.42187 0.41342,0.9375 0,0.51562 -0.44678,0.9375 -0.99283,0.9375 -0.54606,0 -0.7321,-0.42188 -0.41342,-0.9375 z m 29.20575,-6.32813 c 1.31079,-2.96484 3.37132,-7.5 4.57896,-10.07812 1.20762,-2.57813 3.04995,-6.69141 4.09405,-9.14063 1.04409,-2.44921 2.33523,-4.45312 2.86917,-4.45312 1.80027,0 0.91853,2.44097 -4.74112,13.125 -1.50229,2.83594 -3.83994,7.58203 -5.19479,10.54687 -1.35484,2.96485 -2.80675,5.39063 -3.22645,5.39063 -0.4197,0 0.30938,-2.42578 1.62018,-5.39063 z M 147.1875,331.875 c 0,-0.51563 0.42187,-0.9375 0.9375,-0.9375 0.51562,0 0.9375,0.42187 0.9375,0.9375 0,0.51562 -0.42188,0.9375 -0.9375,0.9375 -0.51563,0 -0.9375,-0.42188 -0.9375,-0.9375 z m 5.65481,-9.20759 c -0.0164,-0.68136 0.603,-1.87165 1.37644,-2.64509 1.80741,-1.80741 1.82897,-0.31457 0.0298,2.06412 -0.86359,1.14178 -1.38754,1.35824 -1.40625,0.58097 z m 180.04005,84.51273 c 0.43477,-0.43477 -0.6959,-1.80899 -2.51262,-3.05382 -3.65236,-2.50264 -12.05217,-3.64703 -14.43224,-1.96624 -1.18656,0.83794 -0.90747,1.44856 1.78635,3.90849 3.01009,2.74874 3.51205,2.88645 8.78031,2.40874 3.07323,-0.27867 5.94343,-0.8624 6.3782,-1.29717 z m -75.8236,-1.10897 c 10.28797,-2.46212 12.736,-4.4573 14.30204,-11.65639 0.33303,-1.53092 0.98591,-2.3589 1.57363,-1.99567 0.96425,0.59594 0.69303,3.78289 -0.60808,7.14531 -0.55644,1.43801 -0.24437,1.41542 3.15841,-0.22862 6.18962,-2.9905 8.55427,-7.74701 4.59336,-9.23957 -6.5484,-2.46757 -7.44126,-2.25486 -13.34026,3.17819 -3.08324,2.83969 -5.90076,5.16308 -6.26116,5.16308 -0.3604,0 -1.21275,0.52808 -1.89411,1.17352 -2.36106,2.23658 -9.17386,6.32648 -10.53841,6.32648 -0.75407,0 -1.63175,0.42187 -1.95043,0.9375 -0.86754,1.40371 2.8926,1.12807 10.96501,-0.80383 z m -11.43376,-2.7082 c 7.74899,-2.76119 14.48059,-6.99339 20.11745,-12.64796 5.51102,-5.52834 5.64257,-5.59603 9.77523,-5.02958 2.30397,0.31579 4.97304,1.28368 5.93127,2.15087 1.64014,1.48431 1.86163,1.45728 3.78015,-0.46122 1.15434,-1.15436 7.1354,-3.71826 13.79503,-5.91353 12.51456,-4.12529 16.6538,-6.89573 20.8595,-13.96155 7.64842,-12.84977 8.70578,-13.78131 16.21012,-14.28137 3.46612,-0.23096 3.84457,-0.53376 4.99916,-3.99988 2.04911,-6.15147 0.98614,-20.35763 -2.01274,-26.89945 -2.30729,-5.03315 -3.56773,-6.54277 -12.48752,-14.95623 -5.94795,-5.61031 -18.2713,-15.80057 -19.10803,-15.80057 -0.42818,0 -2.66141,-1.43725 -4.96274,-3.19389 -3.82043,-2.91621 -11.61952,-7.58827 -17.52188,-10.49654 -4.4172,-2.17647 -19.9651,-7.90697 -20.36583,-7.50624 -0.22025,0.22026 0.47507,0.67836 1.54518,1.01799 4.96188,1.57485 -1.00627,7.93902 -7.54,8.04035 -3.15467,0.0489 -3.16,0.0565 -1.06123,1.5206 2.42832,1.6939 2.78861,4.79093 0.65271,5.61055 -1.81204,0.69535 -8.23184,-2.12398 -10.46867,-4.59743 -0.91762,-1.0147 -3.30765,-2.74923 -5.31116,-3.85452 -2.00351,-1.10529 -4.51828,-2.51476 -5.58838,-3.13216 -1.45372,-0.83873 -2.26925,-0.85397 -3.22558,-0.0603 -0.96516,0.80101 -1.46716,0.75934 -2.04117,-0.16944 -1.24575,-2.01566 -2.5857,-0.35895 -3.79846,4.69644 -1.43239,5.97084 -0.66833,10.89118 2.60863,16.79889 l 2.56271,4.62006 -2.16649,2.14969 -2.16649,2.14969 -1.80214,-2.1938 c -1.42495,-1.73462 -1.78769,-3.60059 -1.73306,-8.91487 0.038,-3.69659 -0.22431,-8.28506 -0.58292,-10.19661 -0.48663,-2.59397 -0.27035,-3.8572 0.85267,-4.98021 0.82757,-0.82758 1.50468,-2.20529 1.50468,-3.0616 0,-0.97752 -0.83903,-0.34206 -2.25461,1.70759 -1.24003,1.79547 -3.19309,4.04542 -4.34013,4.99988 -1.82185,1.51597 -2.0207,2.36346 -1.57278,6.70334 0.28201,2.73238 1.24303,7.28471 2.13561,10.1163 0.89258,2.83159 1.35885,5.83637 1.03615,6.6773 -0.99129,2.58328 -3.57647,2.93088 -5.36555,0.72146 l -1.63176,-2.01515 -1.33988,2.09319 c -3.2,4.99913 -5.41031,20.9477 -5.41441,39.06799 -0.003,11.46808 1.45358,22.44732 3.13318,23.6235 0.46992,0.32907 0.60872,0.99582 0.30846,1.48166 -0.88527,1.43239 1.76041,10.06608 5.57664,18.19833 2.47726,5.27896 4.6981,8.50396 7.3433,10.66362 7.3144,5.97178 12.03668,6.75707 21.13578,3.5148 z m 2.68141,-41.30718 c -4.20635,-4.29083 -10.3143,-14.06782 -13.18966,-21.11268 -5.13255,-12.57514 -9.24738,-34.38061 -6.48785,-34.38061 0.44903,0 1.11408,2.63672 1.47791,5.85937 0.79583,7.04941 3.30766,17.73001 6.10392,25.95472 1.84951,5.43998 13.12704,23.49998 15.16139,24.27966 0.99663,0.38196 1.09144,2.05229 0.11225,1.97766 -0.38671,-0.0294 -1.8168,-1.18962 -3.17796,-2.57812 z M 270,335.67725 c -4.28292,-2.76608 -13.63749,-11.47862 -17.69906,-16.48433 -1.22668,-1.51181 -3.928,-6.13229 -6.00293,-10.26771 -3.87053,-7.71415 -4.90501,-9.01404 -6.68175,-8.39612 -0.56238,0.19559 -1.69914,-0.16128 -2.52613,-0.79303 -2.04492,-1.56216 -5.73374,-8.95662 -5.03342,-10.08976 0.31083,-0.50292 -0.30603,-2.02191 -1.37079,-3.37553 -2.10309,-2.67364 -2.66725,-7.2958 -0.81516,-6.67843 0.61642,0.20547 1.42511,1.51154 1.79707,2.90238 0.37197,1.39084 3.03169,4.70587 5.91049,7.36675 3.92802,3.63067 5.23418,5.48551 5.23418,7.43291 0,1.42724 0.44435,2.86959 0.98744,3.20523 0.54309,0.33566 2.01895,2.94272 3.2797,5.79348 1.26074,2.85077 4.14149,7.76901 6.40167,10.92943 4.08996,5.71905 14.71127,15.90756 18.97108,18.19805 1.22931,0.66099 2.23511,1.61021 2.23511,2.10937 0,1.20752 0.13108,1.25933 -4.6875,-1.85269 z m -29.60414,-38.3718 c 0.52613,-0.85132 -3.95805,-6.24327 -4.63182,-5.56948 -0.42621,0.42619 3.02521,6.38903 3.6981,6.38903 0.23496,0 0.65513,-0.3688 0.93372,-0.81955 z m 55.20585,30.58517 c -0.48283,-0.64453 -2.22091,-3.96364 -3.8624,-7.3758 -1.64149,-3.41217 -5.20044,-8.73371 -7.90879,-11.82564 -5.20088,-5.93749 -16.5636,-14.13219 -22.5617,-16.27131 -3.46211,-1.23469 -6.03167,-3.28003 -5.18472,-4.12696 0.66177,-0.66178 13.89996,6.35168 19.58104,10.37384 7.25797,5.13857 14.27733,13.21632 17.57835,20.22881 3.94792,8.38671 5.04958,12.58975 2.35822,8.99706 z m -54.00116,-35.40528 c -1.32128,-1.03932 -2.90562,-3.4651 -3.52077,-5.39063 -0.61515,-1.92553 -2.19696,-4.65672 -3.51514,-6.06931 -4.20035,-4.50117 -1.46379,-3.87392 4.40424,1.00951 9.37135,7.79892 10.71588,9.24314 10.09976,10.8487 -0.7934,2.06759 -4.59072,1.86508 -7.46809,-0.39827 z m 2.85968,-2.51375 c -1.39063,-1.39062 -2.74768,-2.30915 -3.01567,-2.04115 -0.68556,0.68555 3.07985,4.56956 4.43003,4.56956 0.61272,0 -0.0237,-1.13779 -1.41436,-2.52841 z M 142.16837,400.6329 c -2.7605,-4.23604 -4.92386,-11.61235 -5.78681,-19.73104 -0.34963,-3.28932 -1.215,-6.3121 -1.99155,-6.95658 -0.75529,-0.62684 -5.92801,-1.66068 -11.49493,-2.29745 -6.52795,-0.74668 -11.50168,-1.86176 -14.00838,-3.14059 C 106.74901,367.41667 105,366.88943 105,367.3356 c 0,1.63036 7.42651,12.2466 9.24952,13.22225 2.56974,1.37527 2.62927,1.34657 3.26411,-1.57348 0.67513,-3.10539 2.17515,-5.54559 2.93925,-4.7815 0.30515,0.30516 0.0636,1.63293 -0.53677,2.9506 -1.65968,3.64262 -0.42801,6.96012 2.85148,7.68042 3.8903,0.85444 6.98505,3.53615 10.91706,9.45997 3.13663,4.72554 9.64613,11.12535 10.47399,10.29749 0.19625,-0.19624 -0.69937,-1.97755 -1.99027,-3.95845 z m 185.88728,-32.12841 c 3.08997,-2.5319 3.16527,-2.74445 1.98319,-5.59822 -0.6758,-1.63151 -0.90324,-3.26927 -0.50543,-3.63945 0.39781,-0.37019 0.89168,-0.20555 1.0975,0.36586 0.20582,0.5714 0.88634,1.71795 1.51227,2.54787 0.99811,1.32338 1.47205,1.03835 3.8538,-2.31765 2.4382,-3.43553 2.51812,-3.76387 0.78203,-3.21287 -1.06355,0.33756 -2.18057,0.21431 -2.4823,-0.27388 -1.66974,-2.70171 -7.15743,3.32941 -15.85536,17.42548 -0.97975,1.5878 5.71018,-2.09811 9.6143,-5.29714 z m -120.40318,-1.03196 c -0.6657,-4.84023 -1.9434,-5.31556 -2.44618,-0.91003 -0.27151,2.37897 1.72666,7.12955 2.62214,6.23407 0.26897,-0.26896 0.18978,-2.66478 -0.17596,-5.32404 z M 472.97349,357.1875 c 5.02816,0 6.39005,-0.37436 8.82958,-2.42708 1.97804,-1.66441 2.88443,-3.26642 2.88443,-5.09808 0,-3.6657 -2.64249,-14.78288 -4.39328,-18.48287 -2.16505,-4.57545 -1.18401,-5.86697 4.45655,-5.86697 5.77735,0 10.20266,-1.95148 15.19525,-6.70082 l 3.71793,-3.53678 -0.6774,-6.36557 c -0.9751,-9.16306 -3.66563,-16.5804 -8.94027,-24.64683 -1.51725,-2.32031 -3.13848,-5.0625 -3.60273,-6.09375 -0.46425,-1.03125 -3.40373,-3.98438 -6.53217,-6.5625 -3.12845,-2.57813 -5.70384,-5.10938 -5.72312,-5.625 -0.0193,-0.51563 0.57301,-2.625 1.31617,-4.6875 1.30205,-3.61364 1.26718,-3.82531 -0.9593,-5.82101 -2.71131,-2.43029 -14.76542,-6.42373 -23.1372,-7.66518 -3.23217,-0.47931 -13.59724,-0.93903 -23.03347,-1.02161 -18.85472,-0.16502 -21.27578,0.2677 -39.09321,6.9872 -16.30624,6.1496 -22.83621,9.1189 -22.42371,10.19651 0.29289,0.76513 -2.21672,1.05017 -8.72462,0.99094 -8.79383,-0.0801 -9.47166,0.0658 -18.10905,3.89538 -4.93529,2.18819 -10.00417,4.1366 -11.26419,4.3298 -1.99711,0.30622 -1.56949,0.76387 3.33407,3.56831 7.68119,4.39301 19.76467,16.82195 28.55698,29.37338 3.90936,5.58078 17.48428,19.37184 25.81017,26.22109 6.61475,5.4416 20.43037,14.72644 21.91257,14.72644 0.58896,0 2.64508,0.84375 4.56917,1.875 1.92409,1.03125 4.36944,1.875 5.4341,1.875 1.06467,0 2.33654,0.39254 2.82638,0.87232 1.72035,1.68497 14.14234,4.1139 26.67188,5.21525 6.96094,0.61188 13.21809,0.96905 13.9048,0.79372 0.6867,-0.17533 3.92386,-0.31879 7.19369,-0.31879 z m -17.09494,-10.73807 c -7.93585,-7.44492 -12.98,-11.49892 -16.6598,-13.38958 -1.54687,-0.79477 -5.34225,-3.36042 -8.43417,-5.70144 -3.09192,-2.34103 -8.78724,-5.7081 -12.65625,-7.48238 -3.86902,-1.77428 -8.72208,-4.55711 -10.78458,-6.18408 -2.0625,-1.62695 -6.49219,-4.60642 -9.84375,-6.62103 -3.35156,-2.01462 -6.30469,-3.90239 -6.5625,-4.19505 -0.25781,-0.29266 -1.98746,-1.30274 -3.84366,-2.24459 -1.8562,-0.94186 -5.29556,-3.68405 -7.64303,-6.09375 -2.34746,-2.40971 -6.82351,-6.27972 -9.94676,-8.60003 -5.16109,-3.83424 -5.68209,-4.53917 -5.71635,-7.73437 -0.0337,-3.14775 1.18205,-4.80093 1.99355,-2.71069 0.28515,0.73448 12.97995,5.63272 18.59375,7.17432 1.28906,0.35399 4.55909,1.66919 7.26673,2.92267 2.70764,1.25348 8.68947,3.50988 13.29296,5.01423 4.60349,1.50434 11.03658,3.97353 14.29576,5.48707 3.25919,1.51355 7.40236,3.05933 9.20705,3.43508 1.80469,0.37575 5.39063,1.63466 7.96875,2.79757 5.75055,2.5939 19.71269,7.48508 34.6875,12.15163 13.26098,4.13248 16.59376,5.33749 16.10738,5.82385 -0.74445,0.74446 -17.17924,-3.87919 -32.98238,-9.27903 -13.17827,-4.50295 -15.51688,-5.37157 -18.2061,-6.76222 -1.38151,-0.7144 -5.44405,-2.2244 -9.02787,-3.35553 -3.58382,-1.13114 -7.38963,-2.60077 -8.45737,-3.26586 -1.06773,-0.66508 -5.84915,-2.51848 -10.62537,-4.11866 -4.77622,-1.60018 -11.0745,-4.00514 -13.99616,-5.34435 -6.80791,-3.12055 -26.30103,-9.21557 -27.05665,-8.45994 -0.31709,0.31709 1.49205,2.37459 4.0203,4.57225 2.52825,2.19765 7.42831,6.63245 10.88903,9.8551 3.46072,3.22266 6.7673,5.85938 7.34795,5.85938 0.58065,0 2.81219,1.22039 4.95898,2.71197 9.19175,6.38639 20.29937,13.19587 26.40326,16.18639 3.60938,1.76837 9.57456,5.41154 13.25596,8.09593 3.6814,2.68439 6.97909,4.88071 7.32817,4.88071 1.74975,0 19.00257,14.91485 21.8909,18.92441 2.58124,3.58326 -0.88128,1.45142 -7.06523,-4.34998 z M 392.8125,276.44147 c -14.80113,-0.88681 -32.86553,-2.70861 -36.5625,-3.68734 -1.80469,-0.47777 -4.38975,-0.87103 -5.74459,-0.8739 -2.50272,-0.006 -5.29788,-2.25592 -3.8857,-3.1287 0.42529,-0.26285 3.29343,0.16603 6.37365,0.95305 3.08021,0.78703 9.6082,1.8026 14.50664,2.25683 4.89844,0.45424 13.54687,1.30724 19.21875,1.89557 6.7021,0.69519 17.04097,0.8381 29.53125,0.40819 36.62825,-1.26069 59.0625,-1.06467 59.0625,0.51609 0,0.44239 -6.85547,0.65927 -15.23438,0.48196 -8.3789,-0.1773 -19.03125,0.0184 -23.67187,0.43484 -12.1051,1.08637 -32.16115,1.42838 -43.59375,0.74341 z m -180.03323,23.26882 c 0.0184,-1.45637 -0.37029,-2.38406 -0.86955,-2.07549 -1.21816,0.75286 -2.91945,7.11487 -2.20972,8.26325 0.82691,1.33796 3.04045,-3.11013 3.07927,-6.18776 z m -16.92202,1.69596 c -0.0516,-1.875 -0.0516,-1.875 -0.85725,0 -0.44315,1.03125 -0.82891,2.50781 -0.85725,3.28125 -0.0458,1.25 0.0494,1.25 0.85725,0 0.49984,-0.77344 0.8856,-2.25 0.85725,-3.28125 z m 7.59305,2.57812 c 0.007,-0.90234 0.24701,-2.69531 0.53326,-3.98437 0.37543,-1.69068 0.27649,-1.95191 -0.35504,-0.9375 -1.4502,2.32938 -2.18968,6.5625 -1.14638,6.5625 0.52545,0 0.96112,-0.73828 0.96816,-1.64063 z m 16.39345,0.70313 c 0.31868,-0.51563 0.16197,-0.9375 -0.34822,-0.9375 -0.51019,0 -1.11045,-0.94922 -1.33391,-2.10938 -0.2938,-1.5254 -0.44163,-1.26586 -0.53395,0.9375 -0.12338,2.9445 1.02461,4.03721 2.21608,2.10938 z m -29.1256,-6.32813 c 0.36201,-1.16015 0.44973,-2.10937 0.19494,-2.10937 -0.62286,0 -3.41309,5.65317 -3.41309,6.91513 0,1.38111 2.41115,-2.21954 3.21815,-4.80576 z m 38.96935,2.63346 c 0,-0.48519 -0.42188,-1.14291 -0.9375,-1.46158 -0.51563,-0.31867 -0.9375,0.0783 -0.9375,0.88217 0,0.80387 0.42187,1.46158 0.9375,1.46158 0.51562,0 0.9375,-0.39698 0.9375,-0.88217 z m -49.61654,-3.45981 c 2.1676,-2.35281 2.176,-2.40797 0.18152,-1.19204 -1.1502,0.70122 -2.29712,1.81136 -2.54871,2.46698 -0.67127,1.7493 -0.17056,1.47963 2.36719,-1.27494 z m 29.4449,-9.25177 c 0.37091,-4.64063 0.37864,-8.14941 0.0171,-7.79729 -0.36147,0.35211 -0.78961,2.03961 -0.95143,3.75 -0.16182,1.71038 -0.56736,5.85198 -0.9012,9.20354 -0.39387,3.95422 -0.2966,5.60002 0.27703,4.6875 0.48622,-0.77344 1.18751,-5.20313 1.55842,-9.84375 z m -110.415238,6.95607 c 4.018098,-1.08948 11.203428,-2.97994 15.967398,-4.20103 11.33888,-2.90637 21.5882,-7.71597 27.85862,-13.07296 2.78057,-2.3755 6.03692,-4.37247 7.23633,-4.4377 1.76376,-0.0959 4.2978,-1.36785 8.10511,-4.06824 0.16464,-0.11677 -0.25416,-1.0986 -0.93066,-2.18184 -0.89342,-1.4306 -0.95819,-2.40043 -0.23667,-3.54427 2.1855,-3.46473 3.80765,-3.6143 9.53099,-0.8788 3.28591,1.57052 6.59538,2.4952 8.25471,2.30641 2.55541,-0.29075 2.17225,-0.66113 -4.95027,-4.78521 -9.04467,-5.23704 -14.31118,-10.12625 -14.31118,-13.28593 0,-2.05095 -0.23803,-2.16153 -3.04688,-1.41564 -17.40112,4.62094 -31.06045,6.66071 -43.80123,6.54093 -11.308127,-0.10632 -12.636977,-0.2123 -17.605015,-1.40403 -4.325574,-1.03762 -3.912067,-2.7759 0.46875,-1.9705 9.863575,1.81338 18.071895,2.29661 25.665935,1.51094 11.55553,-1.19553 29.4102,-4.53967 35.50594,-6.65019 l 5.15625,-1.78524 3.18007,3.17618 c 2.42704,2.42409 3.20402,4.01712 3.28125,6.72749 0.0984,3.45238 0.30942,3.66221 7.57635,7.53227 4.11133,2.18953 7.60173,3.85439 7.75643,3.69969 0.90321,-0.90321 -1.4969,-3.81765 -5.26628,-6.39483 -6.18187,-4.22665 -8.84798,-7.09648 -12.33852,-13.28137 -2.42734,-4.30103 -2.80271,-5.59439 -1.80296,-6.21228 2.86296,-1.7694 8.36004,4.37969 8.70263,9.73484 0.28209,4.40953 4.70107,8.04051 10.29514,8.45931 l 4.18886,0.3136 -0.28497,-5.72508 c -0.21023,-4.22364 -1.15795,-7.54454 -3.61367,-12.66272 -3.10873,-6.47918 -3.3071,-6.69699 -3.00193,-3.296 0.24508,2.73129 -0.13462,4.04181 -1.51894,5.24242 -1.19744,1.03852 -1.64302,2.23941 -1.26863,3.41901 0.85843,2.70468 3.63862,5.55349 4.97455,5.09734 0.69054,-0.23579 1.17187,0.40208 1.17187,1.55299 0,2.81459 -2.32227,2.40188 -4.85057,-0.86203 -1.19937,-1.54834 -3.97365,-4.7286 -6.16505,-7.06724 -5.75714,-6.14394 -5.47951,-12.53008 0.36669,-8.43524 1.92639,1.3493 1.94352,1.30434 1.14044,-2.99434 -1.01747,-5.44625 0.34174,-7.39924 2.93859,-4.22236 0.95398,1.16705 1.89815,2.61284 2.09816,3.21286 0.2,0.60002 0.8555,0.78695 1.45667,0.41541 1.73687,-1.07344 0.28985,-9.04654 -2.35681,-12.98607 -1.28804,-1.91724 -3.67342,-4.50148 -5.30083,-5.74277 -1.6274,-1.24128 -6.53634,-5.67943 -10.90873,-9.86254 -4.37239,-4.18312 -8.25153,-7.61059 -8.62031,-7.61661 -0.36878,-0.006 -2.05628,-1.20974 -3.75,-2.67494 -14.11573,-12.21113 -32.65684,-19.90815 -51.403922,-21.33947 -6.885455,-0.52569 -8.803494,-0.32307 -13.64196,1.44112 -10.754784,3.92139 -18.962453,13.13819 -20.926891,23.49984 -0.662603,3.49498 -3.062922,9.89196 -5.628409,15 -6.688618,13.31747 -6.902909,14.28598 -4.883619,22.07213 1.818247,7.01097 1.541072,13.26712 -0.828895,18.70912 -0.673658,1.54687 -1.153318,3.13907 -1.065913,3.53821 0.0874,0.39915 -0.731318,2.47072 -1.819384,4.60351 -2.251179,4.41268 -2.048594,7.51844 1.1608,17.79586 3.18732,10.20673 10.963526,16.56217 25.177443,20.57736 7.45367,2.10554 16.384269,1.73344 26.913122,-1.12137 z M 96.5625,277.5 c 0,-0.51563 0.949219,-0.94251 2.109375,-0.94863 1.160156,-0.007 4.429685,-0.67234 7.265625,-1.48051 2.83594,-0.80816 10.64063,-2.87227 17.34375,-4.58691 14.43993,-3.69371 28.04499,-8.41146 31.65429,-10.9766 1.42548,-1.01309 3.01436,-1.70113 3.53083,-1.52898 1.14412,0.38138 -7.85491,6.39429 -9.58195,6.4024 -0.6755,0.003 -2.42117,0.62802 -3.87928,1.38853 -3.62027,1.88822 -16.63692,5.94513 -24.15744,7.52916 -3.40096,0.71634 -8.37361,2.16566 -11.05033,3.22074 -5.07249,1.99938 -13.23487,2.60428 -13.23487,0.9808 z m 41.64231,-50.06617 c -6.64951,-1.61453 -21.68219,-9.16081 -26.17356,-13.13891 -2.0625,-1.82679 -4.02717,-3.32954 -4.36593,-3.33944 -1.34422,-0.0393 -15.456824,-12.69386 -17.514286,-15.70486 -3.638479,-5.32474 -1.588404,-4.5235 4.697435,1.83594 7.549131,7.63752 24.077091,20.15481 30.776531,23.30832 2.83594,1.3349 8.32031,3.38259 12.1875,4.55041 12.36456,3.73386 12.18807,3.6575 8.4375,3.65097 -1.80469,-0.003 -5.42502,-0.52624 -8.04519,-1.16243 z m 60.99713,55.45679 c 0.37739,-0.90234 0.32462,-1.64003 -0.11726,-1.63932 -1.17887,0.002 -5.02547,9.92992 -5.00241,12.91111 0.014,1.81016 0.66394,0.77763 2.22664,-3.53741 1.21378,-3.35156 2.51564,-6.83203 2.89303,-7.73438 z m 17.24964,4.1291 c 0.0625,-2.2955 0.87284,-5.16037 1.85622,-6.5625 1.05254,-1.50072 1.95853,-4.90726 2.28249,-8.58222 0.50849,-5.76831 0.47603,-5.90303 -0.60784,-2.52266 -0.62975,1.96409 -1.73582,3.93621 -2.45791,4.38249 -0.75218,0.46488 -1.42227,2.69413 -1.56901,5.21984 -0.28106,4.83751 -0.95741,6.18984 -2.13931,4.27747 -1.22629,-1.98418 -2.24345,0.4821 -2.17116,5.26433 0.0397,2.63061 0.69117,4.83612 1.78688,6.05007 1.72089,1.90658 1.72548,1.90505 2.31652,-0.77121 0.32571,-1.47487 0.64211,-4.51489 0.70312,-6.75561 z m -41.10367,2.70588 c 2.80253,-2.39548 2.98183,-2.7796 1.31277,-2.8125 -1.0909,-0.0215 -2.83897,1.1872 -4.01244,2.7744 -2.64926,3.58331 -1.46747,3.59999 2.69967,0.0381 z m 136.72776,-3.40408 2.98875,-1.49099 -3.07908,-3.54104 -3.07909,-3.54105 -8.71622,-0.10645 c -9.43758,-0.11524 -10.05657,0.49194 -3.66682,3.59684 2.17005,1.05448 5.63304,2.95799 7.69554,4.23002 4.46958,2.7566 4.11708,2.71835 7.85692,0.85267 z M 185.0295,277.64889 c 2.19353,-2.25794 3.34835,-4.17447 2.92656,-4.85693 -0.47081,-0.76178 -2.28552,0.50267 -5.59686,3.89976 -2.69508,2.76486 -6.12141,5.95258 -7.61405,7.08379 -2.60782,1.97637 -2.53067,1.96973 1.9736,-0.1701 2.57812,-1.22478 6.31796,-3.90521 8.31075,-5.95652 z m -8.39982,0.88979 c 0.98225,-1.0869 1.31334,-1.97618 0.73574,-1.97618 -1.35457,0 -7.67792,5.53728 -7.67792,6.72346 0,1.07247 4.40497,-1.93979 6.94218,-4.74728 z M 256.875,283.125 c 0,-0.51563 -0.94922,-0.93104 -2.10938,-0.92315 -1.70572,0.0116 -1.84027,0.18827 -0.70312,0.92315 1.81759,1.17461 2.8125,1.17461 2.8125,0 z m -54.74682,-4.39692 c -1.05821,-1.952 -1.43784,-2.19342 -1.46564,-0.93207 -0.0496,2.24821 2.04066,6.12562 2.52268,4.67957 0.20408,-0.61224 -0.27159,-2.29861 -1.05704,-3.7475 z m 4.96587,-2.86871 c 0.14347,-1.79919 -1.59724,-1.39034 -1.99572,0.46875 -0.19342,0.90235 -0.1427,2.48438 0.11269,3.51563 0.42044,1.69768 0.52701,1.65336 1.12696,-0.46875 0.36444,-1.28906 0.70468,-2.87109 0.75607,-3.51563 z m -8.34405,3.10221 c 0,-0.22738 -0.42188,-0.67416 -0.9375,-0.99283 -0.51563,-0.31867 -0.9375,-0.13264 -0.9375,0.41342 0,0.54606 0.42187,0.99283 0.9375,0.99283 0.51562,0 0.9375,-0.18604 0.9375,-0.41342 z m 50.10937,-1.37446 c -0.94415,-0.90149 -7.92187,-3.00245 -7.92187,-2.38524 0,0.19978 1.16016,0.99263 2.57812,1.7619 2.85213,1.54729 6.79289,2.00699 5.34375,0.62334 z m 11.96613,-1.06456 c 5.05257,-1.40325 4.95204,-2.26955 -0.30038,-2.58856 -5.42656,-0.32958 -7.04039,0.33396 -5.45585,2.24322 1.30725,1.57514 1.32446,1.57618 5.75623,0.34534 z m -65.45851,-5.70242 c -2.11284,-5.46223 -3.58125,-6.94283 -2.68656,-2.70889 0.69637,3.29545 3.18664,7.89668 3.89204,7.19128 0.20955,-0.20954 -0.33292,-2.22662 -1.20548,-4.48239 z m 59.20078,1.05486 c 1.95352,0 1.7028,-1.84989 -0.2709,-1.99866 -7.97654,-0.60122 -14.32495,-0.21248 -14.75415,0.90346 -0.86405,2.24651 -0.51017,2.8025 1.45638,2.28823 1.06513,-0.27854 2.8581,-0.059 3.98438,0.48796 3.73986,1.81609 4.84568,1.82717 6.53742,0.0655 0.92242,-0.96058 2.29352,-1.74649 3.04687,-1.74649 z M 315,273.66512 c 8.76936,-1.06129 23.06362,-5.02692 30.53036,-8.47 2.09639,-0.96669 4.25958,-1.75762 4.80709,-1.75762 0.54751,0 1.50135,-0.60955 2.11966,-1.35457 0.6183,-0.74501 6.04886,-4.18056 12.06791,-7.63456 21.84022,-12.53291 35.09794,-30.08618 36.40351,-48.19837 0.47022,-6.52334 0.55029,-6.29999 -6.27999,-17.51643 -3.32472,-5.4597 -5.58604,-11.5429 -5.58604,-15.02702 0,-1.02143 -0.86029,-2.84908 -1.91175,-4.06143 -1.86823,-2.15408 -2.03365,-2.17434 -7.26562,-0.88996 -12.09169,2.96836 -19.47879,1.04753 -25.57557,-6.65029 -4.1167,-5.19775 -7.59618,-6.74481 -15.80386,-7.02676 -5.85337,-0.20108 -8.06567,0.19881 -13.88183,2.50924 -3.80533,1.51163 -8.05477,3.53602 -9.4432,4.49864 -1.38843,0.96261 -5.26661,3.30197 -8.61817,5.19855 -14.24252,8.05958 -19.677,11.53635 -23.90519,15.29359 -2.46608,2.1914 -4.80564,3.98437 -5.19903,3.98437 -0.62318,0 -6.95679,9.13775 -12.57815,18.14702 -1.01124,1.6207 -3.84582,5.77758 -6.29905,9.2375 -2.79066,3.93581 -4.08168,6.52485 -3.44868,6.91605 0.57907,0.3579 0.7923,1.97758 0.49861,3.78736 -0.63248,3.89758 -0.17355,3.99725 1.70232,0.36972 1.05022,-2.03089 3.5494,-3.80895 9.1647,-6.52028 4.2464,-2.05035 12.47229,-6.80551 18.27977,-10.56701 5.80748,-3.76151 14.24273,-9.15942 18.74499,-11.99536 4.50227,-2.83594 10.29757,-6.96429 12.87845,-9.17413 6.66637,-5.70796 7.03626,-5.98083 7.03626,-5.19049 0,1.52089 -9.36932,9.19669 -18.75,15.36091 -5.41406,3.55768 -12.16406,8.0954 -15,10.08382 -7.96999,5.58814 -20.82207,13.07333 -23.67742,13.78997 -1.8829,0.47259 -2.57258,1.23041 -2.57258,2.82677 0,3.48301 -1.55107,6.64288 -5.11599,10.42236 -1.82684,1.93678 -3.32151,3.8554 -3.32151,4.26361 0,0.4082 -0.80725,0.74218 -1.7939,0.74218 -2.23116,0 -7.5811,7.07701 -7.5811,10.02844 0,1.18748 0.31641,2.14732 0.70312,2.13298 2.31605,-0.0859 8.62749,-6.608 13.72311,-14.18111 3.94731,-5.86651 6.56495,-8.86055 7.92202,-9.06114 1.63607,-0.24183 2.02675,0.17199 2.02675,2.14673 0,5.62048 -7.12478,15.09343 -12.10053,16.08858 -1.5947,0.31894 -2.89947,0.94305 -2.89947,1.3869 0,0.44386 -1.79297,1.94895 -3.98437,3.34466 -2.19141,1.39571 -4.51172,3.16983 -5.15625,3.94248 -1.20266,1.44174 -1.63868,5.73398 -0.58248,5.73398 0.32417,0 3.06158,-1.6875 6.08314,-3.75 3.02157,-2.0625 5.8665,-3.75 6.32209,-3.75 0.45559,0 2.25333,-2.38599 3.99498,-5.3022 4.0582,-6.79503 7.01318,-9.90697 9.03716,-9.51718 2.54904,0.4909 2.46693,3.38875 -0.21065,7.43485 -2.40739,3.63781 -9.9443,9.25953 -12.41403,9.25953 -0.67695,0 -2.38733,1.02638 -3.80083,2.28084 -2.5912,2.29965 -9.37859,7.09416 -10.0429,7.09416 -0.19711,0 -0.5286,-0.73828 -0.73664,-1.64063 -0.30365,-1.31701 -0.62462,-1.13131 -1.62727,0.94147 -1.60769,3.32355 -0.86798,3.95692 4.35578,3.72957 4.98809,-0.21709 11.52881,-3.51532 13.05938,-6.58534 3.57905,-7.17887 13.51539,-11.51798 13.51539,-5.90205 0,1.24754 -1.69265,2.86332 -5.18686,4.9513 -4.5799,2.73674 -4.93644,3.15786 -3.04687,3.5988 1.17699,0.27466 2.51562,1.34004 2.97474,2.36753 1.4213,3.18082 11.97376,7.01447 22.98621,8.35078 5.46097,0.66265 11.19465,1.05896 12.74153,0.88068 1.54687,-0.17828 6.82031,-0.80917 11.71875,-1.40199 z M 288.04687,255.17498 C 286.37109,255.0134 285,254.48605 285,254.0031 c 0,-0.48456 4.01613,-0.8781 8.96105,-0.8781 15.97366,0 30.40291,-3.28597 42.09929,-9.58726 1.01287,-0.54567 5.23162,-2.75265 9.375,-4.90439 4.14337,-2.15174 9.30537,-5.08697 11.4711,-6.52274 2.16573,-1.43576 4.42498,-2.44806 5.02056,-2.24952 1.10934,0.36978 -5.29453,4.69058 -13.64575,9.20705 -2.57813,1.39429 -6.62575,3.58259 -8.99473,4.8629 -7.70217,4.16261 -20.86496,9.04921 -27.09902,10.06031 -6.48581,1.05195 -19.09454,1.67016 -24.14063,1.18363 z M 275.625,244.21875 c 0,-0.84423 0.86567,-1.40625 2.16599,-1.40625 3.47093,0 12.89394,-4.0643 25.25298,-10.89201 12.9513,-7.15491 35.64434,-21.78483 41.84716,-26.97835 2.26043,-1.89262 4.35332,-3.19769 4.65086,-2.90015 0.58631,0.58632 -2.82067,3.57966 -8.76074,7.69711 -2.0625,1.42966 -3.96094,2.86472 -4.21875,3.18904 -0.94918,1.19402 -22.2506,14.63537 -29.0625,18.33865 -3.86719,2.10239 -9.98438,5.46616 -13.59375,7.47505 -11.20584,6.23689 -18.28125,8.35662 -18.28125,5.47691 z m 75,-43.09202 c 0,-0.23967 0.94922,-0.94155 2.10937,-1.55974 1.91271,-1.01917 1.98942,-0.97854 0.82272,0.43577 -1.19797,1.45221 -2.93209,2.11696 -2.93209,1.12397 z m -25.5625,-21.24306 c 0.63594,-0.64071 1.39241,-0.92876 1.68106,-0.64011 0.28864,0.28865 -0.23167,0.81286 -1.15625,1.16492 -1.33613,0.50876 -1.44381,0.40108 -0.52481,-0.52481 z m -153.93577,93.28976 c 1.27092,-0.83275 2.31077,-1.83205 2.31077,-2.22068 0,-0.86615 -9.40714,1.24558 -11.83704,2.6572 -1.44595,0.84 -0.96312,1.02558 2.7294,1.04904 2.59538,0.0165 5.46001,-0.60962 6.79687,-1.48556 z m 31.0002,-4.76021 -1.42686,-2.63197 -0.0375,3.32812 c -0.0431,3.82686 2.10599,6.98246 2.59875,3.81574 0.16088,-1.03397 -0.34957,-3.06432 -1.13435,-4.51189 z m 6.64432,-0.0538 c -0.23581,-0.90234 -0.42875,-0.16406 -0.42875,1.64063 0,1.80469 0.19294,2.54297 0.42875,1.64062 0.2358,-0.90234 0.2358,-2.3789 0,-3.28125 z m 20.66132,-1.875 c -0.37371,-1.5625 -0.42641,-1.5625 -1.10654,0 -0.39277,0.90235 -0.39277,2.37891 0,3.28125 0.68013,1.56251 0.73283,1.56251 1.10654,0 0.21583,-0.90234 0.21583,-2.3789 0,-3.28125 z m -30.66949,-3.51562 c 0.2205,-6.73189 0.004,-7.83867 -1.03006,-5.25475 -0.49397,1.23488 -0.661,2.99235 -0.37119,3.90547 0.62639,1.9736 -0.55033,2.9376 -2.28053,1.86827 -0.91043,-0.56267 -1.1247,-2.63303 -0.81453,-7.86986 0.53875,-9.09613 -0.67931,-11.28996 -1.52173,-2.74075 -0.66487,6.74748 0.0773,10.23903 2.62604,12.35431 0.82716,0.68648 1.50392,1.91367 1.50392,2.7271 0,0.92296 0.32604,1.14414 0.86726,0.58833 0.477,-0.48984 0.93637,-3 1.02082,-5.57812 z m 17.73352,2.57812 c -0.0529,-2.82018 -0.22527,-3.14472 -0.8716,-1.64062 -1.1195,2.60521 -1.1195,5.15625 0,5.15625 0.51562,0 0.90785,-1.58203 0.8716,-3.51563 z m -2.2e-4,-9.84375 c 0.61527,0.14368 0.96559,-1.48877 0.90532,-4.21875 l -0.0983,-4.45312 -1.07357,3.38321 c -1.35001,4.25433 -3.34646,6.68834 -4.97378,6.06387 -1.42028,-0.545 -1.7023,3.60986 -0.60759,8.95136 0.63599,3.10325 0.68877,3.03794 2.74638,-3.39844 1.15385,-3.60938 2.54955,-6.45703 3.10154,-6.32813 z m 11.31612,6.20514 c 0,-0.30052 -0.688,-0.28239 -1.52889,0.0403 -1.29602,0.49732 -1.45109,0.0486 -1.01807,-2.94658 0.28095,-1.94329 0.17354,-4.37701 -0.23869,-5.40826 -0.69368,-1.73533 -0.79834,-1.68955 -1.40508,0.61455 -0.36056,1.36925 -1.4636,2.70084 -2.45117,2.95911 -1.26438,0.33063 -1.77307,1.25826 -1.71946,3.13545 l 0.0761,2.66589 1.12205,-2.52767 c 1.67801,-3.78009 3.56941,-1.94987 3.56941,3.45398 l 0,4.46907 1.79687,-2.95472 c 0.98831,-1.62511 1.7969,-3.20062 1.7969,-3.50113 z m 10.3125,3.6164 c 0,-0.8042 -0.11938,-1.28641 -0.26528,-1.07157 -0.14591,0.21485 -0.83839,1.13857 -1.53885,2.05271 -1.10878,1.44702 -1.07445,1.58568 0.26528,1.07158 0.84637,-0.32478 1.53885,-1.2485 1.53885,-2.05272 z m 27.1875,1.66281 c 1.16447,-0.75254 1.08388,-0.90878 -0.46875,-0.90878 -1.03125,0 -2.50781,0.40894 -3.28125,0.90878 -1.16447,0.75254 -1.08388,0.90878 0.46875,0.90878 1.03125,0 2.50781,-0.40894 3.28125,-0.90878 z m -98.90625,-0.87938 c 1.60492,-0.63992 1.34751,-0.89545 -1.78702,-1.77397 -4.1463,-1.16209 -5.85967,-0.62408 -4.23746,1.33057 1.20421,1.45098 3.14009,1.59346 6.02448,0.4434 z m 38.84035,-6.41566 c 0.0363,-1.17635 0.72638,-2.39225 1.53362,-2.70203 1.15726,-0.44407 1.3327,-1.37982 0.82936,-4.4237 -1.23729,-7.48246 -2.26813,-6.09879 -4.10832,5.51452 -0.82671,5.21728 -0.2306,8.62574 0.97178,5.55646 0.38923,-0.99355 0.73733,-2.76892 0.77356,-3.94525 z m 27.81554,0.75856 c 0.0514,-2.55745 -0.26505,-4.42839 -0.70312,-4.15764 -1.35891,0.83985 -0.87169,8.91714 0.53161,8.81334 0.0429,-0.003 0.12015,-2.09824 0.17151,-4.6557 z M 185.625,262.6003 c 0,-0.46046 -0.63281,-1.08003 -1.40625,-1.37683 -0.8566,-0.3287 -1.40625,-0.002 -1.40625,0.8372 0,0.75726 0.63281,1.37683 1.40625,1.37683 0.77344,0 1.40625,-0.37674 1.40625,-0.8372 z m 2.47024,-7.71871 c -1.35177,-3.0986 -1.38134,-3.11172 -1.45627,-0.64575 -0.0421,1.38441 0.42072,3.70472 1.02839,5.15625 1.00939,2.41108 1.13524,2.46689 1.45626,0.64575 0.19326,-1.09637 -0.2695,-3.41669 -1.02838,-5.15625 z m 53.0821,-0.22013 c 1.23276,0.0982 1.63516,-0.58764 1.63516,-2.78673 l 0,-2.91693 -1.56413,2.31797 c -0.86027,1.27489 -1.69382,2.48357 -1.85235,2.68595 -0.15852,0.20239 -0.82575,-0.0778 -1.48274,-0.62274 -0.93386,-0.7745 -1.25178,-0.0365 -1.45691,3.38204 l -0.26238,4.37273 1.6741,-3.28125 c 1.02148,-2.00212 2.31153,-3.23049 3.30925,-3.15104 z m -6.4802,-8.05509 c 0.43499,-0.0241 1.01154,0.79988 1.28122,1.83113 0.26968,1.03125 0.8045,1.875 1.18848,1.875 0.68016,0 0.45131,-2.75169 -0.62376,-7.5 l -0.53065,-2.34375 -1.08616,2.34375 c -1.9501,4.20801 -5.40517,9.375 -6.26888,9.375 -0.46469,0 -0.82941,1.58203 -0.81048,3.51562 0.0343,3.50509 0.0434,3.4968 3.04687,-2.76863 1.65685,-3.45634 3.36837,-6.30399 3.80336,-6.32812 z m 33.92142,9.51219 c -0.28865,-0.28865 -1.04512,-6e-4 -1.68106,0.64011 -0.919,0.92589 -0.81132,1.03357 0.52481,0.52481 0.92458,-0.35206 1.44489,-0.87627 1.15625,-1.16492 z m -55.29629,-6.506 c -0.28037,-0.73062 -0.54404,-2.24313 -0.58591,-3.36111 -0.0655,-1.74854 -0.25618,-1.63953 -1.36396,0.7798 -0.70831,1.54687 -1.29282,4.07813 -1.29893,5.625 l -0.0111,2.8125 1.88482,-2.26388 c 1.03665,-1.24514 1.65543,-2.86168 1.37506,-3.59231 z m -12.22026,2.80931 c -0.36361,-0.90234 -1.00482,-4.31092 -1.42493,-7.57461 -0.8348,-6.48545 -1.80719,-8.61466 -1.96392,-4.30039 -0.18317,5.04162 0.21766,8.3408 1.32883,10.9375 1.18613,2.77189 3.16142,3.67083 2.06002,0.9375 z m -13.07186,-9.29068 c -2.99101,-5.68187 -7.01837,-10.68851 -7.04352,-8.75619 -0.01,0.77344 0.99972,3.09375 2.24394,5.15625 2.62768,4.35582 6.07722,11.48554 6.29447,13.0098 0.0825,0.57898 0.31735,-0.28045 0.52186,-1.90986 0.24339,-1.93931 -0.45317,-4.52976 -2.01675,-7.5 z m 35.97508,-3.97121 0.0573,-4.12128 -2.34375,2.52896 c -2.46458,2.65932 -2.98238,6.59348 -1.69286,12.86203 l 0.65088,3.16406 1.63559,-5.15625 c 0.89957,-2.83594 1.66137,-7.01082 1.69287,-9.27752 z m -61.81773,11.20479 c 0,-0.48687 -1.04136,-2.0689 -2.31413,-3.51562 -1.84112,-2.09275 -2.32018,-2.29507 -2.34375,-0.98978 -0.0163,0.90235 0.81413,2.48438 1.84538,3.51563 2.06683,2.06683 2.8125,2.32925 2.8125,0.98977 z M 228.6269,243.75 c -0.0564,-1.9593 -0.2761,-2.52585 -0.5454,-1.40625 -0.24805,1.03125 -0.78313,2.22698 -1.18905,2.65718 -0.40594,0.4302 -0.5174,1.62602 -0.24769,2.65738 0.73683,2.81763 2.0984,0.13294 1.98214,-3.90831 z m 40.40399,0.16375 c 1.67109,-3.66766 0.55789,-3.27137 -2.06529,0.73521 -1.89578,2.89556 -2.04738,3.46519 -0.69793,2.62244 0.94814,-0.59212 2.19159,-2.10307 2.76322,-3.35765 z m -62.21187,-2.97625 c 1.38459,0 1.52791,-2.26778 0.44439,-7.03125 l -0.63974,-2.8125 -0.7388,3.73274 c -0.40634,2.05301 -1.1996,4.58426 -1.76281,5.625 -0.5632,1.04075 -1.14096,3.15788 -1.2839,4.70476 -0.24995,2.70482 -0.20371,2.6779 1.20749,-0.70313 0.80706,-1.93359 2.05508,-3.51562 2.77337,-3.51562 z m 35.05598,3.63935 c 0,-0.51563 -0.42188,-0.67677 -0.9375,-0.3581 -0.51563,0.31868 -0.9375,1.00128 -0.9375,1.5169 0,0.51563 0.42187,0.67677 0.9375,0.3581 0.51562,-0.31868 0.9375,-1.00128 0.9375,-1.5169 z m -52.74014,-9.56067 c -1.23374,-1.64172 -2.79748,-5.0943 -3.47498,-7.67243 -1.20223,-4.57493 -3.97522,-10.7272 -9.47783,-21.02787 -1.4956,-2.7997 -4.01185,-8.91689 -5.59167,-13.59375 -1.57982,-4.67686 -3.462,-9.40427 -4.18263,-10.50535 -1.2545,-1.91682 -9.77267,-7.28937 -10.4629,-6.59912 -0.18289,0.18288 -0.43514,4.64703 -0.56056,9.92033 -0.20298,8.53419 -0.035,9.69617 1.52843,10.57383 2.61144,1.46596 22.76859,20.2934 24.41209,22.80171 0.78062,1.19138 1.8303,4.71815 2.33262,7.83727 0.51611,3.20478 2.26377,8.12079 4.01857,11.30393 2.99666,5.43584 3.11568,5.53339 3.40365,2.78959 0.19842,-1.89064 -0.45316,-3.84329 -1.94479,-5.82815 z m 59.4588,-6.19858 c 3.8319,-7.91355 4.15063,-10.45411 0.37736,-3.00793 -2.83318,5.59103 -7.68368,11.37783 -9.53689,11.37783 -1.863,0 -1.62014,-1.30295 0.62089,-3.33104 1.34135,-1.2139 1.85024,-2.67262 1.66847,-4.78252 -0.14386,-1.66973 0.0423,-3.33975 0.41373,-3.71116 0.3714,-0.37141 0.67528,-1.11646 0.67528,-1.65566 0,-0.53921 -2.0184,1.00766 -4.48533,3.4375 -4.15062,4.08821 -6.76467,5.50125 -6.76467,3.65669 0,-0.41866 1.16016,-1.6306 2.57812,-2.69319 1.41797,-1.06259 3.38235,-3.35677 4.3653,-5.09818 l 1.78716,-3.16619 -2.30935,2.10281 c -1.78864,1.62866 -2.56154,1.85063 -3.42779,0.98438 -0.86625,-0.86625 -1.11844,-0.79184 -1.11844,0.33001 0,0.79665 -0.84375,2.21203 -1.875,3.1453 -2.26535,2.05011 -2.46254,0.57432 -0.44468,-3.32781 0.78668,-1.52127 1.0617,-2.76594 0.61113,-2.76594 -0.45055,0 -1.60989,1.79297 -2.57632,3.98437 -0.96642,2.19141 -2.1199,4.24167 -2.56328,4.55613 -0.44337,0.31447 -0.497,2.63323 -0.11917,5.1528 0.61463,4.09865 0.78716,4.3565 1.63846,2.44868 1.36073,-3.04952 2.90872,-2.06186 3.45386,2.20364 l 0.46875,3.6678 1.783,-3.97546 c 0.98067,-2.1865 2.08599,-3.97546 2.45629,-3.97546 0.3703,0 1.211,1.92053 1.86821,4.26787 l 1.19493,4.26785 2.91129,-3.49713 c 1.6012,-1.92342 4.45812,-6.69161 6.34869,-10.59599 z m 15.01815,10.39303 c 1.38494,-1.95901 2.80314,-4.79766 3.15157,-6.30811 0.4858,-2.10595 -0.10819,-1.54403 -2.54755,2.40998 -1.74958,2.83594 -3.50909,5.68359 -3.91002,6.32813 -1.76764,2.84161 1.03611,0.78079 3.306,-2.43 z m -49.32694,-3.67575 c -1.00971,-1.00972 -1.24941,0.25044 -0.67101,3.52762 l 0.57911,3.28125 0.31339,-3.13701 c 0.17236,-1.72534 0.0727,-3.37769 -0.22149,-3.67187 z m 38.45137,-2.2852 c 1.70589,-3.2562 1.68402,-4.05386 -0.0633,-2.3066 -0.76424,0.76423 -1.71345,1.53265 -2.10938,1.70759 -0.98772,0.43643 -5.87612,7.72022 -5.87612,8.7555 0,1.31843 6.57631,-5.34593 8.04874,-8.15649 z m -83.89832,1.77574 c -1.22432,-1.22432 -1.39462,0.13252 -0.34999,2.78853 0.65145,1.65633 0.68784,1.65553 1.02542,-0.0229 0.19249,-0.95711 -0.11145,-2.20164 -0.67543,-2.76562 z m 26.40455,0.68769 c 0.25359,-1.32653 0.0791,-4.17419 -0.38772,-6.32812 -0.46683,-2.15394 -1.27144,-5.82072 -1.78803,-8.14842 -0.83993,-3.78471 -0.47253,-10.53786 0.67507,-12.40845 1.05809,-1.72468 3.24779,-0.40381 4.98916,3.00953 2.38681,4.67854 2.68668,14.79203 0.46387,15.64501 -1.12927,0.43334 -1.19516,0.83198 -0.31319,1.89471 0.61436,0.74024 1.38467,2.90581 1.71182,4.81238 l 0.59483,3.4665 1.71128,-5.05008 c 1.32774,-3.9182 1.54877,-6.22955 0.98617,-10.3125 -0.39882,-2.89433 -0.7683,-7.78582 -0.82106,-10.86998 -0.0779,-4.55546 0.20003,-5.66542 1.48145,-5.91594 2.00593,-0.39215 3.78185,2.8021 4.58248,8.24225 l 0.62087,4.21875 0.12527,-3.92334 c 0.0689,-2.15785 0.53669,-5.0055 1.03956,-6.32813 1.24867,-3.28427 4.43395,-3.18938 5.81896,0.17334 0.93223,2.26341 1.10551,2.34924 1.41955,0.70313 1.00095,-5.24684 1.36415,-6.09375 2.61332,-6.09375 3.59582,0 4.13094,8.85382 0.9114,15.07971 -0.81341,1.57294 -1.33534,3.2906 -1.15987,3.81702 0.17547,0.52642 2.15365,-3.08812 4.39595,-8.03231 2.96293,-6.53314 4.53911,-8.98942 5.76847,-8.98942 0.93036,0 1.98118,0.91247 2.33514,2.02771 0.57498,1.81159 0.73774,1.85945 1.52705,0.44903 1.16924,-2.08932 2.64323,-1.07499 2.64323,1.81895 0,2.20356 0.10068,2.24407 2.18422,0.87889 2.43122,-1.59301 3.44078,-1.09731 3.44078,1.68947 0,1.78445 0.0775,1.79387 1.81593,0.22067 2.52022,-2.28078 4.04869,-0.96983 3.65708,3.13661 -0.46516,4.8777 2.12552,4.57954 6.5318,-0.75174 11.41936,-13.81662 23.40799,-35.20662 26.06269,-46.50084 0.84838,-3.60938 2.54951,-9.74944 3.7803,-13.64459 4.67131,-14.78364 6.28421,-32.26662 3.99119,-43.26239 -2.47831,-11.884229 -11.51845,-24.055207 -19.06362,-25.665826 -1.57801,-0.336851 -3.40896,-1.047641 -4.06875,-1.579533 -2.73901,-2.208026 -6.4179,1.441665 -12.76401,12.662742 -3.33055,5.889007 -6.82763,7.667557 -13.67016,6.952367 -7.87535,-0.82313 -11.74217,-2.87652 -18.99618,-10.087504 -3.62253,-3.601028 -8.11273,-7.190161 -9.97821,-7.975849 -5.62767,-2.370204 -16.15647,0.117261 -19.08545,4.508999 -0.79013,1.184746 -2.55664,3.419709 -3.92554,4.966584 -1.36892,1.546875 -3.4649,4.710937 -4.65774,7.03125 -1.19284,2.32031 -3.01177,5.70287 -4.04209,7.5168 -3.86344,6.80182 -9.81869,23.05873 -10.1249,27.63945 -0.17234,2.57812 -0.76875,5.87512 -1.32535,7.32666 -2.11275,5.5098 -0.6392,22.04516 3.10662,34.86084 0.75354,2.57812 1.84198,6.375 2.41874,8.4375 1.86892,6.68322 4.81217,14.23442 8.07888,20.72723 1.75795,3.49402 3.19627,6.9043 3.19627,7.5784 0,1.69822 0.97266,1.53125 2.41747,-0.41501 1.13873,-1.53392 1.32148,-1.53863 2.81006,-0.0723 2.04793,2.01729 3.42393,10.63225 2.33063,14.59182 -0.92988,3.36776 0.52821,8.68362 2.38183,8.68362 0.60028,0 1.29891,-1.08536 1.55248,-2.41189 z m 4.59453,-33.91624 c -0.46968,-0.90234 -1.97198,-5.01562 -3.33844,-9.14062 -1.36648,-4.125 -2.87606,-8.20148 -3.35464,-9.05883 -0.47858,-0.85735 -1.14146,-3.81048 -1.4731,-6.5625 -0.33162,-2.75202 -0.96079,-6.48023 -1.39816,-8.28492 -2.10134,-8.67063 -1.93458,-22.5 0.2713,-22.5 0.57717,0 0.74599,1.54278 0.42814,3.91253 -0.28863,2.15189 0.0745,8.58548 0.8071,14.29687 1.21912,9.50521 2.17469,13.42602 6.98626,28.6656 2.1073,6.67443 2.94662,10.3125 2.37914,10.3125 -0.2495,0 -0.83791,-0.73828 -1.3076,-1.64063 z m 42.9755,-0.70771 c 0,-0.54235 3.79997,-8.44213 5.40928,-11.24541 2.03542,-3.54551 7.92579,-17.8196 9.67177,-23.4375 0.96149,-3.09375 2.55949,-10.39868 3.55111,-16.23318 2.05944,-12.1174 3.48077,-15.05677 2.57698,-5.32932 -1.45307,15.63936 -8.64865,38.34384 -16.1185,50.85937 -2.97176,4.9791 -5.09064,7.22094 -5.09064,5.38604 z m -22.11134,-10.07354 c 0.36185,-3.73828 0.85178,-10.38281 1.08875,-14.76562 0.23696,-4.38281 0.87804,-12.49011 1.42462,-18.01622 0.54658,-5.5261 0.75967,-10.79954 0.47352,-11.71875 -0.28613,-0.9192 -0.11447,-2.30409 0.3815,-3.07753 1.25623,-1.95907 1.19912,9.04453 -0.17638,33.98437 -0.92074,16.69428 -1.37162,20.39063 -2.48726,20.39063 -1.12708,0 -1.24891,-1.17509 -0.70475,-6.79688 z m 0.50829,40.3125 c 0.6179,-1.93359 1.61809,-3.5217 2.22263,-3.52913 0.60454,-0.007 2.36241,-2.22227 3.90636,-4.92187 3.75814,-6.57108 3.95411,-7.40131 0.84984,-3.60048 -2.28531,2.79811 -2.67277,2.97422 -3.20507,1.45673 -0.44451,-1.26719 -0.90028,-0.55552 -1.71411,2.67649 -0.69799,2.77201 -1.62444,4.40264 -2.50135,4.40264 -0.91383,0 -1.39275,0.94076 -1.39275,2.73582 0,1.50471 -0.27303,3.50861 -0.60673,4.45313 -0.41169,1.16523 -0.2974,1.41592 0.3555,0.7798 0.52923,-0.51563 1.46778,-2.51953 2.08568,-4.45313 z m -2.89723,-8.67187 c 0.0532,-2.57813 -0.27124,-5.26817 -0.72077,-5.97788 -1.15453,-1.82273 -2.33639,9.25233 -1.40767,13.19119 l 0.73072,3.09919 0.65058,-2.8125 c 0.35782,-1.54688 0.69403,-4.92188 0.74714,-7.5 z m 41.21581,5.62178 c -0.28822,-0.28822 -1.26486,0.64928 -2.17031,2.08334 l -1.64626,2.60738 2.17031,-2.08333 c 1.19367,-1.14583 1.9345,-2.31916 1.64626,-2.60739 z m -45.78421,-3.87699 c 0.004,-0.58724 -0.70288,-1.00912 -1.56951,-0.9375 -0.95301,0.0788 -1.81583,-0.79599 -2.18337,-2.21354 -0.53225,-2.05288 -0.6677,-1.87836 -1.09143,1.40625 -0.26608,2.0625 -0.0563,4.70662 0.46634,5.87582 l 0.9501,2.12582 1.71085,-2.59457 c 0.94096,-1.42702 1.71363,-3.07504 1.71702,-3.66228 z m -32.1659,3.23568 c -0.29927,-0.74787 -0.52142,-0.52573 -0.5664,0.56641 -0.0407,0.98827 0.18086,1.54199 0.49239,1.23047 0.31152,-0.31153 0.34482,-1.12013 0.074,-1.79688 z m 72.48458,-2.74058 c 0,-1.63892 -0.91296,-0.78494 -2.36604,2.21323 l -1.47671,3.04688 1.92138,-2.21323 c 1.05675,-1.21729 1.92137,-2.58838 1.92137,-3.04688 z m -5.67047,-4.11489 c 0.0182,-0.51563 -0.80508,0.32812 -1.82953,1.875 -1.02445,1.54687 -1.84774,3.44531 -1.82953,4.21875 0.0347,1.47424 3.60155,-4.46592 3.65906,-6.09375 z m -59.08293,3.98437 c -0.0362,-1.16015 -0.42845,-2.95312 -0.8716,-3.98437 -0.62401,-1.45215 -0.82058,-0.97644 -0.8716,2.10937 -0.0363,2.19141 0.35597,3.98438 0.8716,3.98438 0.51562,0 0.90785,-0.94922 0.8716,-2.10938 z m 7.69697,-9.60937 -0.88023,-3.75 -0.0814,3.75 c -0.0447,2.0625 0.22641,4.80469 0.6026,6.09375 l 0.68397,2.34375 0.27762,-2.34375 c 0.15269,-1.28906 -0.11847,-4.03125 -0.6026,-6.09375 z m 17.68143,-4.98263 c 0,-5.43404 -1.9155,-2.18509 -2.44437,4.14596 l -0.46147,5.52417 1.45292,-3.15451 c 0.79911,-1.73498 1.45292,-4.66702 1.45292,-6.51562 z m 25.24606,3.57638 c 0,-0.81267 -0.56554,-0.41695 -1.33981,0.9375 -0.73689,1.28906 -1.33981,2.97656 -1.33981,3.75 0,0.81267 0.56554,0.41695 1.33981,-0.9375 0.73689,-1.28906 1.33981,-2.97656 1.33981,-3.75 z m 5.71926,2.76052 c 1.66826,-3.11717 0.5929,-3.92109 -1.15609,-0.86426 -0.87836,1.53519 -1.20961,2.79124 -0.73611,2.79124 0.4735,0 1.32499,-0.86714 1.8922,-1.92698 z m -38.53122,-1.58865 c -0.0362,-0.38671 -0.42845,-1.54687 -0.8716,-2.57812 -0.71396,-1.66148 -0.81322,-1.58141 -0.8716,0.70312 -0.0363,1.41797 0.35597,2.57813 0.8716,2.57813 0.51562,0 0.90785,-0.31641 0.8716,-0.70313 z m 22.48565,-3.98437 c 0.0458,-1.25 -0.0494,-1.25 -0.85725,0 -0.49984,0.77344 -0.8856,2.25 -0.85725,3.28125 0.0516,1.875 0.0516,1.875 0.85725,0 0.44315,-1.03125 0.82891,-2.50781 0.85725,-3.28125 z m 6.0737,1.32957 c 1.0249,-2.67084 0.53819,-3.71135 -0.86701,-1.85351 -0.75704,1.00089 -1.37644,2.16105 -1.37644,2.57812 0,1.34192 1.65565,0.80716 2.24345,-0.72461 z m -14.22492,-2.30835 c 0.23037,-1.56957 0.0673,-3.07103 -0.36234,-3.33658 -0.42966,-0.26554 -0.78695,0.0695 -0.79399,0.7444 -0.007,0.67497 -0.26718,2.17643 -0.5781,3.33658 -0.31122,1.16133 -0.14261,2.10938 0.37515,2.10938 0.51724,0 1.12892,-1.2842 1.35928,-2.85378 z M 152.8125,186.02927 c 0,-2.8714 -1.03471,-9.305 -2.29936,-14.29688 -4.83137,-19.0706 -5.2699,-23.85264 -5.30286,-57.82614 -0.0399,-41.118571 -0.88139,-56.354117 -3.51929,-63.717507 -2.15998,-6.029323 -2.80819,-11.505925 -0.83608,-7.063743 0.57229,1.289062 2.03617,4.527371 3.25306,7.196243 2.20016,4.825326 2.21532,5.100867 2.70853,49.218748 0.2728,24.401449 0.60816,45.210009 0.74525,46.241259 0.87325,6.56901 5.05208,26.6908 5.69946,27.44394 0.12123,0.14104 0.91362,-0.01 1.76086,-0.33467 0.99255,-0.38088 1.54043,-1.67699 1.54043,-3.64411 0,-5.40324 1.78788,-12.6993 4.5641,-18.62542 1.48855,-3.17748 2.96844,-8.16665 3.28863,-11.08702 0.7851,-7.16098 3.03295,-15.66437 5.787,-21.89178 1.25077,-2.82821 1.85757,-5.14219 1.34845,-5.14219 -0.54809,0 -0.92568,-3.85954 -0.92568,-9.46193 0,-12.681064 -1.64009,-30.964496 -3.39815,-37.88182 -2.20733,-8.68513 -5.75849,-18.682603 -10.40391,-29.28992 -7.06888,-16.141008 -9.45882,-18.489177 -13.91937,-13.676163 -2.62417,2.831534 -4.48639,6.66437 -6.58673,13.556872 -1.79996,5.906784 -3.13578,6.886723 -7.0943,5.204306 C 126.09121,39.620496 117.274,30.913127 112.01503,23.958199 103.03382,12.080649 88.097272,2.7755232 78.105097,2.8330894 73.408004,2.8601499 67.323556,5.6917889 65.879034,8.522971 c -3.005922,5.891444 -6.143607,21.157258 -6.244877,30.383279 -0.106987,9.74666 0.980707,27.450597 1.915281,31.174234 0.518462,2.065719 0.340156,2.136511 -4.835813,1.919919 -4.958387,-0.207486 -5.546451,-0.0095 -7.601718,2.559232 -2.664516,3.330194 -3.001302,9.631927 -0.796745,14.908175 2.116405,5.065274 11.668036,22.26245 13.573567,24.43844 0.90307,1.03125 2.3003,3.14063 3.104957,4.6875 0.804655,1.54688 2.646972,4.07813 4.094037,5.625 1.447065,1.54688 4.373355,5.13281 6.502867,7.96875 6.745391,8.98305 17.552789,19.16844 26.46574,24.94255 2.90808,1.88396 6.78666,4.42541 8.61906,5.64766 1.8324,1.22226 3.82428,2.22229 4.4264,2.22229 0.60211,0 3.4925,1.0604 6.42309,2.35644 2.93059,1.29605 6.37464,2.24527 7.65344,2.10938 1.82498,-0.19392 2.75157,0.5037 4.30777,3.24326 1.09046,1.91968 2.72094,4.35029 3.62328,5.40134 0.90235,1.05106 1.64063,2.31323 1.64063,2.80481 0,0.49159 0.94922,1.39579 2.10937,2.00935 1.16016,0.61355 3.96175,2.73776 6.22575,4.72048 2.26399,1.98272 4.47884,3.60494 4.92187,3.60494 0.44303,0 0.80551,-2.34933 0.80551,-5.22073 z m -4.46559,0.29885 c -0.51986,-0.64453 -2.07072,-2.85937 -3.44637,-4.92187 -3.7395,-5.6066 -11.56306,-13.37379 -17.61041,-17.48355 -5.81988,-3.95515 -22.3723,-21.93771 -29.211346,-31.7352 C 86.350774,115.38616 82.5,109.63955 82.5,108.93887 c 0,-0.42235 -1.52943,-3.27435 -3.398733,-6.33777 -3.716345,-6.09035 -9.98439,-21.0386 -8.82183,-21.0386 0.399012,0 1.866745,2.636719 3.261626,5.859375 1.394883,3.222656 4.192215,8.485753 6.216294,11.695772 2.024078,3.210023 3.680143,6.080883 3.680143,6.379723 0,0.90749 9.072154,14.67204 12.856369,19.50608 1.952437,2.49407 4.182691,5.72872 4.956131,7.18809 3.2509,6.13404 22.04786,26.10625 29.13246,30.95394 6.25769,4.28188 13.37593,11.53169 16.55231,16.85825 1.27107,2.1315 2.49993,3.68657 2.73079,3.45571 0.23086,-0.23086 -0.81626,-2.51602 -2.32694,-5.07814 -1.51067,-2.56211 -3.06076,-5.67182 -3.44465,-6.91047 -0.38389,-1.23864 -1.64523,-3.96492 -2.80299,-6.05839 -1.15775,-2.09346 -5.97898,-12.21846 -10.71382,-22.5 -4.73485,-10.28153 -10.02906,-21.43588 -11.7649,-24.78744 -1.73585,-3.35156 -4.48402,-8.83594 -6.10706,-12.1875 C 99.634275,79.359037 100.24129,80.741037 88.210392,50.625 85.22362,43.148437 81.309245,32.601562 79.511779,27.1875 77.714313,21.773437 75.545729,15.784287 74.692703,13.878278 72.538826,9.0656305 74.441255,8.3544653 76.848218,13.072504 c 1.056061,2.070051 2.991858,7.252921 4.30177,11.517487 3.093879,10.072474 12.117391,33.79967 16.935218,44.530928 0.747488,1.664942 1.934274,4.618067 2.637324,6.5625 1.59343,4.406957 15.42472,33.029461 16.88488,34.941581 0.59061,0.77344 3.12681,5.83594 5.63599,11.25 2.50917,5.41406 6.53718,14.0625 8.95113,19.21875 2.41395,5.15625 4.95829,10.85156 5.65408,12.65625 0.69581,1.80469 2.3141,5.17969 3.59621,7.5 4.13508,7.4835 4.79353,8.88311 4.7994,10.20185 0.003,0.71257 0.90036,2.74305 1.99374,4.51218 1.09338,1.76911 2.11416,5.08845 2.2684,7.37627 0.28236,4.18824 -0.41407,5.15183 -2.15945,2.98782 z m 137.36788,-9.27921 c 1.62327,-1.36529 3.22694,-3.58014 3.56369,-4.92188 0.53103,-2.11576 0.31885,-2.43557 -1.59872,-2.40972 -3.22364,0.0435 -4.94311,1.78932 -6.29928,6.3959 -0.66095,2.24508 -1.44479,4.77633 -1.74187,5.625 -0.41805,1.19422 -0.12592,1.11919 1.2923,-0.33196 1.00785,-1.03125 3.1606,-2.99205 4.78388,-4.35734 z m -120.2758,-3.37704 c -0.39127,-2.44921 -0.97097,-8.46093 -1.28822,-13.35937 l -0.57683,-8.90625 -1.8093,5.15625 c -1.00544,2.86536 -1.8723,8.00317 -1.9511,11.564 -0.12928,5.84269 0.0438,6.47828 1.96252,7.20779 1.15737,0.44003 2.38112,1.24795 2.71945,1.79538 1.28847,2.08479 1.62935,0.8355 0.94348,-3.4578 z m 136.33246,-6.5329 C 303.51919,165.96254 305.31216,165 305.75583,165 c 0.44367,0 0.80667,-0.96658 0.80667,-2.14795 0,-1.25468 1.46205,-3.55711 3.51562,-5.53642 1.9336,-1.86365 8.57813,-8.75802 14.76563,-15.32081 14.03178,-14.88285 50.95697,-51.761372 60.81878,-60.741904 4.05969,-3.696916 11.15933,-10.307604 15.77696,-14.690416 4.61763,-4.382813 8.88981,-8.134957 9.49373,-8.338099 1.38162,-0.464742 17.38873,-15.059446 22.0136,-20.071197 1.90268,-2.061856 4.09224,-4.308351 4.86568,-4.99221 4.68868,-4.14565 6.33549,-5.792587 8.22535,-8.22599 1.16237,-1.496686 2.37727,-2.457387 2.69976,-2.134891 0.51882,0.518818 -3.70801,6.919834 -5.37341,8.137387 -0.35264,0.257813 -6.77992,6.344835 -14.28282,13.526717 -7.5029,7.181882 -14.4797,13.510007 -15.504,14.0625 -2.30446,1.243003 -21.43702,19.148786 -39.13913,36.629533 -7.31017,7.21875 -14.92039,14.60156 -16.9116,16.40625 -3.30419,2.99466 -30.39912,31.23987 -42.52856,44.33407 l -5.02791,5.4278 5.74358,-2.84968 c 3.15897,-1.56733 6.37516,-2.84969 7.14708,-2.84969 0.77192,0 1.64417,-0.38942 1.93833,-0.86537 0.29416,-0.47596 1.83961,-1.15195 3.43435,-1.50221 1.59473,-0.35027 4.64849,-1.40845 6.78612,-2.35152 5.0549,-2.23011 19.18373,-3.23399 25.20061,-1.79056 3.82745,0.91818 5.03014,0.83894 8.00151,-0.52724 1.92334,-0.88432 3.91886,-2.10054 4.43449,-2.70271 0.51562,-0.60217 4.52344,-3.59087 8.90625,-6.64155 4.38281,-3.05069 9.01913,-6.51919 10.30292,-7.70777 1.28379,-1.18859 2.57961,-2.16107 2.8796,-2.16107 0.29999,0 3.46836,-2.36165 7.04083,-5.2481 3.57247,-2.88645 8.60477,-6.93686 11.1829,-9.00091 2.57812,-2.06405 6.58594,-5.50319 8.90625,-7.64253 2.32031,-2.13934 7.17187,-6.33083 10.78125,-9.314413 3.60937,-2.983584 8.54992,-7.394598 10.979,-9.802254 2.42906,-2.407657 4.71592,-4.078118 5.0819,-3.712136 0.84545,0.845445 -0.37569,2.078446 -14.78805,14.931637 -18.99904,16.943696 -25.41002,22.182046 -42.56687,34.781016 -25.42265,18.66887 -23.38651,16.90697 -20.43721,17.68457 3.67493,0.96891 9.67255,4.31961 12.6413,7.06235 l 2.47257,2.28432 5.02743,-3.5195 c 2.76508,-1.93572 7.17578,-5.13322 9.80153,-7.10553 2.62576,-1.97231 5.0392,-3.58602 5.36322,-3.58602 0.70277,0 9.3321,-5.80386 10.05185,-6.7606 0.27591,-0.36677 3.0181,-2.36573 6.09375,-4.44211 7.81939,-5.27893 11.59902,-8.32675 16.0897,-12.97441 5.10361,-5.28203 11.8778,-16.26325 13.94114,-22.59911 1.53303,-4.707454 1.53916,-5.13637 0.0885,-6.197114 -1.62734,-1.189939 -2.1244,-3.276656 -0.78052,-3.276656 0.42791,0 2.97176,-3.402794 5.65301,-7.561765 5.38485,-8.352597 7.99697,-16.318452 7.11385,-21.694168 -0.31741,-1.9321 -0.0591,-4.889949 0.58193,-6.662581 0.9853,-2.724769 0.85154,-4.368831 -0.92062,-11.31673 -2.86009,-11.213146 -4.39533,-14.538626 -8.63935,-18.713658 -4.01418,-3.948922 -10.41205,-6.208161 -17.63537,-6.227471 -7.85351,-0.02099 -27.74764,4.397906 -33.87671,7.524718 -2.21265,1.128816 -6.72343,3.068827 -10.02394,4.311135 -3.30051,1.242309 -8.39124,3.828182 -11.31273,5.746385 -2.92149,1.918203 -5.94462,3.759012 -6.71806,4.090687 -0.77344,0.331675 -3.36942,2.338448 -5.76886,4.459497 -2.39944,2.121048 -4.5656,3.856451 -4.81371,3.856451 -0.2481,0 -0.45108,-2.006423 -0.45108,-4.458716 0,-2.452295 -0.6478,-6.009098 -1.43953,-7.904006 -1.47094,-3.52044 -2.43342,-4.0393 -11.90182,-6.416135 -8.19449,-2.057049 -20.78571,8.762501 -34.87343,29.966505 -1.90696,2.870231 -4.27347,6.273289 -5.2589,7.562352 -0.98544,1.289062 -2.11727,3.398437 -2.51518,4.6875 -0.39792,1.289062 -1.4603,3.398437 -2.36084,4.6875 -0.90056,1.289062 -2.79637,5.296875 -4.21292,8.90625 -1.41656,3.609375 -3.33087,7.828125 -4.25404,9.375 -0.92317,1.546875 -2.60657,5.6974 -3.74088,9.22339 -1.73098,5.38071 -1.98915,7.86641 -1.60666,15.46875 0.55452,11.02152 -1.0125,22.0742 -4.74005,33.43286 -1.52291,4.64062 -3.04987,9.6378 -3.39326,11.10483 -0.62377,2.66489 -0.62087,2.66674 3.16591,2.02697 l 3.79025,-0.64036 0,3.90887 0,3.90886 3.51562,-2.15624 c 1.9336,-1.18593 4.9456,-3.11878 6.69333,-4.29521 z m -7.39645,0.25092 c 0,-3.23462 1.76197,-11.60066 3.29453,-15.64276 1.51558,-3.99733 5.14297,-18.26956 5.14297,-20.23537 0,-1.35522 3.87188,-11.47357 7.33049,-19.15667 1.00864,-2.24061 2.78868,-6.39415 3.95566,-9.23009 2.34921,-5.708916 4.99428,-11.536848 11.94708,-26.323218 2.56472,-5.454333 4.98455,-10.938708 5.3774,-12.1875 0.67165,-2.134975 15.17382,-30.881039 16.00435,-31.723657 0.21176,-0.214843 0.59951,-0.176134 0.86166,0.08602 0.26216,0.262155 -2.65204,6.766061 -6.476,14.453124 -3.82396,7.68706 -8.09197,16.718663 -9.48445,20.070226 -1.39248,3.351562 -4.97376,11.15625 -7.95841,17.34375 -2.98463,6.1875 -6.76848,14.414062 -8.40856,18.28125 -1.64006,3.86719 -3.79302,8.81963 -4.78433,11.00541 -0.99131,2.18579 -1.80239,4.52719 -1.80239,5.20312 0,0.67594 -0.37063,1.62975 -0.82363,2.1196 -0.84853,0.91754 -4.07948,11.13403 -5.61835,17.76562 -0.47861,2.0625 -2.17808,8.68435 -3.7766,14.71523 -1.59853,6.03089 -2.90642,12.0426 -2.90642,13.35938 0,1.31677 -0.42188,2.39414 -0.9375,2.39414 -0.51563,0 -0.9375,-1.03392 -0.9375,-2.29761 z m 81.86757,-0.97022 c 2.4881,-0.7549 4.80841,-1.33319 5.15625,-1.28508 2.58842,0.35793 2.94217,-0.25246 1.45855,-2.51676 -2.14184,-3.26886 -7.94108,-6.43998 -16.23436,-8.87721 -7.01996,-2.06304 -20.28641,-3.26984 -21.11991,-1.9212 -0.24685,0.39942 1.40063,1.67743 3.66108,2.84001 2.26044,1.16259 6.08414,4.17382 8.4971,6.6916 6.03367,6.2958 10.51108,7.51716 18.58129,5.06864 z M 248.24412,97.591153 c 1.24527,-1.3392 3.24551,-4.333341 4.44498,-6.653653 1.19946,-2.320313 3.24074,-5.334554 4.53617,-6.698315 l 2.35533,-2.479563 -2.80508,-0.411699 c -1.54279,-0.226433 -4.78827,-0.08499 -7.21218,0.314304 -8.42991,1.388701 -13.63453,0.921576 -21.79589,-1.95623 -10.77717,-3.800173 -22.2289,-3.583358 -26.10249,0.494198 -1.40421,1.478147 -1.3139,1.551986 1.30379,1.066031 5.19388,-0.964206 9.76165,1.243682 16.79302,8.117116 8.40156,8.212846 9.96099,9.213167 16.35225,10.489367 6.55122,1.308141 9.2672,0.797291 12.1301,-2.281556 z"
     id="path24770"
     inkscape:connector-curvature="0" />
</svg>
