<?xml version="1.0" encoding="utf-8"?>

<!DOCTYPE svg PUBLIC "-//W3C//DTD SVG 1.1//EN" "http://www.w3.org/Graphics/SVG/1.1/DTD/svg11.dtd">
<svg version="1.1" id="Layer_1" xmlns="http://www.w3.org/2000/svg" xmlns:xlink="http://www.w3.org/1999/xlink" x="0px" y="0px"
	 viewBox="0 0 2014.505 1636.998" enable-background="new 0 0 2014.505 1636.998" xml:space="preserve">
<g>
	<path d="M587.404,1162.02c0.838-0.153,1.733-0.578,2.506-0.417c9.906,2.058,12.04-6.198,15.77-12.045
		c0.645-1.011,12.017-27.179,26.844-12.196c3.248-6.126,9.659-10.228,10.368-17.883c0.225-2.428,1.613-4.694,4.724-3.801
		c4.156,1.193-0.404,14.161,8.55,17.969c6.183,2.63,12.245,6.823,19.568,2.219c15.513-9.754,0.172-9.054,8.904-19.655
		c12.779-15.512,12.078-15.872,14.011-14.795c2.471,1.378,1.816,4.702,0.559,6.26c-3.702,4.589-4.379,10.103-5.8,15.418
		c-3.142,11.753,3.044,5.921-0.886,14.559c-8.339,18.327-13.62,38.042-25.001,54.992c-8.692,12.945,5.223,7.606-9.043,38.722
		c-1.484,3.236-3.708,0.665-5.5,1.223c-5.934,1.846-2.243-12.663-9.036-4.127c-7.702,9.678-17.834,18.145-22.926,29.003
		c-7.297,15.558-18.21,30.723-14.993,49.685c1.047,6.172-5.734,18.245,3.761,14.795c1.187-0.431,2.738-0.883,3.311-1.821
		c8.695-14.232,24.42-23.139,29.217-30.95c0,0,0.242-0.133,0.242-0.133c9.471-5.059,16.404-13.756,25.721-18.732
		c6.71-3.584,11.486-7.455,12.413-15.272c-1.842-0.545-1.727,1.388-2.553,2.035c-0.901,0.704-1.705,1.505-2.708,0.629
		c-4.249-3.714,16.636-23.897,29.05-26.373c5.282-1.054-3.144-7.43,6.259-8.689c3.317-0.444,2.846,2.208,2.946,4.28
		c1.58,32.694-22.111,14.919-10.93,12.771c2.987-0.574,1.56-4.867-1.703-2.697c-2.666,1.773-5.063,2.96-3.455,7.476
		c3.317,9.319,2.899,9.506,12.38,5.966c3.435-1.282,6.909,0.594,8.488,2.287c2.164,2.319-0.998,4.943-3.001,6.799
		c-2.563,2.375-5.568,3.343-8.691,1.105c-3.093-2.216-15.655-4.509-17.459-2.121c-3.248,4.3-7.01,7.888-7.833,14.479
		c-1.484,11.883,3.032,22.585,3.749,33.92c1.217,19.27-5.096,23.771-0.156,32.585c9.413,16.797,13.125,28.6,2.136,42.546
		c-1.475,1.871-2.131,2.224-3.591,0.021c-2.865-4.322-4.316-8.47-2.057-13.75c4.176-9.761,0.236-19.112-9.218-22.909
		c-1.052-0.422-1.979-0.697-2.213-1.925c-2.102-11.02-6.712,2.774-26.27,7.582c-8.248,2.027-18.03-5.728-14.959-10.296
		c2.957-4.399,2.906,1.732,9.722-1.794c26.028-13.465,29.645-22.568,33.966-20.442c3.244,1.596-0.761,4.6,1.342,8.093
		c4.047-8.222,1.724-15.81,2.193-23.294c-3.895,2.998-42.163,39.873-48.859,29.051c-0.664-1.073-1.586-2.482-2.995-1.947
		c-6.193,2.349-12.093-1.172-18.337-0.601c-10.794,0.988-19.607-4.101-27.247-11.552c-1.002-0.977-13.278-10.406-9.044-13.554
		c1.636-1.217,1.736-0.924,18.985,13.117c3.128,2.546,6.643,3.522,10.873,3.072c-8.828-20.851,6.1-33.607,13.406-61.316
		c4.866-18.455,38.33-36.491,28.317-51.357c-3.948-5.862-1.607-23.079,4.68-25.902c4.025-1.807,10.054-7.936,14.765,0.183
		c2.787,4.803,9.92-8.129,9.829-17.026c-0.014-1.41,1.812-5.798-4.072-4.341c-3.291,0.815,0.393-3.869-0.697-6.349
		c-13.959,2.916-11.396,9.173-21.767,10.609c-2.483,0.344-4.171-1.611-4.388-3.726c-0.238-2.317,1.84-1.906,3.642-2.101
		c7.706-0.836,11.034-8.065,16.63-12.037c1.278-0.907-0.54-2.329-1.572-2.795c-18.569-8.384-17.83-7.83-19.387-6.702
		c-3.51,2.542-8.071,11.295-2.826,21.28c1.365,2.599-0.124,4.993-3.863,2.702c-3.847-2.356-6.216-9.938-4.469-14.906
		c0.533-1.516,2.132-2.654,1.49-5.178c-7.822,9.68-14.288,19.82-20.4,30.068c-35.42,59.393-43.39,59.938-40.282,78.839
		c2.646,16.091,5.769,12.191,16.701,31.412c7.585,13.338-14.382,1.108-15.519,18.358c-5.71-5.789-5.651-12.751-6.351-18.837
		c-0.477-4.145-2.94-4.937-5.182-6.207c-3.138-1.778-2.632,2.388-4.206,3.326c-6.44,3.839-5.149,9.171-3.351,14.986
		c3.451,11.157,5.351,22.701,9.951,33.635c2.156,5.125-3.465,10.268-4.434,16.653c-4.678-4.671-4.808-9.931-5.472-14.424
		c-1.547-10.482-5.2-20.586-5.261-31.352c-0.022-3.918-2.964-7.458-2.799-11.677c0.027-0.687-1.403-2.076-2.115-2.047
		c-6.262,0.259-8.287-7.377-14.393-7.538c-1.625-0.043-1.537-2.368-1.45-3.791c1.203-19.714-1.495-2,3.909-22.283
		c0.378-1.418,0.07-3.318-1.293-2.765c-5.485,2.225-4.591-2.585-6.006-6.37c-1.948,4.724-2.134,8.32-1.917,12.053
		c0.327,5.627-3.525,6.582-6.552,3.147c-3.349-3.8-5.311-8.382-10.065-11.554c-2.623-1.75-1.887-8.914,0.28-13.222
		c6.068-12.062-6.797-5.603-7.028-14.073c-0.311-11.407-13.58-55.859-27.724-78.95c-1.866,6.512-2.837,11.94-6.814,15.884
		c-1.008,0.999-1.523,2.967-3.374,2.416c-1.668-0.496-2.82-1.875-3.309-3.621c-4.867-17.364-11.074-34.405-12.658-52.56
		c-0.347-3.98-3.98-6.754,0.393-8.279c4.709-1.642,6.108,3.188,12.56,17.713c2.755-2.553,6.409-3.829,4.632-8.368
		c-1.052-2.686,3.083-3.938,3.63-1.438c1.168,5.342,7.918,2.508,10.591,13.333c16.557,67.029,15.433,64.631,35.15,101.576
		c8.825-12.921,20.426-22.605,34.542-29.307c7.551-3.584,15.435-0.645,19.979-11.917c4.073-10.102,4.695-12.532,74.347-96.77
		c22.152-26.79,52.869,49.658-242.11-439.648C309.811,495.688,23.094,31.416,23.7,32.418c-3.91-6.468,7.633-14.797,11.826-3.934
		c6.376,16.519,478.895,799.526,590.798,970.311c10.927,16.677,23.736,32.125,33.054,49.932c3.057,5.842,7.233,11.778,16.603,9.327
		c7.625-1.995,13.855,4.171,20.534,7.071c3.339,1.45,4.32,4.515,1.987,7.963c-1.749,2.584-1.29,5.63-2.098,8.65
		c3.812-0.022,6.557-3.982,10.535-0.653c1.866,1.562,5.469-2.842,3.9-5.194c-5.756-8.633,31.243-6.797,42.741-6.609
		c8.538,0.14,12.227-1.909,15.312-11.708c4.935-15.675,12.806-30.06,18.836-45.234c4.4-11.072,5.177-23.355,10.713-34.053
		c10.102-19.522,10.054-44.908,14.765-63.167c3.923-15.201,44.906-17.632,53.798-57.386c1.399-6.256,3.602-9.271,9.877-9.014
		c2.603,0.107,4.49-1.686,6.246-2.937c47.92-34.129,43.199-30.637,72.379-57.596c1.093-1.01,48.99-46.728,63.688-55.991
		c4.409-2.778,4.861-4.205,4.872-11.94c-19.763,10.109-70.987,57.214-87.503,73.427c-9.45,9.277-9.336,16.961-15.696,15.089
		c-6.472-1.906-7.607-9.877-6.784-16.573c0.84-6.837,2.75-8.156,8.933-5.296c6.9,3.193,9.967-2.265,13.376-5.562
		c77.587-75.034,70.52-61.193,100.367-87.51c4.578-4.036,8.547-16.733,13.484-16.106c7.842,0.997,12.217-4.186,14.911-9.85
		c2.943-6.188-0.072-12.422-3.845-17.761c-6.957-9.845-13.715-19.863-22.762-28.024c-14.428-13.015-0.74-23.134-0.011-35.734
		c0.277-4.799,6.598-13.698,11.197-13.929c7.257-0.364,4.845,0.789-7.829-50.744c-2.681-10.902-3.475-22.798-9.795-32.192
		c-14.734-21.902-22.504-79.31-30.481-84.723c-6.445-4.374-13.056-8.307-20.042-11.856c-4.526-2.3-6.771-8.885-13.535-7.849
		c-0.191-5.201-3.096-11.288,0.036-15.401c4.96-6.514,4.478-13.951,6.206-21.008c0.954-3.896,1.702-7.835,0.455-11.961
		c-1.744-5.77-0.232-4.474-43.987,8.145c-40.729,11.746-27.646,8.85-54.992,10.96c-4.434,0.342-3.926-3.962-1.234-5.108
		c14.214-6.052,78.594-27.004,86.891-24.453c12.845,3.948-1.071-22.982-7.777-33.243c-4.71-7.207-14.83-1.731-15.18-11.17
		c-0.074-2.007-5.295-3.635-9.049-2.338c-58.858,20.334-41.767,5.577-50.356,4.802c-10.242-0.924-17.756-7.94-26.671-11.793
		c-2.116-0.914-4.393-1.935-5.573-4.142c-3.888-7.274-10.585-9.743-17.984-8.86c-8.661,1.033-13.554-4.745-19.152-9.054
		c-18.113-13.944-13.051-21.19-25.415-9.002c-3.05,3.007-7.563,2.538-8.35-1.607c-0.537-2.825-3.527-5.897-0.106-9.439
		c1.975-2.044-0.382-5.246-1.31-7.711C703.653,34.403,687.976,25.091,694.937,22.686c7.751-2.678,11.469,4.718,12.797,12.816
		c0,0-0.913-5.537,80.217,181.892c3.578-1.926,3.742-4.303,2.558-7.196c-82.408-201.357-34.363-83.07-81.474-191.642
		c3.54-0.676,4.718,4.818,7.985,3.597c7.685-2.872,8.099,3.856,9.691,7.668c0.418,1,64.951,149.008,68.146,156.987
		c3.403,8.499,3.335,18.378,9.394,25.627c7.267,8.694,8.891,19.536,13.07,29.422c5.572,13.181,24.292,7.747,33.425,15.718
		c9.554,8.338,20.921,13.95,31.655,20.33c8.657,5.146,18.745,2.529,27.9-1.108c6.896-2.74,14.927-3.942,6.878-10.061
		c-7.409-5.633-11.705-13.724-17.917-20.266c-7.455-7.851-9.003-20.302-3.966-28.384c2.666-4.278,6.612-7.736,9.639-11.816
		c8.046-10.843,19.624-17.706,29.275-26.69c4.783-4.453,12.736-6.745,13.28-15.151c0.835-12.903-3.363-9.451,12.701-23.295
		c8.488-7.315,10.223-17.689,12.845-27.752c0.793-3.042-2.599-4.023-2.016-6.956c5.532-27.854,41.746-22.805,70.971-19.421
		c50.529,5.852,71.47-8.277,76.027,0.779c6.926,13.763,17.276,8.253,22.82,29.753c3.727,14.451-0.527,27.112,8.89,31.613
		c23.854,11.402,33.718,18.018,39.667,28.581c6.087,10.806,14.585,22.399,13.679,28.352c-0.317,2.082,1.5,7.157-4.104,3.367
		c-0.695-0.47-2.894,1.281-4.706,2.153c-1.001-7.18-3.903-13.498-8.494-19.037c-3.504-4.227,3.295-7.195-24.999-30.202
		c-3.178-2.584-7.587-3.689-11.49-5.336c-2.26-0.954-2.631,0.433-3.177,2.409c-2.727,9.878-3.64,20.007-4.419,30.146
		c-0.106,1.373-0.913,3.719,1.372,4.403c2.417,0.723,4.573-0.67,5.274-2.659c1.801-5.117,5.916-9.347,5.74-15.234
		c-0.054-1.822-0.346-4.138,1.912-5.001c1.928-0.737,3.003,1.13,4.391,2.045c4.096,2.702,9.536,2.782,11.797,8.916
		c3.68,9.986-0.957,25.352-10.271,30.317c-11.06,5.895-17.697-9.652-29.655,3.6c-11.004,12.194-24.118,20.834-40.584,23.073
		c-8.338,1.134-15.578,6.091-24.063,6.154c-1.009,0.008-51.155,0.989-60.649-2.009c-58.079-18.339-46.701-24.908-54.009-29.945
		c-12.474-8.597-9.956-21.906-15.616-17.981c-2.264,1.57-4.99,2.663-6.838,4.607c-6.501,6.835-14.202,12.247-21.215,18.465
		c-4.601,4.079-5.937,16.003-2.367,21.185c6.059,8.794,13.661,16.253,20.98,23.93c6.573,6.894,12.993,0.509,14.495,8.118
		c3.653,18.505,132.376,29.782,171.921,8.916c15.364-8.107,32.785-12.264,46.336-23.927c6.3-5.422,9.714-13.43,17.057-17.929
		c2.867-1.757-0.716-2.405-1.539-3.375c-3.12-3.68-2.473-6.007,2.105-7.166c14.026-3.55,11.977-8.284,16.403-11.221
		c1.928-1.279,3.192-5.524,5.92-3.036c1.948,1.777-1.445,3.762-2.632,5.559c-8.464,12.808,3.501,6.027,22.617,19.005
		c21.128,14.345,38.683,32.567,57.307,49.663c27.92,25.628,35.479,26.629,29.62,34.209c-1.147,1.484-1.552,1.841-3.228,0.218
		c-16.983-16.459-30.351-14.053-53.704-22.412c-38.694-13.849-100.209,49.244-130.742,66.022
		c-6.052,3.326-13.442,8.752-13.747,16.668c-0.234,6.047-10.074,56.481-7.487,61.766c2.821,5.762-0.556,8.936-4.631,10.47
		c-6.631,2.497-5.062,6.174-5.286,11.933c-0.366,9.422,1.407,10.737,10.628,8.054c1.834-0.534,3.655-3.84,5.399-1.278
		c1.389,2.041,2.473,5.873,1.469,7.663c-4.539,8.095,1.12,27.293-7.758,27.584c-4.217,0.138-0.517-13.366-3.114-20.567
		c-2.284,3.802-0.318,15.715-5.734,16.397c-5.011,0.631-0.617-8.751-6.984-7.178c-4.513,1.115-6.089-1.366-5.661-5.694
		c0.295-2.972-0.178-6.079,0.485-8.942c1.49-6.441-1.318-10.714-6.422-13.771c-17.589-10.536-38.042-32.243-41.921-29.451
		c-3.212,2.311,0.438,2.547,24.102,84.453c7.853,27.182,15.982,45.629,15.982,45.629c-3.107,17.654,15.314,11.66,39.982,27.519
		c10.393,6.682-0.663,10.318-0.687,12.935c-0.106,11.378-9.356,18.884-12.279,29.067c-0.738,2.569-2.237,3.572-4.736,1.784
		c-2.081-1.489-3.845-0.584-5.895,0.457c-7.138,3.625-6.918,3.39-3.105,10.493c13.966,26.019-1.886,20.905,3.411,31.399
		c4.884,9.675,9.793,19.302,16.975,27.576c7.31,8.421,1.9,44.267-28.038-24.078c-5.906,7.847-0.297,8.249,12.751,30.064
		c2.634,4.405,0.413,18.861-3.039,22.802c-0.821,0.937-1.863,0.801-2.905,0.873c-16.749,1.157-36.066-19.141-26.385-30.835
		c1.31-1.583,3.95-2.473,1.096-4.873c-2.139-1.8-3.621-5.481-7.336-3.154c-5.908,3.701-11.739,7.545-17.538,12.965
		c7.699,1.723,10.59,7.435,13.668,12.945c1.954,3.497,0.745,6.173-2.563,7.847c-30.784,15.576-84.207,70.97-138.39,106.922
		c-7.625,5.058-14.341,8.489-18.049,18.759c-7.841,21.718-24.998,36.077-44.49,47.409c-19.456,11.31-13.011,29.798-29.917,65.659
		c-6.667,14.142-9.607,29.637-16.047,43.821c-29.571,65.132-32.093,69.216-41.69,71.275c-1.544,0.331-1.579,1.996-1.079,3.229
		c1.406,3.468,1.97,7.742,6.463,8.801c16.123,3.801,18.987,2.126,19.749,5.432c0.696,3.017-3.227,2.475-4.608,4.166
		c10.259,7.36,9.847-4.962,17.89-0.595c3.956,2.148,8.226-1.321,12.278-0.716c21.58,3.221,41.076,14.933,45.852,20.126
		c3.05,3.316,6.733-1.093,7.955-3.534c8.066-16.103,52.68-24.779,55.753-44.564c3.921-25.246,19.994-68.768,26.761-79.08
		c0.799-1.218,1.999-2.65,0.821-4.057c-1.142-1.364,1.426-2.237-27.752,14.205c-2.732,1.54-6.25,2.597-4.366,7.045
		c1.101,2.598-3.915,2.904-5.641,0.835c-3.601-4.314-8.744-6.64-13.021-10.087c-8.04-6.479-17.407-8.51-27.465-7.431
		c-8.69,0.933-17.478,0.922-26.054,3.083c-5.501,1.387-14.864-12.294-6.463-12.337c4.271-0.022,6.842-2.351,9.595-5.341
		c4.055-4.403,11.133-4.583,14.803-10.164c2.385-3.626,25.501,7.612,38.689,20.856c1.904,1.912,4.062,5.947,6.172,4.823
		c3.766-2.006,8.893-2.961,10.865-7.124c1.801-3.802,4.865-6.102,7.957-7.871c12.441-7.119,22.831-16.952,34.366-25.25
		c3.688-2.653,8.384-4.341,11.042-9.941c-20.074,0.472-27.62,10.346-74.951-2.795c-0.102-4.206,11.582-3.422,11.645-11.99
		c0.012-1.659,1.929-1.878,3.489-2.141c6.141-1.036,16.672-8.389,16.348-11.867c-0.726-7.778,8.169-8.003,9.623-7.651
		c14.952,3.62,27.589-3.931,40.885-7.562c15.378-4.2,30.89-9.315,43.954-18.294c22.477-15.446,70.297-34.617,88.11-43.579
		c37.496-18.864,43.322-28.344,54.223-28.28c-5.856-9.926-14.272-14.905-25.63-17.989c-0.6-2.37,2.906-5.281,2.776-9.219
		c-0.53-16.039-3.734-30.998-14.761-43.422c-5.811-6.547,5.4-13.681,13.828-1.051c21.937,32.875,8.514,41.471,21.379,51.343
		c7.422,5.695,14.711,11.9,20.141,19.391c5.661,7.809,14.299,8.946,21.773,12.755c1.666,0.849,3.392,0.512,4.459-1.266
		c10.017-16.696,3.999-15.146,10.897-25.247c8.016-11.739,10.482-25.891,18.126-38.286c-5.353-1.034-9.678-4.71-14.588-0.736
		c-0.948,0.768-2.353,0.339-2.832-0.59c-2.57-4.988-7.157-4.042-11.57-4.623c-36.62-4.821-44.522,9.592-58.891-5.704
		c-2.273-2.42,0.276-3.904,2.086-4.861c23.968-12.671,22.702-11.83,45.084-18.265c-16.648-1.673-32.767,2.394-45.533-9.991
		c7.063-0.732,13.035-1.682,19.847,2.437c8.538,5.162,18.328,0.724,27.459-1.162c24.049-4.968,30.745-22.251,44.273-21.007
		c4.021,0.37,3.063,4.245,1.521,4.74c-12.782,4.097-20.524,16.478-33.501,20.307c-2.699,0.796-5.791,0.966-8.76,3.783
		c6.303,0.691,11.838,1.243,17.359,1.916c18.08,2.203,26.016,14.846,32.117,0.915c7.472-17.061,0.016-21.929-4.375-44.838
		c-3.312-17.278-12.327-32.994-13.722-50.81c-0.447-5.703-7.932-10.485-0.983-18.192c-1.552-1.593-3.662-0.718-5.434-1.243
		c-4.773-1.416-6.976-0.123-7.356,5.306c-0.974,13.943-12.79-2.548-12.33,7.606c0.046,1.012,4.719,21.06-14.385,21.583
		c-11.492,0.315-21.167,17.653-46.219,8.067c-8.918-3.415-10.937,2.627-13.19-12.714c-1.347-9.175-7.846-24.564,7.12-26.32
		c65.217-7.654,68.311,4.358,65.642-8.469c-2.507-12.05-19.816-53.72-6.096-52.842c-3.96-4.107-5.577,1.573-8.66,0.632
		c0.898-5.146,1.32-10.498,7.121-13.032c1.164-0.509,3.07-1.607,3.475-1.22c8.011,7.647,13.59-10.508,34.441-4.635
		c-1.419-1.884,0.041-7.954-5.239-3.175c-1.034,0.936-4.284,2.043-5.323-1.353c-1.182-3.864-9.791-3.724-6.653-10.369
		c1.837-3.89,19.103-8.681,22.094-6.9c4.641,2.763-6.087,6.943,2.332,9.514c99.091,30.263,98.017-16.839,132.655-23.442
		c3.415-0.651,4.76-2.267,2.473-5.173c-7.923-10.069-10.918-22.78-18.081-33.224c-2.945-4.293,7.947-4.238-5.475-17.345
		c-12.553-12.258-25.334-24.361-42.265-30.645c-3.572-1.326-6.152-4.284-9.86-5.565c-14.193-4.905-4.226-12.846-8.833-14.794
		c-18.135-7.669-43.085-11.945-51.797-1.425c-3.276,3.956-5.237,8.638-12.221,9.404c-11.907,1.305-16.24,29.158-26.562,38.286
		c-13.419,11.867-13.688,28.405-17.859,43.626c-6.301,22.997-3.267,22.939,3.649,34.155c5.694,9.233,1.004,18.369,1.73,27.466
		c0.034,0.42-0.67,0.9-1.03,1.352c-2.853-2.927-8.572,2.229-10.623-4.302c-1.38-4.395-4.202-8.067-5.019-13.114
		c-0.782-4.827-5.299-8.912-8.968-12.719c-0.719-0.746-1.635-0.25-2.099,0.554c-1.317,2.281-4.351,3.97-2.952,7.253
		c5.168,12.122,3.749,25.076,4.753,37.709c0.284,3.578,1.561,9.331-3.329,9.601c-4.048,0.224-3.356-5.605-3.584-8.833
		c-0.934-13.181-3.688-26.089-5.373-39.15c-0.689-5.34-12.994-9.205-20.304-18.686c-3.924,7.363-2.159,15-5.544,21.631
		c-9.764,19.123-27.391,9.339-45.156,3.38c-1.522-0.51-3.575-2.237-0.621-3.223c6.031-2.013,6.447-6.566,6.049-12.388
		c4.135,2.495,5.193,6.476,7.263,9.629c0.66,1.005,0.482,2.837,2.13,2.808c6.236-0.112,12.544-0.771,17.542-4.765
		c7.611-6.082,1.067-10.933,2.205-13.784c4.353-10.904,2.808-22.668,4.975-33.84c4.112-21.195,19.952-84.208,31.521-102.444
		c6.421-10.121,18.26-11.712,68.385-32.47c25.833-10.698,30.324-9.141,38.698-5.529c41.091,17.724,22.273,0.248,58.441,14.625
		c33.753,13.416,41.007,29.883,47.475,22.764c0.292-0.322,1.668-0.221,1.679-0.157c1.035,5.558,7.06,5.279,11.251,8.89
		c-7.483,1.172-5.889,4.712-3.56,8.43c4.888,7.801,10.612,26.778,19.647,31.442c6.247,3.224-5.209,14.201,3.922,27.318
		c4.549,6.535,3.807-5.236,12.726-12.845c12.282-10.479,8.923-0.34,26.772,12.406c14.755,10.538,20.512,25.024,20.151,42.969
		c-0.236,11.759-0.072,23.343-3.831,34.706c-6.536,19.754-15.936,17.086-9.876,25.298c0.366,0.495,1.094,0.731,1.435,1.235
		c4.089,6.042,5.151,4.425,10.431-0.611c9.012-8.594,10.92-24.342,20.097-27.086c6.414-1.917,12.895-2.909,19.594-1.783
		c9.612,1.615,19.681-1.196,29.037,3.105c5.382,2.474,11.135,4.202,15.635,8.335c3.638,3.341,8.552,4.371,12.709,6.881
		c7.577,4.576,13.399,10.759,19.641,16.843c12.076,11.77,11.247,26.596,11.549,41.197c0.148,7.15,0.755,4.429,23.782,22.72
		c5.353,4.251,8.303,10.576,13.814,14.546c-3.635,1.438-32.643-23.239-36.135-20.91c-1.623,1.083-0.836,3.169-0.734,4.791
		c0.256,4.063,5.151,0.322,10.393,4.426c7.426,5.813-11.602,4.629,0.689,14.611c13.178,10.702,21.356,25.739,33.23,37.531
		c5.543,5.505,1.153,10.418-2.036,7.013c-29.211-31.193-43.331-55.305-47.315-48.239c-1.48,2.625-6.395,4.809-2.94,8.519
		c11.576,12.429,19.437,27.654,30.942,40.179c10.643,11.586,15.135,27.936,17.914,21.112c3.438-8.444,8.118-16.539,8.687-25.907
		c0.975-16.05,4.632-24.755-4.253-32.761c-3.267-2.944-7.065-6.006-8.641-10.579c4.677,0.267,7.923,3.533,10.603,6.499
		c2.562,2.835,6.9,1.861,8.812,6.464c9.891,23.812,2.168,37.038-3.747,60.609c-1.229,4.897-5.794,9.054-8.046,14.049
		c-8.816,19.551-17.449,39.19-26.587,58.59c-15.683,33.298-52.553,84.005-58.712,75.685c-0.968-1.308-2.195,0.062-3.314,0.648
		c-29.858,15.636-35.314,21.285-55.86,17.541c-9.516-1.734-6.21,3.593-4.447,3.704c5.076,0.319,5.097,2.878,5.422,7.507
		c2.361,33.566,0.235,67.349,4.932,100.789c0.512,3.644,0.101,7.408-1.664,10.616c-4.482,8.147,1.903,12.64-10.354,24.932
		c-4.165,4.177-5.131,7.634-0.327,11.998c2.021,1.836,0.76,4.698,0.403,7.202c-2.858,20.079-8.853,30.586,13.292,94.52
		c4.082,11.783,6.79,2.93,13.944,10.796c19.152,21.057,19.769,24.028,26.841,25.204c4.287,0.713,9.139,2.205,7.052,9.333
		c-0.962,3.285,1.617,7.214,3.161,10.704c28.342,64.043,26.792,67.223,35.28,62.177c1.756-1.044,1.875-1.335,30.123,4.469
		c15.606,3.207,5.684-7.307,36.81-1.913c19.883,3.445,44.568-8.423,44.845-9.423c2.491-8.971,10.53-6.969,16.726-8.4
		c4.793-1.107,8.711-0.193,10.897,5.16c2.028,4.964,60.905,19.672,117.886,16.801c9.468-0.477,18.979-0.071,28.204-0.071
		c-4.17,5.03-10.644,6.373-17.066,6.661c-30.784,1.382-84.379,7.631-206.193-3.5c-24.072-2.199-20.734,3.993-28.474,0.339
		c-10.313-4.868-21.483-4.454-32.435-5.408c-4.829-0.421-5.636,2.086-3.846,5.777c13.736,28.32,11.957,24.479,16.869,25.443
		c13.838,2.715,110.37,23.244,119.997,29.689c-6.729,2.215-44.197-8.691-69.146-13.071c-15.92-2.795-32.065-4.368-47.815-8.179
		c-5.095-1.233-3.573,2.025-3.149,4.271c1.939,10.259,5.456,19.905,10.531,29.109c15.825,28.698,32.634-7.283,38.092,11.852
		c3.07,10.765,11.149,11.887,20.035,12.653c30.434,2.621,60.927,4.457,91.458,4.776c43.505,0.455,66.514-6.752,67.431-8.724
		c-1.579-1.829-3.851-1.858-5.813-1.516c-23.76,4.145-74.869-7.365-83.553-11.089c-5.525-2.369-8.478-6.777-12.079-10.799
		c-1.143-1.277-1.072-3.33-0.042-4.809c1.339-1.925,2.579-0.384,7.08,0.813c4.09,1.087,3.495-2.659,2.059-3.159
		c-4.339-1.512-1.802-5.254,2.851-4.146c3.021,0.719,4.404,4.808,3.739,5.659c-3.751,4.797-1.983,3.913,17.088,10.985
		c2.201-1.416-2.726-3.465,0.866-3.891c3.165-0.375,7.27,0.543,6.796,4.426c-0.344,2.82,1.047,2.775,2.286,3.339
		c9.711,4.418,19.842,7.804,30.246,9.888c19.286,3.862,10.823-8.551,23.234-8.522c7.631,0.018,14.835,1.724,21.477,5.419
		c2.279,1.268,4.287,2.511,7.098,2.248c6.924-0.648,7.723,7.08,0.497,8.818c-38.474,9.249-93.489,22.714-188.375,4.789
		c-28.045-5.298-12.767-12.825-35.566-12.186c-17.962,0.504-9.479,19.377-17.949,12.248c-2.695-2.268-5.494-3.067-5.414-7.315
		c0.051-2.738-10.906,0.465-22.397,0.402c-4.811-0.026-1.148,5.306-4.882,5.556c-0.107-6.733-4.907-4.602-9.238-4.653
		c-22.086-0.26-54.252-1.197-74.573-6.192c-1.224-0.301-2.644-0.886-3.65,0.204c-3.252,3.524-6.889,2.688-9.617,0.012
		c-11.701-11.48,3.566-15.893-6.454-19.389c-3.804-1.327-7.606-7.251-12.109-1.128c-1.959,2.663-3.809,3.89-6.683,1.116
		c-3.399-3.28-16.093-1.499-14.078-11.026c0.51-2.415-2.239-3.473-3.609-4.969c-3.373-3.683-3.254-6.943,1.17-9.15
		c4.093-2.042,2.367-3.568,0.694-6.27c-5.978-9.655-15.422-7.645-23.963-6.964c-49.999,3.986-45.341,4.065-64.423,10.025
		c-6.655,2.079,4.323,5.989,7.592,6.653c36.329,7.38,36.487,4.244,42.036,9.264c2.855,2.583,10.067-2.82,10.766,2.46
		c0.281,2.122-1.786,1.881-3.16,2.232c-8.643,2.202-16.728,6.267-25.609,7.68c-1,0.159-32.2,11.191,23.953,24.916
		c2.185,0.534,4.655,0.42,6.358,2.528c-4.915,3.121-66.643-1.883-42.668-25.473c2.409-2.37,5.176-4.376,7.81-6.575
		c-1.373-1.495-3.217-2.566-4.624-1.808c-6.5,3.504-10.084,1.405-37.583-11.931c-15.811-7.668,17.887-22.198,33.528-30.37
		c-11.849-3.808-33.445-1.79-40.943,3.361c0.836,3.494,6.157,2.997,4.962,6.427c-2.374,6.812-31.981-9.702-38.047,16.201
		c-4.027,17.195-8.037,13.835,10.755,17.165c10.247,1.816,20.083,5.946,30.722,5.535c1.22-0.047,1.956,0.679,2.707,1.445
		c3.41,3.476,7.596,5.884,11.798,8.329c-6.118,5.84-15.432,0.67-21.915,7.234c10.62,4.227,23.06,4.056,23.783,6.722
		c0.51,1.877-2.458,1.244-2.813,3.542c19.031,6.395,19.858,5.957,19.617,8.314c-0.22,2.148-2.398,0.994-3.718,1.259
		c-5.161,1.033-10.235,0.261-15.184-1.126c-7.184-2.014-31.026,2.517-33.44-9.717c-0.706-3.577-3.258-5.196-7.224-2.759
		c-5.342,3.282-10.788,0.135-16.161-0.494c-1.412-0.165-1.737-1.438-1.096-2.983c2.327-5.604,13.331-8.766,18.578-5.51
		c6.883,4.271,10.182-0.78,13.789-6.102c-18.726-8.102-43.516-0.576-39.331-15.497c1.618-5.771,0.409-11.815,2.789-17.574
		c16.121-38.999,114.777-31.961,128.02-35.637c-57.209-78.258-35.755-40.344-51.23-81.584c-1.517-4.044,0.302-9.753-1.375-14.714
		c-13.085-38.723-16.235-28.621-23.426-51.642c-0.651-2.084-0.985-5.497-4.309-1.924c-0.643,0.691-1.504,0.957-2.031-0.051
		c-2.883-5.515,0.554-5.328,3.956-12.398c5.972-12.41-6.48-32.089-8.528-40.599c-1.403-5.833-4.057-7.494-9.767-6.34
		c-3.715,0.751-0.943,6.477-5.55,5.877c-8.717-47.105-29.184-90.234-47.508-134.703c-12.959,11.183-20.909,24.703-26.359,40.255
		c-7.819,22.311,4.869,29.248-8.55,51.526c-4.602-4.527-6.379-10.625-6.402-16.232c-0.099-24.242-2.506-30.94,7.369-33.93
		c1.592-0.482,2.342-1.486,2.849-3.059c8.678-26.906,28.381-42.117,28.485-53.508c0.11-12.069,5.997-4.515,10.002-12.877
		c1.905-3.978,14.272-21.588,15.272-21.739c9.599-1.446,11.731-10.105,14.582-16.77c15.55-36.348,19.055-35.936,15.866-36.822
		c-8.472-2.354,11.24-1.055,1.702-14.396c-4.799-6.713,10.903-17.574,15.417-31.951c0.4-1.275,1.765-2.366,2.898-3.274
		c12.498-10.012,18.653-24.73,27.563-37.378c7.372-10.465-4.364-24.594-2.002-59.366c0.544-8.006-3.548-14.688-4.285-22.239
		c-0.927-9.495-2.881-18.905-3.486-28.409c-0.395-6.208-3.481-8.264-8.828-9.635c-13.291-3.409-26.729-5.176-40.42-4.527
		c-7.973,0.378-6.118-7.324-19.989-3.559c-14.242,3.866-31.128-1.022-39.387,0.503c15.835,84.149,25.811,103.577,25.811,103.577
		c-2.267,8.314-1.981,16.88-7.21,24.95c-7.914,12.215-12.742,26.384-19.996,39.087c-7.667,13.426-36.594,48.782-26.225,76.034
		c1.578,4.148-1.772,8.336-5.786,6.913c-10.114-3.585-4.078,21.647-17.072,42.459c-16.926,27.108-29.137,68.698-63.752,79.14
		c-7.622,2.299-12.229,4.709-12.025,13.165c0.64,26.53-6.155,17.838-14.599,55.221c-0.614,2.718-0.921,6.08-4.672,7.063
		c-4.099-7.335,1.055-10.072,2.564-26.604c0.445-4.875,3.383-9.564,4.725-14.609c1.3-4.886,1.792-10.002,3.649-14.741
		c3.515-8.974-9.318-13.421-2.494-17.33c17.204-9.853,29.435-25.563,44.536-37.732c13.743-11.075,17.164-27.229,25.799-40.703
		c7.182-11.206,19.518-34.308,18.337-47.466c-0.284-3.163,2.701-10.179,0.724-12.227c-1.657-1.716-22.843,12.735-53.447,27.596
		c-96.774,46.989-71.063,27.725-90.357,35.737c-18.391,7.637-42.143,26.654-51.572,31.438
		c-25.884,13.133-49.643,73.208-56.817,96.894c-9.155,30.228-17.03,43.388-5.23,41.365c5.689-0.975,10.2-4.276,14.488-7.764
		c4.832-3.932-5.319-8.096-2.352-11.717c1.565-1.911,3.856-1.068,5.878-0.044c10.775,5.453,42.009,15.943,45.439,13.422
		c8.135-5.979,8.667,3.081,11.98-0.499c4.742-5.124,7.242-0.393,9.433,2.515c2.565,3.405,1.256,6.169-2.33,8.842
		c-23.136,17.244-38.782-0.903-70.579,1.766c-15.933,1.338-8.985,9.576-15.996,4.181c-7.994-6.151-10.591,13.612-6.34,18.878
		c2.193,2.715,1.589,3.834-0.49,6.25c-7.178,8.34-16.68,10.205-26.841,10.728c-7.027,0.362-12.144,2.445-9.401-3.99
		c2.405-5.643,0.235-6.667-23.529,4.365c-14.334,6.654-29.792-14.177-49.047-16.677c-13.41-1.741-4.773,8.445-13.428,5.93
		c-7.027-2.042-27.773-4.141-32.814-9.507c-9.169-9.762-21.208-12.679-33.719-14.43c-5.367-0.751-10.621-3.093-16.279-0.353
		c-3.435,1.663-2.439-3.031-5.752-4.305c14.986-5.168,27.839,2.863,41.587,1.869c-3.591-6.634-5.532-13.766-4.85-21.422
		c0.164-1.837-1.09-2.15-2.415-2.117c-5.497,0.137-11.075-0.443-16.361,1.388c-0.008,3.102,4.199,3.093,3.081,5.27
		c-2.58,5.017-15.688-9.867-17.373,1.888c-0.709,4.949-3.291,9.622-4.965,14.444c-0.802,2.309-1.813,4.859-4.394,4.944
		c-3.417,0.114-2.176-3.543-3.215-5.392c-0.678-1.205-0.543-2.867-0.812-4.574c-6.889,2.441-9.149,8.625-18.804,17.141
		c-4.297,3.79-6.388,1.14-4.934-3.382c8.832-27.457,9.955-27.461,8.085-29.528c-3.34-3.692-13.718,7.511-14.211-1.964
		c-0.038-0.732-0.433-1.443-0.608-1.281c-4.592,4.241-10.994-1.862-15.395,2.634c-8.162,8.339-16.73,16.485-17.675,29.198
		c-0.405,5.447-2.928-1.468-8.053,5.21c-3.548,4.622-8.463,8.325-10.092,14.279c0,0-21.581,15.313-30.105,36.145
		c-4.089,8.307-19.972,22.082-12.488,23.944c2.917,0.726,0.315,4.432-0.698,3.937c-5.565-2.719-5.214,2.43-6.821,4.996
		c-2.191,3.499,0.652,5.155,2.807,6.34c3.578,1.968,4.01-0.829,13.705-17.089C588.028,1177.25,593.785,1170.597,587.404,1162.02z
		 M1535.479,1356.793c8.291,0.321,5.14-3.637-2.341-21.936c-3.978-9.73-5.023,2.575-9.715,0.083
		c-2.131-1.132,0.556-2.537,0.145-3.804c-0.712-2.195,2.46-3.904,0.347-6.444c-5.087-6.116-4.973-7.46,1.331-11.846
		c2.541-1.767,3.514-3.864,1.315-5.547c-8.887-6.801-14.926-16.949-25.769-21.492c-3.457-1.448-6.49-4.015-9.538-6.308
		c-14.411-10.844,5.874-19.118,16.526-24.708c7.648-4.013,5.047-8.481-6.351-27.585c-8.19-13.727-19.115-25.277-28.591-37.964
		c-4.627-6.194-13.892-8.706-14.435-18.195c-0.035-0.606-0.971-1.291-1.633-1.711c-10.818-6.85-17.7-17.465-25.574-27.063
		c-4.527-5.518-3.999-5.794-8.012,0.269c-3.506,5.297-8.593,3.488-5.489-1.897c0.738-1.28,0.37-2.42-0.147-3.646
		c-6.943-16.448-15.329-51.756-10.112-66.859c2.58-7.471,9.283-12.003,11.13-19.625c0.828-3.417,2.652-6.631,4.651-9.719
		c7.111-10.985,14.352-14.106,27.306-11.158c1.711,0.39,2.712-0.057,3.751-1.47c9.368-12.744,14.01-9.31,14.146-30.158
		c0.088-13.402-3.58-26.479-2.588-39.888c1.146-15.495-8.857-19.632-12.438-19.506c-3.781,0.133-7.75,4.698-11.227-0.629
		c-11.387,3.227-32.272-1.327-35.687,8.73c-22.53,66.349-20.36,60.122-27.157,116.745c-4.816,40.129-12.419,47.032-18.668,85.284
		c-2.364,14.47,11.556,33.291,2.468,44.533c-4.23,5.232,12.088,1.604,18.222,10.035c0.794,1.09,2.239,1.069,3.559,0.986
		c10.215-0.638,17.506,26.303,34.657,46.703c17.367,20.656,34.405,41.576,52.848,61.304c3.305,3.535,6.882,7.174,1.703,12.358
		c-1.612,1.613-1.944,4.665-2.506,7.139c-3.183,14.004-2.609,15.385,11.331,19.908
		C1503.46,1358.375,1524.665,1356.374,1535.479,1356.793z M1539.875,555.19c-0.65,2.344,0.747,3.522,1.65,4.874
		c3.935,5.896,6.539,12.559,11.517,17.922c2.458,2.649,3.516,8.354,0.304,10.274c-3.052,1.824-4.091-3.641-6.124-5.816
		c-3.858-4.127-3.675-11.205-8.381-13.98c-8.878-5.234-16.541-13.057-28.041-13.365c-21.034-0.565-24.497-5.571-26.901-0.808
		c-4.047,8.02-7.474,16.467-12.454,23.863c-3.229,4.795-2.596,10.769-6.107,14.978c-14.269,17.108-12.044,31.564-37.375,66.301
		c-1.389,1.904-4.407,3.789-3.526,6.15c1.01,2.708,3.813,4.143,7.15,4.471c20.224,1.986,40.011,5.403,58.245,15.372
		c17.12,9.36,4.551,20.891-4.545,38.105c-1.762,3.335,2.362,4.323,3.477,1.83c1.485-3.322,13.709-13.494,15.486-18.174
		c3.371-8.883,2.404-19.649,11.15-26.27c0.401-0.304,0.596-1.216,0.505-1.784c-0.811-5.053,2.878-8.583,5.598-11.17
		c7.724-7.345,9.036-18.375,16.213-25.959c1.889-1.996,0.74-6.803,2.59-8.909c4.81-5.471,4.271-12.752,5.697-18.721
		c1.803-7.547,5.36-15.04,4.914-23.191c3.829,9.776,1.483,17.718-7.117,51.086c-4.661,18.083-14.352,33.332-23.135,49.232
		c-2.469,4.471-7.459,7.499-8.11,12.856c-1.943,16.005-29.52,42.565-57.762,44.78c-18.299,1.435-34.009-1.144-51.744-5.968
		c-11.647-3.168-0.772-12.061,5.242-7.392c7.593,5.894,15.645,7.571,24.739,1.939c-8.07,0.867-14.372-2.548-20.323-7.072
		c-0.801-0.608-2.494-0.076-3.771-0.017c-3.288,0.151-6.354,1.085-9.507-1.799c-2.009-1.838-5.561-0.719-6.646,2.547
		c-3.688,11.098-14.666,13.836-3.543,19.945c6.819,3.745,35.524,10.288,64.051,8.416c24.743-1.624,33.387-14.208,62.023-31.539
		c11.983-7.252-1.945-10.153,0.771-14.801c3.089-5.289,8.18,6.081,11.565-3.616c1.454-4.165,2.735-8.534,5.021-12.242
		c12.522-20.305,22.437-41.976,33.433-63.077c9.108-17.475-0.554-13.798,1.553-31.756c0.692-5.899,2.232-12.037,0.791-18.18
		c-1.368-5.832-6.407-10.711-4.524-17.43c0.119-0.425-1.156-1.147-1.614-1.842C1556.93,557.086,1548.057,557.093,1539.875,555.19z
		 M1476.136,871.815c10.091,0.812,23.067,2.911,55.763-17.813c7.069-4.481,8.409-17.864,22.551-25.468
		c3.839-2.064,6.294-5.063,8.85-8.6c5.291-7.321,9.366-13.483,2.84-22.769c-7.101-10.104-10.941-22.196-17.291-32.9
		c-5.502-9.273-13.311-16.78-18.678-26.185c-5.563-9.749-7.715-2.461-11.938-0.243c-28.88,15.175-29.148,23.391-39.344,24.637
		c-14.186,1.733-24.901,13.029-36.406,12.394c-21.339-1.177-25.561-3.402-23.322,6.544c1.087,4.828,1.223,10.907-5.073,13.864
		c-2.246,1.055-4.132,1.071-3.709-1.873c0.885-6.157-6.185-12.909,1.361-18.554c1.248-0.934-2.686-5.455-11.392-5.64
		c-3.95-0.084-2.601,4.009-2.161,6.029C1405.578,809.194,1383.567,864.367,1476.136,871.815z M987.918,155.779
		c-4.977-2.215-6.007-7.645-7.915-12.469c-1.69-4.274-4.704-3.781-6.012-0.742c-11.284,26.223-0.753,21.114,8.134,42.819
		c6.666,16.28,38.19,15.064,51.595,17.598c12.292,2.323,10.306-6.458,15.807-0.669c1.098,1.156,1.922,2.163,3.648,1.909
		c8.413-1.24,17.224-1.283,25.158-3.945c42.242-14.173,57.13-23.592,57.627-38.338c0.462-13.704-5.21-47.723-5.555-48.109
		c-17.623-19.746-17.457-20.379-22.197-20.354c-25.562,0.135-43.262,6.692-64.196,3.44c-14.335-2.227-29.213-2.755-43.898-3.403
		c-3.959-0.175-6.379,0.715-7.969,4.505c-7.694,18.342-12.878-6.802-4.845,28.536C989.555,136.475,993.115,146.375,987.918,155.779z
		 M1407.476,675.1c-17.965,23.579-28.891,74.934-38.841,70.183c-7.565-3.612,39.751-96.268,43.864-103.462
		c8.779-15.359,14.25-32.272,21.644-48.297c5.774-12.513,10.343-9.53-11.095-47.376c-18.166-32.069-16.632-39.46-33.237-63.131
		c-1.194,4.347,1.13,7.01,2.046,9.898c3.287,10.362-1.182,19.353-11.573,21.502c-5.313,1.099-10.317,3.862-16.167,2.828
		c-2.483-0.439-5.496,1.57-5.624,4.241c-0.288,6.028-3.555,10.876-5.506,16.213c-3.699,10.117,12.105-2.079,8.432,11.104
		c-2.05,7.355,0.51,14.385,1.051,21.379c0.882,11.412-0.363,22.446-1.973,33.546c-1.625,11.205-14.968,17.026-10.15,28.499
		c9.722,23.149,5.693,44.804,10.995,106.436c0.712,8.277,3.743,17.378-2.875,25.084c-3.68,4.286,14.128,3.833,15.38,2.844
		c2.567-2.026,4.898-4.394,8.134-5.033c-0.796-4.756-6.758,2.284-8.918-8.202c-1.5-7.285,9.909-3.844,8.216-10.106
		c-2.395-8.857,3.607-11.565,22.666-55.538C1405.566,683.966,1409.752,680.614,1407.476,675.1z M1061.169,435.644
		c-0.84-2.274-2.994-3.57-3.391-6.074c-2.136-13.467-6.232-26.348-11.382-38.973c-1.22-2.991-2.121-3.506-5.278-3.643
		c-16.024-0.698-29.368-6.163-37.777-21.177c-4.257-7.6-10.068-14.338-15.286-21.385c-5.443-7.352-7.174,1.974-9.272,24.326
		c-0.401,4.27,0.456,8.547,6.63,7.272c1.826-0.377,2.653,0.105,3.256,1.926c3.233,9.754,28.721,16.271,55.486,41.853
		c11.102,10.611-0.286,13.592,10.523,21.768c38.374,29.025,19.555,20.843,32.031-34.464c0.789-3.5,3.397-7.877,2.149-10.284
		c-2.712-5.23-0.24-6.923,3.188-9.651c2.663-2.12,6.693-5.552,3.753-9.025c-5.202-6.146,0.787-7.27,3.373-10.117
		c36.148-39.799,2.771,0.997,83.343-59.62c43.977-33.086,85.926-8.774,96.827-7.406c-5.036-7.43-13.113-9.598-18.876-15.008
		c-9.842-9.239-20.536-17.672-31.306-25.952c-8.662-6.66-18.924-11.096-26.274-19.635c-4.082-4.742-13.619-4.883-16.368-0.264
		c-7.167,12.039-18.327,19.259-29.584,26.609c-3.351,2.189-10.688,3.252-4.564,10.172c0.564,0.637-0.676,2.763-0.903,4.225
		c-0.835,5.374-4.538,10.213-4.857,15.222c-1.009,15.843-11.074,26.77-19.655,38.284c-4.683,6.284-6.584,5.452-11.759-0.478
		c-2.939-3.368-5.218-1.451-6.344,1.162c-3.198,7.421-11.384,12.114-10.898,21.792c0.149,2.972-2.821,6.74-5.411,9.757
		c-6.744,7.859-17.851,10.316-23.519,19.42c-0.34,0.546-2.006,0.215-3.04,0.387c-14.343,2.392-0.391,18.427,2.328,28.044
		C1071.925,427.481,1060.366,428.294,1061.169,435.644z M1335.931,617.451c8.111,1.986,11.774,2.41,15.139-36.551
		c0.571-6.611-0.484-13.295-5.871-16.12c-11.681-6.127-23.923-11.011-37.409-10.624c-14.691,0.421-29.53-0.76-43.971,3.262
		c-0.76,0.212-1.957,0.192-2.471-0.262c-3.256-2.876-7.053,3.101-10.156-0.706c-2.406,4.496-4.983,2.732-32.102-1.5
		c-5.074-0.792-10.59-2.446-13.21,4.233c-3.102,7.906-6.585,15.766-2.625,24.522c7.302,16.146,5.149,22.214,16.84,23.326
		c1.417,0.135,3.416-0.61,3.839,1.317c3.572,16.283,55.674,8.339,67.293,7.173C1300.777,614.563,1308.317,610.691,1335.931,617.451z
		 M1181.43,370.736c-26.809,9.102-26.424,16.024-37.919,41.628c-5.746,12.798-6.528,1.769-14.456,31.202
		c-5.633,20.912-18.098,44.816-6.104,52.707c24.323,16.004,26.689,18.181,29.183,9.996c32.812-107.689,30.067-96.279,53.495-106.363
		c3.368-1.45,3.29-3.776,1.251-6.066c-4.931-5.54-9.308-11.639-15.257-16.191C1188.291,375.1,1184.677,372.921,1181.43,370.736z
		 M1296.852,1010.764c2.239-2.297,3.252-3.826,3.507-5.839c2.244-17.699,7.178-34.866,9.337-52.686
		c2.102-17.354,2.404-34.733,4.119-52.045c0.758-7.655-2.054-15.132-1.328-22.674c6.463-67.173-17.849,6.855-41.884,35.827
		c-6.277,7.566-7.126,14.03-2.866,22.716c7.099,14.476,11.868,29.945,17.432,45.07
		C1288.748,990.867,1292.763,1000.44,1296.852,1010.764z M1375.312,450.39c-4.484-10.737-7.202-22.079-12.701-32.34
		c-1.432-2.673-3.347-7.06-2.205-8.791c4.343-6.586,0.005-11.464-2.33-16.492c-1.604-3.453-2.464-8.335-6.643-9.578
		c-14.137-4.204-102.135-40.791-105.844-36.332c-1.481,1.78,6.109,11.035,10.057,19.327c9.222,19.366,32.074,16.361,62.987,30.062
		c8.27,3.665,12.849,11.287,18.738,17.404c8.438,8.765,19.783,13.852,27.795,23.134
		C1368.894,441.103,1370.889,446.551,1375.312,450.39z M1575.927,1347.798c-0.447,2.754-1.54,6.321,2.815,6.215
		c3.755-0.091,8.546,1.971,10.516-4.22c4.452-13.99-16.395-25.254-14.445-39.277c1.932-13.894-17.513-7.962-9.423-15.718
		c4.307-4.129-20.691-40.239-28.35-54.405c-8.466-15.658-16.83-31.114-29.413-43.877c-1.71-1.735-0.836-2.638,0.19-4.255
		c2.775-4.371,1.315-7.679-3.498-9.12c-5.484-1.642-16.856-14.511-20.449-11.146c-1.511,1.415,0.228,2.129,0.821,3.083
		c11.65,18.737,23.221,37.525,34.975,56.197c6.758,10.736,6.637,26.646-1.309,34.107c-9.579,8.995,11.71,16.824,24.59,32.609
		c0.773,0.947,2.022,1.495,2.795,0.793c5.987-5.432,7.445,0.25,9.579,3.881c5.804,9.876,9.146,20.964,15.234,30.74
		C1573.258,1337.741,1576.769,1342.049,1575.927,1347.798z M1033.4,323.974c-12.284,2.747-24.463-5.325-27.694,4.824
		c-3.027,9.51-17.484-0.396-9.728,12.602c1.823,3.054,3.589,8.234,6.685,7.617c11.618-2.313,31.782,6.737,43.563-2.176
		c6.115-4.627,11.69-6.246,18.204-1.391c1.914,1.426,5.833,0.891,5.748,4.021c-0.084,3.097-4.147,2.275-6.004,3.94
		c-3,2.69-5.068-3.818-11.391-0.961c-4.614,2.085-8.865,4.72-13.201,8.639c11.184,2.853,12.199,2.574,12.135,4.71
		c-0.127,4.251-20.553,3.863-25.67,2.788c-3.7-0.777-6.911-3.453-7.573-7.827c-0.547-3.612-3.858-2.829-6.015-3.781
		c-1.239-0.547-3.134-1.692-4.064-0.123c-1.079,1.82-1.057,4.222,0.21,6.079c17.493,25.651,39.778,17.063,52.471,14.953
		c5.247-0.873,30.183-25.838,38.13-39.615c1.876-3.252,9.524-7.692-0.239-11.129c-0.264-0.093-0.335-0.753-0.481-1.154
		c-0.972-2.678-3.115-2.908-5.233-2.012c-9.804,4.15-20.426,4.034-30.655,5.863c-18.263,3.265-16.483-12.391-27.503-7.012
		c3.418,1.313,3.846,3.869,3.023,5.949c-3.594,9.082-12.33,23.754-19.426,18.426C1006.856,338.318,1028.548,332.468,1033.4,323.974z
		 M1547.075,696.053c-0.389,0.17-1.409,0.283-1.812,0.841c-4.895,6.794-12.383,11.749-14.435,20.604
		c-1.573,6.785,4.017-0.24,12.199,13.471c31.292,52.44,33.134,67.747,38.448,60.035c2.276-3.304,18.009-27.196,15.106-30.034
		c0,0-38.449-56.269-42.027-60.67C1552.62,697.921,1550.034,697.264,1547.075,696.053z M1103.263,610.126
		c1.701-8.009-8.093-3.957-49.205-24.054c-9.046-4.422-7.92,2.175-8.93,24.975c-0.133,3.004,0.259,4.502,13.059,14.857
		C1077.543,641.562,1100.217,624.466,1103.263,610.126z M1235.889,348.462c-4.563,1.65-9.317,2.911-13.646,5.036
		c-30.578,15.012-37.917,9.47-23.27,22.45c4.727,4.189,9.792,8.27,12.71,13.881c1.974,3.795,3.196,4.133,6.964,2.255
		c11.967-5.966,8.712-10.364,34.176-11.637c3.704-0.185,6.918-0.411-11.485-29.771
		C1240.039,348.605,1238.498,347.459,1235.889,348.462z M1438.875,488.924c-0.277-7.444-34.339-36.704-34.258-29.183
		c0.079,7.368-3.596,14.899,1.111,22.115c15.378,23.576,22.229,76.781,31.488,50.192
		C1441.416,519.989,1439.709,511.289,1438.875,488.924z M1152.474,627.908c-19.698,0.025-22.179,3.796-14.636,22.543
		c0.586,1.457,0.202,4.068,2.27,4.212c7.254,0.503,13.987,4.885,21.793,1.864c8.306-3.215,15.872-8.245,24.767-10.016
		c1.736-0.346,3.075-1.587,2.549-3.751c-1.772-7.284,4.775-18.429-6.334-17.576C1169.529,626.207,1180.764,627.871,1152.474,627.908
		z M1442.068,1102.758c1.646,5.178,6.48,8.165,6.673,13.411c0.623,16.97,8.023,31.281,17.067,45.101
		c2.856,4.365,6.744,3.874,10.046,2.715c2.979-1.045,1.966-5.13,1.246-7.395c-9.882-31.105-8.501-59.166-17.886-57.28
		C1453.65,1100.429,1448.086,1101.548,1442.068,1102.758z M1481.379,542.995c-11.121,0.373-13,4.177-33.978,49.909
		c-15.029,32.761-30.964,55.04-32.005,70.254c10.261-8.852,14.214-21.616,22.057-31.65c5.877-7.519,6.357-17.562,11.604-25.701
		c6.273-9.73,14.136-18.216,18.852-29.368C1472.551,565.459,1476.308,554.208,1481.379,542.995z M1557.825,674.699
		c-1.904,0.768-6.863,6.988-2.664,10.526c18.382,15.486,39.961,69.219,46.676,69.28c2.745,0.025,3.222-4.526,4.474-7.124
		c2.175-4.512,7.244-9.453-0.98-13.351c-0.518-0.246-0.531-1.534-0.801-2.33c-5.954-17.502-15.109-16.73-23.555-28.994
		C1557.125,668.074,1562.99,678.572,1557.825,674.699z M1025.343,907.047c10.381,1.424,20.298-5.45,37.518-9.5
		c21.02-4.944,40.327-14.462,59.615-23.863c6.783-3.306,6.76-4.612,1.695-10.021c-2.468-2.635-0.011-4.797-75.94,29.765
		C1040.647,896.881,1033.429,901.146,1025.343,907.047z M1252.612,388.142c8.762,0.04,17.112,1.911,24.976,4.99
		c9.673,3.788,20.67,4.53,27.712,14.587c5.82,8.311,32.656,21.454,43.835,35.6c14.63,18.514,11.859,8.585,29.239,24.999
		c2.227,2.103,4.576,4.225,9.065,3.326c-5.174-5.48-5.068-13.463-10.745-18.492c-1.783,2.755,0.858,5.11,0.02,7.9
		c-3.383-0.612-5.83-2.144-7.475-5.098c-23.517-42.224-88.641-69.503-103.411-67.956c-1.422,0.149-3.08,0.74-4.17-0.742
		C1258.354,382.763,1255.518,386.013,1252.612,388.142z M1421.328,679.514c-7.638,12.137-12.902,24.908-15.715,38.693
		c-0.627,3.074-0.223,5.342,3.841,5.197c7.979-0.283,4.179,8.956,16.689,8.356c39.622-1.899,41.048,16.669,49.862-8.202
		c-7.155-0.164-6.68,12.527-22.847,4.702c-2.43-1.176-4.737-2.993-7.206,0.212c-0.913,1.185-3.893,1.148-3.785,0.007
		c0.684-7.216-6.757-5.741-9.831-8.693c-2.144-2.059-7.559-6.121-13.02-2.586c-2.275,1.473-7.838-4.344-6.614-6.726
		c3.817-7.427,5.261-15.684,8.391-23.351C1421.975,684.968,1423.432,682.467,1421.328,679.514z M1565.703,658.817
		c-2.242,0.507-2.887,1.37-3.162,2.403c-0.426,1.601-1.269,3.49,0.778,4.545c6.51,3.355,5.185,15.193,18.331,27.028
		c10.769,9.695,14.995,24.702,27.043,33.34c1.415,1.014,2.557,4.721,4.833,1.703c10.177-13.496-3.845-7.036-19.197-32.951
		C1587.406,683.194,1584.734,685.836,1565.703,658.817z M976.56,195.671c1.28,7.302,0.376,15.555,4.054,20.102
		c6.045,7.474,15.19,12.277,25.541,13.056c5.16,0.388,4.025-14.684,3.595-19.69c-0.084-0.975-4.794-1.973-10.472-3.918
		C991.791,202.653,983.878,201.119,976.56,195.671z M522.554,1213.023c15.447-7.343,18.005-9.517,19.729-5.628
		c1.343,3.029-2.354,4.009-4.488,4.935c-7.787,3.38-14.577,7.751-18.047,15.979c-0.405,0.96-2.471,1.618-0.46,2.83
		c1.099,0.662,2.208,0.082,2.556-1.041c3.768-12.165,16.541-5.645,18.855-9.653c4.468-7.74,6.855-16.365,10.834-24.297
		C556.507,1186.232,532.177,1200.613,522.554,1213.023z M1370.97,468.908c-1.976,0.833-1.468,3.019-1.105,4.555
		c1.402,5.921,6.169,31.912,12.466,30.32C1392.277,501.268,1375.206,467.123,1370.97,468.908z M1715.488,1265.168
		c-22.666-9.113-29.973-8.984-39.205,0.211C1689.452,1266.414,1702.481,1267.079,1715.488,1265.168z M1205.919,410.942
		c-6.209,1.367-11.826,2.815-12.905,7.232c-1.078,4.417-7.633,18.438-5.676,20.114c1.927,1.651,5.99-1.426,7.13-3.726
		C1198.17,427.095,1201.755,419.569,1205.919,410.942z M642.522,1320.229c9.75-4.094,24.954-19.091,32.349-26.63
		c1.46-1.488,1.847-3.503,0.268-5.171C671.94,1285.049,661.282,1304.916,642.522,1320.229z M1523.1,547.568
		c-5.594-1.973-6.963-7.33-12.711-6.387c-5.815,0.954-11.808,1.993-17.751,0.234c-3.081-0.912-4.707,4.006-0.596,3.908
		C1501.822,545.089,1511.142,549.75,1523.1,547.568z M1117.113,526.178c-5.179,4.606-9.74,9.702-18.29,10.386
		C1110.604,541.627,1118.254,536.812,1117.113,526.178z M1285.721,352.153c6.79,0.16,5.591,4.28,16.931,6.37
		c8.127,1.498,11.928,7.683,17.347,5.445C1312.063,358.62,1297.746,353.438,1285.721,352.153z M1333.555,543.327
		c4.639,1.837,8.386-0.286,11.716,1.699c3.949,2.354,6.121-4.581,4.578-6.25C1346.046,534.663,1338.586,540.987,1333.555,543.327z
		 M559.957,1216.192c-3.117,6.108-6.144,12.247-7.08,20.644C559.679,1230.43,559.338,1223.148,559.957,1216.192z M648.809,1189.615
		c-3.738-1.636-2.655,7.894,3.203,10.408C654.752,1201.199,654.141,1191.948,648.809,1189.615z M647.7,1299.4
		c-5.154,2.594-9.723,5.882-12.867,10.863C641.427,1309.378,644.226,1303.988,647.7,1299.4z M1482.561,690.894
		c2.366,3.211,3.582,6.445,4.626,10.184c1.822-2.336,3.211-4.117,4.729-6.064C1489.211,693.175,1487.014,690.401,1482.561,690.894z
		 M535.845,1229.332c-6.431,4.989-9.282,6.041-5.483,9.275c2.154,1.834,2.95-0.286,3.774-1.541
		C535.379,1235.172,536.415,1233.121,535.845,1229.332z M1167.446,494.734c-1.4,6.17-4.214,10.487-3.273,15.605
		C1166.869,505.997,1168.489,501.425,1167.446,494.734z M468.429,1126.055c2.777-5.505,2.028-7.503-3.409-9.995
		C465.343,1119.49,465.791,1122.756,468.429,1126.055z"/>
	<path d="M938.011,1127.701c5.982,0.874,12.078,0.904,18.158,0.702c4.919-0.164,10.002,1.414,14.597-2.494
		c2.033-1.729,5.403,1.142,7.994,0.65c28.561-5.43,25.774-14.536,33.973-17.305c12.398-4.187,8.781,0.39,18.797,8.089
		c9.155,7.037,14.449,7.025,22.646-0.818c23.364-22.353,18.854-6.345,22.633-25.677c2.149-10.995,6.61-2.263,11.638-18.068
		c0.38-1.195-0.597-3.626,1.792-3.268c3.224,0.484,1.908,4.22,1.241,7.031c2.726,0.478,1.949-2.682,4.017-2.994
		c1.692,1.485-0.079,3.989,1.35,5.704c5.134-0.901,5.374-9.095,11.913-8.188c0.481,0.067-0.105-2.323-0.033-3.514
		c0.371-6.141-1.327-12.79,4.016-17.83c8.423-7.944-0.664,13.028,9.244,17.688c5.43,2.554,5.227,7.481,0.087,10.821
		c-5.637,3.664-7.393,7.237-6.221,15.049c1.153,7.692,3.828,8.23,9.39,7.855c18.845-1.268,10.559-20.107,21.154-37.987
		c1.28-2.16,3.099-3.865,5.534-3.431c2.917,0.52,2.244,3.357,2.018,5.307c-4.643,40.211-20.299,48.973-20.889,50.667
		c-3.285,9.446-11.233,5.674-16.293,4.152c-13.917-4.186-19.409,8.55-23.663,12.457c12.756,6.229,36.019,4.625,47.478-3.212
		c4.592-3.141,11.135-1.38,13.144,3.684c2.953,7.445-8.474,8.036-26.41,13.615c-2.168,0.674-6.236-0.957-4.998,4.576
		c0.438,1.96-3.681,2.75-6.336,2.776c-43.764,0.428-34.797,0.55-51.012,1.369c-11.16,0.564-27.015,33.649-37.952,47.104
		c-3.479,4.281,1.264,4.978,7.974,36.741c1.993,9.437-9.125,22.212-0.899,28.494c2.171,1.658,2.974,5.604-1.54,5.932
		c-8.835,0.643-4.1,10.324-12.902,63.047c-1.387,8.307-0.375,17.009-0.545,25.529c-0.098,4.942,11.668,9.604,2.415,15.692
		c-3.186,2.096-3.731,11.036-0.987,13.965c9.121,9.736,4.554,38.44,17.322,33.688c6.987-2.6,4.325,20.573,14.943,36.476
		c18.927,28.348,18.282,31.303,25.331,32.381c10.468,1.601,3.918,9.965,4.243,10.965c3.745,11.517-6.461,19.521-4.756,36.019
		c0.585,5.667-1.573,11.641-4.678,15.894c-6.236,8.541-6.659,19.969-14.588,27.491c-1.62,1.536,0.611,11.631-8.139,12.586
		c-2.425,0.265-5.875,2.373-6.665,4.471c-3.688,9.79-13.877,10.567-20.904,15.46c-6.461,4.499-14.709-2.121-13.984-10.485
		c0.22-2.534,0.437-4.514-1.853-6.165c-16.281-11.742-26.778-28.258-39.726-46.313c-2.981-0.853-3.018,7.652-8.183,6.675
		c-3.474-0.657-3.946-3.792-5.248-6.545c-3.795-8.027-8.622-15.54-11.806-23.905c-0.586-1.54-2.665-2.719-4.299-3.62
		c-29.915-16.51-29.699-37.122-41.41-36.486c-5.499,0.299-10.926-0.5-15.347-4.662c-1.459-1.374-3.866-2.686-5.721-2.538
		c-12.706,1.019-28.205-11.388-45.135-11.233c-3.034,0.028-6.431-0.387-8.716-3.21c-5.469-6.759-13.747-9.13-20.929-13.183
		c-12.039-6.794-18.49,15.794-26.232-1.15c-1.245-2.724-3.253-3.75-5.677-4.648c-57.282-21.227,86.75-224.189,216.961-289.194
		c3.706-1.85,18.581-3.306,18.564-10.002c-0.011-4.643-10.008-3.807-20.071-10.812c-3.497-2.434-9.798,1.038-9.914-0.195
		c-0.579-6.166-5.082-3.887-7.854-4.363C956.589,1133.382,946.777,1133.336,938.011,1127.701z M1024.299,1516.068
		c-15.704-0.04-15.883,0.132-16.833,14.254c-0.343,5.103-3.021,11.49,5.26,13.222c7.454,1.559,14.963,2.996,21.57,7.191
		c3.364,2.136,4.523,0.553,4.465-2.899c-0.099-5.895,1.092-11.716,1.575-17.557c0.998-12.067,1.673-12.037-10.395-13.769
		C1027.632,1516.178,1025.281,1516.141,1024.299,1516.068z M999.986,1496.67c4.083-4.51,2.408-13.483,6.164-20.141
		c6.286-11.144,1.78-14.764-23.104-27.022c-5.43-2.675-7.482-2.989-11.148,3.236c-6.302,10.703,2.526,20.868,11.932,22.811
		C993.09,1477.466,994.638,1489.553,999.986,1496.67z M1034.025,1506.896c2.661-1.662,7.859,3.109,10.493-0.319
		c2.421-3.151-0.157-8.186-0.364-12.401c-0.168-3.436-0.422-8.623-3.211-10.635c-15.989-11.538-17.532-11.053-18.988-9.608
		c-8.518,8.456-11.436,18.897-10.979,30.595C1011.177,1509.692,1013.19,1508.318,1034.025,1506.896z M983.149,1217.945
		c-3.648-6.416-6.961-13.007-13.321-17.368c-1.547-1.061-0.467-6.208-3.875-3.837c-9.08,6.318-10.781-2.245-4.183,28.224
		c1.539,7.108,5.648,13.944,1.923,21.57c-0.526,1.078-0.09,3.064,1.557,2.723c2.853-0.591,3.905-3.606,5.899-5.387
		c3.427-3.061-7.679-7.238,2.438-9.053C977.766,1234.067,987.857,1226.225,983.149,1217.945z M909.903,1254.641
		c2.116,10.915,3.496,22.037,5.435,33.036c1.005,5.7,8.644,5.097,12.843,8.181c1.836,1.348,4.179-3.322,6.323-5.189
		c2.693-2.345,0.207-5.316-0.158-7.793c-4.429-30.071-7.955-25.771-21.369-32.275
		C909.603,1248.965,910.726,1252.977,909.903,1254.641z M949.843,1237.881c0.341-8.755-1.308-16.153-3.727-23.449
		c-0.585-1.763-1.062-2.664-3.035-1.686c-14.255,7.067-8.792,21.751-8.686,29.917c0.162,12.428-1.044,10.03,16.964,22.404
		c1.023,0.703,1.878,0.178,2.87-0.414C963.8,1258.938,946.569,1248.032,949.843,1237.881z M993.902,1576.706
		c-1.196-5.971-3.345-11.708-6.281-16.156c-10.416-15.782-13.868-33.866-19.141-51.379c-5.284-17.55-4.186-24.132-9.332-18.219
		c-2.985,3.43-2.259,7.623-2.125,10.961c0.286,7.141-1.832,15.719,7.429,19.951c1.867,0.853,3.087,3.398,1.496,6.103
		c-2.036,3.462-1.171,6.957,0.716,10.204C972.884,1548.878,984.089,1570.612,993.902,1576.706z M937.883,1370.896
		c-3.768-0.294-7.869,0.432-10.732,3.52c-2.123,2.29,2.683,19.558,5.551,21.156c5.962,3.322,12.699,3.768,19.231,4.943
		c2.233,0.402,3.344-0.558,2.762-2.812C952.242,1388.21,958.141,1370.737,937.883,1370.896z M964.24,1392.753
		c-1.753,11.842,7.888,18.98,15.898,18.061c5.276-0.605,4.23-6.828,9.535-16.905c2.674-5.08,0.614-7.054-21.611-15.035
		C958.373,1375.396,962.968,1387.719,964.24,1392.753z M1010.146,1182.42c0.061-1.582-8.08-6.398-10.39-5.674
		c-8.8,2.759-15.986,8.433-23.862,12.887c-5.86,3.314-3.418,5.578,0.427,6.971c5.262,1.906,6.99,6.039,8.063,10.567
		c0.237,1,4.795,12.963,7.374,6.443c2.515-6.357,7.209-11.193,11.032-16.659C1005.779,1192.685,1007.592,1187.591,1010.146,1182.42z
		 M983.66,1337.337c-1.648-5.242,0.758-14.589-12.61-15.03c-21.216-0.699-24.812-11.276-21.033,7.864
		c1.568,7.943,3.609,9.818,11.26,10.332C984.521,1342.067,985.617,1343.563,983.66,1337.337z M1021.305,1220.054
		c-0.818-1.521-2.299-4.148-4.011-1.057c-3.734,6.741-9.472,11.885-13.761,18.146c-5.376,7.847-5.308,7.893,2.427,13.544
		c0.345,0.252,0.818,0.44,1.003,0.782c2.942,5.433,9.032,3.88,13.46,6.018c2.573,1.242,2.759-1.179,2.783-2.808
		C1023.346,1245.388,1023.893,1224.864,1021.305,1220.054z M960.028,1350.68c-2.401-0.012-5.27-0.399-4.483,1.845
		c4.465,12.737,2.454,14.894,33.438,24.459c2.015,0.622,3.767,0.104,3.187-2.258c-5.874-23.926-5.574-20.485-10.201-22.001
		C974.519,1350.285,966.625,1353.389,960.028,1350.68z M998.562,1261.708c1.305,8.126,2.496,16.222,5.152,24.028
		c1.468,4.315,8.27,10.219,12.451,9.349c4.952-1.032,2.435-5.807,3.239-8.916c3.353-12.968,5.118-16.462-8.105-23.837
		c-2.732-1.523-6.061-1.948-8.877-3.354C998.934,1257.237,998.316,1258.714,998.562,1261.708z M932.944,1445.562
		c0.324-11.656-1.062-13.3-11.696-17.305c-4.067-1.532-8.313-1.599-12.327-2.917c-1.694-0.557-3.429-1.146-4.597,0.645
		c-2.902,4.448,4.761,8.231,4.487,16.417c-0.261,7.814,7.539,8.015,16.092,9.664
		C932.722,1453.573,932.722,1453.573,932.944,1445.562z M893.16,1308.49c8.125,6.892,18.645,14.957,18.003,4.625
		c-1.312-21.115-4.282-18.911-16.794-31.23c-1.762-1.735-3.351-4.764-6.071-3.553c-2.578,1.147,0.248,3.766-0.093,5.755
		C888.033,1285.088,886.354,1302.717,893.16,1308.49z M876.754,1420.517c-0.203,14.561,9.495,25.87,22.981,27.295
		c4.152,0.439,6.507,1.156-1.397-24.111c-1.078-3.445-4.588-2.43-16.892-6.283C878.252,1416.417,875.807,1416.558,876.754,1420.517z
		 M928.001,1414.253c-1.048-4.767,1.189-12.122-5.946-13.401c-7.778-1.395-14.22-4.344-19.914-9.532
		c-0.915-0.834-2.131-1.661-3.464-0.975c-3.28,1.689,1.497,7.685,2.947,18.611c0.711,5.357,2.085,8.606,8.476,8.382
		c4.306-0.15,8.645,1.605,13.016,2.029C926.222,1419.667,930.918,1420.672,928.001,1414.253z M996.839,1532.983
		c0.906-5.97,3.181-12.128-4.56-14.987c-1.751-0.647-3.246-2.292-2.665-4.561c1.332-5.202-0.575-10.136-1.059-15.189
		c-0.692-7.221-2.057-13.284-11.102-14.972c-6.492-1.211-3.494,1.237-1.111,20.558
		C977.995,1517.222,988.73,1524.119,996.839,1532.983z M958.524,1426.337c0.104-1.035,0.56-2.095,0.216-2.697
		c-2.49-4.341,1.383-10.406-3.806-13.958c-5.623-3.849-12.262-4.545-18.668-5.934c-7.886-1.709-0.337,20.737,5.075,23.358
		c3.38,1.637,7.124,2.485,10.653,3.909C955.968,1432.619,960.013,1432.664,958.524,1426.337z M891.921,1390.516
		c-0.243-4.542-7.476-9.236-10.59-7.041c-3.754,2.646-7.256,5.798-10.327,9.216c-2.391,2.661,0.553,13.972,3.823,14.948
		C906.013,1416.943,893.217,1414.707,891.921,1390.516z M836.688,1358.966c-0.308-2.082-9.306-7.576-11.258-7.303
		c-2.003,0.28-7.351,13.245,0.466,32.514c1.581,3.896,6.51,4.363,10.012,6.11c1.669,0.833,3.02-1.268,3.351-2.992
		C840.022,1383.327,839.554,1378.319,836.688,1358.966z M1005.262,1443.932c-0.566-7.792,1.021-12.749-5.105-15.102
		c-13.189-5.065-14.679-5.917-15.275-4.449c-9.257,22.801-6.775,15.205,2.593,20.615c2.58,1.49,5.208,2.912,7.891,4.207
		c2.981,1.438,6.101,5.189,8.979,3.566C1007.494,1450.991,1004.517,1446.505,1005.262,1443.932z M924.354,1387.92
		c-0.862-6.063-0.167-13.891-7.607-18.211c-3.225-1.872-7.253-2.481-10.245-4.608c-5.92-4.21-7.782,1.562-9.909,4.198
		c-2.451,3.037-2.609,8.039,1.323,10.152C921.009,1391.859,925.135,1396.11,924.354,1387.92z M849.052,1414.77
		c3.306,15.949,4.648,18.899,12.43,21.166c9.045,2.635,8.482,5.103,11.788,3.233c1.621-0.917,1.468-0.298-4.026-20.588
		C866.4,1408.081,852.738,1404.686,849.052,1414.77z M884.41,1340.372c0-15.088-0.269-30.923-14.435-35.515
		c-8.462-2.743-5.326,1.636-4.679,21.164c0.057,1.722,0.668,2.842,1.871,3.764C872.451,1333.835,877.483,1338.32,884.41,1340.372z
		 M1011.632,1552.326c-1.89,7.698,3.805,12.91,6.183,19.174c0.317,0.833,1.491,1.785,2.364,1.892
		c21.464,2.63,21.678,2.649,22.34,0.199c1.319-4.882-2.605-12.842-7.384-14.773
		C1027.687,1555.808,1020.216,1552.903,1011.632,1552.326z M961.316,1451.893c-0.396-14.562-2.063-13.007-16.953-17.268
		c-1.792-0.513-3.866-2.047-5.329-0.225c-1.251,1.558,0.84,3.012,1.409,4.533c2.452,6.55,7.374,12.3,4.21,20.42
		c-1.558,3.999,3.806,4.878,6.367,6.751c1.514,1.108,4.048,1.983,4.998-0.371C957.928,1460.997,963.11,1457.407,961.316,1451.893z
		 M1013.065,1447.221c-1.758,8.392,2.728,12.957,9.565,16.145c8.629,4.023,23.404,16.633,16.486-4.427
		c-2.221-6.761-6.593-0.352-9.942-6.765c-1.849-3.541-4.893-5.836-7.699-8.41c-2.264-2.076-4.001-6.608-7.152-5.273
		C1011.279,1439.78,1013.651,1444.31,1013.065,1447.221z M800.805,1392.495c1.288,14.028,1.049,22.571,5.78,20.928
		c23.664-8.217,12.128-23.15,4.607-26.387c-3.287-1.415-5.747-6.508-8.92-5.145C797.805,1383.81,802.142,1388.875,800.805,1392.495z
		 M922.953,1349.001c2.084,3.059,1.185,7.119,2.599,10.614c0.908,2.244,20.135,3.668,21.616,1.734
		c10.221-13.349-10.83-16.309-15.45-18.751C920.091,1336.453,924.38,1345.283,922.953,1349.001z M1049.202,1531.109
		c-0.249,3.967-0.227,6.707-1.802,9.064c-2.513,3.76-0.324,7.884-0.481,11.802c-0.071,1.763,3.667,2.153,5.708,3.129
		c4.204,2.011,4.803,6.624,0.303,9.642c-6.185,4.149-1.466,7.623-0.182,11.188c2.543,7.063,10.452-10.878,12.593-15.401
		c2.091-4.417-2.077-7.04-4.122-9.952C1057.114,1544.734,1055.615,1537.323,1049.202,1531.109z M1071.129,1529.633
		c-9.21-13.008,3.87-19.055-14.377-34.122c-2.365-1.953-4.4-1.433-3.985,1.714c1.483,11.246-0.19,23.411,8.981,32.595
		c1.567,1.569,3.939,2.506,4.231,5.289c0.149,1.418,0.967,3.171,2.752,3.046C1070.419,1538.035,1070.388,1537.132,1071.129,1529.633
		z M978.292,1288.735c2.241,6.932,4.359,13.091,6.196,19.333c0.967,3.285-1.826,7.837,2.13,9.934
		c6.99,3.706,14.399,8.722,13.724,1.6c-0.713-7.527-5.221-14.26-4.407-22.091c0.173-1.668-1.331-2.699-2.654-3.318
		C988.736,1292.069,984.383,1289.37,978.292,1288.735z M1018.11,1140.273c3.838,0.874,6.373-2.87,9.631-5.052
		c1.556-1.042,3.509-1.896,2.962-4.374c-0.503-2.278-2.648-1.882-4.14-2.303c-4.753-1.342-8.978-12.523-16.766-4.522
		c-5.707,5.862-14.763,6.788-14.396,9.494C995.956,1137.612,1013.815,1139.967,1018.11,1140.273z M855.141,1463.644
		c-4.424-17.436-4.507-26.963-17.058-29.803c-2.037-0.461-2.878-2.462-2.082-4.656c0.916-2.525,2.535-1.261,4.157-0.848
		c8.944,2.274,3.033-7.846,1.14-7.06c-3.164,1.314-7.215,3.15-7.289,6.508c-0.261,11.834,3.098,22.741,11.968,31.092
		C848.237,1461.004,850.548,1464.082,855.141,1463.644z M843.83,1347.493c-1.123,5.399,0.264,4.198,11.294,11.882
		c6.926,4.824,5.091-2.727,3.451-22.21c-0.194-2.302-1.281-3.652-3.62-4.666C843.112,1327.366,847.724,1328.779,843.83,1347.493z
		 M922.622,1461.398c-4.392-1.554-4.783-4.04-7.302-2.74c-3.855,1.988,4.595,19.65,7.92,25.152c1.798,2.974,5.558,3.906,8.31,3.761
		c2.237-0.117,1.395-3.963,1.591-6.228C934.596,1464.615,932.833,1465.008,922.622,1461.398z M870.043,1267.844
		c-2.842-0.121-3.738,0.791-4.591,1.754c-17.162,19.354-58.102,63.671-52.201,66.781c5.651,2.977,11.9-16.975,45.184-52.935
		C862.592,1278.951,867.273,1274.421,870.043,1267.844z M1006.262,1339.545c-0.871-5.323-6.46-8.057-11.972-10.643
		c-2.212-1.038-5.037-2.782-7.229-1.214c-2.195,1.571,0.651,3.716,0.793,5.682c0.172,2.399-4.186,9.026,6.411,14.414
		C1004.322,1352.898,1005.198,1352.454,1006.262,1339.545z M883.961,1467.783c-4.866-18.166-9.694-23.074-23.924-24.19
		c0.375,10.687,5.944,5.453,7.146,13.06C869.023,1468.292,871.746,1469.998,883.961,1467.783z M964.82,1290.121
		c-3.253,3.332-5.158,7.088-8.58,9.843c-1.518,1.222-5.589,4.48-1.51,8.347c5.047,4.785,11.183,2.074,16.744,3.137
		c2.001,0.382,3.585-11.572-2.968-16.041C966.454,1294.007,966.23,1292.047,964.82,1290.121z M993.585,1282.389
		c0.735-7.192-2.333-13.752-3.121-20.688c-0.233-2.049-1.718-2.698-3.056-1.193c-16.476,18.526-11.033,18.653,3.971,23.974
		C993.462,1285.22,994.148,1284.339,993.585,1282.389z M942.667,1484.603c-1.635,4.419,0.376,8.469,1.158,12.564
		c0.727,3.806,1.791,24.502,6.165,24.312c3.07-0.134,2.922-5.375,2.201-6.889c-4.498-9.457-1.943-19.941-4.358-29.731
		c-0.778-3.153,0.637-8.35-3.546-8.175C940.523,1476.841,942.977,1481.844,942.667,1484.603z M1007.852,1301.895
		c-1.784,12.085,7.797,20.777,7.183,32.064c0.547-6.562,2.781-12.581,2.792-19.01
		C1017.843,1304.801,1018.378,1304.802,1007.852,1301.895z M966.685,1431.626c0.101-1.144,0.096-0.5-0.02,0.123
		c-0.438,2.358-0.042,4.402,2.602,4.982c3.095,0.679,3.431-1.775,3.753-3.88c1.878-12.272,14.257-11.699-6.272-19.313
		C965.423,1413.047,965.896,1415.161,966.685,1431.626z M1002.527,1416.213c-2.563-13.848-2.64-17.959-6.055-18.477
		c-2.646-0.402-3.665,2.212-7.125,14.495c-1.037,3.681,2.485,3.516,4.226,4.057
		C995.683,1416.943,1001.88,1421.526,1002.527,1416.213z M865.48,1356.373c-0.577,4.292,1.889,7.157,5.945,3.153
		c2.219-2.191,3.929-4.891,6.104-7.134c2.194-2.262,1.98-3.833-0.638-5.463c-1.765-1.099-11.737-10.67-11.495,0.45
		C865.463,1350.473,867.35,1353.551,865.48,1356.373z M904.756,1279.11c-0.73-5.028-1.003-9.125-3.144-13.062
		c-1.626-2.991-0.251-8.461-4.11-9.256c-3.479-0.716-4.542,5.011-7.843,6.566c-1.157,0.545-1.973,3.172-0.513,3.751
		C895.236,1269.528,898.531,1275.739,904.756,1279.11z M910.899,1478.426c0.546-2.022,1.351,0.759-3.316-14.559
		c-2.465-8.091-9.493-11.3-18.542-7.563C903.101,1454.47,901.368,1477.474,910.899,1478.426z M832.969,1452.526
		c-6.166-25.009-2.488-23.514-17.418-12.432C813.578,1441.559,815.589,1442.124,832.969,1452.526z M1005.394,1567.353
		c-4.276-16.931-8.109-22.868-19.834-29.836C996.276,1552.42,996.042,1568.813,1005.394,1567.353z M845.725,1383.123
		c10.795-9.505,16.558-12.601,10.181-16.277c-3.168-1.826-6.401-4.005-10.396-2.609c-0.252,0.088-0.333,1.18-0.211,1.743
		C846.458,1371.339,845.664,1376.777,845.725,1383.123z M1022.049,1429.072c-2.64-6.515-4.031-12.186-8.684-16.215
		c-5.386-4.664,4.731-9.623-7.844-11.181C1013.169,1415.468,1002.799,1421.358,1022.049,1429.072z M1015.639,1379.433
		c0.234-3.482-4.058-3.88-4.357-6.977c-0.234-2.422-2.129-4.463-4.832-3.992c-2.83,0.492-1.249,3.043-1.511,4.748
		c-0.974,6.329-3.985,9.52,0.135,11.432C1013.429,1388.522,1011.378,1389.126,1015.639,1379.433z M774.925,1394.285
		c9.521-0.61,16.95-14.818,14.075-27.307C784.101,1376.484,779.706,1385.01,774.925,1394.285z M1034.758,1600.899
		c4.253-5.6,12.095-7.621,10.136-13.845c-1.583-5.028-8.453-4.241-15.67-3.101
		C1036.032,1588.187,1034.511,1593.725,1034.758,1600.899z M944.837,1333.113c-0.639-1.678-1.048-3.384-1.894-4.835
		c-1.179-2.021,1.135-17.65-11.766,2.733c-0.474,0.749-0.653,1.877,0.297,2.146c3.861,1.092,7.746,2.192,11.696,2.819
		C944.606,1336.204,944.763,1334.309,944.837,1333.113z M790.697,1365.054c11.064-0.38,12.238-9.476,16.159-15.835
		c1.936-3.14-2.189-5.744-4.185-2.67C798.772,1352.555,794.889,1358.572,790.697,1365.054z M788.911,1410.989
		c-5.569-0.671-6.426,12.45,1.679,13.47C797.122,1425.282,798.747,1412.175,788.911,1410.989z M878.47,1297.728
		c-0.495-11.555-2.527-18.763-4.049-17.594c-3.34,2.565-9.069,8.764-5.751,11.296C871.62,1293.679,873.891,1296.961,878.47,1297.728
		z M981.792,1248.812c-0.737-0.173-1.96-0.188-2.324,0.256c-4.308,5.251-10.324,9.267-12.089,16.364
		c-0.475,1.91,1.222,3.891,2.656,2.331C972.901,1264.645,986.7,1249.964,981.792,1248.812z M926.408,1246.456
		c1.049-4.664-0.235-8.444-2.561-12.18c-2.132-3.425-3.932-1.342-5.487,0.142c-1.836,1.751-5.219,4.009-1.878,6.58
		C919.34,1243.198,922.44,1245.657,926.408,1246.456z M892.112,1335.059c4.581-0.841,5.795-3.873,7.877-5.899
		c1.498-1.458,2.562-2.464,0.52-4.625c-2.095-2.217-4.047-4.93-7.141-4.676C891.172,1320.039,892.112,1319.658,892.112,1335.059z
		 M1060.405,1482.794c-3.175-7.832-7.423-13.337-12.311-19.216C1047.757,1476.333,1047.757,1476.333,1060.405,1482.794z
		 M958.103,1282.542c-0.522-0.647-0.786-1.267-1.239-1.477c-1.192-0.552-2.399-0.836-3.433,0.484
		c-7.312,9.335-11.92,11.72-8.358,14.753C948.116,1298.893,947.602,1296.996,958.103,1282.542z M922.22,1325.427
		c7.698-10.485,14.376-12.761,12.394-15.406c-3.493-4.658-12.282,8.534-14.213,12.151
		C919.606,1323.66,919.965,1325.057,922.22,1325.427z M1015.739,1336.927c-5.354,4.775-7.04,25.681-0.976,22.409
		C1016.177,1358.573,1015.739,1359.063,1015.739,1336.927z M774.393,1397.644c-1.26,4.402-5.898,6.399-5.253,11.145
		c0.192,1.411-2.953,3.342,0.878,4.14c2.558,0.533,4.043,0.505,5.328-2.537C777.182,1406.049,776.876,1402.236,774.393,1397.644z
		 M834.562,1340.871c-1.389-1.641,1.396-6.588-2.558-6.417c-3.247,0.141-6.259,4.054-6.361,7.713
		c-0.088,3.186,3.709,2.462,5.917,3.019C834.826,1346.01,834.89,1343.776,834.562,1340.871z M913.117,1335.573
		c-0.539-0.702-0.816-1.323-1.294-1.633c-1.249-0.81-2.498-0.494-3.44,0.536c-9.559,10.459-11.163,12.13-8.67,13.654
		c1.799,1.1,2.239-1.279,3.237-2.161c2.38-2.101,4.795-4.171,7.055-6.397C911.187,1338.41,912.068,1336.945,913.117,1335.573z
		 M993.285,1357.08c1.77,8.071,3.38,20.34,6.709,12.789C1002.991,1363.071,999.237,1359.858,993.285,1357.08z M939.374,1268.508
		c-0.772,3.903,1.611,7.086,0.504,10.493c-0.182,0.559,0.428,1.676,0.997,2.115c1.118,0.862,1.875-0.263,2.616-0.917
		C947.809,1276.387,946.794,1273.175,939.374,1268.508z M916.609,1348.178c-1.801,2.403-6.226,3.171-4.8,7.124
		c0.771,2.136,3.953,2.795,5.347,1.733C920.441,1354.532,917.041,1351.395,916.609,1348.178z M851.81,1319.559
		c2.069,0.105,2.854-0.916,2.398-2.302c-0.742-2.256,0.159-5.668-2.778-6.451c-2.101-0.559-4.26,1.485-4.453,3.559
		C846.668,1317.685,850.622,1317.603,851.81,1319.559z M891.562,1244.042c-4.499,4.142-10.031,7.382-13.286,15.094
		C884.555,1254.053,889.355,1250.217,891.562,1244.042z M860.194,1386.991c-4.756,1.693-7.53,5.502-10.625,8.975
		C854.624,1394.711,857.655,1391.096,860.194,1386.991z M885.529,1363.532c-0.407-1.286-1.459-2.573-2.173-1.905
		c-2.341,2.191-4.466,4.672-6.295,7.306c-0.419,0.604,1.3,1.852,2.275,1.278C882.072,1368.602,884.294,1366.402,885.529,1363.532z"
		/>
	<path d="M1288.828,1542.869c-0.257-3.204,3.59-2.896,3.39-6.06c-8.236-1.673-37.76,14.361-74.35-7.5
		c-9.137-5.459-4.323,2.502-31.015-5.523c-13.696-4.118-24.467,4.165-49.368,5.219c-2.453,0.104-3.7-1.195-1.199-3.022
		c11.94-8.726,17.921-7.821,24.521-15.196c5.273-5.892,13.483-8.994,20.933-12.322c5.788-2.586,6.078,6.562,10.619,6.954
		c11.13,0.961,42.117,8.301,46.719,4.811c0.213-2.327-2.429-2.202-3.04-3.793c1.106-2.452,9.966-7.829,21.467-3.559
		c13.214,4.906,27.376,3.625,41.098,5.286c8.89,1.076,65.085,9.448,55.575-10.162c-3.051-6.291,13.775-12.234,21.966-7.841
		c22.535,12.087,42.961,31.965,94.858,43.185c29.729,6.427,73.446,12.337,99.726,8.697c5.962-0.825,6.017-0.896,3.65-6.525
		c-0.641-1.523,0.596-2.36,1.179-2.446c7.606-1.124,23.709-10.314,25.588-8.018c6.686,8.171,15.438,4.024,23.298,3.627
		c10.761-0.544,21.082-3.504,31.702-8.116c-6.891-4.84-14.109-3.317-20.59-3.857c-8.464-0.705-16.645-3.089-24.974-3.53
		c-10.341-0.547-19.737-3.674-29.196-7.2c-12.856-4.792-23.635,0.291-18.51-9.424c2.788-5.285,9.453-6.081,12.839-10.786
		c0.269-0.373,2.092-0.034,2.906,0.454c8.371,5.014,18.119,4.572,27.175,6.804c9.069,2.236,18.326,1.171,27.261-1.419
		c18.293-5.303,51.62-9.746,36.95-15.584c4.635-5.127,9.677-2.48,13.829-0.929c28.515,10.649,84.474,16.587,85.708,16.939
		c-16.402,7.5-31.376,17.533-49.947,23.083c26.701,20.01,68.946,26.409,75.081,25.844c5.716-0.526,16.154,12.27,6.504,12.402
		c-12.099,0.164-6.422-2.214-23.486-2.347c-37.878-0.295-75.679-1.709-113.455-4.929c-14.854-1.266-29.997-4.574-44.571-2.981
		c-125.068,13.676-86.109,14.268-210.733,5.053c-66.703-4.931-67.481-8.48-91.317-6.441c-6.497,0.556-13.538,2.387-19.819-0.346
		C1294.007,1539.72,1292.209,1544.344,1288.828,1542.869z M1219.325,1517.903c2.228,5.487,30.021,26.53,63.26,13.794
		c12.779-4.896,158.952,15.235,182.622,10.801c-20.771-7.295-62.229-17.983-88.404-35.028c-10.317-6.719-6.639,2.855-23.253,7.957
		c-38.33,11.77-79.818-6.584-105.536-0.482C1238.74,1517.145,1229.144,1517.026,1219.325,1517.903z M1645.913,1536.246
		c25.044,2.553,48.276,3.391,72.599,2.625c-4.441-4.7-9.615-5.747-13.964-8.201c-6.373-3.597-7.265-8.963-2.091-13.751
		c6.821-6.311,13.166-13.325,22.788-15.608c1.36-0.323,2.939-0.863,3.445-2.87c-1.633-0.787-3.271-2.143-5.032-2.331
		c-20.584-2.197-28.466-13.767-40.19-9.444c-15.02,5.539-16.896,3.689-56.217,15.168c5.571,2.618,25.591,7.381,31.186,7.283
		c5.444-0.095,11.176,4.756,16.552-0.382c0.24-0.229,2.975,1.199,2.96,1.816c-0.137,5.546,3.583,12.875-20.597,19.506
		C1653.682,1531.064,1650.401,1532.757,1645.913,1536.246z M1204.92,1519.79c-2.445-6.798-17.219-9.038-23.865-3.763
		C1188.612,1519.12,1196.379,1519.379,1204.92,1519.79z"/>
	<path d="M865.701,435.933c-3.5,3.731-6.915,6.447-8.071,11.049c-4.22,16.793-23.987,13.532-39.468,16.943
		c-12.52,2.759-22.172-3.424-26.4-15.591c-3.72-10.706-10.726-11.917-13.337-33.596c-5.015-41.644,32.922-37.672,18.965-25.217
		c-9.679,8.637-11.597,20.523-4.444,31.092c0.615-5.868,1.807-10.979,1.886-16.48c0.121-8.467,5.693-14.383,13.042-17.389
		c9.21-3.766,5.031-6.735,0.547-25.355c-3.687-15.31-24.025-12.87-15.211-25.704c0.201-0.292-0.249-1.192-0.59-1.67
		c-3.609-5.047-4.184-12.681-7.641-16.223c-9.337-9.564-13.541-34.377-24.901-39.448c-2.063-0.921-1.65-3.186,0.059-10.862
		c4.698-21.117,22.697-14.345,31.571-3.167c9.011,11.351,31.662,2.841,29.328,15.258c-1.062,5.654,10.255,9.683,6.901,12.471
		c-4.39,3.649,0.316,5.582,0.701,8.353c1.326,9.534,9.847,14.793,12.831,23.225c29.952,84.632,28.386,88.19,41.541,116.457
		c8.095,17.394-13.644,19.484-18.874,21.862c-5.086,2.312-11.283-7.289-3.242-11.552
		C869.341,445.911,869.35,445.927,865.701,435.933z M845.862,404.794c-6.004-19.661-32.114-18.16-37.741-6.58
		c-3.123,6.427-16.267,10.481-3.677,34.261c12.531,23.669,42.877,26.156,45.413,6.989
		C853.788,409.745,849.422,416.453,845.862,404.794z M803.252,289.671c3.587-7.181-22.248-21.35-28.621-26.783
		c-1.489-1.269-2.814-0.271-3.693,1.12c-6.599,10.439-9.307,9.537,2.607,15.444C788.064,286.651,800.677,294.827,803.252,289.671z
		 M781.908,292.06c7.247,15.179,3.191,22.33,7.029,21.237c16.188-4.61,29.764,4.532,32.61-3.956c0.832-2.482-1.1-3.241-2.317-4.647
		c-1.99-2.299-4.434-2.184-7.028-2.023c-2.406,0.149-29.789,3.341-26.044-4.235C788.88,292.934,785.048,293.015,781.908,292.06z
		 M840.027,372.611c-3.237,0.254-9.23-1.815-9.225,1.897c0.02,18.437,4.363,4.657,18.605,21.101
		c1.811,2.091,5.704,1.891,4.587-2.579C849.953,376.859,849.513,369.428,840.027,372.611z M808.643,329.838
		c20.498-4.278,19.122-3.291,19.199-5.104c0.105-2.487-8.94-9.222-25.684-3.223c-1.582,0.567-4.57-0.261-4.445,2.375
		C797.937,328.634,804.521,329.012,808.643,329.838z M812.944,339.408c5.839,4.322,11.182,2.641,16.201,2.82
		c2.401,0.086,1.393-3.101,0.234-2.826C824.398,340.584,819.324,337.85,812.944,339.408z"/>
	<path d="M1612.849,1441.563c10.884-0.724,42.757,10.368,69.388,9.311c14.279-0.567,12.986-5.074,7.127-16.732
		c-9.69-19.278-12.763,7.987-59.126-5.19c-43.925-12.484-24.893-8.171-60.995-6.66c-2.779,0.116-4.629-3.152-1.412-5.056
		c5.459-3.23,9.997-6.828,17.752-5.034c8.547,1.977,69.016,11.535,72.583,11.481c24.726-0.376,9.299-17.22,30.87-18.389
		c16.656-0.902,33.203,1.025,49.819,0.515c113.905-3.497,150.512,5.711,166.023-2.073c2.149-1.079,3.668,0.401,5.371,1.041
		c7.331,2.754,14.762,2.907,22.211,1.748c0.308-2.11-0.879-2.432-1.762-2.857c-8.728-4.205-8.892-4.243-6.068-13.047
		c2.77-8.636-17.401-7.65-52.644-11.648c-15.471-1.755-5.976-13.005,1.988-11.859c31.108,4.479,61.349,18.079,86.652,33.39
		c23.722,14.355,31.361,11.463,31.111,20.641c-0.281,10.317-48.223,21.775-78.996,20.23c-45.189-2.268-67.733-7.899-85.793-8.195
		c-13.62-0.223-6.988-4.844-24.816-4.587c-16.434,0.237-13.777-5.003-46.717-3.304c-19.132,0.986-38.228,1.936-57.516-1.75
		c1.444,4.067,2.957,7.668,4.004,11.401c9.556,34.069-40.858,20.615-83.833,10.58c-1.948-0.455-3.754-1.52-5.625-2.304
		C1612.579,1442.667,1612.714,1442.115,1612.849,1441.563z M1978.902,1419.941c-8.543-5.945,4.307,1.393-30.414-11.602
		c-2.462-0.921-5.526-0.862-8.02,0.818c-9.69,6.526-20.39,4.911-30.893,3.481c-19.253-2.622-1.62,2.873-42.493,2.048
		c-113.717-2.296-175.241-11.903-175.072-1.314c0.075,4.71,4.177,0.12,30.448,4.227c21.394,3.345,45.738-5.551,66.263-2.36
		c16.133,2.507,32.505,4.358,47.732,10.956c2.421,1.049,4.927,1.29,7.524,1.087
		C1874.467,1424.903,1927.635,1445.123,1978.902,1419.941z"/>
	<path d="M1594.064,1481.178c-19.783-2.369-41.735,0.189-63.597-3.059c-16.863-2.506-86.89-8.687-121.665-8.241
		c-4.272,0.055-6.948-5.419-11.854-4.502c-0.01-1-1.443-7.012,5.567-7.214c43.799-1.259,72.86,0.14,113.742-11.66
		c17.349-5.007,18.652-23.25,23.473-12.355c2.352,5.315,7.569,10.928-0.02,16.734c-6.317,4.833,45.735,17.597,53.479,19.513
		c13.098,3.24,18.518-4.682,28.791,1.614c3.452,2.116,2.104,5.679-0.767,5.607
		C1612.626,1477.399,1604.603,1481.081,1594.064,1481.178z M1479.967,1463.565c0.013,0.481,0.027,0.963,0.04,1.445
		c18.131,1.547,36.263,3.094,55.751,4.756c-2.429-3.409-3.37-5.97-5.182-7.007
		C1518.12,1455.636,1540.338,1452.917,1479.967,1463.565z"/>
	<path d="M400.877,1282.144c7.284,11.532-4.045,10.353,3.057,20.225c3.86,5.364,9.261,11.458,4.004,15.447
		c-3.533,2.681-4.838-1.598-7.024-3.8c-2.975,6.081-8.517,9.552-12.849,14.167c-1.931,2.057-4.252,2.391-6.092,0.197
		c-1.835-2.187-0.165-3.743,1.586-5.294c7.704-6.826,13.178-14.569,10.034-25.697c-1.453-5.145,4.239-7.781-0.479-10.183
		c-3.3-1.68-6.527-2.712-10.164-0.284c-23.017,15.365-11.445,35.145-25.651,40.578c-4.227,1.616-8.182-2.937-6.882-7.766
		c1.466-5.443,7.011,4.037,10.416-5.837c6.201-17.978,9.294-37.257,29.19-38.12c18.052-0.784,28.675,10.251,38.972,21.957
		c4.223,4.801,9.882,6.578,14.877,9.6c3.567,2.158,14.16-4.183,10.347-14.059c-1.289-3.339-0.536-6.715-0.297-10.086
		c7.211,1.968,15.394,1.243,11.632,11.866c-2.016,5.693,0.003,12.361,5.258,9.776c4.188-2.06,9.128-2.199,13-5.104
		c1.144-0.858,2.557-0.919,3.367,0.321c0.834,1.276-9.625,13.604-25.065,9.896c-4.011-0.963-6.53,0.74-8.16,3.262
		c-1.587,2.455,1.777,3.368,3.264,4.536c1.688,1.326,2.039,3.115,2.798,4.86c2.377,5.461,4.282,11.208,8.72,15.523
		c11.22,10.91,6.681-9.063,15.421-18.744c20.146-22.311,34.58,36.482,18.018,32.652c-9.099-2.104-19.46,15.69-39.215-4.581
		c-6.666-6.84-13.776-13.378-18.127-22.145c-1.046-2.108-2.701-3.197-5.172-2.885c-4.778,0.604-9.142-1.461-13.655-2.385
		c-7.722-1.582-10.454-8.681-5.62-14.869c2.419-3.096,2.277-4.924-0.33-7.568c-2.528-2.563-4.433-5.729-6.815-8.452
		C410.302,1285.787,407.119,1282.663,400.877,1282.144z M496.155,1329.626c-0.49-1.979-0.517-5.539-3.315-6.418
		c-5.985-1.879-8.462,17.905-9.786,21.074c-0.58,1.388-2.749,3.03-1.143,4.461c1.784,1.589,4.227,0.377,5.933-0.683
		C494.373,1344.003,495.278,1337.119,496.155,1329.626z"/>
	<path d="M1404.516,1381.175c-18.285,6.439-43.199,7.629-61.355,5.801c-6.464-0.651-12.542,2.959-19.326,2.796
		c-28.894-0.693-57.534-3.18-85.833-9.311c-51.534-11.164-57.619-2.281-87.395-16.438c38.541-16.097,49.999,19.102,95.179-9.262
		c2.337-1.467,4.566-3.189,7.067-4.285c2.566-1.125,5.169-0.274,4.551,2.935c-1.864,9.684,3.535,14.358,55.491,23.563
		c23.749,4.208,50.453,9.108,81.92,2.229C1397.936,1378.52,1401.137,1377.825,1404.516,1381.175z M1233.31,1373.359
		c15.107,1.865,28.738,3.547,42.37,5.229c-7.284-6.107-16.338-5.474-23.9-8.994
		C1244.871,1366.378,1239.792,1368.025,1233.31,1373.359z"/>
	<path d="M1144.659,1465.381c3.616,0.863,5.922-4.032,8.816-0.934c1.926,2.062-0.76,3.715-1.89,5.897
		c1.154,0.538,77.927,19.607,91.128-1.161c9.153-14.398,30.093,38.654-75.011,16.742c-43.679-9.106-34.195-10.246-41.046-7.007
		c-11.599,5.483-31.091,5.26-30.063-1.476c0.525-3.442,4.618-2.527,7.086-2.281c7.207,0.721,12.955-0.43,19.147-5.449
		c4.201-3.405,10.707-4.392,14.176-9.64c0.69-1.044,1.147-2.473,2.114-3.058c2.427-1.469-2.291-4.847,1.699-5.661
		c17.221-3.515,53.566,19.958,86.496,15.198c2.453-0.354,5.52-0.685,6.022,1.747c0.561,2.721-2.921,3.369-4.976,3.934
		c-37.208,10.241-63.668-10.66-76.42-14.039C1146.279,1456.694,1146.434,1461.914,1144.659,1465.381z"/>
	<path d="M886.36,1063.152c9.192,4.377,11.079-3.898,19.346,1.442c1.178,0.761,2.224,1.654,1.782,3.037
		c-1.321,4.127-1.868,9.026-4.496,12.107c-20.268,23.759-16.746,26.97-30.24,29.376c-8.419,1.501-13.711-3.647-20.455-5.435
		c-1.622-0.43-3.913-1.475-4.869-0.794c-8.649,6.156-9.8-4.145-14.53-6.429c-0.288-0.139-0.305-0.777-0.517-1.143
		c-4.79-8.261-4.684-7.917,4.59-10.822C848.137,1080.994,846.132,1043.999,886.36,1063.152z"/>
	<path d="M798.188,1144.337c-3.378,4.68-9.929,3.554-13.681,8.986c11.559,1.925,22.371,4.431,34.749,2.879
		c-5.747-6.302-14.961-6.33-19.045-15.358c8.663,4.458,15.03,10.553,24.833,10.952c-3.941-2.808-3.241-4.061,0.263-5.579
		c7.307-3.166,13.835,0.979,20.55,1.953c17.599,2.553,35.072,4.747,52.716,0.953c2.427-0.522,3.896,0.668,4.591,2.464
		c3.487,9.011-5.226,4.737-6.928,16.297c-0.459,3.118-2.946,4.615-5.523,5.724c-33.99,14.626-47.486,6.404-56.678-6.107
		c-10.704-14.568-39.817,3.401-70.591-15.451c-2.339-1.433-8.982-0.087-8.427-3.994c0.28-1.97,2.202-1.96,3.6-1.592
		c5.675,1.495,11.45,1.012,17.2,1.213C783.471,1147.948,790.883,1146.84,798.188,1144.337z M852.053,1163.623
		c-0.051,0.558-0.103,1.115-0.154,1.673c5.112,2.281,10.484,1.783,15.977,0.016C862.601,1164.749,857.327,1164.186,852.053,1163.623
		z"/>
	<path d="M1309.441,777.888c8.866-28.179-2.664-41.565,7.969-42.676c3.277-0.342,4.802-2.387,5.085-5.575
		c0.75-8.435,3.104-16.827,0.88-25.343c-3.653-13.983,15.259-11.759,15.341-0.765c0.028,3.808-0.565,7.661-1.248,11.427
		c-1.927,10.628-0.972,21.275-0.509,31.925c0.385,8.849-2.505,21.96-9.127,15.384
		C1321.398,755.877,1327.697,772.483,1309.441,777.888z"/>
	<path d="M799.657,1190.592c-4.568-3.548-10.536,0.521-13.547-6.641c-0.778-1.849-0.389-2.54,1.513-3.177
		c21.988-7.375,71.315,11.046,88.059,3.527c3.314-1.488,7.099,2.245,1.756,4.46c-3.124,1.295-6.333,3.258-9.538,3.318
		c-9.276,0.174-15.667,7.945-24.685,8.67C830.378,1201.782,810.084,1198.689,799.657,1190.592z"/>
	<path d="M452.85,1252.859c-4.894-3.314-3.541-8.626-7.056-8.464c-4.585,0.212-3.109,14.723-9.247,7.765
		c-3.851-4.367-5.485-10.325-5.521-15.255c-0.042-5.708-3.321-8.455-6.039-11.692c-9.138-10.881,4.735-30.448,12.307-14.704
		c5.606,11.653,10.33,23.731,15.371,35.655C453.526,1248.201,453.3,1250.256,452.85,1252.859z"/>
	<path d="M1557.136,1405.559c-6.936,7.169-14.286,5.002-22.042,2.493c-7.639-2.47-15.842-2.376-23.756-3.356
		c-13.097-1.623-25.891-4.942-39.083-6.127c-5.117-0.459-9.915-4.518-14.846-6.964c-2.841-1.409-2.389-6.026,2.328-4.971
		c5.026,1.126,4.712,8.035,45.58,8.823c21.499,0.414,25.627,6.556,36.961,6.125
		C1547.485,1401.385,1552.761,1401.833,1557.136,1405.559z"/>
	<path d="M1170.179,1083.004c8.294-1.642,13.254-7.402,16.016-14.194c1.373-3.374,0.332-7.701,3.334-11.146
		c1.807-2.073,4.1-3.781,5.72-2.206c1.693,1.645,5.475,2.389,4.274,6.64c-3.286,11.633-6.475,9.811-11.372,15.548
		c-14.429,16.904-23.443,11.128-30.78,20.52c-1.096,1.404-3.262,3.694-5.318,1.428c-1.749-1.929,0.449-3.313,1.783-4.644
		c20.39-20.324,19.219-39.878,25.839-37.679c3.24,1.076,1.912,6.305,0.587,8.97
		C1177.384,1072.031,1175.949,1078.846,1170.179,1083.004z"/>
	<path d="M467.223,1253.849c-3.946-4.041-5.548-8.692-7.159-13.497c-5.867-17.495-15.413-33.529-20.591-51.312
		c-0.742-2.547-2.438-4.441-3.955-6.504c-5.056-6.881,5.342-13.849,7.65-7.928C446.345,1182.754,467.223,1234.966,467.223,1253.849z
		"/>
	<path d="M1457.524,1367.467c-1.635,3.002-6.513,0.92-6.94,5.607c4.829-0.955,9.584-1.084,14.205,3.295
		c-6.791,0.635-10.735,6.963-17.4,5.838c-4.592-0.775-9.062-1.815-13.845-1.657c-2.448,0.081-3.559-2.54-0.693-4.275
		c1.535-0.929,2.925-1.98,3.632-3.442c2.83-5.859,0.948-3.878-13.989-9.302c-1.34-0.487-2.997-1.269-2.4-3.164
		c1.019-3.234,14.248,1.5,21.529-2.008c1.4-0.674,1.854,1.426,2.836,2.067C1448.596,1363.132,1451.985,1367.19,1457.524,1367.467z"
		/>
	<path d="M547.273,1327.707c-2.055,6.028-7.401,11.381-10.982,3.585c-6.16-13.41-13.851-25.769-23.782-36.724
		c-0.871-0.961-2.337-2.417-0.651-3.853C517.663,1285.768,545.147,1324.378,547.273,1327.707z"/>
	<path d="M422.674,1073.401c-2.692,11.737-9.584-12.919-25.149-31.998c-2.319-2.843-0.886-6.118,1.525-8.618
		c2.93-3.038,3.518,1.235,5.303,1.766c6.107,1.816,7.088,6.553,8.469,12.075c1.942,7.765,5.654,15.084,8.569,22.61
		C421.929,1070.619,422.273,1072.078,422.674,1073.401z"/>
	<path d="M734.61,1230.905c3.736-3.952,9.749-5.765,10.206-12.631c0.164-2.464,3.736-3.695,6.155-2.904
		c7.529,2.462-9.979,19.787-19.551,24.999c-2.205,1.201-3.979,1.236-5.442-1.054c-1.522-2.383-3.298-5.028-1.328-7.637
		c1.355-1.796,15.934-24.292,20.386-19.601c2.121,2.235-1.266,3.08-2.345,4.15C738.521,1220.365,736.747,1225.685,734.61,1230.905z"
		/>
	<path d="M396.933,1073.656c17.829,29.553,27.771,61.883,34.524,95.375C422.082,1136.421,407.512,1105.731,396.933,1073.656z"/>
	<path d="M771.612,1229.798c21.774,1.754,43.272-3.462,64.921-2.615c0.061,0.546,0.122,1.092,0.182,1.637
		c-20.213,3.756-19.221,3.175-20.166,4.442c-5.38,7.217-13.331,8.012-19.716,1.771c-2.004-1.959-4.415-1.262-6.628-1.379
		C783.847,1233.317,777.48,1233.242,771.612,1229.798z"/>
	<path d="M661.15,1360.01c6.193,5.975,13.912,0.962,13.891,6.259c-0.033,8.272-17.336,4.215-21.663-2.319
		c-4.347-6.566-7.832-5.022-7.353-8.21c0.724-4.82,13.872-3.23,21.577-7.551c3.013-1.691,5.65,3.242,2.553,5.495
		C667.254,1355.793,664.288,1357.813,661.15,1360.01z"/>
	<path d="M396.828,1010.452c-2.6,0.195-4.31-1.536-5.465-4.019c-4.602-9.891-6.792-9.381-1.168-15.406
		c5.672-6.076,9.988-0.001,14.799-0.409c1.918-0.163,2.621,2.754,1.544,4.639C398.791,1008.81,404.362,1010.6,396.828,1010.452z"/>
	<path d="M870.705,1046.488c-10.999-4.476-31.849-16.122-21.488-17.271c3.487-0.387,6.866-1.166,10.453,1.009
		c6.383,3.87,18.84,7.073,16.962,13.709C875.98,1046.238,873.847,1046.221,870.705,1046.488z"/>
	<path d="M872.138,1201.854c2.876-0.49,5.033,1.647,3.7,5.473c-1.412,4.052-5.449,5.794-7.525,9.237
		c-0.431,0.715-1.83,0.687-2.872-0.018c-3.766-2.547-17.415-7.882-15.37-13.224C851.734,1198.977,865.522,1202.981,872.138,1201.854
		z"/>
	<path d="M440.05,1275.956c-2.38-0.263-6.808,1.926-7.666-1.025c-2.234-7.686,4.178-13.803,6.92-12.66
		c6.094,2.54,21.694-0.217,14.44,9.212C450.223,1276.061,445.361,1275.805,440.05,1275.956z"/>
	<path d="M403.263,928.153c5.667,2.365,13.274,4.544,9.575,7.609c-7.511,6.223-6.942,18.494-12.801,16.645
		c-4.483-1.415,1.094-11.017,0.534-20.55C400.479,930.285,401.511,928.684,403.263,928.153z"/>
	<path d="M624.405,1405.77c-2.505-1.343-7.66,0.255-7.991-5.31c-0.534-8.969,13.857-13.383,17.541-3.034
		C634.961,1400.252,628.825,1405.641,624.405,1405.77z"/>
	<path d="M1133.097,1006.321c-3.53,12.069-9.277,22.33-16.36,33.766c-2.065-12.597,5.967-21.582,6.397-24.371
		C1123.958,1010.374,1126.499,1006.905,1133.097,1006.321z"/>
	<path d="M665.367,1087.52c-1.309,4.229-9.868,5.272-5,10.252c3.579,3.662,0.755,10.834-4.254,11.725
		c-3.736,0.664-5.706-2.24-4.934-4.795c1.638-5.423,6.145-9.568,7.623-15.349C659.227,1087.688,662.383,1086.634,665.367,1087.52z"
		/>
	<path d="M537.596,1366.253c-6.491,0.3-3.924-5.705-5.884-8.484c-0.832-1.18,0.094-3.25,2.486-3.392
		c4.41-0.262,11.692,4.318,11.282,7.42C544.837,1366.673,540.455,1365.251,537.596,1366.253z"/>
	<path d="M642.554,1289.044c0,0-0.243,0.133-0.242,0.133c-9.422,3.963-5.996-7.734,3.691-14.365
		C648.977,1272.776,655.547,1275.453,642.554,1289.044z"/>
	<path d="M1173.062,218.789c-4.828,11.029-15.916,14.559-22.302,7.35C1159.212,227.034,1165.109,221.539,1173.062,218.789z"/>
	<path d="M751.818,1247.633c-0.592,8.399-11.48,7.419-11.141,3.22C741.323,1242.835,750.661,1242.835,751.818,1247.633z"/>
	<path d="M591.822,1331.169c2.232,0.47,4.865,0.94,3.928,4.198c-2.564,8.91-10.923,6.088-9.806,0.581
		C586.492,1333.248,587.517,1329.93,591.822,1331.169z"/>
	<path d="M594.267,1377.156c-0.659,2.743-2.684,3.325-4.478,3.479c-2.983,0.256-5.783,3.492-8.898,0.833
		c-1.232-1.052-1.153-2.726-0.311-4.089c1.276-2.063,10.641-3.452,12.519-1.874C593.676,1375.989,594.003,1376.77,594.267,1377.156z
		"/>
	<path d="M1307.445,795.55c-4.126,14.523-4.437,18.068-7.399,17.017c-1.491-0.529-1.322-2.062-1.002-3.234
		C1300.459,804.153,1301.647,798.829,1307.445,795.55z"/>
	<path d="M1521.559,1425.368c2.524-4.629,14.517-5.716,13.346-2.829C1532.756,1427.834,1520.057,1428.123,1521.559,1425.368z"/>
	<path d="M709.148,1294.001c4.199-0.038,7.237,7.216,0.679,7.288c-2.284,0.026-5.311-0.582-5.453-3.176
		C704.238,1295.617,707.198,1294.845,709.148,1294.001z"/>
	<path d="M620.439,1339.229c4.37-0.83,3.873,6.974-1.847,7.372c-2.115,0.147-4.038-0.535-3.871-3.051
		C614.943,1340.202,618.2,1340.351,620.439,1339.229z"/>
	<path d="M590.489,1256.377c-0.284-2.383,0.075-4.149,2.515-3.41c2.078,0.629,4.998,0.933,5.167,3.834
		c0.189,3.245-2.995,4.568-5.085,4.587C590.011,1261.415,591.004,1257.982,590.489,1256.377z"/>
	<path d="M613.626,1236.601c-1.081,5.59-8.114,6.599-8.235,1.517C605.285,1233.657,613.036,1233.029,613.626,1236.601z"/>
	<path d="M454.553,1256.746c1.13-4.2,9.521-3.712,9.365,0.754c-0.105,2.995-2.719,1.624-4.424,1.651
		C457.459,1259.183,455.122,1259.825,454.553,1256.746z"/>
	<path d="M615.779,1219.776c-2.348,0.488-2.534-1.473-2.374-3.316c0.192-2.22,0.61-4.246,3.401-4.403
		C621.983,1211.764,620.28,1218.841,615.779,1219.776z"/>
	<path d="M371.482,1318.093c5.459,11.411,0.617,12.382-0.411,11.541c-1.874-1.532-1.224-2.319-1.224-10.642
		C370.393,1318.693,370.937,1318.393,371.482,1318.093z"/>
	<path d="M625.673,1176.589c-4.299-0.803-2.136-6.905,1.987-6.994C630.635,1169.531,631.886,1173.98,625.673,1176.589z"/>
	<path d="M1208.28,1056.2c-2.352-5.669,5.976-9.243,5.696-5.699C1213.709,1053.88,1211.245,1055.292,1208.28,1056.2z"/>
	<path d="M1471.698,819.715c-0.239-6.394-0.372-13.395-4.369-19.369c-3.26-4.874,3.462-10.895,5.973-3.168
		C1493.071,858.032,1472.281,835.354,1471.698,819.715z"/>
	<path d="M1525.149,783.859c0.092,3.5-6.626,3.271-6.881,0.755c-0.481-4.744-4.816-6.18-6.948-9.41
		c-0.695-1.053-2.303-2.022-2.253-2.963c0.576-10.775-13.207-13.61-7.669-18.688
		C1503.151,751.945,1513.837,758.632,1525.149,783.859z"/>
	<path d="M1447.521,811.115c-7.964-7.504-8.991-17.614-11.937-26.851c-0.865-2.712,2.169-4.367,4.77-4.956
		C1454,776.217,1444.687,800.717,1447.521,811.115z"/>
	<path d="M1449.006,827.015c3.831,6.87,8.843,13.323,6.516,21.894c-0.59,2.172-0.951,5.674-3.562,5.15
		c-2.254-0.452-4.957-4.375-3.892-6.219C1452.124,840.814,1447.694,834.029,1449.006,827.015z"/>
	<path d="M1549.235,823.328c-0.403,0.469-0.704,1.114-1.197,1.338c-1.364,0.621-2.746-0.2-3.361-1.061
		c-8.117-11.364-20.017-16.603-11.935-17.487C1539.933,805.333,1540.265,809.158,1549.235,823.328z"/>
	<path d="M1488.44,850.102c-2.177,13.218-10.285,6.729-9.203,3.087c0.893-3.005,0.35-7.718,4.63-8.464
		C1487.705,844.056,1487.484,847.968,1488.44,850.102z"/>
	<path d="M1463.281,776.526c3.816,0.357,6.47,2.008,6.066,6.348c-0.157,1.683,0.027,4.705-2.727,3.957
		c-3.94-1.07-6.185-4.6-7.082-8.321C1458.914,775.918,1461.75,776.894,1463.281,776.526z"/>
	<path d="M1422.245,837.106c2.91,2.953,5.87,4.801,4.92,8.556c-0.405,1.602-0.418,4.36-3.06,3.664
		C1419.618,848.144,1420.87,845.861,1422.245,837.106z"/>
	<path d="M1507.235,832.956c7.085,1.116,5.687,9.732,2.675,8.245C1506.312,839.424,1506.995,836.239,1507.235,832.956z"/>
	<path d="M1095.761,142.376c-10.687-4.39-11.859,3.617-38.326,13.997c-3.194,1.253-4.449,5.323-9.669,4.122
		c-19.148-4.406-3.452-16.348-5.987-18.272c-5.66-4.297-0.227-7.431,1.111-10.751c1.827-4.534,4.825-4.636,7.461-0.405
		c1.454,2.334,3.429,2.999,5.898,3.051c6.471,0.135,26.147,0.343,32.105-2.784c10.076-5.288,6.436-0.022,10.69,6.727
		c0.71,1.126,1.289,2.262,0.567,3.565C1099.17,142.424,1098.003,142.63,1095.761,142.376z"/>
	<path d="M1066.724,626.379c-2.501-1.999-4.263-5.646-4.51-8.476c-0.428-4.9,4.913-4.168,8.033-5.155
		c3.476-1.099,4.827,1.95,5.903,4.392C1076.814,618.648,1069.471,626.037,1066.724,626.379z"/>
	<path d="M1171.7,643.571c-1.813,6.134-11.929,8.472-10.987,1.161C1161.497,638.65,1172.962,639.302,1171.7,643.571z"/>
	<path d="M986.115,1189.44c-0.132-3.478,1.322-5.547,4.259-5.653c4.838-0.174,3.694,4.508,4.503,6.993
		c0.838,2.573-2.096,5.278-4.249,5.221C986.724,1195.898,987.325,1191.573,986.115,1189.44z"/>
	<path d="M826.93,434.007c-4.109,0.15-6.137-1.189-5.44-5.877c1.411-9.485-8.114-8.815-3.152-12.938
		c6.945-5.771,5.466,1.454,8.5,0.901c7.54-1.376,10.543,1.118,11.494,9.369C838.886,430.278,834.128,433.743,826.93,434.007z"/>
</g>
</svg>
