<?xml version="1.0" encoding="UTF-8" standalone="no"?>
<!-- Created with Inkscape (http://www.inkscape.org/) -->

<svg
   xmlns:dc="http://purl.org/dc/elements/1.1/"
   xmlns:cc="http://creativecommons.org/ns#"
   xmlns:rdf="http://www.w3.org/1999/02/22-rdf-syntax-ns#"
   xmlns:svg="http://www.w3.org/2000/svg"
   xmlns="http://www.w3.org/2000/svg"
   xmlns:sodipodi="http://sodipodi.sourceforge.net/DTD/sodipodi-0.dtd"
   xmlns:inkscape="http://www.inkscape.org/namespaces/inkscape"
   id="svg4136"
   version="1.1"
   inkscape:version="0.91 r13725"
   width="353.4375"
   height="679.6875"
   viewBox="0 0 353.4375 679.6875"
   sodipodi:docname="SmoothBlazingStar.svg">
  <metadata
     id="metadata4142">
    <rdf:RDF>
      <cc:Work
         rdf:about="">
        <dc:format>image/svg+xml</dc:format>
        <dc:type
           rdf:resource="http://purl.org/dc/dcmitype/StillImage" />
        <dc:title></dc:title>
      </cc:Work>
    </rdf:RDF>
  </metadata>
  <defs
     id="defs4140" />
  <sodipodi:namedview
     pagecolor="#ffffff"
     bordercolor="#666666"
     borderopacity="1"
     objecttolerance="10"
     gridtolerance="10"
     guidetolerance="10"
     inkscape:pageopacity="0"
     inkscape:pageshadow="2"
     inkscape:window-width="1600"
     inkscape:window-height="837"
     id="namedview4138"
     showgrid="false"
     inkscape:zoom="0.98574713"
     inkscape:cx="176.71875"
     inkscape:cy="339.84375"
     inkscape:window-x="-8"
     inkscape:window-y="-8"
     inkscape:window-maximized="1"
     inkscape:current-layer="svg4136" />
  <path
     style="fill:#000000"
     d="m 147.1643,677.28272 c -0.50287,-1.32263 -0.92935,-9.23278 -0.94774,-17.57813 -0.0321,-14.53665 -0.49693,-21.74668 -2.72696,-42.293 -1.05855,-9.75294 -1.54556,-11.27394 -2.87087,-8.96628 -0.44173,0.76914 -2.77303,3.50781 -5.18066,6.08594 -5.77008,6.17866 -9.52492,14.32812 -9.93486,21.5625 -0.27665,4.8821 0.12339,6.55464 3.02894,12.66399 3.21155,6.75277 5.22878,14.99226 3.67047,14.99226 -0.40917,0 -1.03727,-1.58203 -1.39576,-3.51563 -0.3585,-1.93359 -1.77654,-5.59936 -3.15121,-8.14618 l -2.4994,-4.63054 -0.28828,3.92742 c -0.15855,2.16009 -0.70095,3.92743 -1.20532,3.92743 -0.56948,0 -0.74028,-3.78013 -0.45065,-9.97397 0.41095,-8.78819 0.30701,-9.76344 -0.87424,-8.20312 -0.73734,0.97396 -1.35404,2.22465 -1.37045,2.7793 -0.0164,0.55464 -1.0845,1.99927 -2.37356,3.21029 -3.46405,3.25431 -2.99084,0.4354 0.82877,-4.93696 1.74488,-2.45422 3.69326,-5.82787 4.32973,-7.49701 3.10594,-8.14536 5.35387,-11.94717 10.87461,-18.3916 6.21306,-7.25262 6.69511,-8.50691 4.97365,-12.94152 -0.56347,-1.45154 -1.00553,-6.43604 -0.98236,-11.07666 0.0232,-4.64063 -0.26678,-9.89155 -0.64434,-11.66873 l -0.68646,-3.23122 -4.24843,6.51247 c -6.75859,10.36034 -7.02341,11.4169 -6.14629,24.52097 0.2691,4.02029 -1.74283,2.55842 -2.20513,-1.60224 l -0.46875,-4.21875 -2.50043,4.21875 c -1.37524,2.32031 -3.58353,7.80496 -4.90731,12.1881 -2.1449,7.10196 -2.40388,9.54816 -2.37951,22.47487 l 0.0274,14.50553 3.23932,7.17437 c 3.40828,7.5486 3.83816,9.28213 2.3018,9.28213 -0.51562,0 -0.9375,-0.44914 -0.9375,-0.99808 0,-2.30788 -4.08495,-10.25192 -5.27169,-10.25192 -1.03733,0 -1.3099,-2.89963 -1.38802,-14.76563 l -0.0972,-14.76562 -2.01506,6.09375 c -3.47545,10.51011 -8.84063,18.8726 -6.37192,9.93166 0.51165,-1.85304 0.73653,-3.36916 0.49974,-3.36916 -2.05649,0 -8.462477,4.61963 -12.438243,8.96975 -2.678312,2.9305 -5.131295,5.06655 -5.451072,4.74677 -1.211776,-1.21178 8.932419,-11.44092 14.067465,-14.18527 2.89442,-1.54688 5.6282,-3.23438 6.07508,-3.75 0.79188,-0.9137 6.35317,-15.93134 8.6793,-23.4375 0.63917,-2.0625 2.15482,-5.82703 3.36813,-8.36562 1.2133,-2.5386 2.07474,-4.74689 1.91432,-4.90733 -0.67287,-0.67287 -10.98199,9.36703 -12.9225,12.58505 -5.2317,8.67587 -11.239379,14.17178 -14.258739,13.04408 -0.609577,-0.22766 -0.05363,-0.84364 1.235429,-1.36883 2.792681,-1.13781 6.39724,-4.90158 9.62471,-10.04985 3.13187,-4.99575 9.56995,-11.73145 14.70052,-15.38011 2.90244,-2.06409 4.55656,-4.11137 5.44474,-6.73884 1.45049,-4.29098 8.89312,-16.90438 11.01233,-18.66317 0.92833,-0.77045 1.4052,-2.86914 1.4052,-6.18421 l 0,-5.01801 -7.26563,3.81202 c -10.84427,5.68959 -12.96297,7.58166 -14.8229,13.23738 -0.89259,2.71422 -3.51592,8.52088 -5.82959,12.90369 -2.31369,4.38281 -4.4899,8.99595 -4.83603,10.25141 -0.34613,1.25547 -1.13702,2.45189 -1.75753,2.65873 -1.48981,0.49661 -0.57356,-1.8623 5.86939,-15.11091 2.79654,-5.75051 5.32844,-11.60689 5.62643,-13.01416 l 0.54182,-2.55868 -3.5286,2.38856 c -4.17011,2.82279 -8.83936,9.59175 -10.41629,15.10038 -0.619408,2.16375 -2.227623,4.80047 -3.573817,5.85937 -3.65584,2.87569 -4.926585,2.32474 -1.505719,-0.65282 1.944,-1.69209 3.444891,-4.26966 4.367175,-7.5 0.772871,-2.70704 1.082291,-4.92188 0.687581,-4.92188 -0.39472,0 -2.979412,1.6875 -5.74379,3.75 -4.758132,3.55004 -8.4375,4.80405 -8.4375,2.87568 0,-0.48088 0.738281,-1.11038 1.640625,-1.39887 0.902344,-0.28851 3.718791,-2.00443 6.258769,-3.81318 5.116893,-3.64379 3.737381,-4.42516 -2.495772,-1.41363 -4.675917,2.25916 -5.050952,2.30304 -3.477319,0.40693 1.943858,-2.3422 6.152603,-4.15693 9.640834,-4.15693 2.301423,0 4.927863,-1.19769 9.187183,-4.18948 6.54919,-4.60022 13.51142,-8.72235 21.43318,-12.68995 8.09991,-4.05682 8.15596,-4.18107 8.91791,-19.76637 l 0.66866,-13.67704 -4.09016,-2.37644 c -2.24959,-1.30705 -8.09797,-3.76104 -12.99641,-5.45332 -12.4835,-4.31273 -24.626906,-11.25522 -36.09375,-20.63511 -3.609375,-2.95247 -10.186734,-7.10856 -14.616354,-9.23576 l -8.053856,-3.86764 -3.808128,-7.72632 c -2.094472,-4.24948 -4.22361,-9.20288 -4.731417,-11.00757 -0.507808,-1.80469 -3.97125,-9.60938 -7.696538,-17.34375 -3.725289,-7.73438 -8.037026,-16.73811 -9.58164,-20.00828 -1.583195,-3.35187 -4.604681,-7.63617 -6.925853,-9.82048 -3.320416,-3.12463 -4.125368,-4.51436 -4.158293,-7.17921 C 25.20709,410.10891 20.583748,392.05929 16.860907,382.5 14.066009,375.32342 5.8467075,358.37268 4.8686171,357.76819 4.4242196,357.49354 3.9823103,354.6138 3.8865963,351.36878 3.7908824,348.12377 3.1135517,341.25 2.3814171,336.09375 1.111926,327.15303 -0.2897105,278.35243 0.65138303,275.85937 0.89468486,275.21484 1.9194265,274.6875 2.9285867,274.6875 c 3.195038,0 7.4390343,4.01654 10.8964883,10.3125 1.840526,3.35156 5.305702,8.41406 7.700392,11.25 2.394689,2.83594 5.295983,6.70668 6.44732,8.60166 4.08279,6.71981 10.08789,13.67521 17.100341,19.80643 5.500289,4.80908 7.38689,7.11888 8.355605,10.22988 3.365127,10.80702 22.324359,42.01233 33.524392,55.17835 2.699637,3.17351 3.984375,5.56253 3.984375,7.4091 0,5.35425 5.898787,19.52881 14.0554,33.77458 4.63469,8.09463 6.03773,10.00139 12.01557,16.32945 4.00083,4.23522 4.44524,5.18958 5.45692,11.71875 2.51156,16.20899 4.62208,24.4518 6.26075,24.4518 0.4672,0 0.60746,0.63066 0.31168,1.40146 -0.51878,1.35188 1.23294,6.21497 5.06713,14.06729 l 1.83107,3.75 0.16911,-8.4375 c 0.093,-4.64063 0.23714,-12.23437 0.32028,-16.875 0.0832,-4.64063 0.57505,-14.97656 1.09313,-22.96875 0.51808,-7.99219 0.8404,-21.07031 0.71627,-29.0625 -0.12413,-7.99219 0.19083,-22.45679 0.69991,-32.14358 0.69292,-13.18485 0.65172,-17.94233 -0.16392,-18.9251 -0.59924,-0.72204 -3.48577,-1.58302 -6.41453,-1.91328 -6.68551,-0.7539 -16.25234,-3.7819 -19.14996,-6.06117 -1.21419,-0.95508 -3.4879,-2.29937 -5.05269,-2.98732 -3.79268,-1.66741 -22.541638,-22.11643 -26.259818,-28.64092 -1.622471,-2.84705 -3.842802,-6.06929 -4.934069,-7.16056 -2.08412,-2.08412 -5.027433,-11.002 -8.554171,-25.91807 -4.471894,-18.91354 -4.682369,-20.71913 -4.644514,-39.84375 0.02041,-10.3125 0.02559,-24.04734 0.01152,-30.52188 -0.03943,-18.13828 2.880595,-19.67121 9.91755,-5.20648 2.285276,4.69748 5.273167,9.4569 6.639758,10.5765 1.366592,1.1196 2.941272,3.12503 3.499291,4.45651 1.26833,3.02634 14.182984,16.1906 17.655201,17.99642 1.41797,0.73745 2.57813,1.70582 2.57813,2.15192 0,0.4461 3.95724,3.99395 8.79388,7.88413 4.83663,3.89018 10.42647,9.1042 12.42187,11.58671 1.9954,2.48252 4.29324,5.01378 5.10631,5.62502 1.19254,0.8965 13.12373,24.08496 17.51718,34.0449 l 1.03386,2.34375 0.0635,-2.36 c 0.0349,-1.29799 1.51396,-7.28941 3.28681,-13.31426 3.81236,-12.95595 5.67305,-24.5557 4.87403,-30.38525 -0.50306,-3.67021 -1.69729,-6.86814 -7.65657,-20.50299 -0.67608,-1.54688 -1.49457,-3.73784 -1.81886,-4.86882 -0.43707,-1.52424 -1.97252,-2.45822 -5.93393,-3.60947 -7.01986,-2.0401 -11.45646,-6.87026 -17.86462,-19.44937 -2.68204,-5.26478 -5.26635,-10.20515 -5.7429,-10.97859 -3.51665,-5.70751 -4.71147,-11.22361 -5.3384,-24.64586 -0.38728,-8.29133 -0.19992,-10.53053 1.03933,-12.42188 3.05491,-4.66237 9.85234,-1.88754 17.97147,7.33629 l 3.7891,4.30464 4.95848,-2.37304 c 8.4966,-4.06632 15.28659,-6.15768 21.97419,-6.76818 l 6.44343,-0.58822 -3.77511,-4.56117 c -5.66939,-6.84986 -8.32725,-12.41114 -10.08456,-21.10076 -1.66792,-8.24763 -1.52029,-12.46793 0.79122,-22.61932 2.8225,-12.39547 4.17384,-13.42296 11.26267,-8.56361 2.1554,1.47751 6.23923,3.84473 9.07517,5.26051 8.58289,4.28478 20.64077,11.93367 22.46158,14.24844 0.94298,1.19881 2.04245,2.17966 2.44327,2.17966 0.40082,0 1.50284,0.70054 2.44895,1.55676 3.28832,2.97587 2.50827,0.70216 -2.05287,-5.9838 -2.52346,-3.69903 -5.40943,-8.32947 -6.41328,-10.28986 -1.87055,-3.65297 -4.67533,-6.14124 -10.45015,-9.27085 -2.59357,-1.40555 -5.93373,-1.87808 -15.9375,-2.25462 -12.06068,-0.45396 -12.66976,-0.57118 -12.9434,-2.49088 -0.22515,-1.57957 1.10096,-2.94582 6.1422,-6.32813 3.53615,-2.37249 7.46224,-4.31462 8.72465,-4.31585 1.83956,-0.002 2.84993,-1.06361 5.08864,-5.3478 6.46638,-12.374581 26.9832,-26.27297 43.86877,-29.71732 l 5.66488,-1.155533 -4.46153,-2.747934 c -7.37205,-4.540561 -11.32789,-8.499121 -14.56779,-14.57778 -2.71296,-5.090031 -3.07257,-6.612121 -3.04968,-12.90782 0.0161,-4.425156 0.66352,-8.918577 1.70376,-11.824833 1.12731,-3.149497 1.69756,-7.532029 1.73802,-13.357004 0.0331,-4.768227 0.37816,-8.6705714 0.76674,-8.6718753 0.3886,-0.0013 2.28078,0.8413793 4.20488,1.8726293 1.92409,1.03125 4.34834,1.868888 5.38722,1.861418 1.03889,-0.0075 4.83755,0.941749 8.44148,2.109375 5.39472,1.74782 7.67613,3.181784 12.9109,8.115013 6.79228,6.401035 13.77523,15.117708 15.83049,19.760879 0.69162,1.562448 1.49782,2.840815 1.79157,2.840815 0.29375,0 0.35351,-2.636719 0.13279,-5.859375 -0.46948,-6.855018 -5.27237,-18.312115 -8.6759,-20.696048 -1.19863,-0.839547 -1.88773,-1.818039 -1.53134,-2.174426 1.19653,-1.196531 5.56189,1.959476 7.06226,5.105765 1.26197,2.646382 1.58704,2.860026 2.15606,1.417023 0.36852,-0.934554 0.69969,-3.754752 0.73593,-6.267106 0.057,-3.95041 0.25599,-4.410146 1.47213,-3.400833 0.96188,0.798289 1.40625,2.931025 1.40625,6.749222 l 0,5.582138 2.57218,-3.118805 c 3.75448,-4.552347 4.27716,-5.048362 6.66808,-6.327946 3.94889,-2.11338 3.38719,-0.0759 -1.18759,4.307784 -2.47927,2.375708 -5.10117,5.739686 -5.82644,7.475509 C 259.64868,30.032688 258.07476,41.25 258.9565,41.25 c 0.26048,0 1.83152,-2.758328 3.49121,-6.12962 3.57122,-7.254172 9.34195,-13.301479 22.09162,-23.150411 5.15181,-3.9796931 10.36042,-8.3009924 11.5747,-9.6028873 C 297.3283,1.0651867 298.8995,0 299.60557,0 c 1.63157,0 3.78811,4.1399801 4.6562,8.9386453 0.36989,2.0446827 1.04441,4.4385117 1.49895,5.3196197 1.38298,2.680903 3.7219,16.542447 3.74017,22.165942 0.019,5.86688 -2.20376,15.178752 -4.35715,18.253142 -0.76655,1.094417 -1.39374,2.317856 -1.39374,2.71875 0,0.400896 2.65298,0.728901 5.89553,0.728901 3.88655,0 7.00132,0.581263 9.14062,1.705779 7.2891,3.831502 10.99935,6.160734 15.9473,10.011456 2.8612,2.226726 8.06478,5.622068 11.5635,7.545206 3.49872,1.923138 6.58383,4.076513 6.85581,4.785276 0.71575,1.865198 -1.20461,3.765778 -4.46353,4.417562 -1.55717,0.311434 -5.02818,2.60768 -7.71335,5.102771 -2.68517,2.495091 -6.35869,5.535 -8.16338,6.755353 -1.80469,1.220344 -4.19017,3.095857 -5.30107,4.167807 -4.82632,4.65709 -14.74471,6.32738 -30.08956,5.06721 l -6.79687,-0.55819 0,4.42249 c 0,5.5777 -1.10704,8.72818 -6.39577,18.2015 -6.10684,10.93874 -8.59584,15.88447 -8.6003,17.08912 -0.002,0.58139 -0.54596,1.50692 -1.20843,2.05672 -0.91573,0.75999 -2.28084,-0.33004 -5.694,-4.54658 -2.58655,-3.19537 -7.34122,-7.41857 -11.21738,-9.96353 -3.70033,-2.42951 -8.33725,-5.83986 -10.30425,-7.57857 l -3.57639,-3.16129 -2.70147,3.56808 c -1.48581,1.96244 -3.55511,4.67413 -4.59847,6.02597 -2.19227,2.84046 -7.32058,5.51086 -10.58319,5.51086 -2.46572,0 -6.71528,4.11373 -9.54415,9.23908 -1.73246,3.13887 -1.73195,3.14404 0.25014,2.51495 3.05094,-0.96833 2.48198,1.58929 -0.91172,4.09835 -4.1946,3.10121 -7.4204,10.60302 -7.29288,16.96012 l 0.10343,5.15625 0.87992,-4.21875 c 1.82726,-8.76081 2.78209,-11.28472 5.74875,-15.19561 4.26269,-5.61943 13.99457,-10.32873 27.77337,-13.43965 5.96285,-1.34627 12.41104,-3.03941 14.32931,-3.76252 3.70346,-1.39606 6.35598,-0.98819 6.35598,0.97734 0,0.6553 -0.64519,2.7356 -1.43375,4.6229 -0.78856,1.88729 -1.81306,7.44071 -2.27667,12.34092 -0.96936,10.2459 -4.30909,20.05468 -8.32556,24.45215 l -2.65368,2.90541 10.39171,0.41442 c 11.13623,0.44412 14.00393,1.36619 18.89921,6.07685 4.30633,4.1439 9.76676,10.96399 9.77041,12.20328 0.002,0.61972 1.57014,2.64841 3.48513,4.50823 2.83665,2.75492 3.2275,3.54232 2.10937,4.24952 -0.75483,0.47743 -2.06049,0.87451 -2.90145,0.88241 -0.84097,0.008 -7.1691,2.70122 -14.0625,5.98517 -27.90636,13.29431 -46.58756,16.35675 -54.72097,8.97047 -1.86234,-1.69127 -1.87521,-1.64462 -1.90511,6.91235 -0.0391,11.18603 -2.47097,16.77947 -10.89081,25.04959 -3.27474,3.21651 -5.11033,5.39591 -4.07908,4.8431 1.03125,-0.5528 4.40625,-2.14264 7.5,-3.53296 3.09375,-1.39034 5.83594,-2.83186 6.09375,-3.20341 0.25781,-0.37155 5.74219,-2.45635 12.1875,-4.63288 6.44531,-2.17653 12.35156,-4.49857 13.125,-5.16008 0.77344,-0.66151 3.51562,-1.71488 6.09375,-2.34081 2.57812,-0.62592 7.25185,-2.16194 10.38606,-3.41337 3.1342,-1.25143 6.20604,-2.27532 6.8263,-2.27532 2.09968,0 2.14596,2.61361 0.11673,6.59123 -1.11128,2.17829 -2.26095,6.33248 -2.55483,9.23152 -0.29388,2.89905 -1.05349,6.11475 -1.68802,7.146 -0.63452,1.03125 -2.07459,4.7066 -3.20014,8.16742 -1.12556,3.46084 -3.13043,7.88974 -4.45528,9.84201 -1.32483,1.95227 -2.88453,4.92369 -3.46598,6.60317 -1.12663,3.2542 -18.79447,22.73115 -20.61977,22.73115 -1.16351,0 -3.23005,2.16193 -5.76574,6.03188 -0.86692,1.32309 -2.11472,2.40562 -2.77289,2.40562 -0.65816,0 -4.72292,2.99105 -9.0328,6.64677 -4.30987,3.65573 -10.15645,7.87776 -12.99239,9.38231 -2.83594,1.50453 -5.78906,3.10347 -6.5625,3.55319 -3.1426,1.82728 -11.64627,4.0988 -15.312,4.09019 -2.14871,-0.005 -7.7643,-0.32688 -12.47908,-0.71518 -7.84869,-0.6464 -8.64932,-0.55701 -9.4843,1.05899 -1.74964,3.38623 -2.97288,16.92592 -3.54739,39.26498 -0.31826,12.375 -0.86099,32.625 -1.20607,45 -0.34507,12.375 -0.47329,23.89245 -0.28492,25.59434 0.33467,3.02372 0.38499,3.05587 2.20535,1.40846 1.02458,-0.92723 2.50223,-2.95249 3.28367,-4.50059 0.78145,-1.54809 2.98164,-4.92408 4.88932,-7.50221 1.90768,-2.57812 4.44666,-6.79687 5.64218,-9.375 1.19552,-2.57812 2.64354,-5.5843 3.21783,-6.6804 0.83386,-1.59151 12.68225,-16.90722 17.56203,-22.70139 10.45953,-12.41947 17.70088,-23.13463 17.70088,-26.19231 0,-1.18786 1.24166,-2.69662 3.23111,-3.92617 3.41569,-2.111 16.45639,-15.57495 16.45639,-16.99049 0,-1.09479 7.3962,-10.78892 12.97935,-17.0119 4.91425,-5.47743 6.70815,-8.893 6.70815,-12.7723 0,-1.67086 1.02315,-3.57222 2.87704,-5.34652 6.52444,-6.24434 9.93262,-11.65079 22.71603,-36.03477 5.03128,-9.59699 6.5346,-11.50742 20.28751,-25.78125 4.96807,-5.15625 9.97735,-10.72115 11.13174,-12.36643 2.33132,-3.32269 5.45537,-4.75963 6.99676,-3.21824 1.60376,1.60376 -1.85517,39.46897 -4.8064,52.61592 -1.06828,4.75893 -7.52542,25.0319 -8.6595,27.1875 -1.76498,3.35483 -3.79399,11.23891 -4.331,16.82889 -0.66799,6.9534 0.5474,5.44165 -26.26509,32.66941 -10.41955,10.58093 -15.94297,16.96148 -17.96172,20.74904 -1.60337,3.00823 -3.9552,6.15092 -5.2263,6.98378 -1.2711,0.83286 -3.96899,3.9411 -5.99533,6.90721 -2.02633,2.96611 -4.78443,6.65854 -6.1291,8.20542 -1.34467,1.54688 -2.44537,3.09062 -2.446,3.43054 -9.3e-4,0.57475 -5.41489,5.94211 -14.65698,14.53115 -4.99694,4.64385 -10.65666,12.20497 -10.65666,14.23678 0,0.93508 -3.06494,3.65535 -7.46724,6.6275 -8.14341,5.49791 -18.87703,16.20665 -27.68901,27.62482 -3.09375,4.00874 -7.87105,9.75248 -10.61622,12.76388 l -4.99122,5.47526 -0.16503,22.81128 c -0.0908,12.54621 -0.0143,27.761 0.17002,33.81065 l 0.33506,10.99936 3.41494,1.01021 c 1.87823,0.55562 6.02157,1.36207 9.20742,1.79209 6.09644,0.82289 13.3544,3.81991 17.00695,7.02264 6.39474,5.60723 24.42473,15.96632 31.389,18.03448 3.3252,0.98748 4.35141,1.66453 3.6246,2.39134 -0.72681,0.72681 -2.55145,0.42252 -6.44469,-1.07472 -8.59151,-3.30409 -8.82721,-3.34689 -8.10787,-1.47233 0.37534,0.97814 0.23668,1.5 -0.34138,1.28487 -1.44266,-0.53693 -8.69788,-7.27496 -8.71553,-8.09424 -0.0226,-1.05058 -11.82797,-9.16325 -18.22755,-12.52603 -3.48686,-1.83223 -8.06743,-3.28705 -12.1875,-3.87083 -11.51533,-1.63163 -11.09207,-1.73822 -12.05165,3.03505 -0.90895,4.52136 0.0929,8.75989 3.10224,13.125 0.8887,1.28906 2.37276,4.66406 3.2979,7.5 2.0279,6.21634 3.49505,8.7173 7.88964,13.44892 3.21728,3.46402 15.04697,11.86358 16.70833,11.86358 0.44191,0 2.23462,1.47656 3.98379,3.28125 5.06015,5.22074 2.83724,4.26073 -11.40944,-4.92741 -5.41129,-3.48991 -5.42461,-2.55273 -0.0673,4.73847 5.31534,7.23416 12.9904,14.45552 16.64597,15.66196 2.16802,0.71551 3.26832,1.66318 3.26832,2.81494 0,1.58949 -0.37654,1.52889 -4.45313,-0.71662 -2.44922,-1.34911 -6.66797,-4.32378 -9.375,-6.61039 -4.61626,-3.89932 -4.91931,-4.01942 -4.88073,-1.9342 0.0226,1.22279 0.60739,3.81009 1.29945,5.74955 0.69207,1.93948 0.89726,3.74945 0.45598,4.02217 -1.209,0.74721 -3.69594,-5.94524 -4.13057,-11.11554 -0.21102,-2.51023 -0.89289,-5.17761 -1.51525,-5.92752 -0.62237,-0.7499 -2.11764,-3.49179 -3.32284,-6.09308 -1.2052,-2.60129 -4.15895,-7.31695 -6.5639,-10.47925 -2.40495,-3.1623 -5.09504,-8.0831 -5.978,-10.93511 -0.88298,-2.852 -2.70971,-7.08391 -4.05943,-9.40422 l -2.45404,-4.21875 -0.21315,8.90625 c -0.11723,4.89844 -0.15811,10.59375 -0.0908,12.65625 0.0672,2.0625 0.36832,11.76562 0.66902,21.5625 0.30071,9.79687 0.75748,22.03125 1.01505,27.1875 0.52981,10.60635 -0.30722,22.96875 -1.55515,22.96875 -0.45727,0 -1.24283,-1.08215 -1.74569,-2.40478 z m -0.0292,-59.15327 c -0.63458,-7.23839 -0.8963,-18.12376 -0.59205,-24.6247 l 0.54529,-11.65151 -2.89991,-3.30281 c -3.26864,-3.72277 -2.01265,-5.37517 1.54514,-2.03281 l 2.16195,2.03105 0.63349,-4.22439 c 0.5296,-3.53164 0.31782,-4.54004 -1.29147,-6.14933 -2.12376,-2.12376 -2.41378,-3.38718 -0.98083,-4.2728 0.51927,-0.32091 1.19721,0.076 1.50655,0.88218 0.30934,0.80612 0.84285,1.46567 1.18558,1.46567 0.55087,0 0.46439,-38.09176 -0.1334,-58.75356 -0.19947,-6.89487 -0.0248,-7.78426 1.74939,-8.90625 2.19108,-1.38563 13.45466,-14.12278 17.75874,-20.08203 7.19921,-9.96774 15.01051,-18.21578 20.58277,-21.73356 2.0625,-1.30207 3.96093,-2.65251 4.21875,-3.00097 0.25781,-0.34848 1.83649,-1.42908 3.50818,-2.40135 1.88255,-1.0949 3.44867,-3.00777 4.11463,-5.02566 0.70456,-2.13483 5.06606,-7.2372 12.65202,-14.80118 11.98525,-11.95051 18.41695,-19.32781 22.52795,-25.84006 1.31455,-2.0824 3.48024,-4.79648 4.81265,-6.03131 1.3324,-1.23483 3.71478,-4.5261 5.29418,-7.31393 1.78297,-3.14717 10.31519,-12.68677 22.50602,-25.16326 18.63675,-19.07346 19.64438,-20.28892 19.83108,-23.92129 0.18202,-3.54136 5.30553,-21.31553 7.06965,-24.52559 0.42504,-0.77344 2.27357,-6.46875 4.10783,-12.65625 3.84831,-12.98146 4.71001,-18.29942 6.53205,-40.3125 l 0.46558,-5.625 -2.3104,6.5625 c -1.27072,3.60938 -2.74375,7.29505 -3.27341,8.1904 -0.52965,0.89535 -0.96301,2.45248 -0.96301,3.4603 0,1.00782 -0.37514,2.06424 -0.83365,2.34761 -0.4585,0.28338 -1.12238,1.66566 -1.47528,3.07173 -0.35291,1.40608 -2.23703,5.94522 -4.18694,10.08698 -12.55394,26.66554 -18.49253,37.41392 -27.21071,49.24923 -2.84867,3.86719 -7.30712,10.19531 -9.90768,14.0625 -2.60056,3.86719 -6.61293,9.68458 -8.91639,12.92753 -2.30346,3.24297 -6.08654,8.57251 -8.40685,11.84344 -6.01727,8.48251 -32.31484,39.25595 -44.902,52.54436 -11.43994,12.07727 -21.01895,23.35366 -31.43318,37.00308 -7.62799,9.99762 -10.27452,14.44409 -13.14669,22.08784 -1.16249,3.09375 -2.49291,5.63146 -2.9565,5.63935 -0.46358,0.007 -1.37101,0.34969 -2.01651,0.75955 -2.12889,1.3517 -3.23002,-4.04036 -2.83834,-13.8989 0.32636,-8.21469 0.79273,-10.36126 3.76817,-17.34375 l 3.39571,-7.96875 0.47726,-27.65625 c 0.2625,-15.21094 0.71025,-28.92187 0.99501,-30.46875 0.28476,-1.54687 0.52091,-13.78125 0.52477,-27.1875 0.005,-14.85915 0.45788,-27.10835 1.16187,-31.3765 1.12945,-6.84767 1.28973,-7.13605 7.29519,-13.125 6.58186,-6.56379 31.60705,-27.97076 40.22354,-34.40789 2.87812,-2.15017 7.34232,-5.62173 9.92045,-7.71459 2.57812,-2.09285 6.30887,-4.89891 8.29054,-6.23568 1.98168,-1.33677 4.78996,-3.77146 6.24064,-5.41041 1.45067,-1.63897 6.71673,-5.93305 11.70235,-9.54243 10.35342,-7.49542 20.02121,-15.68162 22.9811,-19.45926 l 2.02485,-2.58425 -6.86975,2.40269 c -3.77838,1.32147 -7.71352,2.79181 -8.74477,3.26739 -4.76863,2.19921 -16.9973,6.52968 -18.43891,6.52968 -0.88368,0 -1.86741,0.42187 -2.18609,0.9375 -0.31868,0.51562 -1.16875,0.9375 -1.88907,0.9375 -0.72032,0 -3.33214,1.1845 -5.80405,2.63222 -2.47191,1.44772 -6.39282,3.38041 -8.71313,4.29487 -5.37061,2.11661 -14.29049,7.73019 -23.36127,14.70203 -12.11897,9.31468 -14.37901,11.51516 -16.30047,15.87088 -1.02357,2.32031 -5.04098,8.85938 -8.92756,14.53125 l -7.06653,10.3125 -0.26662,7.86015 c -0.27244,8.03236 -0.76394,10.00533 -1.81203,7.27403 -1.15944,-3.02145 -2.01212,-1.42695 -3.56297,6.6627 -3.93759,20.53955 -4.53901,30.30503 -4.84396,78.6529 -0.20275,32.14349 -0.64442,48.30314 -1.39649,51.09375 -1.38256,5.13003 -1.44841,98.32663 -0.0732,103.66731 0.5012,1.94653 0.85176,7.42139 0.77902,12.16634 -0.1417,9.24366 0.42819,11.04116 2.59325,8.17938 1.6498,-2.18071 1.88485,-0.58029 0.58197,3.9626 -0.46772,1.63083 -0.50331,4.76473 -0.0798,7.02506 0.42054,2.24443 1.29089,8.40682 1.93411,13.6942 0.64322,5.28739 1.34509,9.43783 1.55972,9.22321 0.21462,-0.21464 -0.12158,-6.22817 -0.74712,-13.36343 z m -11.25271,-93.83258 c -0.0574,-0.73157 -8.40117,-11.47544 -20.70707,-26.66349 -6.39434,-7.89194 -13.31464,-17.97743 -20.585973,-30.00154 C 93.246219,465.41089 87.923902,455.34661 82.761922,445.26677 77.599942,435.18693 72.91844,426.11662 72.358582,425.11052 71.798724,424.10442 67.057515,414.42187 61.82256,403.59375 56.587605,392.76562 45.176582,369.47834 36.46473,351.84423 27.752879,334.21012 20.625,319.52293 20.625,319.20603 c 0,-0.3169 -1.099872,-2.97492 -2.444161,-5.90673 -1.344289,-2.9318 -3.27181,-7.43993 -4.283381,-10.01805 -1.011571,-2.57813 -2.919802,-6.54394 -4.2405124,-8.81291 -1.3207109,-2.26898 -3.3831696,-6.48773 -4.5832418,-9.375 -1.2000722,-2.88728 -2.2518102,-4.61678 -2.3371957,-3.84334 -0.5532294,5.01126 0.420541,47.18572 1.1688857,50.625 0.5048714,2.32031 1.2197317,8.4375 1.5885782,13.59375 0.6184582,8.64567 1.0078668,10.04182 5.005546,17.94637 8.133398,16.08205 15.389923,37.31704 16.41525,48.03645 0.413499,4.32296 1.066916,5.85797 3.644979,8.56282 3.886229,4.07735 8.749275,12.06713 11.102848,18.24151 0.977423,2.56417 4.199193,9.56772 7.159488,15.56344 2.960295,5.99571 6.69696,14.02275 8.3037,17.83786 6.070624,14.41432 6.492318,14.96284 14.685291,19.10207 4.106353,2.07459 11.88264,7.14698 17.280637,11.27198 9.629552,7.35863 27.449769,17.27392 31.300079,17.41555 1.07358,0.0395 4.48321,1.27281 7.57696,2.7407 5.78445,2.74454 8.00996,3.33775 7.91359,2.10937 z m -0.84674,-12.93458 c 0.0868,-4.66213 -0.42624,-6.59022 -3.11608,-11.71036 -5.56842,-10.59947 -10.08789,-25.79009 -11.92708,-40.08865 -0.67483,-5.24641 -1.23737,-6.41626 -5.0406,-10.48221 -5.52039,-5.90175 -11.29518,-14.89549 -17.434262,-27.15238 -5.10509,-10.19251 -6.930358,-15.13426 -8.496656,-23.00394 -0.678886,-3.41098 -1.909524,-5.68439 -4.56738,-8.4375 C 80.401611,386.2901 71.25,374.20619 71.25,373.05312 c 0,-0.86613 -4.801374,-9.04615 -8.513596,-14.50447 -3.973284,-5.84218 -11.086628,-20.09881 -11.724316,-23.49798 -0.421649,-2.24759 -1.956697,-4.13403 -5.869655,-7.21331 C 38.484833,322.5982 35.041588,319.17513 32.229448,315 29.562606,311.0406 22.63401,301.40992 16.875,293.65749 c -2.320312,-3.12347 -5.484375,-7.69459 -7.03125,-10.15807 -1.546875,-2.46347 -3.3318997,-4.6427 -3.9667215,-4.84272 -1.3775182,-0.43404 -0.1129811,2.87492 5.8277025,15.24955 2.227822,4.64062 6.791529,14.55469 10.141572,22.03125 7.044887,15.72264 15.314846,32.67094 21.500399,44.0625 2.379843,4.38281 6.512788,13.00576 9.184323,19.1621 2.671534,6.15633 5.786494,12.6954 6.922134,14.53125 1.135639,1.83585 3.918163,7.34571 6.183385,12.24415 2.265223,4.89844 7.058289,14.60156 10.651258,21.5625 3.592967,6.96094 8.915514,17.29687 11.827881,22.96875 7.876451,15.33951 11.483904,21.57512 18.053337,31.20584 5.69333,8.34635 27.94047,36.09092 28.49504,35.53636 0.14717,-0.14719 0.31438,-2.77908 0.37154,-5.84866 z M 146.25,496.38566 c 0,-4.24959 7.17794,-16.77752 15.93013,-27.80344 2.32436,-2.92821 5.49174,-7.12779 7.03862,-9.3324 2.81545,-4.01258 16.41985,-19.77097 21.00228,-24.32758 6.5232,-6.48644 23.69104,-25.25136 26.54361,-29.0129 1.77137,-2.33581 4.2435,-5.33079 5.49364,-6.6555 7.23489,-7.66653 17.09878,-20.91432 33.76446,-45.34759 4.22042,-6.1875 8.40189,-12.09375 9.29215,-13.125 3.3915,-3.9286 13.97955,-21.98693 18.6891,-31.875 2.70143,-5.67188 5.33189,-11.10205 5.84545,-12.06706 1.91548,-3.59928 8.16257,-19.50305 8.79885,-22.40001 0.36306,-1.65299 1.19235,-3.85537 1.84288,-4.89418 0.96255,-1.53707 6.07133,-19.80955 6.07133,-21.71521 0,-0.29292 -2.00391,1.71404 -4.45313,4.45991 -2.44921,2.74586 -7.74186,8.31941 -11.76144,12.38566 -10.2248,10.34353 -13.47703,15.00772 -21.88816,31.39093 -4.68649,9.12834 -9.668,17.23794 -13.69415,22.29321 -3.48046,4.37012 -6.34664,8.4606 -6.36927,9.08996 -0.12201,3.39293 -3.10768,8.65526 -8.47071,14.92991 -3.31066,3.87341 -8.41196,10.37185 -11.33623,14.44098 -2.92426,4.06911 -8.32137,10.35152 -11.99355,13.9609 -3.67219,3.60937 -7.71841,8.61144 -8.99161,11.1157 -1.2732,2.50427 -3.17574,5.66833 -4.22787,7.03125 -5.50756,7.13452 -13.94361,17.85088 -17.02846,21.63139 -1.92271,2.35628 -4.62484,5.97166 -6.00474,8.03416 -1.37989,2.0625 -3.92004,5.40797 -5.64479,7.43437 -1.72474,2.02641 -3.13589,4.40359 -3.13589,5.28263 0,0.87904 -3.26953,6.61052 -7.26562,12.73662 -10.5087,16.11007 -13.75386,22.18766 -17.19477,32.20263 -2.16961,6.31477 -3.53438,21.5625 -1.92999,21.5625 0.59284,0 1.07788,-0.64208 1.07788,-1.42684 z m -7.63753,-128.48174 c -0.95189,-3.44745 -5.06071,-10.76794 -16.5388,-29.46642 -21.99556,-35.83205 -22.456429,-36.64272 -33.043484,-58.125 -4.701112,-9.53906 -9.886556,-19.875 -11.523207,-22.96875 -3.899887,-7.37193 -5.699782,-11.72098 -8.147852,-19.6875 -1.109142,-3.60938 -2.158817,-6.98438 -2.332611,-7.5 -0.399057,-1.18395 -0.655468,8.15608 -0.862197,31.40625 -0.129612,14.57717 0.176699,19.80087 1.511779,25.78125 0.920879,4.125 2.32836,10.66406 3.127735,14.53125 2.2129,10.70548 5.960685,21.78997 8.159161,24.13163 1.084577,1.15522 3.281226,4.41041 4.881442,7.23375 3.163991,5.58241 22.753774,27.49307 24.693794,27.61936 0.65696,0.0428 3.24929,1.49123 5.76073,3.21879 4.20226,2.89065 11.11621,4.9041 22.57604,6.5745 1.28906,0.18789 2.41522,0.39908 2.50255,0.4693 0.0874,0.0702 -0.25695,-1.37807 -0.76508,-3.21841 z m 2.03191,-9.0758 c 0.0107,-1.67578 1.09748,-8.10937 2.41517,-14.29687 1.31769,-6.1875 2.61435,-13.14844 2.88146,-15.46875 0.57954,-5.03422 -0.88764,-9.07842 -9.79676,-27.00409 -5.52681,-11.12025 -7.06962,-13.36098 -14.22695,-20.66288 -4.41534,-4.50452 -10.43712,-9.96984 -13.38173,-12.14515 -2.9446,-2.1753 -5.80331,-4.79497 -6.35267,-5.82149 -0.54938,-1.02651 -1.53818,-1.86639 -2.197334,-1.86639 -1.792416,0 -17.603362,-16.02955 -18.592901,-18.84997 -0.471556,-1.34403 -1.889043,-2.99583 -3.149973,-3.67066 -1.26093,-0.67484 -3.165085,-3.1611 -4.231455,-5.52505 -4.188378,-9.28484 -5.592766,-11.84873 -5.178673,-9.45432 1.056855,6.11104 3.599244,16.50461 4.24248,17.34375 0.39525,0.51562 1.844091,3.92648 3.219644,7.57968 1.375554,3.65319 3.956489,8.92663 5.735414,11.71875 1.778923,2.79212 3.245204,5.36886 3.258402,5.72611 0.0132,0.35724 0.927811,2.18139 2.032473,4.05365 1.104663,1.87227 4.672351,9.11049 7.928198,16.08494 5.363945,11.49028 9.057515,18.03802 20.532075,36.39801 2.0625,3.30013 5.01563,8.15583 6.5625,10.79045 1.54688,2.63463 5.02997,8.24582 7.74022,12.46932 2.71024,4.22349 5.8529,9.47206 6.98369,11.66346 2.46104,4.7694 3.55053,5.05496 3.57672,0.9375 z m 46.38687,-20.05409 c 7.99604,-2.53416 17.51648,-7.71018 23.41309,-12.7291 7.66243,-6.52191 8.90612,-7.61129 12.53308,-10.97798 1.72351,-1.59984 4.89724,-4.12217 7.05271,-5.60518 2.15547,-1.483 5.59688,-4.60782 7.64758,-6.94403 8.91795,-10.15957 11.47071,-13.43977 12.16413,-15.63044 0.40589,-1.28229 1.71485,-3.81354 2.90881,-5.625 1.19395,-1.81145 3.25532,-6.24668 4.5808,-9.85605 1.32548,-3.60938 2.79098,-7.40625 3.25666,-8.4375 0.98624,-2.18402 2.98374,-13.77189 2.46365,-14.292 -0.19409,-0.19409 -1.37878,0.6219 -2.63262,1.8133 -6.22308,5.91318 -10.05006,9.11755 -14.32539,11.9948 -2.57813,1.73505 -5.79463,4.03028 -7.14778,5.10052 -1.35316,1.07024 -3.65771,2.78963 -5.12124,3.82088 -1.46352,1.03125 -5.2973,4.34825 -8.51951,7.37111 -3.2222,3.02286 -9.77703,8.42828 -14.56626,12.01203 -12.50224,9.35535 -14.12544,10.65724 -24.59064,19.72286 -20.1598,17.46372 -26.90257,23.59857 -28.67901,26.09336 l -1.84545,2.5917 5.40401,-0.49003 c 3.69865,-0.33538 6.73128,-0.0123 9.60995,1.02389 4.62158,1.6635 8.91554,1.41279 16.39343,-0.95715 z M 157.8775,309.19472 c 2.36097,-3.45072 4.07388,-6.84419 3.80647,-7.54104 -0.69687,-1.81603 1.7185,-12.60792 7.60485,-33.97846 2.29243,-8.32276 2.80528,-11.41409 1.98047,-11.93789 -1.98555,-1.26095 -2.9668,-0.20896 -4.12892,4.42664 -1.24204,4.95432 -3.22537,7.62243 -4.89777,6.58883 -0.58429,-0.36111 -2.01686,-2.62587 -3.18348,-5.0328 -1.16663,-2.40694 -3.34998,-6.46477 -4.8519,-9.01739 -2.35769,-4.00709 -2.78216,-5.8164 -3.10701,-13.24369 -0.34446,-7.87596 -0.52559,-8.56349 -2.14447,-8.14014 -0.97254,0.25432 -1.76824,0.0174 -1.76824,-0.5265 0,-1.32296 -4.98034,-9.47506 -5.81153,-9.51265 -0.36042,-0.0163 0.007,1.5524 0.81658,3.486 2.03916,4.87063 6.73757,20.67926 6.28151,21.1353 -0.44744,0.44745 1.00235,4.07009 7.55711,18.8833 1.35448,3.06101 2.88312,8.52987 3.39698,12.15303 1.1111,7.83427 0.62461,10.8079 -5.15355,31.50024 -1.39783,5.00576 -1.86358,8.2186 -1.07593,7.42188 0.2124,-0.21485 2.31787,-3.21395 4.67883,-6.66466 z m 13.69935,-20.9281 c 2.2095,-2.25131 5.325,-4.62362 6.92334,-5.2718 2.7177,-1.10212 7.31996,-4.76123 10.74334,-8.5417 0.81712,-0.90234 1.91925,-1.65 2.4492,-1.66147 0.52994,-0.0114 2.01821,-0.89448 3.30727,-1.96226 1.90181,-1.57535 1.9902,-1.81741 0.46875,-1.28374 -1.03125,0.36173 -3.31683,1.07318 -5.07907,1.58099 -4.14878,1.19553 -10.06923,4.94818 -11.5517,7.322 -0.6402,1.02513 -1.42241,1.86386 -1.73825,1.86386 -0.31583,0 -0.81656,-4.06159 -1.11273,-9.02574 -0.55949,-9.37778 -1.95727,-13.15379 -3.04256,-8.21923 -0.32826,1.49254 -0.97185,3.76841 -1.43019,5.05747 -0.79332,2.23117 -6.01878,24.11435 -6.93982,29.0625 -0.30108,1.61752 0.0938,1.23271 1.27445,-1.24191 0.94088,-1.97211 3.51847,-5.42764 5.72797,-7.67897 z m 24.08256,-21.47821 c 7.05864,-2.31164 10.10637,-6.17202 11.52831,-14.60218 0.93046,-5.51648 1.63741,-7.16976 3.94228,-9.21966 3.85681,-3.43016 5.4325,-6.81979 5.4325,-11.68637 0,-8.33597 -3.14827,-13.7802 -7.96875,-13.7802 -4.22582,0 -7.94968,5.15901 -7.9831,11.05973 -0.0157,2.77651 -1.42361,5.62731 -2.33097,4.71995 -0.47392,-0.47392 0.95414,-7.40284 2.89085,-14.0263 0.31952,-1.09275 -0.62332,-1.95603 -3.31063,-3.03128 -4.51917,-1.80821 -6.81521,-1.13984 -11.08424,3.22662 -3.45901,3.53797 -3.74043,6.03576 -1.8935,16.80624 l 1.13216,6.60226 -4.41341,4.22906 c -4.28449,4.10553 -4.41101,4.38557 -4.33128,9.58702 0.1094,7.13703 1.19116,14.96396 1.90666,13.79545 0.31573,-0.51562 1.29694,-3.15234 2.18048,-5.85937 0.88353,-2.70704 1.99439,-4.92188 2.46858,-4.92188 1.28415,0 1.08161,1.1851 -1.34514,7.87072 l -2.20729,6.081 5.25417,-2.62663 c 2.88978,-1.44465 7.44933,-3.34553 10.13232,-4.22418 z m -30.10094,-10.48226 c 1.54853,-4.94376 1.75314,-6.89429 1.01376,-9.66437 -0.74219,-2.78063 -0.52463,-4.79303 1.09447,-10.12356 2.25522,-7.42484 2.36555,-8.09194 1.22118,-7.38469 -0.71818,0.44387 -9.68732,-0.6391 -14.77499,-1.78399 -1.86146,-0.41888 -1.93456,-0.20644 -1.21271,3.52423 0.42249,2.18349 0.78654,6.45026 0.80899,9.48171 0.0349,4.71008 0.67858,6.72129 4.4257,13.82813 2.41169,4.57401 4.63207,8.31639 4.93419,8.31639 0.30212,0 1.42236,-2.78723 2.48941,-6.19385 z m 50.07936,-9.52441 c 2.7501,-7.3503 2.43884,-8.85105 -1.01771,-4.90674 -3.46229,3.95087 -4.62012,6.62102 -4.62012,10.65478 0,1.66799 -0.31641,3.45031 -0.70313,3.96069 -0.38671,0.5104 0.46281,-0.34543 1.88784,-1.90183 1.42503,-1.5564 3.42893,-5.0695 4.45312,-7.8069 z m -42.88478,-9.82862 c 0.83946,-1.93359 1.92841,-3.51562 2.4199,-3.51562 0.90182,0 3.25382,-5.63572 2.61755,-6.27201 -0.18863,-0.18862 -1.40612,0.0612 -2.70552,0.55529 -1.87652,0.71345 -2.7712,2.24355 -4.34877,7.4374 -2.13237,7.02033 -2.38119,9.33304 -1.29437,12.03077 0.50321,1.2491 0.84084,0.56711 1.23839,-2.50145 0.3006,-2.32031 1.23337,-5.80078 2.07282,-7.73438 z m 0.99394,7.26563 c 0.39148,-2.55372 0.28886,-3.3014 -0.32171,-2.34375 -0.49311,0.77344 -0.90303,2.63672 -0.91093,4.14063 -0.019,3.62633 0.52221,2.83733 1.23264,-1.79688 z m 9.06551,-4.45627 c 0,-1.4752 -0.48794,-4.61997 -1.0843,-6.98836 l -1.08431,-4.30616 -1.66914,4.24931 c -0.91804,2.33713 -1.95893,6.93574 -2.31311,10.21915 l -0.64397,5.96983 3.39741,-3.23078 c 2.3604,-2.24463 3.39742,-4.04949 3.39742,-5.91299 z m -42.1875,2.92518 c -7.27589,-6.39141 -10.53278,-9.76924 -11.82052,-12.25944 -0.74394,-1.43865 -1.56758,-2.61572 -1.83029,-2.61572 -1.8568,0 7.84878,13.98214 11.06805,15.94496 4.7399,2.88996 6.33728,2.22832 2.58276,-1.0698 z m 1.70442,-4.09391 c -0.58734,-1.28906 -1.61499,-2.34375 -2.28368,-2.34375 -0.66869,0 -2.39395,-1.52133 -3.8339,-3.38073 -1.43995,-1.8594 -4.05771,-4.91799 -5.81722,-6.79687 l -3.19914,-3.41615 1.79289,3.28125 c 1.60811,2.94309 12.82356,15 13.95314,15 0.25068,0 -0.0247,-1.05469 -0.61209,-2.34375 z m -0.3215,-8.20313 c -0.34013,-1.16015 -1.44989,-3.75551 -2.46613,-5.76745 -1.26106,-2.49665 -1.52281,-3.85888 -0.82439,-4.29052 0.61305,-0.37889 0.073,-1.06543 -1.34704,-1.71245 -1.3037,-0.594 -2.37036,-0.84515 -2.37036,-0.5581 0,0.28704 1.506,3.65299 3.34667,7.4799 3.31057,6.88297 4.8588,8.93329 3.66125,4.84862 z m 98.92958,-3.13609 c 1.80469,-1.22922 4.40597,-3.13902 5.78063,-4.244 1.98923,-1.59897 3.52006,-1.95266 7.5,-1.7328 11.01764,0.60865 13.79563,0.0958 22.94061,-4.23541 8.11491,-3.8433 10.36215,-6.08099 6.1453,-6.11917 -2.28871,-0.0207 -4.26973,-1.48844 -3.55967,-2.63734 0.42634,-0.68985 1.46312,-0.68877 3.44921,0.004 1.5618,0.54444 3.06321,0.76631 3.33649,0.49305 1.22583,-1.22584 -8.64714,-15.06727 -10.10477,-14.16639 -0.47438,0.29317 -2.43054,0.72375 -4.34702,0.95682 -1.9165,0.23307 -4.86372,0.80057 -6.5494,1.26109 -3.75541,1.02599 -7.16295,0.11679 -12.29786,-3.28133 -2.15714,-1.42753 -5.39869,-2.68516 -7.20346,-2.79473 -1.80476,-0.10957 -3.52963,-0.44747 -3.83305,-0.7509 -0.30342,-0.30342 -2.17013,0.27401 -4.14824,1.28317 -1.97812,1.00915 -4.16726,1.83483 -4.86477,1.83483 -1.89639,0 -5.97615,4.78033 -6.70211,7.85295 -0.55235,2.33785 -0.41248,2.60781 1.05111,2.02874 3.71742,-1.47082 13.94054,-2.53107 18.68691,-1.93806 8.06127,1.0072 5.81805,2.10672 -4.10803,2.01357 -9.52731,-0.0894 -15.23438,1.3242 -15.23438,3.77349 0,0.72365 -0.9606,1.68094 -2.13467,2.12732 -3.08083,1.17116 -8.17783,6.18554 -8.17783,8.04511 0,1.91849 3.24469,6.71316 6.51834,9.63216 4.89803,4.36739 11.9714,4.60272 17.85666,0.59408 z m 11.95138,-0.0522 c 6.25813,-1.82937 6.83551,-2.81041 2.12265,-3.60664 -3.85089,-0.6506 -8.42931,1.27294 -11.31985,4.75583 -1.05608,1.27248 -0.86454,1.38122 1.53523,0.87147 1.50801,-0.32034 4.9559,-1.22963 7.66197,-2.02066 z m -78.19042,-1.96794 c 0.23877,-0.38671 -0.612,-0.76595 -1.89058,-0.84273 -2.21631,-0.13311 -13.45313,-3.31878 -17.85253,-5.06124 -1.2577,-0.49813 -2.29564,-0.46662 -2.63345,0.08 -0.30666,0.49618 -1.37641,0.90215 -2.37723,0.90215 -3.34291,0 -1.87198,1.72385 3.10221,3.63563 4.98156,1.91461 20.68755,2.84765 21.65158,1.28624 z M 134.17883,222.875 c -0.92589,-0.919 -1.03357,-0.81132 -0.52481,0.52481 0.35206,0.92458 0.87627,1.44489 1.16492,1.15625 0.28865,-0.28865 6e-4,-1.04512 -0.64011,-1.68106 z m 52.50812,-5.75839 c 5.70643,-5.4371 6.12804,-7.24361 2.73904,-11.73652 -1.3314,-1.76507 -2.80114,-2.32966 -6.96306,-2.67479 -2.90148,-0.24062 -5.27543,-0.788 -5.27543,-1.21641 0,-0.95651 6.42679,-2.2496 7.22308,-1.45331 0.9387,0.9387 3.08942,-1.37388 3.08942,-3.32192 0,-0.99373 -0.60625,-2.97913 -1.34723,-4.41203 -1.16565,-2.25412 -2.2467,-2.76599 -8.02115,-3.79794 -7.9697,-1.42427 -12.10693,-0.80736 -15.8806,2.36797 -3.46178,2.9129 -8.46593,3.82118 -12.3009,2.23268 -5.70429,-2.36279 -11.12515,-0.70198 -21.04387,6.44729 -8.12664,5.85756 -8.14912,5.76087 1.33928,5.76087 11.21012,0 11.07091,1.72487 -0.16741,2.07419 l -8.67187,0.26956 4.21875,1.26187 c 2.32031,0.69402 7.22971,3.30806 10.90977,5.80897 3.68006,2.50091 6.86474,4.3734 7.07707,4.16107 0.21232,-0.21233 1.84199,-0.60781 3.62148,-0.87887 1.77948,-0.27105 4.39958,-0.75741 5.82242,-1.08079 1.63153,-0.37082 4.57467,0.15191 7.96875,1.41532 6.05508,2.25394 12.23194,3.59809 17.10051,3.72125 2.74016,0.0693 4.15205,-0.74669 8.56195,-4.94846 z m -58.06769,-0.0525 c -0.20857,-1.78662 -0.86214,-3.60835 -1.45237,-4.0483 -1.37872,-1.02769 -8.36233,-3.07035 -8.84544,-2.58725 -1.16043,1.16043 1.30655,4.28163 4.34511,5.49742 1.94334,0.77758 4.08846,2.08264 4.76693,2.90015 1.63221,1.96669 1.62272,1.98078 1.18577,-1.76202 z m 74.5838,-7.29849 c -0.34314,-1.98386 -0.40883,-1.95609 -1.10381,0.46665 -0.40643,1.41682 -0.4083,3.31526 -0.004,4.21875 0.64523,1.44249 0.77978,1.38561 1.10381,-0.46665 0.20296,-1.16015 0.20482,-3.05859 0.004,-4.21875 z m 3.87352,0 c -0.0948,-4.20707 -0.21485,-4.51342 -0.82658,-2.10937 -1.06005,4.16594 -1.06005,7.03125 0,7.03125 0.52004,0 0.88811,-2.19168 0.82658,-4.92188 z m 4.73252,0.9375 C 211.84535,210.31641 211.45312,210 210.9375,210 c -0.51563,0 -0.90785,1.16016 -0.8716,2.57812 0.0584,2.28454 0.15764,2.36461 0.8716,0.70313 0.44315,-1.03125 0.83537,-2.19141 0.8716,-2.57813 z m -15.8716,0.23438 c 0,-1.03125 -0.42188,-1.875 -0.9375,-1.875 -0.51563,0 -0.9375,0.84375 -0.9375,1.875 0,1.03125 0.42187,1.875 0.9375,1.875 0.51562,0 0.9375,-0.84375 0.9375,-1.875 z m 2.49589,-1.17188 c -0.26007,-0.64453 -0.47287,-0.11718 -0.47287,1.17188 0,1.28906 0.2128,1.81641 0.47287,1.17187 0.26007,-0.64453 0.26007,-1.69921 0,-2.34375 z m 21.87911,-4.27573 c 0,-3.44142 -1.80456,-1.38236 -2.82516,3.22362 l -0.8044,3.63024 1.81478,-2.21323 c 0.99813,-1.21729 1.81478,-3.30557 1.81478,-4.64063 z m -8.38475,-7.20864 -0.96141,-3.75 0.44402,3.75 c 0.2442,2.0625 0.52235,5.4375 0.61811,7.5 l 0.1741,3.75 0.34331,-3.75 c 0.1888,-2.0625 -0.0894,-5.4375 -0.61813,-7.5 z M 224.0625,206.25 c 0,-0.51563 -0.42188,-0.9375 -0.9375,-0.9375 -0.51563,0 -0.9375,0.42187 -0.9375,0.9375 0,0.51562 0.42187,0.9375 0.9375,0.9375 0.51562,0 0.9375,-0.42188 0.9375,-0.9375 z m -98.40739,-7.10929 c 4.10844,-2.87886 7.46989,-5.52878 7.46989,-5.88873 0,-0.98686 -10.50055,-11.02109 -12.70676,-12.14246 -4.38753,-2.23008 -6.46796,2.45894 -5.63666,12.70428 0.68934,8.49563 1.1854,10.5612 2.53633,10.5612 0.47702,0 4.22876,-2.35543 8.3372,-5.23429 z m 67.04682,1.53699 c -0.0457,-3.69162 -1.12103,-4.07082 -1.47884,-0.52145 -0.29074,2.88425 -0.0454,4.21875 0.77571,4.21875 0.41184,0 0.72825,-1.66378 0.70313,-3.6973 z m 15.601,-4.27145 c 0.21069,-1.80469 0.0459,-3.28125 -0.36618,-3.28125 -0.41209,0 -0.74925,1.47656 -0.74925,3.28125 0,1.80469 0.16478,3.28125 0.36618,3.28125 0.2014,0 0.53856,-1.47656 0.74925,-3.28125 z m -4.86543,-0.99283 c 0,-0.80387 -0.42188,-1.20085 -0.9375,-0.88217 -0.51563,0.31868 -0.9375,0.97639 -0.9375,1.46158 0,0.48519 0.42187,0.88217 0.9375,0.88217 0.51562,0 0.9375,-0.65771 0.9375,-1.46158 z m 19.37089,-2.5228 c -0.26007,-0.64453 -0.47287,-0.11718 -0.47287,1.17188 0,1.28906 0.2128,1.81641 0.47287,1.17187 0.26007,-0.64453 0.26007,-1.69921 0,-2.34375 z m -6.24589,1.17188 c 0,-0.51563 -0.44678,-0.9375 -0.99283,-0.9375 -0.54606,0 -0.7321,0.42187 -0.41342,0.9375 0.31868,0.51562 0.76545,0.9375 0.99283,0.9375 0.22738,0 0.41342,-0.42188 0.41342,-0.9375 z m 51.72949,-0.75228 c 5.20419,-1.625 5.26709,-1.6853 2.8125,-2.6967 -5.15386,-2.12361 -11.6435,-3.14806 -16.15286,-2.54987 l -4.6381,0.61528 4.92136,3.13653 c 5.7278,3.65052 6.03899,3.68614 13.0571,1.49476 z m -107.5771,-4.40397 4.61515,-3.28125 -3.74802,0 c -4.0065,0 -12.51952,2.51763 -12.51952,3.70251 0,0.56546 3.97345,2.23841 6.5655,2.76428 0.25946,0.0527 2.54857,-1.38085 5.08689,-3.18554 z m 30.15844,-4.92188 c 0.72533,-7.03785 1.07847,-8.16399 2.48604,-7.92765 1.10398,0.18537 1.64063,-0.33319 1.64063,-1.5853 0,-1.02342 0.37767,-2.09418 0.83927,-2.37946 1.03058,-0.63694 1.95098,1.59186 2.03913,4.93784 0.0362,1.37579 0.39749,3.3452 0.80278,4.37645 0.46457,1.18208 0.70007,-0.34231 0.63724,-4.12492 -0.067,-4.03422 0.28426,-6.13304 1.0722,-6.40625 0.68879,-0.23882 1.17188,0.3867 1.17188,1.51737 0,1.32479 0.43781,1.7557 1.40625,1.38408 0.87677,-0.33645 1.40625,0.007 1.40625,0.91159 0,0.79817 0.31641,1.64237 0.70312,1.87601 0.38672,0.23363 0.82353,-2.33292 0.97068,-5.70345 0.31302,-7.16955 -0.48388,-8.27887 -8.49131,-11.82013 l -5.04344,-2.23046 0.0711,-4.57692 c 0.10367,-6.6737 -4.14825,-12.27469 -12.44235,-16.39008 -3.4301,-1.70194 -7.29124,-3.77939 -8.5803,-4.61653 -1.28906,-0.83714 -3.92545,-2.47416 -5.85864,-3.63783 l -3.51489,-2.11575 1.87426,4.29477 c 6.58228,15.08287 6.10331,13.66975 4.63344,13.66975 -0.54496,0 -2.47996,-3.26953 -4.30001,-7.26563 -1.82004,-3.99609 -3.50647,-7.46434 -3.74763,-7.70722 -0.89857,-0.90497 -2.01607,2.25577 -3.15817,8.93255 -0.9169,5.36024 -0.9318,7.84812 -0.0676,11.28032 1.26591,5.02741 5.66507,11.89097 9.03788,14.10093 1.92354,1.26035 2.28882,2.25064 2.28882,6.20498 0,10.5979 4.18613,16.19252 13.51844,18.06695 l 4.76281,0.95663 -0.14644,-4.89919 c -0.0956,-3.1989 0.30723,-5.2757 1.16078,-5.98409 2.49709,-2.0724 2.82247,4.02091 0.69175,12.9544 -0.27671,1.16015 -0.0995,2.10937 0.39374,2.10937 0.49326,0 1.27727,-3.69141 1.74226,-8.20312 z m 2.75304,-21.89399 c -2.94661,-2.58716 -4.38236,-5.52788 -2.69888,-5.52788 0.75149,0 7.82251,7.13666 7.82251,7.89513 0,1.28251 -2.04057,0.33971 -5.12363,-2.36725 z m 43.82193,24.94087 c 1.45542,-1.54688 3.91896,-5.39707 5.47453,-8.55598 1.74689,-3.54745 4.95492,-7.76826 8.39024,-11.03905 3.05906,-2.91257 5.5836,-5.81238 5.61007,-6.44402 0.0264,-0.63165 0.36478,-3.99611 0.75178,-7.47658 0.38701,-3.48046 0.36535,-6.32812 -0.0482,-6.32812 -0.41347,0 -0.75178,0.42187 -0.75178,0.9375 0,0.51562 -0.68132,0.9375 -1.51407,0.9375 -1.39376,0 -1.39376,-0.18362 0,-2.31077 0.83275,-1.27092 1.51407,-2.53655 1.51407,-2.8125 0,-2.61703 -11.72265,5.70935 -17.73458,12.59655 -5.07535,5.81428 -5.08073,5.81733 -9.16682,5.20458 -5.02148,-0.75301 -13.79197,1.09068 -15.81328,3.32421 -1.55249,1.71548 -2.63062,8.697 -1.20719,7.81727 0.447,-0.27627 1.15993,0.43625 1.58427,1.58337 0.68782,1.85936 0.84041,1.90621 1.40622,0.43171 0.37526,-0.97792 1.20625,-1.43463 2.03304,-1.11736 0.76908,0.29512 1.39834,0.12796 1.39834,-0.37148 0,-0.49944 0.63282,-0.90808 1.40625,-0.90808 1.11493,0 1.40625,1.34802 1.40625,6.50717 0,3.90741 0.43242,6.77442 1.08236,7.1761 0.68541,0.42362 0.82724,0.25615 0.38671,-0.45663 -1.15454,-1.86815 0.40475,-10.41414 1.9002,-10.41414 0.72506,0 1.31828,0.84375 1.31828,1.875 0,1.03125 0.61797,1.875 1.37327,1.875 2.2756,0 3.27886,3.04158 2.33942,7.09248 -1.36563,5.88864 -1.2727,6.16009 1.65709,4.84055 1.40652,-0.63348 3.74809,-2.41741 5.20352,-3.96428 z m -6.16676,-14.89839 c 1.76883,-3.07811 13.9824,-16.38407 15.09317,-16.44311 1.73152,-0.0921 0.661,1.47142 -6.37471,9.30993 -3.35156,3.73399 -6.23438,7.16004 -6.40625,7.61345 -0.17188,0.4534 -0.93112,0.82437 -1.68721,0.82437 -0.90854,0 -1.12048,-0.44242 -0.625,-1.30464 z m -25.96904,16.71806 c 0,-1.36065 -0.40579,-2.14828 -0.9375,-1.81967 -0.51563,0.31868 -0.9375,1.39826 -0.9375,2.39908 0,1.00082 0.42187,1.81967 0.9375,1.81967 0.51562,0 0.9375,-1.07959 0.9375,-2.39908 z m 7.20292,0.3483 c -0.29927,-0.74787 -0.52142,-0.52573 -0.5664,0.56641 -0.0407,0.98827 0.18086,1.54199 0.49239,1.23047 0.31152,-0.31153 0.34482,-1.12013 0.074,-1.79688 z m -17.80667,-5.21485 c -0.23581,-0.90234 -0.42875,-0.16406 -0.42875,1.64063 0,1.80469 0.19294,2.54297 0.42875,1.64062 0.2358,-0.90234 0.2358,-2.3789 0,-3.28125 z m 23.41214,0.46875 c -0.26007,-0.64453 -0.47287,-0.11718 -0.47287,1.17188 0,1.28906 0.2128,1.81641 0.47287,1.17187 0.26007,-0.64453 0.26007,-1.69921 0,-2.34375 z m 30.48295,-2.34095 c 2.28248,-2.12109 5.16879,-7.67695 6.82197,-13.13161 1.20431,-3.97359 -7.60524,5.18099 -10.14247,10.53971 -1.29936,2.74428 -2.80872,5.2654 -3.35415,5.60249 -0.54543,0.33709 -0.99169,1.05839 -0.99169,1.60289 0,1.16656 4.10438,-1.30338 7.66634,-4.61348 z m -35.14509,-3.7528 C 213.22294,177.45703 213.03,178.19531 213.03,180 c 0,1.80469 0.19294,2.54297 0.42875,1.64062 0.2358,-0.90234 0.2358,-2.3789 0,-3.28125 z m -49.82271,-15.14905 c -1.84462,-1.85162 -3.99973,-4.21032 -4.78912,-5.24157 -1.35153,-1.76561 -1.39867,-1.68357 -0.80793,1.40625 0.70609,3.69319 3.41455,9.38944 6.38183,13.42181 l 1.98543,2.69809 0.29183,-4.459 c 0.2645,-4.04149 -0.0222,-4.77424 -3.06204,-7.82558 z m 65.60015,-4.50117 4.97982,0.51397 3.94882,-4.94866 c 2.17185,-2.72177 5.18996,-5.68183 6.7069,-6.57791 1.51695,-0.89608 2.5934,-1.79391 2.39213,-1.99518 -0.58505,-0.58507 -18.20405,4.08854 -21.06762,5.58838 -3.26256,1.70882 -10.57124,7.95808 -10.57124,9.0389 0,0.44414 1.94206,0.14581 4.31568,-0.66296 2.8559,-0.97311 6.0001,-1.29666 9.29551,-0.95654 z m -24.00475,-1.03868 c -0.50656,-1.45313 -3.27606,-4.9336 -6.15446,-7.73438 -2.87839,-2.80079 -4.76229,-4.17085 -4.18646,-3.0446 0.57584,1.12626 1.0482,3.44657 1.04969,5.15625 0.003,2.73568 0.53649,3.40434 4.45312,5.57501 5.74407,3.18346 5.93189,3.18531 4.83811,0.0477 z m 3.75081,-7.20172 c 0.0283,-0.51563 -0.35741,-0.30469 -0.85725,0.46875 -0.49984,0.77344 -0.8856,2.03906 -0.85725,2.8125 0.0544,1.48486 1.61688,-1.50542 1.7145,-3.28125 z m 6.60245,-6.22689 c 1.40286,-2.69147 1.72442,-4.18274 1.04777,-4.85939 -1.12479,-1.12479 -0.9764,-1.26328 -3.6522,3.40823 -1.1253,1.96458 -1.6234,3.31077 -1.10688,2.99155 0.5165,-0.31922 0.93911,0.0772 0.93911,0.88117 0,2.28171 0.58879,1.76739 2.7722,-2.42156 z m -9.4241,-3.13033 c -0.70687,-3.78372 -6.26383,-13.33796 -10.98697,-18.89023 -0.99294,-1.16725 -3.42781,-2.28487 -5.85827,-2.68898 -2.28751,-0.38034 -5.29831,-1.27446 -6.69068,-1.98693 -3.19836,-1.63658 -10.03255,-1.59723 -16.68718,0.0961 l -5.15625,1.31206 10.3125,-0.12401 c 9.41539,-0.11323 10.72552,0.0891 15.06018,2.32573 5.44199,2.80802 8.94923,6.62616 15.51619,16.89159 2.55635,3.9961 4.78908,7.26563 4.96161,7.26563 0.17254,0 -0.0395,-1.89044 -0.47113,-4.20097 z m 68.5269,1.94368 c 0,-0.66503 2.53125,-5.59041 5.625,-10.94529 3.09375,-5.35489 5.625,-10.6406 5.625,-11.74605 0,-2.702 -2.17099,-7.73367 -4.75279,-11.01551 -1.8586,-2.36255 -1.98071,-3.04212 -1.02266,-5.69155 2.40205,-6.642773 0.99557,-11.190859 -5.31054,-17.172435 -3.4906,-3.310959 -5.20008,-3.661003 -9.2436,-1.892776 -1.45154,0.634755 -6.14313,1.162099 -10.42576,1.171875 l -7.78661,0.01778 -1.63997,4.807441 c -1.6019,4.695865 -2.77763,6.727578 -6.76728,11.69419 -1.76234,2.1939 -1.84582,2.81805 -0.8302,6.20788 1.03001,3.43785 1.65596,3.9851 7.12909,6.23275 3.29997,1.35519 6.72987,2.46719 7.62201,2.47109 1.0963,0.005 2.83755,2.48848 5.37206,7.66261 2.0625,4.21053 6.22995,10.52688 9.26101,14.03633 5.12897,5.93847 7.14524,7.11283 7.14524,4.16167 z m -7.05368,-40.16458 c -3.13889,-8.508146 -4.84967,-14.830587 -4.13287,-15.273597 0.48266,-0.298298 1.25394,0.432245 1.71397,1.623429 4.46137,11.552268 5.30761,14.822038 3.83602,14.822038 -0.54163,0 -1.17934,-0.52734 -1.41712,-1.17187 z m -57.80159,28.20831 c -0.30928,-5.47354 -0.69995,-6.60052 -3.03986,-8.76907 -2.22437,-2.06147 -3.23804,-2.38458 -5.90901,-1.88351 -3.11619,0.58461 -3.17473,0.67352 -1.74959,2.65736 3.29488,4.58663 8.99123,14.65237 8.99123,15.88798 0,0.72644 0.31641,1.6421 0.70312,2.0348 1.02451,1.04036 1.40904,-2.76139 1.00411,-9.92756 z m 4.10527,2.77606 c -0.875,-0.875 -1.125,-0.625 -1.125,1.125 0,1.75 0.25,2 1.125,1.125 0.875,-0.875 0.875,-1.375 0,-2.25 z m 20.91003,-2.77254 c 1.79237,-2.11885 1.75897,-2.11414 -0.94798,0.1335 -4.49648,3.73351 -4.78648,4.04766 -2.79531,3.02813 1.03702,-0.53098 2.7215,-1.95371 3.74329,-3.16163 z m -8.41358,-5.93249 c 2.07775,-2.58568 4.74672,-6.07727 5.93107,-7.75912 1.18434,-1.68184 2.5641,-2.80404 3.06611,-2.49379 0.5155,0.3186 -0.12773,1.92827 -1.47794,3.69848 -1.31488,1.72389 -2.39069,3.519 -2.39069,3.98911 0,0.47011 -0.88928,1.65842 -1.97618,2.64067 -1.0869,0.98227 -2.81666,3.05156 -3.84391,4.59843 -1.02725,1.54688 0.69451,0.0703 3.82612,-3.28125 3.13163,-3.35156 5.70513,-6.41016 5.71891,-6.79687 0.0138,-0.38672 0.67271,-0.70313 1.46429,-0.70313 2.10169,0 0.52764,2.52953 -5.90275,9.48587 -5.85686,6.3359 -3.56335,6.00907 2.86358,-0.40807 6.24727,-6.23775 7.30311,-7.84584 5.91035,-9.00173 -0.65392,-0.5427 -1.75505,-2.78574 -2.44695,-4.98453 -1.83529,-5.83233 -2.00524,-5.96488 -3.64753,-2.84473 -0.82345,1.56445 -3.85406,6.37471 -6.73469,10.68945 -2.88063,4.31474 -5.74047,8.89968 -6.3552,10.18874 l -1.1177,2.34375 1.6677,-2.33003 c 0.91724,-1.28153 3.36768,-4.44559 5.44541,-7.03125 z m 29.35527,0.45446 c -2.15089,-4.30432 -3.3994,-5.749 -5.31581,-6.15102 -1.37756,-0.28901 -3.92798,-1.15058 -5.66761,-1.91461 -1.73961,-0.76404 -3.29002,-1.26208 -3.44534,-1.10676 -1.02279,1.02279 14.82969,14.79796 17.02951,14.79796 0.11571,0 -1.05463,-2.53151 -2.60075,-5.62557 z m -34.55373,-7.6803 c 1.13003,-1.52846 1.86827,-2.96537 1.64051,-3.19314 -1.23041,-1.2304 -7.3349,11.11368 -7.18525,14.52953 0.0362,0.8254 0.83622,-0.76234 1.77793,-3.52832 0.9417,-2.76597 2.63676,-6.27961 3.76681,-7.80807 z m -7.0407,7.01014 c 0.3594,-1.91578 1.27253,-4.6804 2.02919,-6.14361 l 1.37573,-2.66037 -2.8158,1.4561 c -1.54869,0.80086 -3.50472,1.45611 -4.34673,1.45611 -0.85892,0 -1.31761,0.5144 -1.04497,1.17188 0.26728,0.64453 1.00203,2.7539 1.63277,4.6875 1.44875,4.44124 2.34099,4.45036 3.16981,0.0324 z m 11.41604,-5.5073 c 1.98436,-2.88418 4.41831,-6.52786 5.40878,-8.09708 l 1.80087,-2.8531 -2.48041,1.62523 c -2.44785,1.6039 -7.48934,8.94898 -9.16198,13.34836 -1.28894,3.39018 0.36482,1.88912 4.43274,-4.02341 z m -15.14208,-2.98719 c 1.03125,-0.3102 2.29687,-0.65538 2.8125,-0.76709 0.51562,-0.1117 1.99219,-0.67209 3.28125,-1.24531 1.91521,-0.85166 1.08461,-0.97528 -4.54269,-0.67606 -5.554,0.2953 -7.27725,0.76466 -8.90625,2.42576 l -2.01981,2.05961 3.75,-0.61645 c 2.0625,-0.33906 4.59375,-0.87026 5.625,-1.18046 z m -9.46349,-1.48113 c 3.72323,-2.83493 4.78327,-3.12267 15.9507,-4.32971 10.18331,-1.10066 12.93038,-2.31722 18.44386,-8.16803 5.17398,-5.490526 7.12221,-8.779972 8.63801,-14.584622 1.14974,-4.402827 1.17655,-5.507494 0.1542,-6.355962 -2.534,-2.103039 -14.00217,1.852062 -18.95765,6.538054 -1.60237,1.515227 -2.10938,1.658704 -2.10938,0.596929 0,-1.824924 7.36897,-6.86253 12.69113,-8.675976 4.482,-1.527172 4.77136,-3.124333 0.56604,-3.124333 -1.41332,0 -3.01498,-0.445313 -3.55926,-0.989584 -1.31288,-1.312889 -14.18937,-1.26998 -17.68467,0.05893 -3.12327,1.187466 -9.96196,8.080365 -13.81171,13.921201 -3.41699,5.184257 -7.05415,7.247423 -14.06914,7.980632 -3.18944,0.333366 -6.32167,1.130128 -6.96054,1.770591 -0.99259,0.995068 -5.9578,10.070728 -5.50961,10.070728 0.0864,0 4.72129,-1.4953 10.29961,-3.32288 5.5783,-1.82759 10.35274,-3.11252 10.60987,-2.85539 0.69576,0.69574 -6.96139,4.01886 -13.15177,5.70772 -2.9831,0.81384 -5.17327,1.8851 -4.86706,2.38057 0.30621,0.49546 2.74693,1.9308 5.42381,3.18962 6.66719,3.13531 13.93522,3.21305 17.90356,0.19151 z m -31.68214,-0.59085 c 1.5969,-0.0103 1.89389,-0.45997 1.53698,-2.32703 -0.41949,-2.19437 -0.57408,-2.24613 -2.98515,-0.99932 -1.39852,0.72321 -3.14485,2.0487 -3.88073,2.94556 -1.22041,1.48736 -1.13203,1.5763 1.00578,1.01212 1.28906,-0.34019 3.23447,-0.62429 4.32312,-0.63133 z m 118.95126,-4.01609 c -0.32448,-1.14975 -1.49775,-4.41077 -2.60727,-7.24671 l -2.01733,-5.15625 -0.70623,4.12488 c -0.60314,3.52265 -0.33601,4.78352 1.82968,8.63618 1.93068,3.43459 2.72152,4.17969 3.31353,3.12183 0.42767,-0.76421 0.5121,-2.33018 0.18762,-3.47993 z m -113.43727,3.07652 c 0.32845,-0.53143 -0.0479,-0.68859 -0.88217,-0.36844 -1.62414,0.62324 -1.9213,1.29521 -0.57277,1.29521 0.48519,0 1.13992,-0.41705 1.45494,-0.92677 z m 137.35039,-9.85084 c -4.15301,-2.22741 -9.32538,-3.02201 -10.70313,-1.64426 -0.84731,0.84731 -1.22126,0.90534 -6.79687,1.05468 -2.40625,0.0644 -4.133,0.35919 -3.83723,0.65497 0.68418,0.68417 11.52771,1.81616 19.46223,2.03171 l 6.09375,0.16555 -4.21875,-2.26265 z m 15.55777,-4.062134 c 3.04479,-1.974356 7.91983,-5.775234 10.83342,-8.446395 2.91358,-2.671163 6.81592,-5.491129 8.67187,-6.266592 1.85594,-0.775462 3.37444,-1.566805 3.37444,-1.75854 0,-0.191734 -2.97676,-2.147192 -6.61502,-4.345462 -6.57725,-3.974031 -6.66344,-3.995975 -15.09503,-3.843042 l -8.48001,0.153813 -3.65497,-3.998478 c -2.01024,-2.199163 -3.65497,-4.532209 -3.65497,-5.184549 0,-1.865374 -5.76491,-4.901144 -9.31458,-4.905007 -1.93603,-0.0021 -4.01815,0.745546 -5.21962,1.87427 -1.09934,1.032775 -5.33959,3.669494 -9.42278,5.859375 -8.70662,4.669503 -10.20863,7.262851 -4.20651,7.262851 4.9647,0 19.35105,5.437442 17.98929,6.799204 -0.98468,0.984681 -3.08102,0.414255 -10.44173,-2.841273 -3.55225,-1.571099 -11.08553,-2.18468 -11.83974,-0.964338 -0.25712,0.416024 -1.25791,0.756407 -2.22398,0.756407 -0.96608,0 -2.03881,0.889491 -2.38386,1.976646 -0.47812,1.506394 0.25913,2.900362 3.09892,5.859375 2.04945,2.135501 4.87467,5.886635 6.27827,8.335854 1.40359,2.449219 3.25018,4.508685 4.10353,4.576595 3.52412,0.28044 9.91241,-0.31896 12.04635,-1.130279 3.66749,-1.394382 6.38547,-1.023732 10.73762,1.464259 5.70585,3.26188 8.87614,3.00802 15.41909,-1.234694 z M 196.63792,91.465673 c 1.93508,-1.772005 4.47757,-4.931587 5.64997,-7.021295 l 2.13164,-3.799468 -2.60039,1.12128 c -4.00432,1.726652 -10.69302,6.325739 -14.24102,9.791985 l -3.20312,3.129325 4.3723,0 c 3.67403,0 4.93418,-0.514528 7.89063,-3.221827 z m 65.39067,-11.76605 c 0.71626,-3.261126 -0.25567,-5.601781 -1.50642,-3.627838 -1.08562,1.713324 -1.05951,7.615332 0.0307,6.941542 0.47596,-0.294155 1.14002,-1.785322 1.47571,-3.313704 z M 252.375,81.375 c -0.61875,-0.61875 -1.125,-2.281352 -1.125,-3.694672 0,-1.413319 -0.42188,-2.830404 -0.9375,-3.149078 -1.55187,-0.95911 -1.06944,4.890381 0.53572,6.495535 0.81026,0.810268 1.73838,1.473215 2.0625,1.473215 0.3241,0 0.0831,-0.50625 -0.53572,-1.125 z m 5.42315,-3.328125 c 0.008,-1.160156 -0.40753,-2.109375 -0.92315,-2.109375 -0.51563,0 -0.93104,1.582031 -0.92315,3.515625 0.0107,2.615045 0.24717,3.155393 0.92315,2.109375 0.49984,-0.773438 0.91525,-2.355469 0.92315,-3.515625 z m 8.53891,-0.155243 c 0.71052,-2.371524 0.76839,-4.142229 0.1703,-5.210953 -0.70542,-1.260525 -1.10802,-0.363899 -1.81906,4.051244 -0.99836,6.199275 -0.0591,6.859952 1.64876,1.159709 z m 4.02986,-3.829132 c 0.36694,-2.677943 0.28539,-3.533947 -0.22326,-2.34375 -1.11461,2.608084 -2.13949,9.734287 -1.14606,7.96875 0.4352,-0.773438 1.05139,-3.304688 1.36932,-5.625 z m -23.95213,-0.605124 c -0.95951,-7.97001 -2.14171,-9.222371 -1.4801,-1.567913 0.43625,5.046966 1.13629,7.798037 1.9843,7.798037 0.13521,0 -0.0917,-2.803556 -0.5042,-6.230124 z m -4.02313,0.370749 c -0.34851,-1.675781 -0.96718,-5.367188 -1.37483,-8.203125 l -0.74117,-5.15625 -0.1326,4.6875 c -0.12989,4.591368 1.3001,11.71875 2.35116,11.71875 0.29211,0 0.24595,-1.371094 -0.10256,-3.046875 z m -5.55653,-1.206642 c -3.34296,-8.711622 -4.32048,-18.993553 -1.75701,-18.480858 0.64454,0.128906 1.17188,-0.398438 1.17188,-1.171875 0,-0.773438 0.59154,-1.40625 1.31453,-1.40625 0.723,0 1.77464,-1.319816 2.33697,-2.932926 0.86147,-2.471208 1.24487,-2.748309 2.43546,-1.760207 1.0794,0.895825 1.41304,0.905813 1.41304,0.0423 0,-2.47491 2.38031,-0.154121 2.92346,2.850356 l 0.57972,3.206727 0.12341,-3.515625 c 0.14109,-4.019302 1.52685,-4.498981 4.63414,-1.604105 1.67085,1.55664 2.05177,1.63938 2.05177,0.44567 0,-0.806217 -1.95862,-2.61562 -4.3525,-4.020895 -7.82811,-4.595327 -9.72835,-7.261712 -11.11647,-15.598431 -0.4398,-2.641336 -1.75692,-4.782274 -4.70444,-7.646938 -3.93026,-3.819773 -5.48673,-4.480507 -15.45159,-6.559299 -1.28906,-0.268915 -3.67712,-0.84787 -5.3068,-1.286567 l -2.96306,-0.797632 -0.51624,4.354411 c -0.28393,2.394926 -0.78823,6.151488 -1.12066,8.347914 -0.78363,5.177568 -0.12269,7.585272 3.07578,11.204565 3.37324,3.817052 5.09949,8.333968 8.70457,22.776299 1.43788,5.76026 3.43131,8.111178 9.92722,11.707497 6.42339,3.556168 7.35293,3.816266 6.59682,1.845869 z M 230.28083,46.8951 c -2.47861,-3.745447 -3.07326,-5.646542 -1.76521,-5.643424 0.72374,0.0017 5.85938,7.687174 5.85938,8.768502 0,1.652323 -1.8846,0.213809 -4.09417,-3.125078 z M 216.33784,22.265625 c -5.57013,-7.884879 -5.73316,-8.203125 -4.20242,-8.203125 1.19877,0 10.05208,11.77717 10.05208,13.371844 0,1.971909 -2.14288,0.07848 -5.84966,-5.168719 z m 114.83403,49.576321 c 2.60245,-0.08919 1.95983,-0.838407 -3.76946,-4.394687 -5.6853,-3.528985 -9.38569,-5.318429 -13.52831,-6.542063 -2.37147,-0.700479 -2.23554,-0.370518 2.14214,5.199978 2.57086,3.271355 5.18689,6.169247 5.8134,6.439761 0.62651,0.270514 2.61567,0.235658 4.42036,-0.07746 1.80469,-0.313115 4.01953,-0.594604 4.92187,-0.625532 z M 293.13951,61.77988 c 0.60953,-1.236746 2.1541,-6.172047 3.43236,-10.967334 1.27826,-4.795287 2.88893,-9.493966 3.57925,-10.441509 0.69032,-0.947542 2.48703,-3.2752 3.9927,-5.172573 l 2.73756,-3.449769 -1.186,-6.264973 c -0.65231,-3.445734 -2.30226,-10.061847 -3.66656,-14.702472 l -2.48054,-8.4375 -0.5833,4.7089235 c -0.6534,5.2747765 -3.91552,13.5470755 -4.78647,12.1378465 -0.31075,-0.502799 -0.0287,-2.474092 0.62672,-4.380652 0.65544,-1.90656 1.46607,-4.8382505 1.80139,-6.5148662 l 0.60968,-3.0483931 -2.59252,2.3479063 c -1.4259,1.2913484 -4.40944,3.559829 -6.63011,5.041068 -4.97969,3.321573 -7.15841,6.296764 -8.60301,11.748012 -1.31674,4.968739 -4.30612,8.440595 -11.00458,12.780665 -6.49734,4.209772 -7.23804,5.73424 -5.51263,11.345782 l 1.37096,4.458708 0.0652,-3.929047 c 0.0713,-4.292094 1.75443,-6.359182 2.58665,-3.176772 0.3936,1.505117 0.81604,1.743524 1.73622,0.979841 0.90322,-0.7496 1.46939,-0.573794 2.20074,0.683368 0.76139,1.308797 0.99789,1.373731 1.04299,0.28636 0.0518,-1.25 0.18522,-1.25 1.20038,0 0.62813,0.773437 2.19675,1.555197 3.48581,1.737244 1.28907,0.182045 2.55469,0.60392 2.8125,0.9375 0.25782,0.333578 1.10157,0.606506 1.875,0.606506 1.15362,0 1.40574,1.634868 1.40338,9.100327 l -0.003,9.100327 4.69038,-2.632946 c 2.57971,-1.448121 5.18909,-3.644831 5.79863,-4.881578 z M 281.25,44.677068 c 0,-0.693237 1.05417,-2.486206 2.34261,-3.984375 1.28843,-1.498168 2.34312,-3.065247 2.34375,-3.482396 6.2e-4,-0.41715 0.42522,-0.496361 0.94353,-0.176024 0.55422,0.342525 -0.23665,2.296107 -1.92003,4.742829 -3.03063,4.404868 -3.70986,4.935813 -3.70986,2.899966 z m -63.80049,13.769916 c -1.00348,-2.916659 -1.82451,-6.30369 -1.82451,-7.526734 0,-2.394412 -4.40533,-11.499491 -7.37945,-15.25208 l -1.82332,-2.30058 -0.66038,4.403698 c -0.82443,5.497795 0.0102,10.097869 2.84843,15.698829 2.09092,4.12624 7.9629,10.279883 9.80934,10.279883 0.46991,0 0.0334,-2.386357 -0.97011,-5.303016 z m 87.25082,-9.477737 c 2.13569,-5.708146 2.51187,-11.836252 0.69029,-11.245352 -2.17953,0.707019 -4.15092,5.963657 -7.82677,20.869855 -0.92332,3.744192 5.24918,-4.580254 7.13648,-9.624503 z m -40.62241,8.042472 c -0.29927,-0.747875 -0.52142,-0.525728 -0.5664,0.566406 -0.0407,0.988281 0.18087,1.541992 0.49239,1.230469 0.31152,-0.311524 0.34482,-1.120117 0.074,-1.796875 z M 249.59559,38.637603 c -2.32532,-3.734029 -7.13812,-9.575043 -7.88952,-9.575076 -1.01707,-4.4e-5 0.78536,5.310603 2.66831,7.86185 1.56846,2.125143 4.42595,4.102682 6.15871,4.262173 0.37915,0.03489 -0.0427,-1.112129 -0.9375,-2.548947 z m 19.38478,-5.304511 c 4.22265,-2.665635 7.113,-6.447029 7.80246,-10.207816 l 0.48692,-2.655973 -3.72137,3.593473 c -3.71736,3.589598 -9.73777,11.562224 -8.73104,11.562224 0.29283,0 2.1662,-1.031359 4.16303,-2.291908 z"
     id="path4146"
     inkscape:connector-curvature="0" />
</svg>
