<?xml version="1.0" encoding="UTF-8" standalone="no"?>
<svg id="svg4211" xmlns:rdf="http://www.w3.org/1999/02/22-rdf-syntax-ns#" xmlns="http://www.w3.org/2000/svg" height="278" viewBox="0 0 280 278" width="280" version="1.1" xmlns:cc="http://creativecommons.org/ns#" xmlns:dc="http://purl.org/dc/elements/1.1/">
<path id="path4221" d="m6.859 274.72c-7.6587-5.84-8.7252-13.84-2.8335-21.25 2.2807-2.87 2.9745-4.77 2.9745-8.14 0-3.9642 0.34391-4.5991 3.5-6.4613 4.3299-2.5547 4.3848-2.0895-0.94625-8.0189-8.931-9.93-11.478-23.59-7.5605-40.54 1.7307-7.49 2.1068-11.32 1.6228-16.53-0.7514-8.09 1.1008-9.14 6.0775-3.48 6.3834 7.27 7.8064 10.66 7.8064 18.6v7.399l3.793 1.3135c10.178 3.53 11.855 7.43 5.707 13.28-6.805 6.47-4.816 13.11 3.928 13.11 3.5255 0 4.8017-0.56673 7.3187-3.25 8.1329-8.67 7.8334-16.889-1.5582-42.753-8.9139-24.548-8.9139-53.446 0-77.994 9.392-25.861 9.691-34.08 1.558-42.75-2.553-2.722-3.771-3.25-7.492-3.25-8.603 0-10.516 6.682-3.754 13.115 6.148 5.8485 4.471 9.749-5.707 13.274l-3.793 1.313v7.399c0 7.935-1.423 11.329-7.8064 18.599-4.9767 5.66-6.8289 4.61-6.0775-3.48 0.484-5.207 0.1079-9.037-1.6228-16.527-3.9172-16.952-1.3705-30.608 7.5605-40.542 5.3312-5.929 5.2762-5.464 0.9462-8.018-3.1561-1.863-3.5-2.498-3.5-6.462 0-3.371-0.6938-5.269-2.9745-8.139-10.636-13.384 5.1408-31.438 18.816-21.532 4.202 3.0443 7.537 3.8145 8.658 2 1.9089-3.0887 7.2721 0.086381 11.069 6.5532 0.97996 1.6689 1.4467 1.4732 5.5845-2.3408 9.186-8.4676 19.648-10.334 34.109-6.0863 5.106 1.5002 10.476 2.1887 18.237 2.3386 14.111 0.27245 14.842 1.4944 5.2308 8.7465-5.4026 4.0765-12.999 6.2845-18.898 5.4932-4.3049-0.5774-4.7145-0.29384-9.0843 6.2887-3.1696 4.7746-5.2781 4.9113-9.2285 0.59855-5.551-6.062-13.52-3.501-13.52 4.343 0 12.347 17.499 15.106 44 6.9378 7.425-2.2885 15.75-4.8417 18.5-5.6737 7.0338-2.1281 37.966-2.1281 45 0 2.75 0.83203 11.075 3.3852 18.5 5.6737 26.501 8.1683 44 5.4091 44-6.9378 0-7.8444-7.9688-10.405-13.52-4.3446-3.9504 4.3128-6.0589 4.176-9.2284-0.59855-4.3698-6.5825-4.7794-6.8661-9.0842-6.2887-5.8994 0.79127-13.495-1.4167-18.898-5.4932-9.6112-7.2521-8.8805-8.474 5.2308-8.7465 7.7611-0.14984 13.131-0.83841 18.237-2.3385 14.461-4.2482 24.923-2.3814 34.109 6.0862 4.1378 3.8141 4.6045 4.0097 5.5845 2.3408 3.8-6.4666 9.16-9.6417 11.07-6.553 1.1214 1.8145 4.4562 1.0443 8.6587-2 13.675-9.9061 29.452 8.1484 18.816 21.532-2.29 2.87-2.98 4.768-2.98 8.139 0 3.9642-0.34391 4.5991-3.5 6.4613-4.33 2.5547-4.3848 2.0895 0.94625 8.0189 8.9309 9.9333 11.478 23.59 7.5604 40.542-1.7307 7.4897-2.1068 11.32-1.6227 16.528 0.94399 10.157-3.1237 8.9937-11.009-3.1484-2.51-3.871-2.87-5.36-2.87-11.896v-7.4717l-3.793-1.3135c-10.18-3.525-11.86-7.426-5.71-13.274 6.81-6.474 4.82-13.115-3.93-13.115-3.5254 0-4.8017 0.56672-7.3188 3.25-8.133 8.67-7.8334 16.889 1.5582 42.753 8.9139 24.548 8.9139 53.446 0 77.994-9.3916 25.864-9.6911 34.083-1.5582 42.753 2.5532 2.7217 3.771 3.25 7.4925 3.25 8.6029 0 10.516-6.6824 3.7538-13.115-6.148-5.8485-4.471-9.749 5.707-13.274l3.793-1.3135v-7.4717c0-6.5365 0.35986-8.0258 2.8751-11.899 7.8851-12.142 11.953-13.305 11.009-3.1484-0.48403 5.208-0.10797 9.0382 1.6227 16.528 3.9172 16.952 1.3705 30.608-7.5604 40.542-5.3311 5.9295-5.2762 5.4642-0.94625 8.0189 3.1561 1.8621 3.5 2.497 3.5 6.4613 0 3.3707 0.69383 5.2693 2.9744 8.1391 10.636 13.384-5.1408 31.438-18.816 21.532-4.2025-3.0443-7.5373-3.8145-8.6587-2-1.9089 3.0887-7.2721-0.0864-11.069-6.5532-0.97996-1.6689-1.4467-1.4732-5.5845 2.3408-9.1862 8.4676-19.648 10.334-34.109 6.0862-5.1064-1.5001-10.476-2.1887-18.237-2.3385-14.111-0.27245-14.842-1.4944-5.2308-8.7465 5.4026-4.0765 12.999-6.2845 18.898-5.4932 4.3049 0.57741 4.7145 0.29385 9.0842-6.2887 3.1696-4.7746 5.2781-4.9113 9.2284-0.59855 5.5513 6.0606 13.52 3.4998 13.52-4.3446 0-12.347-17.499-15.106-44-6.9378-7.425 2.2885-15.75 4.8417-18.5 5.6738-3.6432 1.1023-9.7488 1.5128-22.5 1.5128s-18.857-0.41051-22.5-1.5128c-2.75-0.83204-11.075-3.3852-18.5-5.6738-26.501-8.1683-44-5.4091-44 6.9378 0 7.8444 7.9688 10.405 13.52 4.3446 3.9504-4.3128 6.0589-4.176 9.2285 0.59855 4.3698 6.5825 4.7794 6.8661 9.0843 6.2887 5.8994-0.79127 13.495 1.4167 18.898 5.4932 9.6112 7.2521 8.8805 8.474-5.2308 8.7465-7.7611 0.14985-13.131 0.83841-18.237 2.3385-14.461 4.2482-24.923 2.3814-34.109-6.0862-4.1378-3.8141-4.6045-4.0097-5.5845-2.3408-3.788 6.47-9.151 9.65-11.06 6.56-1.1214-1.8145-4.4562-1.0443-8.6587 2-5.7008 4.1296-10.31 4.0497-15.982-0.27702zm21.053-21.953c4.799-7.548 4.5973-7.9474-1.9059-3.7743-5.359 3.4389-7.5153 6.2364-6.615 8.5824 1.2566 3.2748 4.5708 1.4047 8.5209-4.8081zm232.7 4.8081c0.90024-2.346-1.256-5.1435-6.615-8.5824-6.5032-4.1731-6.7049-3.7736-1.9059 3.7743 3.9501 6.2128 7.2642 8.0828 8.5209 4.8081zm-138.46-27.73c2.737-2.737 0.54268-4.835-5.0933-4.8698-14.756-0.0911-24.634-17.874-14.4-25.924 5.2429-4.124 8.4121-1.8632 7.5916 5.4157-1.091 9.6798 13.076 11.619 18.594 2.5457 4.4991-7.3982 3.6815-29.015-1.0974-29.015-8.9339 0-9.0806-11.437-0.16557-12.905l3.9183-0.64523v-8.3111c0-10.612 0.66416-10.051-11-9.2904l-10 0.65212-0.55573 4.1635c-1.36 10.24-11.94 9.91-11.94-0.37 0-6.7279-24.021-6.024-27.554 0.8074-5.429 10.498-0.54356 21.131 8.8957 19.36 5.9005-1.1069 7.6077 3.9973 2.5889 7.7405-11.369 8.47-24.254-3.36-25.817-23.71l-0.614-8-3.116-0.3c-16.3-1.5869-10.709 31.471 9.1547 54.123 18.867 21.516 52.022 37.12 60.614 28.528zm52.272 0.6299c27.032-7.0409 55.088-35.013 62.007-61.821 2.7716-10.739-1.9083-22.133-8.8148-21.46l-3.11 0.3-0.6143 8c-1.5628 20.353-14.448 32.184-25.817 23.704-5.0188-3.7432-3.3116-8.8475 2.5889-7.7405 9.4393 1.7708 14.325-8.8612 8.8957-19.36-3.54-6.83-27.56-7.53-27.56-0.8 0 10.288-10.577 10.613-11.944 0.36691l-0.56-4.17-10-0.65212c-11.664-0.76064-11-1.3216-11 9.2904v8.3111l3.9183 0.64523c8.91 1.46 8.77 12.9-0.17 12.9-4.7789 0-5.5965 21.617-1.0974 29.015 5.518 9.0737 19.685 7.1341 18.594-2.5457-0.82044-7.2789 2.3488-9.5398 7.5916-5.4157 10.234 8.05 0.35607 25.833-14.4 25.924-5.636 0.0348-7.8303 2.1328-5.0933 4.8698 2.6243 2.6243 8.1178 2.833 16.576 0.6299zm-113.22-5.81c6.6599-1.7576 6.6877-2.0496 0.72745-7.6453-6.5947-6.1914-6.5252-6.1936-7.2067 0.22433-0.30665 2.8875-0.86775 6.0375-1.2469 7-0.83552 2.1211 0.92136 2.2168 7.7262 0.42099zm165.32-0.42c-0.37915-0.9625-0.94025-4.1125-1.2469-7-0.68156-6.4179-0.61207-6.4157-7.2067-0.22433-5.8695 5.5106-5.8551 5.9371 0.25504 7.5864 6.6776 1.8025 9.0107 1.6995 8.1986-0.3621zm-95.382-93.5c0.19635-0.6875 0.35699-4.8368 0.35699-9.2205v-7.9706l-3.9183-0.64939c-8.91-1.48-8.77-12.91 0.17-12.91 4.7789 0 5.5965-21.617 1.0974-29.015-5.518-9.0737-19.685-7.1341-18.594 2.5457 0.82044 7.2789-2.3488 9.5398-7.5916 5.4157-10.234-8.05-0.35607-25.833 14.4-25.924 5.636-0.03478 7.8303-2.1328 5.0933-4.8698-8.58-8.581-41.769 7.04-60.612 28.527-19.863 22.653-25.455 55.71-9.154 54.12l3.116-0.3 0.6143-8c1.5628-20.353 14.448-32.184 25.817-23.704 5.0187 3.7432 3.3116 8.8475-2.5889 7.7405-9.4393-1.7708-14.325 8.8612-8.8957 19.36 3.533 6.83 27.554 7.53 27.554 0.8 0-10.288 10.577-10.613 11.944-0.36691l0.56 4.17 8 0.56662c4.4 0.31164 8.9644 0.64914 10.143 0.75 1.1787 0.10086 2.3037-0.37912 2.5-1.0666zm37.61-0.3c0.6875-0.21242 1.25-1.8752 1.25-3.6951 0-4.59 2.44-7.75 6-7.75 3.544 0 6 3.1533 6 7.7034 0 6.7279 24.021 6.024 27.554-0.8074 5.429-10.498 0.54356-21.131-8.8957-19.36-5.9005 1.1069-7.6077-3.9973-2.5889-7.7405 11.369-8.4794 24.254 3.3513 25.817 23.704l0.6143 8 3.1162 0.30338c16.3 1.5869 10.709-31.471-9.1547-54.123-18.842-21.487-52.033-37.109-60.614-28.528-2.737 2.737-0.54268 4.835 5.0933 4.8698 14.756 0.09106 24.634 17.874 14.4 25.924-5.2429 4.124-8.4121 1.8632-7.5916-5.4157 1.091-9.6798-13.076-11.619-18.594-2.5457-4.5 7.402-3.69 29.019 1.09 29.019 8.9339 0 9.0805 11.432 0.16557 12.91l-3.9183 0.64939v7.9706c0 4.3838 0.14854 8.5015 0.33008 9.1504 0.30578 1.093 16.232 0.90841 19.92-0.2309zm-106.8-69.492c6.0308-5.662 5.9111-6.0947-2.2018-7.9583-6.7678-1.5546-7.0131-1.4235-5.7273 3.0597 0.541 1.886 0.983 4.893 0.983 6.684 0 4.3095 0.62588 4.1486 6.9462-1.7852zm163.05 1.785c0-1.7911 0.4423-4.7988 0.9829-6.6838 1.2858-4.4832 1.0405-4.6143-5.7273-3.0597-8.0839 1.8569-8.2368 2.3031-2.6749 7.8041 5.9778 5.9123 7.4193 6.2891 7.4193 1.9394zm-193.63-31.993c-5.204-8.648-7.669-11.75-9.338-11.75-5.1334 0-3.4022 5.0216 3.2833 9.5239 5.3892 3.6293 7.3274 4.342 6.0542 2.2261zm223.32-2.226c6.68-4.502 8.42-9.524 3.28-9.524-1.6687 0-4.1341 3.1023-9.3376 11.75-1.2732 2.1159 0.665 1.4033 6.0542-2.2261z"/>
</svg>
