<?xml version="1.0" encoding="UTF-8" ?>
<!DOCTYPE svg PUBLIC "-//W3C//DTD SVG 1.1//EN" "http://www.w3.org/Graphics/SVG/1.1/DTD/svg11.dtd">
<svg width="291pt" height="291pt" viewBox="0 0 291 291" version="1.1" xmlns="http://www.w3.org/2000/svg">
<path fill="#000000" opacity="1.00" d=" M 84.69 0.00 L 150.39 0.00 C 180.51 3.03 210.90 0.58 240.99 3.01 C 263.51 4.40 284.47 22.26 286.97 45.07 C 291.85 76.67 286.82 109.02 291.00 140.71 L 291.00 206.31 C 286.34 230.74 297.38 259.57 280.90 280.88 C 259.56 297.15 230.64 286.33 206.23 291.00 L 140.61 291.00 C 110.49 287.97 80.09 290.42 50.01 287.99 C 27.49 286.60 6.53 268.74 4.03 245.93 C -0.85 214.33 4.18 181.99 0.00 150.29 L 0.00 84.76 C 4.67 60.36 -6.15 31.43 10.12 10.10 C 31.43 -6.38 60.26 4.66 84.69 0.00 M 51.95 5.81 C 51.55 8.25 52.73 9.47 55.18 9.03 C 107.38 8.36 159.71 9.85 211.84 9.07 C 160.15 4.18 105.02 7.65 51.95 5.81 M 29.62 9.42 C 18.29 12.53 44.19 13.11 47.19 11.50 C 41.79 8.61 35.59 8.33 29.62 9.42 M 233.55 11.38 C 215.63 13.73 245.95 17.35 249.89 13.09 C 244.58 11.68 239.03 11.00 233.55 11.38 M 20.93 13.45 C 14.77 13.14 11.59 20.46 14.84 25.27 C 20.55 35.75 9.27 51.18 19.00 59.38 C 19.68 45.64 19.33 31.58 17.86 17.88 C 31.49 19.72 45.65 19.41 59.36 19.05 C 49.84 9.08 32.73 20.67 20.93 13.45 M 220.25 16.14 C 213.81 17.47 218.55 24.14 224.08 21.04 C 236.45 19.49 255.17 23.90 263.91 19.20 C 251.13 15.58 234.23 20.32 220.25 16.14 M 67.20 17.84 C 65.67 21.74 71.93 23.24 74.53 21.38 C 117.98 20.67 162.53 21.30 205.41 23.48 C 206.95 22.56 208.22 19.21 205.32 19.63 C 159.42 15.78 113.22 19.23 67.20 17.84 M 61.46 21.32 C 49.19 25.76 35.03 19.57 22.12 22.11 C 20.09 35.10 25.62 48.86 21.32 61.43 C 28.12 72.32 58.90 71.38 54.24 54.33 C 71.45 58.95 72.22 28.09 61.46 21.32 M 212.91 21.94 C 211.49 23.31 209.50 26.90 212.72 27.29 C 229.03 28.71 245.53 27.54 261.87 28.96 C 264.44 45.59 261.27 63.16 264.26 79.79 C 268.00 80.79 270.13 77.20 267.42 74.38 C 266.74 58.07 266.08 41.55 265.86 25.15 C 248.40 23.08 229.83 26.37 212.91 21.94 M 72.49 25.22 C 69.24 25.15 71.61 28.54 72.31 30.11 C 114.67 29.91 157.04 30.00 199.41 30.01 C 202.89 37.63 204.36 25.55 198.42 26.50 C 156.55 23.33 114.44 25.54 72.49 25.22 M 10.06 25.86 C 8.16 32.85 8.43 40.60 11.48 47.23 C 11.25 41.20 14.88 30.05 10.06 25.86 M 269.87 26.95 C 270.18 42.46 269.61 57.98 270.29 73.48 C 275.94 76.22 275.19 66.09 273.41 63.42 C 269.66 52.92 278.46 32.96 269.87 26.95 M 209.07 30.14 C 203.16 41.23 210.39 45.91 221.79 42.01 C 223.32 50.08 205.52 39.55 209.11 49.74 C 215.20 48.56 227.26 52.54 224.58 43.10 C 227.34 33.37 208.51 42.81 209.25 35.03 C 216.39 33.34 226.17 40.34 229.81 31.83 C 224.65 29.38 215.54 31.54 209.07 30.14 M 249.83 31.15 C 251.82 34.93 256.20 38.73 259.70 41.27 C 259.76 34.83 258.14 29.19 249.83 31.15 M 113.64 33.62 C 100.64 35.18 85.94 32.36 74.12 35.00 C 74.13 56.61 55.65 74.46 34.18 74.22 C 32.96 116.33 32.85 158.48 34.39 200.59 C 46.71 199.59 59.12 205.16 65.11 216.23 C 66.80 204.02 67.25 190.99 65.40 178.73 C 59.98 170.23 48.59 167.60 39.37 165.62 C 37.09 147.28 38.33 128.26 39.46 109.75 C 47.79 106.59 57.33 104.21 63.77 97.72 C 67.19 87.74 65.11 76.53 66.13 66.19 C 76.37 65.51 86.76 65.82 96.90 64.20 C 105.09 58.63 105.38 46.72 110.40 39.19 C 128.69 38.43 147.47 37.21 165.61 39.32 C 167.80 48.84 170.52 60.05 179.36 65.73 C 191.54 66.91 204.06 66.10 216.25 65.18 C 205.27 59.11 199.42 46.76 200.76 34.37 C 171.77 34.00 142.64 31.89 113.64 33.62 M 232.25 37.12 C 228.17 40.52 230.27 49.57 236.13 49.07 C 246.56 46.07 238.75 66.57 252.08 60.15 C 258.92 48.04 245.98 33.67 232.25 37.12 M 277.11 41.01 C 275.32 48.33 276.80 57.73 277.78 63.81 C 281.09 58.13 279.73 46.66 277.11 41.01 M 117.34 43.35 C 109.68 43.94 109.67 63.99 116.72 53.67 C 122.01 58.06 129.81 49.28 135.86 54.85 C 139.52 48.68 143.17 58.24 147.13 52.04 C 149.68 54.88 151.91 57.43 155.09 53.14 C 157.32 57.09 162.71 57.96 167.13 59.89 C 164.97 54.35 162.10 48.73 159.28 43.57 C 145.59 41.14 131.27 44.70 117.34 43.35 M 5.94 52.00 C 7.41 105.24 4.66 159.61 8.99 212.06 C 9.93 162.57 8.30 112.73 9.06 63.12 C 7.65 60.08 11.96 51.01 5.94 52.00 M 212.33 51.96 C 212.16 62.96 231.39 51.95 235.90 55.97 C 237.12 62.50 229.46 76.76 238.11 78.93 C 241.80 71.55 236.08 60.64 239.19 52.05 C 230.24 52.66 221.29 51.64 212.33 51.96 M 217.37 57.88 C 217.39 61.88 223.95 62.40 227.23 63.78 C 228.77 67.37 228.71 72.77 233.25 74.03 C 233.60 62.83 230.49 55.16 217.37 57.88 M 258.41 61.02 C 250.60 66.28 259.36 74.14 256.08 81.64 C 247.89 82.83 257.67 63.54 247.89 66.43 C 238.46 63.46 241.75 75.61 241.29 81.80 C 249.42 84.53 244.95 73.57 246.05 69.11 C 254.78 68.18 241.92 86.27 252.81 83.41 C 266.56 86.61 258.69 65.84 258.41 61.02 M 129.66 63.42 C 91.29 68.83 57.54 107.27 64.13 146.76 C 65.22 167.12 79.39 183.47 95.35 194.66 C 110.06 218.38 138.64 233.07 166.51 226.53 C 210.71 217.92 243.49 164.21 220.32 122.63 C 213.94 107.16 197.22 101.13 188.45 87.56 C 175.23 69.30 151.62 61.07 129.66 63.42 M 17.93 67.14 C 19.09 113.75 15.76 160.59 19.95 207.05 C 26.92 206.73 22.13 199.15 22.02 194.91 C 22.57 154.55 19.50 114.18 21.62 73.84 C 23.55 71.67 21.16 65.55 17.93 67.14 M 70.22 70.17 C 71.58 75.48 66.93 85.44 74.87 85.81 C 77.19 81.10 81.10 77.21 85.80 74.86 C 85.50 66.99 75.31 71.72 70.22 70.17 M 203.56 70.61 C 199.03 72.14 189.01 67.71 189.08 73.79 C 194.57 86.96 205.33 99.37 219.75 101.76 C 221.23 91.30 220.10 80.74 220.79 70.24 C 215.06 70.74 209.29 70.02 203.56 70.61 M 26.04 71.01 C 24.32 113.40 23.64 158.67 27.21 201.90 C 32.40 203.46 34.64 201.77 30.10 199.63 C 29.89 157.28 29.96 114.88 30.13 72.51 C 28.86 71.96 27.51 70.15 26.04 71.01 M 225.89 74.77 C 224.20 86.97 223.75 100.01 225.60 112.27 C 231.02 120.77 242.41 123.40 251.63 125.38 C 253.91 143.72 252.67 162.74 251.54 181.25 C 243.20 184.41 233.67 186.79 227.23 193.28 C 223.81 203.26 225.89 214.46 224.87 224.81 C 214.62 225.49 204.24 225.18 194.10 226.80 C 185.91 232.37 185.62 244.28 180.60 251.81 C 162.31 252.56 143.53 253.79 125.39 251.68 C 123.20 242.16 120.47 230.95 111.64 225.27 C 99.46 224.09 86.94 224.90 74.75 225.82 C 85.72 231.89 91.57 244.23 90.24 256.63 C 132.35 258.66 174.49 257.33 216.63 256.91 C 216.76 235.08 234.76 216.44 256.82 216.78 C 258.04 174.66 258.15 132.52 256.61 90.41 C 244.28 91.41 231.88 85.83 225.89 74.77 M 282.01 78.94 C 281.25 131.66 282.39 184.75 282.15 237.59 C 281.37 239.23 285.88 239.85 285.10 238.02 C 283.53 185.10 286.37 131.07 282.01 78.94 M 269.37 84.04 C 264.52 86.55 269.25 91.95 268.98 96.09 C 268.43 136.45 271.50 176.82 269.38 217.16 C 267.44 219.31 269.84 225.46 273.07 223.86 C 272.33 179.62 274.29 135.31 271.93 91.11 C 270.18 90.31 273.27 82.69 269.37 84.04 M 258.56 88.73 C 256.69 90.17 261.71 90.34 261.03 92.30 C 260.93 134.35 261.13 176.42 260.87 218.49 C 262.39 220.15 266.52 221.33 265.98 217.77 C 265.17 174.91 268.07 131.80 263.79 89.10 C 262.48 89.01 259.87 88.82 258.56 88.73 M 52.43 111.34 C 49.19 112.28 44.98 113.01 43.55 116.51 C 43.76 130.66 41.77 145.16 43.56 159.17 C 48.52 162.20 54.36 164.90 59.87 167.11 C 58.94 161.42 49.93 155.97 55.98 151.79 C 56.50 148.93 49.86 148.91 52.84 145.90 C 57.82 142.49 48.48 139.11 54.85 135.86 C 48.72 129.92 58.95 122.63 53.05 117.13 C 57.92 116.34 58.08 109.29 52.43 111.34 M 231.03 123.90 C 233.27 128.30 235.64 133.14 237.65 136.65 C 230.58 140.08 241.64 142.03 237.73 145.68 C 233.78 148.87 242.38 152.09 236.15 155.14 C 241.72 161.19 232.94 168.99 237.33 174.28 C 227.32 181.04 245.71 181.34 247.45 174.49 C 247.28 160.34 249.11 145.93 247.54 131.86 C 242.76 128.26 236.17 127.16 231.03 123.90 M 71.24 189.26 C 69.77 199.72 70.89 210.27 70.21 220.76 C 80.74 220.22 92.48 221.01 101.86 218.95 C 98.19 204.74 85.79 191.90 71.24 189.26 M 216.13 205.19 C 213.81 209.90 209.90 213.79 205.20 216.14 C 205.50 224.01 215.69 219.27 220.78 220.83 C 219.42 215.52 224.06 205.56 216.13 205.19 M 38.97 207.55 C 23.94 204.64 33.83 221.34 30.89 229.58 C 41.59 228.49 30.85 214.24 35.85 209.14 C 42.24 210.65 33.63 227.83 43.91 224.56 C 52.72 227.18 49.06 214.89 49.71 209.20 C 39.43 205.30 50.14 223.49 42.02 221.84 C 40.36 217.03 47.06 206.46 38.97 207.55 M 24.49 211.22 C 20.65 224.93 26.95 248.88 25.14 265.85 C 42.51 267.04 62.28 266.06 78.58 268.44 C 79.93 267.15 81.11 263.91 78.28 263.71 C 61.97 262.29 45.47 263.46 29.13 262.04 C 25.30 250.93 31.90 238.57 27.25 227.45 C 25.56 223.65 31.16 211.51 24.49 211.22 M 51.97 212.26 C 51.64 221.24 52.77 230.22 52.04 239.19 C 60.71 236.37 71.27 241.62 78.90 238.12 C 76.93 228.61 59.87 238.97 55.10 235.03 C 53.85 228.84 62.03 212.40 51.97 212.26 M 18.19 216.74 C 15.58 230.56 17.54 251.85 20.14 263.99 C 20.03 251.55 24.80 227.69 18.19 216.74 M 57.75 216.97 C 59.52 224.24 56.50 235.75 68.39 232.77 C 78.52 235.86 71.81 228.52 67.48 228.40 C 60.58 228.43 64.10 218.27 57.75 216.97 M 251.55 222.59 C 246.14 224.04 234.35 224.62 236.45 232.38 C 239.83 239.82 231.89 235.55 228.31 236.03 C 220.99 246.01 220.14 260.56 228.87 270.04 C 241.16 264.65 255.80 271.74 268.88 268.89 C 271.10 255.71 264.95 241.51 270.00 228.88 C 264.62 225.37 258.39 221.07 251.55 222.59 M 13.22 227.19 C 9.91 232.87 11.27 244.34 13.89 249.99 C 15.68 242.67 14.20 233.26 13.22 227.19 M 40.39 230.34 C 31.26 237.46 42.12 257.51 54.34 252.85 C 62.78 258.02 62.82 240.82 54.87 241.93 C 44.35 245.11 52.62 226.31 40.39 230.34 M 123.87 231.11 C 126.03 236.65 128.90 242.27 131.72 247.43 C 145.40 249.85 159.73 246.30 173.66 247.65 C 181.32 247.06 181.33 227.01 174.28 237.33 C 168.99 232.94 161.19 241.72 155.14 236.15 C 151.48 242.32 147.83 232.76 143.87 238.96 C 141.32 236.12 139.09 233.57 135.91 237.86 C 133.68 233.91 128.29 233.04 123.87 231.11 M 272.00 231.62 C 271.31 245.35 271.67 259.42 273.14 273.12 C 259.51 271.28 245.35 271.59 231.64 271.95 C 239.96 281.91 255.85 270.19 266.49 276.44 C 272.69 280.51 280.51 272.69 276.44 266.49 C 270.23 255.82 281.83 240.06 272.00 231.62 M 78.22 241.39 C 73.18 242.42 64.11 239.39 66.42 247.11 C 62.88 257.79 82.16 248.23 81.75 255.97 C 74.61 257.66 64.83 250.66 61.19 259.17 C 66.34 261.62 75.46 259.46 81.93 260.86 C 85.79 253.58 84.21 244.29 74.01 249.12 C 56.32 245.89 94.22 245.46 78.22 241.39 M 279.12 244.61 C 279.31 251.12 277.55 259.04 280.02 264.97 C 283.97 261.13 282.29 246.80 279.12 244.61 M 31.30 249.73 C 31.23 256.17 32.86 261.81 41.17 259.85 C 39.18 256.07 34.80 252.26 31.30 249.73 M 88.57 258.23 C 86.51 263.98 91.41 264.66 95.31 264.83 C 136.31 267.32 177.46 265.61 218.51 265.78 C 221.75 265.85 219.39 262.46 218.69 260.89 C 175.91 259.11 128.80 264.87 88.57 258.23 M 86.18 266.98 C 84.56 267.87 82.33 271.63 85.68 271.37 C 131.58 275.22 177.78 271.76 223.80 273.16 C 224.81 265.77 213.94 271.16 209.92 269.97 C 168.72 269.30 127.12 270.71 86.18 266.98 M 26.94 269.82 C 29.42 278.53 46.72 270.05 53.95 272.96 C 58.94 270.63 74.52 279.78 73.55 270.29 C 58.03 269.51 42.47 270.28 26.94 269.82 M 44.33 276.32 C 34.75 279.54 66.20 282.21 62.88 276.88 C 56.69 277.09 50.51 276.05 44.33 276.32 M 244.60 279.04 C 246.78 282.78 261.74 283.61 264.78 280.14 C 259.62 277.22 250.84 279.55 244.60 279.04 M 84.35 281.42 C 77.77 281.97 77.58 282.59 83.78 283.28 C 133.89 285.10 183.92 284.16 234.05 285.16 C 239.37 290.76 240.82 280.80 236.80 282.03 C 185.99 281.85 135.13 282.39 84.35 281.42 Z" />
<path fill="#000000" opacity="1.00" d=" M 24.72 25.05 C 37.08 28.97 51.00 24.29 63.86 27.12 C 64.89 34.35 52.00 27.65 48.04 29.76 C 50.66 35.39 49.91 41.52 48.18 47.30 C 52.72 44.27 72.30 49.24 56.78 49.92 C 44.86 45.75 54.11 60.68 47.88 63.26 C 46.09 58.50 47.43 53.18 47.13 48.18 C 41.40 49.99 35.30 50.57 29.70 48.04 C 27.62 51.90 34.46 65.20 27.09 63.80 C 24.70 51.10 29.18 36.89 24.72 25.05 M 42.50 32.40 C 39.79 37.18 34.58 39.49 32.07 44.04 C 37.52 46.11 43.47 44.62 38.94 38.94 C 44.83 45.45 47.36 32.70 42.50 32.40 Z" />
<path fill="#000000" opacity="1.00" d=" M 53.18 33.01 C 57.15 33.87 67.22 29.88 66.05 37.07 C 62.60 35.42 51.57 39.39 53.18 33.01 Z" />
<path fill="#000000" opacity="1.00" d=" M 53.54 40.32 C 57.69 39.85 62.17 39.41 66.13 41.07 C 66.55 47.73 47.68 44.58 53.54 40.32 Z" />
<path fill="#000000" opacity="1.00" d=" M 233.12 43.06 C 236.87 44.12 244.58 40.36 246.29 45.11 C 242.76 45.64 231.90 49.24 233.12 43.06 Z" />
<path fill="#000000" opacity="1.00" d=" M 246.22 46.07 C 249.62 45.19 250.67 59.90 245.00 57.97 C 245.92 54.61 242.93 48.21 246.22 46.07 Z" />
<path fill="#000000" opacity="1.00" d=" M 40.84 51.70 C 46.30 53.00 46.51 65.68 40.99 66.11 C 39.97 61.46 38.95 56.23 40.84 51.70 Z" />
<path fill="#000000" opacity="1.00" d=" M 33.01 53.11 C 39.51 51.72 34.54 63.13 37.01 66.13 C 29.97 67.00 33.73 57.35 33.01 53.11 Z" />
<path fill="#000000" opacity="1.00" d=" M 127.61 73.51 C 152.17 68.19 175.82 83.75 188.13 103.89 C 222.24 121.19 228.83 172.62 199.39 197.39 C 174.64 228.94 121.42 223.03 103.41 187.59 C 73.47 172.14 62.63 129.52 83.63 102.64 C 94.86 88.90 109.07 75.29 127.61 73.51 M 122.26 93.25 C 119.56 95.12 122.82 98.98 123.16 101.57 C 116.43 99.25 114.01 108.27 113.34 113.29 C 108.41 114.16 99.18 116.35 101.57 123.16 C 98.89 122.20 91.78 118.87 93.41 124.55 C 103.17 126.57 107.06 141.89 118.89 136.13 C 118.08 131.52 113.17 128.98 110.57 125.39 C 115.27 126.94 120.39 126.35 124.82 128.88 C 133.07 124.88 123.73 117.44 124.92 111.01 C 129.02 113.14 131.36 117.94 136.06 119.00 C 140.77 108.11 127.53 99.12 122.26 93.25 M 160.40 96.25 C 155.56 106.10 141.59 110.52 140.36 124.33 C 147.00 125.29 144.98 116.15 149.99 114.89 C 144.20 125.14 154.56 131.46 163.11 128.14 C 161.66 131.11 159.36 135.81 164.47 136.29 C 161.10 146.05 170.97 142.36 176.10 141.04 C 174.84 146.01 165.70 144.01 166.66 150.65 C 180.38 149.88 183.71 135.04 194.53 131.41 C 195.68 125.74 185.49 129.48 182.14 131.25 C 176.54 133.82 185.27 125.82 180.15 124.63 C 172.67 121.40 168.69 130.68 164.88 134.76 C 168.67 127.13 162.84 123.63 156.21 125.45 C 162.26 123.80 171.69 114.12 164.04 109.04 C 152.68 116.23 168.15 97.71 160.40 96.25 M 134.60 130.30 C 127.86 131.71 130.00 140.34 132.46 144.78 C 138.26 145.54 131.65 138.61 133.74 135.74 C 135.89 130.92 141.14 135.17 144.78 134.94 C 145.68 130.07 137.64 130.22 134.60 130.30 M 138.20 136.21 C 131.24 142.91 146.18 139.16 138.20 136.21 M 145.40 137.49 C 141.54 142.17 151.32 150.36 153.97 144.21 C 151.86 141.66 149.10 136.61 145.40 137.49 M 123.61 140.63 C 110.15 141.35 107.21 156.25 96.47 159.59 C 95.52 167.07 109.18 158.45 110.88 159.73 C 104.65 172.22 125.42 165.58 125.36 156.39 C 123.58 162.01 126.87 168.33 134.79 165.55 C 128.74 167.20 119.31 176.88 126.96 181.96 C 137.27 175.69 125.45 189.86 128.88 194.67 C 134.98 196.11 131.78 186.70 137.08 186.06 C 145.50 183.21 147.78 174.11 150.64 166.67 C 144.00 165.70 146.02 174.85 141.01 176.11 C 146.84 166.06 136.41 159.27 128.14 163.11 C 131.14 155.11 126.04 144.01 115.69 149.77 C 113.60 146.80 127.63 145.04 123.61 140.63 M 140.93 144.41 C 132.77 144.77 141.31 153.36 144.92 153.79 C 149.11 150.63 144.07 145.83 140.93 144.41 M 156.07 146.21 C 158.39 151.18 158.09 160.74 150.15 156.75 C 143.04 154.04 147.48 161.54 152.34 160.75 C 162.51 164.68 163.62 146.65 156.07 146.21 M 152.45 150.40 C 145.25 156.96 160.07 153.16 152.45 150.40 M 173.70 154.34 C 169.65 157.45 178.49 162.26 180.03 166.00 C 175.16 165.54 170.60 163.88 166.13 162.11 C 158.92 166.14 165.81 174.05 165.61 180.43 C 162.07 178.48 158.79 171.25 154.45 172.71 C 149.89 184.44 164.26 187.90 166.51 197.54 C 172.09 199.25 168.80 192.06 167.84 189.43 C 174.57 191.74 176.99 182.73 177.66 177.71 C 189.88 178.13 186.80 164.36 197.50 169.47 C 193.78 163.82 183.81 151.95 173.70 154.34 Z" />
<path fill="#000000" opacity="1.00" d=" M 124.64 104.21 C 128.49 106.27 133.12 108.75 133.07 113.73 C 128.97 112.53 127.38 107.32 124.64 104.21 Z" />
<path fill="#000000" opacity="1.00" d=" M 103.51 125.33 C 106.42 128.19 112.33 128.98 113.74 133.08 C 109.10 132.79 106.02 128.84 103.51 125.33 Z" />
<path fill="#000000" opacity="1.00" d=" M 177.26 157.89 C 182.23 157.92 184.70 162.50 186.93 166.28 C 184.12 163.16 178.84 161.81 177.26 157.89 Z" />
<path fill="#000000" opacity="1.00" d=" M 157.94 177.27 C 162.08 178.37 163.41 183.93 165.84 187.25 C 162.02 185.19 158.16 181.92 157.94 177.27 Z" />
<path fill="#000000" opacity="1.00" d=" M 248.20 225.17 C 252.92 225.23 251.38 235.42 250.16 239.30 C 244.59 237.81 245.86 228.37 248.20 225.17 Z" />
<path fill="#000000" opacity="1.00" d=" M 253.99 224.87 C 261.03 224.00 257.26 233.65 257.99 237.89 C 251.49 239.27 256.46 227.86 253.99 224.87 Z" />
<path fill="#000000" opacity="1.00" d=" M 260.99 227.08 C 268.77 235.43 261.19 254.10 265.98 266.24 C 254.02 261.57 239.83 266.98 227.14 263.88 C 226.11 256.65 238.99 263.34 242.96 261.24 C 240.34 255.60 241.09 249.48 242.82 243.70 C 238.28 246.73 218.70 241.76 234.22 241.08 C 246.14 245.24 236.89 230.31 243.12 227.74 C 244.91 232.49 243.56 237.81 243.87 242.82 C 249.60 241.01 255.70 240.42 261.30 242.96 C 261.11 237.67 261.00 232.37 260.99 227.08 M 252.43 246.45 C 246.61 245.37 255.23 254.28 249.93 251.15 C 243.78 245.92 246.00 264.78 249.57 256.55 C 252.96 254.15 265.20 244.12 252.43 246.45 Z" />
<path fill="#000000" opacity="1.00" d=" M 43.06 233.08 C 48.49 231.68 47.79 244.83 43.89 246.29 C 42.07 242.20 43.11 237.42 43.06 233.08 Z" />
<path fill="#000000" opacity="1.00" d=" M 47.43 245.16 C 50.37 246.14 59.81 241.85 57.87 247.94 C 55.24 248.03 41.92 249.92 47.43 245.16 Z" />
<path fill="#000000" opacity="1.00" d=" M 226.55 247.22 C 230.29 248.01 237.50 244.11 238.88 249.42 C 238.83 252.76 220.44 252.10 226.55 247.22 Z" />
<path fill="#000000" opacity="1.00" d=" M 224.95 253.93 C 228.39 255.58 239.43 251.61 237.82 257.99 C 233.84 257.13 223.78 261.12 224.95 253.93 Z" />
</svg>
