<?xml version="1.0" encoding="UTF-8" ?>
<!DOCTYPE svg PUBLIC "-//W3C//DTD SVG 1.1//EN" "http://www.w3.org/Graphics/SVG/1.1/DTD/svg11.dtd">
<svg width="501pt" height="501pt" viewBox="0 0 501 501" version="1.1" xmlns="http://www.w3.org/2000/svg">
<path fill="#000000" opacity="1.00" d=" M 249.63 1.55 C 265.67 15.71 288.02 27.17 310.49 31.12 C 357.55 36.36 407.38 27.63 451.39 49.61 C 461.19 68.81 463.34 90.51 467.50 111.39 C 467.05 158.68 462.37 214.33 499.94 250.14 C 468.53 280.97 465.64 328.46 467.36 370.04 C 468.11 397.72 462.61 425.97 451.39 451.39 C 432.19 461.19 410.49 463.34 389.61 467.50 C 342.32 467.05 286.67 462.37 250.86 499.94 C 220.03 468.53 172.54 465.64 130.96 467.36 C 103.28 468.11 75.03 462.61 49.61 451.39 C 39.81 432.19 37.66 410.49 33.50 389.61 C 33.95 342.32 38.63 286.67 1.06 250.86 C 32.47 220.03 35.36 172.54 33.64 130.96 C 32.89 103.28 38.39 75.03 49.61 49.61 C 68.81 39.81 90.51 37.66 111.39 33.50 C 158.47 33.91 213.78 38.66 249.63 1.55 M 250.14 17.12 C 237.83 31.80 216.97 35.74 198.72 37.49 C 152.25 49.70 101.66 38.02 56.59 56.59 C 38.02 101.45 49.68 151.77 37.56 198.08 C 36.02 216.90 31.45 237.56 17.12 250.86 C 31.80 263.17 35.74 284.03 37.49 302.28 C 49.70 348.75 38.02 399.34 56.59 444.41 C 101.45 462.98 151.77 451.32 198.08 463.44 C 216.90 464.98 237.56 469.55 250.86 483.88 C 263.17 469.20 284.03 465.26 302.28 463.51 C 348.75 451.30 399.34 462.98 444.41 444.41 C 462.98 399.55 451.32 349.23 463.44 302.92 C 464.98 284.10 469.55 263.44 483.88 250.14 C 469.20 237.83 465.26 216.97 463.51 198.72 C 451.30 152.25 462.98 101.66 444.41 56.59 C 399.55 38.02 349.23 49.68 302.92 37.56 C 284.10 36.02 263.44 31.45 250.14 17.12 Z" />
<path fill="#000000" opacity="1.00" d=" M 249.44 39.39 C 258.72 41.06 267.04 50.42 277.69 47.36 C 286.03 49.20 295.89 42.79 302.86 47.11 C 299.41 59.42 276.88 60.47 277.72 76.34 C 290.62 88.98 311.83 87.21 326.22 77.17 C 336.18 78.75 317.44 90.31 324.03 95.50 C 353.56 97.62 371.45 62.00 401.97 66.84 C 411.55 71.40 397.89 76.99 392.74 77.14 C 381.28 77.95 371.23 90.68 374.18 101.84 C 382.34 103.95 392.24 105.15 400.06 100.94 C 396.03 108.80 396.95 118.66 399.16 126.81 C 411.66 130.00 424.12 118.05 424.43 105.57 C 424.83 101.08 430.09 90.47 433.84 98.41 C 440.00 129.31 403.41 147.33 405.57 176.96 C 411.67 181.11 416.80 172.20 423.02 171.17 C 425.63 176.23 420.31 180.32 418.79 184.81 C 412.61 197.14 415.54 212.81 424.01 223.00 C 434.56 224.30 441.85 212.21 446.11 204.19 C 446.60 199.31 455.93 194.66 455.79 202.13 C 452.79 218.03 450.84 235.75 461.61 249.44 C 459.93 258.72 450.58 267.04 453.64 277.69 C 451.80 286.03 458.21 295.89 453.89 302.86 C 441.58 299.41 440.53 276.88 424.66 277.72 C 412.02 290.62 413.79 311.83 423.83 326.22 C 422.25 336.18 410.69 317.44 405.50 324.03 C 403.38 353.56 439.00 371.45 434.16 401.97 C 429.60 411.55 424.00 397.89 423.86 392.74 C 423.05 381.28 410.32 371.23 399.16 374.18 C 397.05 382.34 395.85 392.24 400.06 400.06 C 392.20 396.03 382.34 396.95 374.19 399.16 C 371.00 411.66 382.95 424.12 395.43 424.43 C 399.92 424.83 410.53 430.09 402.59 433.84 C 371.69 440.00 353.67 403.41 324.04 405.57 C 319.88 411.67 328.80 416.80 329.83 423.02 C 324.76 425.63 320.68 420.31 316.19 418.79 C 303.86 412.61 288.19 415.54 278.00 424.01 C 276.70 434.56 288.79 441.85 296.81 446.11 C 301.69 446.60 306.34 455.93 298.87 455.79 C 282.97 452.79 265.25 450.84 251.56 461.61 C 242.28 459.93 233.96 450.58 223.31 453.64 C 214.97 451.80 205.10 458.21 198.14 453.89 C 201.59 441.58 224.11 440.53 223.28 424.66 C 210.38 412.02 189.17 413.79 174.78 423.83 C 164.82 422.25 183.55 410.69 176.97 405.50 C 147.44 403.38 129.55 439.00 99.03 434.16 C 89.45 429.60 103.11 424.00 108.26 423.86 C 119.72 423.05 129.77 410.32 126.82 399.16 C 118.66 397.05 108.76 395.85 100.94 400.06 C 104.97 392.20 104.05 382.34 101.84 374.19 C 89.34 371.00 76.87 382.95 76.57 395.43 C 76.17 399.92 70.91 410.53 67.16 402.59 C 61.00 371.69 97.59 353.67 95.43 324.04 C 89.33 319.88 84.20 328.80 77.98 329.83 C 75.37 324.76 80.69 320.68 82.21 316.19 C 88.39 303.86 85.46 288.19 76.99 278.00 C 66.44 276.70 59.14 288.79 54.89 296.81 C 54.40 301.69 45.06 306.34 45.21 298.87 C 48.21 282.97 50.16 265.25 39.39 251.56 C 41.06 242.28 50.42 233.96 47.36 223.31 C 49.20 214.97 42.79 205.10 47.11 198.14 C 59.42 201.59 60.47 224.11 76.34 223.28 C 88.98 210.38 87.21 189.17 77.17 174.78 C 78.75 164.82 90.31 183.55 95.50 176.97 C 97.62 147.44 62.00 129.55 66.84 99.03 C 71.40 89.45 76.99 103.11 77.14 108.26 C 77.95 119.72 90.68 129.77 101.84 126.82 C 103.95 118.66 105.15 108.76 100.94 100.94 C 108.80 104.97 118.66 104.05 126.81 101.84 C 130.00 89.34 118.05 76.87 105.57 76.57 C 101.08 76.17 90.47 70.91 98.41 67.16 C 129.31 61.00 147.33 97.59 176.96 95.43 C 181.11 89.33 172.20 84.20 171.17 77.98 C 176.23 75.37 180.32 80.69 184.81 82.21 C 197.14 88.39 212.81 85.46 223.00 76.99 C 224.30 66.44 212.21 59.14 204.19 54.89 C 199.31 54.40 194.66 45.06 202.13 45.21 C 218.03 48.21 235.75 50.16 249.44 39.39 M 249.38 92.44 C 227.98 97.25 227.71 131.60 245.82 140.79 C 244.50 128.88 233.88 110.89 250.85 105.38 C 267.14 112.07 256.16 128.73 255.19 140.77 C 274.08 131.37 272.61 94.07 249.38 92.44 M 143.25 124.21 C 137.00 131.40 135.90 138.48 125.29 141.32 C 121.09 152.18 142.16 155.76 144.83 144.83 C 154.55 141.73 153.32 125.16 143.25 124.21 M 356.30 124.31 C 337.75 132.96 363.00 161.96 375.45 147.36 C 380.21 140.48 369.33 136.94 363.96 136.12 C 363.47 131.93 361.87 123.81 356.30 124.31 M 169.44 125.42 C 164.08 126.67 159.31 130.27 163.58 136.12 C 167.88 144.61 178.24 137.51 185.29 139.79 C 208.53 139.84 229.31 150.80 250.88 157.52 C 274.17 148.97 297.66 138.35 323.08 139.56 C 330.04 141.90 340.04 139.33 338.91 130.00 C 334.11 122.89 324.17 125.80 317.14 128.23 C 293.69 131.70 272.36 143.86 250.16 151.66 C 223.87 141.17 197.95 128.03 169.44 125.42 M 129.23 162.01 C 123.17 168.16 125.85 176.78 128.23 183.86 C 131.70 207.31 143.86 228.64 151.66 250.84 C 141.17 277.13 128.03 303.05 125.42 331.56 C 126.67 336.92 130.27 341.68 136.12 337.42 C 144.61 333.12 137.51 322.76 139.79 315.71 C 139.84 292.47 150.80 271.69 157.52 250.12 C 148.97 226.65 138.02 202.87 139.68 177.27 C 142.16 169.99 138.40 160.63 129.23 162.01 M 370.22 162.20 C 361.72 161.55 358.57 170.56 361.33 177.23 C 363.13 203.13 351.34 227.00 343.48 250.88 C 352.02 274.17 362.65 297.66 361.44 323.08 C 359.10 330.04 361.67 340.04 371.00 338.91 C 378.11 334.11 375.20 324.17 372.77 317.14 C 369.29 293.69 357.14 272.36 349.34 250.16 C 359.83 223.87 372.97 197.95 375.58 169.44 C 374.31 167.07 373.53 161.56 370.22 162.20 M 171.51 170.44 C 162.47 199.27 195.51 226.58 223.60 223.60 C 226.31 195.74 201.07 164.84 171.51 170.44 M 316.04 170.61 C 292.15 173.71 275.43 200.55 277.40 223.60 C 305.58 226.36 336.79 200.46 330.40 170.60 C 325.61 169.69 320.82 169.70 316.04 170.61 M 250.12 184.07 C 246.13 189.19 240.56 209.54 250.77 200.66 C 260.27 210.48 254.74 187.26 250.12 184.07 M 110.82 233.35 C 101.46 234.67 93.24 241.18 92.28 250.88 C 96.38 272.91 131.49 273.57 140.79 255.18 C 128.88 256.50 110.89 267.12 105.38 250.15 C 112.07 233.86 128.73 244.84 140.77 245.81 C 135.32 235.85 122.03 230.77 110.82 233.35 M 376.66 233.62 C 370.13 235.26 363.08 239.71 360.21 245.81 C 372.13 244.50 390.11 233.88 395.62 250.85 C 388.93 267.14 372.27 256.16 360.23 255.19 C 369.68 273.50 404.59 272.93 408.72 250.88 C 407.30 235.90 389.59 230.43 376.66 233.62 M 200.23 244.56 C 195.22 246.32 187.47 246.90 184.05 250.91 C 190.01 252.85 196.49 258.12 202.80 255.77 C 207.18 253.12 196.97 250.56 202.05 249.06 C 205.75 247.89 203.26 244.04 200.23 244.56 M 300.29 244.33 C 297.66 244.56 295.68 247.73 298.86 248.94 C 303.88 251.06 293.81 253.13 298.24 255.73 C 304.31 257.54 311.16 253.23 316.93 250.88 C 313.34 246.80 305.41 246.28 300.29 244.33 M 210.17 277.71 C 187.12 283.73 164.85 304.63 170.60 330.40 C 200.66 337.15 226.22 305.46 223.60 277.40 C 219.13 277.28 214.60 277.04 210.17 277.71 M 277.40 277.40 C 274.64 305.58 300.54 336.79 330.40 330.40 C 337.15 300.34 305.46 274.78 277.40 277.40 M 246.23 297.14 C 242.14 302.57 247.67 312.40 250.88 316.93 C 252.54 311.25 260.99 300.34 253.31 297.21 C 251.15 302.70 249.36 298.27 246.23 297.14 M 250.12 343.48 C 226.83 352.02 203.33 362.65 177.92 361.44 C 170.96 359.10 160.96 361.67 162.09 371.00 C 166.89 378.11 176.83 375.20 183.86 372.77 C 207.31 369.29 228.64 357.14 250.84 349.34 C 273.57 358.17 295.79 369.79 319.99 373.72 C 326.34 375.72 333.70 377.10 339.00 371.76 C 339.30 365.52 335.03 358.97 328.04 360.50 C 300.95 365.12 275.15 351.45 250.12 343.48 M 133.42 349.45 C 125.17 349.58 119.71 361.23 130.91 363.21 C 139.84 361.17 136.73 380.89 146.72 375.83 C 158.91 366.53 144.56 349.75 133.42 349.45 M 365.27 349.32 C 355.33 352.42 342.50 366.71 354.28 375.83 C 364.49 380.95 360.95 361.07 369.92 363.07 C 382.95 360.79 373.92 347.77 365.27 349.32 M 244.43 360.46 C 227.75 371.91 228.45 404.31 250.12 408.72 C 272.78 405.69 273.85 369.53 255.18 360.21 C 256.50 372.12 267.12 390.11 250.15 395.62 C 232.15 389.74 248.10 368.78 244.43 360.46 Z" />
<path fill="#000000" opacity="1.00" d=" M 184.00 54.53 C 194.34 55.60 204.61 64.98 211.21 72.49 C 202.79 72.76 197.43 64.04 189.43 62.18 C 185.86 61.81 180.84 58.02 184.00 54.53 Z" />
<path fill="#000000" opacity="1.00" d=" M 312.95 54.51 C 318.91 51.64 319.51 60.89 313.98 61.27 C 304.87 62.72 299.01 72.50 289.76 72.50 C 294.99 64.43 305.06 59.88 312.95 54.51 Z" />
<path fill="#000000" opacity="1.00" d=" M 164.53 60.32 C 175.79 60.45 188.90 66.45 195.64 75.28 C 191.37 80.16 183.12 69.91 177.50 69.57 C 173.64 68.05 159.32 66.61 164.53 60.32 Z" />
<path fill="#000000" opacity="1.00" d=" M 330.72 60.36 C 341.39 56.51 337.93 68.20 330.41 67.52 C 320.89 67.46 314.03 77.70 305.00 76.08 C 309.47 65.94 321.96 65.12 330.72 60.36 Z" />
<path fill="#000000" opacity="1.00" d=" M 140.36 68.32 C 147.72 69.16 153.69 75.50 160.15 79.02 C 155.25 86.13 138.36 73.03 140.36 68.32 Z" />
<path fill="#000000" opacity="1.00" d=" M 358.44 68.31 C 367.93 69.57 344.86 87.27 340.86 79.02 C 346.50 75.14 352.35 71.45 358.44 68.31 Z" />
<path fill="#000000" opacity="1.00" d=" M 100.28 79.60 C 106.04 80.55 113.06 84.51 114.54 90.71 C 106.20 100.35 98.34 85.62 88.28 88.28 C 85.62 98.34 100.35 106.20 90.71 114.54 C 76.93 110.46 78.76 91.93 83.57 82.55 C 89.24 82.13 94.78 80.99 100.28 79.60 Z" />
<path fill="#000000" opacity="1.00" d=" M 399.99 79.50 C 405.77 80.71 411.48 82.24 417.43 82.55 C 422.23 91.93 424.07 110.46 410.29 114.54 C 400.65 106.20 415.38 98.34 412.72 88.28 C 402.66 85.62 394.80 100.35 386.46 90.71 C 387.80 84.51 394.57 81.34 399.99 79.50 Z" />
<path fill="#000000" opacity="1.00" d=" M 68.98 139.04 C 74.23 142.26 85.86 154.32 79.02 160.14 C 76.23 153.36 66.72 146.78 68.98 139.04 Z" />
<path fill="#000000" opacity="1.00" d=" M 431.33 139.29 C 435.76 144.75 424.34 154.03 421.98 160.14 C 415.04 154.46 426.66 142.95 431.33 139.29 Z" />
<path fill="#000000" opacity="1.00" d=" M 61.23 163.28 C 67.96 162.69 67.06 172.30 69.28 176.70 C 69.48 183.88 78.91 188.68 76.08 196.00 C 66.18 189.82 59.63 173.84 61.23 163.28 Z" />
<path fill="#000000" opacity="1.00" d=" M 437.38 163.11 C 443.37 162.20 440.94 170.96 439.22 174.21 C 435.13 181.24 433.80 194.43 424.23 195.47 C 427.33 184.65 432.04 172.98 437.38 163.11 Z" />
<path fill="#000000" opacity="1.00" d=" M 182.15 182.15 C 186.29 181.88 194.10 185.91 190.68 190.68 C 185.91 194.10 181.88 186.29 182.15 182.15 Z" />
<path fill="#000000" opacity="1.00" d=" M 316.48 182.37 C 322.76 181.60 314.15 196.50 309.91 190.11 C 307.71 186.18 313.22 183.12 316.48 182.37 Z" />
<path fill="#000000" opacity="1.00" d=" M 55.54 183.20 C 61.73 181.91 61.30 189.69 63.72 193.25 C 65.87 199.00 74.28 205.64 71.90 211.01 C 65.68 203.92 52.83 192.86 55.54 183.20 Z" />
<path fill="#000000" opacity="1.00" d=" M 442.58 183.34 C 448.62 181.27 447.08 189.70 444.25 192.21 C 438.63 198.13 435.85 207.44 428.51 211.21 C 430.37 201.33 438.16 192.09 442.58 183.34 Z" />
<path fill="#000000" opacity="1.00" d=" M 71.29 290.21 C 75.15 295.53 63.02 304.64 61.96 312.18 C 62.41 318.23 51.89 320.43 54.51 312.94 C 59.38 305.09 64.60 296.47 71.29 290.21 Z" />
<path fill="#000000" opacity="1.00" d=" M 428.50 289.76 C 436.55 294.75 440.64 304.81 446.28 312.31 C 449.76 318.32 440.51 320.05 439.70 314.02 C 438.12 304.93 428.61 298.96 428.50 289.76 Z" />
<path fill="#000000" opacity="1.00" d=" M 75.28 305.36 C 79.71 311.88 67.00 321.57 67.66 330.27 C 68.25 336.14 58.27 342.72 60.06 332.21 C 63.61 322.87 66.23 310.78 75.28 305.36 Z" />
<path fill="#000000" opacity="1.00" d=" M 424.92 305.00 C 435.23 311.34 440.05 325.94 440.56 337.45 C 433.25 339.48 433.90 328.77 431.72 324.30 C 431.52 317.12 422.09 312.32 424.92 305.00 Z" />
<path fill="#000000" opacity="1.00" d=" M 188.17 309.33 C 196.34 311.26 187.48 320.21 182.15 318.85 C 182.21 315.05 184.17 310.32 188.17 309.33 Z" />
<path fill="#000000" opacity="1.00" d=" M 312.13 309.23 C 316.57 309.69 318.80 314.87 318.85 318.85 C 313.93 319.78 305.01 312.61 312.13 309.23 Z" />
<path fill="#000000" opacity="1.00" d=" M 79.02 340.86 C 85.86 346.68 74.23 358.73 68.98 361.96 C 66.72 354.22 76.23 347.64 79.02 340.86 Z" />
<path fill="#000000" opacity="1.00" d=" M 421.13 340.89 C 425.31 346.70 433.84 354.34 432.02 361.96 C 426.36 358.28 416.49 348.09 421.13 340.89 Z" />
<path fill="#000000" opacity="1.00" d=" M 90.04 386.59 C 100.89 393.32 85.66 403.00 88.28 412.72 C 98.34 415.38 106.20 400.65 114.54 410.29 C 110.49 423.53 94.00 422.08 83.57 418.45 C 78.99 409.05 76.82 391.46 90.04 386.59 Z" />
<path fill="#000000" opacity="1.00" d=" M 410.29 386.46 C 423.53 390.51 422.08 407.00 418.45 417.43 C 409.07 422.23 390.54 424.07 386.46 410.29 C 394.80 400.65 402.66 415.38 412.72 412.72 C 415.38 402.66 400.65 394.80 410.29 386.46 Z" />
<path fill="#000000" opacity="1.00" d=" M 157.07 419.42 C 165.01 423.37 146.95 428.68 143.92 432.08 C 131.81 433.61 151.01 418.94 157.07 419.42 Z" />
<path fill="#000000" opacity="1.00" d=" M 343.20 419.35 C 350.72 420.53 358.33 425.39 361.96 432.02 C 356.11 433.51 339.53 423.83 343.20 419.35 Z" />
<path fill="#000000" opacity="1.00" d=" M 192.35 424.31 C 200.12 423.55 191.50 432.16 188.08 433.22 C 179.73 435.14 172.55 442.50 163.55 440.56 C 161.30 434.11 170.49 433.92 174.56 432.38 C 181.47 431.77 186.10 426.29 192.35 424.31 Z" />
<path fill="#000000" opacity="1.00" d=" M 306.29 424.20 C 315.49 425.48 322.64 433.20 332.29 433.93 C 338.66 433.93 340.58 444.25 331.37 440.87 C 323.55 436.96 305.42 433.64 306.29 424.20 Z" />
<path fill="#000000" opacity="1.00" d=" M 208.00 428.54 C 215.41 427.59 205.93 434.66 203.81 436.01 C 197.33 439.23 192.37 446.79 184.67 446.69 C 180.68 444.81 184.62 439.23 188.21 439.26 C 195.61 437.23 201.07 431.44 208.00 428.54 Z" />
<path fill="#000000" opacity="1.00" d=" M 289.79 428.51 C 298.41 428.32 303.90 437.27 312.18 439.04 C 318.23 438.59 320.43 449.11 312.94 446.49 C 305.10 441.12 294.97 436.49 289.79 428.51 Z" />
</svg>
