<?xml version="1.0" encoding="UTF-8" standalone="no"?>
<!-- Created with Inkscape (http://www.inkscape.org/) -->

<svg
   xmlns:dc="http://purl.org/dc/elements/1.1/"
   xmlns:cc="http://creativecommons.org/ns#"
   xmlns:rdf="http://www.w3.org/1999/02/22-rdf-syntax-ns#"
   xmlns:svg="http://www.w3.org/2000/svg"
   xmlns="http://www.w3.org/2000/svg"
   xmlns:sodipodi="http://sodipodi.sourceforge.net/DTD/sodipodi-0.dtd"
   xmlns:inkscape="http://www.inkscape.org/namespaces/inkscape"
   id="svg4176"
   version="1.1"
   inkscape:version="0.91 r13725"
   width="474.375"
   height="684.375"
   viewBox="0 0 474.375 684.375"
   sodipodi:docname="TallMountainBluebells.svg">
  <metadata
     id="metadata4182">
    <rdf:RDF>
      <cc:Work
         rdf:about="">
        <dc:format>image/svg+xml</dc:format>
        <dc:type
           rdf:resource="http://purl.org/dc/dcmitype/StillImage" />
        <dc:title></dc:title>
      </cc:Work>
    </rdf:RDF>
  </metadata>
  <defs
     id="defs4180" />
  <sodipodi:namedview
     pagecolor="#ffffff"
     bordercolor="#666666"
     borderopacity="1"
     objecttolerance="10"
     gridtolerance="10"
     guidetolerance="10"
     inkscape:pageopacity="0"
     inkscape:pageshadow="2"
     inkscape:window-width="1600"
     inkscape:window-height="837"
     id="namedview4178"
     showgrid="false"
     inkscape:zoom="0.97899543"
     inkscape:cx="237.1875"
     inkscape:cy="342.1875"
     inkscape:window-x="-8"
     inkscape:window-y="-8"
     inkscape:window-maximized="1"
     inkscape:current-layer="svg4176" />
  <path
     style="fill:#000000"
     d="m 223.71449,678.98437 c -1.83361,-6.0717 -2.0429,-6.59731 -6.25281,-15.70312 -1.66873,-3.60938 -4.02142,-7.7445 -5.2282,-9.18918 -3.67577,-4.40039 -11.62911,-10.76924 -14.27057,-11.42755 -1.37179,-0.34189 -3.75978,-1.19553 -5.30666,-1.897 -8.63735,-3.91677 -9.8948,-4.28609 -39.84375,-11.70258 -3.86719,-0.95766 -8.29687,-2.22405 -9.84375,-2.8142 -4.68351,-1.78681 -11.55607,-2.83814 -24.84375,-3.80049 -19.511025,-1.41307 -36.306502,-4.90948 -47.485433,-9.88532 -1.624801,-0.72321 -3.523239,-1.31758 -4.21875,-1.32084 -0.695512,-0.003 -4.639567,-1.73057 -8.764567,-3.8385 -4.125,-2.10792 -10.242188,-5.21402 -13.59375,-6.90242 C 37.151844,597.02182 30.367484,591.88922 23.19286,584.7146 8.3732462,569.89498 1.4681699,548.96537 0.43272398,515.72754 -0.22280286,494.68513 1.8538491,487.33655 8.7454804,486.31145 c 1.6352986,-0.24325 6.9810816,0.49482 11.8795196,1.64013 4.898437,1.14533 12.492187,2.85444 16.875,3.79803 4.382812,0.9436 10.6151,2.69377 13.849527,3.88926 7.328515,2.70874 8.732123,2.7479 5.261278,0.14679 C 43.585648,486.02441 30.00288,466.10388 23.91918,447.84 c -1.340375,-4.02394 -2.888917,-10.98488 -3.441204,-15.46875 -1.378838,-11.19441 -0.411355,-50.63456 1.395841,-56.9025 3.800001,-13.17963 8.43645,-25.95916 9.576813,-26.39676 2.971093,-1.14011 11.708647,3.66525 28.393556,15.61551 1.799785,1.28906 4.688685,3.1875 6.419778,4.21875 1.731093,1.03125 5.354095,3.40394 8.051114,5.27266 5.391802,3.73587 18.845351,12.42913 24.341422,15.72866 1.92515,1.15574 4.35683,3.19031 5.40376,4.52126 2.48762,3.1625 3.03641,2.46194 1.08235,-1.3817 C 97.139325,377.30462 87.847895,359.82774 83.586083,352.5 73.363607,334.92351 69.238132,326.64709 68.514794,322.26438 c -1.241391,-7.52158 1.329674,-7.89687 18.016258,-2.62975 11.383061,3.59306 21.270118,5.48512 34.406448,6.58428 32.35344,2.70711 35.73131,3.19121 44.0625,6.31468 17.36579,6.51068 24.91008,12.98646 32.54452,27.93516 13.23788,25.92063 19.73788,52.90474 18.7449,77.81769 l -0.52335,13.13021 2.69725,3.61744 2.69723,3.61746 0.645,-2.56989 c 0.35476,-1.41344 0.41385,-13.37957 0.13134,-26.5914 -0.28253,-13.21184 -0.65812,-48.1733 -0.83466,-77.69216 -0.17654,-29.51886 -0.58001,-53.67121 -0.89661,-53.67187 -1.47338,-0.003 -5.51812,-7.42815 -5.51812,-10.12975 0,-2.73436 -0.26653,-3.00556 -3.04688,-3.10025 -1.67578,-0.0571 -4.01843,-0.024 -5.20589,0.0736 -1.18745,0.0976 -2.66401,-0.22897 -3.28125,-0.72561 -0.61723,-0.49664 -4.67182,-1.79256 -9.01021,-2.87981 -10.09308,-2.52944 -11.68085,-3.88707 -10.86996,-9.29445 0.33544,-2.23687 1.78081,-6.67628 3.21194,-9.86537 2.45374,-5.46785 4.01405,-6.98309 8.74912,-8.4964 0.90235,-0.28838 1.64063,-1.00459 1.64063,-1.59156 0,-0.6711 -0.60894,-0.7947 -1.64063,-0.333 -0.90234,0.40382 -3.32549,0.76537 -5.38476,0.80342 -3.55303,0.0657 -3.80864,-0.1222 -5.0079,-3.68079 -0.69507,-2.0625 -1.33053,-7.5646 -1.41212,-12.22689 -0.16048,-9.17081 1.33231,-13.25903 5.21194,-14.27357 2.11099,-0.55204 2.20624,1.12063 -1.13349,-19.90579 -1.02374,-6.44531 -2.71602,-18.86152 -3.76062,-27.59155 -1.86144,-15.5566 -2.80992,-20.09533 -2.80992,-13.44626 0,2.17826 -0.51499,3.53483 -1.48293,3.90626 -2.1104,0.80984 -2.05487,0.85691 -2.75617,-2.33611 -0.90565,-4.12337 -2.10981,-2.35302 -3.74996,5.51318 -2.54624,12.21185 -4.08162,30.1271 -3.27152,38.17323 0.4153,4.125 0.56827,7.80737 0.33992,8.18304 -0.22834,0.37567 0.52635,1.95652 1.67711,3.513 3.47528,4.70057 3.38858,17.8045 -0.17816,26.92625 -1.35751,3.47176 -4.58302,4.93508 -9.04182,4.10198 -2.38116,-0.44489 -4.29952,-0.36747 -4.86329,0.1963 -0.61633,0.61633 -2.29746,0.55172 -4.97396,-0.19119 -2.22364,-0.61719 -5.58677,-1.24997 -7.47364,-1.40618 -3.81561,-0.31588 -9.67226,-3.53566 -10.53881,-5.79384 -1.33391,-3.47614 1.00423,-14.05893 5.0849,-23.01502 1.22537,-2.68942 4.92188,-5.78041 8.13076,-6.79886 2.15855,-0.6851 2.80338,-2.83232 4.95414,-16.49673 1.63291,-10.37436 5.47831,-26.94977 7.56608,-32.61329 2.20407,-5.97898 2.27218,-6.74497 0.38794,-4.36277 -1.33807,1.69169 -1.51693,1.70797 -2.54058,0.23111 -0.94311,-1.36067 -1.8048,-0.21691 -6.0035,7.96875 -19.23485,37.49968 -18.08055,34.35405 -16.75192,45.6512 0.57667,4.90332 0.39651,5.5205 -3.67283,12.5819 -2.3536,4.0841 -4.27926,7.71012 -4.27926,8.05782 0,1.60421 -3.83923,3.93063 -5.68853,3.44703 -1.1001,-0.28768 -2.98131,-0.076 -4.18045,0.47032 -3.28624,1.49732 -6.6176,0.19897 -8.87933,-3.46059 -1.57606,-2.55011 -2.48154,-3.17011 -4.06181,-2.78123 -2.69296,0.6627 -8.652014,-4.26234 -10.495439,-8.67428 -1.658847,-3.97018 -1.794442,-8.85347 -0.287672,-10.36024 0.834018,-0.83402 0.666797,-1.22914 -0.703128,-1.66139 C 92.215076,210.11992 90.773437,209.46119 90,208.968 c -0.773438,-0.49319 -2.563739,-1.62291 -3.978447,-2.51048 -1.414709,-0.88757 -2.574866,-1.95851 -2.578125,-2.37985 -0.0033,-0.42135 -1.482491,-2.15866 -3.287178,-3.8607 -5.742137,-5.41553 -4.604163,-9.28717 5.832037,-19.8419 3.083905,-3.11894 4.895499,-4.14271 8.210157,-4.63978 2.339222,-0.35079 5.089481,-0.41909 6.111696,-0.15177 1.78864,0.46774 5.36111,-2.79662 18.63881,-17.03126 1.74224,-1.86781 5.32818,-5.63351 7.96875,-8.36825 2.64058,-2.73472 4.06277,-4.69349 3.16042,-4.35282 -1.234,0.4659 -1.64062,0.13786 -1.64062,-1.32356 0,-2.65329 11.76964,-14.26745 16.44019,-16.22302 2.04383,-0.85577 6.88012,-2.51575 10.74731,-3.68885 13.58621,-4.12139 15.46475,-5.28891 33.98535,-21.12215 8.62822,-7.37626 18.29737,-12.880347 25.66462,-14.609396 l 4.80623,-1.12799 -1.75367,-2.383737 c -4.15236,-5.644235 -4.45908,-19.467943 -0.70186,-31.632413 3.48637,-11.287525 24.05979,-53.09541465 26.3456,-53.53772002 1.03808,-0.20086779 2.05799,1.25819842 3.41524,4.88576412 1.06433,2.844688 4.01699,9.3206969 6.56145,14.3911299 2.54446,5.070434 5.08452,10.920691 5.64457,13.000572 1.61367,5.99273 3.80879,19.23843 3.82769,23.09698 0.0293,5.95892 -3.64939,20.387023 -6.97467,27.355975 -3.44599,7.2219 -6.57174,10.589033 -14.80493,15.948175 -2.96484,1.92988 -5.39062,3.79585 -5.39062,4.14661 0,0.35076 0.57642,1.4699 1.28093,2.48696 0.70452,1.01708 2.23726,4.80236 3.40611,8.41173 4.176,12.89546 4.59902,14.044 4.6432,12.60666 0.13328,-4.33542 13.23581,-27.204322 18.19343,-31.754451 1.52334,-1.398138 2.47633,-3.263128 2.47633,-4.846159 0,-5.592219 4.47133,-20.332321 7.93618,-26.1623 1.07257,-1.804688 2.57335,-4.532443 3.33509,-6.061679 2.09444,-4.204721 18.99575,-21.342612 23.09539,-23.418683 1.98114,-1.003261 4.65678,-2.743651 5.94584,-3.86753 4.22517,-3.683754 11.37563,-8.839608 12.25931,-8.839608 2.19793,0 0.49248,6.596534 -3.96958,15.353903 -4.06512,7.978349 -5.09683,11.090553 -6.4775,19.539783 -1.35999,8.322751 -2.2526,11.054727 -5.19381,15.896482 -1.95338,3.2156 -5.37035,7.589221 -7.59327,9.719156 l -4.04169,3.872611 2.00487,1.793408 c 4.79662,4.290697 12.43745,20.608717 13.43442,28.690967 1.10053,8.92183 1.55438,10.10034 5.80356,15.06999 2.30781,2.6991 5.02315,6.77234 6.03409,9.05167 1.01094,2.27931 3.51748,5.58172 5.57009,7.33867 2.0526,1.75695 3.73201,3.62381 3.73201,4.14856 0,0.52476 0.94922,2.28486 2.10937,3.91133 1.60628,2.25191 2.14801,4.41061 2.27138,9.05097 0.15306,5.75751 0.87039,9.27624 4.52641,22.20358 3.88206,13.72657 5.35289,17.95421 7.74503,22.2616 2.16275,3.89433 3.26261,4.8531 6.99055,6.09375 2.43319,0.80978 5.02434,2.10513 5.75811,2.87857 0.73377,0.77344 2.62877,5.41406 4.21114,10.3125 4.18373,12.95138 4.1887,15.39953 0.0409,20.12363 -1.6003,1.82263 -3.7299,3.31387 -4.73248,3.31387 -1.00256,0 -2.77712,1.1094 -3.94344,2.46533 -1.43627,1.66978 -3.61511,2.74218 -6.7519,3.32323 -2.54723,0.47183 -5.68601,1.07331 -6.97507,1.33663 -1.28906,0.2633 -4.875,-0.33701 -7.96875,-1.33406 -5.47418,-1.7642 -5.633,-1.76587 -5.92323,-0.0623 -0.47957,2.81506 -7.91511,10.20862 -10.2666,10.20862 -1.15415,0 -2.0914,0.58033 -2.0914,1.29498 0,1.87386 -6.04958,6.20502 -8.66693,6.20502 -1.22623,0 -3.04735,0.74165 -4.04692,1.6481 -3.86668,3.50647 -7.22015,5.09103 -9.932,4.69302 -2.55963,-0.37568 -2.70905,-0.23088 -2.19181,2.12414 1.09147,4.9694 -1.90968,8.85597 -10.06876,13.0393 -4.0848,2.09437 -8.34331,3.82136 -9.46337,3.83775 -1.12005,0.0164 -2.85538,0.64922 -3.85627,1.40625 -2.71088,2.05042 -6.21753,1.68145 -12.06847,-1.26983 l -5.24626,-2.64626 -1.93668,1.93667 c -2.16805,2.16805 -6.62503,2.483 -16.78514,1.18613 l -5.98136,-0.76347 0.60398,39.66972 c 0.33218,21.81835 0.84216,58.98339 1.13329,82.58899 l 0.5293,42.91925 3.6762,7.95713 c 3.52602,7.63206 4.53621,11.67311 2.91804,11.67311 -0.41698,0 -2.1239,-3.05859 -3.79317,-6.79688 -1.66925,-3.73828 -3.86293,-8.6085 -4.87481,-10.82272 -2.28472,-4.99944 -12.17079,-19.22096 -12.87318,-18.51858 -0.28396,0.28396 0.84119,2.40655 2.50033,4.71687 2.88194,4.01304 6.49134,11.81599 10.63156,22.98381 1.8053,4.8696 1.96373,8.3876 2.84984,63.28125 1.36184,84.36477 1.38138,77.8125 -0.23207,77.8125 -0.76637,0 -1.52192,-0.84375 -1.67897,-1.875 -0.15705,-1.03125 -1.08075,-3.77344 -2.05265,-6.09375 -0.97191,-2.32031 -3.1072,-7.59375 -4.74509,-11.71875 -1.63789,-4.125 -3.41878,-7.92188 -3.95754,-8.4375 -1.04018,-0.99552 -1.04762,-1.01972 2.30756,7.5 4.14784,10.53252 8.47009,22.64211 8.86742,24.84375 0.38561,2.13665 0.32418,2.18662 -0.69513,0.56552 -1.36302,-2.1677 -4.79862,-10.79765 -8.06277,-20.25302 -2.97212,-8.60939 -6.77413,-15.98056 -11.12184,-21.5625 -1.80726,-2.32031 -4.34457,-6.39292 -5.63847,-9.05023 -4.04829,-8.31407 -25.26465,-25.59102 -38.59602,-31.4296 -2.4657,-1.07986 -5.53778,-2.69936 -6.82684,-3.59886 -1.28906,-0.89951 -5.50781,-3.22164 -9.375,-5.1603 -3.86719,-1.93865 -8.29688,-4.4464 -9.84375,-5.57278 -1.54688,-1.12638 -6.9456,-4.33655 -11.99718,-7.13372 -14.07838,-7.79552 -16.80866,-9.43924 -23.241279,-13.99201 -3.278382,-2.32031 -10.010464,-6.75 -14.960193,-9.84375 -9.202661,-5.75198 -23.865142,-18.35351 -23.261779,-19.99213 0.184487,-0.50103 4.339232,2.64427 9.232766,6.98956 4.893535,4.34529 11.767557,9.60569 15.275606,11.68978 3.508048,2.0841 9.62925,6.01344 13.602665,8.73188 8.801424,6.02156 19.082984,12.28241 27.849394,16.9586 3.60937,1.92532 7.40625,4.21566 8.4375,5.08963 1.03125,0.87399 4.40625,2.88991 7.5,4.47984 3.09375,1.58992 9,4.69936 13.125,6.90985 4.125,2.21049 8.76562,4.68833 10.3125,5.50631 6.24554,3.30259 15.064,9.16048 19.12965,12.70736 10.0694,8.78459 10.31554,8.75023 3.41664,-0.47693 -2.12036,-2.83594 -4.87433,-6.84375 -6.11996,-8.90625 -1.24562,-2.0625 -3.76361,-5.55842 -5.59554,-7.76871 -4.11417,-4.96388 -27.11855,-28.47084 -32.86204,-33.57998 -2.32031,-2.06404 -7.15104,-7.10497 -10.73497,-11.20206 -3.58392,-4.09709 -12.65941,-13.77738 -20.16779,-21.51175 -16.634124,-17.13484 -30.249278,-32.00191 -33.815223,-36.92455 -1.461995,-2.01822 -3.09948,-3.94225 -3.638854,-4.27559 -0.539373,-0.33336 -3.147368,-3.85595 -5.795543,-7.82798 C 67.574446,418.09359 62.290851,410.41406 58.481299,405 46.727667,388.29596 44.871718,385.2809 38.000944,371.72877 l -6.659309,-13.13502 -2.058019,6.5625 c -1.13191,3.60937 -2.508,9.09375 -3.057978,12.1875 -0.549977,3.09375 -1.43799,7.61605 -1.973361,10.04955 -0.60974,2.77154 -0.749872,11.10172 -0.375085,22.29704 0.72734,21.7265 2.690695,34.54004 7.110161,46.40341 2.412297,6.47543 3.069427,7.53305 8.026206,12.91767 2.003587,2.17653 4.783838,5.48609 6.178335,7.35458 8.234458,11.03336 27.308207,29.28264 37.308106,35.69546 11.01723,7.06521 29.78452,15.66462 43.59375,19.97519 6.1875,1.93144 11.88281,3.87638 12.65625,4.32211 0.77344,0.44571 3.9375,2.00863 7.03125,3.47315 7.29388,3.45274 19.36072,10.71699 25.35978,15.26661 2.60412,1.97494 6.3515,4.26631 8.32748,5.09194 7.35681,3.07386 20.03778,17.82021 23.35021,27.15329 0.732,2.0625 2.90155,7.09264 4.82121,11.17808 6.47321,13.77641 14.13464,35.80881 15.07351,43.34775 0.37495,3.01079 1.21718,6.31792 1.87163,7.34917 1.68611,2.65691 6.97743,18.05824 6.97743,20.30907 0,2.0614 -1.81091,1.93079 -2.89255,-0.20862 -0.37552,-0.74274 -1.41908,-4.09264 -2.31903,-7.4442 -0.89995,-3.35156 -2.59656,-7.80484 -3.77023,-9.89617 -1.17368,-2.09132 -9.8789,-11.58805 -19.34495,-21.10382 -18.89206,-18.99132 -16.54824,-15.56199 -30.07238,-44.00001 -7.27247,-15.29225 -13.66368,-24.91518 -22.69461,-34.17014 -10.36995,-10.6272 -16.6949,-14.73092 -30,-19.46445 C 108.98602,529.15522 87.02143,518.80153 81.153549,514.70796 70.213601,507.07599 60.919587,501.84458 56.25,500.69027 c -1.804688,-0.44612 -6.867188,-1.86542 -11.25,-3.154 -21.009333,-6.17692 -34.719888,-8.80942 -34.666836,-6.65621 0.01136,0.46128 1.957956,2.94806 4.325756,5.52619 2.367799,2.57812 5.838969,6.56914 7.713709,8.86892 5.842725,7.16738 35.958954,38.06762 50.798595,52.12102 3.841765,3.63822 8.32704,8.0679 9.96728,9.84375 4.147284,4.49016 15.199846,13.07256 16.835062,13.07256 0.283404,0 2.920094,1.82887 5.859314,4.06416 5.87954,4.47144 28.04148,16.56084 30.35883,16.56084 0.80205,0 6.03,2.28089 11.61766,5.06864 10.70698,5.34185 17.8128,8.64955 29.37813,13.67531 3.86719,1.68051 8.92969,4.13621 11.25,5.45711 4.01827,2.28751 3.85132,2.0257 -3.51273,-5.50908 -4.25231,-4.3509 -9.16688,-10.09793 -10.92127,-12.77117 -1.75439,-2.67324 -3.66125,-5.41543 -4.23746,-6.09375 -0.5762,-0.67832 -5.27627,-6.92862 -10.44457,-13.88956 -5.16831,-6.96094 -10.96197,-14.02107 -12.87482,-15.68918 -1.91285,-1.66811 -3.00745,-3.0392 -2.43246,-3.04687 1.66679,-0.0222 5.92378,3.6872 9.12652,7.95264 1.62417,2.16309 4.82198,6.42347 7.10625,9.46753 2.28427,3.04404 4.40566,5.74557 4.71422,6.00338 0.30855,0.25781 3.59351,4.71788 7.2999,9.91128 6.35204,8.90045 27.04022,31.13895 32.07574,34.47938 1.4841,0.98452 1.98266,1.85236 1.39928,2.43574 -0.58338,0.58338 -2.5717,-0.21808 -5.58053,-2.24942 -2.57084,-1.73564 -4.93119,-2.99691 -5.24522,-2.80282 -0.31404,0.19409 -2.84812,-0.51598 -5.63129,-1.57791 -10.07582,-3.84449 -31.16959,-10.79485 -56.62281,-18.65712 -6.70312,-2.07054 -16.19531,-5.01198 -21.09375,-6.53654 -4.89844,-1.52457 -13.125,-3.84548 -18.28125,-5.1576 -9.227499,-2.34813 -16.024907,-4.91383 -15.201062,-5.73768 0.230979,-0.23097 3.745708,0.67373 7.810511,2.01047 4.064804,1.33673 9.078051,2.78801 11.140551,3.22505 2.0625,0.43705 5.85938,1.40702 8.4375,2.15549 14.99854,4.35435 37.94978,11.34953 46.875,14.28676 5.67188,1.86659 14.32031,4.68691 19.21875,6.2674 4.89844,1.58048 11.17358,3.87461 13.94478,5.09807 2.77119,1.22344 5.50177,2.22445 6.06798,2.22445 2.51222,0 -7.01956,-5.13158 -20.01276,-10.77418 -4.38281,-1.90334 -14.29687,-6.43139 -22.03125,-10.06234 -7.73437,-3.63094 -14.90625,-6.9475 -15.9375,-7.37013 -11.23159,-4.60293 -15.25529,-6.82827 -31.50274,-17.42274 -3.298488,-2.15085 -7.713026,-4.98127 -9.810075,-6.28981 -8.491174,-5.29843 -60.881329,-57.41286 -76.473208,-76.07074 -1.733312,-2.07415 -4.610528,-5.36584 -6.3938123,-7.31488 -3.2160368,-3.51496 -3.2493002,-3.52619 -4.1010927,-1.38506 -1.4176704,3.56355 -1.863295,25.84534 -0.7275296,36.37738 0.9823143,9.10908 3.5010231,19.90217 7.3290576,31.40625 4.74691,14.26551 21.730603,30.87028 38.972004,38.10252 3.723443,1.56187 10.715089,4.70197 15.536992,6.978 4.821903,2.27603 9.159429,4.13823 9.638948,4.13823 0.479519,0 3.439023,0.86482 6.576674,1.92182 7.085347,2.38687 31.079952,6.51568 37.865992,6.51568 10.80084,0 20.38047,2.00926 42.62004,8.93924 3.86719,1.20504 9.5625,2.68072 12.65625,3.27927 11.3223,2.19057 26.03592,8.85293 33.36308,15.10687 4.2465,3.6245 6.15314,6.29738 10.07192,14.11961 3.14188,6.27147 5.27761,12.02783 6.10167,16.44563 0.69732,3.73829 0.98809,6.79688 0.64618,6.79688 -0.34193,0 -1.35425,-2.42578 -2.24961,-5.39063 z m -8.92988,-51.81264 c -5.52815,-17.96901 -14.86523,-40.55262 -19.72507,-47.70906 -4.84925,-7.14082 -12.6043,-14.10209 -20.92825,-18.78607 -3.73315,-2.10068 -8.47504,-5.02345 -10.53754,-6.49506 -4.94293,-3.52679 -13.46948,-8.93087 -16.40625,-10.39819 -1.3531,-0.67607 0.13751,1.28687 3.52663,4.64408 8.3492,8.2706 11.3578,12.26049 17.89207,23.72769 3.17283,5.56814 5.7688,10.28166 5.7688,10.4745 0,0.39791 8.44233,18.51245 11.54817,24.77871 1.2112,2.44368 7.01678,9.04332 14.23308,16.17984 6.70313,6.629 13.63424,13.52039 15.40249,15.31417 1.76824,1.79378 3.32221,3.15421 3.45327,3.02316 0.13105,-0.13106 -1.77128,-6.77025 -4.2274,-14.75377 z m 9.63991,-77.09361 c -0.2665,-34.25173 -0.86825,-62.05417 -1.395,-64.45312 -0.50947,-2.32031 -2.5557,-7.80469 -4.54715,-12.1875 -5.32019,-11.70867 -6.60737,-14.73359 -6.60737,-15.52757 0,-0.39212 -1.51573,-2.06142 -3.36828,-3.70956 -3.07547,-2.7361 -4.07385,-3.04648 -11.48437,-3.57027 -7.30939,-0.51664 -26.5367,-5.70201 -33.4286,-9.01529 -1.03125,-0.49578 -3.46793,-1.31217 -5.41485,-1.81423 l -3.53984,-0.91281 2.64759,3.44673 c 6.25832,8.14732 8.33718,12.64572 13.57546,29.3755 3.01938,9.64315 7.35526,28.33476 11.49177,49.54 1.95063,9.99959 3.56385,13.67616 10.77659,24.55999 3.17878,4.79669 8.02758,13.36188 10.77512,19.03376 2.74753,5.67187 6.06578,11.88269 7.37385,13.80181 1.30809,1.91913 2.99272,5.29413 3.74363,7.5 0.75092,2.20588 2.83866,7.2399 4.63944,11.18672 1.80079,3.94681 3.56098,8.48196 3.91156,10.07812 0.35057,1.59615 0.7908,2.9021 0.97827,2.9021 0.18748,0 0.12996,-27.10547 -0.12782,-60.23438 z m -17.12069,28.10938 c -0.92589,-0.919 -1.03357,-0.81132 -0.52481,0.52481 0.35206,0.92458 0.87627,1.44489 1.16492,1.15625 0.28865,-0.28865 6e-4,-1.04512 -0.64011,-1.68106 z m -6.34611,-13.50199 c -0.93639,-1.97546 -5.19118,-8.73545 -9.45512,-15.02218 -4.26393,-6.28674 -7.76755,-12.19299 -7.78583,-13.125 -0.0183,-0.93202 -0.63613,-2.74927 -1.37302,-4.03833 -0.73689,-1.28906 -1.38441,-3.60938 -1.43892,-5.15625 -0.0836,-2.37329 -0.21481,-2.51969 -0.83998,-0.9375 -0.59767,1.51261 -1.06738,0.78782 -2.43022,-3.75 -7.73687,-25.76124 -15.59156,-45.40719 -21.8412,-54.62865 -0.95381,-1.40737 -4.54947,-6.79288 -7.99035,-11.96781 -3.44088,-5.17493 -7.5394,-10.81395 -9.10783,-12.53116 -1.56843,-1.71721 -2.64183,-3.33205 -2.38534,-3.58854 0.65936,-0.65935 5.32655,3.15443 7.07117,5.77819 0.80447,1.20984 5.07066,7.62519 9.48042,14.25634 8.46855,12.7345 16.16707,27.73959 17.92262,34.93278 0.57872,2.37124 1.62342,5.45055 2.32155,6.84292 0.69813,1.39236 1.28428,3.50174 1.30255,4.6875 0.0183,1.18576 0.67515,3.21062 1.45974,4.49968 l 1.42653,2.34375 -0.45417,-2.34375 c -0.2498,-1.28906 -1.1355,-6.14062 -1.96825,-10.78125 -2.94459,-16.40949 -3.47902,-18.81657 -5.62001,-25.3125 -2.75374,-8.35506 -6.25615,-15.74416 -12.22026,-25.78125 -5.88494,-9.90387 -10.15191,-14.42126 -16.04553,-16.98718 -2.51901,-1.09671 -6.26752,-2.74908 -8.33002,-3.67194 -4.53316,-2.02833 -15.92914,-13.56787 -20.10326,-20.35651 -1.66448,-2.70703 -3.46429,-4.92187 -3.99958,-4.92187 -0.53531,0 -2.63205,-1.88448 -4.65945,-4.18772 -2.0274,-2.30325 -8.408713,-7.14365 -14.180695,-10.75644 -5.771983,-3.6128 -12.60389,-8.06895 -15.182015,-9.90257 C 58.071834,366.57198 36.52825,352.5 35.06585,352.5 c -3.210943,0 4.884767,18.11409 14.664851,32.8125 3.945519,5.92969 9.003997,13.52344 11.241061,16.875 2.237064,3.35156 5.414203,7.62096 7.060309,9.48755 1.646105,1.86659 4.751222,6.29627 6.900259,9.84375 5.133699,8.47433 7.467913,11.65156 13.242437,18.02497 2.641071,2.91499 7.19078,7.97182 10.110464,11.2374 5.434749,6.0786 7.827739,8.53407 53.168809,54.55689 20.71407,21.0255 27.99306,29.08187 34.28198,37.94319 8.66524,12.20962 10.93631,15.71544 14.10668,21.77631 2.55307,4.88072 3.46122,4.5777 1.11502,-0.37205 z M 122.8125,427.61498 c 0,-1.24694 -16.07325,-17.92748 -17.2748,-17.92748 -0.57639,0 -2.51521,-1.18499 -4.30847,-2.63332 -1.793264,-1.44832 -5.79173,-4.03236 -8.88548,-5.74231 -3.09375,-1.70994 -8.236492,-4.92286 -11.428315,-7.13984 -3.191824,-2.21697 -7.290944,-4.73678 -9.109158,-5.59958 -1.818213,-0.8628 -5.112971,-3.33639 -7.321685,-5.49687 -2.208713,-2.16048 -5.147908,-4.64171 -6.531545,-5.51382 -3.06428,-1.93146 -7.828899,-7.99841 -6.962156,-8.86515 0.345048,-0.34505 2.829659,1.53488 5.521359,4.17763 7.770197,7.62887 14.304336,13.04371 19.15206,15.87129 2.470567,1.44103 7.564639,4.64892 11.320162,7.12864 3.755522,2.47971 7.787112,4.87314 8.9591,5.31873 1.171978,0.44559 3.372712,1.84699 4.890528,3.11423 1.51781,1.26724 4.02528,2.95654 5.57215,3.75399 3.13887,1.61819 16.43559,14.98605 18.16978,18.267 0.92798,1.75566 0.87359,2.10938 -0.3243,2.10938 -0.79158,0 -1.43923,-0.37013 -1.43923,-0.82252 z m 84.76552,20.52554 c -1.0185,-1.0185 -9.2827,-4.01571 -22.89052,-8.30182 -4.89844,-1.54288 -12.07031,-4.36577 -15.9375,-6.27308 -3.86719,-1.90731 -7.92983,-3.8117 -9.02808,-4.23198 -1.93083,-0.73889 -11.42436,-6.87536 -18.15942,-11.73796 -3.84158,-2.77357 -18.94016,-18.34301 -18.35536,-18.92782 0.2195,-0.2195 3.91191,2.98339 8.20535,7.11754 4.29345,4.13414 9.49376,8.79011 11.55626,10.34659 2.0625,1.55648 4.88257,3.70557 6.2668,4.77576 4.87066,3.7656 25.69852,13.94729 33.57695,16.41408 4.38281,1.37229 11.47264,3.70518 15.75517,5.18421 l 7.78641,2.68914 -1.69266,-2.6864 c -0.93097,-1.47751 -3.59111,-5.35526 -5.91142,-8.61721 -2.32031,-3.26196 -4.83762,-7.12699 -5.59402,-8.58898 -0.75639,-1.46198 -3.0767,-4.59493 -5.15625,-6.96211 -7.27693,-8.28345 -13.19266,-15.19696 -17.60512,-20.57449 -19.15177,-23.34058 -19.93294,-24.22025 -32.76991,-36.90176 -10.24598,-10.1219 -22.75624,-18.68872 -31.90364,-21.8471 -6.713288,-2.31793 -29.099899,-12.70625 -30.90808,-14.34263 -0.934711,-0.8459 -1.976356,-1.26112 -2.314765,-0.92271 -0.829961,0.82996 0.832234,4.2997 5.235692,10.92924 2.016964,3.0366 3.963269,6.45389 4.32512,7.59399 0.361853,1.1401 1.926632,4.22353 3.477288,6.85206 1.550656,2.62855 4.361588,7.94323 6.246515,11.81042 1.884927,3.86719 7.013292,13.99219 11.39638,22.5 4.38307,8.50781 8.68522,17.16991 9.56032,19.24911 3.20168,7.607 16.47752,21.19612 23.99766,24.56392 2.91173,1.30399 8.03625,3.62734 11.38781,5.16301 3.35156,1.53567 8.20313,3.52618 10.78125,4.42334 2.57813,0.89717 7.91818,2.77516 11.86679,4.17332 14.62909,5.18002 25.59138,7.94846 31.68009,8.00056 3.96341,0.0339 5.7292,-0.26593 5.12489,-0.87024 z M 111.5625,383.38217 c 0,-0.54606 0.42188,-0.73209 0.9375,-0.41342 0.51563,0.31867 0.9375,0.76545 0.9375,0.99283 0,0.22738 -0.42187,0.41342 -0.9375,0.41342 -0.51562,0 -0.9375,-0.44678 -0.9375,-0.99283 z M 99.710794,362.52101 c -3.439406,-5.23058 -3.764213,-6.01009 -1.860188,-4.46429 1.709213,1.38765 4.720344,6.55984 4.150644,7.12954 -0.17848,0.17848 -1.20919,-1.02088 -2.290456,-2.66525 z M 93.28125,352.5 c -0.849478,-1.64271 -1.333568,-3.19768 -1.075756,-3.45549 0.257813,-0.25782 1.163778,0.87528 2.013256,2.51799 0.849478,1.64271 1.333566,3.19768 1.075753,3.45549 -0.257812,0.25782 -1.163775,-0.87528 -2.013253,-2.51799 z m 117.58536,89.31707 c -4.24114,-19.62769 -9.39014,-36.05194 -14.97703,-47.77362 -1.52052,-3.19017 -2.76543,-6.35423 -2.76646,-7.03125 -9.4e-4,-0.67703 -1.91414,-4.14013 -4.25131,-7.69577 -2.33718,-3.55566 -4.1015,-6.90861 -3.9207,-7.45101 0.46877,-1.40632 5.74807,6.54431 8.68028,13.07251 1.36632,3.04195 3.65382,8.06207 5.08334,11.15582 4.82278,10.43746 11.56541,32.59852 13.97675,45.9375 0.64923,3.59144 0.70764,3.46786 1.38149,-2.92272 0.78391,-7.4344 -0.56701,-23.49072 -2.78306,-33.07808 -2.39631,-10.36716 -9.61307,-31.01497 -13.95855,-39.9367 -4.95154,-10.16603 -13.62484,-21.28943 -19.28529,-24.73315 -12.18396,-7.41253 -30.39185,-11.26393 -60.1501,-12.72316 -10.54347,-0.51702 -22.28777,-2.73627 -32.58347,-6.15713 -3.351563,-1.11359 -7.359375,-2.39095 -8.90625,-2.83858 l -2.8125,-0.81387 3.224455,2.75572 c 1.773451,1.51564 6.625014,3.88669 10.78125,5.26898 4.156238,1.3823 8.83532,3.22956 10.397973,4.10505 1.562644,0.87548 6.190372,3.39769 10.283822,5.60489 11.05164,5.95908 13.80548,7.5372 16.55097,9.48476 1.36866,0.97089 2.95069,1.76524 3.51563,1.76524 1.53836,0 22.39757,21.48033 29.6067,30.4883 2.05468,2.56737 8.00439,9.09764 13.22157,14.5117 9.38787,9.74215 22.54969,25.40872 23.62841,28.125 0.30715,0.77344 1.91281,3.30469 3.56814,5.625 1.65531,2.32031 4.03563,6.11719 5.28959,8.4375 6.29305,11.64462 8.74979,13.96928 7.20435,6.81707 z M 179.0625,365.8101 c 0,-1.52261 -9.7542,-10.65514 -13.48959,-12.62985 -3.6184,-1.91287 -9.89299,-4.53505 -17.44791,-7.29156 -3.46094,-1.26277 -7.98031,-3.10502 -12.65625,-5.15914 -6.56952,-2.88596 -22.48957,-8.85455 -23.61776,-8.85455 -0.6743,0 -1.22599,-0.42188 -1.22599,-0.9375 0,-1.96143 2.81991,-1.08021 22.5,7.03125 14.81611,6.10669 19.35884,7.90009 25.08442,9.90296 6.60233,2.30956 14.34821,7.56961 18.2574,12.39819 4.11926,5.08802 4.8062,6.2926 3.58851,6.2926 -0.54606,0 -0.99283,-0.33858 -0.99283,-0.7524 z m 84.39381,-66.30151 c 1.81159,-2.18285 0.51895,-2.5942 -1.41986,-0.45184 -0.93613,1.03441 -1.26645,1.88075 -0.73404,1.88075 0.53241,0 1.50166,-0.643 2.1539,-1.42891 z m -21.62752,-0.42136 c 0.93804,-0.50202 1.97304,-1.97858 2.29998,-3.28125 0.57064,-2.27359 2.43373,-3.36905 2.43373,-1.43098 0,0.51562 0.40864,0.9375 0.90808,0.9375 0.49944,0 0.66524,-0.63281 0.36845,-1.40625 -0.62922,-1.63972 -4.61529,-1.89262 -5.56671,-0.35317 -0.41524,0.67186 -2.29233,0.85865 -5.18546,0.516 -2.49404,-0.29537 -4.76715,-0.16082 -5.05134,0.29902 -0.2842,0.45983 -2.43705,1.12403 -4.7841,1.476 -5.75126,0.86245 -3.97413,2.56343 2.89233,2.7684 2.85233,0.0851 5.46342,0.43217 5.80241,0.77115 0.9037,0.90371 3.9246,0.75149 5.88263,-0.29642 z m -6.51629,-2.36848 c 0,-0.77344 0.42187,-1.40625 0.9375,-1.40625 0.51562,0 0.9375,0.63281 0.9375,1.40625 0,0.77344 -0.42188,1.40625 -0.9375,1.40625 -0.51563,0 -0.9375,-0.63281 -0.9375,-1.40625 z m 23.82957,0.8372 c 0.94193,-0.36145 1.48293,-1.70936 1.48293,-3.69467 0,-4.17393 1.2191,-4.69212 4.30671,-1.83062 2.57095,2.38267 3.13252,2.40671 8.58391,0.36736 2.08499,-0.77999 3.05753,-4.58552 1.17188,-4.58552 -0.51563,0 -0.9375,-0.63281 -0.9375,-1.40625 0,-1.78784 2.75336,-1.8121 5.27415,-0.0465 1.70119,1.19155 2.19091,1.18498 3.9586,-0.0532 1.10949,-0.77709 2.01725,-1.9934 2.01725,-2.70289 0,-1.64259 -4.93141,-13.96492 -6.255,-15.62965 -0.54893,-0.69041 -1.7495,-2.86893 -2.66792,-4.84113 -1.90859,-4.09851 -5.3394,-6.7416 -7.61653,-5.86778 -1.37061,0.52595 -1.29689,0.86989 0.62494,2.91558 2.4361,2.59311 1.55228,3.18706 -1.13015,0.75949 -1.50906,-1.36568 -2.02551,-1.3982 -4.14974,-0.26134 -1.3344,0.71414 -3.71375,2.57621 -5.28743,4.13792 -2.66744,2.64711 -2.80992,2.42752 -1.12054,-1.72707 0.99277,-2.44148 -2.6305,-2.658 -4.9903,-0.2982 -2.07942,2.07944 -2.16375,2.53343 -1.16175,6.25459 1.50651,5.59472 2.13378,23.10189 0.90968,25.38912 -0.82077,1.53364 -0.62457,1.99042 1.16308,2.70788 2.6393,1.05925 3.90533,1.149 5.82373,0.41284 z m 15.01345,-1.35593 c 0.50445,-0.49322 -0.44169,-0.47739 -2.2367,0.0374 -1.71103,0.49071 -3.37008,1.17551 -3.68677,1.52177 -0.86804,0.94908 4.91495,-0.57313 5.92347,-1.55919 z m -45.07972,-3.64567 c 2.09702,-0.79728 2.27162,-1.26518 1.79585,-4.81235 -0.41419,-3.08797 -0.24912,-3.83657 0.77102,-3.49653 0.71392,0.23798 1.67238,1.73795 2.12991,3.33326 0.53293,1.85822 1.60614,3.09493 2.98641,3.44135 3.05478,0.7667 5.35474,-0.30663 4.62138,-2.15668 -1.17141,-2.95514 -1.61437,-7.6134 -0.72395,-7.6134 0.49595,0 1.4438,1.16016 2.10631,2.57812 0.66251,1.41797 1.50436,3.18922 1.87077,3.93612 0.36641,0.74688 1.72856,1.64209 3.02699,1.98934 l 2.36079,0.63137 -0.30924,-8.08309 c -0.48404,-12.65268 -0.76069,-13.48999 -5.607,-16.97035 -3.45416,-2.48059 -4.46577,-2.83357 -5.12725,-1.78904 -0.45325,0.71571 -0.83054,1.662 -0.83844,2.10288 -0.008,0.44087 -1.70185,0.64066 -3.76435,0.44397 -3.38152,-0.32248 -3.75,-0.14792 -3.75,1.77653 0,1.17378 -0.42187,2.13415 -0.9375,2.13415 -0.51562,0 -0.9375,-0.84375 -0.9375,-1.875 0,-1.26208 -0.625,-1.875 -1.91197,-1.875 -1.48673,0 -1.66919,-0.26063 -0.82039,-1.17188 0.67903,-0.72899 2.90738,-1.06053 5.89633,-0.87728 5.79795,0.35549 7.61441,-1.49505 6.22452,-6.34131 -0.46162,-1.6096 -1.08129,-9.76693 -1.37704,-18.12741 -0.93505,-26.43354 -1.60857,-36.29462 -2.47893,-36.29462 -0.46476,0 -0.84502,0.66797 -0.84502,1.48437 0,2.38899 -2.2103,0.9919 -3.93935,-2.48998 l -1.59559,-3.21314 -0.0726,3.28125 c -0.0399,1.80469 -0.0482,14.9731 -0.0184,29.26314 0.0591,28.3183 -0.43084,31.5673 -5.07955,33.68539 -3.03482,1.38276 -4.0631,4.7484 -4.83556,15.82717 -0.65929,9.45548 -0.32348,10.46439 3.82222,11.48342 3.13121,0.76966 4.92546,0.71972 7.35705,-0.20477 z m 53.95771,-1.7584 c 0.80184,-1.49825 0.57938,-1.65523 -1.84202,-1.29984 -1.52844,0.22433 -2.75399,0.98264 -2.75399,1.70405 0,1.89953 3.52919,1.58915 4.59601,-0.40421 z m -76.25959,-9.63522 c 0.34901,-0.56472 0.75818,-2.9905 0.90925,-5.39062 0.18155,-2.88428 0.70035,-4.36386 1.53013,-4.36386 0.90611,0 1.24888,1.49999 1.23184,5.39062 -0.0217,4.94636 0.14745,5.39063 2.05193,5.39063 1.75541,0 2.18069,-0.68686 2.75724,-4.45313 0.37495,-2.44921 0.7172,-7.05436 0.76058,-10.23367 0.0643,-4.71568 -0.33755,-6.34382 -2.18157,-8.83823 -2.08135,-2.81543 -2.18227,-3.43446 -1.27386,-7.8132 0.54262,-2.61554 0.89466,-4.85818 0.78231,-4.98364 -0.11235,-0.12548 -2.3847,0.82374 -5.04967,2.10937 -2.66498,1.28562 -5.69123,2.3375 -6.72501,2.3375 -2.86956,0 -2.48959,4.24459 0.55878,6.24196 1.97563,1.29448 2.95415,1.403 5.15625,0.5718 2.88624,-1.08944 3.85934,-0.008 1.07725,1.19629 -2.90091,1.25656 -4.01584,1.23757 -6.6036,-0.11245 -1.39536,-0.72795 -4.11959,-1.32615 -6.05383,-1.32932 -3.40195,-0.006 -3.60516,0.18558 -6.22232,5.85359 -4.88908,10.58831 -4.76528,13.22635 0.69178,14.74209 5.06634,1.40722 6.8217,1.1807 7.37948,-0.95229 0.64647,-2.47212 2.5979,-1.82877 2.6301,0.86709 0.0342,2.86151 5.2951,5.86941 6.59294,3.76947 z m 88.70811,-3.28376 c 1.49044,-0.53132 3.19541,-3.18947 2.04575,-3.18947 -0.2961,0 -1.86489,1.12153 -3.48619,2.49229 -1.62132,1.37076 -2.31503,2.21478 -1.54159,1.87561 0.77344,-0.33918 2.11535,-0.86948 2.98203,-1.17843 z m -2.52041,-3.35854 c 2.4115,-2.09676 3.07909,-4.89521 1.41338,-5.92468 -1.40383,-0.86762 -1.12938,-2.34375 0.43577,-2.34375 0.7553,0 1.8207,0.83604 2.36757,1.85788 0.95923,1.79235 1.13398,1.80289 4.95486,0.29892 5.18368,-2.0404 5.8371,-3.18888 3.00505,-5.28187 -2.13923,-1.58097 -3.42748,-4.229 -1.46832,-3.01817 0.47158,0.29146 1.04652,-5e-5 1.27764,-0.64779 0.29549,-0.82815 1.08451,-0.57153 2.6582,0.86453 2.46347,2.24801 4.24849,1.64408 6.24982,-2.11452 1.71373,-3.21845 -2.24297,-10.33465 -9.0018,-16.18992 -4.93317,-4.27367 -6.24709,-4.95495 -9.28446,-4.81404 -4.96132,0.23019 -5.88183,0.0988 -5.88183,-0.83968 0,-0.45218 -2.5641,-5.40922 -5.69799,-11.01562 -3.13391,-5.60641 -7.03625,-13.56847 -8.67188,-17.69347 -2.69121,-6.78711 -3.00181,-7.21039 -3.26766,-4.45313 -0.32352,3.35539 -2.29515,4.07557 -3.84988,1.40625 -1.7418,-2.99049 -1.04606,0.24103 0.85449,3.96884 1.02689,2.01418 3.16089,7.90416 4.74224,13.08885 5.14394,16.8652 7.64888,22.51185 10.14345,22.86543 1.21742,0.17257 2.67108,-0.14384 3.23036,-0.70312 2.35569,-2.35569 2.64379,-0.7832 0.30397,1.65905 -1.41004,1.47177 -2.92927,3.89755 -3.37607,5.39063 -0.80345,2.68489 -0.81326,2.67609 -0.89295,-0.80093 -0.0702,-3.06446 -0.36959,-3.51562 -2.33261,-3.51562 -1.68311,0 -2.51205,0.74587 -3.28125,2.95239 -1.77523,5.0924 -1.22092,8.8924 2.06243,14.13878 1.70041,2.71704 3.87386,6.73305 4.82989,8.92445 2.02557,4.64304 4.67244,5.24884 8.47758,1.94031 z m 0.94463,-31.70593 c -0.93327,-1.03125 -1.27498,-1.875 -0.75936,-1.875 0.51563,0 1.70109,0.84375 2.63436,1.875 0.93327,1.03125 1.27498,1.875 0.75936,1.875 -0.51563,0 -1.70109,-0.84375 -2.63436,-1.875 z m 13.79673,28.35937 c 0.78709,-0.90234 1.97812,-2.69531 2.64672,-3.98437 1.17095,-2.25759 1.09454,-2.24036 -2.0786,0.46875 -1.81183,1.54687 -4.09762,3.31504 -5.07954,3.92924 -1.65931,1.03793 -1.61361,1.12064 0.64751,1.17188 1.33806,0.0304 3.07681,-0.68315 3.86391,-1.5855 z m 7.81219,-7.58791 c -0.90851,-0.17727 -2.13436,0.20103 -2.72413,0.84065 -0.81335,0.88213 -0.78932,1.00319 0.0996,0.50135 0.64958,-0.36674 1.17188,-0.16795 1.17188,0.44601 0,0.77973 0.45951,0.72673 1.55225,-0.17906 1.43836,-1.19226 1.43105,-1.3103 -0.0996,-1.60895 z m -93.52977,-12.30471 -0.26665,-10.62047 -2.91279,2.45363 c -4.28578,3.61017 -4.92343,10.13089 -1.63158,16.68481 2.07992,4.14101 2.57946,4.60073 3.73916,3.44102 1.03663,-1.03663 1.27838,-3.73386 1.07186,-11.95899 z m 29.18909,6.53325 c -0.0204,-3.5593 -2.76879,-24.58223 -3.98323,-30.46875 -0.74464,-3.60938 -1.91019,-11.20313 -2.59011,-16.875 -0.67993,-5.67188 -1.40146,-9.46875 -1.60344,-8.4375 -0.62252,3.17862 -1.8753,3.73641 -4.05619,1.80597 l -2.04028,-1.80597 0.68398,3.28125 c 0.3762,1.80469 1.00569,13.82812 1.39888,26.71875 0.76247,24.99743 1.26553,27.62982 5.90058,30.87635 1.95848,1.37177 2.20879,1.30517 4.19039,-1.11497 1.15913,-1.41564 2.10387,-3.20669 2.09942,-3.98013 z m 13.30724,0.76487 c 3.25879,-1.83155 4.94565,-4.51487 2.83825,-4.51487 -2.25089,0 -9.66276,-24.11746 -12.38899,-40.3125 -1.16048,-6.89378 -2.56651,-11.92759 -2.68406,-9.60938 -0.10315,2.034 -2.63863,1.27264 -4.68319,-1.40625 l -1.96764,-2.57812 0.4193,2.34375 c 1.18793,6.6401 3.56666,19.77677 4.32882,23.90625 0.85762,4.64663 2.19067,15.29859 3.30092,26.3766 0.46569,4.64654 0.96644,5.94024 2.60627,6.73342 3.00849,1.4552 4.21561,1.31749 8.23032,-0.9389 z M 225.85725,247.5 c -0.0344,-5.313 -0.32005,-7.34387 -0.85725,-6.09375 -1.16241,2.70507 -1.16241,17.26745 0,15.46875 0.49984,-0.77344 0.8856,-4.99219 0.85725,-9.375 z m 95.1963,0.23437 c -0.67451,-10.85839 -1.69887,-14.33321 -5.60287,-19.00601 -1.79475,-2.14817 -3.31702,-4.81506 -3.38282,-5.92643 -0.0658,-1.11138 -0.23551,-3.07537 -0.37712,-4.36443 -0.14161,-1.28906 -0.59105,-12.04688 -0.99876,-23.90625 -0.40771,-11.85938 -0.90175,-20.82422 -1.09788,-19.92188 -0.75438,3.4709 -1.8825,1.35539 -2.99955,-5.625 -0.63948,-3.99609 -1.49868,-7.87563 -1.90933,-8.62122 -1.39949,-2.54092 -2.10073,10.9387 -1.57069,30.19266 0.28729,10.43649 0.14478,22.25959 -0.3167,26.27354 -1.10498,9.61099 -0.76292,10.37714 4.37441,9.79809 2.24277,-0.25279 4.07776,-0.13877 4.07776,0.25338 0,1.02476 -3.59485,1.84155 -8.17014,1.85638 -3.03344,0.01 -4.19361,0.4654 -4.99407,1.96106 -1.5162,2.83305 -0.64165,4.11346 3.69753,5.41352 2.99258,0.89659 5.21361,2.74857 9.94135,8.28944 3.73682,4.37954 6.08783,7.98477 6.08783,9.33559 0,1.57581 0.53249,2.20069 1.87531,2.20069 1.77134,0 1.84705,-0.45473 1.36574,-8.20313 z m 22.42164,6.26468 c 3.21869,1.72259 8.08731,-0.87584 8.08731,-4.31627 l 0,-2.45658 -2.29898,2.48066 c -1.75013,1.88841 -3.19708,2.48064 -6.06077,2.48064 -2.94813,0 -4.0012,0.45624 -4.86868,2.10938 -1.10236,2.10073 -1.09862,2.10202 0.91363,0.3152 1.73081,-1.53692 2.33696,-1.62482 4.22749,-0.61303 z M 273.75,251.36479 c 0,-2.08759 0.59868,-4.13207 1.40625,-4.80229 0.8145,-0.67598 1.37067,-2.59816 1.3217,-4.56791 l -0.0846,-3.40084 -0.93282,3.28125 c -1.2759,4.48806 -3.52371,6.79291 -6.13751,6.29325 -1.17456,-0.22453 -2.13556,-0.018 -2.13556,0.45905 0,1.02915 4.84613,6.2625 5.85938,6.32756 0.38671,0.0248 0.70312,-1.5907 0.70312,-3.59007 z m 61.46464,0.80051 c 2.34187,-0.89038 2.48965,-1.26626 2.04583,-5.20385 -0.40241,-3.57018 -0.23529,-4.19809 1.05245,-3.95416 0.8856,0.16776 1.65811,1.39663 1.83282,2.91547 0.36517,3.17481 2.27205,4.07543 5.50755,2.60124 2.28841,-1.04267 2.37817,-1.35742 1.79714,-6.30115 -0.70306,-5.98193 1.00266,-6.74319 2.81541,-1.25653 1.25549,3.79998 2.1617,4.1999 6.36974,2.81113 4.30757,-1.42163 5.5171,-3.00237 4.42411,-5.7819 -0.4789,-1.21786 -1.62664,-4.89657 -2.55054,-8.17492 -0.9239,-3.27833 -2.4736,-6.96974 -3.44377,-8.20312 -2.35814,-2.99788 -6.4559,-2.95426 -9.5114,0.10124 -1.28906,1.28906 -2.88596,2.34375 -3.54866,2.34375 -0.6627,0 -0.049,-1.07176 1.36364,-2.38169 2.90537,-2.69402 3.36179,-4.97406 0.9568,-4.77977 -1.52701,0.12337 -4.15049,-6.63637 -7.7722,-20.02604 -0.48814,-1.80469 -2.1092,-7.5 -3.60236,-12.65625 -1.49315,-5.15625 -3.45267,-12.24113 -4.35448,-15.74416 -1.89194,-7.34917 -2.87783,-7.80443 -1.59304,-0.73565 0.69215,3.80812 0.60351,4.95767 -0.42673,5.53423 -1.10707,0.61954 -1.09987,1.76575 0.0485,7.71165 0.74183,3.84116 2.03652,12.89018 2.87711,20.10893 0.84058,7.21875 1.68599,13.96875 1.87869,15 0.19269,1.03125 0.38264,3.19914 0.42209,4.81754 0.0634,2.60094 0.45264,3.014 3.35298,3.5581 1.80469,0.33856 3.28125,1.03745 3.28125,1.55308 0,1.07096 -6.52886,0.15128 -7.89829,-1.11259 -0.97076,-0.89593 -5.22671,4.79867 -5.22671,6.9935 0,0.75783 -0.38323,1.51849 -0.85163,1.69037 -1.29196,0.47408 -1.419,2.50146 -0.60702,9.6875 0.40784,3.60938 1.39014,7.30078 2.18289,8.20312 1.61685,1.84038 5.39168,2.12044 9.1779,0.68093 z m -138.80839,-5.6028 c 1.66748,-3.22455 3.28125,-3.68563 3.28125,-0.9375 0,2.30033 2.67286,2.48017 6.60906,0.44467 2.80812,-1.45213 3.10723,-2.0749 2.80262,-5.8353 -0.21177,-2.6143 1.42696,-2.74261 2.99339,-0.23437 1.49504,2.39393 3.57257,2.38163 6.16815,-0.0366 2.44057,-2.27373 2.50201,-3.28242 0.59867,-9.82965 -1.24971,-4.29889 -2.08129,-5.40162 -5.94144,-7.87866 -5.27511,-3.38498 -5.73045,-3.46865 -5.73045,-1.05284 0,1.00501 -1.45972,2.94067 -3.24381,4.30147 -2.55213,1.9466 -3.8515,2.34069 -6.09375,1.84821 -3.71655,-0.81629 -3.70403,-2.15259 0.0151,-1.60674 2.10707,0.30925 3.496,-0.16772 5.25028,-1.80299 2.07052,-1.93008 2.3189,-2.7802 1.88215,-6.44224 -0.27672,-2.32031 -1.34235,-6.32813 -2.36806,-8.90625 -3.23238,-8.12461 -5.76701,-17.50841 -7.21689,-26.71875 -0.77111,-4.89844 -2.07865,-12.0241 -2.90565,-15.83483 -1.23259,-5.67959 -1.67531,-6.60908 -2.45599,-5.15625 -1.50424,2.79937 -1.63668,2.81227 -3.61476,0.35207 l -1.87319,-2.32974 0.55836,5.625 c 0.3071,3.09375 0.96465,8.36719 1.46123,11.71875 1.9362,13.06778 4.78147,31.6926 5.72882,37.5 1.54423,9.46643 1.78768,13.125 0.87336,13.125 -0.4625,0 -1.03276,-0.52734 -1.26725,-1.17188 -0.3204,-0.88068 -0.86395,-0.91605 -2.18749,-0.14235 -3.2216,1.88325 -4.21574,5.1312 -3.84572,12.56423 0.44933,9.02615 1.60444,11.25 5.84346,11.25 2.63424,0 3.49032,-0.51462 4.6786,-2.8125 z m 161.01562,1.25411 c -0.64453,-0.26007 -1.69921,-0.26007 -2.34375,0 -0.64453,0.26007 -0.11718,0.47287 1.17188,0.47287 1.28906,0 1.81641,-0.2128 1.17187,-0.47287 z m -200.39062,-5.73407 c 0,-2.5326 0.43465,-3.53146 1.64062,-3.77021 1.3707,-0.27137 1.64063,0.38062 1.64063,3.96268 0,4.21512 0.0515,4.28725 3.04687,4.27314 4.16255,-0.0196 5.42775,-1.02721 5.98343,-4.76516 0.26077,-1.75408 1.03873,-5.69034 1.72882,-8.74724 1.29469,-5.73512 0.97216,-7.81138 -1.8926,-12.18357 -1.47884,-2.25699 -1.51852,-2.26268 -3.30666,-0.47454 -1.34848,1.34848 -3.12159,1.80986 -6.95539,1.80986 -5.53245,0 -8.91697,-1.85827 -8.91697,-4.89585 0,-2.25758 -1.82944,-2.0889 -4.85203,0.44738 -3.08837,2.59148 -8.73928,18.40042 -7.84742,21.95388 0.36603,1.45838 1.76114,2.79972 3.79645,3.65012 4.25856,1.77934 4.10762,1.83164 5.69796,-1.97457 1.70519,-4.0811 3.61227,-3.36436 2.78477,1.0466 -0.55061,2.93503 -0.38944,3.19232 2.49393,3.9811 3.87459,1.05995 4.95759,0.11762 4.95759,-4.31362 z m 114.9439,0.49558 c 1.13578,-2.73534 1.43855,-7.56296 0.76689,-12.22784 -0.14156,-0.98311 -0.76097,-1.46962 -1.49204,-1.17187 -0.6875,0.28 -1.85046,0.75275 -2.58435,1.05055 -0.7818,0.31725 -1.766,-0.26507 -2.37673,-1.40625 -0.60354,-1.12772 -0.6667,-1.94771 -0.15003,-1.94771 0.4908,0 1.03298,0.37057 1.20486,0.82348 0.17659,0.46534 1.24003,0.47472 2.44515,0.0216 1.76065,-0.662 2.02389,-1.25537 1.50906,-3.4016 -0.34298,-1.42985 -1.26113,-3.86256 -2.04035,-5.40602 -1.30739,-2.5897 -1.47305,-2.66205 -2.14628,-0.9375 -0.40125,1.02784 -0.7592,3.00502 -0.79543,4.39376 -0.038,1.45494 -0.90895,3.11545 -2.05526,3.91837 -1.9742,1.38278 -1.97775,1.45597 -0.46534,9.60931 0.83821,4.51875 2.04982,8.5498 2.69248,8.9579 2.35112,1.49298 4.24926,0.70563 5.48737,-2.27617 z m -150.13669,-9.55309 c 1.41047,-0.13259 2.69419,-1.09661 3.3029,-2.48033 0.54764,-1.24489 2.35706,-4.34995 4.02092,-6.90012 3.07964,-4.72009 3.92798,-10.53498 2.18576,-14.98229 -0.6332,-1.61637 -0.77114,-1.64104 -1.31093,-0.23437 -0.70714,1.84276 -3.68392,2.04229 -6.58312,0.44124 -1.12625,-0.62197 -3.45571,-1.23318 -5.17654,-1.35826 -2.61098,-0.18978 -3.72681,0.42021 -6.74204,3.68568 -1.98728,2.15221 -3.89145,3.63488 -4.23149,3.29483 -1.01742,-1.01741 4.32539,-7.28495 6.7231,-7.88674 1.35888,-0.34106 2.22298,-1.24726 2.22298,-2.3313 0,-0.97535 0.42188,-1.77337 0.9375,-1.77337 0.51563,0 0.93908,0.52734 0.94102,1.17187 0.003,1.09248 6.84696,4.48927 8.91258,4.42367 1.47773,-0.047 3.75267,-3.7472 5.97968,-9.72615 1.13428,-3.04527 5.27888,-11.48277 9.21021,-18.75 8.99934,-16.63561 12.42953,-23.32439 12.44463,-24.26671 0.007,-0.40758 -1.14396,0.3307 -2.55666,1.64063 -2.68133,2.48627 -5.46958,3.11109 -6.05436,1.35673 -0.18791,-0.56372 -0.94503,0.17456 -1.68249,1.64063 -0.73747,1.46607 -3.572,5.96875 -6.29897,10.00595 -2.72698,4.0372 -4.95814,7.66795 -4.95814,8.06831 0,0.40037 -1.46553,2.64728 -3.25672,4.99314 -1.79119,2.34586 -4.53595,6.30887 -6.09946,8.80669 -1.56351,2.49782 -3.57845,5.71756 -4.47765,7.15498 -1.24358,1.98791 -2.30813,2.58228 -4.44742,2.48314 -6.22366,-0.28844 -5.75722,-0.58848 -15.703125,10.1012 -2.983359,3.20646 -3.303244,6.7036 -0.949659,10.38203 2.772354,4.33292 4.146944,5.29067 7.642194,5.32473 2.94636,0.0287 3.61614,0.48934 5.25612,3.61481 1.7699,3.37309 2.07075,3.545 5.16072,2.94907 1.80469,-0.34804 4.31949,-0.73041 5.58846,-0.84969 z m 0.97404,-18.33753 c 0,-1.54688 0.42187,-2.8125 0.9375,-2.8125 0.51563,0 0.9375,1.26562 0.9375,2.8125 0,1.54687 -0.42187,2.8125 -0.9375,2.8125 -0.51563,0 -0.9375,-1.26563 -0.9375,-2.8125 z m 173.60253,13.48312 c 2.21382,-3.28006 2.62219,-5.13636 3.47347,-15.78906 0.53059,-6.6396 0.78957,-12.35539 0.5755,-12.70176 -0.21407,-0.34637 -0.44346,-7.70517 -0.50974,-16.35289 -0.11576,-15.10212 -0.73866,-17.81337 -2.50207,-10.89068 -0.8872,3.48295 -1.88421,4.24152 -3.89914,2.96664 -1.06954,-0.67672 -0.87063,-2.28107 1.16087,-9.36322 1.34835,-4.70062 3.56846,-10.23432 4.93356,-12.29714 2.41657,-3.65168 2.45028,-3.90014 1.27823,-9.42307 l -1.20378,-5.67249 -2.82375,4.9734 c -2.50094,4.40486 -2.85667,5.99207 -3.11179,13.88441 -0.33912,10.49082 -2.07226,16.4894 -4.68685,16.22176 -1.30507,-0.13359 -1.78155,0.46808 -1.85614,2.34375 -0.0552,1.38791 -1.2847,10.62474 -2.73224,20.52627 l -2.63188,18.0028 3.0928,5.90345 c 4.96486,9.47681 6.728,12.10719 7.86573,11.73471 0.58764,-0.19238 2.19739,-2.02248 3.57722,-4.06687 z m -74.68704,-21.76585 c -0.93738,-2.44279 -1.70942,-0.29057 -2.79248,7.78459 -0.84079,6.26879 -0.81883,8.03418 0.10432,8.38842 0.64307,0.24677 1.5089,2.05288 1.92407,4.01357 0.57218,2.70222 0.81914,0.85568 1.02053,-7.63052 0.14613,-6.15748 0.0307,-11.80771 -0.25644,-12.55606 z M 328.125,218.04574 c 0,-12.00112 -7.70931,-57.82901 -10.21634,-60.73088 -0.3107,-0.35963 -0.56491,2.87501 -0.56491,7.18811 0,8.36216 -0.52746,9.89344 -2.76749,8.03438 -1.24594,-1.03403 -1.34678,1.27919 -0.88301,20.25703 0.59537,24.36367 1.3122,30.08337 4.27197,34.08668 l 2.09389,2.83213 4.03294,-3.95804 c 3.42092,-3.35738 4.03295,-4.52734 4.03295,-7.70941 z m -63.39382,-0.47327 c 1.94267,-5.93937 1.9293,-6.08605 -1.1393,-12.49945 -1.9859,-4.15053 -2.83736,-5.14004 -3.68963,-4.28777 -0.85226,0.85226 -1.58295,0.69118 -3.16625,-0.69803 -1.13206,-0.99328 -1.76503,-1.30304 -1.4066,-0.68835 0.35843,0.6147 1.08547,3.56783 1.61564,6.5625 0.81374,4.59644 1.89682,8.72108 4.21484,16.05117 0.65586,2.07397 1.97853,0.42954 3.5713,-4.44007 z m -99.70246,1.29917 c 0.6399,-0.77102 1.05239,-5.7274 1.06521,-12.79933 0.0115,-6.34758 0.7859,-17.23637 1.72086,-24.19731 0.93495,-6.96094 1.93846,-15.1875 2.23001,-18.28125 0.50817,-5.39236 0.47472,-5.50868 -0.80882,-2.8125 -0.7364,1.54687 -1.35794,3.33984 -1.3812,3.98437 -0.0233,0.64454 -0.67509,1.17188 -1.44853,1.17188 -0.77344,0 -1.44251,-0.52734 -1.48683,-1.17188 -0.11361,-1.65221 -1.49932,3.05147 -3.79759,12.89063 -3.21003,13.74247 -3.43334,14.67081 -5.41216,22.5 -1.0426,4.125 -1.91004,8.84619 -1.92765,10.49154 -0.0176,1.64535 -0.45389,3.25228 -0.96952,3.57096 -1.54117,0.95249 -1.06309,4.02446 0.833,5.35253 2.1887,1.53303 9.92489,1.05754 11.38323,-0.69964 z m 51.49191,-7.99911 c 0.63906,-4.67636 0.90991,-8.75449 0.60189,-9.0625 -0.30801,-0.30802 -0.56002,0.12825 -0.56002,0.96949 0,0.84123 -0.77053,1.94189 -1.71229,2.44591 -1.04014,0.55666 -2.21396,3.00756 -2.99029,6.24368 -1.19022,4.96139 -1.15689,5.41584 0.48523,6.61659 0.96977,0.70912 2.04454,1.2893 2.38839,1.2893 0.34385,0 1.14804,-3.82612 1.78709,-8.50247 z m -7.05504,-3.42051 c 0.82919,-3.20608 1.74497,-6.58108 2.03505,-7.5 0.50105,-1.58723 0.45984,-1.58874 -0.82434,-0.0302 -1.85885,2.25608 -4.4263,2.10206 -4.4263,-0.26554 0,-2.61284 4.09586,-10.47976 7.43811,-14.28636 1.75842,-2.00273 4.11038,-7.12125 6.50564,-14.15808 2.06334,-6.06173 5.02559,-12.9978 6.58277,-15.41349 3.31819,-5.14757 7.65633,-10.03644 9.43065,-10.62788 2.13174,-0.71058 -0.4317,-24.09916 -3.47802,-31.73303 -5.33627,-13.37233 -13.14543,-18.723972 -21.19569,-14.525472 -1.47691,0.77026 -3.17863,1.400472 -3.78161,1.400472 -2.27399,0 -11.32449,6.66982 -14.86612,10.95569 -5.19302,6.28427 -7.56154,11.33005 -7.65171,16.30084 -0.0698,3.8492 0.38214,4.79943 4.41862,9.29014 6.65146,7.39995 11.38087,18.93253 9.18668,22.40157 -1.13195,1.78962 -2.83845,0.4949 -4.45864,-3.38276 -1.90402,-4.55695 -2.35036,-3.43249 -0.84349,2.12493 0.69396,2.55933 2.20183,9.71584 3.35082,15.90334 3.12969,16.85387 9.66348,40.81077 10.81091,39.63943 0.14247,-0.14543 0.93747,-2.88758 1.76667,-6.09366 z m 70.84819,-1.4364 c 7.1e-4,-1.67578 0.6367,-6.63281 1.4133,-11.01562 0.77662,-4.38281 1.83404,-11.34375 2.34981,-15.46875 0.51578,-4.125 1.16546,-8.76563 1.44372,-10.3125 l 0.50593,-2.8125 -1.40551,3.04687 c -0.77304,1.67579 -2.11261,3.04688 -2.97684,3.04688 -1.32137,0 -1.47087,-0.62823 -0.93983,-3.94918 1.00111,-6.26058 -0.0686,-3.81957 -2.76162,6.30143 -2.74694,10.32399 -2.63027,14.17193 0.59547,19.63916 2.22121,3.76465 1.76355,6.59462 -0.95164,5.88459 -1.58353,-0.4141 -1.67123,-0.15916 -0.85022,2.47176 0.50349,1.61342 1.14142,3.67177 1.41763,4.57412 0.83085,2.71426 2.15844,1.84987 2.1598,-1.40625 z M 101.25,204.19452 c 0,-1.01861 8.12202,-6.38202 9.66455,-6.38202 0.74688,0 1.8467,-1.17991 2.44405,-2.62202 1.49724,-3.61465 -0.4235,-8.0579 -3.63915,-8.41842 -3.25722,-0.36518 -6.52441,-2.71577 -7.55973,-5.43886 -1.08989,-2.86663 -2.828173,-3.5846 -6.851426,-2.82983 -3.597904,0.67498 -11.717606,7.91808 -14.150548,12.62288 -1.469641,2.84197 -1.475878,3.25677 -0.08098,5.38566 1.288697,1.9668 1.988117,2.21708 4.748517,1.69922 2.826739,-0.53029 3.237219,-0.36623 3.237219,1.29391 0,1.04566 -0.527344,2.08567 -1.171875,2.31112 -1.783643,0.6239 1.973947,4.43384 4.372913,4.43384 1.085115,0 2.499871,-0.84375 3.143896,-1.875 1.625954,-2.60356 3.342985,-2.3685 2.816513,0.38558 -0.381769,1.99709 -0.230606,2.13471 1.296956,1.18073 0.950997,-0.59391 1.729097,-1.37996 1.729097,-1.74679 z m 4.6875,-15.28827 c 0,-0.77344 0.42188,-1.40625 0.9375,-1.40625 0.51563,0 0.9375,0.63281 0.9375,1.40625 0,0.77344 -0.42187,1.40625 -0.9375,1.40625 -0.51562,0 -0.9375,-0.63281 -0.9375,-1.40625 z M 95.625,187.52407 c 0,-0.50238 1.265625,-1.5679 2.8125,-2.36782 3.37958,-1.74765 3.76959,-0.37401 0.501731,1.76718 -2.672194,1.75088 -3.314231,1.86724 -3.314231,0.60064 z m 123.7107,3.54689 c 0.0217,-1.38754 0.46117,-2.78353 0.9768,-3.10221 0.57195,-0.35348 0.9375,1.06557 0.9375,3.63935 0,2.32031 0.40951,4.47183 0.91001,4.78116 1.21662,0.75191 2.29217,-3.76657 1.39018,-5.84028 -2.55383,-5.87146 -0.39969,-16.7543 5.40436,-27.30318 5.26372,-9.56681 11.79365,-16.77817 10.4134,-11.50009 -0.27253,1.04215 0.13431,1.97243 1.00946,2.30826 0.89961,0.34522 1.23821,1.15611 0.87642,2.09891 -0.32425,0.845 -0.1373,1.81586 0.41545,2.15748 1.62058,1.00157 10.61659,13.42559 12.31095,17.00214 0.85496,1.80469 3.15532,5.73938 5.11192,8.74377 1.9566,3.00439 4.60068,7.53955 5.87573,10.07813 1.27506,2.53858 2.4843,4.6156 2.68721,4.6156 0.68399,0 -3.17096,-10.30848 -4.63841,-12.40358 -0.79981,-1.14186 -1.45418,-2.40412 -1.45418,-2.80502 0,-1.45554 2.52171,-0.67921 4.48415,1.38047 1.10538,1.16016 3.35723,3.375 5.00412,4.92188 l 2.99434,2.8125 -1.62683,-2.65658 c -2.45945,-4.01625 -7.11601,-7.90033 -11.54629,-9.63085 -3.25327,-1.27077 -4.39774,-2.41959 -6.32668,-6.35075 -1.29521,-2.63962 -3.60077,-6.48682 -5.12345,-8.54932 -1.52269,-2.0625 -3.02381,-4.86641 -3.33583,-6.23092 -0.31201,-1.3645 -1.38714,-3.22285 -2.38917,-4.12967 -1.00203,-0.90682 -1.82186,-2.35941 -1.82186,-3.22798 0,-0.86857 -1.08769,-2.0748 -2.41707,-2.6805 -2.77558,-1.26465 -3.38936,-0.72521 -9.69071,8.51685 -3.52855,5.17528 -9.45472,20.67004 -9.45472,24.72065 0,1.09659 -0.87714,2.35519 -1.9863,2.8501 -1.7219,0.76833 -2.02638,1.81699 -2.28734,7.87765 l -0.30103,6.99132 1.77929,-3.28125 c 0.97861,-1.80469 1.79697,-4.41651 1.81858,-5.80404 z m 22.33963,2.86949 c 0.58782,-3.16088 1.26703,-5.94531 1.50935,-6.18763 0.9961,-0.9961 2.44073,0.96323 2.4465,3.31814 0.004,1.38753 0.84437,3.78841 1.86882,5.33529 l 1.86264,2.8125 0.003,-2.8125 c 0.002,-1.54688 -0.86223,-4.23117 -1.91935,-5.96511 -1.0571,-1.73393 -1.74684,-3.32776 -1.53276,-3.54185 0.89844,-0.89845 5.21376,1.59008 7.52929,4.34194 1.6338,1.94166 2.495,2.45694 2.495,1.49283 0,-1.77441 -7.09905,-7.10906 -9.46033,-7.10906 -0.92346,0 -1.91243,-0.37767 -2.19771,-0.83927 -0.81316,-1.3157 2.22674,-2.06932 4.16432,-1.03236 2.38239,1.275 2.58834,1.21798 3.8039,-1.05332 0.86519,-1.61662 0.7172,-2.45606 -0.79316,-4.49893 -1.02126,-1.38132 -2.96873,-4.70572 -4.32772,-7.38755 -1.35912,-2.68184 -2.85737,-4.87607 -3.32956,-4.87607 -1.67075,0 -1.95938,3.57658 -0.61506,7.62127 1.91521,5.76229 2.16301,8.54621 0.80205,9.01034 -0.76364,0.26042 -1.17187,-0.56744 -1.17187,-2.37649 0,-1.52688 -0.65661,-4.34763 -1.45913,-6.26834 -0.80253,-1.92071 -1.78341,-6.71832 -2.17975,-10.66136 -0.69281,-6.89252 -0.76635,-7.06064 -1.90586,-4.35667 -1.2409,2.94458 -0.84279,6.69167 2.14159,20.15625 0.80957,3.65251 1.01063,6.45054 0.50191,6.98437 -1.06033,1.11263 -1.1308,13.64063 -0.0768,13.64063 0.42463,0 1.25298,-2.58618 1.84081,-5.74705 z m -15.75218,0.92903 c 0.008,-0.84521 0.82624,-2.53271 1.81857,-3.75 l 1.80421,-2.21323 0.65794,4.90403 c 0.78148,5.82473 2.29613,5.6454 2.29613,-0.27186 0,-2.28988 0.42187,-4.16342 0.9375,-4.16342 0.51562,0 0.9375,0.49219 0.9375,1.09375 0,0.60156 0.24946,0.8443 0.55435,0.5394 1.07386,-1.07387 -0.6397,-4.24928 -2.56472,-4.75269 -1.85513,-0.48513 -1.91852,-0.92692 -1.32622,-9.24185 0.34212,-4.8028 0.80551,-9.99799 1.02974,-11.54486 l 0.40771,-2.8125 -1.41258,3.08538 c -0.77691,1.69695 -1.68408,5.70476 -2.01591,8.90625 -0.33182,3.20148 -1.33984,6.87556 -2.24002,8.16462 -1.0549,1.51061 -1.79168,4.79488 -2.07265,9.2392 -0.25445,4.0245 -0.10078,6.3665 0.36906,5.625 0.44276,-0.69874 0.81149,-1.962 0.81939,-2.80722 z m -103.91771,-5.41549 c 0.67016,-1.3325 2.30956,-3.8993 3.64313,-5.70399 1.33356,-1.80469 5.91282,-8.76563 10.17612,-15.46875 4.26331,-6.70313 8.42328,-13.24219 9.24438,-14.53125 1.42188,-2.23222 1.37216,-2.22107 -1.04476,0.23437 -3.78933,3.84972 -6.04854,3.33594 -2.69619,-0.61315 1.57482,-1.85513 1.57176,-1.87915 -0.0762,-0.59888 -2.85833,2.22055 -11.98928,14.0255 -18.26263,23.61084 -5.51137,8.42109 -5.92885,9.43552 -6.103,14.82969 l -0.18694,5.79026 2.04383,-2.5632 c 1.1241,-1.40976 2.59213,-3.65343 3.26228,-4.98594 z m 116.33478,-3.28578 c 0.2415,-1.26335 0.0874,-2.85162 -0.34246,-3.52948 -0.53077,-0.83701 -0.78616,-0.42985 -0.79591,1.26897 -0.008,1.3758 -0.29698,3.23797 -0.64242,4.13817 -0.39534,1.03025 -0.26314,1.41117 0.35681,1.02802 0.54168,-0.33477 1.18247,-1.64233 1.42398,-2.90568 z m 17.69306,-0.54957 c -0.64323,-3.01723 -0.75433,-3.10539 -1.41193,-1.12052 -0.43975,1.32731 -0.27284,2.68563 0.43479,3.53827 1.58312,1.90754 1.79008,1.39545 0.97714,-2.41775 z m -139.17132,-5.24487 c 1.98373,-2.88817 4.77039,-7.13375 6.19256,-9.43462 2.71031,-4.38489 11.37033,-15.66835 15.71099,-20.4704 1.99043,-2.20201 5.35712,-10.78125 4.23081,-10.78125 -0.27711,0 -3.51453,3.23946 -24.64563,24.6612 -10.3296,10.47168 -15.06723,15.91088 -14.69762,16.8741 0.6113,1.59301 5.67555,4.34811 8.05264,4.38085 0.85221,0.0117 3.17252,-2.3417 5.15625,-5.22988 z m 119.5199,-5.99877 c -0.73178,-2.74236 -0.89384,-2.89632 -0.98682,-0.9375 -0.0612,1.28906 -0.56218,2.97656 -1.11332,3.75 -0.7522,1.05557 -0.851,0.588 -0.39623,-1.875 0.33322,-1.80469 0.79013,-5.60156 1.01535,-8.4375 0.32669,-4.11353 0.23136,-4.61556 -0.4714,-2.48256 -1.69775,5.15297 -2.11469,12.37646 -0.95797,16.59708 l 1.14193,4.16673 1.32201,-3.75 c 0.95201,-2.7004 1.07696,-4.66839 0.44645,-7.03125 z m 39.47833,-4.21875 c 0.80168,-2.57813 1.77556,-5.48023 2.16418,-6.44913 0.38863,-0.9689 -1.03638,0.0858 -3.1667,2.34375 l -3.87329,4.10538 0.0155,-2.8125 c 0.008,-1.54688 1.79097,-6.39844 3.96094,-10.78125 3.3274,-6.72052 4.71769,-8.50283 8.87566,-11.37835 4.73852,-3.27703 14.28758,-14.99665 15.56149,-19.09871 0.80648,-2.59693 -1.69656,-17.40458 -3.50222,-20.71868 -3.36688,-6.179626 -8.94056,-10.67926 -13.22832,-10.67926 -8.59061,0 -21.27311,13.6983 -27.15811,29.33334 -4.86701,12.93043 -7.8101,31.96385 -5.6117,36.29166 4.20764,8.28327 9.96368,15.32529 16.00921,19.58594 l 6.43695,4.5365 1.02943,-4.7956 c 0.56619,-2.63758 1.68534,-6.90496 2.48701,-9.48309 z m -48.98519,7.28842 c 0,-2.93866 -0.44905,-2.59869 -1.31195,0.99326 -0.4186,1.74251 -0.30268,2.44931 0.33687,2.05404 0.53629,-0.33144 0.97508,-1.70273 0.97508,-3.0473 z m 15.11277,-16.4569 c -1.45669,-1.4567 -2.27406,-0.24169 -1.49298,2.21929 0.60851,1.91721 0.74568,1.95598 1.589,0.44905 0.6223,-1.11199 0.59102,-1.9813 -0.096,-2.66834 z m 71.12951,-2.28644 c -1.01546,-1.58295 -1.04321,-1.58048 -0.53182,0.0472 0.29675,0.94451 0.58848,2.42108 0.64829,3.28125 0.098,1.40895 0.15068,1.40426 0.53182,-0.0472 0.23268,-0.88614 -0.0591,-2.36271 -0.64829,-3.28125 z m -27.16698,1.37679 c 0.007,-0.64453 0.28027,-2.22656 0.60717,-3.51562 0.84738,-3.34139 -0.50813,-1.78383 -1.52095,1.74768 -0.51396,1.79207 -0.50267,2.93982 0.029,2.93982 0.47963,0 0.87781,-0.52734 0.88485,-1.17188 z m 22.20906,-3.92887 c -0.41082,-2.53163 -0.23821,-3.11629 0.80218,-2.71705 0.90289,0.34646 0.61763,-0.79242 -0.89447,-3.57113 -1.67845,-3.0844 -2.35673,-6.16263 -2.78002,-12.61644 -0.81546,-12.43294 -2.23828,-14.92864 -1.76349,-3.09324 0.66608,16.60424 0.65335,18.13641 -0.16687,20.06736 -0.7812,1.83913 -0.76946,1.84036 0.61362,0.0639 1.34855,-1.73208 1.4645,-1.66051 2.65821,1.64062 1.56595,4.33058 2.21241,4.42599 1.53084,0.22595 z m -24.01871,-4.97738 c 1.33558,-1.67702 2.722,-1.44561 2.80837,0.46875 0.0442,0.98011 0.26438,1.16882 0.54687,0.46875 0.68088,-1.68742 1.98367,-1.44147 2.48286,0.46875 0.23581,0.90235 0.47769,0.0835 0.5375,-1.81966 0.0598,-1.90317 0.53702,-3.72499 1.06045,-4.04848 0.52344,-0.32351 1.54735,-1.93044 2.27535,-3.57096 0.72801,-1.64052 2.46938,-4.88121 3.86971,-7.20152 3.34337,-5.53988 1.80714,-3.88579 -3.7005,3.98437 -2.43567,3.48047 -5.00625,6.32813 -5.71239,6.32813 -1.44803,0 -10.82385,10.14991 -10.78139,11.67152 0.0232,0.8323 2.97084,-2.17615 6.61317,-6.74965 z m 37.37887,5.31033 c -0.57554,-1.0754 -1.28331,-1.71842 -1.57282,-1.4289 -0.28952,0.28951 0.007,1.16939 0.65949,1.95529 1.68546,2.03085 2.14132,1.76812 0.91333,-0.52639 z m -134.99109,-5.17917 c -0.87247,-2.64365 -0.87176,-3.55569 0.003,-4.09645 0.8181,-0.50562 0.71997,-0.8513 -0.35927,-1.26544 -0.81629,-0.31339 -1.48447,-1.42678 -1.48447,-2.47422 0,-2.62747 3.15743,-2.47973 5.32258,0.24906 0.93977,1.1844 2.31898,2.5262 3.06492,2.98177 1.80935,1.10503 -1.66321,-3.71498 -5.94171,-8.24728 -3.9683,-4.20368 -4.69226,-6.49971 -4.13153,-13.10315 0.55732,-6.56331 2.69112,-10.68349 9.02299,-17.42252 4.06132,-4.32247 7.09046,-6.47732 12.81089,-9.113341 14.14719,-6.519134 21.73737,-4.203084 27.96213,8.532291 3.87224,7.92231 5.0335,13.04208 6.32075,27.86676 0.90139,10.38108 1.17731,11.47109 3.33286,13.16664 1.29255,1.01673 2.13195,2.4171 1.8653,3.11195 -0.26663,0.69484 -0.12931,1.48306 0.30518,1.75158 0.95974,0.59315 1.91042,-2.66465 1.92784,-6.60634 0.0313,-7.07774 7.1594,-28.20908 12.55517,-37.21982 3.31926,-5.54304 8.49234,-10.676776 14.99121,-14.877208 6.9794,-4.511007 10.10628,-4.617809 16.1886,-0.552937 5.61801,3.754575 9.23149,10.667215 11.63905,22.265625 1.57562,7.5906 1.65671,7.74631 1.70894,3.28125 0.081,-6.92386 -5.82182,-21.863287 -10.5671,-26.744359 -2.00925,-2.066746 -4.69105,-4.018204 -5.95954,-4.336576 -2.74145,-0.688061 -11.92506,1.209956 -13.59075,2.808863 -0.64435,0.618504 -2.36211,2.043956 -3.81727,3.167669 -7.25179,5.600053 -23.13551,33.080173 -23.13551,40.026303 0,2.71472 -1.83236,8.04685 -2.76526,8.04685 -0.38875,0 -0.9626,-3.31671 -1.2752,-7.37045 -1.23043,-15.95581 -8.11597,-34.3863 -15.17829,-40.627637 -8.40801,-7.43058 -23.30265,-1.034299 -42.65625,18.318087 -5.41406,5.41372 -11.74219,12.03845 -14.0625,14.72162 -2.71673,3.14158 -6.19622,5.83799 -9.77288,7.57341 -4.73184,2.29594 -10.21452,6.44747 -8.51478,6.44747 1.44539,0 7.3873,-2.98376 10.17266,-5.10826 1.72465,-1.31545 3.57787,-2.39174 4.11828,-2.39174 0.54039,0 2.59117,-2.10938 4.55727,-4.6875 3.49898,-4.58817 5.4907,-5.75249 6.20005,-3.62444 0.22575,0.67725 0.96528,0.45213 2.03773,-0.62033 1.61952,-1.6195 1.67375,-1.61537 1.4294,0.10882 -0.34759,2.45274 0.8851,11.11348 2.39005,16.7922 0.68324,2.57812 1.51416,6.5457 1.8465,8.81683 0.67755,4.63033 1.60271,6.73222 2.18901,4.97329 0.20488,-0.61465 -0.13255,-2.6479 -0.74986,-4.51834 z m -4.77194,-7.39678 c 0.11408,-5.21786 -1.58684,-0.3033 -2.11795,6.11952 l -0.50177,6.06798 1.27911,-4.6875 c 0.70352,-2.57813 1.30679,-5.95313 1.34061,-7.5 z m 135.91612,6.5625 c 0.59256,0 1.05372,-0.42188 1.02478,-0.9375 -0.0863,-1.53809 -4.87498,-11.79116 -5.30581,-11.36033 -0.21856,0.21856 0.48549,2.12796 1.56456,4.24312 1.83025,3.58758 1.86354,4.03606 0.49585,6.68088 -0.80637,1.55933 -1.16516,3.3221 -0.79733,3.91726 0.44406,0.7185 0.88245,0.47299 1.30466,-0.73066 0.34975,-0.99702 1.12072,-1.81277 1.71329,-1.81277 z m -152.73533,-7.84201 c -0.0489,-1.9276 -0.35482,-1.54342 -1.39202,1.74826 -1.72667,5.47987 -1.67292,7.92621 0.0852,3.87674 0.75325,-1.73498 1.34134,-4.26623 1.30684,-5.625 z m -18.21853,6.43576 c 0.31868,-0.51563 0.15753,-0.9375 -0.3581,-0.9375 -0.51562,0 -1.19822,0.42187 -1.5169,0.9375 -0.31868,0.51562 -0.15753,0.9375 0.3581,0.9375 0.51562,0 1.19822,-0.42188 1.5169,-0.9375 z m 21.09375,-1.875 c 1.03125,-1.03125 2.61328,-1.87634 3.51562,-1.87799 1.31386,-0.003 1.64544,-0.83797 1.66475,-4.19526 0.0155,-2.68518 -0.25406,-3.69518 -0.74971,-2.80952 -0.4256,0.76052 -1.32943,1.38277 -2.0085,1.38277 -0.67908,0 -2.11129,2.10937 -3.18272,4.6875 -2.14525,5.16205 -2.02684,5.5999 0.76056,2.8125 z m 144.71218,0.47354 c 0.29579,-0.7708 -0.37898,-3.40752 -1.49948,-5.85937 l -2.03728,-4.45792 -0.3429,3.15804 c -0.34743,3.19981 1.29227,8.56071 2.61841,8.56071 0.39791,0 0.96547,-0.63066 1.26125,-1.40146 z M 178.53033,138.75 c 0.58255,-3.08048 0.53178,-3.1699 -0.82991,-1.46144 -0.79773,1.00089 -1.4376,3.11027 -1.42191,4.6875 0.0351,3.52403 1.32471,1.67637 2.25182,-3.22606 z m -16.17225,2.34375 c 0.58734,-1.28906 1.63298,-2.34375 2.32366,-2.34375 0.69066,0 1.25576,-0.63281 1.25576,-1.40625 0,-0.77344 -0.31641,-1.39724 -0.70312,-1.38623 -1.13836,0.0324 -6.07944,7.47998 -4.96259,7.47998 0.56013,0 1.49895,-1.05469 2.08629,-2.34375 z m -9.03622,-6.67664 c 1.81514,0.69653 7.67389,-2.61769 11.38814,-6.44213 l 3.29552,-3.3933 -3.61214,1.56564 c -1.98666,0.8611 -5.08869,1.73785 -6.89338,1.94834 -1.80469,0.2105 -4.45635,0.77865 -5.89257,1.26258 -2.63155,0.88668 -15.66993,9.26917 -15.66993,10.07434 0,0.43433 7.28857,-3.62112 10.75548,-5.98448 2.43727,-1.66148 4.24452,-1.59946 4.24452,0.14565 0,0.77344 -0.35416,1.40625 -0.78701,1.40625 -0.43287,0 -1.36855,1.16016 -2.0793,2.57812 -2.25182,4.49245 -2.10769,4.55188 1.006,0.4148 1.68433,-2.23792 3.57673,-3.83212 4.24467,-3.57581 z m 87.06949,-38.230941 c 8.03171,-5.331145 13.0979,-11.492445 15.52643,-18.882668 2.58056,-7.852822 4.25265,-16.423125 4.19906,-21.522251 -0.11206,-10.662203 -3.53342,-25.483529 -7.46058,-32.319184 -1.63704,-2.849449 -4.15822,-8.017213 -5.60261,-11.48392 -1.44439,-3.466707 -2.9346,-6.1124774 -3.31159,-5.8794896 -0.37698,0.2329878 -1.23589,1.8037595 -1.90868,3.4906036 -0.67278,1.686845 -1.94062,4.121677 -2.81741,5.41074 -3.53224,5.193137 -14.05298,27.242651 -16.34147,34.248657 -1.34204,4.108551 -3.08598,11.209079 -3.87542,15.778951 -2.12494,12.300619 -0.741,16.939675 7.50147,25.145341 1.48873,1.482091 2.91005,2.491451 3.15848,2.243024 0.24843,-0.248428 -0.19352,-1.096891 -0.9821,-1.885473 -1.87943,-1.879425 -4.73961,-9.422897 -4.174,-11.008528 0.24342,-0.682398 0.95737,0.624241 1.58654,2.903639 0.62918,2.279399 2.58488,6.031472 4.346,8.337941 l 3.20203,4.193573 0,-10.413709 c 0,-16.301094 2.25457,-36.420604 6.68987,-59.699666 2.46989,-12.963467 2.64155,-13.476349 2.19637,-6.5625 -0.2656,4.125 -1.7458,13.617187 -3.28934,21.09375 -2.31787,11.227346 -2.88991,16.612955 -3.28602,30.9375 -0.26377,9.539062 -0.66483,19.980469 -0.89121,23.203125 -0.22639,3.222656 -0.15476,5.859375 0.15919,5.859375 0.31395,0 2.73269,-1.434975 5.37499,-3.188831 z m -3.64331,-3.139294 c 0.80338,-1.933594 3.03832,-6.257813 4.96653,-9.609375 7.50714,-13.048747 9.62136,-18.336235 11.24589,-28.125 l 0.85571,-5.15625 0.12317,5.369223 c 0.13867,6.045304 -2.28545,13.323595 -7.73517,23.224527 -1.8448,3.351562 -4.71878,8.730469 -6.38664,11.953125 -3.30462,6.385238 -5.41968,8.000222 -3.06949,2.34375 z M 223.29398,68.962683 c -0.183,-9.076151 1.83513,-23.208568 3.1294,-21.914306 0.24295,0.242959 -0.17997,5.049435 -0.93985,10.681058 -0.75986,5.631623 -1.52535,12.34869 -1.70107,14.926815 -0.18532,2.71896 -0.39046,1.167828 -0.48848,-3.693567 z m 48.12782,17.052942 c 0.85753,-1.675781 2.96354,-6.684708 4.68005,-11.130949 5.57664,-14.445135 9.1729,-20.49229 16.94841,-28.498927 4.6221,-4.759494 3.93917,-2.417119 -0.86474,2.965982 -5.5135,6.178238 -8.34156,11.279659 -14.21171,25.635895 -4.98383,12.18862 -5.22405,14.151188 -0.93857,7.667943 1.24948,-1.890251 3.53252,-5.215141 5.07343,-7.388647 1.54092,-2.173505 3.96899,-6.392255 5.39572,-9.375 1.42673,-2.982744 3.65093,-7.110672 4.94268,-9.173172 1.29174,-2.0625 2.82638,-4.63103 3.41031,-5.707843 2.95037,-5.44072 15.88987,-20.073407 17.75066,-20.073407 0.60004,0 1.58658,-1.087678 2.19228,-2.417062 l 1.10129,-2.417061 -2.59143,1.856655 c -1.42528,1.02116 -3.59363,2.930704 -4.81854,4.24343 -1.22491,1.312727 -3.54028,2.675197 -5.14526,3.027711 -2.03253,0.446417 -5.98816,3.759995 -13.03377,10.918214 -9.0636,9.208446 -10.59145,11.267467 -14.69095,19.798322 -2.51644,5.236572 -5.0726,11.841353 -5.68035,14.677291 -0.60777,2.835937 -1.30755,5.894531 -1.55509,6.796875 -0.72241,2.633363 0.34623,1.895117 2.03558,-1.40625 z m 9.18671,-0.807412 c 2.7578,-1.403031 16.57899,-15.04919 16.57899,-16.369043 0,-0.576713 0.87858,-1.84367 1.95239,-2.815461 1.07382,-0.971791 2.55593,-3.211326 3.29356,-4.976745 0.73764,-1.765418 1.56235,-2.988657 1.83271,-2.718307 1.57618,1.576183 -5.60217,12.551332 -13.50998,20.655718 -7.23056,7.410292 -5.7561,8.769715 1.66818,1.538042 9.10554,-8.869298 12.18211,-15.13849 14.11011,-28.752398 0.61152,-4.318028 2.17557,-9.30971 4.25936,-13.59375 l 3.29298,-6.770019 -3.52778,3.834675 c -4.43961,4.825828 -12.52137,15.064857 -13.92873,17.646736 -0.58644,1.075849 -3.01815,5.331089 -5.4038,9.456089 -2.38566,4.125 -4.34069,7.866524 -4.34453,8.314498 -0.004,0.447973 -2.33678,4.13938 -5.18431,8.203125 -5.05108,7.208407 -5.26805,8.472852 -1.08915,6.34684 z M 240,682.01877 c 0,-3.62029 6.04522,-21.24555 8.70313,-25.37458 3.58793,-5.5738 11.01319,-12.78855 15.70072,-15.25556 2.30445,-1.21283 6.08834,-3.19529 8.40865,-4.4055 4.50368,-2.34897 13.97966,-4.86724 27.65625,-7.34971 20.21919,-3.67004 29.45452,-5.41934 35.15625,-6.65909 3.35156,-0.72874 11.78906,-2.41047 18.75,-3.73718 6.96094,-1.3267 15.82031,-3.27306 19.6875,-4.32524 3.86719,-1.05217 8.71875,-2.32866 10.78125,-2.83664 11.27894,-2.77789 10.80245,-2.5973 27.65449,-10.48073 7.11472,-3.32829 16.34834,-10.51827 19.68926,-15.33152 1.28906,-1.85715 3.21762,-4.32146 4.2857,-5.47626 6.52957,-7.05977 16.184,-24.35059 27.74637,-49.69301 l 5.56049,-12.1875 -3.56191,3.3933 c -6.87326,6.54792 -22.56234,17.88848 -27.17285,19.64139 -1.21743,0.46287 -4.41862,2.23814 -7.11377,3.94505 -4.37452,2.77051 -23.26761,12.27627 -38.65028,19.44629 -3.09375,1.44204 -8.31132,3.92907 -11.59461,5.52675 -3.28328,1.59769 -10.24422,4.22893 -15.46875,5.84723 -5.22452,1.61828 -10.76476,3.48004 -12.31164,4.13724 -1.54688,0.65719 -5.34375,2.11332 -8.4375,3.23585 -3.09375,1.12251 -6.46875,2.4191 -7.5,2.88129 -1.03125,0.4622 -6.51563,2.47533 -12.1875,4.47364 -5.67188,1.99831 -12,4.51552 -14.0625,5.59381 -2.0625,1.07828 -5.19048,2.6446 -6.95106,3.48071 -1.76058,0.83612 -8.08871,4.71059 -14.0625,8.60994 -8.9003,5.80962 -13.74925,9.98526 -26.8551,23.12612 -9.79472,9.8209 -16.65763,17.48984 -17.70674,19.78639 -0.94219,2.0625 -2.30741,4.38281 -3.0338,5.15625 -0.7264,0.77344 -1.96155,2.25 -2.74479,3.28125 -1.29894,1.71027 -1.37455,1.21609 -0.86059,-5.625 0.3099,-4.125 0.93976,-8.76563 1.39969,-10.3125 0.45994,-1.54688 1.95986,-6.60938 3.33315,-11.25 5.37661,-18.16853 9.35731,-26.10839 20.7532,-41.39408 8.13326,-10.90941 24.1396,-26.70499 32.05541,-31.63332 2.39835,-1.49319 6.47,-4.10657 9.04813,-5.80749 8.20469,-5.41308 15.99457,-9.54299 28.62654,-15.17678 11.02383,-4.91656 25.47949,-14.7095 36.15776,-24.49494 3.14699,-2.88386 8.11647,-7.2953 11.0433,-9.80317 5.49656,-4.70979 14.09984,-15.46684 16.9725,-21.22147 0.90089,-1.80469 2.39906,-4.125 3.32927,-5.15625 4.09794,-4.54304 15.70591,-28.12674 17.92016,-36.40805 2.27169,-8.49615 3.56573,-20.48218 3.0848,-28.5729 -1.15538,-19.43674 -2.57359,-31.73588 -5.48762,-47.59013 -2.64059,-14.36651 -3.2912,-28.01989 -2.20799,-46.33517 1.0362,-17.52028 1.15466,-21.69956 0.87284,-30.79182 l -0.15531,-5.01058 -3.28125,3.9274 c -1.80469,2.16007 -3.28125,4.4634 -3.28125,5.11852 0,0.65512 -0.78382,2.19723 -1.74183,3.42692 -0.958,1.22969 -3.31099,5.39987 -5.22887,9.26706 -1.91788,3.86719 -3.94785,7.875 -4.51106,8.90625 -4.58689,8.39875 -15.78625,46.19857 -19.02679,64.21875 -1.20393,6.69491 -2.51736,11.19226 -6.98169,23.90625 -1.08632,3.09375 -2.42595,7.73437 -2.97695,10.3125 -0.551,2.57812 -1.32548,5.10937 -1.72107,5.625 -0.39558,0.51562 -1.88787,4.10156 -3.31619,7.96875 -2.28417,6.18443 -3.95302,10.65133 -6.47966,17.34375 -2.03794,5.39798 -11.48261,23.80763 -13.43988,26.19715 -1.24325,1.51782 -2.63879,3.62719 -3.10119,4.6875 -0.46242,1.06032 -3.21032,5.72472 -6.10646,10.36535 -2.89614,4.64063 -5.85696,9.80859 -6.57962,11.48437 -0.72264,1.67579 -1.65243,3.04688 -2.06619,3.04688 -0.41376,0 -1.74979,1.77482 -2.96896,3.94403 -1.93946,3.45081 -11.90711,17.24804 -19.48984,26.97785 -1.39975,1.7961 -5.04137,6.8586 -8.09251,11.25 -3.05112,4.3914 -6.07677,8.40624 -6.72364,8.92187 -0.64689,0.51562 -4.42567,5.78906 -8.39729,11.71875 -3.97164,5.92969 -8.11787,11.84877 -9.21386,13.15352 -1.09598,1.30475 -2.79505,4.1524 -3.7757,6.32812 -1.171,2.59802 -2.38316,3.95586 -3.53142,3.95586 -1.61182,0 -1.55374,-0.38453 0.74339,-4.92188 1.37048,-2.70703 4.47688,-7.875 6.90309,-11.48437 4.90253,-7.29331 13.61326,-24.88851 15.54804,-31.40625 1.53711,-5.17808 4.45602,-13.26224 5.24673,-14.53125 0.32128,-0.51563 1.51255,-4.94531 2.64724,-9.84375 3.78153,-16.32468 6.68003,-27.57049 9.45041,-36.66641 1.50935,-4.9556 2.74427,-9.70169 2.74427,-10.54688 0,-0.84519 0.4503,-1.53671 1.00068,-1.53671 0.55037,0 0.77288,0.73828 0.49447,1.64062 -1.4479,4.69273 -8.00405,30.04544 -9.87924,38.20313 -2.86287,12.45447 -11.94471,40.64086 -14.05203,43.61188 C 283.2641,550.99307 281.73655,555 282.569,555 c 0.27932,0 1.11754,-1.16016 1.86273,-2.57813 1.60319,-3.05061 12.32594,-17.85802 16.80249,-23.20312 1.72735,-2.0625 4.74967,-6.07031 6.71626,-8.90625 1.96659,-2.83594 5.09553,-6.87839 6.95319,-8.98323 1.85767,-2.10484 4.54104,-5.90171 5.96304,-8.4375 1.422,-2.53579 5.09492,-8.61833 8.16207,-13.51677 3.06714,-4.89844 6.88166,-11.22656 8.4767,-14.0625 1.59506,-2.83594 4.54142,-7.6875 6.54749,-10.78125 2.00609,-3.09375 4.58098,-8.57813 5.72199,-12.1875 1.14101,-3.60938 3.95534,-10.57031 6.25406,-15.46875 2.29872,-4.89844 5.62035,-13.125 7.3814,-18.28125 1.76105,-5.15625 3.57218,-10.21875 4.02474,-11.25 0.45256,-1.03125 2.37624,-7.57031 4.27484,-14.53125 1.89861,-6.96094 4.02778,-14.55469 4.73152,-16.875 0.70372,-2.32031 1.91955,-7.38281 2.70183,-11.25 2.41876,-11.95705 10.59573,-39.89313 13.51411,-46.16999 1.01935,-2.19244 2.98518,-6.51751 4.36851,-9.61126 4.74033,-10.60152 8.1541,-16.87697 10.58229,-19.45313 1.33651,-1.41796 2.0347,-2.57655 1.55151,-2.57461 -1.18385,0.005 -7.06186,3.59082 -9.00673,5.49488 -0.86114,0.84308 -3.32715,2.79848 -5.48002,4.34536 -2.15286,1.54687 -4.4755,3.86719 -5.16141,5.15625 -0.68591,1.28906 -4.30695,5.29687 -8.04676,8.90625 -20.75753,20.0336 -19.96806,19.0209 -22.76722,29.20434 -4.90869,17.85796 -12.71566,29.32618 -27.76013,40.77883 -3.35156,2.55137 -7.48027,6.62235 -9.17491,9.0466 -4.35719,6.23316 -11.64889,21.5902 -15.22432,32.06398 -1.67219,4.89844 -3.85396,11.22656 -4.84841,14.0625 -0.99444,2.83594 -2.79291,8.74219 -3.99661,13.125 -1.20369,4.38281 -3.03197,10.92187 -4.06283,14.53125 -2.49475,8.73485 -3.88073,19.79301 -4.40632,35.15625 -0.83945,24.53761 -1.75038,27.17671 -24.43113,70.78125 -3.4866,6.70312 -6.92465,13.45312 -7.6401,15 -0.71547,1.54687 -1.89532,3.86719 -2.6219,5.15625 -5.30257,9.40745 -8.18791,16.11648 -11.49089,26.71875 -5.35801,17.19872 -6.01856,20.33864 -6.55766,31.17187 -0.5068,10.18417 -2.10742,13.36131 -2.10742,4.18312 0,-13.51131 4.23722,-35.61818 7.70386,-40.1934 0.49896,-0.65852 0.39816,-1.35202 -0.25522,-1.75583 -1.97116,-1.21825 0.32273,-16.37814 6.52059,-43.09326 1.64031,-7.07041 2.26587,-11.47607 1.68376,-11.85851 -0.50941,-0.33468 -0.6311,-1.37755 -0.27041,-2.31747 0.47435,-1.23616 0.85275,-1.39027 1.36771,-0.55705 0.45336,0.73355 1.45656,-0.6446 2.76208,-3.79439 2.74024,-6.61133 2.59137,-7.95888 -0.23174,-2.09758 -2.69526,5.59586 -3.16761,3.64479 -0.52654,-2.1749 1.01085,-2.22745 2.23118,-3.80685 2.71184,-3.50978 0.48065,0.29706 1.79113,-0.94395 2.91215,-2.75781 1.12103,-1.81385 3.51017,-5.08602 5.30921,-7.27146 2.93769,-3.56869 5.68035,-6.65114 18.96731,-21.3173 l 3.82203,-4.21875 -0.003,-8.4375 c -0.003,-9.61529 0.23494,-9.74989 -6.63091,3.75 -2.6224,5.15625 -5.30639,10.00781 -5.96444,10.78125 -0.65804,0.77344 -1.36365,1.82812 -1.56803,2.34375 -1.01164,2.55237 -4.85503,7.96875 -5.65452,7.96875 -0.49981,0 -0.0857,-1.16016 0.92033,-2.57813 5.2569,-7.40972 18.76003,-34.29136 19.40263,-38.6262 1.09273,-7.37117 3.6252,-17.90741 6.54573,-27.23317 1.69552,-5.41406 3.80823,-12.58594 4.69492,-15.9375 0.88669,-3.35156 1.86882,-6.51563 2.18251,-7.03125 0.5282,-0.86824 2.10924,-5.1142 6.80729,-18.28125 1.01187,-2.83594 3.75557,-8.90371 6.0971,-13.48393 3.25696,-6.37086 3.85698,-8.1623 2.55351,-7.62385 -0.93711,0.38711 -2.69915,0.83295 -3.91564,0.99075 -1.2165,0.1578 -3.32587,0.7138 -4.6875,1.23555 -4.80599,1.84158 -26.43579,6.69417 -29.90152,6.70833 -4.21701,0.0173 -4.70157,0.33499 -7.84142,5.1419 -9.6784,14.81703 -20.01233,36.02784 -24.8929,51.09375 -4.76978,14.72386 -4.99488,20.59135 -1.70842,44.53125 1.27413,9.28125 2.40021,21.72656 2.50238,27.65625 0.10219,5.92969 0.45654,-0.60938 0.78745,-14.53125 0.49856,-20.97562 0.94381,-26.8008 2.5987,-33.99906 1.09838,-4.7776 2.46521,-9.41822 3.03743,-10.3125 0.87832,-1.37269 0.95462,-1.2609 0.48986,0.71781 -4.08353,17.38533 -4.42476,21.00352 -4.68609,49.6875 -0.14328,15.72656 -0.59078,29.81683 -0.99444,31.3117 -0.52705,1.95183 -0.43113,2.53082 0.3403,2.05406 1.53677,-0.94979 1.36221,2.44453 -0.23827,4.63332 -1.20986,1.65458 -1.3125,1.51708 -1.3125,-1.75831 0,-1.9543 -0.25313,-3.80639 -0.5625,-4.11577 -0.30938,-0.30937 -0.5625,1.63937 -0.5625,4.33056 0,2.69118 -0.6377,7.92946 -1.41711,11.64062 C 240.30689,581.58196 240,583.35084 240,586.32152 c 0,1.67942 -0.31641,3.37035 -0.70313,3.75763 -0.38671,0.38728 -0.70312,5.93628 -0.70312,12.33111 0,15.39707 -1.78281,16.12471 -2.13404,0.87099 -0.14247,-6.1875 -0.64087,-15.89062 -1.10753,-21.5625 -0.46666,-5.67187 -0.88896,-28.82846 -0.93843,-51.45907 -0.0495,-22.63062 -0.23756,-41.40405 -0.41795,-41.71875 -0.18039,-0.3147 -0.62334,-8.16593 -0.98433,-17.44718 -0.36098,-9.28125 -0.78063,-19.19531 -0.93254,-22.03125 -0.2927,-5.46393 1.65801,-30.09174 2.82176,-35.625 0.91614,-4.35594 3.41173,-7.77888 8.50901,-11.67095 4.26722,-3.25826 5.02863,-3.44548 19.0903,-4.69395 5.82899,-0.51752 10.11831,-1.24234 24.84375,-4.19816 24.12663,-4.84292 27.11288,-5.72979 34.48318,-10.24111 16.39362,-10.03443 26.85027,-21.59619 29.70829,-32.84801 0.47207,-1.85849 1.28545,-5.06657 1.80754,-7.12907 0.56799,-2.2439 0.60295,-3.87098 0.087,-4.05123 -0.48974,-0.17111 -0.52273,-0.98106 -0.0763,-1.875 0.43221,-0.86557 1.63122,-3.26127 2.66446,-5.32377 1.03324,-2.0625 2.41498,-5.4375 3.07051,-7.5 0.65554,-2.0625 2.80634,-7.06391 4.77956,-11.11424 3.77488,-7.74856 8.2062,-23.56567 6.93447,-24.75185 -0.41065,-0.38302 -0.9668,-0.0636 -1.23589,0.70984 -1.96097,5.6364 -29.2603,27.8661 -46.12905,37.56264 -2.83594,1.63017 -7.26562,4.56117 -9.84375,6.51333 -2.57812,1.95218 -6.375,4.4764 -8.4375,5.60938 -2.0625,1.13299 -4.59375,2.80412 -5.625,3.71364 -1.03125,0.9095 -4.40625,3.3267 -7.5,5.37153 -15.71062,10.38402 -24.26066,16.95424 -30.61009,23.52211 -7.67232,7.9363 -15.19171,17.42879 -16.13085,20.36362 -0.69901,2.18445 -5.26939,4.72454 -5.32353,2.95867 -0.0732,-2.38756 -2.86807,4.12368 -5.57102,12.97883 -1.5739,5.15625 -3.34465,10.95703 -3.935,12.89063 -0.59035,1.93359 -1.66709,3.51562 -2.39274,3.51562 -0.94793,0 -1.12488,-0.59386 -0.62855,-2.10937 6.23249,-19.03048 5.72337,-10.83833 4.99114,-80.31229 -0.31372,-29.76483 -0.14805,-37.97423 0.77252,-38.28125 0.91881,-0.30644 1.17187,5.2516 1.17187,25.73862 0,14.3712 0.16884,31.38683 0.37522,37.8125 0.20637,6.42567 0.44586,15.69085 0.5322,20.58929 0.19328,10.96581 1.13476,9.17463 3.20298,-6.09375 0.83815,-6.1875 2.12042,-12.9375 2.84951,-15 1.82683,-5.16796 7.0744,-16.72751 7.86421,-17.32358 0.3563,-0.26891 2.08045,-2.17642 3.83146,-4.23892 10.81983,-12.74468 23.4709,-24.40992 29.51823,-27.21806 1.60597,-0.74576 5.45119,-2.82602 8.54494,-4.62282 6.81545,-3.95832 25.75704,-13.27113 30.9375,-15.21074 2.0625,-0.77221 4.59375,-1.76432 5.625,-2.20471 23.05729,-9.84618 34.03867,-13.3558 42.1875,-13.483 l 4.6875,-0.0732 -0.14436,6.09375 c -0.15589,6.58137 -5.13966,23.17227 -9.29336,30.9375 l -2.25665,4.21875 3.97219,-4.28714 c 3.93652,-4.24864 11.43249,-11.26697 23.28002,-21.79661 3.37809,-3.00231 10.49349,-8.40008 15.812,-11.99506 l 9.67003,-6.53632 2.31913,2.15132 2.31913,2.15131 -0.58413,14.53125 c -0.32126,7.99219 -0.84568,21.16884 -1.16536,29.28144 -0.62099,15.75902 0.39361,28.96891 3.47549,45.24981 3.07048,16.22071 5.82125,44.20557 5.16049,52.5 -0.52788,6.6265 -3.38422,17.77554 -7.76623,30.31357 -1.62013,4.6356 -11.48466,22.68933 -16.22063,29.68643 -9.35446,13.82066 -22.88145,28.20098 -36.88168,39.20832 -7.9101,6.21913 -7.73416,6.09941 -15.89233,10.81419 -6.48256,3.74641 -6.50929,4.97581 -0.0376,1.72877 3.9276,-1.9706 18.16808,-6.79352 27.04634,-9.15998 13.76322,-3.66851 18.20017,-4.63008 27.1875,-5.89203 14.39742,-2.02161 14.82093,-2.06503 43.34498,-4.44312 14.04287,-1.17077 25.804,-1.85718 26.13583,-1.52534 0.33182,0.33183 -0.29451,2.51339 -1.39186,4.84792 -1.09737,2.33452 -1.9952,4.51943 -1.9952,4.85535 0,2.42826 -20.67091,43.08394 -25.20122,49.56592 -8.91336,12.75327 -13.79861,18.64429 -18.22703,21.97964 -5.10854,3.84759 -20.67333,11.88314 -27.82175,14.36338 -16.83035,5.83952 -29.91656,9.1425 -51.09375,12.89612 -6.1875,1.09673 -16.73437,3.01083 -23.4375,4.25357 -6.70312,1.24274 -14.92969,2.68841 -18.28125,3.21262 -22.31588,3.49028 -37.73688,9.01114 -45.83483,16.40929 -6.51376,5.95085 -12.4801,16.25308 -14.17896,24.48318 -1.5432,7.47602 -3.66558,12.5585 -5.24425,12.5585 -0.76827,0 -1.30446,-0.96852 -1.30446,-2.35623 z m 5.625,-34.19349 c 0,-1.52464 10.08633,-12.28505 21.42097,-22.85257 16.28474,-15.18259 39.00845,-29.4609 55.92278,-35.13874 5.29479,-1.77736 10.72843,-3.85901 15,-5.74655 1.03125,-0.45569 4.19531,-1.55324 7.03125,-2.43899 2.83594,-0.88575 7.26562,-2.56129 9.84375,-3.72342 2.57812,-1.16215 6.79687,-2.77142 9.375,-3.57619 10.85753,-3.3892 16.02066,-5.45935 23.63287,-9.47554 4.42864,-2.33656 8.44359,-4.24828 8.9221,-4.24828 1.4502,0 27.05415,-13.01184 33.07003,-16.80608 3.09375,-1.95124 6.95434,-4.34701 8.57909,-5.32394 11.68678,-7.02702 16.53349,-10.34823 21.71506,-14.8803 6.80604,-5.9529 6.95994,-5.86305 -7.3254,-4.27712 -4.38281,0.48657 -14.08594,1.13519 -21.5625,1.44137 -7.99447,0.3274 -18.42072,1.468 -25.3125,2.76911 -6.44531,1.21682 -13.40625,2.49829 -15.46875,2.84772 -2.0625,0.34942 -6.07031,1.38425 -8.90625,2.2996 -2.83594,0.91536 -9.33388,2.82203 -14.43988,4.23705 -5.10599,1.41502 -10.59037,3.29169 -12.1875,4.17036 -1.59713,0.87868 -4.38043,2.18051 -6.18512,2.89296 -1.80469,0.71246 -4.75781,2.20785 -6.5625,3.3231 -1.80469,1.11525 -6.02344,3.44183 -9.375,5.17017 -5.30671,2.73656 -10.45117,5.89787 -18.2235,11.1985 -5.57378,3.80123 -20.22589,16.25057 -23.964,20.36127 -9.48806,10.4338 -12.44,13.99291 -13.8261,16.66998 -0.80092,1.54687 -2.76379,4.56846 -4.36193,6.71463 -1.59815,2.14616 -4.59322,6.69894 -6.65572,10.11728 -2.0625,3.41834 -4.68606,7.34403 -5.83013,8.72375 -1.14408,1.37972 -2.60349,3.78787 -3.24314,5.35146 -0.63964,1.56359 -3.34456,5.42583 -6.01093,8.58279 -2.6851,3.17913 -5.73443,8.10928 -6.83499,11.05079 -2.49467,6.6676 -2.53874,8.50064 -0.10855,4.51477 1.02931,-1.68825 1.87149,-3.46527 1.87149,-3.94894 z m 12.20145,-16.20989 c -0.0178,-0.93028 9.92517,-13.90247 14.89119,-19.42789 2.08541,-2.32031 3.81299,-4.64063 3.83909,-5.15625 0.0858,-1.69377 3.6108,-5.61372 4.36763,-4.8569 0.40704,0.40706 0.28803,1.03357 -0.26449,1.39225 -0.55251,0.35868 -2.0699,2.33965 -3.37197,4.40215 -1.30206,2.0625 -3.45388,4.90964 -4.78181,6.32698 -1.32794,1.41734 -3.6925,4.37047 -5.25456,6.5625 -3.66459,5.14248 -9.4071,11.6966 -9.42508,10.75716 z M 282.65625,600 c 0.31867,-0.51563 0.76545,-0.9375 0.99283,-0.9375 0.22738,0 0.41342,0.42187 0.41342,0.9375 0,0.51562 -0.44678,0.9375 -0.99283,0.9375 -0.54606,0 -0.73209,-0.42188 -0.41342,-0.9375 z M 285,597.42663 c 0,-0.47993 1.96403,-2.73397 4.36452,-5.00899 2.40048,-2.27501 5.67664,-5.40202 7.28035,-6.94889 2.46467,-2.37734 13.37741,-10.89221 28.67204,-22.37193 1.96709,-1.47644 3.99557,-2.53113 4.50775,-2.34375 0.51217,0.18737 -5.01915,4.77037 -12.29184,10.18443 -12.27073,9.13477 -22.07441,17.25301 -29.48595,24.41673 -1.67578,1.61974 -3.04687,2.55232 -3.04687,2.0724 z m 46.90446,-37.39041 c 0.0162,-0.4496 1.12663,-1.61749 2.46761,-2.59529 1.51895,-1.10757 2.28371,-1.31453 2.02853,-0.54898 -0.49296,1.4789 -4.53807,4.30775 -4.49614,3.14427 z m 15.73429,-10.20129 c 1.1935,-0.87377 2.42397,-1.33471 2.73437,-1.0243 0.7507,0.7507 0.23972,1.13803 -2.56062,1.94096 l -2.34375,0.67201 2.17,-1.58867 z m -98.22312,83.68069 c 1.55469,-1.67578 3.68355,-4.66196 4.73081,-6.63597 1.04728,-1.974 3.8381,-6.40368 6.20184,-9.84375 2.36374,-3.44005 5.3446,-8.15309 6.62414,-10.4734 1.27955,-2.32031 3.03624,-5.0625 3.90378,-6.09375 0.86754,-1.03125 3.24014,-4.35532 5.27244,-7.38681 6.31251,-9.41603 13.69045,-17.00092 26.33572,-27.07438 12.99705,-10.35369 22.72606,-17.23569 30.8104,-21.79431 7.55226,-4.25859 7.27841,-4.6526 -0.70504,-1.01442 -10.89843,4.96657 -18.5538,9.0027 -23.21472,12.23945 -2.32031,1.61133 -5.85277,3.75393 -7.8499,4.76133 -4.44083,2.24005 -16.87848,12.98131 -24.51816,21.17407 -8.13741,8.72653 -18.84279,24.64134 -24.51123,36.43882 -3.14756,6.55088 -7.26115,18.75 -6.32257,18.75 0.22868,0 1.68781,-1.37109 3.24249,-3.04687 z m 1.88502,-43.10225 c 3.06589,-6.04608 5.57435,-11.45445 5.57435,-12.01858 0,-0.56414 1.2401,-2.82812 2.75576,-5.03107 1.51567,-2.20295 4.60404,-7.76334 6.86304,-12.35642 2.259,-4.59307 4.59001,-9.1948 5.18002,-10.22605 6.3107,-11.03011 14.26368,-32.11279 14.26368,-37.8118 l 0,-2.92215 -5.39063,5.83572 c -7.38569,7.99552 -14.29687,16.21529 -14.29687,17.00387 0,0.35942 -1.72471,3.19324 -3.8327,6.29738 -2.10798,3.10414 -4.88637,8.02646 -6.1742,10.93848 -2.24721,5.08133 -8.0248,25.62032 -7.62904,27.12082 0.1052,0.39885 -0.48652,3.04549 -1.31492,5.88143 -1.33082,4.55593 -3.65624,19.19677 -3.48569,21.94594 0.0349,0.56254 0.47957,-0.0319 0.98815,-1.32094 0.50859,-1.28906 3.43316,-7.29054 6.49905,-13.33663 z m -9.94305,-27.47733 c 2.03692,-10.98792 2.4873,-46.04199 0.6982,-54.34229 -1.29658,-6.01527 -2.79468,-17.73134 -3.53633,-27.65625 -0.58284,-7.79974 1.24782,-17.2967 5.97119,-30.97683 4.13329,-11.97109 14.96996,-35.1611 18.81963,-40.27317 1.35903,-1.80469 3.23309,-4.65234 4.16459,-6.32813 l 1.69362,-3.04687 -8.81935,0 c -4.85064,0 -10.04246,0.43207 -11.53738,0.96015 -3.23648,1.14329 -9.34695,9.10338 -10.25739,13.36225 -0.35524,1.66174 -1.04439,3.51699 -1.53145,4.12276 -0.48706,0.60578 -1.12805,4.84435 -1.42443,9.41905 -0.64515,9.95788 1.43868,145.22912 2.27863,147.91704 0.64995,2.0799 0.66932,2.00664 3.48047,-13.15771 z m 101.29201,-23.86281 c 0.32845,-0.53143 -0.0479,-0.68859 -0.88217,-0.36844 -1.62414,0.62324 -1.9213,1.29521 -0.57277,1.29521 0.48519,0 1.13992,-0.41705 1.45494,-0.92677 z m -97.94832,-161.5541 c 2.35795,-8.863 13.87109,-27.0597 23.45442,-37.0701 6.03848,-6.30759 24.34429,-20.53962 24.34429,-18.92672 0,0.49138 -3.39679,3.47917 -7.54841,6.63954 -7.79533,5.93408 -16.87058,14.51314 -22.27476,21.0569 -3.30506,4.00199 -11.983,17.82308 -14.12423,22.49522 -1.34701,2.93916 -5.70779,17.34853 -5.25028,17.34853 0.14436,0 1.11107,-1.43827 2.14825,-3.19614 2.93618,-4.97647 12.77093,-16.56342 17.57828,-20.71011 6.39175,-5.51334 13.27473,-10.49975 29.0024,-21.01088 7.73437,-5.16904 14.90625,-10.06789 15.9375,-10.88634 1.03125,-0.81845 3.98437,-2.75415 6.5625,-4.30155 9.06404,-5.44029 18.67168,-11.93282 25.48069,-17.21901 2.67063,-2.07334 6.55749,-4.99916 8.63748,-6.50181 2.07998,-1.50264 7.41999,-6.45968 11.86668,-11.01563 l 8.08491,-8.28353 -3.30483,0 c -5.60234,0 -15.33932,2.70376 -23.77924,6.60302 -4.43347,2.04827 -9.99862,4.32727 -12.36702,5.06445 -2.3684,0.73718 -8.10407,3.20356 -12.74593,5.48084 -4.64187,2.27727 -9.49343,4.45985 -10.78125,4.85016 -1.28782,0.39031 -6.13837,2.87317 -10.77899,5.51745 -4.64063,2.64429 -9.59544,5.44512 -11.0107,6.22407 -7.33406,4.03658 -22.44909,18.04324 -30.40864,28.17881 -3.96766,5.05235 -9.80938,18.40715 -11.46325,26.2062 -0.49204,2.32031 -1.13828,7.38281 -1.43608,11.25 l -0.54144,7.03125 1.75861,-5.15625 c 0.96724,-2.83594 2.2988,-7.18671 2.95904,-9.66837 z M 298.59375,316.875 c 0.31867,-0.51563 0.76545,-0.9375 0.99283,-0.9375 0.22738,0 0.41342,0.42187 0.41342,0.9375 0,0.51562 -0.44678,0.9375 -0.99283,0.9375 -0.54606,0 -0.73209,-0.42188 -0.41342,-0.9375 z m -72.91832,312.81395 c -1.04463,-2.65601 -0.87433,-4.01285 0.34999,-2.78853 0.56398,0.56398 0.86792,1.80851 0.67543,2.76562 -0.33758,1.67844 -0.37397,1.67924 -1.02542,0.0229 z m 49.01207,-0.15602 c 0,-1.15467 12.48361,-6.5983 18.75,-8.17615 13.23398,-3.33228 38.76215,-8.29068 54.52669,-10.59087 19.25113,-2.80891 39.08733,-8.12211 49.06538,-13.14237 6.13337,-3.08587 8.45838,-3.71567 5.88371,-1.59376 -6.19316,5.10407 -26.34511,11.85421 -43.85078,14.68837 -5.41406,0.87653 -15.53906,2.6201 -22.5,3.87461 -6.96094,1.2545 -17.50781,3.11079 -23.4375,4.1251 -13.96535,2.38886 -26.29043,5.66142 -33.04688,8.77463 -2.96484,1.36612 -5.39062,2.28432 -5.39062,2.04044 z M 416.25,590.22063 c 0,-0.40217 1.05469,-1.98463 2.34375,-3.5166 1.31175,-1.55893 2.34375,-2.20647 2.34375,-1.47063 0,0.72312 -1.05469,2.30558 -2.34375,3.5166 -1.28906,1.21102 -2.34375,1.8728 -2.34375,1.47063 z M 53.464132,584.51966 c -4.883791,-2.74168 -9.045819,-5.48347 -9.248952,-6.09287 -0.203133,-0.6094 1.683321,0.0319 4.192119,1.4251 14.147922,7.8567 16.280201,9.09408 16.280201,9.44755 0,1.09023 -3.177845,-0.26315 -11.223368,-4.77978 z M 278.32954,567.53804 c 1.33426,-2.69423 11.17673,-13.03176 11.80731,-12.40118 0.27647,0.27646 -2.48916,3.62831 -6.14586,7.44853 -3.65669,3.82023 -6.20435,6.04892 -5.66145,4.95265 z M 28.125,561.50717 c 0,-0.54606 0.421875,-0.73209 0.9375,-0.41342 0.515625,0.31867 0.9375,0.76545 0.9375,0.99283 0,0.22738 -0.421875,0.41342 -0.9375,0.41342 -0.515625,0 -0.9375,-0.44678 -0.9375,-0.99283 z m 106.81631,-1.801 c -1.77241,-1.51524 -2.71874,-2.77212 -2.10296,-2.79307 1.44629,-0.0492 6.54597,4.32381 5.85296,5.01896 -0.2901,0.29099 -1.9776,-0.71066 -3.75,-2.22589 z M 23.705053,555.04418 c -1.657533,-2.5353 -3.297735,-5.79724 -3.644894,-7.24877 -0.347159,-1.45154 -0.947936,-3.06104 -1.335062,-3.57666 -1.353595,-1.8029 -6.757922,-15.04099 -8.03724,-19.6875 -1.5420408,-5.60073 -1.4991816,-5.15625 -0.497195,-5.15625 0.448613,0 1.366538,1.96754 2.039833,4.37231 0.673293,2.40477 2.465995,7.36181 3.983781,11.01563 1.517786,3.65382 3.498358,8.59728 4.401273,10.98545 0.902915,2.38818 2.961915,6.26107 4.575557,8.60642 3.036729,4.41373 3.427325,5.34451 2.230769,5.31584 -0.386719,-0.009 -2.059288,-2.09118 -3.716822,-4.62647 z M 291.5625,553.3233 c 0,-0.56638 1.26562,-1.77742 2.8125,-2.69118 1.54687,-0.91376 2.8125,-1.95445 2.8125,-2.31263 0,-1.31374 14.38938,-11.8494 28.64819,-20.97574 29.39895,-18.81676 40.48218,-28.5218 51.97681,-45.51354 7.61125,-11.25121 9.74353,-14.87897 14.39128,-24.48468 2.82799,-5.84473 5.40659,-12.20881 5.73024,-14.14241 0.81374,-4.86165 2.31886,-4.44426 1.69035,0.46875 -1.38535,10.829 -25.19455,49.52894 -35.20509,57.22303 -1.65716,1.27369 -4.48959,3.65331 -6.29428,5.28803 -6.06517,5.49396 -13.54264,11.00679 -21.09375,15.55159 -4.125,2.48271 -8.55469,5.30307 -9.84375,6.26745 -1.28906,0.96438 -6.48286,4.46096 -11.54177,7.77019 -5.05891,3.30922 -11.80891,8.22808 -15,10.93081 -3.19109,2.70271 -6.54026,5.52965 -7.44261,6.28208 -0.98649,0.8226 -1.64062,0.95746 -1.64062,0.33825 z m -172.5,-7.04304 c -1.80469,-1.69318 -5.31008,-4.61535 -7.78978,-6.49374 -5.22411,-3.95731 -34.725266,-18.7062 -42.623351,-21.30924 -9.85955,-3.24949 -22.151328,-8.62739 -26.909528,-11.77346 -2.589725,-1.71229 -5.868747,-3.63729 -7.286716,-4.27777 -2.354701,-1.06359 -3.564641,-2.80173 -1.875,-2.69352 1.02811,0.0658 5.856873,2.79903 11.109067,6.28798 2.526733,1.67847 6.868108,3.72952 9.647503,4.5579 2.779395,0.82837 7.059412,2.51367 9.51115,3.74511 2.451738,1.23144 4.946928,2.23898 5.544865,2.23898 1.153349,0 8.930473,3.22228 11.29679,4.68058 2.042126,1.25851 10.850117,5.52714 15.652153,7.58554 7.554147,3.23809 17.018887,9.40077 22.986277,14.96684 3.24105,3.02309 5.47094,5.51153 4.95532,5.5299 -0.51563,0.0184 -2.41406,-1.35194 -4.21875,-3.0451 z m 129.81098,-0.2671 c 0.41504,-0.98692 1.29461,-3.90379 1.95459,-6.48191 0.74167,-2.89724 1.22842,-3.79238 1.27447,-2.34375 0.10292,3.23772 -1.63637,9.16937 -2.92157,9.96367 -0.73587,0.45479 -0.83031,0.10524 -0.30749,-1.13801 z m 7.08487,-7.52735 c -0.0114,-0.575 0.71743,-2.05641 1.61977,-3.29202 0.90235,-1.23561 2.09265,-3.06036 2.64511,-4.055 0.55246,-0.99464 1.50979,-1.97688 2.1274,-2.18275 0.6176,-0.20587 0.27097,1.03465 -0.77029,2.7567 -2.75226,4.55173 -5.59792,7.98003 -5.62199,6.77307 z m -3.3021,-6.92331 c 0.31868,-0.51563 0.76545,-0.9375 0.99283,-0.9375 0.22738,0 0.41342,0.42187 0.41342,0.9375 0,0.51562 -0.44678,0.9375 -0.99283,0.9375 -0.54606,0 -0.73209,-0.42188 -0.41342,-0.9375 z m 11.71875,-6.29146 c 0,-0.53842 0.73828,-1.55796 1.64062,-2.26563 1.51759,-1.19016 1.53749,-1.14604 0.26529,0.58834 -0.75644,1.03125 -1.49472,2.05078 -1.64063,2.26563 -0.1459,0.21484 -0.26528,-0.0499 -0.26528,-0.58834 z m -4.21875,-25.58354 c 0.31867,-0.51562 0.76545,-0.9375 0.99283,-0.9375 0.22738,0 0.41342,0.42188 0.41342,0.9375 0,0.51562 -0.44678,0.9375 -0.99283,0.9375 -0.54606,0 -0.73209,-0.42188 -0.41342,-0.9375 z m 10.7956,-34.86654 c -0.007,-0.87192 0.40752,-1.84604 0.92315,-2.16471 1.1865,-0.73329 1.1865,0.50778 0,2.34375 -0.78319,1.2119 -0.91077,1.18715 -0.92315,-0.17904 z m -16.8091,-2.16471 c -0.0283,-1.03125 0.35741,-2.50781 0.85725,-3.28125 0.80782,-1.25 0.90307,-1.25 0.85725,0 -0.0283,0.77344 -0.4141,2.25 -0.85725,3.28125 -0.80572,1.875 -0.80572,1.875 -0.85725,0 z m 54.83658,-0.9375 c 1.20949,-5.04325 2.35294,-6.88508 1.74607,-2.8125 -0.30735,2.0625 -0.97771,4.17187 -1.48969,4.6875 -0.61672,0.62109 -0.70325,-0.0117 -0.25638,-1.875 z M 47.314661,458.00961 C 44.420223,454.74193 43.711284,453.46265 37.989418,441.18216 30.491804,425.09048 24.034067,390 28.570312,390 c 1.029814,0 1.242259,0.70277 0.832218,2.75298 -0.721895,3.60947 1.147104,17.01855 3.928446,28.18452 2.710809,10.88281 9.148848,26.68719 13.885509,34.08677 1.933925,3.02116 3.373433,5.63581 3.198907,5.81033 -0.174525,0.17454 -1.569854,-1.09672 -3.100731,-2.82499 z m 208.699309,-2.0892 c -0.11423,-1.65935 1.77615,-6.25529 2.3407,-5.69074 0.26934,0.26934 -0.12992,1.90988 -0.88725,3.64565 -0.75734,1.73576 -1.41138,2.65605 -1.45345,2.04509 z M 311.25,453.15625 c 0,-1.01406 0.35967,-2.24453 0.79927,-2.73438 0.43959,-0.48984 2.81535,-7.21875 5.27944,-14.95312 2.4641,-7.73438 5.54596,-16.17188 6.84857,-18.75 1.30262,-2.57813 3.33872,-7.00781 4.52468,-9.84375 1.18595,-2.83594 2.16897,-4.3125 2.18447,-3.28125 0.0155,1.03125 -1.47692,5.25 -3.31649,9.375 -3.02482,6.78279 -6.49629,15.9641 -13.08442,34.60552 -2.51874,7.12688 -3.23552,8.36349 -3.23552,5.58198 z m -47.78378,-20.5 c 0,-0.51563 0.40894,-1.57031 0.90878,-2.34375 0.49984,-0.77344 0.90878,-0.98438 0.90878,-0.46875 0,0.51562 -0.40894,1.57031 -0.90878,2.34375 -0.49984,0.77344 -0.90878,0.98437 -0.90878,0.46875 z m 140.59628,-1.45281 c 0,-0.54122 0.56241,-2.12326 1.2498,-3.51562 0.68738,-1.39237 1.80945,-4.95735 2.49348,-7.9222 0.68403,-2.96484 1.62661,-5.39062 2.09463,-5.39062 0.46801,0 0.64841,0.73828 0.40088,1.64062 -0.24754,0.90235 -0.71147,3.32813 -1.03096,5.39063 -0.64247,4.14754 -3.40545,10.75368 -4.50471,10.7705 -0.38671,0.006 -0.70312,-0.43208 -0.70312,-0.97331 z M 279.375,428.61953 c 0,-1.325 3.86394,-12.69258 5.71469,-16.81244 0.98192,-2.18579 1.78531,-4.56482 1.78531,-5.28677 0,-0.72193 0.85284,-2.30855 1.89521,-3.52584 l 1.89522,-2.21323 -1.32184,3.28125 c -0.72702,1.80469 -2.18713,5.39062 -3.24472,7.96875 -1.05757,2.57812 -2.82655,7.53516 -3.93105,11.01562 -1.81111,5.70708 -2.79282,7.66595 -2.79282,5.57266 z m -34.99951,-32.17771 c 3.61466,-3.61467 10.24119,-6.14585 21.87451,-8.35559 17.61109,-3.34521 52.64122,-17.6584 64.30459,-26.27464 2.86887,-2.11936 5.41116,-3.65833 5.64954,-3.41996 1.03051,1.03051 -9.52138,8.52612 -16.67916,11.84816 -13.99228,6.49404 -18.62756,8.51021 -19.56547,8.51021 -0.50735,0 -1.655,0.41127 -2.55035,0.91394 -6.50407,3.65153 -22.766,8.87665 -30.59954,9.83195 -6.7237,0.81995 -19.41,5.52522 -21.69012,8.04472 -0.91305,1.00892 -2.11394,1.83439 -2.66864,1.83439 -0.5547,0 0.31139,-1.31993 1.92464,-2.93318 z m 88.80546,0.51275 c 0.31298,-0.8156 0.56905,-1.65935 0.56905,-1.875 0,-0.21563 0.38238,-0.39207 0.84973,-0.39207 0.46735,0 0.62909,0.84375 0.35941,1.875 -0.26968,1.03125 -0.90813,1.875 -1.41878,1.875 -0.51066,0 -0.67239,-0.66731 -0.35941,-1.48293 z m 3.38155,-8.71892 c 0,-0.51562 0.42187,-1.19823 0.9375,-1.5169 0.51562,-0.31867 0.9375,-0.15753 0.9375,0.3581 0,0.51562 -0.42188,1.19823 -0.9375,1.5169 -0.51563,0.31867 -0.9375,0.15753 -0.9375,-0.3581 z m 1.94902,-4.40752 c 0.045,-1.09214 0.26713,-1.31428 0.5664,-0.56641 0.27081,0.67675 0.23751,1.48535 -0.074,1.79688 -0.31152,0.31152 -0.5331,-0.2422 -0.4924,-1.23047 z m 3.67598,-32.73438 c 0.6419,-0.77344 1.58896,-1.40625 2.10458,-1.40625 0.52297,0 0.42145,0.62181 -0.22958,1.40625 -0.6419,0.77344 -1.58896,1.40625 -2.10458,1.40625 -0.52297,0 -0.42145,-0.62181 0.22958,-1.40625 z m 8.62844,-9.80111 c 1.29354,-2.07129 2.20431,-1.81311 1.36055,0.38568 -0.30533,0.79567 -0.99384,1.44668 -1.53001,1.44668 -0.61703,0 -0.55481,-0.67261 0.16946,-1.83236 z m 27.62509,-20.15539 c 1.4209,-1.78077 2.75392,-3.0673 2.96225,-2.85897 0.50205,0.50206 -3.84879,5.97827 -4.80262,6.04485 -0.4087,0.0285 0.41946,-1.40512 1.84037,-3.18588 z"
     id="path4186"
     inkscape:connector-curvature="0" />
</svg>
