<?xml version="1.0" encoding="UTF-8" standalone="no"?>
<svg id="svg2" xmlns:rdf="http://www.w3.org/1999/02/22-rdf-syntax-ns#" xmlns="http://www.w3.org/2000/svg" height="843pt" width="959pt" version="1.1" xmlns:cc="http://creativecommons.org/ns#" xmlns:dc="http://purl.org/dc/elements/1.1/" viewBox="0 0 959 843">
<path id="path12" d="m802.76 714.36c18.18-1.38 36 15.12 34.3 33.75 4.04 15.12-14.61 21.54-26.33 22.91-20.78 2.39-41.21-22.75-27.59-40.99 2.98-8.5 10.92-13.94 19.62-15.67m5.91 22.03c-14.57 2.8-2.82 23.92 9.05 19.54 17.49 0.66 2.2-24-9.05-19.54zm-658.07-22.03c24.45-2.9 40.41 34.55 19.75 48.97-13.89 12-35.84 8.91-47.43-4.35-6.56-19.57 6.96-42.06 27.68-44.62m-5.04 22.05c-8.05 1.67-12.5 9.65-12.58 17.41 9.53 6.05 28.29-0.56 23.62-13.91-2.94-2.47-7-5.08-11.04-3.5zm333.63-196.97c6.35 2.4 19.5 18.58 8.89 23.83-7.09-0.29-23.95 4.01-21.18-8.4 4.37-4.89 4.82-13.91 12.29-15.43zm-2.53-397.06c22.65-0.38 38.19 29.49 26.57 48.8-11.31 17.11-42.34 15.35-49.68-4.6-6.33-18.3 5.37-38.28 23.11-44.2m2.53 10.73c-9.58 6.23-13.32 23.72-0.05 27.75 13.75-2.61 11.21-22.88 0.05-27.75zm-0.13-153.11h0.88c26.43 19.12 33.66 56.02 20.08 85.03 32.35 8.68 61.05 35.47 65.86 69.49 0.73 9.43 16.77 22.78-0.95 25.45-0.8 4.53 1.66 11.55 2.34 17.04 5.22 10.64 20-3.04 25.04 6.91 2.71 11.09-12.92 15.26-20.8 11.82-5.93-2.54-6.43-10.06-10.36-13.72-6.47 22.56-27.64 38.43-45.65 49.1 32.43-0.5 66.9 4.99 95.65 21.74-4.81-9.46-14.38-17.63-12.92-29.18-0.51-11.3 9.74-23.65 21.9-20.14 9.4 3.65 12.71 22.38-0.72 22.37-13.34 12.95 3.92 35.69 18.88 36.48 7.57-1.33 8.48 7.85 11.65 12.6 28.25 23.58 46.28 58.23 53.42 94.04 2.86 10.31-5.19 24.64 5.58 31.36-0.25 11.31 12.14 12.19 19.26 17.39 23.4 16.62 40.01 41.48 51.63 67.38 7.42 11.68 4.4 27.27 13.93 37.89 6.02 6.15-5.06 9.78-2.91 15.95 2.27 10.78 4.99 25.25 17.86 27.44 6.72 2.84 10.3-4.72 16.04-6.1 3.84 3.2 7.98 6.43 10.62 10.72 2.49 9.89-8.04 18.53-17.47 17.55-16 0.51-24.06-16.48-29.18-29.05-0.46 33.45-12.24 66.09-29.72 94.39 18.86-10.44 40.91-21.13 63.04-15.4 5.26 0.83 0.63-5.02-0.87-6.6-8.95-9.6 3.26-26.27 14.79-23.99 8.57 4.75 0.5 14.94-4.1 19.39-3.93 10.12 8.14 14.03 13.97 19.4 5.41-10.33 17.71-2.8 17.19 6.99 29.69 21.15 42.46 61.24 32.38 95.85 30.73 3.44 57.97 25.81 63.6 56.92v3.65c-30.05 14.63-64.67 0.81-84.16-24.02-24.22 23-62.67 35.16-94.89 20.91-5.14-3.43-10.91 0.32-16.32-0.23-5.38-2.28-4.38-8.27-2.96-12.8-5.95-2.41-11.87-5.47-18.37-5.94-10.33 1.79-5.74 22.57-19.42 17.4-10.87-11.77 4.17-33.03 19.95-24.51-14.63-18.62-20.3-42.82-19.21-66.4-15.53 29.2-37.27 56.44-66.54 72.61 4.55 3.69 16.6-2.53 23.78 0.79 16.45 1.2 26.54 26.99 9.78 35.03h-3.42c-9.82-0.05-14.23-6.87-11.53-15.73-6.51-17.76-37.8-12.99-42.95 2.82-17.57-2.15-33.09 8.65-50.6 8.02-31.18 2.44-64.99-0.57-91.3-19.08-20.89-8.8-36.58 13.15-56.75 15.01-29.27 6.42-61.05 8.25-89.5-2.66-6-2.29-13.42 1.25-18.92-1.87-4.39-16.48-40.66-19.7-42.35 0.32 4.65 9.22-4.63 11.96-11.52 13.17h-3.43c-9.46-4.23-11.7-17.72-4.88-25.37 8.19-13.75 26.18-9.42 38.95-9.76-28.97-17.13-51.77-43.36-67.06-73.16 1.46 23.72-4.7 47.67-19.21 66.27 14.85-6.98 28.13 8.66 22.14 22.23-5.7 7.62-14.68-0.4-14.8-7.68-2.54-13.04-19.04-4.93-25.04-0.83 5.69 10.73-6.56 14.71-14.39 10.63-33.37 16.16-74.35 5.42-99.91-19.18-19.37 24.71-54.38 38.85-84.17 24.01v-3.63c5.62-31.12 32.86-53.5 63.6-56.94-10.08-34.61 2.69-74.7 32.38-95.85-0.52-9.79 11.78-17.32 17.19-6.99 5.83-5.37 17.9-9.28 13.97-19.4-4.61-4.45-12.68-14.64-4.1-19.39 11.53-2.28 23.74 14.39 14.79 23.99-1.51 1.58-6.13 7.43-0.87 6.6 22.13-5.73 44.18 4.96 63.04 15.4-17.48-28.3-29.27-60.94-29.72-94.39-5.13 12.57-13.18 29.56-29.18 29.05-9.43 0.98-19.96-7.66-17.47-17.55 2.64-4.29 6.78-7.52 10.62-10.72 5.74 1.38 9.32 8.94 16.04 6.1 12.87-2.19 15.59-16.66 17.86-27.44 2.15-6.17-8.94-9.8-2.91-15.95 9.53-10.62 6.51-26.21 13.93-37.89 11.62-25.9 28.23-50.76 51.63-67.38 7.12-5.2 19.51-6.08 19.26-17.39 10.77-6.72 2.71-21.05 5.58-31.36 7.14-35.81 25.17-70.46 53.42-94.04 3.17-4.75 4.07-13.93 11.65-12.6 14.96-0.79 32.21-23.53 18.88-36.48-13.43 0.01-10.13-18.72-0.72-22.37 12.15-3.51 22.41 8.84 21.9 20.14 1.45 11.55-8.12 19.72-12.92 29.18 28.75-16.75 63.22-22.24 95.65-21.74-18.01-10.67-39.18-26.54-45.65-49.1-3.93 3.66-4.43 11.18-10.36 13.72-7.88 3.44-23.51-0.73-20.8-11.82 5.04-9.95 19.81 3.73 25.04-6.91 0.68-5.49 3.14-12.51 2.34-17.04-17.72-2.67-1.68-16.02-0.95-25.45 4.8-34.02 33.51-60.81 65.86-69.49-13.58-29.01-6.35-65.91 20.08-85.03m0.09 9.26c-21.86 16.5-24.41 49.9-13.42 73.09 8.63 2.3 18.87 1.96 27.53 0 11.17-22.94 8.49-57.85-14.11-73.09m-1.36 80.25c-13.96-0.67-2.38 8.78 1.37 14.2 8.35-5.37 13.93-17.56-1.37-14.2m-18.34 3.09c-30.85 5.68-55.42 35.52-58.37 66.27-2.48 6.11 8.73 9.09 4.17 14.47-8.26 7.67-0.16 17.88 5.92 23.78 7.24 5.21 14.31-1.34 20.96-3.82 5.06 0.72 12.26 4.09 11.24 10.15-7.27 15.76-28.32 10.54-38.21 1.79 8.67 21.07 30 34.33 49.59 44.45 2.3-3.94 6.94-9.62 11.26-4.75 2.26 10.85 17.83 1.85 25.21 4.54 0.53-8.65 11.18-7.64 12.97 0.28 19.59-10.21 40.98-23.41 49.64-44.53-9.87 8.89-30.93 13.94-38.2-1.78-1.02-6.06 6.18-9.43 11.25-10.15 6.72 2.42 13.48 9.15 20.9 3.85 5.32-5.43 13.69-14.64 7.05-22.01-6.93-6.3 6.94-11.03 3-18.59-4.62-30.61-29.98-61.55-62.21-64.17-5.06 7.19-9.76 14.72-15.79 21.16-8.44-4.7-10.39-20.74-20.38-20.94m-34.52 164.08c-23.2 5.48-47.29 7.87-68.95 18.49 16.16 2.8 29.65 16.16 30.89 33.08 1.86 9.5-9.02 17.07-17.36 13.91-6.16-5.97-2.08-14.27-3.53-21.42-0.91-20.14-34.5-22.35-39.46-4.25-3.53 5.73-11.27 0.71-15.4 5.61-30.55 28.78-47.64 69.48-50.9 110.95-0.88 5.13 6.04 4.48 9.12 4.56 24.74-14.08 53.96-17.49 82.04-15.73-0.47-9.41-6.64-19.64-15.26-24.3-8.2-3.57-15.17 10.19-23.02 4.36-11.63-4.85-2.71-22.9 7.92-22.64 18.99-1.36 33 17.18 35.93 33.6 8.35-12.76 18-26.31 31.04-35.69-0.06-8.69 10.39-7.98 16.26-5.52 17.4-6.29 43.18-16.76 40.32-39.56-0.73-10.17-11.19-20.95-1.35-30.14 10.5-5.09 20.42 6.03 19.39 16.25 1.25 17.22-12.48 30.86-22.4 42.88 13.71-3.85 27.31-9.5 41.25-11.67 12.31 4.29 24.96 7.64 37.33 11.67-11.55-12.81-26.08-29.01-21.78-48.08-0.25-12.43 21.25-17.79 22.96-3.56-0.68 11.78-9.07 22.88-4.58 35.04 7.47 15.07 24.16 21.1 38.68 27.27 5.89-2.27 17.06-3.5 16.93 5.44 13.01 9.26 22.99 22.92 31.02 35.56 3.03-15.89 16.4-34.39 35.18-33.46 10.97-1.19 20.63 17.71 8.7 22.61-8 5.96-14.41-8.31-22.8-4.33-9.01 4.44-14.67 14.74-15.69 24.3 27.91-1.76 56.77 1.73 81.49 15.42 2.74 0.08 10.03 1.29 9.85-3.56-2.91-41.94-20.35-83.21-51.44-112.13-4.56-4.21-12.79 0.58-15.65-6.38-1.89-11.12-16.39-9.98-24.9-10.87-13.04 3.57-15.76 18.45-13.59 29.85-0.17 12.86-18.01 9.77-20.63-0.19-2.41-18.62 12.18-36.35 30.49-38.88-30.7-12.43-64.57-21.28-97.87-17.3 1.63 4.8-4.23 9.55-8.66 8.95-4.14-3.6-4.14-12.82-11.89-7.22-6.15 4.68-17.15-7.03-19.01 2.95-1.86 8.72-13.92 1.95-11.8-4.58-9.36-1.89-19.31-1.5-28.87-1.29m53.35 78.62c-8.12 3.11-21.05 3.02-25.83 8.88 17.95-3.21 36.17-3.16 54.12 0.01-5.71-5.58-19.28-7.01-28.29-8.89m-26.13 13.73c7.5 5.85 19.22 7.67 27.72 12.89 7.98-5.95 19.91-6.74 26.97-12.89-18.21 4.93-36.44 4.5-54.69 0m-32.68 6.47c-8.11 1.05-16.15 1.75-18.95 11.01-4.85 2.29-12.42-5.09-16.53 2.51-9.14 9.34-20.99 19.29-22.53 32.79 18.27 0.11 36.29 4.75 52.34 13.04 25.81-17.8 58.88 10.79 54.15 38.92-3.65 12.45 8.88 21.29 11.19 32.78 3.51-7.6 8.98-16.53 12.78-24.72-3.22-14.62 0.2-31.05 10.97-41.93 10.48-11.69 29.39-13.9 42.29-5.01 16.1-9.05 34.68-12.14 52.63-13.81-3.3-14.34-15.21-24.71-25.52-34.48-4.19-4.37-9.27 2.33-13.28 0.36-13.98-27.15-64.14-2.91-53.22 26.26 6.65 16-22.71 17.26-22.88 2.16-1.96-17.37 14.66-29.47 25.96-39.52-10.66 2.44-19.89 8.97-29.75 13.03-9.35-4.86-18.67-10.36-28.99-13.03 11.32 10.1 28.53 22.58 25.78 40.14-0.54 13.33-26.32 13.61-23.16-0.26 8.48-20.23-12.6-42.92-33.28-40.24m-78.45 51.19c-23.56 1.17-47.22 5.79-68.37 16.09-0.3 7.46-2.92 14.39-10.46 17.55 3.59 25.75 11.13 50.65 24.34 73.22 2.03 5.86 7.8-0.95 10.47-2.55 19.67-10.45 42.54-20.74 65.05-12.94-18.67-15.55-46.28-22.54-68.81-9.86-10.94 3.49-10.85-12.63-2.89-15.99 12.6-4.35 25.97-0.2 38.47 2.69-12.45-11.3-30.34-13.65-45.76-19-6.87-2.42-15.31-20.52-2.13-16.91-4.22-2.9-3.28-9.22 2.49-8.88 22.7-0.8 31.23 27.4 52.75 32.75-8.49-9.37-17.82-18.81-21.52-31.34-0.12-6.36 4.04-13.5 11.41-12.21 7.11 7.25 4.3 18.91 9.08 27.42 5.19 14.26 19.14 21.93 30.75 30.44 1.46 0.62 6.71 4.79 6.71 1.17-20.75-17.44-21.36-46.71-20.87-71.67-3.53-0.68-7.15-0.11-10.71 0.02m266.24-0.22c0.48 25.06-0.07 54.32-20.84 71.89-0.64 2.71 2.9 0.85 4.08 0.17 13.82-9.1 29.99-18.22 34.75-35.37 3.43-7.55 1.05-17.81 7.7-23.85 7.36-1.28 11.52 5.85 11.4 12.21-3.79 12.47-12.82 22.11-21.64 31.26 15.68-5.87 26.42-18.87 38.44-29.6 4.99-6.98 26.75-3.91 16.91 5.82 2.94-1.33 6.08-0.75 7.79 2.17-6.34 25.22-41.04 16.12-55.66 33.71 12.47-3.25 25.7-6.81 38.41-2.68 4.91 3.04 8.32 10.44 3.94 15.39-8.58 3.73-16.44-4.96-24.95-5.41-18.33-3.91-36.05 5.89-50.64 15.55 26.16-8.1 52.04 5.86 73.79 18.21 14.36-22.78 22.51-48.98 26.06-75.62-7.41-3.3-10.69-10.52-10.93-18.08-24.63-11.03-51.6-16.09-78.61-15.77m-247.42 0.72c-5.69 18.24-1.18 43.69 10.05 60.96 3.95 5.36 6.72-4.65 11.53-3.88 11.6-0.7 18.11 13.23 13.8 23.04 22.58 13.54 62.02 0.79 64.17-28.51-10.77-12.28-22.1-24.57-36.4-32.8-6.04 3.17-2.54 14.58 4.63 13.9 14.69 10.43-5.87 30.34-17.59 19.08-14.16-8.82-10.47-28.25-1.94-39.76-14.48-8.12-31.84-11.54-48.25-12.03m229.78 0.27c-13.09 2.87-27.2 4.28-38.69 11.75 6.72 10.54 12.54 27.13 1.15 36.89-6.48 9.71-24.07 6.42-25.73-5.42-2.37-11.84 20.49-11.6 10.42-24.46-14.79 6.93-26.18 20.4-37.16 32.58 1.88 29.56 42.95 42.45 64.18 27.83-7.43-13.52 12.31-31.45 22.37-16.59 15.69-15.07 16.24-41.28 14.63-62.21-3.23-2.23-7.64-0.25-11.17-0.37m-154.82 12.07c-2.09 0.26-4.13 0.94-5.87 2.15 11.48 9.33 22.32 19.4 32.07 30.4 1.38-14.41-11.33-31.35-26.2-32.55m86.15 0.1c-12.95 4.38-24.59 18.4-22.98 32.42 9.81-10.89 20.6-21.07 32.1-30.37-2.64-1.76-5.98-2.62-9.12-2.05m-271.51 13.65c-26.65 17.63-48.83 42.55-62.19 71.59-3.44 13.21-15.26 28.15-5.67 41.18-10.07 12.96-3.52 37.19 15.3 37.41 10.63 1.08 16.18-12.86 26.88-9.37 10.03 7.24 2.93 25.33-9.73 24.01-13.83 4.15-29.13-1.64-37.22-12.92 4.46 32.95 13.99 66.23 33.27 93.82 8.34-6.35 18.58 5.43 7.99 11.98 5.8 6.04 9.75 12.71 11.94 20.9 9.82-6.79 16.52 8.47 6.24 11.33 13.12 31.23 38.24 56.57 64.86 76.78-8.27-16.4-0.13-36.29 14.84-45.46 7.5-2.88 16.52 1.44 17.83 9.49-1.45 9.82-13.4 9.4-18.67 16.15-13.49 12.68 1.81 37.01 18.32 34.34 6.67-0.1 6.15 8.7 11.91 10.25 40.69 12.74 85.69 6.73 123.44-12.08 3.68-4.91-2.43-11.7-7.65-12.82-21.78-14.76-36.78-37.01-49.21-59.82-7.45 6.51-15.58 16.97-12.11 27.6 1.96 8.05 16.46 6.1 14.21 16.37 2.23 11.87-15.62 11.88-21.47 6.54-13.71-15.52-4.59-39.53 9.73-51.08-19.01 2.6-35.92-7.18-54.14-8.43-4.75-1.89-4.21-8.22-5.86-12.12-13.71-9.53-28.72-23.68-46.92-18.66-13.73 3.02-16.82 24.16-32.48 20.51-8.71-4.64-6.42-18.99 1.56-23.39 14.49-11.15 33.97-7.47 50.32-3.21-8.68-9.81-19.54-18.61-29.18-27.81-4.24-13.1-5.8-27.1-9.68-40.33-5.84 15.91-12.38 37.96-31.88 43.11-8.29 2.7-21.54-5.01-16.48-14.5 7.76-12.11 25.27-5.56 34.74-16.35 10.71-14.23 7.31-33.81 4.48-49.75-6.62-3.48-9.03-12.06-2.48-16.95 0.59-16.15 8.49-30.46 15.38-44.37-17.23 6.75-42.31 2.74-49.07-17.02-1.47-8.43 6.9-21.89 16.44-15.46 8.18 3.18 4.11 12.82 5.8 19.08 6.23 10.13 22.05 8.89 30.95 4.95-12.99-22.92-26.59-47.99-26.84-75.53 1.22-4.3-2.76-10.97-7.5-9.96m457.33 0.16c-9.06 5.34-2.55 17.59-6.7 25.61-2.92 21.71-14.75 41.2-24.82 59.68 9.14 4.37 25.43 4.91 31.23-5.53 0.85-6.11-2.3-15.33 5.42-18.45 9.32-6.28 17.36 6.34 16.75 14.73-5.51 18.07-28.44 24.88-44.84 18.64-1.71-0.79-5.92-2.01-4.09 1.26 8.16 12.7 13.94 26.99 14.97 42.17 7.44 5.56 3.06 14.15-3.49 18.08-1.06 13.68-4.08 28.41 1.44 41.55 4.54 13.35 20.26 15.07 32.09 17.01 11.69 3.71 9 20.11-2.34 20.78-24.05 2.16-33.43-25.3-39.26-42.94-3.96 13.2-5.91 27.12-9.72 40.31-9.65 8.93-21.08 18.37-29.01 27.63 15.92-4.14 34.48-7.25 49.1 2.5 8.44 4.35 11.75 18.87 2.86 24.34-17.01 3.55-19.41-19.67-35.07-21.42-20.26-0.88-42.34 12.39-49.08 30.94-18.27 2.48-36.51 11.22-55.1 9.54 14.18 10.91 23.69 37.43 7.81 52.16-7.04 3.36-21.92 3.16-19.94-8.02-2.11-10.94 14.46-8.43 14.91-18.47 1.24-9.94-5.73-19.81-12.72-25.34-13.54 24.88-30.61 49.12-55.74 63.25-1.43 2.42-2.99 6.18-1.79 8.72 37.34 19.86 82.52 24.84 123.22 12.83 6.7-1.05 5.95-11.24 13.45-10.55 16.09 2.92 30.76-21.54 17.99-33.86-5.27-6.93-17.64-6.7-19.03-16.6 1.17-10.59 17.23-13.95 23.13-5.28 11.86 9.99 16.4 27.15 9.47 41.28 26.93-19.84 51.28-45.91 64.86-76.77-9.6-2.09-4.15-18.67 6.05-11.41 2.68-7.76 6.16-14.9 12.16-20.83-9.96-6.75-1.44-17.56 7.92-12.19 18.99-27.21 29.3-60.4 33.08-93.03-7.04 9.1-23.36 17.48-36.91 12.28-12.72 1.52-19.83-16.72-9.79-23.95 10.45-3.5 15.88 9.94 26.11 9.25 18.62 0.93 26.8-23.8 16.18-36.6 3.59-7.28 5.78-15.17 1.28-23.4-12.14-36.85-37.87-72.64-72.04-89.9m-392.85 24.62c7.46 3.67 15 11.75 22.3 13.21-1.81-6.94-15.79-9.01-22.3-13.21m329.85 0.33c-5.97 4.49-19.55 6.06-20.99 12.88 6.14-1.21 18.51-11.07 20.99-12.88m-180.51 10.75c-4.72 11.09-13.99 20.03-24.98 25.13-11.83 6.74-25.62 1.56-38.17 2.32 11 7.4 24.92 7.01 37.5 9.19 9.31 2.31 17.21-11.23 25.96-3.37 4.64 7.68-5.87 18.3-14.02 14.75-9.39-0.82-18.76-3.43-27.29-6.79 11.5 12.29 33.03 13.85 46.53 24.98 3.33 7.44-5.31 22.56-14.78 16.7-13.43-8.79-24.88-21.13-40-27.02 5.03 6.92 14.14 11.47 18.13 19.78 7.53 5.4 5.65 19.5-4.18 20.86-11.76-3.32-4.2-16.12-10.26-23.32-7.12-11.26-15.83-22.95-27.76-29.23 18.5 17.81 24.38 47.99 8.2 68.92 13.87 1.62 28.51-1.81 41.87-6.03-9.31 10.42-20.99 20.74-25.85 33.86 26.79-4.48 48.62 16.98 55.23 41.16 1.3-13.03-4.86-27.21-11.43-38.97-3.34-7.91-17.24-8.83-14.71-19.36 5.09-8.62 19.03-2.97 20.09 5.92 4.78 7.67 4.94 19.16 8.55 25.18 2.45-16.41-4.46-32.71-3.49-49.16 1.29-10.76 21.77-10.13 22.46 0.62-0.12 15.92-7.2 33.75-2.86 48.48 4.2-10.76 3.79-33.96 20.76-35.65 8.74 0.13 9.24 11.13 2.85 14.63-14.43 7.03-17.19 24.54-21.97 38.16-1.18 2.52-1.39 14.82 1.62 7.29 5.39-23.78 28.87-42.15 53.45-38.29-4.5-13.06-16.45-23.51-25.71-33.86 13.26 4.61 27.27 6.94 41.29 6.46 0.77-4.02-5.22-7.3-5.72-11.84-8.67-20.3 0.37-42.27 14.54-57.47-11.87 5.93-20.23 17.66-27.46 28.53-6.15 6.97 0.53 19.16-9.3 23.62-7.27 0.96-11.05-7.16-10.07-13.54 4.71-10.76 15.24-18.44 22.71-26.75-10.28 3.27-17.79 11.6-26.85 17.11-6.65 4.47-14.79 15.71-23.37 9.15-2.07-2.77-3.08-6.33-5.73-8.77-1.36-12.94 15-13.91 23.76-18.37 7.48-5.4 19.29-5.92 23.93-13.78-10.38 4.21-21.99 6.9-33.26 7.26-10.69-1.47-13.19-21.3 0.85-17.26 16.22 9.74 39.62 4.21 54.34-4.43-21.55 5.59-46.65 0.35-59.1-19.51-2.16-2.09-1.62-7.57-5.33-7.3-7.11 12.92-12.59 27.98-15.06 41.55-2.26-14.06-6.91-31.45-15.91-41.54m-84.92 2.96c-6.73 4.24 5.3 9.51-0.22 13.96-6.28 4.39-5.49 19.11-15.3 16.43-4.07-1.63-6.69 7.91-1.17 6.17 12.41-1.99 14.35-15.76 20.93-24.3-1.22-3.47 2.01-13.28-4.24-12.26m199.92 0.12c-5.69 13.05 6.02 31.27 18.38 36.22 5.53 2.8 4.46-6.63 0.18-6.01-11.24 2.75-11.14-13.89-17.68-19.44 2.48-3.24 6.43-11.42-0.88-10.77m-242.16 29.35c-15.44 4.65-32.46 9.51-43.99 21.36 9.91 13.55 21.07 27.47 35.79 35.94 5.16-12.61 18.71-25.7 33.2-18.99 14.27 2.7 13.63 27.45-1.68 26.77-6.04-4.13-16.39-8.2-19.55 1.48 15.17 8.03 32.54 13.45 49.3 15.09 22.19-19.27 12.97-55.44-8.8-69.91-7.73 13.69-34.31 6.4-26.54-10.22-3.9-3.76-12.11-0.6-17.73-1.52m271.04-0.11c-4.94 1.47 1.87 7.78-1.28 11.32-4.92 11.35-20.89 9.39-27.23 0.53-21.9 14.52-30.97 50.55-8.8 69.92 16.84-1.84 34.09-7.26 49.52-15.02-2.62-9.27-12.15-6.77-17.67-2.33-12.34 4.26-19.27-14.37-10.12-22.32 13.62-12.63 34.73-0.63 39.53 15.32 14.79-8.41 25.79-22.48 35.82-35.95-16.29-13.76-38.01-23.26-59.77-21.47m-191.21 12.52c3.84 4.08 4.62 6.15-1.9 4.14 8.83 6.41 19.85 10.3 29.94 14.92-8.69-7.35-18.11-13.55-28.04-19.06m126.48 0.35c-9.77 5.31-18.78 11.66-27.49 18.65 10.13-4.32 21.25-8.81 29.83-14.72-7.85 2.59-3.13-2.12-2.34-3.93m-254.81 13.23c-9.81 10.53-13.4 25.31-16.18 39.1-2.57 6.5 9.98 7.7 5.63 14.17-7.19 6.68-0.32 14.77 2.23 21.89 10.08 19.27 39.83 22.64 52.6 4.3 11.73-2.5 18.84 16.08 9.14 23.11-15.03 8.57-32.81 2.7-47.25-3.98 6.31 8.86 17.31 13.35 26.02 19.56 0.91 10.82 0.31 21.94 3.3 32.5 3.29-14.89 4.74-35.9 21.61-42.83 15.42-7.55 25.62 22.93 6.38 21.72-28.68 8.59-22.31 60.56 7.67 59.12 1.87 20.29 34.6 17.46 48.09 15.8-7.81-16.22-14.29-33.61-14.46-52.08-28.95-13.91-19.74-57.21 7.57-67.02 12.07-2.7 13.05-17.96 20.96-25.78-11.04 3.13-25.03-3.01-33.49 6.31-22.44 18.43-63.99 3.57-60.94-28.15-16.73-8.01-28.18-26.08-38.88-37.74m382.69-0.31c-9.98 14.59-21.23 29.05-37.23 37.56-1.75 6.92-0.58 15.65-6.08 21.28-13.2 20.21-44.31 19.31-60.4 3.25-9.16-2.04-19.11-0.34-28.49-2.29 5.54 7.75 9.15 17.61 15.93 24 30.39 6.54 43.74 53.8 12.63 68.88-0.46 18.72-7.3 36.26-14.51 52.96 15.65 1.65 33.14 0.06 46.79-8.38-1.85-9.07 5.77-11.06 13.26-9.93 18.98-13.53 20.03-48.85-4.27-57.48-18.8 1.19-9.49-27.77 5.28-21.99 17.28 6.15 19.97 27.37 22.53 43.09 3.65-10.4 2.48-21.66 3.46-32.45 8.55-6.52 19.79-10.65 26.04-19.6-14.69 6.82-33.67 13.06-48.33 2.93-11.64-9.35 6.16-32.29 15.31-17.37 19.36 19.44 52.33-1.03 52.97-25.05-5.51-5.69-5.16-12.94 2.45-16.41-1.33-15.1-6.47-33.08-17.34-43m-330.29 49.24c2.19 17.43 30.8 21.09 41.87 11.57-14.11-2.89-27.85-8.05-41.87-11.57m278.31-0.02c-13.73 3.85-27.29 8.81-41.19 11.6 10.79 9.81 40.71 5.58 41.19-11.6m-139.2 18.69c-1.19 10.63-2.77 23.1-1.45 32.63 0.97-7.57 2.53-4.98 4.43 0.16-0.44-10.92-0.68-23-2.98-32.79m-64.49 20.17c-2.54 0.36-6.47 0.07-7.19 3.18-5.06 15.78-11.07 31.94-9.94 48.77 15.85 2.3 4.75-18.35 16.36-21.78 9.97-3.97 21.67 7.3 18.1 17.33-1.22 15.53-19.59 21.09-32.63 19.37-0.32 16.9 5.64 33.59 12.98 48.7 20.39-6.29 39.18-21.79 48.56-41.1-0.85-4.85-9.98-2.94-11.04-8.92-3.52-10.64 5.34-19.73 15.37-21.54-3.08-23.37-23.31-48.65-50.57-44.01m120.92 0.18c-24.63-0.11-36.32 23.21-42.45 43.47 10.28 2.19 20.35 11.33 15.77 22.55-1.02 5.6-13.79 3.61-9.83 10.35 9.98 18.04 27.75 33.37 47.63 38.89 7.14-15 13.64-31.58 13-48.4-9.49 0.2-19.37-0.46-26.71-7.25-11.95-9.37-6.51-34.02 11.19-29.78 13.03 1.98 1.27 24.29 17.21 21.91 1-16.1-4.18-32.08-9.27-47.22-1.25-7.18-11.69-4.17-16.54-4.52m-135.1 4.97c-13.6 6.12-24.67 32.32-10.46 42.45 3.7-12.84 6.96-31.18 10.46-42.45m157.41-0.24c5.99 13.45 6.9 29.34 11.16 42.7 14.15-10.29 3.08-37.13-11.16-42.7m-268.62 11.48c4.76 6.53 9.55 13.11 15.47 18.65 5.82 8.64 6.28 20.32 12.47 28.52-1.93-9.91-3.27-19.91-3.72-29.99-9.02-4.41-15.89-11.99-24.22-17.18m378.38 0.72c-6.89 5.98-13.75 12.13-21.97 16.36-1.44 9.98-1.76 20.38-3.79 30.41 6.97-10.49 6.66-25.19 16.96-33.41 2.47-3.62 12.41-13.43 8.8-13.36m-383.61 2.8c-0.36 17.52 10.5 38.55 27.72 46.9-11.33-14.33-20.46-30.88-27.72-46.9m390.29 0.08c-6.46 17.01-15.43 32.75-27 46.81 17.14-7.79 28.92-31 27-46.81m-532.18 26.97c-1.91-0.32-1.11 3.42 0.75 2.91 12.16 2.91 23.09 17.23 16.8 29.45-4.52 9.28-19.13 0.14-16.4-8.51 3.88-17.02-25.5-21.64-30.16-7.09-2.17 6.12-10.21 0.16-14.6 3.31-25.83 19.64-39.67 57.09-27.11 87.89 8.69 0.23 18.44 1.38 27.46 2.84-2.57 9-7.28 17.26-10.81 25.78 20.26 25.5 59.56 33.02 88.93 20.15 5.89-1.17 3.7-10.41 9.37-10.99 16.18 4.66 26.75-24.62 9.7-30.09-7.25-2.25-8.46-13.74-2.51-17.92 16.75-2.49 25.76 17.98 20.57 31.77 15.09-15.26 15.56-43.14 14.8-64.33-4.45-1.2-12.85-1.45-9.53-8.77 6.93-7.16-6.48-15.95-8.72-23.25-7.68 4.25-12.12-6.05-6.88-11.48-17.61-12.33-39.29-22.26-61.66-21.67m674.12 0.19c-22.26-0.97-42.3 9.75-61.01 20.71 1.93 4.37 4.49 10.83-1.68 13.19-9.86-3.61-11.38 12.87-16.57 18.57 6.45 5.82 1.12 13.13-6.87 12.43-0.29 21.16-0.54 49.13 14.78 64.47-4.24-12.29 1.17-29.22 15.2-31.85 11.44-3.19 11.95 15.62 2.85 17.96-17.91 6.01-5.24 35.68 11.1 30.33 4.03 2.62 2.68 9.35 8.01 10.73 29.24 12.45 68.85 5.57 88.9-20.16-3.45-8.52-8.2-16.76-10.76-25.73 8.96-1.76 18.75-2.6 27.44-2.89 12.47-30.69-1.3-68.28-27.11-87.88-4.39-2.99-12.14 2.5-14.57-3.3-4.9-14.74-33.68-9.56-30.32 7.16 2.95 8.54-11.76 17.68-16.27 8.43-6.18-12.2 4.6-26.53 16.77-29.47 2.14 0.29 2.64-4.07 0.11-2.7m-348.52 9.84c-3.49 1.49-12.44 5.84-8.32 9.43 7.7 4.19 5.02-8.33 11.67-6.83 4.9 1.09 9.34 2.05 14.03-0.01 9.45-4.54 6.83 13.16 15.54 5.91-4.41-13.5-22.03-7.27-32.92-8.5m0.48 10.91c-4.6 26.5-29.41 42.25-51.46 53.53 10.21 23.76 31.23 46.17 53.2 61.31 5.81-4.15 13.17-3.77 19.12-0.02 22.39-15.13 41.39-36.88 53.77-60.82-22.93-11.04-46.83-28.38-52.77-54.36-1.92 18.69-0.25 42.19 15.29 55.79 4.7 4.34 12.1 7.32 13.47 14.29-1.29 7.4-11.74 8.46-16.55 3.85-8.58-9.32-12.66-21.66-15.45-33.77-8.42 20.33 17.41 46.19-0.62 64.5-5.13 4.1-6.41-8.74-8.08-1.31-5.9 6.03-11.4-5.94-12.07-11.4 1.19-17.21 10.82-34.87 6.24-51.88-3 12.09-6.85 24.53-15.53 33.87-4.77 4.6-15.35 3.54-16.52-3.87 1.7-8.34 11.49-11.2 16.28-17.41 12.85-13.37 15.47-37.02 11.68-52.3m9.89 35.83c0.82 8.37 0.19 18.98 1.88 25.83-2.33-7.55 4.92-22.45-1.88-25.83m-403.31 57.44c1.22 5.59 3.73 14.59 9.88 15.25 1.68-4.55 4.39-8.96 4.99-13.77-4.93-0.58-9.88-2.01-14.87-1.48m805.02 0.01c-14.4-3.06-9.51 9.01-4.69 15.38 4.91-1.25 14.07-17.13 4.69-15.38m-819.21 1.04c-24.33 3.74-49.73 22.3-52.28 48.05 22.77 10.88 51.6-1.92 66.98-20.33 7.8-5.12-1.07-12.59-3.26-18.23-2.95-3.87-4.62-12.55-11.44-9.49m833.14-0.23c-5.51 8.88-20.88 22.72-7.05 31.02 15.48 16.76 42.8 27.62 63.99 17.28-2.77-27.18-30.87-46.9-56.94-48.3z"/>
</svg>
