<?xml version="1.0" encoding="utf-8"?>

<!DOCTYPE svg PUBLIC "-//W3C//DTD SVG 1.1//EN" "http://www.w3.org/Graphics/SVG/1.1/DTD/svg11.dtd">
<svg version="1.1" id="Layer_1" xmlns="http://www.w3.org/2000/svg" xmlns:xlink="http://www.w3.org/1999/xlink" x="0px" y="0px"
	 viewBox="0 0 1694 1651.1311" enable-background="new 0 0 1694 1651.1311" xml:space="preserve">
<g>
	<path fill="#030303" d="M1299.8901,1478.6324c-31.4368,37.6158-69.5139,69.6163-112.5458,93.2767
		c-56.2206,31.2266-119.9203,47.8329-183.8735,52.0583c-14.6837,2.0706-29.7476,2.0706-44.4735,0.3381
		c24.3601-1.9226,48.5511-6.444,72.1507-12.8667c96.8607-25.4392,187.2939-77.1085,256.5671-149.564
		c90.3158-43.4928,167.4017-113.5332,221.5273-197.7921c13.4011-20.4597,25.1765-42.0696,34.5327-64.6433
		c-2.9028,14.5405-7.5579,28.8672-14.0646,42.1924c-23.7813,59.5173-59.259,114.9678-106.3304,158.7871
		C1387.5803,1434.0333,1345.3795,1460.3582,1299.8901,1478.6324z"/>
	<path fill="#030303" d="M394.1098,1478.6324c-45.4893-18.2743-87.6901-44.5991-123.4901-78.2134
		c-47.0713-43.8193-82.5491-99.2698-106.3305-158.7871c-6.5067-13.3252-11.1617-27.6519-14.0646-42.1924
		c9.3562,22.5737,21.1317,44.1836,34.5328,64.6433c54.1257,84.2589,131.2116,154.2993,221.5273,197.7921
		c69.2732,72.4554,159.7065,124.1248,256.5672,149.564c23.5995,6.4227,47.7906,10.9441,72.1507,12.8667
		c-14.7259,1.7324-29.7899,1.7324-44.4735-0.3381c-63.9532-4.2255-127.6529-20.8318-183.8734-52.0583
		C463.6238,1548.2488,425.5466,1516.2483,394.1098,1478.6324z"/>
	<path fill="#030303" d="M114.2083,617.1841c3.3228-48.9099,15.3186-97.1801,36.2248-141.6153
		c27.1288-58.3084,68.902-109.1849,118.1576-150.1942c10.6623-10.3059,22.8493-19.1603,35.7812-26.4144
		c-18.5777,15.8739-35.4911,33.7509-50.8083,52.8185c-63.4092,77.514-106.2008,172.4707-119.6558,271.8061
		c-47.5025,88.2726-68.6976,190.2465-62.9601,290.2277c1.1842,24.4293,4.3597,48.8334,10.0588,72.5954
		c-6.1982-13.4698-10.8532-27.7964-13.4216-42.4013c-15.7439-62.1288-19.6347-127.8425-7.3095-190.9609
		C69.4802,704.8085,88.148,658.7062,114.2083,617.1841z"/>
	<path fill="#030303" d="M847,84.7797c47.5429-11.9538,97.1575-15.4615,145.8782-9.3097
		c63.8378,7.7828,125.133,31.7897,179.3559,65.962c13.0963,6.9558,25.2833,15.8101,36.1785,25.8674
		c-20.8378-12.7631-43.0663-23.3244-65.934-31.9997C1049.1639,98.9471,945.6314,87.5931,847,105.493
		c-98.6314-17.8998-202.1639-6.5459-295.4786,29.8067c-22.8677,8.6753-45.0962,19.2366-65.934,31.9997
		c10.8952-10.0573,23.0822-18.9116,36.1786-25.8674c54.2229-34.1722,115.5179-58.1792,179.3558-65.962
		C749.8425,69.3182,799.4571,72.826,847,84.7797z"/>
	<path fill="#030303" d="M1579.7917,617.1841c26.0603,41.5221,44.728,87.6244,53.9329,135.8616
		c12.3252,63.1184,8.4343,128.832-7.3096,190.9609c-2.5684,14.6049-7.2233,28.9315-13.4215,42.4013
		c5.6991-23.762,8.8745-48.1661,10.0588-72.5954c5.7375-99.9811-15.4576-201.955-62.9601-290.2277
		c-13.4551-99.3354-56.2466-194.2921-119.6558-271.8061c-15.3173-19.0676-32.2307-36.9446-50.8083-52.8185
		c12.9319,7.2541,25.1188,16.1085,35.7811,26.4144c49.2556,41.0093,91.0288,91.8858,118.1576,150.1942
		C1564.4731,520.004,1576.4689,568.2742,1579.7917,617.1841z"/>
	<path fill="#030303" d="M1333.6848,1525.1467c-43.3484,38.4681-96.1506,66.2439-151.1787,83.9259
		c-8.1342,3.0635-16.5006,5.7045-25.1841,6.5707c45.1074-19.9233,88.3345-44.8116,125.8571-77.01
		c12.5717-10.4436,24.5358-21.8083,35.6-34.0026c15.0165-6.7545,29.5221-14.6212,43.3394-23.3503
		c42.2177-25.7362,79.2457-59.1566,112.1328-95.8997c-3.5071,7.9907-8.6042,15.1317-14.0314,21.921
		C1426.3987,1454.1726,1383.6656,1495.8073,1333.6848,1525.1467z"/>
	<path fill="#030303" d="M360.3152,1525.1467c-49.9808-29.3395-92.7139-70.9741-126.5351-117.845
		c-5.4271-6.7893-10.5242-13.9303-14.0314-21.921c32.8871,36.743,69.9152,70.1635,112.1329,95.8997
		c13.8173,8.7291,28.3228,16.5958,43.3394,23.3503c11.0643,12.1942,23.0284,23.559,35.6,34.0026
		c37.5226,32.1984,80.7496,57.0867,125.857,77.01c-8.6834-0.8662-17.0499-3.5072-25.1841-6.5707
		C456.4658,1591.3906,403.6636,1563.6149,360.3152,1525.1467z"/>
	<path fill="#030303" d="M59.5274,599.4172c12.4586-56.601,38.8503-110.1084,72.9757-156.7581
		c4.78-7.2596,9.9963-14.3138,16.5122-20.1187c-24.782,42.6318-45.1245,88.175-56.5551,136.2794
		c-4.0321,15.8384-7.0313,32.065-8.8148,48.4338c-8.1784,14.291-15.2898,29.1814-21.3373,44.365
		c-19.0274,45.636-29.3397,94.4382-34.349,143.4946c-1.8595-8.5261-1.9332-17.2993-1.5332-25.9819
		C26.2379,711.3324,36.3374,652.5313,59.5274,599.4172z"/>
	<path fill="#030303" d="M847,27.2849c57.6807-5.6419,116.7247,2.9234,171.6365,20.9631c8.3814,2.3027,16.7023,5.0838,24.2365,9.487
		c-48.2032-10.3952-97.8036-15.6683-147.0858-11.6745C879.478,47.1202,863.1188,49.2821,847,52.6441
		c-16.1188-3.362-32.478-5.5239-48.7872-6.5835c-49.2822-3.9939-98.8826,1.2793-147.0858,11.6745
		c7.5342-4.4032,15.8552-7.1843,24.2365-9.487C730.2753,30.2083,789.3193,21.643,847,27.2849z"/>
	<path fill="#030303" d="M1634.4725,599.4172c23.1901,53.1141,33.2896,111.9152,33.1016,169.7141
		c0.3999,8.6827,0.3262,17.4558-1.5333,25.9819c-5.0092-49.0563-15.3215-97.8586-34.3489-143.4946
		c-6.0476-15.1836-13.1589-30.074-21.3374-44.365c-1.7834-16.3688-4.7826-32.5953-8.8148-48.4338
		c-11.4305-48.1043-31.7731-93.6476-56.5551-136.2794c6.5159,5.8048,11.7322,12.8591,16.5122,20.1187
		C1595.6223,489.3088,1622.014,542.8162,1634.4725,599.4172z"/>
	<path fill="#030303" d="M847,1609.5549c13.5622-0.7911,26.5784-4.9843,40.1002-6.1023
		c60.9108-10.5848,120.8287-27.8461,177.4084-52.8823c71.709-30.748,138.2545-75.2393,191.2657-132.6582
		c70.9901-32.6732,133.8674-82.2133,185.2699-140.9109c41.2949-46.0739,76.2269-97.7251,105.1162-152.3838
		c5.2418-12.5145,13.2518-23.598,18.1952-36.252c3.4386-13.1428,3.473-26.8177,6.5881-40.0232
		c8.7556-61.2006,10.8549-123.5198,4.5281-185.0669c-7.0839-77.701-28.8337-154.738-67.061-222.8983
		c-9.1371-77.6121-36.8223-152.7207-76.7628-219.7459c-31.058-53.5114-69.3866-102.6949-112.4429-147.0607
		c-10.2821-8.8524-18.3479-19.8954-28.855-28.5071c-11.437-7.3316-24.432-11.5901-36.0284-18.6335
		c-55.4995-27.2391-114.12-48.4933-174.6099-61.4953c-76.087-17.2738-156.0747-20.3941-232.7118-5.1005
		c-76.6371-15.2936-156.6248-12.1733-232.7118,5.1005c-60.4898,13.002-119.1103,34.2562-174.6098,61.4953
		c-11.5965,7.0434-24.5915,11.3019-36.0285,18.6335c-10.507,8.6117-18.5728,19.6547-28.8549,28.5071
		c-43.0562,44.3658-81.3849,93.5493-112.4429,147.0607c-39.9405,67.0252-67.6257,142.1338-76.7628,219.7459
		c-38.2273,68.1602-59.9772,145.1973-67.061,222.8983c-6.3268,61.5471-4.2275,123.8663,4.5281,185.0669
		c3.1151,13.2054,3.1496,26.8804,6.5881,40.0232c4.9433,12.6539,12.9534,23.7374,18.1952,36.252
		c28.8893,54.6587,63.8214,106.3099,105.1163,152.3838c51.4024,58.6976,114.2797,108.2377,185.2698,140.9109
		c53.0113,57.4189,119.5568,101.9102,191.2658,132.6582c56.5797,25.0363,116.4976,42.2975,177.4084,52.8823
		C820.4216,1604.5707,833.4378,1608.7638,847,1609.5549z M1273.9404,1442.9156c-36.3176,37.9231-78.46,70.2247-124.5835,95.3373
		c-80.7496,44.2412-172.4434,66.4674-264.0949,70.3337c-12.761,0.0844-25.501,2.9905-38.262,0.9819
		c-12.761,2.0085-25.501-0.8976-38.262-0.9819c-91.6515-3.8663-183.3453-26.0925-264.0949-70.3337
		c-46.1236-25.1125-88.2659-57.4142-124.5835-95.3373c-47.2897-22.8212-91.0332-52.9192-129.1696-89.0251
		c-67.0289-63.1262-116.5022-143.4639-148.5012-229.4348c-4.0236-12.1104-10.7244-23.3289-12.7574-36.0859
		c-5.8537-11.5157-7.0267-24.5303-10.8898-36.6927c-24.6448-88.3605-31.8413-182.4348-14.7185-272.9035
		c9.6305-51.6263,27.3285-101.6879,52.1727-147.9468c7.0909-52.0273,22.1984-102.9306,44.7523-150.3578
		c39.3235-83.2553,100.4411-155.1329,172.3161-212.1323c10.2743-7.569,18.873-17.4085,30.3775-23.2842
		c9.1432-9.1257,21.1583-14.263,31.5318-21.6955c76.4202-50.7435,163.6663-86.6583,254.9984-98.3299
		c52.0756-6.7943,105.1559-5.4323,156.8281,3.9011c51.6721-9.3335,104.7525-10.6954,156.8281-3.9011
		c91.3321,11.6716,178.5782,47.5864,254.9984,98.3299c10.3735,7.4325,22.3885,12.5698,31.5317,21.6955
		c11.5045,5.8757,20.1033,15.7152,30.3776,23.2842c71.875,56.9993,132.9926,128.877,172.316,212.1323
		c22.5541,47.4272,37.6615,98.3306,44.7524,150.3578c24.8441,46.259,42.5422,96.3205,52.1727,147.9468
		c17.1228,90.4687,9.9263,184.543-14.7185,272.9035c-3.8632,12.1625-5.0361,25.177-10.8898,36.6927
		c-2.0331,12.7571-8.7339,23.9756-12.7574,36.0859c-31.999,85.9709-81.4723,166.3086-148.5012,229.4348
		C1364.9736,1389.9965,1321.2301,1420.0945,1273.9404,1442.9156z"/>
	<path fill="#030303" d="M847,1493.0944c61.2328,3.5278,123.0482-2.712,181.7395-20.8018
		c51.3611-15.9513,100.673-40.0156,142.7803-73.693c-17.2823-10.1624-32.5787-27.8884-32.2196-48.9526
		c-0.8451-12.2963,4.5001-23.5784,8.2609-34.9451c-60.7418,22.2052-126.6176,27.6982-190.6976,21.3812
		c-37.4113-4.2953-74.4003-12.7778-109.8635-25.4934c-35.4631,12.7156-72.4521,21.1981-109.8635,25.4934
		c-64.08,6.317-129.9558,0.824-190.6976-21.3812c3.7607,11.3667,9.106,22.6488,8.2609,34.9451
		c0.3592,21.0642-14.9372,38.7903-32.2196,48.9526c42.1073,33.6774,91.4191,57.7417,142.7803,73.693
		C723.9518,1490.3823,785.7672,1496.6222,847,1493.0944z M1453.5951,1052.3772c22.2771-57.1457,35.4446-117.8638,36.377-179.2726
		c0.7008-53.7766-6.9475-108.1112-25.9647-158.5645c-15.0055,13.2962-36.5908,22.3663-56.5131,15.5154
		c-11.9556-2.996-21.0338-11.566-30.682-18.6552c2.3481,64.6306-12.7844,128.9798-38.5941,187.9713
		c-15.6458,34.2531-35.1433,66.8104-58.1953,96.6085c1.1345,37.6567-2.2283,75.4567-9.704,112.3643
		c-13.7939,62.8958-39.375,123.8499-79.2635,174.757c11.9725-0.0641,24.3542-1.6614,35.7875,2.9421
		c20.1443,6.1676,32.2759,26.193,36.6003,45.7698c45.0409-29.6395,83.1656-69.1016,114.2078-113.0197
		C1412.9918,1168.5649,1438.0282,1111.7032,1453.5951,1052.3772z M1221.8964,339.282
		c-47.4648-38.8458-101.1421-70.1318-159.2573-89.9948c-50.928-17.2844-104.9667-26.8008-158.8273-24.3052
		c8.0084,18.3799,9.9644,41.7115-2.7075,58.5417c-6.5438,10.4446-17.4998,16.4302-27.2234,23.4155
		c62.193,17.7388,118.7165,52.0156,166.8452,94.7915c27.7417,25.4647,52.6805,54.0689,73.8967,85.2007
		c36.1643,10.5576,71.075,25.4366,103.8661,43.9516c55.5548,32.5546,105.6207,75.7195,141.7101,129.3869
		c3.6387-11.4063,5.9457-23.6756,13.8569-33.1267c12.0907-17.2524,34.8848-22.6021,54.8398-20.6653
		c-14.2705-51.9956-40.0199-100.4488-72.196-143.543C1319.8503,413.8019,1273.5083,372.4197,1221.8964,339.282z M472.1036,339.282
		c-51.612,33.1377-97.9539,74.52-134.8034,123.6527c-32.1761,43.0942-57.9255,91.5474-72.196,143.543
		c19.955-1.9368,42.7492,3.4129,54.8398,20.6653c7.9113,9.4511,10.2183,21.7205,13.857,33.1267
		c36.0893-53.6674,86.1552-96.8323,141.7101-129.3869c32.791-18.515,67.7018-33.394,103.866-43.9516
		c21.2162-31.1318,46.155-59.7359,73.8968-85.2007c48.1287-42.7759,104.6522-77.0527,166.8452-94.7915
		c-9.7236-6.9853-20.6796-12.9709-27.2234-23.4155c-12.6718-16.8302-10.7159-40.1618-2.7075-58.5417
		c-53.8605-2.4955-107.8993,7.0208-158.8273,24.3052C573.2458,269.1502,519.5684,300.4362,472.1036,339.282z M240.4049,1052.3772
		c15.5668,59.326,40.6033,116.1877,75.9442,166.4165c31.0421,43.9181,69.1668,83.3801,114.2077,113.0197
		c4.3244-19.5768,16.4561-39.6022,36.6003-45.7698c11.4333-4.6035,23.815-3.0062,35.7875-2.9421
		c-39.8885-50.9071-65.4696-111.8612-79.2635-174.757c-7.4758-36.9076-10.8386-74.7075-9.7041-112.3643
		c-23.0519-29.7981-42.5496-62.3555-58.1953-96.6085c-25.8098-58.9915-40.9422-123.3407-38.5941-187.9713
		c-9.6482,7.0891-18.7263,15.6592-30.6819,18.6552c-19.9223,6.8508-41.5076-2.2192-56.5131-15.5154
		c-19.0172,50.4533-26.6656,104.7879-25.9647,158.5645C204.9603,934.5134,218.1278,995.2315,240.4049,1052.3772z M847,1297.1841
		c51.3373,15.3774,104.8294,23.4215,158.4357,22.0181c38.41-0.1057,76.7776-5.7045,113.8777-15.571
		c14.4608-4.4276,29.4293-7.7423,43.1787-14.1108c10.3055-11.1085,18.0836-24.3201,26.7632-36.7048
		c20.8481-32.2354,38.0292-66.995,49.999-103.4924c17.9001-50.5491,26.7797-103.9088,28.0189-157.4854
		c30.4889-44.0728,54.6693-92.4611,69.8998-143.8774c11.7688-36.5627,18.3003-74.7827,20.3812-113.1158
		c0.2577-15.1213,1.7307-30.3815-0.0774-45.4258c-7.3801-13.2339-17.5415-24.7139-26.6381-36.7957
		c-24.2151-29.7891-51.9644-56.8705-82.9766-79.5329c-42.5435-32.6445-90.5477-57.5786-141.1191-75.3132
		c-32.494-42.6159-71.0419-80.5656-115.2353-110.9392c-31.1365-22.4914-65.4674-40.5138-101.2814-54.3384
		c-14.3016-4.9178-28.3596-11.0344-43.2264-13.9638c-14.8668,2.9294-28.9249,9.046-43.2264,13.9638
		c-35.814,13.8246-70.145,31.847-101.2814,54.3384c-44.1934,30.3736-82.7412,68.3232-115.2353,110.9392
		c-50.5714,17.7346-98.5757,42.6687-141.1191,75.3132c-31.0122,22.6624-58.7614,49.7438-82.9766,79.5329
		c-9.0966,12.0818-19.258,23.5618-26.6381,36.7957c-1.808,15.0444-0.335,30.3046-0.0773,45.4258
		c2.0809,38.3332,8.6123,76.5531,20.3812,113.1158c15.2304,51.4164,39.4108,99.8046,69.8997,143.8774
		c1.2393,53.5765,10.1188,106.9363,28.0189,157.4854c11.9698,36.4974,29.1508,71.2571,49.9991,103.4924
		c8.6796,12.3848,16.4576,25.5963,26.7632,36.7048c13.7493,6.3685,28.7178,9.6832,43.1786,14.1108
		c37.1001,9.8666,75.4677,15.4653,113.8777,15.571C742.1706,1320.6056,795.6627,1312.5615,847,1297.1841z M1189.676,1326.9357
		c-4.4406,5.7653-7.7344,12.4213-9.6207,19.4576c-1.5001,8.3242-1.0986,17.8739,5.1552,24.2756
		c12.423,13.4794,31.7336,15.4231,48.7202,18.7612c-46.9878,43.4806-103.9478,75.8904-164.7952,95.6447
		c-71.1966,23.9408-148.423,28.0203-222.1355,14.3032c-73.7125,13.717-150.9389,9.6376-222.1355-14.3032
		c-60.8474-19.7543-117.8074-52.1641-164.7951-95.6447c16.9866-3.3381,36.2972-5.2819,48.7202-18.7612
		c6.2538-6.4017,6.6552-15.9514,5.1551-24.2756c-1.8864-7.0364-5.1801-13.6924-9.6208-19.4576
		c-6.8553-2.4418-14.2034-3.5175-21.4783-3.1371c-8.3804,1.1456-17.3386,4.4784-21.4944,12.4043
		c-8.9807,15.9805-4.8621,34.9465-2.7877,52.1333c-55.8725-31.2518-104.2975-75.4088-141.8879-127.1737
		c-44.7701-60.3138-72.5142-132.4999-82.2469-206.8435c-35.8241-65.8659-55.8086-140.5732-55.0404-215.6833
		c-0.0154-63.9738,13.2064-128.1611,40.0389-186.2853c8.4239,15.1237,16.2398,32.8885,32.8984,40.5381
		c8.0209,3.9695,17.2272,1.4002,24.6805-2.5988c6.1091-3.9684,11.4215-9.1578,15.5323-15.1627
		c0.2038-7.2743-1.0438-14.5952-3.6536-21.3965c-3.6793-7.6162-9.6172-15.1061-18.4395-16.6093
		c-17.9734-3.603-34.7385,6.175-50.4431,13.4589c12.4567-62.7953,39.4883-122.4955,77.1036-174.2423
		c43.5272-61.2168,103.6068-109.9098,171.3041-142.1395c51.572-54.4245,116.4473-96.5166,188.1187-118.9964
		c60.8379-19.7837,125.9694-27.0439,189.5405-19.4861c-11.7803,12.6851-26.2604,25.6081-28.3879,43.8152
		c-1.2966,8.8549,3.9918,16.8167,10.0983,22.6695c5.662,4.5838,12.239,8.0326,19.2203,10.0866
		c6.9813-2.054,13.5582-5.5029,19.2203-10.0866c6.1064-5.8528,11.3949-13.8146,10.0983-22.6695
		c-2.1274-18.2071-16.6075-31.1301-28.3879-43.8152c63.5712-7.5578,128.7026-0.2976,189.5405,19.4861
		c71.6714,22.4797,136.5466,64.5719,188.1187,118.9964c67.6974,32.2298,127.777,80.9227,171.3042,142.1395
		c37.6152,51.7468,64.6469,111.447,77.1035,174.2423c-15.7045-7.2839-32.4696-17.0618-50.4431-13.4589
		c-8.8221,1.5032-14.7601,8.9931-18.4393,16.6093c-2.6099,6.8013-3.8574,14.1222-3.6536,21.3965
		c4.1107,6.0048,9.4232,11.1942,15.5323,15.1627c7.4532,3.999,16.6595,6.5682,24.6804,2.5988
		c16.6587-7.6497,24.4745-25.4145,32.8984-40.5381c26.8325,58.1243,40.0543,122.3116,40.0389,186.2853
		c0.7681,75.11-19.2163,149.8174-55.0404,215.6833c-9.7328,74.3436-37.4768,146.5297-82.2469,206.8435
		c-37.5903,51.7649-86.0154,95.9219-141.8878,127.1737c2.0743-17.1868,6.193-36.1528-2.7877-52.1333
		c-4.1558-7.9259-13.114-11.2587-21.4945-12.4043C1203.8794,1323.4182,1196.5314,1324.4939,1189.676,1326.9357z"/>
	<path fill="#030303" d="M847,1442.9935c33.0042,3.6183,66.3101,4.2886,99.363,0.8613
		c59.1361-5.134,117.1525-21.9093,170.3306-48.2765c-9.7186-17.5994-7.6482-41.1989,6.1482-55.9459
		c0.0634,11.2611-2.1128,23.1348,2.4719,33.8464c4.1199,12.0638,13.1625,21.4022,22.9657,29.1349
		c-58.9883,29.7054-123.3218,48.7837-188.8596,56.8121c-37.2928,4.3428-75.1777,4.4789-112.4199-0.4587
		c-37.2422,4.9376-75.1271,4.8015-112.4199,0.4587c-65.5378-8.0284-129.8713-27.1067-188.8596-56.8121
		c9.8032-7.7327,18.8458-17.071,22.9657-29.1349c4.5847-10.7117,2.4086-22.5853,2.4719-33.8464
		c13.7963,14.7471,15.8668,38.3466,6.1481,55.9459c53.1781,26.3672,111.1945,43.1425,170.3306,48.2765
		C780.6899,1447.2821,813.9958,1446.6118,847,1442.9935z"/>
	<path fill="#030303" d="M288.0536,1036.8953c6.7577,32.5068,16.4123,64.3899,29.8857,94.766
		c23.1568,54.6553,57.0391,104.6483,98.5488,147.0758c13.7347-14.6815,36.819-20.005,55.1075-11.441
		c-10.6902,3.5402-22.6553,5.1396-31.426,12.8101c-10.2003,7.6461-16.2873,19.132-20.6122,30.8448
		c-46.4799-46.9216-84.5045-102.2109-112.3923-162.0602c-15.6543-34.1255-27.4909-70.1141-34.3034-107.0593
		c-16.2044-33.8937-27.782-69.9664-35.1759-106.7759c-12.6168-64.8112-14.3524-131.8914-4.3293-197.172
		c10.3836,6.9338,22.0592,12.6482,34.8058,12.8385c11.6042,1.0502,22.2243-4.6887,32.9537-8.1082
		c-9.762,17.6782-31.5666,26.94-51.3078,23.1354c-8.6438,58.7233-6.67,119.084,6.7213,176.9124
		C263.484,975.1558,274.4136,1006.6245,288.0536,1036.8953z"/>
	<path fill="#030303" d="M501.5521,379.8144c-28.8277,16.4721-56.1667,35.5066-80.8927,57.7073
		c-44.8244,38.9128-81.9004,86.5855-109.4241,139.1744c18.2072,8.5256,30.4036,28.835,27.9102,48.8749
		c-6.6703-9.0731-11.889-19.9582-21.8943-25.9293c-10.424-7.3383-23.2286-9.5781-35.7047-10.0718
		c30.2621-58.7046,71.0951-111.9535,119.3973-156.9708c27.6179-25.4335,58.1874-47.8118,91.2192-65.7076
		c27.2273-25.885,57.9569-48.0431,90.68-66.4499c57.7402-32.027,121.001-54.4067,186.1839-65.0469
		c-3.3858,12.0181-5.2125,24.8881-1.4546,37.0696c2.5871,11.3607,11.3268,19.6877,17.8946,28.8353
		c-19.8295-3.8214-35.376-21.6967-37.8581-41.6473c-58.5203,9.9258-115.3168,30.4554-166.1766,61.0612
		C552.6774,337.3687,526.1263,357.4878,501.5521,379.8144z"/>
	<path fill="#030303" d="M1192.4479,379.8144c-24.5742-22.3266-51.1254-42.4456-79.8801-59.101
		c-50.8597-30.6058-107.6563-51.1355-166.1766-61.0612c-2.4821,19.9506-18.0286,37.826-37.8581,41.6473
		c6.5677-9.1476,15.3075-17.4745,17.8946-28.8353c3.7579-12.1815,1.9312-25.0515-1.4546-37.0696
		c65.1829,10.6403,128.4437,33.0199,186.1839,65.0469c32.7231,18.4068,63.4526,40.5648,90.6799,66.4499
		c33.0319,17.8958,63.6013,40.2741,91.2192,65.7076c48.3022,45.0173,89.1351,98.2662,119.3972,156.9708
		c-12.4761,0.4937-25.2806,2.7335-35.7047,10.0718c-10.0052,5.9711-15.2239,16.8563-21.8942,25.9293
		c-2.4934-20.0399,9.703-40.3493,27.9102-48.8749c-27.5237-52.5889-64.5997-100.2616-109.4241-139.1744
		C1248.6146,415.321,1221.2755,396.2865,1192.4479,379.8144z"/>
	<path fill="#030303" d="M1405.9464,1036.8953c13.64-30.2708,24.5696-61.7395,31.524-94.2337
		c13.3914-57.8283,15.3651-118.189,6.7213-176.9124c-19.7412,3.8046-41.5458-5.4573-51.3079-23.1354
		c10.7295,3.4196,21.3496,9.1584,32.9537,8.1082c12.7466-0.1903,24.4222-5.9047,34.8058-12.8385
		c10.0232,65.2806,8.2875,132.3608-4.3293,197.172c-7.3938,36.8095-18.9714,72.8823-35.1759,106.7759
		c-6.8125,36.9452-18.649,72.9338-34.3033,107.0593c-27.8878,59.8492-65.9125,115.1385-112.3923,162.0602
		c-4.3248-11.7129-10.4119-23.1987-20.6122-30.8448c-8.7706-7.6704-20.7357-9.2699-31.4259-12.8101
		c18.2886-8.564,41.3728-3.2405,55.1075,11.441c41.5096-42.4275,75.392-92.4205,98.5487-147.0758
		C1389.5341,1101.2852,1399.1887,1069.4021,1405.9464,1036.8953z"/>
	<path fill="#030303" d="M847,1354.7867c36.1719,6.8066,73.0258,9.8997,109.8212,9.1425
		c49.6921,0.338,99.0038-8.0496,147.0057-20.4092c-3.6973,8.0284-6.9298,16.395-8.0284,25.2263
		c-0.6338,6.6974,1.7535,13.0991,2.6199,19.6487c-33.3605,7.6058-67.2491,12.9934-101.3702,15.2329
		c-21.191,0.2958-42.403,0.655-63.594-0.2113c-27.6771-3.2324-55.5444-6.4438-82.5244-13.8174
		c-1.3113-0.3379-2.6212-0.6816-3.9297-1.0314c-1.3085,0.3497-2.6184,0.6935-3.9297,1.0314
		c-26.98,7.3735-54.8473,10.585-82.5244,13.8174c-21.191,0.8663-42.403,0.5071-63.594,0.2113
		c-34.1211-2.2395-68.0097-7.6271-101.3702-15.2329c0.8662-6.5496,3.2537-12.9513,2.6198-19.6487
		c-1.0986-8.8313-4.3311-17.1979-8.0284-25.2263c48.0019,12.3596,97.3137,20.7472,147.0057,20.4092
		C773.9742,1364.6864,810.8281,1361.5934,847,1354.7867z"/>
	<path fill="#030303" d="M371.9433,1009.6378c4.7043,36.505,13.1511,72.5109,25.2416,107.2714
		c15.0342,47.3645,38.2495,91.6708,64.8376,133.504c-8.7781-1.0355-17.734-1.5244-26.4726,0.1598
		c-6.5655,1.4668-11.9161,5.7156-17.8774,8.5634c-17.5426-29.3773-33.1386-59.9425-45.8125-91.7015
		c-6.8297-20.0624-13.7262-40.1252-19.4507-60.5468c-5.4784-27.3214-11.0356-54.8171-12.3603-82.7552
		c-0.0839-1.3515-0.1617-2.7036-0.2334-4.056c-0.737-1.1364-1.4688-2.2759-2.1953-3.4186
		c-15.3499-23.381-27.0156-48.892-38.6426-74.2156c-7.3722-19.8861-13.5855-40.171-19.8525-60.4162
		c-8.4141-33.1431-13.7624-67.038-16.8377-101.116c6.4967-1.2001,13.3228-0.9077,19.4966-3.5802
		c8.0596-3.7739,15.0177-9.4336,21.5107-15.4309c3.0787,49.4719,10.3397,98.9621,26.0169,146.1176
		C339.9619,943.2453,354.292,977.3397,371.9433,1009.6378z"/>
	<path fill="#030303" d="M553.3988,451.1751c-33.2646,15.7547-64.898,34.9145-94.221,57.1549
		c-40.4005,28.9348-75.3644,64.7052-106.9339,102.9192c-1.7278-8.6684-4.0304-17.3371-8.3325-25.1276
		c-3.4239-5.7909-9.1181-9.5667-13.6687-14.3562c22.5186-25.7621,46.7683-50.04,73.0565-71.9077
		c16.97-12.695,33.9198-25.4537,51.5728-37.2087c24.2913-13.6531,48.7241-27.435,74.8853-37.3281
		c1.2595-0.4975,2.5213-0.9893,3.7855-1.4754c0.853-1.0521,1.7106-2.1002,2.5729-3.1442
		c17.4932-21.8237,38.1507-40.8018,58.642-59.6852c16.6347-13.1566,34.0067-25.3341,51.3245-37.5505
		c28.9209-18.2441,59.5041-33.8047,90.9639-47.2602c3.1489,5.8079,4.9802,12.3902,9.4297,17.436
		c6.0797,6.499,13.6126,11.3676,21.3229,15.6895c-46.0992,18.2156-90.9234,40.4146-130.9264,69.8964
		C606.6591,400.2427,578.6617,424.4071,553.3988,451.1751z"/>
	<path fill="#030303" d="M1140.6012,451.1751c-25.2628-26.768-53.2603-50.9325-83.4734-71.9477
		c-40.0031-29.4818-84.8273-51.6807-130.9265-69.8964c7.7103-4.322,15.2432-9.1906,21.3229-15.6895
		c4.4495-5.0457,6.2808-11.6281,9.4297-17.436c31.4598,13.4555,62.043,29.0161,90.9639,47.2602
		c17.3177,12.2165,34.6898,24.394,51.3245,37.5505c20.4912,18.8834,41.1488,37.8615,58.642,59.6852
		c0.8623,1.0441,1.72,2.0922,2.573,3.1442c1.2642,0.4861,2.526,0.9779,3.7854,1.4754c26.1613,9.8931,50.594,23.675,74.8854,37.3281
		c17.653,11.7549,34.6028,24.5137,51.5728,37.2087c26.2882,21.8677,50.538,46.1456,73.0565,71.9077
		c-4.5505,4.7896-10.2449,8.5653-13.6687,14.3562c-4.3021,7.7905-6.6047,16.4592-8.3325,25.1276
		c-31.5695-38.214-66.5334-73.9844-106.9338-102.9192C1205.4991,486.0897,1173.8657,466.9298,1140.6012,451.1751z"/>
	<path fill="#030303" d="M1322.0568,1009.6378c17.6512-32.2982,31.9813-66.3925,42.6316-101.621
		c15.6772-47.1555,22.9382-96.6458,26.017-146.1176c6.4929,5.9973,13.451,11.657,21.5107,15.4309
		c6.1737,2.6725,12.9998,2.3801,19.4965,3.5802c-3.0753,34.0781-8.4236,67.9729-16.8376,101.116
		c-6.2671,20.2452-12.4803,40.5301-19.8525,60.4162c-11.6271,25.3236-23.2927,50.8346-38.6426,74.2156
		c-0.7266,1.1427-1.4584,2.2823-2.1953,3.4186c-0.0717,1.3525-0.1495,2.7045-0.2334,4.056
		c-1.3247,27.9381-6.8818,55.4338-12.3604,82.7552c-5.7245,20.4215-12.621,40.4844-19.4507,60.5468
		c-12.6738,31.759-28.2699,62.3242-45.8125,91.7015c-5.9613-2.8478-11.3119-7.0966-17.8774-8.5634
		c-8.7385-1.6842-17.6945-1.1953-26.4725-0.1598c26.588-41.8333,49.8033-86.1395,64.8375-133.504
		C1308.9056,1082.1487,1317.3525,1046.1428,1322.0568,1009.6378z"/>
	<path fill="#030303" d="M1225.1982,1375.8278c-4.2417-0.3657-8.4067-1.4904-12.2896-3.5109
		c-9.9088-4.7538-18.5923-15.3175-15.9724-26.9166c0.547-1.941,1.2972-3.7433,2.2157-5.4221
		c1.8805-0.3547,3.8263-0.5112,5.8414-0.4318c11.8409,1.0928,19.2045,12.6156,20.6635,23.5084
		C1226.3787,1367.3719,1226.1613,1371.6807,1225.1982,1375.8278z"/>
	<path fill="#030303" d="M468.8017,1375.8278c-0.963-4.1471-1.1804-8.4558-0.4586-12.7729
		c1.459-10.8928,8.8225-22.4156,20.6634-23.5084c2.0151-0.0795,3.961,0.077,5.8415,0.4318
		c0.9185,1.6788,1.6686,3.4811,2.2157,5.4221c2.6198,11.5991-6.0636,22.1628-15.9724,26.9166
		C477.2085,1374.3374,473.0435,1375.462,468.8017,1375.8278z"/>
	<path fill="#030303" d="M235.0623,656.452c3.6466-2.1974,7.6773-3.7356,12.0061-4.3832
		c10.8106-1.9785,24.0449,1.4639,28.7431,12.3876c0.6983,1.892,1.1508,3.791,1.3945,5.689
		c-1.3128,1.3923-2.795,2.6627-4.4721,3.7828c-10.2218,6.0759-22.9519,1.0819-30.5349-6.873
		C239.0777,663.9867,236.7209,660.373,235.0623,656.452z"/>
	<path fill="#030303" d="M847,211.8532c3.2167,2.7891,5.9252,6.1472,7.8788,10.064c5.2223,9.6701,6.0381,23.3204-2.8992,31.1643
		c-1.5836,1.2488-3.2498,2.266-4.9796,3.0843c-1.7299-0.8183-3.3961-1.8354-4.9796-3.0843
		c-8.9373-7.8439-8.1215-21.4942-2.8992-31.1643C841.0748,218.0004,843.7833,214.6423,847,211.8532z"/>
	<path fill="#030303" d="M1458.9376,656.452c-1.6586,3.9211-4.0153,7.5347-7.1367,10.6031
		c-7.5831,7.9549-20.3132,12.9489-30.5349,6.873c-1.6771-1.1201-3.1593-2.3905-4.4722-3.7828
		c0.2437-1.8981,0.6962-3.7971,1.3945-5.689c4.6982-10.9237,17.9326-14.366,28.7432-12.3876
		C1451.2604,652.7164,1455.291,654.2546,1458.9376,656.452z"/>
	<path fill="#030303" d="M847,1247.199c13.0715,5.6193,26.1263,11.2666,39.1917,16.8601
		c37.586,16.1204,78.5947,22.7333,119.2864,23.8953c9.8032,1.7959,19.7332,1.0142,29.5575-0.1056
		c38.8722-0.3418,77.3518-6.5552,115.1627-15.2496c19.9531-33.2736,37.7533-67.9498,50.0906-104.8138
		c4.1008-8.9974,7.9127-18.1998,9.2341-28.0782c11.4694-39.0592,17.8524-80.1042,14.1357-120.8321
		c-1.2823-14.1544-2.6191-28.3154-3.924-42.4836c9.3835-10.6953,18.7886-21.366,28.1458-32.0634
		c26.946-30.765,45.9077-67.723,59.5873-106.0641c4.7373-8.7684,7.0624-18.454,9.0333-28.1435
		c11.6871-37.0753,17.6687-75.5916,21.084-114.2386c-25.4791-29.2586-52.9578-56.9031-84.2051-80.0281
		c-7.2899-6.6805-14.8639-13.1497-23.8505-17.4589c-33.6033-22.9779-70.667-41.7322-110.55-50.7831
		c-13.8578-3.1543-27.7388-6.259-41.6168-9.3962c-7.2721-12.2293-14.5143-24.4715-21.7965-36.6764
		c-20.9325-35.1342-50.2222-64.5884-82.4595-89.4465c-6.8754-7.215-15.3683-12.4193-23.9745-17.288
		c-31.6492-22.572-66.432-40.163-102.1321-55.3538c-35.7001,15.1907-70.4829,32.7818-102.1321,55.3538
		c-8.6062,4.8687-17.0992,10.073-23.9745,17.288c-32.2373,24.8581-61.527,54.3123-82.4594,89.4465
		c-7.2823,12.2049-14.5245,24.4471-21.7966,36.6764c-13.8779,3.1372-27.759,6.2419-41.6168,9.3962
		c-39.883,9.0508-76.9467,27.8052-110.55,50.7831c-8.9865,4.3093-16.5606,10.7784-23.8504,17.4589
		c-31.2473,23.1251-58.7259,50.7695-84.2051,80.0281c3.4153,38.647,9.3969,77.1634,21.084,114.2386
		c1.9709,9.6895,4.296,19.3751,9.0333,28.1435c13.6796,38.3411,32.6412,75.2991,59.5873,106.0641
		c9.3571,10.6973,18.7623,21.3681,28.1458,32.0634c-1.3049,14.1682-2.6417,28.3292-3.924,42.4836
		c-3.7167,40.7278,2.6664,81.7729,14.1357,120.8321c1.3214,9.8784,5.1334,19.0808,9.2342,28.0782
		c12.3372,36.864,30.1374,71.5403,50.0905,104.8138c37.8109,8.6945,76.2906,14.9078,115.1628,15.2496
		c9.8243,1.1198,19.7543,1.9015,29.5575,0.1056c40.6917-1.162,81.7004-7.7749,119.2864-23.8953
		C820.8737,1258.4656,833.9285,1252.8182,847,1247.199z M1156.212,1280.8763c-0.5742,0.778-1.1858,1.528-1.8479,2.2399
		c-27.3602,8.282-55.798,12.423-84.13,16.0992c-66.7844,6.7396-137.2871,2.9366-198.3881-27.4237
		c-8.3074-3.9816-16.583-8.0323-24.8461-12.1107c-8.2631,4.0784-16.5387,8.1292-24.8461,12.1107
		c-61.101,30.3604-131.6037,34.1633-198.388,27.4237c-28.3322-3.6763-56.7698-7.8173-84.1301-16.0992
		c-0.6622-0.7119-1.2737-1.4619-1.8479-2.2399c-0.9172-0.3057-1.8195-0.6555-2.7012-1.0653
		c-16.3314-23.4618-29.0575-49.228-41.3088-75.0375c-27.0473-61.433-45.217-129.6603-35.2239-197.1526
		c1.2196-9.1312,2.5148-18.2535,3.8402-27.3724c-6.4323-6.5983-12.8421-13.2172-19.1959-19.8876
		c-47.7556-48.7286-73.159-114.6055-87.3867-180.2039c-5.2588-28.0814-10.1082-56.407-10.6863-84.9874
		c0.4724-0.8497,0.9968-1.6631,1.5591-2.4496c0.0073-0.9668,0.0612-1.933,0.1785-2.8982
		c17.2668-22.7822,37.8394-42.8477,58.5997-62.4749c50.0682-44.7074,109.3415-83.0712,176.6185-94.4234
		c9.0611-1.6618,18.1372-3.249,27.2194-4.8063c4.2877-8.1564,8.6019-16.2979,12.9824-24.402
		c31.5864-60.4763,86.3889-104.9934,144.3801-138.7957c25.082-13.6791,50.5226-27.0442,77.5255-36.4259
		c0.9542,0.1867,1.8898,0.4341,2.8115,0.7259c0.9218-0.2918,1.8574-0.5391,2.8115-0.7259
		c27.0029,9.3817,52.4435,22.7468,77.5255,36.4259c57.9911,33.8023,112.7937,78.3195,144.3801,138.7957
		c4.3805,8.1041,8.6946,16.2455,12.9823,24.402c9.0822,1.5574,18.1583,3.1445,27.2195,4.8063
		c67.277,11.3522,126.5503,49.716,176.6184,94.4234c20.7604,19.6273,41.3329,39.6927,58.5997,62.4749
		c0.1173,0.9651,0.1711,1.9314,0.1785,2.8982c0.5624,0.7865,1.0867,1.5999,1.5592,2.4496
		c-0.5781,28.5804-5.4275,56.9059-10.6864,84.9874c-14.2277,65.5983-39.631,131.4753-87.3866,180.2039
		c-6.3539,6.6704-12.7637,13.2892-19.1959,19.8876c1.3253,9.119,2.6206,18.2413,3.8402,27.3724
		c9.9932,67.4923-8.1766,135.7196-35.2239,197.1526c-12.2515,25.8094-24.9775,51.5757-41.309,75.0375
		C1158.0316,1280.2208,1157.1293,1280.5707,1156.212,1280.8763z"/>
	<path fill="#030303" d="M557.529,1253.7052c-1.3467-2.913-2.6844-5.8268-4.0179-8.7377
		c-10.4769-22.8093-17.8508-46.8713-28.3879-69.6611c-7.3109-13.8859-15.9167-27.0399-24.9125-39.8895
		c25.0992,21.4572,42.9011,50.1283,55.4796,80.3632c3.4446,8.5044,7.0748,16.9767,11.0074,25.3054
		c9.1364,1.1665,18.3159,2.0009,27.4684,2.6489c32.6422,2.6199,65.4111,10.6906,93.5741,27.9307
		c-15.0006-4.5847-30.1702-8.7046-45.6356-11.3667c-24.9305-2.979-50.0934-2.5564-75.024-5.4719
		C563.9001,1254.4576,560.7156,1254.0858,557.529,1253.7052z"/>
	<path fill="#030303" d="M378.626,703.0986c2.3543-2.181,4.7121-4.3536,7.0684-6.5213
		c18.4555-17.0126,39.0612-31.4612,57.4794-48.525c10.947-11.244,20.7979-23.4935,30.2388-36.0197
		c-12.6509,30.5013-34.4177,56.2918-59.2858,77.5978c-7.0236,5.9041-13.9595,11.9746-20.6654,18.2885
		c1.7139,9.0497,3.757,18.0377,5.9689,26.9425c7.5954,31.8541,10.0458,65.5132,2.3524,97.6253
		c-0.2751-15.6832-1.0446-31.3834-3.2919-46.9145c-4.8708-24.6309-13.0484-48.4318-17.9795-73.0431
		C379.8792,709.3905,379.2488,706.2469,378.626,703.0986z"/>
	<path fill="#030303" d="M847,362.805c2.8018,1.5651,5.5967,3.1361,8.3864,4.7073c21.883,12.295,41.9919,27.4273,63.9121,39.6711
		c14.0765,6.9367,28.7706,12.5201,43.6011,17.6281c-32.9179-2.6063-64.1724-15.338-92.1203-32.4051
		c-7.7855-4.8554-15.7023-9.5759-23.7794-14.0025c-8.0771,4.4265-15.9939,9.1471-23.7794,14.0025
		c-27.9479,17.0671-59.2024,29.7988-92.1203,32.4051c14.8306-5.1081,29.5247-10.6915,43.6011-17.6281
		c21.9202-12.2437,42.0291-27.376,63.9121-39.6711C841.4033,365.9412,844.1982,364.3701,847,362.805z"/>
	<path fill="#030303" d="M1315.3739,703.0986c-0.6227,3.1483-1.2531,6.2919-1.8853,9.4305
		c-4.9312,24.6113-13.1088,48.4122-17.9795,73.0431c-2.2473,15.5311-3.0167,31.2313-3.2919,46.9145
		c-7.6935-32.1121-5.243-65.7712,2.3523-97.6253c2.2119-8.9048,4.255-17.8928,5.969-26.9425
		c-6.7059-6.3139-13.6418-12.3845-20.6654-18.2885c-24.8682-21.306-46.6349-47.0965-59.2858-77.5978
		c9.4409,12.5262,19.2917,24.7757,30.2388,36.0197c18.4182,17.0638,39.0239,31.5124,57.4794,48.525
		C1310.6619,698.745,1313.0197,700.9177,1315.3739,703.0986z"/>
	<path fill="#030303" d="M1136.4711,1253.7052c-3.1866,0.3806-6.3712,0.7524-9.5516,1.1212
		c-24.9305,2.9155-50.0935,2.4929-75.024,5.4719c-15.4655,2.6621-30.635,6.782-45.6356,11.3667
		c28.1631-17.2401,60.932-25.3108,93.5741-27.9307c9.1526-0.6481,18.332-1.4824,27.4684-2.6489
		c3.9326-8.3287,7.5627-16.801,11.0074-25.3054c12.5786-30.2349,30.3805-58.906,55.4796-80.3632
		c-8.9957,12.8496-17.6016,26.0037-24.9125,39.8895c-10.5372,22.7898-17.911,46.8518-28.3879,69.6611
		C1139.1555,1247.8784,1137.8177,1250.7922,1136.4711,1253.7052z"/>
	<path fill="#030303" d="M595.5641,1201.3544c0.201-2.0223,0.4326-4.0441,0.697-6.0653
		c1.283-20.2546,10.9179-38.8024,12.4077-59.0355c2.7156-20.6313,0.4612-41.3806-0.9991-62.0103
		c11.1389,23.6162,15.7428,49.9556,15.532,75.9709c-0.0359,4.9419-0.4778,9.8309-1.1548,14.6897
		c4.4117-2.1453,8.9249-4.0763,13.6139-5.6377c24.677-8.2397,51.1498-12.0004,77.0523-8.7045
		c-20.0712,4.9861-40.5016,9.2538-59.284,18.2119c-18.7825,7.6693-33.445,22.5642-52.312,30.0435
		C599.2766,1199.6932,597.4253,1200.5382,595.5641,1201.3544z"/>
	<path fill="#030303" d="M440.1682,723.0949c1.9854-0.4337,3.9798-0.8383,5.9838-1.2114
		c19.6598-5.0389,40.2771-1.6071,59.9803-6.4425c20.4608-3.7928,39.4978-12.3488,58.6665-20.1125
		c-19.0182,17.8915-42.6457,30.4094-67.453,38.2481c-4.7112,1.4929-9.4975,2.5835-14.3276,3.441
		c3.4037,3.5328,6.6348,7.2285,9.5687,11.2054c15.4621,20.923,27.2193,44.9381,32.089,70.5912
		c-10.9444-17.548-21.3166-35.6597-35.6404-50.7546c-13.0981-15.4933-31.795-24.8354-44.7383-40.4677
		C442.8952,726.1124,441.5196,724.6127,440.1682,723.0949z"/>
	<path fill="#030303" d="M847,427.5143c1.026,1.7543,2.0271,3.526,3.0012,5.3166c10.8675,17.1405,13.9747,37.8092,24.6621,55.0538
		c9.9299,18.2873,23.9498,33.7487,37.2571,49.58c-22.8928-12.5587-42.0993-31.1615-57.2202-52.3323
		c-2.8757-4.0193-5.392-8.2343-7.7001-12.563c-2.3082,4.3288-4.8244,8.5438-7.7001,12.563
		c-15.1209,21.1709-34.3274,39.7737-57.2202,52.3323c13.3073-15.8314,27.3272-31.2928,37.2571-49.58
		c10.6874-17.2447,13.7946-37.9134,24.6621-55.0538C844.9729,431.0403,845.974,429.2686,847,427.5143z"/>
	<path fill="#030303" d="M1253.8318,723.0949c-1.3513,1.5178-2.7269,3.0175-4.129,4.4971
		c-12.9432,15.6323-31.6403,24.9744-44.7383,40.4677c-14.3237,15.0949-24.6959,33.2065-35.6404,50.7546
		c4.8698-25.6531,16.627-49.6682,32.089-70.5912c2.934-3.9769,6.1652-7.6725,9.5687-11.2054
		c-4.8302-0.8575-9.6165-1.9481-14.3276-3.441c-24.8073-7.8387-48.4348-20.3566-67.453-38.2481
		c19.1687,7.7637,38.2058,16.3197,58.6665,20.1125c19.7032,4.8354,40.3206,1.4036,59.9803,6.4425
		C1249.8519,722.2566,1251.8463,722.6612,1253.8318,723.0949z"/>
	<path fill="#030303" d="M1098.4359,1201.3544c-1.8612-0.8162-3.7125-1.6611-5.553-2.5372
		c-18.8669-7.4792-33.5295-22.3741-52.312-30.0435c-18.7823-8.9581-39.2128-13.2258-59.284-18.2119
		c25.9025-3.2959,52.3753,0.4647,77.0523,8.7045c4.689,1.5614,9.2021,3.4924,13.6139,5.6377
		c-0.677-4.8588-1.1189-9.7478-1.1548-14.6897c-0.2109-26.0154,4.3931-52.3547,15.5319-75.9709
		c-1.4602,20.6296-3.7147,41.3789-0.9991,62.0103c1.4899,20.2332,11.1249,38.7809,12.4077,59.0355
		C1098.0033,1197.3103,1098.2347,1199.332,1098.4359,1201.3544z"/>
	<path fill="#030303" d="M847,1211.0511c48.0032,23.3218,100.3134,37.822,153.006,45.6979
		c-8.9582,4.1621-18.6979,6.5072-27.3181,11.451c-3.486,1.4368-6.8875,4.796-10.9229,3.5283
		c-40.3955-10.3947-79.3682-26.7993-114.7651-48.9127c-35.3969,22.1134-74.3696,38.5181-114.7651,48.9127
		c-4.0354,1.2677-7.4369-2.0916-10.9229-3.5283c-8.6201-4.9438-18.3599-7.2889-27.3181-11.451
		C746.6866,1248.8732,798.9968,1234.3729,847,1211.0511z"/>
	<path fill="#030303" d="M508.644,965.2211c-7.3466,52.8606-4.9723,107.0914,3.8202,159.6388
		c-6.7266-7.2335-11.9668-15.772-19.3324-22.4424c-2.4436-2.8715-6.6896-5.0684-6.731-9.298
		c-2.597-41.6306,0.9615-83.7651,11.0545-124.263c-31.9694-26.831-59.6143-58.8269-81.9832-94.0332
		c-2.4526-3.4461-0.3089-7.7192-0.0197-11.4786c2.0381-9.726,1.2587-19.7137,2.4489-29.5196
		C441.6745,881.505,471.6298,926.7742,508.644,965.2211z"/>
	<path fill="#030303" d="M637.8845,567.4597c-52.5436,9.3478-103.3865,28.3641-150.645,52.9644
		c4.8009-8.6327,11.3021-16.2549,15.3699-25.3213c1.9758-3.2114,2.7531-7.9285,6.7629-9.2748
		c38.7905-15.3344,79.9624-24.9703,121.5971-27.8859c15.6387-38.6959,37.5259-74.8751,64.0967-107.0285
		c2.5195-3.3975,7.246-2.6791,10.9107-3.5659c9.8797-1.0671,19.1378-4.8947,28.8315-6.793
		C696.8085,477.8983,663.0116,520.3764,637.8845,567.4597z"/>
	<path fill="#030303" d="M1056.1155,567.4597c-25.1271-47.0833-58.924-89.5614-96.9239-126.905
		c9.6937,1.8982,18.9518,5.7259,28.8315,6.793c3.6647,0.8867,8.3912,0.1684,10.9107,3.5659
		c26.5708,32.1534,48.458,68.3326,64.0967,107.0285c41.6346,2.9156,82.8066,12.5516,121.5972,27.8859
		c4.0098,1.3464,4.7871,6.0635,6.7629,9.2748c4.0679,9.0664,10.5691,16.6886,15.3699,25.3213
		C1159.502,595.8238,1108.6592,576.8075,1056.1155,567.4597z"/>
	<path fill="#030303" d="M1185.3561,965.2211c37.0142-38.4469,66.9694-83.7161,90.7427-131.3959
		c1.1902,9.8058,0.4108,19.7936,2.449,29.5196c0.2891,3.7593,2.4329,8.0325-0.0198,11.4786
		c-22.3689,35.2063-50.0138,67.2022-81.9833,94.0332c10.093,40.4979,13.6515,82.6324,11.0546,124.263
		c-0.0414,4.2296-4.2875,6.4265-6.731,9.298c-7.3657,6.6704-12.6058,15.2089-19.3325,22.4424
		C1190.3284,1072.3125,1192.7026,1018.0817,1185.3561,965.2211z"/>
	<path fill="#030303" d="M847,1105.8019c6.7895,4.7537,13.5282,9.578,20.0078,14.7587
		c25.3109,18.2332,53.7486,33.7407,85.0174,38.093c32.5154,5.7256,66.9957,9.6975,94.5671,29.5575
		c19.9679,13.976,42.0856,24.6051,65.3406,31.7203c0.4193-24.3156-2.855-48.6353-9.9764-71.9447
		c-10.3679-32.3591-3.4905-66.3792,1.1119-99.0724c5.5234-31.0834-0.4375-62.9214-9.9568-92.6278
		c-2.9248-7.7634-5.4305-15.6631-7.8535-23.5892c6.619-4.9882,13.2897-9.9063,20.2191-14.4679
		c25.1621-18.4377,48.6985-40.6915,62.5004-69.085c15.4932-29.1547,29.9258-60.7199,57.3337-80.8049
		c19.4623-14.6718,36.406-32.4223,50.3593-52.3405c-22.9961-7.9127-47.1373-12.3139-71.5065-12.744
		c-33.9791-0.139-64.209-17.1926-93.8799-31.6726c-27.8552-14.8583-59.9769-19.0276-91.171-19.1541
		c-8.2872,0.3826-16.5746,0.3246-24.8616,0.1796c-2.6987-7.8365-5.3148-15.7004-7.5118-23.7003
		c-9.7598-29.6282-23.6512-58.8895-46.39-80.7899c-22.9401-23.7442-48.5005-47.2245-59.1329-79.4977
		c-7.9395-23.0436-19.5854-44.6432-34.2169-64.0685c-14.6315,19.4254-26.2774,41.025-34.2169,64.0685
		c-10.6324,32.2732-36.1928,55.7535-59.1329,79.4977c-22.7388,21.9004-36.6302,51.1616-46.39,80.7899
		c-2.197,7.9999-4.8131,15.8638-7.5118,23.7003c-8.2869,0.145-16.5743,0.2029-24.8616-0.1796
		c-31.1941,0.1265-63.3159,4.2958-91.171,19.1541c-29.671,14.48-59.9007,31.5336-93.8799,31.6726
		c-24.3692,0.4301-48.5104,4.8313-71.5064,12.744c13.9532,19.9182,30.8969,37.6686,50.3592,52.3405
		c27.408,20.085,41.8405,51.6502,57.3337,80.8049c13.8018,28.3935,37.3382,50.6472,62.5004,69.085
		c6.9294,4.5616,13.6,9.4797,20.219,14.4679c-2.4229,7.9261-4.9287,15.8259-7.8535,23.5892
		c-9.5193,29.7064-15.4802,61.5444-9.9568,92.6278c4.6025,32.6932,11.4799,66.7133,1.112,99.0724
		c-7.1215,23.3094-10.3957,47.6292-9.9765,71.9447c23.2551-7.1152,45.3727-17.7444,65.3406-31.7203
		c27.5715-19.86,62.0518-23.8319,94.5671-29.5575c31.2688-4.3523,59.7065-19.8599,85.0174-38.093
		C833.4718,1115.3799,840.2105,1110.5555,847,1105.8019z M1116.6127,1226.3726c-25.5637,1.8357-50.8936,6.8478-75.0909,15.3547
		c-8.4722,2.5353-16.881,7.5425-26.0081,5.5143c-57.1924-9.9088-110.0748-39.1283-151.8651-79.0172
		c-3.8241-3.465-7.3524-7.2891-10.5215-11.3667c25.3531,15.5499,50.6006,31.7549,78.4678,42.551
		c25.2897,9.9299,52.6288,18.2332,80.0524,14.1344c5.2185-0.4437,10.2047-2.303,14.7682-4.8594
		c-23.515-21.9093-57.3403-23.9799-86.0527-35.2831c-35.2658-14.9357-66.0486-38.5933-93.3628-65.1715
		c-27.3141,26.5782-58.097,50.2358-93.3628,65.1715c-28.7124,11.3032-62.5377,13.3738-86.0527,35.2831
		c4.5636,2.5564,9.5497,4.4156,14.7682,4.8594c27.4236,4.0988,54.7627-4.2045,80.0524-14.1344
		c27.8672-10.7961,53.1147-27.0011,78.4678-42.551c-3.1691,4.0776-6.6974,7.9017-10.5215,11.3667
		c-41.7903,39.8889-94.6727,69.1084-151.8651,79.0172c-9.1271,2.0282-17.5359-2.979-26.0081-5.5143
		c-24.1974-8.507-49.5272-13.519-75.0909-15.3547c-9.6454-23.7454-22.2396-46.2865-37.8076-66.6709
		c-5.0293-7.274-12.3899-13.724-13.2814-23.0311c-8.2496-57.4552,3.1982-116.7786,28.2209-168.8499
		c2.1136-4.7076,4.6602-9.245,7.559-13.5191c-6.9543,28.9174-14.5641,57.9368-16.2205,87.7764
		c-1.629,27.1205-1.0775,55.6874,11.295,80.5021c2.0345,4.826,5.3436,8.9937,9.1851,12.5438
		c13.5705-29.1344,5.087-61.944,6.9645-92.744c3.3069-38.1552,16.2941-74.7419,33.131-108.9324
		c-33.718-17.7642-65.73-39.7298-90.8325-68.6542c-19.6227-23.8142-32.0444-55.3442-60.1479-70.9379
		c-1.0211,5.1302-1.2485,10.4468-0.0579,15.5471c4.5762,27.3479,20.9212,50.7831,38.1801,71.7666
		c18.8793,23.1671,42.0929,42.1714,64.7163,61.4784c-4.8574-1.754-9.5846-3.9279-14.0616-6.4941
		c-50.8506-27.4187-94.9814-68.6835-122.0787-120.0146c-4.7494-8.0536-2.5857-17.5982-2.7925-26.4391
		c0.6131-25.6419-2.4474-51.2808-8.6012-76.1606c19.6025-16.5111,37.1487-35.4544,51.7246-56.5596
		c5.3639-7.0309,9.2236-16.0244,17.7997-19.7483c52.0939-25.6005,112.0514-33.0449,169.3066-25.3378
		c5.1304,0.5554,10.2326,1.5753,15.1933,3.0114c-29.6511,2.322-59.6017,4.0521-88.4927,11.6978
		c-26.2965,6.8314-53.2947,16.1836-73.0717,35.6187c-3.9611,3.4263-6.9021,7.8613-9.0915,12.6118
		c31.902,3.9033,60.4843-14.3037,90.357-22.0359c37.3096-8.6455,76.119-7.5999,113.8389-2.1525
		c6.4753-37.5571,17.4736-74.7902,37.2253-107.6021c16.5849-26.0212,42.7332-47.5783,48.8792-79.1251
		c-5.1946,0.6142-10.3214,2.0408-14.804,4.7492c-24.5953,12.8033-41.8326,35.5901-56.4557,58.4886
		c-16.1993,25.1143-27.1,53.0644-38.4711,80.5468c0.1671-5.1617,0.7739-10.3293,1.831-15.3802
		c10.363-56.8346,35.9709-111.5571,76.4163-153.1903c6.1918-7.0056,15.9378-7.8973,24.2822-10.826
		c24.5764-7.3406,48.0146-18.1742,69.7751-31.7151c21.7605,13.5409,45.1988,24.3745,69.7751,31.7151
		c8.3444,2.9287,18.0904,3.8204,24.2822,10.826c40.4454,41.6333,66.0533,96.3557,76.4163,153.1903
		c1.0571,5.0509,1.6639,10.2186,1.831,15.3802c-11.3711-27.4824-22.2718-55.4325-38.4711-80.5468
		c-14.6231-22.8984-31.8605-45.6853-56.4557-58.4886c-4.4827-2.7084-9.6094-4.135-14.804-4.7492
		c6.1461,31.5468,32.2943,53.1039,48.8792,79.1251c19.7517,32.812,30.75,70.045,37.2253,107.6021
		c37.7199-5.4474,76.5294-6.493,113.8389,2.1525c29.8727,7.7322,58.455,25.9391,90.3569,22.0359
		c-2.1893-4.7505-5.1304-9.1855-9.0914-12.6118c-19.777-19.4351-46.7753-28.7873-73.0718-35.6187
		c-28.8909-7.6456-58.8416-9.3757-88.4927-11.6978c4.9607-1.4361,10.0629-2.456,15.1932-3.0114
		c57.2552-7.707,117.2128-0.2626,169.3066,25.3378c8.5762,3.7239,12.4358,12.7173,17.7997,19.7483
		c14.5759,21.1052,32.1221,40.0485,51.7246,56.5596c-6.1538,24.8799-9.2142,50.5187-8.6012,76.1606
		c-0.2068,8.8409,1.9569,18.3855-2.7925,26.4391c-27.0973,51.3312-71.2281,92.5959-122.0787,120.0146
		c-4.4771,2.5662-9.2042,4.7401-14.0616,6.4941c22.6234-19.307,45.837-38.3113,64.7163-61.4784
		c17.2589-20.9835,33.6039-44.4187,38.1802-71.7666c1.1906-5.1002,0.9631-10.4169-0.058-15.5471
		c-28.1035,15.5938-40.5253,47.1237-60.1478,70.9379c-25.1024,28.9244-57.1145,50.89-90.8325,68.6542
		c16.8369,34.1905,29.8241,70.7773,33.1311,108.9324c1.8773,30.8-6.6061,63.6096,6.9644,92.744
		c3.8416-3.5502,7.1506-7.7178,9.1852-12.5438c12.3724-24.8147,12.924-53.3816,11.295-80.5021
		c-1.6564-29.8396-9.2662-58.8589-16.2206-87.7764c2.8988,4.2741,5.4454,8.8115,7.5591,13.5191
		c25.0226,52.0714,36.4705,111.3947,28.2208,168.8499c-0.8914,9.3071-8.2521,15.7571-13.2813,23.0311
		C1138.8523,1180.0861,1126.2582,1202.6272,1116.6127,1226.3726z"/>
	<path fill="#030303" d="M1058.9301,1146.9792c-14.7543-3.6593-29.9553-5.8093-44.9587-7.3405
		c-17.3035-0.3169-34.6915-1.3311-51.5936-5.2186c-20.5149-4.9016-40.5649-15.4442-53.157-32.811
		c-4.6693-5.9369-7.6693-12.9302-11.1343-19.6276c17.0078,14.3668,35.1141,28.0785,56.305,35.5366
		c3.9298,1.3098,8.1342,0.9718,12.1907,1.0142c0.9084-8.7046-5.0072-15.7401-10.1201-22.0784
		c-16.2471-18.9092-38.5367-30.7406-58.9671-44.4102c12.8667,3.5706,24.4235,10.4581,36.0436,16.8386
		c17.4514,9.7399,32.4308,24.825,52.6077,28.9026c10.8854,3.3663,22.6968-0.9658,30.6048-8.8602
		c9.9518-5.0814,17.7219-14.9761,17.884-26.3689c2.3569-20.4493-7.361-39.3572-11.2313-58.9643
		c-2.4774-13.0231-5.4567-26.1426-4.8764-39.483c6.6872,23.6546,11.0517,48.5093,24.0147,69.8046
		c4.4481,6.8213,9.3113,14.6216,17.8705,16.4474c1.2133-3.8711,2.834-7.7651,2.8026-11.9073
		c-0.5447-22.4585-7.9902-43.9158-16.3981-64.5307c5.2988,5.365,11.0227,10.3793,15.2262,16.6545
		c12.6257,17.3424,16.4565,39.669,14.7788,60.6945c-1.5258,17.2761-5.9344,34.1265-10.9802,50.681
		C1062.6617,1116.6948,1060.0092,1131.8163,1058.9301,1146.9792z"/>
	<path fill="#030303" d="M635.07,1146.9792c-1.0792-15.163-3.7318-30.2844-6.9119-45.0266
		c-5.0457-16.5546-9.4543-33.4049-10.9802-50.681c-1.6777-21.0255,2.1531-43.3521,14.7789-60.6945
		c4.2034-6.2753,9.9272-11.2896,15.2262-16.6545c-8.408,20.6149-15.8535,42.0722-16.3981,64.5307
		c-0.0314,4.1422,1.5893,8.0363,2.8026,11.9073c8.5593-1.8258,13.4224-9.6261,17.8705-16.4474
		c12.963-21.2952,17.3276-46.15,24.0147-69.8046c0.5803,13.3403-2.399,26.4598-4.8764,39.483
		c-3.8703,19.6071-13.5883,38.515-11.2313,58.9643c0.1621,11.3928,7.9321,21.2875,17.8839,26.3689
		c7.908,7.8944,19.7194,12.2266,30.6048,8.8602c20.1768-4.0776,35.1563-19.1627,52.6077-28.9026
		c11.6202-6.3805,23.1769-13.2681,36.0436-16.8386c-20.4304,13.6696-42.72,25.501-58.9671,44.4102
		c-5.1129,6.3383-11.0286,13.3738-10.1201,22.0784c4.0565-0.0424,8.2609,0.2957,12.1907-1.0142
		c21.1909-7.4581,39.2972-21.1698,56.305-35.5366c-3.465,6.6974-6.465,13.6907-11.1343,19.6276
		c-12.592,17.3668-32.6421,27.9094-53.157,32.811c-16.902,3.8876-34.2901,4.9017-51.5936,5.2186
		C665.0253,1141.1699,649.8243,1143.3199,635.07,1146.9792z"/>
	<path fill="#030303" d="M504.09,743.8643c14.0873-5.7119,27.6489-12.9074,40.687-20.4875
		c14.1851-9.9144,28.8484-19.3143,44.8075-26.1041c19.478-8.0929,41.8956-11.3488,62.2908-4.7001
		c7.2671,2.0585,13.8047,5.9528,20.5446,9.3345c-22.2042-1.6261-44.912-2.0765-66.4396,4.3455
		c-3.9492,1.2501-7.1519,3.9949-10.4586,6.345c4.3815,7.5761,13.3027,9.7908,21.1647,11.9133
		c24.2587,5.748,49.2457,2.2184,73.8091,1.2686c-12.5081,4.6742-25.9062,5.895-39.0575,7.5631
		c-19.8434,2.3781-40.8289-1.0214-59.549,7.5394c-10.7852,3.6747-17.7944,14.1221-19.5519,25.157
		c-5.0643,9.9605-5.5345,22.5325,1.0309,31.8448c10.113,17.9293,29.0887,27.514,43.7446,41.1015
		c9.6591,9.0797,19.7808,17.9425,27.1526,29.0761c-19.3138-15.2064-37.4541-32.7489-60.4584-42.3575
		c-7.608-2.9041-16.1273-6.3561-24.1251-2.8022c1.2938,3.8449,2.2715,7.948,4.7316,11.2806
		c13.6414,17.8491,32.2772,30.8321,51.1965,42.5678c-7.4404-1.2257-15.0184-1.918-22.1076-4.5241
		c-20.408-6.6091-36.6305-22.4199-47.6317-40.416c-8.9202-14.8735-15.2579-31.0972-20.9064-47.4559
		C518.8717,770.5583,512.1295,756.7657,504.09,743.8643z"/>
	<path fill="#030303" d="M847,494.7257c9.7856,11.6327,20.8197,22.307,32.0577,32.3646
		c13.8126,10.4271,27.2837,21.468,38.6727,34.5479c13.7158,16.0238,23.7398,36.3381,23.719,57.7896
		c0.2879,7.5475-1.3955,14.9686-2.529,22.4236c-5.3149-21.6199-11.9037-43.3556-24.6638-61.845
		c-2.4093-3.3696-6.0094-5.5674-9.2664-7.986c-5.8513,6.5082-5.2008,15.6772-4.7899,23.8102
		c2.0297,24.8477,13.1079,47.521,21.6017,70.5886c-8.3107-10.4515-13.6119-22.8165-19.2625-34.8087
		c-8.3936-18.1373-11.6454-39.1462-25.572-54.3046c-6.8277-9.1218-18.9297-12.5595-29.9677-10.821
		c-11.038-1.7385-23.14,1.6993-29.9677,10.821c-13.9266,15.1584-17.1785,36.1673-25.572,54.3046
		c-5.6505,11.9922-10.9518,24.3572-19.2625,34.8087c8.4938-23.0676,19.5721-45.7409,21.6017-70.5886
		c0.4109-8.1331,1.0614-17.3021-4.7899-23.8102c-3.257,2.4186-6.8571,4.6164-9.2664,7.986
		c-12.7601,18.4894-19.3489,40.2251-24.6638,61.845c-1.1335-7.455-2.8169-14.876-2.529-22.4236
		c-0.0208-21.4515,10.0032-41.7658,23.719-57.7896c11.389-13.0798,24.8602-24.1207,38.6727-34.5479
		C826.1803,517.0327,837.2144,506.3584,847,494.7257z"/>
	<path fill="#030303" d="M1189.9099,743.8643c-8.0394,12.9014-14.7816,26.694-20.8741,40.4899
		c-5.6484,16.3587-11.9862,32.5823-20.9064,47.4559c-11.0012,17.9961-27.2236,33.8069-47.6317,40.416
		c-7.0891,2.6061-14.6671,3.2984-22.1075,4.5241c18.9193-11.7357,37.5552-24.7187,51.1965-42.5678
		c2.4602-3.3326,3.4379-7.4357,4.7317-11.2806c-7.9978-3.5538-16.5171-0.1018-24.1251,2.8022
		c-23.0043,9.6086-41.1445,27.1512-60.4584,42.3575c7.3718-11.1336,17.4935-19.9964,27.1526-29.0761
		c14.6559-13.5875,33.6316-23.1722,43.7446-41.1015c6.5654-9.3123,6.0952-21.8843,1.0309-31.8448
		c-1.7576-11.035-8.7667-21.4823-19.5519-25.157c-18.7202-8.5608-39.7056-5.1614-59.5491-7.5394
		c-13.1512-1.6682-26.5493-2.8889-39.0574-7.5631c24.5633,0.9498,49.5504,4.4794,73.809-1.2686
		c7.8621-2.1224,16.7833-4.3372,21.1647-11.9133c-3.3066-2.3502-6.5093-5.0949-10.4585-6.345
		c-21.5276-6.4221-44.2355-5.9716-66.4396-4.3455c6.7399-3.3817,13.2775-7.2759,20.5446-9.3345
		c20.3951-6.6487,42.8129-3.3928,62.2908,4.7001c15.9591,6.7897,30.6224,16.1897,44.8075,26.1041
		C1162.261,730.9569,1175.8226,738.1524,1189.9099,743.8643z"/>
	<path fill="#030303" d="M1006.2202,1074.4303c-0.8362,0.7671-1.7692,1.4401-2.8126,1.9948
		c-16.1837,1.3099-31.8604-4.9227-45.7412-12.6978c-13.8386-7.5425-24.3813-19.8599-38.41-27.0645
		c-22.4357-11.8466-47.1131-19.3395-72.2563-22.8137c-25.1432,3.4742-49.8206,10.9672-72.2563,22.8137
		c-14.0287,7.2046-24.5714,19.522-38.41,27.0645c-13.8809,7.775-29.5575,14.0077-45.7412,12.6978
		c-1.0434-0.5547-1.9764-1.2277-2.8126-1.9948c-0.988-0.5582-1.9163-1.2377-2.7663-2.0586
		c-6.2468-14.9868-5.1635-31.8223-2.0585-47.4263c2.897-15.4921,11.3536-29.325,13.8705-44.8934
		c4.3337-24.9985,3.8343-50.7835-0.6312-75.7698c-11.0739-22.8391-25.8259-43.9932-44.0257-61.67
		c-11.187-11.1157-26.1594-17.3361-37.6091-28.1666c-11.6838-10.7989-22.4557-23.7822-26.2111-39.5787
		c0.2052-1.1638,0.5568-2.259,1.028-3.2914c0.2256-1.1122,0.5849-2.205,1.103-3.267c12.323-10.5723,28.6691-14.7444,44.4689-16.6133
		c15.6291-2.032,31.3982,1.7361,46.9824-0.6812c25.1142-3.6033,49.4828-12.0463,71.8663-24.0145
		c18.2992-17.5895,33.8594-38.1564,45.047-60.928c7.1147-14.0745,8.404-30.2362,15.1662-44.4724
		c6.6599-14.449,15.6791-28.7058,29.5419-37.1586c1.1702-0.1646,2.3205-0.1685,3.4479-0.0394
		c1.1274-0.1291,2.2778-0.1251,3.4479,0.0394c13.8629,8.4528,22.8821,22.7097,29.5419,37.1586
		c6.7622,14.2362,8.0515,30.3979,15.1662,44.4724c11.1876,22.7715,26.7478,43.3384,45.047,60.928
		c22.3834,11.9681,46.7521,20.4112,71.8663,24.0145c15.5841,2.4173,31.3533-1.3508,46.9824,0.6812
		c15.7998,1.8689,32.1459,6.0411,44.4689,16.6133c0.5181,1.0621,0.8773,2.1548,1.103,3.267
		c0.4711,1.0323,0.8228,2.1276,1.028,3.2914c-3.7552,15.7964-14.5272,28.7798-26.2111,39.5787
		c-11.4498,10.8305-26.4221,17.0509-37.6091,28.1666c-18.1998,17.6769-32.9518,38.831-44.0257,61.67
		c-4.4655,24.9863-4.965,50.7713-0.6312,75.7698c2.5168,15.5684,10.9734,29.4013,13.8705,44.8934
		c3.105,15.604,4.1883,32.4395-2.0585,47.4263C1008.1364,1073.1926,1007.2081,1073.8721,1006.2202,1074.4303z M847,1008.0632
		c6.3244-0.641,12.692-0.9544,19.0359-1.2536c23.7263-0.4437,48.2977,0.9718,70.2281,10.8384
		c13.6273,5.9368,23.5362,17.4725,36.0859,25.0996c5.5039,3.7423,11.407,6.8536,17.5797,9.2606
		c-0.3818-6.6143-1.5167-13.1899-3.3751-19.5809c-3.3757-14.2924-11.2847-27.281-12.72-42.0759
		c-2.6068-23.9061,3.64-47.7123,11.3937-70.1402c2.245-5.941,4.5107-11.9001,7.0747-17.7169
		c1.3447-6.213,3.0144-12.3657,4.6902-18.4917c6.9099-22.7021,15.8491-45.6335,32.0097-63.4416
		c9.8573-11.1258,23.8904-16.9849,35.0222-26.5635c5.26-4.0781,10.0432-8.7308,14.2399-13.8576
		c-6.4086-1.6808-13.0131-2.6335-19.6655-2.841c-14.6361-1.2061-29.433,2.3021-43.9473-0.9048
		c-23.5416-4.9081-44.2523-18.2057-63.1864-32.5105c-4.9565-3.971-9.9238-7.9673-14.6636-12.2033
		c-5.4933-3.1988-10.829-6.688-16.1373-10.1749c-19.4557-13.587-38.5023-29.1749-50.445-50.0475
		c-7.5352-12.813-8.7711-27.9698-14.4409-41.5168c-2.2531-6.2627-5.2-12.2496-8.779-17.8251
		c-3.579,5.5755-6.5259,11.5624-8.779,17.8251c-5.6699,13.547-6.9058,28.7038-14.4409,41.5168
		c-11.9427,20.8726-30.9893,36.4605-50.445,50.0475c-5.3083,3.4869-10.644,6.9761-16.1373,10.1749
		c-4.7397,4.236-9.707,8.2323-14.6636,12.2033c-18.9341,14.3048-39.6448,27.6024-63.1864,32.5105
		c-14.5143,3.2069-29.3112-0.3013-43.9473,0.9048c-6.6525,0.2075-13.257,1.1602-19.6656,2.841
		c4.1967,5.1268,8.9799,9.7795,14.2399,13.8576c11.1319,9.5786,25.165,15.4377,35.0223,26.5635
		c16.1606,17.8081,25.0999,40.7395,32.0097,63.4416c1.6758,6.126,3.3455,12.2787,4.6902,18.4917
		c2.564,5.8168,4.8297,11.7758,7.0747,17.7169c7.7537,22.4279,14.0005,46.2341,11.3937,70.1402
		c-1.4352,14.7949-9.3443,27.7835-12.72,42.0759c-1.8583,6.391-2.9933,12.9667-3.3751,19.5809
		c6.1727-2.407,12.0758-5.5183,17.5797-9.2606c12.5497-7.6271,22.4586-19.1628,36.0859-25.0996
		c21.9304-9.8666,46.5018-11.2821,70.2281-10.8384C834.308,1007.1088,840.6756,1007.4222,847,1008.0632z"/>
	<path fill="#030303" d="M971.2521,1026.3009c-33.6244-21.486-58.5549-55.9489-68.6819-94.5325
		C936.136,953.3228,961.2083,987.6827,971.2521,1026.3009z"/>
	<path fill="#030303" d="M722.7479,1026.3009c10.0438-38.6182,35.1161-72.9781,68.6819-94.5325
		C781.3028,970.352,756.3723,1004.8149,722.7479,1026.3009z"/>
	<path fill="#030303" d="M645.9559,789.9594c39.8318-2.3815,80.2578,10.8459,111.1296,36.1082
		C717.2609,828.3592,676.7807,815.2985,645.9559,789.9594z"/>
	<path fill="#030303" d="M847,643.8923c14.5736,37.1464,14.486,79.6813,0,116.8486C832.514,723.5735,832.4264,681.0386,847,643.8923
		z"/>
	<path fill="#030303" d="M1048.0441,789.9594c-30.8248,25.3392-71.305,38.3998-111.1296,36.1082
		C967.7863,800.8053,1008.2123,787.5779,1048.0441,789.9594z"/>
	<path fill="#030303" d="M847,873.9862c3.0053,2.4938,6.5142,4.2055,10.5427,3.8184c1.8519,0.0082,3.5768-0.303,5.2009-0.8528
		c1.0248-1.3748,1.8538-2.9191,2.4183-4.6829c1.613-3.7116,1.0694-7.5778-0.3737-11.2065c3.3004-2.0876,6.0127-4.8959,6.8893-8.8467
		c0.5801-1.7588,0.8171-3.4954,0.7961-5.21c-0.9908-1.3994-2.2033-2.665-3.7064-3.7469c-3.0315-2.681-6.8764-3.3587-10.7736-3.1077
		c-0.9655-3.784-2.7982-7.2313-6.2848-9.2859c-1.4935-1.0952-3.0718-1.8572-4.7089-2.3671
		c-1.6371,0.5099-3.2155,1.2719-4.7089,2.3671c-3.4866,2.0546-5.3193,5.502-6.2848,9.2859
		c-3.8972-0.251-7.7421,0.4266-10.7736,3.1077c-1.5031,1.0819-2.7156,2.3475-3.7064,3.7469
		c-0.0209,1.7146,0.2161,3.4512,0.7961,5.21c0.8766,3.9509,3.5889,6.7592,6.8893,8.8467
		c-1.4431,3.6288-1.9867,7.4949-0.3737,11.2065c0.5645,1.7639,1.3935,3.3081,2.4183,4.6829c1.6241,0.5497,3.349,0.861,5.2009,0.8528
		C840.4858,878.1917,843.9947,876.48,847,873.9862z M880.4157,901.2753c3.5605,34.9294,15.3464,69.1583,37.1716,96.8086
		c-18.6134-11.1554-36.4451-23.7263-52.5443-38.2832c-6.7632-5.9856-12.4971-12.8921-18.043-19.9678
		c-5.5458,7.0757-11.2798,13.9822-18.043,19.9678c-16.0992,14.5569-33.9309,27.1278-52.5443,38.2832
		c21.8251-27.6503,33.611-61.8792,37.1716-96.8086c-32.1196,14.1801-61.0311,35.9664-80.5838,65.2678
		c4.8575-21.1496,11.3029-41.9932,20.1724-61.8027c3.6027-8.2819,8.3993-15.8694,13.4149-23.3303
		c-8.4431-3.0879-16.7834-6.407-24.566-10.9895c-18.8193-10.8129-36.2853-23.8872-52.6465-38.1425
		c33.0413,12.2125,69.2369,12.8443,103.557,5.4368c-23.4115-26.1656-53.0657-46.9298-86.975-56.4709
		c21.6155-1.9158,43.4307-2.2269,65.0115,0.087c8.9897,0.8672,17.6882,3.0844,26.3338,5.5489
		c0.3278-8.9841,0.907-17.9419,2.8604-26.7596c4.4682-21.2396,11.5053-41.8909,20.007-61.8565
		c-1.4045,35.1981,9.1797,69.8174,26.8302,100.1686c17.6505-30.3513,28.2347-64.9706,26.8302-100.1686
		c8.5016,19.9656,15.5388,40.6169,20.007,61.8565c1.9533,8.8177,2.5326,17.7756,2.8604,26.7596
		c8.6456-2.4645,17.3441-4.6817,26.3338-5.5489c21.5809-2.3138,43.396-2.0027,65.0115-0.087
		c-33.9094,9.5411-63.5635,30.3053-86.975,56.4709c34.3201,7.4075,70.5157,6.7758,103.557-5.4368
		c-16.3612,14.2552-33.8272,27.3295-52.6465,38.1425c-7.7826,4.5825-16.1229,7.9016-24.566,10.9895
		c5.0156,7.4609,9.8122,15.0485,13.4149,23.3303c8.8695,19.8096,15.3149,40.6531,20.1724,61.8027
		C941.4468,937.2418,912.5353,915.4554,880.4157,901.2753z"/>
	<path fill="#030303" d="M855.4578,866.9238c-0.2545-0.0498-0.5103-0.1061-0.7673-0.1689c-0.007-0.3057-0.0142-0.6113-0.0217-0.9171
		c0.2885,0.1016,0.577,0.2029,0.8655,0.304C855.5146,866.4056,855.4891,866.6663,855.4578,866.9238z"/>
	<path fill="#030303" d="M838.5422,866.9238c-0.0313-0.2574-0.0568-0.5181-0.0765-0.782c0.2885-0.1011,0.577-0.2024,0.8655-0.304
		c-0.0074,0.3057-0.0146,0.6114-0.0217,0.9171C839.0525,866.8177,838.7967,866.874,838.5422,866.9238z"/>
	<path fill="#030303" d="M833.3149,850.836c0.2352-0.1093,0.4753-0.2141,0.7202-0.3144c0.1853,0.2432,0.3708,0.4863,0.5565,0.7292
		c-0.293,0.0874-0.586,0.175-0.8788,0.2628C833.5735,851.2886,833.441,851.0627,833.3149,850.836z"/>
	<path fill="#030303" d="M847,840.8932c0.1766,0.1899,0.3505,0.3858,0.5215,0.5878c-0.174,0.2513-0.3478,0.5029-0.5215,0.7546
		c-0.1737-0.2517-0.3475-0.5032-0.5215-0.7546C846.6495,841.279,846.8234,841.0831,847,840.8932z"/>
	<path fill="#030303" d="M860.6851,850.836c-0.1261,0.2267-0.2587,0.4526-0.3979,0.6776c-0.2928-0.0878-0.5858-0.1754-0.8788-0.2628
		c0.1857-0.2429,0.3712-0.486,0.5565-0.7292C860.2098,850.6219,860.4499,850.7267,860.6851,850.836z"/>
</g>
</svg>
