<?xml version="1.0" encoding="utf-8"?>

<!DOCTYPE svg PUBLIC "-//W3C//DTD SVG 1.1//EN" "http://www.w3.org/Graphics/SVG/1.1/DTD/svg11.dtd">
<svg version="1.1" id="Layer_1" xmlns="http://www.w3.org/2000/svg" xmlns:xlink="http://www.w3.org/1999/xlink" x="0px" y="0px"
	 viewBox="0 0 556.9 1656.3" style="enable-background:new 0 0 556.9 1656.3;" xml:space="preserve">
<path d="M263,43.1c15.1-19.3,45.8-16.3,59.7-11.2c58.6,26.9,48.4,37.1,40.5,35.2c-10.9-2.1-18.6-10.9-28.3-15.7
	c-12.9-6.8-27.5-8.7-41.4-12.3c-6.7-1.9-13.5,1-19,4.8c-15.5,11-14.6,22.3-15,48.6c-0.2,29.8-0.7,76.2,10.8,89.1
	c7.5,0.7,21.3-58.1,36.7-78.1c10.9-14.4,17.6-4.7,65.1-32.8c4.8-2.9,10.8-4.7,16.2-2.1c17,8,39.3,23.5,50.1,39.5
	c-1.9-0.8-3.8-1.7-5.7-2.5c0.3,5.6,5.8,18.7,11.1,22.8c0.1-4.3-1.7-8.3-3.1-12.3c11.8,10.5,10.9,20.9,13.1,43.8
	c0.4,10.9,15.1,2.6,24.8,3.9c28.6,2.6,41.3,43.7,44.4,72.3c4.4,72.1-22.9,356.5-116.6,475.6c-43.7,61.4-108.2,96.5-150.6,102.1
	c-1.6,0.4-3.9,0.2-4.2,2.3c-8,28.5-11.4,513.6-7.9,572.4c1.1,26.1,5.7,51.8,8.6,77.7c6,53.7,3.6,107.9,1.9,161.9
	c-1.2-95.9-4.3-213.9-45-326.7c-4.2,31.7-4.1,34.2-5.9,39.2c-3.5-36.5-0.7-53.7-21.7-113.1c-35.5-104.3-19.3-39.6-97.3-354.7
	c7.9,281.6,0.4,292.2,37,414.6c53.6,172.2,83.7,175.3,105.1,295.8c1.2,7.2,3.2,14.4,2.4,21.7c-5-11.1-6.8-23.4-10.2-35
	c-9.7-40.6-33.9-104.8-48.9-136.3c-111-246.3-79.4-318.3-94.4-558.6c-1.9-31.8-7.6-54.7-5-62.4c1.8,0.8,3.5,1.9,5.4,2.4
	c2.4-1.2,3.2-3.9,4.6-6c3.1,9.1,50.6,273,115.6,432.7c-0.8-217.2,7.3-321.9-3.8-446.1c-11.7-2.5-23.8-4.1-34.8-9.3
	c-49.6-22.6-60.8-47.4-68.6-64.4C49.1,632.8,47,540.9,45.7,440.4C39.3,206.1,9,147.5,69.1,103.8c47.2-34.9,98.1-13.5,114.7-25.7
	c8.2-6.3,18.3-10.2,28.7-11c11.5-1,21.4,12.6,35.3,27C247.9,82.9,245,65.4,263,43.1 M209.1,76.6c-16.4,8.2-27.6,39.6-29.6,59.6
	c-3,51.4-25.4,129.6-26.9,182.7c1.8,124.7,37.5,177.5,46.2,193.1c25.9-57.7,31-58.6,86.8-129.6c-6.3-230.9-8.3-132.3-35.3-227.6
	c-5.4-15.9-6.2-48-27.6-72.6C219.3,78.5,214.4,74.1,209.1,76.6 M359.7,94c-11.8,14.5-6.6,12.6-1.2,46.8c0.4,3.6,11.4,88,11.3,121.5
	c0.1,3.7-2.3,7.7,0.3,11.1c13.4-9,29.2-41.1,54.9-73c15.2-19.1,25.6-31.7,10.2-65.5C411.7,86,390.2,60.1,359.7,94 M76.9,110.4
	c-42.3,33.7-35.6,78.7-25.2,229.7c10.9,188.4-2,346.4,76.4,417.9c22.1,20.3,26.9,15.2,31,16c3,3.4-0.6,9.3,24,13.1
	c6.2,0.6,12.9,1.3,18.8-1.4c6.9-2.9-14.9-75.2-17.3-82.9c-18.4-48.8-22-37.6-33.7-59.6c-33.8-60.2-36-112.2-45.4-161.2
	c-25-142.7-53.1-204.6,3.1-312.8c39.7-74.2,44.2-63.2,54.7-64.8C156.6,82.8,97.7,93.9,76.9,110.4 M319.6,106.9
	c-31.5,32.2-34,81.8-30.4,124.9c3.9,32.6,4.2,90.4,4.5,141c61.9-71.6,67.9-80.9,67.1-95.2C354.8,164.2,350.4,78.3,319.6,106.9
	 M149.2,127.2C102.9,175.3,84.5,238,85.1,303.5c0.5,52.4,3.5,44.6,15.6,100.2c8.6,36.8,26.6,174.7,56.4,230.7
	c5,10.7,12.5,19.9,19.6,29.2c2.7-44,2.5-88.8,14.3-131.6c1.4-6.9-0.6-13.8-3.6-19.9c-15.8-31.5-45.4-76.2-42-208.6
	c3.7-78.3,14.7-76,13.5-109.7c-0.7-25.3,2.5-12.6,8-48.4c2-12.4,3-25,4.4-37.4C163.8,114.2,156.1,120.3,149.2,127.2 M474.3,176
	c-34.5,8.8-93.1,101.6-100.9,119.9c-1.4,3.2-1.5,6.9-3.5,9.8c-28.8,19.9-46.9,51.2-100.3,114c-21.1,25.7-42.9,46.3-65.6,108.7
	c-25.2,72.3-17.7,104.5-14.8,143.9c4.5,64.9,34,112.4,35.7,116.5c-4.3-1-8.2-2.9-12.5-3.8c18.6,26.3,43.9,30.7,114.9-11.7
	c156.9-95.7,171-373,173-379.8c0.8-0.2,2.3-0.5,3-0.7c2.8-13.1-2.2-32,1.4-38.3c6.2-10.6,22.2-112.6,6.1-143.9
	c-2.4,8.3-1.5,17-3.1,25.4C504.6,220.8,500.8,169,474.3,176 M206,1224.8c1,27.5,2.3,55.5,11.8,81.6c3.1,7.8,4.7,16.5,10.1,23.2
	c6.1-8.7,5-29.8,6.6-105.9c4.8-459.2,9.9-410.8-20.3-414.4C205.2,834.6,205.3,1196.3,206,1224.8z"/>
</svg>
