<?xml version="1.0" encoding="utf-8"?>

<!DOCTYPE svg PUBLIC "-//W3C//DTD SVG 1.1//EN" "http://www.w3.org/Graphics/SVG/1.1/DTD/svg11.dtd">
<svg version="1.1" id="Layer_1" xmlns="http://www.w3.org/2000/svg" xmlns:xlink="http://www.w3.org/1999/xlink" x="0px" y="0px"
	 viewBox="0 0 1710.4528 1631.9869" enable-background="new 0 0 1710.4528 1631.9869" xml:space="preserve">
<g>
	<path d="M1035.2483,1147.6027c-17.6017,32.5688-31.3828,67.1409-40.8524,102.8328c-21.711,81.8639-20.6725,169.2965,2.677,250.1147
		c5.9175,20.7263,13.9867,41.9989,29.6384,57.3665c7.8483,7.6783,17.5861,13.5902,28.2887,16.1265
		c10.7141,2.5376,22.3724,1.4528,32.015-3.7917c0,0,0,0,0,0c11.049-6.0352,18.7759-17.5352,20.3658-29.8542
		c1.8253-8.8176,4.1204-24.5208,0-34.3232c-5.9791-14.2242-17.9766-19.2977-29.7635-10.3109
		c-11.7871,8.9875-19.5063,28.067-14.8462,38.0092c4.6614,9.9409,16.2599,7.6292,21.5941-0.6204
		c4.3564-6.7371,3.7556-21.4343,12.9797-20.3031c7.2822,0.8925,8.3539,21.6289,8.4824,30.3217
		c-2.5696,10.7826-9.9563,20.3866-19.7087,25.3896c-9.2755,4.7806-20.4011,5.4803-30.467,2.8551
		c-10.0807-2.6281-19.1697-8.5109-26.4655-15.9749c-14.6372-14.9176-21.742-35.6776-27.2073-56.2433
		c-21.1097-80.4592-19.8552-166.4323,3.2958-245.7269c9.4855-32.5016,22.6477-63.8767,39.0269-93.4237
		c33.1537-6.49,67.0569-9.3567,100.9003-8.3784c82.5709,2.3779,164.7567,27.645,234.8131,72.4937
		c17.8854,11.5298,35.4509,24.6792,45.1394,43.1971c4.8561,9.2389,7.656,19.6973,7.0538,30.0975
		c-0.6002,10.3854-4.6902,20.7554-12.0936,28.1094c-7.7618,7.7391-19.1731,11.8115-30.223,10.9376
		c-8.2313-2.7977-27.6313-10.1996-26.2391-17.403c1.7626-9.1246,15.5615-4.0295,23.3124-6.1008
		c9.4908-2.5363,15.2603-12.8604,7.2365-20.355c-8.0251-7.494-28.5543-6.0217-40.7334,2.4271
		c-12.1783,8.4489-11.0437,21.4254,0.6499,31.4922c8.0583,6.9374,23.7057,9.5868,32.657,10.564
		c12.2106,2.2787,25.5304-1.5337,34.6733-10.1887c0,0,0,0,0,0c7.9576-7.5604,12.5781-18.319,13.4612-29.2939
		c0.881-10.9636-1.7468-22.0483-6.637-31.8789c-9.8044-19.6218-27.5608-33.8464-45.4597-45.8558
		c-69.7086-47.0902-152.5774-74.9883-237.1498-79.5272C1108.7889,1138.4078,1071.6536,1140.8794,1035.2483,1147.6027z
		 M671.8459,1147.8391c-36.414-6.6759-73.5526-9.0991-110.4238-7.0758c-84.5663,4.6489-167.3988,32.6548-237.046,79.8357
		c-17.8834,12.0327-35.6212,26.2805-45.4001,45.915c-4.8773,9.8368-7.4907,20.9249-6.5955,31.8876
		c0.8974,10.9738,5.5318,21.7262,13.4993,29.2762c0,0,0,0,0,0c9.1542,8.6432,22.479,12.4382,34.6866,10.1437
		c8.95-0.9889,24.5938-3.6587,32.6432-10.6066c11.6805-10.0819,12.7982-23.0599,0.6089-31.493
		c-12.1901-8.4329-32.7211-9.8784-40.7366-2.374c-8.014,7.5051-2.2312,17.8217,7.2629,20.3455
		c7.7536,2.0614,21.5458-3.0518,23.3203,6.0706c1.4016,7.2015-17.9888,14.6287-26.2164,17.4371
		c-11.0489,0.8882-22.4654-3.1693-30.2373-10.8982c-7.4129-7.3444-11.5164-17.7092-12.1302-28.0938
		c-0.6157-10.3994,2.1706-20.8615,7.0147-30.1066c9.6643-18.5306,27.2127-31.7029,45.083-43.256
		c69.998-44.9397,152.1508-70.3137,234.7187-72.7992c33.842-1.0223,67.7489,1.8003,100.9111,8.2472
		c16.4175,29.5256,29.6206,60.8835,39.1484,93.3728c23.2543,79.2644,24.6206,165.2357,3.6157,245.7224
		c-5.4385,20.5729-12.5164,41.342-27.1342,56.2787c-7.286,7.4734-16.3674,13.3682-26.4446,16.0093
		c-10.0625,2.6383-21.189,1.9531-30.4708-2.8154c-9.7589-4.9905-17.1581-14.5847-19.7418-25.364
		c0.1172-8.6929,1.1619-29.4308,8.4429-30.3326c9.2227-1.1433,8.6411,13.5547,13.0062,20.2861
		c5.345,8.2426,16.9465,10.5393,21.5949,0.5923c4.6473-9.9482-3.0968-29.0176-14.8956-37.9899
		c-11.7986-8.9714-23.7895-3.8823-29.7501,10.3497c-4.1077,9.8079-1.7921,25.5079,0.0446,34.3231
		c1.6061,12.3171,9.3479,23.807,20.4047,29.8278c0.0001,0,0.0001,0,0.0001,0c9.6494,5.2319,21.3091,6.3016,32.0198,3.7501
		c10.6993-2.5502,20.4294-8.4747,28.2678-16.1632c15.6317-15.3881,23.6732-36.671,29.5637-57.4052
		c23.2443-80.8484,24.1691-168.2823,2.3516-250.1179C703.316,1214.9391,689.4899,1180.385,671.8459,1147.8391z M559.3235,802.296
		c-4.9034-36.6947-14.0753-72.7645-27.3933-107.2058c-30.5539-78.9908-82.7856-149.1149-149.1795-200.7736
		c-16.97-13.2898-36.0018-25.7567-57.6971-28.9895c-10.8626-1.5988-22.2156-0.6578-32.365,3.5811
		c-10.1594,4.2446-18.9535,11.9749-23.6719,21.8855c0,0,0,0,0,0c-5.3914,11.377-4.8831,25.2224,1.0716,36.1234
		c3.7062,8.2064,11.0795,22.2595,20.1747,27.7679c13.198,7.9933,25.8862,5.0459,30.1398-9.1528
		c4.2533-14.1994-0.7164-34.1723-10.3304-39.4764c-9.6142-5.3025-17.6388,3.3852-17.1053,13.1946
		c0.4356,8.011,9.5604,19.5483,1.433,24.0548c-6.416,3.5584-19.4716-12.5879-24.685-19.5449
		c-4.259-10.2337-3.928-22.3453,1.021-32.1252c4.6942-9.3196,13.2836-16.4252,22.9702-20.2179
		c9.7002-3.7992,20.5112-4.3822,30.8008-2.6321c20.6101,3.465,38.5604,16.0841,55.0702,29.5097
		C443.948,550.98,493.4667,621.271,521.3454,699.0296c11.43,31.8697,19.2234,64.9893,23.3397,98.5206
		c-23.0072,24.7379-48.7504,46.9849-76.7053,66.0861c-68.199,46.6102-149.5404,74.4763-232.5786,79.3711
		c-21.2466,1.185-43.1864,0.8717-61.9091-8.415c-9.3592-4.6201-17.7717-11.4354-23.3976-20.2032
		c-5.6187-8.7547-8.4052-19.5483-6.7384-29.8494c1.7306-10.8234,8.5688-20.8253,18.022-26.6134
		c8.3037-2.5748,28.3494-7.9896,31.4571-1.3436c3.9373,8.418-10.2211,12.4067-15.2741,18.6384
		c-6.1875,7.6305-4.7867,19.3739,6.1099,20.721c10.8974,1.3456,26.6404-11.9122,31.5275-25.9061
		c4.8863-13.9935-3.659-23.8248-19.0364-25.0957c-10.5971-0.8759-24.8133,6.178-32.6295,10.6488
		c-11.2179,5.3337-19.7531,16.2472-22.0625,28.6234c0,0.0001,0,0.0001,0,0.0001c-1.994,10.7939,0.5917,22.2135,6.3282,31.6115
		c5.7316,9.3876,14.373,16.8108,24.1074,21.8895c19.4653,10.1115,42.1916,11.1826,63.7311,10.3776
		c84.0744-2.8768,167.5147-29.0159,238.603-75.0543C505.2324,852.9609,533.8228,829.1337,559.3235,802.296z M853.1832,588.5022
		c33.3835-16.0027,64.8536-35.8718,93.4938-59.181c65.683-53.4679,116.2345-124.8128,144.848-203.9206
		c7.3953-20.2462,13.3708-42.199,9.7412-63.8315c-1.8362-10.825-6.2394-21.3315-13.4072-29.6743
		c-7.1763-8.3505-17.2457-14.3254-28.1293-15.7503c0,0,0,0-0.0001,0c-12.4862-1.6118-25.4968,3.1501-34.0243,12.1819
		c-6.6594,6.0607-17.7463,17.4158-20.1746,27.7681c-3.5236,15.0222,3.2004,26.1786,18.0186,25.8363
		c14.8187-0.3427,32.2783-11.2411,34.3521-22.0237c2.072-10.7823-8.6702-15.7294-17.8347-12.1908
		c-7.4843,2.8898-15.6371,15.1333-22.4346,8.7962c-5.3669-5.0023,5.9548-22.4084,10.9603-29.5166
		c8.4166-7.2129,20.0377-10.6408,30.8683-8.9562c10.3141,1.5845,19.7262,7.5578,26.3265,15.5983
		c6.6107,8.0514,10.5061,18.1531,12.0212,28.48c3.0735,20.6721-3.381,41.6434-11.0477,61.4939
		c-30.2147,77.5009-81.7632,146.3171-147.1011,196.86c-26.7778,20.7189-55.8681,38.3654-86.4863,52.642
		c-30.6368-14.2368-59.75-31.8453-86.5548-52.5294c-65.4036-50.4578-117.0417-119.2069-147.3571-196.6684
		c-7.6926-19.8405-14.1744-40.8034-11.1278-61.4795c1.5017-10.3288,5.3839-20.4356,11.9841-28.4956
		c6.59-8.0491,15.9942-14.0346,26.3062-15.6325c10.8284-1.6987,22.4539,1.714,30.88,8.916
		c5.0147,7.1016,16.3589,24.493,10.9986,29.5023c-6.7892,6.3459-14.958-5.8869-22.4461-8.767
		c-9.169-3.5267-19.9048,1.4345-17.8187,12.214c2.0876,10.7798,19.5615,21.6555,34.3807,21.9789
		c14.8185,0.323,21.5281-10.8422,17.9849-25.8597c-2.4417-10.3491-13.5433-21.6897-20.2107-27.7418
		c-8.5392-9.0207-21.556-13.7656-34.0401-12.1376c-0.0001,0-0.0001,0-0.0001,0c-10.8818,1.4391-20.9435,7.427-28.1088,15.7869
		c-7.157,8.3521-11.5465,18.8643-13.3686,29.6917c-3.6014,21.6372,2.4026,43.5822,9.8243,63.8188
		c28.7165,79.0704,79.3607,150.3495,145.1132,203.7319C788.2829,552.7148,819.7788,572.5429,853.1832,588.5022z M1147.3208,801.9134
		c25.5356,26.8045,54.157,50.5945,85.1757,70.63c71.1482,45.9457,154.6226,71.9763,238.7006,74.7437
		c21.5405,0.777,44.2654-0.3237,63.7175-10.4605c9.7278-5.0914,18.3595-12.5258,24.0789-21.9208
		c5.7242-9.4055,8.295-20.8285,6.287-31.6198c0,0,0,0,0.0001,0c-2.3256-12.3732-10.8749-23.2756-22.0997-28.5947
		c-7.822-4.4607-22.0474-11.496-32.6433-10.6063c-15.3759,1.2909-23.9083,11.1333-19.0038,25.1205
		c4.9053,13.9875,20.6655,27.2249,31.5612,25.865c10.8948-1.3613,12.2803-13.1065,6.0829-20.7289
		c-5.0612-6.225-19.2247-10.1954-15.2983-18.6185c3.099-6.65,23.1519-1.2613,31.4589,1.3027
		c9.4608,5.7758,16.312,15.7689,18.0566,26.5899c1.6803,10.299-1.0922,21.0962-6.6995,29.8582
		c-5.6146,8.7753-14.0182,15.6015-23.3713,20.2337c-18.7106,9.311-40.65,9.653-61.8981,8.4956
		c-83.0446-4.7867-164.4221-32.547-232.6818-79.0684c-27.9796-19.0648-53.7518-41.2783-76.7911-65.9862
		c4.0726-33.5367,11.8229-66.6664,23.2114-98.5509c27.7773-77.7949,77.2046-148.1503,141.5068-200.9189
		c16.4923-13.4471,34.4263-26.0895,55.0317-29.5814c10.2874-1.7635,21.0991-1.1945,30.8042,2.592
		c9.6915,3.7801,18.2903,10.8745,22.9966,20.188c4.9617,9.7735,5.3085,21.8846,1.0629,32.1238
		c-5.2045,6.9638-18.239,23.1271-24.6597,19.577c-8.1333-4.496,0.9766-16.045,1.4017-24.0566
		c0.5206-9.8101-7.5153-18.4873-17.1226-13.1723c-9.6071,5.3167-14.5508,25.296-10.2791,39.4898
		c4.2721,14.1931,16.9641,17.124,30.1517,9.1135c9.088-5.5202,16.443-19.5829,20.1385-27.7942
		c5.9404-10.9088,6.4308-24.7548,1.0245-36.1248c0,0,0,0,0,0c-4.7313-9.9045-13.5354-17.6233-23.7003-21.8546
		c-10.1549-4.2258-21.5092-5.152-32.3696-3.539c-21.6912,3.2611-40.7067,15.7527-57.6594,29.0646
		c-66.3265,51.7451-118.467,121.9371-148.9181,200.9675C1161.3014,729.1307,1152.1765,765.2123,1147.3208,801.9134z
		 M918.1703,986.6791c3.3138,8.3492,7.4432,16.373,12.0528,24.0323c8.7013,14.4717,19.0266,27.804,29.4404,40.9322
		c10.3989,13.116,20.8364,26.1791,29.7987,40.2092c0,0,0,0,0,0.0001c8.8473,13.8573,16.2567,28.7629,20.1153,44.6876
		c7.1453,29.4232,1.5357,61.8816-15.1876,87.2908c-13.0497,19.8326-32.7691,35.217-55.1204,43.4552
		c10.7646-5.0271,21.9673-12.1227,28.913-29.5017c-24.487-8.3998-67.1866,6.9667-97.2484,89.4893l-0.0018,0.0017
		c92.433-19.9452,125.2144-58.4806,107.3242-79.8395c-20.0734,30.7322-44.2812,34.4817-61.9245,32.4987
		c5.2271-5.3831,12.894-8.1191,20.9742-11.75c23.3064-7.8065,44.107-23.3422,57.8942-43.8134
		c17.1457-25.4656,23.2241-58.234,16.2719-88.2802c-3.7676-16.245-11.1109-31.4625-19.9183-45.5593
		c-8.9097-14.2681-19.2661-27.5256-29.5243-40.7429c-10.2568-13.2239-20.3644-26.5556-28.7634-40.8836
		c-1.2413-2.1198-2.445-4.2637-3.6038-6.4308c1.7053,1.7695,3.3746,3.5746,5.0095,5.4081
		c11.0475,12.4012,20.6211,26.1213,30.0462,39.9503c9.4185,13.8282,18.845,27.7623,29.6783,40.631
		c10.7017,12.7186,22.9205,24.389,37.2173,32.9736c26.448,15.8623,59.4966,20.1644,89.0029,11.6888
		c23.7209-6.8174,44.9044-21.8268,59.5052-41.5991c5.9415-6.5704,10.9045-13.0229,17.635-16.3396
		c-3.5435,17.3972-14.5615,39.2759-49.9801,48.9161c14.8158,23.5957,61.5701,4.2659,108.996-77.5415l-0.0022,0.0012
		c-87.7692,3.2039-115.5317,39.1012-115.0763,64.9849c18.6732-1.2596,28.8723-9.7346,36.9684-18.4296
		c-14.7174,18.7308-35.4242,32.7581-58.3105,39.0702c-29.3229,8.0912-61.9323,3.4384-87.728-12.4159
		c-13.9641-8.5725-25.8656-20.21-36.3273-32.8928c-0.0001,0-0.0001,0-0.0001,0c-10.5908-12.8453-19.8073-26.7968-29.086-40.7278
		c-9.2857-13.9489-18.7929-27.8763-29.8842-40.6094C931.4578,998.8004,925.0944,992.4018,918.1703,986.6791z M788.7142,986.7634
		c-6.9165,5.7317-13.2717,12.1385-19.1317,18.8893c-11.0746,12.7474-20.5637,26.6873-29.8312,40.6483
		c-9.2606,13.943-18.4589,27.9064-29.033,40.7655c0,0,0,0-0.0001,0.0001c-10.4451,12.6964-22.3315,24.3492-36.2845,32.9401
		c-25.7751,15.8878-58.3784,20.583-87.7117,12.53c-22.8946-6.2825-43.6196-20.2826-58.3615-38.9943
		c8.1075,8.6843,18.3176,17.146,36.9924,18.3813c0.4218-25.8842-27.3876-61.7454-115.1608-64.835l-0.0022-0.0012
		c47.5324,81.7456,94.3117,101.0144,109.0968,77.3995c-35.4311-9.5941-46.4777-31.4585-50.0438-48.8511
		c6.7348,3.3079,11.7062,9.754,17.6563,16.3167c14.6266,19.7534,35.8295,34.7352,59.5593,41.5216
		c29.5174,8.4373,62.5604,4.092,88.9877-11.8047c14.2856-8.6031,26.4892-20.2894,37.1743-33.022
		c10.8165-12.8827,20.225-26.829,29.6254-40.6696c9.4071-13.8412,18.9628-27.5738,29.9942-39.9893
		c1.6324-1.8356,3.2994-3.6429,5.0024-5.4146c-1.1559,2.1686-2.3568,4.3141-3.5954,6.4355
		c-8.3804,14.3389-18.4705,27.6838-28.7101,40.921c-10.241,13.2306-20.5801,26.5017-29.4713,40.7814
		c-8.7891,14.1082-16.1125,29.3352-19.8589,45.5852c-6.9131,30.0552-0.7921,62.8157,16.3867,88.2588
		c13.8138,20.4534,34.6346,35.9618,57.9512,43.738c8.0849,3.6204,15.7553,6.3466,20.9894,11.7228
		c-17.6407,2.006-41.8534-1.712-61.9667-32.4181c-17.8624,21.3822,14.9691,59.8749,107.428,79.6997l-0.0018-0.0017
		c-30.1692-82.4834-72.8887-97.7943-97.3648-89.3627c6.9683,17.37,18.1802,24.451,28.9514,29.4641
		c-22.362-8.2091-42.1014-23.5677-55.1769-43.3834c-16.7564-25.3873-22.4082-57.8385-15.3012-87.271
		c3.8378-15.9297,11.2278-30.8448,20.0571-44.7137c0,0,0,0,0,0c8.944-14.0419,19.3645-27.1185,29.7463-40.248
		c10.3967-13.1417,20.7047-26.4874,29.3871-40.9705C781.2923,1003.1461,785.4113,995.1168,788.7142,986.7634z M748.6299,863.6693
		c-7.5884-4.8068-15.6456-8.8711-23.8768-12.3582c-15.5458-6.5934-31.7357-11.3104-47.8771-15.8102
		c-16.1223-4.4987-32.2447-8.9319-47.7421-15.0147c0,0,0,0-0.0001-0.0001c-15.3027-6.0105-30.0583-13.7142-42.5403-24.3296
		c-23.0752-19.6039-37.6155-49.1606-39.0212-79.5468c-1.0999-23.7154,5.8107-47.7523,19.051-67.5549
		c-5.7539,10.3943-10.6464,22.7195-6.0505,40.862c24.7477-7.5975,50.2602-45.1275,26.0751-129.5596l0.0005-0.0024
		c-63.0564,70.4668-66.9266,120.9109-39.8986,127.675c-1.8242-36.6617,15.5563-53.9241,30.9957-62.6903
		c-1.0648,7.4274-5.6592,14.1475-10.062,21.8343c-14.2667,20.0148-21.9631,44.8097-21.0845,69.4752
		c1.0971,30.6799,15.4404,60.763,38.7256,80.9844c12.5966,10.928,27.4821,18.9229,42.8933,25.1506
		c15.5947,6.3061,31.7657,10.9444,47.8338,15.6078c16.0707,4.6696,32.084,9.514,47.3008,16.1688
		c2.2502,0.9853,4.4843,2.0123,6.6954,3.0844c-2.4196-0.4293-4.8312-0.9084-7.2315-1.4308
		c-16.2269-3.5392-32.0366-9.0118-47.7901-14.6597c-15.7477-5.6513-31.5642-11.3834-47.8925-15.4267
		c-16.1337-3.9993-32.8785-6.2589-49.4908-4.8005c-30.7205,2.7128-59.9861,18.6578-78.8755,42.8582
		c-15.1835,19.4581-23.499,44.0522-23.6895,68.6306c-0.9448,8.8079-1.1672,16.9453-4.6628,23.5847
		c-7.3591-16.1575-11.3052-40.334,11.6826-68.9516c-25.8554-10.3807-52.3186,32.7387-42.6019,126.7986l0.001-0.0023
		c69.1236-54.1813,70.484-99.5414,54.9016-120.214c-14.3665,11.9949-17.6363,24.8462-19.0755,36.6393
		c0.897-23.8043,9.4042-47.3236,24.2094-65.8826c18.9669-23.7814,48.0832-39.1845,78.2713-41.5205
		c16.3361-1.2725,32.8049,1.1467,48.7233,5.2582c0.0001-0.0001,0.0001-0.0001,0.0001-0.0001
		c16.1184,4.1671,31.7751,10.0367,47.4703,15.8531c15.7112,5.8268,31.5891,11.5063,48.0463,15.2883
		C730.7555,861.6732,739.6646,863.1093,748.6299,863.6693z M853.3127,787.5087c2.2266-8.7024,3.6021-17.6211,4.3749-26.527
		c1.4668-16.8224,0.95-33.6776,0.2415-50.4195c-0.7035-16.7234-1.4694-33.4267-0.4732-50.0452c0,0,0,0,0.0001-0.0001
		c0.9875-16.4111,3.7544-32.8251,9.993-47.9765c11.5139-28.0038,35.1307-50.966,63.5953-61.6927
		c22.2148-8.3746,47.2108-9.23,70.1356-2.757c-11.6636-2.2603-24.8975-3.1046-40.7318,6.8727
		c14.8732,21.1887,58.4501,33.8551,131.2762-15.2372l0.0024-0.0003c-86.5034-38.1947-135.6746-26.2874-133.7555,1.5079
		c34.3036-13.064,56.092-1.8685,69.2002,10.1063c-7.3929,1.2825-15.2038-1.0104-23.8749-2.8223
		c-23.4439-7.3835-49.4035-7.0413-72.5903,1.4164c-28.8394,10.524-53.0177,33.4615-65.054,61.8558
		c-6.5005,15.3571-9.5043,31.9845-10.6648,48.5659c-1.1785,16.7801-0.5926,33.5931-0.0624,50.3157
		c0.5251,16.7271,0.8661,33.4537-0.7607,49.9822c-0.2417,2.4445-0.5281,4.8865-0.8644,7.3209
		c-0.3395-2.4338-0.629-4.8755-0.8739-7.3198c-1.6484-16.5263-1.3291-33.2533-0.8258-49.9811
		c0.5084-16.7234,1.0724-33.537-0.1279-50.3157c-1.182-16.5798-4.2075-33.2034-10.728-48.5519
		c-12.0732-28.3787-36.2814-51.2846-65.1344-61.7711c-23.1978-8.4275-49.1578-8.736-72.592-1.322
		c-8.6688,1.8232-16.4767,4.1263-23.8713,2.8535c13.0926-11.9919,34.8664-23.2158,69.187-10.1964
		c1.8829-27.7978-47.3038-39.6411-133.7574-1.3339l0.0025,0.0003c72.8899,48.9975,116.4503,36.2743,131.2958,15.0663
		c-15.8474-9.9568-29.08-9.0952-40.7407-6.8198c22.9164-6.5027,47.9135-5.6799,70.1391,2.6657
		c28.4786,10.6897,52.1252,33.6212,63.6755,61.6099c6.2584,15.1433,9.0467,31.5536,10.0555,47.9635
		c0.0001,0.0001,0.0001,0.0001,0.0001,0.0001c1.0177,16.6172,0.2736,33.3215-0.4081,50.0458
		c-0.6866,16.7429-1.1815,33.5987,0.3071,50.4191C849.6876,769.8923,851.0748,778.8091,853.3127,787.5087z M958.0944,863.533
		c8.9645-0.5716,17.8718-2.0193,26.5806-4.0364c16.4523-3.8034,32.3228-9.5035,48.0264-15.3508
		c15.6876-5.8369,31.3367-11.7269,47.4496-15.9149c0,0,0,0,0.0001,0.0001c15.9131-4.1321,32.3788-6.5729,48.7164-5.3216
		c30.1912,2.2967,59.3275,17.6619,78.3253,41.4186c14.8293,18.5397,23.3671,42.0479,24.295,65.851
		c-1.4545-11.7912-4.741-24.6382-19.1232-36.6144c-15.5555,20.6929-14.136,66.0511,55.058,120.1425l0.0011,0.0023
		c9.5944-94.0724-16.9249-137.1575-42.7668-126.743c23.025,28.5876,19.1104,52.7693,11.7723,68.9363
		c-3.5043-6.6348-3.7373-14.7719-4.6936-23.5786c-0.2224-24.5781-8.5698-49.1614-23.7787-68.5997
		c-18.9208-24.1758-48.2072-40.0827-78.9312-42.7555c-16.6141-1.4368-33.3561,0.8446-49.4845,4.8648
		c-16.323,4.0646-32.1321,9.8173-47.8724,15.4891c-15.7462,5.6683-31.5488,11.1615-47.7709,14.7218
		c-2.3996,0.5256-4.8106,1.0078-7.2297,1.4402c2.2098-1.075,4.4425-2.1049,6.6914-3.0931
		c15.2081-6.6746,31.2151-11.5399,47.2797-16.2303c16.062-4.6843,32.2271-9.3436,47.8135-15.6701
		c15.4032-6.2476,30.2782-14.262,42.8606-25.2063c23.2588-20.2518,37.563-50.3535,38.6201-81.0348
		c0.8466-24.6666-6.8822-49.4514-21.1749-69.4477c-4.4127-7.681-9.0159-14.3951-10.0903-21.8211
		c15.4507,8.746,32.8538,25.9858,31.0773,62.6498c27.0192-6.7992,23.0834-57.2383-40.0647-127.623l0.0005,0.0024
		c-24.0752,84.4635,1.4862,121.9602,26.2437,129.5255c4.5724-18.1485-0.3361-30.4673-6.1035-40.8541
		c13.266,19.7853,20.2079,43.8132,19.1389,67.53c-1.3661,30.388-15.868,59.9636-38.9176,79.5975
		c-12.4683,10.6316-27.2137,18.3545-42.5087,24.3849c-0.0001,0.0001-0.0001,0.0001-0.0001,0.0001
		c-15.4894,6.103-31.606,10.5571-47.7224,15.0768c-16.1356,4.5208-32.3194,9.2589-47.8566,15.8725
		C973.7284,854.6415,965.6766,858.7163,958.0944,863.533z M1679.6696,628.5598c-8.6858,13.8116-18.5165,26.7799-29.4409,38.4821
		c8.1171-11.515,15.3625-23.5101,21.4596-35.883c-12.2136-6.4103-25.1329-11.8389-38.474-16.3663
		C1648.9346,617.8181,1664.5165,622.511,1679.6696,628.5598z M852.8188,28.6393c10.4516,12.5286,19.7473,25.8856,27.5009,39.8915
		c-8.4431-11.278-17.6121-21.8756-27.4954-31.4977c-9.8708,9.6349-19.026,20.2445-27.4544,31.5335
		C833.1052,54.5506,842.3835,41.1815,852.8188,28.6393z M26.7497,629.6354c15.1452-6.0685,30.7209-10.7817,46.4373-13.8278
		c-13.3351,4.5447-26.2474,9.9902-38.4527,16.4164c6.1131,12.365,13.3743,24.3506,21.5063,35.855
		C45.3009,656.3912,35.4533,643.4357,26.7497,629.6354z M343.0615,1600.9918c-1.0914-16.2792-0.7607-32.5491,1.199-48.4375
		c0.2015,14.0869,1.3903,28.0499,3.7303,41.6437c13.6489-1.993,27.2917-5.1949,40.746-9.3739
		C374.2404,1591.6166,358.8759,1596.9788,343.0615,1600.9918z M1364.6221,1600.3271c-15.8196-3.9926-31.191-9.3347-45.6963-16.1083
		c13.4597,4.1614,27.1067,7.3456,40.7582,9.3208c2.3224-13.5968,3.4929-27.5614,3.6761-41.6484
		C1365.3405,1567.7771,1365.6924,1584.0465,1364.6221,1600.3271z M1659.6443,635.0808c-1.5017,3.0039-3.0564,5.9871-4.6622,8.9463
		c0.7686-2.6893,1.479-5.3959,2.1239-8.1198c-2.1251-1.8218-4.2931-3.5911-6.4978-5.3122
		C1653.6484,632.0414,1656.6617,633.5371,1659.6443,635.0808z M852.8326,49.6995c2.3928,2.3564,4.7496,4.7569,7.0677,7.1986
		c-2.3201-1.562-4.6748-3.074-7.066-4.529c-2.3893,1.4581-4.742,2.9733-7.0601,4.5382
		C848.0891,54.4626,850.4427,52.0591,852.8326,49.6995z M46.7834,636.1303c2.9805-1.5475,5.9918-3.0472,9.0303-4.4974
		c-2.2025,1.7239-4.3682,3.4961-6.4909,5.3207c0.6484,2.723,1.3624,5.4287,2.1344,8.1169
		C49.8475,642.1135,48.2889,639.1323,46.7834,636.1303z M355.4293,1583.9457c-0.5508-3.3129-1.0465-6.6401-1.4867-9.978
		c0.959,2.6273,1.9751,5.2346,3.0544,7.8174c2.7901,0.2247,5.584,0.3818,8.3793,0.4783
		C362.0665,1582.8804,358.7496,1583.4415,355.4293,1583.9457z M1352.2322,1583.2971c-3.321-0.5-6.6387-1.0566-9.9492-1.6694
		c2.7952-0.1002,5.5889-0.2609,8.3787-0.4893c1.0759-2.5841,2.0887-5.1927,3.0443-7.8214
		C1353.27,1576.6555,1352.7786,1579.9835,1352.2322,1583.2971z M1644.0438,640.1609
		c-7.8903,25.9282-22.0011,49.9265-40.1624,70.0672c0,0.0001,0,0.0001,0,0.0001c-8.2544,9.1552-17.3683,17.5105-27.1235,25.0645
		c-0.4232,0.306-0.8409,0.624-1.2656,0.9265l-0.0009,0.0083l0.0071,0.0445c-13.6285,10.3959-28.4941,19.2234-44.0822,26.3924
		c-54.5574,25.1928-117.314,29.4096-177.437,21.5827c-30.3075-3.987-60.1124-11.0649-89.2188-20.5767
		c17.9242-24.8268,37.8466-48.0978,59.9949-69.1666c43.9857-41.7288,97.1918-75.274,156.1223-87.0373
		c16.8203-3.3845,34.0336-5.003,51.1703-4.6255l0.0205,0.0401l0.0056,0.0063c0.5212-0.0056,1.0463,0.0054,1.5685,0.0036
		c12.3329,0.3612,24.619,1.7479,36.6815,4.287c0,0,0.0001,0.0001,0.0001,0.0001
		C1596.8628,612.7628,1622.399,623.8506,1644.0438,640.1609z M852.8433,66.1063c22.2208,15.5163,40.6842,36.3524,54.227,59.8486
		c0.0001,0,0.0001,0.0001,0.0001,0.0001c6.1564,10.6795,11.2864,21.9292,15.4562,33.5414c0.1602,0.4969,0.3336,0.9926,0.4901,1.49
		l0.0077,0.0034l0.0445,0.007c5.6755,16.1741,9.4774,33.0399,11.4785,50.0803c7.1006,59.6721-8.2818,120.6602-34.3046,175.422
		c-13.1574,27.592-29.0991,53.7511-47.1398,78.4935c-18.0728-24.7189-34.0485-50.8572-47.2419-78.4321
		c-26.0941-54.7279-41.5559-115.6959-34.5329-175.3772c1.9789-17.043,5.7588-33.9138,11.4133-50.0952l0.0445-0.0071l0.0076-0.0034
		c0.1558-0.4975,0.3286-0.9935,0.4882-1.4906c4.1546-11.6176,9.27-22.874,15.4125-33.5615c0,0,0,0,0.0001-0.0001
		C812.2064,102.5116,830.6426,81.6515,852.8433,66.1063z M62.3904,641.1901c21.6235-16.3385,47.1453-27.4595,73.6765-33.0787
		c0,0,0.0001-0.0001,0.0001-0.0001c12.0592-2.5549,24.3436-3.9575,36.676-4.3348c0.5221,0.0012,1.0471-0.0106,1.5685-0.0057
		l0.0056-0.0062l0.0204-0.0402c17.1363-0.3998,34.3515,1.1964,51.1763,4.559c58.9458,11.6866,112.1955,45.1625,156.2355,86.834
		c22.1757,21.0399,42.1283,44.2849,60.0848,69.0884c-29.0938,9.5497-58.8896,16.6664-89.1919,20.6929
		c-60.1129,7.9051-122.8748,3.77-177.4649-21.3518c-15.5973-7.1486-30.4744-15.9568-44.1165-26.335l0.007-0.0445l-0.0008-0.0084
		c-0.4251-0.3019-0.8433-0.6194-1.2668-0.9249c-9.7652-7.5413-18.8898-15.8847-27.1561-25.0292c0,0,0-0.0001,0-0.0001
		C84.4565,691.088,70.3145,667.108,62.3904,641.1901z M365.0643,1570.666c-8.8568-25.614-11.5468-53.3232-8.6924-80.2924
		c0,0,0,0,0,0c1.2967-12.2585,3.7588-24.3751,7.2109-36.2205c0.1624-0.4962,0.3135-0.9991,0.4793-1.4935l-0.0042-0.0072
		l-0.0319-0.0319c4.9152-16.421,11.753-32.3005,20.1502-47.2627c29.3299-52.4495,77.6224-92.7483,130.8635-121.7556
		c26.8628-14.5887,55.1358-26.3816,84.2742-35.7946c0.0919,30.621-2.3472,61.1576-7.8818,91.2209
		c-11.0577,59.6135-34.3849,118.026-75.1464,162.1812c-11.6186,12.6249-24.593,24.0519-38.6788,33.8193l-0.0401-0.0205
		l-0.0082-0.0017c-0.4185,0.3109-0.8497,0.6106-1.2711,0.9189c-10.1898,6.9569-20.9445,13.0566-32.1959,18.0927
		c0,0-0.0001,0-0.0001,0C419.3387,1565.0994,392.1623,1571.1389,365.0643,1570.666z M1342.5798,1570.03
		c-27.0973,0.5081-54.2816-5.4962-79.0487-16.5448c0,0-0.0001,0-0.0001,0c-11.2578-5.0212-22.0205-11.1071-32.2194-18.0507
		c-0.4218-0.3077-0.8534-0.6069-1.2722-0.9174l-0.0083,0.0018l-0.04,0.0205c-14.0985-9.749-27.0878-21.1592-38.7228-33.7689
		c-40.819-44.1022-64.2222-102.4841-75.3574-162.0831c-5.5736-30.0563-8.0525-60.5897-8.0005-91.2107
		c29.1506,9.375,57.439,21.1311,84.3207,35.6848c53.2788,28.9381,101.6238,69.1741,131.0219,121.5852
		c8.4166,14.9512,15.2751,30.8218,20.2117,47.2365l-0.0319,0.0319l-0.0042,0.0073c0.1664,0.494,0.3181,0.9967,0.4812,1.4928
		c3.4675,11.8408,5.9454,23.9542,7.2581,36.2111c0,0,0,0-0.0001,0C1354.0573,1516.6917,1351.4033,1544.4044,1342.5798,1570.03z
		 M1230.6281,774.7853c39.1289,13.9636,79.6484,23.9734,121.0303,28.5963c62.9109,7.1082,128.8096,0.8994,186.3143-26.8492
		c28.7427-13.9216,54.9854-33.2703,75.9348-57.4547c7.5249-8.6883,14.3313-18.0107,20.3013-27.8326
		c22.0095-19.4388,41.7466-41.9347,57.5034-66.6068c-27.2633-10.663-56.4623-17.2234-85.6978-19.9749
		c-10.6088-4.4233-21.5995-7.9503-32.7975-10.5416c-31.1731-7.2112-63.777-7.3973-95.2059-1.7245
		c-62.8177,11.4332-119.7365,45.2184-166.3986,88.0079C1280.8876,708.5088,1254.0317,740.4587,1230.6281,774.7853z
		 M853.1262,500.8892c25.3716-32.8988,47.4128-68.3419,64.5971-106.2699c26.2009-57.6352,40.6596-122.2272,32.0391-185.4923
		c-4.3582-31.638-14.6506-62.5753-31.1776-89.9728c-5.9377-9.8415-12.7006-19.1956-20.197-27.9085
		c-11.6861-26.9391-26.9819-52.6618-45.5773-75.2716c-18.566,22.6339-33.8282,48.3765-45.4792,75.3308
		c-7.4851,8.7227-14.2358,18.0855-20.1606,27.9348c-16.4913,27.419-26.7434,58.3697-31.0604,90.0133
		c-8.5381,63.2762,6.0046,127.8493,32.2805,185.4504C805.6245,432.6091,827.7117,468.0235,853.1262,500.8892z M475.981,775.2764
		c-23.4484-34.2961-50.3457-66.2111-81.1071-94.2747c-46.7179-42.7288-103.6805-76.4399-166.513-87.7913
		c-31.4362-5.6318-64.0399-5.4033-95.2036,1.8484c-11.1947,2.606-22.1808,6.1472-32.7838,10.5843
		c-29.2318,2.7895-58.4222,9.3879-85.6717,20.0864c15.7889,24.6516,35.5553,47.1217,57.59,66.5319
		c5.9827,9.8142,12.8013,19.1277,20.3375,27.8062c20.9809,24.1571,47.2487,43.4717,76.0095,57.3558
		c57.5408,27.6737,123.4475,33.7969,186.3491,26.6068C396.3639,799.3534,436.8703,789.2908,475.981,775.2764z M620.3944,1218.7531
		c-39.8635,11.7025-78.5281,27.4213-114.724,48.0049c-55.0741,31.2274-104.7377,74.9847-134.9498,131.2343
		c-15.0705,28.1573-24.9283,59.2358-27.6615,91.1152c-0.981,11.452-1.0079,22.9948-0.0645,34.45
		c-6.3802,28.6631-9.1251,58.4639-7.3707,87.6855c28.3241-7.3984,55.8026-19.2537,81.0718-34.2118
		c11.1826-2.6572,22.1474-6.264,32.7299-10.7496c29.4582-12.489,55.9447-31.5027,78.0369-54.5654
		c44.1003-46.173,70.2901-106.9617,82.8896-169.0065C618.69,1301.9136,621.6371,1260.2802,620.3944,1218.7531z M1086.792,1218.4495
		c-1.1887,41.5288,1.8126,83.1583,10.2036,123.9434c12.6803,62.0284,38.9491,122.7831,83.1095,168.8986
		c22.1222,23.0339,48.6334,42.0131,78.1078,54.4639c10.5884,4.4718,21.5579,8.0643,32.7439,10.7069
		c25.2887,14.9253,52.7827,26.7448,81.1163,34.1063c1.7163-29.224-1.0674-59.0211-7.4849-87.6759
		c0.9285-11.4564,0.8866-22.9991-0.1094-34.4498c-2.7747-31.8757-12.6729-62.9414-27.78-91.0791
		c-30.2853-56.2102-80.0059-99.9028-135.1205-131.0586C1165.3557,1245.7686,1126.6707,1230.1002,1086.792,1218.4495z"/>
	<path d="M1380.3665,920.5274c18.8506,7.4393,51.5712-2.8159,74.2527-65.5248c-70.9,11.8898-95.8892,40.4554-82.0393,57.67
		c15.2656-23.0125,33.8405-24.9878,47.4039-22.7756C1410.3953,899.4305,1389.9015,896.58,1380.3665,920.5274z"/>
	<path d="M1038.0068,403.5164c12.9004-15.6291,13.2583-49.9172-39.3724-90.8668c-10.6015,71.1041,8.8439,103.6973,29.4958,95.8451
		c-17.1688-21.6298-13.3076-39.9059-7.0123-52.1219C1027.2219,368.438,1018.178,387.0478,1038.0068,403.5164z"/>
	<path d="M440.5052,569.3546c-10.8777-17.0987-43.377-28.0347-98.5862,9.366c64.348,32.055,101.3549,23.6331,100.2688,1.5656
		c-25.8766,9.6445-42.065,0.3246-51.7378-9.4375C403.8109,568.7718,418.7152,583.1238,440.5052,569.3546z"/>
	<path d="M413.5885,1188.8591c-19.6232,5.0616-40.0668,32.5908-21.5572,96.6554c50.3707-51.2931,53.7969-89.0913,32.4737-94.8776
		c1.1762,27.5905-12.6901,40.1066-24.9634,46.2893C401.6951,1223.5774,419.9503,1213.8376,413.5885,1188.8591z"/>
	<path d="M994.4547,1405.896c-1.2501,20.2268,18.6144,48.1769,85.2631,50.3701c-33.2172-63.7557-68.1066-78.6946-80.1989-60.203
		c26.6035,7.4072,34.2221,24.4626,36.3095,38.0458C1023.7985,1427.9357,1020.1765,1407.5642,994.4547,1405.896z"/>
	<path d="M1293.5588,1188.2866c19.6298,5.0359,40.1091,32.5386,21.6829,96.6271c-50.4374-51.2274-53.9127-89.0211-32.597-94.8351
		c-1.1403,27.5919,12.7423,40.09,25.0237,46.2567C1305.4973,1222.9893,1287.2295,1213.2732,1293.5588,1188.2866z"/>
	<path d="M1265.8359,568.8174c10.8553-17.1128,43.3405-28.0911,98.5983,9.2378c-64.3063,32.1387-101.3241,23.765-100.2667,1.696
		c25.8892,9.6108,42.0654,0.2698,51.7255-9.5048C1302.5294,568.187,1287.6438,582.5583,1265.8359,568.8174z"/>
	<path d="M668.1189,403.757c-12.9207-15.6123-13.3232-49.8999,39.2542-90.9179c10.694,71.0902-8.709,103.7087-29.3711,95.8834
		c17.1406-21.6521,13.2556-39.9232,6.9444-52.131C678.8582,368.6647,687.9263,387.2627,668.1189,403.757z"/>
	<path d="M326.4324,921.2132c-18.8409,7.4639-51.5747-2.7487-74.3379-65.4281c70.9155,11.7975,95.9417,40.3305,82.1143,57.5632
		c-15.2956-22.9926-33.873-24.9438-47.4336-22.7139C296.3762,900.1554,316.8662,897.2783,326.4324,921.2132z"/>
	<path d="M712.9755,1406.0791c1.2764,20.2252-18.5516,48.201-85.1974,50.4812c33.1341-63.7991,68.0042-78.7832,80.1205-60.3075
		c-26.5938,7.442-34.1902,24.5072-36.26,38.0931C683.6605,1428.1571,687.2559,1407.7809,712.9755,1406.0791z"/>
	<polygon points="1454.6199,855.001 1454.6191,855.0026 1454.6194,855.0026 	"/>
	<polygon points="998.6331,312.6484 998.6344,312.6496 998.6345,312.6494 	"/>
	<polygon points="341.9174,578.7214 341.919,578.7206 341.9188,578.7205 	"/>
	<polygon points="392.0316,1285.5162 392.0313,1285.5145 392.0311,1285.5146 	"/>
	<polygon points="1079.7196,1456.2664 1079.7178,1456.2661 1079.7179,1456.2664 	"/>
	<polygon points="1315.2415,1284.9154 1315.2417,1284.9137 1315.2419,1284.9138 	"/>
	<polygon points="1364.4357,578.0561 1364.4342,578.0552 1364.4343,578.0551 	"/>
	<polygon points="707.3744,312.838 707.3731,312.8391 707.373,312.8389 	"/>
	<polygon points="252.0938,855.7835 252.0945,855.7851 252.0943,855.7851 	"/>
	<polygon points="627.7763,1456.5604 627.7781,1456.5603 627.778,1456.5604 	"/>
	<path d="M1367.0151,945.8635c24.5088,12.7265,28.4518,30.9852,27.6969,44.7065c-10.501-8.5181-9.8502-29.1996-34.6793-36.1273
		c-5.3882,19.536,8.2946,50.9789,73.0664,66.8481v-0.0001C1413.7207,952.0607,1382.656,930.2584,1367.0151,945.8635z"/>
	<path d="M1057.9772,424.0435c19.6772-19.3766,38.2607-17.4844,51.0771-12.5262c-11.3462,7.3548-30.8145,0.3448-45.0756,21.8179
		c16.9148,11.1614,51.047,7.8649,86.155-48.833v-0.0001C1078.3038,381.5389,1047.969,404.3459,1057.9772,424.0435z"/>
	<path d="M466.1989,556.7049c-12.3476-24.7019-4.8054-41.7911,3.8706-52.4482c3.4886,13.0636-9.1942,29.4128,6.821,49.6115
		c15.8421-12.6379,23.2543-46.1182-19.8196-97.0286l-0.0001,0.0001C432.0558,524.2383,444.3726,560.1362,466.1989,556.7049z"/>
	<path d="M409.4977,1160.514c-27.3085,4.11-41.2307-8.3439-48.6851-19.8884c13.5023,0.719,25.1321,17.8333,49.2911,8.8436
		c-7.1238-18.972-36.675-36.3674-98.4042-11.1339l0,0.0001C368.0694,1182.9534,406.0164,1182.3324,409.4977,1160.514z"/>
	<path d="M966.2328,1401.0273c-4.53,27.2419-20.6766,36.6343-33.9596,40.1564c4.8563-12.6193,24.7267-18.3912,23.6426-44.1459
		c-20.2449,0.9125-45.9207,23.6418-40.9976,90.1475h0.0001C974.7717,1447.3621,985.9075,1411.0804,966.2328,1401.0273z"/>
	<path d="M1297.6127,1159.9362c27.3138,4.0745,41.2197-8.3976,48.6592-19.9518c-13.5013,0.7366-25.1089,17.8658-49.2797,8.9077
		c7.0991-18.9813,36.6277-36.4152,98.3896-11.262v0.0001C1339.0701,1182.3214,1301.1223,1181.75,1297.6127,1159.9362z"/>
	<path d="M1240.1257,556.2013c12.3156-24.718,4.7511-41.7974-3.9388-52.4431c-3.4716,13.0682,9.2325,29.4008-6.7563,49.6204
		c-15.8585-12.6172-23.3143-46.0879,19.6932-97.0543l0.0001,0.0001C1274.2266,523.6903,1261.9565,559.6042,1240.1257,556.2013z"/>
	<path d="M648.1754,424.3102c-19.7025-19.351-38.2835-17.4345-51.0935-12.4597c11.3558,7.34,30.8149,0.3048,45.1039,21.7593
		c-16.9003,11.1834-51.0367,7.9313-86.2185-48.7209l0.0001-0.0001C627.7933,381.8321,658.1578,404.5995,648.1754,424.3102z"/>
	<path d="M339.8167,946.5319c-24.4922,12.7584-28.4115,31.0222-27.6387,44.7426c10.4899-8.5318,9.8122-29.2125,34.6322-36.1724
		c5.4136,19.529-8.2281,50.9897-72.9793,66.9431l0-0.0001C293.1192,952.79,324.1555,930.9471,339.8167,946.5319z"/>
	<path d="M741.1911,1401.1738c4.5654,27.2361,20.7242,36.6073,34.0118,40.1121c-4.8727-12.6129-24.7506-18.359-23.7001-44.115
		c20.246,0.8861,45.9514,23.582,41.1149,90.094h-0.0001C732.7125,1447.5197,721.5295,1411.2526,741.1911,1401.1738z"/>
</g>
</svg>
