<?xml version="1.0" encoding="utf-8"?>

<!DOCTYPE svg PUBLIC "-//W3C//DTD SVG 1.1//EN" "http://www.w3.org/Graphics/SVG/1.1/DTD/svg11.dtd">
<svg version="1.1" id="Layer_1" xmlns="http://www.w3.org/2000/svg" xmlns:xlink="http://www.w3.org/1999/xlink" x="0px" y="0px"
	 viewBox="0 0 1638 1638" enable-background="new 0 0 1638 1638" xml:space="preserve">
<g>
	<path fill="none" d="M1085.552,257.368c-13.263,36.201-33.959,67.801-59.366,95.369c-31.36,34.029-62.092,64.644-72.51,95.675
		c-8.383,24.972-9.322,50.33,10.433,68.615c2.363,2.187,4.185,4.359,5.466,6.454c2.448-0.195,5.276,0.002,8.434,0.628
		c26.404,5.234,46.368-10.43,61.643-31.89c18.981-26.668,25.686-69.526,34.783-114.899c7.37-36.759,20.769-72.076,42.261-104.085
		c39.742-59.189,97.678-89.863,166.155-99.087l3.353-4.606c-65.403-47.132-138.21-84.627-216.347-110.408l-1.804,5.569
		C1100.839,125.525,1110.077,190.426,1085.552,257.368z"/>
	<path fill="none" d="M1220.189,294.89c1.734-10.914,3.508-22.646,5.067-35.055c-11.32,5.317-21.929,10.63-31.773,15.652
		c-66.299,33.825-94.179,92.321-103.475,162.973l116.958-160.979l7.541-2.851l-0.381,8.053l-116.958,160.979
		C1161.49,412.989,1208.507,368.396,1220.189,294.89z"/>
	<path fill="none" d="M1129.399,304.259c30.936-37.011,76.678-63.356,125.616-85.382c-5.825,53.349-16.746,104.994-42.386,145.853
		c-21.368,34.052-59.025,60.719-115.553,79.06l-48.48,66.726c18.472-20.007,39.626-37.277,65.903-51.085
		c50.903-26.749,93.286-58.645,122.023-92.409c28.376-33.339,44.417-79.65,50.524-124.716c2.695-19.884,1.908-41.623-1.967-64.81
		c-23.25,3.48-44.168,9.45-62.246,18.157c-40.973,19.735-80.06,49.301-102.999,86.591c-23.231,37.764-40.469,87.929-50.179,144.607
		c-5.012,29.257-14.9,54.713-28.219,78.463l48.479-66.727C1089.892,379.158,1103.617,335.103,1129.399,304.259z"/>
	<path fill="none" d="M1273.271,425.37c40.859-25.639,92.504-36.561,145.853-42.386c-22.026,48.938-48.372,94.68-85.382,125.616
		c-30.845,25.782-74.9,39.507-134.328,39.483l-66.727,48.48c23.751-13.319,49.206-23.208,78.464-28.22
		c56.677-9.71,106.842-26.948,144.607-50.179c37.29-22.939,66.856-62.026,86.591-102.999c8.707-18.078,14.677-38.996,18.157-62.246
		c-23.187-3.875-44.926-4.661-64.81-1.967c-45.066,6.108-91.376,22.148-124.716,50.524c-33.764,28.737-65.66,71.12-92.409,122.023
		c-13.808,26.277-31.078,47.431-51.085,65.903l66.727-48.48C1212.552,484.396,1239.219,446.738,1273.271,425.37z"/>
	<path fill="none" d="M1362.512,444.516c5.022-9.844,10.335-20.454,15.652-31.773c-12.408,1.559-24.141,3.333-35.055,5.067
		c-73.506,11.682-118.099,58.7-148.771,123.021l160.979-116.958l8.053-0.381l-2.851,7.541L1199.54,547.991
		C1270.191,538.696,1328.687,510.815,1362.512,444.516z"/>
	<path fill="none" d="M1451.633,630.799c7.818-7.81,16.149-16.259,24.704-25.381c-12.283-2.352-23.989-4.29-34.905-6.013
		c-73.518-11.604-130.458,19.332-179.506,71.027l189.242-61.488l7.776,2.126l-5.042,6.291l-189.242,61.488
		C1334.727,691.84,1398.976,683.401,1451.633,630.799z"/>
	<path fill="none" d="M1372.675,585.013c46.782-11.758,99.274-6.186,151.812,4.759c-36.071,39.736-75.262,75.098-120.021,93.083
		c-37.302,14.989-83.442,14.428-139.955-3.959l-78.442,25.487c26.704-5.328,53.969-6.866,83.343-2.592
		c56.904,8.28,109.94,7.387,153.035-3.037c42.553-10.293,82.751-38.33,114.181-71.2c13.868-14.503,26.009-32.552,36.503-53.589
		c-20.855-10.85-41.287-18.316-61.03-21.898c-44.748-8.118-93.748-7.173-134.225,9.512c-40.992,16.897-84.424,47.349-125.593,87.495
		c-21.252,20.724-44.214,35.505-68.949,46.891l78.442-25.487C1296.688,622.387,1333.687,594.813,1372.675,585.013z"/>
	<path fill="none" d="M1246.06,367.225c-23.8,30.331-53.249,53.988-85.931,72.356c-40.341,22.672-79.029,42.293-98.527,68.586
		c-15.69,21.159-24.418,44.986-11.281,68.48c1.572,2.81,2.633,5.439,3.204,7.827c2.388,0.57,5.017,1.632,7.827,3.204
		c23.494,13.137,47.321,4.409,68.48-11.281c26.293-19.497,45.914-58.186,68.586-98.527c18.368-32.682,42.025-62.131,72.356-85.931
		c56.088-44.011,120.666-55.28,188.642-42.893l4.609-3.342c-48.199-65.577-106.155-123.533-171.731-171.731l-3.342,4.609
		C1301.34,246.559,1290.07,311.138,1246.06,367.225z"/>
	<path fill="none" d="M955.143,233.533c17.985-44.759,53.347-83.951,93.084-120.021c10.946,52.538,16.518,105.03,4.76,151.812
		c-9.799,38.988-37.373,75.987-85.467,110.898l-25.487,78.442c11.386-24.736,26.168-47.698,46.891-68.95
		c40.146-41.169,70.598-84.602,87.495-125.593c16.685-40.476,17.63-89.477,9.512-134.225c-3.582-19.743-11.047-40.175-21.898-61.03
		c-21.036,10.494-39.086,22.636-53.589,36.503c-32.869,31.43-60.907,71.628-71.2,114.181
		c-10.424,43.095-11.317,96.132-3.037,153.035c4.274,29.374,2.736,56.639-2.592,83.343l25.487-78.442
		C940.715,316.975,940.154,270.835,955.143,233.533z"/>
	<path fill="none" d="M1430.045,704.526c-37.083,10.549-74.813,12.379-112.05,8.029c-45.963-5.37-88.795-12.237-120.024-2.425
		c-25.13,7.896-46.197,22.042-49.378,48.771c-0.38,3.197-1.066,5.948-2.009,8.215c1.597,1.865,3.099,4.269,4.449,7.193
		c11.286,24.438,35.692,31.382,62.032,31.125c32.732-0.319,71.346-20.086,113.4-39.396c34.07-15.644,70.519-25.563,109.047-26.99
		c71.245-2.638,130.114,26.203,177.826,76.18l5.637,0.005c-0.386-83.63-13.602-164.225-37.784-239.924l-5.565,1.814
		C1545.693,639.398,1498.618,685.019,1430.045,704.526z"/>
	<path fill="none" d="M870.439,1417.882c-3.274,48.126-24.794,96.327-51.439,142.911c-26.645-46.584-48.165-94.785-51.439-142.911
		c-2.728-40.108,12.063-83.817,47.014-131.881v-82.479c-3.185,27.043-10.147,53.449-23.289,80.065
		c-25.459,51.56-40.999,102.277-44.402,146.484c-3.36,43.651,10.883,90.546,32.431,130.595c9.507,17.67,22.922,34.795,39.685,51.276
		c16.764-16.481,30.178-33.606,39.686-51.276c21.548-40.049,35.791-86.943,32.431-130.595
		c-3.403-44.207-18.943-94.924-44.402-146.484c-13.142-26.616-20.105-53.022-23.289-80.065v82.479
		C858.376,1334.065,873.167,1377.774,870.439,1417.882z"/>
	<path fill="none" d="M802.495,1478.827c5.012,9.849,10.473,20.383,16.505,31.338c6.032-10.955,11.493-21.489,16.505-31.338
		c33.755-66.334,21.928-130.047-12.08-192.669v198.981l-4.425,6.739l-4.425-6.739v-198.981
		C780.567,1348.78,768.74,1412.492,802.495,1478.827z"/>
	<path fill="none" d="M630.799,186.367c-7.81-7.818-16.259-16.149-25.381-24.704c-2.352,12.283-4.29,23.989-6.013,34.905
		c-11.604,73.518,19.332,130.458,71.027,179.506l-61.488-189.242l2.126-7.777l6.291,5.042l61.488,189.242
		C691.84,303.273,683.401,239.024,630.799,186.367z"/>
	<path fill="none" d="M1364.764,521.306c-32.008,21.492-67.326,34.891-104.085,42.261c-45.372,9.096-88.231,15.801-114.899,34.783
		c-21.461,15.275-37.125,35.238-31.891,61.642c0.626,3.159,0.824,5.986,0.628,8.434c2.095,1.281,4.267,3.103,6.454,5.466
		c18.285,19.755,43.643,18.816,68.614,10.433c31.031-10.418,61.647-41.15,95.676-72.51c27.568-25.407,59.168-46.103,95.369-59.366
		c66.942-24.525,131.843-15.287,192.664,17.5l5.569-1.804c-25.781-78.136-63.276-150.943-110.408-216.347l-4.606,3.353
		C1454.626,423.628,1423.953,481.563,1364.764,521.306z"/>
	<path fill="none" d="M1417.882,767.561c48.126,3.274,96.327,24.794,142.911,51.439c-46.584,26.645-94.785,48.165-142.911,51.439
		c-40.108,2.728-83.817-12.063-131.881-47.014h-82.479c27.043,3.185,53.449,10.147,80.065,23.289
		c51.56,25.459,102.277,40.999,146.484,44.402c43.651,3.36,90.546-10.883,130.595-32.431c17.67-9.507,34.795-22.922,51.277-39.686
		c-16.481-16.764-33.606-30.178-51.277-39.686c-40.049-21.548-86.943-35.791-130.595-32.431
		c-44.207,3.403-94.924,18.943-146.484,44.402c-26.616,13.142-53.022,20.105-80.065,23.289h82.479
		C1334.065,779.623,1377.774,764.833,1417.882,767.561z"/>
	<path fill="none" d="M1038.595,196.568c-1.723-10.916-3.662-22.622-6.013-34.905c-9.122,8.555-17.571,16.886-25.381,24.704
		c-52.601,52.657-61.041,116.906-48.049,186.972l61.489-189.242l6.291-5.042l2.126,7.777l-61.488,189.242
		C1019.263,327.025,1050.199,270.086,1038.595,196.568z"/>
	<path fill="none" d="M835.505,159.173c-5.012-9.849-10.473-20.383-16.505-31.338c-6.032,10.955-11.493,21.489-16.505,31.338
		c-33.755,66.334-21.927,130.046,12.08,192.669V152.861l4.425-6.739l4.425,6.739v198.981
		C857.432,289.22,869.26,225.507,835.505,159.173z"/>
	<path fill="none" d="M767.561,220.117c3.274-48.126,24.794-96.327,51.439-142.911c26.645,46.584,48.166,94.785,51.439,142.911
		c2.728,40.108-12.063,83.817-47.014,131.881v82.479c3.185-27.043,10.148-53.449,23.289-80.065
		c25.459-51.56,40.999-102.277,44.402-146.484c3.36-43.651-10.883-90.546-32.431-130.595c-9.507-17.67-22.922-34.795-39.686-51.277
		c-16.764,16.481-30.178,33.606-39.685,51.277c-21.548,40.049-35.792,86.944-32.431,130.595
		c3.403,44.207,18.943,94.924,44.402,146.484c13.142,26.616,20.105,53.022,23.289,80.065v-82.479
		C779.623,303.934,764.833,260.226,767.561,220.117z"/>
	<path fill="none" d="M273.236,1116.694c32.008-21.492,67.326-34.891,104.085-42.261c45.372-9.097,88.231-15.801,114.899-34.783
		c21.461-15.275,37.125-35.238,31.891-61.643c-0.626-3.159-0.824-5.986-0.628-8.434c-2.095-1.281-4.267-3.103-6.454-5.466
		c-18.285-19.755-43.643-18.816-68.615-10.433c-31.031,10.418-61.647,41.15-95.676,72.51
		c-27.568,25.407-59.168,46.103-95.369,59.366c-66.942,24.525-131.843,15.287-192.664-17.5l-5.569,1.804
		c25.781,78.136,63.276,150.943,110.408,216.347l4.606-3.353C183.373,1214.372,214.047,1156.436,273.236,1116.694z"/>
	<path fill="none" d="M207.955,933.474c37.083-10.549,74.813-12.379,112.05-8.029c45.963,5.37,88.795,12.237,120.024,2.425
		c25.13-7.896,46.197-22.042,49.378-48.771c0.381-3.197,1.066-5.948,2.009-8.215c-1.597-1.865-3.099-4.269-4.449-7.193
		c-11.285-24.438-35.692-31.382-62.032-31.125c-32.732,0.319-71.346,20.086-113.4,39.396c-34.07,15.644-70.519,25.563-109.047,26.99
		c-71.245,2.638-130.114-26.203-177.826-76.18l-5.637-0.005c0.386,83.63,13.602,164.225,37.785,239.924l5.565-1.814
		C92.306,998.601,139.382,952.98,207.955,933.474z"/>
	<path fill="none" d="M391.94,1270.774c23.8-30.331,53.249-53.989,85.931-72.356c40.341-22.672,79.029-42.293,98.527-68.586
		c15.69-21.159,24.418-44.986,11.281-68.48c-1.571-2.81-2.633-5.439-3.204-7.827c-2.388-0.57-5.017-1.632-7.827-3.204
		c-23.495-13.137-47.321-4.409-68.48,11.281c-26.293,19.497-45.914,58.186-68.586,98.527
		c-18.368,32.682-42.025,62.131-72.356,85.931c-56.087,44.011-120.666,55.281-188.642,42.893l-4.609,3.342
		c48.199,65.576,106.155,123.533,171.731,171.731l3.342-4.609C336.66,1391.441,347.929,1326.862,391.94,1270.774z"/>
	<path fill="none" d="M202.487,739.047c38.528,1.427,74.976,11.346,109.047,26.99c42.054,19.31,80.668,39.077,113.4,39.396
		c26.34,0.257,50.747-6.687,62.032-31.125c1.35-2.923,2.852-5.327,4.449-7.193c-0.942-2.267-1.628-5.018-2.009-8.215
		c-3.181-26.729-24.248-40.875-49.378-48.771c-31.228-9.811-74.061-2.944-120.024,2.425c-37.237,4.35-74.967,2.52-112.05-8.029
		c-68.573-19.507-115.649-65.128-145.582-127.403l-5.565-1.814C32.626,651.008,19.41,731.603,19.024,815.233l5.637-0.005
		C72.373,765.25,131.242,736.409,202.487,739.047z"/>
	<path fill="none" d="M552.448,1380.632c13.263-36.201,33.959-67.801,59.366-95.369c31.36-34.028,62.092-64.644,72.51-95.676
		c8.384-24.972,9.322-50.329-10.433-68.614c-2.363-2.187-4.185-4.359-5.466-6.454c-2.448,0.195-5.276-0.002-8.434-0.628
		c-26.404-5.234-46.368,10.43-61.643,31.89c-18.981,26.668-25.686,69.526-34.783,114.899c-7.37,36.759-20.769,72.076-42.261,104.085
		c-39.742,59.189-97.678,89.863-166.155,99.087l-3.353,4.606c65.403,47.132,138.21,84.627,216.347,110.408l1.804-5.569
		C537.161,1512.474,527.923,1447.574,552.448,1380.632z"/>
	<path fill="none" d="M521.305,273.236c21.492,32.008,34.891,67.326,42.261,104.085c9.096,45.372,15.801,88.231,34.783,114.899
		c15.275,21.461,35.238,37.125,61.643,31.89c3.158-0.626,5.986-0.824,8.434-0.628c1.28-2.095,3.102-4.267,5.466-6.454
		c19.754-18.285,18.816-43.643,10.433-68.615c-10.418-31.031-41.15-61.647-72.51-95.675c-25.407-27.568-46.103-59.168-59.366-95.369
		c-24.525-66.942-15.287-131.843,17.5-192.664l-1.804-5.569c-78.136,25.781-150.943,63.276-216.346,110.408l3.353,4.606
		C423.628,183.373,481.563,214.047,521.305,273.236z"/>
	<path fill="none" d="M257.368,552.448c36.201,13.263,67.801,33.959,95.369,59.366c34.029,31.36,64.644,62.092,95.676,72.51
		c24.972,8.384,50.33,9.322,68.615-10.433c2.187-2.363,4.359-4.185,6.454-5.466c-0.196-2.448,0.002-5.276,0.628-8.434
		c5.234-26.404-10.43-46.368-31.891-61.642c-26.668-18.981-69.526-25.686-114.899-34.783c-36.759-7.37-72.076-20.769-104.085-42.261
		c-59.189-39.742-89.863-97.678-99.087-166.155l-4.606-3.353c-47.132,65.403-84.627,138.21-110.408,216.347l5.569,1.804
		C125.525,537.161,190.426,527.923,257.368,552.448z"/>
	<path fill="none" d="M367.225,391.94c30.331,23.8,53.988,53.249,72.356,85.931c22.672,40.341,42.293,79.029,68.586,98.527
		c21.159,15.69,44.986,24.418,68.48,11.281c2.81-1.571,5.439-2.633,7.827-3.204c0.57-2.388,1.632-5.017,3.204-7.827
		c13.137-23.495,4.409-47.321-11.281-68.48c-19.497-26.293-58.186-45.914-98.527-68.586c-32.682-18.368-62.131-42.025-85.931-72.356
		c-44.011-56.087-55.28-120.666-42.893-188.642l-3.342-4.609c-65.577,48.199-123.533,106.155-171.731,171.731l4.609,3.342
		C246.559,336.66,311.138,347.929,367.225,391.94z"/>
	<path fill="none" d="M1441.432,1038.595c10.916-1.723,22.622-3.661,34.905-6.013c-8.555-9.122-16.886-17.571-24.704-25.381
		c-52.657-52.601-116.906-61.041-186.972-48.049l189.242,61.488l5.042,6.291l-7.776,2.126l-189.242-61.488
		C1310.974,1019.263,1367.914,1050.199,1441.432,1038.595z"/>
	<path fill="none" d="M1380.632,1085.552c-36.201-13.263-67.801-33.959-95.369-59.366c-34.028-31.36-64.644-62.092-95.676-72.51
		c-24.972-8.384-50.329-9.322-68.614,10.433c-2.187,2.363-4.359,4.185-6.454,5.466c0.196,2.448-0.002,5.276-0.628,8.434
		c-5.234,26.404,10.43,46.368,31.891,61.643c26.668,18.981,69.526,25.686,114.899,34.783c36.759,7.37,72.076,20.769,104.085,42.261
		c59.189,39.742,89.863,97.678,99.087,166.155l4.606,3.353c47.132-65.403,84.627-138.21,110.408-216.347l-5.569-1.804
		C1512.474,1100.839,1447.574,1110.077,1380.632,1085.552z"/>
	<path fill="none" d="M1478.827,835.505c9.849-5.012,20.383-10.473,31.338-16.505c-10.955-6.032-21.489-11.493-31.338-16.505
		c-66.334-33.755-130.047-21.928-192.669,12.08h198.981l6.739,4.425l-6.739,4.425h-198.981
		C1348.78,857.432,1412.492,869.26,1478.827,835.505z"/>
	<path fill="none" d="M898.952,202.487c-1.427,38.528-11.345,74.976-26.99,109.047c-19.31,42.054-39.077,80.668-39.396,113.4
		c-0.256,26.34,6.687,50.747,31.125,62.032c2.923,1.35,5.327,2.852,7.193,4.449c2.268-0.942,5.018-1.628,8.215-2.009
		c26.729-3.181,40.875-24.248,48.771-49.378c9.812-31.228,2.944-74.061-2.425-120.024c-4.35-37.237-2.52-74.967,8.029-112.05
		c19.507-68.573,65.128-115.649,127.403-145.582l1.814-5.565C986.992,32.626,906.396,19.41,822.767,19.024l0.005,5.637
		C872.749,72.373,901.59,131.242,898.952,202.487z"/>
	<path fill="none" d="M1270.774,1246.06c-30.331-23.8-53.989-53.249-72.356-85.931c-22.672-40.341-42.293-79.029-68.586-98.527
		c-21.159-15.69-44.986-24.418-68.48-11.281c-2.81,1.571-5.439,2.633-7.827,3.204c-0.57,2.388-1.632,5.017-3.204,7.827
		c-13.137,23.494-4.409,47.321,11.281,68.48c19.497,26.293,58.186,45.914,98.527,68.586c32.682,18.368,62.131,42.025,85.931,72.356
		c44.011,56.088,55.281,120.666,42.893,188.642l3.342,4.609c65.576-48.199,123.533-106.155,171.731-171.731l-4.609-3.342
		C1391.441,1301.34,1326.862,1290.07,1270.774,1246.06z"/>
	<path fill="none" d="M933.474,1430.045c-10.549-37.083-12.379-74.813-8.029-112.05c5.37-45.963,12.237-88.795,2.425-120.024
		c-7.895-25.13-22.041-46.197-48.771-49.378c-3.197-0.38-5.948-1.066-8.215-2.009c-1.865,1.597-4.269,3.099-7.193,4.449
		c-24.438,11.286-31.382,35.692-31.125,62.032c0.319,32.732,20.086,71.346,39.396,113.4c15.644,34.07,25.563,70.519,26.99,109.047
		c2.638,71.245-26.203,130.114-76.18,177.826l-0.005,5.637c83.63-0.386,164.225-13.602,239.924-37.784l-1.814-5.565
		C998.602,1545.693,952.98,1498.618,933.474,1430.045z"/>
	<path fill="none" d="M704.526,207.955c10.549,37.083,12.379,74.813,8.029,112.05c-5.37,45.963-12.237,88.795-2.426,120.024
		c7.896,25.13,22.042,46.197,48.771,49.378c3.197,0.381,5.948,1.066,8.215,2.009c1.865-1.597,4.269-3.099,7.193-4.449
		c24.438-11.286,31.382-35.692,31.125-62.032c-0.319-32.732-20.086-71.346-39.396-113.4c-15.644-34.07-25.563-70.519-26.99-109.047
		c-2.638-71.245,26.203-130.114,76.18-177.826l0.005-5.637c-83.63,0.386-164.226,13.602-239.924,37.785l1.814,5.565
		C639.398,92.306,685.019,139.382,704.526,207.955z"/>
	<path fill="none" d="M1116.694,1364.764c-21.492-32.008-34.891-67.326-42.261-104.085c-9.097-45.372-15.801-88.231-34.783-114.899
		c-15.275-21.46-35.238-37.125-61.643-31.89c-3.158,0.626-5.986,0.824-8.434,0.628c-1.281,2.095-3.103,4.267-5.466,6.454
		c-19.755,18.285-18.816,43.643-10.433,68.614c10.418,31.031,41.15,61.647,72.51,95.676c25.407,27.568,46.103,59.168,59.366,95.369
		c24.525,66.942,15.287,131.843-17.5,192.664l1.804,5.569c78.136-25.781,150.943-63.276,216.347-110.408l-3.353-4.606
		C1214.372,1454.626,1156.437,1423.953,1116.694,1364.764z"/>
	<path fill="none" d="M739.047,1435.513c1.427-38.528,11.346-74.976,26.99-109.047c19.31-42.054,39.077-80.668,39.396-113.4
		c0.257-26.34-6.687-50.747-31.125-62.032c-2.923-1.35-5.327-2.852-7.193-4.449c-2.267,0.942-5.018,1.628-8.215,2.009
		c-26.729,3.182-40.875,24.248-48.771,49.378c-9.811,31.229-2.944,74.061,2.426,120.024c4.35,37.237,2.52,74.967-8.029,112.05
		c-19.507,68.573-65.128,115.649-127.403,145.582l-1.814,5.565c75.698,24.182,156.294,37.399,239.924,37.784l-0.005-5.637
		C765.25,1565.626,736.409,1506.757,739.047,1435.513z"/>
	<path fill="none" d="M1333.741,1129.399c37.011,30.936,63.356,76.678,85.382,125.616c-53.349-5.825-104.994-16.746-145.853-42.386
		c-34.052-21.368-60.719-59.025-79.06-115.553l-66.726-48.479c20.007,18.472,37.277,39.626,51.084,65.902
		c26.749,50.903,58.645,93.286,92.409,122.023c33.339,28.376,79.65,44.417,124.716,50.524c19.884,2.695,41.623,1.908,64.81-1.967
		c-3.48-23.25-9.45-44.168-18.157-62.246c-19.735-40.973-49.301-80.06-86.591-102.999c-37.765-23.231-87.93-40.469-144.607-50.179
		c-29.257-5.012-54.713-14.9-78.464-28.22l66.727,48.48C1258.842,1089.892,1302.896,1103.617,1333.741,1129.399z"/>
	<path fill="none" d="M1422.448,939.244c-43.095-10.424-96.132-11.317-153.035-3.037c-29.374,4.274-56.64,2.736-83.344-2.592
		l78.443,25.487c56.513-18.388,102.652-18.948,139.955-3.96c44.759,17.985,83.951,53.347,120.021,93.083
		c-52.538,10.945-105.03,16.518-151.812,4.759c-38.988-9.799-75.987-37.373-110.899-85.467l-78.442-25.487
		c24.736,11.386,47.698,26.168,68.949,46.891c41.169,40.146,84.602,70.598,125.593,87.495c40.476,16.685,89.477,17.63,134.225,9.512
		c19.743-3.582,40.175-11.047,61.03-21.898c-10.494-21.036-22.636-39.086-36.503-53.589
		C1505.199,977.575,1465.002,949.537,1422.448,939.244z"/>
	<path fill="none" d="M265.324,1052.986c-46.782,11.758-99.274,6.186-151.812-4.759c36.071-39.736,75.262-75.098,120.021-93.083
		c37.302-14.989,83.442-14.428,139.955,3.96l78.442-25.487c-26.704,5.328-53.969,6.866-83.344,2.592
		c-56.904-8.28-109.94-7.387-153.035,3.037c-42.553,10.293-82.751,38.331-114.181,71.2c-13.868,14.503-26.009,32.552-36.503,53.589
		c20.855,10.85,41.287,18.316,61.03,21.898c44.748,8.118,93.748,7.173,134.225-9.512c40.992-16.897,84.424-47.349,125.593-87.495
		c21.252-20.724,44.214-35.505,68.95-46.891l-78.442,25.487C341.311,1015.613,304.313,1043.187,265.324,1052.986z"/>
	<path fill="none" d="M159.173,802.495c-9.849,5.012-20.383,10.473-31.338,16.505c10.955,6.032,21.489,11.493,31.338,16.505
		c66.334,33.755,130.047,21.928,192.669-12.08H152.861L146.122,819l6.739-4.425h198.981
		C289.22,780.567,225.507,768.74,159.173,802.495z"/>
	<path fill="none" d="M1343.109,1220.189c10.914,1.734,22.646,3.508,35.055,5.067c-5.317-11.32-10.629-21.929-15.652-31.773
		c-33.825-66.299-92.321-94.179-162.973-103.475l160.979,116.958l2.851,7.541l-8.053-0.381l-160.979-116.958
		C1225.011,1161.49,1269.603,1208.507,1343.109,1220.189z"/>
	<path fill="none" d="M275.487,1193.483c-5.022,9.844-10.335,20.453-15.652,31.773c12.408-1.559,24.141-3.333,35.054-5.067
		c73.506-11.682,118.099-58.699,148.772-123.021l-160.979,116.958l-8.053,0.381l2.851-7.541l160.979-116.958
		C367.808,1099.304,309.312,1127.185,275.487,1193.483z"/>
	<path fill="none" d="M220.117,870.439C171.991,867.165,123.79,845.645,77.206,819c46.584-26.645,94.785-48.165,142.911-51.439
		c40.108-2.728,83.817,12.063,131.881,47.014h82.478c-27.043-3.185-53.449-10.147-80.065-23.289
		c-51.56-25.459-102.277-40.999-146.484-44.402c-43.651-3.36-90.546,10.883-130.595,32.431
		c-17.67,9.507-34.795,22.922-51.277,39.686c16.481,16.764,33.606,30.178,51.277,39.686c40.049,21.548,86.943,35.791,130.595,32.431
		c44.207-3.403,94.924-18.943,146.484-44.402c26.616-13.142,53.022-20.105,80.065-23.289h-82.478
		C303.934,858.376,260.226,873.167,220.117,870.439z"/>
	<path fill="none" d="M186.367,1007.2c-7.818,7.81-16.149,16.259-24.704,25.381c12.283,2.352,23.989,4.29,34.905,6.013
		c73.518,11.604,130.458-19.332,179.506-71.027l-189.242,61.488l-7.777-2.126l5.042-6.291l189.242-61.488
		C303.273,946.159,239.024,954.599,186.367,1007.2z"/>
	<path fill="none" d="M599.405,1441.432c1.723,10.916,3.661,22.622,6.013,34.905c9.122-8.555,17.571-16.886,25.381-24.704
		c52.601-52.657,61.041-116.906,48.049-186.972l-61.488,189.242l-6.291,5.042l-2.126-7.776l61.488-189.242
		C618.737,1310.974,587.801,1367.914,599.405,1441.432z"/>
	<path fill="none" d="M682.857,1404.466c-17.985,44.759-53.347,83.951-93.084,120.021c-10.945-52.538-16.518-105.03-4.759-151.812
		c9.799-38.988,37.373-75.987,85.466-110.899l25.487-78.442c-11.386,24.735-26.167,47.698-46.891,68.949
		c-40.146,41.169-70.598,84.602-87.495,125.593c-16.685,40.476-17.63,89.477-9.512,134.224
		c3.581,19.744,11.047,40.176,21.898,61.031c21.036-10.494,39.086-22.636,53.589-36.503c32.869-31.43,60.907-71.628,71.2-114.181
		c10.424-43.095,11.317-96.132,3.037-153.035c-4.274-29.374-2.736-56.639,2.592-83.343l-25.487,78.442
		C697.285,1321.024,697.845,1367.164,682.857,1404.466z"/>
	<path fill="none" d="M1613.339,822.772c-47.712,49.977-106.582,78.818-177.826,76.18c-38.528-1.427-74.976-11.345-109.047-26.99
		c-42.054-19.31-80.668-39.077-113.4-39.396c-26.34-0.257-50.747,6.687-62.032,31.125c-1.35,2.923-2.852,5.327-4.449,7.193
		c0.942,2.268,1.628,5.018,2.009,8.215c3.182,26.729,24.248,40.875,49.378,48.771c31.229,9.812,74.061,2.944,120.024-2.425
		c37.237-4.35,74.967-2.52,112.05,8.029c68.573,19.507,115.648,65.128,145.582,127.403l5.565,1.814
		c24.182-75.699,37.398-156.294,37.784-239.924L1613.339,822.772z"/>
	<path fill="none" d="M508.601,1333.741c-30.936,37.011-76.678,63.356-125.616,85.382c5.825-53.349,16.746-104.994,42.386-145.853
		c21.368-34.052,59.025-60.719,115.553-79.06l48.48-66.726c-18.472,20.007-39.626,37.277-65.903,51.084
		c-50.903,26.749-93.286,58.645-122.023,92.409c-28.376,33.339-44.417,79.65-50.524,124.716c-2.695,19.884-1.908,41.623,1.967,64.81
		c23.25-3.48,44.168-9.45,62.246-18.157c40.973-19.735,80.06-49.301,102.999-86.591c23.231-37.764,40.469-87.929,50.179-144.607
		c5.012-29.257,14.9-54.713,28.22-78.463l-48.48,66.727C548.108,1258.842,534.383,1302.896,508.601,1333.741z"/>
	<path fill="none" d="M417.811,1343.109c-1.735,10.914-3.508,22.646-5.067,35.055c11.319-5.317,21.929-10.63,31.773-15.652
		c66.298-33.825,94.179-92.321,103.475-162.973l-116.958,160.979l-7.541,2.851l0.381-8.053l116.958-160.979
		C476.51,1225.011,429.493,1269.603,417.811,1343.109z"/>
	<path fill="none" d="M585.014,265.324c-11.758-46.782-6.186-99.274,4.759-151.812c39.736,36.071,75.098,75.262,93.084,120.021
		c14.989,37.302,14.428,83.442-3.959,139.955l25.487,78.442c-5.328-26.704-6.866-53.969-2.592-83.343
		c8.28-56.904,7.387-109.94-3.037-153.035c-10.293-42.553-38.33-82.751-71.2-114.181c-14.503-13.868-32.552-26.009-53.589-36.503
		c-10.85,20.855-18.316,41.287-21.898,61.03c-8.118,44.748-7.173,93.748,9.512,134.225c16.897,40.992,47.349,84.424,87.495,125.593
		c20.724,21.252,35.505,44.214,46.891,68.95l-25.487-78.442C622.387,341.311,594.813,304.313,585.014,265.324z"/>
	<path fill="none" d="M364.729,1212.629c-40.859,25.639-92.504,36.561-145.853,42.386c22.026-48.938,48.372-94.68,85.382-125.616
		c30.845-25.782,74.9-39.507,134.328-39.483l66.727-48.48c-23.751,13.319-49.206,23.207-78.463,28.22
		c-56.677,9.71-106.842,26.948-144.607,50.179c-37.29,22.939-66.856,62.026-86.591,102.999
		c-8.707,18.078-14.677,38.996-18.157,62.246c23.187,3.875,44.926,4.661,64.81,1.967c45.066-6.107,91.376-22.148,124.716-50.524
		c33.764-28.737,65.66-71.12,92.409-122.023c13.808-26.276,31.078-47.43,51.085-65.902l-66.726,48.479
		C425.448,1153.604,398.781,1191.261,364.729,1212.629z"/>
	<path fill="none" d="M1133.621,916.574l21.237,6.9c-12.891-7.309-22.146-18.567-27.187-34.924
		c-2.647-8.587-2.85-15.973,0.531-20.578c-1.792-5.424,0.684-12.386,5.854-19.735c9.842-13.988,22.108-21.84,36.613-24.813h-22.295
		v-8.85h22.294c-14.504-2.973-26.771-10.825-36.613-24.813c-5.17-7.349-7.647-14.31-5.854-19.735
		c-3.381-4.605-3.177-11.991-0.531-20.578c5.041-16.357,14.296-27.614,27.187-34.923l-21.237,6.9l-2.735-8.417l21.203-6.889
		c-14.713,1.655-28.806-2.023-42.488-12.285c-7.188-5.391-11.695-11.247-11.667-16.96c-4.638-3.335-6.727-10.423-6.863-19.407
		c-0.26-17.114,5.063-30.68,15.064-41.616l-18.065,13.125l-5.202-7.16l18.037-13.104c-13.482,6.12-28.021,6.978-44.205,1.446
		c-8.502-2.906-14.598-7.083-16.336-12.525c-5.442-1.738-9.619-7.834-12.525-16.336c-5.532-16.184-4.674-30.723,1.446-44.205
		l-13.104,18.037l-7.16-5.202l13.125-18.065c-10.935,10.002-24.501,15.324-41.615,15.065c-8.984-0.136-16.072-2.225-19.407-6.864
		c-5.713,0.029-11.568-4.478-16.96-11.666c-10.262-13.683-13.939-27.775-12.285-42.488l-6.889,21.203l-8.417-2.735l6.9-21.237
		c-7.309,12.891-18.567,22.146-34.924,27.187c-8.587,2.646-15.973,2.85-20.578-0.53c-5.424,1.792-12.386-0.684-19.735-5.855
		c-13.988-9.842-21.84-22.108-24.813-36.613v22.295h-8.85V467.33c-2.973,14.505-10.825,26.771-24.813,36.613
		c-7.349,5.171-14.311,7.647-19.735,5.855c-4.605,3.381-11.991,3.177-20.578,0.53c-16.357-5.041-27.614-14.296-34.924-27.187
		l6.9,21.237l-8.417,2.735l-6.889-21.203c1.655,14.713-2.022,28.806-12.284,42.488c-5.391,7.188-11.247,11.695-16.96,11.666
		c-3.335,4.639-10.423,6.727-19.407,6.864c-17.114,0.26-30.68-5.063-41.615-15.065l13.125,18.065l-7.16,5.202l-13.104-18.037
		c6.12,13.482,6.978,28.021,1.446,44.205c-2.906,8.502-7.083,14.598-12.524,16.336c-1.738,5.442-7.834,9.618-16.336,12.525
		c-16.184,5.532-30.723,4.674-44.205-1.446l18.037,13.104l-5.202,7.16l-18.065-13.125c10.001,10.935,15.324,24.501,15.064,41.615
		c-0.136,8.984-2.225,16.072-6.863,19.407c0.028,5.713-4.478,11.568-11.666,16.96c-13.683,10.262-27.775,13.939-42.488,12.285
		l21.203,6.889l-2.735,8.417l-21.237-6.9c12.891,7.309,22.146,18.567,27.187,34.923c2.647,8.587,2.851,15.973-0.53,20.578
		c1.792,5.424-0.684,12.386-5.855,19.735c-9.842,13.988-22.108,21.84-36.613,24.813h22.294v8.85H467.33
		c14.505,2.973,26.771,10.825,36.613,24.813c5.171,7.349,7.647,14.31,5.855,19.735c3.381,4.605,3.177,11.991,0.53,20.578
		c-5.041,16.357-14.296,27.614-27.187,34.924l21.237-6.9l2.735,8.417l-21.203,6.889c14.713-1.655,28.806,2.022,42.489,12.285
		c7.188,5.391,11.695,11.247,11.666,16.96c4.639,3.335,6.727,10.423,6.863,19.407c0.26,17.114-5.063,30.68-15.065,41.616
		l18.066-13.125l5.202,7.16l-18.036,13.104c13.482-6.12,28.021-6.978,44.205-1.446c8.502,2.906,14.598,7.083,16.336,12.525
		c5.442,1.738,9.619,7.834,12.524,16.336c5.532,16.184,4.674,30.723-1.446,44.205l13.104-18.037l7.16,5.202l-13.125,18.066
		c10.935-10.001,24.501-15.325,41.615-15.065c8.984,0.136,16.072,2.225,19.407,6.863c5.713-0.028,11.569,4.478,16.96,11.666
		c10.262,13.683,13.939,27.775,12.284,42.489l6.889-21.203l8.417,2.735l-6.9,21.237c7.309-12.891,18.567-22.146,34.924-27.187
		c8.587-2.647,15.973-2.85,20.578,0.531c5.424-1.793,12.386,0.684,19.735,5.854c13.988,9.842,21.84,22.108,24.813,36.613v-22.294
		h8.85v22.295c2.973-14.505,10.825-26.771,24.813-36.613c7.349-5.17,14.31-7.647,19.735-5.854
		c4.605-3.381,11.991-3.177,20.578-0.531c16.357,5.041,27.614,14.296,34.924,27.187l-6.9-21.237l8.417-2.735l6.889,21.203
		c-1.655-14.714,2.022-28.806,12.285-42.489c5.391-7.188,11.247-11.695,16.96-11.666c3.335-4.638,10.423-6.727,19.407-6.863
		c17.114-0.26,30.68,5.063,41.615,15.064l-13.125-18.065l7.16-5.202l13.104,18.037c-6.12-13.482-6.978-28.021-1.446-44.205
		c2.906-8.502,7.083-14.598,12.525-16.336c1.738-5.442,7.834-9.618,16.336-12.525c16.184-5.532,30.723-4.674,44.205,1.446
		l-18.037-13.104l5.202-7.16l18.066,13.125c-10.002-10.935-15.325-24.501-15.065-41.616c0.137-8.984,2.225-16.072,6.863-19.407
		c-0.028-5.713,4.478-11.569,11.667-16.96c13.683-10.262,27.775-13.939,42.489-12.285l-21.203-6.889L1133.621,916.574z
		 M512.293,719.345c6.158-5.342,13.706-9.47,22.843-12.286c11.298-3.482,20.519-2.736,24.059,4.842
		c3.813,8.162-1.829,14.559-14.608,16.08c-1.32,0.157-2.609,0.358-3.867,0.6c0.876,0.936,1.801,1.856,2.776,2.759
		c9.445,8.742,10.249,17.233,2.366,21.595c-7.318,4.05-15.216-0.766-22.31-10.224C517.816,735.062,514.135,727.286,512.293,719.345z
		 M496.509,819c4.206-6.984,10.109-13.242,17.928-18.743c9.67-6.803,18.669-8.942,24.378-2.83c6.149,6.584,2.76,14.411-8.924,19.807
		c-1.206,0.557-2.37,1.146-3.493,1.766c1.122,0.62,2.286,1.209,3.493,1.766c11.684,5.396,15.073,13.223,8.924,19.807
		c-5.709,6.113-14.708,3.974-24.378-2.83C506.619,832.242,500.715,825.983,496.509,819z M535.136,930.941
		c-9.137-2.816-16.685-6.944-22.843-12.286c1.842-7.941,5.522-15.718,11.259-23.366c7.094-9.458,14.992-14.274,22.31-10.224
		c7.883,4.362,7.078,12.853-2.366,21.595c-0.975,0.903-1.9,1.823-2.776,2.759c1.259,0.243,2.548,0.443,3.867,0.6
		c12.779,1.521,18.421,7.918,14.608,16.08C555.655,933.676,546.435,934.423,535.136,930.941z M605.006,1001.141
		c-1.025,8.301-9.563,11.86-21.385,12.04c-9.56,0.145-18.014-1.448-25.521-4.626c-0.702-8.122,0.395-16.655,3.487-25.702
		c3.824-11.188,9.847-18.208,18.059-16.618c8.845,1.713,10.703,10.037,4.423,21.269c-0.648,1.16-1.244,2.32-1.788,3.482
		c1.272-0.158,2.56-0.366,3.864-0.624C598.768,987.86,606.11,992.2,605.006,1001.141z M586.144,647.638
		c-1.304-0.258-2.592-0.466-3.864-0.624c0.544,1.161,1.139,2.322,1.788,3.482c6.281,11.233,4.422,19.557-4.423,21.269
		c-8.212,1.59-14.235-5.43-18.059-16.618c-3.092-9.047-4.19-17.58-3.487-25.702c7.507-3.178,15.962-4.771,25.521-4.626
		c11.822,0.18,20.36,3.739,21.385,12.04C606.11,645.8,598.768,650.14,586.144,647.638z M655.146,1076.413
		c-9.047,3.092-17.58,4.19-25.702,3.487c-3.178-7.507-4.771-15.962-4.625-25.521c0.179-11.822,3.739-20.36,12.039-21.385
		c8.941-1.104,13.281,6.238,10.779,18.862c-0.258,1.303-0.466,2.591-0.624,3.864c1.161-0.544,2.322-1.139,3.482-1.788
		c11.232-6.281,19.557-4.422,21.269,4.423C673.354,1066.566,666.334,1072.589,655.146,1076.413z M671.764,579.646
		c-1.713,8.845-10.037,10.703-21.269,4.423c-1.16-0.649-2.321-1.244-3.482-1.788c0.158,1.272,0.366,2.56,0.624,3.864
		c2.502,12.624-1.838,19.966-10.779,18.862c-8.301-1.025-11.86-9.563-12.039-21.385c-0.145-9.56,1.448-18.014,4.625-25.521
		c8.122-0.702,16.655,0.395,25.702,3.487C666.334,565.411,673.354,571.434,671.764,579.646z M742.711,1114.448
		c-7.648,5.736-15.425,9.417-23.366,11.259c-5.342-6.158-9.47-13.706-12.286-22.843c-3.482-11.298-2.736-20.519,4.842-24.059
		c8.162-3.813,14.559,1.829,16.08,14.608c0.157,1.319,0.358,2.608,0.6,3.867c0.936-0.876,1.856-1.801,2.759-2.776
		c8.742-9.444,17.233-10.249,21.595-2.366C756.985,1099.456,752.169,1107.354,742.711,1114.448z M752.935,545.862
		c-4.362,7.883-12.853,7.078-21.595-2.366c-0.903-0.975-1.823-1.9-2.759-2.776c-0.243,1.259-0.443,2.548-0.6,3.867
		c-1.521,12.779-7.918,18.421-16.08,14.608c-7.578-3.54-8.324-12.76-4.842-24.059c2.816-9.137,6.944-16.685,12.286-22.843
		c7.941,1.842,15.718,5.522,23.366,11.259C752.169,530.646,756.985,538.544,752.935,545.862z M837.743,1123.562
		c-5.502,7.819-11.76,13.723-18.743,17.928c-6.983-4.206-13.242-10.109-18.743-17.928c-6.803-9.669-8.942-18.669-2.83-24.378
		c6.584-6.149,14.411-2.76,19.807,8.924c0.557,1.207,1.146,2.37,1.766,3.493c0.62-1.123,1.209-2.286,1.766-3.493
		c5.396-11.684,13.223-15.073,19.807-8.924C846.686,1104.893,844.546,1113.892,837.743,1123.562z M840.573,538.815
		c-6.584,6.149-14.411,2.76-19.807-8.924c-0.557-1.206-1.146-2.37-1.766-3.493c-0.62,1.122-1.209,2.286-1.766,3.493
		c-5.396,11.684-13.223,15.073-19.807,8.924c-6.113-5.709-3.974-14.708,2.83-24.378c5.501-7.819,11.76-13.723,18.743-17.928
		c6.984,4.206,13.242,10.109,18.743,17.928C844.546,524.107,846.686,533.107,840.573,538.815z M930.941,1102.864
		c-2.816,9.137-6.944,16.685-12.286,22.843c-7.941-1.842-15.718-5.522-23.366-11.259c-9.458-7.094-14.274-14.992-10.224-22.31
		c4.362-7.882,12.853-7.078,21.595,2.366c0.903,0.975,1.823,1.9,2.759,2.776c0.242-1.259,0.443-2.548,0.6-3.867
		c1.521-12.779,7.918-18.421,16.08-14.608C933.676,1082.345,934.423,1091.565,930.941,1102.864z M926.099,559.195
		c-8.162,3.813-14.559-1.829-16.08-14.608c-0.157-1.32-0.358-2.608-0.6-3.867c-0.936,0.876-1.856,1.801-2.759,2.776
		c-8.742,9.445-17.233,10.249-21.595,2.366c-4.05-7.318,0.766-15.216,10.224-22.31c7.648-5.736,15.425-9.417,23.366-11.259
		c5.342,6.158,9.47,13.706,12.286,22.843C934.423,546.435,933.676,555.655,926.099,559.195z M1008.555,1079.9
		c-8.122,0.703-16.655-0.395-25.702-3.487c-11.188-3.824-18.208-9.847-16.618-18.059c1.713-8.845,10.037-10.703,21.269-4.423
		c1.16,0.649,2.32,1.244,3.482,1.788c-0.158-1.272-0.366-2.56-0.624-3.864c-2.503-12.624,1.838-19.966,10.779-18.862
		c8.301,1.026,11.86,9.564,12.04,21.385C1013.326,1063.938,1011.733,1072.393,1008.555,1079.9z M1001.141,605.006
		c-8.941,1.104-13.281-6.238-10.779-18.862c0.258-1.303,0.466-2.591,0.624-3.864c-1.161,0.544-2.322,1.139-3.482,1.788
		c-11.233,6.281-19.557,4.422-21.269-4.423c-1.59-8.211,5.43-14.235,16.618-18.059c9.047-3.092,17.58-4.19,25.702-3.487
		c3.178,7.507,4.771,15.962,4.625,25.521C1013.001,595.443,1009.442,603.981,1001.141,605.006z M1141.49,819
		c-4.206,6.983-10.109,13.242-17.929,18.743c-9.669,6.803-18.669,8.942-24.378,2.83c-6.149-6.584-2.76-14.411,8.924-19.807
		c1.206-0.557,2.37-1.146,3.493-1.766c-1.122-0.62-2.286-1.209-3.493-1.766c-11.684-5.396-15.073-13.223-8.924-19.807
		c5.709-6.113,14.708-3.974,24.378,2.83C1131.381,805.758,1137.285,812.016,1141.49,819z M1102.864,707.059
		c9.136,2.816,16.685,6.944,22.843,12.286c-1.842,7.941-5.522,15.718-11.259,23.366c-7.094,9.458-14.992,14.274-22.31,10.224
		c-7.882-4.362-7.078-12.853,2.366-21.595c0.975-0.903,1.9-1.823,2.776-2.759c-1.259-0.243-2.548-0.443-3.867-0.6
		c-12.779-1.521-18.421-7.918-14.608-16.08C1082.345,704.323,1091.565,703.577,1102.864,707.059z M1032.994,636.859
		c1.025-8.301,9.563-11.86,21.385-12.04c9.56-0.145,18.014,1.448,25.521,4.626c0.702,8.122-0.395,16.655-3.487,25.702
		c-3.824,11.188-9.847,18.208-18.059,16.618c-8.845-1.712-10.704-10.037-4.423-21.269c0.649-1.16,1.244-2.321,1.788-3.482
		c-1.273,0.158-2.56,0.366-3.864,0.624C1039.232,650.14,1031.889,645.8,1032.994,636.859z M1079.9,1008.555
		c-7.507,3.178-15.962,4.771-25.521,4.626c-11.822-0.18-20.36-3.739-21.385-12.04c-1.104-8.941,6.238-13.281,18.862-10.779
		c1.304,0.258,2.591,0.466,3.864,0.624c-0.544-1.161-1.139-2.322-1.788-3.482c-6.281-11.233-4.422-19.557,4.423-21.269
		c8.211-1.59,14.235,5.43,18.059,16.618C1079.505,991.9,1080.603,1000.433,1079.9,1008.555z M1102.864,930.941
		c-11.299,3.482-20.519,2.736-24.059-4.842c-3.813-8.162,1.829-14.559,14.608-16.08c1.319-0.157,2.608-0.358,3.867-0.6
		c-0.876-0.936-1.801-1.856-2.776-2.759c-9.444-8.742-10.249-17.233-2.366-21.595c7.318-4.05,15.216,0.766,22.31,10.224
		c5.736,7.648,9.417,15.425,11.259,23.366C1119.549,923.997,1112,928.125,1102.864,930.941z"/>
	<path fill="none" d="M294.89,417.811c-10.914-1.735-22.646-3.508-35.054-5.067c5.317,11.319,10.629,21.929,15.652,31.773
		c33.825,66.298,92.321,94.179,162.973,103.475L277.481,431.033l-2.851-7.541l8.053,0.381l160.979,116.958
		C412.989,476.51,368.396,429.493,294.89,417.811z"/>
	<path fill="none" d="M304.259,508.601c-37.011-30.936-63.356-76.678-85.382-125.616c53.349,5.825,104.994,16.747,145.853,42.386
		c34.052,21.368,60.719,59.025,79.06,115.553l66.727,48.48c-20.007-18.472-37.277-39.626-51.085-65.903
		c-26.749-50.903-58.645-93.286-92.409-122.023c-33.339-28.376-79.65-44.417-124.716-50.524c-19.884-2.695-41.623-1.908-64.81,1.967
		c3.48,23.25,9.45,44.168,18.157,62.246c19.735,40.973,49.301,80.06,86.591,102.999c37.764,23.231,87.93,40.469,144.607,50.179
		c29.257,5.012,54.713,14.9,78.463,28.22l-66.727-48.48C379.158,548.108,335.103,534.383,304.259,508.601z"/>
	<path fill="none" d="M1193.483,1362.512c9.844,5.022,20.453,10.335,31.773,15.652c-1.559-12.408-3.333-24.141-5.067-35.055
		c-11.682-73.506-58.7-118.099-123.021-148.772l116.958,160.979l0.381,8.053l-7.541-2.851l-116.958-160.979
		C1099.304,1270.191,1127.185,1328.687,1193.483,1362.512z"/>
	<path fill="none" d="M425.37,364.729c-25.639-40.859-36.561-92.504-42.386-145.853c48.938,22.026,94.68,48.372,125.616,85.382
		c25.782,30.845,39.507,74.899,39.483,134.328l48.48,66.727c-13.319-23.75-23.208-49.206-28.22-78.463
		c-9.71-56.677-26.948-106.842-50.179-144.607c-22.939-37.29-62.026-66.856-102.999-86.591
		c-18.078-8.707-38.996-14.677-62.246-18.157c-3.875,23.187-4.661,44.926-1.967,64.81c6.107,45.066,22.148,91.376,50.524,124.716
		c28.737,33.764,71.12,65.66,122.023,92.409c26.276,13.808,47.43,31.078,65.903,51.085l-48.48-66.726
		C484.396,425.448,446.738,398.781,425.37,364.729z"/>
	<path fill="none" d="M1007.2,1451.633c7.81,7.818,16.259,16.149,25.381,24.704c2.352-12.283,4.29-23.989,6.013-34.905
		c11.604-73.518-19.332-130.458-71.027-179.506l61.488,189.242l-2.126,7.776l-6.291-5.042l-61.489-189.242
		C946.159,1334.727,954.599,1398.976,1007.2,1451.633z"/>
	<path fill="none" d="M1052.986,1372.675c11.758,46.782,6.186,99.274-4.76,151.812c-39.736-36.071-75.098-75.262-93.084-120.021
		c-14.989-37.302-14.428-83.442,3.96-139.955l-25.487-78.442c5.328,26.704,6.866,53.969,2.592,83.343
		c-8.28,56.904-7.387,109.94,3.037,153.035c10.293,42.553,38.33,82.751,71.2,114.181c14.503,13.868,32.552,26.009,53.589,36.503
		c10.85-20.855,18.316-41.287,21.898-61.031c8.118-44.748,7.173-93.748-9.512-134.224c-16.897-40.992-47.349-84.424-87.495-125.593
		c-20.724-21.252-35.505-44.214-46.891-68.949l25.487,78.442C1015.613,1296.688,1043.187,1333.687,1052.986,1372.675z"/>
	<path fill="none" d="M444.516,275.487c-9.844-5.022-20.454-10.335-31.773-15.652c1.559,12.408,3.333,24.141,5.067,35.055
		c11.682,73.506,58.7,118.099,123.021,148.772L423.873,282.683l-0.381-8.053l7.541,2.851L547.991,438.46
		C538.696,367.808,510.815,309.312,444.516,275.487z"/>
	<path fill="none" d="M196.568,599.405c-10.916,1.723-22.622,3.661-34.905,6.013c8.555,9.122,16.886,17.571,24.704,25.381
		c52.657,52.601,116.906,61.041,186.972,48.049L184.097,617.36l-5.042-6.291l7.777-2.126l189.242,61.488
		C327.025,618.737,270.086,587.801,196.568,599.405z"/>
	<path fill="none" d="M1212.629,1273.271c25.639,40.859,36.561,92.504,42.386,145.853c-48.938-22.026-94.68-48.372-125.616-85.382
		c-25.782-30.845-39.507-74.9-39.483-134.328l-48.479-66.727c13.319,23.75,23.207,49.206,28.219,78.463
		c9.71,56.677,26.948,106.842,50.179,144.607c22.939,37.29,62.026,66.856,102.999,86.591c18.078,8.707,38.996,14.677,62.246,18.157
		c3.875-23.187,4.661-44.926,1.967-64.81c-6.107-45.066-22.148-91.376-50.524-124.716c-28.737-33.764-71.12-65.66-122.023-92.409
		c-26.276-13.808-47.43-31.078-65.903-51.084l48.48,66.726C1153.604,1212.552,1191.261,1239.219,1212.629,1273.271z"/>
	<path fill="none" d="M233.533,682.856c-44.759-17.985-83.95-53.347-120.021-93.083c52.538-10.945,105.03-16.518,151.812-4.759
		c38.988,9.799,75.987,37.373,110.898,85.467l78.442,25.487c-24.736-11.386-47.698-26.167-68.95-46.891
		c-41.169-40.146-84.602-70.598-125.593-87.495c-40.476-16.685-89.477-17.63-134.225-9.512
		c-19.743,3.582-40.175,11.048-61.03,21.898c10.494,21.036,22.636,39.086,36.503,53.589c31.43,32.869,71.628,60.907,114.181,71.2
		c43.095,10.424,96.132,11.317,153.035,3.037c29.374-4.274,56.639-2.736,83.343,2.592l-78.442-25.487
		C316.975,697.285,270.835,697.845,233.533,682.856z"/>
	<path d="M1052.986,265.324c11.758-46.782,6.186-99.274-4.76-151.812c-39.736,36.071-75.098,75.262-93.084,120.021
		c-14.989,37.302-14.428,83.442,3.96,139.955l0.048-0.149c-12.992-70.066-4.552-134.315,48.049-186.972
		c7.81-7.818,16.259-16.149,25.381-24.704c2.352,12.283,4.29,23.989,6.013,34.905c11.604,73.518-19.332,130.457-71.027,179.506
		l-0.049,0.149C1015.613,341.311,1043.187,304.313,1052.986,265.324z"/>
	<path d="M1212.629,364.729c25.639-40.859,36.561-92.504,42.386-145.853c-48.938,22.026-94.68,48.372-125.616,85.382
		c-25.782,30.845-39.507,74.9-39.483,134.328l0.092-0.127c9.296-70.652,37.176-129.148,103.475-162.973
		c9.844-5.022,20.453-10.335,31.773-15.652c-1.559,12.408-3.333,24.141-5.067,35.055c-11.682,73.506-58.7,118.099-123.021,148.772
		l-0.092,0.127C1153.604,425.448,1191.261,398.781,1212.629,364.729z"/>
	<path d="M1419.124,382.984c-53.349,5.825-104.994,16.747-145.853,42.386c-34.052,21.368-60.719,59.025-79.06,115.553l0.127-0.092
		c30.673-64.321,75.266-111.339,148.771-123.021c10.914-1.735,22.646-3.508,35.055-5.067c-5.317,11.319-10.629,21.929-15.652,31.773
		c-33.825,66.298-92.321,94.179-162.973,103.475l-0.127,0.092c59.429,0.025,103.484-13.701,134.328-39.483
		C1370.752,477.664,1397.098,431.922,1419.124,382.984z"/>
	<path d="M1404.466,682.856c44.759-17.985,83.951-53.347,120.021-93.083c-52.538-10.945-105.03-16.518-151.812-4.759
		c-38.988,9.799-75.987,37.373-110.899,85.467l0.149-0.048c49.048-51.695,105.988-82.631,179.506-71.027
		c10.916,1.723,22.622,3.661,34.905,6.013c-8.555,9.122-16.886,17.571-24.704,25.381c-52.657,52.601-116.906,61.041-186.972,48.049
		l-0.149,0.049C1321.024,697.285,1367.164,697.845,1404.466,682.856z"/>
	<path d="M1417.882,870.439c48.126-3.274,96.327-24.794,142.911-51.439c-46.584-26.645-94.785-48.165-142.911-51.439
		c-40.108-2.728-83.817,12.063-131.881,47.014h0.157c62.622-34.008,126.334-45.835,192.669-12.08
		c9.849,5.012,20.383,10.473,31.338,16.505c-10.955,6.032-21.489,11.493-31.338,16.505c-66.334,33.755-130.047,21.928-192.669-12.08
		h-0.157C1334.065,858.376,1377.774,873.167,1417.882,870.439z"/>
	<path d="M1451.633,1007.2c7.818,7.81,16.149,16.259,24.704,25.381c-12.283,2.352-23.989,4.29-34.905,6.013
		c-73.518,11.604-130.458-19.332-179.506-71.027l-0.149-0.049c34.912,48.094,71.91,75.667,110.899,85.467
		c46.782,11.758,99.274,6.186,151.812-4.759c-36.071-39.736-75.262-75.098-120.021-93.083
		c-37.302-14.989-83.442-14.428-139.955,3.96l0.149,0.048C1334.727,946.159,1398.976,954.599,1451.633,1007.2z"/>
	<path d="M1273.271,1212.629c40.859,25.639,92.504,36.561,145.853,42.386c-22.026-48.938-48.372-94.68-85.382-125.616
		c-30.845-25.782-74.9-39.507-134.328-39.483l0.127,0.092c70.652,9.296,129.148,37.176,162.973,103.475
		c5.022,9.844,10.335,20.453,15.652,31.773c-12.408-1.559-24.141-3.333-35.055-5.067c-73.506-11.682-118.099-58.699-148.772-123.021
		l-0.127-0.092C1212.552,1153.604,1239.219,1191.261,1273.271,1212.629z"/>
	<path d="M1255.015,1419.124c-5.825-53.349-16.746-104.994-42.386-145.853c-21.368-34.052-59.025-60.719-115.553-79.06l0.092,0.127
		c64.321,30.673,111.339,75.266,123.021,148.772c1.734,10.914,3.508,22.646,5.067,35.055c-11.32-5.317-21.929-10.63-31.773-15.652
		c-66.299-33.825-94.179-92.321-103.475-162.973l-0.092-0.127c-0.025,59.429,13.701,103.484,39.483,134.328
		C1160.335,1370.752,1206.078,1397.098,1255.015,1419.124z"/>
	<path d="M955.143,1404.466c17.985,44.759,53.347,83.951,93.084,120.021c10.946-52.538,16.518-105.03,4.76-151.812
		c-9.799-38.988-37.373-75.987-85.467-110.899l0.049,0.149c51.694,49.048,82.631,105.987,71.027,179.506
		c-1.723,10.916-3.662,22.622-6.013,34.905c-9.122-8.555-17.571-16.886-25.381-24.704c-52.601-52.657-61.041-116.906-48.049-186.972
		l-0.048-0.149C940.715,1321.024,940.154,1367.164,955.143,1404.466z"/>
	<path d="M767.561,1417.882c3.274,48.126,24.794,96.327,51.439,142.911c26.645-46.584,48.166-94.785,51.439-142.911
		c2.728-40.108-12.063-83.817-47.014-131.881v0.157c34.008,62.622,45.835,126.334,12.08,192.669
		c-5.012,9.849-10.473,20.383-16.505,31.338c-6.032-10.955-11.493-21.489-16.505-31.338
		c-33.755-66.334-21.927-130.047,12.08-192.669v-0.157C779.623,1334.066,764.833,1377.774,767.561,1417.882z"/>
	<path d="M585.014,1372.675c-11.758,46.782-6.186,99.274,4.759,151.812c39.736-36.071,75.098-75.262,93.084-120.021
		c14.989-37.302,14.428-83.442-3.959-139.955l-0.049,0.149c12.992,70.066,4.552,134.315-48.049,186.972
		c-7.81,7.818-16.259,16.149-25.381,24.704c-2.352-12.283-4.29-23.989-6.013-34.905c-11.604-73.518,19.332-130.458,71.027-179.506
		l0.048-0.149C622.387,1296.688,594.813,1333.687,585.014,1372.675z"/>
	<path d="M425.37,1273.271c-25.639,40.859-36.561,92.504-42.386,145.853c48.938-22.026,94.68-48.372,125.616-85.382
		c25.782-30.845,39.507-74.9,39.483-134.328l-0.092,0.127c-9.296,70.652-37.176,129.148-103.475,162.973
		c-9.844,5.022-20.454,10.335-31.773,15.652c1.559-12.408,3.333-24.141,5.067-35.055c11.682-73.506,58.7-118.099,123.021-148.772
		l0.092-0.127C484.396,1212.552,446.738,1239.219,425.37,1273.271z"/>
	<path d="M218.876,1255.015c53.349-5.825,104.994-16.746,145.853-42.386c34.052-21.368,60.719-59.025,79.06-115.553l-0.127,0.092
		c-30.673,64.321-75.266,111.339-148.772,123.021c-10.914,1.734-22.646,3.508-35.054,5.067c5.317-11.32,10.629-21.929,15.652-31.773
		c33.825-66.298,92.321-94.179,162.973-103.475l0.127-0.092c-59.429-0.025-103.484,13.701-134.328,39.483
		C267.248,1160.335,240.902,1206.077,218.876,1255.015z"/>
	<path d="M233.533,955.143c-44.759,17.985-83.95,53.347-120.021,93.083c52.538,10.945,105.03,16.518,151.812,4.759
		c38.988-9.799,75.987-37.373,110.898-85.467l-0.149,0.049c-49.048,51.695-105.988,82.631-179.506,71.027
		c-10.916-1.723-22.622-3.661-34.905-6.013c8.555-9.122,16.886-17.571,24.704-25.381c52.657-52.601,116.906-61.041,186.972-48.049
		l0.149-0.048C316.975,940.715,270.835,940.154,233.533,955.143z"/>
	<path d="M220.117,767.561C171.991,770.834,123.79,792.355,77.206,819c46.584,26.645,94.785,48.165,142.911,51.439
		c40.108,2.728,83.817-12.063,131.881-47.014h-0.157c-62.622,34.008-126.335,45.835-192.669,12.08
		c-9.849-5.012-20.383-10.473-31.338-16.505c10.955-6.032,21.489-11.493,31.338-16.505c66.334-33.755,130.047-21.928,192.669,12.08
		h0.157C303.934,779.623,260.226,764.833,220.117,767.561z"/>
	<path d="M265.324,585.013c-46.782-11.758-99.274-6.186-151.812,4.759c36.071,39.736,75.262,75.098,120.021,93.083
		c37.302,14.989,83.442,14.428,139.955-3.959l-0.149-0.049c-70.066,12.992-134.315,4.552-186.972-48.049
		c-7.818-7.81-16.149-16.259-24.704-25.381c12.283-2.352,23.989-4.29,34.905-6.013c73.518-11.604,130.458,19.332,179.506,71.027
		l0.149,0.048C341.311,622.387,304.313,594.813,265.324,585.013z"/>
	<path d="M364.729,425.37c-40.859-25.639-92.504-36.561-145.853-42.386c22.026,48.938,48.372,94.68,85.382,125.616
		c30.845,25.782,74.899,39.507,134.328,39.483l-0.127-0.092c-70.652-9.296-129.148-37.176-162.973-103.475
		c-5.022-9.844-10.335-20.454-15.652-31.773c12.408,1.559,24.141,3.333,35.054,5.067c73.506,11.682,118.099,58.699,148.772,123.021
		l0.127,0.092C425.448,484.396,398.781,446.738,364.729,425.37z"/>
	<path d="M382.984,218.876c5.825,53.349,16.746,104.994,42.386,145.853c21.368,34.052,59.025,60.719,115.553,79.06l-0.092-0.127
		c-64.321-30.673-111.339-75.266-123.021-148.772c-1.735-10.914-3.508-22.646-5.067-35.055c11.319,5.317,21.929,10.63,31.773,15.652
		c66.298,33.825,94.179,92.321,103.475,162.973l0.092,0.127c0.025-59.429-13.701-103.484-39.483-134.328
		C477.664,267.248,431.922,240.902,382.984,218.876z"/>
	<path d="M682.857,233.533c-17.985-44.759-53.347-83.951-93.084-120.021c-10.945,52.538-16.518,105.03-4.759,151.812
		c9.799,38.988,37.373,75.987,85.466,110.898l-0.048-0.149c-51.695-49.048-82.631-105.987-71.027-179.506
		c1.723-10.916,3.661-22.622,6.013-34.905c9.122,8.555,17.571,16.886,25.381,24.704c52.601,52.657,61.041,116.906,48.049,186.972
		l0.049,0.149C697.285,316.975,697.845,270.835,682.857,233.533z"/>
	<path d="M870.439,220.117C867.165,171.991,845.645,123.79,819,77.206c-26.645,46.584-48.165,94.785-51.439,142.911
		c-2.728,40.108,12.063,83.817,47.014,131.881v-0.157c-34.008-62.622-45.835-126.334-12.08-192.669
		c5.012-9.849,10.473-20.383,16.505-31.338c6.032,10.955,11.493,21.489,16.505,31.338c33.755,66.334,21.928,130.047-12.08,192.669
		v0.157C858.376,303.934,873.167,260.226,870.439,220.117z"/>
	<path d="M1430.045,933.474c-37.083-10.549-74.813-12.379-112.05-8.029c-45.963,5.37-88.795,12.237-120.024,2.425
		c-25.13-7.896-46.197-22.042-49.378-48.771c-0.38-3.197-1.066-5.948-2.009-8.215c1.597-1.865,3.099-4.269,4.449-7.193
		c11.286-24.438,35.692-31.382,62.032-31.125c32.732,0.319,71.346,20.086,113.4,39.396c34.07,15.644,70.519,25.563,109.047,26.99
		c71.245,2.638,130.114-26.203,177.826-76.18l5.637-0.005c0.006-1.256,0.024-2.509,0.024-3.767c0-1.258-0.018-2.511-0.024-3.767
		l-5.637-0.005c-47.712-49.977-106.582-78.818-177.826-76.18c-38.528,1.427-74.976,11.346-109.047,26.99
		c-42.054,19.31-80.668,39.077-113.4,39.396c-26.34,0.257-50.747-6.687-62.032-31.125c-1.35-2.923-2.852-5.327-4.449-7.193
		c0.942-2.267,1.628-5.018,2.009-8.215c3.182-26.729,24.248-40.875,49.378-48.771c31.229-9.811,74.061-2.944,120.024,2.425
		c37.237,4.35,74.967,2.52,112.05-8.029c68.573-19.507,115.648-65.128,145.582-127.403l5.565-1.814
		c-0.765-2.393-1.54-4.781-2.327-7.165l-5.569,1.804c-60.821-32.787-125.722-42.025-192.664-17.5
		c-36.201,13.263-67.801,33.959-95.369,59.366c-34.028,31.36-64.644,62.092-95.676,72.51c-24.972,8.384-50.329,9.322-68.614-10.433
		c-2.187-2.363-4.359-4.185-6.454-5.466c0.196-2.448-0.002-5.276-0.628-8.434c-5.234-26.404,10.43-46.368,31.891-61.642
		c26.668-18.981,69.526-25.686,114.899-34.783c36.759-7.37,72.076-20.769,104.085-42.261
		c59.189-39.742,89.863-97.678,99.087-166.155l4.606-3.353c-1.469-2.038-2.944-4.069-4.431-6.092l-4.609,3.342
		c-67.976-12.388-132.555-1.118-188.642,42.893c-30.331,23.8-53.989,53.249-72.356,85.931
		c-22.672,40.341-42.293,79.029-68.586,98.527c-21.159,15.69-44.986,24.418-68.48,11.281c-2.81-1.571-5.439-2.633-7.827-3.204
		c-0.57-2.388-1.632-5.017-3.204-7.827c-13.137-23.495-4.409-47.321,11.281-68.48c19.497-26.293,58.186-45.914,98.527-68.586
		c32.682-18.368,62.131-42.025,85.931-72.356c44.011-56.087,55.281-120.666,42.893-188.642l3.342-4.609
		c-2.023-1.487-4.055-2.963-6.092-4.431l-3.353,4.606c-68.477,9.224-126.413,39.898-166.155,99.087
		c-21.492,32.008-34.891,67.326-42.261,104.085c-9.097,45.372-15.801,88.231-34.783,114.899
		c-15.275,21.461-35.238,37.125-61.643,31.89c-3.158-0.626-5.986-0.824-8.434-0.628c-1.281-2.095-3.103-4.267-5.466-6.454
		c-19.755-18.285-18.816-43.643-10.433-68.615c10.418-31.031,41.15-61.647,72.51-95.675c25.407-27.568,46.103-59.168,59.366-95.369
		c24.525-66.942,15.287-131.843-17.5-192.664l1.804-5.569c-2.383-0.786-4.772-1.562-7.165-2.326l-1.814,5.565
		c-62.275,29.933-107.896,77.009-127.403,145.582c-10.549,37.083-12.379,74.813-8.029,112.05
		c5.37,45.963,12.237,88.795,2.425,120.024c-7.895,25.13-22.041,46.197-48.771,49.378c-3.197,0.381-5.948,1.066-8.215,2.009
		c-1.865-1.597-4.269-3.099-7.193-4.449c-24.438-11.286-31.382-35.692-31.125-62.032c0.319-32.732,20.086-71.346,39.396-113.4
		c15.644-34.07,25.563-70.519,26.99-109.047c2.638-71.245-26.203-130.114-76.18-177.826l-0.005-5.637
		C821.51,19.018,820.257,19,819,19c-1.257,0-2.51,0.018-3.767,0.024l-0.005,5.637c-49.977,47.712-78.819,106.582-76.18,177.826
		c1.427,38.528,11.346,74.976,26.99,109.047c19.31,42.054,39.077,80.668,39.396,113.4c0.257,26.34-6.687,50.747-31.125,62.032
		c-2.923,1.35-5.327,2.852-7.193,4.449c-2.267-0.942-5.018-1.628-8.215-2.009c-26.729-3.181-40.875-24.248-48.771-49.378
		c-9.811-31.228-2.944-74.061,2.426-120.024c4.35-37.237,2.52-74.967-8.029-112.05c-19.507-68.573-65.128-115.649-127.403-145.582
		l-1.814-5.565c-2.393,0.765-4.782,1.54-7.165,2.326l1.804,5.569c-32.787,60.821-42.025,125.722-17.5,192.664
		c13.263,36.201,33.959,67.801,59.366,95.369c31.36,34.029,62.092,64.644,72.51,95.675c8.384,24.972,9.322,50.33-10.433,68.615
		c-2.363,2.187-4.185,4.359-5.466,6.454c-2.448-0.195-5.276,0.002-8.434,0.628c-26.404,5.234-46.368-10.43-61.643-31.89
		c-18.981-26.668-25.686-69.526-34.783-114.899c-7.37-36.759-20.769-72.076-42.261-104.085
		c-39.742-59.189-97.678-89.863-166.155-99.087l-3.353-4.606c-2.038,1.468-4.069,2.944-6.092,4.431l3.342,4.609
		c-12.388,67.976-1.118,132.555,42.893,188.642c23.8,30.331,53.249,53.988,85.931,72.356c40.341,22.672,79.029,42.293,98.527,68.586
		c15.69,21.159,24.418,44.986,11.281,68.48c-1.571,2.81-2.633,5.439-3.204,7.827c-2.388,0.57-5.017,1.632-7.827,3.204
		c-23.495,13.137-47.321,4.409-68.48-11.281c-26.293-19.497-45.914-58.186-68.586-98.527
		c-18.368-32.682-42.025-62.131-72.356-85.931c-56.087-44.011-120.666-55.28-188.642-42.893l-4.609-3.342
		c-1.487,2.023-2.963,4.055-4.431,6.092l4.606,3.353c9.224,68.477,39.898,126.413,99.087,166.155
		c32.008,21.492,67.326,34.891,104.085,42.261c45.372,9.096,88.231,15.801,114.899,34.783
		c21.461,15.275,37.125,35.238,31.891,61.642c-0.626,3.159-0.824,5.986-0.628,8.434c-2.095,1.281-4.267,3.103-6.454,5.466
		c-18.285,19.755-43.643,18.816-68.615,10.433c-31.031-10.418-61.647-41.15-95.676-72.51
		c-27.568-25.407-59.168-46.103-95.369-59.366c-66.942-24.525-131.843-15.287-192.664,17.5l-5.569-1.804
		c-0.786,2.383-1.562,4.772-2.326,7.165l5.565,1.814c29.933,62.275,77.009,107.896,145.582,127.403
		c37.083,10.549,74.813,12.379,112.05,8.029c45.963-5.37,88.795-12.237,120.024-2.425c25.13,7.896,46.197,22.042,49.378,48.771
		c0.381,3.197,1.066,5.948,2.009,8.215c-1.597,1.865-3.099,4.269-4.449,7.193c-11.285,24.438-35.692,31.382-62.032,31.125
		c-32.732-0.319-71.346-20.086-113.4-39.396c-34.07-15.644-70.519-25.563-109.047-26.99c-71.245-2.638-130.114,26.203-177.826,76.18
		l-5.637,0.005C19.018,816.489,19,817.742,19,819c0,1.257,0.018,2.511,0.024,3.767l5.637,0.005
		c47.713,49.977,106.582,78.818,177.826,76.18c38.528-1.427,74.976-11.345,109.047-26.99c42.054-19.31,80.668-39.077,113.4-39.396
		c26.34-0.257,50.747,6.687,62.032,31.125c1.35,2.923,2.852,5.327,4.449,7.193c-0.942,2.268-1.628,5.018-2.009,8.215
		c-3.181,26.729-24.248,40.875-49.378,48.771c-31.228,9.812-74.061,2.944-120.024-2.425c-37.237-4.35-74.967-2.52-112.05,8.029
		c-68.573,19.507-115.649,65.128-145.582,127.403l-5.565,1.814c0.764,2.393,1.54,4.782,2.326,7.165l5.569-1.804
		c60.821,32.787,125.722,42.025,192.664,17.5c36.201-13.263,67.801-33.959,95.369-59.366c34.029-31.36,64.644-62.092,95.676-72.51
		c24.972-8.384,50.33-9.322,68.615,10.433c2.187,2.363,4.359,4.185,6.454,5.466c-0.196,2.448,0.002,5.276,0.628,8.434
		c5.234,26.404-10.43,46.368-31.891,61.643c-26.668,18.981-69.526,25.686-114.899,34.783c-36.759,7.37-72.076,20.769-104.085,42.261
		c-59.189,39.742-89.863,97.678-99.087,166.155l-4.606,3.353c1.468,2.038,2.944,4.069,4.431,6.092l4.609-3.342
		c67.976,12.388,132.555,1.118,188.642-42.893c30.331-23.8,53.988-53.249,72.356-85.931c22.672-40.341,42.293-79.029,68.586-98.527
		c21.159-15.69,44.986-24.418,68.48-11.281c2.81,1.571,5.439,2.633,7.827,3.204c0.57,2.388,1.632,5.017,3.204,7.827
		c13.137,23.494,4.409,47.321-11.281,68.48c-19.497,26.293-58.186,45.914-98.527,68.586c-32.682,18.368-62.131,42.025-85.931,72.356
		c-44.011,56.088-55.28,120.666-42.893,188.642l-3.342,4.609c2.023,1.487,4.055,2.963,6.092,4.431l3.353-4.606
		c68.477-9.224,126.413-39.898,166.155-99.087c21.492-32.008,34.891-67.326,42.261-104.085
		c9.096-45.372,15.801-88.231,34.783-114.899c15.275-21.46,35.238-37.125,61.643-31.89c3.158,0.626,5.986,0.824,8.434,0.628
		c1.28,2.095,3.102,4.267,5.466,6.454c19.754,18.285,18.816,43.643,10.433,68.614c-10.418,31.031-41.15,61.647-72.51,95.676
		c-25.407,27.568-46.103,59.168-59.366,95.369c-24.525,66.942-15.287,131.843,17.5,192.664l-1.804,5.569
		c2.383,0.786,4.772,1.562,7.165,2.327l1.814-5.565c62.275-29.933,107.896-77.009,127.403-145.582
		c10.549-37.083,12.379-74.813,8.029-112.05c-5.37-45.963-12.237-88.795-2.426-120.024c7.896-25.13,22.042-46.197,48.771-49.378
		c3.197-0.38,5.948-1.066,8.215-2.009c1.865,1.597,4.269,3.099,7.193,4.449c24.438,11.286,31.382,35.692,31.125,62.032
		c-0.319,32.732-20.086,71.346-39.396,113.4c-15.644,34.07-25.563,70.519-26.99,109.047c-2.638,71.245,26.203,130.114,76.18,177.826
		l0.005,5.637c1.256,0.006,2.509,0.024,3.767,0.024c1.258,0,2.511-0.018,3.767-0.024l0.005-5.637
		c49.977-47.712,78.818-106.582,76.18-177.826c-1.427-38.528-11.345-74.976-26.99-109.047c-19.31-42.054-39.077-80.668-39.396-113.4
		c-0.256-26.34,6.687-50.747,31.125-62.032c2.923-1.35,5.327-2.852,7.193-4.449c2.268,0.942,5.018,1.628,8.215,2.009
		c26.729,3.182,40.875,24.248,48.771,49.378c9.812,31.229,2.944,74.061-2.425,120.024c-4.35,37.237-2.52,74.967,8.029,112.05
		c19.507,68.573,65.128,115.649,127.403,145.582l1.814,5.565c2.393-0.764,4.781-1.54,7.165-2.327l-1.804-5.569
		c32.787-60.821,42.025-125.722,17.5-192.664c-13.263-36.201-33.959-67.801-59.366-95.369c-31.36-34.028-62.092-64.644-72.51-95.676
		c-8.383-24.972-9.322-50.329,10.433-68.614c2.363-2.187,4.185-4.359,5.466-6.454c2.448,0.195,5.276-0.002,8.434-0.628
		c26.404-5.234,46.368,10.43,61.643,31.89c18.981,26.668,25.686,69.526,34.783,114.899c7.37,36.759,20.769,72.076,42.261,104.085
		c39.742,59.189,97.678,89.863,166.155,99.087l3.353,4.606c2.038-1.469,4.069-2.944,6.092-4.431l-3.342-4.609
		c12.388-67.976,1.118-132.555-42.893-188.642c-23.8-30.331-53.249-53.989-85.931-72.356
		c-40.341-22.672-79.029-42.293-98.527-68.586c-15.69-21.159-24.418-44.986-11.281-68.48c1.572-2.81,2.633-5.439,3.204-7.827
		c2.388-0.57,5.017-1.632,7.827-3.204c23.494-13.137,47.321-4.409,68.48,11.281c26.293,19.497,45.914,58.186,68.586,98.527
		c18.368,32.682,42.025,62.131,72.356,85.931c56.088,44.011,120.666,55.281,188.642,42.893l4.609,3.342
		c1.487-2.023,2.963-4.055,4.431-6.092l-4.606-3.353c-9.224-68.477-39.898-126.413-99.087-166.155
		c-32.008-21.492-67.326-34.891-104.085-42.261c-45.372-9.097-88.231-15.801-114.899-34.783
		c-21.461-15.275-37.125-35.238-31.891-61.643c0.626-3.159,0.824-5.986,0.628-8.434c2.095-1.281,4.267-3.103,6.454-5.466
		c18.285-19.755,43.643-18.816,68.614-10.433c31.031,10.418,61.647,41.15,95.676,72.51c27.568,25.407,59.168,46.103,95.369,59.366
		c66.942,24.525,131.843,15.287,192.664-17.5l5.569,1.804c0.786-2.383,1.562-4.772,2.327-7.165l-5.565-1.814
		C1545.693,998.601,1498.618,952.98,1430.045,933.474z M1512.103,1085.93c-44.748,8.118-93.748,7.173-134.225-9.512
		c-40.992-16.897-84.424-47.349-125.593-87.495c-21.252-20.724-44.214-35.505-68.949-46.891l-31.245-10.152
		c-14.714-1.655-28.806,2.023-42.489,12.285c-7.188,5.391-11.695,11.247-11.667,16.96c-4.638,3.335-6.727,10.423-6.863,19.407
		c-0.26,17.114,5.063,30.681,15.065,41.616l26.549,19.289c23.75,13.319,49.206,23.208,78.464,28.22
		c56.677,9.71,106.842,26.948,144.607,50.179c37.29,22.939,66.856,62.026,86.591,102.999c8.707,18.078,14.677,38.996,18.157,62.246
		c-23.187,3.875-44.926,4.661-64.81,1.967c-45.066-6.107-91.376-22.148-124.716-50.524c-33.764-28.737-65.66-71.12-92.409-122.023
		c-13.808-26.276-31.078-47.43-51.084-65.902l-26.579-19.311c-13.482-6.12-28.021-6.978-44.205-1.446
		c-8.502,2.906-14.598,7.083-16.336,12.525c-5.442,1.738-9.619,7.834-12.525,16.336c-5.532,16.184-4.674,30.723,1.446,44.205
		l19.31,26.579c18.472,20.007,39.626,37.277,65.903,51.084c50.903,26.749,93.286,58.645,122.023,92.409
		c28.376,33.339,44.417,79.65,50.524,124.716c2.695,19.884,1.908,41.623-1.967,64.81c-23.25-3.48-44.168-9.45-62.246-18.157
		c-40.973-19.735-80.06-49.301-102.999-86.591c-23.231-37.764-40.469-87.929-50.179-144.607
		c-5.012-29.257-14.9-54.713-28.219-78.463l-19.29-26.55c-10.935-10.001-24.501-15.324-41.615-15.064
		c-8.984,0.136-16.072,2.225-19.407,6.863c-5.713-0.028-11.568,4.478-16.96,11.666c-10.262,13.683-13.939,27.775-12.285,42.489
		l10.152,31.245c11.385,24.735,26.167,47.698,46.891,68.949c40.146,41.169,70.598,84.602,87.495,125.593
		c16.685,40.476,17.63,89.477,9.512,134.224c-3.582,19.744-11.047,40.176-21.898,61.031c-21.036-10.494-39.086-22.636-53.589-36.503
		c-32.869-31.43-60.907-71.628-71.2-114.181c-10.424-43.095-11.317-96.132-3.037-153.035c4.274-29.374,2.736-56.639-2.592-83.343
		l-10.141-31.211c-7.309-12.891-18.567-22.146-34.924-27.187c-8.587-2.647-15.973-2.85-20.578,0.531
		c-5.424-1.793-12.386,0.684-19.735,5.854c-13.988,9.842-21.84,22.108-24.813,36.613v32.853
		c3.185,27.043,10.148,53.449,23.289,80.065c25.459,51.56,40.999,102.277,44.402,146.484c3.36,43.651-10.883,90.546-32.431,130.595
		c-9.507,17.67-22.922,34.795-39.686,51.276c-16.764-16.481-30.178-33.606-39.685-51.276
		c-21.548-40.049-35.792-86.943-32.431-130.595c3.403-44.207,18.943-94.924,44.402-146.484
		c13.142-26.616,20.105-53.022,23.289-80.065v-32.853c-2.973-14.504-10.825-26.771-24.813-36.613
		c-7.349-5.17-14.311-7.647-19.735-5.854c-4.605-3.381-11.991-3.177-20.578-0.531c-16.357,5.041-27.614,14.296-34.924,27.187
		l-10.141,31.211c-5.328,26.704-6.866,53.969-2.592,83.343c8.28,56.904,7.387,109.94-3.037,153.035
		c-10.293,42.553-38.33,82.751-71.2,114.181c-14.503,13.868-32.552,26.009-53.589,36.503c-10.85-20.855-18.316-41.287-21.898-61.031
		c-8.118-44.748-7.173-93.748,9.512-134.224c16.897-40.992,47.349-84.424,87.495-125.593c20.724-21.252,35.505-44.214,46.891-68.949
		l10.152-31.245c1.655-14.714-2.022-28.806-12.284-42.489c-5.391-7.188-11.247-11.695-16.96-11.666
		c-3.335-4.638-10.423-6.727-19.407-6.863c-17.114-0.26-30.68,5.063-41.615,15.065l-19.29,26.55
		c-13.319,23.75-23.208,49.206-28.22,78.463c-9.71,56.677-26.948,106.842-50.179,144.607
		c-22.939,37.29-62.026,66.856-102.999,86.591c-18.078,8.707-38.996,14.677-62.246,18.157c-3.875-23.187-4.661-44.926-1.967-64.81
		c6.107-45.066,22.148-91.376,50.524-124.716c28.737-33.764,71.12-65.66,122.023-92.409c26.276-13.808,47.43-31.078,65.903-51.084
		l19.311-26.579c6.12-13.482,6.978-28.021,1.446-44.205c-2.906-8.502-7.083-14.598-12.524-16.336
		c-1.738-5.442-7.834-9.618-16.336-12.525c-16.184-5.532-30.723-4.674-44.205,1.446l-26.579,19.311
		c-20.007,18.472-37.277,39.626-51.085,65.902c-26.749,50.903-58.645,93.286-92.409,122.023
		c-33.339,28.376-79.65,44.417-124.716,50.524c-19.884,2.695-41.623,1.908-64.81-1.967c3.48-23.25,9.45-44.168,18.157-62.246
		c19.735-40.973,49.301-80.06,86.591-102.999c37.764-23.231,87.93-40.469,144.607-50.179c29.257-5.012,54.713-14.9,78.463-28.22
		l26.55-19.289c10.002-10.935,15.325-24.501,15.065-41.616c-0.136-8.984-2.225-16.072-6.863-19.407
		c0.028-5.713-4.478-11.569-11.666-16.96c-13.683-10.262-27.775-13.939-42.489-12.285l-31.245,10.152
		c-24.736,11.386-47.698,26.168-68.95,46.891c-41.169,40.146-84.602,70.598-125.593,87.495
		c-40.476,16.685-89.477,17.63-134.225,9.512c-19.743-3.582-40.175-11.047-61.03-21.898c10.494-21.036,22.636-39.086,36.503-53.589
		c31.43-32.869,71.628-60.907,114.181-71.2c43.095-10.424,96.132-11.317,153.035-3.037c29.374,4.274,56.64,2.736,83.344-2.592
		l31.211-10.141c12.891-7.309,22.146-18.567,27.187-34.924c2.647-8.587,2.851-15.973-0.53-20.578
		c1.792-5.424-0.684-12.386-5.855-19.735c-9.842-13.988-22.108-21.84-36.613-24.813h-32.853
		c-27.043,3.185-53.449,10.147-80.065,23.289c-51.56,25.459-102.277,40.999-146.484,44.402
		c-43.651,3.36-90.546-10.883-130.595-32.431c-17.67-9.507-34.795-22.922-51.277-39.686c16.481-16.764,33.606-30.178,51.277-39.686
		c40.049-21.548,86.943-35.791,130.595-32.431c44.207,3.403,94.924,18.943,146.484,44.402
		c26.616,13.142,53.022,20.105,80.065,23.289h32.853c14.505-2.973,26.771-10.825,36.613-24.813
		c5.171-7.349,7.647-14.31,5.855-19.735c3.381-4.605,3.177-11.991,0.53-20.578c-5.041-16.357-14.296-27.614-27.187-34.923
		l-31.211-10.141c-26.704-5.328-53.969-6.866-83.343-2.592c-56.904,8.28-109.94,7.387-153.035-3.037
		c-42.553-10.293-82.751-38.33-114.181-71.2c-13.868-14.503-26.009-32.552-36.503-53.589c20.855-10.85,41.287-18.316,61.03-21.898
		c44.748-8.118,93.748-7.173,134.225,9.512c40.992,16.897,84.424,47.349,125.593,87.495c21.252,20.724,44.214,35.505,68.95,46.891
		l31.245,10.152c14.713,1.655,28.806-2.023,42.488-12.285c7.188-5.391,11.695-11.247,11.666-16.96
		c4.639-3.335,6.727-10.423,6.863-19.407c0.26-17.114-5.063-30.68-15.064-41.615l-26.55-19.29
		c-23.75-13.319-49.206-23.208-78.463-28.22c-56.677-9.71-106.842-26.948-144.607-50.179
		c-37.29-22.939-66.856-62.026-86.591-102.999c-8.707-18.078-14.677-38.996-18.157-62.246c23.187-3.875,44.926-4.661,64.81-1.967
		c45.066,6.108,91.376,22.148,124.716,50.524c33.764,28.737,65.66,71.12,92.409,122.023c13.808,26.277,31.078,47.431,51.085,65.903
		l26.578,19.31c13.482,6.12,28.021,6.978,44.205,1.446c8.502-2.906,14.598-7.083,16.336-12.525
		c5.442-1.738,9.619-7.834,12.524-16.336c5.532-16.184,4.674-30.723-1.446-44.205l-19.311-26.579
		c-18.472-20.007-39.626-37.277-65.903-51.085c-50.903-26.749-93.286-58.645-122.023-92.409
		c-28.376-33.339-44.417-79.65-50.524-124.716c-2.695-19.884-1.908-41.623,1.967-64.81c23.25,3.48,44.168,9.45,62.246,18.157
		c40.973,19.735,80.06,49.301,102.999,86.591c23.231,37.764,40.469,87.929,50.179,144.607c5.012,29.257,14.9,54.713,28.22,78.463
		l19.29,26.55c10.935,10.002,24.501,15.324,41.615,15.065c8.984-0.136,16.072-2.225,19.407-6.864
		c5.713,0.029,11.569-4.478,16.96-11.666c10.262-13.683,13.939-27.775,12.284-42.488l-10.152-31.245
		c-11.386-24.736-26.167-47.698-46.891-68.95c-40.146-41.169-70.598-84.602-87.495-125.593
		c-16.685-40.476-17.63-89.477-9.512-134.225c3.581-19.743,11.047-40.175,21.898-61.03c21.036,10.494,39.086,22.636,53.589,36.503
		c32.869,31.43,60.907,71.628,71.2,114.181c10.424,43.095,11.317,96.132,3.037,153.035c-4.274,29.374-2.736,56.639,2.592,83.343
		l10.141,31.212c7.309,12.891,18.567,22.145,34.924,27.187c8.587,2.646,15.973,2.85,20.578-0.53
		c5.424,1.792,12.386-0.684,19.735-5.855c13.988-9.842,21.84-22.108,24.813-36.613v-32.853
		c-3.185-27.043-10.147-53.449-23.289-80.065c-25.459-51.56-40.999-102.277-44.402-146.484
		c-3.36-43.651,10.883-90.546,32.431-130.595c9.507-17.67,22.922-34.795,39.685-51.277c16.764,16.481,30.178,33.606,39.686,51.277
		c21.548,40.049,35.791,86.944,32.431,130.595c-3.403,44.207-18.943,94.924-44.402,146.484
		c-13.142,26.616-20.105,53.022-23.289,80.065v32.853c2.973,14.505,10.825,26.771,24.813,36.613
		c7.349,5.171,14.31,7.647,19.735,5.855c4.605,3.381,11.991,3.177,20.578,0.53c16.357-5.041,27.614-14.296,34.924-27.187
		l10.141-31.211c5.328-26.704,6.866-53.969,2.592-83.343c-8.28-56.904-7.387-109.94,3.037-153.035
		c10.293-42.553,38.33-82.751,71.2-114.181c14.503-13.868,32.552-26.009,53.589-36.503c10.85,20.855,18.316,41.287,21.898,61.03
		c8.118,44.748,7.173,93.748-9.512,134.225c-16.897,40.992-47.349,84.424-87.495,125.593c-20.724,21.252-35.505,44.214-46.891,68.95
		L931.88,485.91c-1.655,14.713,2.022,28.806,12.285,42.488c5.391,7.188,11.247,11.695,16.96,11.666
		c3.335,4.639,10.423,6.727,19.407,6.864c17.114,0.26,30.68-5.063,41.615-15.065l19.29-26.55
		c13.319-23.75,23.207-49.206,28.219-78.463c9.71-56.677,26.948-106.842,50.179-144.607c22.939-37.29,62.026-66.856,102.999-86.591
		c18.078-8.707,38.996-14.677,62.246-18.157c3.875,23.187,4.661,44.926,1.967,64.81c-6.107,45.066-22.148,91.376-50.524,124.716
		c-28.737,33.764-71.12,65.66-122.023,92.409c-26.276,13.808-47.43,31.078-65.903,51.085l-19.31,26.579
		c-6.12,13.482-6.978,28.021-1.446,44.205c2.906,8.502,7.083,14.598,12.525,16.336c1.738,5.442,7.834,9.618,16.336,12.525
		c16.184,5.532,30.723,4.674,44.205-1.446l26.578-19.31c20.007-18.472,37.277-39.626,51.085-65.903
		c26.749-50.903,58.645-93.286,92.409-122.023c33.339-28.376,79.65-44.417,124.716-50.524c19.884-2.695,41.623-1.908,64.81,1.967
		c-3.48,23.25-9.45,44.168-18.157,62.246c-19.735,40.973-49.301,80.06-86.591,102.999c-37.765,23.231-87.93,40.469-144.607,50.179
		c-29.257,5.012-54.713,14.9-78.464,28.22l-26.549,19.289c-10.001,10.935-15.324,24.501-15.064,41.616
		c0.137,8.984,2.225,16.072,6.863,19.407c-0.028,5.713,4.478,11.568,11.667,16.96c13.683,10.262,27.775,13.939,42.488,12.285
		l31.245-10.152c24.735-11.386,47.698-26.167,68.949-46.891c41.169-40.146,84.602-70.598,125.593-87.495
		c40.476-16.685,89.477-17.63,134.225-9.512c19.743,3.582,40.175,11.048,61.03,21.898c-10.494,21.036-22.636,39.086-36.503,53.589
		c-31.43,32.869-71.628,60.907-114.181,71.2c-43.095,10.424-96.132,11.317-153.035,3.037c-29.374-4.274-56.64-2.736-83.343,2.592
		l-31.211,10.141c-12.891,7.309-22.146,18.567-27.187,34.923c-2.647,8.587-2.85,15.973,0.531,20.578
		c-1.792,5.424,0.684,12.386,5.854,19.735c9.842,13.988,22.108,21.84,36.613,24.813h32.853
		c27.043-3.185,53.449-10.147,80.065-23.289c51.56-25.459,102.277-40.999,146.484-44.402c43.651-3.36,90.546,10.883,130.595,32.431
		c17.67,9.507,34.795,22.922,51.277,39.686c-16.481,16.764-33.606,30.178-51.277,39.686
		c-40.049,21.548-86.943,35.791-130.595,32.431c-44.207-3.403-94.924-18.943-146.484-44.402
		c-26.616-13.142-53.022-20.105-80.065-23.289h-32.853c-14.505,2.973-26.771,10.825-36.613,24.813
		c-5.17,7.349-7.647,14.31-5.854,19.735c-3.381,4.605-3.177,11.991-0.531,20.578c5.041,16.357,14.296,27.614,27.187,34.924
		l31.21,10.141c26.704,5.328,53.97,6.866,83.344,2.592c56.904-8.28,109.94-7.387,153.035,3.037
		c42.553,10.293,82.751,38.331,114.181,71.2c13.868,14.503,26.009,32.552,36.503,53.589
		C1552.278,1074.883,1531.846,1082.349,1512.103,1085.93z"/>
	<path d="M819,496.509c-6.983,4.206-13.242,10.109-18.743,17.928c-6.803,9.669-8.942,18.669-2.83,24.378
		c6.584,6.149,14.411,2.76,19.807-8.924c0.557-1.206,1.146-2.37,1.766-3.493c0.62,1.122,1.209,2.286,1.766,3.493
		c5.396,11.684,13.223,15.073,19.807,8.924c6.113-5.709,3.974-14.708-2.829-24.378C832.242,506.619,825.983,500.715,819,496.509z"/>
	<path d="M918.655,512.293c-7.941,1.842-15.718,5.522-23.366,11.259c-9.458,7.094-14.274,14.992-10.224,22.31
		c4.362,7.883,12.853,7.078,21.595-2.366c0.903-0.975,1.823-1.9,2.759-2.776c0.242,1.259,0.443,2.548,0.6,3.867
		c1.521,12.779,7.918,18.421,16.08,14.608c7.578-3.54,8.324-12.76,4.842-24.059C928.125,526,923.997,518.451,918.655,512.293z"/>
	<path d="M982.853,561.587c-11.188,3.824-18.208,9.847-16.618,18.059c1.713,8.845,10.037,10.703,21.269,4.423
		c1.16-0.649,2.32-1.244,3.482-1.788c-0.158,1.272-0.366,2.56-0.624,3.864c-2.503,12.624,1.838,19.966,10.779,18.862
		c8.301-1.025,11.86-9.563,12.04-21.385c0.145-9.56-1.448-18.014-4.625-25.521C1000.433,557.397,991.9,558.495,982.853,561.587z"/>
	<path d="M1051.855,647.638c1.304-0.258,2.591-0.466,3.864-0.624c-0.544,1.161-1.139,2.322-1.788,3.482
		c-6.281,11.233-4.422,19.557,4.423,21.269c8.211,1.59,14.235-5.43,18.059-16.618c3.092-9.047,4.19-17.58,3.487-25.702
		c-7.507-3.178-15.962-4.771-25.521-4.626c-11.822,0.18-20.36,3.739-21.385,12.04C1031.889,645.8,1039.232,650.14,1051.855,647.638z
		"/>
	<path d="M1093.413,727.981c1.319,0.157,2.608,0.358,3.867,0.6c-0.876,0.936-1.801,1.856-2.776,2.759
		c-9.444,8.742-10.249,17.233-2.366,21.595c7.318,4.05,15.216-0.766,22.31-10.224c5.736-7.648,9.417-15.425,11.259-23.366
		c-6.158-5.342-13.706-9.47-22.843-12.286c-11.299-3.482-20.519-2.736-24.059,4.842
		C1074.991,720.063,1080.633,726.46,1093.413,727.981z"/>
	<path d="M1099.184,797.427c-6.149,6.584-2.76,14.411,8.924,19.807c1.206,0.557,2.37,1.146,3.493,1.766
		c-1.122,0.62-2.286,1.209-3.493,1.766c-11.684,5.396-15.073,13.223-8.924,19.807c5.709,6.113,14.708,3.974,24.378-2.83
		c7.819-5.502,13.723-11.76,17.929-18.743c-4.206-6.984-10.109-13.242-17.929-18.743
		C1113.892,793.453,1104.893,791.314,1099.184,797.427z"/>
	<path d="M1092.137,885.065c-7.882,4.362-7.078,12.853,2.366,21.595c0.975,0.903,1.9,1.823,2.776,2.759
		c-1.259,0.243-2.548,0.443-3.867,0.6c-12.779,1.521-18.421,7.918-14.608,16.08c3.541,7.578,12.76,8.324,24.059,4.842
		c9.136-2.816,16.685-6.944,22.843-12.286c-1.842-7.941-5.522-15.718-11.259-23.366
		C1107.354,885.83,1099.456,881.015,1092.137,885.065z"/>
	<path d="M1058.354,966.235c-8.845,1.713-10.704,10.037-4.423,21.269c0.649,1.16,1.244,2.32,1.788,3.482
		c-1.273-0.158-2.56-0.366-3.864-0.624c-12.624-2.502-19.966,1.838-18.862,10.779c1.025,8.301,9.563,11.86,21.385,12.04
		c9.56,0.145,18.014-1.448,25.521-4.626c0.702-8.122-0.395-16.655-3.487-25.702C1072.589,971.666,1066.566,964.645,1058.354,966.235
		z"/>
	<path d="M1001.141,1032.994c-8.941-1.104-13.281,6.238-10.779,18.862c0.258,1.303,0.466,2.591,0.624,3.864
		c-1.161-0.544-2.322-1.139-3.482-1.788c-11.233-6.281-19.557-4.422-21.269,4.423c-1.59,8.212,5.43,14.235,16.618,18.059
		c9.047,3.092,17.58,4.19,25.702,3.487c3.178-7.507,4.771-15.962,4.625-25.521
		C1013.001,1042.557,1009.442,1034.019,1001.141,1032.994z"/>
	<path d="M926.099,1078.805c-8.162-3.813-14.559,1.829-16.08,14.608c-0.157,1.319-0.358,2.608-0.6,3.867
		c-0.936-0.876-1.856-1.801-2.759-2.776c-8.742-9.444-17.233-10.249-21.595-2.366c-4.05,7.318,0.766,15.216,10.224,22.31
		c7.648,5.736,15.425,9.417,23.366,11.259c5.342-6.158,9.47-13.706,12.286-22.843
		C934.423,1091.565,933.676,1082.345,926.099,1078.805z"/>
	<path d="M820.766,1108.108c-0.557,1.207-1.146,2.37-1.766,3.493c-0.62-1.123-1.209-2.286-1.766-3.493
		c-5.396-11.684-13.223-15.073-19.807-8.924c-6.113,5.709-3.974,14.708,2.83,24.378c5.501,7.819,11.76,13.723,18.743,17.928
		c6.984-4.206,13.242-10.109,18.743-17.928c6.803-9.669,8.943-18.669,2.829-24.378
		C833.988,1093.035,826.161,1096.424,820.766,1108.108z"/>
	<path d="M731.34,1094.504c-0.903,0.975-1.823,1.9-2.759,2.776c-0.243-1.259-0.443-2.548-0.6-3.867
		c-1.521-12.779-7.918-18.421-16.08-14.608c-7.578,3.54-8.324,12.76-4.842,24.059c2.816,9.137,6.944,16.685,12.286,22.843
		c7.941-1.842,15.718-5.522,23.366-11.259c9.458-7.094,14.274-14.992,10.224-22.31
		C748.573,1084.255,740.082,1085.059,731.34,1094.504z"/>
	<path d="M650.495,1053.931c-1.16,0.649-2.321,1.244-3.482,1.788c0.158-1.272,0.366-2.56,0.624-3.864
		c2.502-12.624-1.838-19.966-10.779-18.862c-8.301,1.026-11.86,9.564-12.039,21.385c-0.145,9.56,1.448,18.014,4.625,25.521
		c8.122,0.703,16.655-0.395,25.702-3.487c11.188-3.824,18.208-9.847,16.618-18.059
		C670.052,1049.509,661.728,1047.651,650.495,1053.931z"/>
	<path d="M586.144,990.362c-1.304,0.258-2.592,0.466-3.864,0.624c0.544-1.161,1.139-2.322,1.788-3.482
		c6.281-11.233,4.422-19.557-4.423-21.269c-8.212-1.59-14.235,5.43-18.059,16.618c-3.092,9.047-4.19,17.58-3.487,25.702
		c7.507,3.178,15.962,4.771,25.521,4.626c11.822-0.18,20.36-3.739,21.385-12.04C606.11,992.2,598.768,987.86,586.144,990.362z"/>
	<path d="M544.587,910.019c-1.32-0.157-2.609-0.358-3.867-0.6c0.876-0.936,1.801-1.856,2.776-2.759
		c9.445-8.742,10.249-17.233,2.366-21.595c-7.318-4.05-15.216,0.766-22.31,10.224c-5.737,7.648-9.417,15.425-11.259,23.366
		c6.158,5.342,13.706,9.47,22.843,12.286c11.298,3.482,20.519,2.736,24.059-4.842C563.008,917.937,557.366,911.54,544.587,910.019z"
		/>
	<path d="M538.815,840.573c6.149-6.584,2.76-14.411-8.924-19.807c-1.206-0.557-2.37-1.146-3.493-1.766
		c1.122-0.62,2.286-1.209,3.493-1.766c11.684-5.396,15.073-13.223,8.924-19.807c-5.709-6.113-14.708-3.974-24.378,2.83
		c-7.819,5.501-13.723,11.76-17.928,18.743c4.206,6.983,10.109,13.242,17.928,18.743
		C524.107,844.546,533.107,846.685,538.815,840.573z"/>
	<path d="M545.862,752.935c7.883-4.362,7.078-12.853-2.366-21.595c-0.975-0.903-1.9-1.823-2.776-2.759
		c1.259-0.243,2.548-0.443,3.867-0.6c12.779-1.521,18.421-7.918,14.608-16.08c-3.54-7.578-12.76-8.324-24.059-4.842
		c-9.137,2.816-16.685,6.944-22.843,12.286c1.842,7.941,5.522,15.718,11.259,23.366
		C530.646,752.169,538.544,756.985,545.862,752.935z"/>
	<path d="M583.621,624.819c-9.56-0.145-18.014,1.448-25.521,4.626c-0.702,8.122,0.395,16.655,3.487,25.702
		c3.824,11.188,9.847,18.208,18.059,16.618c8.845-1.712,10.703-10.037,4.423-21.269c-0.648-1.16-1.244-2.321-1.788-3.482
		c1.272,0.158,2.56,0.366,3.864,0.624c12.624,2.502,19.966-1.838,18.862-10.779C603.981,628.558,595.443,624.999,583.621,624.819z"
		/>
	<path d="M655.146,561.587c-9.047-3.092-17.58-4.19-25.702-3.487c-3.178,7.507-4.771,15.962-4.625,25.521
		c0.179,11.822,3.739,20.36,12.039,21.385c8.941,1.104,13.281-6.238,10.779-18.862c-0.258-1.303-0.466-2.591-0.624-3.864
		c1.161,0.544,2.322,1.139,3.482,1.788c11.232,6.281,19.557,4.422,21.269-4.423C673.354,571.434,666.334,565.411,655.146,561.587z"
		/>
	<path d="M742.711,523.552c-7.648-5.736-15.425-9.417-23.366-11.259c-5.342,6.158-9.47,13.706-12.286,22.843
		c-3.482,11.299-2.736,20.519,4.842,24.059c8.162,3.813,14.559-1.829,16.08-14.608c0.157-1.32,0.358-2.608,0.6-3.867
		c0.936,0.876,1.856,1.801,2.759,2.776c8.742,9.445,17.233,10.249,21.595,2.366C756.985,538.544,752.169,530.646,742.711,523.552z"
		/>
	<polygon points="823.425,489.625 823.425,152.861 819,146.122 814.575,152.861 814.575,489.625 	"/>
	<polygon points="924.991,507.113 931.88,485.91 942.032,454.665 967.52,376.223 967.568,376.073 1029.056,186.832 
		1026.931,179.055 1020.64,184.097 959.151,373.339 959.103,373.488 933.615,451.93 923.474,483.141 916.574,504.378 	"/>
	<polygon points="1016.182,555.131 1029.286,537.094 1048.596,510.515 1097.076,443.789 1097.168,443.662 1214.126,282.683 
		1214.507,274.63 1206.966,277.481 1090.008,438.46 1089.916,438.587 1041.437,505.314 1022.147,531.863 1009.022,549.929 	"/>
	<polygon points="1088.071,628.978 1106.136,615.853 1132.686,596.563 1199.413,548.083 1199.54,547.991 1360.518,431.033 
		1363.369,423.492 1355.316,423.873 1194.338,540.831 1194.211,540.924 1127.484,589.403 1100.906,608.714 1082.869,621.818 	"/>
	<polygon points="1133.621,721.426 1154.859,714.525 1186.07,704.384 1264.512,678.897 1264.661,678.848 1453.903,617.36 
		1458.945,611.069 1451.168,608.943 1261.926,670.432 1261.777,670.48 1183.335,695.967 1152.09,706.12 1130.887,713.009 	"/>
	<polygon points="1148.375,823.425 1485.139,823.425 1491.878,819 1485.139,814.575 1148.375,814.575 	"/>
	<polygon points="1261.926,967.568 1451.168,1029.056 1458.945,1026.93 1453.903,1020.64 1264.661,959.151 1264.512,959.103 
		1186.069,933.615 1154.859,923.474 1133.621,916.574 1130.887,924.991 1152.09,931.88 1183.335,942.032 1261.777,967.519 	"/>
	<polygon points="1082.869,1016.182 1100.905,1029.286 1127.484,1048.597 1194.211,1097.076 1194.338,1097.168 1355.316,1214.126 
		1363.369,1214.507 1360.518,1206.966 1199.54,1090.009 1199.413,1089.916 1132.686,1041.436 1106.137,1022.147 1088.071,1009.022 	
		"/>
	<polygon points="1009.022,1088.071 1022.147,1106.136 1041.437,1132.686 1089.916,1199.413 1090.008,1199.54 1206.966,1360.518 
		1214.507,1363.369 1214.126,1355.316 1097.168,1194.338 1097.076,1194.211 1048.596,1127.484 1029.286,1100.906 1016.182,1082.869 
			"/>
	<polygon points="916.574,1133.621 923.474,1154.859 933.615,1186.07 959.103,1264.512 959.151,1264.661 1020.64,1453.903 
		1026.931,1458.945 1029.056,1451.168 967.568,1261.926 967.52,1261.777 942.032,1183.335 931.88,1152.09 924.991,1130.887 	"/>
	<polygon points="814.575,1148.375 814.575,1485.139 819,1491.878 823.425,1485.139 823.425,1148.375 	"/>
	<polygon points="713.009,1130.887 706.119,1152.09 695.967,1183.335 670.48,1261.777 670.432,1261.926 608.943,1451.168 
		611.069,1458.945 617.36,1453.903 678.849,1264.661 678.897,1264.512 704.384,1186.07 714.525,1154.859 721.426,1133.621 	"/>
	<polygon points="621.818,1082.869 608.714,1100.906 589.403,1127.484 540.924,1194.211 540.831,1194.338 423.873,1355.316 
		423.492,1363.369 431.033,1360.518 547.991,1199.54 548.083,1199.413 596.563,1132.686 615.853,1106.136 628.978,1088.071 	"/>
	<polygon points="549.929,1009.022 531.863,1022.147 505.314,1041.437 438.587,1089.916 438.46,1090.009 277.481,1206.966 
		274.63,1214.507 282.683,1214.126 443.662,1097.168 443.789,1097.076 510.515,1048.597 537.094,1029.286 555.131,1016.182 	"/>
	<polygon points="504.378,916.574 483.141,923.474 451.93,933.615 373.488,959.103 373.339,959.151 184.097,1020.64 
		179.055,1026.93 186.832,1029.056 376.074,967.568 376.223,967.519 454.665,942.032 485.91,931.88 507.113,924.991 	"/>
	<polygon points="489.625,814.575 152.861,814.575 146.122,819 152.861,823.425 489.625,823.425 	"/>
	<polygon points="507.113,713.009 485.91,706.12 454.665,695.967 376.223,670.48 376.074,670.432 186.832,608.943 179.055,611.069 
		184.097,617.36 373.339,678.848 373.488,678.897 451.93,704.384 483.141,714.525 504.378,721.426 	"/>
	<polygon points="555.131,621.818 537.094,608.714 510.516,589.403 443.789,540.924 443.662,540.831 282.683,423.873 
		274.63,423.492 277.481,431.033 438.46,547.991 438.587,548.083 505.314,596.563 531.864,615.853 549.929,628.978 	"/>
	<polygon points="628.978,549.929 615.853,531.863 596.563,505.314 548.083,438.587 547.991,438.46 431.033,277.481 423.492,274.63 
		423.873,282.683 540.831,443.662 540.924,443.789 589.403,510.515 608.714,537.094 621.818,555.131 	"/>
	<polygon points="721.426,504.378 714.525,483.141 704.384,451.93 678.897,373.488 678.849,373.339 617.36,184.097 611.069,179.055 
		608.943,186.832 670.432,376.074 670.48,376.223 695.967,454.665 706.119,485.91 713.009,507.113 	"/>
</g>
</svg>
