<?xml version="1.0" encoding="UTF-8" ?>
<!DOCTYPE svg PUBLIC "-//W3C//DTD SVG 1.1//EN" "http://www.w3.org/Graphics/SVG/1.1/DTD/svg11.dtd">
<svg width="767pt" height="801pt" viewBox="0 0 767 801" version="1.1" xmlns="http://www.w3.org/2000/svg">
<path fill="#000000" opacity="1.00" d=" M 383.04 0.00 L 383.96 0.00 C 424.42 9.21 463.45 25.59 497.66 49.15 C 537.45 50.40 577.54 58.47 613.97 74.98 C 622.01 77.77 625.30 86.35 631.26 91.75 C 651.60 116.85 667.86 145.38 679.42 175.51 C 681.09 186.18 692.24 190.00 699.05 196.96 C 721.81 218.75 744.34 241.57 759.31 269.64 C 765.83 277.23 764.36 287.50 765.37 296.68 C 768.50 332.42 760.95 367.97 753.67 402.52 C 764.25 441.77 769.16 483.04 763.87 523.53 C 744.13 560.65 714.57 592.19 681.90 618.09 C 669.43 654.68 649.42 688.84 623.88 717.87 C 618.18 726.48 607.23 728.28 598.51 732.54 C 566.25 744.25 531.91 750.78 497.68 751.87 C 463.30 775.17 424.54 791.99 383.96 801.00 L 383.04 801.00 C 342.46 791.99 303.70 775.17 269.32 751.87 C 235.09 750.78 200.75 744.25 168.49 732.54 C 159.77 728.28 148.81 726.48 143.12 717.87 C 117.58 688.84 97.57 654.68 85.10 618.09 C 52.43 592.19 22.87 560.65 3.13 523.53 C -2.16 483.04 2.75 441.77 13.33 402.52 C 6.05 367.97 -1.50 332.42 1.63 296.68 C 2.64 287.50 1.16 277.23 7.69 269.64 C 22.65 241.57 45.19 218.75 67.95 196.96 C 74.76 190.00 85.91 186.18 87.58 175.51 C 99.14 145.38 115.40 116.85 135.74 91.75 C 141.70 86.35 144.99 77.77 153.03 74.98 C 189.46 58.47 229.55 50.40 269.34 49.15 C 303.55 25.59 342.58 9.21 383.04 0.00 M 361.07 26.68 C 353.09 27.45 346.71 32.80 346.10 41.02 C 354.76 48.63 370.94 50.07 375.44 35.33 C 379.05 26.43 367.09 26.40 361.07 26.68 M 400.93 26.66 C 395.82 27.31 388.89 27.87 391.38 34.63 C 395.34 49.29 412.08 49.20 420.90 41.02 C 420.44 30.86 410.15 25.51 400.93 26.66 M 339.45 28.50 C 335.84 36.24 324.75 33.88 320.15 40.07 C 325.62 48.18 344.15 34.39 339.45 28.50 M 427.21 28.03 C 424.32 36.48 439.64 46.11 446.95 40.89 C 443.36 33.61 430.52 36.23 427.21 28.03 M 307.03 51.62 C 298.82 51.63 295.67 61.34 294.29 67.91 C 303.12 66.77 313.58 71.64 319.91 62.70 C 326.67 54.77 313.62 49.18 307.03 51.62 M 452.41 51.62 C 445.74 51.99 442.44 59.90 448.17 63.81 C 454.43 72.19 464.07 66.28 472.44 67.89 C 472.50 57.61 463.08 48.45 452.41 51.62 M 343.07 52.49 C 332.04 52.85 329.01 64.20 325.48 71.95 C 334.43 70.11 345.20 79.96 350.73 68.66 C 359.36 61.79 351.82 53.21 343.07 52.49 M 423.18 52.51 C 405.79 53.43 413.53 73.72 425.68 74.75 C 430.20 70.17 447.33 74.99 438.64 66.21 C 436.83 58.67 431.74 52.45 423.18 52.51 M 375.10 56.56 C 365.95 57.45 366.84 67.04 363.00 73.10 C 376.13 78.59 390.82 78.61 403.95 73.11 C 402.46 57.69 388.45 53.70 375.10 56.56 M 282.50 63.34 C 277.45 67.39 272.01 68.17 265.73 68.64 C 266.95 75.50 288.95 64.30 282.50 63.34 M 482.26 62.84 C 485.70 68.80 496.10 72.88 501.82 69.21 C 494.63 68.72 488.82 65.84 482.26 62.84 M 220.48 71.32 C 213.65 72.44 207.18 75.51 200.11 74.16 C 200.87 86.17 231.99 75.33 220.48 71.32 M 246.88 71.26 C 239.10 72.39 228.67 79.00 231.91 88.18 C 243.00 94.84 253.30 85.92 259.91 78.05 C 256.10 75.42 250.74 74.23 246.88 71.26 M 519.08 71.31 C 515.74 74.54 510.56 75.57 507.14 78.06 C 513.64 85.89 523.97 95.00 535.11 88.19 C 538.38 78.68 527.20 71.77 519.08 71.31 M 543.28 71.02 C 543.55 81.78 563.86 81.14 566.88 74.16 C 558.66 75.98 551.39 70.89 543.28 71.02 M 291.78 76.60 C 283.75 76.25 282.71 83.11 283.12 89.84 C 279.32 88.69 277.52 84.56 274.65 82.14 C 266.58 82.29 252.70 93.12 263.54 99.75 C 277.24 101.80 292.35 96.72 302.68 87.55 C 309.73 80.04 298.18 73.90 291.78 76.60 M 469.59 76.43 C 455.47 78.10 466.39 92.94 474.58 95.35 C 484.82 96.42 494.84 104.94 505.31 98.36 C 512.91 90.49 499.26 82.90 492.35 82.15 C 490.05 84.54 482.95 94.45 483.27 85.75 C 485.71 77.14 475.51 75.62 469.59 76.43 M 322.82 79.58 C 313.29 79.62 316.07 92.13 309.34 96.13 C 299.08 104.78 316.82 99.55 322.42 102.33 C 330.31 101.75 337.79 94.37 338.66 86.31 C 335.05 81.39 328.92 78.51 322.82 79.58 M 438.85 79.64 C 433.28 80.45 425.30 85.76 429.99 91.88 C 435.70 104.49 450.80 103.03 462.05 100.54 C 451.84 95.21 453.52 75.82 438.85 79.64 M 189.47 82.47 C 182.12 83.47 174.46 88.67 172.40 95.86 C 175.39 104.89 187.91 104.70 195.17 101.25 C 197.04 96.69 199.53 92.49 202.99 88.95 C 200.02 85.04 194.79 80.87 189.47 82.47 M 572.70 82.35 C 567.10 84.46 560.85 89.32 568.11 93.89 C 570.25 106.25 590.51 106.97 594.60 95.87 C 591.97 87.09 581.78 81.34 572.70 82.35 M 360.94 83.39 C 347.09 81.95 348.57 96.33 342.14 103.93 C 351.90 108.59 364.91 109.62 372.09 99.95 C 377.47 92.38 369.93 81.34 360.94 83.39 M 401.88 83.51 C 391.52 84.66 390.47 100.62 399.80 104.21 C 407.21 110.51 416.87 106.70 424.86 103.93 C 419.03 94.43 417.18 79.76 401.88 83.51 M 222.11 92.37 C 210.81 89.64 198.54 109.50 213.33 112.57 C 224.53 118.40 230.08 105.57 236.76 100.09 C 231.90 97.98 227.17 93.75 222.11 92.37 M 543.45 92.37 C 539.39 95.64 534.61 97.70 530.07 100.01 C 536.62 106.99 543.65 118.60 555.07 112.08 C 568.67 107.20 554.10 88.80 543.45 92.37 M 383.15 97.50 C 382.93 101.36 375.43 107.69 382.13 108.98 C 392.39 110.72 385.12 100.53 383.15 97.50 M 248.25 103.40 C 239.73 104.72 228.89 119.59 240.30 123.83 C 252.68 130.48 262.03 118.51 271.12 111.84 C 262.41 111.94 255.44 106.43 248.25 103.40 M 517.36 103.36 C 511.16 108.39 503.86 111.12 495.94 111.85 C 505.03 118.41 514.27 130.65 526.69 123.83 C 538.63 119.33 526.21 103.11 517.36 103.36 M 155.56 105.48 C 144.83 108.61 134.75 121.28 142.23 131.89 C 149.28 129.70 159.39 131.05 161.11 121.92 C 164.74 116.79 164.04 103.54 155.56 105.48 M 608.54 105.28 C 595.15 115.20 612.63 137.06 625.59 130.68 C 632.03 119.16 619.78 106.04 608.54 105.28 M 310.34 109.50 C 298.26 107.80 301.70 121.76 295.56 128.11 C 291.31 127.83 287.08 125.96 284.42 122.56 C 276.39 110.93 255.84 132.82 270.72 138.39 C 283.63 146.70 292.80 129.43 305.68 132.59 C 320.07 133.99 329.40 107.74 310.34 109.50 M 454.38 109.42 C 442.76 109.36 443.34 123.77 451.63 128.49 C 458.29 137.02 470.74 127.71 476.85 137.09 C 483.11 142.94 493.06 140.86 499.59 136.55 C 506.39 128.33 494.65 118.84 486.46 119.18 C 481.88 122.77 477.89 128.16 471.45 128.11 C 465.98 120.30 467.45 106.83 454.38 109.42 M 342.22 112.30 C 327.83 111.99 332.24 130.42 321.73 136.89 C 331.85 137.58 344.30 141.95 351.65 131.68 C 361.70 123.85 351.79 112.36 342.22 112.30 M 422.52 112.50 C 413.11 114.16 406.22 125.01 415.82 132.22 C 423.35 142.47 435.20 136.47 445.28 136.99 C 434.57 130.11 438.89 109.37 422.52 112.50 M 192.29 116.44 C 178.00 118.10 165.39 134.34 175.12 146.87 C 188.49 144.59 200.26 135.45 206.81 123.95 C 203.18 120.74 197.92 115.39 192.29 116.44 M 570.80 116.36 C 561.07 119.91 556.90 126.11 566.26 133.77 C 575.38 137.28 581.43 147.92 592.60 146.65 C 602.79 131.73 585.14 115.83 570.80 116.36 M 371.95 119.52 C 363.20 121.61 364.43 134.84 356.86 140.02 C 365.58 141.06 375.93 147.68 383.16 141.24 C 390.86 147.43 400.95 140.81 410.15 140.03 C 405.93 134.52 401.15 128.73 400.18 121.52 C 391.61 117.26 381.25 120.41 371.95 119.52 M 129.30 125.12 C 130.01 133.64 120.99 138.71 120.20 146.98 C 130.77 147.80 135.65 130.16 129.30 125.12 M 636.23 125.24 C 632.74 133.19 636.36 147.16 646.80 146.99 C 644.71 139.50 637.66 130.48 636.23 125.24 M 225.20 127.23 C 215.71 128.52 203.95 135.98 210.96 146.88 C 221.56 158.09 237.70 147.56 243.01 135.93 C 236.05 135.10 231.13 129.18 225.20 127.23 M 539.51 127.36 C 535.00 131.51 529.99 134.58 524.00 135.93 C 529.44 147.82 545.93 158.37 556.43 146.26 C 563.15 134.59 549.01 127.26 539.51 127.36 M 154.67 140.53 C 138.90 140.21 139.26 158.39 142.93 169.05 C 147.64 165.75 152.27 161.94 158.35 161.84 C 164.10 156.99 164.95 138.68 154.67 140.53 M 251.90 140.89 C 244.42 142.68 240.87 151.42 241.25 158.43 C 251.63 171.77 272.15 161.10 277.17 150.71 C 265.80 152.24 261.81 138.02 251.90 140.89 M 508.19 140.52 C 504.97 148.60 494.42 146.97 488.82 151.81 C 497.39 158.30 505.65 168.68 517.85 163.77 C 534.35 160.89 521.47 135.69 508.19 140.52 M 608.23 140.42 C 596.25 154.14 613.73 165.12 624.34 168.38 C 629.47 156.05 625.26 137.22 608.23 140.42 M 299.44 142.35 C 294.94 146.68 297.37 156.06 303.95 156.95 C 310.16 153.11 305.49 142.02 299.44 142.35 M 466.23 142.21 C 461.01 144.27 457.81 152.45 462.56 156.51 C 469.68 158.25 473.12 143.85 466.23 142.21 M 321.58 145.29 C 314.90 147.17 319.04 157.49 312.96 161.00 C 302.30 170.24 323.47 165.74 329.07 169.87 C 347.12 167.94 340.36 137.64 321.58 145.29 M 440.44 145.49 C 421.60 141.32 424.14 174.52 441.05 169.10 C 445.02 164.75 463.58 170.33 455.03 162.01 C 447.24 157.90 452.38 141.50 440.44 145.49 M 357.85 148.34 C 344.34 150.43 351.08 167.73 341.13 174.09 C 350.41 173.84 365.34 178.07 372.45 167.48 C 381.90 158.72 369.02 143.44 357.85 148.34 M 400.67 148.36 C 382.59 153.18 395.24 177.90 409.88 174.41 C 415.04 172.82 422.93 177.19 425.96 173.30 C 415.72 164.55 420.30 142.81 400.67 148.36 M 184.45 153.40 C 178.24 157.19 169.19 164.29 173.61 172.41 C 175.30 177.74 173.21 189.29 181.07 182.85 C 197.56 183.51 205.68 152.75 184.45 153.40 M 581.19 153.34 C 560.73 155.07 570.72 183.65 586.54 183.29 C 594.29 188.91 591.39 177.20 593.39 172.39 C 597.94 164.16 587.93 155.79 581.19 153.34 M 204.91 155.17 C 206.78 158.92 205.06 168.63 211.99 165.13 C 219.62 161.12 208.96 157.44 204.91 155.17 M 561.41 155.50 C 557.40 157.68 547.60 161.33 555.01 165.13 C 561.66 169.30 561.28 156.91 561.41 155.50 M 284.51 157.40 C 273.95 161.18 267.62 176.58 280.73 182.49 C 293.63 188.95 297.16 170.86 307.05 166.95 C 297.76 167.76 291.04 159.94 284.51 157.40 M 479.68 157.46 C 475.74 164.55 466.90 165.12 459.89 166.91 C 465.97 171.24 470.92 176.83 475.63 182.58 C 484.75 187.67 497.97 176.02 492.86 166.51 C 489.75 162.67 485.31 156.27 479.68 157.46 M 122.90 158.46 C 112.07 163.01 110.60 174.08 115.06 183.99 C 119.04 181.22 123.25 178.79 127.69 176.86 C 135.01 172.04 136.66 152.23 122.90 158.46 M 635.47 158.22 C 627.91 170.70 643.32 181.24 652.09 183.31 C 659.28 171.35 649.96 155.12 635.47 158.22 M 229.57 165.51 C 221.47 171.07 211.42 175.60 205.99 184.01 C 210.14 190.26 206.96 198.87 209.27 204.88 C 216.63 201.48 229.35 200.21 230.49 191.03 C 239.55 191.21 245.62 180.29 251.96 173.88 C 243.48 173.59 237.55 165.54 229.57 165.51 M 533.74 165.43 C 528.23 169.76 521.78 172.27 515.04 173.88 C 521.38 180.29 527.44 191.21 536.51 191.03 C 536.47 199.81 548.18 198.78 553.33 203.66 C 563.36 208.56 555.85 192.77 559.76 187.83 C 563.48 181.56 555.27 177.92 551.20 174.81 C 545.47 171.84 540.86 164.50 533.74 165.43 M 383.13 168.39 C 382.26 172.04 373.94 178.06 381.77 176.53 C 391.79 179.27 388.10 172.60 383.13 168.39 M 153.72 172.38 C 135.44 175.39 147.62 192.73 143.78 203.97 C 149.34 201.38 153.35 196.25 159.49 194.58 C 166.37 188.94 168.55 167.05 153.72 172.38 M 605.79 172.29 C 594.40 184.66 611.59 199.29 623.18 203.92 C 621.88 198.27 621.46 192.17 623.62 186.67 C 628.22 176.96 613.92 169.94 605.79 172.29 M 313.59 176.49 C 300.27 176.25 297.72 196.38 310.91 199.23 C 327.74 207.73 332.39 171.48 313.59 176.49 M 447.78 176.29 C 436.53 180.39 439.75 196.65 449.12 200.55 C 456.25 200.48 465.50 196.27 464.70 187.78 C 465.91 179.21 454.74 175.11 447.78 176.29 M 261.39 180.28 C 249.56 179.26 239.56 198.86 252.04 204.19 C 264.78 212.16 276.10 198.77 284.86 192.17 C 275.29 191.58 269.61 182.06 261.39 180.28 M 502.51 180.21 C 497.11 186.62 489.88 190.06 482.14 192.17 C 490.64 198.20 500.51 211.15 512.82 205.05 C 529.34 200.75 516.66 175.78 502.51 180.21 M 347.87 183.56 C 331.49 182.17 335.75 201.27 325.09 208.03 C 332.55 209.24 340.99 204.68 348.33 209.45 C 363.55 208.81 367.31 179.36 347.87 183.56 M 415.62 183.48 C 398.25 183.38 405.96 210.74 419.42 209.22 C 426.53 204.66 434.71 209.36 441.92 208.03 C 431.39 200.10 432.91 180.37 415.62 183.48 M 381.54 184.44 C 365.91 183.62 374.60 199.54 366.65 206.69 C 351.32 218.65 378.50 206.63 383.85 213.63 C 389.72 206.71 400.73 216.09 406.23 211.16 C 390.04 206.21 403.27 180.03 381.54 184.44 M 104.40 186.55 C 102.11 193.17 97.14 196.90 92.91 201.99 C 98.22 203.29 107.62 189.13 104.40 186.55 M 661.50 185.82 C 662.20 193.42 666.89 200.30 674.28 202.72 C 670.87 196.46 663.66 193.22 661.50 185.82 M 127.32 187.33 C 121.27 188.51 117.03 193.95 114.30 198.87 C 115.64 202.14 123.61 210.83 114.70 208.30 C 104.03 201.77 95.53 225.64 107.27 227.95 C 116.06 226.14 122.04 218.89 126.32 211.36 C 133.20 205.91 139.36 189.53 127.32 187.33 M 637.39 187.17 C 629.39 191.27 633.89 200.60 636.45 206.47 C 643.66 214.31 648.26 225.91 659.73 227.95 C 671.47 225.64 662.97 201.77 652.30 208.30 C 643.39 210.83 651.36 202.14 652.70 198.87 C 649.68 193.35 644.48 187.03 637.39 187.17 M 187.39 189.54 C 167.34 191.07 181.61 209.30 178.50 220.73 C 180.10 226.27 185.35 217.39 188.94 216.96 C 202.43 214.65 204.81 184.16 187.39 189.54 M 572.03 189.46 C 558.28 201.39 575.74 220.87 588.13 222.23 C 589.71 216.10 586.29 208.93 590.61 203.47 C 595.28 193.02 580.32 187.06 572.03 189.46 M 294.27 200.33 C 287.41 201.70 281.32 205.93 277.16 211.49 C 275.27 223.96 297.00 233.28 302.84 220.81 C 306.81 215.94 313.09 214.29 318.02 210.88 C 308.37 211.15 302.07 203.18 294.27 200.33 M 470.51 200.40 C 464.14 205.71 457.58 210.25 449.00 210.87 C 455.92 214.62 463.33 218.30 467.77 225.35 C 476.65 230.14 491.34 222.30 489.70 211.48 C 485.23 205.40 478.13 200.42 470.51 200.40 M 162.06 204.50 C 155.72 205.37 149.35 209.70 147.39 215.76 C 152.41 222.11 155.46 235.78 143.61 234.30 C 128.01 223.60 121.65 261.27 139.45 254.34 C 154.58 252.89 150.84 232.89 164.37 228.45 C 170.38 222.59 172.67 206.08 162.06 204.50 M 604.21 204.41 C 594.74 207.03 597.63 219.82 600.50 226.33 C 604.15 231.05 611.72 232.52 612.93 239.10 C 613.49 249.82 625.15 256.13 634.87 254.70 C 641.80 249.63 637.57 237.81 632.54 232.77 C 626.83 234.26 620.69 235.42 615.14 232.45 C 613.58 226.16 616.60 220.83 619.61 215.76 C 617.55 209.45 610.82 205.09 604.21 204.41 M 222.39 206.37 C 203.01 211.77 218.46 229.07 215.58 241.79 C 219.69 244.32 223.88 233.88 228.60 233.59 C 242.45 228.43 240.09 200.97 222.39 206.37 M 539.03 206.56 C 526.08 206.23 528.14 224.27 533.99 230.96 C 540.35 233.78 545.03 239.35 550.72 242.86 C 552.89 237.73 549.29 231.18 553.14 226.25 C 561.16 217.45 549.32 203.40 539.03 206.56 M 91.50 212.43 C 79.55 211.31 68.90 221.86 74.44 234.38 C 84.91 244.09 101.54 215.23 91.50 212.43 M 673.38 212.18 C 669.83 221.22 680.18 239.37 691.56 235.61 C 699.84 222.17 686.35 210.11 673.38 212.18 M 247.00 213.19 C 247.78 217.30 245.37 227.29 251.56 219.59 C 260.19 216.22 251.91 213.68 247.00 213.19 M 519.24 213.37 C 513.17 213.78 507.98 216.75 516.09 220.02 C 521.54 228.35 520.20 214.73 519.24 213.37 M 332.40 217.45 C 321.46 218.24 303.82 226.84 309.45 240.41 C 320.16 251.67 340.10 246.72 347.74 233.99 C 352.88 224.26 341.81 215.19 332.40 217.45 M 428.07 217.60 C 418.35 218.30 414.79 231.40 421.86 237.13 C 429.90 248.04 449.08 250.65 457.88 239.72 C 461.76 223.44 441.19 216.00 428.07 217.60 M 366.05 221.71 C 361.09 222.09 355.66 224.79 357.58 231.02 C 358.16 238.21 352.08 243.13 349.06 248.97 C 355.31 247.44 361.82 246.71 368.07 248.73 C 376.45 248.19 379.56 239.11 383.86 234.13 C 387.11 240.19 391.24 247.97 398.91 248.72 C 405.16 246.43 411.59 248.02 417.88 249.05 C 415.21 243.35 409.40 238.82 409.36 232.02 C 411.46 217.55 387.36 218.53 383.90 229.87 C 379.95 224.00 373.22 220.05 366.05 221.71 M 264.61 222.66 C 256.98 223.08 251.88 229.32 249.25 235.81 C 256.19 242.57 256.34 252.53 254.51 261.31 C 266.11 252.11 279.36 242.67 290.77 235.11 C 279.69 235.70 272.52 225.23 264.61 222.66 M 498.65 222.22 C 494.05 230.34 485.29 234.33 476.30 235.09 C 487.55 242.68 500.92 252.12 512.49 261.29 C 510.63 252.55 510.88 242.54 517.75 235.80 C 514.94 227.74 507.49 221.86 498.65 222.22 M 194.68 224.51 C 190.04 226.33 182.70 227.91 182.19 233.82 C 186.94 239.89 185.42 247.58 185.09 254.70 C 190.32 253.52 194.26 248.83 199.67 247.68 C 214.33 246.31 207.40 220.95 194.68 224.51 M 567.57 224.33 C 558.18 227.73 554.60 246.23 567.33 247.68 C 572.74 248.83 576.66 253.52 581.91 254.70 C 582.07 248.85 579.85 242.38 583.12 237.07 C 589.14 228.68 573.41 223.57 567.57 224.33 M 61.05 228.73 C 54.53 233.15 49.35 240.68 43.09 244.90 C 51.47 246.73 63.78 238.32 61.05 228.73 M 705.49 228.78 C 703.86 238.14 715.45 246.87 723.91 244.88 C 717.31 241.14 712.74 231.93 705.49 228.78 M 121.39 233.35 C 116.00 237.29 109.38 238.53 102.78 238.46 C 91.67 240.98 93.00 266.40 106.37 260.44 C 118.70 258.21 122.09 240.77 121.39 233.35 M 644.98 232.99 C 645.31 245.08 650.47 260.93 665.69 261.73 C 674.72 257.61 672.82 243.98 665.94 238.79 C 658.72 237.69 650.96 237.87 644.98 232.99 M 163.01 240.33 C 163.37 246.53 169.40 254.17 175.83 249.64 C 178.38 241.72 168.79 239.16 163.01 240.33 M 597.99 240.39 C 593.62 240.84 587.88 245.38 591.91 249.97 C 599.31 256.40 610.21 236.11 597.99 240.39 M 235.33 241.30 C 228.60 244.00 222.56 249.06 220.04 256.05 C 224.10 263.37 224.43 271.28 223.27 279.32 C 229.48 274.36 235.01 268.07 243.17 266.24 C 250.36 258.92 247.36 241.32 235.33 241.30 M 529.97 241.26 C 518.74 243.43 517.22 260.00 524.45 266.56 C 532.46 268.13 537.55 274.68 543.71 279.23 C 542.41 271.29 543.52 263.38 546.98 256.04 C 544.13 248.98 537.61 242.46 529.97 241.26 M 86.57 243.53 C 77.36 243.93 62.49 247.53 65.42 260.37 C 64.22 276.08 90.62 266.14 86.23 255.17 C 84.81 252.53 92.15 241.50 86.57 243.53 M 298.23 243.42 C 289.56 244.99 282.26 252.36 282.80 261.55 C 273.62 258.85 262.70 263.51 260.02 272.90 C 265.28 280.11 267.17 288.98 266.46 297.76 C 277.28 290.07 292.01 282.01 285.27 265.78 C 298.85 275.08 311.14 265.74 322.10 256.96 C 311.21 257.75 306.27 246.44 298.23 243.42 M 467.28 243.22 C 460.88 249.17 454.62 256.50 444.92 256.94 C 455.94 265.77 467.88 275.24 481.71 265.82 C 475.55 281.43 490.29 291.12 500.90 297.33 C 499.36 288.92 501.89 280.45 506.92 273.72 C 505.39 263.86 493.28 258.62 484.17 261.66 C 484.81 251.85 476.56 244.14 467.28 243.22 M 678.07 242.79 C 682.29 251.53 675.74 265.31 689.82 267.28 C 701.01 274.49 706.45 255.82 698.34 249.62 C 693.74 242.54 684.72 245.96 678.07 242.79 M 42.43 254.38 C 36.23 259.88 29.88 270.39 33.32 278.79 C 52.48 289.28 65.90 249.15 42.43 254.38 M 713.25 254.42 C 706.17 267.96 719.20 284.76 733.59 278.83 C 737.44 267.12 727.17 249.76 713.25 254.42 M 181.61 257.48 C 175.72 260.69 168.71 263.18 162.21 260.03 C 157.72 264.80 157.03 271.70 158.07 277.94 C 163.55 289.45 186.08 284.65 181.64 270.37 C 178.87 267.39 187.40 256.10 181.61 257.48 M 199.77 257.33 C 192.84 260.08 187.28 269.65 192.39 276.49 C 197.23 283.06 206.93 281.39 212.91 277.22 C 217.91 268.60 211.35 253.58 199.77 257.33 M 560.76 257.32 C 552.34 259.62 550.82 270.55 554.11 277.22 C 559.90 281.51 568.92 282.67 574.24 277.13 C 581.18 268.66 571.19 253.91 560.76 257.32 M 582.99 256.98 C 586.61 266.75 581.00 284.72 596.85 284.53 C 610.23 285.42 612.83 268.32 604.77 259.97 C 597.55 264.55 590.11 258.73 582.99 256.98 M 353.85 258.40 C 348.90 260.27 341.26 260.47 340.00 266.84 C 332.23 261.30 321.08 268.88 315.70 274.79 C 309.53 285.18 324.64 291.63 332.99 290.96 C 341.37 294.93 339.41 276.66 347.77 281.29 C 365.37 296.02 381.81 249.62 353.85 258.40 M 403.91 258.47 C 387.23 263.52 407.02 293.64 419.23 281.29 C 425.88 277.46 426.33 289.22 430.33 291.08 C 438.44 291.49 453.11 289.21 452.83 278.29 C 449.43 268.42 434.69 262.44 426.71 266.20 C 423.46 258.10 411.33 257.67 403.91 258.47 M 149.25 261.46 C 142.32 264.61 135.07 265.20 127.66 264.16 C 117.13 270.21 120.94 293.32 134.91 288.09 C 146.36 287.23 154.22 265.12 149.25 261.46 M 382.35 261.20 C 377.90 268.35 379.61 281.66 371.08 289.14 C 379.26 287.34 387.67 287.99 395.91 289.12 C 392.63 282.24 385.73 276.00 387.41 267.56 C 390.13 263.86 385.57 260.21 382.35 261.20 M 615.13 260.86 C 618.31 271.71 618.63 286.09 632.82 288.30 C 646.88 292.65 649.63 268.75 638.69 264.10 C 630.53 266.40 622.87 262.80 615.13 260.86 M 112.57 269.32 C 100.23 269.87 85.43 274.61 87.87 290.00 C 99.65 310.15 124.31 281.53 112.57 269.32 M 652.68 269.19 C 651.81 278.71 652.38 290.20 661.86 295.20 C 670.63 301.82 685.30 290.15 677.62 280.51 C 674.75 268.67 661.85 271.27 652.68 269.19 M 245.83 277.52 C 231.06 279.67 215.64 301.46 228.31 314.14 C 240.42 317.25 254.30 307.36 255.82 294.80 C 258.80 287.79 254.86 276.14 245.83 277.52 M 518.28 277.62 C 497.00 287.76 522.81 325.49 540.80 311.97 C 549.60 298.16 533.81 276.69 518.28 277.62 M 64.33 280.28 C 52.03 290.48 49.87 311.82 65.87 318.75 C 74.94 307.95 80.87 294.60 77.89 280.32 C 73.38 280.48 68.87 280.93 64.33 280.28 M 689.17 280.24 C 687.08 294.08 691.74 309.19 701.84 318.70 C 705.25 312.79 715.12 311.66 712.93 303.04 C 712.89 289.44 704.19 275.86 689.17 280.24 M 217.57 286.44 C 210.15 290.06 202.04 290.07 194.04 290.56 C 189.15 295.49 186.02 302.95 187.03 310.03 C 192.72 322.18 215.13 315.93 212.79 302.76 C 211.35 297.39 220.45 288.21 217.57 286.44 M 547.91 286.04 C 551.28 293.21 555.87 300.39 554.35 308.78 C 560.87 322.62 586.98 316.59 578.93 300.28 C 576.05 284.86 558.48 292.11 547.91 286.04 M 302.53 287.27 C 293.26 293.83 311.32 300.76 307.71 309.87 C 305.29 325.94 320.86 303.82 328.08 302.99 C 316.18 302.80 310.67 290.50 302.53 287.27 M 460.66 287.16 C 456.67 296.17 448.07 300.69 438.92 302.99 C 446.13 303.82 461.71 325.94 459.29 309.88 C 455.92 300.99 477.09 288.38 460.66 287.16 M 179.55 290.36 C 172.69 294.00 165.07 292.79 157.61 292.27 C 145.66 297.30 147.12 320.69 161.33 319.23 C 176.79 317.17 177.26 301.58 181.89 289.97 C 181.30 290.07 180.13 290.27 179.55 290.36 M 585.07 289.97 C 587.40 296.73 590.18 303.30 591.40 310.40 C 596.30 316.50 610.49 324.96 615.19 314.19 C 620.67 307.07 616.54 296.43 609.32 292.18 C 601.05 293.82 592.92 292.46 585.07 289.97 M 28.18 293.17 C 19.27 301.60 16.40 319.94 30.18 324.96 C 42.02 318.27 44.94 296.38 28.18 293.17 M 738.13 293.35 C 722.45 296.72 723.90 319.18 736.83 324.94 C 750.87 320.28 747.85 300.02 738.13 293.35 M 141.43 295.48 C 133.66 300.75 120.76 293.84 118.61 305.70 C 117.23 313.75 111.56 321.02 112.49 329.38 C 118.90 333.19 123.34 339.57 127.86 344.87 C 131.57 336.66 139.74 328.36 136.55 319.74 C 143.62 320.10 140.31 311.60 142.10 307.08 C 142.72 303.82 146.28 294.56 141.43 295.48 M 623.16 295.07 C 624.24 302.93 625.18 311.44 626.96 318.75 C 634.46 318.77 626.12 325.25 630.50 329.28 C 635.11 333.36 634.75 341.73 639.85 344.77 C 643.45 338.47 648.51 333.43 654.50 329.45 C 653.31 318.71 650.05 307.24 643.85 298.20 C 636.76 299.86 630.07 296.01 623.16 295.07 M 283.82 297.49 C 276.56 301.14 268.22 309.02 269.69 317.73 C 260.25 316.18 257.88 330.40 254.32 336.38 C 253.10 354.44 287.53 345.81 281.04 331.13 C 278.42 320.13 294.95 328.18 295.13 318.95 C 297.66 310.29 296.64 293.47 283.82 297.49 M 379.99 297.74 C 366.76 299.57 360.84 308.15 359.02 320.78 C 365.43 320.03 372.67 319.75 377.81 324.34 C 388.53 327.68 396.82 316.98 407.91 320.86 C 408.07 305.55 394.63 295.67 379.99 297.74 M 477.74 297.38 C 468.47 299.11 471.25 312.39 471.93 318.77 C 471.11 328.23 487.63 320.33 485.90 329.96 C 478.33 345.40 513.75 355.02 512.67 336.39 C 509.19 330.59 506.92 316.89 498.02 317.71 C 497.89 309.43 488.58 295.57 477.74 297.38 M 104.06 305.51 C 98.74 304.97 93.14 307.00 99.23 311.00 C 103.16 319.97 111.57 306.95 104.06 305.51 M 662.35 305.17 C 655.95 308.75 664.03 318.75 667.91 310.88 C 675.16 306.54 666.33 305.60 662.35 305.17 M 341.34 311.31 C 321.68 310.38 303.25 332.62 316.92 350.03 C 321.70 346.93 326.05 342.55 332.04 342.15 C 343.68 340.45 345.83 326.90 355.65 321.80 C 351.94 318.58 346.25 312.32 341.34 311.31 M 422.64 311.50 C 420.45 316.32 415.11 318.03 411.17 321.13 C 414.22 325.77 421.47 326.85 422.64 333.37 C 428.07 344.20 442.24 341.06 450.08 350.03 C 464.33 331.44 442.88 308.40 422.64 311.50 M 86.15 314.35 C 74.77 313.92 72.32 327.95 75.38 336.31 C 80.38 339.33 84.79 343.07 88.07 347.94 C 99.19 340.60 102.94 317.71 86.15 314.35 M 679.38 314.37 C 667.14 318.50 666.08 336.74 675.57 344.28 C 678.57 352.33 682.25 342.15 686.08 340.13 C 698.08 335.60 693.36 311.77 679.38 314.37 M 210.52 321.60 C 202.82 326.18 193.57 326.86 185.13 324.00 C 178.35 328.55 175.03 338.67 178.81 346.23 C 188.14 348.46 194.11 355.91 197.87 364.07 C 200.62 349.66 207.81 333.98 210.52 321.60 M 247.49 321.41 C 240.00 325.13 231.83 325.14 224.23 322.10 C 216.83 327.30 213.39 339.96 220.76 347.21 C 211.83 350.26 203.95 360.95 208.75 370.23 C 217.07 373.15 223.78 378.28 228.27 386.00 C 231.86 373.64 240.08 358.64 225.01 349.68 C 241.94 349.23 244.55 333.32 249.80 320.75 C 249.22 320.92 248.07 321.25 247.49 321.41 M 517.20 320.76 C 522.52 332.93 523.87 349.73 541.69 348.92 C 538.43 354.50 531.23 359.97 532.41 367.40 C 536.17 373.02 537.15 379.69 538.73 386.00 C 543.21 378.28 549.92 373.15 558.25 370.23 C 563.05 360.95 555.16 350.26 546.24 347.21 C 553.37 339.97 550.25 327.22 542.77 322.10 C 534.35 325.91 525.49 324.15 517.20 320.76 M 555.71 321.36 C 561.49 335.12 565.17 351.08 569.66 363.59 C 571.69 349.57 593.65 350.67 589.62 335.18 C 586.16 316.05 567.08 331.26 555.71 321.36 M 48.90 322.32 C 32.15 329.81 41.89 348.07 53.32 354.27 C 54.12 348.64 57.02 343.62 60.94 339.58 C 60.86 332.63 56.84 323.12 48.90 322.32 M 717.18 322.32 C 711.00 323.57 708.29 330.07 706.00 335.22 C 705.94 342.44 713.46 346.88 713.68 354.27 C 717.86 353.42 718.32 347.84 722.19 346.22 C 732.07 340.78 727.06 324.55 717.18 322.32 M 16.04 325.93 C 21.18 333.00 18.35 342.06 20.86 350.07 C 31.30 345.13 24.20 328.73 16.04 325.93 M 170.40 326.39 C 162.15 326.21 164.47 333.99 168.89 336.73 C 169.16 333.97 173.86 326.37 170.40 326.39 M 595.03 326.08 C 595.93 329.73 597.54 341.42 600.67 333.66 C 605.78 329.07 599.49 326.47 595.03 326.08 M 749.49 326.36 C 742.75 330.57 736.23 345.14 746.06 350.08 C 746.65 343.39 749.69 329.16 749.49 326.36 M 361.41 330.39 C 348.43 336.64 355.51 358.70 369.56 357.90 C 381.74 350.66 374.98 329.97 361.41 330.39 M 404.86 330.37 C 391.61 330.76 385.68 350.73 397.42 357.95 C 411.65 358.88 418.90 335.39 404.86 330.37 M 146.81 333.60 C 134.63 334.83 130.74 356.67 143.86 359.19 C 150.54 360.45 150.37 369.78 156.37 371.12 C 157.00 363.99 159.39 357.22 162.62 350.90 C 161.42 343.22 156.91 330.57 146.81 333.60 M 615.55 333.38 C 598.33 340.41 607.88 359.59 611.32 371.01 C 617.11 367.13 619.01 357.72 627.84 356.96 C 636.47 348.81 628.09 330.67 615.55 333.38 M 107.44 340.31 C 100.23 343.71 91.68 353.48 97.54 361.43 C 104.90 364.03 109.35 370.48 113.22 376.92 C 122.39 367.20 124.97 343.46 107.44 340.31 M 657.91 340.28 C 641.89 345.83 645.05 367.21 653.78 376.91 C 657.65 370.48 662.10 364.03 669.46 361.43 C 675.52 353.23 666.00 341.91 657.91 340.28 M 69.59 346.57 C 62.34 349.07 57.96 358.05 59.63 365.18 C 66.49 368.79 70.62 375.76 74.15 381.74 C 76.81 377.88 77.13 369.83 81.57 365.60 C 81.54 358.55 77.95 346.51 69.59 346.57 M 695.32 346.26 C 680.58 354.03 687.15 371.51 692.85 381.74 C 696.26 375.31 701.48 368.88 707.91 364.48 C 707.86 356.74 703.88 347.02 695.32 346.26 M 299.10 351.29 C 280.79 361.89 277.79 391.83 300.13 398.59 C 301.93 395.70 301.85 387.55 306.59 384.69 C 316.87 376.83 309.92 363.09 314.67 352.77 C 309.42 352.95 303.86 353.43 299.10 351.29 M 467.30 351.28 C 463.42 356.27 450.35 348.05 452.96 356.01 C 457.56 364.70 450.26 376.68 459.36 383.71 C 464.78 386.65 465.08 395.10 466.89 398.61 C 490.00 392.27 485.78 360.90 467.30 351.28 M 36.49 353.26 C 22.79 359.78 27.96 377.17 39.03 382.71 C 44.95 375.25 50.58 355.49 36.49 353.26 M 727.47 353.12 C 716.50 361.42 723.56 373.10 727.18 382.74 C 740.52 378.74 744.88 354.96 727.47 353.12 M 253.28 354.10 C 249.85 355.99 249.64 363.27 254.35 363.22 C 263.46 363.16 268.73 372.38 273.89 377.75 C 274.64 369.50 277.74 361.58 281.04 354.10 C 271.85 358.14 262.51 357.14 253.28 354.10 M 328.73 354.34 C 311.90 363.39 336.80 386.71 347.56 373.29 C 350.84 361.86 339.52 352.51 328.73 354.34 M 433.49 354.46 C 423.70 354.60 416.52 364.73 419.73 373.97 C 429.27 382.13 443.06 373.43 444.49 362.22 C 443.10 357.64 439.13 352.08 433.49 354.46 M 485.95 354.10 C 489.28 361.58 492.35 369.50 493.11 377.75 C 498.27 372.38 503.53 363.17 512.63 363.22 C 519.30 363.24 515.69 350.47 509.86 354.84 C 502.27 359.76 493.79 356.30 485.95 354.10 M 173.04 357.12 C 164.95 362.64 160.66 380.07 172.86 384.16 C 177.35 386.83 179.43 391.74 182.36 395.82 C 186.71 392.68 183.68 383.57 187.95 379.10 C 196.63 370.10 184.38 353.78 173.04 357.12 M 587.02 357.29 C 567.08 364.43 581.77 384.56 584.65 395.84 C 588.28 388.84 593.95 383.54 600.62 379.37 C 603.86 370.37 599.17 353.76 587.02 357.29 M 130.74 366.31 C 125.32 369.34 121.33 376.83 122.22 383.15 C 129.64 386.04 133.24 392.72 137.19 399.01 C 140.80 394.07 142.24 385.99 147.65 381.32 C 150.35 371.84 139.24 364.20 130.74 366.31 M 629.84 366.58 C 610.89 370.69 624.26 389.77 629.80 399.01 C 633.55 392.66 637.23 386.04 644.80 383.43 C 645.38 375.83 639.70 362.57 629.84 366.58 M 90.60 371.20 C 84.80 374.39 78.76 388.37 87.48 391.53 C 95.49 393.65 100.07 403.73 90.74 407.76 C 79.07 409.71 82.67 425.27 90.61 429.81 C 99.92 431.35 103.77 420.88 105.61 413.82 C 105.01 407.21 99.88 400.61 103.91 393.97 C 108.39 385.18 101.54 369.96 90.60 371.20 M 250.14 371.27 C 237.31 372.83 235.57 394.87 242.93 400.82 C 233.54 406.92 238.78 430.31 251.64 429.71 C 258.80 425.54 264.40 418.06 264.87 409.60 C 262.11 406.46 254.22 401.93 259.04 397.12 C 270.74 390.25 259.86 374.07 250.14 371.27 M 515.36 371.29 C 508.20 375.46 502.60 382.94 502.13 391.40 C 504.89 394.53 512.78 399.07 507.96 403.88 C 496.41 410.95 506.71 424.82 515.36 429.71 C 529.46 430.15 531.75 406.25 524.07 400.18 C 533.46 394.08 528.22 370.69 515.36 371.29 M 672.50 371.44 C 662.32 374.73 658.53 389.72 664.48 398.51 C 661.40 408.56 659.37 420.45 668.94 428.23 C 678.89 435.34 687.46 417.96 682.16 410.84 C 673.90 408.80 665.22 398.42 676.26 393.24 C 689.30 391.67 683.54 369.76 672.50 371.44 M 52.51 377.15 C 44.68 383.75 44.27 399.24 57.10 400.13 C 44.90 401.75 44.14 416.73 52.52 423.85 C 65.10 424.56 65.56 407.31 64.77 398.42 C 65.40 390.43 63.39 376.03 52.51 377.15 M 711.41 377.31 C 701.05 380.25 701.93 394.84 702.22 403.45 C 701.65 411.18 703.98 425.07 714.49 423.85 C 723.03 416.75 721.50 401.80 710.02 400.13 C 724.08 400.43 722.55 377.89 711.41 377.31 M 207.30 379.33 C 187.23 381.85 187.21 419.80 207.76 421.83 C 224.78 414.95 224.72 385.39 207.30 379.33 M 382.31 379.34 C 364.21 379.30 355.08 404.66 369.06 415.93 C 379.65 427.12 400.86 420.87 404.04 405.96 C 408.33 392.66 396.10 377.96 382.31 379.34 M 558.55 379.44 C 542.23 387.09 542.69 414.80 559.25 421.83 C 580.09 419.75 579.77 379.99 558.55 379.44 M 156.58 388.48 C 141.63 392.36 148.89 418.79 164.23 412.06 C 179.64 406.86 170.40 384.54 156.58 388.48 M 604.08 388.55 C 590.28 391.45 592.79 412.21 606.14 412.67 C 623.99 415.34 621.67 382.94 604.08 388.55 M 32.01 389.81 C 32.16 396.54 34.50 403.66 31.61 410.48 C 36.34 407.54 36.89 395.10 32.01 389.81 M 322.45 390.52 C 316.84 391.23 309.42 394.56 310.58 401.41 C 312.56 413.38 333.83 413.80 337.66 402.42 C 339.15 394.34 329.43 389.11 322.45 390.52 M 440.42 390.53 C 434.42 390.84 427.33 396.52 429.55 403.16 C 434.24 412.99 450.03 412.81 455.75 404.42 C 459.85 395.07 448.31 389.10 440.42 390.53 M 734.54 390.45 C 729.55 394.86 731.80 413.24 735.84 408.98 C 729.82 403.79 737.71 393.11 734.54 390.45 M 118.39 396.48 C 104.80 397.12 116.52 409.37 124.63 403.77 C 130.96 400.65 122.85 393.84 118.39 396.48 M 644.58 396.33 C 631.23 402.16 653.20 409.68 655.92 400.13 C 653.30 396.66 648.60 396.09 644.58 396.33 M 137.20 401.99 C 134.52 412.75 115.83 415.48 124.37 427.56 C 128.13 441.85 151.64 432.96 147.59 419.88 C 142.50 414.90 140.68 407.05 137.20 401.99 M 300.11 402.39 C 270.17 410.23 287.02 459.12 314.51 448.44 C 310.07 438.20 316.78 424.89 307.11 416.80 C 302.01 413.90 301.95 405.63 300.11 402.39 M 466.31 402.04 C 465.63 407.64 464.28 413.83 459.36 417.29 C 450.44 425.45 457.02 438.24 452.33 448.23 C 480.70 460.19 496.33 408.94 466.31 402.04 M 628.36 402.51 C 626.88 408.89 623.87 414.91 619.35 419.68 C 616.38 429.89 629.95 438.41 638.44 433.67 C 642.60 428.62 649.75 418.34 640.21 414.89 C 633.88 413.41 633.67 402.93 628.36 402.51 M 182.35 405.16 C 178.72 412.16 173.04 417.46 166.38 421.63 C 163.87 428.86 166.21 437.57 171.33 443.11 C 182.78 448.53 197.10 432.00 188.01 421.96 C 183.70 417.43 186.68 408.35 182.35 405.16 M 583.14 405.64 C 582.14 411.09 582.14 417.07 579.05 421.90 C 569.59 431.39 584.89 449.98 596.00 442.51 C 602.38 435.56 605.65 420.10 593.55 416.42 C 588.45 414.84 587.82 405.69 583.14 405.64 M 228.27 415.00 C 223.78 422.72 217.07 427.85 208.75 430.77 C 203.95 440.04 211.83 450.74 220.76 453.79 C 213.63 461.03 216.75 473.78 224.23 478.90 C 232.65 475.09 241.51 476.85 249.80 480.24 C 244.47 468.07 243.13 451.27 225.31 452.08 C 228.57 446.50 235.77 441.03 234.59 433.60 C 230.83 427.98 229.84 421.30 228.27 415.00 M 538.24 415.62 C 535.06 428.03 527.12 442.50 541.99 451.32 C 525.06 451.77 522.45 467.68 517.20 480.25 C 523.17 478.80 529.15 475.17 535.44 476.88 C 548.28 484.67 555.29 461.36 546.24 453.79 C 557.19 451.69 567.00 431.00 552.14 427.86 C 545.40 427.02 542.64 417.01 538.24 415.62 M 38.34 418.27 C 35.52 421.96 31.96 424.87 28.30 427.68 C 26.47 435.49 29.64 448.54 39.53 447.88 C 50.44 439.99 43.82 425.39 38.34 418.27 M 727.25 418.43 C 723.12 427.86 716.46 440.75 728.26 447.99 C 744.46 444.73 739.84 422.30 727.25 418.43 M 73.40 419.43 C 71.27 427.08 64.79 431.68 59.09 436.52 C 59.05 444.26 63.54 455.03 72.35 454.46 C 86.47 446.35 79.84 427.93 73.40 419.43 M 692.08 419.13 C 691.04 425.00 689.22 430.71 685.43 435.40 C 685.46 442.77 688.44 451.15 695.32 454.74 C 703.68 454.01 710.10 442.64 706.86 435.26 C 699.08 432.64 696.96 423.43 692.08 419.13 M 273.19 423.20 C 268.78 430.10 262.58 437.77 253.65 437.88 C 247.73 438.86 251.71 450.33 257.14 446.16 C 264.72 441.24 273.21 444.70 281.05 446.90 C 277.17 439.64 275.57 429.99 273.19 423.20 M 337.20 423.56 C 329.70 425.07 322.98 431.78 322.73 439.44 C 326.28 453.01 347.37 445.70 347.86 433.72 C 350.64 426.25 342.50 424.04 337.20 423.56 M 429.08 423.51 C 408.43 424.37 424.45 454.24 439.69 445.92 C 450.40 438.56 439.00 424.28 429.08 423.51 M 493.11 423.25 C 492.36 431.50 489.25 439.41 485.96 446.90 C 495.14 442.85 504.48 443.85 513.72 446.90 C 520.84 440.07 511.63 437.03 506.05 435.97 C 500.25 433.42 497.22 426.93 493.11 423.25 M 113.22 424.09 C 109.45 428.88 106.87 435.37 100.84 437.84 C 85.88 443.84 107.07 470.85 116.02 456.06 C 124.97 446.71 119.27 432.36 113.22 424.09 M 652.36 424.52 C 647.39 435.35 641.99 448.78 652.86 458.21 C 662.93 467.75 679.97 443.12 666.16 437.84 C 659.28 436.27 658.01 425.24 652.36 424.52 M 154.32 430.32 C 150.38 436.38 146.34 442.73 138.49 444.39 C 130.62 453.86 140.13 471.49 152.99 467.25 C 168.09 459.41 159.63 438.09 154.32 430.32 M 610.63 429.88 C 610.24 441.44 599.47 452.25 609.07 462.84 C 619.60 478.09 640.31 454.96 627.85 444.03 C 618.52 443.57 617.30 432.82 610.63 429.88 M 197.34 437.41 C 195.31 451.42 173.35 450.33 177.38 465.82 C 180.84 484.95 199.91 469.74 211.29 479.64 C 205.51 465.88 201.83 449.91 197.34 437.41 M 569.13 436.93 C 565.75 451.84 560.70 465.18 555.78 479.63 C 563.76 475.14 573.14 473.89 581.87 477.00 C 588.65 472.45 591.97 462.33 588.19 454.77 C 578.86 452.54 572.89 445.08 569.13 436.93 M 367.28 443.32 C 354.83 444.54 349.34 464.02 360.78 470.26 C 375.52 473.37 382.53 445.64 367.28 443.32 M 397.44 443.10 C 385.26 450.34 392.01 471.03 405.59 470.61 C 418.57 464.36 411.49 442.30 397.44 443.10 M 51.37 447.38 C 48.95 450.28 47.19 453.87 43.61 455.59 C 33.32 461.80 43.71 484.20 54.42 476.53 C 65.86 468.75 57.44 451.96 51.37 447.38 M 713.68 446.73 C 712.88 452.36 709.97 457.37 706.06 461.42 C 704.93 470.11 716.15 486.07 723.98 473.97 C 733.79 463.78 721.48 452.56 713.68 446.73 M 20.94 450.92 C 17.98 458.75 21.21 467.87 16.02 475.08 C 24.37 472.39 30.81 455.92 20.94 450.92 M 316.85 451.00 C 298.75 472.35 336.56 503.86 352.90 481.88 C 360.54 478.00 346.74 475.46 346.11 470.82 C 341.87 456.84 325.50 460.73 316.85 451.00 M 449.44 451.37 C 444.95 454.47 440.67 458.45 434.96 458.85 C 423.32 460.55 421.17 474.10 411.35 479.20 C 413.44 483.19 420.72 484.32 422.65 489.46 C 443.11 493.53 465.25 467.55 449.44 451.37 M 745.42 451.27 C 735.97 456.83 743.08 472.27 750.96 475.07 C 745.37 468.44 749.46 456.89 745.42 451.27 M 87.59 453.55 C 85.35 456.29 83.47 459.45 80.33 461.29 C 68.65 466.18 74.37 490.31 88.35 486.40 C 102.87 480.80 98.70 458.21 87.59 453.55 M 678.33 453.38 C 668.89 461.20 664.23 479.24 677.93 486.08 C 690.70 490.43 696.83 471.90 690.37 463.75 C 685.26 461.73 682.04 455.81 678.33 453.38 M 261.43 454.33 C 245.75 459.45 260.41 483.12 269.61 483.99 C 268.73 492.66 277.11 500.27 284.40 503.91 C 297.22 506.64 297.42 490.27 295.07 482.23 C 295.89 472.76 279.36 480.67 281.10 471.04 C 286.32 459.18 270.62 453.82 261.43 454.33 M 504.15 454.43 C 496.27 454.75 481.60 458.55 485.92 469.02 C 488.85 478.31 477.93 475.72 473.39 478.27 C 469.79 485.39 470.51 494.33 473.06 501.70 C 484.96 509.65 498.14 492.91 498.02 483.29 C 508.59 482.55 520.96 456.47 504.15 454.43 M 127.15 456.23 C 123.54 462.52 118.49 467.57 112.50 471.55 C 113.69 482.29 116.95 493.76 123.15 502.80 C 130.24 501.14 136.92 504.98 143.84 505.93 C 142.75 498.06 141.82 489.56 140.04 482.25 C 132.54 482.23 140.87 475.74 136.50 471.72 C 131.89 467.63 132.24 459.27 127.15 456.23 M 639.14 456.13 C 635.94 464.03 627.36 471.69 630.61 480.16 C 623.43 483.38 624.82 497.32 623.22 505.92 C 632.15 501.36 646.19 506.89 648.64 494.58 C 649.83 486.74 655.61 479.76 654.51 471.62 C 648.10 467.81 643.65 461.42 639.14 456.13 M 168.15 464.12 C 166.78 467.40 161.07 472.49 167.38 473.71 C 174.93 478.39 170.54 466.66 168.15 464.12 M 598.11 464.27 C 597.50 467.56 591.78 477.50 598.88 473.98 C 605.91 473.43 600.72 466.12 598.11 464.27 M 29.52 476.38 C 16.14 481.67 19.58 499.55 28.18 507.83 C 44.64 505.36 43.32 480.29 29.52 476.38 M 378.48 476.30 C 373.65 481.69 363.74 480.01 359.32 480.84 C 358.39 511.39 409.15 509.98 407.98 480.22 C 397.00 483.72 389.13 474.08 378.48 476.30 M 735.38 476.23 C 725.42 485.02 722.31 503.61 738.13 507.65 C 748.41 501.14 750.58 478.31 735.38 476.23 M 159.11 481.48 C 146.42 483.78 146.70 503.64 157.68 508.82 C 165.95 507.17 174.08 508.54 181.93 511.03 C 177.45 498.65 175.89 482.20 159.11 481.48 M 607.14 481.49 C 590.85 482.79 589.63 498.88 585.11 511.03 C 591.54 509.77 597.37 506.00 604.30 508.46 C 619.92 511.35 622.45 482.25 607.14 481.49 M 65.16 482.30 C 61.75 488.21 51.88 489.34 54.07 497.96 C 54.11 511.56 62.81 525.14 77.83 520.76 C 79.92 506.92 75.26 491.81 65.16 482.30 M 701.13 482.25 C 692.12 492.98 685.22 507.74 690.01 520.78 C 712.52 527.06 721.56 489.87 701.13 482.25 M 198.18 484.32 C 182.55 484.05 185.57 504.59 194.85 510.74 C 203.34 510.05 211.25 512.05 219.09 514.96 C 210.33 504.27 217.49 484.27 198.18 484.32 M 308.25 483.97 C 306.95 491.27 308.37 500.76 301.38 506.34 C 295.22 509.71 304.99 518.21 307.70 511.98 C 311.26 503.59 320.06 500.52 328.08 498.01 C 320.97 493.98 314.27 489.54 308.25 483.97 M 458.21 484.33 C 452.55 490.03 445.73 493.93 438.92 498.01 C 446.93 500.52 455.75 503.58 459.30 511.99 C 463.62 518.48 471.64 508.49 464.82 505.15 C 457.66 500.35 461.02 488.90 458.21 484.33 M 567.25 484.39 C 549.65 485.84 556.29 504.64 547.91 514.96 C 555.75 512.05 563.65 510.05 572.15 510.74 C 582.30 504.27 583.69 482.48 567.25 484.39 M 230.02 486.07 C 211.64 497.80 236.67 532.56 253.84 520.61 C 263.16 505.35 247.25 483.77 230.02 486.07 M 529.89 486.57 C 515.52 489.31 504.43 508.65 513.81 521.18 C 525.28 528.93 537.79 515.12 542.10 505.02 C 546.87 496.70 540.95 482.09 529.89 486.57 M 102.50 487.30 C 98.21 490.00 93.20 494.56 100.91 495.14 C 107.82 499.60 109.10 485.79 102.50 487.30 M 662.28 487.15 C 658.09 489.95 660.17 498.89 666.29 495.12 C 676.10 496.23 665.82 486.43 662.28 487.15 M 265.89 503.45 C 267.85 511.90 265.09 520.50 260.08 527.28 C 261.61 537.14 273.71 542.37 282.83 539.34 C 282.11 549.14 291.02 557.83 300.40 557.48 C 306.13 551.00 312.84 544.74 322.08 544.06 C 311.06 535.23 299.12 525.75 285.29 535.18 C 291.21 519.39 277.39 510.58 265.89 503.45 M 500.54 503.24 C 489.72 510.93 474.99 518.99 481.73 535.22 C 468.14 525.92 455.86 535.26 444.90 544.04 C 453.75 544.96 460.92 550.03 465.97 557.09 C 475.30 558.84 484.97 549.17 484.20 539.45 C 493.37 542.15 504.30 537.49 506.98 528.10 C 501.72 520.88 499.83 512.02 500.54 503.24 M 95.69 504.34 C 88.38 506.44 84.65 514.82 89.67 521.20 C 92.78 532.65 105.45 529.48 114.32 531.81 C 117.79 519.88 110.30 501.66 95.69 504.34 M 665.66 504.38 C 653.87 507.16 650.62 521.14 652.60 531.67 C 658.28 530.44 664.03 528.93 670.14 529.76 C 682.22 524.21 682.91 500.93 665.66 504.38 M 328.63 510.48 C 322.22 511.28 313.52 514.96 314.16 522.72 C 317.58 532.58 332.31 538.56 340.29 534.80 C 344.56 543.71 359.55 545.08 367.54 540.53 C 374.91 530.32 359.03 509.36 347.77 519.71 C 338.37 523.68 340.52 502.25 328.63 510.48 M 429.70 509.82 C 426.65 512.89 425.50 523.26 419.23 519.71 C 408.08 509.59 392.95 529.45 398.91 539.95 C 406.60 545.87 422.36 543.61 426.71 534.80 C 434.72 538.59 450.52 532.35 452.90 521.94 C 452.06 511.23 437.91 509.79 429.70 509.82 M 129.42 512.28 C 118.59 514.83 119.40 532.63 128.30 536.90 C 136.49 534.49 144.08 538.41 151.80 540.13 C 149.36 527.66 146.07 511.21 129.42 512.28 M 371.09 511.88 C 374.37 518.76 381.26 525.00 379.59 533.44 C 375.04 541.84 391.96 541.85 387.41 533.44 C 385.74 525.00 392.62 518.75 395.92 511.86 C 387.73 513.66 379.32 513.00 371.09 511.88 M 634.36 512.33 C 620.45 514.03 617.18 528.61 615.14 540.09 C 621.31 539.29 627.08 535.05 633.47 536.55 C 648.74 540.73 649.72 509.58 634.36 512.33 M 169.44 516.58 C 156.33 515.98 154.51 533.03 162.23 541.03 C 169.45 536.45 176.89 542.27 184.01 544.02 C 180.59 534.12 185.80 515.41 169.44 516.58 M 596.11 516.40 C 580.89 517.17 586.74 534.35 583.01 544.01 C 590.04 541.94 597.25 536.90 604.79 540.97 C 613.19 532.45 609.59 515.24 596.11 516.40 M 198.85 520.52 C 182.35 523.66 193.62 550.31 207.82 543.20 C 220.79 536.52 213.69 515.16 198.85 520.52 M 561.71 520.50 C 543.82 521.60 554.86 553.11 570.10 542.29 C 581.85 535.72 575.66 515.85 561.71 520.50 M 35.77 521.28 C 24.72 529.58 43.34 555.53 53.97 544.82 C 59.74 532.42 48.92 518.50 35.77 521.28 M 724.91 521.60 C 709.39 521.78 706.38 552.73 724.57 546.62 C 732.45 541.99 742.48 516.88 724.91 521.60 M 223.29 521.77 C 224.59 529.71 223.47 537.61 220.02 544.96 C 222.69 552.07 228.96 557.49 236.05 559.87 C 247.97 558.69 250.11 541.19 242.55 534.44 C 234.54 532.87 229.45 526.32 223.29 521.77 M 542.47 522.44 C 537.11 527.73 531.32 532.83 523.83 534.76 C 516.81 541.98 519.48 558.62 530.90 559.85 C 539.29 556.98 550.84 547.96 544.62 538.29 C 540.52 534.22 545.90 522.98 542.47 522.44 M 70.57 532.36 C 62.93 534.33 63.39 546.83 68.66 551.38 C 73.26 558.45 82.28 555.04 88.93 558.21 C 88.80 546.14 85.65 531.52 70.57 532.36 M 693.40 532.41 C 679.62 534.17 679.63 546.98 678.01 558.12 C 684.61 554.48 693.91 558.56 698.37 551.24 C 704.80 546.51 703.01 530.45 693.40 532.41 M 101.31 539.27 C 92.28 543.39 94.18 557.02 101.06 562.21 C 108.27 563.30 116.04 563.13 122.02 568.01 C 121.69 555.91 116.53 540.07 101.31 539.27 M 664.22 539.40 C 649.80 541.12 645.76 556.59 644.99 568.00 C 651.02 563.41 658.52 562.61 665.87 562.21 C 673.39 557.38 674.63 540.80 664.22 539.40 M 254.51 539.71 C 256.37 548.45 256.12 558.45 249.25 565.20 C 252.06 573.26 259.51 579.14 268.35 578.78 C 272.95 570.66 281.70 566.67 290.70 565.91 C 279.45 558.32 266.08 548.88 254.51 539.71 M 510.66 540.59 C 504.65 548.90 493.52 550.38 487.92 558.98 C 486.40 561.89 470.83 564.75 479.34 566.80 C 487.43 567.00 494.51 572.08 498.66 578.79 C 507.49 579.13 514.95 573.26 517.75 565.19 C 512.68 559.57 509.72 551.46 512.03 543.99 C 512.53 542.35 513.38 538.18 510.66 540.59 M 132.13 546.30 C 125.19 551.37 129.43 563.19 134.46 568.23 C 140.17 566.74 146.29 565.56 151.86 568.55 C 153.41 574.83 150.40 580.17 147.39 585.24 C 149.51 591.62 156.67 596.53 163.48 596.40 C 170.51 594.11 169.85 585.07 168.13 579.44 C 167.80 570.41 155.52 570.29 154.07 561.90 C 153.51 551.18 141.85 544.87 132.13 546.30 M 185.09 546.30 C 185.02 552.62 187.27 559.68 183.17 565.21 C 179.53 571.12 188.97 574.70 193.17 576.05 C 206.61 582.02 215.02 554.85 199.67 553.32 C 194.26 552.17 190.32 547.47 185.09 546.30 M 580.47 546.51 C 574.74 551.94 566.16 552.20 560.35 557.15 C 556.12 565.19 563.11 580.61 573.83 576.05 C 578.75 574.86 588.45 570.05 583.12 563.93 C 578.85 559.08 584.19 549.01 580.47 546.51 M 627.55 546.66 C 612.41 548.11 616.16 568.11 602.63 572.55 C 596.96 578.38 594.44 592.74 603.54 596.42 C 610.34 596.51 617.49 591.62 619.61 585.24 C 614.58 578.89 611.54 565.22 623.39 566.70 C 638.99 577.40 645.35 539.73 627.55 546.66 M 169.56 550.13 C 165.76 551.78 159.06 562.67 167.30 560.84 C 175.93 563.11 180.34 547.68 169.56 550.13 M 593.40 550.38 C 584.58 555.76 599.66 564.26 603.86 559.95 C 603.20 554.98 599.13 548.27 593.40 550.38 M 349.12 551.95 C 351.79 557.65 357.60 562.18 357.64 568.98 C 355.54 583.45 379.64 582.47 383.10 571.13 C 387.95 580.03 401.79 582.56 408.88 575.65 C 407.63 566.39 413.09 559.14 417.94 552.03 C 411.68 553.56 405.18 554.29 398.93 552.27 C 390.54 552.80 387.44 561.89 383.14 566.87 C 379.89 560.80 375.76 553.02 368.09 552.28 C 361.84 554.56 355.41 552.97 349.12 551.95 M 321.32 554.71 C 312.44 554.60 303.90 563.76 310.27 572.48 C 318.76 582.71 337.83 589.13 347.78 577.64 C 352.99 563.13 333.73 551.94 321.32 554.71 M 437.52 554.61 C 427.59 556.36 414.37 566.05 419.22 577.64 C 429.60 589.59 451.40 582.43 457.93 569.79 C 462.65 557.75 446.77 552.67 437.52 554.61 M 45.20 555.31 C 41.82 558.62 56.84 565.79 59.23 571.81 C 66.33 566.53 53.35 555.95 45.20 555.31 M 720.32 555.44 C 712.93 557.93 703.61 562.74 705.51 572.16 C 713.03 570.40 714.92 559.85 722.78 557.84 C 725.56 556.43 722.00 554.72 720.32 555.44 M 216.28 558.14 C 214.44 564.86 217.38 573.01 211.74 578.97 C 206.60 593.94 236.09 602.41 237.31 585.79 C 240.23 571.52 225.11 565.50 216.28 558.14 M 549.44 558.48 C 541.15 566.01 527.08 571.40 529.59 585.12 C 530.32 603.61 563.07 592.74 554.20 576.93 C 547.94 572.35 554.94 560.55 549.44 558.48 M 77.35 564.19 C 64.54 575.68 81.61 593.62 94.92 588.03 C 93.61 577.39 89.81 565.51 77.35 564.19 M 688.70 564.40 C 676.58 563.47 663.38 594.00 680.54 587.73 C 691.61 591.33 700.23 567.25 688.70 564.40 M 106.53 573.23 C 95.86 576.55 104.31 599.04 114.70 592.70 C 123.28 589.94 116.23 598.54 114.55 601.48 C 116.03 609.02 130.22 620.51 134.44 607.88 C 131.70 593.48 121.30 576.62 106.53 573.23 M 657.65 573.51 C 650.49 576.25 644.76 581.46 641.64 588.57 C 634.84 594.41 628.18 607.45 637.39 613.84 C 644.48 613.96 649.68 607.65 652.70 602.13 C 651.00 598.60 643.19 589.45 653.11 592.88 C 664.51 599.26 671.30 570.77 657.65 573.51 M 293.61 574.32 C 285.47 574.17 275.82 580.46 277.32 589.51 C 281.67 595.52 288.98 600.80 296.50 600.58 C 302.86 595.28 309.42 590.75 318.00 590.13 C 308.11 587.45 303.29 575.60 293.61 574.32 M 471.35 574.30 C 463.80 578.69 457.88 586.85 448.98 590.12 C 457.38 591.10 464.47 594.67 470.47 600.67 C 478.20 600.74 485.24 595.40 489.84 589.50 C 491.02 579.54 480.04 573.50 471.35 574.30 M 179.21 578.08 C 176.73 584.25 180.99 591.87 176.39 597.53 C 169.70 612.15 203.40 619.64 199.68 600.94 C 200.49 588.48 188.20 582.73 179.21 578.08 M 246.80 578.28 C 248.23 582.64 244.62 590.47 251.71 586.69 C 261.07 585.60 249.54 580.70 246.80 578.28 M 519.50 578.16 C 516.54 580.70 506.23 585.79 515.32 586.69 C 522.22 590.59 519.28 582.25 519.50 578.16 M 586.41 578.36 C 578.54 584.61 566.54 587.83 567.32 600.23 C 562.45 620.00 598.83 612.00 590.26 596.88 C 585.34 591.91 592.11 580.13 586.41 578.36 M 383.15 587.37 C 377.28 594.28 366.26 584.91 360.77 589.84 C 368.85 593.74 372.37 603.20 371.31 611.69 C 377.02 618.27 389.97 618.27 395.69 611.69 C 394.91 605.52 396.57 599.22 400.35 594.31 C 415.68 582.35 388.50 594.36 383.15 587.37 M 348.33 591.55 C 340.98 596.32 332.55 591.76 325.08 592.97 C 331.74 598.31 334.12 606.36 337.20 613.93 C 343.42 617.33 351.79 619.23 358.40 615.49 C 366.21 607.50 358.43 592.35 348.33 591.55 M 417.71 591.52 C 408.34 593.82 400.90 607.57 408.60 615.61 C 415.54 619.12 424.19 617.41 430.49 613.51 C 432.78 605.80 435.56 598.22 441.91 592.97 C 434.11 592.04 425.44 595.99 417.71 591.52 M 261.25 594.39 C 244.51 592.01 241.27 614.44 255.72 619.77 C 266.81 626.07 270.27 610.33 280.48 610.62 C 283.40 611.02 286.93 607.65 282.74 606.27 C 274.43 603.92 270.52 593.27 261.25 594.39 M 504.26 594.38 C 495.59 595.68 490.57 604.28 482.44 607.45 C 483.15 612.65 492.53 609.71 495.65 614.22 C 501.84 628.12 523.09 617.34 520.60 604.29 C 520.41 596.38 510.44 594.63 504.26 594.38 M 209.27 596.13 C 207.14 602.10 209.73 610.58 206.06 616.97 C 209.91 624.51 219.27 627.27 225.14 632.96 C 234.11 640.88 242.12 626.76 251.96 627.12 C 245.62 620.71 239.55 609.79 230.49 609.97 C 229.35 600.80 216.63 599.50 209.27 596.13 M 556.36 596.39 C 549.64 600.32 537.31 600.93 536.51 609.97 C 527.45 609.79 521.38 620.70 515.04 627.12 C 525.30 627.41 534.68 641.57 543.60 631.59 C 547.90 625.97 565.04 622.25 559.20 612.54 C 555.82 608.27 562.42 596.85 556.36 596.39 M 143.82 597.08 C 145.37 603.22 145.31 609.78 142.94 615.71 C 138.38 627.50 166.03 636.06 164.62 621.37 C 166.53 607.89 152.68 603.31 143.82 597.08 M 622.42 597.35 C 612.99 603.08 600.25 608.52 602.38 622.00 C 601.87 636.61 629.39 626.47 623.85 615.02 C 620.49 609.54 623.47 601.16 622.42 597.35 M 92.72 598.28 C 96.13 604.54 103.33 607.78 105.50 615.18 C 104.80 607.57 100.11 600.70 92.72 598.28 M 673.60 598.59 C 666.45 601.05 662.24 607.92 661.49 615.21 C 666.66 613.32 663.85 605.79 669.15 604.21 C 671.47 603.69 675.36 599.41 673.60 598.59 M 317.88 600.45 C 302.96 597.63 294.86 621.52 311.88 624.24 C 328.00 630.02 331.31 604.93 317.88 600.45 M 448.44 600.36 C 444.04 604.61 438.50 610.09 441.00 616.87 C 443.38 630.47 466.27 625.13 464.91 612.61 C 464.89 603.95 455.66 600.44 448.44 600.36 M 175.09 616.44 C 175.27 622.21 174.10 627.78 172.20 633.17 C 174.32 642.58 186.60 653.56 195.32 643.22 C 203.35 630.29 187.79 615.53 175.09 616.44 M 589.47 616.27 C 578.01 617.84 565.10 629.52 570.91 641.95 C 578.35 653.94 594.10 642.99 594.62 632.43 C 591.07 627.85 595.05 616.76 589.47 616.27 M 115.10 616.97 C 107.85 629.07 116.45 645.91 131.52 642.78 C 138.77 628.99 124.49 622.38 115.10 616.97 M 284.51 617.52 C 273.80 618.64 268.45 634.15 278.93 640.12 C 288.35 650.48 295.06 630.30 307.11 634.09 C 298.20 630.22 295.22 616.03 284.51 617.52 M 478.48 617.47 C 470.95 620.43 467.84 630.61 459.95 634.05 C 467.41 635.65 475.95 636.97 480.29 643.96 C 497.19 642.34 497.50 614.81 478.48 617.47 M 651.35 617.39 C 641.45 621.55 628.74 630.11 635.47 642.78 C 650.76 646.80 659.56 627.05 651.35 617.39 M 377.74 624.40 C 380.30 628.43 383.86 636.41 386.35 628.36 C 393.29 622.17 382.24 625.01 377.74 624.40 M 341.39 626.03 C 341.89 633.26 351.75 638.19 349.61 647.02 C 355.99 660.10 382.48 650.78 374.19 635.96 C 367.70 623.08 352.92 627.18 341.39 626.03 M 404.68 626.44 C 397.41 629.15 387.47 637.54 392.66 646.08 C 398.01 658.29 421.28 653.99 418.55 639.71 C 418.23 633.85 426.30 631.56 425.79 626.10 C 418.77 627.55 411.71 626.09 404.68 626.44 M 327.50 631.45 C 322.76 635.55 310.30 631.68 309.57 636.31 C 319.13 641.23 314.27 660.41 328.24 655.30 C 344.87 657.72 342.62 628.74 327.50 631.45 M 436.36 631.28 C 427.44 632.98 425.37 644.04 428.62 651.14 C 433.20 656.20 442.66 657.32 448.37 654.19 C 447.27 645.46 455.21 640.88 457.82 634.14 C 450.43 635.51 443.50 631.53 436.36 631.28 M 142.95 631.96 C 137.50 644.31 141.35 663.82 158.77 660.58 C 170.29 646.51 154.33 637.46 142.95 631.96 M 623.46 632.36 C 612.06 637.90 596.93 646.02 608.19 660.69 C 625.87 664.45 629.84 642.25 623.46 632.36 M 208.51 635.21 C 204.79 637.16 207.07 642.58 204.91 645.83 C 211.91 644.11 219.52 635.85 208.51 635.21 M 556.37 635.28 C 547.06 638.50 557.02 643.68 562.09 645.83 C 559.82 642.45 562.55 634.12 556.37 635.28 M 252.01 636.61 C 232.78 636.64 243.55 665.46 258.81 660.48 C 262.03 652.40 272.57 654.02 278.18 649.19 C 269.73 644.08 263.72 632.93 252.01 636.61 M 508.19 636.51 C 499.57 636.47 496.16 646.20 488.82 649.19 C 494.39 654.03 504.99 652.37 508.13 660.47 C 518.65 663.04 526.83 652.25 525.75 642.57 C 521.95 636.96 514.43 635.90 508.19 636.51 M 303.59 644.07 C 296.80 645.29 295.16 654.14 299.30 658.80 C 305.83 658.61 309.99 647.51 303.59 644.07 M 463.12 643.94 C 457.16 648.05 460.93 657.26 466.98 659.10 C 472.34 655.06 469.70 645.19 463.12 643.94 M 218.86 649.69 C 210.41 650.06 207.54 659.64 210.03 666.28 C 214.82 670.31 221.13 673.97 227.49 673.64 C 231.99 669.48 237.01 666.42 243.00 665.07 C 237.79 656.48 229.93 647.35 218.86 649.69 M 541.37 649.76 C 532.73 650.55 528.70 658.89 524.00 665.07 C 530.39 666.20 535.09 670.36 540.23 673.88 C 546.39 672.94 553.91 670.39 557.50 665.10 C 560.78 654.93 550.70 646.93 541.37 649.76 M 120.20 654.01 C 120.86 662.30 130.62 667.39 129.21 675.94 C 136.24 671.16 130.55 653.10 120.20 654.01 M 174.40 654.35 C 162.02 671.31 190.76 694.46 204.34 679.24 C 210.41 676.62 201.32 670.19 200.28 666.65 C 191.08 663.59 185.41 652.92 174.40 654.35 M 589.44 654.38 C 577.31 658.09 566.17 665.81 560.19 677.05 C 570.23 691.88 592.46 681.09 595.74 666.20 C 593.02 662.70 595.42 652.63 589.44 654.38 M 644.46 654.36 C 635.48 655.42 631.86 671.55 637.70 675.88 C 635.01 668.98 651.32 656.92 644.46 654.36 M 377.21 656.31 C 371.05 660.26 363.38 658.18 356.85 660.97 C 361.51 666.48 365.56 672.97 367.32 679.93 C 377.50 682.51 389.50 682.51 399.68 679.93 C 401.44 672.98 405.47 666.50 410.14 660.98 C 403.38 658.20 395.65 659.47 389.06 656.28 C 385.08 660.82 381.39 659.03 377.21 656.31 M 276.16 660.74 C 264.11 660.83 261.30 676.83 273.91 680.17 C 282.76 686.55 286.59 671.85 295.55 672.89 C 300.07 677.44 299.93 684.05 302.06 689.62 C 307.95 691.94 316.16 692.93 320.80 687.61 C 324.51 680.66 317.93 673.97 312.54 670.36 C 306.76 665.55 298.03 671.71 292.82 666.04 C 288.58 661.37 282.32 659.28 276.16 660.74 M 485.35 660.65 C 477.39 659.89 473.89 670.47 466.02 668.50 C 457.03 666.88 448.21 673.07 445.14 681.38 C 443.24 690.01 453.85 693.07 460.24 690.90 C 470.20 691.31 464.34 675.75 472.23 672.95 C 476.20 673.43 480.08 675.22 482.58 678.44 C 488.02 686.78 500.05 677.72 501.90 670.80 C 501.78 662.66 492.08 659.84 485.35 660.65 M 337.77 662.58 C 332.61 665.26 326.88 662.33 321.72 664.01 C 326.27 669.98 332.04 675.80 332.13 683.79 C 337.76 695.00 361.91 685.24 354.28 673.02 C 350.78 667.80 344.63 661.33 337.77 662.58 M 425.06 662.56 C 418.54 665.85 409.70 671.76 411.38 680.25 C 415.30 688.28 428.63 692.15 434.67 684.51 C 434.94 676.34 440.32 670.12 445.27 664.11 C 438.80 663.77 431.66 662.47 425.06 662.56 M 142.23 669.09 C 133.28 680.47 149.23 699.44 161.06 694.07 C 168.10 681.12 155.90 667.79 142.23 669.09 M 622.50 669.48 C 609.40 668.40 600.19 681.18 605.29 693.49 C 617.27 702.43 636.50 675.19 622.50 669.48 M 247.33 675.31 C 228.79 673.96 235.69 697.54 249.64 697.64 C 255.84 692.61 263.14 689.88 271.06 689.15 C 263.36 684.25 257.34 674.51 247.33 675.31 M 517.28 675.32 C 508.69 676.57 502.88 684.37 495.88 689.16 C 503.75 690.22 511.20 692.35 517.34 697.65 C 525.05 696.86 532.07 689.40 531.75 681.42 C 529.09 676.45 522.34 675.54 517.28 675.32 M 216.11 687.71 C 210.73 688.23 203.86 692.36 206.88 698.60 C 211.62 713.33 229.40 708.36 236.85 700.26 C 229.62 695.87 226.38 683.92 216.11 687.71 M 544.38 687.36 C 538.20 689.34 536.92 698.07 530.09 700.21 C 538.01 709.12 556.63 712.94 560.56 697.37 C 562.23 688.70 550.69 686.92 544.38 687.36 M 380.74 692.24 C 376.48 695.56 383.21 699.46 383.15 703.50 C 386.15 700.14 391.75 688.70 380.74 692.24 M 353.75 693.58 C 350.00 695.16 345.71 695.14 342.14 697.07 C 345.25 702.19 348.31 707.43 349.47 713.48 C 355.69 718.30 368.63 720.58 372.83 711.67 C 377.58 700.49 363.37 691.36 353.75 693.58 M 406.84 693.56 C 399.99 695.50 392.25 700.46 393.08 708.60 C 395.14 720.38 410.55 719.30 417.53 713.48 C 418.69 707.43 421.75 702.19 424.86 697.07 C 419.06 695.43 413.01 692.13 406.84 693.56 M 182.38 697.44 C 178.37 698.92 172.43 700.64 172.35 705.85 C 176.06 714.28 185.84 720.23 195.03 718.33 C 210.73 714.12 193.57 693.60 182.38 697.44 M 583.16 697.45 C 571.49 694.94 570.13 705.76 564.01 712.05 C 571.59 724.26 590.05 717.49 594.65 705.85 C 594.36 700.40 587.73 698.01 583.16 697.45 M 323.23 698.58 C 317.25 700.13 310.95 699.46 304.94 700.46 C 311.10 705.24 314.51 711.90 317.05 719.06 C 323.64 724.06 334.07 721.41 338.66 714.69 C 337.82 706.67 330.89 700.26 323.23 698.58 M 443.04 698.45 C 435.85 700.85 429.11 706.78 428.34 714.69 C 432.92 721.32 442.46 723.66 449.48 719.67 C 452.81 715.06 452.57 708.31 457.66 704.87 C 467.88 696.08 449.11 701.30 443.04 698.45 M 270.36 700.37 C 258.61 697.79 255.36 713.45 266.94 716.19 C 274.09 724.41 278.42 711.26 283.23 711.93 C 279.23 724.96 299.26 729.63 304.71 719.70 C 301.51 704.37 282.44 703.19 270.36 700.37 M 493.37 700.34 C 482.50 704.90 464.60 705.03 462.30 719.71 C 467.76 729.79 488.98 724.79 483.88 711.16 C 489.89 714.69 493.74 723.19 501.39 715.48 C 514.47 710.32 503.91 695.95 493.37 700.34 M 240.26 710.53 C 235.79 710.91 229.30 712.28 231.55 718.22 C 235.24 731.24 252.83 730.80 259.87 722.24 C 253.05 718.37 249.54 708.83 240.26 710.53 M 526.02 710.54 C 517.10 709.41 513.79 718.49 507.13 722.24 C 512.95 727.93 523.60 732.10 531.01 725.00 C 538.81 720.06 536.05 708.57 526.02 710.54 M 207.58 722.54 C 188.73 726.85 217.50 727.96 223.72 729.97 C 223.32 721.02 213.92 721.77 207.58 722.54 M 548.31 722.19 C 533.62 737.46 559.88 723.68 566.89 726.84 C 565.28 719.86 554.21 723.26 548.31 722.19 M 374.70 723.64 C 353.30 723.36 369.29 750.26 383.79 744.64 C 395.87 747.66 400.94 737.43 404.00 727.90 C 394.66 720.76 384.51 726.25 374.70 723.64 M 340.63 726.51 C 336.04 729.65 330.13 728.25 325.32 729.70 C 329.21 738.26 335.49 753.15 347.86 746.89 C 362.33 744.14 349.78 725.27 340.63 726.51 M 423.45 726.30 C 416.20 729.32 405.62 743.24 418.50 746.57 C 430.65 753.48 438.61 738.18 441.52 729.05 C 435.12 729.95 429.27 727.28 423.45 726.30 M 270.06 730.42 C 262.05 729.04 265.74 734.87 271.04 733.36 C 276.65 731.50 279.46 737.96 284.74 738.16 C 282.15 733.56 275.47 730.34 270.06 730.42 M 496.14 730.41 C 491.07 730.68 484.67 733.75 482.26 738.16 C 487.71 737.64 490.81 731.40 496.73 733.32 C 504.44 733.82 501.52 729.22 496.14 730.41 M 306.76 732.64 C 302.75 733.58 298.63 733.18 294.56 733.11 C 293.34 746.98 311.81 755.90 321.33 745.16 C 323.60 738.02 313.20 730.74 306.76 732.64 M 455.69 732.49 C 450.09 734.40 440.52 741.98 447.79 747.23 C 458.38 754.66 472.90 745.85 472.71 733.09 C 466.89 734.54 461.43 731.97 455.69 732.49 M 360.24 753.35 C 355.49 755.26 351.03 757.88 346.03 759.19 C 346.30 773.91 364.37 777.47 375.52 772.15 C 377.95 762.78 368.42 754.99 360.24 753.35 M 405.42 753.54 C 397.91 756.14 389.54 762.57 391.35 771.42 C 401.39 778.03 420.95 774.00 420.97 759.19 C 415.45 758.51 410.79 753.67 405.42 753.54 M 324.35 758.48 C 312.17 764.11 338.69 765.40 339.79 772.97 C 342.80 765.52 330.75 758.57 324.35 758.48 M 438.82 758.66 C 434.42 761.66 423.82 766.15 427.15 773.04 C 430.78 765.23 440.86 766.79 446.73 761.68 C 447.63 758.01 440.75 758.31 438.82 758.66 Z" />
<path fill="#000000" opacity="1.00" d=" M 360.47 33.10 C 376.89 34.47 351.40 45.45 360.47 33.10 Z" />
<path fill="#000000" opacity="1.00" d=" M 402.39 33.21 C 406.68 30.73 408.21 35.07 408.99 37.92 C 406.06 42.38 397.60 36.95 402.39 33.21 Z" />
<path fill="#000000" opacity="1.00" d=" M 322.27 86.23 C 326.28 85.18 329.26 92.52 324.36 93.47 C 319.62 96.34 316.54 86.70 322.27 86.23 Z" />
<path fill="#000000" opacity="1.00" d=" M 443.28 86.23 C 449.93 84.66 448.54 96.49 442.64 93.47 C 438.51 92.64 439.88 87.01 443.28 86.23 Z" />
<path fill="#000000" opacity="1.00" d=" M 184.63 90.35 C 187.65 88.47 193.59 93.34 189.24 95.76 C 184.51 98.83 179.35 93.09 184.63 90.35 Z" />
<path fill="#000000" opacity="1.00" d=" M 579.44 90.23 C 585.12 88.03 587.16 99.15 579.14 96.00 C 574.91 96.44 575.82 90.40 579.44 90.23 Z" />
<path fill="#000000" opacity="1.00" d=" M 249.44 110.24 C 253.82 108.02 256.08 117.07 251.19 117.27 C 246.65 120.43 243.67 110.22 249.44 110.24 Z" />
<path fill="#000000" opacity="1.00" d=" M 514.35 110.23 C 519.82 108.66 522.85 114.01 518.87 118.00 C 514.07 118.12 511.35 114.37 514.35 110.23 Z" />
<path fill="#000000" opacity="1.00" d=" M 153.18 114.23 C 158.74 114.62 154.03 125.20 149.74 121.24 C 146.64 117.94 150.02 114.65 153.18 114.23 Z" />
<path fill="#000000" opacity="1.00" d=" M 613.09 114.04 C 615.97 114.76 620.24 116.33 617.80 120.61 C 614.23 125.57 608.16 116.52 613.09 114.04 Z" />
<path fill="#000000" opacity="1.00" d=" M 340.49 121.02 C 347.67 117.19 347.84 130.81 341.45 127.75 C 337.12 127.36 337.46 123.11 340.49 121.02 Z" />
<path fill="#000000" opacity="1.00" d=" M 422.33 121.16 C 439.40 120.41 416.07 136.79 422.33 121.16 Z" />
<path fill="#000000" opacity="1.00" d=" M 253.31 149.11 C 257.14 148.30 261.07 152.19 257.27 155.29 C 253.32 160.75 247.64 151.85 253.31 149.11 Z" />
<path fill="#000000" opacity="1.00" d=" M 511.35 149.24 C 515.16 147.36 518.48 155.16 514.41 156.40 C 510.00 159.35 504.91 149.73 511.35 149.24 Z" />
<path fill="#000000" opacity="1.00" d=" M 150.28 181.05 C 155.37 180.11 157.92 185.85 153.72 188.95 C 148.63 189.89 146.08 184.15 150.28 181.05 Z" />
<path fill="#000000" opacity="1.00" d=" M 614.38 181.24 C 618.42 179.54 621.16 187.78 616.36 188.47 C 611.57 191.36 608.49 181.53 614.38 181.24 Z" />
<path fill="#000000" opacity="1.00" d=" M 382.41 195.20 C 386.79 194.03 390.21 201.84 384.60 202.75 C 379.32 204.07 377.55 197.24 382.41 195.20 Z" />
<path fill="#000000" opacity="1.00" d=" M 188.21 197.27 C 192.16 196.98 193.95 205.17 188.63 204.72 C 182.76 206.83 182.93 197.69 188.21 197.27 Z" />
<path fill="#000000" opacity="1.00" d=" M 578.09 197.04 C 583.65 197.02 584.78 206.74 578.37 204.72 C 573.41 204.88 574.60 198.42 578.09 197.04 Z" />
<path fill="#000000" opacity="1.00" d=" M 332.51 226.40 C 337.51 223.83 341.32 232.43 335.76 233.79 C 330.73 237.18 325.91 227.43 332.51 226.40 Z" />
<path fill="#000000" opacity="1.00" d=" M 430.67 226.35 C 435.15 223.77 440.69 230.44 436.07 233.27 C 431.74 237.22 424.88 229.80 430.67 226.35 Z" />
<path fill="#000000" opacity="1.00" d=" M 322.45 229.23 C 327.97 226.77 330.01 236.96 324.30 237.35 C 318.62 240.39 316.91 230.08 322.45 229.23 Z" />
<path fill="#000000" opacity="1.00" d=" M 441.41 229.10 C 446.19 227.40 450.58 234.17 446.35 237.38 C 441.49 239.87 436.08 232.49 441.41 229.10 Z" />
<path fill="#000000" opacity="1.00" d=" M 262.83 234.25 C 268.80 230.55 271.33 239.78 266.22 241.26 C 262.09 243.60 259.15 236.13 262.83 234.25 Z" />
<path fill="#000000" opacity="1.00" d=" M 499.54 234.29 C 505.38 230.51 508.01 239.35 503.50 241.43 C 499.53 243.09 495.64 236.51 499.54 234.29 Z" />
<path fill="#000000" opacity="1.00" d=" M 106.36 243.26 C 109.74 242.71 113.25 249.08 108.65 250.79 C 103.88 251.74 100.97 245.03 106.36 243.26 Z" />
<path fill="#000000" opacity="1.00" d=" M 659.37 243.25 C 662.37 242.87 666.03 248.00 661.80 249.89 C 656.92 254.01 653.58 244.78 659.37 243.25 Z" />
<path fill="#000000" opacity="1.00" d=" M 42.42 264.11 C 47.74 261.85 48.73 270.50 43.77 271.03 C 39.20 272.25 38.69 265.42 42.42 264.11 Z" />
<path fill="#000000" opacity="1.00" d=" M 721.31 264.14 C 725.28 262.26 729.39 268.22 725.69 270.86 C 721.71 272.73 717.61 266.78 721.31 264.14 Z" />
<path fill="#000000" opacity="1.00" d=" M 350.42 266.32 C 354.70 264.85 358.80 268.03 356.24 272.26 C 353.00 277.19 344.40 267.41 350.42 266.32 Z" />
<path fill="#000000" opacity="1.00" d=" M 413.44 266.26 C 419.02 264.49 420.29 270.28 415.69 272.75 C 410.68 277.12 407.15 265.46 413.44 266.26 Z" />
<path fill="#000000" opacity="1.00" d=" M 132.37 272.03 C 138.33 269.57 139.27 281.52 133.21 280.03 C 128.98 279.38 129.44 274.08 132.37 272.03 Z" />
<path fill="#000000" opacity="1.00" d=" M 332.32 272.28 C 337.48 271.52 334.45 283.89 329.66 280.46 C 325.18 278.24 328.19 272.63 332.32 272.28 Z" />
<path fill="#000000" opacity="1.00" d=" M 433.13 272.07 C 437.26 271.77 442.23 276.77 438.00 280.08 C 433.34 283.84 430.30 275.02 433.13 272.07 Z" />
<path fill="#000000" opacity="1.00" d=" M 631.31 272.14 C 636.42 269.76 639.57 279.31 633.78 280.03 C 629.35 281.26 628.26 274.15 631.31 272.14 Z" />
<path fill="#000000" opacity="1.00" d=" M 243.13 287.28 C 248.03 287.55 249.05 292.84 245.38 295.79 C 238.26 299.80 236.67 287.50 243.13 287.28 Z" />
<path fill="#000000" opacity="1.00" d=" M 523.15 287.27 C 527.68 286.88 529.57 292.87 526.50 295.79 C 520.11 299.24 516.14 288.31 523.15 287.27 Z" />
<path fill="#000000" opacity="1.00" d=" M 235.48 296.25 C 239.83 294.78 243.30 301.72 238.77 303.90 C 233.68 308.67 229.26 297.69 235.48 296.25 Z" />
<path fill="#000000" opacity="1.00" d=" M 529.34 296.24 C 534.38 295.19 536.32 301.83 532.62 304.81 C 527.27 306.80 523.07 297.91 529.34 296.24 Z" />
<path fill="#000000" opacity="1.00" d=" M 29.33 304.01 C 33.93 302.92 33.15 308.66 32.97 311.79 C 27.95 313.42 24.33 306.63 29.33 304.01 Z" />
<path fill="#000000" opacity="1.00" d=" M 735.17 304.05 C 739.76 302.48 742.36 310.48 737.36 311.55 C 732.55 313.96 732.93 306.39 735.17 304.05 Z" />
<path fill="#000000" opacity="1.00" d=" M 376.06 307.51 C 379.32 306.09 385.14 308.97 381.96 312.80 C 380.02 319.96 370.69 311.43 376.06 307.51 Z" />
<path fill="#000000" opacity="1.00" d=" M 387.12 307.44 C 392.12 305.15 394.67 313.05 389.98 314.93 C 385.84 318.38 381.18 308.01 387.12 307.44 Z" />
<path fill="#000000" opacity="1.00" d=" M 280.44 309.22 C 287.02 306.33 288.17 319.31 280.25 315.89 C 275.41 316.33 276.66 309.69 280.44 309.22 Z" />
<path fill="#000000" opacity="1.00" d=" M 483.43 309.14 C 487.60 306.92 493.33 314.78 487.48 315.66 C 482.22 319.57 478.36 310.98 483.43 309.14 Z" />
<path fill="#000000" opacity="1.00" d=" M 333.96 321.44 C 338.05 319.83 342.26 326.54 337.18 328.34 C 332.19 331.96 328.08 322.71 333.96 321.44 Z" />
<path fill="#000000" opacity="1.00" d=" M 430.00 321.56 C 433.50 319.78 438.68 324.51 435.04 327.97 C 430.68 331.80 423.83 324.44 430.00 321.56 Z" />
<path fill="#000000" opacity="1.00" d=" M 267.22 326.06 C 271.28 325.45 274.68 335.13 269.03 335.03 C 263.90 335.54 263.54 328.22 267.22 326.06 Z" />
<path fill="#000000" opacity="1.00" d=" M 498.24 325.99 C 503.32 325.74 503.90 335.98 497.96 335.03 C 492.70 334.90 495.47 327.90 498.24 325.99 Z" />
<path fill="#000000" opacity="1.00" d=" M 326.36 327.24 C 330.72 325.44 333.27 334.74 328.03 334.95 C 323.28 338.33 320.59 327.50 326.36 327.24 Z" />
<path fill="#000000" opacity="1.00" d=" M 438.26 327.02 C 443.85 326.10 445.59 332.36 441.89 335.82 C 436.58 335.90 433.97 330.69 438.26 327.02 Z" />
<path fill="#000000" opacity="1.00" d=" M 191.36 334.23 C 196.37 332.47 197.94 341.41 192.81 342.01 C 187.72 343.24 185.88 334.82 191.36 334.23 Z" />
<path fill="#000000" opacity="1.00" d=" M 573.30 334.10 C 577.56 332.92 581.53 338.65 577.26 341.38 C 572.58 344.74 568.09 336.50 573.30 334.10 Z" />
<path fill="#000000" opacity="1.00" d=" M 108.28 350.23 C 115.11 349.46 110.85 362.18 106.18 357.85 C 102.32 355.84 104.99 351.05 108.28 350.23 Z" />
<path fill="#000000" opacity="1.00" d=" M 657.20 350.11 C 660.65 349.68 665.06 354.80 661.37 357.36 C 657.64 362.28 651.84 352.50 657.20 350.11 Z" />
<path fill="#000000" opacity="1.00" d=" M 70.23 358.24 C 74.50 357.90 74.41 366.31 69.80 365.96 C 64.08 367.33 64.89 357.77 70.23 358.24 Z" />
<path fill="#000000" opacity="1.00" d=" M 696.02 358.09 C 699.42 358.35 703.73 361.34 700.32 365.27 C 695.71 369.09 690.43 360.19 696.02 358.09 Z" />
<path fill="#000000" opacity="1.00" d=" M 299.33 364.19 C 304.16 362.19 306.43 371.00 301.42 371.41 C 295.67 372.34 304.38 380.07 298.19 381.76 C 291.46 383.07 291.20 373.60 297.41 372.83 C 295.94 369.96 295.16 365.34 299.33 364.19 Z" />
<path fill="#000000" opacity="1.00" d=" M 465.27 364.21 C 474.62 362.93 466.68 373.30 472.90 375.10 C 479.06 380.97 464.83 385.20 466.51 377.41 C 472.03 371.53 457.01 369.02 465.27 364.21 Z" />
<path fill="#000000" opacity="1.00" d=" M 248.05 385.44 C 252.81 383.24 256.31 390.47 251.07 392.33 C 245.27 396.39 244.29 387.20 248.05 385.44 Z" />
<path fill="#000000" opacity="1.00" d=" M 514.99 385.43 C 519.40 383.88 522.64 388.11 520.78 392.63 C 516.23 394.93 510.31 388.91 514.99 385.43 Z" />
<path fill="#000000" opacity="1.00" d=" M 207.19 390.24 C 212.28 390.92 210.17 402.08 204.65 399.24 C 199.38 397.85 202.25 389.61 207.19 390.24 Z" />
<path fill="#000000" opacity="1.00" d=" M 559.08 390.11 C 563.79 389.39 567.94 396.36 563.05 398.95 C 557.87 402.41 554.50 392.80 559.08 390.11 Z" />
<path fill="#000000" opacity="1.00" d=" M 381.48 393.72 C 384.62 395.97 384.31 395.82 391.11 394.82 C 388.53 397.97 384.01 401.62 392.78 400.29 C 384.40 399.07 388.17 403.13 391.09 406.13 C 385.93 400.51 385.33 411.92 383.91 404.20 C 381.01 411.18 381.72 401.21 375.89 406.18 C 378.47 403.03 382.97 399.37 374.22 400.71 C 382.59 401.91 378.83 397.87 375.91 394.87 C 378.30 396.33 381.56 397.92 381.48 393.72 Z" />
<path fill="#000000" opacity="1.00" d=" M 206.14 401.28 C 211.32 401.14 211.47 412.77 205.63 410.38 C 200.56 409.84 200.70 401.21 206.14 401.28 Z" />
<path fill="#000000" opacity="1.00" d=" M 560.15 401.16 C 565.92 400.61 566.85 409.69 561.36 410.38 C 556.06 412.55 555.30 402.43 560.15 401.16 Z" />
<path fill="#000000" opacity="1.00" d=" M 246.22 408.37 C 250.22 406.25 256.52 411.43 252.45 415.10 C 248.52 417.80 243.80 412.99 246.22 408.37 Z" />
<path fill="#000000" opacity="1.00" d=" M 516.63 408.28 C 523.38 404.98 522.09 417.17 516.94 415.71 C 512.26 416.12 512.21 409.09 516.63 408.28 Z" />
<path fill="#000000" opacity="1.00" d=" M 295.10 419.62 C 301.53 417.10 300.86 425.03 299.18 428.68 C 303.53 428.77 306.65 435.37 301.73 436.79 C 297.15 438.24 294.25 431.98 297.54 428.90 C 294.56 426.92 290.12 421.97 295.10 419.62 Z" />
<path fill="#000000" opacity="1.00" d=" M 468.17 419.39 C 475.05 417.21 476.32 427.30 469.59 428.17 C 472.98 432.11 469.01 439.75 463.83 435.99 C 460.18 431.87 464.49 429.42 467.85 428.70 C 467.84 425.55 464.51 421.78 468.17 419.39 Z" />
<path fill="#000000" opacity="1.00" d=" M 67.29 435.15 C 71.07 434.05 75.11 437.10 72.98 441.52 C 69.59 445.57 62.02 438.78 67.29 435.15 Z" />
<path fill="#000000" opacity="1.00" d=" M 696.38 435.24 C 701.32 432.66 703.38 441.60 698.31 442.27 C 693.71 445.32 691.55 435.69 696.38 435.24 Z" />
<path fill="#000000" opacity="1.00" d=" M 107.36 442.26 C 111.18 441.81 114.12 448.68 109.80 450.89 C 104.83 451.29 101.90 444.17 107.36 442.26 Z" />
<path fill="#000000" opacity="1.00" d=" M 658.37 442.24 C 662.36 441.80 664.67 448.33 660.08 450.13 C 654.65 453.35 653.21 443.59 658.37 442.24 Z" />
<path fill="#000000" opacity="1.00" d=" M 190.40 459.15 C 195.26 457.17 198.39 464.67 193.70 466.90 C 188.89 468.21 185.41 461.45 190.40 459.15 Z" />
<path fill="#000000" opacity="1.00" d=" M 573.40 459.15 C 578.12 456.99 581.73 465.12 576.38 466.48 C 571.70 469.23 568.58 460.93 573.40 459.15 Z" />
<path fill="#000000" opacity="1.00" d=" M 325.11 465.18 C 330.42 465.10 333.03 470.31 328.74 473.98 C 323.15 474.90 321.41 468.64 325.11 465.18 Z" />
<path fill="#000000" opacity="1.00" d=" M 441.15 465.35 C 444.30 466.20 445.50 473.36 440.64 473.76 C 434.66 474.95 434.61 464.48 441.15 465.35 Z" />
<path fill="#000000" opacity="1.00" d=" M 267.37 466.23 C 274.46 463.60 272.30 475.53 267.18 474.96 C 264.41 472.96 263.24 466.94 267.37 466.23 Z" />
<path fill="#000000" opacity="1.00" d=" M 496.29 466.14 C 502.39 463.73 504.45 473.64 499.00 475.03 C 496.05 474.09 493.23 468.54 496.29 466.14 Z" />
<path fill="#000000" opacity="1.00" d=" M 333.36 472.27 C 337.02 470.65 342.29 475.91 337.93 478.63 C 334.06 483.13 327.00 474.40 333.36 472.27 Z" />
<path fill="#000000" opacity="1.00" d=" M 430.49 472.24 C 435.17 470.01 438.46 477.58 433.67 479.32 C 428.94 481.85 424.44 473.87 430.49 472.24 Z" />
<path fill="#000000" opacity="1.00" d=" M 279.52 485.34 C 284.13 481.57 288.56 489.15 284.22 491.40 C 280.28 494.89 273.24 486.38 279.52 485.34 Z" />
<path fill="#000000" opacity="1.00" d=" M 379.11 485.30 C 382.51 486.03 384.91 493.60 379.23 493.69 C 372.98 495.31 373.32 485.22 379.11 485.30 Z" />
<path fill="#000000" opacity="1.00" d=" M 387.16 485.13 C 393.27 484.54 394.54 495.19 387.77 493.69 C 382.36 493.27 384.37 487.54 387.16 485.13 Z" />
<path fill="#000000" opacity="1.00" d=" M 482.52 485.15 C 485.15 484.34 492.10 485.04 489.52 489.39 C 487.07 495.29 477.07 490.08 482.52 485.15 Z" />
<path fill="#000000" opacity="1.00" d=" M 30.42 489.14 C 34.91 487.92 33.68 494.86 31.83 496.95 C 26.65 498.49 24.81 489.65 30.42 489.14 Z" />
<path fill="#000000" opacity="1.00" d=" M 734.03 489.21 C 748.09 488.29 731.08 506.86 734.03 489.21 Z" />
<path fill="#000000" opacity="1.00" d=" M 234.38 496.19 C 239.23 494.33 243.88 502.17 238.34 504.46 C 233.23 506.67 230.26 499.29 234.38 496.19 Z" />
<path fill="#000000" opacity="1.00" d=" M 529.51 496.19 C 535.13 494.33 536.64 504.37 530.82 504.99 C 525.50 505.16 524.50 497.78 529.51 496.19 Z" />
<path fill="#000000" opacity="1.00" d=" M 240.50 505.21 C 245.68 501.73 250.96 511.30 245.12 513.08 C 240.52 515.84 236.71 508.37 240.50 505.21 Z" />
<path fill="#000000" opacity="1.00" d=" M 521.62 505.21 C 529.27 501.09 530.12 514.52 523.15 513.73 C 518.53 512.65 518.37 508.07 521.62 505.21 Z" />
<path fill="#000000" opacity="1.00" d=" M 330.36 520.23 C 334.53 518.86 336.23 526.43 333.87 528.93 C 328.83 529.56 324.36 522.35 330.36 520.23 Z" />
<path fill="#000000" opacity="1.00" d=" M 434.30 520.05 C 439.79 518.93 441.62 526.91 436.13 528.27 C 430.52 531.12 431.59 522.40 434.30 520.05 Z" />
<path fill="#000000" opacity="1.00" d=" M 132.41 521.11 C 137.13 519.06 139.11 526.49 135.69 528.86 C 131.06 531.02 127.53 522.92 132.41 521.11 Z" />
<path fill="#000000" opacity="1.00" d=" M 631.30 521.14 C 636.49 519.21 639.00 526.26 634.63 528.97 C 629.87 530.82 627.88 523.57 631.30 521.14 Z" />
<path fill="#000000" opacity="1.00" d=" M 353.20 527.31 C 358.76 527.39 357.80 536.79 351.99 534.86 C 345.43 535.57 349.19 528.05 353.20 527.31 Z" />
<path fill="#000000" opacity="1.00" d=" M 413.10 527.31 C 417.41 527.16 421.91 535.62 415.01 534.86 C 409.62 536.59 408.14 528.49 413.10 527.31 Z" />
<path fill="#000000" opacity="1.00" d=" M 41.31 530.14 C 45.28 528.26 49.39 534.22 45.69 536.86 C 41.72 538.73 37.61 532.78 41.31 530.14 Z" />
<path fill="#000000" opacity="1.00" d=" M 722.42 530.11 C 727.74 527.85 728.73 536.50 723.77 537.03 C 719.20 538.25 718.69 531.42 722.42 530.11 Z" />
<path fill="#000000" opacity="1.00" d=" M 106.43 550.25 C 112.12 548.99 111.84 557.03 106.99 558.13 C 102.90 556.53 101.91 552.07 106.43 550.25 Z" />
<path fill="#000000" opacity="1.00" d=" M 658.35 550.21 C 661.42 549.22 666.18 554.15 662.36 556.36 C 659.19 561.18 652.73 552.15 658.35 550.21 Z" />
<path fill="#000000" opacity="1.00" d=" M 264.13 559.31 C 268.02 558.70 271.05 564.60 267.46 566.71 C 261.19 570.69 258.92 560.71 264.13 559.31 Z" />
<path fill="#000000" opacity="1.00" d=" M 502.17 559.36 C 507.59 559.18 506.80 570.24 500.21 566.90 C 496.01 566.02 498.24 559.06 502.17 559.36 Z" />
<path fill="#000000" opacity="1.00" d=" M 321.24 563.10 C 325.94 562.31 330.28 567.70 326.17 571.37 C 321.26 574.72 315.76 566.08 321.24 563.10 Z" />
<path fill="#000000" opacity="1.00" d=" M 444.22 563.30 C 449.60 562.47 448.92 572.11 443.78 571.94 C 437.55 573.06 438.07 562.38 444.22 563.30 Z" />
<path fill="#000000" opacity="1.00" d=" M 333.19 566.51 C 337.82 566.43 340.69 571.68 336.33 574.65 C 329.64 577.70 326.35 567.65 333.19 566.51 Z" />
<path fill="#000000" opacity="1.00" d=" M 433.15 566.48 C 437.92 566.29 439.79 573.80 434.49 574.60 C 427.59 576.98 426.44 566.65 433.15 566.48 Z" />
<path fill="#000000" opacity="1.00" d=" M 185.32 596.16 C 188.59 595.53 193.94 597.07 191.50 601.29 C 189.32 607.36 180.72 600.14 185.32 596.16 Z" />
<path fill="#000000" opacity="1.00" d=" M 578.37 596.28 C 582.66 594.10 584.81 601.19 580.74 602.71 C 576.32 607.23 571.77 595.81 578.37 596.28 Z" />
<path fill="#000000" opacity="1.00" d=" M 382.40 598.25 C 385.95 597.11 389.85 601.67 386.23 604.33 C 382.54 609.82 375.40 599.38 382.40 598.25 Z" />
<path fill="#000000" opacity="1.00" d=" M 151.38 612.24 C 155.43 610.54 158.17 618.78 153.36 619.47 C 148.57 622.36 145.50 612.53 151.38 612.24 Z" />
<path fill="#000000" opacity="1.00" d=" M 613.28 612.05 C 618.37 611.11 620.92 616.85 616.72 619.95 C 611.62 620.89 609.08 615.15 613.28 612.05 Z" />
<path fill="#000000" opacity="1.00" d=" M 253.32 644.27 C 257.08 642.59 261.66 650.60 256.37 651.46 C 251.96 654.51 248.07 645.17 253.32 644.27 Z" />
<path fill="#000000" opacity="1.00" d=" M 511.35 644.08 C 518.20 642.23 516.67 654.72 510.63 651.46 C 506.10 650.50 508.90 645.80 511.35 644.08 Z" />
<path fill="#000000" opacity="1.00" d=" M 341.45 673.25 C 345.54 671.06 348.29 677.49 344.67 679.84 C 339.50 683.12 334.92 673.50 341.45 673.25 Z" />
<path fill="#000000" opacity="1.00" d=" M 422.28 673.15 C 425.80 672.20 431.50 675.07 427.69 678.83 C 424.10 683.85 417.28 676.60 422.28 673.15 Z" />
<path fill="#000000" opacity="1.00" d=" M 150.32 679.19 C 154.51 677.45 157.98 684.79 153.91 686.96 C 150.02 686.89 146.45 682.27 150.32 679.19 Z" />
<path fill="#000000" opacity="1.00" d=" M 613.47 679.22 C 618.35 676.85 620.18 685.52 615.27 686.26 C 610.48 688.56 610.41 681.38 613.47 679.22 Z" />
<path fill="#000000" opacity="1.00" d=" M 248.13 683.00 C 252.93 682.87 255.65 686.62 252.65 690.77 C 247.18 692.34 244.15 686.99 248.13 683.00 Z" />
<path fill="#000000" opacity="1.00" d=" M 517.33 683.29 C 520.45 682.43 522.79 690.22 518.31 690.47 C 512.62 693.72 510.79 682.56 517.33 683.29 Z" />
<path fill="#000000" opacity="1.00" d=" M 183.77 705.20 C 186.83 702.75 193.58 706.47 189.57 709.73 C 186.63 713.54 179.20 708.17 183.77 705.20 Z" />
<path fill="#000000" opacity="1.00" d=" M 577.76 705.24 C 580.15 703.38 587.18 705.53 583.98 709.07 C 581.96 713.96 572.64 708.50 577.76 705.24 Z" />
<path fill="#000000" opacity="1.00" d=" M 321.28 707.06 C 325.57 706.08 329.29 711.28 325.07 714.08 C 320.41 717.20 316.64 709.94 321.28 707.06 Z" />
<path fill="#000000" opacity="1.00" d=" M 443.37 707.25 C 447.39 705.55 450.12 713.66 445.42 714.46 C 440.75 716.83 437.40 707.68 443.37 707.25 Z" />
<path fill="#000000" opacity="1.00" d=" M 361.14 761.24 C 364.03 761.40 367.82 764.39 365.24 767.25 C 360.75 771.95 354.76 761.94 361.14 761.24 Z" />
<path fill="#000000" opacity="1.00" d=" M 405.15 761.34 C 411.66 760.67 407.78 771.21 402.39 767.79 C 399.06 765.57 402.04 761.67 405.15 761.34 Z" />
</svg>
