<?xml version="1.0" encoding="UTF-8" standalone="no"?>
<svg
   xmlns:dc="http://purl.org/dc/elements/1.1/"
   xmlns:cc="http://creativecommons.org/ns#"
   xmlns:rdf="http://www.w3.org/1999/02/22-rdf-syntax-ns#"
   xmlns:svg="http://www.w3.org/2000/svg"
   xmlns="http://www.w3.org/2000/svg"
   xmlns:sodipodi="http://sodipodi.sourceforge.net/DTD/sodipodi-0.dtd"
   xmlns:inkscape="http://www.inkscape.org/namespaces/inkscape"
   width="720pt"
   height="720pt"
   viewBox="0 0 720 720"
   version="1.1"
   id="svg2"
   inkscape:version="0.91 r13725"
   sodipodi:docname="AbstractDesign104.svg">
  <metadata
     id="metadata34">
    <rdf:RDF>
      <cc:Work
         rdf:about="">
        <dc:format>image/svg+xml</dc:format>
        <dc:type
           rdf:resource="http://purl.org/dc/dcmitype/StillImage" />
        <dc:title></dc:title>
      </cc:Work>
    </rdf:RDF>
  </metadata>
  <defs
     id="defs32" />
  <sodipodi:namedview
     pagecolor="#ffffff"
     bordercolor="#666666"
     borderopacity="1"
     objecttolerance="10"
     gridtolerance="10"
     guidetolerance="10"
     inkscape:pageopacity="0"
     inkscape:pageshadow="2"
     inkscape:window-width="1600"
     inkscape:window-height="837"
     id="namedview30"
     showgrid="false"
     fit-margin-top="0"
     fit-margin-left="0"
     fit-margin-right="0"
     fit-margin-bottom="0"
     inkscape:zoom="0.38609407"
     inkscape:cx="304.0375"
     inkscape:cy="304.03753"
     inkscape:window-x="-8"
     inkscape:window-y="-8"
     inkscape:window-maximized="1"
     inkscape:current-layer="svg2" />
  <g
     id="g3362"
     transform="matrix(1.4800806,0,0,1.4801719,-1.8797024,-1.9242235)">
    <path
       id="path4"
       d="m 244.28,1.3 c 22.1,28.9 42.74,61.44 63.1,92.64 36.29,-8.02 72.8,-15.16 109.55,-20.78 -6.65,36.62 -13.46,73.22 -21.69,109.52 31.7,19.45 62.36,41.35 92.49,62.32 -29.98,21.32 -61.39,42.29 -92.67,62.38 8.01,36.29 15.16,72.8 20.78,109.55 -36.62,-6.65 -73.22,-13.46 -109.52,-21.69 -19.45,31.7 -41.35,62.36 -62.32,92.49 -21.32,-29.98 -42.29,-61.39 -62.38,-92.67 -36.29,8.01 -72.8,15.16 -109.55,20.78 C 78.72,379.22 85.53,342.62 93.76,306.32 62.06,286.87 31.4,264.97 1.27,244 31.25,222.68 62.66,201.71 93.94,181.62 85.92,145.33 78.78,108.82 73.16,72.07 c 36.62,6.65 73.22,13.46 109.52,21.69 19.17,-31.78 41.4,-61.37 61.6,-92.46 m 0.27,9.15 C 224.12,39.7 205.62,70.37 184.33,99.02 149.06,92.89 114.18,84.63 78.94,78.19 c 6.56,35.27 13.97,70.4 20.85,105.6 -29.42,20.73 -60.47,39.39 -89.87,60.15 29.24,20.83 60.31,39.22 89.1,60.73 -6.13,35.27 -14.39,70.15 -20.83,105.39 35.27,-6.56 70.4,-13.97 105.6,-20.85 20.73,29.42 39.39,60.47 60.15,89.87 20.83,-29.25 39.22,-60.31 60.73,-89.1 35.27,6.13 70.15,14.39 105.39,20.83 -6.56,-35.27 -13.97,-70.4 -20.85,-105.6 29.42,-20.73 60.47,-39.4 89.87,-60.15 -29.25,-20.83 -60.31,-39.22 -89.1,-60.73 6.13,-35.27 14.39,-70.15 20.83,-105.39 -35.27,6.56 -70.4,13.97 -105.6,20.85 C 284.28,70.88 265.68,37.38 244.55,10.45 Z"
       inkscape:connector-curvature="0"
       style="opacity:1;fill:#000000" />
    <path
       id="path6"
       d="m 244.28,28.29 c 20.06,24.97 36.72,55.69 55.93,82.47 32.59,-6.05 64.96,-13.45 97.68,-18.71 -5.52,32.6 -13.82,64.8 -18.79,97.47 26.81,18.82 55.34,36.7 81.64,55.48 -26.27,19.15 -55.45,36.37 -82.5,55.21 6.05,32.59 13.45,64.96 18.71,97.68 -32.6,-5.52 -64.8,-13.82 -97.47,-18.79 -18.82,26.81 -36.71,55.34 -55.48,81.64 -19.16,-26.27 -36.37,-55.45 -55.21,-82.5 -32.59,6.05 -64.96,13.45 -97.68,18.71 5.52,-32.6 13.82,-64.8 18.79,-97.47 C 83.09,280.66 54.56,262.77 28.26,244 54.53,224.84 83.71,207.63 110.76,188.79 104.71,156.2 97.31,123.83 92.05,91.11 c 32.6,5.52 64.8,13.82 97.47,18.79 18.46,-27.01 36.88,-54.17 54.76,-81.61 m -1.01,13.73 c -4.07,9.76 11.24,0.89 0,0 m -0.02,9.99 c -1.4,10.56 8.58,-0.98 0,0 m -9.87,7.07 c -5.8,10.53 10.82,1.75 0,0 m 19.88,0.06 c -1.53,13.13 10.69,-1.14 0,0 m -9.08,9.27 c -6.6,-0.16 -13.37,3.5 -14.04,10.57 5.79,9.66 23.79,10.23 29.64,-0.17 -0.94,-7.44 -8.83,-10.81 -15.6,-10.4 m -18.47,6.19 c -13.87,10.07 -19.1,35.35 -2.89,46.47 13.75,5.55 29.43,5.05 43.41,0.41 15.98,-10.96 12.11,-38.15 -3.3,-47.42 10.22,10.5 -5.98,24.62 -17.14,19.72 -9.1,2.91 -18.75,-1.44 -22.34,-10.23 -2.53,-2.53 5.25,-10.31 2.26,-8.95 m -21.24,22.88 c -5.32,5.32 -7.85,12.75 -12.77,18.39 -7.7,-0.76 -15.13,-3.3 -22.84,-4.08 8.25,6.07 16.8,12.43 26.99,14.78 5.63,-8.16 8.5,-21.76 8.62,-29.09 m 79.91,-0.77 c 1.86,10.24 3.55,20.75 8.92,29.87 10.54,-1.54 19.47,-8.47 27.45,-14.8 -7.73,1.07 -15.23,3.81 -23.09,3.88 -5.3,-5.66 -7.61,-13.59 -13.28,-18.95 m -182.23,3.57 c -5.33,9.6 10.9,1.95 0,0 m 282.28,0.76 c -4.69,10.27 11.62,0.01 0,0 m -263.18,4.08 c -4.42,9.97 11.52,0.5 0,0 m 244.06,1.14 c -5.24,9.93 11.9,-0.82 0,0 m -255.78,0.95 c -7,7.06 9.82,3.79 0,0 m 269.38,-0.4 c -7.35,8.6 8.69,5.21 0,0 m -235.56,2.9 c -1.77,-0.02 -9.26,0.6 -4.52,1.65 14.11,1.66 9.99,23.29 -1.04,26.46 -3.89,11.93 -25.34,13.3 -26.71,-0.83 -3.48,17.96 12.4,39.44 31.95,35.13 13.49,-7.1 26.2,-18.3 30.58,-33.27 0.9,-17.35 -15.72,-26.32 -30.26,-29.14 m 200,0.75 c -15.18,2.94 -29.6,15.15 -26.65,31.87 6.57,13.76 18.04,26.19 32.7,31.16 19.07,1.54 31.74,-20.05 28.97,-36.78 -0.3,15.87 -23.52,13.18 -27.19,1.08 -11.93,-3.89 -13.3,-25.34 0.83,-26.71 -2.84,-0.53 -5.78,-1.27 -8.66,-0.62 m -213.9,3.86 c -11.25,-0.01 -23.21,25.2 -6.12,23.15 11.8,1.19 23.76,-25.05 6.12,-23.15 M 359,114.34 c -18.87,2.43 0.93,30.58 13.66,23.27 6.65,-9.57 -4.33,-21.04 -13.66,-23.27 m -252.18,4.55 c -4.37,10.38 10.86,3.25 0,0 m 98.65,0.44 c -5.9,8.84 10.55,0.95 0,0 m 75.78,-0.21 c -4.42,9.97 11.52,0.5 0,0 m 98.91,1.19 c -5.23,9.67 10.51,1.59 0,0 m -166.38,1.68 c -4.48,18.77 14.99,31.53 28.34,39.8 1.96,-5.68 -8.17,-19.15 2.04,-23.68 12.4,4.19 0.92,16.85 2.82,25.2 11.85,-10.24 33.92,-21.57 28.63,-40.69 -17.5,8.29 -43.56,8.61 -61.83,-0.63 m -30.42,6.23 c -5.5,9.48 10.38,0.08 0,0 m 119.99,-0.06 c -3.92,9.14 11.03,0.81 0,0 m -103.17,2.33 c -2.49,0.01 -7.54,3.18 -3.6,4.93 3.39,2.98 9.48,-5.95 3.6,-4.93 m 86.98,0.42 c -0.54,4.84 4.24,6.33 7.86,4.05 0.1,-4.03 -5.03,-3.53 -7.86,-4.05 m -107.82,5.45 c -1.34,6.49 -2.91,13.32 -8.5,17.55 -10.73,9.45 -19.09,23.87 -34.78,25.03 8.84,17.91 33.28,11.81 48.78,9.05 -2.76,-5.79 -22.39,-8.67 -14.2,-19.04 11.33,-4.23 10.7,13.45 18.26,15.8 2.21,-15.01 8.19,-40.61 -9.56,-48.39 m 130.02,-0.01 c -17.09,9.45 -11.05,33.08 -8.35,48.49 5.79,-2.76 8.67,-22.39 19.04,-14.2 4.23,11.33 -13.46,10.7 -15.8,18.26 15.43,2.19 39.07,8.01 48.5,-8.81 -15.83,-2.55 -25.57,-18.26 -36.86,-28.93 -4.51,-3.53 -3.4,-12.17 -6.53,-14.81 m -108.07,4.94 c -2.96,4.37 -2.46,10.13 4.7,7.02 5.9,-3.84 0.09,-7.36 -4.7,-7.02 m 85.99,0.28 c -5.09,-0.7 -8.74,5.26 -2.82,7.27 7.08,3.64 5.86,-5.78 2.82,-7.27 m -75.83,7.7 c -5.6,11.36 11.85,-0.33 0,0 m 63.76,-0.08 c -5.23,10.11 10.9,1.96 0,0 m -75.76,4.94 c -4.22,10.09 13.09,-0.5 0,0 m 87.87,0.13 c -8.54,7.77 11.74,2.37 0,0 m -69.94,5.11 c -3.7,-0.46 -5.04,6.85 -0.69,5.52 2.79,0.33 4.8,-7.74 0.69,-5.52 m 52.69,-0.27 c -0.88,12.64 11.11,1.15 0,0 m -46.14,1.12 c -3.45,8.78 10.42,-1.89 0,0 m 38.5,-0.13 c -3.88,7.96 9.64,1.67 0,0 m -59.91,4.37 c 4.02,11.01 11.87,-3.11 0,0 m 79.67,-0.47 c -8.04,9.02 13.07,1.57 0,0 m -44.02,1.18 c -6.82,8.42 10.08,1.62 0,0 m 11.97,0.09 c -7,5.7 8.64,4.54 0,0 m -138.36,2.99 c 1.07,7.73 3.81,15.22 3.88,23.09 -5.66,5.29 -13.59,7.61 -18.95,13.28 10.24,-1.86 20.75,-3.55 29.87,-8.92 -1.54,-10.54 -8.47,-19.47 -14.8,-27.45 m 264.86,1.23 c -5.7,8.19 -12,16.41 -14.21,26.37 8.84,5.92 19.37,7.5 29.65,9.17 -5.36,-5.68 -13.12,-8.23 -18.95,-13.32 0.45,-7.2 4.24,-17.41 3.51,-22.22 m -162.75,1.24 c -5.34,3.97 -10.08,9.68 -11.99,16.12 5.31,-0.92 10.54,-2.34 15.93,-2.84 -4.79,13.24 -9.8,27.64 -25.72,30.05 -10.56,9.71 -7.6,-5.38 -5.32,-12.21 -15.07,2.9 -20.51,17.8 -14.52,30.98 5.61,-1.22 6.12,-9.12 10.8,-12.1 3.51,4.56 2.9,11.28 5.99,16.27 6.67,10.44 -5.05,20.18 -4.99,31.05 -5.58,-2.22 -6.77,-9.35 -11,-13.13 -7.24,13.06 -0.85,28.86 13.77,32.19 -0.92,-5.32 -2.34,-10.55 -2.84,-15.93 13.24,4.79 27.64,9.8 30.05,25.72 9.71,10.56 -5.38,7.6 -12.21,5.32 2.9,15.07 17.8,20.51 30.98,14.52 -1.22,-5.61 -9.12,-6.13 -12.1,-10.8 4.56,-3.51 11.28,-2.9 16.27,-5.99 10.44,-6.67 20.18,5.05 31.05,4.99 -2.22,5.58 -9.35,6.76 -13.13,11 13.06,7.24 28.86,0.85 32.19,-13.77 -5.32,0.92 -10.55,2.33 -15.93,2.84 4.79,-13.24 9.8,-27.64 25.72,-30.05 10.56,-9.72 7.6,5.38 5.32,12.21 15.07,-2.9 20.51,-17.8 14.52,-30.98 -5.61,1.22 -6.13,9.11 -10.8,12.1 -3.51,-4.56 -2.9,-11.28 -5.99,-16.27 -6.67,-10.44 5.05,-20.19 4.99,-31.05 5.58,2.22 6.76,9.34 11,13.13 7.24,-13.06 0.85,-28.86 -13.77,-32.19 0.92,5.31 2.33,10.54 2.84,15.93 -13.24,-4.79 -27.64,-9.8 -30.05,-25.72 -9.72,-10.56 5.38,-7.6 12.21,-5.32 -2.9,-15.07 -17.8,-20.51 -30.98,-14.52 1.22,5.61 9.11,6.12 12.1,10.8 -4.56,3.51 -11.28,2.9 -16.27,5.99 -10.44,6.67 -20.19,-5.05 -31.05,-4.99 2.22,-5.58 9.34,-6.77 13.13,-11 -6.31,-2.66 -13.44,-3.33 -20.2,-2.35 m -15.41,0.57 c -5.23,7.06 9.94,-0.24 0,0 m 88.75,-0.14 c 0.14,8.5 9.28,-0.96 0,0 m -52.04,6.8 c -4.7,9.7 10.01,1.52 0,0 m 16.07,0.07 c -4.64,9.83 10.49,1.29 0,0 m -121.16,2.97 c -7.4,8.22 8.99,4.54 0,0 m 227.1,1.2 c -4.85,8.52 10.94,1.55 0,0 m -163.68,2.01 c -8.26,7.17 11.09,0.89 0,0 m 99.65,-0.08 c -3.19,6.92 10.87,1.05 0,0 m -106.71,7.16 c -8.27,6 6.83,6.6 0,0 m 17.9,0.02 c -7.87,6.9 11.18,2.47 0,0 m 78.88,-0.21 c -7.82,8.29 10.85,2.21 0,0 m 18.84,0.06 c -4.6,8.91 8.42,4.05 0,0 m -168.75,3.17 c -1.85,1.05 -4.33,9.27 0.01,7.06 4.02,0.13 3.26,-8.27 -0.01,-7.06 m 220.91,0.88 c -2.88,3.41 0.23,6.93 3.75,7.89 1.2,-2.78 -0.02,-8.43 -3.75,-7.89 m -180.97,2.17 c -7.75,5.83 6.33,3.87 0,0 m 143,-0.18 c -6.96,4.63 6.69,5.75 0,0 m -161.06,1 c -5.23,10.11 10.9,1.96 0,0 m 176.91,-0.28 c -7.46,9.21 9.44,6.01 0,0 m -186.57,1.52 c -5.14,-0.04 -4.46,5.39 -1.74,8.03 4.95,2.67 8.34,-10.11 1.74,-8.03 m 195.48,-0.28 c -2.04,4.25 -0.51,8.54 4.02,9.94 4.25,-4.59 2.72,-10.32 -4.02,-9.94 m -175.82,2.99 c -4.4,11.23 10.02,3.5 0,0 m 27.07,0.05 c -4.41,9.58 9.86,2.65 0,0 m 103.08,-0.03 c -7.73,7.85 8.81,4.88 0,0 m -174.25,0.72 c -7.5,8.34 9.51,5.24 0,0 m 201.31,0.54 c -2.52,0.68 -3.35,4.92 -1.25,6.22 4.37,2.1 5.31,-9.42 1.25,-6.22 m 44,0.53 c -6,7.89 10.19,3.38 0,0 m -216.14,6.26 c -5.3,9.81 12.52,-0.1 0,0 m 184.95,-0.26 c -3.73,10.6 11.93,1.99 0,0 m -239.38,2.57 c -7.73,3.58 -18.47,4.32 -21.79,13.55 10.99,-10.4 24.74,6.61 19.72,17.92 5.22,11.4 -8.95,28.45 -19.92,18.02 9.35,15.3 36.59,20.77 47.53,3.59 5.11,-14.14 5,-30.22 -0.68,-44.15 -6.44,-6.28 -15.55,-11.42 -24.86,-8.93 m 30.46,-0.25 c -9.35,0.69 1.67,8.72 1.51,14.15 0.27,16.33 3.42,34.32 -5.83,48.8 18.77,4.48 31.53,-14.99 39.8,-28.34 -5.68,-1.96 -19.15,8.17 -23.68,-2.04 4.19,-12.4 16.85,-0.92 25.2,-2.82 -10.18,-11.75 -18.95,-29.65 -37,-29.75 m 257.1,0.43 c -23.74,5.49 -21.45,34.7 -16.19,52.81 10.27,16.85 38.42,13.02 47.72,-2.58 -10.99,10.39 -24.74,-6.61 -19.72,-17.92 -5.22,-11.4 8.95,-28.45 19.92,-18.02 -5.54,-10.84 -20.65,-14.41 -31.73,-14.29 m -26.61,0.92 c -13.33,3.67 -23.01,17.24 -29.59,28.5 5.68,1.96 19.15,-8.17 23.68,2.04 -4.19,12.4 -16.85,0.92 -25.2,2.82 10.24,11.85 21.57,33.92 40.69,28.63 -8.29,-17.5 -8.61,-43.56 0.63,-61.83 -3.39,-0.88 -6.79,-0.93 -10.21,-0.16 m -196.49,0.45 c -6.19,11.36 15.15,-1.58 0,0 m 163.9,0.15 c -0.03,11.56 11.8,-0.18 0,0 m -162.86,9.15 c -5.04,8.48 9.29,-0.23 0,0 m 163.6,-0.15 c 0.46,9.74 8.39,0.24 0,0 m -246.84,6.15 c -13.41,2.96 -13.28,27.81 0.87,29.49 9.8,-5.34 10.36,-25.55 -0.87,-29.49 m 331.18,0.64 c -8.82,7.26 -9.35,23.74 0.9,29.77 14.37,-2.29 14.14,-28.79 -0.9,-29.77 m -347.96,1.3 c -8.71,7.11 11.01,2.02 0,0 m 363.89,0.58 c -4.2,9.45 12.01,1.19 0,0 m -245.86,2.33 c -5.07,8.72 10.63,0.61 0,0 m 126.61,0.05 c -1.55,11.59 11.33,-1.93 0,0 m -138.59,1.91 c -7.65,6.75 8.58,3.35 0,0 m 152.58,-0.08 c -3.32,9.25 9.62,2.73 0,0 m -275.84,4.84 c -7.58,8.19 9.32,4.96 0,0 m 7.89,1.31 c -0.98,8.58 10.56,-1.4 0,0 m 392.07,-0.14 c -7.77,7.68 9.34,4.52 0,0 m -9.69,1.2 c -8.12,5 9.72,2.52 0,0 m -268.35,3.92 c -3.31,9.2 9.64,2.63 0,0 m 155.22,1.13 c -7.8,6.37 8.43,3.07 0,0 m -140.87,1.93 c -8.99,5.66 10.86,4.63 0,0 m 126.5,-0.35 c -4.65,9.72 10.81,1.65 0,0 m -247.75,2.32 c -1.14,10.69 13.13,-1.53 0,0 m 366.53,0.93 c -6.55,9.5 13.3,0.3 0,0 m -265.17,7.28 c -2.47,8.55 8.31,3.75 0,0 m 165.74,0.66 c -6.82,7.74 8.44,3.38 0,0 m -166.38,8.18 c -2.29,1.4 1.22,7.66 4.93,5.47 1.28,-3.57 -1.69,-5.51 -4.93,-5.47 m 166.69,0.89 c -11.17,7.38 11.52,2.18 0,0 m -176.43,3.14 c -4.27,9.94 11.77,1.79 0,0 m 186.2,0.92 c -8.54,7.77 11.74,2.37 0,0 m -169.97,4.86 c -2.92,1.34 -2.22,4.81 -1.89,7.36 4.02,0.13 6.88,-7.14 1.89,-7.36 m -47.11,1.25 c -0.53,10.87 10.37,-2.1 0,0 m 24.71,-0.46 c -1.77,2.6 -4.9,8.5 0.22,8.97 6.72,3.94 5.76,-8.44 -0.22,-8.97 m 176.13,0.26 c -1.43,14.18 10.92,-0.29 0,0 m 46.08,0.14 c -5.23,9.67 10.51,1.59 0,0 m -173.89,1 c -5.27,9.69 10.06,1.64 0,0 m 101.94,-0.07 c -4.47,9.3 9.87,2.44 0,0 m 49.1,0.02 c -4.59,1.04 -4.89,10.92 0.87,8.08 5.46,0.29 2.99,-8.73 -0.87,-8.08 m -246.39,2.72 c 5.36,5.68 13.11,8.22 18.95,13.32 -0.76,7.7 -3.3,15.13 -4.08,22.84 6.07,-8.25 12.43,-16.8 14.78,-26.99 -8.84,-5.92 -19.37,-7.5 -29.65,-9.17 m 58.19,0.18 c -5.15,11.28 10.49,2.94 0,0 m 236.43,0.38 c -10.01,1.71 -20.22,3.56 -29.12,8.76 1.54,10.54 8.47,19.47 14.8,27.45 -1.07,-7.73 -3.81,-15.23 -3.88,-23.09 4.88,-4.92 16.41,-9.08 18.2,-13.12 m -60.32,0.74 c -5.43,10.14 10.68,1.96 0,0 m -200.21,0.63 c -1.21,2.78 0.01,8.43 3.75,7.89 2.88,-3.42 -0.23,-6.93 -3.75,-7.89 m 40.12,1.28 c -1.42,9.69 8.5,-0.11 0,0 m 144.21,-0.15 c -5.42,8.84 8.29,1.39 0,0 m 41.12,0.39 c -3.85,-0.04 -4.06,4.15 -2.7,6.81 3.01,3.5 6.33,-7.98 2.7,-6.81 m -172.35,4.65 c -1.29,11.07 9.28,0.66 0,0 m 119.04,0.09 c -8.34,8.97 6.92,4.13 0,0 m -98.75,1.03 c -7.97,7.99 10.75,1.81 0,0 m 78.79,0.03 c -7.91,7.28 11.06,3.04 0,0 m -129.97,4.4 c -6.35,1.74 -16.01,4.78 -16.86,12.03 6.49,1.34 13.32,2.91 17.55,8.5 9.45,10.73 23.87,19.09 25.03,34.78 17.91,-8.84 11.81,-33.28 9.05,-48.78 -5.79,2.76 -8.67,22.39 -19.04,14.2 -4.23,-11.33 13.45,-10.7 15.8,-18.26 -10.33,-2.11 -21,-2.8 -31.53,-2.47 m 181.76,0.1 c -10.43,1.76 -21.8,-1.3 -31.43,3.79 5.38,5.39 22.37,8.47 14.81,18.53 -11.33,4.23 -10.7,-13.46 -18.26,-15.8 -2.02,15.39 -7.25,34.68 5.7,47.01 7.24,5.2 3.99,-9.48 8.96,-12.56 11.9,-10.41 20.94,-26.94 38.18,-28.64 -2.56,-7.4 -10.85,-10.95 -17.96,-12.33 m -143.89,3.17 c 0.68,9.18 11.94,-0.86 0,0 m 102.19,0.37 c -5.07,8.49 11.84,-1.24 0,0 m -165.32,0.84 c -0.88,10.61 11.08,-0.66 0,0 m 230.14,-0.12 c -7.4,8.22 8.99,4.54 0,0 m -124,4.19 c -1.26,10.89 10.65,-1.78 0,0 m 16.17,-0.21 c -1.93,11.33 11.59,-1.55 0,0 m -52.24,8.15 c -3.26,6.76 9.86,1.66 0,0 m 91.28,0.26 c -8,5.52 8.67,2.43 0,0 m -152.01,1.06 c -18.02,0.34 -29.23,20.87 -26.67,36.85 0.3,-15.87 23.52,-13.18 27.19,-1.08 11.93,3.89 13.3,25.33 -0.83,26.71 18.16,3.59 40.08,-12.94 34.87,-32.64 -7.59,-13.24 -18.9,-27.11 -34.56,-29.84 m 210.09,1.15 c -14.21,6 -26.75,18.13 -31.88,32.81 -1.54,19.07 20.05,31.74 36.78,28.97 -15.87,-0.3 -13.18,-23.52 -1.08,-27.19 3.89,-11.93 25.33,-13.3 26.71,0.83 3.29,-17.48 -11.41,-38.32 -30.53,-35.42 m -110.07,2.67 c -4.36,7.79 9.52,1.57 0,0 m 11.97,-0.12 c -6.89,8.31 10.06,1.51 0,0 m -44.56,1.23 c -9.44,7.99 13.94,1.21 0,0 m 75.69,-0.12 c -4.06,3.23 3.09,5.93 6.06,4.29 -0.61,-2.77 -2.97,-5.51 -6.06,-4.29 m -65.67,2.57 c -3.67,13.17 10.82,3.7 0,0 m 9.11,1.61 c -3.78,7.7 9.71,1.9 0,0 m 47.63,-0.21 c -8.6,10.39 10.99,1.62 0,0 m -7.99,1.18 c -8.65,5.94 8.28,1.6 0,0 m -21.99,0.71 c -11.8,10.05 -33.39,21.42 -28.12,40.27 17.5,-8.29 43.56,-8.61 61.83,0.63 4.48,-18.78 -14.99,-31.53 -28.34,-39.8 -1.79,5.3 8.36,20.8 -2.71,23.45 -12,-4.45 0.85,-17.58 -2.66,-24.55 m -42.23,4.1 c -5.3,9.81 12.52,-0.1 0,0 m 87.08,-0.04 c -7.61,8.62 12.63,1.82 0,0 m -75.14,4.11 c -5.43,10.14 10.68,1.96 0,0 m 64.94,-0.15 c -9.94,7.71 9.43,5.25 0,0 m -76.58,6.16 c -0.99,3.42 0.92,9.23 5.22,6.49 7.07,-1.4 -0.53,-10.13 -5.22,-6.49 m 84.03,-0.1 c -2.69,1.95 -5.33,5.97 -0.38,6.68 6.53,4.62 9.78,-10.7 0.38,-6.68 M 118.36,350.2 c -12.94,9.08 8.52,32.28 19.39,21.19 1.59,-11.19 -8.22,-21.56 -19.39,-21.19 m 248.12,1.24 c -9.57,0.71 -17.11,10.65 -15.98,19.93 11.4,14.56 36.43,-19.03 15.98,-19.93 m -170.14,1.85 c -6.12,1.86 2.33,5.56 5.5,4.8 0.15,-3.12 -2.07,-6.43 -5.5,-4.8 m 93.08,-0.14 c -11.06,9.76 13.29,2.14 0,0 m -107.07,3.01 c -3.92,9.14 11.03,0.81 0,0 m 120.83,-0.23 c -5.13,10.37 10.56,0.94 0,0 m -108.21,6.58 c -10.23,1.82 -18.92,8.49 -26.72,14.71 7.73,-1.07 15.22,-3.81 23.09,-3.88 5.29,5.66 7.61,13.59 13.28,18.95 -2.16,-9.91 -3.12,-22.33 -9.65,-29.78 m 98.18,-0.08 c -5.92,8.84 -7.5,19.37 -9.17,29.65 5.68,-5.36 8.22,-13.12 13.32,-18.95 7.7,0.75 15.13,3.3 22.84,4.08 -8.25,-6.07 -16.8,-12.43 -26.99,-14.78 m -186.04,0.45 c -7.5,8.34 9.51,5.24 0,0 m 136.22,0.69 c -12.84,0.73 -27.55,3.58 -30.58,18.45 -0.87,11.22 2.01,27.24 13.32,32.92 -10.4,-10.99 6.61,-24.74 17.92,-19.72 11.4,-5.22 28.45,8.95 18.02,19.92 15.1,-9.29 20.68,-35.86 4.17,-47.21 -7.05,-3.34 -15.25,-3.29 -22.85,-4.36 m 135.94,0.66 c -4.83,9.36 10.71,2.14 0,0 m -174.81,0.89 c -4.5,9.65 11.54,0.11 0,0 m 76.05,-0.01 c -2.85,10.56 11.01,-0.92 0,0 m -170.02,11.34 c -9.59,4.78 6.44,5.91 0,0 m 265.76,0.49 c 0.13,10.34 10.79,-0.74 0,0 m -254.9,1.02 c -7.89,9.05 11.19,2.36 0,0 m 243.11,1.16 c -4.5,9.65 11.54,0.11 0,0 m -263.11,4 c -4.73,10.32 11.57,0.03 0,0 m 283.75,0.04 c -7.99,7.48 9.93,5.01 0,0 m -140,19.35 c -5.73,0.39 -13.29,1.89 -15.88,7.68 2.29,14.37 28.79,14.14 29.77,-0.9 -4.02,-3.27 -8.36,-6.89 -13.89,-6.78 m -11.92,21.74 c -7.82,6.54 9.63,6.43 0,0 m 20.85,-0.26 c -8.11,10.64 9.65,3.55 0,0 m -10.89,7.96 c -4.35,9.06 7.87,2.79 0,0 m -0.7,10.21 c -4.23,9.42 11.16,0.4 0,0 z"
       inkscape:connector-curvature="0"
       style="opacity:1;fill:#000000" />
    <path
       id="path8"
       d="m 243.61,96.47 c 10.37,1.71 14.62,24.1 -0.25,24.46 -10.52,-4.67 -7.54,-18.33 0.25,-24.46 m 0.38,8.47 c -6.59,9.06 9.88,5.63 0,0 z"
       inkscape:connector-curvature="0"
       style="opacity:1;fill:#000000" />
    <path
       id="path10"
       d="m 140.07,138.48 c 10.77,-1.49 24.04,7.69 17.37,18.86 -11.51,7.22 -21.79,-10.13 -17.37,-18.86 m 6.25,7.55 c -1.64,12.22 11.95,-1.33 0,0 z"
       inkscape:connector-curvature="0"
       style="opacity:1;fill:#000000" />
    <path
       id="path12"
       d="m 346.35,139.27 c 9.84,-0.81 0.99,23.1 -8.81,19.62 -15.44,-0.53 -3.71,-24.19 8.81,-19.62 m -5.01,7.15 c -6.28,-1.2 -3.99,5.91 0.69,5.48 0.2,-1.69 2.47,-6.34 -0.69,-5.48 z"
       inkscape:connector-curvature="0"
       style="opacity:1;fill:#000000" />
    <path
       id="path14"
       d="m 227.45,202.46 c 10.43,-0.52 20.85,2.03 31.28,-0.29 10.85,1.05 12.85,16.36 22.98,20.13 8.77,4.57 3.67,15.35 3.86,22.82 -0.62,6.86 4.92,16.93 -3.15,21.29 -8.36,4.66 -13.22,12.83 -19.6,19.51 -6.58,2.6 -13.78,-1.01 -20.59,-0.27 -6.43,-0.13 -15.69,4.34 -19.64,-3.23 -4.66,-8.36 -12.83,-13.22 -19.51,-19.6 -2.6,-6.58 1.01,-13.78 0.27,-20.59 0.13,-6.43 -4.34,-15.69 3.23,-19.64 9.13,-4.44 13.12,-14.45 20.87,-20.13 m 6.23,5.96 c 3.77,6.86 16.93,10.61 22.31,-0.44 -7.38,1.78 -14.87,1.85 -22.31,0.44 m -7.16,3.15 c -5.36,4.88 -9.55,11.04 -15.47,15.41 10.36,2.77 18.15,-7.97 15.47,-15.41 m 35.5,-0.52 c -1.29,10.54 5.36,16.97 15.79,16.14 -4.54,-5.97 -11.44,-9.88 -15.79,-16.14 m -30.18,3.35 c -1.68,10.21 -9.23,14.82 -17.78,18.21 9.71,8.31 1.56,16.84 0.75,25.09 10.62,0.78 14.15,9.3 17.8,17.24 8.31,-9.72 16.84,-1.56 25.09,-0.75 0.78,-10.62 9.3,-14.15 17.24,-17.8 -9.72,-8.31 -1.56,-16.84 -0.75,-25.09 -10.62,-0.78 -14.15,-9.3 -17.8,-17.24 -8.17,8.75 -16.34,2.94 -24.55,0.34 m -23.86,18.61 c 1.99,7.64 1.62,15.39 0.44,23.1 7.83,-6.64 9.79,-17.04 -0.44,-23.1 m 72.6,-0.12 c -7.83,6.64 -9.8,17.04 0.44,23.1 -1.99,-7.64 -1.62,-15.39 -0.44,-23.1 m -69.39,28.92 c 4.54,5.96 11.43,9.87 15.79,16.14 1.29,-10.54 -5.36,-16.97 -15.79,-16.14 m 64.36,0.46 c -10.33,-1.58 -13.77,6.9 -13.74,15.54 3.75,-4.16 17.72,-15.14 13.74,-15.54 m -32.51,11.39 c -3.66,1.91 -7.47,4.03 -10.03,7.36 7.64,-1.99 15.39,-1.62 23.1,-0.44 -4.28,-1.84 -7.96,-7.98 -13.07,-6.92 z"
       inkscape:connector-curvature="0"
       style="opacity:1;fill:#000000" />
    <path
       id="path16"
       d="m 235.93,224.33 c 5.74,1.65 11.43,1.89 17.15,0.11 1.04,8.23 15.12,8.6 10.46,17.2 -3.04,4.38 4.77,11.02 -1.75,13.19 -6.65,1.06 -6.18,13.39 -13.81,8.9 -4.75,-3.46 -12.06,4.93 -14.15,-2.55 -1.3,-6.19 -13.06,-5.76 -8.56,-13.2 3.54,-4.53 -4.65,-11.49 1.94,-13.81 4.68,-1.51 6.2,-6.18 8.72,-9.84 m 2.56,5.36 c -17.72,9.26 -5.61,37.15 12.97,28.62 16.24,-9.25 4.99,-34.29 -12.97,-28.62 z"
       inkscape:connector-curvature="0"
       style="opacity:1;fill:#000000" />
    <path
       id="path18"
       d="m 110.97,235.44 c 6.22,-0.08 13.77,9.06 7.29,13.76 -5.03,6.13 -13.97,3.23 -19.01,-1.43 -9.23,-5.15 6.65,-11.72 11.72,-12.33 m -1.39,5.87 c -11.89,3.35 7.72,9.51 0,0 z"
       inkscape:connector-curvature="0"
       style="opacity:1;fill:#000000" />
    <path
       id="path20"
       d="m 375.82,236.43 c 6.5,-1.08 13.97,3.2 17.21,8.51 -4.5,5.83 -16.59,13.08 -22.58,4.48 -5.67,-4.8 0.25,-11.22 5.37,-12.99 m 2.29,6.03 c -2.59,12.37 12.34,-2.17 0,0 z"
       inkscape:connector-curvature="0"
       style="opacity:1;fill:#000000" />
    <path
       id="path22"
       d="m 244.15,240.3 c 5.1,0.1 5.89,7.4 0.7,8.4 -5.11,-0.1 -5.89,-7.4 -0.7,-8.4 z"
       inkscape:connector-curvature="0"
       style="opacity:1;fill:#000000" />
    <path
       id="path24"
       d="m 146.09,330.57 c 4.62,-0.96 13.49,-1.5 12.56,5.59 1.58,10.91 -11.68,14.21 -20.15,13.6 0.45,-6.75 1.33,-15.23 7.59,-19.19 m 0.88,6.53 c -4.95,10.71 11.94,2.19 0,0 z"
       inkscape:connector-curvature="0"
       style="opacity:1;fill:#000000" />
    <path
       id="path26"
       d="m 333.33,330.57 c 11.91,-3.48 17.81,9.97 16.43,19.93 -11.47,3.09 -27.09,-10.37 -16.43,-19.93 m 7.02,6.45 c -9.64,7.24 8.98,6.86 0,0 z"
       inkscape:connector-curvature="0"
       style="opacity:1;fill:#000000" />
    <path
       id="path28"
       d="m 241.92,368.62 c 14.49,-2.18 12.79,21.5 1.4,24.42 -6.82,-6.13 -12.06,-19.26 -1.4,-24.42 m -0.2,9.26 c -1.34,11.86 11.87,-1.12 0,0 z"
       inkscape:connector-curvature="0"
       style="opacity:1;fill:#000000" />
  </g>
</svg>
