<?xml version="1.0" encoding="UTF-8" ?>
<!DOCTYPE svg PUBLIC "-//W3C//DTD SVG 1.1//EN" "http://www.w3.org/Graphics/SVG/1.1/DTD/svg11.dtd">
<svg width="367pt" height="319pt" viewBox="0 0 367 319" version="1.1" xmlns="http://www.w3.org/2000/svg">
<path fill="#000000" opacity="1.00" d=" M 87.27 0.00 L 92.56 0.00 C 104.10 3.29 114.76 9.63 121.76 18.71 C 137.84 2.07 165.26 3.48 183.15 16.52 C 201.41 4.26 228.92 1.37 245.24 18.72 C 252.19 9.46 262.93 3.35 274.44 0.00 L 279.73 0.00 C 302.68 6.28 330.69 17.85 352.23 2.10 C 358.93 3.19 355.04 12.68 353.25 16.88 C 358.24 15.50 370.27 20.53 363.64 25.64 C 344.24 34.56 338.57 57.75 333.50 76.68 C 332.19 94.07 314.79 108.53 297.55 107.45 C 303.47 130.69 289.41 154.16 268.28 163.95 C 270.48 183.58 260.74 204.47 242.93 213.62 C 240.43 214.81 234.15 214.29 235.51 218.48 C 243.35 233.63 239.66 255.07 224.47 264.49 C 212.86 274.30 204.51 287.33 197.53 300.62 C 194.37 306.39 199.80 315.29 193.81 319.00 L 192.01 319.00 C 188.00 317.51 186.22 312.91 183.20 310.78 C 180.91 313.93 178.62 317.25 174.99 319.00 L 173.19 319.00 C 167.20 315.29 172.63 306.39 169.47 300.62 C 162.49 287.33 154.13 274.30 142.53 264.49 C 127.34 255.07 123.64 233.63 131.49 218.48 C 132.85 214.29 126.57 214.81 124.07 213.62 C 106.26 204.47 96.52 183.58 98.72 163.95 C 77.59 154.16 63.53 130.69 69.45 107.45 C 52.21 108.53 34.81 94.07 33.50 76.68 C 28.43 57.75 22.76 34.56 3.36 25.64 C -3.27 20.53 8.76 15.50 13.75 16.88 C 11.96 12.68 8.07 3.19 14.77 2.10 C 36.31 17.85 64.32 6.28 87.27 0.00 M 86.07 8.66 C 64.87 9.97 43.51 23.71 22.72 12.13 C 12.23 8.54 22.87 22.29 27.71 24.40 C 27.13 23.43 5.07 18.04 14.09 25.98 C 38.90 40.93 32.67 74.52 50.35 94.52 C 56.58 102.13 67.30 100.30 76.13 100.78 C 112.15 97.40 135.75 49.57 112.95 20.05 C 108.86 9.68 96.10 6.67 86.07 8.66 M 270.76 8.36 C 262.60 9.23 255.90 14.33 252.85 21.81 C 229.76 53.57 260.31 105.37 299.18 100.55 C 309.26 102.36 318.01 95.53 322.12 86.99 C 332.86 65.38 332.10 36.93 355.64 23.64 C 353.04 18.80 343.83 23.42 338.87 25.03 C 342.32 21.78 352.17 14.87 347.32 11.31 C 322.28 25.40 296.71 6.56 270.76 8.36 M 152.65 11.48 C 141.62 11.99 131.68 17.53 123.13 24.13 C 124.78 29.99 125.20 36.07 125.90 42.10 C 130.28 34.34 140.26 20.52 149.02 24.75 C 131.78 35.46 124.91 54.73 121.80 73.76 C 131.20 69.73 135.16 58.26 139.99 49.99 C 145.30 34.56 158.25 21.62 174.55 18.63 C 172.30 12.22 159.31 9.74 152.65 11.48 M 203.84 11.41 C 199.27 12.53 186.00 18.21 197.03 19.93 C 224.63 25.58 224.58 60.53 245.15 73.74 C 241.89 57.93 238.39 40.74 224.60 30.39 C 223.34 27.97 215.66 25.95 219.37 23.09 C 229.11 25.25 236.29 33.71 241.12 42.08 C 241.99 36.09 242.50 30.05 243.82 24.14 C 232.78 14.99 218.34 9.26 203.84 11.41 M 183.23 22.58 C 167.77 21.72 152.12 31.58 147.20 46.06 C 155.46 47.54 174.76 45.89 175.02 59.63 C 166.26 64.76 154.22 64.81 148.38 74.42 C 139.03 90.73 122.54 108.49 131.77 128.59 C 135.12 137.95 123.47 137.04 119.11 132.97 C 112.11 129.97 111.16 121.50 106.01 116.82 C 84.99 141.77 109.48 186.54 142.41 180.48 C 140.16 171.61 131.33 161.27 137.15 151.36 C 141.62 146.07 146.72 154.00 149.91 157.07 C 163.17 169.89 183.09 164.29 199.64 165.31 C 211.14 164.94 217.57 154.95 226.21 149.40 C 234.23 151.29 231.53 163.02 230.01 168.81 C 228.53 172.91 219.54 181.75 228.63 180.70 C 260.04 183.15 280.92 140.35 261.01 116.97 C 254.57 124.71 248.64 140.39 235.28 134.49 C 235.40 124.13 241.25 113.84 235.94 103.39 C 225.16 87.50 218.83 63.90 196.08 61.93 C 183.56 50.82 211.72 44.75 219.71 46.07 C 215.11 31.64 198.88 21.49 183.23 22.58 M 145.80 52.27 C 130.03 69.13 120.40 90.25 110.31 111.23 C 112.41 119.20 117.95 127.22 125.38 130.85 C 129.38 131.82 126.85 127.35 126.05 125.48 C 121.00 111.71 128.46 97.42 136.62 86.58 C 142.13 72.38 153.87 59.04 170.00 58.11 C 165.35 50.51 153.49 51.79 145.80 52.27 M 206.82 52.39 C 203.82 52.64 192.90 57.13 199.32 58.74 C 220.83 60.25 227.74 83.12 237.66 98.31 C 244.08 108.04 243.35 120.48 239.39 130.80 C 248.44 129.94 254.21 119.26 256.69 111.23 C 251.98 100.96 245.28 91.28 243.19 79.93 C 229.40 71.32 228.56 43.72 206.82 52.39 M 116.46 82.31 C 104.39 92.85 91.57 105.07 89.78 122.02 C 89.14 124.65 90.03 130.10 85.74 128.78 C 84.25 119.32 86.78 108.96 92.29 101.16 C 86.27 101.71 81.58 106.53 75.50 107.34 C 71.25 124.79 77.22 149.40 95.86 155.78 C 94.76 148.56 92.72 141.29 94.12 133.95 C 96.70 114.36 116.01 102.07 118.01 82.29 C 117.62 82.29 116.85 82.30 116.46 82.31 M 249.21 82.44 C 250.69 100.36 267.13 112.20 271.79 129.04 C 274.69 137.78 272.71 146.99 271.14 155.78 C 287.08 151.01 293.22 131.94 292.71 116.68 C 295.90 105.42 282.47 103.60 274.70 101.19 C 280.88 108.74 282.60 119.34 281.26 128.79 C 277.29 130.07 277.78 125.31 277.32 122.77 C 275.75 105.53 261.92 90.79 249.21 82.44 M 141.20 155.37 C 137.85 163.45 144.40 172.39 149.06 179.19 C 160.24 181.66 172.16 178.90 183.11 183.36 C 194.38 179.77 206.22 180.65 217.81 179.26 C 222.54 172.83 230.83 161.05 224.34 155.21 C 213.70 173.24 190.48 169.13 173.14 169.67 C 160.54 171.27 148.83 162.95 141.20 155.37 M 103.37 170.17 C 101.07 189.91 118.38 206.19 135.67 211.71 C 139.10 206.62 146.10 205.44 149.04 200.14 C 139.47 201.07 129.30 198.18 122.07 191.73 C 123.80 187.91 128.78 191.69 131.64 192.34 C 147.31 199.09 164.32 193.51 179.18 187.92 C 166.73 181.45 151.62 184.41 138.05 185.50 C 124.55 185.61 113.11 177.77 103.37 170.17 M 261.71 170.67 C 243.25 194.73 211.16 178.16 187.87 187.92 C 203.16 194.86 221.56 198.76 237.60 191.53 C 239.77 190.80 243.94 188.42 244.93 191.73 C 237.70 198.18 227.53 201.07 217.96 200.13 C 220.93 205.39 227.78 206.74 231.40 211.60 C 247.89 206.31 265.59 190.78 263.67 171.50 C 264.25 169.88 262.62 169.84 261.71 170.67 M 182.37 193.53 C 159.72 195.11 137.90 209.86 133.25 232.66 C 136.26 263.78 177.62 275.49 175.61 308.84 C 183.38 308.77 181.78 297.28 183.87 293.37 C 184.27 298.84 184.36 308.29 191.38 308.90 C 190.02 282.31 215.71 269.01 228.16 249.19 C 234.64 241.24 236.10 229.04 228.94 221.07 C 221.65 202.46 200.85 194.94 182.37 193.53 Z" />
<path fill="#000000" opacity="1.00" d=" M 75.74 24.48 C 88.25 21.18 108.68 25.63 108.77 41.63 C 103.35 41.94 104.50 33.03 99.00 32.02 C 83.31 23.10 67.28 34.18 52.02 37.62 C 53.42 55.35 57.48 87.06 82.94 84.93 C 79.89 89.03 72.46 89.74 68.09 86.90 C 45.78 73.96 50.38 41.92 30.63 26.23 C 45.53 30.84 60.89 27.29 75.74 24.48 Z" />
<path fill="#000000" opacity="1.00" d=" M 274.72 24.43 C 295.37 20.93 316.02 33.71 336.33 26.19 C 316.42 42.09 321.34 74.67 298.31 87.24 C 294.09 89.70 286.67 88.80 284.18 84.94 C 309.60 86.97 313.50 55.25 314.98 37.62 C 299.46 34.06 282.02 22.90 266.74 32.75 C 262.23 34.17 263.38 42.25 258.23 41.63 C 258.03 32.37 266.16 25.85 274.72 24.43 Z" />
<path fill="#000000" opacity="1.00" d=" M 84.56 37.49 C 94.70 36.38 108.48 40.54 110.81 51.93 C 100.80 43.09 82.48 37.40 71.36 49.34 C 67.95 59.77 72.63 71.21 81.82 77.24 C 84.37 81.82 91.98 78.16 93.01 83.56 C 73.05 86.00 61.30 63.58 64.33 46.12 C 70.65 42.47 77.21 38.54 84.56 37.49 Z" />
<path fill="#000000" opacity="1.00" d=" M 276.53 37.41 C 285.77 36.44 294.51 41.27 302.24 45.74 C 305.81 62.87 294.16 85.78 273.98 83.53 C 275.26 78.08 283.22 81.90 285.63 76.71 C 294.48 70.78 298.59 60.19 296.01 49.90 C 285.67 37.88 266.43 41.89 256.93 51.88 C 255.64 44.15 268.64 37.56 276.53 37.41 Z" />
<path fill="#000000" opacity="1.00" d=" M 81.70 53.37 C 95.03 51.36 109.91 61.07 112.34 74.38 C 99.57 75.80 85.97 70.28 80.15 58.51 C 79.51 56.49 78.05 52.56 81.70 53.37 M 87.44 58.15 C 86.67 67.01 99.28 69.11 105.90 70.14 C 102.23 63.48 95.66 57.10 87.44 58.15 Z" />
<path fill="#000000" opacity="1.00" d=" M 278.69 53.36 C 281.00 53.78 289.53 51.20 287.54 56.43 C 282.98 69.55 267.73 76.15 254.41 74.26 C 257.05 63.12 267.45 54.67 278.69 53.36 M 274.75 58.56 C 268.61 59.24 264.58 64.53 261.49 69.34 C 265.48 73.46 289.57 58.44 274.75 58.56 Z" />
<path fill="#000000" opacity="1.00" d=" M 172.66 73.30 C 178.48 71.41 183.23 80.17 188.48 74.13 C 198.14 68.94 199.63 81.29 196.00 87.21 C 201.19 85.35 208.59 81.01 212.93 86.33 C 212.93 91.68 207.74 95.48 207.17 100.75 C 210.54 104.09 226.07 97.24 222.40 108.16 C 222.17 113.62 207.38 117.17 219.08 118.82 C 228.84 120.61 223.87 131.77 216.70 133.41 C 220.02 145.21 205.61 150.36 201.63 138.99 C 199.16 143.12 200.72 152.40 193.87 153.95 C 187.84 152.47 187.63 143.20 183.15 140.39 C 179.79 144.69 178.73 152.17 173.14 153.96 C 165.74 152.57 169.15 142.55 165.28 139.04 C 163.15 147.40 149.33 148.29 150.95 137.60 C 152.22 130.69 140.22 130.91 142.42 123.56 C 142.91 117.93 151.22 120.24 152.85 116.23 C 147.87 113.73 142.52 108.94 144.56 102.64 C 149.47 100.61 154.86 102.20 159.99 101.47 C 159.58 95.88 153.99 91.87 154.13 86.29 C 158.68 80.89 165.81 85.26 170.91 87.16 C 169.83 82.53 166.54 75.58 172.66 73.30 M 174.37 78.43 C 173.00 85.75 181.41 93.16 177.78 99.77 C 172.19 98.67 170.82 87.28 162.63 89.15 C 164.03 95.36 170.60 100.34 171.33 107.42 C 164.84 109.60 158.07 108.68 151.38 108.23 C 150.96 117.28 165.89 112.41 168.19 117.81 C 162.19 122.44 153.84 120.71 147.25 124.06 C 147.66 128.76 152.78 129.56 156.53 130.00 C 155.41 133.46 154.63 137.32 156.05 140.82 C 163.98 139.99 166.27 124.22 174.67 128.11 C 172.76 132.48 166.99 140.82 172.05 144.92 C 175.74 140.62 177.43 133.15 183.18 129.53 C 189.99 132.09 190.75 141.77 195.67 145.09 C 199.33 139.12 194.28 132.90 192.33 128.11 C 200.71 124.23 203.03 139.93 210.91 140.85 C 212.81 137.45 211.03 133.59 210.53 130.04 C 214.25 129.53 219.35 128.74 219.75 124.06 C 213.17 120.73 204.85 122.42 198.84 117.84 C 200.89 111.32 215.81 117.72 215.69 108.24 C 208.96 109.22 202.05 109.09 195.47 107.26 C 195.35 99.90 203.67 95.53 204.38 89.18 C 197.67 88.17 193.94 94.64 191.52 99.78 C 180.03 99.48 202.37 73.84 187.17 79.72 C 182.95 90.21 180.62 74.80 174.37 78.43 Z" />
<path fill="#000000" opacity="1.00" d=" M 183.14 196.10 C 193.62 205.06 194.34 226.71 183.18 235.65 C 173.22 225.12 173.58 206.80 183.14 196.10 M 183.13 204.37 C 180.31 210.99 176.76 220.65 183.10 225.90 C 190.53 222.47 187.11 209.32 183.13 204.37 Z" />
<path fill="#000000" opacity="1.00" d=" M 164.36 209.26 C 169.15 208.44 164.91 214.18 164.55 216.51 C 164.25 228.55 171.34 244.03 185.42 243.54 C 200.78 240.04 204.09 220.28 201.12 209.25 C 215.40 222.76 199.09 247.85 182.55 251.37 C 166.89 244.77 153.65 225.31 164.36 209.26 Z" />
<path fill="#000000" opacity="1.00" d=" M 156.71 216.61 C 161.46 214.76 156.72 222.50 154.73 224.16 C 151.44 243.77 170.64 256.57 183.85 266.73 C 195.73 256.03 212.78 246.04 212.65 227.86 C 213.91 222.81 206.83 220.67 208.45 215.66 C 221.32 221.12 218.15 238.84 210.95 248.05 C 200.76 261.98 186.41 274.74 183.10 291.67 C 180.74 270.99 161.39 259.73 152.63 242.28 C 148.78 234.11 147.65 221.68 156.71 216.61 Z" />
</svg>
