<?xml version="1.0" encoding="UTF-8" ?>
<!DOCTYPE svg PUBLIC "-//W3C//DTD SVG 1.1//EN" "http://www.w3.org/Graphics/SVG/1.1/DTD/svg11.dtd">
<svg width="891pt" height="891pt" viewBox="0 0 891 891" version="1.1" xmlns="http://www.w3.org/2000/svg">
<path fill="#000000" opacity="1.00" d=" M 443.51 1.53 C 465.35 0.10 463.82 35.02 445.14 38.87 C 429.04 33.87 425.28 5.72 443.51 1.53 M 442.18 5.78 C 431.80 11.50 449.43 12.13 452.55 9.65 C 451.50 5.47 445.80 4.31 442.18 5.78 Z" />
<path fill="#000000" opacity="1.00" d=" M 418.20 74.82 C 426.05 73.50 435.46 75.14 441.16 80.87 C 441.17 86.14 437.58 96.02 447.46 92.86 C 455.25 92.35 445.54 81.64 451.84 78.67 C 460.48 74.60 474.21 70.71 480.94 80.27 C 482.27 84.00 483.05 94.16 476.40 92.37 C 464.43 88.84 449.60 95.65 445.85 107.80 C 440.10 95.18 425.55 88.43 412.27 92.60 C 405.52 88.22 409.69 75.33 418.20 74.82 Z" />
<path fill="#000000" opacity="1.00" d=" M 404.22 89.37 C 410.00 89.23 409.60 97.03 405.25 99.22 C 395.95 109.02 395.43 122.61 395.24 135.19 C 386.55 132.27 390.24 120.48 390.82 113.35 C 394.13 105.16 394.84 93.14 404.22 89.37 Z" />
<path fill="#000000" opacity="1.00" d=" M 486.07 89.39 C 496.13 92.10 496.80 105.27 500.21 113.41 C 500.60 120.47 504.50 132.05 495.81 135.14 C 495.29 123.11 495.48 109.97 486.55 100.46 C 482.86 98.05 479.81 90.49 486.07 89.39 Z" />
<path fill="#000000" opacity="1.00" d=" M 416.04 94.66 C 430.03 91.85 443.43 102.15 445.75 116.01 C 445.97 95.09 480.45 84.61 487.56 106.44 C 492.46 113.04 480.16 116.96 479.92 109.04 C 480.67 100.21 470.99 96.75 464.06 99.19 C 467.98 100.28 477.03 100.91 474.44 107.35 C 471.76 116.21 461.32 115.94 453.90 115.19 C 457.37 120.45 472.03 114.38 470.07 124.30 C 471.94 134.12 465.71 142.83 456.41 145.30 C 464.92 147.63 471.62 139.28 480.05 140.47 C 485.09 144.15 487.77 132.13 490.84 138.09 C 486.72 163.76 446.38 157.96 445.83 133.41 C 444.16 154.61 408.63 165.02 400.88 141.01 C 398.06 134.85 404.97 136.15 406.83 140.35 C 416.87 138.00 424.79 147.20 434.59 145.31 C 423.42 142.60 418.57 131.37 421.04 120.33 C 424.12 116.00 434.74 120.18 436.97 115.20 C 429.86 115.59 419.69 116.63 416.91 107.94 C 413.15 101.46 422.88 100.01 426.93 99.18 C 417.13 95.46 410.43 103.53 409.65 112.65 C 395.50 116.14 406.87 93.88 416.04 94.66 Z" />
<path fill="#000000" opacity="1.00" d=" M 401.34 114.08 C 407.47 115.25 403.87 124.99 404.48 130.11 C 396.53 136.46 396.18 116.95 401.34 114.08 Z" />
<path fill="#000000" opacity="1.00" d=" M 488.34 114.09 C 495.41 113.75 494.76 137.12 486.57 130.01 C 486.89 124.88 484.38 118.02 488.34 114.09 Z" />
<path fill="#000000" opacity="1.00" d=" M 394.27 137.39 C 400.07 139.47 400.33 151.30 407.59 154.49 C 413.96 161.16 433.94 154.81 430.42 169.20 C 413.87 176.00 387.26 153.52 394.27 137.39 Z" />
<path fill="#000000" opacity="1.00" d=" M 495.15 136.91 C 497.55 137.62 501.57 138.52 498.48 142.58 C 496.01 159.05 479.56 170.97 463.42 170.93 C 459.04 170.41 459.78 164.63 461.21 161.78 C 467.11 156.65 476.17 160.13 482.26 155.39 C 488.68 151.01 492.15 143.83 495.15 136.91 Z" />
<path fill="#000000" opacity="1.00" d=" M 445.16 141.67 C 449.85 146.25 452.64 154.53 459.59 157.65 C 461.08 165.02 450.98 167.36 445.84 163.77 C 440.40 166.39 431.21 166.15 431.06 158.30 C 436.90 153.81 441.85 148.38 445.16 141.67 Z" />
<path fill="#000000" opacity="1.00" d=" M 384.41 176.44 C 397.69 175.72 419.81 189.35 407.99 204.03 C 413.05 207.02 420.44 208.26 422.00 214.97 C 416.58 213.20 411.96 209.50 406.36 208.23 C 412.59 223.39 389.21 232.58 379.39 223.34 C 378.30 215.25 385.38 210.28 390.36 205.30 C 376.92 205.39 354.72 210.52 355.15 227.69 C 356.00 240.15 379.83 234.25 374.59 248.75 C 382.85 254.24 382.21 265.25 372.25 267.23 C 367.23 274.27 359.81 267.36 354.55 266.67 C 355.07 275.88 370.97 282.02 378.08 275.06 C 382.10 268.01 386.72 261.48 395.06 259.05 C 402.34 255.24 390.64 244.88 396.43 244.25 C 409.64 256.61 399.43 281.09 382.22 283.56 C 356.22 289.17 332.97 257.54 343.93 234.01 C 348.00 212.16 371.07 198.48 392.35 201.01 C 387.40 195.17 377.69 183.94 384.41 176.44 Z" />
<path fill="#000000" opacity="1.00" d=" M 505.83 176.48 C 514.12 182.43 503.56 195.49 498.65 201.01 C 519.92 198.47 542.79 212.15 547.11 233.85 C 557.39 256.56 537.11 286.21 512.04 284.08 C 493.25 283.94 480.34 257.56 494.57 244.25 C 500.26 244.93 488.29 256.05 496.54 259.46 C 509.90 260.77 509.08 280.99 523.74 277.99 C 528.69 276.49 538.33 272.19 535.97 266.12 C 527.74 272.97 518.22 269.28 511.45 262.37 C 506.42 255.63 519.56 251.20 515.77 243.99 C 517.62 234.86 533.33 238.98 535.47 229.16 C 538.36 211.23 514.12 205.25 500.61 205.32 C 505.65 210.24 512.68 215.28 511.61 223.35 C 501.94 232.34 478.37 223.42 484.64 208.23 C 479.04 209.50 474.42 213.20 469.00 214.97 C 470.56 208.26 477.94 207.02 483.01 204.03 C 471.33 189.65 492.69 176.08 505.83 176.48 Z" />
<path fill="#000000" opacity="1.00" d=" M 445.20 183.30 C 482.33 211.70 480.00 274.94 445.14 303.97 C 411.16 273.55 409.05 212.63 445.20 183.30 M 444.47 191.33 C 436.98 199.13 443.94 196.94 450.05 198.61 C 450.23 195.58 447.92 190.18 444.47 191.33 M 442.15 235.51 C 416.09 247.68 429.86 283.17 445.84 297.52 C 455.65 286.34 463.59 272.16 463.59 256.95 C 464.07 243.97 451.85 234.77 442.15 235.51 Z" />
<path fill="#000000" opacity="1.00" d=" M 442.53 239.35 C 448.45 235.99 452.42 242.20 448.31 246.31 C 444.65 252.14 437.88 241.60 442.53 239.35 Z" />
<path fill="#000000" opacity="1.00" d=" M 414.44 287.23 C 422.64 284.18 424.88 299.04 416.59 298.90 C 409.55 300.45 407.54 288.52 414.44 287.23 Z" />
<path fill="#000000" opacity="1.00" d=" M 473.36 287.26 C 481.35 284.42 483.92 298.63 475.79 298.87 C 468.51 300.92 466.44 288.05 473.36 287.26 Z" />
<path fill="#000000" opacity="1.00" d=" M 424.27 292.41 C 430.52 295.20 434.50 300.72 433.99 307.11 C 441.17 305.10 450.03 305.43 457.11 307.01 C 455.24 300.03 461.39 295.06 467.33 292.21 C 467.29 296.22 472.04 302.48 465.24 298.96 C 455.71 295.28 462.81 310.26 455.29 311.28 C 452.10 313.73 448.81 305.21 447.13 310.03 C 444.85 316.66 443.32 303.80 439.52 310.45 C 429.01 316.85 435.77 293.67 425.03 299.18 C 419.05 302.97 423.67 293.90 424.27 292.41 Z" />
<path fill="#000000" opacity="1.00" d=" M 346.37 297.20 C 349.68 296.24 350.17 300.39 350.91 302.65 C 352.74 314.12 360.17 323.65 362.38 335.06 C 367.79 324.99 357.18 307.85 365.02 298.01 C 369.48 309.20 372.56 323.40 376.18 335.96 C 379.92 328.22 377.56 310.75 386.63 307.67 C 385.07 318.25 385.66 329.00 385.07 339.70 C 392.06 333.69 392.46 314.91 404.41 314.55 C 399.02 325.32 399.74 337.59 396.14 348.97 C 396.91 349.71 398.71 352.24 399.24 349.97 C 400.52 341.54 407.78 330.86 417.07 331.78 C 408.70 339.50 412.66 352.11 405.79 360.83 C 412.08 357.28 419.57 350.67 426.88 353.13 C 423.69 362.56 408.68 364.68 410.08 376.95 C 422.29 366.40 430.38 377.37 437.63 385.71 C 438.75 377.11 432.75 368.03 437.14 359.99 C 442.93 364.20 441.74 372.42 445.84 377.76 C 448.34 371.85 448.65 364.29 453.85 359.91 C 458.51 367.97 452.31 377.08 453.36 385.69 C 460.08 376.77 469.83 368.21 480.90 376.92 C 482.74 364.33 465.59 362.53 464.50 352.37 C 472.34 351.81 478.83 357.06 485.21 360.83 C 478.31 351.99 482.49 339.49 473.94 331.59 C 483.35 331.19 490.45 341.41 491.76 349.97 C 492.27 352.23 494.09 349.70 494.88 348.98 C 491.19 337.56 492.44 325.23 486.62 314.58 C 498.54 314.89 498.94 333.72 505.93 339.70 C 505.34 329.00 505.92 318.25 504.37 307.67 C 513.77 310.52 510.56 329.04 514.83 335.80 C 518.51 323.32 521.52 309.04 525.99 298.01 C 533.48 307.95 523.69 325.55 528.67 334.96 C 531.12 323.16 538.60 313.20 540.47 301.27 C 540.39 298.20 544.73 294.83 545.59 299.24 C 546.42 312.54 540.72 325.17 537.90 337.96 C 545.50 330.34 549.65 319.78 556.51 311.44 C 557.98 309.67 563.24 309.70 559.33 314.19 C 555.06 325.10 549.78 335.62 543.70 345.64 C 542.24 346.88 544.18 348.65 545.41 347.31 C 555.44 341.27 565.89 335.90 576.81 331.67 C 581.22 327.68 581.35 333.05 579.56 334.49 C 571.20 341.34 560.69 345.52 553.01 353.09 C 565.85 350.50 578.49 344.79 591.77 345.41 C 596.51 346.64 592.11 350.83 589.04 350.73 C 577.31 352.56 567.56 360.05 555.94 362.38 C 566.01 367.79 583.15 357.18 592.99 365.02 C 581.79 369.48 567.60 372.56 555.04 376.18 C 562.78 379.92 580.25 377.56 583.33 386.63 C 572.75 385.07 562.00 385.66 551.30 385.07 C 557.31 392.06 576.09 392.46 576.45 404.41 C 565.68 399.02 553.40 399.74 542.03 396.14 C 541.28 396.91 538.75 398.71 541.03 399.24 C 549.46 400.52 560.13 407.78 559.22 417.07 C 551.50 408.70 538.89 412.66 530.17 405.79 C 533.72 412.08 540.32 419.57 537.87 426.88 C 528.43 423.69 526.32 408.68 514.05 410.08 C 524.60 422.29 513.63 430.38 505.29 437.63 C 513.89 438.75 522.97 432.75 531.01 437.14 C 526.79 442.93 518.58 441.74 513.24 445.84 C 519.15 448.34 526.71 448.65 531.09 453.85 C 523.03 458.51 513.91 452.31 505.31 453.36 C 514.23 460.08 522.79 469.83 514.08 480.90 C 526.67 482.74 528.47 465.59 538.63 464.50 C 539.18 472.34 533.94 478.83 530.17 485.21 C 539.01 478.31 551.50 482.49 559.41 473.94 C 559.81 483.35 549.59 490.45 541.03 491.76 C 538.76 492.27 541.29 494.09 542.02 494.88 C 553.43 491.19 565.77 492.44 576.42 486.62 C 576.11 498.54 557.28 498.94 551.30 505.93 C 562.00 505.34 572.75 505.92 583.33 504.37 C 580.48 513.77 561.95 510.56 555.20 514.83 C 567.68 518.51 581.95 521.52 592.99 525.99 C 583.05 533.48 565.45 523.69 556.04 528.67 C 567.84 531.12 577.80 538.60 589.73 540.47 C 592.79 540.39 596.16 544.73 591.76 545.59 C 578.46 546.42 565.82 540.72 553.04 537.90 C 560.66 545.50 571.22 549.65 579.56 556.51 C 581.35 557.98 581.22 563.24 576.81 559.33 C 565.89 555.06 555.38 549.78 545.36 543.70 C 544.11 542.24 542.34 544.18 543.69 545.41 C 549.73 555.44 555.10 565.89 559.33 576.81 C 563.25 581.22 557.98 581.35 556.51 579.56 C 549.66 571.20 545.48 560.69 537.91 553.01 C 540.50 565.85 546.21 578.49 545.59 591.77 C 544.35 596.51 540.17 592.11 540.27 589.04 C 538.44 577.31 530.95 567.56 528.62 555.94 C 523.21 566.01 533.82 583.15 525.98 592.99 C 521.51 581.79 518.44 567.60 514.82 555.04 C 511.07 562.78 513.44 580.25 504.37 583.33 C 505.92 572.75 505.33 562.00 505.93 551.30 C 498.93 557.31 498.54 576.09 486.59 576.45 C 491.98 565.68 491.25 553.40 494.86 542.03 C 494.08 541.28 492.28 538.75 491.76 541.03 C 490.48 549.46 483.22 560.13 473.93 559.22 C 482.29 551.50 478.34 538.89 485.21 530.17 C 478.92 533.72 471.42 540.32 464.12 537.87 C 467.31 528.43 482.32 526.32 480.92 514.05 C 468.71 524.60 460.62 513.63 453.37 505.29 C 452.25 513.89 458.25 522.97 453.86 531.01 C 448.06 526.79 449.26 518.58 445.16 513.24 C 442.66 519.15 442.35 526.71 437.15 531.09 C 432.49 523.03 438.68 513.91 437.64 505.31 C 430.92 514.23 421.17 522.79 410.10 514.08 C 408.26 526.67 425.41 528.47 426.50 538.63 C 418.66 539.18 412.17 533.94 405.79 530.17 C 412.69 539.01 408.50 551.50 417.06 559.41 C 407.65 559.81 400.55 549.59 399.24 541.03 C 398.72 538.76 396.90 541.29 396.12 542.02 C 399.80 553.43 398.56 565.77 404.38 576.42 C 392.46 576.11 392.05 557.28 385.07 551.30 C 385.66 562.00 385.08 572.75 386.63 583.33 C 377.23 580.48 380.43 561.95 376.17 555.20 C 372.48 567.68 369.47 581.95 365.01 592.99 C 357.52 583.05 367.30 565.45 362.33 556.04 C 359.88 567.84 352.40 577.80 350.53 589.73 C 350.61 592.79 346.26 596.16 345.41 591.76 C 344.58 578.46 350.28 565.82 353.10 553.04 C 345.50 560.66 341.35 571.22 334.49 579.56 C 333.05 581.35 327.68 581.22 331.67 576.81 C 335.94 565.89 341.21 555.38 347.30 545.36 C 348.75 544.11 346.81 542.34 345.59 543.69 C 335.55 549.73 325.11 555.10 314.19 559.33 C 309.70 563.25 309.67 557.98 311.44 556.51 C 319.79 549.66 330.31 545.48 337.99 537.91 C 325.15 540.50 312.51 546.21 299.23 545.59 C 294.48 544.35 298.89 540.17 301.96 540.27 C 313.68 538.44 323.43 530.95 335.06 528.62 C 324.99 523.21 307.85 533.82 298.01 525.98 C 309.20 521.51 323.40 518.44 335.96 514.82 C 328.22 511.07 310.75 513.44 307.67 504.37 C 318.25 505.92 329.00 505.33 339.70 505.93 C 333.69 498.93 314.91 498.54 314.55 486.59 C 325.32 491.98 337.59 491.25 348.97 494.86 C 349.71 494.08 352.24 492.28 349.97 491.76 C 341.54 490.48 330.86 483.22 331.78 473.93 C 339.50 482.29 352.11 478.34 360.83 485.21 C 357.28 478.92 350.67 471.42 353.13 464.12 C 362.56 467.31 364.68 482.32 376.95 480.92 C 366.40 468.71 377.37 460.62 385.71 453.37 C 377.11 452.25 368.03 458.25 359.99 453.86 C 364.20 448.06 372.42 449.26 377.76 445.16 C 371.85 442.66 364.29 442.35 359.91 437.15 C 367.97 432.49 377.08 438.68 385.69 437.64 C 376.77 430.92 368.21 421.17 376.92 410.10 C 364.33 408.26 362.53 425.41 352.37 426.50 C 351.81 418.66 357.06 412.17 360.83 405.79 C 351.99 412.69 339.49 408.50 331.59 417.06 C 331.19 407.65 341.41 400.55 349.97 399.24 C 352.23 398.72 349.70 396.90 348.98 396.12 C 337.56 399.80 325.23 398.56 314.58 404.38 C 314.89 392.46 333.72 392.05 339.70 385.07 C 329.00 385.66 318.25 385.08 307.67 386.63 C 310.52 377.23 329.04 380.43 335.80 376.17 C 323.32 372.48 309.04 369.47 298.01 365.01 C 307.95 357.52 325.55 367.30 334.96 362.33 C 323.16 359.88 313.20 352.40 301.27 350.53 C 298.20 350.61 294.83 346.26 299.24 345.41 C 312.54 344.58 325.17 350.28 337.96 353.10 C 330.34 345.50 319.78 341.35 311.44 334.49 C 309.67 333.05 309.70 327.68 314.19 331.67 C 325.10 335.94 335.62 341.21 345.64 347.30 C 346.88 348.75 348.65 346.81 347.31 345.59 C 341.27 335.55 335.90 325.11 331.67 314.19 C 327.68 309.70 333.05 309.67 334.49 311.44 C 341.34 319.79 345.52 330.31 353.09 337.99 C 351.10 324.64 342.78 310.68 346.37 297.20 M 422.55 378.37 C 419.80 382.62 412.95 383.55 411.26 387.66 C 423.48 382.78 422.00 399.91 432.08 401.66 C 428.60 394.22 428.98 381.84 422.55 378.37 M 466.17 378.14 C 463.13 385.79 461.55 393.89 458.92 401.66 C 468.58 399.69 467.70 382.86 479.73 387.66 C 476.98 384.09 470.71 379.99 466.17 378.14 M 387.50 383.41 C 376.11 390.41 395.36 397.10 400.87 401.08 C 397.55 394.98 393.62 385.71 387.50 383.41 M 502.32 383.35 C 497.06 388.25 493.14 394.57 490.13 401.08 C 496.57 397.77 515.61 388.11 502.32 383.35 M 419.34 393.68 C 415.57 395.33 403.48 398.29 411.70 402.24 C 410.59 406.70 406.70 410.59 402.24 411.70 C 398.00 403.31 395.26 416.33 393.34 420.09 C 401.45 418.93 406.86 426.68 414.47 426.55 C 412.09 420.76 402.42 419.96 402.06 413.24 C 408.96 414.38 415.92 417.04 420.15 422.93 C 427.14 418.45 409.72 408.52 414.01 402.10 C 420.11 403.33 420.92 412.21 426.61 414.42 C 425.43 407.33 419.90 399.98 419.34 393.68 M 470.91 393.34 C 472.07 401.45 464.32 406.86 464.45 414.47 C 470.24 412.09 471.03 402.42 477.76 402.06 C 476.61 408.96 473.95 415.92 468.07 420.15 C 472.55 427.14 482.48 409.72 488.90 414.01 C 487.66 420.11 478.78 420.92 476.58 426.61 C 483.90 425.92 489.64 419.45 497.43 420.12 C 496.05 416.14 494.72 410.41 491.24 408.28 C 488.25 415.73 480.22 406.99 479.30 402.24 C 487.68 398.00 474.67 395.26 470.91 393.34 M 386.23 411.29 C 384.61 416.47 379.12 419.80 378.14 424.83 C 385.79 427.86 393.89 429.45 401.66 432.08 C 398.30 423.00 383.67 421.24 386.23 411.29 M 503.34 411.26 C 508.22 423.48 491.09 422.00 489.34 432.08 C 497.11 429.19 506.33 428.19 512.88 424.05 C 510.06 420.10 507.10 413.68 503.34 411.26 M 445.18 421.36 C 436.09 423.60 438.12 437.07 428.09 438.07 C 419.99 439.95 419.99 450.97 428.06 452.93 C 438.12 453.88 436.08 467.41 445.18 469.64 C 450.24 468.92 452.59 464.48 454.17 460.22 C 456.02 452.56 467.40 454.31 469.41 446.49 C 469.65 439.11 461.15 437.75 456.21 434.79 C 453.20 429.83 452.22 422.31 445.18 421.36 M 398.85 459.69 C 392.08 462.29 384.79 463.18 378.14 466.17 C 379.12 471.20 384.61 474.52 386.23 479.71 C 389.64 478.73 384.60 469.47 391.18 469.12 C 395.28 468.56 405.67 458.13 398.85 459.69 M 489.34 458.92 C 491.31 468.58 508.14 467.70 503.34 479.73 C 507.10 477.33 510.06 470.89 512.88 466.95 C 506.33 462.80 497.11 461.80 489.34 458.92 M 411.51 464.80 C 405.67 467.22 400.18 471.08 393.55 470.89 C 394.97 474.86 396.27 480.59 399.76 482.72 C 402.75 475.27 410.78 484.00 411.70 488.76 C 403.31 493.00 416.33 495.74 420.09 497.66 C 418.93 489.55 426.68 484.14 426.55 476.53 C 420.76 478.90 419.96 488.57 413.24 488.94 C 414.38 482.04 417.04 475.07 422.93 470.85 C 418.86 463.33 412.58 479.26 405.87 476.96 C 392.31 479.11 421.68 463.55 411.51 464.80 M 476.53 464.45 C 478.90 470.24 488.57 471.03 488.94 477.76 C 482.04 476.61 475.07 473.95 470.85 468.07 C 463.85 472.55 481.27 482.48 476.99 488.90 C 470.89 487.66 470.07 478.78 464.39 476.58 C 465.08 483.90 471.54 489.64 470.88 497.43 C 474.86 496.05 480.58 494.72 482.72 491.24 C 475.27 488.25 484.00 480.22 488.76 479.30 C 493.00 487.68 495.74 474.67 497.66 470.91 C 489.55 472.07 484.14 464.32 476.53 464.45 M 430.70 489.77 C 422.40 493.04 422.71 507.87 411.27 503.34 C 413.67 507.10 420.11 510.06 424.05 512.88 C 426.43 507.70 432.25 493.43 430.70 489.77 M 458.92 489.34 C 461.81 497.11 462.80 506.33 466.95 512.88 C 470.90 510.06 477.31 507.10 479.74 503.34 C 467.52 508.22 469.00 491.09 458.92 489.34 M 400.41 490.42 C 394.07 493.65 387.46 497.31 382.97 502.92 C 389.43 516.01 399.04 494.05 400.41 490.42 M 489.86 490.18 C 493.45 496.57 497.21 503.31 502.92 508.03 C 515.14 500.88 495.82 493.93 489.86 490.18 Z" />
<path fill="#000000" opacity="1.00" d=" M 403.16 303.05 C 417.78 310.96 432.82 318.96 445.85 328.84 C 457.39 318.37 472.18 312.83 485.04 304.01 C 489.92 301.17 489.18 307.18 485.31 308.32 C 468.70 318.46 460.77 337.68 445.82 349.29 C 430.62 339.30 423.36 319.62 407.46 309.56 C 405.66 307.82 400.14 305.81 403.16 303.05 Z" />
<path fill="#000000" opacity="1.00" d=" M 240.54 341.83 C 263.84 336.87 289.64 359.98 283.21 384.03 C 279.42 400.28 256.05 409.11 244.25 396.43 C 244.93 390.74 256.05 402.71 259.46 394.46 C 260.77 381.10 280.99 381.92 277.99 367.26 C 276.49 362.31 272.19 352.66 266.12 355.03 C 272.97 363.25 269.28 372.78 262.37 379.55 C 255.63 384.58 251.20 371.43 243.99 375.23 C 234.86 373.37 238.98 357.67 229.16 355.53 C 211.23 352.64 205.25 376.87 205.32 390.39 C 210.24 385.35 215.28 378.31 223.35 379.39 C 232.34 389.06 223.42 412.63 208.23 406.36 C 209.50 411.96 213.20 416.58 214.97 422.00 C 208.26 420.44 207.02 413.05 204.03 407.99 C 189.08 420.20 174.36 396.18 177.06 383.22 C 185.66 379.68 194.81 386.21 200.36 392.50 C 202.70 389.31 200.79 383.55 201.43 379.54 C 203.55 359.73 221.39 344.58 240.54 341.83 Z" />
<path fill="#000000" opacity="1.00" d=" M 638.97 341.72 C 661.68 338.93 686.45 355.31 689.52 378.80 C 690.25 383.12 688.26 389.03 690.64 392.50 C 696.19 386.21 705.34 379.68 713.94 383.22 C 716.64 396.18 701.92 420.20 686.97 407.99 C 683.98 413.05 682.74 420.44 676.03 422.00 C 677.79 416.58 681.49 411.96 682.77 406.36 C 667.61 412.59 658.42 389.21 667.66 379.39 C 675.74 378.30 680.72 385.38 685.70 390.36 C 685.61 376.92 680.48 354.72 663.31 355.15 C 650.85 356.00 656.74 379.83 642.25 374.59 C 636.76 382.85 625.75 382.21 623.77 372.25 C 616.72 367.23 623.64 359.81 624.33 354.55 C 615.12 355.07 608.97 370.97 615.94 378.08 C 622.98 382.10 629.52 386.72 631.95 395.06 C 635.76 402.34 646.12 390.64 646.75 396.43 C 635.89 408.14 614.19 401.54 608.93 387.03 C 600.37 366.68 618.53 344.07 638.97 341.72 Z" />
<path fill="#000000" opacity="1.00" d=" M 114.18 390.64 C 120.96 390.46 132.26 386.64 135.14 395.19 C 121.59 395.19 107.08 396.56 97.07 407.14 C 94.27 410.93 87.40 407.17 89.88 402.88 C 94.83 394.61 105.95 393.72 114.18 390.64 Z" />
<path fill="#000000" opacity="1.00" d=" M 760.92 390.35 C 773.86 388.38 787.00 392.48 798.04 398.96 C 802.60 401.37 802.78 409.52 796.37 408.71 C 786.25 399.45 772.80 393.87 758.94 395.68 C 753.38 396.77 757.51 389.94 760.92 390.35 Z" />
<path fill="#000000" opacity="1.00" d=" M 138.46 392.11 C 156.68 392.28 171.12 410.04 170.93 427.58 C 170.38 432.04 163.92 431.44 161.34 429.31 C 156.49 421.57 160.18 410.17 151.54 404.42 C 149.75 398.11 133.65 399.53 138.46 392.11 Z" />
<path fill="#000000" opacity="1.00" d=" M 748.43 392.52 C 751.84 388.55 756.47 396.47 751.99 396.95 C 741.80 400.26 731.85 408.73 732.44 420.39 C 732.95 426.81 727.95 433.42 721.12 430.21 C 717.49 413.48 731.65 395.08 748.43 392.52 Z" />
<path fill="#000000" opacity="1.00" d=" M 121.63 398.32 C 124.43 397.91 132.56 397.75 131.75 402.40 C 126.76 410.01 102.86 401.04 121.63 398.32 Z" />
<path fill="#000000" opacity="1.00" d=" M 763.64 398.49 C 767.86 398.16 774.08 397.27 776.92 401.34 C 776.47 409.39 749.72 403.79 763.64 398.49 Z" />
<path fill="#000000" opacity="1.00" d=" M 137.34 400.09 C 163.59 403.24 158.41 444.67 133.41 445.17 C 154.61 446.84 165.02 482.36 141.01 490.12 C 134.85 492.94 136.15 486.03 140.35 484.17 C 138.00 474.13 147.20 466.21 145.31 456.41 C 142.60 467.58 131.37 472.42 120.33 469.96 C 116.00 466.87 120.18 456.26 115.20 454.03 C 115.59 461.14 116.63 471.31 107.94 474.09 C 101.46 477.85 100.01 468.11 99.18 464.07 C 95.46 473.87 103.53 480.56 112.65 481.35 C 116.92 492.55 101.38 487.46 97.90 482.00 C 87.95 467.88 99.51 447.25 116.01 445.25 C 95.09 445.03 84.61 410.55 106.44 403.44 C 113.04 398.53 116.96 410.84 109.04 411.08 C 100.21 410.33 96.75 420.01 99.19 426.94 C 100.28 423.01 100.91 413.97 107.35 416.56 C 116.21 419.24 115.94 429.68 115.19 437.10 C 120.45 433.62 114.38 418.97 124.30 420.93 C 134.12 419.05 142.83 425.29 145.30 434.59 C 147.63 426.08 139.28 419.38 140.47 410.95 C 144.08 405.40 133.22 404.64 137.34 400.09 Z" />
<path fill="#000000" opacity="1.00" d=" M 751.42 400.43 C 759.88 400.50 747.63 406.88 750.54 411.07 C 751.62 419.45 743.40 426.12 745.69 434.59 C 748.40 423.42 759.62 418.57 770.67 421.04 C 775.00 424.12 770.82 434.74 775.80 436.97 C 775.40 429.86 774.37 419.69 783.06 416.91 C 789.54 413.15 790.98 422.88 791.82 426.93 C 795.54 417.13 787.47 410.43 778.35 409.65 C 774.08 398.45 789.62 403.54 793.10 409.00 C 803.05 423.12 791.49 443.75 774.99 445.75 C 795.91 445.97 806.39 480.45 784.56 487.56 C 777.96 492.46 774.04 480.16 781.96 479.92 C 790.78 480.67 794.25 470.99 791.81 464.06 C 790.71 467.98 790.09 477.03 783.65 474.44 C 774.79 471.76 775.06 461.32 775.81 453.90 C 770.54 457.37 776.62 472.03 766.70 470.07 C 756.88 471.94 748.16 465.71 745.70 456.41 C 743.37 464.92 751.72 471.62 750.53 480.05 C 746.84 485.09 758.87 487.77 752.91 490.84 C 727.24 486.72 733.04 446.38 757.59 445.83 C 735.59 444.19 726.04 406.80 751.42 400.43 Z" />
<path fill="#000000" opacity="1.00" d=" M 304.25 402.30 C 316.18 417.99 335.65 430.07 349.29 445.18 C 338.22 461.27 317.14 469.32 306.98 487.02 C 300.08 492.49 305.62 479.80 308.23 477.26 C 316.86 467.75 319.16 454.49 328.84 445.85 C 325.94 440.66 319.97 436.78 318.60 430.41 C 315.46 420.59 303.04 412.02 304.25 402.30 Z" />
<path fill="#000000" opacity="1.00" d=" M 585.56 402.41 C 590.98 402.68 583.96 410.68 582.77 413.74 C 574.14 423.25 571.84 436.51 562.16 445.15 C 571.89 457.43 578.75 472.23 587.29 485.71 C 589.17 491.00 583.15 487.86 582.26 484.72 C 572.28 468.13 552.02 460.71 541.71 445.18 C 554.70 429.57 574.50 420.15 585.56 402.41 Z" />
<path fill="#000000" opacity="1.00" d=" M 82.60 409.41 C 86.03 408.98 94.37 408.74 92.37 414.60 C 88.84 426.57 95.65 441.39 107.80 445.15 C 94.49 450.99 88.91 466.06 92.38 479.48 C 76.88 490.12 69.36 465.28 77.38 454.57 C 79.02 443.52 96.70 457.56 92.86 443.54 C 92.37 435.74 81.62 445.46 78.69 439.13 C 73.81 430.56 70.49 413.60 82.60 409.41 Z" />
<path fill="#000000" opacity="1.00" d=" M 803.55 409.45 C 820.61 407.21 819.55 434.26 809.42 441.39 C 804.21 440.21 795.03 438.43 798.14 447.46 C 798.63 455.25 809.37 445.54 812.31 451.87 C 816.78 460.44 820.11 474.20 810.73 480.95 C 806.98 482.26 796.84 483.05 798.63 476.40 C 802.15 464.43 795.35 449.60 783.20 445.85 C 794.26 440.51 802.36 427.80 798.74 415.37 C 797.21 411.84 799.90 408.91 803.55 409.45 Z" />
<path fill="#000000" opacity="1.00" d=" M 291.51 410.24 C 298.62 408.04 302.07 419.12 295.42 421.73 C 287.14 425.18 283.69 412.02 291.51 410.24 Z" />
<path fill="#000000" opacity="1.00" d=" M 596.45 410.30 C 603.81 407.47 607.28 421.05 599.52 421.55 C 591.74 424.91 588.95 411.35 596.45 410.30 Z" />
<path fill="#000000" opacity="1.00" d=" M 240.32 418.64 C 264.16 418.06 287.56 427.86 303.97 445.14 C 274.83 480.06 211.63 482.33 183.13 445.13 C 196.82 427.90 218.92 419.88 240.32 418.64 M 254.99 427.67 C 238.97 428.48 228.67 447.77 241.98 457.95 C 259.61 471.09 284.31 458.42 297.52 445.16 C 285.89 435.11 270.86 426.38 254.99 427.67 M 195.65 441.35 C 187.80 442.90 192.41 451.05 198.61 450.05 C 194.65 447.03 201.45 439.60 195.65 441.35 Z" />
<path fill="#000000" opacity="1.00" d=" M 650.05 418.61 C 671.58 419.65 694.88 427.65 707.87 445.87 C 678.32 481.78 616.29 480.17 587.03 445.14 C 603.29 427.91 626.41 418.39 650.05 418.61 M 628.98 427.55 C 615.97 430.08 602.10 435.82 593.48 445.84 C 607.85 458.34 631.21 471.09 649.02 457.95 C 665.02 445.42 646.98 423.74 628.98 427.55 M 692.39 440.95 C 694.08 444.15 694.08 446.84 692.39 450.05 C 701.39 451.08 701.39 439.92 692.39 440.95 Z" />
<path fill="#000000" opacity="1.00" d=" M 299.53 421.73 C 301.11 422.74 295.79 429.79 300.21 431.16 C 303.98 432.20 310.32 430.44 311.28 435.71 C 313.73 438.90 305.21 442.19 310.03 443.87 C 316.66 446.15 303.80 447.68 310.45 451.48 C 316.85 461.99 293.67 455.23 299.18 465.97 C 302.33 472.14 295.59 466.90 292.21 467.34 C 294.75 460.83 300.56 456.41 307.11 457.01 C 305.10 449.82 305.43 440.97 307.01 433.89 C 299.62 437.11 285.19 421.40 299.53 421.73 Z" />
<path fill="#000000" opacity="1.00" d=" M 590.82 421.49 C 601.20 422.10 597.82 427.78 591.66 432.97 C 575.92 430.37 591.18 447.97 583.28 455.86 C 588.99 457.15 596.35 459.58 598.79 467.33 C 594.78 467.29 588.52 472.04 592.04 465.24 C 595.72 455.71 580.74 462.81 579.72 455.29 C 577.46 451.91 586.27 448.34 580.36 446.81 C 574.68 444.62 586.35 443.82 581.41 440.59 C 572.78 429.27 600.97 435.13 590.82 421.49 Z" />
<path fill="#000000" opacity="1.00" d=" M 12.92 431.63 C 23.37 429.47 34.91 435.07 38.87 445.14 C 34.94 459.20 13.31 465.56 3.88 453.10 C -2.82 445.05 4.18 434.13 12.92 431.63 M 9.00 438.51 C 3.50 441.07 3.89 451.80 10.31 452.56 C 10.38 448.30 12.38 440.51 9.00 438.51 Z" />
<path fill="#000000" opacity="1.00" d=" M 157.65 431.41 C 165.02 429.92 167.36 440.01 163.77 445.16 C 166.39 450.60 166.15 459.79 158.30 459.94 C 153.81 454.10 148.38 449.15 141.67 445.84 C 146.25 441.15 154.53 438.35 157.65 431.41 Z" />
<path fill="#000000" opacity="1.00" d=" M 730.51 431.32 C 737.69 432.18 740.95 443.76 749.33 445.16 C 744.75 449.85 736.47 452.64 733.35 459.59 C 725.98 461.08 723.64 450.98 727.23 445.84 C 725.41 440.81 724.09 433.66 730.51 431.32 Z" />
<path fill="#000000" opacity="1.00" d=" M 868.47 431.78 C 879.32 428.15 893.71 438.60 888.77 450.55 C 882.33 463.23 863.26 462.11 855.54 451.31 C 846.41 443.35 860.52 433.04 868.47 431.78 M 881.35 438.45 C 879.26 441.79 880.34 448.11 880.69 452.56 C 887.31 451.89 887.56 440.05 881.35 438.45 Z" />
<path fill="#000000" opacity="1.00" d=" M 445.15 439.47 C 447.11 441.01 448.11 444.67 451.53 445.15 C 446.48 451.42 444.51 451.42 439.47 445.15 C 442.31 444.26 444.26 442.31 445.15 439.47 Z" />
<path fill="#000000" opacity="1.00" d=" M 240.28 441.28 C 245.19 439.15 251.76 446.71 245.01 449.17 C 239.48 453.21 236.65 444.23 240.28 441.28 Z" />
<path fill="#000000" opacity="1.00" d=" M 647.47 441.20 C 654.52 438.49 653.55 453.70 646.71 449.51 C 641.40 448.26 642.49 441.91 647.47 441.20 Z" />
<path fill="#000000" opacity="1.00" d=" M 162.88 460.63 C 167.28 459.09 172.82 460.85 171.01 466.94 C 168.89 483.13 155.67 498.85 138.42 498.91 C 134.44 491.14 149.67 492.17 152.65 485.63 C 160.97 479.50 155.46 466.78 162.88 460.63 Z" />
<path fill="#000000" opacity="1.00" d=" M 721.90 460.46 C 737.69 457.73 728.53 480.31 738.93 486.10 C 740.57 492.79 757.31 491.31 752.54 498.89 C 733.98 499.05 716.13 477.79 721.90 460.46 Z" />
<path fill="#000000" opacity="1.00" d=" M 213.59 469.55 C 216.89 470.50 206.99 481.33 208.95 484.50 C 223.89 478.95 232.31 502.10 223.34 511.61 C 215.25 512.69 210.28 505.62 205.30 500.64 C 205.39 514.08 210.52 536.27 227.69 535.85 C 240.15 535.00 234.25 511.17 248.75 516.41 C 254.24 508.15 265.25 508.79 267.23 518.75 C 274.27 523.77 267.36 531.19 266.67 536.45 C 275.88 535.93 282.02 520.02 275.06 512.92 C 268.01 508.90 261.48 504.28 259.05 495.94 C 255.24 488.65 244.88 500.36 244.25 494.57 C 256.61 481.36 281.09 491.57 283.56 508.78 C 289.17 534.78 257.54 558.03 234.01 547.07 C 212.16 543.00 198.48 519.93 201.01 498.65 C 194.91 503.63 186.05 511.82 177.06 507.78 C 174.36 494.81 189.08 470.80 204.03 483.01 C 206.96 478.41 207.75 471.63 213.59 469.55 Z" />
<path fill="#000000" opacity="1.00" d=" M 291.48 469.45 C 299.77 466.04 301.94 480.60 293.81 480.87 C 286.70 482.65 284.16 469.81 291.48 469.45 Z" />
<path fill="#000000" opacity="1.00" d=" M 595.58 469.27 C 604.38 465.65 607.23 480.07 598.72 480.90 C 591.85 482.16 589.37 471.68 595.58 469.27 Z" />
<path fill="#000000" opacity="1.00" d=" M 676.03 469.00 C 682.74 470.56 683.98 477.94 686.97 483.01 C 701.92 470.80 716.64 494.81 713.94 507.78 C 704.95 511.82 696.09 503.63 689.99 498.65 C 692.53 519.92 678.85 542.79 657.15 547.11 C 634.44 557.39 604.79 537.11 606.92 512.04 C 607.06 493.25 633.44 480.34 646.75 494.57 C 646.06 500.26 634.95 488.29 631.54 496.54 C 630.23 509.90 610.01 509.08 613.01 523.74 C 614.51 528.69 618.80 538.33 624.88 535.97 C 618.03 527.74 621.72 518.22 628.63 511.45 C 635.37 506.42 639.79 519.56 647.01 515.77 C 656.14 517.62 652.02 533.33 661.84 535.47 C 679.77 538.36 685.75 514.12 685.68 500.61 C 680.76 505.65 675.72 512.68 667.65 511.61 C 658.66 501.94 667.58 478.37 682.77 484.64 C 681.49 479.04 677.79 474.42 676.03 469.00 Z" />
<path fill="#000000" opacity="1.00" d=" M 93.19 482.34 C 104.98 491.38 119.70 497.29 135.19 495.76 C 128.59 506.92 110.80 499.29 100.96 496.08 C 95.11 495.41 83.87 485.99 93.19 482.34 Z" />
<path fill="#000000" opacity="1.00" d=" M 796.35 482.28 C 807.03 483.12 798.01 495.17 791.47 495.51 C 781.16 498.93 762.86 507.50 755.86 495.81 C 770.62 496.42 785.48 493.13 796.35 482.28 Z" />
<path fill="#000000" opacity="1.00" d=" M 116.59 486.37 C 121.08 486.04 125.61 486.46 130.11 486.52 C 138.52 496.46 105.85 493.81 116.59 486.37 Z" />
<path fill="#000000" opacity="1.00" d=" M 760.99 486.57 C 766.11 486.89 772.98 484.38 776.91 488.34 C 777.25 495.41 753.88 494.76 760.99 486.57 Z" />
<path fill="#000000" opacity="1.00" d=" M 445.18 541.71 C 461.27 552.78 469.32 573.86 487.02 584.02 C 492.49 590.92 479.80 585.38 477.26 582.77 C 467.75 574.14 454.49 571.84 445.85 562.16 C 433.57 571.89 418.77 578.75 405.29 587.29 C 400.52 589.27 402.51 583.58 405.69 582.68 C 422.30 572.54 430.23 553.32 445.18 541.71 Z" />
<path fill="#000000" opacity="1.00" d=" M 445.16 578.55 C 447.60 587.31 453.99 574.87 458.26 582.03 C 457.19 590.00 462.18 595.28 469.51 590.82 C 468.90 601.20 463.22 597.82 458.03 591.66 C 460.63 575.92 443.03 591.18 435.14 583.28 C 433.85 588.99 431.42 596.35 423.67 598.79 C 424.11 595.39 418.82 588.62 425.02 591.84 C 435.79 596.64 427.59 578.18 437.83 579.30 C 440.84 582.46 443.99 583.79 445.16 578.55 Z" />
<path fill="#000000" opacity="1.00" d=" M 444.59 587.49 C 480.04 614.36 482.52 679.69 445.13 707.87 C 409.51 678.38 411.01 618.20 444.59 587.49 M 445.16 593.48 C 435.34 604.66 427.41 618.84 427.41 634.05 C 427.14 650.77 447.14 663.08 457.95 649.02 C 471.09 631.39 458.42 606.68 445.16 593.48 M 440.95 692.39 C 439.92 701.39 451.08 701.39 450.05 692.39 C 446.84 694.08 444.15 694.08 440.95 692.39 Z" />
<path fill="#000000" opacity="1.00" d=" M 413.17 592.45 C 421.04 588.35 425.76 602.22 417.64 603.74 C 410.81 606.02 407.20 595.57 413.17 592.45 Z" />
<path fill="#000000" opacity="1.00" d=" M 472.32 592.37 C 480.01 588.73 484.70 601.75 476.56 603.77 C 469.54 606.27 466.07 595.28 472.32 592.37 Z" />
<path fill="#000000" opacity="1.00" d=" M 369.88 607.54 C 385.69 603.03 403.67 616.24 402.48 633.11 C 401.86 637.88 400.38 646.74 394.13 646.90 C 395.88 641.70 400.59 633.99 393.18 630.81 C 380.68 629.21 381.56 609.76 367.26 613.01 C 362.31 614.51 352.66 618.80 355.03 624.88 C 363.25 618.03 372.78 621.72 379.55 628.63 C 384.58 635.37 371.43 639.79 375.23 647.01 C 373.37 656.14 357.67 652.02 355.53 661.84 C 352.64 679.77 376.87 685.75 390.39 685.68 C 385.35 680.76 378.31 675.72 379.39 667.65 C 389.06 658.66 412.63 667.58 406.36 682.77 C 411.96 681.49 416.58 677.79 422.00 676.03 C 420.44 682.74 413.05 683.98 407.99 686.97 C 420.20 701.92 396.18 716.64 383.22 713.94 C 379.18 704.95 387.37 696.09 392.35 689.99 C 371.08 692.53 348.21 678.85 343.89 657.15 C 335.03 637.31 349.07 612.12 369.88 607.54 Z" />
<path fill="#000000" opacity="1.00" d=" M 508.78 607.44 C 534.78 601.83 558.03 633.46 547.07 656.99 C 543.00 678.84 519.93 692.52 498.65 689.99 C 503.63 696.09 511.82 704.95 507.78 713.94 C 494.81 716.64 470.80 701.92 483.01 686.97 C 477.94 683.98 470.56 682.74 469.00 676.03 C 474.42 677.79 479.04 681.49 484.64 682.77 C 478.41 667.61 501.78 658.42 511.61 667.66 C 512.69 675.74 505.62 680.72 500.64 685.70 C 514.08 685.61 536.27 680.48 535.85 663.31 C 535.00 650.85 511.17 656.74 516.41 642.25 C 508.15 636.76 508.79 625.75 518.75 623.77 C 523.77 616.72 531.19 623.64 536.45 624.33 C 535.93 615.12 520.02 608.97 512.92 615.94 C 508.90 622.98 504.28 629.52 495.94 631.95 C 488.65 635.76 500.36 646.12 494.57 646.75 C 481.36 634.39 491.57 609.91 508.78 607.44 Z" />
<path fill="#000000" opacity="1.00" d=" M 444.35 643.08 C 450.49 641.58 453.00 655.60 444.11 651.95 C 438.78 652.24 441.23 644.71 444.35 643.08 Z" />
<path fill="#000000" opacity="1.00" d=" M 420.96 720.59 C 424.17 719.53 431.69 719.00 430.79 724.44 C 431.83 731.39 423.38 732.37 418.34 732.65 C 406.37 732.74 399.88 744.35 395.85 754.09 C 389.93 753.88 392.74 747.40 393.54 743.65 C 397.84 731.48 408.73 723.41 420.96 720.59 Z" />
<path fill="#000000" opacity="1.00" d=" M 462.96 720.42 C 480.39 718.84 500.25 735.43 498.20 752.97 C 489.60 752.44 487.96 731.14 474.06 732.84 C 466.65 734.66 454.27 726.36 462.96 720.42 Z" />
<path fill="#000000" opacity="1.00" d=" M 437.47 725.46 C 444.82 729.86 458.47 720.40 459.94 732.70 C 453.34 736.42 449.71 744.30 445.16 749.33 C 443.67 740.40 421.50 731.31 437.47 725.46 Z" />
<path fill="#000000" opacity="1.00" d=" M 416.74 736.47 C 431.11 731.98 443.33 745.91 445.83 757.58 C 446.36 733.26 486.83 727.18 490.84 752.90 C 488.07 758.69 485.13 747.68 480.64 750.56 C 471.96 751.90 465.11 743.43 456.41 745.69 C 467.58 748.40 472.42 759.62 469.96 770.67 C 466.87 775.00 456.26 770.82 454.03 775.80 C 461.14 775.40 471.31 774.37 474.09 783.06 C 477.85 789.54 468.11 790.98 464.07 791.82 C 473.87 795.54 480.56 787.47 481.35 778.35 C 492.55 774.08 487.46 789.62 482.00 793.10 C 467.88 803.05 447.25 791.49 445.25 774.99 C 445.03 795.91 410.55 806.39 403.44 784.56 C 398.53 777.96 410.84 774.04 411.08 781.96 C 410.33 790.78 420.01 794.25 426.94 791.81 C 423.01 790.71 413.97 790.09 416.56 783.65 C 419.24 774.79 429.68 775.06 437.10 775.81 C 433.62 770.54 418.97 776.62 420.93 766.70 C 419.05 756.88 425.29 748.16 434.59 745.70 C 426.08 743.37 419.38 751.72 410.95 750.53 C 405.40 746.92 404.64 757.78 400.09 753.66 C 401.13 745.03 408.01 737.60 416.74 736.47 Z" />
<path fill="#000000" opacity="1.00" d=" M 394.46 756.17 C 395.97 768.03 396.46 785.98 408.37 795.71 C 409.96 805.59 396.97 800.34 396.37 793.59 C 392.50 782.65 383.71 764.77 394.46 756.17 Z" />
<path fill="#000000" opacity="1.00" d=" M 495.76 755.81 C 504.44 758.73 500.76 770.51 500.18 777.65 C 496.87 785.84 496.16 797.85 486.78 801.63 C 481.00 801.77 481.39 793.96 485.75 791.78 C 495.04 781.98 495.57 768.39 495.76 755.81 Z" />
<path fill="#000000" opacity="1.00" d=" M 400.24 759.22 C 407.62 759.54 406.12 773.73 401.99 777.38 C 396.74 773.47 396.97 764.50 400.24 759.22 Z" />
<path fill="#000000" opacity="1.00" d=" M 488.64 759.27 C 495.14 760.18 494.14 774.26 488.98 777.39 C 484.43 773.54 484.84 763.15 488.64 759.27 Z" />
<path fill="#000000" opacity="1.00" d=" M 445.15 783.20 C 450.99 796.50 466.06 802.09 479.48 798.62 C 490.12 814.12 465.28 821.64 454.57 813.62 C 443.52 811.98 457.56 794.29 443.54 798.14 C 435.74 798.63 445.46 809.37 439.13 812.31 C 430.56 816.78 416.80 820.11 410.05 810.73 C 408.73 806.98 407.95 796.84 414.60 798.63 C 426.57 802.15 441.39 795.35 445.15 783.20 Z" />
<path fill="#000000" opacity="1.00" d=" M 444.43 852.30 C 463.68 854.68 465.69 891.08 443.51 889.47 C 425.56 885.31 428.91 858.02 444.43 852.30 M 445.16 880.18 C 431.60 878.28 444.83 890.76 450.94 883.97 C 455.68 879.88 448.07 880.07 445.16 880.18 Z" />
</svg>
