<?xml version="1.0" encoding="utf-8"?>

<!DOCTYPE svg PUBLIC "-//W3C//DTD SVG 1.1//EN" "http://www.w3.org/Graphics/SVG/1.1/DTD/svg11.dtd">
<svg version="1.1" id="Layer_1" xmlns="http://www.w3.org/2000/svg" xmlns:xlink="http://www.w3.org/1999/xlink" x="0px" y="0px"
	 viewBox="0 0 1662.0978 1662.0978" enable-background="new 0 0 1662.0978 1662.0978" xml:space="preserve">
<g>
	<path d="M1622.3335,831.0489c-10.908-17.6053-27.772-42.7893-47.2222-64.7205c-34.1025-38.4957-73.8052-56.0237-101.1931-64.1493
		c-27.3884-8.1154-79.7939,4.895-84.9629,41.3928c-5.1434,36.478,16.9768,63.7418,48.5297,60.7153
		c31.5728-3.0417,35.4041-25.5294,35.4041-25.5294s-1.292,3.2004-8.0059,6.0925c-6.7241,2.8875-28.4419,0.1394-24.2078-25.4348
		c4.2345-25.5544,45.1-33.993,98.6241-7.0172c34.6659,17.4457,64.7413,54.6206,81.6309,78.6506
		c-16.8895,24.03-46.965,61.205-81.6309,78.6506c-53.5242,26.9758-94.3896,18.5372-98.6241-7.0172
		c-4.2341-25.5743,17.4836-28.3223,24.2078-25.4349c6.7139,2.8921,8.0059,6.0926,8.0059,6.0926s-3.8313-22.4878-35.4041-25.5295
		c-31.5529-3.0264-53.6731,24.2374-48.5297,60.7153c5.1689,36.4978,57.5745,49.5083,84.9629,41.3929
		c27.3879-8.1256,67.0906-25.6536,101.1931-64.1494C1594.5615,873.8382,1611.4255,848.6542,1622.3335,831.0489z"/>
	<path d="M831.0489,1622.3335c17.6053-10.908,42.7893-27.772,64.7205-47.2222c38.4957-34.1025,56.0237-73.8052,64.1494-101.1931
		c8.1154-27.3884-4.8951-79.7939-41.3929-84.9629c-36.4779-5.1434-63.7417,16.9768-60.7153,48.5297
		c3.0417,31.5728,25.5295,35.4041,25.5295,35.4041s-3.2005-1.292-6.0926-8.0059c-2.8875-6.7241-0.1394-28.4419,25.4349-24.2078
		c25.5543,4.2345,33.9929,45.1,7.0172,98.6241c-17.4457,34.6659-54.6206,64.7413-78.6506,81.6309
		c-24.03-16.8895-61.205-46.965-78.6506-81.6309c-26.9758-53.5242-18.5372-94.3896,7.0172-98.6241
		c25.5742-4.2341,28.3223,17.4836,25.4348,24.2078c-2.8921,6.7139-6.0925,8.0059-6.0925,8.0059s22.4877-3.8313,25.5294-35.4041
		c3.0265-31.5529-24.2373-53.6731-60.7153-48.5297c-36.4978,5.1689-49.5082,57.5745-41.3928,84.9629
		c8.1255,27.3879,25.6536,67.0906,64.1493,101.1931C788.2596,1594.5615,813.4435,1611.4255,831.0489,1622.3335z"/>
	<path d="M39.7644,831.0489c10.9079,17.6053,27.772,42.7893,47.2222,64.7205c34.1024,38.4957,73.8051,56.0237,101.1931,64.1494
		c27.3885,8.1154,79.794-4.8951,84.9629-41.3929c5.1434-36.4779-16.9769-63.7417-48.5297-60.7153
		c-31.5727,3.0417-35.4041,25.5295-35.4041,25.5295s1.2921-3.2005,8.0059-6.0926c6.7241-2.8875,28.4419-0.1394,24.2078,25.4349
		c-4.2345,25.5543-45.1001,33.9929-98.6242,7.0172c-34.666-17.4457-64.7413-54.6206-81.6309-78.6506
		c16.8896-24.03,46.9649-61.205,81.6309-78.6506c53.5241-26.9758,94.3896-18.5372,98.6242,7.0172
		c4.2341,25.5742-17.4837,28.3223-24.2078,25.4348c-6.7138-2.8921-8.0059-6.0925-8.0059-6.0925s3.8314,22.4877,35.4041,25.5294
		c31.5528,3.0265,53.673-24.2373,48.5297-60.7153c-5.1689-36.4978-57.5744-49.5082-84.9629-41.3928
		c-27.3879,8.1255-67.0906,25.6536-101.1931,64.1493C67.5363,788.2596,50.6723,813.4435,39.7644,831.0489z"/>
	<path d="M831.0489,39.7644c-17.6053,10.9079-42.7893,27.772-64.7205,47.2222c-38.4957,34.1024-56.0237,73.8051-64.1493,101.1931
		c-8.1154,27.3885,4.895,79.794,41.3928,84.9629c36.478,5.1434,63.7418-16.9769,60.7153-48.5297
		c-3.0417-31.5727-25.5294-35.4041-25.5294-35.4041s3.2004,1.2921,6.0925,8.0059c2.8875,6.7241,0.1394,28.4419-25.4348,24.2078
		c-25.5544-4.2345-33.993-45.1001-7.0172-98.6242c17.4457-34.666,54.6206-64.7413,78.6506-81.6309
		c24.03,16.8896,61.205,46.9649,78.6506,81.6309c26.9758,53.5241,18.5372,94.3896-7.0172,98.6242
		c-25.5743,4.2341-28.3223-17.4837-25.4349-24.2078c2.8921-6.7138,6.0926-8.0059,6.0926-8.0059s-22.4878,3.8314-25.5295,35.4041
		c-3.0264,31.5528,24.2374,53.673,60.7153,48.5297c36.4978-5.1689,49.5083-57.5744,41.3929-84.9629
		c-8.1256-27.3879-25.6536-67.0906-64.1494-101.1931C873.8382,67.5363,848.6542,50.6723,831.0489,39.7644z"/>
	<path d="M1631.049,831.0489c-2.7843-6.1258-14.0013-29.511-35.3588-58.5067c23.3427,38.0932,32.5129,53.8677,35.166,58.5067
		c-2.6531,4.639-11.8234,20.4135-35.166,58.5067C1617.0476,860.5599,1628.2646,837.1747,1631.049,831.0489z"/>
	<path d="M831.0489,1631.049c6.1258-2.7843,29.511-14.0013,58.5067-35.3588c-38.0933,23.3427-53.8677,32.5129-58.5067,35.166
		c-4.639-2.6531-20.4135-11.8234-58.5067-35.166C801.5379,1617.0476,824.9231,1628.2646,831.0489,1631.049z"/>
	<path d="M31.0489,831.0489c2.7843,6.1258,14.0013,29.511,35.3587,58.5067c-23.3427-38.0933-32.513-53.8677-35.1661-58.5067
		c2.6531-4.639,11.8234-20.4135,35.1661-58.5067C45.0502,801.5379,33.8332,824.9231,31.0489,831.0489z"/>
	<path d="M831.0489,31.0489c-6.1258,2.7843-29.511,14.0013-58.5067,35.3587c38.0932-23.3427,53.8677-32.513,58.5067-35.1661
		c4.639,2.6531,20.4135,11.8234,58.5067,35.1661C860.5599,45.0502,837.1747,33.8332,831.0489,31.0489z"/>
	<path d="M831.0489,1097.2216c8.6068,1.9785,17.8993-1.3975,22.4132-7.0061c7.6039-9.4176,3.459-22.2739-7.1862-21.8516
		c-10.6349,0.432-11.9571,10.1331-8.4187,14.3423c3.5287,4.2046,7.549,3.1461,7.549,3.1461s-4.4676,4.9897-12.7077,4.3337
		c-0.5422-0.0411-1.0941-0.1252-1.6496-0.2506c-0.5555,0.1254-1.1074,0.2095-1.6495,0.2506
		c-8.2401,0.656-12.7078-4.3337-12.7078-4.3337s4.0203,1.0585,7.549-3.1461c3.5384-4.2092,2.2162-13.9103-8.4187-14.3423
		c-10.6452-0.4224-14.7901,12.434-7.1862,21.8516C813.1497,1095.8241,822.4421,1099.2001,831.0489,1097.2216z M564.8762,831.0489
		c-1.9786,8.6068,1.3975,17.8993,7.0061,22.4132c9.4177,7.6039,22.274,3.459,21.8516-7.1862
		c-0.432-10.6349-10.1331-11.9571-14.3423-8.4187c-4.2045,3.5287-3.146,7.549-3.146,7.549s-4.9897-4.4676-4.3338-12.7077
		c0.0412-0.5422,0.1252-1.0941,0.2507-1.6496c-0.1254-0.5555-0.2095-1.1074-0.2507-1.6495
		c-0.6559-8.2401,4.3338-12.7078,4.3338-12.7078s-1.0585,4.0203,3.146,7.549c4.2092,3.5384,13.9103,2.2162,14.3423-8.4187
		c0.4224-10.6452-12.4339-14.7901-21.8516-7.1862C566.2737,813.1497,562.8976,822.4421,564.8762,831.0489z M831.0489,564.8762
		c-8.6068-1.9786-17.8992,1.3975-22.4132,7.0061c-7.6039,9.4177-3.459,22.274,7.1862,21.8516
		c10.6349-0.432,11.9571-10.1331,8.4187-14.3423c-3.5287-4.2045-7.549-3.146-7.549-3.146s4.4677-4.9897,12.7078-4.3338
		c0.5421,0.0412,1.0941,0.1252,1.6495,0.2507c0.5555-0.1254,1.1074-0.2095,1.6496-0.2507
		c8.2401-0.6559,12.7077,4.3338,12.7077,4.3338s-4.0203-1.0585-7.549,3.146c-3.5384,4.2092-2.2162,13.9103,8.4187,14.3423
		c10.6452,0.4224,14.7902-12.4339,7.1862-21.8516C848.9482,566.2737,839.6557,562.8976,831.0489,564.8762z M1097.2216,831.0489
		c1.9785-8.6068-1.3975-17.8992-7.0061-22.4132c-9.4176-7.6039-22.2739-3.459-21.8516,7.1862
		c0.432,10.6349,10.1331,11.9571,14.3423,8.4187c4.2046-3.5287,3.1461-7.549,3.1461-7.549s4.9897,4.4677,4.3337,12.7078
		c-0.0411,0.5421-0.1252,1.0941-0.2506,1.6495c0.1254,0.5555,0.2095,1.1074,0.2506,1.6496
		c0.656,8.2401-4.3337,12.7077-4.3337,12.7077s1.0585-4.0203-3.1461-7.549c-4.2092-3.5384-13.9103-2.2162-14.3423,8.4187
		c-0.4224,10.6452,12.434,14.7902,21.8516,7.1862C1095.8241,848.9482,1099.2001,839.6557,1097.2216,831.0489z M1168.2258,831.0489
		c7.2788-23.5265,31.7545-43.0696,72.6917-40.6221c31.6477,1.8922,54.8562,17.2158,69.0892,40.6221
		c-14.233,23.4063-37.4415,38.7299-69.0892,40.6221C1199.9803,874.1185,1175.5046,854.5754,1168.2258,831.0489z M831.0489,493.8719
		c-23.5265-7.2787-43.0696-31.7545-40.6221-72.6916c1.8922-31.6477,17.2158-54.8562,40.6221-69.0893
		c23.4063,14.2331,38.7299,37.4416,40.6221,69.0893C874.1185,462.1175,854.5754,486.5932,831.0489,493.8719z M493.8719,831.0489
		c-7.2787,23.5266-31.7545,43.0696-72.6916,40.6221c-31.6477-1.8922-54.8562-17.2158-69.0893-40.6221
		c14.2331-23.4063,37.4416-38.7299,69.0893-40.6221C462.1175,787.9792,486.5932,807.5224,493.8719,831.0489z M831.0489,1168.2258
		c23.5266,7.2788,43.0696,31.7545,40.6221,72.6917c-1.8922,31.6477-17.2158,54.8562-40.6221,69.0892
		c-23.4063-14.233-38.7299-37.4415-40.6221-69.0892C787.9792,1199.9803,807.5224,1175.5046,831.0489,1168.2258z M992.0056,831.0489
		c6.6168-49.3466,30.2291-93.2986,54.5458-121.8226c3.2881-3.8596,6.7367-7.5708,10.3221-11.1462
		c-0.3098,0.8297-0.6484,1.7411-1.0236,2.7574c-4.3785,11.8427-1.8584,3.2499-1.8584,3.2499s-6.744,21.9565-2.6093,43.2417
		c2.7136,13.9647,0.8596,31.5676-9.8848,39.7578c-9.431,7.2005-17.7287,2.1625-19.6118,0.8273
		c0.7633,0.4922,2.6412,1.3561,5.8156,0.7233c4.2992-0.8448,10.2578-9.8701,3.802-15.9281
		c-6.4855-6.0579-22.7065,2.8773-18.4874,14.9042c4.1745,12.0165,22.0403,15.3865,34.1716,0.6559
		c12.1062-14.7205,5.9043-41.3181,5.9043-41.3181s2.3043,9.806,6.8209,21.097c-1.568,2.1491-3.2128,5.4609-3.2128,5.4609
		s0.3328-1.5903-4.8107,11.0925c-5.1288,12.6528-2.1074,3.459-2.1074,3.459s-7.2008,21.0861-4.7754,42.9879
		c-2.4254,21.9018,4.7754,42.988,4.7754,42.988s-3.0214-9.1938,2.1074,3.459c5.1434,12.6828,4.8107,11.0925,4.8107,11.0925
		s1.6448,3.3118,3.2128,5.4609c-4.5166,11.291-6.8209,21.097-6.8209,21.097s6.2019-26.5976-5.9043-41.3181
		c-12.1312-14.7306-29.9971-11.3607-34.1716,0.6559c-4.2192,12.0269,12.0019,20.9621,18.4874,14.9042
		c6.4558-6.058,0.4972-15.0833-3.802-15.928c-3.1743-0.6328-5.0522,0.2311-5.8156,0.7233
		c1.8831-1.3352,10.1808-6.3732,19.6118,0.8273c10.7444,8.1903,12.5984,25.7932,9.8848,39.7578
		c-4.1348,21.2852,2.6093,43.2417,2.6093,43.2417s-2.5201-8.5927,1.8584,3.2499c0.3751,1.0162,0.7137,1.9278,1.0236,2.7574
		c-3.5854-3.5754-7.0341-7.2866-10.3221-11.1462C1022.2346,924.3475,998.6224,880.3955,992.0056,831.0489z M831.0489,670.0923
		c-49.3466-6.6168-93.2986-30.2291-121.8226-54.5458c-3.8596-3.2882-7.5708-6.7367-11.1462-10.3222
		c0.8297,0.3099,1.7411,0.6484,2.7574,1.0236c11.8427,4.3785,3.2499,1.8585,3.2499,1.8585s21.9565,6.744,43.2417,2.6092
		c13.9647-2.7136,31.5676-0.8596,39.7578,9.8848c7.2005,9.431,2.1625,17.7287,0.8273,19.6118
		c0.4922-0.7632,1.3561-2.6412,0.7233-5.8155c-0.8448-4.2993-9.8701-10.2579-15.9281-3.8021
		c-6.0579,6.4855,2.8773,22.7066,14.9042,18.4874c12.0165-4.1746,15.3865-22.0404,0.6559-34.1717
		c-14.7205-12.1061-41.3181-5.9043-41.3181-5.9043s9.806-2.3043,21.097-6.8209c2.1491,1.568,5.4609,3.2128,5.4609,3.2128
		s-1.5903-0.3328,11.0925,4.8107c12.6528,5.1287,3.459,2.1074,3.459,2.1074s21.0861,7.2009,42.9879,4.7754
		c21.9018,2.4255,42.988-4.7754,42.988-4.7754s-9.1938,3.0213,3.459-2.1074c12.6828-5.1435,11.0925-4.8107,11.0925-4.8107
		s3.3118-1.6448,5.4609-3.2128c11.291,4.5166,21.097,6.8209,21.097,6.8209s-26.5976-6.2018-41.3181,5.9043
		c-14.7306,12.1313-11.3607,29.9971,0.6559,34.1717c12.0269,4.2192,20.9621-12.002,14.9042-18.4874
		c-6.058-6.4558-15.0833-0.4972-15.928,3.8021c-0.6328,3.1743,0.2311,5.0522,0.7233,5.8155
		c-1.3352-1.8831-6.3732-10.1808,0.8273-19.6118c8.1903-10.7443,25.7932-12.5983,39.7578-9.8848
		c21.2852,4.1348,43.2417-2.6092,43.2417-2.6092s-8.5927,2.5201,3.2499-1.8585c1.0162-0.3751,1.9278-0.7137,2.7574-1.0236
		c-3.5754,3.5855-7.2866,7.034-11.1462,10.3222C924.3475,639.8632,880.3955,663.4755,831.0489,670.0923z M670.0923,831.0489
		c-6.6168,49.3466-30.2291,93.2986-54.5458,121.8226c-3.2882,3.8596-6.7367,7.5708-10.3222,11.1462
		c0.3099-0.8296,0.6484-1.7411,1.0236-2.7574c4.3785-11.8427,1.8585-3.2499,1.8585-3.2499s6.744-21.9565,2.6092-43.2417
		c-2.7136-13.9647-0.8596-31.5675,9.8848-39.7578c9.431-7.2005,17.7287-2.1625,19.6118-0.8273
		c-0.7632-0.4921-2.6412-1.3561-5.8155-0.7233c-4.2993,0.8447-10.2579,9.8701-3.8021,15.928
		c6.4855,6.0579,22.7066-2.8773,18.4874-14.9042c-4.1746-12.0166-22.0404-15.3865-34.1717-0.6559
		c-12.1061,14.7205-5.9043,41.3181-5.9043,41.3181s-2.3043-9.806-6.8209-21.097c1.568-2.1492,3.2128-5.4609,3.2128-5.4609
		s-0.3328,1.5903,4.8107-11.0925c5.1287-12.6528,2.1074-3.459,2.1074-3.459s7.2009-21.0862,4.7754-42.988
		c2.4255-21.9018-4.7754-42.9879-4.7754-42.9879s3.0213,9.1937-2.1074-3.459c-5.1435-12.6828-4.8107-11.0925-4.8107-11.0925
		s-1.6448-3.3118-3.2128-5.4609c4.5166-11.2911,6.8209-21.097,6.8209-21.097s-6.2018,26.5976,5.9043,41.3181
		c12.1313,14.7306,29.9971,11.3606,34.1717-0.6559c4.2192-12.0269-12.002-20.9622-18.4874-14.9042
		c-6.4558,6.058-0.4972,15.0833,3.8021,15.9281c3.1743,0.6328,5.0522-0.2311,5.8155-0.7233
		c-1.8831,1.3353-10.1808,6.3732-19.6118-0.8273c-10.7443-8.1902-12.5983-25.7931-9.8848-39.7578
		c4.1348-21.2852-2.6092-43.2417-2.6092-43.2417s2.5201,8.5928-1.8585-3.2499c-0.3751-1.0163-0.7137-1.9278-1.0236-2.7574
		c3.5855,3.5754,7.034,7.2866,10.3222,11.1462C639.8632,737.7503,663.4755,781.7023,670.0923,831.0489z M831.0489,992.0056
		c49.3466,6.6168,93.2986,30.2291,121.8226,54.5458c3.8596,3.2881,7.5708,6.7367,11.1462,10.3221
		c-0.8296-0.3098-1.7411-0.6484-2.7574-1.0236c-11.8427-4.3785-3.2499-1.8584-3.2499-1.8584s-21.9565-6.744-43.2417-2.6093
		c-13.9647,2.7136-31.5675,0.8596-39.7578-9.8848c-7.2005-9.431-2.1625-17.7287-0.8273-19.6118
		c-0.4921,0.7633-1.3561,2.6412-0.7233,5.8156c0.8447,4.2992,9.8701,10.2578,15.928,3.802
		c6.0579-6.4855-2.8773-22.7065-14.9042-18.4874c-12.0166,4.1745-15.3865,22.0403-0.6559,34.1716
		c14.7205,12.1062,41.3181,5.9043,41.3181,5.9043s-9.806,2.3043-21.097,6.8209c-2.1492-1.568-5.4609-3.2128-5.4609-3.2128
		s1.5903,0.3328-11.0925-4.8107c-12.6528-5.1288-3.459-2.1074-3.459-2.1074s-21.0862-7.2008-42.988-4.7754
		c-21.9018-2.4254-42.9879,4.7754-42.9879,4.7754s9.1937-3.0214-3.459,2.1074c-12.6828,5.1434-11.0925,4.8107-11.0925,4.8107
		s-3.3118,1.6448-5.4609,3.2128c-11.2911-4.5166-21.097-6.8209-21.097-6.8209s26.5976,6.2019,41.3181-5.9043
		c14.7306-12.1312,11.3606-29.9971-0.6559-34.1716c-12.0269-4.2192-20.9622,12.0019-14.9042,18.4874
		c6.058,6.4558,15.0833,0.4972,15.9281-3.802c0.6328-3.1743-0.2311-5.0522-0.7233-5.8156
		c1.3353,1.8831,6.3732,10.1808-0.8273,19.6118c-8.1902,10.7444-25.7931,12.5984-39.7578,9.8848
		c-21.2852-4.1348-43.2417,2.6093-43.2417,2.6093s8.5928-2.5201-3.2499,1.8584c-1.0163,0.3751-1.9278,0.7137-2.7574,1.0236
		c3.5754-3.5854,7.2866-7.0341,11.1462-10.3221C737.7503,1022.2346,781.7023,998.6224,831.0489,992.0056z M1056.0332,831.0489
		c-6.9767-10.8596-5.5559-26.6569-2.0172-38.5549c4.5027-15.1281,8.0859-17.8711,8.0859-17.8711s0.1593-0.0662,0.3174-0.7038
		c0.7262,1.5925,1.4917,3.186,2.3013,4.7593c9.4874,18.5071,26.5835,26.6175,41.0902,26.2994
		c14.4664-0.3278,29.6592-11.0325,30.941-29.3111c1.0438-15.0634-14.3326-25.8527-23.2333-19.6309
		c-8.9154,6.2224-2.0223,16.2213,4.9501,15.6049c6.9377-0.6259,8.4084-8.329,8.4084-8.329s0,0,0.4922,1.6798
		c0.4921,1.6697,2.7633,13.9449-6.5104,23.5168c-9.83,10.1582-29.391,13.0106-46.4025-3.1705
		c-5.0719-4.8278-8.9073-11.0583-11.7551-17.1149c-0.0013-0.0472-0.0015-0.0874-0.0031-0.1353
		c-0.0477-1.4255-0.3887-1.9092-0.8838-1.8179c-4.5962-10.4611-6.2627-19.8749-6.2627-19.8749s16.0421,18.6364,32.4027,10.1479
		c16.3851-8.5078,12.8915-27.8699,3.9756-34.6088c-8.9454-6.7393-20.6588-2.5444-19.9733,7.2656
		c0.7108,9.8101,9.701,10.7444,13.4783,7.3653c3.7866-3.3994,2.6981-7.062,2.6981-7.062s4.7063,3.9703,4.3535,11.6039
		c-0.3481,7.6335-9.7805,17.6726-24.158,9.2936c-14.3972-8.3688-14.0293-28.2281-10.3022-42.3318
		c3.7424-14.0945,6.9679-16.7332,6.9679-16.7332s0.2274-0.0946,0.3575-1.2211c35.2451-31.2231,81.8311-50.5214,128.8848-60.2845
		c55.989-11.6238,90.9907-10.1979,125.7637-4.4727c22.4272,3.6851,71.4329,9.1639,123.2007,28.5682
		c-0.5266,0.0067-1.1733,0.0201-1.9211,0.0431c0.7567-0.0196,1.4053-0.0312,1.9348-0.0379
		c28.517,10.6903,57.871,25.6032,84.0829,46.7778c29.3741,23.7195,51.9036,49.4477,68.3926,71.8339
		c-0.2426-0.3958-0.4739-0.7741-0.7196-1.1747c-29.4607-48.0671-88.2324-92.8045-148.4358-125.6743
		c-17.4327-9.5133-39.689-17.7813-64.3384-24.3442c0.9574,0.2131,1.4912,0.3308,1.4912,0.3308s-20.391-5.2931-29.5797-12.4493
		c-9.1989-7.1612-11.2518-10.2227-11.2518-10.2227s-18.328,5.1486-45.5623-4.6519c-27.2439-9.7703-54.4182-38.1125-53.6879-71.6036
		c0.7405-33.506,31.2495-37.8392,44.3099-29.7686c13.0455,8.0707,15.0288,24.133,15.0288,24.133s-4.9796-5.9836-14.467-3.5088
		c-9.4624,2.4702-17.0806,18.5372-1.486,30.8276c15.605,12.3098,34.4999-2.5297,32.4078-25.0424
		c-2.1273-22.5331-30.7428-50.3139-61.5552-32.6312c-30.8071,17.6822-16.132,65.5452-16.132,65.5452
		s-37.3075-35.9257-45.4927-75.7034c-0.6499-3.1586-1.1432-6.238-1.4895-9.2361c-2.998-0.3463-6.0775-0.8396-9.2361-1.4896
		c-39.7777-8.1852-75.7034-45.4926-75.7034-45.4926s47.863,14.6752,65.5452-16.132c17.6827-30.8123-10.098-59.4279-32.6311-61.5551
		c-22.5127-2.0921-37.3522,16.8029-25.0425,32.4078c12.2904,15.5946,28.3574,7.9764,30.8276-1.486
		c2.4747-9.4873-3.5089-14.467-3.5089-14.467s16.0624,1.9832,24.1331,15.0288c8.0707,13.0604,3.7373,43.5695-29.7686,44.3099
		c-33.4912,0.7303-61.8334-26.4439-71.6038-53.6878c-9.8004-27.2343-4.6519-45.5623-4.6519-45.5623s-3.0615-2.0529-10.2227-11.2518
		c-7.1563-9.1887-12.4493-29.5797-12.4493-29.5797s0.1177,0.5338,0.3308,1.4912c-6.5629-24.6494-14.8308-46.9056-24.3442-64.3383
		C983.5348,155.3597,938.7974,96.588,890.7303,67.1272c-0.4006-0.2457-0.7789-0.4771-1.1747-0.7196
		c22.3862,16.4891,48.1144,39.0185,71.8339,68.3925c21.1746,26.212,36.0875,55.566,46.7778,84.0829
		c-0.0068,0.5294-0.0183,1.1781-0.038,1.9348c0.0231-0.7478,0.0364-1.3946,0.0431-1.9212
		c19.4044,51.7678,24.8832,100.7735,28.5683,123.2007c5.7251,34.773,7.151,69.7746-4.4728,125.7637
		c-9.7631,47.0537-29.0613,93.6396-60.2845,128.8847c-1.1264,0.1301-1.2211,0.3576-1.2211,0.3576s-2.6387,3.2254-16.7331,6.9679
		c-14.1037,3.7271-33.963,4.095-42.3318-10.3022c-8.379-14.3776,1.6601-23.8099,9.2936-24.158
		c7.6335-0.3528,11.6038,4.3536,11.6038,4.3536s-3.6625-1.0885-7.062,2.6981c-3.3791,3.7772-2.4448,12.7674,7.3653,13.4783
		c9.8101,0.6855,14.0049-11.0279,7.2656-19.9733c-6.7389-8.9158-26.101-12.4095-34.6088,3.9756
		c-8.4885,16.3605,10.1479,32.4026,10.1479,32.4026s-9.4139-1.6664-19.8749-6.2627c0.0914-0.4951-0.3924-0.8361-1.8179-0.8837
		c-0.0479-0.0016-0.0881-0.0018-0.1353-0.0032c-6.0566-2.8477-12.287-6.6831-17.1149-11.7551
		c-16.181-17.0115-13.3286-36.5726-3.1705-46.4024c9.5719-9.2738,21.847-7.0026,23.5168-6.5104
		c1.6799,0.4922,1.6799,0.4922,1.6799,0.4922s-7.7032,1.4706-8.3291,8.4084c-0.6163,6.9724,9.3825,13.8654,15.6049,4.95
		c6.2218-8.9006-4.5674-24.277-19.6308-23.2333c-18.2787,1.2819-28.9833,16.4746-29.3112,30.941
		c-0.318,14.5067,7.7923,31.6027,26.2994,41.0902c1.5733,0.8096,3.1669,1.5751,4.7593,2.3013
		c-0.6376,0.158-0.7039,0.3174-0.7039,0.3174s-2.743,3.5832-17.8711,8.0859c-11.898,3.5386-27.6954,4.9594-38.5549-2.0173
		c-10.8596,6.9767-26.6569,5.5559-38.5549,2.0173c-15.1281-4.5027-17.8711-8.0859-17.8711-8.0859s-0.0662-0.1594-0.7038-0.3174
		c1.5925-0.7262,3.186-1.4917,4.7593-2.3013c18.5071-9.4875,26.6175-26.5835,26.2994-41.0902
		c-0.3278-14.4664-11.0325-29.6592-29.3111-30.941c-15.0634-1.0438-25.8527,14.3326-19.6309,23.2333
		c6.2224,8.9154,16.2213,2.0224,15.6049-4.95c-0.6259-6.9378-8.329-8.4084-8.329-8.4084s0,0,1.6798-0.4922
		c1.6697-0.4922,13.9449-2.7634,23.5168,6.5104c10.1582,9.8298,13.0106,29.3909-3.1705,46.4024
		c-4.8278,5.072-11.0583,8.9073-17.1149,11.7551c-0.0472,0.0013-0.0874,0.0016-0.1353,0.0032
		c-1.4255,0.0477-1.9092,0.3887-1.8179,0.8837c-10.4611,4.5963-19.8749,6.2627-19.8749,6.2627s18.6364-16.0422,10.1479-32.4026
		c-8.5078-16.3851-27.8699-12.8915-34.6088-3.9756c-6.7393,8.9454-2.5444,20.6589,7.2656,19.9733
		c9.8101-0.7109,10.7444-9.7011,7.3653-13.4783c-3.3994-3.7866-7.062-2.6981-7.062-2.6981s3.9703-4.7064,11.6039-4.3536
		c7.6335,0.3481,17.6726,9.7805,9.2936,24.158c-8.3688,14.3972-28.2281,14.0292-42.3318,10.3022
		c-14.0945-3.7425-16.7332-6.9679-16.7332-6.9679s-0.0946-0.2275-1.2211-0.3576c-31.2231-35.2451-50.5214-81.8309-60.2845-128.8847
		c-11.6238-55.9891-10.1979-90.9907-4.4727-125.7637c3.6851-22.4272,9.1639-71.4329,28.5682-123.2007
		c0.0067,0.5266,0.0201,1.1734,0.0431,1.9212c-0.0196-0.7568-0.0312-1.4054-0.0379-1.9348
		c10.6903-28.5169,25.6032-57.871,46.7778-84.0829c23.7195-29.3741,49.4477-51.9035,71.8339-68.3925
		c-0.3958,0.2426-0.7741,0.4739-1.1747,0.7196C723.3004,96.588,678.563,155.3597,645.6932,215.563
		c-9.5133,17.4327-17.7813,39.6889-24.3442,64.3383c0.2131-0.9573,0.3308-1.4912,0.3308-1.4912s-5.2931,20.391-12.4493,29.5797
		c-7.1612,9.1989-10.2227,11.2518-10.2227,11.2518s5.1486,18.328-4.6519,45.5623c-9.7703,27.2439-38.1125,54.4182-71.6036,53.6878
		c-33.506-0.7404-37.8392-31.2495-29.7686-44.3099c8.0707-13.0456,24.133-15.0288,24.133-15.0288s-5.9836,4.9797-3.5088,14.467
		c2.4702,9.4625,18.5372,17.0807,30.8276,1.486c12.3098-15.6049-2.5297-34.4999-25.0424-32.4078
		c-22.5331,2.1272-50.3139,30.7427-32.6312,61.5551c17.6822,30.8072,65.5452,16.132,65.5452,16.132
		s-35.9257,37.3074-75.7034,45.4926c-3.1586,0.65-6.238,1.1432-9.2361,1.4896c-0.3463,2.9981-0.8396,6.0775-1.4896,9.2361
		c-8.1852,39.7776-45.4926,75.7034-45.4926,75.7034s14.6752-47.863-16.132-65.5452
		c-30.8123-17.6827-59.4279,10.0981-61.5551,32.6312c-2.0921,22.5127,16.8029,37.3522,32.4078,25.0424
		c15.5946-12.2904,7.9764-28.3574-1.486-30.8276c-9.4873-2.4748-14.467,3.5088-14.467,3.5088s1.9832-16.0623,15.0288-24.133
		c13.0604-8.0706,43.5695-3.7373,44.3099,29.7686c0.7303,33.4911-26.4439,61.8333-53.6878,71.6036
		c-27.2343,9.8005-45.5623,4.6519-45.5623,4.6519s-2.0529,3.0615-11.2518,10.2227c-9.1887,7.1562-29.5797,12.4493-29.5797,12.4493
		s0.5338-0.1177,1.4912-0.3308c-24.6494,6.5629-46.9056,14.8309-64.3383,24.3442C155.3597,678.563,96.588,723.3004,67.1272,771.3675
		c-0.2457,0.4006-0.4771,0.779-0.7196,1.1747c16.4891-22.3862,39.0185-48.1144,68.3925-71.8339
		c26.212-21.1746,55.566-36.0875,84.0829-46.7778c0.5294,0.0067,1.1781,0.0183,1.9348,0.0379
		c-0.7478-0.023-1.3946-0.0364-1.9212-0.0431c51.7678-19.4043,100.7735-24.8832,123.2007-28.5682
		c34.773-5.7252,69.7746-7.1511,125.7637,4.4727c47.0537,9.7631,93.6396,29.0614,128.8847,60.2845
		c0.1301,1.1265,0.3576,1.2211,0.3576,1.2211s3.2254,2.6387,6.9679,16.7332c3.7271,14.1036,4.095,33.963-10.3022,42.3318
		c-14.3776,8.379-23.8099-1.6601-24.158-9.2936c-0.3528-7.6335,4.3536-11.6039,4.3536-11.6039s-1.0885,3.6626,2.6981,7.062
		c3.7772,3.3791,12.7674,2.4448,13.4783-7.3653c0.6855-9.8101-11.0279-14.0049-19.9733-7.2656
		c-8.9158,6.7389-12.4095,26.101,3.9756,34.6088c16.3605,8.4885,32.4026-10.1479,32.4026-10.1479s-1.6664,9.4139-6.2627,19.8749
		c-0.4951-0.0913-0.8361,0.3925-0.8837,1.8179c-0.0016,0.0479-0.0018,0.0881-0.0032,0.1353
		c-2.8477,6.0566-6.6831,12.287-11.7551,17.1149c-17.0115,16.181-36.5726,13.3287-46.4024,3.1705
		c-9.2738-9.5719-7.0026-21.847-6.5104-23.5168c0.4922-1.6798,0.4922-1.6798,0.4922-1.6798s1.4706,7.7031,8.4084,8.329
		c6.9724,0.6164,13.8654-9.3825,4.95-15.6049c-8.9006-6.2218-24.277,4.5674-23.2333,19.6309
		c1.2819,18.2786,16.4746,28.9833,30.941,29.3111c14.5067,0.3181,31.6027-7.7923,41.0902-26.2994
		c0.8096-1.5732,1.5751-3.1668,2.3013-4.7593c0.158,0.6376,0.3174,0.7038,0.3174,0.7038s3.5832,2.743,8.0859,17.8711
		c3.5386,11.898,4.9594,27.6954-2.0173,38.5549c6.9767,10.8596,5.5559,26.6569,2.0173,38.5549
		c-4.5027,15.1281-8.0859,17.8711-8.0859,17.8711s-0.1594,0.0663-0.3174,0.7039c-0.7262-1.5925-1.4917-3.186-2.3013-4.7593
		c-9.4875-18.5071-26.5835-26.6174-41.0902-26.2994c-14.4664,0.3278-29.6592,11.0325-30.941,29.3112
		c-1.0438,15.0634,14.3326,25.8526,23.2333,19.6308c8.9154-6.2224,2.0224-16.2212-4.95-15.6049
		c-6.9378,0.6259-8.4084,8.3291-8.4084,8.3291s0,0-0.4922-1.6799c-0.4922-1.6697-2.7634-13.9449,6.5104-23.5168
		c9.8298-10.1581,29.3909-13.0106,46.4024,3.1705c5.072,4.8279,8.9073,11.0583,11.7551,17.1149
		c0.0013,0.0472,0.0016,0.0874,0.0032,0.1353c0.0477,1.4255,0.3887,1.9093,0.8837,1.8179
		c4.5963,10.4611,6.2627,19.8749,6.2627,19.8749s-16.0422-18.6364-32.4026-10.1479c-16.3851,8.5078-12.8915,27.8699-3.9756,34.6088
		c8.9454,6.7394,20.6589,2.5445,19.9733-7.2656c-0.7109-9.8101-9.7011-10.7444-13.4783-7.3653
		c-3.7866,3.3994-2.6981,7.062-2.6981,7.062s-4.7064-3.9703-4.3536-11.6038c0.3481-7.6335,9.7805-17.6726,24.158-9.2936
		c14.3972,8.3688,14.0292,28.2281,10.3022,42.3318c-3.7425,14.0944-6.9679,16.7331-6.9679,16.7331s-0.2275,0.0947-0.3576,1.2211
		c-35.2451,31.2231-81.8309,50.5214-128.8847,60.2845c-55.9891,11.6238-90.9907,10.1979-125.7637,4.4728
		c-22.4272-3.6851-71.4329-9.1639-123.2007-28.5683c0.5266-0.0067,1.1734-0.02,1.9212-0.0431
		c-0.7568,0.0197-1.4054,0.0312-1.9348,0.038c-28.5169-10.6904-57.871-25.6033-84.0829-46.7778
		c-29.3741-23.7195-51.9035-49.4477-68.3925-71.8339c0.2426,0.3958,0.4739,0.774,0.7196,1.1747
		c29.4607,48.0671,88.2325,92.8045,148.4358,125.6743c17.4327,9.5134,39.6889,17.7813,64.3383,24.3442
		c-0.9573-0.2131-1.4912-0.3308-1.4912-0.3308s20.391,5.2931,29.5797,12.4493c9.1989,7.1611,11.2518,10.2227,11.2518,10.2227
		s18.328-5.1486,45.5623,4.6519c27.2439,9.7704,54.4182,38.1125,53.6878,71.6038c-0.7404,33.5059-31.2495,37.8392-44.3099,29.7686
		c-13.0456-8.0707-15.0288-24.1331-15.0288-24.1331s4.9797,5.9836,14.467,3.5089c9.4625-2.4702,17.0807-18.5372,1.486-30.8276
		c-15.6049-12.3097-34.4999,2.5298-32.4078,25.0425c2.1272,22.5331,30.7427,50.3138,61.5551,32.6311
		c30.8072-17.6821,16.132-65.5452,16.132-65.5452s37.3074,35.9257,45.4926,75.7034c0.65,3.1586,1.1432,6.238,1.4896,9.2361
		c2.9981,0.3463,6.0775,0.8396,9.2361,1.4895c39.7776,8.1852,75.7034,45.4927,75.7034,45.4927s-47.863-14.6752-65.5452,16.132
		c-17.6827,30.8124,10.0981,59.4279,32.6312,61.5552c22.5127,2.092,37.3522-16.8029,25.0424-32.4078
		c-12.2904-15.5946-28.3574-7.9764-30.8276,1.486c-2.4748,9.4874,3.5088,14.467,3.5088,14.467s-16.0623-1.9833-24.133-15.0288
		c-8.0706-13.0604-3.7373-43.5695,29.7686-44.3099c33.4911-0.7303,61.8333,26.444,71.6036,53.6879
		c9.8005,27.2343,4.6519,45.5623,4.6519,45.5623s3.0615,2.053,10.2227,11.2518c7.1562,9.1887,12.4493,29.5797,12.4493,29.5797
		s-0.1177-0.5338-0.3308-1.4912c6.5629,24.6494,14.8309,46.9056,24.3442,64.3384
		c32.8698,60.2034,77.6072,118.9751,125.6743,148.4358c0.4006,0.2457,0.779,0.4771,1.1747,0.7196
		c-22.3862-16.489-48.1144-39.0184-71.8339-68.3926c-21.1746-26.2119-36.0875-55.5659-46.7778-84.0829
		c0.0067-0.5295,0.0183-1.1781,0.0379-1.9348c-0.023,0.7478-0.0364,1.3945-0.0431,1.9211
		c-19.4043-51.7678-24.8832-100.7734-28.5682-123.2007c-5.7252-34.7729-7.1511-69.7747,4.4727-125.7637
		c9.7631-47.0537,29.0614-93.6396,60.2845-128.8848c1.1265-0.1301,1.2211-0.3575,1.2211-0.3575s2.6387-3.2255,16.7332-6.9679
		c14.1036-3.7271,33.963-4.095,42.3318,10.3022c8.379,14.3774-1.6601,23.8098-9.2936,24.158
		c-7.6335,0.3528-11.6039-4.3535-11.6039-4.3535s3.6626,1.0885,7.062-2.6981c3.3791-3.7772,2.4448-12.7675-7.3653-13.4783
		c-9.8101-0.6855-14.0049,11.0278-7.2656,19.9733c6.7389,8.9159,26.101,12.4095,34.6088-3.9756
		c8.4885-16.3606-10.1479-32.4027-10.1479-32.4027s9.4139,1.6665,19.8749,6.2627c-0.0913,0.4951,0.3925,0.8361,1.8179,0.8838
		c0.0479,0.0016,0.0881,0.0017,0.1353,0.0031c6.0566,2.8478,12.287,6.6832,17.1149,11.7551
		c16.181,17.0115,13.3287,36.5725,3.1705,46.4025c-9.5719,9.2737-21.847,7.0024-23.5168,6.5104
		c-1.6798-0.4922-1.6798-0.4922-1.6798-0.4922s7.7031-1.4707,8.329-8.4084c0.6164-6.9724-9.3825-13.8655-15.6049-4.9501
		c-6.2218,8.9006,4.5674,24.2771,19.6309,23.2333c18.2786-1.2819,28.9833-16.4746,29.3111-30.941
		c0.3181-14.5067-7.7923-31.6028-26.2994-41.0902c-1.5732-0.8096-3.1668-1.5751-4.7593-2.3013
		c0.6376-0.1581,0.7038-0.3174,0.7038-0.3174s2.743-3.5833,17.8711-8.0859c11.898-3.5387,27.6954-4.9595,38.5549,2.0172
		c10.8596-6.9767,26.6569-5.5559,38.5549-2.0172c15.1281,4.5027,17.8711,8.0859,17.8711,8.0859s0.0663,0.1593,0.7039,0.3174
		c-1.5925,0.7262-3.186,1.4917-4.7593,2.3013c-18.5071,9.4874-26.6174,26.5835-26.2994,41.0902
		c0.3278,14.4664,11.0325,29.6592,29.3112,30.941c15.0634,1.0438,25.8526-14.3326,19.6308-23.2333
		c-6.2224-8.9154-16.2212-2.0223-15.6049,4.9501c0.6259,6.9377,8.3291,8.4084,8.3291,8.4084s0,0-1.6799,0.4922
		c-1.6697,0.4921-13.9449,2.7633-23.5168-6.5104c-10.1581-9.83-13.0106-29.391,3.1705-46.4025
		c4.8279-5.0719,11.0583-8.9073,17.1149-11.7551c0.0472-0.0013,0.0874-0.0015,0.1353-0.0031
		c1.4255-0.0477,1.9093-0.3887,1.8179-0.8838c10.4611-4.5962,19.8749-6.2627,19.8749-6.2627s-18.6364,16.0421-10.1479,32.4027
		c8.5078,16.3851,27.8699,12.8915,34.6088,3.9756c6.7394-8.9454,2.5445-20.6588-7.2656-19.9733
		c-9.8101,0.7108-10.7444,9.701-7.3653,13.4783c3.3994,3.7866,7.062,2.6981,7.062,2.6981s-3.9703,4.7063-11.6038,4.3535
		c-7.6335-0.3481-17.6726-9.7805-9.2936-24.158c8.3688-14.3972,28.2281-14.0293,42.3318-10.3022
		c14.0944,3.7424,16.7331,6.9679,16.7331,6.9679s0.0947,0.2274,1.2211,0.3575c31.2231,35.2451,50.5214,81.8311,60.2845,128.8848
		c11.6238,55.989,10.1979,90.9907,4.4728,125.7637c-3.6851,22.4272-9.1639,71.4329-28.5683,123.2007
		c-0.0067-0.5266-0.02-1.1733-0.0431-1.9211c0.0197,0.7567,0.0312,1.4053,0.038,1.9348
		c-10.6904,28.517-25.6033,57.871-46.7778,84.0829c-23.7195,29.3741-49.4477,51.9036-71.8339,68.3926
		c0.3958-0.2426,0.774-0.4739,1.1747-0.7196c48.0671-29.4607,92.8045-88.2324,125.6743-148.4358
		c9.5134-17.4327,17.7813-39.689,24.3442-64.3384c-0.2131,0.9574-0.3308,1.4912-0.3308,1.4912s5.2931-20.391,12.4493-29.5797
		c7.1611-9.1989,10.2227-11.2518,10.2227-11.2518s-5.1486-18.328,4.6519-45.5623c9.7704-27.2439,38.1125-54.4182,71.6038-53.6879
		c33.5059,0.7405,37.8392,31.2495,29.7686,44.3099c-8.0707,13.0455-24.1331,15.0288-24.1331,15.0288s5.9836-4.9796,3.5089-14.467
		c-2.4702-9.4624-18.5372-17.0806-30.8276-1.486c-12.3097,15.605,2.5298,34.4999,25.0425,32.4078
		c22.5331-2.1273,50.3138-30.7428,32.6311-61.5552c-17.6821-30.8071-65.5452-16.132-65.5452-16.132s35.9257-37.3075,75.7034-45.4927
		c3.1586-0.6499,6.238-1.1432,9.2361-1.4895c0.3463-2.998,0.8396-6.0775,1.4895-9.2361
		c8.1852-39.7777,45.4927-75.7034,45.4927-75.7034s-14.6752,47.863,16.132,65.5452c30.8124,17.6827,59.4279-10.098,61.5552-32.6311
		c2.092-22.5127-16.8029-37.3522-32.4078-25.0425c-15.5946,12.2904-7.9764,28.3574,1.486,30.8276
		c9.4874,2.4747,14.467-3.5089,14.467-3.5089s-1.9833,16.0624-15.0288,24.1331c-13.0604,8.0707-43.5695,3.7373-44.3099-29.7686
		c-0.7303-33.4912,26.444-61.8334,53.6879-71.6038c27.2343-9.8004,45.5623-4.6519,45.5623-4.6519s2.053-3.0615,11.2518-10.2227
		c9.1887-7.1563,29.5797-12.4493,29.5797-12.4493s-0.5338,0.1177-1.4912,0.3308c24.6494-6.5629,46.9056-14.8308,64.3384-24.3442
		c60.2034-32.8698,118.9751-77.6072,148.4358-125.6743c0.2457-0.4006,0.4771-0.7789,0.7196-1.1747
		c-16.489,22.3862-39.0184,48.1144-68.3926,71.8339c-26.2119,21.1746-55.5659,36.0875-84.0829,46.7778
		c-0.5295-0.0068-1.1781-0.0183-1.9348-0.038c0.7478,0.0231,1.3945,0.0364,1.9211,0.0431
		c-51.7678,19.4044-100.7734,24.8832-123.2007,28.5683c-34.7729,5.7251-69.7747,7.151-125.7637-4.4728
		c-47.0537-9.7631-93.6396-29.0613-128.8848-60.2845c-0.1301-1.1264-0.3575-1.2211-0.3575-1.2211s-3.2255-2.6387-6.9679-16.7331
		c-3.7271-14.1037-4.095-33.963,10.3022-42.3318c14.3774-8.379,23.8098,1.6601,24.158,9.2936
		c0.3528,7.6335-4.3535,11.6038-4.3535,11.6038s1.0885-3.6625-2.6981-7.062c-3.7772-3.3791-12.7675-2.4448-13.4783,7.3653
		c-0.6855,9.8101,11.0278,14.0049,19.9733,7.2656c8.9159-6.7389,12.4095-26.101-3.9756-34.6088
		c-16.3606-8.4885-32.4027,10.1479-32.4027,10.1479s1.6665-9.4139,6.2627-19.8749c0.4951,0.0914,0.8361-0.3924,0.8838-1.8179
		c0.0016-0.0479,0.0017-0.0881,0.0031-0.1353c2.8478-6.0566,6.6832-12.287,11.7551-17.1149
		c17.0115-16.181,36.5725-13.3286,46.4025-3.1705c9.2737,9.5719,7.0024,21.847,6.5104,23.5168
		c-0.4922,1.6799-0.4922,1.6799-0.4922,1.6799s-1.4707-7.7032-8.4084-8.3291c-6.9724-0.6163-13.8655,9.3825-4.9501,15.6049
		c8.9006,6.2218,24.2771-4.5674,23.2333-19.6308c-1.2819-18.2787-16.4746-28.9833-30.941-29.3112
		c-14.5067-0.318-31.6028,7.7923-41.0902,26.2994c-0.8096,1.5733-1.5751,3.1669-2.3013,4.7593
		c-0.1581-0.6376-0.3174-0.7039-0.3174-0.7039s-3.5833-2.743-8.0859-17.8711
		C1050.4773,857.7058,1049.0565,841.9084,1056.0332,831.0489z M1186.7214,475.3763c2.3705,8.2681,5.8666,16.6658,10.6465,25.022
		c17.0313,29.7488,40.886,55.4028,40.886,55.4028s-37.8993-40.5333-74.7152-37.0346
		c-36.8203,3.5185-49.4039,37.1537-33.6748,57.7779c15.6996,20.6048,47.0834,3.7073,43.5898-13.955
		c-3.4988-17.6522-24.5554-17.9402-30.3553-11.7581c-4.248,4.5659-4.7354,8.6667-4.6965,10.5241
		c-0.2987-4.7456-0.151-24.2068,21.34-31.7646c24.5657-8.6228,55.7108,8.2498,76.1411,28.5956
		c31.2001,31.0607,74.5308,44.688,74.5308,44.688s-0.9388,0.8345,23.2288,6.9775c6.395,1.6221,12.9102,3.2135,19.0387,4.6786
		c-10.4291-2.0632-21.0894-3.8257-31.8311-5.2576c4.7139,0.4323,7.3508,0.7281,7.3508,0.7281s-4.1877-1.5687-11.8689-3.5897
		c-21.0443-7.7015-91.6669-28.9581-177.2739-4.8443c-6.6248,1.8654-12.9357,3.728-18.9713,5.5826
		c-2.6667,0.2973-6.5682,0.4458-12.1891,0.1176c-12.6849-0.7558-29.0056-5.3781-35.3711-17.696
		c-12.318-6.3655-16.9402-22.6863-17.696-35.3712c-0.3281-5.6208-0.1797-9.5223,0.1177-12.189
		c1.8545-6.0356,3.7172-12.3466,5.5825-18.9714c24.1138-85.607,2.8573-156.2296-4.8442-177.2739
		c-2.021-7.6812-3.5897-11.8689-3.5897-11.8689s0.2958,2.637,0.728,7.3508c-1.4319-10.7416-3.1945-21.402-5.2576-31.8311
		c1.4651,6.1286,3.0565,12.6437,4.6786,19.0387c6.1431,24.1676,6.9775,23.2288,6.9775,23.2288s13.6273,43.3307,44.688,74.5308
		c20.3458,20.4303,37.2184,51.5755,28.5956,76.1411c-7.5579,21.491-27.0189,21.6387-31.7645,21.3399
		c1.8574,0.0389,5.9581-0.4484,10.524-4.6964c6.1821-5.8,5.894-26.8566-11.7581-30.3554
		c-17.6624-3.4935-34.5598,27.8903-13.9551,43.5899c20.6241,15.7291,54.2594,3.1454,57.7778-33.6749
		c3.4988-36.8159-37.0345-74.7151-37.0345-74.7151s25.6541,23.8546,55.4028,40.8859
		C1170.0557,469.5097,1178.4534,473.0059,1186.7214,475.3763z M475.3763,475.3763c8.2681-2.3705,16.6658-5.8666,25.022-10.6465
		c29.7488-17.0313,55.4028-40.8859,55.4028-40.8859s-40.5333,37.8992-37.0346,74.7151
		c3.5185,36.8203,37.1537,49.404,57.7779,33.6749c20.6048-15.6996,3.7073-47.0834-13.955-43.5899
		c-17.6522,3.4988-17.9402,24.5554-11.7581,30.3554c4.5659,4.248,8.6667,4.7353,10.5241,4.6964
		c-4.7456,0.2988-24.2068,0.1511-31.7646-21.3399c-8.6228-24.5656,8.2498-55.7108,28.5956-76.1411
		c31.0607-31.2,44.688-74.5308,44.688-74.5308s0.8345,0.9389,6.9775-23.2288c1.6221-6.395,3.2135-12.9101,4.6786-19.0387
		c-2.0632,10.4291-3.8257,21.0894-5.2576,31.8311c0.4323-4.7138,0.7281-7.3508,0.7281-7.3508s-1.5687,4.1877-3.5897,11.8689
		c-7.7015,21.0443-28.9581,91.6669-4.8443,177.2739c1.8654,6.6248,3.728,12.9357,5.5826,18.9714
		c0.2973,2.6667,0.4458,6.5682,0.1176,12.189c-0.7558,12.6849-5.3781,29.0057-17.696,35.3712
		c-6.3655,12.3179-22.6863,16.9402-35.3712,17.696c-5.6208,0.3282-9.5223,0.1797-12.189-0.1176
		c-6.0356-1.8546-12.3466-3.7172-18.9714-5.5826c-85.607-24.1138-156.2296-2.8572-177.2739,4.8443
		c-7.6812,2.021-11.8689,3.5897-11.8689,3.5897s2.637-0.2958,7.3508-0.7281c-10.7416,1.4319-21.402,3.1945-31.8311,5.2576
		c6.1286-1.4651,12.6437-3.0566,19.0387-4.6786c24.1676-6.143,23.2288-6.9775,23.2288-6.9775s43.3307-13.6273,74.5308-44.688
		c20.4303-20.3458,51.5755-37.2184,76.1411-28.5956c21.491,7.5578,21.6387,27.019,21.3399,31.7646
		c0.0389-1.8574-0.4484-5.9582-4.6964-10.5241c-5.8-6.1821-26.8566-5.894-30.3554,11.7581
		c-3.4935,17.6624,27.8903,34.5598,43.5899,13.955c15.7291-20.6242,3.1454-54.2594-33.6749-57.7779
		c-36.8159-3.4987-74.7151,37.0346-74.7151,37.0346s23.8546-25.6541,40.8859-55.4028
		C469.5097,492.0421,473.0059,483.6445,475.3763,475.3763z M475.3763,1186.7214c-2.3705-8.2681-5.8666-16.6658-10.6465-25.022
		c-17.0313-29.7488-40.8859-55.4028-40.8859-55.4028s37.8992,40.5333,74.7151,37.0345
		c36.8203-3.5184,49.404-37.1537,33.6749-57.7778c-15.6996-20.6047-47.0834-3.7073-43.5899,13.9551
		c3.4988,17.6521,24.5554,17.9402,30.3554,11.7581c4.248-4.5659,4.7353-8.6666,4.6964-10.524
		c0.2988,4.7456,0.1511,24.2067-21.3399,31.7645c-24.5656,8.6228-55.7108-8.2498-76.1411-28.5956
		c-31.2-31.0607-74.5308-44.688-74.5308-44.688s0.9389-0.8345-23.2288-6.9775c-6.395-1.6221-12.9101-3.2135-19.0387-4.6786
		c10.4291,2.0631,21.0894,3.8257,31.8311,5.2576c-4.7138-0.4323-7.3508-0.728-7.3508-0.728s4.1877,1.5687,11.8689,3.5897
		c21.0443,7.7015,91.6669,28.958,177.2739,4.8442c6.6248-1.8654,12.9357-3.728,18.9714-5.5825
		c2.6667-0.2974,6.5682-0.4458,12.189-0.1177c12.6849,0.7559,29.0057,5.3781,35.3712,17.696
		c12.3179,6.3655,16.9402,22.6862,17.696,35.3711c0.3282,5.6208,0.1797,9.5223-0.1176,12.1891
		c-1.8546,6.0356-3.7172,12.3466-5.5826,18.9713c-24.1138,85.6071-2.8572,156.2296,4.8443,177.2739
		c2.021,7.6812,3.5897,11.8689,3.5897,11.8689s-0.2958-2.637-0.7281-7.3508c1.4319,10.7417,3.1945,21.402,5.2576,31.8311
		c-1.4651-6.1285-3.0566-12.6437-4.6786-19.0387c-6.143-24.1676-6.9775-23.2288-6.9775-23.2288s-13.6273-43.3307-44.688-74.5308
		c-20.3458-20.4303-37.2184-51.5754-28.5956-76.1411c7.5578-21.491,27.019-21.6387,31.7646-21.34
		c-1.8574-0.0388-5.9582,0.4485-10.5241,4.6965c-6.1821,5.7999-5.894,26.8566,11.7581,30.3553
		c17.6624,3.4935,34.5598-27.8903,13.955-43.5898c-20.6242-15.7291-54.2594-3.1455-57.7779,33.6748
		c-3.4987,36.8159,37.0346,74.7152,37.0346,74.7152s-25.6541-23.8547-55.4028-40.886
		C492.0421,1192.588,483.6445,1189.0919,475.3763,1186.7214z M1186.7214,1186.7214c-8.2681,2.3705-16.6658,5.8666-25.022,10.6465
		c-29.7488,17.0313-55.4028,40.886-55.4028,40.886s40.5333-37.8993,37.0345-74.7152
		c-3.5184-36.8203-37.1537-49.4039-57.7778-33.6748c-20.6047,15.6996-3.7073,47.0834,13.9551,43.5898
		c17.6521-3.4988,17.9402-24.5554,11.7581-30.3553c-4.5659-4.248-8.6666-4.7354-10.524-4.6965
		c4.7456-0.2987,24.2067-0.151,31.7645,21.34c8.6228,24.5657-8.2498,55.7108-28.5956,76.1411
		c-31.0607,31.2001-44.688,74.5308-44.688,74.5308s-0.8345-0.9388-6.9775,23.2288c-1.6221,6.395-3.2135,12.9102-4.6786,19.0387
		c2.0631-10.4291,3.8257-21.0894,5.2576-31.8311c-0.4323,4.7139-0.728,7.3508-0.728,7.3508s1.5687-4.1877,3.5897-11.8689
		c7.7015-21.0443,28.958-91.6669,4.8442-177.2739c-1.8654-6.6248-3.728-12.9357-5.5825-18.9713
		c-0.2974-2.6667-0.4458-6.5682-0.1177-12.1891c0.7559-12.6849,5.3781-29.0056,17.696-35.3711
		c6.3655-12.318,22.6862-16.9402,35.3711-17.696c5.6208-0.3281,9.5223-0.1797,12.1891,0.1177
		c6.0356,1.8545,12.3466,3.7172,18.9713,5.5825c85.6071,24.1138,156.2296,2.8573,177.2739-4.8442
		c7.6812-2.021,11.8689-3.5897,11.8689-3.5897s-2.637,0.2958-7.3508,0.728c10.7417-1.4319,21.402-3.1945,31.8311-5.2576
		c-6.1285,1.4651-12.6437,3.0565-19.0387,4.6786c-24.1676,6.1431-23.2288,6.9775-23.2288,6.9775s-43.3307,13.6273-74.5308,44.688
		c-20.4303,20.3458-51.5754,37.2184-76.1411,28.5956c-21.491-7.5579-21.6387-27.0189-21.34-31.7645
		c-0.0388,1.8574,0.4485,5.9581,4.6965,10.524c5.7999,6.1821,26.8566,5.894,30.3553-11.7581
		c3.4935-17.6624-27.8903-34.5598-43.5898-13.9551c-15.7291,20.6241-3.1455,54.2594,33.6748,57.7778
		c36.8159,3.4988,74.7152-37.0345,74.7152-37.0345s-23.8547,25.6541-40.886,55.4028
		C1192.588,1170.0557,1189.0919,1178.4534,1186.7214,1186.7214z M1068.7952,593.3026c1.3516,2.8408,2.5304,4.6268,2.5304,4.6268
		s-1.7688-0.9223-4.5209-2.6363c-1.714-2.7521-2.6364-4.521-2.6364-4.521S1065.9545,591.951,1068.7952,593.3026z M593.3026,593.3026
		c2.8408-1.3516,4.6268-2.5305,4.6268-2.5305s-0.9223,1.7689-2.6363,4.521c-2.7521,1.714-4.521,2.6363-4.521,2.6363
		S591.951,596.1434,593.3026,593.3026z M593.3026,1068.7952c-1.3516-2.8407-2.5305-4.6268-2.5305-4.6268s1.7689,0.9224,4.521,2.6364
		c1.714,2.7521,2.6363,4.5209,2.6363,4.5209S596.1434,1070.1467,593.3026,1068.7952z M1068.7952,1068.7952
		c-2.8407,1.3516-4.6268,2.5304-4.6268,2.5304s0.9224-1.7688,2.6364-4.5209c2.7521-1.714,4.5209-2.6364,4.5209-2.6364
		S1070.1467,1065.9545,1068.7952,1068.7952z M1065.2046,596.8931c3.0436,2.0132,4.9781,3.1584,4.9781,3.1584
		s-2.0575-1.2136-5.3907-2.7458c-1.5321-3.3333-2.7457-5.3907-2.7457-5.3907S1063.1915,593.8496,1065.2046,596.8931z
		 M596.8931,596.8931c2.0132-3.0435,3.1584-4.978,3.1584-4.978s-1.2136,2.0574-2.7458,5.3907
		c-3.3333,1.5322-5.3907,2.7458-5.3907,2.7458S593.8496,598.9063,596.8931,596.8931z M596.8931,1065.2046
		c-3.0435-2.0131-4.978-3.1583-4.978-3.1583s2.0574,1.2136,5.3907,2.7457c1.5322,3.3333,2.7458,5.3907,2.7458,5.3907
		S598.9063,1068.2482,596.8931,1065.2046z M1065.2046,1065.2046c-2.0131,3.0436-3.1583,4.9781-3.1583,4.9781
		s1.2136-2.0575,2.7457-5.3907c3.3333-1.5321,5.3907-2.7457,5.3907-2.7457S1068.2482,1063.1915,1065.2046,1065.2046z
		 M1063.4301,598.6677c2.0669,0.8553,4.0675,1.8113,5.9623,2.8398c13.2994,7.2198,28.2145,9.5732,35.9408,10.3362
		c-40.103,13.201-66.8971,25.7285-90.5535,35.4744c9.7458-23.6564,22.2734-50.4504,35.4744-90.5534
		c0.7631,7.7263,3.1165,22.6413,10.3363,35.9407C1061.6188,594.6002,1062.5748,596.6008,1063.4301,598.6677z M598.6677,598.6677
		c0.8553-2.0669,1.8113-4.0675,2.8398-5.9623c7.2198-13.2994,9.5732-28.2145,10.3362-35.9407
		c13.201,40.103,25.7285,66.897,35.4744,90.5534c-23.6564-9.7458-50.4504-22.2734-90.5534-35.4744
		c7.7263-0.7631,22.6413-3.1164,35.9407-10.3362C594.6002,600.479,596.6008,599.523,598.6677,598.6677z M598.6677,1063.4301
		c-2.0669-0.8552-4.0675-1.8113-5.9623-2.8397c-13.2994-7.2198-28.2145-9.5732-35.9407-10.3363
		c40.103-13.2009,66.897-25.7285,90.5534-35.4744c-9.7458,23.6564-22.2734,50.4504-35.4744,90.5535
		c-0.7631-7.7263-3.1164-22.6414-10.3362-35.9408C600.479,1067.4976,599.523,1065.4969,598.6677,1063.4301z M1063.4301,1063.4301
		c-0.8552,2.0669-1.8113,4.0675-2.8397,5.9623c-7.2198,13.2994-9.5732,28.2145-10.3363,35.9408
		c-13.2009-40.103-25.7285-66.8971-35.4744-90.5535c23.6564,9.7458,50.4504,22.2734,90.5535,35.4744
		c-7.7263,0.7631-22.6414,3.1165-35.9408,10.3363C1067.4976,1061.6188,1065.4969,1062.5748,1063.4301,1063.4301z M992.5485,669.5493
		c8.3189-3.1215,17.0003-6.8282,26.103-11.1631c63.9656-30.4647,92.0793-48.7333,161.1832-58.2155
		c18.8744-2.5899,38.0962-3.1083,56.0723-2.4976c-41.8774,1.0196-94.6364,10.5052-151.0686,40.6151
		c-59.8756,31.9613-100.4928,74.6888-141.5206,114.7952c-0.0687-0.015-0.1014-0.0241-0.1014-0.0241s-2.5349,4.09-18.5917,10.3118
		c-8.9909,3.488-20.321,6.0217-30.7906,4.8927c-1.129-10.4697,1.4047-21.7997,4.8927-30.7906
		c6.2217-16.0568,10.3118-18.5917,10.3118-18.5917s-0.0092-0.0327-0.0241-0.1014c40.1064-41.0278,82.834-81.6451,114.7952-141.5206
		c30.11-56.4323,39.5956-109.1911,40.6151-151.0686c0.6108,17.9761,0.0924,37.198-2.4976,56.0723
		c-9.4822,69.104-27.7507,97.2177-58.2155,161.1833C999.3767,652.549,995.6701,661.2303,992.5485,669.5493z M669.5493,669.5493
		c-3.1215-8.3189-6.8282-17.0002-11.1631-26.1029c-30.4647-63.9656-48.7333-92.0793-58.2155-161.1833
		c-2.5899-18.8743-3.1083-38.0962-2.4976-56.0723c1.0196,41.8775,10.5052,94.6363,40.6151,151.0686
		c31.9613,59.8755,74.6888,100.4929,114.7952,141.5206c-0.015,0.0688-0.0241,0.1014-0.0241,0.1014s4.09,2.5349,10.3118,18.5917
		c3.488,8.991,6.0217,20.321,4.8927,30.7906c-10.4697,1.129-21.7997-1.4047-30.7906-4.8927
		c-16.0568-6.2217-18.5917-10.3118-18.5917-10.3118s-0.0327,0.0092-0.1014,0.0241
		c-41.0278-40.1064-81.6451-82.8339-141.5206-114.7952c-56.4323-30.1099-109.1911-39.5955-151.0686-40.6151
		c17.9761-0.6108,37.198-0.0923,56.0723,2.4976c69.104,9.4822,97.2177,27.7508,161.1833,58.2155
		C652.549,662.7211,661.2303,666.4277,669.5493,669.5493z M669.5493,992.5485c-8.3189,3.1216-17.0002,6.8282-26.1029,11.1631
		c-63.9656,30.4648-92.0793,48.7333-161.1833,58.2155c-18.8743,2.59-38.0962,3.1084-56.0723,2.4976
		c41.8775-1.0195,94.6363-10.5051,151.0686-40.6151c59.8755-31.9612,100.4929-74.6888,141.5206-114.7952
		c0.0688,0.015,0.1014,0.0241,0.1014,0.0241s2.5349-4.09,18.5917-10.3118c8.991-3.488,20.321-6.0217,30.7906-4.8927
		c1.129,10.4697-1.4047,21.7997-4.8927,30.7906c-6.2217,16.0568-10.3118,18.5917-10.3118,18.5917s0.0092,0.0327,0.0241,0.1014
		c-40.1064,41.0278-82.8339,81.645-114.7952,141.5206c-30.1099,56.4323-39.5955,109.1912-40.6151,151.0686
		c-0.6108-17.9761-0.0923-37.1979,2.4976-56.0723c9.4822-69.1039,27.7508-97.2177,58.2155-161.1832
		C662.7211,1009.5488,666.4277,1000.8674,669.5493,992.5485z M992.5485,992.5485c3.1216,8.3189,6.8282,17.0003,11.1631,26.103
		c30.4648,63.9656,48.7333,92.0793,58.2155,161.1832c2.59,18.8744,3.1084,38.0962,2.4976,56.0723
		c-1.0195-41.8774-10.5051-94.6364-40.6151-151.0686c-31.9612-59.8756-74.6888-100.4928-114.7952-141.5206
		c0.015-0.0687,0.0241-0.1014,0.0241-0.1014s-4.09-2.5349-10.3118-18.5917c-3.488-8.9909-6.0217-20.321-4.8927-30.7906
		c10.4697-1.129,21.7997,1.4047,30.7906,4.8927c16.0568,6.2217,18.5917,10.3118,18.5917,10.3118s0.0327-0.0092,0.1014-0.0241
		c41.0278,40.1064,81.645,82.834,141.5206,114.7952c56.4323,30.11,109.1912,39.5956,151.0686,40.6151
		c-17.9761,0.6108-37.1979,0.0924-56.0723-2.4976c-69.1039-9.4822-97.2177-27.7507-161.1832-58.2155
		C1009.5488,999.3767,1000.8674,995.6701,992.5485,992.5485z M836.556,825.5418c0.6903,0.2267,1.4,0.4167,2.1272,0.5675
		c12.8694,2.6694,20.207-11.3065,16.8933-19.5881c-8.2816-3.3137-22.2574,4.024-19.5881,16.8933
		C836.1393,824.1418,836.3292,824.8514,836.556,825.5418z M825.5418,825.5418c0.2267-0.6904,0.4167-1.4,0.5675-2.1273
		c2.6694-12.8693-11.3065-20.207-19.5881-16.8933c-3.3137,8.2816,4.024,22.2575,16.8933,19.5881
		C824.1418,825.9586,824.8514,825.7686,825.5418,825.5418z M825.5418,836.556c-0.6904-0.2268-1.4-0.4167-2.1273-0.5676
		c-12.8693-2.6694-20.207,11.3065-16.8933,19.5881c8.2816,3.3137,22.2575-4.0239,19.5881-16.8933
		C825.9586,837.956,825.7686,837.2463,825.5418,836.556z M836.556,836.556c-0.2268,0.6903-0.4167,1.4-0.5676,2.1272
		c-2.6694,12.8694,11.3065,20.207,19.5881,16.8933c3.3137-8.2816-4.0239-22.2574-16.8933-19.5881
		C837.956,836.1393,837.2463,836.3292,836.556,836.556z M885.4363,776.6615c18.4057-0.0538,35.1697-5.5706,41.7482-8.0352
		c-24.6384,23.2858-50.3278,45.0294-81.1934,62.4225c30.8655,17.3932,56.555,39.1368,81.1934,62.4225
		c-6.5785-2.4645-23.3425-7.9814-41.7482-8.0351c0.0537,18.4057,5.5706,35.1697,8.0351,41.7482
		c-23.2858-24.6384-45.0294-50.3278-62.4225-81.1934c-17.3932,30.8655-39.1368,56.555-62.4225,81.1934
		c2.4645-6.5785,7.9814-23.3425,8.0352-41.7482c-18.4058,0.0537-35.1698,5.5706-41.7483,8.0351
		c24.6384-23.2858,50.3278-45.0294,81.1934-62.4225c-30.8656-17.3932-56.5551-39.1368-81.1934-62.4225
		c6.5785,2.4645,23.3425,7.9814,41.7483,8.0352c-0.0538-18.4058-5.5706-35.1698-8.0352-41.7483
		c23.2858,24.6384,45.0294,50.3278,62.4225,81.1934c17.3932-30.8656,39.1368-56.5551,62.4225-81.1934
		C891.0069,741.4917,885.4901,758.2557,885.4363,776.6615z M873.569,831.0489c27.9833-20.48,52.6722-44.2377,74.3434-69.3077
		c1.4733-1.7046,2.9446-3.3793,4.4163-5.0579c1.2081-0.7689,0.9871-0.8464,0.7103-0.8135c0.0431-0.0491,0.0862-0.0992,0.1295-0.1483
		c0.9429-0.4898,3.0966-1.7246,1.982-2.2482c65.0162-73.4645,128.6714-121.3534,195.7452-138.1349
		c21.8844-5.4808,47.5444-8.0403,72.4401-8.9758c-15.8035,1.4567-30.5739,4.0156-43.6501,7.813
		c-67.4885,19.5906-118.344,48.5836-162.6294,113.6821c-21.4708,31.5557-33.2427,67.523-36.7628,103.1913
		c3.5201,35.6683,15.292,71.6356,36.7628,103.1913c44.2854,65.0984,95.1409,94.0915,162.6294,113.6821
		c13.0763,3.7975,27.8467,6.3563,43.6501,7.813c-24.8956-0.9355-50.5557-3.495-72.4401-8.9758
		c-67.0737-16.7815-130.7289-64.6704-195.7452-138.1349c1.1146-0.5235-1.0391-1.7584-1.982-2.2482
		c-0.0432-0.0491-0.0864-0.0992-0.1295-0.1483c0.2767,0.0329,0.4977-0.0446-0.7103-0.8135
		c-1.4717-1.6785-2.943-3.3533-4.4163-5.0579C926.2413,875.2866,901.5523,851.5289,873.569,831.0489z M831.0489,788.5288
		c-20.48-27.9833-44.2377-52.6722-69.3077-74.3434c-1.7046-1.4733-3.3793-2.9446-5.0579-4.4163
		c-0.7689-1.2081-0.8464-0.987-0.8135-0.7103c-0.0491-0.0431-0.0992-0.0862-0.1483-0.1295
		c-0.4898-0.9429-1.7246-3.0966-2.2482-1.982c-73.4645-65.0162-121.3534-128.6714-138.1349-195.7452
		c-5.4808-21.8844-8.0403-47.5444-8.9758-72.4401c1.4567,15.8035,4.0156,30.5739,7.813,43.6501
		c19.5906,67.4886,48.5836,118.3441,113.6821,162.6294c31.5557,21.4708,67.523,33.2427,103.1913,36.7628
		c35.6683-3.5201,71.6356-15.292,103.1913-36.7628c65.0984-44.2853,94.0915-95.1408,113.6821-162.6294
		c3.7975-13.0763,6.3563-27.8466,7.813-43.6501c-0.9355,24.8956-3.495,50.5557-8.9758,72.4401
		c-16.7815,67.0737-64.6704,130.7289-138.1349,195.7452c-0.5235-1.1146-1.7584,1.0391-2.2482,1.982
		c-0.0491,0.0432-0.0992,0.0864-0.1483,0.1295c0.0329-0.2767-0.0446-0.4977-0.8135,0.7103
		c-1.6785,1.4717-3.3533,2.943-5.0579,4.4163C875.2866,735.8566,851.5289,760.5455,831.0489,788.5288z M788.5288,831.0489
		c-27.9833,20.48-52.6722,44.2377-74.3434,69.3077c-1.4733,1.7046-2.9446,3.3793-4.4163,5.0579
		c-1.2081,0.7689-0.987,0.8464-0.7103,0.8135c-0.0431,0.0491-0.0862,0.0992-0.1295,0.1483
		c-0.9429,0.4898-3.0966,1.7247-1.982,2.2482c-65.0162,73.4645-128.6714,121.3535-195.7452,138.1349
		c-21.8844,5.4808-47.5444,8.0403-72.4401,8.9758c15.8035-1.4567,30.5739-4.0155,43.6501-7.813
		c67.4886-19.5906,118.3441-48.5836,162.6294-113.6821c21.4708-31.5557,33.2427-67.5229,36.7628-103.1913
		c-3.5201-35.6683-15.292-71.6356-36.7628-103.1913c-44.2853-65.0984-95.1408-94.0915-162.6294-113.6821
		c-13.0763-3.7974-27.8466-6.3563-43.6501-7.813c24.8956,0.9355,50.5557,3.495,72.4401,8.9758
		c67.0737,16.7816,130.7289,64.6704,195.7452,138.1349c-1.1146,0.5236,1.0391,1.7584,1.982,2.2482
		c0.0432,0.0491,0.0864,0.0992,0.1295,0.1483c-0.2767-0.0329-0.4977,0.0446,0.7103,0.8135c1.4717,1.6786,2.943,3.3533,4.4163,5.0579
		C735.8566,786.8112,760.5455,810.5688,788.5288,831.0489z M831.0489,873.569c20.48,27.9833,44.2377,52.6722,69.3077,74.3434
		c1.7046,1.4733,3.3793,2.9446,5.0579,4.4163c0.7689,1.2081,0.8464,0.9871,0.8135,0.7103c0.0491,0.0431,0.0992,0.0862,0.1483,0.1295
		c0.4898,0.9429,1.7247,3.0966,2.2482,1.982c73.4645,65.0162,121.3535,128.6714,138.1349,195.7452
		c5.4808,21.8844,8.0403,47.5444,8.9758,72.4401c-1.4567-15.8035-4.0155-30.5739-7.813-43.6501
		c-19.5906-67.4885-48.5836-118.344-113.6821-162.6294c-31.5557-21.4708-67.5229-33.2427-103.1913-36.7628
		c-35.6683,3.5201-71.6356,15.292-103.1913,36.7628c-65.0984,44.2854-94.0915,95.1409-113.6821,162.6294
		c-3.7974,13.0763-6.3563,27.8467-7.813,43.6501c0.9355-24.8956,3.495-50.5557,8.9758-72.4401
		c16.7816-67.0737,64.6704-130.7289,138.1349-195.7452c0.5236,1.1146,1.7584-1.0391,2.2482-1.982
		c0.0491-0.0432,0.0992-0.0864,0.1483-0.1295c-0.0329,0.2767,0.0446,0.4977,0.8135-0.7103c1.6786-1.4717,3.3533-2.943,5.0579-4.4163
		C786.8112,926.2413,810.5688,901.5523,831.0489,873.569z M1350.5654,831.0489c-22.7708-45.6392-69.0281-62.9399-107.307-65.0533
		c-7.9688-0.4427-15.8597,0.1376-23.4835,1.6313c-14.4797,1.4955-43.2385,1.8099-57.3242-16.451
		c-19.3076-24.9681-7.4497-45.6718,3.8911-52.7886c11.351-7.1216,23.8893-5.7003,30.4194-1.287
		c5.6361,3.8167,7.1221,8.6818,7.1221,8.6818s-8.0762-7.6681-16.3855-1.0534c-8.2894,6.6198-4.6218,23.2185,9.7408,21.4496
		c14.3723-1.7394,13.4283-22.7564,5.6207-31.5528c-9.3927-10.5805-29.3014-20.3362-50.3485-5.0793
		c-25.3156,18.3631-17.0313,62.2557,5.0096,77.6122c13.61,9.4868,25.364,11.2137,33.5985,11.0912
		c-20.0774,11.4364-35.2949,30.0599-40.2345,52.7993c4.9396,22.7394,20.1571,41.3629,40.2345,52.7994
		c-8.2345-0.1226-19.9885,1.6043-33.5985,11.0911c-22.0409,15.3566-30.3252,59.2492-5.0096,77.6123
		c21.0471,15.2568,40.9558,5.5012,50.3485-5.0793c7.8076-8.7963,8.7516-29.8134-5.6207-31.5527
		c-14.3627-1.769-18.0303,14.8298-9.7408,21.4495c8.3093,6.6147,16.3855-1.0534,16.3855-1.0534s-1.486,4.8651-7.1221,8.6818
		c-6.5302,4.4132-19.0685,5.8345-30.4194-1.287c-11.3408-7.1169-23.1987-27.8206-3.8911-52.7887
		c14.0857-18.2609,42.8445-17.9465,57.3242-16.451c7.6238,1.4937,15.5148,2.0741,23.4835,1.6314
		C1281.5374,893.9889,1327.7947,876.6881,1350.5654,831.0489z M831.0489,311.5323c-45.6392,22.7708-62.9399,69.028-65.0533,107.3071
		c-0.4427,7.9687,0.1376,15.8597,1.6313,23.4835c1.4955,14.4796,1.8099,43.2385-16.451,57.3241
		c-24.9681,19.3077-45.6718,7.4498-52.7886-3.8911c-7.1216-11.351-5.7003-23.8893-1.287-30.4194
		c3.8167-5.6361,8.6818-7.1221,8.6818-7.1221s-7.6681,8.0762-1.0534,16.3856c6.6198,8.2894,23.2185,4.6218,21.4496-9.7408
		c-1.7394-14.3723-22.7564-13.4283-31.5528-5.6208c-10.5805,9.3927-20.3362,29.3014-5.0793,50.3485
		c18.3631,25.3156,62.2557,17.0313,77.6122-5.0097c9.4868-13.61,11.2137-25.364,11.0912-33.5985
		c11.4364,20.0774,30.0599,35.2949,52.7993,40.2345c22.7394-4.9396,41.3629-20.1571,52.7994-40.2345
		c-0.1226,8.2346,1.6043,19.9885,11.0911,33.5985c15.3566,22.041,59.2492,30.3252,77.6123,5.0097
		c15.2568-21.0471,5.5012-40.9558-5.0793-50.3485c-8.7963-7.8076-29.8134-8.7516-31.5527,5.6208
		c-1.769,14.3626,14.8298,18.0303,21.4495,9.7408c6.6147-8.3094-1.0534-16.3856-1.0534-16.3856s4.8651,1.486,8.6818,7.1221
		c4.4132,6.5302,5.8345,19.0685-1.287,30.4194c-7.1169,11.3409-27.8206,23.1988-52.7887,3.8911
		c-18.2609-14.0857-17.9465-42.8445-16.451-57.3241c1.4937-7.6238,2.0741-15.5148,1.6314-23.4835
		C893.9889,380.5604,876.6881,334.3032,831.0489,311.5323z M311.5323,831.0489c22.7708,45.6392,69.028,62.94,107.3071,65.0533
		c7.9687,0.4427,15.8597-0.1377,23.4835-1.6314c14.4796-1.4955,43.2385-1.8099,57.3241,16.451
		c19.3077,24.9681,7.4498,45.6718-3.8911,52.7887c-11.351,7.1215-23.8893,5.7002-30.4194,1.287
		c-5.6361-3.8167-7.1221-8.6818-7.1221-8.6818s8.0762,7.6681,16.3856,1.0534c8.2894-6.6198,4.6218-23.2185-9.7408-21.4495
		c-14.3723,1.7394-13.4283,22.7564-5.6208,31.5527c9.3927,10.5806,29.3014,20.3362,50.3485,5.0793
		c25.3156-18.3631,17.0313-62.2557-5.0097-77.6123c-13.61-9.4868-25.364-11.2137-33.5985-11.0911
		c20.0774-11.4365,35.2949-30.0599,40.2345-52.7994c-4.9396-22.7394-20.1571-41.3629-40.2345-52.7993
		c8.2346,0.1225,19.9885-1.6044,33.5985-11.0912c22.041-15.3566,30.3252-59.2491,5.0097-77.6122
		c-21.0471-15.2569-40.9558-5.5012-50.3485,5.0793c-7.8076,8.7964-8.7516,29.8134,5.6208,31.5528
		c14.3626,1.7689,18.0303-14.8298,9.7408-21.4496c-8.3094-6.6147-16.3856,1.0534-16.3856,1.0534s1.486-4.8651,7.1221-8.6818
		c6.5302-4.4132,19.0685-5.8345,30.4194,1.287c11.3409,7.1168,23.1988,27.8205,3.8911,52.7886
		c-14.0857,18.2609-42.8445,17.9465-57.3241,16.451c-7.6238-1.4937-15.5148-2.0741-23.4835-1.6313
		C380.5604,768.1089,334.3032,785.4097,311.5323,831.0489z M831.0489,1350.5654c45.6392-22.7708,62.94-69.0281,65.0533-107.307
		c0.4427-7.9688-0.1377-15.8597-1.6314-23.4835c-1.4955-14.4797-1.8099-43.2385,16.451-57.3242
		c24.9681-19.3076,45.6718-7.4497,52.7887,3.8911c7.1215,11.351,5.7002,23.8893,1.287,30.4194
		c-3.8167,5.6361-8.6818,7.1221-8.6818,7.1221s7.6681-8.0762,1.0534-16.3855c-6.6198-8.2894-23.2185-4.6218-21.4495,9.7408
		c1.7394,14.3723,22.7564,13.4283,31.5527,5.6207c10.5806-9.3927,20.3362-29.3014,5.0793-50.3485
		c-18.3631-25.3156-62.2557-17.0313-77.6123,5.0096c-9.4868,13.61-11.2137,25.364-11.0911,33.5985
		c-11.4365-20.0774-30.0599-35.2949-52.7994-40.2345c-22.7394,4.9396-41.3629,20.1571-52.7993,40.2345
		c0.1225-8.2345-1.6044-19.9885-11.0912-33.5985c-15.3566-22.0409-59.2491-30.3252-77.6122-5.0096
		c-15.2569,21.0471-5.5012,40.9558,5.0793,50.3485c8.7964,7.8076,29.8134,8.7516,31.5528-5.6207
		c1.7689-14.3627-14.8298-18.0303-21.4496-9.7408c-6.6147,8.3093,1.0534,16.3855,1.0534,16.3855s-4.8651-1.486-8.6818-7.1221
		c-4.4132-6.5302-5.8345-19.0685,1.287-30.4194c7.1168-11.3408,27.8205-23.1987,52.7886-3.8911
		c18.2609,14.0857,17.9465,42.8445,16.451,57.3242c-1.4937,7.6238-2.0741,15.5148-1.6313,23.4835
		C768.1089,1281.5374,785.4097,1327.7947,831.0489,1350.5654z"/>
	<path d="M1321.7999,710.3942c-22.5381,13.5576-39.8225,0.2881-37.5269-8.4238c2.286-8.7068,11.3363-2.4549,11.3363-2.4549
		s0.0244-5.5663-5.4915-7.1516c-5.5114-1.575-18.5621,3.6381-16.3108,17.4883c2.256,13.8411,22.6222,21.3503,46.2778,11.008
		c23.676-10.322,55.4675-48.5688,77.4086-58.0115c16.985-7.2896,36.0212-8.6415,43.7864-8.8803
		c-9.6967,0.2507-37.136,1.8159-58.8396,11.3352C1355.6189,677.0821,1344.3025,696.8417,1321.7999,710.3942z"/>
	<path d="M710.3942,340.2979c13.5576,22.5381,0.2881,39.8225-8.4238,37.5269c-8.7068-2.286-2.4549-11.3363-2.4549-11.3363
		s-5.5663-0.0244-7.1516,5.4914c-1.575,5.5114,3.6381,18.5621,17.4883,16.3108c13.8411-2.256,21.3503-22.6221,11.008-46.2778
		c-10.322-23.676-48.5688-55.4676-58.0115-77.4086c-7.2896-16.9849-8.6415-36.0211-8.8803-43.7863
		c0.2507,9.6966,1.8159,37.1359,11.3352,58.8395C677.0821,306.4789,696.8417,317.7953,710.3942,340.2979z"/>
	<path d="M340.2979,951.7036c22.5381-13.5576,39.8225-0.2881,37.5269,8.4238c-2.286,8.7067-11.3363,2.4549-11.3363,2.4549
		s-0.0244,5.5663,5.4914,7.1516c5.5114,1.5751,18.5621-3.6381,16.3108-17.4883c-2.256-13.8411-22.6221-21.3503-46.2778-11.008
		c-23.676,10.322-55.4676,48.5688-77.4086,58.0115c-16.9849,7.2896-36.0211,8.6415-43.7863,8.8803
		c9.6966-0.2507,37.1359-1.8159,58.8395-11.3352C306.4789,985.0157,317.7953,965.2561,340.2979,951.7036z"/>
	<path d="M951.7036,1321.7999c-13.5576-22.5381-0.2881-39.8225,8.4238-37.5269c8.7067,2.286,2.4549,11.3363,2.4549,11.3363
		s5.5663,0.0244,7.1516-5.4915c1.5751-5.5114-3.6381-18.5621-17.4883-16.3108c-13.8411,2.256-21.3503,22.6222-11.008,46.2778
		c10.322,23.676,48.5688,55.4675,58.0115,77.4086c7.2896,16.985,8.6415,36.0212,8.8803,43.7864
		c-0.2507-9.6967-1.8159-37.136-11.3352-58.8396C985.0157,1355.6189,965.2561,1344.3025,951.7036,1321.7999z"/>
	<path d="M1321.7999,951.7036c-22.5381-13.5576-39.8225-0.2881-37.5269,8.4238c2.286,8.7067,11.3363,2.4549,11.3363,2.4549
		s0.0244,5.5663-5.4915,7.1516c-5.5114,1.5751-18.5621-3.6381-16.3108-17.4883c2.256-13.8411,22.6222-21.3503,46.2778-11.008
		c23.676,10.322,55.4675,48.5688,77.4086,58.0115c16.985,7.2896,36.0212,8.6415,43.7864,8.8803
		c-9.6967-0.2507-37.136-1.8159-58.8396-11.3352C1355.6189,985.0157,1344.3025,965.2561,1321.7999,951.7036z"/>
	<path d="M951.7036,340.2979c-13.5576,22.5381-0.2881,39.8225,8.4238,37.5269c8.7067-2.286,2.4549-11.3363,2.4549-11.3363
		s5.5663-0.0244,7.1516,5.4914c1.5751,5.5114-3.6381,18.5621-17.4883,16.3108c-13.8411-2.256-21.3503-22.6221-11.008-46.2778
		c10.322-23.676,48.5688-55.4676,58.0115-77.4086c7.2896-16.9849,8.6415-36.0211,8.8803-43.7863
		c-0.2507,9.6966-1.8159,37.1359-11.3352,58.8395C985.0157,306.4789,965.2561,317.7953,951.7036,340.2979z"/>
	<path d="M340.2979,710.3942c22.5381,13.5576,39.8225,0.2881,37.5269-8.4238c-2.286-8.7068-11.3363-2.4549-11.3363-2.4549
		s-0.0244-5.5663,5.4914-7.1516c5.5114-1.575,18.5621,3.6381,16.3108,17.4883c-2.256,13.8411-22.6221,21.3503-46.2778,11.008
		c-23.676-10.322-55.4676-48.5688-77.4086-58.0115c-16.9849-7.2896-36.0211-8.6415-43.7863-8.8803
		c9.6966,0.2507,37.1359,1.8159,58.8395,11.3352C306.4789,677.0821,317.7953,696.8417,340.2979,710.3942z"/>
	<path d="M710.3942,1321.7999c13.5576-22.5381,0.2881-39.8225-8.4238-37.5269c-8.7068,2.286-2.4549,11.3363-2.4549,11.3363
		s-5.5663,0.0244-7.1516-5.4915c-1.575-5.5114,3.6381-18.5621,17.4883-16.3108c13.8411,2.256,21.3503,22.6222,11.008,46.2778
		c-10.322,23.676-48.5688,55.4675-58.0115,77.4086c-7.2896,16.985-8.6415,36.0212-8.8803,43.7864
		c0.2507-9.6967,1.8159-37.136,11.3352-58.8396C677.0821,1355.6189,696.8417,1344.3025,710.3942,1321.7999z"/>
</g>
</svg>
