<?xml version="1.0" encoding="UTF-8" ?>
<!DOCTYPE svg PUBLIC "-//W3C//DTD SVG 1.1//EN" "http://www.w3.org/Graphics/SVG/1.1/DTD/svg11.dtd">
<svg width="1187pt" height="1153pt" viewBox="0 0 1187 1153" version="1.1" xmlns="http://www.w3.org/2000/svg">
<path fill="#000000" opacity="1.00" d=" M 447.33 0.00 L 449.98 0.00 C 489.49 4.74 521.27 35.76 539.83 69.18 C 562.22 105.42 574.15 146.69 583.29 188.05 C 587.51 227.52 589.67 266.92 589.45 306.67 C 588.58 364.09 573.95 419.40 561.12 474.91 C 533.30 454.66 509.35 429.99 483.28 407.74 C 444.23 367.27 411.27 321.32 383.58 272.46 C 370.33 257.08 367.62 236.38 357.91 219.05 C 340.65 167.76 327.38 110.28 348.09 58.09 C 355.36 40.41 367.59 22.77 388.08 19.88 C 402.90 13.75 421.96 34.09 409.73 46.79 C 401.23 57.95 387.09 47.64 376.50 50.39 C 347.87 72.96 353.37 114.96 361.83 146.16 C 368.47 183.16 385.28 217.20 399.13 251.87 C 434.69 324.12 489.07 385.43 548.30 439.22 C 579.10 315.54 573.88 179.53 515.61 64.42 C 502.50 47.81 490.17 26.42 466.79 24.07 C 453.64 19.13 450.78 35.97 440.12 39.22 C 427.45 45.37 413.45 29.31 421.04 17.16 C 423.06 4.57 438.69 5.76 447.33 0.00 Z" />
<path fill="#000000" opacity="1.00" d=" M 736.84 0.00 L 739.54 0.00 C 747.14 4.28 756.47 4.89 763.32 10.69 C 768.14 19.49 771.17 33.44 759.63 38.75 C 747.73 45.16 737.76 33.02 731.09 24.89 C 717.50 20.37 703.11 29.44 692.53 37.53 C 678.74 54.16 664.70 71.51 658.82 92.80 C 611.22 201.52 611.45 325.27 638.64 439.23 C 708.21 375.68 772.44 301.42 804.46 211.46 C 821.15 169.60 836.77 124.40 829.25 78.77 C 824.84 67.15 818.34 49.59 803.66 49.58 C 793.36 53.72 777.31 53.95 773.91 40.80 C 770.63 31.28 780.04 23.16 787.68 19.49 C 808.33 17.87 828.26 31.22 835.28 50.69 C 858.40 95.38 849.29 148.30 836.62 194.70 C 820.79 254.72 784.42 306.06 748.96 355.94 C 714.02 401.49 670.51 439.13 625.84 474.72 C 610.89 411.70 594.07 347.94 598.28 282.52 C 597.87 223.08 603.24 162.05 628.40 107.35 C 647.00 59.25 681.89 7.67 736.84 0.00 Z" />
<path fill="#000000" opacity="1.00" d=" M 178.66 182.49 C 232.21 180.16 280.10 208.81 322.29 238.70 C 340.11 255.66 361.36 268.97 375.28 289.71 C 435.28 353.88 477.81 432.21 506.89 514.06 C 474.04 511.24 440.95 509.60 408.34 504.40 C 345.69 496.70 287.02 471.93 229.13 447.85 C 178.17 417.78 126.73 381.77 99.45 327.49 C 88.57 301.76 77.61 266.94 102.16 245.22 C 112.03 231.11 140.15 242.79 132.59 260.37 C 128.69 274.42 105.72 269.01 107.66 285.58 C 104.10 294.66 108.70 303.49 109.81 312.47 C 133.37 357.36 177.33 385.71 218.88 412.10 C 295.59 461.87 387.35 481.58 476.98 492.04 C 440.64 410.77 393.61 330.50 323.82 273.19 C 295.54 248.25 264.82 226.06 231.24 208.67 C 212.32 203.94 192.99 193.39 173.14 201.04 C 166.84 204.33 155.50 206.70 157.28 216.32 C 159.08 227.59 150.50 242.05 137.50 238.87 C 121.88 234.33 120.88 212.02 132.54 202.53 C 141.43 186.58 162.60 185.30 178.66 182.49 Z" />
<path fill="#000000" opacity="1.00" d=" M 996.82 182.61 C 1019.50 181.87 1048.22 186.18 1059.03 208.97 C 1069.14 220.92 1057.38 244.38 1040.85 238.42 C 1030.58 234.29 1028.85 221.44 1029.41 211.78 C 1021.80 199.45 1004.34 198.89 991.34 198.44 C 937.46 209.04 894.76 246.52 854.08 281.08 C 788.96 337.54 744.90 414.51 710.04 492.06 C 803.52 481.81 899.19 459.85 977.79 405.76 C 1016.20 381.29 1055.68 353.85 1077.19 312.47 C 1079.35 300.23 1084.52 284.99 1075.19 274.66 C 1065.40 272.12 1052.42 265.32 1053.34 253.33 C 1055.20 236.39 1081.07 234.52 1088.28 248.73 C 1112.53 277.82 1093.14 318.38 1076.91 346.86 C 1049.48 385.26 1012.40 416.25 971.22 439.15 C 958.01 450.96 939.84 453.31 924.77 461.78 C 871.92 482.96 816.78 502.15 759.61 506.60 C 733.54 511.35 706.33 510.71 680.12 514.05 C 703.32 454.56 728.13 393.34 768.81 342.82 C 816.44 274.75 879.37 213.94 959.98 187.89 C 972.23 185.68 984.33 182.99 996.82 182.61 Z" />
<path fill="#000000" opacity="1.00" d=" M 593.11 359.08 C 599.28 381.96 598.98 408.51 606.52 432.15 C 607.10 446.76 578.79 446.23 580.61 431.42 C 587.55 407.69 588.10 383.23 593.11 359.08 Z" />
<path fill="#000000" opacity="1.00" d=" M 465.86 401.18 C 484.80 416.71 499.18 437.84 519.21 451.84 C 527.84 463.34 507.24 479.17 498.49 467.43 C 489.84 444.01 475.83 424.08 465.86 401.18 Z" />
<path fill="#000000" opacity="1.00" d=" M 720.45 401.47 C 713.04 422.13 696.44 444.57 688.51 467.43 C 682.05 476.21 667.53 469.51 666.12 459.96 C 663.24 451.23 674.90 448.41 678.76 442.74 C 693.50 429.86 705.73 414.36 720.45 401.47 Z" />
<path fill="#000000" opacity="1.00" d=" M 587.33 445.07 C 591.59 446.77 595.40 446.80 599.67 445.06 C 603.10 451.91 608.68 465.21 599.98 469.90 C 595.34 467.66 593.04 460.71 589.63 468.71 C 577.83 471.39 582.96 451.07 587.33 445.07 Z" />
<path fill="#000000" opacity="1.00" d=" M 54.86 483.85 C 138.26 448.19 233.92 462.41 316.69 491.71 C 378.57 507.85 433.61 543.07 486.66 576.84 C 463.56 589.87 442.29 606.08 418.40 617.39 C 373.89 645.24 323.20 661.00 273.11 674.46 C 209.22 693.82 139.86 695.54 75.29 677.69 C 44.10 666.10 10.27 647.36 0.00 613.43 L 0.00 602.46 C -1.61 587.32 19.18 572.82 31.08 584.90 C 40.22 594.96 31.75 607.30 26.41 616.57 C 29.56 644.68 59.76 652.57 82.19 660.72 C 209.83 680.31 340.44 643.39 448.95 576.08 C 389.95 541.88 326.74 514.05 260.22 498.19 C 224.73 490.31 188.46 489.40 152.47 486.51 C 124.11 489.46 94.02 486.18 67.38 497.96 C 49.35 502.02 32.02 514.31 26.53 532.60 C 24.87 540.90 34.72 545.66 34.72 553.89 C 37.87 564.85 26.69 575.28 16.05 572.38 C 6.83 568.77 -0.19 560.97 0.00 550.49 L 0.00 539.56 C 7.38 513.00 31.35 495.63 54.86 483.85 Z" />
<path fill="#000000" opacity="1.00" d=" M 928.80 474.72 C 987.77 458.61 1051.07 459.25 1110.23 474.81 C 1141.95 486.31 1176.52 505.13 1187.00 539.57 L 1187.00 550.54 C 1188.61 565.68 1167.82 580.17 1155.92 568.10 C 1146.78 558.04 1155.25 545.69 1160.59 536.43 C 1157.44 508.32 1127.24 500.43 1104.81 492.28 C 977.17 472.68 846.56 509.61 738.05 576.92 C 797.04 611.12 860.26 638.95 926.78 654.81 C 962.27 662.68 998.54 663.60 1034.53 666.49 C 1062.89 663.54 1092.98 666.82 1119.62 655.04 C 1137.65 650.98 1154.97 638.69 1160.47 620.40 C 1162.13 612.10 1152.27 607.33 1152.28 599.11 C 1149.12 588.14 1160.31 577.72 1170.95 580.62 C 1180.17 584.23 1187.19 592.03 1187.00 602.51 L 1187.00 613.44 C 1179.62 639.99 1155.65 657.37 1132.14 669.15 C 1048.74 704.81 953.08 690.59 870.31 661.29 C 808.43 645.15 753.39 609.93 700.34 576.16 C 746.72 547.81 792.33 517.86 844.10 499.95 C 871.77 489.88 900.19 481.82 928.80 474.72 Z" />
<path fill="#000000" opacity="1.00" d=" M 519.48 467.22 C 527.78 467.35 537.25 476.39 536.95 484.73 C 534.71 490.18 524.04 481.31 526.67 491.44 C 520.28 501.30 513.54 483.08 511.69 477.27 C 507.92 469.72 520.01 474.57 519.48 467.22 Z" />
<path fill="#000000" opacity="1.00" d=" M 664.37 467.28 C 670.04 464.88 667.33 476.09 674.63 472.24 C 680.00 479.97 660.93 507.35 659.76 486.26 C 642.51 490.46 653.95 469.39 664.37 467.28 Z" />
<path fill="#000000" opacity="1.00" d=" M 589.84 474.37 C 600.31 469.66 603.76 486.10 613.72 481.06 C 619.47 482.34 618.88 494.88 626.03 488.91 C 634.09 482.20 638.27 496.79 647.08 491.05 C 656.36 490.04 658.71 500.84 660.35 507.52 C 667.84 509.53 667.38 517.18 666.32 523.39 C 671.20 524.72 681.44 525.11 679.15 533.68 C 682.15 538.17 691.46 538.65 691.56 545.53 C 694.21 552.22 684.79 557.81 689.92 564.00 C 692.55 569.29 685.84 572.85 683.27 576.82 C 686.40 579.72 691.86 583.51 690.31 588.34 C 684.01 595.84 698.53 606.51 688.08 613.05 C 676.98 615.93 680.71 631.77 666.36 628.87 C 667.53 635.97 667.82 643.37 659.87 646.06 C 660.20 657.35 650.09 665.77 639.22 660.94 C 634.45 668.08 627.56 664.99 621.20 662.26 C 618.97 669.01 613.69 674.51 606.27 671.10 C 600.76 681.32 586.21 681.30 580.66 671.16 C 572.80 674.94 568.35 668.78 565.83 662.25 C 559.38 665.63 552.64 667.97 547.77 661.08 C 536.67 666.03 526.97 657.17 527.13 646.08 C 519.83 643.52 519.24 636.32 520.68 629.61 C 515.80 628.28 505.56 627.89 507.85 619.32 C 504.85 614.83 495.53 614.34 495.44 607.47 C 492.78 600.78 502.20 595.18 497.08 589.00 C 494.44 583.70 501.16 580.15 503.73 576.18 C 500.58 573.27 495.14 569.49 496.69 564.66 C 502.99 557.16 488.46 546.49 498.92 539.95 C 510.02 537.07 506.29 521.22 520.64 524.13 C 519.46 517.02 519.17 509.63 527.13 506.94 C 526.80 495.64 536.90 487.22 547.78 492.06 C 552.53 484.91 559.44 488.01 565.80 490.74 C 568.57 486.71 570.18 479.14 576.83 481.16 C 582.65 483.74 584.36 475.26 589.84 474.37 M 575.42 523.48 C 573.42 529.86 571.48 536.26 568.97 542.46 C 561.63 543.05 553.99 541.62 546.89 543.17 C 550.00 549.81 551.43 556.82 553.68 563.71 C 547.74 567.74 542.59 572.86 536.14 576.14 C 541.58 580.21 547.84 584.94 553.68 589.29 C 551.44 596.16 549.99 603.13 546.94 609.78 C 553.87 611.16 561.66 610.19 568.98 610.54 C 571.98 616.63 572.75 624.41 576.11 629.91 C 582.30 627.96 586.74 621.34 593.14 619.12 C 599.96 620.68 604.47 627.96 610.89 629.91 C 614.25 624.41 614.99 616.62 618.03 610.54 C 625.37 609.94 633.00 611.37 640.11 609.83 C 636.99 603.18 635.57 596.18 633.32 589.29 C 639.26 585.26 644.40 580.14 650.86 576.86 C 645.42 572.79 639.16 568.06 633.32 563.71 C 635.56 556.84 637.00 549.86 640.06 543.22 C 633.13 541.83 625.34 542.81 618.02 542.46 C 615.04 536.32 614.22 528.75 610.94 523.10 C 605.04 525.73 599.90 530.90 593.87 533.93 C 587.09 532.12 581.88 524.15 575.42 523.48 Z" />
<path fill="#000000" opacity="1.00" d=" M 387.32 509.14 C 411.61 511.19 435.28 519.08 459.48 519.41 C 474.72 522.43 465.55 550.46 451.51 543.65 C 431.24 530.15 406.63 521.49 387.32 509.14 Z" />
<path fill="#000000" opacity="1.00" d=" M 796.45 509.36 C 797.60 509.28 799.44 508.42 800.17 509.77 C 779.21 521.33 757.39 529.54 737.28 542.47 C 722.84 553.29 711.35 522.66 727.51 519.41 C 750.61 518.97 773.40 512.67 796.45 509.36 Z" />
<path fill="#000000" opacity="1.00" d=" M 470.96 529.26 C 478.19 531.05 490.23 526.85 493.77 535.43 C 496.11 541.10 483.45 539.49 488.41 544.59 C 495.92 559.47 463.15 547.19 467.55 539.55 C 473.58 537.49 467.28 532.54 470.96 529.26 Z" />
<path fill="#000000" opacity="1.00" d=" M 708.40 529.67 C 714.38 527.46 719.99 530.64 716.21 536.74 C 732.38 544.56 689.76 561.06 698.59 544.59 C 703.55 539.49 690.87 541.09 693.22 535.43 C 694.94 528.82 703.47 531.20 708.40 529.67 Z" />
<path fill="#000000" opacity="1.00" d=" M 578.25 531.32 C 582.43 529.58 589.27 540.93 580.83 539.66 C 575.24 543.63 577.44 534.65 578.25 531.32 Z" />
<path fill="#000000" opacity="1.00" d=" M 606.42 531.13 C 610.90 529.99 611.87 544.70 606.17 539.66 C 597.96 540.12 604.28 533.62 606.42 531.13 Z" />
<path fill="#000000" opacity="1.00" d=" M 555.29 548.08 C 558.05 546.58 567.86 549.69 561.92 553.00 C 559.80 559.91 553.71 552.26 555.29 548.08 Z" />
<path fill="#000000" opacity="1.00" d=" M 584.21 548.16 C 589.04 549.63 593.99 555.16 598.83 549.86 C 606.08 543.51 603.70 558.58 610.64 557.49 C 617.55 555.71 619.66 561.37 616.69 566.61 C 613.63 572.68 629.60 575.01 620.61 579.59 C 613.11 582.16 618.88 589.76 617.24 594.34 C 608.87 592.80 605.56 598.80 602.79 604.84 C 597.96 603.37 593.01 597.84 588.17 603.14 C 580.92 609.48 583.29 594.42 576.36 595.51 C 569.44 597.28 567.33 591.63 570.31 586.39 C 573.36 580.32 557.40 577.99 566.39 573.41 C 573.89 570.83 568.11 563.24 569.76 558.66 C 578.13 560.19 581.44 554.20 584.21 548.16 Z" />
<path fill="#000000" opacity="1.00" d=" M 626.66 548.31 C 634.86 543.66 632.01 556.40 627.15 555.96 C 624.98 553.32 620.28 549.06 626.66 548.31 Z" />
<path fill="#000000" opacity="1.00" d=" M 552.84 572.33 C 556.06 572.41 555.74 584.67 550.30 579.77 C 543.36 578.26 546.62 572.40 552.84 572.33 Z" />
<path fill="#000000" opacity="1.00" d=" M 633.17 572.27 C 636.77 571.70 645.28 576.91 638.16 579.18 C 631.42 585.24 631.53 575.19 633.17 572.27 Z" />
<path fill="#000000" opacity="1.00" d=" M 558.36 597.09 C 561.61 597.30 567.05 604.44 560.34 604.69 C 552.60 608.60 554.94 599.26 558.36 597.09 Z" />
<path fill="#000000" opacity="1.00" d=" M 626.52 597.44 C 631.68 594.93 635.23 609.81 626.55 604.77 C 620.60 603.74 624.69 600.42 626.52 597.44 Z" />
<path fill="#000000" opacity="1.00" d=" M 482.68 601.34 C 491.04 597.58 491.21 607.18 486.93 611.04 C 491.22 612.44 497.11 616.33 491.78 620.91 C 485.73 622.14 465.02 628.99 470.79 616.26 C 459.54 609.80 476.47 604.31 482.68 601.34 Z" />
<path fill="#000000" opacity="1.00" d=" M 698.58 601.23 C 705.41 600.31 728.57 608.95 716.21 616.27 C 724.37 630.92 683.25 623.56 696.07 613.00 C 704.84 612.04 692.97 605.34 698.58 601.23 Z" />
<path fill="#000000" opacity="1.00" d=" M 456.59 608.20 C 467.99 609.83 472.41 630.75 459.49 633.59 C 436.39 634.03 413.60 640.33 390.55 643.64 C 389.07 644.49 384.04 643.43 388.90 642.09 C 411.97 631.36 433.78 618.84 456.59 608.20 Z" />
<path fill="#000000" opacity="1.00" d=" M 728.50 608.30 C 753.11 617.38 775.71 632.38 800.18 643.24 C 776.33 642.96 751.78 633.44 727.52 633.59 C 715.28 630.67 718.64 612.61 728.50 608.30 Z" />
<path fill="#000000" opacity="1.00" d=" M 577.90 612.01 C 594.89 614.12 571.29 630.56 577.90 612.01 Z" />
<path fill="#000000" opacity="1.00" d=" M 608.37 612.36 C 612.36 612.55 608.61 627.86 604.49 619.50 C 598.78 614.88 604.19 613.68 608.37 612.36 Z" />
<path fill="#000000" opacity="1.00" d=" M 499.28 639.41 C 501.91 639.20 504.57 640.33 507.15 639.19 C 484.33 695.90 461.05 754.10 423.56 803.56 C 406.99 824.84 391.20 846.92 372.56 866.56 C 359.80 885.82 339.51 897.38 323.39 913.39 C 277.38 946.62 222.47 978.70 163.59 968.51 C 148.69 965.51 134.62 958.20 127.97 944.03 C 117.86 932.07 129.62 908.62 146.15 914.58 C 156.42 918.70 158.14 931.55 157.59 941.22 C 165.19 953.55 182.66 954.11 195.66 954.56 C 249.54 943.96 292.24 906.48 332.92 871.92 C 398.04 815.46 442.10 738.49 476.96 660.94 C 383.48 671.19 287.81 693.15 209.21 747.24 C 170.80 771.71 131.32 799.15 109.81 840.53 C 107.65 852.77 102.48 868.01 111.81 878.34 C 121.60 880.88 134.58 887.67 133.66 899.67 C 131.80 916.61 105.93 918.48 98.72 904.27 C 74.47 875.18 93.86 834.62 110.09 806.14 C 137.52 767.74 174.60 736.75 215.78 713.85 C 228.99 702.04 247.16 699.69 262.23 691.22 C 315.28 670.01 370.64 650.59 428.05 646.43 C 451.33 641.47 475.79 643.13 499.28 639.41 Z" />
<path fill="#000000" opacity="1.00" d=" M 679.83 639.19 C 718.25 641.17 756.35 645.42 794.64 650.27 C 840.65 660.03 885.74 674.50 928.78 693.23 C 970.96 708.85 1008.60 735.13 1041.55 765.44 C 1066.47 788.43 1087.88 817.20 1096.35 850.28 C 1100.55 869.21 1103.26 892.17 1086.30 906.25 C 1078.81 918.73 1055.58 915.52 1053.51 900.45 C 1051.58 891.45 1059.77 885.51 1066.38 881.28 C 1085.93 879.24 1080.46 854.58 1077.32 841.18 C 1054.26 795.82 1009.72 767.45 968.12 740.90 C 891.41 691.13 799.65 671.42 710.02 660.96 C 746.56 742.96 794.28 823.60 864.72 881.26 C 900.46 910.79 937.98 942.07 984.12 952.87 C 998.92 956.54 1019.15 954.50 1029.23 941.99 C 1026.91 927.91 1036.64 906.76 1053.86 915.92 C 1074.04 931.62 1053.29 961.08 1033.56 965.58 C 972.02 983.36 912.01 948.26 863.61 913.40 C 848.91 898.32 829.77 887.85 817.61 870.38 C 774.31 821.16 733.45 768.45 708.88 707.16 C 696.67 685.72 690.01 661.68 679.83 639.19 Z" />
<path fill="#000000" opacity="1.00" d=" M 523.10 658.31 C 529.21 658.25 524.34 670.57 532.14 666.26 C 543.76 667.90 531.40 680.76 526.14 684.20 C 519.01 689.83 518.12 678.98 511.03 679.76 C 512.92 672.17 514.95 661.29 523.10 658.31 Z" />
<path fill="#000000" opacity="1.00" d=" M 663.20 658.16 C 671.67 660.66 674.28 671.95 675.97 679.81 C 672.53 681.26 668.09 680.04 667.82 685.03 C 660.01 689.68 640.93 666.66 655.68 666.44 C 662.33 669.58 657.96 659.29 663.20 658.16 Z" />
<path fill="#000000" opacity="1.00" d=" M 560.74 678.72 C 576.43 740.04 592.08 802.51 588.81 866.36 C 589.20 927.16 584.42 989.67 558.60 1045.65 C 540.00 1093.75 505.11 1145.33 450.16 1153.00 L 447.46 1153.00 C 439.86 1148.72 430.52 1148.10 423.68 1142.31 C 418.86 1133.51 415.82 1119.55 427.37 1114.25 C 439.26 1107.84 449.24 1119.98 455.91 1128.11 C 469.49 1132.63 483.88 1123.56 494.47 1115.47 C 508.26 1098.84 522.30 1081.49 528.18 1060.20 C 575.77 951.48 575.55 827.73 548.36 713.77 C 478.79 777.32 414.56 851.58 382.54 941.54 C 365.85 983.40 350.22 1028.60 357.75 1074.23 C 362.16 1085.85 368.66 1103.40 383.34 1103.42 C 393.63 1099.27 409.68 1099.05 413.09 1112.20 C 416.37 1121.72 406.95 1129.84 399.32 1133.51 C 378.67 1135.13 358.73 1121.77 351.72 1102.31 C 328.60 1057.62 337.71 1004.69 350.38 958.30 C 366.21 898.28 402.58 846.94 438.04 797.06 C 472.89 751.71 516.12 714.05 560.74 678.72 Z" />
<path fill="#000000" opacity="1.00" d=" M 625.88 678.09 C 653.70 698.34 677.65 723.01 703.72 745.26 C 742.77 785.73 775.73 831.68 803.42 880.54 C 816.67 895.91 819.38 916.62 829.09 933.95 C 847.64 988.60 861.48 1051.87 833.82 1105.77 C 826.43 1121.32 811.08 1132.72 793.72 1133.71 C 780.22 1135.75 766.40 1116.99 777.27 1106.21 C 785.75 1095.04 799.91 1105.36 810.50 1102.61 C 839.13 1080.04 833.62 1038.04 825.17 1006.84 C 818.53 969.84 801.72 935.80 787.87 901.13 C 752.31 828.88 697.93 767.57 638.70 713.78 C 607.90 837.46 613.12 973.47 671.39 1088.58 C 684.50 1105.18 696.83 1126.58 720.21 1128.93 C 733.36 1133.86 736.22 1117.03 746.88 1113.78 C 759.54 1107.62 773.55 1123.68 765.96 1135.84 C 763.94 1148.43 748.31 1147.23 739.67 1153.00 L 737.02 1153.00 C 697.51 1148.26 665.73 1117.24 647.17 1083.82 C 624.78 1047.58 612.85 1006.31 603.71 964.95 C 599.49 925.48 597.33 886.08 597.55 846.33 C 598.42 788.91 613.05 733.60 625.88 678.09 Z" />
<path fill="#000000" opacity="1.00" d=" M 504.90 681.50 C 513.44 680.57 521.64 688.00 521.35 696.51 C 519.98 703.56 511.80 704.68 508.24 710.26 C 493.25 723.22 481.08 739.20 465.91 751.90 C 474.90 730.06 488.76 711.13 497.01 689.05 C 497.66 685.03 501.12 682.25 504.90 681.50 Z" />
<path fill="#000000" opacity="1.00" d=" M 678.88 681.52 C 689.73 679.80 690.74 693.25 695.04 700.06 C 702.06 718.09 714.16 733.51 721.04 751.92 C 702.32 736.08 687.67 715.40 667.80 701.17 C 661.88 693.18 670.10 682.42 678.88 681.52 Z" />
<path fill="#000000" opacity="1.00" d=" M 586.31 683.22 C 591.00 682.14 592.80 693.30 596.02 685.99 C 609.05 674.79 606.58 715.21 593.88 706.13 C 582.58 713.20 578.59 688.46 586.31 683.22 Z" />
<path fill="#000000" opacity="1.00" d=" M 588.73 710.70 C 595.96 709.16 607.08 711.52 606.52 720.84 C 599.59 744.83 598.86 769.51 593.89 793.92 C 589.84 779.78 588.18 762.09 586.59 746.54 C 586.28 735.51 572.52 715.96 588.73 710.70 Z" />
</svg>
