<?xml version="1.0" encoding="UTF-8" standalone="no"?>
<svg id="svg5361" xmlns:rdf="http://www.w3.org/1999/02/22-rdf-syntax-ns#" xmlns="http://www.w3.org/2000/svg" height="192.96mm" width="204.1mm" version="1.1" xmlns:cc="http://creativecommons.org/ns#" xmlns:dc="http://purl.org/dc/elements/1.1/" viewBox="0 0 723.17932 683.72623">
<g id="layer1" transform="translate(-1102.9 -363.88)">
<path id="path98" d="m561.58 0c-148.46 77.85-175.26 51.87-213.63 248.85 0.5 1.41 1.01 2.84 1.52 4.3 32.81-187.03 58.34-162.83 196.96-238.79-93.43 120.01 28.02 194.14-90.09 260.04 61-51.5-17.67-109.58 51.99-200.75-113.3 63.42-134.59 43.87-160.13 197.19 0.42 1.09 0.85 2.19 1.27 3.3 21.44-145.5 41.72-127.31 147.44-189.05-76.31 103.75 45.08 159.59-94.58 218.22 0.99-0.14 1.95-0.27 2.93-0.41 18.06-7.29 31.98-14.62 42.67-22.07v-0.01c147.96-68.99 8.86-151.18 113.65-280.82zm-410.19 14.793c-26.16 183.59-13.64 229.86 60.64 262.87 13.28 11.61 31.75 19.36 56.17 27.17-181.64 15.52-61.5 53.78-268.2 135.55 127.34 39.85 184.33 73.69 242.4 30.99-50.4 28.9-105.15-0.02-217.01-32.79 192.46-80.25 80.21-114.23 248.25-132.03 8.29 2.57 17.21 5.18 26.84 7.97-158.86 15.68-54.71 42.32-217.62 111.99 99.43 28.16 144.27 53.15 188.34 18.86-38.42 23.44-81.42 2.21-168.72-20.8 152.15-68.38 53.66-91.67 202.92-109.17-11.56-3.11-22.03-5.98-31.58-8.87-1.68-0.95-3.61-1.87-5.53-1.71 1.8 0.57 3.64 1.14 5.51 1.71-1.87-0.57-3.71-1.14-5.51-1.71-69.74-22.06-83.85-48.07-69.69-195.31 99.92 112.66 105.74 54.83 143.89 147.04-40.03-104.04-46.2-39.65-151.43-162.76-12.61 109.95-9.18 156.3 19.7 182.75-60.39-29.91-70.44-77.73-50.19-241.19 124.97 148.92 134.53 74.5 180.52 194.85-48-135.69-58.23-52.81-189.7-215.41zm303.72 260.61c-0.61 0.51-1.24 1.01-1.88 1.51 0.64-0.5 1.27-1 1.88-1.51zm-3.69 2.9c-0.67 0.49-1.34 0.99-2.03 1.48 0.69-0.49 1.36-0.99 2.03-1.48zm121.3 18.87c45.61 15.82 75.8 50.91 133.1 111.11-104.18-39.63-147.84 61.25-259.71-5.36 79.91 34.7 115.88-36.15 196.27-6.4-51.19-52.83-76.37-81.97-119.12-93.02 35.64 11.28 59.76 37.81 105.4 83.21-91.87-32.1-120.41 72.4-237.73-24.12 4.14 4.81 8.03 9.35 11.68 13.66 2.82 2.18 5.58 4.22 8.3 6.18 1.14 1.41 2.43 2.99 3.54 4.37 142.44 116.86 189.11-13.4 308.73 34.63-64.2-69.98-95.67-108.48-150.46-124.26zm-241.69 72.9c-3.52 6.37-6.93 12.29-10.26 17.82-35.92 102.36 59.94 114.61 54.68 219.17 50.91-93.16 79.52-121.09 71.87-155.42 0.9 28.56-24.68 58.26-66.3 137.85 3.29-103.08-95.89-109.12-49.99-219.42zm-8.75 6.23c-4.76 8.09-9.37 15.61-13.87 22.65-49.96 130.82 73.31 150.02 62.84 284.78 69-118.44 106.9-153.47 98.24-198.04 0.15 36.89-33.9 74.31-90.44 175.56 7.89-132.92-119.9-144.21-56.77-284.95zm97.81 12.42c0.11 0.06 0.21 0.13 0.31 0.2-0.1-0.07-0.2-0.14-0.31-0.2zm4.5 2.85l0.45 0.27-0.45-0.27zm4.39 2.62c0.24 0.15 0.49 0.28 0.73 0.43-0.24-0.15-0.49-0.28-0.73-0.43zm4.38 2.47c0.28 0.16 0.56 0.3 0.85 0.46-0.29-0.16-0.57-0.3-0.85-0.46zm4.28 2.26c0.36 0.18 0.71 0.35 1.06 0.53-0.35-0.18-0.7-0.35-1.06-0.53zm4.28 2.1c0.31 0.15 0.62 0.28 0.93 0.43-0.31-0.15-0.62-0.28-0.93-0.43z" transform="translate(1102.9 363.88)"/>
</g>
</svg>
