<?xml version="1.0" encoding="UTF-8" standalone="no"?>
<svg id="svg5972" xmlns:rdf="http://www.w3.org/1999/02/22-rdf-syntax-ns#" xmlns="http://www.w3.org/2000/svg" height="287.46mm" width="284.46mm" version="1.1" xmlns:cc="http://creativecommons.org/ns#" xmlns:dc="http://purl.org/dc/elements/1.1/" viewBox="0 0 1007.9373 1018.5641">
<g id="layer1" transform="translate(-127.05 276.51)">
<g id="g4150">
<path id="path5279" d="m551.17-276.51c-82.403 226.94-136.16 226.51 12.258 470.99l4.8043 1.6394c-143.42-226.93-92.84-227.66-19.25-442.5 17.334 221.65 223.36 179.45 155.32 371.58l4.2254-3.2493c76.83-203.59-143.24-162.44-157.36-398.46zm428.24 281.6c-48.32-0.3993-87.02 5.7375-126.5 25.26 64.19-27.57 130.7-19.512 250.69-11.028-147.15 58.1-100.3 203.9-272.52 245.25l9.6338 7.0226c183.79-40.54 136.86-196.3 294.29-255.14-63.8-5.693-113.4-11.009-155.59-11.358zm-569.11 134.07c-51.94-0.15-92.8 29.26-283.25 0.21 191.27 280.78 234.13 265.87 424.26 178.57-205.52 216.15-25.69 126.67-171.03 424.12 174.96-81.57 268.88-101 289.36-203.22-25.73 80-112.46 102.49-263.98 176.52 131.7-282.5-36.04-195.17 153.7-402.17-177.47 85.45-217.57 100.23-402.45-160.78 278.58 37.287 216.75-51.283 382.67 32.096-66.359-35.455-99.707-45.264-129.27-45.347zm516.12 193.45c36.137 39.288 36.233 112.5 74.544 275.9-107.73-133.12-236.29-59.11-312.56-189.7-0.87985 3.7421-2.072 7.3847-3.6888 10.889 78.171 144.11 217.25 66.012 329.79 210.44-41.7-193.91-35.35-268.33-88.08-307.54z" fill="#ff3000"/>
<path id="path5281" d="m553.48-184.71c-59.51 188.47-103.49 189.87 26.6 384.88l3.4944 1.1958c-126.5-180.17-85.08-182.8-33.35-361.75 22.88 179.71 187.92 138.71 143 295.11l4.3268-4.1493c50.66-163.38-124.53-124.76-144.07-315.29zm383.79 215.02c-40.46-0.337-72.31 2.735-102.47 14.188 45.17-14.184 97.2-11.09 180.4-9.257-117.38 53.091-74.61 169.42-210.56 210.94l8.4042 5.9789c144.2-40.66 102.3-164.61 227.76-217.71-40.7-1.891-74.35-3.898-103.53-4.14zm-481.2 129.55c-44.174 0.43386-74.116 27.665-234.81 10.103 121.37 162.84 172.49 199.37 250.67 176.83-66.152 14.749-116.23-23.388-227.08-164.79 230.2 19.492 175.53-50.814 315.86 11.552l5.0282 1.7197c-56.77-27.73-85.43-35.65-109.67-35.41zm124.94 137.85c-2.4645 1.3377-4.6525 2.4999-7.0521 3.7986-159.99 183.36-16.376 104.25-124.77 352.26 131.7-68.352 206.84-89.378 226.38-161.56-23.7 56.033-92.189 79.363-204.47 141.16 96.655-236.72-37.312-158.49 109.91-335.66zm307.32 7.7324c25.93 32.493 30.873 92.973 66.288 216.65-93.125-104.3-195.01-39.622-262.71-141.6-0.32429 4.5384-0.52003 9.1318-0.72253 13.728 69.141 106.16 177.73 42.243 272.9 154.21-38.6-148.35-38.43-211.03-75.76-242.99z" fill="#ff4e00"/>
<path id="path5283" d="m557.2-94.626c-37.803 151.07-72.379 153.35 40.94 302.19-146.31-63.325-81.502 0.6928-283.89-9.0803 100.43 118.97 142.52 146.55 200.56 127.69-46.537 10.002-87.524-18.831-175.51-115.79 187.71 2.3364 125.59-54.788 263.15-1.0056-109.85-134.04-77.92-137.3-47.93-278.43 27.26 135.42 149.74 96.627 126.59 215.39l4.3902-4.2085c29.08-126.59-104.16-89.822-128.3-236.75zm391.52 148.26c-73.06 1.038-117.22-0.155-155.69 15.491 32.03-10.288 70.5-10.978 128.9-13.902-86.64 46.962-48.25 133.13-148.19 172.79l6.2282 2.9324 4.1535 2.5944c106.88-39.35 69.91-132.9 164.6-179.91zm-106.09 219.4c0.006 0.006 0.013 0.0108 0.0216 0.0173-0.004-0.006-0.009-0.0108-0.013-0.0173h-0.009zm0.0216 0.0173c19.361 24.494 27.397 70.519 59.734 158.85-76.435-74.102-150.29-20.629-207.62-91.902 0.00022 0.47889 0.0216 0.95776 0 1.4366-0.0216 4.2172-0.22493 8.4321-0.4986 12.642 58.95 76.036 139.92 22.964 218.8 105.11-37.07-113.74-40.03-162.82-70.41-186.15zm-239.17 7.4662c-2.7451 1.7568-5.2218 3.3105-7.8592 4.9902-115.25 149.77-7.3376 81.815-80.181 280.5 98.952-59.227 156.57-79.4 169.05-135.73 0 0.0244-0.0216 0.0506-0.0338 0.0759-0.11033 0.22986-0.20357 0.46442-0.31691 0.69298 0 0.013-0.0216 0.0242-0.0253 0.0381-17.814 39.933-67.921 62.064-146.35 112.91 61.018-186.87-37.381-119.46 65.713-263.47z" fill="#ff6c00"/>
<path id="path5285" d="m560.26-23.064c-20.32 120.39-47.195 124.37 50.307 233.65 1.1167 0.34517 2.1485 0.64847 3.2998 1.0099-93.89-99.77-68.88-104.07-52.87-216.99 31.68 115.72 142.64 59.331 104.73 195.23 0.62132-1.0607 1.2156-2.041 1.8296-3.0803 42.5-141.64-76.8-85.66-107.3-209.82zm315.28 92.029c-63.004 5.8243-98.623 7.4073-129.73 26.645 26.716-14.069 58.884-16.591 111.65-22.876-65.431 41.499-31.24 106.89-106.31 143.68l6.7987 3.262c81.03-37.32 46.45-108.18 117.6-150.72zm-336.84 125.26c-32.982 0.74968-41.309 23.56-150.55 26.81 91.41 92.572 124.73 108.06 173.47 83.536-40.552 17.728-73.405 0.65168-155.22-77.945 144.24-8.0983 98.747-47.795 199.02-17.628-33.528-11.247-52.485-15.095-66.723-14.772zm264.74 51.266c18.844 17.101 26.772 53.078 58.995 125.34-64.449-54.437-119.91-7.9066-169.07-61.652 0.25636 3.1253 0.4885 6.2511 0.68017 9.3803 50.935 57.34 111.33 10.019 178.41 69.782-37.139-89.555-41.583-127.38-69.017-142.85zm-184.91 22.132c-2.3739 1.7596-4.5304 3.3312-6.7987 5.0028 0.83745-0.58638 1.5838-1.0983 2.4338-1.6944-82.079 125.52-1.2392 64.976-46.192 225.26 76.378-54.219 120.67-72.99 124.47-121.33-8.657 36.853-48.151 56.592-111.47 104.1 38.003-150.67-35.946-92.189 37.555-211.33z" fill="#ff8a00"/>
<path id="path5287" d="m564.32 19.574c-10.845 101.54-33.067 106.27 53.785 192.47 1.3798 0.31608 2.6947 0.60898 4.141 0.95071-81.576-75.035-61.643-79.958-55.302-172.01 32.302 91.53 118.55 39.566 95.882 151.44 0.67693-1.3735 1.3292-2.6613 1.9944-3.993 27.58-119.25-68.8-66.97-100.5-168.86zm268.01 60.833c-54.554 8.411-84.485 11.463-110.17 31.192 20.705-12.814 46.484-16.729 88.564-24.849-50.714 37.546-18.548 88.751-78.571 122.81l8.5225 3.2831c67.233-35.239 34.073-93.08 91.653-132.44zm-271.07 121.54c-31.055 0.71403-33.065 21.606-128.28 30.249 83.709 75.05 111.5 84.611 153.05 58.606-31.916 17.082-59.328 5.3981-130.32-53.586 114.98-14.819 77.508-43.853 157.56-26.273-25.226-6.7633-40.623-9.2576-52.01-8.9958zm217.13 28.378c15.441 13.165 24.267 41.661 53.726 96.685-55.639-40.506-97.923 1.2812-141.09-40.927 0.19037 1.4438 0.37361 2.8889 0.53673 4.3352 0.52095 2.386 0.90625 4.7054 1.2254 6.9846 45.648 46.357 93.857 3.1869 153.2 49.91-36.879-75.593-41.584-106.52-67.602-116.99zm-149.11 27.613c-2.8007 2.407-5.4098 4.6283-8.024 6.8493 1.0367-0.82338 1.9769-1.5595 3.038-2.4042-62.17 109.01 2.2724 54.333-27.123 190.49 62.909-50.677 99.257-68.172 97.745-111.47-5.4764 29.504-35.977 47.824-83.633 89.265 21.888-123.8-34.377-72.297 17.996-172.72z" fill="#ffa800"/>
<path id="path5289" d="m571.81 69.573c-0.87422 78.458-17.387 84.047 54.6 143.18 1.2292 0.15295 2.2549 0.24933 3.5577 0.42253-64.45-48.379-50.385-53.382-52.462-120.44 29.995 63.88 88.633 20.038 80.329 102.62 1.517-4.0528 2.9881-7.83 4.4324-11.425 7.3878-82.92-59.579-40.688-90.457-114.36zm210.32 27.051c-42.652 10.811-65.547 15.275-84.14 33.757 13.657-9.2481 31.471-13.893 59.202-22.179-34.111 30.96-6.8307 65.826-48.52 94.889l11.037 3.038c51.387-32.13 20.628-74.663 62.421-109.5zm-192.48 112.83c-31.158 0.41602-24.315 18.262-103.12 33.076 88.751 65.475 100.28 56.301 149.15 9.1395-39.75 88.291 5.7334 41.564-6.8493 148.3 51.659-50.435 79.185-64.082 62.417-110.02 5.0522 28.178-17.019 42.79-53.468 81.503 6.8714-91.149-30.105-49.812 0.51554-126.26-39.842 41.824-49.312 50.028-127.07-2.4338 76.706-17.791 56.264-34.92 101.5-31.454-9.6643-1.351-17.099-1.9306-23.083-1.8507zm154.39 4.8676c12.196 8.3519 20.616 28.342 46.006 66.157-42.203-24.704-69.493 6.4992-102.71-17.649 0.25722 2.6953 0.45755 5.4121 1.0014 7.855 0.10817 0.29119 0.19038 0.57654 0.29141 0.86622 39.396 35.653 73.615-3.0605 123.58 29.079-37.686-61.576-40.754-83.609-68.164-86.307z" fill="#ffc600"/>
<path id="path5291" d="m584.52 115.27c5.0498 55.785-6.4 60.705 49.589 97.779 1.3554-0.0195 2.5814-0.0595 4.0773-0.0593-48.238-27.096-39.117-31.78-46.597-77.227 26.193 40.764 62.134 5.6223 63.951 62.574 0.38206-1.6606 0.75849-3.1359 1.1366-4.6902 1.2072-64.699-44.433-27.424-72.157-78.376zm150.66 3.9972c-30.04 10.954-45.949 15.746-57.85 30.926 8.4322-7.3589 20.063-12.115 37.948-20.155-23.63 27.959 9.244 52.037-40.441 80.278 8.8182-3.1708 15.676-5.5431 21.27-7.031 38.207-27.034 11.31-55.641 39.072-84.017zm-16.251 86.024c7.9068 5.7369 15.903 18.192 34.293 39.017-35.772-15.017-51.227 19.017-83.81-11.941 5.805 6.876 10.11 12.741 13.149 17.987 29.948 21.143 51.298-7.9495 88.568 10.994-29.873-39.249-34.5-54.956-52.2-56.058zm-102.44 7.1113c-33.634 0.17329-18.61 13.217-79.821 31.297 55.147 32.625 70.234 33.664 90.921 12.832-13.062 10.086-28.222 6.8692-67.534-12.676 53.794-20.249 33.072-30.032 72.879-30.79-6.5047-0.45232-11.964-0.68648-16.445-0.6634zm30.27 21.62c-1.3824 1.8998-2.6904 3.6947-3.9635 5.4127-21.756 65.288 7.0394 28.975 5.8226 105.35 29.943-35.843 47.968-48.682 39.533-74.282-1.2256 13.514-13.357 25.893-30.321 49.496-3.5642-62.654-24.995-31.182-11.071-85.978z" fill="#ffe400"/>
<path id="path5293" d="m666.74 224.93c26.775 27.813 15.92 33.624-4.3837 66.156-5.733-46.721-20.233-22.115-12.491-63.812-15.896 25.144-19.849 30.247-64.415 11.604 40.948-18.546 21.677-24.628 56.973-26.926-37.435-17.924-30.837-21.872-38.657-55.523 21.599 29.23 46.783 1.1682 50.929 43.706 6.0222-37.118 12.75-38.863 41.369-54.047-16.317 22.086 9.4674 38.5-26.339 62.07 34.747-15.119 28.205-10.311 60.334 21.61-27.51-9.4892-37.416 16.739-63.32-4.8379" fill="#ff0"/>
</g>
</g>
</svg>
