<?xml version="1.0" encoding="UTF-8" standalone="no"?>
<!-- Created with Inkscape (http://www.inkscape.org/) -->

<svg
   xmlns:dc="http://purl.org/dc/elements/1.1/"
   xmlns:cc="http://creativecommons.org/ns#"
   xmlns:rdf="http://www.w3.org/1999/02/22-rdf-syntax-ns#"
   xmlns:svg="http://www.w3.org/2000/svg"
   xmlns="http://www.w3.org/2000/svg"
   xmlns:sodipodi="http://sodipodi.sourceforge.net/DTD/sodipodi-0.dtd"
   xmlns:inkscape="http://www.inkscape.org/namespaces/inkscape"
   id="svg4196"
   version="1.1"
   inkscape:version="0.91 r13725"
   width="243.75"
   height="645.9375"
   viewBox="0 0 243.75 645.9375"
   sodipodi:docname="AlpLily.svg">
  <metadata
     id="metadata4202">
    <rdf:RDF>
      <cc:Work
         rdf:about="">
        <dc:format>image/svg+xml</dc:format>
        <dc:type
           rdf:resource="http://purl.org/dc/dcmitype/StillImage" />
        <dc:title></dc:title>
      </cc:Work>
    </rdf:RDF>
  </metadata>
  <defs
     id="defs4200" />
  <sodipodi:namedview
     pagecolor="#ffffff"
     bordercolor="#666666"
     borderopacity="1"
     objecttolerance="10"
     gridtolerance="10"
     guidetolerance="10"
     inkscape:pageopacity="0"
     inkscape:pageshadow="2"
     inkscape:window-width="1600"
     inkscape:window-height="837"
     id="namedview4198"
     showgrid="false"
     inkscape:zoom="1.0372521"
     inkscape:cx="121.875"
     inkscape:cy="322.96875"
     inkscape:window-x="-8"
     inkscape:window-y="-8"
     inkscape:window-maximized="1"
     inkscape:current-layer="svg4196" />
  <path
     style="fill:#000000"
     d="m 117.1875,645.38601 c 0,-0.30332 1.26563,-3.28588 2.8125,-6.62791 1.54688,-3.34203 2.8125,-6.50921 2.8125,-7.03816 0,-0.52896 0.75457,-2.08156 1.67681,-3.45022 0.92225,-1.36865 2.45774,-4.80878 3.41221,-7.64472 0.95447,-2.83594 2.09833,-5.55703 2.54194,-6.04688 0.4436,-0.48984 0.79568,-1.75546 0.78243,-2.8125 -0.0157,-1.25657 -0.83843,-0.33618 -2.37643,2.65877 -1.29377,2.51936 -4.60269,7.15998 -7.35314,10.3125 -5.05398,5.7928 -8.34434,11.09709 -7.55268,12.1755 0.23725,0.32319 0.14625,0.37281 -0.20221,0.11028 -0.34847,-0.26253 -1.67135,0.47575 -2.93974,1.64063 -2.18233,2.00423 -2.25173,2.01313 -1.29261,0.16585 0.55745,-1.07366 1.6694,-2.49641 2.47098,-3.16167 0.80159,-0.66526 1.45744,-1.62561 1.45744,-2.13412 0,-1.30797 8.63054,-12.90836 9.60365,-12.90836 0.44249,0 1.43071,-1.37109 2.19603,-3.04688 0.76533,-1.67578 2.62992,-5.05078 4.14353,-7.5 1.5136,-2.44921 2.52727,-4.45312 2.2526,-4.45312 -1.63532,0 -10.79966,5.08172 -13.4802,7.4749 -1.74808,1.56068 -3.48788,2.8376 -3.86624,2.8376 -0.37836,0 -2.9093,2.84766 -5.62432,6.32812 -6.41369,8.22193 -6.35931,8.16263 -6.94717,7.57476 -1.52145,-1.52145 18.3045,-22.34038 21.27484,-22.34038 0.55397,0 2.38924,-0.85414 4.07839,-1.89809 l 3.07117,-1.89808 -2.68897,-5.3811 c -3.46531,-6.9347 -5.84706,-16.17602 -5.84985,-22.69773 -0.002,-4.35992 0.74049,-6.60878 4.80682,-14.56147 2.64495,-5.17286 5.45421,-11.50098 6.24279,-14.0625 1.88589,-6.12588 2.938,-21.41272 1.66133,-24.13874 -0.53603,-1.14457 -1.47971,-5.03417 -2.09706,-8.64354 -1.38368,-8.08967 -2.49563,-11.9911 -4.85449,-17.03265 -1.96919,-4.20872 -3.33374,-10.6236 -2.2598,-10.6236 0.36211,0 1.31128,0.6529 2.10927,1.45089 1.93974,1.93975 2.85138,0.8811 1.04265,-1.21077 -0.78294,-0.9055 -2.99184,-4.35994 -4.90866,-7.67653 -1.91682,-3.31659 -5.15252,-7.92442 -7.19046,-10.23964 -4.25349,-4.83223 -3.7211,-6.80631 1.16081,-4.30417 1.73502,0.88926 3.46454,2.08533 3.84336,2.6579 0.49083,0.7419 0.6929,0.7202 0.70313,-0.0755 0.007,-0.6141 -0.44394,-1.39979 -1.00408,-1.74598 -0.56012,-0.34618 -3.76377,-6.38279 -7.1192,-13.41469 -3.35544,-7.03191 -6.46918,-13.4181 -6.91943,-14.19154 -0.45024,-0.77344 -3.03964,-5.41406 -5.75421,-10.3125 -2.714571,-4.89844 -5.676114,-10.17188 -6.581214,-11.71875 -0.905098,-1.54688 -4.14657,-7.875 -7.203273,-14.0625 -6.045476,-12.2375 -11.682533,-22.46372 -16.736276,-30.36141 -1.776942,-2.77689 -4.168868,-6.7847 -5.315391,-8.90625 -2.344775,-4.3388 -10.043971,-17.12758 -13.358386,-22.18899 -1.19993,-1.8324 -2.18169,-3.65489 -2.18169,-4.04997 0,-0.39508 -1.918953,-3.87949 -4.26434,-7.74312 -4.409632,-7.26416 -13.828801,-25.84279 -15.011507,-29.60913 -0.369796,-1.17763 -2.006644,-4.25052 -3.637439,-6.82864 -2.957226,-4.67509 -6.517402,-11.8434 -11.174726,-22.5 -1.352081,-3.09375 -3.34346,-9.42188 -4.425286,-14.0625 C 10.092377,250.82812 7.8052131,241.33594 6.0916159,234.375 2.4618286,219.63016 2.0638789,216.03127 1.2193682,190.3125 0.39656055,165.25467 0.40094691,161.38605 1.2629497,151.875 1.6601714,147.49219 2.3579498,139.6875 2.8135685,134.53125 4.6165827,114.12648 9.4128666,81.238276 11.315355,76.234354 11.795034,74.9727 12.1875,72.837677 12.1875,71.489857 c 0,-2.575578 3.137268,-13.632956 5.295123,-18.66279 C 18.17968,51.202266 18.75,49.474113 18.75,48.986727 c 0,-2.112444 3.062291,-6.752156 4.826008,-7.311937 3.859582,-1.224985 3.966836,0.674253 0.991409,17.555594 -1.574154,8.931101 -3.113765,19.824303 -3.421357,24.207116 -0.307592,4.382812 -1.172832,11.554687 -1.922754,15.9375 -0.749922,4.38281 -2.004338,17.06611 -2.78759,28.1851 -1.439855,20.44007 -1.070066,39.96591 1.330472,70.2524 0.993235,12.53118 5.988382,38.09706 8.540157,43.70973 0.966706,2.12629 2.176571,5.71222 2.688589,7.96875 1.67003,7.36002 5.488837,17.0958 9.331613,23.79027 2.071861,3.60937 4.786364,8.46094 6.032229,10.78125 7.14466,13.30628 11.868736,21.68843 13.737452,24.375 2.72434,3.91666 19.367004,34.81091 26.796683,49.74345 1.169782,2.35109 4.484925,8.35914 7.366982,13.35124 2.88206,4.99209 5.240107,9.42588 5.240107,9.85285 0,0.42698 3.58461,5.94025 7.96579,12.25174 4.38118,6.31147 8.45252,12.39938 9.04743,13.52869 1.23873,2.3515 11.05063,17.59245 12.08746,18.77564 0.37829,0.43167 0.35212,-1.04489 -0.0581,-3.28125 -0.41026,-2.23636 -1.00449,-11.23799 -1.32052,-20.00361 -0.49137,-13.62924 -1.26893,-24.68796 -2.80151,-39.84375 -1.81149,-17.91414 -2.60978,-28.62607 -3.35354,-45 -0.48013,-10.57031 -1.34483,-25.75781 -1.92155,-33.75 -0.57672,-7.99219 -0.86522,-21.07031 -0.64111,-29.0625 0.35467,-12.64807 0.18235,-15.05768 -1.32967,-18.59335 -0.95544,-2.23415 -1.73716,-4.75387 -1.73716,-5.59936 0,-0.8455 -2.42578,-5.05555 -5.39062,-9.35565 -2.96485,-4.30012 -5.8125,-8.5286 -6.32813,-9.39662 -0.51562,-0.86802 -1.67629,-2.70055 -2.57925,-4.07229 -0.902963,-1.37175 -3.057347,-4.95949 -4.787531,-7.97278 C 92.621793,196.99667 89.390707,191.36719 87.171781,187.5 78.687609,172.71362 75.849709,166.22957 71.37448,151.40625 c -2.233912,-7.3994 -5.976092,-26.80463 -5.29957,-27.48116 0.923005,-0.92301 3.624597,2.30465 5.335232,6.37413 5.494962,13.07214 16.533756,35.06507 20.946325,41.73203 2.388886,3.60937 5.879911,9.09375 7.757823,12.1875 1.87792,3.09375 5.53841,8.41843 8.13443,11.83263 2.59601,3.41419 5.22257,7.00013 5.83677,7.96875 0.89879,1.41739 1.1616,-0.892 1.34655,-11.83263 0.458,-27.09251 1.42672,-41.27469 3.81017,-55.78125 1.01662,-6.1875 2.22707,-14.54565 2.68988,-18.57367 0.46283,-4.02802 1.08834,-7.72306 1.39003,-8.2112 0.30168,-0.48815 -2.1858,1.18206 -5.52774,3.71157 -3.34195,2.52952 -8.53706,5.52458 -11.5447,6.65573 -7.135764,2.68368 -13.68842,2.01013 -25.142025,-2.58436 -8.765138,-3.51605 -7.882603,-3.40018 -29.894322,-3.92497 -2.791538,-0.0666 -0.293778,-2.36493 3.952749,-3.63722 1.994216,-0.59749 5.479695,-2.6858 7.745508,-4.64073 5.932031,-5.11808 12.166636,-9.893509 14.386391,-11.019325 1.258078,-0.638073 1.920769,-1.894966 1.920769,-3.643029 0,-3.594742 2.406684,-5.073936 5.533083,-3.400738 2.118543,1.133809 2.97033,1.002807 7.918662,-1.217873 3.049624,-1.368589 7.519335,-2.758988 9.932705,-3.089776 l 4.38792,-0.601433 -3.23601,-3.380238 C 101.97531,76.989857 99.890569,74.203125 99.122372,72.65625 97.503103,69.395633 93.75,54.967223 93.75,52.002724 93.75,45.555249 87.793249,28.879638 83.54612,23.4375 c -2.073813,-2.657319 -3.433898,-6.565949 -2.281171,-6.55566 0.421466,0.0038 3.233549,2.308807 6.249074,5.122321 3.015525,2.813514 6.390524,5.391586 7.499999,5.729047 1.109475,0.337463 2.755509,1.261866 3.657853,2.054231 1.481285,1.300749 1.817485,1.280606 3.461715,-0.207406 1.74828,-1.582171 1.91698,-1.552198 4.21875,0.749585 1.31872,1.31871 2.39766,3.0348 2.39766,3.813534 0,0.778733 0.78228,1.834539 1.73839,2.346237 3.50032,1.873313 18.1503,16.606388 20.81442,20.932486 1.5083,2.449219 3.00572,4.453125 3.3276,4.453125 0.32188,0 -0.11363,-1.066604 -0.9678,-2.370231 -1.78149,-2.718896 -1.02362,-5.215293 0.81848,-2.696064 1.01879,1.393266 1.25846,0.993219 1.79181,-2.990774 1.12086,-8.372475 10.18905,-24.573843 21.20235,-37.880431 1.92042,-2.320312 4.92646,-6.8504631 6.68009,-10.0670014 4.56462,-8.3725331 5.44928,-7.9153091 6.78063,3.5045014 0.21039,1.804688 1.36141,8.554687 2.55781,15 1.34824,7.263322 2.17561,15.283161 2.17617,21.093929 8.3e-4,8.678267 -0.22043,9.810728 -2.97653,15.234375 -1.63758,3.222558 -2.81479,5.859196 -2.61601,5.859196 0.19877,0 2.61814,-1.050566 5.37637,-2.334592 2.75824,-1.284025 6.64176,-2.338712 8.63006,-2.34375 2.61329,-0.0067 4.62388,-0.808136 7.25543,-2.892362 4.33766,-3.435493 6.95696,-3.323433 6.90776,0.295532 l -0.0342,2.517083 5.65921,-0.570378 c 3.11258,-0.313707 8.13996,-1.352512 11.17197,-2.308455 5.97065,-1.882439 11.83101,-2.289703 11.83101,-0.82219 0,1.242357 -3.62066,3.497445 -6.91828,4.308977 -3.67578,0.904592 -9.40154,6.838667 -15.58172,16.148593 -7.34455,11.063969 -11.7907,16.132167 -17.22177,19.631208 -2.61044,1.681809 -5.04855,3.057834 -5.41804,3.057834 -0.36948,0 0.79187,1.55192 2.58077,3.44871 3.53009,3.74298 8.33144,10.87491 13.49654,20.04776 1.80469,3.20499 5.25834,7.98333 7.67479,10.61852 2.41644,2.6352 4.09826,5.09225 3.73736,5.46015 -0.36089,0.36788 -2.33798,0.07 -4.39354,-0.66198 -2.33643,-0.83199 -7.63625,-1.34629 -14.13871,-1.37201 -7.42332,-0.0293 -11.8732,-0.52672 -15.54207,-1.73709 -5.06887,-1.67223 -17.17634,-9.06745 -19.57284,-11.95506 -1.0674,-1.28614 -1.38448,-0.88145 -2.39108,3.0518 -0.63826,2.49402 -4.75238,10.92588 -9.1425,18.73746 -5.73168,10.19871 -8.26484,15.7328 -8.98519,19.62953 -0.55174,2.98467 -1.3808,5.80429 -1.84235,6.26584 -1.34727,1.34727 -2.19912,-4.55196 -1.51209,-10.47151 0.67688,-5.83199 -1.09896,-14.6888 -4.12966,-20.59625 l -1.65095,-3.21802 -0.85144,8.79795 c -0.46829,4.83887 -0.8519,18.29014 -0.85246,29.8917 -9.4e-4,22.12191 2.04436,89.33167 2.938,96.53822 0.46516,3.75125 0.63456,3.99271 1.60305,2.28506 1.44336,-2.54493 5.68686,-8.14086 10.95638,-14.44828 2.36929,-2.83594 5.31758,-6.63281 6.55178,-8.4375 1.2342,-1.80469 4.62375,-5.8125 7.53232,-8.90625 2.90857,-3.09375 6.34404,-7.212 7.63438,-9.15167 1.29034,-1.93966 3.99127,-5.28719 6.00206,-7.43895 3.64824,-3.90397 8.07283,-9.2297 18.59908,-22.38704 3.06245,-3.82791 7.9973,-9.98484 10.96634,-13.68206 6.68043,-8.31886 10.86241,-16.03211 12.35771,-22.7926 0.93103,-4.20937 1.53356,-5.22847 3.23537,-5.47226 2.6742,-0.38309 2.75569,2.05579 0.34348,10.27895 -0.96129,3.27697 -2.53279,8.70032 -3.49224,12.05188 -3.80614,13.29577 -22.8092,42.14211 -39.75998,60.35502 -4.38281,4.70915 -9.64887,10.66902 -11.70235,13.24416 -2.05348,2.57514 -5.45718,6.64622 -7.56377,9.04684 -4.8239,5.49719 -15.44122,22.90856 -18.49059,30.32273 -3.18734,7.74964 -4.92573,19.64261 -3.57327,24.44596 0.56975,2.02347 1.23615,8.5306 1.4809,14.46029 1.62887,39.46443 1.71739,40.81525 3.25608,49.6875 0.49183,2.83594 1.56184,12.32812 2.37779,21.09375 1.8176,19.5261 5.07739,40.65324 6.62978,42.96847 1.04731,1.56195 1.2142,1.43386 1.83238,-1.40625 0.37407,-1.7186 1.25903,-3.95687 1.96658,-4.97395 0.70756,-1.01706 1.28647,-2.83431 1.28647,-4.03833 0,-1.20401 0.95919,-3.95779 2.13154,-6.11953 3.15342,-5.81467 10.493,-25.03137 13.85449,-36.27416 3.69304,-12.35176 4.63559,-15.47143 6.08976,-20.15625 0.64021,-2.0625 1.90041,-6.28125 2.80044,-9.375 0.90003,-3.09375 1.97131,-6.46875 2.38063,-7.5 0.40931,-1.03125 1.18769,-3.35156 1.72971,-5.15625 0.54204,-1.80469 2.25743,-7.45267 3.81198,-12.55107 1.55454,-5.09841 2.82645,-10.0504 2.82645,-11.00441 0,-0.95403 1.23394,-5.64199 2.74209,-10.41768 2.79055,-8.83655 6.20055,-22.35947 9.0453,-35.87059 0.86851,-4.125 1.89992,-7.92188 2.29201,-8.4375 0.3921,-0.51563 1.42782,-4.10156 2.30161,-7.96875 0.8738,-3.86719 2.18615,-9.00895 2.91635,-11.42616 0.7302,-2.41719 1.32764,-5.02991 1.32764,-5.80603 0,-0.77612 1.26562,-5.18877 2.8125,-9.80588 1.54687,-4.61711 2.8125,-9.77453 2.8125,-11.46092 0,-1.68639 0.39546,-5.63198 0.8788,-8.76797 0.48334,-3.13598 1.36613,-9.07679 1.96175,-13.20179 0.59563,-4.125 2.08667,-12.98438 3.31342,-19.6875 1.22676,-6.70313 2.51085,-14.71875 2.85353,-17.8125 0.34267,-3.09375 1.00222,-6.10793 1.46567,-6.69819 0.46344,-0.59026 0.73675,-1.43401 0.60736,-1.875 -0.25225,-0.8597 1.64907,-13.37321 2.97072,-19.55181 0.44119,-2.0625 1.05945,-6.70313 1.37392,-10.3125 1.13602,-13.03906 4.2928,-27.27912 6.94147,-31.31266 1.25313,-1.90832 1.65083,-6.103837 2.13735,-22.547216 0.74139,-25.057789 3.31088,-40.358874 6.77742,-40.358874 1.94323,0 2.58572,3.768319 2.54357,14.918578 -0.0749,19.807079 -1.55518,32.737888 -4.58036,40.010419 -2.46933,5.936273 -2.87949,8.394543 -3.83236,22.968753 -0.58689,8.97655 -1.4907,18.0085 -2.00846,20.071 -0.51777,2.0625 -1.54061,7.96875 -2.27299,13.125 -0.73238,5.15625 -1.76435,11.48437 -2.29327,14.0625 -0.52891,2.57812 -1.66077,8.69531 -2.51523,13.59375 -1.50528,8.62943 -9.29766,40.05355 -12.11996,48.87582 -0.76442,2.38952 -1.39145,6.1864 -1.39342,8.4375 -0.002,2.25112 -0.63904,7.8898 -1.41572,12.53043 -0.77668,4.64062 -1.64802,12.23437 -1.9363,16.875 -0.55435,8.92348 -2.83963,22.01007 -6.54855,37.5 -1.23463,5.15625 -2.69315,11.90625 -3.24118,15 -0.54804,3.09375 -1.3778,7.3125 -1.84392,9.375 -1.38637,6.13441 -1.74043,8.01493 -3.26539,17.34375 -1.54042,9.42334 -1.71257,10.13622 -5.99936,24.84375 -1.50288,5.15625 -3.46428,12.32812 -4.35864,15.9375 -1.89507,7.64796 -7.44924,22.84078 -12.76292,34.91166 -0.96219,2.18579 -1.74945,4.40635 -1.74945,4.93459 0,0.52825 -0.40093,1.693 -0.89094,2.58835 -0.49003,0.89535 -2.55379,5.42477 -4.58614,10.0654 -2.03235,4.64062 -5.00643,11.29572 -6.60906,14.7891 -3.90252,8.50668 -3.67097,9.57176 0.74507,3.4271 5.92018,-8.2376 9.68545,-12.27807 10.59457,-11.36895 0.94975,0.94975 -0.44483,4.57874 -3.71099,9.65677 -2.48692,3.86651 -8.79489,16.77723 -8.19708,16.77723 0.21846,0 2.05933,-2.42578 4.09082,-5.39063 3.73319,-5.44838 11.00972,-13.11239 11.73603,-12.36095 0.49108,0.50806 -1.70083,4.85071 -6.02167,11.93029 -2.14464,3.51391 -3.73704,7.71012 -4.5026,11.86496 -0.65146,3.53556 -1.73716,7.52445 -2.41266,8.86418 -0.67551,1.33975 -2.65715,7.92027 -4.40365,14.6234 -2.82174,10.82995 -3.15313,13.37477 -2.97507,22.84628 0.26784,14.2468 1.8622,19.48987 8.0691,26.53536 8.65323,9.82233 12.70748,17.84214 13.42479,26.55586 0.61833,7.51158 -0.34695,13.25256 -3.74522,22.27459 l -2.38696,6.33709 2.0627,1.29967 c 1.13449,0.71482 3.1174,1.59359 4.40646,1.95283 l 2.34375,0.65317 -2.34375,-1.72015 c -1.28906,-0.94607 -2.71192,-1.60069 -3.16189,-1.45471 -0.44998,0.14599 -0.57915,-0.35737 -0.28704,-1.11858 0.2921,-0.76122 0.0275,-1.56446 -0.58811,-1.78499 -0.61557,-0.22053 -0.77738,-0.76541 -0.35958,-1.21082 0.41779,-0.44543 4.21467,2.76635 8.4375,7.13727 4.22283,4.37092 9.57631,9.63705 11.89662,11.70249 4.67516,4.16165 7.5,7.51066 7.5,8.89169 0,0.49878 -2.25743,-1.29901 -5.01653,-3.99509 -8.67431,-8.47622 -14.99462,-13.4142 -19.35847,-15.12453 -2.32031,-0.9094 -4.95703,-2.31627 -5.85938,-3.12637 C 165.73828,605.99721 165,605.7389 165,606.2333 c 0,1.34174 5.67642,6.47172 9.02781,8.15873 3.09358,1.55724 6.15596,5.91475 7.26655,10.33969 0.36509,1.45461 3.17206,5.20807 6.23771,8.34102 5.99659,6.12822 6.85805,8.00588 1.72628,3.76267 -4.50233,-3.72277 -6.45684,-6.24125 -10.28781,-13.25636 -2.28193,-4.17858 -4.40497,-6.74376 -6.5625,-7.92916 -1.75411,-0.96375 -4.77132,-3.27736 -6.70491,-5.14135 -4.53577,-4.37249 -4.52183,-2.93906 0.0248,2.55612 1.94727,2.3535 4.08305,5.51704 4.74617,7.03008 1.5365,3.50588 5.12464,8.07585 10.41282,13.26212 4.69084,4.60043 4.85142,6.21563 0.26077,2.62291 -3.26922,-2.55857 -12.39773,-14.2021 -12.39773,-15.81349 0,-0.54523 -2.11151,-3.30179 -4.69226,-6.12568 l -4.69226,-5.13435 1.5156,3.75 c 0.83359,2.0625 3.41017,6.27503 5.72575,9.3612 2.31557,3.08616 5.18871,7.54234 6.38477,9.90263 1.19605,2.3603 2.84036,4.84395 3.65402,5.51923 2.0875,1.73247 1.84777,3.13632 -0.336,1.96759 -0.99846,-0.53435 -3.14473,-3.60779 -4.76948,-6.82985 -1.62475,-3.22207 -4.50701,-7.75674 -6.40503,-10.07705 -1.898,-2.32031 -4.26839,-5.78413 -5.26753,-7.69736 -0.99913,-1.91324 -1.97,-3.32522 -2.1575,-3.13773 -0.18748,0.18749 0.4939,1.97719 1.51418,3.97711 1.02028,1.99992 2.31411,6.11952 2.8752,9.15467 0.56107,3.03514 1.7219,6.29389 2.5796,7.24163 2.32239,2.56622 0.97629,2.99887 -1.41404,0.45447 -1.39164,-1.48132 -2.21445,-3.82518 -2.54928,-7.26192 -0.33348,-3.42275 -1.3915,-6.44789 -3.2503,-9.29337 -3.37713,-5.16977 -3.47176,-4.18772 -0.43419,4.50646 2.45218,7.0187 2.99499,11.43104 1.40625,11.43104 -0.51563,0 -0.9375,-1.69323 -0.9375,-3.76272 0,-2.0695 -0.38794,-4.49528 -0.86208,-5.39063 -2.80535,-5.29743 -4.76292,-9.83153 -4.76292,-11.03177 0,-0.75756 -0.42188,-1.37738 -0.9375,-1.37738 -1.18471,0 -1.1856,-0.0118 0.32587,4.33525 2.02557,5.82559 2.58554,8.78975 1.6605,8.78975 -0.47402,0 -1.3682,-2.11068 -1.98706,-4.69039 -0.61887,-2.57972 -1.45969,-4.89711 -1.86851,-5.14977 -1.32756,-0.82049 -1.93526,4.09533 -1.01254,8.19085 1.3538,6.00896 1.86033,11.96181 1.01783,11.96181 -1.06522,0 -1.88609,-2.50485 -1.88609,-5.75528 0,-1.53419 -0.47824,-4.68868 -1.06274,-7.00997 -0.80529,-3.19808 -0.7934,-4.81169 0.049,-6.66072 0.9126,-2.00292 0.85104,-2.70094 -0.3435,-3.8955 -1.31543,-1.31542 -1.46601,-0.87278 -1.5664,4.60495 -0.0611,3.33315 -0.031,6.63784 0.0667,7.34376 0.0978,0.70593 -0.29827,3.44812 -0.88014,6.09375 -0.58187,2.64565 -1.25274,5.75948 -1.49084,6.91963 -0.23809,1.16016 -0.87517,2.10938 -1.41572,2.10938 -0.54054,0 -0.74853,-0.73828 -0.46218,-1.64063 1.37647,-4.33763 3.02961,-16.84676 2.43978,-18.46159 -0.51511,-1.41025 -1.12117,-0.47051 -2.68709,4.16642 -1.11206,3.29305 -2.02195,6.96015 -2.02195,8.14908 0,1.18895 -0.42188,2.16172 -0.9375,2.16172 -1.51641,0 -1.09461,-3.06891 1.47218,-10.71119 1.32532,-3.94599 2.23376,-7.68538 2.01875,-8.30979 -0.58946,-1.71185 -6.01196,7.32964 -6.74761,11.25098 -0.35349,1.88428 -2.13512,6.40729 -3.95916,10.05112 -3.71939,7.43007 -3.8349,7.60563 -4.53993,6.90061 -0.27817,-0.27817 0.5675,-2.52432 1.87928,-4.99144 1.31179,-2.46712 3.26773,-7.44953 4.34656,-11.07202 1.8835,-6.32441 3.68573,-9.98584 6.2209,-12.63836 0.65122,-0.68136 1.18403,-1.63058 1.18403,-2.10938 0,-0.47879 0.73828,-0.89727 1.64062,-0.92996 1.17177,-0.0425 0.98706,-0.3205 -0.64633,-0.97297 -3.30947,-1.32202 -5.72805,1.61446 -9.73012,11.81365 -5.17693,13.19331 -12.82667,28.24015 -12.82667,25.22976 z m 35.62503,-38.58914 c 2e-5,-0.38671 1.55158,-1.94111 3.44792,-3.4542 2.19682,-1.75286 3.23469,-2.19548 2.86031,-1.21987 -0.39549,1.03062 0.0328,1.72814 1.31023,2.13355 1.04379,0.3313 1.98039,0.45836 2.08133,0.28238 4.78677,-8.34593 8.11268,-19.06801 8.11268,-26.15368 0,-4.28362 -0.67687,-6.19703 -4.6875,-13.25092 -2.57813,-4.5344 -4.6875,-8.58931 -4.6875,-9.0109 0,-0.42161 -1.87268,-2.96044 -4.1615,-5.64186 -2.28881,-2.68143 -4.69387,-6.34761 -5.34457,-8.14709 -1.18329,-3.27231 -3.24726,-4.72806 -2.31266,-1.63116 0.2723,0.90235 0.69533,2.8044 0.94005,4.2268 0.24471,1.42238 0.71158,3.42629 1.03748,4.45312 0.33448,1.05385 0.16451,1.86696 -0.39026,1.86696 -0.54055,0 -1.23099,-1.16016 -1.53432,-2.57813 -0.30331,-1.41796 -0.86404,-3.42187 -1.24604,-4.45312 -1.1006,-2.97109 -1.27025,-15.5454 -0.26932,-19.96132 0.77364,-3.41314 0.71242,-3.85813 -0.4034,-2.93208 -1.00913,0.8375 -1.31546,0.81996 -1.31546,-0.0753 0,-0.93112 -0.28433,-0.93112 -1.40625,0 -1.14651,0.95152 -1.40625,0.9003 -1.40625,-0.27728 0,-0.7944 0.28471,-2.18631 0.63269,-3.09313 0.58799,-1.53228 0.68825,-1.52115 1.41923,0.1577 0.60587,1.39149 0.70065,1.18748 0.41255,-0.88816 -0.2057,-1.48205 0.0332,-4.16934 0.53087,-5.97177 0.6192,-2.24259 0.5852,-3.59682 -0.10774,-4.28976 -0.55693,-0.55693 -1.04687,-2.29932 -1.08874,-3.87197 l -0.0761,-2.85938 -1.28781,2.8125 c -0.78359,1.71129 -1.30439,6.20788 -1.33012,11.48438 -0.025,5.12805 -0.4254,8.67187 -0.97978,8.67187 -1.15702,0 -1.19483,-0.38636 -1.04012,-10.62955 0.0688,-4.55719 0.58463,-9.14437 1.14623,-10.19373 0.5616,-1.04935 1.18772,-6.18012 1.39137,-11.4017 0.28397,-7.28098 0.1479,-8.83824 -0.58382,-6.68127 -0.52476,1.54688 -0.85623,4.66879 -0.73661,6.93758 0.18435,3.49642 -0.0962,4.24111 -1.84074,4.88647 -1.58255,0.58542 -2.29015,0.32805 -3.06171,-1.11362 -0.55191,-1.03125 -0.74126,-2.70116 -0.42077,-3.71092 0.32047,-1.00976 0.1446,-3.20866 -0.39085,-4.88646 -0.53544,-1.67781 -1.63109,-5.20261 -2.43476,-7.83291 -0.80367,-2.63029 -2.05966,-5.58342 -2.79107,-6.5625 -1.10145,-1.47441 -1.08127,-0.81534 0.11752,3.83752 0.79605,3.08971 1.83693,6.34556 2.31307,7.23524 0.47614,0.88967 1.07018,5.32913 1.32008,9.86547 0.24991,4.53634 0.87519,9.71519 1.38953,11.50857 0.51433,1.79338 0.93515,9.30008 0.93515,16.68158 0,8.70853 0.32917,13.21745 0.9375,12.84148 0.51562,-0.31867 0.9375,0.31544 0.9375,1.40915 0,3.65052 -2.88502,11.61364 -8.12354,22.42233 -3.25656,6.71927 -5.45996,12.65456 -5.91658,15.9375 -0.89902,6.46343 -0.24793,11.61193 1.38901,10.98377 0.81376,-0.31227 1.19856,0.6195 1.23506,2.99058 0.10194,6.62385 5.04354,14.35881 10.75703,16.83772 3.19046,1.38423 3.47152,1.39805 3.47152,0.17078 0,-0.53181 -0.73828,-1.22731 -1.64063,-1.54554 -2.40183,-0.84709 -5.83382,-4.97815 -6.4321,-7.74228 -0.28588,-1.32083 -0.91184,-3.63911 -1.39101,-5.15174 -0.63074,-1.99108 -0.54465,-2.95245 0.31188,-3.48281 1.30671,-0.80911 2.92403,3.43306 2.12684,5.57861 -0.24943,0.67131 -0.10355,1.00428 0.32417,0.73993 0.85813,-0.53035 5.25869,4.95041 4.54653,5.66257 -0.24443,0.24443 -1.33627,-0.68938 -2.42631,-2.07513 -1.30772,-1.6625 -1.98187,-2.03123 -1.98187,-1.08399 0,1.5047 5.9703,7.2548 7.53262,7.2548 0.49768,0 0.90488,0.63281 0.90488,1.40625 0,2.10273 2.50348,1.69565 4.16559,-0.67735 1.45001,-2.07018 1.45941,-2.06414 1.45941,0.9375 0,2.3961 0.3879,3.0211 1.875,3.0211 1.03125,0 1.87501,-0.31641 1.87503,-0.70312 z m -3.56726,-8.20312 c 0.0191,-1.54688 0.22921,-2.06619 0.46691,-1.15403 0.23769,0.91216 0.22206,2.17778 -0.0348,2.8125 -0.25681,0.63471 -0.45129,-0.11159 -0.43218,-1.65847 z m 10.75214,-0.31105 c 0.17329,-0.6867 0.31509,-2.0578 0.31509,-3.04688 0,-0.98907 0.38238,-1.79832 0.84973,-1.79832 0.46735,0 0.67465,0.94922 0.46068,2.10937 -0.21399,1.16016 0.52117,0.21094 1.63366,-2.10937 2.98881,-6.23373 2.97604,-20.24752 -0.0241,-26.42588 -1.61633,-3.32862 -2.51357,-4.251 -3.69885,-3.80246 -1.33406,0.50483 -1.31034,0.3355 0.16082,-1.14803 1.87958,-1.89538 2.03892,-1.78406 4.84196,3.38284 3.55321,6.54969 3.27391,24.27319 -0.4782,30.34424 -1.11697,1.80728 -2.38066,3.06977 -2.80821,2.80554 -0.42755,-0.26423 -0.95518,-0.1614 -1.17252,0.22853 -0.21735,0.38994 -0.25338,0.14713 -0.0801,-0.53958 z m -5.49059,-2.52588 c -0.26231,-0.26231 0.5016,-2.47349 1.69756,-4.91375 1.19596,-2.44024 2.18768,-5.1502 2.2038,-6.02211 0.035,-1.89217 1.90432,-3.31816 1.90432,-1.4527 0,4.64949 -4.32206,13.87218 -5.80568,12.38856 z m -4.4328,-4.74119 c 0.045,-1.09214 0.26713,-1.31428 0.5664,-0.56641 0.27081,0.67675 0.23751,1.48536 -0.074,1.79688 -0.31153,0.31152 -0.5331,-0.2422 -0.4924,-1.23047 z m 11.4692,-3.69842 c 0.22556,-2.0771 0.10575,-5.78205 -0.26625,-8.23323 -0.46765,-3.08147 -0.35919,-4.35202 0.35146,-4.1175 1.39691,0.46101 1.84637,12.4439 0.5436,14.49309 -0.83214,1.30892 -0.9573,0.88252 -0.62881,-2.14236 z m -19.45146,-2.49653 c -0.7537,-1.80385 -1.3581,-5.84177 -1.34312,-8.97316 0.0219,-4.57994 0.41028,-6.02939 1.98576,-7.41111 1.91053,-1.67557 1.93879,-1.6717 1.15304,0.15734 -1.31539,3.06192 -1.63434,12.47416 -0.53005,15.64193 1.4312,4.10554 0.40377,4.58043 -1.26563,0.585 z M 150,586.40625 C 150,585.63281 150.42187,585 150.9375,585 c 0.51562,0 0.9375,0.63281 0.9375,1.40625 0,0.77344 -0.42188,1.40625 -0.9375,1.40625 -0.51563,0 -0.9375,-0.63281 -0.9375,-1.40625 z m 0.97268,-4.21875 c -0.17935,-1.28906 -0.44543,-4.11561 -0.59129,-6.2812 -0.14586,-2.16561 -0.72806,-4.80233 -1.29378,-5.85938 -0.71275,-1.33178 -0.72346,-1.92192 -0.0349,-1.92192 1.74754,0 2.91299,4.85007 2.57456,10.71414 -0.18068,3.13066 -0.47525,4.63742 -0.6546,3.34836 z m -25.34768,0 c 0,-0.51563 0.42187,-0.9375 0.9375,-0.9375 0.51563,0 0.9375,0.42187 0.9375,0.9375 0,0.51562 -0.42187,0.9375 -0.9375,0.9375 -0.51563,0 -0.9375,-0.42188 -0.9375,-0.9375 z m 0,-4.21875 c 0,-1.28906 0.42187,-2.34375 0.9375,-2.34375 0.51563,0 0.9375,1.05469 0.9375,2.34375 0,1.28906 -0.42187,2.34375 -0.9375,2.34375 -0.51563,0 -0.9375,-1.05469 -0.9375,-2.34375 z m 1.04496,-5.15625 c -0.1076,-2.82906 4.09605,-12.1875 5.47441,-12.1875 1.42472,0 1.23014,0.78588 -1.12875,4.55864 -1.16015,1.85554 -2.59248,4.85845 -3.18295,6.67315 -0.92564,2.84482 -1.08586,2.97651 -1.16271,0.95571 z m 32.0869,-0.41751 c 0.33997,-0.88596 0.61814,-2.92634 0.61814,-4.53417 0,-2.0812 0.28973,-2.63359 1.00579,-1.91753 1.38718,1.38718 0.69809,7.09569 -0.92081,7.62806 -0.92715,0.30489 -1.13687,-0.046 -0.70312,-1.17636 z m -26.56318,-4.20006 c -0.007,-1.69449 6.62569,-15.32259 7.87564,-16.17995 1.40378,-0.96287 2.43243,0.0322 2.41633,2.33723 -0.0107,1.52894 -0.22289,1.72484 -0.83008,0.76629 -0.60935,-0.96199 -1.4358,-0.22964 -3.26689,2.89486 -1.34815,2.30045 -2.45396,4.56743 -2.45736,5.03776 -0.004,0.47032 -0.84437,2.12075 -1.86882,3.66763 -1.02445,1.54687 -1.86543,2.21116 -1.86882,1.47618 z m 17.87523,-5.92931 c -2.23201,-9.83453 -2.24912,-10.07812 -0.7079,-10.07812 0.79685,0 2.37138,1.29562 3.49896,2.87916 1.90098,2.66969 1.92268,2.85725 0.29821,2.57812 -1.55866,-0.26782 -1.71658,0.24192 -1.43144,4.62084 0.17627,2.70704 0.12671,4.92188 -0.11014,4.92188 -0.23685,0 -0.93331,-2.21484 -1.54769,-4.92188 z m -5.92829,-1.01417 C 143.32859,559.26816 143.19533,555 143.94545,555 c 0.27937,0 1.43953,0.90597 2.57812,2.01327 1.52538,1.48345 1.65351,1.86706 0.48686,1.45766 -1.19676,-0.41996 -1.65452,0.0613 -1.875,1.97111 -0.24449,2.11792 -0.40544,2.24887 -0.99481,0.80941 z m -0.9375,-17.86667 c -0.38671,-2.52119 -0.67638,-5.89619 -0.64369,-7.5 0.0582,-2.85766 0.0778,-2.86995 0.97853,-0.61405 0.50551,1.26609 0.79518,4.64109 0.6437,7.5 l -0.27541,5.19802 -0.70313,-4.58397 z M 143.4375,526.875 c 0,-2.0625 0.35272,-3.75 0.78382,-3.75 0.43109,0 0.84992,1.6875 0.93075,3.75 0.0808,2.0625 -0.27191,3.75 -0.78382,3.75 -0.51191,0 -0.93075,-1.6875 -0.93075,-3.75 z m 7.1869,-24.53353 c -0.27791,-1.06274 0.0532,-1.71647 0.86962,-1.71647 1.63327,0 1.74268,-1.57632 0.14661,-2.11222 -0.91266,-0.30643 -0.92998,-0.89398 -0.0783,-2.65624 1.53327,-3.17243 2.3054,-6.97431 1.18989,-5.8588 -1.1746,1.1746 -4.63127,11.05251 -4.6129,13.18197 0.0124,1.42967 0.15217,1.46598 0.99285,0.25779 0.71699,-1.03042 0.84475,-0.27876 0.47805,2.8125 -0.48303,4.07196 -0.46629,4.10722 0.48128,1.01334 0.53995,-1.76297 0.77974,-3.97782 0.53287,-4.92187 z m -18.3778,-4.30949 c -0.54378,-2.01945 -1.86472,-4.46451 -2.93541,-5.43348 -1.93005,-1.74667 -1.9291,-1.71784 0.1113,3.36675 1.13191,2.82068 2.3055,5.97225 2.60798,7.0035 1.06292,3.62389 1.26687,-1.03463 0.21613,-4.93677 z m 8.34517,-12.22794 c -0.0183,-0.87191 -0.68022,-2.63998 -1.471,-3.92904 -0.79077,-1.28906 -1.1977,-1.57097 -0.90427,-0.62645 0.29342,0.94452 0.5335,2.97332 0.5335,4.50845 0,1.62204 0.39268,2.54846 0.9375,2.21175 0.51562,-0.31868 0.92255,-1.29279 0.90427,-2.16471 z m 13.46195,-4.39779 0.55674,-2.8125 -1.32544,2.8125 c -1.49119,3.16418 -1.97518,6.74317 -0.57053,4.21875 0.43037,-0.77344 1.03302,-2.67188 1.33923,-4.21875 z m -27.98893,-5.72754 c -3.64753,-5.29605 -6.25349,-7.87469 -4.0333,-3.99103 3.42753,5.99564 6.91006,10.8295 7.21261,10.01135 0.18581,-0.50247 -1.24488,-3.21162 -3.17931,-6.02032 z m 14.2436,-1.53809 c -0.26007,-0.64453 -0.47287,-0.11718 -0.47287,1.17188 0,1.28906 0.2128,1.81641 0.47287,1.17187 0.26007,-0.64453 0.26007,-1.69921 0,-2.34375 z m 20.69151,-5.95322 c -0.59987,-0.59987 -3.08747,3.34679 -3.90008,6.1876 -0.42336,1.48 0.25162,0.85158 1.83153,-1.70522 1.37608,-2.22694 2.30692,-4.24401 2.06855,-4.48238 z m -33.17767,4.50603 c -0.29751,-1.13763 -0.90454,-2.06843 -1.34897,-2.06843 -0.44443,0 -0.3267,1.05647 0.26163,2.34772 1.26796,2.78285 1.84907,2.6336 1.08734,-0.27929 z m 26.69664,-3.74651 c 4.80615,-9.92173 4.89668,-11.31495 0.26636,-4.09922 -1.60063,2.49436 -2.91023,5.23655 -2.91023,6.09375 0,0.85721 -0.44678,1.55855 -0.99283,1.55855 -0.54606,0 -0.7321,0.42187 -0.41342,0.9375 0.95927,1.55213 1.31293,1.16002 4.05012,-4.49058 z m -6.66012,-15.88942 c 1.88759,-0.6292 8.16439,-14.45624 12.453,-27.4325 1.4485,-4.38281 3.46094,-9.86719 4.47208,-12.1875 1.01113,-2.32031 2.11616,-5.01742 2.45561,-5.99356 0.33946,-0.97614 0.86925,-1.52274 1.17733,-1.21467 0.30807,0.30807 -0.93046,4.48173 -2.7523,9.2748 -1.82182,4.79308 -3.82792,10.40218 -4.458,12.46468 -2.27975,7.46264 -6.82121,18.8031 -8.478,21.17034 -2.87771,4.11173 -5.2881,11.36236 -5.8961,17.73591 l -0.5813,6.09375 2.27006,-7.20147 c 1.24854,-3.96081 3.72245,-10.28893 5.49759,-14.0625 6.36585,-13.5325 14.73128,-33.14177 14.73128,-34.53142 0,-0.47729 0.98885,-3.09514 2.19744,-5.81745 2.57048,-5.78992 3.77894,-9.16533 5.12853,-14.32466 2.57776,-9.85449 4.68027,-17.27985 8.62732,-30.46875 4.44769,-14.86181 6.42497,-22.47796 7.42339,-28.59375 2.31639,-14.18873 3.02779,-18.00454 4.2822,-22.96875 4.65505,-18.42188 7.12687,-29.93015 7.51285,-34.97815 0.33825,-4.42383 -0.19389,-2.79499 -2.2389,6.85315 -1.47544,6.96094 -3.42127,14.76562 -4.32407,17.34375 -0.9028,2.57812 -2.63001,8.90625 -3.83824,14.0625 -1.20823,5.15625 -3.49219,14.01562 -5.07547,19.6875 -1.58328,5.67187 -3.24558,12 -3.694,14.0625 -0.94886,4.36426 -6.21375,25.45663 -7.72233,30.9375 -3.29099,11.9565 -6.57046,21.09375 -7.57082,21.09375 -0.99175,0 -0.88493,-1.65493 0.14803,-2.29333 0.47075,-0.29095 1.14028,-2.21207 1.48782,-4.26917 0.34754,-2.0571 0.94134,-3.93143 1.31956,-4.16517 0.37822,-0.23375 1.65502,-4.56018 2.83736,-9.61429 5.0026,-21.38447 15.12806,-61.55988 20.5095,-81.37679 0.98016,-3.60938 2.51402,-10.14844 3.40858,-14.53125 0.89457,-4.38281 2.05759,-9.99543 2.58451,-12.47248 1.21887,-5.72994 0.30416,-6.85145 -1.18012,-1.44692 -0.61562,2.24161 -2.15592,7.62474 -3.42288,11.96254 -1.26697,4.33778 -2.71247,10.45497 -3.21223,13.59375 -0.49976,3.13877 -2.42712,10.9803 -4.28303,17.42561 -1.8559,6.44531 -3.91126,14.03906 -4.56748,16.875 -0.65621,2.83594 -1.89381,7.47656 -2.75023,10.3125 -0.85642,2.83594 -2.72119,9.375 -4.14393,14.53125 -1.42274,5.15625 -3.28578,11.00856 -4.14008,13.00511 -0.8543,1.99657 -1.55328,4.75985 -1.55328,6.14063 0,1.38078 -0.36019,2.91129 -0.80042,3.40113 -0.44023,0.48985 -1.96558,4.6875 -3.38967,9.32813 -3.28282,10.6976 -7.37638,22.89785 -9.90864,29.53125 -1.0826,2.83594 -2.5267,6.66287 -3.2091,8.5043 -0.68241,1.84142 -2.29285,5.42736 -3.57874,7.96875 -2.88093,5.69372 -9.60337,26.544 -10.40657,32.27695 -0.37996,2.71203 0.51737,0.72476 2.51248,-5.56423 1.70694,-5.38064 3.56968,-9.93836 4.13941,-10.12827 z m -11.80681,15.05969 c -1.10516,-1.90051 -1.37204,-1.29221 -0.46737,1.06532 0.32151,0.83784 0.78205,1.32586 1.02343,1.08449 0.24138,-0.24138 -0.008,-1.2088 -0.55606,-2.14981 z m -3.43966,-3.69537 c -1.33825,-4.04982 -5.64929,-13.3092 -8.67878,-18.64057 -0.586,-1.03125 -4.8622,-9.79675 -9.50267,-19.4789 -4.64047,-9.68213 -9.49722,-18.99362 -10.79279,-20.6922 -1.29556,-1.69857 -3.847831,-6.22213 -5.671718,-10.05236 -1.823878,-3.83022 -3.700022,-7.59685 -4.169203,-8.37029 -0.469182,-0.77344 -2.430857,-4.14844 -4.359278,-7.5 -1.928421,-3.35156 -4.848755,-8.20313 -6.489633,-10.78125 -5.513956,-8.66346 -17.215942,-29.9529 -19.324035,-35.15625 -1.148956,-2.83594 -3.443008,-7.26563 -5.097893,-9.84375 -1.654886,-2.57813 -4.637017,-7.74813 -6.626957,-11.4889 -4.094232,-7.69651 -3.85432,-7.27162 -10.187438,-18.04235 -2.577065,-4.38281 -5.718492,-10.28906 -6.980949,-13.125 -1.262458,-2.83594 -2.741543,-5.78906 -3.286858,-6.5625 -1.582565,-2.24461 -8.762122,-18.51106 -10.758442,-24.375 -1.362386,-4.00184 -7.014835,-26.64476 -8.425155,-33.75 -0.93735,-4.72239 -2.8385563,-28.15373 -2.8715779,-35.39063 -0.00769,-1.67578 0.3501713,-3.04687 0.7951519,-3.04687 0.752753,0 1.270627,5.21543 2.513446,25.3125 0.477021,7.71372 5.284033,34.15982 6.90144,37.96875 0.437906,1.03125 1.960893,5.46094 3.384416,9.84375 3.02666,9.31863 15.938027,36.12588 21.773439,45.20714 2.226843,3.46549 5.753191,9.5178 7.836329,13.44959 2.083138,3.93178 5.391477,9.76925 7.351864,12.97214 1.960388,3.2029 3.887803,6.85371 4.283143,8.11291 0.666839,2.12396 7.40487,15.14846 12.339455,23.85197 1.169366,2.0625 3.040268,5.4375 4.15756,7.5 1.117291,2.0625 3.1816,5.4375 4.587353,7.5 1.405753,2.0625 3.455041,5.4375 4.553974,7.5 1.098933,2.0625 3.050612,5.4375 4.33706,7.5 1.286457,2.0625 2.719894,4.60706 3.185428,5.65459 3.620258,8.14627 5.450018,11.59527 7.434068,14.01291 2.00446,2.4425 6.89715,12.14753 19.62427,38.92625 5.43798,11.44186 5.96598,11.85905 5.31118,4.19645 -0.30738,-3.59712 -1.15223,-7.76518 -1.87743,-9.26236 -0.72521,-1.49719 -1.31889,-3.18469 -1.31929,-3.75 -0.003,-3.38791 -13.34873,-25.80228 -23.7517,-39.88969 -2.07619,-2.81152 -7.716557,-12.51464 -12.534148,-21.5625 -4.81759,-9.04786 -9.362935,-17.50534 -10.100766,-18.7944 -0.737831,-1.28906 -3.035312,-5.50781 -5.105514,-9.375 -2.070202,-3.86719 -4.362269,-8.08594 -5.093483,-9.375 -0.731213,-1.28906 -2.111914,-4.03125 -3.068223,-6.09375 -0.95631,-2.0625 -5.222124,-9.70422 -9.479586,-16.9816 -4.257462,-7.27738 -7.74084,-13.48541 -7.74084,-13.79562 0,-0.64202 -11.316182,-20.02797 -14.595634,-25.00403 -1.18937,-1.80469 -4.655747,-10.875 -7.703059,-20.15625 -7.674037,-23.37295 -11.298542,-41.31686 -14.013109,-69.375 -1.823247,-18.84534 -0.31643,-63.89503 2.931352,-87.639328 0.638288,-4.666472 0.884326,-8.161322 0.546753,-7.766334 -0.921771,1.078548 -2.789257,12.547562 -2.805948,17.232502 -0.0081,2.26086 -0.588628,6.54997 -1.290163,9.53136 -1.336203,5.67859 -2.173039,30.24381 -1.707593,50.12617 0.175005,7.47568 -0.07043,11.48438 -0.703125,11.48438 -0.5666328,0 -1.0071669,-2.63901 -1.0563636,-6.32813 -0.046414,-3.48046 -0.1155962,-8.4375 -0.1537377,-11.01562 -0.1766728,-11.94198 0.5038411,-31.74244 1.3074693,-38.04257 0.488109,-3.82658 1.086585,-8.85587 1.329945,-11.17618 0.538345,-5.13284 2.982007,-21.83271 4.321256,-29.53125 0.538192,-3.09375 1.181629,-7.734375 1.42986,-10.3125 0.24823,-2.578125 1.258126,-7.632145 2.244213,-11.231157 0.986086,-3.599011 1.783277,-7.184949 1.771537,-7.96875 -0.043,-2.870941 -2.669833,4.407654 -4.222469,11.699907 -6.83521,32.102878 -8.8353952,42.98545 -8.8739551,48.28125 -0.024403,3.35156 -0.5088694,9.04687 -1.0765909,12.65625 -1.1529179,7.32985 -1.3150932,9.54254 -1.5672624,21.38346 -0.1021214,4.79523 -0.5407152,8.03296 -1.045879,7.72076 -0.4785019,-0.29574 -1.1234487,0.26084 -1.4332152,1.23682 -1.1476924,3.61606 0.9443127,51.08011 2.7741254,62.94021 2.4901681,16.14025 4.1076252,23.28637 9.0182622,39.84375 5.079008,17.12509 3.827843,14.12391 15.437991,37.03125 1.96001,3.86719 5.341791,10.61719 7.515069,15 2.173278,4.38281 6.20425,11.85633 8.957718,16.60782 11.736532,20.25302 13.54933,23.3422 15.5432,26.48709 1.154669,1.82124 2.507458,4.15509 3.0062,5.18634 0.498741,1.03125 2.577928,4.61719 4.620415,7.96875 4.520759,7.41821 13.647404,23.43925 20.561388,36.09375 15.4273,28.23621 16.73995,30.80979 21.99584,43.125 1.1003,2.57812 3.18122,6.50162 4.62428,8.71887 1.44305,2.21725 2.62373,4.24355 2.62373,4.50287 0,0.25931 1.07682,2.03113 2.39294,3.93737 2.3893,3.46062 2.39195,3.46162 1.74006,0.65339 -0.35908,-1.54687 -1.91885,-5.34375 -3.46615,-8.4375 -5.99734,-11.9914 -10.83748,-22.96875 -10.12739,-22.96875 0.40877,0 2.38821,3.66328 4.39875,8.14062 2.01055,4.47734 4.8252,9.76026 6.2548,11.73981 1.42959,1.97955 3.62122,5.91003 4.87028,8.73438 1.24907,2.82436 2.85934,5.13519 3.57839,5.13519 0.71905,0 1.81274,1.1092 2.43044,2.4649 1.81674,3.98731 2.18247,1.92689 0.54016,-3.04307 z m -28.148,-42.47985 c -1.40314,-2.1203 -2.34023,-4.06603 -2.08242,-4.32384 0.25782,-0.25781 1.61678,1.26604 3.01992,3.38634 1.40315,2.12029 2.34024,4.06601 2.08243,4.32382 -0.25782,0.25781 -1.61678,-1.26603 -3.01993,-3.38632 z m -4.922546,-9.34573 c -1.122956,-1.99802 -2.022093,-4.20815 -1.998084,-4.91138 0.024,-0.70324 1.10775,0.76656 2.408316,3.2662 2.835494,5.44974 2.495164,6.81462 -0.410232,1.64518 z M 87.9583,389.34994 c -1.197378,-2.00185 -2.684377,-4.46749 -3.304444,-5.4792 -2.829246,-4.61627 -9.695118,-18.51698 -9.327518,-18.88458 0.33772,-0.33772 3.699939,5.30022 7.089981,11.88884 2.307427,4.48454 7.031791,12.82946 7.841423,13.85078 0.520821,0.657 0.706345,1.43513 0.412278,1.7292 -0.294068,0.29407 -1.514342,-1.1032 -2.71172,-3.10504 z M 71.876483,360.40359 c -0.877685,-1.84052 -1.16376,-3.07939 -0.63572,-2.75305 1.364849,0.84353 3.966724,6.09946 3.019448,6.09946 -0.433366,0 -1.506044,-1.50589 -2.383728,-3.34641 z M 67.03125,352.5 c -0.849478,-1.64271 -1.333568,-3.19768 -1.075756,-3.45549 0.257813,-0.25782 1.163778,0.87528 2.013256,2.51799 0.849478,1.64271 1.333568,3.19768 1.075756,3.45549 -0.257813,0.25782 -1.163778,-0.87528 -2.013256,-2.51799 z m -8.808519,-17.6602 c -1.600627,-2.49436 -2.910231,-4.84413 -2.910231,-5.22171 0,-0.37758 -1.211099,-2.45002 -2.691332,-4.60542 -1.480232,-2.15541 -5.068475,-8.55955 -7.973872,-14.23142 -2.905398,-5.67188 -6.518815,-12.42188 -8.029816,-15 -2.81261,-4.79898 -4.341109,-7.87025 -10.031293,-20.15625 -1.791064,-3.86719 -3.657676,-7.76953 -4.148028,-8.67188 -0.502855,-0.92534 -0.525927,-1.64062 -0.05292,-1.64062 0.461243,0 1.553994,1.58203 2.428336,3.51562 0.874341,1.9336 2.756224,5.83594 4.18196,8.67188 1.425738,2.83594 3.148229,6.63281 3.82776,8.4375 0.67953,1.80469 1.73774,3.91406 2.351576,4.6875 1.264959,1.59385 8.558848,15.00179 13.533561,24.87796 1.827552,3.62819 4.216949,7.84694 5.309772,9.375 1.092825,1.52806 2.886865,4.46579 3.986759,6.52829 1.099892,2.0625 2.683003,4.69922 3.518021,5.85937 0.835019,1.16016 1.088863,2.10938 0.564098,2.10938 -0.524765,0 -2.263722,-2.04084 -3.864348,-4.5352 z M 16.141593,249.63943 c -2.1628,-5.72232 -3.954833,-11.95022 -3.968208,-13.79081 -0.0078,-1.0683 -0.622059,-3.62987 -1.365101,-5.69237 -1.3582756,-3.77024 -1.9418015,-9.72727 -0.8454481,-8.63092 0.5858721,0.58588 1.0711961,2.65098 3.1299791,13.31842 0.597084,3.09375 1.941973,8.08239 2.988641,11.08588 1.891384,5.42745 1.944352,8.69505 0.06014,3.7098 z M 6.3177945,194.76562 c -0.2731544,-3.73828 -0.1317318,-7.42968 0.3142724,-8.20312 0.5028945,-0.87209 0.8217455,1.70966 0.8394249,6.79687 0.01568,4.51172 -0.1257431,8.20313 -0.3142724,8.20313 -0.1885292,0 -0.5662705,-3.05859 -0.8394249,-6.79688 z m -0.1462796,-10.8898 c -0.4038479,-0.65344 -0.4810868,-1.44125 -0.1716419,-1.7507 0.8390259,-0.83902 1.7538443,0.39497 1.3006752,1.75449 -0.3175547,0.95266 -0.5383756,0.95192 -1.1290333,-0.004 z m -0.3637505,-8.09457 c 0.019106,-1.54688 0.2292174,-2.06619 0.4669144,-1.15403 0.2376969,0.91215 0.2220648,2.17778 -0.034738,2.8125 -0.256803,0.63471 -0.4512823,-0.1116 -0.4321763,-1.65847 z m -0.1087512,-5.70312 c 0.044985,-1.09214 0.2671315,-1.31428 0.5664062,-0.56641 0.2708162,0.67675 0.2375103,1.48535 -0.074013,1.79688 -0.3115235,0.31152 -0.5331004,-0.2422 -0.4923931,-1.23047 z m 0.074013,-4.14063 c 0,-1.28906 0.2127878,-1.81641 0.4728619,-1.17188 0.260074,0.64454 0.260074,1.69922 0,2.34375 -0.2600741,0.64454 -0.4728619,0.11719 -0.4728619,-1.17187 z M 138.85337,456.58674 c -0.50619,-2.33364 -1.1759,-7.19612 -1.48825,-10.80549 -0.31234,-3.60938 -0.94231,-8.03906 -1.39993,-9.84375 -0.4576,-1.80469 -1.32376,-8.55469 -1.92478,-15 -1.57843,-16.92703 -1.65762,-17.68448 -2.39517,-22.90884 -0.36862,-2.61108 -0.81031,-5.8021 -0.98154,-7.09116 -0.17123,-1.28906 -0.72474,-8.88281 -1.23002,-16.875 -0.50529,-7.99219 -1.60011,-20.38415 -2.43294,-27.53767 -2.13968,-18.37872 -2.24392,-34.49779 -0.26146,-40.43108 0.86141,-2.57813 1.80052,-6.16406 2.08692,-7.96875 l 0.52071,-3.28125 -1.93381,4.07008 c -1.06359,2.23855 -2.17594,5.61355 -2.47189,7.5 -0.29595,1.88646 -1.04343,3.73176 -1.66106,4.10067 -0.79319,0.47378 -1.02227,3.50217 -0.7801,10.3125 0.40629,11.42562 2.84843,44.75535 4.10673,56.048 0.48837,4.38281 0.88912,11.25491 0.89058,15.27132 0.002,4.01642 0.39917,11.1883 0.88381,15.9375 0.48464,4.74922 1.12582,11.53089 1.42485,15.0704 0.29904,3.5395 0.98285,9.44575 1.51961,13.125 0.53675,3.67924 1.11573,9.22078 1.28662,12.31453 0.1709,3.09375 1.02358,7.52344 1.89482,9.84375 0.87126,2.32031 1.81936,5.21884 2.10691,6.44116 0.50012,2.12591 0.58006,2.08626 1.84127,-0.91326 1.00223,-2.38362 1.09772,-4.15329 0.39812,-7.37866 z M 124.09673,295.40305 c 1.16029,-2.46752 1.23816,-12.02018 0.26821,-32.90305 -0.98997,-21.31406 -1.57834,-30.3384 -2.00589,-30.76595 -0.21712,-0.21712 -1.07797,0.28844 -1.913,1.12347 -1.35644,1.35645 -1.46697,4.69014 -1.03725,31.28348 0.26455,16.37089 0.78482,31.65179 1.15618,33.95756 0.62728,3.89487 0.73893,4.02791 1.57371,1.875 0.49419,-1.27452 1.37531,-3.33125 1.95804,-4.57051 z m 7.078,-3.84055 c 1.05248,-2.20994 1.03296,-2.23986 -0.34176,-0.52394 -0.80189,1.00089 -1.45797,2.23136 -1.45797,2.73438 0,1.19113 0.43303,0.65928 1.79973,-2.21044 z m -2.37952,0.42006 c 0.32015,-0.8343 0.16299,-1.21062 -0.36844,-0.88217 -0.50972,0.31502 -0.92677,0.96975 -0.92677,1.45494 0,1.34853 0.67197,1.05137 1.29521,-0.57277 z m 11.96826,-18.94834 c 1.45143,-1.68274 3.3269,-4.42493 4.1677,-6.09375 0.84081,-1.66882 2.82377,-4.399 4.40658,-6.06705 1.58281,-1.66806 2.62679,-3.28388 2.31996,-3.59072 -0.30685,-0.30683 -2.17645,1.56982 -4.15468,4.17035 -1.97822,2.60052 -5.18172,6.81767 -7.11886,9.37144 -4.0321,5.3156 -10.07415,15.70671 -10.06654,17.31245 0.003,0.59499 1.76051,-1.87132 3.906,-5.48069 2.14548,-3.60938 5.0884,-7.93928 6.53984,-9.62203 z m 2.20528,1.15536 c 7.04996,-9.91742 13.16892,-17.1982 26.07995,-31.03178 3.00022,-3.21459 7.19297,-8.29876 9.31723,-11.29814 2.12425,-2.99937 5.20555,-7.14091 6.84734,-9.20341 3.19294,-4.01116 12.59923,-18.79612 12.59923,-19.80368 0,-0.74896 -3.32937,3.4829 -3.84438,4.88648 -1.00611,2.74202 -12.70069,17.16919 -13.64566,16.83415 -0.59609,-0.21134 -1.86171,0.53652 -2.8125,1.6619 l -1.72871,2.04615 2.10937,-1.78593 c 2.58096,-2.18519 2.71595,-0.89184 0.2196,2.1039 -1.00507,1.20613 -2.34502,2.02043 -2.97767,1.80955 -1.45153,-0.48385 -23.2121,25.49382 -22.62873,27.01406 0.23697,0.61753 -0.80039,2.53986 -2.30525,4.27185 -1.50485,1.73199 -3.27615,4.20376 -3.9362,5.49282 -0.66006,1.28906 -3.20001,5.08594 -5.64433,8.4375 -2.44432,3.35156 -5.1362,7.57031 -5.98196,9.375 -0.84576,1.80469 -1.0044,2.48449 -0.35254,1.51068 0.65187,-0.97382 4.56021,-6.51831 8.68521,-12.3211 z m 12.70042,-20.59583 c 0.008,-1.25355 11.83226,-14.19197 12.42285,-13.59375 0.25454,0.25781 -2.43788,3.63281 -5.98313,7.5 -3.54526,3.86719 -6.44314,6.60937 -6.43972,6.09375 z m -20.06798,19.59901 c 3.40882,-4.47199 2.57528,-5.04928 -1.22585,-0.84901 -3.66842,4.05363 -6.18176,8.92783 -6.52606,12.65625 -0.14317,1.55041 0.75793,0.43973 2.66208,-3.28125 1.5832,-3.09375 3.87361,-6.93045 5.08983,-8.52599 z m 69.42006,-3.89589 c -0.23581,-0.90234 -0.42875,-0.16406 -0.42875,1.64063 0,1.80469 0.19294,2.54297 0.42875,1.64062 0.2358,-0.90234 0.2358,-2.3789 0,-3.28125 z m -54.65609,-14.73908 c 0.83506,-1.27447 3.30935,-4.39853 5.49844,-6.94237 2.18908,-2.54384 6.5114,-7.72362 9.60515,-11.51064 3.09375,-3.78701 6.90566,-8.15122 8.47091,-9.69826 1.56524,-1.54702 4.8352,-5.60912 7.26655,-9.02688 2.43136,-3.41775 5.05304,-6.73893 5.82597,-7.38041 0.77292,-0.64147 1.40532,-1.57275 1.40532,-2.0695 0,-1.15563 -5.42689,4.41987 -8.94158,9.18643 -1.48638,2.0158 -4.63146,5.77446 -6.98907,8.35259 -2.3576,2.57812 -7.20003,8.48437 -10.76093,13.125 -3.56091,4.64062 -8.32591,10.65234 -10.58889,13.35937 -2.26298,2.70704 -3.70854,4.92188 -3.21234,4.92188 0.49619,0 1.5854,-1.04274 2.42047,-2.31721 z m -33.14971,-25.75558 c -0.53654,-1.00254 -1.4389,-2.10916 -2.00523,-2.45918 -0.56635,-0.35001 -0.30461,0.47024 0.58161,1.82279 1.87651,2.86394 2.84823,3.29831 1.42362,0.63639 z m 2.36345,-1.60239 c -0.3434,-1.36821 -1.8657,-4.29188 -3.38288,-6.49703 -1.51719,-2.20515 -2.75852,-4.26684 -2.75852,-4.58154 0,-0.53618 -3.65253,-6.03015 -4.69283,-7.05875 -2.02615,-2.00334 -11.068195,-15.11635 -14.735967,-21.37047 -1.298828,-2.21471 -2.558691,-3.82954 -2.799695,-3.58854 -0.241005,0.24101 0.654001,2.0455 1.988901,4.00997 2.823654,4.15539 3.251838,6.58796 0.552091,3.13654 -1.00832,-1.28906 -1.842688,-2.08228 -1.854154,-1.76271 -0.05341,1.4887 8.133534,15.93966 11.806524,20.83997 4.92793,6.57459 5.40165,6.15499 0.82888,-0.73417 -1.80469,-2.71887 -3.28125,-5.20151 -3.28125,-5.51695 0,-0.31544 -1.265625,-2.56921 -2.8125,-5.00837 -1.546875,-2.43917 -2.8125,-4.79904 -2.8125,-5.24415 0,-1.89535 2.154497,0.82345 5.86865,7.40578 8.71919,15.45236 11.40119,19.81398 15.63578,25.42791 2.77588,3.68006 3.26409,3.7882 2.44947,0.54251 z m 2.30548,-11.87118 c -1.38112,-9.4133 -1.46351,-44.59463 -0.13432,-57.35989 1.67939,-16.1286 2.16983,-25.78125 1.30993,-25.78125 -0.73531,0 -2.62929,10.77808 -3.70671,21.09375 -0.21541,2.0625 -0.47444,17.10773 -0.57559,33.43386 -0.13802,22.27349 -0.45353,29.46062 -1.26384,28.78966 -0.59393,-0.4918 -1.35123,-1.97533 -1.68288,-3.29672 -0.5635,-2.24511 -7.07053,-11.83738 -9.44743,-13.9268 -1.18755,-1.04393 -7.012806,-9.95561 -8.885753,-13.59375 -0.663628,-1.28906 -2.4702,-3.95556 -4.014618,-5.92553 -2.91083,-3.71293 -4.586531,-6.70634 -12.820802,-22.9026 -4.797318,-9.436 -6.573985,-12.13046 -4.636257,-7.03125 1.998471,5.25906 13.26105,26.98843 14.495502,27.96678 0.703443,0.55751 2.922615,4.1715 4.931497,8.0311 2.008875,3.85959 6.759751,11.20814 10.557501,16.33009 9.17047,12.36809 12.42178,17.09579 14.4652,21.03375 2.32302,4.47678 2.75987,2.34885 1.40857,-6.8612 z m 71.05956,-14.2597 c -0.28865,-0.28864 -0.81286,0.23167 -1.16492,1.15625 -0.50876,1.33613 -0.40108,1.44381 0.52481,0.52481 0.64071,-0.63594 0.92876,-1.39241 0.64011,-1.68106 z m 7.64735,-5.54795 c 0.0186,-0.48689 -1.02098,0.54428 -2.31004,2.29151 -1.28906,1.74723 -2.34165,3.41122 -2.33909,3.69776 0.007,0.88471 4.61329,-5.0482 4.64913,-5.98927 z m 20.65089,-9.42724 c 2.91693,-14.50197 3.67499,-18.8546 7.42909,-42.65625 0.52862,-3.35156 1.4032,-11.15625 1.94352,-17.34375 0.54031,-6.1875 1.21538,-12.30469 1.50014,-13.59375 0.38484,-1.74206 0.24434,-2.07534 -0.54726,-1.29821 -0.58574,0.57504 -1.42507,4.88408 -1.86515,9.57564 -0.44009,4.69156 -1.02579,8.89516 -1.30154,9.34135 -0.47191,0.76355 -2.23105,10.39139 -3.03304,16.59997 -0.19982,1.54687 -0.9755,5.97656 -1.72372,9.84375 -0.74823,3.86719 -1.59604,8.97004 -1.88402,11.33966 -0.28798,2.36963 -1.19856,9.33056 -2.02351,15.46875 -0.82495,6.13819 -1.65922,12.6369 -1.85393,14.44159 l -0.35401,3.28125 0.91387,-2.8125 c 0.50263,-1.54688 1.76243,-7.03125 2.79956,-12.1875 z M 87.609262,181.17187 c -1.332277,-2.44921 -3.236767,-5.92968 -4.232199,-7.73437 -0.995431,-1.80469 -2.449281,-4.92805 -3.230775,-6.94082 -0.781495,-2.01276 -1.630426,-3.45005 -1.886513,-3.19396 -0.602643,0.60265 3.246777,10.1532 4.870381,12.0836 0.684664,0.81404 1.244844,1.7723 1.244844,2.12947 0,0.78293 4.785249,8.10921 5.296624,8.10921 0.197979,0 -0.730083,-2.00391 -2.062362,-4.45313 z m -1.402234,-6.87717 c -0.575543,-1.0754 -1.283316,-1.71842 -1.572829,-1.4289 -0.289513,0.28951 0.0072,1.16939 0.659498,1.95529 1.685451,2.03085 2.141311,1.76812 0.913331,-0.52639 z M 142.51771,144.375 c 0.52661,-0.77344 1.58572,-2.88281 2.35357,-4.6875 0.76785,-1.80469 2.47434,-5.29073 3.79219,-7.74675 1.9903,-3.70921 2.33253,-5.40402 2.02076,-10.00697 -0.20643,-3.04781 -1.07765,-6.61333 -1.93604,-7.92339 -0.85838,-1.31006 -1.61623,-3.13505 -1.6841,-4.05553 -0.0679,-0.92049 -0.43422,-0.19705 -0.81409,1.60764 l -0.69068,3.28125 -0.12341,-3.34862 c -0.0679,-1.84174 -0.7936,-5.31553 -1.61273,-7.71953 -0.81912,-2.40401 -1.29826,-4.904947 -1.06475,-5.557634 0.23352,-0.652697 0.91998,0.606253 1.52546,2.797664 1.36102,4.92587 2.27373,5.22693 1.42109,0.46875 -0.63405,-3.538439 -2.73585,-6.79688 -4.38418,-6.79688 -0.54224,0 -0.67316,4.659141 -0.33588,11.95313 1.42212,30.75464 -0.12675,42.27596 -5.4108,40.24828 -3.1389,-1.20451 -3.38764,-12.14128 -0.59318,-26.08092 2.10038,-10.47724 2.5193,-19.11756 0.87772,-18.10302 -0.64909,0.40117 -0.89512,-0.17166 -0.68086,-1.58529 0.18451,-1.217383 0.85279,-2.107961 1.48508,-1.979055 1.79577,0.366113 1.34818,-3.237759 -0.49101,-3.953391 -1.89468,-0.737231 -7.73437,5.287506 -7.73437,7.979476 0,0.88237 -0.63281,3.11884 -1.40625,4.96994 -2.95346,7.06862 -1.28142,19.0219 5.30347,37.91414 0.95028,2.72637 1.72778,6.72749 1.72778,8.89137 l 0,3.93433 3.74887,-6.54762 c 2.06187,-3.60119 4.17972,-7.18043 4.70634,-7.95387 z M 132.1875,112.5 c 0,-0.51562 0.42187,-0.9375 0.9375,-0.9375 0.51562,0 0.9375,0.42188 0.9375,0.9375 0,0.51563 -0.42188,0.9375 -0.9375,0.9375 -0.51563,0 -0.9375,-0.42187 -0.9375,-0.9375 z m 0.9375,-6.03842 c 0,-0.80387 0.42187,-1.46158 0.9375,-1.46158 0.51562,0 0.9375,0.39697 0.9375,0.88217 0,0.48519 -0.42188,1.1429 -0.9375,1.46158 -0.51563,0.31868 -0.9375,-0.0783 -0.9375,-0.88217 z m 5.64813,24.1484 c 1.22034,-9.03006 0.62874,-14.20231 -1.10744,-9.68216 -1.23731,3.22133 -2.12229,21.53431 -0.95187,19.69718 0.49275,-0.77344 1.41944,-5.2802 2.05931,-10.01502 z m 59.39265,0.0528 c -2.3392,-3.41675 -4.49748,-6.84917 -4.7962,-7.6276 -2.29448,-5.97935 -14.41212,-19.91016 -17.31871,-19.91016 -0.92173,0 -1.67587,-0.59074 -1.67587,-1.31274 0,-1.49759 -5.80556,-2.975591 -14.81528,-3.771744 -3.78989,-0.334894 -5.70327,-0.189225 -5.3353,0.406171 0.31555,0.510572 1.09906,0.928313 1.74112,0.928313 0.64205,0 3.25387,1.33935 5.80404,2.97633 2.55017,1.63698 6.11323,3.72953 7.91792,4.65014 2.39317,1.22079 2.77377,1.6797 1.40625,1.69555 -1.03125,0.0119 -5.01983,-1.86968 -8.86349,-4.1814 -6.08336,-3.65874 -9.41776,-5.027904 -9.41776,-3.8671 0,1.0852 10.71797,7.01157 15.46875,8.55325 5.85384,1.89965 16.57567,6.90616 19.50415,9.10739 1.08859,0.81826 1.46511,1.8619 1.05619,2.92754 -0.53258,1.38788 -1.32551,1.55251 -4.89756,1.01685 -2.34414,-0.35152 -6.77205,-1.65903 -9.83979,-2.90556 -6.30654,-2.56258 -15.98776,-9.32011 -15.19356,-10.60517 0.54822,-0.88703 -3.96616,-4.31234 -4.70701,-3.57148 -0.87524,0.87522 3.43706,7.86983 7.24223,11.74701 2.16947,2.21053 3.49251,4.01915 2.94008,4.01915 -1.44556,0 -9.69848,-9.04245 -9.69848,-10.62629 0,-0.73239 -0.65201,-1.87275 -1.44892,-2.53412 -0.7969,-0.66137 -1.27965,-1.66224 -1.07278,-2.22416 0.20688,-0.56193 -0.40673,-1.83377 -1.36358,-2.82634 -2.10505,-2.18362 -2.14446,-1.54942 -0.3353,5.39642 1.67983,6.44929 8.10194,16.47128 12.65808,19.75348 9.3768,6.75498 11.79515,7.52989 25.3125,8.11083 6.96094,0.29916 12.9544,0.62127 13.31881,0.71581 0.36441,0.0945 -1.25134,-2.62365 -3.59053,-6.04039 z m -13.64342,-11.14041 c -1.01852,-1.01852 -17.64736,-7.78035 -17.64736,-7.17599 0,0.86122 3.53053,3.01549 6.49838,3.96521 1.32433,0.42378 4.09537,1.40852 6.15787,2.18833 3.8572,1.45833 5.83141,1.86276 4.99111,1.02245 z m -73.57939,-4.94214 c 4.48776,-2.44255 13.90166,-12.03861 16.34083,-16.657022 1.06549,-2.017435 1.01642,-2.188622 -0.46875,-1.635432 -0.91233,0.339835 -3.27668,2.439103 -5.2541,4.665054 -1.97742,2.22596 -4.06407,4.04719 -4.63703,4.04719 -0.57295,0 0.41212,-1.56367 2.18905,-3.47482 1.77692,-1.911136 2.59797,-3.032602 1.82453,-2.492142 -1.92853,1.347632 -9.375,4.193012 -9.375,3.582312 0,-0.27197 1.89844,-1.30825 4.21875,-2.30285 2.32031,-0.994603 4.21882,-1.928831 4.21889,-2.076056 8e-5,-0.147235 -6.13732,-0.197728 -13.63865,-0.11221 -10.160912,0.115847 -14.284742,-0.181509 -16.172006,-1.16609 -1.393279,-0.726882 -3.18714,-1.324191 -3.986359,-1.327369 -0.799219,-0.0028 -1.910896,-0.463547 -2.470393,-1.023047 -0.731359,-0.731353 -2.035639,-0.350531 -4.640625,1.354969 -5.850018,3.830053 -15.726081,12.248583 -15.556599,13.260733 0.205932,1.22982 5.004903,1.79952 5.737767,0.68115 0.313761,-0.4788 6.05485,-1.13061 12.757975,-1.44845 13.13595,-0.62286 13.857469,0.21984 1.888189,2.20534 -8.461095,1.40355 -8.831047,1.11061 6.549311,5.18609 9.84172,2.60785 13.80493,2.36253 20.47422,-1.26735 z m -10.16172,-3.55649 c 0.51563,-0.21492 3.15234,-0.96356 5.85938,-1.66366 5.54821,-1.43488 6.86172,-0.29942 1.40625,1.21565 -3.31599,0.92089 -9.282886,1.28882 -7.26563,0.44801 z m -0.46875,-4.24774 c 0,-0.42488 0.73828,-1.1537 1.64063,-1.6196 2.29527,-1.18509 9.30955,-2.36936 8.36233,-1.41186 -1.21942,1.23263 -10.00296,3.89454 -10.00296,3.03146 z m 85.02142,-10.892296 c 5.1909,-3.036557 7.00287,-4.934548 13.91094,-14.571452 4.36845,-6.094076 7.94264,-11.293251 7.94264,-11.553722 0,-0.260473 -1.87218,0.814507 -4.1604,2.388843 -2.35358,1.619309 -4.40633,2.4645 -4.72669,1.946152 -0.56176,-0.90894 7.50274,-6.541512 9.41482,-6.575692 0.54806,-0.0098 2.13196,-1.203002 3.51977,-2.651567 l 2.5233,-2.633755 -6.80102,0.803805 c -3.74057,0.442093 -7.85572,0.918101 -9.14478,1.057794 -1.5132,0.163983 -5.55434,3.438775 -11.40377,9.241189 -4.98301,4.942962 -10.04551,9.267443 -11.25,9.609959 -1.20449,0.342516 -5.98685,2.255728 -10.62748,4.251581 -4.64063,1.995853 -9.59766,3.872967 -11.01563,4.171364 -3.65071,0.768257 -3.21827,2.443908 0.46875,1.816333 12.7647,-2.172683 19.85347,-4.623418 28.89009,-9.987909 8.90878,-5.288609 13.38466,-6.776846 7.27091,-2.417595 -7.23157,5.156294 -13.94086,8.610844 -21.86412,11.257651 -5.58441,1.865503 -6.77298,2.523984 -4.65352,2.578125 1.56557,0.04003 5.36245,1.090125 8.4375,2.333625 3.07506,1.2435 5.97562,2.298187 6.44569,2.34375 0.47007,0.04556 3.54042,-1.488254 6.823,-3.408479 z M 170.8441,94.1559 c 0.29238,-0.292378 2.78847,-1.081451 5.54688,-1.753486 2.7584,-0.672036 5.82276,-1.559196 6.80968,-1.971466 1.24994,-0.522136 1.5933,-0.424164 1.13161,0.322875 -0.36455,0.589853 -2.83064,1.716233 -5.4802,2.503068 -4.81663,1.430384 -9.01013,1.901168 -8.00797,0.899009 z m -21.31285,2.4066 c 0.31868,-0.515625 -0.0783,-0.9375 -0.88217,-0.9375 -0.80387,0 -1.46158,0.421875 -1.46158,0.9375 0,0.515625 0.39697,0.9375 0.88217,0.9375 0.48519,0 1.1429,-0.421875 1.46158,-0.9375 z M 100.3125,94.779656 c -0.773438,-0.433575 -3.726563,-1.321107 -6.5625,-1.972291 -2.835938,-0.651184 -6.355612,-1.79128 -7.821497,-2.533546 -3.763229,-1.905549 -3.958991,-1.024332 -0.370098,1.665979 2.080856,1.559854 4.804173,2.452071 8.660345,2.837327 3.09375,0.309075 6.04688,0.613462 6.5625,0.676406 0.51563,0.06291 0.30469,-0.24029 -0.46875,-0.673875 z m 8.21406,0.201206 c -0.89634,-0.234646 -2.58384,-0.243159 -3.75,-0.01894 -1.16617,0.224241 -0.43281,0.416231 1.62969,0.426637 2.0625,0.01041 3.01664,-0.173071 2.12031,-0.407718 z M 127.5,93.396939 l 5.15625,-1.211117 -5.625,-0.64431 c -3.09375,-0.35437 -7.88173,-1.68993 -10.63997,-2.967911 -3.47723,-1.61112 -6.63934,-2.321998 -10.3125,-2.318373 -5.33127,0.0053 -12.926808,1.584244 -12.013621,2.497426 0.270029,0.270038 4.88191,1.415187 10.248621,2.544777 8.38574,1.765038 10.17442,1.883738 12.72194,0.844246 C 118.83849,91.406067 120,91.300521 120,91.872311 c 0,0.517104 -0.60791,0.940189 -1.35092,0.940189 -0.743,0 -1.61165,0.421875 -1.93033,0.9375 -0.80093,1.295944 4.49975,1.122356 10.78125,-0.353061 z m 12.71868,-4.806246 c 0.38252,-2.03899 0.0291,-4.258651 -1.03542,-6.50182 -1.53669,-3.238333 -2.09673,-3.782274 -2.19665,-2.133516 -0.0246,0.405134 -0.69252,1.384487 -1.48438,2.17634 -3.06108,3.061083 -0.3362,13.266203 2.83867,10.631294 0.71335,-0.592019 1.55834,-2.469553 1.87778,-4.172298 z m 6.01244,-0.782969 c 0.55511,-1.630186 2.25707,-4.335068 3.78213,-6.010849 2.78155,-3.056472 4.47057,-4.067618 3.13199,-1.875 -0.39349,0.644531 2.11286,-1.305426 5.56967,-4.333238 C 162.1717,72.560824 165,69.704784 165,69.241882 c 0,-0.462903 1.0601,-2.520945 2.35577,-4.573425 4.79541,-7.596424 6.37377,-20.726645 4.1582,-34.591664 -1.82885,-11.444961 -1.83805,-11.460123 -3.74301,-6.170543 -0.92848,2.578125 -1.72084,5.822758 -1.7608,7.210297 -0.04,1.387538 -0.49454,2.783529 -1.01016,3.102203 -1.73737,1.073757 -0.96696,-4.570631 1.50785,-11.047135 2.02577,-5.301391 2.33678,-7.268401 1.81257,-11.464035 L 167.68763,6.6429513 159.85417,17.1496 c -4.3084,5.778657 -8.82935,11.772275 -10.04656,13.31915 -3.30901,4.205206 -10.22747,19.547799 -10.52914,23.349727 -0.14518,1.829828 -0.72123,3.877917 -1.28009,4.551309 -0.61268,0.738223 -0.69076,1.750799 -0.19667,2.550262 0.62556,1.012184 0.96966,0.727466 1.45426,-1.203318 0.72494,-2.888396 2.30653,-3.411977 2.30653,-0.763572 0,0.99844 0.8452,1.986685 1.94514,2.274324 1.53495,0.4014 1.7599,0.869275 1.06668,2.218716 -1.17677,2.290756 -2.2709,13.660954 -1.2541,13.032536 1.09386,-0.676046 2.68416,-9.656611 3.41613,-19.291234 0.60443,-7.955865 0.82865,-9.176732 3.78344,-20.600092 1.65608,-6.402528 3.74594,-9.042031 5.80568,-7.3326 0.64599,0.536127 1.17453,2.20653 1.17453,3.712007 0,4.063472 -2.70473,16.460833 -4.87514,22.345685 -1.65821,4.496055 -2.55759,7.425833 -5.01832,16.347405 -0.56146,2.035608 8.31804,-15.628778 9.27781,-18.45678 0.30625,-0.902344 0.99996,-1.640625 1.54159,-1.640625 1.52479,0 0.14093,4.290712 -4.23311,13.125 -4.45026,8.988223 -8.88033,19.837582 -8.88033,21.748171 0,0.699671 -0.65285,2.204196 -1.45076,3.343388 -1.26247,1.802416 -1.26836,2.001258 -0.0454,1.531949 0.77298,-0.296621 1.85961,-1.873099 2.41473,-3.503284 z m 15.02239,-21.055009 c -0.005,-1.503555 7.56935,-15.429855 8.10181,-14.897399 0.40768,0.407684 -3.51215,8.568508 -6.38874,13.300934 -0.94026,1.546875 -1.71115,2.265284 -1.71307,1.596465 z M 143.46622,57.65625 c 0,-1.03125 0.40894,-2.507813 0.90878,-3.28125 0.75254,-1.164471 0.90878,-1.083878 0.90878,0.46875 0,1.03125 -0.40894,2.507812 -0.90878,3.28125 -0.75254,1.164471 -0.90878,1.083877 -0.90878,-0.46875 z m 18.11497,-13.359375 c 1.43053,-5.129579 1.74969,-5.859375 2.56235,-5.859375 0.78161,0 0.52933,2.666663 -0.59867,6.328125 -0.56409,1.831055 -2.47766,1.374268 -1.96368,-0.46875 z m 78.24416,25.475407 c 0.37556,-7.773683 0.501,-16.211183 0.27877,-18.75 -0.39659,-4.530782 -0.42652,-4.468864 -1.62061,3.352718 -0.6691,4.382812 -1.24292,10.710937 -1.27513,14.0625 -0.0323,3.351562 -0.45437,8.832627 -0.93811,12.180143 -0.48375,3.347517 -0.62791,7.088938 -0.32037,8.314269 1.21247,4.830904 3.18839,-4.937665 3.87545,-19.15963 z M 127.5,88.606223 c 0,-0.250951 -2.57154,-3.098608 -5.71453,-6.328125 -8.23728,-8.464037 -13.08502,-14.41605 -12.34455,-15.156521 0.35395,-0.353951 1.43459,0.324678 2.40141,1.508064 1.96094,2.400151 1.83376,1.849915 -0.72727,-3.146834 -1.14849,-2.240783 -2.22133,-3.244362 -3.10554,-2.905057 -1.02816,0.39454 -1.19449,0.02559 -0.69621,-1.544335 0.4142,-1.305038 0.084,-2.933647 -0.89887,-4.433735 -2.62792,-4.010724 -6.10194,-14.263312 -6.10194,-18.008184 0,-3.702757 -2.579109,-7.034786 -7.345918,-9.490403 -2.570796,-1.324343 -3.706512,-0.653523 -2.123292,1.254141 0.610763,0.735924 1.530022,2.750026 2.042798,4.47578 1.373893,4.623857 4.594871,20.642218 4.60509,22.901728 0.0047,1.07332 0.921656,4.870195 2.037338,8.4375 1.691694,5.409048 2.905954,7.34681 7.312924,11.670206 4.50292,4.417533 11.59693,8.870094 16.90856,10.612678 1.92174,0.630464 3.75,0.705105 3.75,0.153097 z M 103.83707,58.828125 C 99.4572,52.126421 97.314919,45.9375 99.375,45.9375 c 0.515625,0 0.9375,0.569235 0.9375,1.264966 0,0.695731 1.48895,4.070731 3.30877,7.5 1.81983,3.429269 2.92304,6.235034 2.45158,6.235034 -0.47146,0 -1.47757,-0.949219 -2.23578,-2.109375 z m 48.44626,28.46276 C 155.43777,84.403425 165,78.616935 165,79.595516 c 0,0.496722 -0.73828,1.156242 -1.64063,1.4656 -0.90234,0.309357 -3.32812,2.019813 -5.39062,3.801015 l -3.75,3.238547 4.6875,-1.746396 c 8.68999,-3.237581 9.62645,-3.720772 13.06874,-6.743147 1.88831,-1.657957 4.09178,-4.322936 4.89661,-5.922176 0.80482,-1.59924 2.76446,-4.278803 4.35476,-5.954584 1.84163,-1.940618 2.3992,-3.04355 1.53567,-3.037717 -3.27193,0.0221 -11.49061,4.979458 -19.5873,11.814691 -13.22269,11.162598 -14.65636,12.471675 -13.7039,12.51305 0.48239,0.02095 1.74801,-0.759126 2.8125,-1.733514 z M 17.515419,84.199219 c -0.299274,-0.747875 -0.521421,-0.525728 -0.566406,0.566406 -0.04071,0.988281 0.18087,1.541992 0.492394,1.230469 0.311522,-0.311524 0.344829,-1.120117 0.07401,-1.796875 z m 113.740351,0.410156 c 0.003,-0.902344 0.636,-2.849004 1.40625,-4.325913 2.28587,-4.382945 1.76306,-11.148644 -1.38117,-17.873715 -2.16608,-4.632962 -4.59707,-7.632524 -10.98532,-13.554655 C 115.7835,44.672291 111.80356,41.25 111.45121,41.25 c -0.8199,0 1.65669,11.10768 3.96427,17.780007 0.97461,2.818067 1.77202,6.426879 1.77202,8.019581 0,3.221392 3.67403,9.535528 8.94032,15.364667 3.76252,4.164675 5.11897,4.745329 5.12796,2.19512 z m -2.13467,-3.613282 c -0.37599,-0.375975 -0.6836,-1.330468 -0.6836,-2.121093 0,-1.055244 0.27734,-1.160157 1.04297,-0.394531 0.57363,0.573633 0.88125,1.528125 0.6836,2.121093 -0.19767,0.592969 -0.667,0.770508 -1.04297,0.394531 z m -9.64576,-16.397168 c -2.74917,-4.354969 -2.52198,-6.101882 0.26983,-2.074777 1.93164,2.786329 3.29645,5.913352 2.58092,5.913352 -0.23517,0 -1.518,-1.727359 -2.85075,-3.838575 z m 22.53509,0.23504 c -0.52056,-0.539018 -2.31212,6.716452 -2.3177,9.386235 -0.003,1.375796 0.30877,3.274233 0.69255,4.21875 0.43865,1.079564 0.92776,-1.067897 1.31709,-5.7827 0.34062,-4.125 0.47925,-7.645028 0.30806,-7.822285 z M 18.452919,76.699219 c -0.299274,-0.747875 -0.521421,-0.525728 -0.566406,0.566406 -0.04071,0.988281 0.18087,1.541992 0.492394,1.230469 0.311522,-0.311524 0.344829,-1.120117 0.07401,-1.796875 z M 187.33854,68.923361 c 5.43904,-5.123038 9.22383,-9.860861 7.87732,-9.860861 -0.87741,0 -4.39325,3.558192 -13.89514,14.0625 -5.57056,6.158231 -3.29214,4.567445 6.01782,-4.201639 z m -71.27948,4.244275 c -0.62938,-1.0078 -1.32589,-1.650808 -1.54779,-1.428906 -0.40181,0.401809 1.64131,3.26127 2.33022,3.26127 0.19904,0 -0.15305,-0.824564 -0.78243,-1.832364 z m -4.99031,-19.613274 c -5.04793,-16.492171 -6.83986,-21.160192 -7.49715,-19.530334 -1.59898,3.964862 0.79334,12.375553 7.36323,25.88709 1.87557,3.85724 1.96472,-0.375296 0.13392,-6.356756 z m 41.65976,-7.687671 c 2.0906,-9.079919 2.50034,-13.299797 0.90341,-9.304191 -0.82876,2.07362 -3.63134,15.276682 -3.63176,17.109375 -5.7e-4,2.509209 1.03685,-0.458602 2.72835,-7.805184 z M 148.6875,636.9375 c -0.33365,-0.86948 -0.3957,-1.79181 -0.13789,-2.04962 0.25782,-0.25781 0.74174,0.24265 1.07539,1.11212 0.33365,0.86947 0.3957,1.79181 0.13789,2.04962 -0.25782,0.25781 -0.74174,-0.24265 -1.07539,-1.11212 z m 8.8125,-0.375 c 0,-0.51563 0.42187,-0.9375 0.9375,-0.9375 0.51562,0 0.9375,0.42187 0.9375,0.9375 0,0.51562 -0.42188,0.9375 -0.9375,0.9375 -0.51563,0 -0.9375,-0.42188 -0.9375,-0.9375 z m -4.06973,-0.70313 c -0.23672,-0.38671 -0.73211,-3.1289 -1.10085,-6.09375 -0.46528,-3.74084 -0.35049,-5.39062 0.37506,-5.39062 0.57504,0 1.0778,0.94922 1.11725,2.10937 0.0776,2.28266 0.44388,4.51955 1.29574,7.91361 0.50374,2.00709 -0.70979,3.05819 -1.6872,1.46139 z m -17.8318,-1.64062 c 0.2968,-0.77344 0.70543,-1.40625 0.90808,-1.40625 0.20264,0 0.36845,0.63281 0.36845,1.40625 0,0.77344 -0.40864,1.40625 -0.90808,1.40625 -0.49944,0 -0.66524,-0.63281 -0.36845,-1.40625 z"
     id="path4206"
     inkscape:connector-curvature="0" />
</svg>
