<?xml version="1.0" encoding="utf-8"?>

<!DOCTYPE svg PUBLIC "-//W3C//DTD SVG 1.1//EN" "http://www.w3.org/Graphics/SVG/1.1/DTD/svg11.dtd">
<svg version="1.1" id="Layer_1" xmlns="http://www.w3.org/2000/svg" xmlns:xlink="http://www.w3.org/1999/xlink" x="0px" y="0px"
	 viewBox="0 0 1644.099 1644.099" enable-background="new 0 0 1644.099 1644.099" xml:space="preserve">
<g>
	<path d="M1304.838,217.183l0.055-0.075c-1.833-0.553-1.957-8.939-2.071-11.911c-0.054-1.388,0.349-3.287-1.412-3.646
		c-1.58-0.322-1.747,1.632-2.325,2.671c-8.924,16.054-21.906,27.314-39.268,33.46c-0.954,0.338-2.08,0.395-2.818,1.41
		c0.092,1.848,2.285,2.79,2.555,5.197c-11.047-9.511-6.636,0.138-34.716-1.763c-20.896-1.415-39.665-8.351-56.072-21.414
		c-1.805-1.437-3.09-1.67-5.166-0.566c-39.454,20.975-87.829,14.788-126.128-8.25c-2.269-1.365-4.613-2.605-7.459-4.205
		c0.907,1.566,0.249,0.889,2.264,2.494c70.312,56.009,155.595,19.716,190.506,41.009c21.016,12.818,7.609,55.93-79.938,35.252
		c-40.416-9.546-67.846-25.659-74.833-27.879c13.467,12.032,88.114,51.149,168.389,36.244
		c68.701-12.757,86.406-62.308,69.818-88.357c-0.447-0.702-0.769-1.759-2.395-1.156
		C1304.158,209.461,1304.497,213.322,1304.838,217.183z M217.183,339.261l-0.075-0.055c-0.553,1.833-8.939,1.957-11.911,2.071
		c-1.388,0.054-3.287-0.349-3.646,1.412c-0.322,1.58,1.632,1.747,2.671,2.325c16.054,8.924,27.314,21.906,33.46,39.268
		c0.338,0.954,0.395,2.08,1.41,2.818c1.848-0.092,2.79-2.285,5.197-2.555c-9.511,11.047,0.138,6.636-1.763,34.716
		c-1.415,20.896-8.351,39.665-21.414,56.072c-1.437,1.805-1.67,3.09-0.566,5.166c20.975,39.454,14.788,87.829-8.25,126.128
		c-1.365,2.269-2.605,4.613-4.205,7.459c1.566-0.907,0.889-0.249,2.494-2.264c56.009-70.312,19.716-155.595,41.009-190.506
		c12.818-21.016,55.93-7.609,35.252,79.938c-9.546,40.416-25.659,67.846-27.879,74.833c12.032-13.467,51.149-88.113,36.244-168.389
		c-12.757-68.701-62.308-86.406-88.357-69.818c-0.702,0.447-1.759,0.769-1.156,2.395
		C209.461,339.941,213.322,339.601,217.183,339.261z M339.261,1426.916l-0.055,0.075c1.833,0.553,1.957,8.939,2.071,11.911
		c0.054,1.388-0.349,3.287,1.412,3.646c1.58,0.322,1.747-1.632,2.325-2.671c8.924-16.054,21.906-27.314,39.268-33.46
		c0.954-0.338,2.08-0.395,2.818-1.41c-0.092-1.848-2.285-2.79-2.555-5.197c11.047,9.51,6.636-0.138,34.716,1.763
		c20.896,1.415,39.665,8.351,56.072,21.414c1.805,1.437,3.09,1.67,5.166,0.566c39.454-20.975,87.829-14.788,126.128,8.25
		c2.269,1.365,4.613,2.605,7.459,4.205c-0.907-1.566-0.249-0.889-2.264-2.494c-70.312-56.009-155.595-19.716-190.506-41.009
		c-21.016-12.818-7.609-55.93,79.938-35.252c40.416,9.546,67.846,25.659,74.833,27.879c-13.467-12.032-88.113-51.149-168.389-36.244
		c-68.701,12.757-86.406,62.308-69.818,88.357c0.447,0.702,0.769,1.759,2.395,1.156
		C339.941,1434.637,339.601,1430.777,339.261,1426.916z M1426.916,1304.838l0.075,0.055c0.553-1.833,8.939-1.957,11.911-2.071
		c1.388-0.054,3.287,0.349,3.646-1.412c0.322-1.58-1.632-1.747-2.671-2.325c-16.054-8.924-27.314-21.906-33.46-39.268
		c-0.338-0.954-0.395-2.08-1.41-2.818c-1.848,0.092-2.79,2.285-5.197,2.555c9.51-11.047-0.138-6.636,1.763-34.716
		c1.415-20.896,8.351-39.665,21.414-56.072c1.437-1.805,1.67-3.09,0.566-5.166c-20.975-39.454-14.788-87.829,8.25-126.128
		c1.365-2.269,2.605-4.613,4.205-7.459c-1.566,0.907-0.889,0.249-2.494,2.264c-56.009,70.312-19.716,155.595-41.009,190.506
		c-12.818,21.016-55.93,7.609-35.252-79.938c9.546-40.416,25.659-67.846,27.879-74.833c-12.032,13.467-51.149,88.114-36.244,168.389
		c12.757,68.701,62.308,86.406,88.357,69.818c0.702-0.447,1.759-0.769,1.156-2.395
		C1434.637,1304.158,1430.777,1304.497,1426.916,1304.838z M1438.401,340.273c0.603-1.625-0.453-1.947-1.156-2.395
		c-26.049-16.588-75.6,1.117-88.357,69.818c-14.905,80.276,24.212,154.923,36.244,168.389c-2.22-6.987-18.333-34.416-27.879-74.833
		c-20.678-87.547,22.434-100.953,35.252-79.938c21.293,34.912-15,120.194,41.009,190.506c1.605,2.015,0.928,1.357,2.494,2.264
		c-1.6-2.846-2.84-5.19-4.205-7.459c-23.038-38.299-29.224-86.674-8.25-126.128c1.104-2.076,0.871-3.361-0.566-5.166
		c-13.063-16.407-19.999-35.176-21.414-56.072c-1.901-28.08,7.747-23.669-1.763-34.716c2.407,0.27,3.349,2.463,5.197,2.555
		c1.015-0.739,1.072-1.864,1.41-2.818c6.145-17.362,17.406-30.344,33.46-39.268c1.04-0.579,2.993-0.745,2.671-2.325
		c-0.359-1.761-2.258-1.359-3.646-1.412c-2.972-0.114-11.358-0.238-11.911-2.071l-0.075,0.055
		C1430.777,339.601,1434.637,339.941,1438.401,340.273z M340.273,205.697c-1.625-0.604-1.947,0.453-2.395,1.156
		c-16.588,26.049,1.117,75.6,69.818,88.357c80.276,14.905,154.923-24.212,168.389-36.244c-6.987,2.22-34.416,18.333-74.833,27.879
		c-87.547,20.678-100.953-22.434-79.938-35.252c34.912-21.293,120.194,15,190.506-41.009c2.015-1.605,1.357-0.928,2.264-2.494
		c-2.846,1.6-5.19,2.84-7.459,4.205c-38.299,23.038-86.674,29.224-126.128,8.25c-2.076-1.104-3.361-0.871-5.166,0.566
		c-16.407,13.063-35.176,19.999-56.072,21.414c-28.08,1.901-23.669-7.747-34.716,1.763c0.27-2.407,2.463-3.349,2.555-5.197
		c-0.739-1.015-1.864-1.072-2.818-1.41c-17.362-6.145-30.344-17.406-39.268-33.46c-0.579-1.04-0.745-2.993-2.325-2.671
		c-1.761,0.359-1.359,2.258-1.412,3.646c-0.114,2.972-0.238,11.358-2.071,11.911l0.055,0.075
		C339.601,213.322,339.941,209.461,340.273,205.697z M205.697,1303.826c-0.604,1.625,0.453,1.947,1.156,2.395
		c26.049,16.588,75.6-1.117,88.357-69.818c14.905-80.276-24.212-154.923-36.244-168.389c2.22,6.987,18.333,34.416,27.879,74.833
		c20.678,87.547-22.434,100.953-35.252,79.938c-21.293-34.912,15-120.194-41.009-190.506c-1.605-2.015-0.928-1.357-2.494-2.264
		c1.6,2.846,2.84,5.19,4.205,7.459c23.038,38.299,29.224,86.674,8.25,126.128c-1.104,2.076-0.871,3.36,0.566,5.166
		c13.063,16.407,19.999,35.176,21.414,56.072c1.901,28.08-7.747,23.669,1.763,34.716c-2.407-0.27-3.349-2.463-5.197-2.555
		c-1.015,0.739-1.072,1.864-1.41,2.818c-6.145,17.362-17.406,30.344-33.46,39.268c-1.04,0.579-2.993,0.745-2.671,2.325
		c0.359,1.761,2.258,1.359,3.646,1.412c2.972,0.114,11.358,0.238,11.911,2.071l0.075-0.055
		C213.322,1304.497,209.461,1304.158,205.697,1303.826z M1303.826,1438.401c1.625,0.603,1.947-0.453,2.395-1.156
		c16.588-26.049-1.117-75.6-69.818-88.357c-80.276-14.905-154.923,24.212-168.389,36.244c6.987-2.22,34.416-18.333,74.833-27.879
		c87.547-20.678,100.953,22.434,79.938,35.252c-34.912,21.293-120.194-15-190.506,41.009c-2.015,1.605-1.357,0.928-2.264,2.494
		c2.846-1.6,5.19-2.84,7.459-4.205c38.299-23.038,86.674-29.224,126.128-8.25c2.076,1.104,3.36,0.871,5.166-0.566
		c16.407-13.063,35.176-19.999,56.072-21.414c28.08-1.901,23.669,7.747,34.716-1.763c-0.27,2.407-2.463,3.349-2.555,5.197
		c0.739,1.015,1.864,1.072,2.818,1.41c17.362,6.145,30.344,17.406,39.268,33.46c0.579,1.04,0.745,2.993,2.325,2.671
		c1.761-0.359,1.359-2.258,1.412-3.646c0.114-2.972,0.238-11.358,2.071-11.911l-0.055-0.075
		C1304.497,1430.777,1304.158,1434.637,1303.826,1438.401z M1308.559,169.322c1.541-0.569,1.537-1.62,1.885-2.407
		c5.651-12.773,13.253-24.204,23.163-34.091c15.455-15.42,21.583-13.859,18.733-18.327c-0.94-1.472-9.515-21.02-29.869-37.762
		c-45.001-37.014-99.759-33.506-132.831-7.518c-5.879,4.62,2.112,1.993,12.683,22.015c19.925,37.736,10.599,88.173-20.224,116.306
		c-1.863,1.7-1.858,2.067,0.08,3.612c16.727,13.338,40.39,20.878,64.573,17.384c2.264-0.327,2.641-1.326,2.208-3.084
		c-5.953-24.155,17.371-45.464,44.437-37.499c3.448,1.015,3.496,1.023,4.624-2.222c9.413-27.069,1.383-60.367-25.296-76.002
		c-1.472-0.862-2.034-0.935-1.381-2.111C1297.215,120.07,1307.292,141.894,1308.559,169.322z M169.322,335.54
		c-0.569-1.541-1.62-1.537-2.407-1.885c-12.773-5.651-24.204-13.253-34.091-23.163c-15.42-15.455-13.859-21.583-18.327-18.732
		c-1.472,0.939-21.02,9.515-37.762,29.869c-37.014,45.001-33.506,99.759-7.518,132.831c4.62,5.879,1.993-2.111,22.015-12.683
		c37.736-19.925,88.173-10.599,116.306,20.224c1.7,1.863,2.067,1.858,3.612-0.08c13.338-16.727,20.878-40.39,17.384-64.573
		c-0.327-2.264-1.326-2.641-3.084-2.208c-24.155,5.953-45.464-17.371-37.499-44.437c1.015-3.448,1.023-3.496-2.222-4.624
		c-27.069-9.413-60.367-1.383-76.002,25.296c-0.862,1.472-0.935,2.034-2.111,1.381C120.07,346.884,141.894,336.807,169.322,335.54z
		 M335.54,1474.777c-1.541,0.569-1.537,1.62-1.885,2.407c-5.651,12.773-13.253,24.204-23.163,34.091
		c-15.455,15.42-21.583,13.859-18.732,18.327c0.939,1.472,9.515,21.02,29.869,37.762c45.001,37.014,99.759,33.506,132.831,7.518
		c5.879-4.62-2.111-1.993-12.683-22.015c-19.925-37.736-10.599-88.173,20.224-116.306c1.863-1.7,1.858-2.067-0.08-3.612
		c-16.727-13.338-40.39-20.878-64.573-17.384c-2.264,0.327-2.641,1.326-2.208,3.084c5.953,24.155-17.371,45.464-44.437,37.499
		c-3.448-1.015-3.496-1.023-4.624,2.222c-9.413,27.069-1.383,60.367,25.296,76.002c1.472,0.863,2.034,0.935,1.381,2.111
		C346.884,1524.029,336.807,1502.205,335.54,1474.777z M1474.777,1308.559c0.569,1.541,1.62,1.537,2.407,1.885
		c12.773,5.651,24.204,13.253,34.091,23.163c15.42,15.455,13.859,21.583,18.327,18.733c1.472-0.94,21.02-9.515,37.762-29.869
		c37.014-45.001,33.506-99.759,7.518-132.831c-4.62-5.879-1.993,2.112-22.015,12.683c-37.736,19.925-88.173,10.599-116.306-20.224
		c-1.7-1.863-2.067-1.858-3.612,0.08c-13.338,16.727-20.878,40.39-17.384,64.573c0.327,2.264,1.326,2.641,3.084,2.208
		c24.155-5.953,45.464,17.371,37.499,44.437c-1.015,3.448-1.023,3.496,2.222,4.624c27.069,9.413,60.367,1.383,76.002-25.296
		c0.863-1.472,0.935-2.034,2.111-1.381C1524.029,1297.215,1502.205,1307.292,1474.777,1308.559z M1536.481,372.755
		c-1.176,0.653-1.248,0.091-2.111-1.381c-15.636-26.678-48.934-34.709-76.002-25.296c-3.245,1.128-3.237,1.177-2.222,4.624
		c7.964,27.066-13.345,50.39-37.499,44.437c-1.758-0.433-2.756-0.056-3.084,2.208c-3.494,24.183,4.046,47.847,17.384,64.573
		c1.545,1.938,1.912,1.943,3.612,0.08c28.133-30.823,78.57-40.149,116.306-20.224c20.022,10.571,17.395,18.562,22.015,12.683
		c25.988-33.072,29.496-87.83-7.518-132.831c-16.742-20.354-36.29-28.93-37.762-29.869c-4.468-2.85-2.906,3.277-18.327,18.732
		c-9.887,9.91-21.318,17.512-34.091,23.163c-0.787,0.348-1.838,0.345-2.407,1.885
		C1502.205,336.807,1524.029,346.884,1536.481,372.755z M372.755,107.617c0.653,1.176,0.091,1.248-1.381,2.111
		c-26.678,15.636-34.709,48.934-25.296,76.002c1.128,3.245,1.177,3.237,4.624,2.222c27.066-7.964,50.39,13.345,44.437,37.499
		c-0.433,1.758-0.056,2.756,2.208,3.084c24.183,3.494,47.847-4.046,64.573-17.384c1.938-1.545,1.943-1.912,0.08-3.612
		c-30.823-28.133-40.149-78.57-20.224-116.306c10.571-20.022,18.562-17.395,12.683-22.015
		c-33.072-25.988-87.83-29.496-132.831,7.518c-20.354,16.742-28.93,36.29-29.869,37.762c-2.85,4.468,3.277,2.906,18.732,18.327
		c9.91,9.887,17.512,21.318,23.163,34.091c0.348,0.787,0.345,1.838,1.885,2.407C336.807,141.894,346.884,120.07,372.755,107.617z
		 M107.617,1271.344c1.176-0.653,1.248-0.091,2.111,1.381c15.636,26.678,48.934,34.709,76.002,25.296
		c3.245-1.128,3.237-1.177,2.222-4.624c-7.964-27.066,13.345-50.39,37.499-44.437c1.758,0.433,2.756,0.056,3.084-2.208
		c3.494-24.183-4.046-47.846-17.384-64.573c-1.545-1.938-1.912-1.943-3.612-0.08c-28.133,30.823-78.57,40.149-116.306,20.224
		c-20.022-10.571-17.395-18.562-22.015-12.683c-25.988,33.072-29.496,87.83,7.518,132.831c16.742,20.354,36.29,28.93,37.762,29.869
		c4.468,2.85,2.906-3.277,18.327-18.733c9.887-9.91,21.318-17.512,34.091-23.163c0.787-0.349,1.838-0.345,2.407-1.885
		C141.894,1307.292,120.07,1297.215,107.617,1271.344z M1271.344,1536.481c-0.653-1.176-0.091-1.248,1.381-2.111
		c26.678-15.636,34.709-48.934,25.296-76.002c-1.128-3.245-1.177-3.237-4.624-2.222c-27.066,7.964-50.39-13.345-44.437-37.499
		c0.433-1.758,0.056-2.756-2.208-3.084c-24.183-3.494-47.846,4.046-64.573,17.384c-1.938,1.545-1.943,1.912-0.08,3.612
		c30.823,28.133,40.149,78.57,20.224,116.306c-10.571,20.022-18.562,17.395-12.683,22.015c33.072,25.988,87.83,29.496,132.831-7.518
		c20.354-16.742,28.93-36.29,29.869-37.762c2.85-4.468-3.277-2.906-18.733-18.327c-9.91-9.887-17.512-21.318-23.163-34.091
		c-0.349-0.787-0.345-1.838-1.885-2.407C1307.292,1502.205,1297.215,1524.029,1271.344,1536.481z M997.592,164.2
		c26.86,43.328,114.828,64.481,142.763,24.558c2.256-3.224,0.754-0.723-6.175-25.784c-3.191,0-9.255,5.35-26.469,1.307
		c-20.961-4.922-32.29-19.724-35.094-40.902c-0.483-3.647-1.504-2.761-14.954-2.761c-87.168-0.001-80.529-1.775-77.282,4.445
		c29.756,56.984,91.234,14.625,121.725,70.071c1.116,2.029,2.21,4.095,2.713,6.879C1063.965,203.251,1027.345,193.707,997.592,164.2
		z M164.2,646.506c43.328-26.86,64.481-114.828,24.558-142.763c-3.224-2.256-0.723-0.754-25.784,6.175
		c0,3.191,5.35,9.255,1.307,26.469c-4.922,20.961-19.724,32.29-40.902,35.094c-3.647,0.483-2.761,1.504-2.761,14.954
		c-0.001,87.168-1.775,80.529,4.445,77.282c56.984-29.756,14.625-91.234,70.071-121.725c2.029-1.116,4.095-2.21,6.879-2.713
		C203.251,580.133,193.707,616.754,164.2,646.506z M646.506,1479.899c-26.86-43.328-114.828-64.481-142.763-24.558
		c-2.256,3.224-0.754,0.723,6.175,25.784c3.191,0,9.255-5.35,26.469-1.307c20.961,4.922,32.29,19.724,35.094,40.902
		c0.483,3.647,1.504,2.761,14.954,2.761c87.168,0.001,80.529,1.775,77.282-4.445c-29.756-56.984-91.234-14.625-121.725-70.071
		c-1.116-2.029-2.21-4.095-2.713-6.879C580.133,1440.847,616.754,1450.392,646.506,1479.899z M1479.899,997.592
		c-43.328,26.86-64.481,114.828-24.558,142.763c3.224,2.256,0.723,0.754,25.784-6.175c0-3.191-5.35-9.255-1.307-26.469
		c4.922-20.961,19.724-32.29,40.902-35.094c3.647-0.483,2.761-1.504,2.761-14.954c0.001-87.168,1.775-80.529-4.445-77.282
		c-56.984,29.756-14.625,91.234-70.071,121.725c-2.029,1.116-4.095,2.21-6.879,2.713
		C1440.847,1063.965,1450.392,1027.345,1479.899,997.592z M1442.085,539.278c2.783,0.503,4.85,1.597,6.879,2.713
		c55.446,30.491,13.087,91.969,70.071,121.725c6.219,3.248,4.445,9.886,4.445-77.282c0-13.45,0.887-14.471-2.761-14.954
		c-21.178-2.804-35.979-14.133-40.902-35.094c-4.042-17.214,1.307-23.278,1.307-26.469c-25.061-6.929-22.56-8.431-25.784-6.175
		c-39.922,27.936-18.77,115.903,24.558,142.763C1450.392,616.754,1440.847,580.133,1442.085,539.278z M539.278,202.013
		c0.503-2.783,1.597-4.85,2.713-6.879c30.491-55.446,91.969-13.087,121.725-70.071c3.248-6.219,9.886-4.445-77.282-4.445
		c-13.45,0-14.471-0.887-14.954,2.761c-2.804,21.178-14.133,35.98-35.094,40.902c-17.214,4.042-23.278-1.307-26.469-1.307
		c-6.929,25.061-8.431,22.56-6.175,25.784c27.936,39.923,115.903,18.77,142.763-24.558
		C616.754,193.707,580.133,203.251,539.278,202.013z M202.013,1104.82c-2.783-0.503-4.85-1.597-6.879-2.713
		c-55.446-30.491-13.087-91.969-70.071-121.725c-6.219-3.248-4.445-9.886-4.445,77.282c0,13.45-0.887,14.471,2.761,14.954
		c21.178,2.804,35.98,14.133,40.902,35.094c4.042,17.214-1.307,23.278-1.307,26.469c25.061,6.928,22.56,8.431,25.784,6.175
		c39.923-27.936,18.77-115.903-24.558-142.763C193.707,1027.345,203.251,1063.965,202.013,1104.82z M1104.82,1442.085
		c-0.503,2.783-1.597,4.85-2.713,6.879c-30.491,55.446-91.969,13.087-121.725,70.071c-3.248,6.219-9.886,4.445,77.282,4.445
		c13.45,0,14.471,0.887,14.954-2.761c2.804-21.178,14.133-35.979,35.094-40.902c17.214-4.042,23.278,1.307,26.469,1.307
		c6.928-25.061,8.431-22.56,6.175-25.784c-27.936-39.922-115.903-18.77-142.763,24.558
		C1027.345,1450.392,1063.965,1440.847,1104.82,1442.085z M1493.407,1493.407c19.664-6.39,36.894-21.908,43.486-47.087
		c7.884-30.113-1.106-64.417-3.275-68.179c-0.737-1.279-2.065-0.502-1.837,0.748c0.318,1.74,7.624,22.217,5.333,47.442
		c-2.251,24.79-13.965,49.596-38.936,52.064c-17.282,1.708-17.206-10.448-24.306-9.67c-1.684,0.184-3.315,0.265-4.892,0.255
		c0.011,1.576-0.07,3.208-0.255,4.892c-0.778,7.1,11.378,7.024,9.67,24.306c-2.468,24.971-27.274,36.686-52.064,38.936
		c-25.225,2.29-45.702-5.015-47.442-5.333c-1.25-0.228-2.027,1.1-0.748,1.837c3.762,2.169,38.065,11.158,68.179,3.275
		C1471.499,1530.301,1487.017,1513.071,1493.407,1493.407z M150.692,1493.407c6.39,19.664,21.908,36.894,47.087,43.486
		c30.113,7.884,64.417-1.106,68.179-3.275c1.279-0.737,0.502-2.065-0.748-1.837c-1.74,0.318-22.217,7.624-47.442,5.333
		c-24.79-2.251-49.596-13.965-52.064-38.936c-1.708-17.282,10.448-17.206,9.67-24.306c-0.184-1.684-0.265-3.315-0.255-4.892
		c-1.576,0.011-3.208-0.07-4.892-0.255c-7.1-0.778-7.024,11.378-24.306,9.67c-24.971-2.468-36.686-27.274-38.936-52.064
		c-2.29-25.225,5.015-45.702,5.333-47.442c0.228-1.25-1.1-2.027-1.837-0.748c-2.169,3.762-11.158,38.065-3.275,68.179
		C113.798,1471.499,131.028,1487.017,150.692,1493.407z M150.692,150.692c-19.664,6.39-36.894,21.908-43.486,47.087
		c-7.884,30.113,1.106,64.417,3.275,68.179c0.737,1.279,2.065,0.502,1.837-0.748c-0.318-1.74-7.624-22.217-5.333-47.442
		c2.251-24.79,13.965-49.596,38.936-52.064c17.282-1.708,17.206,10.448,24.306,9.67c1.684-0.184,3.315-0.265,4.892-0.255
		c-0.011-1.576,0.07-3.208,0.255-4.892c0.778-7.1-11.378-7.024-9.67-24.306c2.468-24.971,27.274-36.686,52.064-38.936
		c25.225-2.29,45.702,5.015,47.442,5.333c1.25,0.228,2.027-1.1,0.748-1.837c-3.762-2.169-38.065-11.158-68.179-3.275
		C172.6,113.798,157.082,131.028,150.692,150.692z M1493.407,150.692c-6.39-19.664-21.908-36.894-47.087-43.486
		c-30.113-7.884-64.417,1.106-68.179,3.275c-1.279,0.737-0.502,2.065,0.748,1.837c1.74-0.318,22.217-7.624,47.442-5.333
		c24.79,2.251,49.596,13.965,52.064,38.936c1.708,17.282-10.448,17.206-9.67,24.306c0.184,1.684,0.265,3.315,0.255,4.892
		c1.576-0.011,3.208,0.07,4.892,0.255c7.1,0.778,7.024-11.378,24.306-9.67c24.971,2.468,36.686,27.274,38.936,52.064
		c2.29,25.225-5.015,45.702-5.333,47.442c-0.228,1.25,1.1,2.027,1.837,0.748c2.169-3.762,11.158-38.065,3.275-68.179
		C1530.301,172.6,1513.071,157.082,1493.407,150.692z M1465.867,1465.867c2.328,0.035,4.779-0.186,7.373-0.689
		c3.479-0.674,1.347-2.014,1.871-7.153c0.942-9.23,7.184-15.828,18.328-14.443c3.518,0.438,3.625,0.44,4.259-3.063
		c1.756-9.706,0.309-18.934-4.459-27.592c-1.395-2.532-1.497-2.494-4.018-0.568c-20.71,15.822-49.635,11.035-61.937-4.674
		c-1.105-1.411-2.045-1.347-3.129-0.079c-2.69,3.145-4.991,6.355-6.868,9.679c-3.324,1.877-6.534,4.178-9.679,6.868
		c-1.268,1.084-1.332,2.024,0.079,3.129c15.709,12.302,20.495,41.227,4.674,61.937c-1.926,2.521-1.964,2.623,0.568,4.018
		c8.658,4.769,17.886,6.215,27.592,4.459c3.503-0.634,3.5-0.74,3.063-4.259c-1.386-11.144,5.213-17.386,14.443-18.328
		c5.138-0.524,6.478,1.608,7.153-1.871C1465.681,1470.646,1465.902,1468.195,1465.867,1465.867z M178.231,1465.867
		c-0.035,2.328,0.186,4.779,0.689,7.373c0.674,3.479,2.014,1.347,7.153,1.871c9.23,0.942,15.829,7.184,14.443,18.328
		c-0.438,3.518-0.44,3.625,3.063,4.259c9.706,1.756,18.934,0.309,27.592-4.459c2.532-1.395,2.494-1.497,0.568-4.018
		c-15.822-20.71-11.035-49.635,4.674-61.937c1.412-1.105,1.347-2.045,0.079-3.129c-3.145-2.69-6.355-4.991-9.679-6.868
		c-1.877-3.324-4.178-6.534-6.868-9.679c-1.084-1.268-2.024-1.332-3.129,0.079c-12.302,15.709-41.227,20.495-61.937,4.674
		c-2.521-1.926-2.623-1.964-4.018,0.568c-4.769,8.658-6.215,17.886-4.459,27.592c0.634,3.503,0.74,3.5,4.259,3.063
		c11.144-1.386,17.386,5.213,18.328,14.443c0.524,5.138-1.608,6.478,1.871,7.153
		C173.452,1465.681,175.904,1465.902,178.231,1465.867z M178.231,178.231c-2.328-0.035-4.779,0.186-7.373,0.689
		c-3.479,0.674-1.347,2.014-1.871,7.153c-0.942,9.23-7.184,15.829-18.328,14.443c-3.518-0.438-3.625-0.44-4.259,3.063
		c-1.756,9.706-0.31,18.934,4.459,27.592c1.395,2.532,1.497,2.494,4.018,0.568c20.71-15.822,49.635-11.035,61.937,4.674
		c1.105,1.412,2.045,1.347,3.129,0.079c2.69-3.145,4.991-6.355,6.868-9.679c3.324-1.877,6.534-4.178,9.679-6.868
		c1.268-1.084,1.332-2.024-0.079-3.129c-15.709-12.302-20.496-41.227-4.674-61.937c1.926-2.521,1.964-2.623-0.568-4.018
		c-8.658-4.769-17.886-6.215-27.592-4.459c-3.503,0.634-3.5,0.74-3.063,4.259c1.386,11.144-5.213,17.386-14.443,18.328
		c-5.138,0.524-6.478-1.608-7.153,1.871C178.417,173.452,178.196,175.904,178.231,178.231z M1465.867,178.231
		c0.035-2.328-0.186-4.779-0.689-7.373c-0.674-3.479-2.014-1.347-7.153-1.871c-9.23-0.942-15.828-7.184-14.443-18.328
		c0.438-3.518,0.44-3.625-3.063-4.259c-9.706-1.756-18.934-0.31-27.592,4.459c-2.532,1.395-2.494,1.497-0.568,4.018
		c15.822,20.71,11.035,49.635-4.674,61.937c-1.411,1.105-1.347,2.045-0.079,3.129c3.145,2.69,6.355,4.991,9.679,6.868
		c1.877,3.324,4.178,6.534,6.868,9.679c1.084,1.268,2.024,1.332,3.129-0.079c12.302-15.709,41.227-20.496,61.937-4.674
		c2.521,1.926,2.623,1.964,4.018-0.568c4.769-8.658,6.215-17.886,4.459-27.592c-0.634-3.503-0.74-3.5-4.259-3.063
		c-11.144,1.386-17.386-5.213-18.328-14.443c-0.524-5.138,1.608-6.478-1.871-7.153
		C1470.646,178.417,1468.195,178.196,1465.867,178.231z M1364.886,163.49c-0.902-0.339-1.469-0.002-2.042,0.306
		c-5.053,2.71-10.448,3.9-16.173,3.715c-19.578-0.635-34.321,5.043-40.235,23.637c-0.698,2.192-0.394,3.563,1.298,5.127
		c25.374,23.443,16.092,76.758-37.858,100.258c-63.499,27.66-163.662,5.243-229.557-52.001c-4.882-4.241-9.63-8.626-14.498-12.902
		c34.214,48.866,128.607,86.26,198.558,82.431c113.836-6.231,137.955-99.885,133.957-104.636
		c-3.538-4.203-9.209-25.913,5.487-36.067c0.81-0.56,1.304-1.253,1.279-2.261C1365.035,168.528,1365.385,165.937,1364.886,163.49z
		 M163.49,279.213c-0.339,0.902-0.002,1.469,0.306,2.042c2.71,5.053,3.9,10.448,3.715,16.173
		c-0.635,19.578,5.043,34.321,23.637,40.235c2.192,0.698,3.563,0.394,5.127-1.298c23.443-25.374,76.758-16.092,100.258,37.858
		c27.66,63.499,5.243,163.662-52.001,229.557c-4.241,4.882-8.626,9.629-12.902,14.498c48.866-34.214,86.26-128.607,82.431-198.558
		c-6.231-113.836-99.885-137.955-104.636-133.957c-4.203,3.538-25.913,9.209-36.067-5.487c-0.56-0.81-1.253-1.304-2.261-1.279
		C168.528,279.063,165.937,278.713,163.49,279.213z M279.213,1480.609c0.902,0.339,1.469,0.002,2.042-0.306
		c5.053-2.71,10.448-3.9,16.173-3.715c19.578,0.635,34.321-5.043,40.235-23.637c0.698-2.192,0.394-3.563-1.298-5.127
		c-25.374-23.443-16.092-76.758,37.858-100.258c63.499-27.66,163.662-5.243,229.557,52.001c4.882,4.241,9.629,8.626,14.498,12.902
		c-34.214-48.866-128.607-86.26-198.558-82.431c-113.836,6.231-137.955,99.885-133.957,104.636
		c3.538,4.203,9.209,25.913-5.487,36.067c-0.81,0.56-1.304,1.253-1.279,2.261C279.063,1475.571,278.713,1478.161,279.213,1480.609z
		 M1480.609,1364.886c0.339-0.902,0.002-1.469-0.306-2.042c-2.71-5.053-3.9-10.448-3.715-16.173
		c0.635-19.578-5.043-34.321-23.637-40.235c-2.192-0.698-3.563-0.394-5.127,1.298c-23.443,25.374-76.758,16.092-100.258-37.858
		c-27.66-63.499-5.243-163.662,52.001-229.557c4.241-4.882,8.626-9.63,12.902-14.498c-48.866,34.214-86.26,128.607-82.431,198.558
		c6.231,113.836,99.885,137.955,104.636,133.957c4.203-3.538,25.913-9.209,36.067,5.487c0.56,0.81,1.253,1.304,2.261,1.279
		C1475.571,1365.035,1478.161,1365.385,1480.609,1364.886z M1473.001,278.998c-1.008-0.026-1.701,0.468-2.261,1.279
		c-10.154,14.695-31.863,9.024-36.067,5.487c-4.751-3.998-98.405,20.121-104.636,133.957
		c-3.829,69.951,33.565,164.344,82.431,198.558c-4.276-4.868-8.661-9.616-12.902-14.498
		c-57.244-65.895-79.661-166.059-52.001-229.557c23.501-53.95,76.815-63.232,100.258-37.858c1.564,1.692,2.935,1.996,5.127,1.298
		c18.594-5.914,24.272-20.657,23.637-40.235c-0.185-5.725,1.005-11.12,3.715-16.173c0.308-0.573,0.645-1.14,0.306-2.042
		C1478.161,278.713,1475.571,279.063,1473.001,278.998z M278.998,171.097c-0.026,1.008,0.468,1.701,1.279,2.261
		c14.695,10.154,9.024,31.863,5.487,36.067c-3.998,4.751,20.121,98.405,133.957,104.636c69.951,3.829,164.344-33.565,198.558-82.431
		c-4.868,4.276-9.616,8.661-14.498,12.902c-65.895,57.244-166.059,79.661-229.557,52.001
		c-53.95-23.501-63.232-76.815-37.858-100.258c1.692-1.564,1.996-2.935,1.298-5.127c-5.914-18.594-20.657-24.272-40.235-23.637
		c-5.725,0.185-11.12-1.006-16.173-3.715c-0.573-0.308-1.14-0.645-2.042-0.306C278.713,165.937,279.063,168.528,278.998,171.097z
		 M171.097,1365.101c1.008,0.026,1.701-0.468,2.261-1.279c10.154-14.695,31.863-9.025,36.067-5.487
		c4.751,3.998,98.405-20.121,104.636-133.957c3.829-69.951-33.565-164.344-82.431-198.558c4.276,4.868,8.661,9.616,12.902,14.498
		c57.244,65.895,79.661,166.059,52.001,229.557c-23.501,53.95-76.815,63.232-100.258,37.858c-1.564-1.692-2.935-1.996-5.127-1.298
		c-18.594,5.915-24.272,20.657-23.637,40.235c0.185,5.725-1.006,11.12-3.715,16.173c-0.308,0.573-0.645,1.14-0.306,2.042
		C165.937,1365.385,168.528,1365.035,171.097,1365.101z M1365.101,1473.001c0.026-1.008-0.468-1.701-1.279-2.261
		c-14.695-10.154-9.025-31.863-5.487-36.067c3.998-4.751-20.121-98.405-133.957-104.636
		c-69.951-3.829-164.344,33.565-198.558,82.431c4.868-4.276,9.616-8.661,14.498-12.902c65.895-57.244,166.059-79.661,229.557-52.001
		c53.95,23.501,63.232,76.815,37.858,100.258c-1.692,1.564-1.996,2.935-1.298,5.127c5.915,18.594,20.657,24.272,40.235,23.637
		c5.725-0.185,11.12,1.005,16.173,3.715c0.573,0.308,1.14,0.645,2.042,0.306C1365.385,1478.161,1365.035,1475.571,1365.101,1473.001
		z M1188.207,141.866c-0.198,8.653-4.819,32.052-19.953,49.103c-2.443,2.751-2.434,2.759-0.124,5.767
		c1.72,2.24,1.751,2.273,3.801,0.361c30.01-27.982,33.07-84.435,4.436-111.651c-1.856-1.764-2.482-0.576-4.537,2.278
		c-14.608,20.277-20.751,44.663-19.58,64.535c0.195,3.314,0.544,3.651,3.801,3.17
		C1177.603,152.244,1185.26,142.683,1188.207,141.866z M141.866,455.892c8.653,0.198,32.052,4.819,49.103,19.953
		c2.751,2.443,2.759,2.434,5.767,0.124c2.24-1.72,2.273-1.751,0.361-3.801c-27.982-30.01-84.435-33.07-111.651-4.436
		c-1.764,1.856-0.576,2.482,2.278,4.537c20.277,14.608,44.663,20.751,64.535,19.58c3.314-0.195,3.651-0.544,3.17-3.801
		C152.244,466.496,142.683,458.839,141.866,455.892z M455.892,1502.233c0.198-8.653,4.819-32.052,19.953-49.103
		c2.443-2.751,2.434-2.759,0.124-5.767c-1.72-2.24-1.751-2.273-3.801-0.361c-30.01,27.982-33.07,84.435-4.436,111.651
		c1.856,1.764,2.482,0.576,4.537-2.278c14.608-20.277,20.751-44.663,19.58-64.535c-0.195-3.314-0.544-3.651-3.801-3.17
		C466.496,1491.854,458.839,1501.415,455.892,1502.233z M1502.233,1188.207c-8.653-0.198-32.052-4.819-49.103-19.953
		c-2.751-2.443-2.759-2.434-5.767-0.124c-2.24,1.72-2.273,1.751-0.361,3.801c27.982,30.01,84.435,33.07,111.651,4.436
		c1.764-1.856,0.576-2.482-2.278-4.537c-20.277-14.608-44.663-20.751-64.535-19.58c-3.314,0.195-3.651,0.544-3.17,3.801
		C1491.854,1177.603,1501.415,1185.26,1502.233,1188.207z M1488.671,488.049c-0.481,3.256-0.144,3.605,3.17,3.801
		c19.873,1.171,44.258-4.973,64.535-19.58c2.854-2.055,4.042-2.682,2.278-4.537c-27.216-28.634-83.67-25.574-111.651,4.436
		c-1.912,2.05-1.879,2.081,0.361,3.801c3.007,2.31,3.015,2.318,5.767-0.124c17.051-15.135,40.45-19.756,49.103-19.953
		C1501.415,458.839,1491.854,466.496,1488.671,488.049z M488.049,155.428c3.256,0.481,3.605,0.144,3.801-3.17
		c1.171-19.873-4.973-44.258-19.58-64.535c-2.055-2.854-2.682-4.042-4.537-2.278c-28.634,27.216-25.574,83.67,4.436,111.651
		c2.05,1.912,2.081,1.879,3.801-0.361c2.31-3.007,2.318-3.015-0.124-5.767c-15.135-17.051-19.756-40.45-19.953-49.103
		C458.839,142.683,466.496,152.244,488.049,155.428z M155.428,1156.05c0.481-3.256,0.144-3.605-3.17-3.801
		c-19.873-1.171-44.258,4.973-64.535,19.58c-2.854,2.055-4.042,2.682-2.278,4.537c27.216,28.634,83.67,25.574,111.651-4.436
		c1.912-2.05,1.879-2.081-0.361-3.801c-3.007-2.31-3.015-2.318-5.767,0.124c-17.051,15.135-40.45,19.756-49.103,19.953
		C142.683,1185.26,152.244,1177.603,155.428,1156.05z M1156.05,1488.671c-3.256-0.481-3.605-0.144-3.801,3.17
		c-1.171,19.873,4.973,44.258,19.58,64.535c2.055,2.854,2.682,4.042,4.537,2.278c28.634-27.216,25.574-83.67-4.436-111.651
		c-2.05-1.912-2.081-1.879-3.801,0.361c-2.31,3.007-2.318,3.015,0.124,5.767c15.135,17.051,19.756,40.45,19.953,49.103
		C1185.26,1501.415,1177.603,1491.854,1156.05,1488.671z M1085.096,113.957c-0.441,2.071-0.279,2.221,2.283,2.233
		c28.551,0.127,27.327,0.582,28.427-1.758c3.078-6.548,9.633-6.416,16.346-4.92c1.735,0.387,3.336,2.51,4.975,1.429
		c1.42-0.936,1.293-3.271,1.864-4.977c10.32-30.851,19.821-31.249,13.24-33.208C1120.832,63.408,1092.536,79.035,1085.096,113.957z
		 M113.957,559.003c2.071,0.441,2.221,0.279,2.233-2.283c0.127-28.551,0.582-27.327-1.758-28.427
		c-6.548-3.078-6.416-9.633-4.92-16.346c0.387-1.735,2.51-3.336,1.429-4.975c-0.936-1.42-3.271-1.293-4.977-1.864
		c-30.851-10.32-31.249-19.821-33.208-13.24C63.408,523.267,79.035,551.563,113.957,559.003z M559.003,1530.142
		c0.441-2.071,0.279-2.221-2.283-2.233c-28.551-0.127-27.327-0.583-28.427,1.758c-3.078,6.548-9.633,6.416-16.346,4.92
		c-1.735-0.386-3.336-2.51-4.975-1.429c-1.42,0.936-1.293,3.271-1.864,4.977c-10.32,30.851-19.821,31.249-13.24,33.208
		C523.267,1580.691,551.563,1565.064,559.003,1530.142z M1530.142,1085.096c-2.071-0.441-2.221-0.279-2.233,2.283
		c-0.127,28.551-0.583,27.327,1.758,28.427c6.548,3.078,6.416,9.633,4.92,16.346c-0.386,1.735-2.51,3.336-1.429,4.975
		c0.936,1.42,3.271,1.293,4.977,1.864c30.851,10.32,31.249,19.821,33.208,13.24
		C1580.691,1120.832,1565.064,1092.536,1530.142,1085.096z M1571.344,491.867c-1.959-6.581-2.356,2.92-33.208,13.24
		c-1.706,0.571-4.041,0.444-4.977,1.864c-1.082,1.639,1.042,3.24,1.429,4.975c1.496,6.712,1.629,13.268-4.92,16.346
		c-2.341,1.1-1.885-0.124-1.758,28.427c0.012,2.563,0.162,2.724,2.233,2.283C1565.064,551.563,1580.691,523.267,1571.344,491.867z
		 M491.867,72.755c-6.581,1.959,2.92,2.356,13.24,33.208c0.571,1.706,0.444,4.041,1.864,4.977c1.639,1.082,3.24-1.042,4.975-1.429
		c6.712-1.496,13.268-1.629,16.346,4.92c1.1,2.341-0.124,1.885,28.427,1.758c2.563-0.012,2.724-0.162,2.283-2.233
		C551.563,79.035,523.267,63.408,491.867,72.755z M72.755,1152.231c1.959,6.581,2.356-2.92,33.208-13.24
		c1.706-0.571,4.041-0.444,4.977-1.864c1.082-1.639-1.042-3.24-1.429-4.975c-1.496-6.712-1.629-13.268,4.92-16.346
		c2.341-1.1,1.885,0.124,1.758-28.427c-0.012-2.563-0.162-2.724-2.233-2.283C79.035,1092.536,63.408,1120.832,72.755,1152.231z
		 M1152.231,1571.344c6.581-1.959-2.92-2.356-13.24-33.208c-0.571-1.706-0.444-4.041-1.864-4.977
		c-1.639-1.082-3.24,1.042-4.975,1.429c-6.712,1.496-13.268,1.629-16.346-4.92c-1.1-2.341,0.124-1.885-28.427-1.758
		c-2.563,0.012-2.724,0.162-2.283,2.233C1092.536,1565.064,1120.832,1580.691,1152.231,1571.344z M1099.914,120.619
		c0,0.002,0,0.005,0,0.007c-14.409,0-15.937-0.782-15.961,2.497c-0.044,5.953,1.91,15.444,6.971,24.062
		c12.458,21.212,42.295,14.968,42.289,7.21c-0.001-1.435-1.328-17.44,1.345-30.302c0.284-1.366,0.084-2.447-1.588-3.032
		c-2.069-0.723-2.39,0.663-3.085,1.939c-3.835,7.037-11.789,3.892-13.834-0.199C1114.627,119.947,1113.971,120.619,1099.914,120.619
		z M120.619,544.185c0.002,0,0.005,0,0.007,0c0,14.409-0.782,15.937,2.497,15.961c5.953,0.044,15.444-1.91,24.062-6.971
		c21.212-12.458,14.968-42.295,7.21-42.289c-1.435,0.001-17.44,1.328-30.302-1.345c-1.366-0.284-2.447-0.084-3.032,1.588
		c-0.723,2.069,0.663,2.39,1.939,3.085c7.037,3.835,3.892,11.789-0.199,13.834C119.947,529.471,120.619,530.128,120.619,544.185z
		 M544.185,1523.48c0-0.002,0-0.005,0-0.007c14.409,0,15.937,0.781,15.961-2.497c0.044-5.953-1.91-15.444-6.971-24.062
		c-12.458-21.212-42.295-14.968-42.289-7.21c0.001,1.435,1.328,17.44-1.345,30.302c-0.284,1.366-0.084,2.447,1.588,3.032
		c2.069,0.723,2.39-0.663,3.085-1.939c3.835-7.037,11.789-3.892,13.834,0.199C529.471,1524.152,530.128,1523.48,544.185,1523.48z
		 M1523.48,1099.914c-0.002,0-0.005,0-0.007,0c0-14.409,0.781-15.937-2.497-15.961c-5.953-0.044-15.444,1.91-24.062,6.971
		c-21.212,12.458-14.968,42.295-7.21,42.289c1.435-0.001,17.44-1.328,30.302,1.345c1.366,0.284,2.447,0.084,3.032-1.588
		c0.723-2.069-0.663-2.39-1.939-3.085c-7.037-3.835-3.892-11.789,0.199-13.834C1524.152,1114.627,1523.48,1113.971,1523.48,1099.914
		z M1521.298,528.047c-4.092-2.045-7.236-9.999-0.199-13.834c1.275-0.695,2.662-1.016,1.939-3.085
		c-0.585-1.672-1.667-1.872-3.032-1.588c-12.862,2.673-28.867,1.346-30.302,1.345c-7.758-0.006-14.002,29.831,7.21,42.289
		c8.618,5.061,18.11,7.016,24.062,6.971c3.279-0.024,2.497-1.552,2.497-15.961c0.002,0,0.005,0,0.007,0
		C1523.48,530.128,1524.152,529.471,1521.298,528.047z M528.047,122.801c-2.045,4.091-9.999,7.236-13.834,0.199
		c-0.695-1.275-1.016-2.662-3.085-1.939c-1.672,0.585-1.872,1.667-1.588,3.032c2.673,12.862,1.346,28.867,1.345,30.302
		c-0.006,7.758,29.831,14.002,42.289-7.21c5.061-8.618,7.016-18.11,6.971-24.062c-0.024-3.279-1.552-2.497-15.961-2.497
		c0-0.002,0-0.005,0-0.007C530.128,120.619,529.471,119.947,528.047,122.801z M122.801,1116.052
		c4.091,2.045,7.236,9.999,0.199,13.834c-1.275,0.695-2.662,1.016-1.939,3.085c0.585,1.672,1.667,1.872,3.032,1.588
		c12.862-2.673,28.867-1.346,30.302-1.345c7.758,0.006,14.002-29.831-7.21-42.289c-8.618-5.061-18.11-7.016-24.062-6.971
		c-3.279,0.024-2.497,1.552-2.497,15.961c-0.002,0-0.005,0-0.007,0C120.619,1113.971,119.947,1114.627,122.801,1116.052z
		 M1116.052,1521.298c2.045-4.092,9.999-7.236,13.834-0.199c0.695,1.275,1.016,2.662,3.085,1.939
		c1.672-0.585,1.872-1.667,1.588-3.032c-2.673-12.862-1.346-28.867-1.345-30.302c0.006-7.758-29.831-14.002-42.289,7.21
		c-5.061,8.618-7.016,18.11-6.971,24.062c0.024,3.279,1.552,2.497,15.961,2.497c0,0.002,0,0.005,0,0.007
		C1113.971,1523.48,1114.627,1524.152,1116.052,1521.298z M1384.094,133.243c0.233,9.311,4.06,2.712,17.3,11.947
		c2.058,1.435,3.563,1.643,5.907,0.298c21.381-12.262,50.073-6.231,59.048,15.479c0.876,2.118,1.433,2.206,2.945,0.586
		c19.1-20.463-16.192-65.283-88.2-47.097c-0.889,0.225-2.101,0.643-1.911,1.536c0.17,0.793,0.625,0.854,4.662-0.009
		c62.611-13.38,66.936,24.054,33.895,20.72C1396.622,134.572,1390.635,132.108,1384.094,133.243z M133.243,260.005
		c9.311-0.233,2.712-4.06,11.947-17.3c1.435-2.058,1.643-3.563,0.298-5.907c-12.262-21.381-6.231-50.073,15.479-59.049
		c2.118-0.876,2.206-1.433,0.586-2.945c-20.463-19.1-65.283,16.192-47.097,88.2c0.225,0.889,0.643,2.101,1.536,1.911
		c0.793-0.17,0.854-0.625-0.009-4.662c-13.38-62.611,24.054-66.936,20.72-33.895C134.572,247.476,132.108,253.464,133.243,260.005z
		 M260.005,1510.855c-0.233-9.311-4.06-2.712-17.3-11.947c-2.058-1.435-3.563-1.643-5.907-0.298
		c-21.381,12.262-50.073,6.231-59.049-15.479c-0.876-2.118-1.433-2.206-2.945-0.586c-19.1,20.463,16.192,65.283,88.2,47.097
		c0.889-0.225,2.101-0.643,1.911-1.536c-0.17-0.793-0.625-0.854-4.662,0.009c-62.611,13.38-66.936-24.054-33.895-20.72
		C247.476,1509.526,253.464,1511.991,260.005,1510.855z M1510.855,1384.094c-9.311,0.233-2.712,4.06-11.947,17.3
		c-1.435,2.058-1.643,3.563-0.298,5.907c12.262,21.381,6.231,50.073-15.479,59.048c-2.118,0.876-2.206,1.433-0.586,2.945
		c20.463,19.1,65.283-16.192,47.097-88.2c-0.225-0.889-0.643-2.101-1.536-1.911c-0.793,0.17-0.854,0.625,0.009,4.662
		c13.38,62.611-24.054,66.936-20.72,33.895C1509.526,1396.622,1511.991,1390.635,1510.855,1384.094z M1507.395,226.357
		c-3.334-33.041,34.1-28.716,20.72,33.895c-0.863,4.038-0.803,4.493-0.009,4.662c0.893,0.191,1.311-1.022,1.536-1.911
		c18.186-72.008-26.634-107.3-47.097-88.2c-1.62,1.512-1.531,2.069,0.586,2.945c21.71,8.975,27.741,37.667,15.479,59.049
		c-1.345,2.345-1.137,3.85,0.298,5.907c9.235,13.24,2.636,17.067,11.947,17.3C1511.991,253.464,1509.526,247.476,1507.395,226.357z
		 M226.357,136.703c-33.041,3.334-28.716-34.1,33.895-20.72c4.038,0.863,4.493,0.803,4.662,0.009
		c0.191-0.893-1.022-1.311-1.911-1.536c-72.008-18.186-107.3,26.634-88.2,47.097c1.512,1.62,2.069,1.531,2.945-0.586
		c8.975-21.71,37.667-27.741,59.049-15.479c2.345,1.345,3.85,1.137,5.907-0.298c13.24-9.235,17.067-2.636,17.3-11.947
		C253.464,132.108,247.476,134.572,226.357,136.703z M136.703,1417.742c3.334,33.041-34.1,28.716-20.72-33.895
		c0.863-4.038,0.803-4.493,0.009-4.662c-0.893-0.19-1.311,1.022-1.536,1.911c-18.186,72.008,26.634,107.3,47.097,88.2
		c1.62-1.512,1.531-2.069-0.586-2.945c-21.71-8.975-27.741-37.667-15.479-59.048c1.345-2.345,1.137-3.85-0.298-5.907
		c-9.235-13.24-2.636-17.067-11.947-17.3C132.108,1390.635,134.572,1396.622,136.703,1417.742z M1417.742,1507.395
		c33.041-3.334,28.716,34.1-33.895,20.72c-4.038-0.863-4.493-0.803-4.662-0.009c-0.19,0.893,1.022,1.311,1.911,1.536
		c72.008,18.186,107.3-26.634,88.2-47.097c-1.512-1.62-2.069-1.531-2.945,0.586c-8.975,21.71-37.667,27.741-59.048,15.479
		c-2.345-1.345-3.85-1.137-5.907,0.298c-13.24,9.235-17.067,2.636-17.3,11.947
		C1390.635,1511.991,1396.622,1509.526,1417.742,1507.395z M1252.576,226.946c1.311,0.243,24.48-3.539,39.849-29.203
		c1.041-1.738,0.768-2.221-1.511-3.005C1264.809,185.76,1246.473,209.376,1252.576,226.946z M226.946,391.523
		c0.243-1.311-3.539-24.48-29.203-39.849c-1.738-1.041-2.221-0.768-3.005,1.511C185.76,379.29,209.376,397.625,226.946,391.523z
		 M391.523,1417.153c-1.311-0.243-24.48,3.539-39.849,29.203c-1.041,1.738-0.768,2.221,1.511,3.005
		C379.29,1458.339,397.625,1434.723,391.523,1417.153z M1417.153,1252.576c-0.243,1.311,3.539,24.48,29.203,39.849
		c1.738,1.041,2.221,0.768,3.005-1.511C1458.339,1264.809,1434.723,1246.473,1417.153,1252.576z M1449.361,353.185
		c-0.784-2.279-1.267-2.552-3.005-1.511c-25.663,15.369-29.446,38.537-29.203,39.849
		C1434.723,397.625,1458.339,379.29,1449.361,353.185z M353.185,194.738c-2.279,0.784-2.552,1.267-1.511,3.005
		c15.369,25.663,38.537,29.446,39.849,29.203C397.625,209.376,379.29,185.76,353.185,194.738z M194.738,1290.913
		c0.784,2.279,1.267,2.552,3.005,1.511c25.663-15.369,29.446-38.537,29.203-39.849
		C209.376,1246.473,185.76,1264.809,194.738,1290.913z M1290.913,1449.361c2.279-0.784,2.552-1.267,1.511-3.005
		c-15.369-25.663-38.537-29.446-39.849-29.203C1246.473,1434.723,1264.809,1458.339,1290.913,1449.361z M1410.297,184.52
		c-3.853-2.937-6.189-5.38-13.051-7.478c-2.505-0.765-2.791-0.536-3.365,2.132c-1.012,4.702-1.157,17.768,5.659,30.158
		c1.315,2.39,1.615,2.418,3.751,0.6c21.87-18.615,5.309-55.226,1.056-52.308c-2.332,1.601-0.488,2.827,1.053,5.627
		C1408.917,169.641,1410.634,176.453,1410.297,184.52z M184.52,233.801c-2.937,3.853-5.38,6.189-7.478,13.051
		c-0.765,2.505-0.536,2.791,2.132,3.365c4.702,1.012,17.768,1.157,30.158-5.659c2.39-1.315,2.418-1.615,0.6-3.751
		c-18.615-21.87-55.226-5.309-52.308-1.056c1.601,2.332,2.827,0.488,5.627-1.053C169.641,235.182,176.453,233.464,184.52,233.801z
		 M233.801,1459.578c3.853,2.937,6.189,5.38,13.051,7.478c2.505,0.765,2.791,0.536,3.365-2.132
		c1.012-4.702,1.157-17.768-5.659-30.158c-1.315-2.39-1.615-2.418-3.751-0.6c-21.87,18.615-5.309,55.226-1.056,52.308
		c2.332-1.6,0.488-2.827-1.053-5.627C235.182,1474.457,233.464,1467.646,233.801,1459.578z M1459.578,1410.297
		c2.937-3.853,5.38-6.189,7.478-13.051c0.765-2.505,0.536-2.791-2.132-3.365c-4.702-1.012-17.768-1.157-30.158,5.659
		c-2.39,1.315-2.418,1.615-0.6,3.751c18.615,21.87,55.226,5.309,52.308,1.056c-1.6-2.332-2.827-0.488-5.627,1.053
		C1474.457,1408.917,1467.646,1410.634,1459.578,1410.297z M1480.847,238.698c2.801,1.541,4.027,3.385,5.627,1.053
		c2.918-4.253-33.693-20.814-52.308,1.056c-1.818,2.136-1.79,2.436,0.6,3.751c12.39,6.817,25.456,6.671,30.158,5.659
		c2.667-0.574,2.897-0.86,2.132-3.365c-2.097-6.862-4.54-9.198-7.478-13.051C1467.646,233.464,1474.457,235.182,1480.847,238.698z
		 M238.698,163.252c1.541-2.8,3.385-4.027,1.053-5.627c-4.253-2.918-20.814,33.693,1.056,52.308c2.136,1.817,2.436,1.789,3.751-0.6
		c6.817-12.39,6.671-25.456,5.659-30.158c-0.574-2.668-0.86-2.897-3.365-2.132c-6.862,2.097-9.198,4.54-13.051,7.478
		C233.464,176.453,235.182,169.641,238.698,163.252z M163.252,1405.401c-2.8-1.541-4.027-3.385-5.627-1.053
		c-2.918,4.253,33.693,20.814,52.308-1.056c1.817-2.136,1.789-2.436-0.6-3.751c-12.39-6.817-25.456-6.671-30.158-5.659
		c-2.668,0.574-2.897,0.86-2.132,3.365c2.097,6.862,4.54,9.198,7.478,13.051C176.453,1410.634,169.641,1408.917,163.252,1405.401z
		 M1405.401,1480.847c-1.541,2.801-3.385,4.027-1.053,5.627c4.253,2.918,20.814-33.693-1.056-52.308
		c-2.136-1.818-2.436-1.79-3.751,0.6c-6.817,12.39-6.671,25.456-5.659,30.158c0.574,2.667,0.86,2.897,3.365,2.132
		c6.862-2.097,9.198-4.54,13.051-7.478C1410.634,1467.646,1408.917,1474.457,1405.401,1480.847z M1037.298,202.752
		c5.892,6.16,60.945,30.699,109.828,10.549c8.74-3.602,8.418-4.273,8.175-5.129c-0.678-2.398-3.203-3.597-5.313-2.4
		C1114.173,226.111,1073.095,215.387,1037.298,202.752z M202.752,606.801c6.16-5.892,30.699-60.945,10.549-109.828
		c-3.602-8.74-4.273-8.418-5.129-8.175c-2.398,0.678-3.597,3.203-2.4,5.312C226.111,529.926,215.387,571.004,202.752,606.801z
		 M606.801,1441.347c-5.892-6.16-60.945-30.699-109.828-10.549c-8.74,3.602-8.418,4.273-8.175,5.129
		c0.678,2.398,3.203,3.597,5.312,2.4C529.926,1417.988,571.004,1428.711,606.801,1441.347z M1441.347,1037.298
		c-6.16,5.892-30.699,60.945-10.549,109.828c3.602,8.74,4.273,8.418,5.129,8.175c2.398-0.678,3.597-3.203,2.4-5.313
		C1417.988,1114.173,1428.711,1073.095,1441.347,1037.298z M1438.327,494.11c1.197-2.109-0.002-4.634-2.4-5.312
		c-0.856-0.243-1.527-0.565-5.129,8.175c-20.15,48.882,4.389,103.936,10.549,109.828
		C1428.711,571.004,1417.988,529.926,1438.327,494.11z M494.11,205.772c-2.109-1.197-4.634,0.002-5.312,2.4
		c-0.243,0.856-0.565,1.527,8.175,5.129c48.882,20.15,103.936-4.389,109.828-10.549C571.004,215.387,529.926,226.111,494.11,205.772
		z M205.772,1149.989c-1.197,2.109,0.002,4.634,2.4,5.313c0.856,0.243,1.527,0.565,5.129-8.175
		c20.15-48.882-4.389-103.936-10.549-109.828C215.387,1073.095,226.111,1114.173,205.772,1149.989z M1149.989,1438.327
		c2.109,1.197,4.634-0.002,5.313-2.4c0.243-0.856,0.565-1.527-8.175-5.129c-48.882-20.15-103.936,4.389-109.828,10.549
		C1073.095,1428.711,1114.173,1417.988,1149.989,1438.327z M1462.472,162.819c-3.19-6.365-7.947-11.151-14.504-14.045
		c-2.123-0.937-2.742-0.561-3.035,1.756C1442.832,167.19,1465.654,169.169,1462.472,162.819z M162.819,181.627
		c-6.365,3.19-11.151,7.947-14.045,14.504c-0.937,2.123-0.561,2.742,1.756,3.035C167.19,201.267,169.169,178.444,162.819,181.627z
		 M181.627,1481.28c3.19,6.365,7.947,11.151,14.504,14.045c2.123,0.937,2.742,0.562,3.035-1.756
		C201.267,1476.909,178.444,1474.93,181.627,1481.28z M1481.28,1462.472c6.365-3.19,11.151-7.947,14.045-14.504
		c0.937-2.123,0.562-2.742-1.756-3.035C1476.909,1442.832,1474.93,1465.654,1481.28,1462.472z M1493.569,199.165
		c2.318-0.292,2.693-0.911,1.756-3.035c-2.894-6.557-7.68-11.314-14.045-14.504C1474.93,178.444,1476.909,201.267,1493.569,199.165z
		 M199.165,150.529c-0.292-2.318-0.911-2.693-3.035-1.756c-6.557,2.894-11.314,7.68-14.504,14.045
		C178.444,169.169,201.267,167.19,199.165,150.529z M150.529,1444.933c-2.318,0.292-2.693,0.911-1.756,3.035
		c2.894,6.557,7.68,11.314,14.045,14.504C169.169,1465.654,167.19,1442.832,150.529,1444.933z M1444.933,1493.569
		c0.292,2.318,0.911,2.693,3.035,1.756c6.557-2.894,11.314-7.68,14.504-14.045
		C1465.654,1474.93,1442.832,1476.909,1444.933,1493.569z M1384.176,192.908c-2.202,2.064-0.775,3.983-6.136,20.488
		c-0.767,2.361,0.986,3.222,10.927,2.528C1393.417,215.614,1387.219,213.321,1384.176,192.908z M192.908,259.923
		c2.064,2.202,3.983,0.775,20.488,6.136c2.361,0.767,3.222-0.986,2.528-10.927C215.614,250.681,213.321,256.88,192.908,259.923z
		 M259.923,1451.191c2.202-2.064,0.775-3.983,6.136-20.488c0.767-2.361-0.986-3.222-10.927-2.528
		C250.681,1428.485,256.88,1430.778,259.923,1451.191z M1451.191,1384.176c-2.064-2.202-3.983-0.775-20.488-6.136
		c-2.361-0.767-3.222,0.986-2.528,10.927C1428.485,1393.417,1430.778,1387.219,1451.191,1384.176z M1428.175,255.131
		c-0.694,9.941,0.167,11.694,2.528,10.927c16.505-5.361,18.424-3.934,20.488-6.136
		C1430.778,256.88,1428.485,250.681,1428.175,255.131z M255.131,215.924c9.941,0.694,11.694-0.167,10.927-2.528
		c-5.361-16.505-3.934-18.424-6.136-20.488C256.88,213.321,250.681,215.614,255.131,215.924z M215.924,1388.968
		c0.694-9.941-0.167-11.694-2.528-10.927c-16.505,5.361-18.424,3.934-20.488,6.136
		C213.321,1387.219,215.614,1393.417,215.924,1388.968z M1388.968,1428.175c-9.941-0.694-11.694,0.167-10.927,2.528
		c5.361,16.505,3.934,18.424,6.136,20.488C1387.219,1430.778,1393.417,1428.485,1388.968,1428.175z M1327.059,159.282
		c5.616-2.21,16.732-8.75,34.167-8.477c1.019,0.016,2.239,0.197,2.298-1.363c0.054-1.449-0.368-2.602-2.133-2.598
		C1349.328,146.873,1334.307,151.305,1327.059,159.282z M159.282,317.04c-2.21-5.616-8.75-16.732-8.477-34.168
		c0.016-1.019,0.197-2.239-1.363-2.298c-1.449-0.054-2.602,0.368-2.598,2.133C146.873,294.771,151.305,309.792,159.282,317.04z
		 M317.04,1484.816c-5.616,2.21-16.732,8.75-34.168,8.477c-1.019-0.016-2.239-0.197-2.298,1.363
		c-0.054,1.449,0.368,2.602,2.133,2.598C294.771,1497.226,309.792,1492.794,317.04,1484.816z M1484.816,1327.059
		c2.21,5.616,8.75,16.732,8.477,34.167c-0.016,1.019-0.197,2.239,1.363,2.298c1.449,0.054,2.602-0.368,2.598-2.133
		C1497.226,1349.328,1492.794,1334.307,1484.816,1327.059z M1497.254,282.708c0.005-1.765-1.149-2.188-2.598-2.133
		c-1.56,0.059-1.38,1.279-1.363,2.298c0.273,17.435-6.267,28.552-8.477,34.168C1492.794,309.792,1497.226,294.771,1497.254,282.708z
		 M282.708,146.845c-1.765-0.005-2.188,1.149-2.133,2.598c0.059,1.56,1.279,1.38,2.298,1.363
		c17.435-0.273,28.552,6.267,34.168,8.477C309.792,151.305,294.771,146.873,282.708,146.845z M146.845,1361.391
		c-0.005,1.765,1.149,2.188,2.598,2.133c1.56-0.059,1.38-1.279,1.363-2.298c-0.273-17.435,6.267-28.552,8.477-34.167
		C151.305,1334.307,146.873,1349.328,146.845,1361.391z M1361.391,1497.254c1.765,0.005,2.188-1.149,2.133-2.598
		c-0.059-1.56-1.279-1.38-2.298-1.363c-17.435,0.273-28.552-6.267-34.167-8.477
		C1334.307,1492.794,1349.328,1497.226,1361.391,1497.254z M1362.211,199.109c1.66-6.807,2.73-13.685,2.804-21.195
		C1359.724,182.335,1358.43,192.42,1362.211,199.109z M199.109,281.888c-6.807-1.66-13.685-2.73-21.195-2.804
		C182.335,284.375,192.42,285.668,199.109,281.888z M281.888,1444.989c-1.66,6.807-2.73,13.685-2.804,21.195
		C284.375,1461.764,285.668,1451.678,281.888,1444.989z M1444.989,1362.211c6.807,1.66,13.685,2.73,21.195,2.804
		C1461.764,1359.724,1451.678,1358.43,1444.989,1362.211z M1466.185,279.084c-7.51,0.074-14.388,1.144-21.195,2.804
		C1451.678,285.668,1461.764,284.375,1466.185,279.084z M279.084,177.914c0.074,7.51,1.144,14.388,2.804,21.195
		C285.668,192.42,284.375,182.335,279.084,177.914z M177.914,1365.014c7.51-0.074,14.388-1.144,21.195-2.804
		C192.42,1358.43,182.335,1359.724,177.914,1365.014z M1365.014,1466.185c-0.074-7.51-1.144-14.388-2.804-21.195
		C1358.43,1451.678,1359.724,1461.764,1365.014,1466.185z M1396.864,152.953c1.571-0.514,1.96-1.782,0.643-2.654
		c-2.119-1.405-11.062-6.715-11.586-4.224c-0.467,2.216,2.855,1.347,9.717,6.327C1396.034,152.69,1396.549,152.816,1396.864,152.953
		z M152.953,247.235c-0.514-1.571-1.782-1.96-2.654-0.643c-1.405,2.119-6.715,11.062-4.224,11.586
		c2.216,0.467,1.347-2.855,6.327-9.717C152.69,248.064,152.816,247.549,152.953,247.235z M247.235,1491.146
		c-1.571,0.514-1.96,1.782-0.643,2.654c2.119,1.405,11.062,6.715,11.586,4.224c0.467-2.216-2.855-1.347-9.717-6.327
		C248.064,1491.409,247.549,1491.283,247.235,1491.146z M1491.146,1396.864c0.514,1.571,1.782,1.96,2.654,0.643
		c1.405-2.119,6.715-11.062,4.224-11.586c-2.216-0.467-1.347,2.855-6.327,9.717
		C1491.409,1396.034,1491.283,1396.549,1491.146,1396.864z M1491.697,248.462c4.98,6.862,4.111,10.183,6.327,9.717
		c2.49-0.524-2.819-9.467-4.224-11.586c-0.872-1.317-2.14-0.928-2.654,0.643C1491.283,247.549,1491.409,248.064,1491.697,248.462z
		 M248.462,152.402c6.862-4.98,10.183-4.111,9.717-6.327c-0.524-2.49-9.467,2.819-11.586,4.224
		c-1.317,0.872-0.928,2.139,0.643,2.654C247.549,152.816,248.064,152.69,248.462,152.402z M152.402,1395.637
		c-4.98-6.862-4.111-10.183-6.327-9.717c-2.49,0.524,2.819,9.467,4.224,11.586c0.872,1.317,2.139,0.928,2.654-0.643
		C152.816,1396.549,152.69,1396.034,152.402,1395.637z M1395.637,1491.697c-6.862,4.98-10.183,4.111-9.717,6.327
		c0.524,2.49,9.467-2.819,11.586-4.224c1.317-0.872,0.928-2.14-0.643-2.654C1396.549,1491.283,1396.034,1491.409,1395.637,1491.697z
		 M1386.637,168.728c0.155,0.057,0.31,0.114,0.466,0.17c3.563-7.209,5.452-9.164-0.466-12.757
		C1386.637,160.445,1386.637,164.586,1386.637,168.728z M168.728,257.461c0.057-0.155,0.114-0.31,0.17-0.466
		c-7.209-3.563-9.164-5.452-12.757,0.466C160.445,257.461,164.586,257.461,168.728,257.461z M257.461,1475.37
		c-0.155-0.057-0.31-0.114-0.466-0.17c-3.563,7.209-5.452,9.164,0.466,12.757C257.461,1483.654,257.461,1479.512,257.461,1475.37z
		 M1475.37,1386.637c-0.057,0.155-0.114,0.31-0.17,0.466c7.209,3.563,9.164,5.452,12.757-0.466
		C1483.654,1386.637,1479.512,1386.637,1475.37,1386.637z M1487.957,257.461c-3.594-5.918-5.548-4.028-12.757-0.466
		c0.057,0.156,0.114,0.311,0.17,0.466C1479.512,257.461,1483.654,257.461,1487.957,257.461z M257.461,156.141
		c-5.918,3.594-4.028,5.548-0.466,12.757c0.156-0.057,0.311-0.114,0.466-0.17C257.461,164.586,257.461,160.445,257.461,156.141z
		 M156.141,1386.637c3.594,5.918,5.548,4.029,12.757,0.466c-0.057-0.156-0.114-0.311-0.17-0.466
		C164.586,1386.637,160.445,1386.637,156.141,1386.637z M1386.637,1487.957c5.918-3.594,4.029-5.548,0.466-12.757
		c-0.156,0.057-0.311,0.114-0.466,0.17C1386.637,1479.512,1386.637,1483.654,1386.637,1487.957z M1346.871,141.013
		c14.013-3.648,13.53-3.182,13.372-4.119C1359.833,134.456,1348.929,139.664,1346.871,141.013z M141.013,297.227
		c-3.648-14.013-3.182-13.53-4.119-13.372C134.456,284.266,139.664,295.17,141.013,297.227z M297.227,1503.086
		c-14.013,3.648-13.53,3.182-13.372,4.119C284.266,1509.643,295.17,1504.434,297.227,1503.086z M1503.086,1346.871
		c3.648,14.013,3.182,13.53,4.119,13.372C1509.643,1359.833,1504.434,1348.929,1503.086,1346.871z M1507.205,283.856
		c-0.936-0.158-0.471-0.642-4.119,13.372C1504.434,295.17,1509.643,284.266,1507.205,283.856z M283.856,136.894
		c-0.158,0.936-0.642,0.471,13.372,4.119C295.17,139.664,284.266,134.456,283.856,136.894z M136.894,1360.243
		c0.936,0.158,0.471,0.642,4.119-13.372C139.664,1348.929,134.456,1359.833,136.894,1360.243z M1360.243,1507.205
		c0.158-0.936,0.642-0.471-13.372-4.119C1348.929,1504.434,1359.833,1509.643,1360.243,1507.205z M1361.646,144.112
		c-0.061-0.38-0.121-0.759-0.182-1.139c-3.638,0.18-7.221,0.674-10.566,2.567C1354.481,145.064,1358.064,144.588,1361.646,144.112z
		 M144.112,282.453c-0.38,0.061-0.759,0.121-1.139,0.182c0.18,3.638,0.674,7.221,2.567,10.566
		C145.064,289.618,144.588,286.035,144.112,282.453z M282.453,1499.987c0.061,0.38,0.121,0.759,0.182,1.139
		c3.638-0.18,7.221-0.674,10.566-2.567C289.618,1499.035,286.035,1499.511,282.453,1499.987z M1499.987,1361.646
		c0.38-0.061,0.759-0.121,1.139-0.182c-0.18-3.638-0.674-7.221-2.567-10.566C1499.035,1354.481,1499.511,1358.064,1499.987,1361.646
		z M1498.559,293.201c1.893-3.345,2.387-6.928,2.567-10.566c-0.38-0.061-0.76-0.121-1.139-0.182
		C1499.511,286.035,1499.035,289.618,1498.559,293.201z M293.201,145.54c-3.345-1.893-6.928-2.387-10.566-2.567
		c-0.061,0.38-0.121,0.76-0.182,1.139C286.035,144.588,289.618,145.064,293.201,145.54z M145.54,1350.898
		c-1.893,3.345-2.387,6.928-2.567,10.566c0.38,0.061,0.76,0.121,1.139,0.182C144.588,1358.064,145.064,1354.481,145.54,1350.898z
		 M1350.898,1498.559c3.345,1.893,6.928,2.387,10.566,2.567c0.061-0.38,0.121-0.76,0.182-1.139
		C1358.064,1499.511,1354.481,1499.035,1350.898,1498.559z M1347.633,125.844c5.67-2.219,5.754-2.279,7.1-4.747
		C1352.104,122.854,1349.869,124.349,1347.633,125.844z M125.844,296.466c-2.219-5.67-2.279-5.754-4.747-7.1
		C122.854,291.994,124.349,294.23,125.844,296.466z M296.466,1518.254c-5.67,2.219-5.754,2.279-7.1,4.747
		C291.994,1521.245,294.23,1519.75,296.466,1518.254z M1518.254,1347.633c2.219,5.67,2.279,5.754,4.747,7.1
		C1521.245,1352.104,1519.75,1349.869,1518.254,1347.633z M1523.001,289.366c-2.468,1.345-2.528,1.429-4.747,7.1
		C1519.75,294.23,1521.245,291.994,1523.001,289.366z M289.366,121.097c1.345,2.468,1.429,2.528,7.1,4.747
		C294.23,124.349,291.994,122.854,289.366,121.097z M121.097,1354.732c2.468-1.345,2.528-1.429,4.747-7.1
		C124.349,1349.869,122.854,1352.104,121.097,1354.732z M1354.732,1523.001c-1.345-2.468-1.429-2.528-7.1-4.747
		C1349.869,1519.75,1352.104,1521.245,1354.732,1523.001z M1409.29,234.809c-4.2-2.76-8.171-6.144-11.814-10.188
		c-1.191-1.321-2.285-1.758-4.067-1.386c-15.189,3.168-17.62-3.276-19.667,2.041c-35.3,91.716-129.606,116.871-229.49,88.747
		c-36.087-10.161-51.969-20.165-57.78-22.507c-0.333-0.134-0.712-0.153-1.589-0.33c8.499,11.223,100.09,67.914,187.62,73.205
		c1.388,0.084,1.651-0.331,4.343,2.861c3.193,2.692,2.777,2.955,2.861,4.343c5.292,87.53,61.982,179.122,73.205,187.62
		c-0.177-0.877-0.196-1.256-0.33-1.589c-2.342-5.811-12.346-21.693-22.507-57.78c-28.124-99.883-2.969-194.19,88.747-229.49
		c5.318-2.047-1.126-4.478,2.042-19.667c0.372-1.783-0.065-2.877-1.386-4.067C1415.435,242.98,1412.05,239.009,1409.29,234.809z
		 M234.809,234.809c-2.76,4.2-6.144,8.171-10.188,11.814c-1.321,1.191-1.758,2.285-1.386,4.067
		c3.168,15.189-3.276,17.62,2.041,19.667c91.716,35.3,116.871,129.606,88.747,229.49c-10.161,36.087-20.165,51.969-22.507,57.78
		c-0.134,0.333-0.153,0.712-0.33,1.589c11.223-8.499,67.914-100.09,73.205-187.62c0.084-1.388-0.331-1.651,2.861-4.343
		c2.692-3.193,2.955-2.777,4.343-2.861c87.53-5.291,179.122-61.982,187.62-73.205c-0.877,0.177-1.256,0.196-1.589,0.33
		c-5.811,2.342-21.693,12.346-57.78,22.507c-99.883,28.124-194.19,2.969-229.49-88.747c-2.047-5.318-4.478,1.126-19.667-2.041
		c-1.783-0.372-2.877,0.065-4.067,1.386C242.98,228.664,239.009,232.049,234.809,234.809z M234.809,1409.29
		c4.2,2.76,8.171,6.145,11.814,10.188c1.191,1.321,2.285,1.758,4.067,1.386c15.189-3.168,17.62,3.276,19.667-2.042
		c35.3-91.716,129.606-116.871,229.49-88.747c36.087,10.161,51.969,20.165,57.78,22.507c0.333,0.134,0.712,0.153,1.589,0.33
		c-8.499-11.223-100.09-67.913-187.62-73.205c-1.388-0.084-1.651,0.331-4.343-2.861c-3.193-2.692-2.777-2.955-2.861-4.343
		c-5.291-87.53-61.982-179.122-73.205-187.62c0.177,0.877,0.196,1.256,0.33,1.589c2.342,5.811,12.346,21.693,22.507,57.78
		c28.124,99.883,2.969,194.19-88.747,229.49c-5.318,2.047,1.126,4.478-2.041,19.667c-0.372,1.782,0.065,2.877,1.386,4.067
		C228.664,1401.119,232.049,1405.09,234.809,1409.29z M1409.29,1409.29c2.76-4.2,6.145-8.171,10.188-11.814
		c1.321-1.191,1.758-2.285,1.386-4.067c-3.168-15.189,3.276-17.62-2.042-19.667c-91.716-35.3-116.871-129.606-88.747-229.49
		c10.161-36.087,20.165-51.969,22.507-57.78c0.134-0.333,0.153-0.712,0.33-1.589c-11.223,8.499-67.913,100.09-73.205,187.62
		c-0.084,1.388,0.331,1.651-2.861,4.343c-2.692,3.193-2.955,2.777-4.343,2.861c-87.53,5.292-179.122,61.982-187.62,73.205
		c0.877-0.177,1.256-0.196,1.589-0.33c5.811-2.342,21.693-12.346,57.78-22.507c99.883-28.124,194.19-2.969,229.49,88.747
		c2.047,5.318,4.478-1.126,19.667,2.042c1.782,0.372,2.877-0.065,4.067-1.386C1401.119,1415.435,1405.09,1412.05,1409.29,1409.29z
		 M1229.619,414.48c-66.735-29.749-214.578-115.493-255.063-262.62c-8.85-32.16-3.479-31.136-9.832-31.241
		c-0.029-0.001-62.246-0.001-142.674-0.002c-80.428,0.001-142.645,0.002-142.674,0.002c-6.353,0.105-0.981-0.918-9.832,31.241
		C629.058,298.986,481.215,384.731,414.48,414.48c-29.749,66.735-115.493,214.578-262.62,255.063
		c-32.16,8.85-31.136,3.479-31.241,9.832c-0.001,0.029-0.001,62.246-0.002,142.674c0.001,80.428,0.002,142.645,0.002,142.674
		c0.105,6.353-0.918,0.981,31.241,9.832c147.126,40.485,232.871,188.329,262.62,255.063
		c66.735,29.749,214.578,115.493,255.063,262.62c8.85,32.159,3.479,31.136,9.832,31.241c0.029,0.001,62.246,0.001,142.674,0.002
		c80.428-0.001,142.645-0.002,142.674-0.002c6.353-0.105,0.981,0.918,9.832-31.241c40.485-147.126,188.329-232.871,255.063-262.62
		c29.749-66.735,115.493-214.578,262.62-255.063c32.159-8.85,31.136-3.479,31.241-9.832c0.001-0.029,0.001-62.246,0.002-142.674
		c-0.001-80.428-0.002-142.645-0.002-142.674c-0.105-6.353,0.918-0.981-31.241-9.832
		C1345.112,629.058,1259.368,481.215,1229.619,414.48z M822.049,116.229c41.797-0.017,88.421-0.028,140.431-0.028
		c9.255,0,1.653-1.048,4.743-31.586c3.065-30.28,11.679-51.578,19.067-62.565c-13.127,27.505-19.343,57.884-11.667,87.935
		c1.135,4.443,1.186,6.301,4.706,6.289c101.999-0.353,92.508,1.445,93.032-3.134c5.47-47.682,46.069-69.996,90.712-54.846
		c2.671,0.907,4.398,0.684,6.473-1.321c60.857-58.795,170.824-32.327,204.834,47.54c2.143,5.031,5.078-2.317,35.054-4.855
		c40.495-3.43,75.34,10.247,89.938,45.069c34.821,14.598,48.498,49.443,45.069,89.938c-2.538,29.976-9.886,32.912-4.855,35.054
		c79.867,34.01,106.335,143.977,47.54,204.834c-2.005,2.075-2.227,3.802-1.32,6.473c15.15,44.643-7.163,85.242-54.846,90.712
		c-4.579,0.525-2.781-8.966-3.134,93.033c-0.012,3.52,1.846,3.57,6.289,4.706c30.051,7.676,60.43,1.46,87.935-11.667
		c-10.988,7.388-32.285,16.001-62.565,19.067c-30.538,3.091-31.586-4.511-31.586,4.743c0,52.009-0.011,98.633-0.029,140.431
		c0.017,41.797,0.028,88.421,0.029,140.431c0,9.255,1.047,1.653,31.586,4.743c30.28,3.065,51.578,11.679,62.565,19.067
		c-27.505-13.127-57.884-19.343-87.935-11.667c-4.443,1.135-6.301,1.186-6.289,4.706c0.353,101.999-1.445,92.508,3.134,93.032
		c47.682,5.47,69.996,46.069,54.846,90.712c-0.907,2.671-0.684,4.398,1.32,6.473c58.795,60.857,32.327,170.824-47.54,204.834
		c-5.031,2.143,2.317,5.078,4.855,35.054c3.43,40.495-10.247,75.34-45.069,89.938c-14.598,34.821-49.443,48.498-89.938,45.069
		c-29.976-2.538-32.911-9.886-35.054-4.855c-34.01,79.867-143.977,106.335-204.834,47.54c-2.075-2.005-3.802-2.227-6.473-1.32
		c-44.643,15.15-85.242-7.163-90.712-54.846c-0.525-4.579,8.966-2.781-93.032-3.134c-3.52-0.012-3.57,1.846-4.706,6.289
		c-7.676,30.051-1.46,60.43,11.667,87.935c-7.388-10.988-16.001-32.285-19.067-62.565c-3.091-30.538,4.511-31.586-4.743-31.586
		c-52.009,0-98.633-0.011-140.431-0.029c-41.797,0.017-88.421,0.028-140.431,0.029c-9.255,0-1.653,1.047-4.743,31.586
		c-3.065,30.28-11.679,51.578-19.067,62.565c13.127-27.505,19.343-57.884,11.667-87.935c-1.135-4.443-1.186-6.301-4.706-6.289
		c-101.999,0.353-92.508-1.445-93.033,3.134c-5.47,47.682-46.069,69.996-90.712,54.846c-2.671-0.907-4.398-0.684-6.473,1.32
		c-60.857,58.795-170.824,32.327-204.834-47.54c-2.143-5.031-5.078,2.317-35.054,4.855c-40.495,3.43-75.34-10.247-89.938-45.069
		c-34.821-14.598-48.498-49.443-45.069-89.938c2.538-29.976,9.886-32.911,4.855-35.054c-79.867-34.01-106.335-143.977-47.54-204.834
		c2.005-2.075,2.227-3.802,1.321-6.473c-15.15-44.643,7.163-85.242,54.846-90.712c4.579-0.525,2.781,8.966,3.134-93.032
		c0.012-3.52-1.846-3.57-6.289-4.706c-30.051-7.676-60.43-1.46-87.935,11.667c10.988-7.388,32.285-16.001,62.565-19.067
		c30.538-3.091,31.586,4.511,31.586-4.743c0-52.009,0.011-98.633,0.028-140.431c-0.017-41.797-0.028-88.421-0.028-140.431
		c0-9.255-1.048-1.653-31.586-4.743c-30.28-3.065-51.578-11.679-62.565-19.067c27.505,13.127,57.884,19.343,87.935,11.667
		c4.443-1.135,6.301-1.186,6.289-4.706c-0.353-101.999,1.445-92.508-3.134-93.033c-47.682-5.47-69.996-46.069-54.846-90.712
		c0.907-2.671,0.684-4.398-1.321-6.473c-58.795-60.857-32.327-170.824,47.54-204.834c5.031-2.143-2.317-5.078-4.855-35.054
		c-3.43-40.495,10.247-75.34,45.069-89.938c14.598-34.821,49.443-48.498,89.938-45.069c29.976,2.538,32.912,9.886,35.054,4.855
		c34.01-79.867,143.977-106.335,204.834-47.54c2.075,2.005,3.802,2.227,6.473,1.321c44.643-15.15,85.242,7.163,90.712,54.846
		c0.525,4.579-8.966,2.781,93.033,3.134c3.52,0.012,3.57-1.846,4.706-6.289c7.676-30.051,1.46-60.43-11.667-87.935
		c7.388,10.988,16.001,32.285,19.067,62.565c3.091,30.538-4.511,31.586,4.743,31.586C733.628,116.2,780.252,116.212,822.049,116.229
		z"/>
	<path d="M1291.765,337.43c-0.301,22.523-34.102,21.291-33.356-0.579C1259.164,314.746,1292.057,315.577,1291.765,337.43z"/>
	<path d="M337.43,352.334c22.523,0.301,21.291,34.102-0.579,33.356C314.746,384.935,315.577,352.042,337.43,352.334z"/>
	<path d="M352.334,1306.668c0.301-22.523,34.102-21.291,33.356,0.579C384.935,1329.353,352.042,1328.522,352.334,1306.668z"/>
	<path d="M1306.668,1291.765c-22.523-0.301-21.291-34.102,0.579-33.356C1329.353,1259.164,1328.522,1292.057,1306.668,1291.765z"/>
	<path d="M1306.668,352.334c-22.523,0.301-21.291,34.102,0.579,33.356C1329.353,384.935,1328.522,352.042,1306.668,352.334z"/>
	<path d="M352.334,337.43c0.301,22.523,34.102,21.291,33.356-0.579C384.935,314.746,352.042,315.577,352.334,337.43z"/>
	<path d="M337.43,1291.765c22.523-0.301,21.291-34.102-0.579-33.356C314.746,1259.164,315.577,1292.057,337.43,1291.765z"/>
	<path d="M1291.765,1306.668c-0.301-22.523-34.102-21.291-33.356,0.579C1259.164,1329.353,1292.057,1328.522,1291.765,1306.668z"/>
	<path d="M1240.621,327.361c18.454,0.336,17.91,27.335-0.168,27.283C1222.27,354.589,1222.678,327.033,1240.621,327.361z"/>
	<path d="M327.361,403.478c0.336-18.454,27.335-17.91,27.283,0.168C354.589,421.828,327.033,421.421,327.361,403.478z"/>
	<path d="M403.478,1316.738c-18.454-0.336-17.91-27.335,0.168-27.283C421.828,1289.51,421.421,1317.065,403.478,1316.738z"/>
	<path d="M1316.738,1240.621c-0.336,18.454-27.335,17.91-27.283-0.168C1289.51,1222.27,1317.065,1222.678,1316.738,1240.621z"/>
	<path d="M1316.738,403.478c-0.336-18.454-27.335-17.91-27.283,0.168C1289.51,421.828,1317.065,421.421,1316.738,403.478z"/>
	<path d="M403.478,327.361c-18.454,0.336-17.91,27.335,0.168,27.283C421.828,354.589,421.421,327.033,403.478,327.361z"/>
	<path d="M327.361,1240.621c0.336,18.454,27.335,17.91,27.283-0.168C354.589,1222.27,327.033,1222.678,327.361,1240.621z"/>
	<path d="M1240.621,1316.738c18.454-0.336,17.91-27.335-0.168-27.283C1222.27,1289.51,1222.678,1317.065,1240.621,1316.738z"/>
	<path d="M1208.836,327.38c15.518,0.035,15.317,22.587,0.268,22.69C1193.912,350.175,1193.744,327.347,1208.836,327.38z"/>
	<path d="M327.38,435.263c0.035-15.518,22.587-15.317,22.69-0.268C350.175,450.186,327.347,450.355,327.38,435.263z"/>
	<path d="M435.263,1316.718c-15.518-0.035-15.317-22.587-0.268-22.69C450.186,1293.924,450.355,1316.752,435.263,1316.718z"/>
	<path d="M1316.718,1208.836c-0.035,15.518-22.587,15.317-22.69,0.268C1293.924,1193.912,1316.752,1193.744,1316.718,1208.836z"/>
	<path d="M1316.718,435.263c-0.035-15.518-22.587-15.317-22.69-0.268C1293.924,450.186,1316.752,450.355,1316.718,435.263z"/>
	<path d="M435.263,327.38c-15.518,0.035-15.317,22.587-0.268,22.69C450.186,350.175,450.355,327.347,435.263,327.38z"/>
	<path d="M327.38,1208.836c0.035,15.518,22.587,15.317,22.69,0.268C350.175,1193.912,327.347,1193.744,327.38,1208.836z"/>
	<path d="M1208.836,1316.718c15.518-0.035,15.317-22.587,0.268-22.69C1193.912,1293.924,1193.744,1316.752,1208.836,1316.718z"/>
	<path d="M1306.557,314.479c9.927-0.152,10.395,15.207,0.18,15.314C1296.515,329.899,1296.702,314.63,1306.557,314.479z"/>
	<path d="M314.479,337.542c-0.152-9.927,15.207-10.395,15.314-0.18C329.899,347.584,314.63,347.397,314.479,337.542z"/>
	<path d="M337.542,1329.62c-9.927,0.152-10.395-15.207-0.18-15.314C347.584,1314.199,347.397,1329.469,337.542,1329.62z"/>
	<path d="M1329.62,1306.557c0.152,9.927-15.207,10.395-15.314,0.18C1314.199,1296.515,1329.469,1296.702,1329.62,1306.557z"/>
	<path d="M1329.62,337.542c0.152-9.927-15.207-10.395-15.314-0.18C1314.199,347.584,1329.469,347.397,1329.62,337.542z"/>
	<path d="M337.542,314.479c-9.927-0.152-10.395,15.207-0.18,15.314C347.584,329.899,347.397,314.63,337.542,314.479z"/>
	<path d="M314.479,1306.557c-0.152,9.927,15.207,10.395,15.314,0.18C329.899,1296.515,314.63,1296.702,314.479,1306.557z"/>
	<path d="M1306.557,1329.62c9.927,0.152,10.395-15.207,0.18-15.314C1296.515,1314.199,1296.702,1329.469,1306.557,1329.62z"/>
	<path d="M1181.716,339.604c-9.965-0.231-10.039-15.436,0.565-15.115C1192.369,324.794,1191.759,339.837,1181.716,339.604z"/>
	<path d="M339.604,462.383c-0.231,9.965-15.436,10.039-15.115-0.565C324.794,451.73,339.837,452.34,339.604,462.383z"/>
	<path d="M462.383,1304.495c9.965,0.231,10.039,15.436-0.565,15.115C451.73,1319.304,452.34,1304.262,462.383,1304.495z"/>
	<path d="M1304.495,1181.716c0.231-9.965,15.436-10.039,15.115,0.565C1319.304,1192.369,1304.262,1191.759,1304.495,1181.716z"/>
	<path d="M1304.495,462.383c0.231,9.965,15.436,10.039,15.115-0.565C1319.304,451.73,1304.262,452.34,1304.495,462.383z"/>
	<path d="M462.383,339.604c9.965-0.231,10.039-15.436-0.565-15.115C451.73,324.794,452.34,339.837,462.383,339.604z"/>
	<path d="M339.604,1181.716c-0.231-9.965-15.436-10.039-15.115,0.565C324.794,1192.369,339.837,1191.759,339.604,1181.716z"/>
	<path d="M1181.716,1304.495c-9.965,0.231-10.039,15.436,0.565,15.115C1192.369,1319.304,1191.759,1304.262,1181.716,1304.495z"/>
	<path d="M1317.105,310.314c0.224-7.933,12.158-7.778,12.196,0.154C1329.34,318.566,1316.868,318.701,1317.105,310.314z"/>
	<path d="M310.314,326.994c-7.933-0.224-7.778-12.158,0.154-12.196C318.566,314.759,318.701,327.23,310.314,326.994z"/>
	<path d="M326.994,1333.785c-0.224,7.933-12.158,7.778-12.196-0.154C314.759,1325.533,327.23,1325.398,326.994,1333.785z"/>
	<path d="M1333.785,1317.105c7.933,0.224,7.778,12.158-0.154,12.196C1325.533,1329.34,1325.398,1316.868,1333.785,1317.105z"/>
	<path d="M1333.785,326.994c7.933-0.224,7.778-12.158-0.154-12.196C1325.533,314.759,1325.398,327.23,1333.785,326.994z"/>
	<path d="M326.994,310.314c-0.224-7.933-12.158-7.778-12.196,0.154C314.759,318.566,327.23,318.701,326.994,310.314z"/>
	<path d="M310.314,1317.105c-7.933,0.224-7.778,12.158,0.154,12.196C318.566,1329.34,318.701,1316.868,310.314,1317.105z"/>
	<path d="M1317.105,1333.785c0.224,7.933,12.158,7.778,12.196-0.154C1329.34,1325.533,1316.868,1325.398,1317.105,1333.785z"/>
	<path d="M1154.584,327.128c-0.11-7.617,12.07-8.606,12.31-0.382C1167.148,335.466,1154.697,334.88,1154.584,327.128z"/>
	<path d="M327.128,489.515c-7.617,0.11-8.606-12.07-0.382-12.309C335.466,476.95,334.88,489.402,327.128,489.515z"/>
	<path d="M489.515,1316.97c0.11,7.617-12.07,8.606-12.309,0.382C476.95,1308.633,489.402,1309.219,489.515,1316.97z"/>
	<path d="M1316.97,1154.584c7.617-0.11,8.606,12.07,0.382,12.31C1308.633,1167.148,1309.219,1154.697,1316.97,1154.584z"/>
	<path d="M1316.97,489.515c7.617,0.11,8.606-12.07,0.382-12.309C1308.633,476.95,1309.219,489.402,1316.97,489.515z"/>
	<path d="M489.515,327.128c0.11-7.617-12.07-8.606-12.309-0.382C476.95,335.466,489.402,334.88,489.515,327.128z"/>
	<path d="M327.128,1154.584c-7.617-0.11-8.606,12.07-0.382,12.31C335.466,1167.148,334.88,1154.697,327.128,1154.584z"/>
	<path d="M1154.584,1316.97c-0.11,7.617,12.07,8.606,12.31,0.382C1167.148,1308.633,1154.697,1309.219,1154.584,1316.97z"/>
	<path d="M1336.769,292.999c5.701,0.027,4.637,8.588-0.288,8.131C1331.594,300.677,1331.402,292.974,1336.769,292.999z"/>
	<path d="M292.999,307.33c0.027-5.701,8.588-4.637,8.131,0.289C300.677,312.505,292.974,312.697,292.999,307.33z"/>
	<path d="M307.33,1351.1c-5.701-0.027-4.637-8.588,0.289-8.131C312.505,1343.422,312.697,1351.125,307.33,1351.1z"/>
	<path d="M1351.1,1336.769c-0.027,5.701-8.588,4.637-8.131-0.288C1343.422,1331.594,1351.125,1331.402,1351.1,1336.769z"/>
	<path d="M1351.1,307.33c-0.027-5.701-8.588-4.637-8.131,0.289C1343.422,312.505,1351.125,312.697,1351.1,307.33z"/>
	<path d="M307.33,292.999c-5.701,0.027-4.637,8.588,0.289,8.131C312.505,300.677,312.697,292.974,307.33,292.999z"/>
	<path d="M292.999,1336.769c0.027,5.701,8.588,4.637,8.131-0.288C300.677,1331.594,292.974,1331.402,292.999,1336.769z"/>
	<path d="M1336.769,1351.1c5.701-0.027,4.637-8.588-0.288-8.131C1331.594,1343.422,1331.402,1351.125,1336.769,1351.1z"/>
	<path d="M1143.672,323.589c-5.516,0.112-5.272-8.129,0.017-7.972C1148.547,315.761,1148.965,323.481,1143.672,323.589z"/>
	<path d="M323.589,500.427c0.112,5.516-8.129,5.272-7.972-0.017C315.761,495.552,323.481,495.134,323.589,500.427z"/>
	<path d="M500.427,1320.51c5.516-0.112,5.272,8.129-0.017,7.972C495.552,1328.337,495.134,1320.618,500.427,1320.51z"/>
	<path d="M1320.51,1143.672c-0.112-5.516,8.129-5.272,7.972,0.017C1328.337,1148.547,1320.618,1148.965,1320.51,1143.672z"/>
	<path d="M1320.51,500.427c-0.112,5.516,8.129,5.272,7.972-0.017C1328.337,495.552,1320.618,495.134,1320.51,500.427z"/>
	<path d="M500.427,323.589c5.516,0.112,5.272-8.129-0.017-7.972C495.552,315.761,495.134,323.481,500.427,323.589z"/>
	<path d="M323.589,1143.672c0.112-5.516-8.129-5.272-7.972,0.017C315.761,1148.547,323.481,1148.965,323.589,1143.672z"/>
	<path d="M1143.672,1320.51c-5.516-0.112-5.272,8.129,0.017,7.972C1148.547,1328.337,1148.965,1320.618,1143.672,1320.51z"/>
	<path d="M1348.801,286.713c-0.167,2.773-4.157,2.955-4.649,0.097C1343.623,283.743,1349.018,283.11,1348.801,286.713z"/>
	<path d="M286.713,295.298c2.773,0.167,2.955,4.157,0.097,4.649C283.743,300.476,283.11,295.081,286.713,295.298z"/>
	<path d="M295.298,1357.386c0.167-2.773,4.157-2.955,4.649-0.097C300.476,1360.356,295.081,1360.988,295.298,1357.386z"/>
	<path d="M1357.386,1348.801c-2.773-0.167-2.955-4.157-0.097-4.649C1360.356,1343.623,1360.988,1349.018,1357.386,1348.801z"/>
	<path d="M1357.386,295.298c-2.773,0.167-2.955,4.157-0.097,4.649C1360.356,300.476,1360.988,295.081,1357.386,295.298z"/>
	<path d="M295.298,286.713c0.167,2.773,4.157,2.955,4.649,0.097C300.476,283.743,295.081,283.11,295.298,286.713z"/>
	<path d="M286.713,1348.801c2.773-0.167,2.955-4.157,0.097-4.649C283.743,1343.623,283.11,1349.018,286.713,1348.801z"/>
	<path d="M1348.801,1357.386c-0.167-2.773-4.157-2.955-4.649-0.097C1343.623,1360.356,1349.018,1360.988,1348.801,1357.386z"/>
	<path d="M1129.144,316.629c-3.067-0.282-2.813-4.723,0.255-4.529C1132.717,312.311,1131.958,316.888,1129.144,316.629z"/>
	<path d="M316.629,514.955c-0.282,3.066-4.723,2.813-4.529-0.255C312.311,511.382,316.888,512.141,316.629,514.955z"/>
	<path d="M514.955,1327.47c3.066,0.282,2.813,4.723-0.255,4.529C511.382,1331.788,512.141,1327.211,514.955,1327.47z"/>
	<path d="M1327.47,1129.144c0.282-3.067,4.723-2.813,4.529,0.255C1331.788,1132.717,1327.211,1131.958,1327.47,1129.144z"/>
	<path d="M1327.47,514.955c0.282,3.066,4.723,2.813,4.529-0.255C1331.788,511.382,1327.211,512.141,1327.47,514.955z"/>
	<path d="M514.955,316.629c3.066-0.282,2.813-4.723-0.255-4.529C511.382,312.311,512.141,316.888,514.955,316.629z"/>
	<path d="M316.629,1129.144c-0.282-3.067-4.723-2.813-4.529,0.255C312.311,1132.717,316.888,1131.958,316.629,1129.144z"/>
	<path d="M1129.144,1327.47c-3.067,0.282-2.813,4.723,0.255,4.529C1132.717,1331.788,1131.958,1327.211,1129.144,1327.47z"/>
	<path d="M1116.537,309.894c-2.684-0.527-2.045-3.257,0.134-3.108C1118.497,306.91,1119.037,309.449,1116.537,309.894z"/>
	<path d="M309.894,527.561c-0.527,2.684-3.257,2.045-3.108-0.134C306.91,525.602,309.449,525.061,309.894,527.561z"/>
	<path d="M527.561,1334.205c2.684,0.527,2.045,3.257-0.134,3.108C525.602,1337.188,525.061,1334.65,527.561,1334.205z"/>
	<path d="M1334.205,1116.537c0.527-2.684,3.257-2.045,3.108,0.134C1337.188,1118.497,1334.65,1119.037,1334.205,1116.537z"/>
	<path d="M1334.205,527.561c0.527,2.684,3.257,2.045,3.108-0.134C1337.188,525.602,1334.65,525.061,1334.205,527.561z"/>
	<path d="M527.561,309.894c2.684-0.527,2.045-3.257-0.134-3.108C525.602,306.91,525.061,309.449,527.561,309.894z"/>
	<path d="M309.894,1116.537c-0.527-2.684-3.257-2.045-3.108,0.134C306.91,1118.497,309.449,1119.037,309.894,1116.537z"/>
	<path d="M1116.537,1334.205c-2.684,0.527-2.045,3.257,0.134,3.108C1118.497,1337.188,1119.037,1334.65,1116.537,1334.205z"/>
	<path d="M1354.781,273.902c2.22-0.077,2.487,3.049,0.559,3.355C1353.594,277.534,1352.877,274.748,1354.781,273.902z"/>
	<path d="M273.902,289.318c-0.077-2.22,3.049-2.487,3.355-0.559C277.534,290.505,274.748,291.222,273.902,289.318z"/>
	<path d="M289.318,1370.197c-2.22,0.077-2.487-3.049-0.559-3.355C290.505,1366.564,291.222,1369.351,289.318,1370.197z"/>
	<path d="M1370.197,1354.781c0.077,2.22-3.049,2.487-3.355,0.559C1366.564,1353.594,1369.351,1352.877,1370.197,1354.781z"/>
	<path d="M1370.197,289.318c0.077-2.22-3.049-2.487-3.355-0.559C1366.564,290.505,1369.351,291.222,1370.197,289.318z"/>
	<path d="M289.318,273.902c-2.22-0.077-2.487,3.049-0.559,3.355C290.505,277.534,291.222,274.748,289.318,273.902z"/>
	<path d="M273.902,1354.781c-0.077,2.22,3.049,2.487,3.355,0.559C277.534,1353.594,274.748,1352.877,273.902,1354.781z"/>
	<path d="M1354.781,1370.197c2.22,0.077,2.487-3.049,0.559-3.355C1353.594,1366.564,1352.877,1369.351,1354.781,1370.197z"/>
	<path d="M1304.838,217.183c0.105,0.883,0.21,1.765,0.316,2.649c-0.478-0.873-0.635-1.772-0.271-2.712
		C1304.893,217.108,1304.838,217.183,1304.838,217.183z"/>
	<path d="M217.183,339.261c0.883-0.105,1.765-0.21,2.649-0.316c-0.873,0.478-1.772,0.635-2.712,0.271
		C217.108,339.206,217.183,339.261,217.183,339.261z"/>
	<path d="M339.261,1426.916c-0.105-0.883-0.21-1.765-0.316-2.649c0.478,0.873,0.635,1.772,0.271,2.712
		C339.206,1426.991,339.261,1426.916,339.261,1426.916z"/>
	<path d="M1426.916,1304.838c-0.883,0.105-1.765,0.21-2.649,0.316c0.873-0.478,1.772-0.635,2.712-0.271
		C1426.991,1304.893,1426.916,1304.838,1426.916,1304.838z"/>
	<path d="M1426.916,339.261c-0.883-0.105-1.765-0.21-2.649-0.316c0.873,0.478,1.772,0.635,2.712,0.271
		C1426.991,339.206,1426.916,339.261,1426.916,339.261z"/>
	<path d="M339.261,217.183c-0.105,0.883-0.21,1.765-0.316,2.649c0.478-0.873,0.635-1.772,0.271-2.712
		C339.206,217.108,339.261,217.183,339.261,217.183z"/>
	<path d="M217.183,1304.838c0.883,0.105,1.765,0.21,2.649,0.316c-0.873-0.478-1.772-0.635-2.712-0.271
		C217.108,1304.893,217.183,1304.838,217.183,1304.838z"/>
	<path d="M1304.838,1426.916c0.105-0.883,0.21-1.765,0.316-2.649c-0.478,0.873-0.635,1.772-0.271,2.712
		C1304.893,1426.991,1304.838,1426.916,1304.838,1426.916z"/>
</g>
</svg>
