<?xml version="1.0" encoding="UTF-8" standalone="no"?>
<svg xmlns:rdf="http://www.w3.org/1999/02/22-rdf-syntax-ns#" xmlns="http://www.w3.org/2000/svg" height="1253" viewBox="0 0 1161 1253" width="1161" version="1.1" xmlns:cc="http://creativecommons.org/ns#" xmlns:dc="http://purl.org/dc/elements/1.1/">
<path d="m230 1251.9c-23.76-0.6751-34.927-1.3517-65.5-3.9683-6.6-0.5648-17.4-1.4667-24-2.0041-29.046-2.365-52.584-8.2929-57.146-14.392-1.6031-2.1429-3.274-2.6812-12.354-3.9794-44.799-6.4051-71-15.619-71-24.968 0-6.1252 1.8986-13.502 5.8863-22.869 4.62-10.853 5.8072-11.553 19.823-11.684 9.4327-0.088 10.748-0.9733 16.463-11.077 9.5009-16.797 13.126-20.9 27.578-31.202 6.1875-4.4113 11.25-8.6242 11.25-9.362 0-1.8139-2.2298-6.774-3.4228-7.614-1.7482-1.2309 1.2382-5.7335 6.0221-9.0797 2.5491-1.783 5.304-3.7202 6.122-4.3047 1.2217-0.8731 1.5737-5.3776 1.9715-25.231l0.4843-24.168-2.5626-1.1676c-9.3619-4.2656-6.038-22.184 4.6815-25.237 2.8622-0.8152 7.229-2.0541 9.704-2.7532 4.9199-1.3897 37.624-1.8863 44.5-0.6757 4.5486 0.8007 5.5854-0.3216 20.048-21.704 5.8037-8.5803 12.688-18.016 17.147-23.5 0.6708-0.825 3.9415-4.9793 7.2684-9.2317 7.4074-9.4682 13.884-14.718 21.638-17.537 10.381-3.7748 29.461-8.9465 44.898-12.17 21.56-4.5018 19.582-3.4441 21.622-11.561 1.243-4.9466 1.4958-7.88 0.862-10-0.4933-1.65-1.6392-7.0475-2.5465-11.994-1.801-9.8199-10.422-28.685-18.654-40.82-2.3-3.44-8.81-13.2-14.46-21.72-22.7-34.27-24.06-36-28.19-36-2.6795 0-11.432-4.4012-34.239-17.217-12.071-6.7832-12.544-7.4206-15.858-21.372-2.1416-9.0172-2.9564-17.77-3.4362-36.911-0.2543-10.147-0.576-11.737-4.1497-20.5l-3.8741-9.5-0.2344-22c-0.1289-12.1-0.6579-24.469-1.1754-27.486-1.2114-7.0611 1.4334-15.334 9.0654-28.357 2.9517-5.0367 6.6557-11.633 8.2311-14.658 4.3584-8.3685 17.613-27.594 24.82-36 9.142-10.663 10.394-13.651 13.393-31.945 3.1608-19.281 3.6201-18.025-7.812-21.376-20.16-5.91-65.65-26.3-84.86-38.04-4.3728-2.6715-7.0255-4.2392-14.542-8.5938-16.454-9.533-28.381-30.35-24.925-43.505 2.1018-8.0006 2.8661-9.1882 8.8279-13.717 16.676-12.668 32.543-19.33 66.639-27.979 4.125-1.0464 11.325-2.9869 16-4.3123 7.7726-2.2036 23.006-5.1272 46.5-8.9244 4.95-0.80003 14.625-1.9771 21.5-2.6157 17.878-1.6607 16.48-1.058 17.912-7.7229 1.9309-8.986 7.8641-27.743 12.324-38.96 4.019-10.109 4.0375-10.216 2.3704-13.729-7.1776-15.126-11.707-39.284-8.374-44.667 0.8225-1.3286 2.2561-5.232 3.1857-8.6743 4.0854-15.127 13.627-34.514 25.792-52.406 6.0292-8.8673 6.1933-9.3004 13.385-35.335 3.5125-12.715 2.5173-14.072-18.596-25.349-22.252-11.886-37.308-5.4021-57.519 24.771-8.4642 12.636-10.882 14.632-17.484 14.43-26.997-0.82599-24.83-32.095 4.4494-64.2 20.656-22.65 63.354-26.084 92.845-7.4675 2.1438 1.3533 4.0415 2.3156 4.2172 2.1384 0.1757-0.17721 3.1469-5.7222 6.6027-12.322 18.18-34.721 29.551-46.445 49.9-51.45 4.6691-1.1484 11.153-2.7774 14.408-3.62 6.104-1.5799 24.583-12.215 38.206-21.988 7.6567-5.4929 8.028-5.622 31.375-10.91 38.043-8.6163 45.732-8.7303 67-0.99307 10.52 3.8273 26.414 11.474 40.5 19.486 14.338 8.1552 16.644 8.6925 27.634 6.4377 27.048-5.5495 52.932 7.5588 66.417 33.635 1.4722 2.8468 3.4494 3.9143 3.4494 1.8623 0-0.57191-0.9-2.804-2-4.9602-5.4606-10.704 1.6592-20.749 19.454-27.446 23.234-8.7452 35.642-3.9734 54.111 20.808 10.18 13.654 10.17 13.64 12.24 13.64 6.1739 0 30.905 12.933 27.135 14.19-0.9227 0.30758 0.501 3.6995 3.6001 8.5772 0.093 0.14682 2.4074-0.24958 5.1424-0.8809 11.947-2.7578 19.563 10.679 21.809 38.48 0.394 4.8762 1.3904 10.479 2.2143 12.451 2.848 6.8163 2.1635 18.578-1.597 27.439-2.9118 6.8615-3.1596 8.13-2.1489 11 0.6284 1.7843 1.4045 7.7441 1.7247 13.244 0.6671 11.46 7.5088 26.653 20.557 45.65 3.4468 5.0184 6.717 9.85 7.267 10.737 5.4047 8.716 8.2511 11.457 15.225 14.659 27.508 12.63 35.519 34.966 29.752 82.954-2.8464 23.686-19.379 58.551-31.618 66.678-2.0536 1.3636-2.1696 2.2451-2.3519 17.878-0.1473 12.636-0.5792 17.442-1.8653 20.755-0.9205 2.3708-2.3797 8.8958-3.2427 14.5-0.8629 5.6042-2.4423 13.087-3.5098 16.628-2.7157 9.0096-1.629 9.716 20.852 13.555 23.084 3.9419 73.506-8.1508 90.317-21.661 7.1778-5.7682 7.3747-6.6122 3.5018-15.004-12.868-27.882-6.8054-58.172 14.396-71.922l2.4563-1.593-3.6084-6.907c-8.493-16.257-12.304-48.22-7.572-63.5 3.7584-12.135 35.999-26.635 61.493-27.657l12.225-0.49 2.5951-4.4282c22.2-37.83 73.5-28.53 73.5 13.31v6.5422l4.8108-0.66166c18.644-2.5642 41.596 24.247 34.753 40.595-0.5065 1.21 0.5409 2.3227 4.1289 4.3864 26.487 15.234 19.416 60.353-11.805 75.326-4.8068 2.3052-9.6836 7.4927-16.609 17.667-11.899 17.481-31.817 27.75-56.607 29.182-10.264 0.59303-10.912 0.76081-12.444 3.2217-11.796 18.944-37.592 28.46-59.421 21.92-3.5631-1.0676-3.9221-0.9525-7.7122 2.4716-2.1863 1.9752-5.2508 4.251-6.81 5.0573-1.5592 0.80629-5.2986 3.1104-8.3098 5.1203-12.839 8.5696-48.453 23.867-60.81 26.121-27.189 4.9579-40.184 6.0224-54.746 4.4846-16.894-1.784-32.654-5.4076-42.198-9.7028-7.9661-3.5847-7.8525-3.6816-8.6472 7.3742-0.5654 7.8664-1.3605 11.296-4.1153 17.75-9.6708 22.658-10.128 32.401-1.5961 34.002 1.9515 0.3661 6.7395 2.1801 10.64 4.0311l7.092 3.3654 2.7691 13.301c7.1545 34.364 8.8592 41.871 14.602 64.301 9.743 38.054 9.0482 41.065-16.208 70.223-7.9959 9.2312-8.7424 10.434-7.6928 12.395 6.8827 12.86-3.6584 34.019-21.915 43.989-7.4761 4.0825-16.401 9.9738-15.888 10.487 0.1418 0.14178 5.9898 1.4184 12.996 2.8369 34.419 6.9691 80.521 26.104 93.743 38.91 0.825 0.79898 5.6664 3.153 10.759 5.2312 11.8 4.8157 11.801 4.8172 11.589 30.161l-0.1522 18.233-3.3134 4.2673c-4.8772 6.2813-12.759 13.54-17.882 16.468-2.475 1.4148-6.75 3.9998-9.5 5.7444s-10.251 5.7309-16.668 8.8584c-12.647 6.1634-15.135 8.387-23.394 20.906-6.1867 9.3769-17.613 22.756-28.069 32.865-20.102 19.435-30.433 31.403-40.255 46.63-13.555 21.015-16.537 25.69-16.933 26.545-0.1912 0.4125 4.3856 0.75 10.171 0.75 12.317 0 15.412 0.9145 16.958 5.0097 1.0068 2.6672 1.583 2.9903 5.3328 2.9903 13.933 0 13.343 11.994-1.0033 20.382-7.6514 4.4736-7.4059 4.0546-4.0608 6.932 1.4181 1.2198 2.8914 3.7481 3.2739 5.6185 0.5846 2.8585 1.2998 3.5734 4.4857 4.4842 5.0663 1.4483 8.662 5.055 8.662 8.6885 0 3.5217 1.103 3.6206 9.8391 0.8821 7.146-2.24 13.628-2.5267 19.224-0.8501 3.1217 0.9353 4.5385 0.8395 7.9855-0.5397 14.949-5.9815 36.71-1.0466 38.142 8.65 0.2159 1.4616 1.5203 2.4682 4.3096 3.3258 2.2 0.6763 6.394 1.9685 9.3201 2.8715 7.7275 2.3848 23.355 12.892 32.188 21.641l7.6586 7.5859 7.9164 1.2378c28.204 4.4099 44.445 17.036 46.119 35.855 1.0637 11.957-5.3683 15.183-39.202 19.667-17.107 2.267-139.36 4.1085-167.96 2.53-14.706-0.8116-14.353-0.6898-18.036-6.228-0.8448-1.2703-7.9048-1.6849-45.5-2.672-24.475-0.6426-48.55-1.592-53.5-2.1097-11.28-1.1798-50.556-3.8009-73-4.8716-27.896-1.3309-31.467-5.343-22.322-25.08 6.3254-13.652 14.364-20.767 23.645-20.926 4.1708-0.072 4.7508-0.5062 16.5-12.364 6.6975-6.7591 13.958-13.172 16.134-14.25 4.0157-1.9899 9.2117-5.1065 13.293-7.9736 1.4611-1.0262 2.25-2.6069 2.25-4.508 0-3.3253 2.7929-5.2205 9.4816-6.4341 7.2684-1.3188 7.7842-1.9469 7.0182-8.5463-0.8221-7.0836 0.9498-8.8362 9.2294-9.1292 6.7404-0.2386 6.7183-0.2174 8.7225-8.3694 0.9466-3.85 3.4822-10.48 5.6347-14.734 4.3994-8.6946 4.5568-9.8011 2.3278-16.366-6.5347-19.247 8.126-23.497 25.527-7.399 13.424 12.419 15.708 10.478 31.032-26.379 6.9713-16.768 17.481-40.02 28.303-62.621 3.8377-8.0145 10.728-18.771 13.874-21.656 2.5056-2.2986 3.9705-3.2106 26.093-16.242 26.363-15.53 28.793-17.18 32.336-21.97 3.6815-4.9772 3.8916-8.5104 0.9341-15.705-2.1257-5.1715-18.18-8.7707-53.513-11.997-33.142-3.0259-36.817-3.2524-54.597-3.3657-9.9531-0.0634-19.625-0.55368-21.493-1.0895-5.1503-1.4771-7.6988-1.1902-10.981 1.2362-2.7229 2.0131-4.6165 2.2755-21.21 2.9393-20.947 0.83793-24.974 1.7575-36.22 8.2693-9.1081 5.2741-13.763 6.8481-26.784 9.0563-16.123 2.7344-18.794 3.465-27.386 7.4912-27.175 12.735-47.841 11.744-83.837-4.0214-10.119-4.4317-11.979-4.905-23.058-5.867-32.671-2.8368-60.577-10.686-77.435-21.78-16.718-11.002-37.683-30.189-50.304-46.038-5.1727-6.4958-9.6459-9.6444-11.321-7.9688-0.2925 0.2925 0.6658 3.834 2.1296 7.8701 2.6945 7.4292 7.1729 23.611 14.974 54.103 3.8454 15.032 4.8121 17.564 9.35 24.5 11.344 17.338 12.016 20.991 5.4327 29.546-13.58 17.648-23.76 25.711-37.013 29.315-4.8113 1.3084-10.355 2.8219-12.32 3.3634-1.9645 0.5415-5.5645 2.923-8 5.2923-2.9714 2.8906-7.389 5.5739-13.428 8.1565-4.95 2.1168-17.775 7.858-28.5 12.758l-19.5 8.9095-14 12.017c-7.7 6.6094-14.647 12.649-15.438 13.42-1.2425 1.2131-0.8189 1.6772 3.1215 3.4202 5.4916 2.4292 9.951 6.7922 12.326 12.06 2.7242 6.0412 0.5353 9.7788-10.528 17.977-13.952 10.34-17.611 16.575-12.777 21.773 1.395 1.4999 2.8279 3.9646 3.1842 5.4771 0.3564 1.5125 1.3165 2.75 2.1338 2.75 1.5082 0 9.0545 3.4365 13.309 6.0609 3.2158 1.9835 6.2835 8.3099 6.3495 13.094 0.077 5.5522 1.8385 5.9968 22.779 5.7483 31.584-0.3748 42.54 3.7859 40.336 15.318-0.4369 2.2851-0.062 2.9026 2.3409 3.8574 5.5854 2.2192 13.02 6.4293 17.361 9.8313 1.925 1.5086 5.975 4.3456 9 6.3044 10.378 6.7204 21.432 19.394 25.586 29.338 1.0862 2.5995 2.2651 3.5912 5.1608 4.3412 2.0641 0.5346 5.553 1.4496 7.753 2.0332 14.889 3.9501 23.86 18.968 24.734 41.405 0.4971 12.767-10.178 16.992-52.234 20.669-6.875 0.6012-18.8 1.7297-26.5 2.5079-19.008 1.921-36.269 2.2933-66.5 1.4342zm15.663-15.772c0.09-6.2313 0.4346-11.601 0.7666-11.933 1.5307-1.5306 2.7465 2.2575 3.6467 11.362 1.3605 13.761 0.3228 12.706 11.678 11.866 11.692-0.8656 10.878 0.1858 10.161-13.115-0.6082-11.281 0.1316-14.324 2.6522-10.908 1.301 1.7627 1.5434 4.3621 1.8702 20.059l0.062 3 8-0.2615c4.4-0.1439 9.4577-0.5009 11.239-0.7933l3.2392-0.5318-0.6429-11.957c-0.9203-17.116 2.6823-15.646 4.8206 1.9664 0.5727 4.7173 1.1261 8.6686 1.2297 8.7807 0.1037 0.1121 4.6137-0.314 10.022-0.9469l9.8339-1.1508-0.5894-6.0531c-0.3243-3.3291-0.8967-8.9257-1.2722-12.437-1.3882-12.983 3.656-4.6701 5.9977 9.8837 0.6637 4.125 1.6376 7.4792 2.1642 7.4537 2.9314-0.1416 15.218-1.6871 16.708-2.1015 2.2754-0.6332 2.4234-10.815 0.2609-17.943-1.8569-6.1209-1.8563-6.4089 0.014-6.4089 1.8908 0 3.1713 3.2272 5.3564 13.5l1.7016 8 3.3583-0.2741c22.773-1.8588 10.738-42.254-13.4-44.974-4.005-0.4514-4.5846-0.2504-5.5805 1.9355-2.2851 5.0152-9.8312 7.5204-26.461 8.7847-6.6 0.5017-21.225 1.6623-32.5 2.579-27.153 2.2077-48.685 1.0949-126.5-6.538-41.328-4.0538-52.248-1.3596-60.465 14.918-7.2207 14.304-5.9432 18.526 6.6331 21.919 11.448 3.089 10.98 3.3715 11.286-6.8077 0.1673-5.5637 2.3658-17.695 3.3929-18.722 1.8485-1.8485 3.8778 0.9027 3.2806 4.4476-3.8993 23.148-3.7051 24.02 5.5418 24.884l6.5271 0.6095 0.6962-10.108c0.7806-11.334 2.0725-16.153 4.3305-16.153 1.2038 0 1.3749 0.6881 0.8081 3.25-3.9908 18.036-2.3933 24.002 6.6485 24.831 9.6415 0.8837 9.2821 1.2342 9.5846-9.3472 0.3111-10.881 1.2703-15.116 3.5222-15.55 2.6347-0.5077 3.0238 3.7625 1.3173 14.457-1.8975 11.892-1.8762 11.924 8.4983 12.65l7.6017 0.5322 0.619-11.549c0.6701-12.505 0.7626-12.839 3.2859-11.871 1.5064 0.5781 1.6271 1.9114 1.0865 12l-0.6083 11.349 3.7067 0.6128c2.0387 0.337 6.1817 0.6156 9.2067 0.6191l5.5 0.01 0.1005-10.546c0.1042-10.938 1.2419-14.476 3.3741-10.492 0.7199 1.3452 1.0395 5.7653 0.8426 11.653-0.3688 11.029-1.2397 10.26 12.06 10.649l8.3768 0.2451-0.031-10.189c-0.021-6.9162 0.3935-10.77 1.2914-11.998 2.0935-2.863 2.4765-1.3928 2.9387 11.28l0.4343 11.908 4.8067 0.6141c2.6436 0.3378 7.2817 0.5628 10.307 0.5l5.5-0.1141 0.1629-11.33zm-161.19-17.3c1.7657-5.4449 6.949-15.274 8.5891-16.288 3.2667-2.0189 0.4001-3.1925-9.3113-3.8122-29.992-1.9139-64.093-16.515-55.097-23.591 3.1864-2.5065 3.0799-2.6425-2.6527-3.3857-9.5999-1.2445-14.964 3.858-18.668 17.757-5.1772 19.43 2.7132 23.291 68.168 33.357 3.3 0.5075 6.2857 0.9881 6.6349 1.0679 0.3492 0.08 1.401-2.2173 2.3373-5.1048zm676.15 3.25h5.375v-11.309c0-8.4473 0.3747-11.8 1.481-13.25 2.5417-3.3313 3.4871 0.086 3.5037 12.666l0.015 11.607 8.2237 0.5637c10.425 0.7146 9.7763 1.4633 9.7763-11.278 0-11.348 0.8428-13.696 3.4746-9.6791 1.1768 1.7961 1.4962 4.5264 1.2939 11.063-0.3201 10.344-0.1093 10.579 9.4815 10.601l6.75 0.015 0.1-8.75c0.2095-18.389 4.5091-20.108 5.6277-2.25 0.6687 10.676 0.9411 11.004 9.1451 10.985 9.5613-0.022 9.4348 0.1611 8.9996-13.024-0.5848-17.715 3.8767-15.016 5.0242 3.0394l0.6037 9.5 9-0.3554c11.546-0.4558 10.873 0.3862 10.224-12.791-0.4714-9.572-0.3286-11.354 0.9097-11.354 2.3477 0 4.3667 6.3698 4.3667 13.777 0 10.049 0.6463 10.599 11.397 9.7033l8.7694-0.7305-0.333-11.401c-0.5066-17.345 4.4783-13.618 5.8884 4.4017l0.5673 7.25 6.1057-0.011c3.3581-0.01 7.8429-0.298 9.9662-0.6488l3.8606-0.6378-0.7092-11.351c-0.591-9.458-0.4731-11.351 0.7068-11.351 2.0582 0 4.7812 9.5895 4.7812 16.838 0 7.0344-0.7004 6.7003 10.542 5.0282 9.6103-1.4293 9.4296-0.7508 5.7845-21.714-0.5026-2.8904-0.3255-3.2989 1.2957-2.9893 1.9292 0.3683 6.1125 13.012 6.2959 19.028 0.1138 3.7331 0.7227 3.8584 7.9354 1.6332l6.3533-1.9602-0.673-4.4879c-0.3701-2.4684-1.5115-7.0296-2.5363-10.136-1.7974-5.4484-1.8091-7.2401-0.047-7.2401 1.2229 0 3.6913 6.6907 5.0885 13.792 1.383 7.0299 3.4878 8.2472 4.5421 2.6271 2.3602-12.581-10.753-26.986-28.581-31.397-13.114-3.2446-12.263-3.206-11.59-0.525 1.8092 7.2087-40.398 11.197-94.91 8.9685-48.136-1.9678-58.342-0.4518-68.693 10.203-10.95 11.272-13.252 29.87-3.4554 27.91 1.5939-0.3188 5.3167-0.5796 8.273-0.5796zm-21.078-13.762c0.9687-2.5366 3.3428-7.2668 5.2757-10.512 3.9926-6.7024 3.5734-7.6765-3.3228-7.7214-2.2-0.014-10.238-0.688-17.862-1.4971-7.6242-0.8091-25.624-1.9348-40-2.5016-57.72-2.2757-73.484-3.0573-81.138-4.0227-25.175-3.1753-29.478-3.8662-32.107-5.1558-2.0542-1.0074-2.8238-2.0578-2.6547-3.6231 0.8369-7.7441-11.02 1.5286-17.172 13.429-7.3173 14.155-5.1719 16.086 20.434 18.395 66.788 6.0233 97.535 7.9345 126.32 7.8522 13.652-0.039 24.975 0.084 25.162 0.2739 0.1873 0.1897 3.7068 0.1985 7.8212 0.02l7.4807-0.3252 1.7613-4.6119zm-434.54-10.6c26.797-2.9843 29.006-4.194 26.587-14.561-4.3382-18.596-25.492-36.762-55.087-47.306-31.294-11.149-83.778 13.857-102.69 48.925-5.7396 10.645-7.7979 9.5747 23.687 12.312 38.757 3.37 80.687 3.6155 107.5 0.6294zm-146.92-10.4c5.2343-8.74 8.3019-13.25 9.0124-13.25 0.417 0 0.9038-0.6178 1.0816-1.3728 0.1778-0.7551 5.6829-7.0703 12.234-14.034 27.133-28.843 30.162-41.791 11.011-47.07-3.2567-0.8979-7.9464-2.2774-10.421-3.0657l-4.5-1.4333-2.75 3.2002c-3.6411 4.2371-3.4706 5.4179 0.9005 6.2379 15.639 2.934 13.334 16.096-6.847 39.083-16.12 18.363-23.851 33.25-18.054 34.765 4.5993 1.2019 6.1129 0.6459 8.3327-3.0607zm722.47-7.1702c27.02-1 27.45-1.1 27.45-5 0-7.8776-20.812-25.77-36.81-31.646-2.5793-0.9474-7.3845-2.8251-10.678-4.1727-12.257-5.015-42.336-4.4764-44.52 0.7972-0.6674 1.6112-3.9466 6.878-7.2871 11.704-20.53 29.66-20.06 28.076-8.4541 28.484 23.111 0.8136 58.854 0.7558 80.305-0.1298zm-98.585-1.0638c1.0113-0.5412 3.2228-3.1287 4.9145-5.75s4.0972-6.1147 5.3456-7.763c23.676-31.261 24.47-32.83 18.52-36.581-4.3655-2.7522-12.307-2.1306-24.25 1.8979-4.95 1.6696-11.136 3.3206-13.746 3.6688-4.1146 0.5488-4.8256 0.9908-5.3429 3.3223-0.3282 1.4791-0.8103 3.4768-1.0712 4.4393-0.7335 2.7053 3.497 2.6151 14.422-0.3075 9.6288-2.5759 11.239-2.5241 11.239 0.3617 0 2.5056-4.5845 10.313-7.4282 12.65-5.4116 4.4478-14.496 18.992-14.55 23.295-0.025 2.0102 8.5912 2.5625 11.948 0.766zm-26.053-8.9921c4.9127-1.4089 8.0833-4.7554 8.0833-8.5315 0-4.4161-0.5726-4.6214-5.3193-1.9071-8.4898 4.8546-13.272 2.4288-12.373-6.2769 0.6514-6.3116-0.561-6.8707-4.4175-2.0373-9.2039 11.535-0.6556 22.964 14.027 18.753zm-696.85-8.0855c2.7986-2.7839 7.8576-8.2964 11.242-12.25 3.3847-3.9536 6.998-8.0884 8.0294-9.1884 8.6565-9.2317 3.7255-12.883-6.3064-4.6693-7.2807 5.9609-9.7848 9.0168-14.395 17.567-7.5999 14.095-7.108 17.033 1.4297 8.5404zm553.94 1.1c0-0.4514 4.8375-6.0488 10.75-12.439 21.001-22.696 20.852-29.044-0.3024-12.952-17.685 13.452-28.056 26.978-21.198 27.644 3.8321 0.3724 10.75-1.0775 10.75-2.253zm144.29-7.9475c6.7223-5.2878 11.884-40.262 6.7064-45.439-4.2781-4.2781-5.9581-1.3488-9.4348 16.451-1.4503 7.425-3.3977 17.01-4.3276 21.299-2.127 9.8111 0.592 12.774 7.056 7.6896zm-38.49-4.6552c4.5768-2.8724 7.7805-10.059 3.9523-8.8653-10.441 3.2543-15.481 2.7709-17.882-1.715-1.5556-2.9066 1.5118-10.274 5.1797-12.44 6.9335-4.0957 4.0609-5.5077-3.7791-1.8576-8.3617 3.893-11.403 11.503-7.9234 19.827 2.9789 7.1264 13.146 9.6373 20.453 5.0513zm-562.62-4.5061c4.2618-1.2768 9.423-6.4052 10.412-10.346 1.6165-6.4407-2.6893-10.038-5.9884-5.0025-5.81 8.8671-14.922 5.1522-13.235-5.396 1.099-6.8725-9.2653-0.3604-10.679 6.7102-2.2737 11.369 6.7352 17.856 19.491 14.034zm573.43-11.318c6.1106-2.9706 12.222-5.6801 13.582-6.0213 6.01-1.5084 9.5563-7.4821 5.675-9.5593-6.4155-3.4335-37.742 9.5152-38.697 15.995-1.0791 7.3197 3.7419 7.2168 19.441-0.4148zm19.252 0.6144c1.7144-5.3283 1.7499-5.3049-5.127-3.3908-6.7107 1.8678-7.1082 3.0785-1.985 6.0462 4.7667 2.7611 5.4515 2.5054 7.112-2.6554zm-621.36-4.5c4.7292-2.5163 8.5-9.0997 8.5-14.84 0-4.2634-0.8616-4.7035-3.5-1.7881-0.9955 1.1-2.1703 2-2.6106 2s-2.4584 1.125-4.4845 2.5c-7.3431 4.9831-13.405 2.3697-13.405-5.7792 0-4.4185-2.4398-3.6337-6.1373 1.9741-8.1507 12.362 7.1603 23.636 21.637 15.933zm722.9-0.1351c-4.4-6.7-32.4-7.1-32.4-0.4 0 1.6886 1.0339 1.8993 10.75 2.1898 5.9125 0.1768 13.573 0.417 17.023 0.5338l6.2731 0.2124-1.6425-2.5068zm-74.654-0.1235c4.7893-1.2835 1.5787-11.37-3.6192-11.37-1.383 0-2.0303 0.9752-2.4889 3.75-1.1328 6.8533-0.9757 7.2332 3.3581 8.1203 0.275 0.056 1.5125-0.1689 2.75-0.5006zm-617-2.3554c1.1723-1.0922 4.236-6.1547 6.8083-11.25 5.9652-11.816 10.707-17.441 18.368-21.79 10.33-5.8643 9.9484-5.405 7.0693-8.5029-8.4256-9.0657-21.275-0.036-32.77 23.029-7.975 16.002-7.687 26.165 0.5247 18.514zm119.25 0.2c0-8.7-8.91-11.2-39.7-11.2-23.441 0-24.179-0.1178-29.741-4.7469-2.9704-2.4721-3.9989-2.975-13.042-6.3773-9.2505-3.4803-10.484-1.7057-1.8511 2.6623 6.6829 3.3813 11.337 7.0885 11.337 9.0305 0 4.591 7.2688 5.9314 32.166 5.9314 22.782 0 23.777 0.082 26.628 2.1898 5.5001 4.0662 14.206 5.5841 14.206 2.4768zm463.76-12.414c5.2297-1.1626 5.2533-1.1851 4.6436-4.4348-0.7073-3.7706 3.0611-12.518 8.969-20.818 9.3762-13.174 8.4306-16.065-5.0468-15.434-38.263 1.7929-51.728-1.7227-68.311-17.835-10.819-10.512-15.977-11.789-19.185-4.7486-6.5501 14.376 31.707 35.189 63.174 34.368 14.252-0.3717 15.788 1.6368 10.023 13.104-4.9292 9.8037-5.8349 18.807-1.7728 17.623 1.2375-0.3608 4.6154-1.1818 7.5063-1.8244zm-616.46-1.4001c1.7602-0.9058 5.4902-3.5985 8.2891-5.9837 5.8983-5.0266 14.815-9.3136 21.789-10.476 3.1418-0.5237 5.3929-1.5486 6.3253-2.8797 0.7961-1.1366 2.9858-3.7421 4.8661-5.79l3.4186-3.7235-5.6209-0.3037c-18.18-1.1-48.37 14.8-48.37 25.4 0 5.2857 3.4698 6.6459 9.2997 3.6455zm628.06-5.4203c0.7567-3.7836 7.4426-10.604 14.136-14.42 11.061-6.3063 11.48-12.512 0.845-12.512-4.4954 0-5.9043 2.0407-3.245 4.7 0.8 0.8 0.4591 1.6944-1.25 3.2796-11.673 10.827-13.85 13.808-13.85 18.971 0 4.0478 2.5531 4.0343 3.3635-0.018zm-535.83 1.0106c4.288-6.9381-17.478-19.673-26.623-15.577-9.3475 4.1861-8.8449 5.495 3.101 8.0761 4.8253 1.0425 9.8161 2.9492 13.135 5.018 5.5162 3.4386 9.2461 4.3302 10.388 2.4832zm444.21-4.2619c2.333-3.427 2.8818-5.6813 1.3829-5.6813-0.8154 0-6.1329 7.3513-6.1329 8.4786 0 1.689 2.8306 0.022 4.75-2.7973zm-505.87-1.2c2.2362-3.7901 1.9464-4.0128-3.7425-2.875-3.5133 0.7027-3.8911 1.871-1.47 4.5463 2.2815 2.521 2.8457 2.3401 5.2125-1.6713zm-4.656-23.542c3.1301-0.8693 3.7838-1.5342 4.1727-4.2444 0.2536-1.7675 0.9459-6.1905 1.5385-9.8289 3.7348-22.933-1.4048-29.636-24.423-31.85-29.043-2.7938-41.139-10.122-22.364-13.55 4.0314-0.7361 5.808 0.674 3.8387 3.0469-2.8921 3.4848 10.417 7.4689 24.95 7.4689 5.582 0 11.904-8.9839 7.326-10.411-19.694-6.1376-51.385-2.1473-55.734 7.0178-5.4296 11.442 2.2056 16.1 27.984 17.074 26.422 0.9981 28.8 3.2923 27.016 26.069-0.8895 11.362-1.0613 11.084 5.695 9.208zm34.294-1.96c1.561-0.5935 2.8263-2.4805 3.9678-5.9173 1.5492-4.6641 11.063-15.018 13.844-15.067 7.8065-0.1352 13.471-14.853 7.4333-19.312-9.0878-6.7112-26.386-5.7373-19.548 1.1006 1.6666 1.6666 3.7977 1.4969 3.7977-0.3023 0-2.0962 2.7664-1.8834 3.2501 0.25 0.6426 2.8344-1.7125 6.4837-7.1352 11.056-8.6611 7.3031-13.245 15.564-14.45 26.04l-0.4999 4.3458 3.5245-0.6612c1.9384-0.3636 4.5558-1.0533 5.8163-1.5325zm-7.5-23c0-4.4433-9.9093-7.679-15.066-4.9193-2.4987 1.3372-2.6651 4.4734-0.1843 3.4733 4.5451-1.8324 8.7948-1.6974 11.266 0.358 2.7788 2.3118 3.9845 2.641 3.9845 1.088zm9.3956-7.2007c2.1845-2.7914 2.3432-3.4435 1.1324-4.6543-2.821-2.821-9.0743 3.3324-6.5174 6.4132 1.7709 2.1339 2.5334 1.8848 5.385-1.7589zm562.22-49.781c5.4368-6.8899 11.235-14.275 12.885-16.411 11.786-15.261 41.666-45.195 53.424-53.521 9.4221-6.672-11.168 1.205-24.988 9.5595-18.39 11.117-27.54 20.394-35.646 36.14-2.4803 4.8178-5.8962 11.46-7.591 14.76-3.3935 6.6078-9.6557 21.451-9.6823 22.95-0.022 1.2485-0.02 1.2465 11.598-13.477zm-559.43-3.2214c27.368-24.745 49.054-40.631 67.778-49.65 13.898-6.6941 11.936-8.0423-5.2864-3.6316-20.304 5.1998-40.136 18.034-53.597 34.684-2.521 3.1183-9.2688 11.447-14.995 18.508-13.518 16.669-12.829 15.747-11.4 15.251 0.6537-0.2269 8.5287-7.0494 17.5-15.161zm113.59-87.8c-0.1882-2.3181-0.7907-3.5-1.7842-3.5-1.9701 0-2.6356 13.817-0.871 18.082 1.3612 3.2903 3.2599-7.1369 2.6552-14.582zm256.65-10.63c19.993-6.2293 24.491-7.5244 32.571-9.3768 7.5167-1.7233 24.787-7.6177 27.381-9.3455 1.1653-0.77598 5.7187-4.4161 10.119-8.0891 11.466-9.5714 27.275-16.393 32.947-14.217 2.0997 0.80576 1.9709 3.4141-0.1969 3.9845-0.9625 0.25326-3.775 0.99015-6.25 1.6375-10.001 2.616-12.05 7.0354-3.3773 7.2837 18.496 0.52959 37.35-9.4156 48.741-25.71 5.33-7.62 5.3-7.54 2.64-7.54-2.8713 0-2.4732-1.3856 1.25-4.3515 1.7875-1.4239 5.725-4.8968 8.75-7.7176 5.7699-5.3804 16.684-11.331 19.713-10.748 1.1614 0.22366-0.1782 1.2986-3.8678 3.1038-3.3726 1.65-7.0939 4.5303-9.2451 7.1556-5.91 7.2124-4.5409 8.2412 5.3995 4.0573 3.2669-1.375 6.6456-2.5 7.5083-2.5 0.8628 0 2.7888-1.9704 4.2802-4.3786 2.19-3.5365 3.9616-4.9211 9.2115-7.1992 17.316-7.514 38.776-22.162 44.438-30.333 3.5634-5.142 4.9759-19.533 2.1906-22.318-2.4031-2.4031-2.3149-2.5992 6.4208-14.276 21.55-28.8 25.97-47.08 18.33-75.64-1.86-6.95-3.38-13.62-3.38-14.81 0-1.1956-1.5824-8.7826-3.5164-16.86-9.8933-41.319-9.1665-39.38-15.427-41.155-6.3892-1.8117-6.1872 7.3532 0.4844 21.969 7.3815 16.172 8.578 35.669 3.0843 50.264-1.7464 4.64-2.3356 7.7436-1.9366 10.202 0.8345 5.1429-2.2085 4.8669-3.7691-0.34183-1.0058-3.357-0.8567-4.728 1.1145-10.25 5.9702-16.724 1.2319-49.587-10.258-71.144-6.1429-11.525-8.9687-2.2606-6.4484 21.143 4.1016 38.089-1.6218 63.757-15.077 67.616-2.3613 0.67726-3.4263-2.6444-1.2744-3.9744 14.39-8.8933 18.074-50.907 6.4568-73.618-1.1844-2.3153-1.0609-3.111 1.1181-7.2042 1.785-3.3532 2.451-6.1737 2.4551-10.397 0.01-7.5679 1.5679-12.96 4.64-16.032 9.7542-9.7542 14.58-41.749 5.9694-39.578-4.5118 1.1376-10.426 0.90307-11.797-0.46778-1.6317-1.6317-0.6635-2.3182 4.6755-3.3157 5.9878-1.1186 16.067-7.7296 25.709-16.862 10.786-10.216 11.958-12.328 17.776-32.04 2.8409-9.625 6.518-21.768 8.1713-26.985 5.8094-18.33 3.1699-37.535-4.8512-35.296-11.745 3.2786-30.496-0.20614-44.526-8.2749-9.2742-5.3336-9.0568-5.3133-10.619-0.99336-0.6862 1.8978-2.6891 4.6046-4.4508 6.0151-1.7618 1.4105-3.6695 2.9356-4.2394 3.3892-0.6453 0.51354-0.8074 3.4314-0.4297 7.7349 0.3335 3.8007 0.3998 12.214 0.1473 18.697-0.5391 13.845-2.233 15.36-3.5083 3.1379-0.4548-4.3587-1.5798-11.975-2.5-16.925l-1.6731-9-8 0.11264c-4.4 0.062-11.825 0.42522-16.5 0.80727-12.87 1.0517-15.971-2.5319-3.3137-3.8288 7.075-0.72486 16.114-3.1927 17.814-4.8634 0.6557-0.64464-1.0658-0.71623-5-0.20791-11.025 1.4245-12.554 1.0531-17-4.1316-19.49-22.73-29.46-31.9-36.46-33.53-16.46-3.83-49.04 3.94-49.04 11.69 0 2.3763 4.9315 7.1767 8.004 7.7912 3.1174 0.62348 4.9565 3.1329 3.3788 4.6104-4.6053 4.3128-35.262-13.679-33.898-19.894 1.135-5.1676-6.3935-2.0619-19.905 8.2114-16.274 12.374-21.58 15.553-21.58 12.929 0-0.43556 2.0231-3.0231 4.4957-5.75 5.9835-6.5989 5.8316-6.8798-3.2457-6.0027-4.2625 0.41185-14.5 1.1567-22.75 1.6553-8.25 0.49859-17.84 1.169-21.312 1.4898-38.359 3.5452-59.406-34.114-46.582-83.349 1.4719-5.6511 1.4582-5.7804-0.8029-7.6113-1.2651-1.0244-11.301-10.296-22.302-20.603-11.01-10.31-24.29-22.46-29.51-27.01-5.225-4.548-16.7-15.082-25.5-23.409-8.8-8.3268-17.553-16.485-19.45-18.13-1.8977-1.6446-7.5227-6.8447-12.5-11.556-12.108-11.461-26.648-24.169-27.117-23.7-0.2082 0.20826-1.0387 3.5033-1.8453 7.3223-0.8067 3.819-2.1744 8.63-3.0394 10.691-7.1591 17.06-14.247 62.455-11.594 74.253 1.0583 4.7054 7.5623 21.819 9.1212 24 9.7518 13.643 13.498 31.768 8.3709 40.497-3.2349 5.5066-5.9044 5.365-5.1317-0.27231 1.1165-8.1459-2.3672-21.774-10.282-40.224-9.92-23.124-10.033-45.709-0.4052-80.872 5.2744-19.263 6.4418-42.81 2.3186-46.768-2.9292-2.8114-12.258-9.8813-12.594-9.5449-0.8507 0.85066-10.267 29.776-10.834 33.28-1.2835 7.9305-1.4201 8.2423-3.3851 7.7285-1.2959-0.33887-2.5796 0.49619-4.1473 2.6979-1.2488 1.7538-4.4397 5.6676-7.091 8.6974-4.5277 5.1741-14.282 23.157-21.278 39.226-6.0853 13.978 4.453 53.324 18.308 68.355l4.1576 4.5104-0.2903 8.8444c-0.2943 8.9674-1.549 11.279-3.1354 5.776-0.4648-1.6123-1.5563-4.2815-2.4256-5.9315-0.8692-1.65-2.4351-4.6605-3.4796-6.6899-2.4221-4.7057-3.6446-4.2304-9.1597 3.5606-11.622 16.418-13.74 35.468-4.59 41.277 5.4046 3.4311 6.9987 5.1586 7.0153 7.6027 0.045 6.5952 8.046 3.6487 9.4726-3.4883 1.19-6 4.65-15.77 5.58-15.77 1.0944 0 1.2412 1.0535 0.9756 7-0.1106 2.475 0.3033 5.8245 0.9197 7.4433 1.0871 2.8551 0.872 3.1889-7.178 11.137-10.636 10.502-24.881 34.589-26.86 45.419-1.5621 8.5466-2.8743 12-4.5597 12-2.1727 0-1.5834-5.2654 2.012-17.98 3.8116-13.479-8.0692-4.6572-12.38 9.1924-1.5879 5.1018-1.8385 7.911-1.3365 14.983l0.6179 8.704-5.1462 5.6307c-6.9552 7.61-6.9144 7.7299 3.0497 8.9748l5.5095 0.68836 1.5452-3.8619c8.5205-21.295 31.47-29.727 52.826-19.409 6.6992 3.2367 11.135-0.009 14.123-10.334 2.5873-8.9403 21.58-25.044 36.174-30.672 36.85-14.211 70.578-2.9697 79.106 26.364 0.9146 3.1459 2.2134 5.7199 2.8864 5.7199 2.8001 0 18.648 8.9099 25.297 14.223 18.389 14.693 20.867 29.269 7.7239 45.445-4.1431 5.0996-4.3935 3.5211 2.0964 13.217 10.062 15.034 11.264 23.786 4.9718 36.204-2.7734 5.4732-3.1099 12.147-1.4648 29.053 1.2004 12.336 14.982 80.475 21.167 104.66 2.2611 8.8397 2.8408 12.604 2.0611 13.384-2.5716 2.5717-7.4129-11.992-12.526-37.682-0.7663-3.85-3.4428-14.425-5.9477-23.5-5.7637-20.881-12.386-47.754-14.743-59.827-2.1083-10.799-2.1564-10.879-5.5948-9.3126-1.9346 0.88145-2.4097 1.6288-1.8516 2.9124 17.342 39.888-47.264 76.027-80.523 45.042-1.9113-1.7807-3.0474-1.9939-7.9136-1.4853-15.332 1.6026-32.229-2.8153-45.945-12.013-5.7947-3.8858-6.8425-4.2594-9.5893-3.4186-24.385 7.4638-49.51-6.3081-60.019-32.898-6.3698-16.118-7.8795-20.707-10.199-31-3.0932-13.728-1.4678-11.794-11.859-14.109-11.26-2.5089-10.284-3.9078-13.568 19.445-1.7189 12.221 2.8259 9.9766 10.296-5.0853 5.7627-11.619 7.7531-11.073 3.6261 0.99602-3.7693 11.022-6.4848 15.304-13.585 21.417-23.428 20.174-42.854 48.77-51.774 76.212-3.8813 11.941-2.0721 61.578 2.465 67.625 0.4126 0.55 1.0322 2.4866 1.3767 4.3036 0.3446 1.817 3.3329 9.0916 6.6407 16.166 4.6072 9.853 6.0143 13.935 6.0143 17.446 0 6.3362-2.2889 6.0543-4.4484-0.54802-4.15-12.65-6.56-12.62-6.56 0.08 0 27.673 4.2826 36.662 21.5 45.132 17.539 8.6278 47.5 11.744 47.5 4.9404 0-1.2428-5.9963-3.9974-8.7179-4.0048-2.3462-0.006-20.523-8.2273-25.558-11.559-6.7354-4.4573-2.9864-5.3378 4.1011-0.96321 7.3326 4.526 12.463 6.4253 17.512 6.483l3.8379 0.0439-0.5349-3.75c-1.7573-12.319-1.751-12.892 0.1672-15.261l1.8835-2.326 0.5731 6.3196c1.47 16.27 15.37 27.02 34.91 27.02 3.8585 0 5.4 0.56621 8.175 3.0027 6.8983 6.0568 14.075 8.4852 24.156 8.1743 9.3939-0.28971 15.199 1.5885 20.994 6.7929 3.5364 3.176 7.9087 4.8411 15.541 5.9186 7.6483 1.0797 16.525 3.8294 22.959 7.1117 5.9313 3.0259 8.3448 7.3163 2.8789 5.1177-24.312-9.7794-25.637-3.2844-3.9234 19.243 25.43 26.39 69.11 43.64 110.51 43.64 5.2325 0 6.9019 0.47358 10.822 3.0699 18.419 12.2 51.062 14.359 80.137 5.2996zm-87.43-15.02c-30.083-2.8659-87.392-23.805-76.545-27.968 1.8483-0.70928 4.3091 0.4074 14.545 6.6004 14.388 8.7047 36.447 14.847 67.418 18.771 12.052 1.5271 7.2942 3.8073-5.4175 2.5963zm0.25-41.077c-2.5535-0.89093-1.1303-3.0693 2.4432-3.7397 2.0313-0.38107 6.5062-1.819 9.9443-3.1953 8.7603-3.507 11.432-2.6836 4.3625 1.3446-5.9014 3.3629-14.709 6.3026-16.75 5.5905zm142.05-7.3044c2.9639-3.4627 5.3063-4.9396 11.299-7.1244 18.927-6.9003 43.806-26.292 45.887-35.766 0.8326-3.7907 1.7179-4.379 4.0374-2.683 7.4889 5.476-43.252 46.419-61.122 49.318l-3.8406 0.62325 3.739-4.3682zm-34.371-0.5528c-10.021-12.074-50.722-14.957-63.339-4.4856-1.4062 1.1671-3.7615-0.081-2.7856-1.4761 10.61-15.17 71.7-11.72 71.7 4.04 0 3.5417-3.285 4.6689-5.5728 1.9122zm-201.3-17.49c-2.85-2.25-3.55-5.93-1.13-5.93 0.825 0 1.5 0.3966 1.5 0.88134s1.4354 2.2847 3.1898 4c3.8772 3.7907 1.0077 4.635-3.5549 1.0461zm-16.657-8.6232c-3.8652-6.0948-3.9341-8.5471-0.228-8.1206 2.4548 0.28246 7.8997 8.3027 8.1918 12.066 0.2334 3.007-5.2901 0.2703-7.9638-3.9458zm-12-5.9815c-5.3939-6.1434-7.6607-13.74-4.4658-14.966 2.2005-0.84438 3.9955 1.0584 5.3903 5.7138 0.6747 2.2519 2.0958 5.5197 3.1581 7.2619 3.9467 6.4726 1.08 7.8701-4.0826 1.9903zm357.17 0.79213c-2.4417-1.5474-0.718-4.4914 4.3546-7.4374 3.0918-1.7956 7.6457-6.0953 11.956-11.289 7.0143-8.4509 8.5375-9.6729 8.5375-6.8487 0 3.293-4.1568 9.3207-12.213 17.71-8.2198 8.5595-9.8942 9.6018-12.635 7.8649zm-373.5-26.87c-11.606-22.552-17.782-74.982-9.4265-80.028 3.7998-2.2947 3.9038-1.8896 2.6577 10.351-1.7079 16.776 2.5615 50.946 8.2373 65.927 2.677 7.0655 1.623 9.757-1.4685 3.75zm338.74-15c6.6213-22.815-1.5504-34.661-30.373-44.029-17.269-5.6129-37.75-5.296-57.873 0.89554-12.784 3.9335-15.316 3.3961-6.6962-1.4216 23.211-12.973 61.901-12.915 84.423 0.12616 3.4947 2.0236 7.3998 4.2508 8.678 4.9493 9.9792 5.4536 15.962 25.891 10.122 34.579-3.9149 5.8252-9.5106 9.1365-8.2813 4.9005zm-448.44-17.31c-5.1487-5.286-6.9707-9.304-5.0775-11.197 1.3809-1.3809 11.818 8.7338 12.152 11.777 0.6578 5.9956-0.7853 5.8775-7.0744-0.57934zm-2.8781-17.876c-2.8504-2.8504-4.4364-7.0838-3.1396-8.3805 1.3129-1.313 3.219 0.30741 5.6318 4.7877 2.4448 4.5398 0.8106 6.8956-2.4922 3.5928zm531.94-18.81c0.01-4.7908 4.6592-11.202 8.1527-11.235 2.1954-0.0203 1.4044 3.0031-2.4159 9.2347-3.2863 5.3604-5.7425 6.2167-5.7368 2zm-31.76-0.51101c-1.6864-2.1257-2.29-8.0992-1.187-11.746 0.9846-3.2556 2.2192-9.4336 9.9902-49.993 1.6333-8.525 3.6451-17.975 4.4705-21 0.8255-3.025 3.0525-13.042 4.949-22.259 3.5874-17.436 6.2942-25.328 9.0498-26.385 3.0544-1.1721 3.3392 1.1243 1.0103 8.1446-5.7091 17.21-20.483 86.481-24.583 115.26-1.2072 8.4745-1.9807 10.142-3.6994 7.9757zm-435.12-9.5171c-1.8489-3.4546-0.114-21.1 2.6764-27.222 1.3787-3.025 2.8098-7.525 3.1801-10l0.6734-4.5 1.1756 2.8151c2.2293 5.3378 1.5137 18.128-1.1948 21.358-2.6284 3.1342-3.5563 6.463-3.7963 13.619-0.1768 5.2728-1.2016 6.7564-2.7144 3.9297zm389.51-2.2405c-2.6179-1.6602-5.8791-4.1379-7.247-5.5058-1.368-1.368-4.3767-3.4445-6.686-4.6145-10.004-5.0685-13.28-9.1199-9.87-12.206 4.0532-3.668 8.7585-1.0983 15.107 8.2506 4.8924 7.2044 9.497 10.735 16.254 12.462 3.3806 0.86413 5.4275 1.9524 5.6333 2.9948 0.5916 2.996-7.6503 2.1331-13.192-1.3811zm-357.98-10.73c-6.1295-12.277-10.726-27.337-13.589-44.521-1.0612-6.3695-0.7155-10.117 1.5409-16.701 1.0029-2.9266 2.041 0.93445 2.2167 8.2448 0.2635 10.96 5.2403 26.064 14.573 44.227 3.4882 6.7884 4.2281 10.579 2.9764 15.25-1.1152 4.1615-3.324 2.3014-7.7181-6.5zm254.85 1.75c-1.0095-1.6335 0.2393-2.696 3.8592-3.2834 1.8742-0.30415 6.4311-2.3898 10.126-4.6348 3.7-2.24 6.89-4.08 7.1-4.08 1.6131 0 23.104-13.843 32.214-20.75 10.963-8.312 20.181-18.498 24.769-27.37 0.8376-1.6198 1.9714-2.668 2.5194-2.3293 1.9906 1.2302-16.652 28.811-21.717 32.13-5.928 3.8842-1.0116 3.7374 11.026-0.32919 6.5802-2.223 9.4874-3.9772 16.048-9.6829 5.4359-4.7277 4.9237-1.4162-0.5776 3.7342-11.276 10.557-32.846 22.485-40.792 22.557-2.4928 0.0226-7.9612 1.4102-12.5 3.172-7.7213 2.9971-10.606 4.3408-20.488 9.542-4.5636 2.4021-10.496 3.0814-11.58 1.3262zm-39.54-11c-10.28-10.31-10.96-11.24-10.96-14.98 0-2.1959-1.0805-12.661-2.4011-23.255-1.7856-14.325-2.708-29.13-3.5986-57.762-0.6587-21.175-1.6032-40.699-2.0989-43.386-1.1299-6.1252-1.1245-6.6135 0.073-6.6135 3.6272 0 4.3648 5.8782 5.1451 41 0.781 35.151 1.1665 39.249 7.7631 82.5 1.1994 7.8639 6.4061 16.779 17.368 29.737 0.9625 1.1378 1.75 2.45 1.75 2.9158 0 2.2654-2.9673-0.0439-13.04-10.148zm170.37 8.4169c-0.3331-0.86807 0.1276-4.9154 1.0238-8.9942 0.8963-4.0787 1.8944-10.456 2.2181-14.172l0.5886-6.7558-6.0811-5.8348c-6.568-6.3021-7.1097-7.9589-4.581-14.011 4.3647-10.446 0.297-23.622-9.2607-29.997-3.9933-2.6634-8.9433-6.8788-11-9.3676-11.35-13.73-16.61-18.28-21.12-18.28-2.9365 0-23.945 11.147-35.596 18.887-2.214 1.4708-5.3404 3.3354-6.9475 4.1436-1.6071 0.80819-5.6571 3.6177-9 6.2434s-9.5506 7.3938-13.795 10.596c-7.9108 5.9684-18.908 15.578-28.473 24.88-7.3477 7.146-11.714 6.9623-21.288-0.89563-1.9129-1.5699-4.0238-2.8544-4.691-2.8544-1.8494 0-2.7556-2.1197-1.2928-3.0237 0.7121-0.44007 2.4071-0.37717 3.7668 0.13978 3.0088 1.1439 3.6721 0.64428 2.3713-1.7862-1.5859-2.9633-4.7773-17.61-7.5892-34.83-1.437-8.8-3.0556-18.475-3.597-21.5-1.5158-8.4701-4.8019-36.086-5.9498-50-0.5672-6.875-1.703-14.975-2.524-18-2.1922-8.077-2.0162-10 0.9154-10 1.5385 0 3.1856-1.0585 4.4835-2.8812 9.5575-13.422 57.428-51.933 79.877-64.259 2.813-1.5445 2.9559-1.9164 2.4526-6.3816-0.7781-6.9029 1.422-5.4801 4.7466 3.0697 1.4869 3.8236 3.6664 8.5546 4.8434 10.513 1.5361 2.5562 2.5639 7.0717 3.6417 16 0.8259 6.8413 1.9481 16.039 2.4939 20.439s1.2706 10.7 1.6107 14c1.4631 14.197 9.239 40.587 13.186 44.75 5.971 6.298 32.096 1.3056 45.177-8.6331 3.8435-2.9203 6.0557-3.3469 6.0557-1.1678 0 1.7275-4.7782 5.4568-11 8.585-4.8935 2.4604-5.0083 2.2796 3.071 4.836 11.858 3.7521 26.15-1.7567 40.174-15.485l7.0331-6.885-0.6701 4.3702c-0.3686 2.4036-1.2828 5.5394-2.0315 6.9684-1.1711 2.235-1.1503 2.7526 0.1485 3.7023 1.3449 0.9834 1.3408 1.431-0.037 4.096-1.8274 3.5338-1.18 11.237 1.0152 12.079 2.0827 0.79922 7.1683-4.5546 8.4776-8.9247 1.2151-4.0554 2.235-4.757 3.2124-2.2097 1.9606 5.1092-1.3026 13.694-6.8578 18.041-9.4766 7.4161-8.951 6.52-9.7467 16.616-1.2231 15.518-2.2953 22.393-3.8263 24.537-8.9061 12.47-9.6481 13.867-10.294 19.373-0.3642 3.1066-1.7193 10.121-3.0112 15.588l-2.3491 9.9398 3.9165 4.4117c2.1541 2.4264 4.4473 5.0769 5.0959 5.8898 1.9022 2.3842 1.3151 14.749-1.0457 22.022-4.2331 13.041-6.4033 16.435-7.9434 12.422zm-145.33-45.3c0-0.48265-0.7263-1.4803-1.6139-2.217-0.8876-0.73669-2.9556-3.7168-4.5955-6.6224-3.3487-5.9336-4.0907-6.2808-6.2803-2.939-1.6658 2.5424 0.9346 10.859 3.7514 11.998 2.14 0.86493 8.7383 0.69945 8.7383-0.21916zm13.5-13.054c11.626-10.804 26.519-21.808 44.414-32.815 5.8223-3.5813 10.798-6.7028 11.057-6.9365 1.0161-0.91673-2.4875-2.1164-8.0038-2.7404-6.1998-0.70143-7.4175-1.5373-8.4952-5.8314-0.913-3.6377-1.4752-3.5164-8.3118 1.7927-11.16 8.6669-19.196 6.062-30.79-9.9805l-2.1273-2.9434-6.8713 3.754c-3.7793 2.0647-11.017 5.7726-16.085 8.2397-12.173 5.9267-12.651 8.2932-6.8176 33.791 3.0028 13.126 2.7505 12.819 6.781 8.2573 3.7033-4.1913 3.887-4.1276 9.1824 3.1825 5.9797 8.2549 9.1164 8.6903 16.068 2.2305zm131.42-20.165c-2.3407-1.7994-7.4404-2.672-6.7364-1.1527 0.1911 0.4125 1.9161 3.1893 3.8333 6.1706l3.4858 5.4206 0.9173-4.2901c0.8357-3.9086 0.7023-4.4554-1.5-6.1484zm7.9505-9.7735c2.0492-2.0032 3.25-4.4964 3.9733-8.25 0.5701-2.9586 1.7389-9.0234 2.5974-13.478 4.418-22.922 0.6138-40.008-8.0653-36.225-9.7252 4.2389-14.41 5.1081-23.549 4.3697-13.026-1.0524-17.81-0.91604-25.139 0.71667-24.53 5.4647-28.474 0.83807-38.629-45.318-4.6694-21.223-11.263-21.528-32.788-1.5151-8.8521 8.2303-9.2823 8.1605-14.972-2.4297-5.1029-9.4987-10.74-17-12.775-17-8.3291 0-22.839 11.753-28.622 23.184l-3.21 6.32 1.21 31.5c1.6202 42.386 0.9592 41.537 22.623 29.069 13.022-7.4947 17.468-9.3265 17.468-7.1981 0 2.0646 17.27 19.129 19.344 19.113 2.6319-0.0201 7.7691-3.0322 15.218-8.923 6.7415-5.3313 8.1632-4.9221 10.459 3.011 1.7067 5.8983 1.0759 5.5301 13.479 7.867l6 1.1304 9.7288-5.0345c12.795-6.6214 22.894-2.5488 34.998 14.113 5.7462 7.9102 24.522 10.963 30.641 4.9814zm-120.19-107.03c11.248-11.11 15.638-13.528 23.3-12.833l5.589 0.50679-1.1215-9.6358c-2.84-24.38-9.42-28.01-28.45-15.68-20.93 13.56-29.43 20.54-25.04 20.54 2.1589 0 6.187 5.9321 10.644 15.675 5.6661 12.386 4.1268 12.241 15.08 1.4223zm56.831 178.92c-1.483-1.6387-1.3727-1.9576 1.5199-4.3915 3.5364-2.9756 7.7151-3.4408 8.6653-0.9646 1.3823 3.6022-7.5307 8.2893-10.185 5.3561zm94.19-137.66c-0.39-0.38-0.7-4.7-0.7-9.59 0-9.2126-3.5236-24.581-6.7744-29.548l-1.49-2.2762-3.1178 2.5288c-16.535 13.412-30.31 19.012-35.709 14.52-1.3246-1.102-5.2759-4.4754-8.7806-7.4965-5.9128-5.0967-8.2177-6.2236-16.862-8.2439-3.0321-0.70864-3.7379-1.8193-11.283-17.756-17.423-36.801-27.214-54.384-34.39-61.759-6.29-6.46-7.17-7.74-5.31-7.74 5.7241 0 23.188 25.919 38.159 56.634 10.746 22.047 9.8653 20.926 17.156 21.836 3.6518 0.45627 5.4856 1.1858 5.8969 2.346 0.3283 0.92611 3.7986 4.1588 7.7119 7.1838 11.973 9.2553 15.073 11.144 17.351 10.572 2.0925-0.52517 18.231-9.1138 19.69-10.479 0.4165-0.38962-0.9022-4.5076-2.9303-9.1512-4.27-9.7761-5.8953-31.821-3.1291-42.443 2.259-8.6739 3.0831-5.5303 3.2771 12.5 0.2567 23.864 3.2609 31.835 11.577 30.72 4.9866-0.66884 5.2069-0.4464 9.1928 9.2802 3.1457 7.6763 4.4596 13.03 6.2917 25.637 0.5198 3.5772-0.8967 12.363-1.9933 12.363-0.2088 0-1.0024 0.23899-1.7636 0.5311-0.7613 0.2921-1.6981 0.2171-2.0818-0.16667zm13.921-40.172c-1.6198-2.6209-1.7748-11.306-0.2435-13.643 3.8101-5.815 6.1763 1.5096 3.381 10.466-1.2133 3.8875-2.1267 4.8124-3.1375 3.1768zm-229.62-9.02c0-1.0063 2.3986-4.4938 5.3302-7.75 4.5793-5.0864 7.9951-10.175 15.671-23.345 7.0857-12.157 27.996-33.892 39.09-40.631 10.54-6.4 20.91-10.07 20.91-7.41 0 0.56727-0.7875 1.3076-1.75 1.6451-12.055 4.228-39.387 28.715-50.371 45.129-6.2639 9.3602-13.593 18.659-17.887 22.695-1.7556 1.65-4.5187 4.9125-6.1402 7.25-3.1478 4.5377-4.8521 5.3879-4.8521 2.4204zm143.85-5.42c-6.4432-11.909 5.4188-47.36 17.722-52.966 4.1606-1.8957 3.8893-0.0434-0.7969 5.442-11.429 13.378-16.365 26.349-15.54 40.831 0.5504 9.6537 0.4577 10.101-1.386 6.6938zm-182.77-14.01c-5.623-2.8689-4.9038-9.616 0.8126-7.6232 6.8622 2.3922 31.352-7.2407 45.679-17.967 3.4118-2.5545 7.2321-5.3196 8.4895-6.1446s4.0082-3.0149 6.113-4.8664c2.2344-1.9654 3.827-2.8018 3.827-2.0097 0 1.6008-10.733 11.907-18.8 18.053-3.1213 2.3778-8.3806 6.5089-11.687 9.1803-12.718 10.274-27.211 15.063-34.433 11.378zm-16.08-4.09c0-1.5618 6.6213-8.6534 8.0795-8.6534 2.2329 0 1.9743 3.2408-0.5195 6.5102-2.7129 3.5568-7.56 4.9309-7.56 2.1432zm222.5-45.53c-9.3-3.35-15.46-8.12-10.5-8.12 2.9358 0 0.3231-1.8128-4.0763-2.8282-8.1797-1.8881-14.807-1.5373-16.771 0.88779-2.9625 3.6585-14.186-0.20477-12.6-4.3371 3.0144-7.8552 34.018-7.4226 41.755 0.58266 13.211 13.67 13.906 18.046 2.1924 13.818zm-311.96-24.63c-2.94-6.4275-2.5068-10.995 1.0429-10.995 1.6633 0 1.9989 0.99153 2.5382 7.5 0.7975 9.6244-0.2913 10.687-3.5811 3.4946zm4.8646-16.6c-3.4059-3.7635-2.7824-25.555 0.9556-33.395 1.5733-3.3 3.2536-7.0229 3.734-8.273 2.82-7.33 7.86-13.22 11.32-13.22 8.0948 0 8.2693 1.3711 1.108 8.7059-11.996 12.286-17.834 30.912-14.118 45.044 0.9989 3.7998-0.1797 4.2511-2.9906 1.145zm-56.755-12.653c-2.6388-4.2697-0.9861-15.646 2.1844-15.036 2.2765 0.43842 2.5818 3.1208 1.1326 9.9498-1.1488 5.4133-2.1582 6.961-3.317 5.086zm529.05 533.89c-0.85-4.58-7.94-23.13-8.83-23.13-1.8184 0-1.4138 9.1704 0.6655 15.082 3.246 9.2297 9.5582 15.444 8.1762 8.0491zm-561.94 0.46844c3.8435-3.6246-33.881-79.29-40.107-80.443-2.9607-0.54826-1.3698 4.3602 7.4035 22.843 4.3077 9.075 11.46 25.467 15.894 36.427 9.791 24.2 11.421 26.253 16.809 21.173zm523.25-25.57c0-6.8469-73.029-17.509-96.774-14.129-10.029 1.4277-9.5653 5.588 0.582 5.2218 6.3872-0.23049 39.704 2.3728 50.192 3.9218 3.575 0.52802 12.8 2.0409 20.5 3.362 14.875 2.5522 25.5 3.2285 25.5 1.6232zm-398.86-244.99c27.141-8.386 41.237-35.818 26.578-51.721-3.1554-3.4233-4.1228-5.2755-4.1228-7.8939 0-4.812 2.0037-6.5937 3.371-2.9975 2.4639 6.4805 19.223-1.4373 23.583-11.142 5.03-11.18-7.66-40.29-17.55-40.29-2.3641 0-4.3396-5.0033-2.9791-7.5453 1.6656-3.1123 2.7242-3.1008 4.1577 0.0453 1.509 3.312 3.0111 3.1531 6.8932-0.72905 13.712-13.712 8.8542-27.22-15.844-44.051-12.67-8.63-14.81-9.22-33.71-9.22-16.678 0-24.339-1.9661-15.332-3.9349 2.85-0.63 23.46-3.57 24.98-3.57 4.7314 0-3.1504-17.25-9.973-21.827-26.033-17.463-83.354 0.38239-88.807 27.647-0.7471 3.7352-0.7431 3.7358 7.4532 1.1665 7.0444-2.2082 14.554-2.6677 13.95-0.85358-0.2078 0.62344-3.9974 2.3109-8.4214 3.75-22.037 7.1682-42.473 36.833-45.203 65.616-1.0161 10.712-3.737 9.9799-3.4696-0.93391 0.3231-13.19 5.3937-29.438 15.888-50.911 2.2914-4.6887 1.2281-5.8867-6.7412-7.5958-14.298-3.0664-24.462 0.24853-33.946 11.071-37.005 42.227-4.5015 145.29 39.409 124.95l4.8037-2.2243-2.7543-4.6795c-9.63-16.35-18.77-47.68-13.92-47.68 0.5155 0 2.1442 4.8112 3.6194 10.691 11.415 45.502 54.579 75.301 86.117 59.452 7.4736-3.7556 9.8262-4.0187 9.8262-1.099 0 2.5764 7.4161 6.5394 13.392 7.1561 5.866 0.60543 7.1754 1.6459 3.3585 2.6688-4.8603 1.3025-12.324 0.57668-17.25-1.6775-7.2939-3.338-10.851-2.1904-6.25 2.0165 8.4623 7.7377 25.408 10.495 38.895 6.3276zm464.86-89.53c24.1-2.0529 64.928-17.505 78.748-29.803 6.4175-5.7108 7.3351-6.7672 6.7296-7.747-1.2383-2.0036-4.1552-0.73318-9.4775 4.1276-19.724 18.014-58.958 30.389-100.31 31.642-9.7975 0.29683-17.447 0.90634-16.999 1.3545 1.5311 1.5311 25.447 1.7778 41.312 0.4263zm8.5-19.595c20.691-2.8357 46.12-13.116 56.501-22.842l6.4637-6.0559-2.173-2.173-2.173-2.173-5.9538 5.5122c-15.939 14.756-56.237 25.819-89.39 24.539-12.713-0.49069-16.994 0.49019-14.183 3.2495 2.0954 2.0566 35.76 2.0189 50.908-0.057zm-658.5-7.9c0-1.1478-1.0676-1.4297-15-3.9615-10.173-1.8486-40.571-11.846-55.5-18.253-3.85-1.6522-11.121-4.7042-16.158-6.7821-20.837-8.5957-49.059-28.973-55.388-39.994-1.8487-3.2189-2.0003 0.0751-0.1904 4.1379 4.5786 10.278 20.927 22.308 49.936 36.744 24.095 11.992 33.43 15.184 80.301 27.466 6.5404 1.7138 12 2.0058 12 0.64192zm781.05-13.094c16.144-7.7887 22.106-16.991 13.48-20.807-11.8-5.25-24.5-18.06-24.5-24.79 0-3.3611 1.0521-2.861 5 2.3767 8.9674 11.897 32.328 22.454 46 20.789 24.497-2.9842 44.288-14.036 52.865-29.52l2.3651-4.2698-3.3651 0.87712c-22.898 5.9684-48.473-21.684-35.033-37.879 1.7681-2.1304 0.5677-2.6304-8.9102-3.7114-12.311-1.4041-19.757-6.6615-21.586-15.241-0.6828-3.2033-0.758-3.2181-6.3362-1.25-14 4.9396-27.268-1.6924-32.49-16.24l-2.0101-5.6002-6.3343-1.2842c-9.61-1.96-20.16-9.27-20.16-13.97 0-2.2906 1.901-1.6639 6.2538 2.0619 8.6453 7.4001 17.816 5.473 18.986-3.9893 1.143-9.2502 3.0671-14.931 5.1961-15.341 1.5259-0.29386 1.7242 0.0562 1.13 1.9945-6.347 20.706-0.8157 38.137 14.372 45.29 18.951 8.9256 30.305-10.968 24.672-43.227-4.9783-28.509-19.878-36.405-52.109-27.612-35.831 9.7748-42.341 15.671-42.404 38.4-0.091 32.884 13.507 56.67 37.159 65 4.2944 1.5123 5.2449 2.2687 5.2449 4.1737 0 5.3271-13.785 1.4432-23.405-6.5943-16.368-13.675-35.132 18.711-27.186 46.921 8.916 31.654 48.649 55.243 73.145 43.425zm-777.45-3.498c0.8832-3.5188 0.5191-3.7085-13.108-6.83-54.34-12.46-104.44-41.58-104.44-60.74 0-5.7766-6.5426-7.6314-11.195-3.1738-8.6498 8.2871-2.0573 16.479 28.58 35.516 26.13 16.236 76.604 35.499 98.846 37.724 0.402 0.0402 1.0215-1.0848 1.3767-2.5001zm-8.3469-21.994 3.2196-4.5677 0.087-20.932c0.14-20.88 0.14-20.94-2.04-20.94-3.7896 0-40.642 4.8418-48.67 6.3944-15.716 3.0395-30.805 8.457-30.805 11.06 0 6.365 58.171 33.136 72.771 33.49 1.5921 0.0386 3.2328-1.3099 5.4902-4.5126zm885.3-38.16c36.881-11.471 54.197-63.609 23.261-70.041-5.5131-1.1462-5.4054-1.2076-11.261 6.4118-7.8305 10.189-25.011 22.181-39.113 27.301-7.7963 2.8306-10.387 6.7893-10.387 15.872 0 18.332 16.097 27.113 37.5 20.456zm-361.88-6.9001c3.1204-1.4808 7.3814-6.073 7.3814-7.9554 0-0.42347-1.0253 0.19331-2.2785 1.3706s-4.7407 3.4976-7.75 5.1562c-6.0357 3.3266-3.8446 4.5091 2.6471 1.4286zm74.027-5.1826c4.8478-1.9812 14.918-10.522 16.92-14.349 0.7636-1.4604 2.0895-3.3564 2.9465-4.2134 6.0704-6.0704 16.888-37.488 17.949-52.131 2.0123-27.764 1.7759-33.009-1.8481-41-11.07-24.4-19.48-31.39-50.62-42.04-10.48-3.59-37.74-9.15-48.5-9.9-39.82-2.77-50.35-4.98-90.08-18.92-51.68-18.12-93.82-18.85-125.84-2.16-12.41 6.47-40.58 29.63-40.58 33.36 0 0.49936-2.0598 3.5496-4.5772 6.7782-2.5175 3.2287-5.2645 7.4453-6.1044 9.3703-21.904 50.201-19.186 97.768 6.2367 109.15 9.6922 4.3412 51.345 1.5283 67.945-4.5884 5.5-2.0267 12.125-4.3974 14.721-5.2683 14.05-4.7121 18.991-8.2372 23.279-16.607 2.725-5.3197 5.0098-8.4069 7.1679-9.6854 5.7898-3.43 24.019-10.003 27.76-10.01 4.739-0.009 17.029-10.718 31.136-27.13 32.206-37.471 39.42-40.81 48.481-22.439 5.487 11.125 30.262 41.016 26.488 31.959-9.4639-22.716-9.3683-42.842 0.2266-47.745 13.832-7.0678 63.1-1.6665 80.741 8.8516 16.919 10.088 26.041 34.685 20.956 56.507-0.833 3.575-1.9556 8.525-2.4945 11-10.017 46.002-33.689 59.598-67.93 39.018-9.2518-5.5605-9.0814-5.5813-11.391 1.3911l-1.6266 4.9095 4.1621 3.8424c2.2891 2.1133 7.3651 5.3628 11.28 7.221 6.176 2.9315 9.4033 3.8962 20.045 5.9918 5.616 1.1059 19.253 0.41063 23.145-1.18zm-296.65-47.25c-28.346-5.1985-31.611-41.044-7.4911-82.242 20.924-35.739 71.123-51.271 118.41-36.638 32.747 10.133 38.346 21.485 22.98 46.595-13.53 22.11-43.656 48.869-63.436 56.345-1.6313 0.61664-6.4512 2.6916-10.711 4.6111-23.338 10.517-43.421 14.324-59.755 11.328zm57.5-27.688c10.725-5.3547 23.5-16.309 23.5-20.151 0-1.6403 0.018-1.648-13.126 5.6439-22.237 12.337-31.238 24.924-10.374 14.507zm59.566-69.292c5.0193-2.6862-1.1088-9.9292-10.566-12.488-16.312-4.4135-41.164-2.2604-43.066 3.7312-1.1355 3.5776 1.1138 4.2538 16.359 4.9175 13.915 0.60582 23.856 2.0528 27.207 3.9599 2.0883 1.1884 7.7464 1.1205 10.066-0.12074zm97.665 140.37c18.04-5.5992 24.681-16.1 26.899-42.531 1.1116-13.244-10.404-30.105-21.803-31.925-10.193-1.6266-45.377 4.043-48.931 7.8849-4.3029 4.6514-7.8783 24.963-5.8713 33.355 1.2625 5.2791 2.4319 7.0761 17.222 26.464 8.5992 11.272 14.183 12.433 32.485 6.7522zm-118.74-19.15c0-11.806 40.375-22.7 61.623-16.627 1.9792 0.5657 2.2043 0.0491 3.3286-7.6402 0.6632-4.5358 2.0512-10.963 3.0844-14.283 1.4089-4.527 1.5981-6.3735 0.7569-7.3871-0.8737-1.0527-0.6432-1.4765 1.0428-1.9174 2.8176-0.73679 2.7718-2.0988-0.086-2.5452-3.7792-0.59038 4.6456-4.2876 12.75-5.5954 11.042-1.7818 31.721-3.3052 35.884-2.6436 4.5314 0.72016 4.9162-2.0244 0.6076-4.3335-5.6542-3.0303-34.739 0.39014-52.316 6.1525-3.5228 1.1549-4.7218 1.2512-4.4431 0.35704 0.961-3.0829 29.391-10.615 40.351-10.69 6.3832-0.0438 6.7082-0.40447 4.4002-4.8839-1.0346-2.008-2.7402-5.676-3.7902-8.151-8.8459-20.85-19.726-23.446-34.365-8.2007-11.91 12.404-19.729 22.061-22.822 28.189-1.6909 3.3495-3.9031 6.7997-4.9162 7.6671-1.0651 0.91199-1.6342 2.3717-1.3493 3.4611 0.4229 1.6172-0.083 1.8839-3.5748 1.8839-16.687 0-39.648 9.7569-43.031 18.285-5.8555 14.763-5.9399 21.189-0.3458 26.349 5.0678 4.6742 7.2106 5.4329 7.2106 2.5532zm456.65-3.3604c21.512-7.9112 49.486-36.54 49.62-50.783 0.2548-27.052-27.929-35.631-53.766-16.367-42.784 31.901-39.614 83.242 4.1458 67.149zm-278.92-8.8784c4.6997-2.0166 8.2671-6.8454 8.273-11.198 0.01-3.4235-0.1672-3.4165-5.4578 0.2235-2.377 1.6354-6.8459 3.9179-9.9308 5.0721-5.9348 2.2205-8.6077 4.2242-8.6077 6.4525 0 2.8682 8.4458 2.5729 15.723-0.54984zm-92.053-40.541c3.013-0.87589 5.2554-1.8152 4.9833-2.0874-0.6641-0.66408-10.764 1.4838-12.654 2.6911-2.4114 1.5404 1.2995 1.2483 7.6702-0.60371zm345.47-4.16c5.8244-7.7644 11.789-13.186 21.927-19.93 11.119-7.3966 11-7.2145 11-16.83 0-35.743-37.811-43.181-59.681-11.74-2.0086 2.8876-3.4646 5.3868-3.2356 5.5537 0.229 0.16687 2.8914 1.7774 5.9164 3.5791 9.6602 5.7534 17.916 24.515 17.983 40.867 0.023 5.5958 0.9363 5.3709 6.0904-1.5zm-235.1-28.15c0-5.03-12.6-12.1-21.57-12.1-5.1 0-7.43 0.77-7.43 2.46 0 1.2547 1.459 1.9849 15 7.5078 4.125 1.6824 8.175 3.4972 9 4.0327 2.988 1.9397 5 1.1758 5-1.8984zm-337-12.259c0-2.1202 8.0542-18.144 11.434-22.749l3.4924-4.7576-6.7117-4.916c-3.69-2.71-10.76-8.29-15.71-12.4-4.95-4.12-14.4-11.84-21-17.17-6.6-5.3269-16.05-13.13-21-17.341-10.384-8.8335-44.444-36.725-61.402-50.283-6.3792-5.1001-14.947-12.075-19.04-15.5-4.09-3.43-11.8-9.61-17.12-13.73s-11.64-9.1-14.06-11.06c-37.57-30.553-72.99-33.837-104.38-9.68-24.11 18.55-33.06 55.74-13.41 55.74 5.6822 0 8.556-1.7585 12.109-7.4097 17.295-27.507 46.178-42.521 64.983-33.779 12.897 5.9953 39.275 25.902 63.822 48.164 5.7761 5.2386 13.876 12.511 18 16.16 4.124 3.6495 11.098 10.123 15.498 14.385 4.4 4.2625 12.05 11.158 17 15.323 4.95 4.1653 13.05 11.211 18 15.657 4.95 4.4462 10.64 9.4148 12.644 11.041 2.004 1.6266 9.429 7.6459 16.5 13.376 7.071 5.7304 16.681 13.834 21.356 18.007 15.863 14.161 17.08 15.143 18.04 14.549 0.5277-0.32615 0.9595-1.0626 0.9595-1.6366zm-146.5-147.39c-15.37-11.47-16.5-12.43-16.5-13.99 0-2.6698 3.7581-1.5072 11.166 3.4543 13.85 9.2761 22.068 18.249 16.525 18.044-0.6551-0.0242-5.691-3.4024-11.191-7.5073zm-30-21.178c-1.1-0.26637-7.175-2.8699-13.5-5.7857-15.843-7.3035-22.774-9.4827-30.218-9.5008-14.252-0.0348-11.2-7.2738 3.6513-8.6607 9.5148-0.8885 27.612 6.3203 39.544 15.752 6.4929 5.1323 6.7853 9.7119 0.5234 8.1955zm197.74 131.39c1.5078-2.3867 5.8519-7.2996 9.6536-10.918l6.9121-6.5782 0.6074-8.8306c1.4852-21.593 5.5366-26.057 5.572-6.1397 0.016 9.2145 0.2975 9.4752 6.2346 5.7799 10.194-6.3448 29.193-12.378 49.029-15.569l10.75-1.7293 0.1642-5.5864c1.1878-40.424-12.543-64.419-33.261-58.126-15.722 4.7754-17.128 5.775-21.757 15.471-5.1038 10.69-6.9703 16.347-7.9147 23.986-1.2068 9.7612-3.7115 8.875-2.915-1.0313 1.2631-15.709 6.9582-34.719 10.881-36.323 1.2661-0.5175 5.9521-2.5406 10.413-4.4957 12.511-5.483 22.914-7.3623 25.791-4.6593 1.2244 1.1503 2.7176 2.0914 3.3181 2.0914 2.1353 0 0.01-3.9685-3.5777-6.6766-6.0142-4.5414-11.542-11.755-12.699-16.573-0.3633-1.5125-1.0618-2.75-1.5522-2.75-1.116 0-1.1067 3.3686 0.023 8.2314 0.7955 3.4254 0.6501 3.8443-1.7739 5.1078-1.4522 0.75704-5.3133 3.015-8.5802 5.0178-19.108 11.714-30.425 10.422-36.7-4.1899-7.5527-17.588 21.161-45.861 60.086-59.164 20.786-7.1037 34.413-2.0011 43.577 16.317 1.9721 3.9421 4.4412 8.0781 5.4869 9.1911 2.727 2.9028 9.5314 18.022 11.021 24.489 0.6968 3.025 3.3908 9.775 5.9867 15 2.596 5.225 6.4525 15.023 8.5702 21.773 3.087 9.8398 4.1537 12.142 5.3808 11.615 10.976-4.7149 22.916-4.6597 24.201 0.11192 5.4097 20.088-0.943 40.419-14.664 46.93-3.4646 1.6441-4.6816 3.5697-2.2567 3.5708 0.6875 0.00031 10.166 2.9253 21.063 6.5 24.1 7.9058 22.158 7.8853 23.639 0.24944 0.6663-3.4375 2.2937-8.95 3.6164-12.25s2.0631-6.116 1.6452-6.2578c-5.33-1.8-10.92-7.44-15.13-15.24l-4.5872-8.5v-13c0-31.966 19.866-46.176 33.384-23.879 3.8148 6.2924 8.7203 0.97271 24.088-26.121 14.13-24.912 14.246-25.554 6.3919-35.412-11.721-14.711-19.817-15.712-61.363-7.5845-24.756 4.8429-28.461 5.4263-34.685 5.4614-6.7749 0.03822-11.804-1.3656-10.787-3.0111 0.3568-0.57735 1.3964-0.97637 2.3102-0.88672 20.346 1.9962 19.427-5.6318-1.0253-8.5111-4.5481-0.6403-4.7947-0.85636-8.3415-7.309-10.18-18.535-23.26-28.763-38.23-29.905-17.61-1.342-46.37 7.176-65.01 19.25-7.43 4.815-8.23 5.097-8.23 2.905 0-0.825 0.45-1.5 1-1.5s1-0.61703 1-1.3712c0-4.0043-23.651-2.7263-34.658 1.8728-4.7275 1.9753-5.5494 1.0546-1.8028-2.0197 6.6533-5.4594 12.55-6.8214 30.961-7.1516l17-0.30487 11.309-5.6535c6.2201-3.1094 10.945-5.9676 10.5-6.3516-1.5-1.295-40.75-17.724-47.31-19.801-20.74-6.5711-25.77-7.5298-35.86-6.8329-30.69 2.1219-62.57 13.443-90.67 32.199-6.8168 4.5511-9.0793 5.5091-15 6.3519-15.171 2.1595-23.42 5.83-28.236 12.563-13.418 18.761-15.753 22.818-24.83 43.151-2.9745 6.6636-0.9423 13.985 5.2583 18.945 2.1093 1.6872 9.2351 7.1963 15.835 12.242 6.6 5.0462 15.668 12.22 20.152 15.943 4.4833 3.7225 9.6133 7.882 11.4 9.2432 1.7867 1.3613 9.3636 7.6028 16.838 13.87 7.4739 6.2672 16.069 13.211 19.1 15.43 3.0311 2.2193 5.7361 4.3154 6.0111 4.6579 0.275 0.34253 2.3 1.9466 4.5 3.5647 5.6821 4.1791 42.6 33.535 45 35.783 1.1 1.0302 3.575 3.0495 5.5 4.4874s5.096 3.9795 7.0466 5.6481c10.092 8.6321 21.097 17.395 21.953 17.48 0.275 0.0273 1.7336-1.9031 3.2413-4.2897zm-145.46-125.41c-1.7078-3.9983-1.4396-17.915 0.4481-23.25 2.2202-6.2754 10.758-23.871 11.936-24.599 2.1552-1.332 1.8081 0.87619-1.7679 11.249-4.3963 12.752-5.6978 25.724-3.0797 30.695 1.375 2.6108 1.3415 3.0012-0.4073 4.75-1.05 1.04-1.91 2.35-1.91 2.9 0 2.2638-4.0957 0.89178-5.2241-1.75zm24.22-53.365c0-4.5749 19.561-15.337 41.307-22.727 15.804-5.3708 17.104-6.2591 21.193-14.486 4.526-9.105 5.7831-4.5068 1.3476 4.9293-4.3902 9.3398-8.3129 12.329-17.674 13.468-12.069 1.4683-26.675 7.6134-39.426 16.587-4.98 3.506-6.75 4.089-6.75 2.229zm435.69 177.86c-0.8557-1.2375-3.4586-5.4-5.7842-9.25s-5.9039-9.25-7.9518-12c-2.0478-2.75-5.1717-7.8149-6.9418-11.255-3.7051-7.2009-5.0103-8.4394-5.0103-4.7538 0 2.6303 10.408 19.454 16.582 26.806 1.7539 2.088 4.252 5.8005 5.5515 8.25 1.2994 2.4495 2.9807 4.4536 3.7363 4.4536 1.1109 0 1.0761-0.43034-0.1822-2.25zm-29.199-9.5c-2.2173-8.3788-2.1718-23.208 0.093-30.478 2.39-7.65-2.58-30.77-6.61-30.77-6.3511 0-12.079-4.9597-14.01-12.131-1.392-5.1691-1.1475-5.2965-11.976 6.239-5.2189 5.5596-10.361 10.96-11.428 12-2.4158 2.3572 1.4755 2.6665 9.1706 0.72881l4.6176-1.1627 3.1876 3.7967c5.8608 6.9809 7.8277 14.843 8.4302 33.699 0.6102 19.099 0.056 17.878 8.8237 19.442 10.406 1.8556 10.544 1.8361 9.698-1.3619zm-23.728-8c0.061-4.2625 0.1796-11.35 0.2625-15.75 0.1548-8.218-0.9474-12.283-5.2344-19.303-2.8865-4.7267-3.204-3.3672-0.8474 3.6284 1.7501 5.1951 2.0068 8.1849 1.8 20.963-0.1853 11.444 0.077 15.288 1.1311 16.557 2.3407 2.8208 2.7727 1.909 2.8882-6.0961zm-9.7871 3.1804c-0.5373-1.4133-1.4124-7.5326-1.9447-13.599-1.1332-12.913-5.1149-27.272-7.9887-28.81-3.8153-2.0419-8.4865-1.2101-11.603 2.0662-1.6154 1.6983-5.9463 4.8516-9.6243 7.0074-7.5223 4.4092-10.086 7.4613-12.699 15.116-2.9711 8.7053-3.4403 13.564-1.3649 14.134 8.5644 2.3497 33.748 6.1768 42.976 6.5312 3.0644 0.11768 3.1765-0.004 2.2482-2.4457zm-152-31.287c-0.4042-8.4194-4.0531-22.576-5.409-20.986-0.5356 0.62796 1.1509 20.566 1.833 21.67 0.673 1.089 3.634 0.52266 3.576-0.68393zm10.106-11.703c-1.0328-2.7172-3.4513-8.0904-5.3744-11.94-1.9232-3.85-4.1985-8.697-5.0563-10.771-0.8578-2.0741-3.6818-6.5289-6.2754-9.8996-2.5937-3.3707-6.8867-9.9987-9.54-14.729-2.6532-4.7302-4.8248-7.9254-4.8256-7.1004 0 2.5243 5.7828 13.896 9.3204 18.321 4.4475 5.5624 7.6765 11.044 7.6765 13.033 0 2.8518 14.54 29.44 15.548 28.432 0.2222-0.22225-0.441-2.6273-1.4737-5.3445zm106.89-29.375c1.6164-3.0203 1.2208-9.4669-0.882-14.373-3.3119-7.7263-6.3235-7.7826-3.6953-0.0691 0.8869 2.6028 1.6125 7.3522 1.6125 10.554 0 5.9258 1.1012 7.3698 2.9648 3.8876zm43.67-42.81c3.7034-5.3625 8.0612-11.467 9.6842-13.565 5.3425-6.9067-1.9963-7.4238-7.7816-0.54831-3.39 4.02-10.54 18.6-10.54 21.48 0 4.1245 1.7044 2.6707 8.6356-7.3658zm-150.11-23.72c-1.23-7.896-11.93-18.53-18.64-18.53-4.2187 0-3.5688 1.7461 3.1638 8.5 3.2896 3.3 8.1105 9.3483 10.713 13.441l4.7322 7.4407 0.33-3.4142c0.1815-1.8778 0.048-5.2261-0.2976-7.4407zm73.353-26.178c5.8932-1.9033 6.2571-2.6323 2.1611-4.3289-3.0693-1.2713-18.043 1.4363-18.045 3.2631 0 2.7495 8.8349 3.3425 15.884 1.0659zm25.37-6.0061c0.4539-0.28051-0.7425-2.2453-2.6587-4.3663-1.9161-2.1209-4.1416-5.1206-4.9454-6.666-2.0133-3.8705-5.2455-6.6358-11.291-9.6602-8.8124-4.4086-10.151-7.4815-3.9375-9.0409 7.4028-1.858 17.849 5.0647 27.302 18.093 5.2525 7.239 7.2862 6.678 2.3172-0.63915-15.14-22.3-29.78-26.696-50.31-15.111-11.374 6.4193-15.119 12.535-12.177 19.888 2.4978 6.2426 4.9748 6.7433 15.708 3.1754 13.418-4.4602 17.714-3.9319 24.238 2.9807 2.8936 3.0659 11.746 3.8198 15.756 1.3419z"/>
</svg>
