<?xml version="1.0" encoding="UTF-8" standalone="no"?>
<svg id="svg2" xmlns:rdf="http://www.w3.org/1999/02/22-rdf-syntax-ns#" xmlns="http://www.w3.org/2000/svg" height="960pt" width="1600pt" version="1.1" xmlns:cc="http://creativecommons.org/ns#" xmlns:dc="http://purl.org/dc/elements/1.1/" viewBox="0 0 1600 960">
<defs id="defs24">
<pattern id="pattern5450" width="400.00001" patternUnits="userSpaceOnUse" patternTransform="matrix(.8 0 0 .8 0 640)" height="400.00043">
<path id="path4" d="m15.478 0.0003875c19.226 19.038 38.948 37.589 58.178 56.614 4.0875 3.6048 8.1526 9.7308 14.389 9.0557 6.3962 0.44222 10.65-5.089 15.392-8.3928 7.7138-9.0831 18.442-15.857 23.88-26.71 4.1004-9.9704 0.3859-20.355 0.0539-30.567h-3.0881c0.0158 0.84701 0.0433 1.6933 0.10082 2.5384-0.18 9.5856 2.77 19.676-1.07 28.843-6.81 8.732-15.68 15.602-23.28 23.622-4.526 4.54-11.4 7.36-17.525 4.208-19.15-20.544-39.694-39.93-60.125-59.211h-6.9026zm10.677 0c19.819 18.453 38.127 38.425 57.564 57.298 3.704 1.904 9.097 1.634 11.75-1.958 8.751-9.96 21.461-16.881 27.111-29.358 1.18-8.62-0.94-17.328-1.05-25.982h-8.5709c0.0114 0.50402 0.24055 0.99944 0.81207 1.4694-0.17094 0.94018 4.288 4.0743 1.359 4.0341-4.6739-1.6988-9.2272-3.7301-13.878-5.5036h-21.166c12.976 1.6157 26.2 5.0104 36.883 12.903 1.8416 1.4891-0.22883 2.8056-1.8617 2.0923-15.112-9.1067-32.968-14.196-50.63-12.348-1.7067 0.1958-2.3322-1.182-2.3837-2.6461h-6.085c-0.362 3.6247-4.116 7.1449-5.805 10.088-0.771 2.3095-3.0838 3.5287-4.3973 1.196 2.2725-3.6797 5.4331-7.0176 6.6112-11.285h-5.3323c-0.284 2.5986-3.088 5.147-4.362 7.3145-3.373-2.3697 1.636-4.6104 1.915-7.3141h-18.476zm120.45 0c2.807 5.2647 6.8376 9.7716 9.6702 15.014-11.85 12.469-24.29 24.372-36.37 36.629-36.204 33.631-69.362 70.447-104.98 104.63-5.1592-2.91-9.6643-6.9-14.92-9.64v5.2315c1.3044 0.0463 2.5881 0.56807 3.7993 1.7982 2.9218 2.2474 6.7178 3.4744 8.8582 6.6264-4.3362-0.23-8.2193-3.73-12.658-4.25v7.8445c3.6741 4.0242 8.2248 10.212 10.089 16.207-0.7692 3.2461-4.2241 9.5311-8.111 6.4565-2.5715-5.59 0.2414-12.19-1.931-18.01-0.018131 0.05-0.029571 0.1-0.047 0.15v31.334 31.034c0.052953 0.14895 0.09709 0.29921 0.15606 0.44746 1.5859-5.7628-0.2804-12.082 1.6283-17.66 3.7162-3.87 8.0863 3.0065 8.285 6.5463-2.1381 6.0612-6.4381 11.139-9.952 16.422-0.034321-0.07-0.080834-0.14-0.117-0.2v7.3749c0.28961 0.0336 0.581 0.0557 0.8756 0.0621 4.1246-1.1 7.7316-3.86 12.007-4.39-3.1919 3.22-8.0903 8.65-12.883 8.39v5.3447c0.042426 0.0221 0.083152 0.0471 0.12568 0.069 5.2845-2.7922 9.7989-6.8297 15.056-9.6564 34.928 33.718 67.654 69.653 102.98 102.97 12.819 12.558 25.775 25.102 38.05 38.151-2.9152 5.1921-6.9334 9.7095-9.6564 15.009 0.0144 0.0271 0.0311 0.053 0.0456 0.0801h5.2273c0.076-4.1051 3.8096-7.2399 5.9938-10.438 0.63217-0.63986 1.9076-1.9165 2.5398-2.5564-0.49457 4.3254-3.2547 7.9794-4.4291 12.123 0.0211 0.29301 0.0554 0.5837 0.0994 0.87146h7.2119c-0.0125-0.007-0.0239-0.0169-0.0359-0.0249 5.2556-3.8095 10.487-8.248 16.832-10.14 3.2453 0.77782 9.5518 4.2632 6.4883 8.1345-5.5336 2.4902-12.143-0.18919-17.849 2.0302h31.318 0.001 31.012c-5.2092-1.7739-10.79-0.2984-16.094-1.196-2.5384-0.53079-3.1319-3.684-1.254-5.3157 1.8989-2.1931 3.8684-3.0941 5.8612-3.1571 5.8662-0.18544 11.93 6.8832 16.977 9.6688h7.4357c-0.76036-4.296-3.365-8.0322-4.3697-12.254 2.8378 0.48529 4.4286 5.141 6.3529 7.7243 1.4554 1.4572 2.0636 2.9871 2.0992 4.5299h5.3848c-2.381-5.3619-8.0846-10.131-9.3554-15.398 11.808-12.284 24.072-24.127 36.053-36.246 36.2-33.631 69.358-70.442 104.97-104.63 5.1617 2.9116 9.6668 6.9036 14.922 9.6454v-5.3447c-1.4155-0.0781-2.8218-0.64787-4.1722-1.9266-2.8218-2.1398-6.4449-3.3404-8.4853-6.3847 4.332 0.22454 8.2184 3.7347 12.657 4.2509v-7.3735c-3.6196-6.4814-14.39-14.557-7.2699-22.104 0.71693-1.1064 2.092-1.9287 3.3532-1.9528 0.98092-0.0188 1.8931 0.4455 2.3741 1.6338 1.5912 5.4776-0.39953 11.398 1.5426 16.861v-31.035-31.332c-2.084 5.7405 0.49161 12.382-2.0219 17.848-3.8943 3.0482-7.3616-3.1544-8.1165-6.4841 1.8269-6.1808 6.3705-11.193 9.8498-16.48 0.0936 0.101 0.19377 0.22063 0.28865 0.32455v-7.8445c-0.28957-0.0336-0.58101-0.0557-0.8756-0.0621-4.1284 1.0976-7.7353 3.8735-12.022 4.3835 0.47501-0.52115 1.4209-1.559 1.8921-2.084 2.8345-2.2287 6.9831-6.5157 10.952-6.4151 0.018 0.00046 0.0359 0.004 0.0539 0.004v-5.2315c-0.0424-0.0221-0.0831-0.0471-0.12567-0.069-5.2883 2.7883-9.7989 6.8297-15.056 9.6564-34.92-33.74-67.65-69.671-102.97-102.99-12.83-12.554-25.78-25.102-38.05-38.15 2.9152-5.1921 6.9334-9.7095 9.6564-15.009-0.02-0.02775-0.03-0.054-0.04-0.081h-5.3834c0.11037 4.785-5.3252 9.689-8.3844 12.894 0.54071-4.2869 3.2623-7.9093 4.4291-12.022-0.04-0.29381-0.08-0.58408-0.13-0.872h-7.437c0.0971 0.053625 0.19641 0.11675 0.2928 0.16711-5.4366 3.5212-10.468 8.1979-16.837 9.9976-3.2529-0.77784-9.5518-4.2632-6.4883-8.1345 5.5884-2.4499 12.184 0.061 18.004-1.8741-0.15-0.058588-0.3-0.10409-0.46-0.1564h-31.01-31.32c-0.0485 0.018875-0.0981 0.0315-0.14639 0.051125 5.7435 2.3565 12.508-0.8701 17.987 1.9197 3.08 3.956-3.39 7.7323-6.85 8.0212-6.06-2.1564-11.15-6.4585-16.43-9.992h-7.2119c0.68066 4.4405 3.9208 8.2918 4.2716 12.673-4.04-2.9255-5.72-7.916-8.44-11.898-0.03-0.26271-0.04-0.52019-0.03-0.77498h-5.2287zm126.15 0c0.0295 3.807-0.54385 7.6133-1.7153 11.257-0.16737 6.7981-0.58767 13.904 1.9929 20.369 3.6764 7.4082 10.504 12.457 16.193 18.215 5.2095 6.152 11.607 11.238 18.325 15.62 7.841 3.1667 14.467-2.7591 19.005-8.3665 19.338-19.007 39.102-37.602 58.351-56.72-0.12671-0.12509-0.25442-0.24922-0.38117-0.37428h-6.9026c0.12989 0.12262 0.25959 0.24618 0.38947 0.36875-19.059 18.382-38.721 36.237-56.818 55.588-4.0317 7.4702-14.872 5.657-19.98 0.38809-8.079-9.1825-19.116-16.007-25.432-26.615-2.1744-9.792 0.007-19.799-0.01-29.73h-3.0176zm5.6914 0c0.036 3.2506-0.17808 6.497-0.90321 9.7379 0.63799 6.4004-2.1665 13.167 1.0966 19.219 6.4702 10.953 17.945 17.324 26.113 26.787 3.3595 4.2867 11.249 4.3519 14.261-0.39085 18.495-18.264 36.135-37.343 55.237-54.976-0.1346-0.12505-0.26742-0.25185-0.4019-0.37704h-18.531c-0.0962 2.9081 5.907 5.4682 2.142 7.8762-2.43-2.2109-4.2-5.0617-4.23-7.8761h-5.6513c-0.89704 4.9834 9.6799 9.9995 4.831 13.391-3.5298-3.0087-5.795-7.1818-8.1096-11.129-0.2767-0.78644-0.35235-1.5363-0.30245-2.2622h-6.0132c0.10663 1.6651-0.68772 3.4353-2.3851 3.1171-17.266-1.7721-34.786 2.7693-49.521 11.705-1.4334 1.2257-5.2427 0.58834-2.9859-1.5993 10.837-7.9216 24.267-11.403 37.466-12.818-0.68114-0.13598-1.3861-0.2702-2.0771-0.40465h-20.158c0.2356 0.088375 0.47146 0.189 0.70711 0.27069-4.9374 1.5913-9.5582 4.1965-14.519 5.5574-1.8972-1.1962 2.8286-3.5573 2.4984-5.8281h-8.5599zm-40.26 4.987c-2.0411 4.5872-3.1289 9.8514-6.2728 13.865-2.0554 3.1477-8.7224-0.34689-6.6788-3.675 4.8969-2.72 7.2806-8.7954 12.952-10.19zm-75.841 0.27206c4.3449 0.16099 7.9966 7.6136 12.541 9.7904 2.0002 4.0768-6.0297 7.159-7.7312 2.6682-1.6932-4.153-3.5665-8.2936-5.2329-12.45 0.14165-0.01 0.28245-0.0135 0.4226-0.00875zm-99.912 1.167c1.3641 0.0345 2.7972 0.27832 4.0148 0.23892 17.559 0.35615 35.707 3.9682 50.257 14.349 1.8831 1.0785-0.41569 3.4016-1.9072 2.3009-7.1-3.596-13.48-8.941-21.48-10.534-10.179-1.682-20.338-4.269-30.735-3.0644-1.187-0.4668-5.234 0.8114-4.287-1.6283 0.163-0.2469 0.342-0.4586 0.537-0.6408 0.944-0.8807 2.239-1.0565 3.603-1.022zm274.04 0.79272c1.2541 0.013125 2.5039 0.040625 3.7482 0.082875 1.8664 0.40282 2.3179 3.2287-0.0705 2.9016-12.032-0.92136-24.076 0.80716-35.713 3.7676-7.1485 1.6254-12.64 6.6778-19.149 9.6633-1.0886 0.84244-3.1253-0.41276-2.4942-1.6131 15.14-11.753 34.87-14.998 53.68-14.802zm-140.39 5.3208c0.98091-0.01875 1.8931 0.4455 2.3741 1.6338 1.6346 5.6269-0.52176 11.722 1.7001 17.308 1.5859-5.7628-0.2804-12.08 1.6283-17.658 3.7162-3.87 8.0863 3.0052 8.285 6.5449-2.1381 6.0612-6.4395 11.141-9.9534 16.424-3.5096-6.5134-14.577-14.677-7.386-22.299 0.71692-1.1064 2.0907-1.9287 3.3518-1.9528zm203.58 2.5577c-1.0972 0.97319-2.1609 1.9807-3.2027 3.0107-4.5145 4.4634-8.6166 9.3507-13.231 13.721-15.691 16.999-32.65 32.829-47.93 50.155-5.0466 8.7312 3.364 17.019 8.8305 23.083 10.831 9.0611 19.381 24.828 35.383 23.91 6.9225 0.95299 13.645-1.5882 20.485-1.7608v-2.9182c-9.9108-0.17445-19.94 2.0966-29.736-0.0566-9.9739-6.403-17.093-16.329-25.642-24.426-4.573-4.5347-7.4086-11.43-4.2841-17.54 18.274-17.105 35.775-35.189 52.895-53.494 1.5514-1.7417 3.0084-3.6148 4.6874-5.2494 0.55964-0.54488 1.144-1.0626 1.765-1.5413 0.10525 0.10912 0.20962 0.21949 0.31489 0.32869v-6.8832c-0.11212-0.113-0.22342-0.2268-0.3356-0.33975zm-306.52 0.312c1.4205-0.019 3.2524 1.0816 4.1018 1.8216 4.7746 3.5485 11.265 6.4275 13.242 12.504 0.0307 3.9694-2.8637 10.072-7.7533 8.5612-3.0446-2.263-2.7651-6.3884-3.6198-9.6799-0.79258-4.9382-5.6234-8.0694-7.5586-12.28 0.09968-0.19342 0.21961-0.35104 0.35632-0.47924 0.33037-0.30981 0.75841-0.44111 1.2319-0.44746zm-93.136 0.028v6.883c18.344 19.027 36.181 38.635 55.491 56.702 7.3089 3.9296 5.8333 14.554 0.73749 19.626-8.2187 8.0648-15.619 17.071-24.449 24.486-9.6195 4.2426-20.301 0.93267-30.389 1.1974-0.46243-0.02-0.92628-0.02-1.39-0.03v2.9182c1.7389-0.044 3.4847 0.0574 5.2439 0.41707 7.9393 2.3991 16.614 1.971 24.553-0.0139 8.2434-3.1665 13.633-10.658 19.702-16.65 6.132-5.19 11.195-11.564 15.551-18.266 3.136-7.828-2.815-14.476-8.44-19.036-18.97-19.298-37.536-39.014-56.61-58.23zm57.215 0.02487c3.7912 0.04413 7.7153 2.555 8.6538 6.1223-2.4409 8.2717-14.63 1.4314-13.447-4.5202 1.375-1.1322 3.0704-1.6221 4.7937-1.602zm23.47 0.06488c0.28097 0.0038 0.56288 0.06925 0.84245 0.22236 9.8806 5.804 16.275 17.186 15.326 28.643-1.1817 4.3509-4.9372 9.7986-10.076 8.3223-3.7428-1.988-8.6793-6.6578-5.8972-11.178 1.0238-4.6161 8.1217-6.0695 6.3571-11.459-1.5992-5.2008-3.9095-10.867-8.959-13.633 0.73055-0.38439 1.5643-0.92871 2.4072-0.91841zm225.99 0.19335c4.3005 0.56104-0.62094 4.3837-1.6697 5.9786-5.1971 4.3048-3.017 12.009-7.2575 16.726-6.4064 2.2526-11.194-8.7193-5.5588-12.586 0.46095-0.59364 0.95271-1.1519 1.4722-1.6794 3.6366-3.6924 8.5782-5.8954 13.014-8.4397zm36.644 0.2997c1.5503 0.0675 3.06 0.56915 4.331 1.602 1.6788 2.6673-2.2786 4.6101-3.7758 6.5228-2.5291 4.3368-10.004 1.3977-9.4562-2.9582 0.43523-0.86649 1.0251-1.6525 1.725-2.3354 1.8955-1.8496 4.5922-2.9437 7.176-2.8312zm-24.141 0.29002c0.81359-0.0355 1.664 0.16728 2.5564 0.68362-5.6288 3.3827-8.8438 10.351-8.9314 16.739 2.6903 3.6328 7.4938 6.7977 7.35 11.88-1.8764 4.3688-6.4761 10.199-11.88 6.7948-8.5042-6.6804-4.6917-18.908 0.0691-26.546 1.8478-1.317 3.7678-4.3599 5.94-6.6609 1.4934-1.582 3.106-2.8124 4.8959-2.8906zm-248.6 0.25825c5.3198 1.6187 13.273 12.929 6.596 18.459-3.2565 5.3565-11.829 1.1442-11.214-4.3863 1.7114-2.3345 4.2378-4.1541 5.1997-7.0006 1.6345-2.4038-1.9318-4.6221-0.58143-7.0724zm258.76 0.07188c1.0322 1.7448-0.0929 3.4308-0.68087 5.0727-0.48708 4.2332 3.7349 6.3186 5.6182 9.5045 0.24099 5.5513-8.0044 9.6116-11.328 4.2578-4.1284-2.91-2.5114-8.7342-0.31488-12.338 0.9285-1.2516 1.9586-2.4376 3.0798-3.53s2.3333-2.0899 3.6253-2.9665zm-168.49 0.197c0.6349 0.78049 2.4414 1.6442 1.2457 2.7014-11.28 13.438-25.27 24.267-37.19 37.1-35.392 31.737-67.01 67.281-100.33 101.1-2.151 1.3433-5.4639 7.2026-7.7713 3.0715 13.822-13.9 27.966-27.5 41.482-41.69 33.272-34.998 68.689-67.863 102.56-102.28zm78.407 0.12425c48.168 47.701 96.276 95.432 143.76 143.82-2.3032 4.0416-5.6161-1.8073-7.7492-3.1281-34.62-35.07-67.53-71.884-104.18-104.91-10.16-11.959-25.41-21.404-33.3-34.318 0.45581-0.51736 0.94686-1.0078 1.4681-1.4598zm-74.221 6.4606c2.2422 6.1809-6.4013 11.223-11.379 14.062-3.9182 4.6259-6.7547 10.893-13.116 12.662-4.2003 3.6234-5.2122 10.597-11.435 12.396-5.9784 1.263-5.209 9.6794-11.087 11.104-3.2604 1.3603-5.8969 3.905-7.2188 7.1885-1.6375 4.8682-7.4522 5.1216-10.894 8.0171-0.02287 6.0767-5.1842 11.315-11.345 11.307-2.5213 4.3829-3.945 10.537-9.7586 11.627-5.4159 4.3159-7.2171 12.148-14.699 14.237-2.3086 5.2393-5.8097 10.641-11.723 12.054-3.8282 3.5051-4.5267 9.5958-9.6965 12.127-8.3521 2.5675-8.9347 15.625-18.816 15.645l-0.46128-0.89079c20.495-20.233 40.066-41.351 60.204-61.919 26.247-27.417 54.647-52.687 81.417-79.607zm70.099 0.11462c24.438 24.392 49.406 48.226 74.453 71.978 21.746 23.608 45.31 46.612 66.621 69.854-9.0956 1.1956-10.939-11.36-17.813-14.794-5.9312-2.1381-7.0684-8.324-10.627-12.496-4.9203-1.472-9.1116-5.1733-10.937-10.025-1.5762-5.2084-9.1793-4.5581-10.583-9.9313-1.4384-3.3847-3.9657-6.2654-7.4232-7.6387-4.8784-1.6524-5.1463-7.4764-8.0627-10.921-5.7466 0.000488-10.693-4.7312-10.573-10.627-4.4003-2.5305-10.557-3.9808-11.67-9.7987-4.3367-5.4325-12.175-7.2643-14.293-14.754-5.2482-2.3287-10.664-5.8512-12.1-11.769-3.5199-3.8417-9.6132-4.5639-12.164-9.7434-2.6-8.366-15.66-8.996-15.72-18.877l0.8894-0.45989zm-51.791 1.156c0.95214-0.05238 1.9516 0.4863 2.323 1.4515 2.6151 4.4772 8.328 6.6569 9.4976 12.018-4.7066-2.1549-10.222-3.1779-14.217-6.6443-2.038-1.8004-0.41209-4.3809 0.87836-6.056 0.39205-0.49301 0.94651-0.73781 1.5178-0.76926zm33.066 0.0925c2.1237-0.11225 4.0238 3.356 3.6377 5.3171-3.0957 5.1188-10.232 5.3011-15.067 8.0903 1.2829-5.606 7.3864-7.8936 9.9492-12.695 0.48854-0.46979 0.99042-0.68672 1.4805-0.71262zm183.3 0.96812c-18.48 19.903-38.525 38.248-57.451 57.744-1.8893 3.697-1.5981 9.0912 2.0039 11.758 8.5674 7.5942 14.609 17.551 24.1 24.16 4.4306 4.3233 10.89 3.8561 16.516 3.0301 5.0633 0.12666 10.098-0.82285 15.124-0.9557v-8.129c-1.9088 0.0361-3.832 1.1077-5.5201 2.95 0.1629-5.1244 3.6476-9.9918 5.2273-14.964 0.0826 0.19568 0.19613 0.43724 0.29279 0.65325v-22.061c-0.0188-0.16338-0.0412-0.32698-0.0594-0.49028-2.1937 13.086-5.0033 26.66-13.163 37.466-1.7159 2.0389-2.8737-0.70522-1.9708-2.2774 9.4909-15.245 13.724-33.485 12.162-51.354 0.0679-0.12038 0.15212-0.23339 0.2486-0.33699 0.5427-0.58271 1.5016-0.89786 2.4624-0.92392 0.1075-0.0025 0.21341 0.0075 0.32041 0.0125v-6.1458c-1.935 0.12112-3.8605-0.51046-5.6679-2.3312-1.8353-2.1724-7.2829-3.3531-7.473-6.3861 3.6204-3.4338 8.2424 5.8414 13.141 5.2564v-5.1735c-0.0967 0.04075-0.19132 0.08625-0.28865 0.12568-2.8005-1.0687-5.2737-2.8817-7.6304-4.6942 0.17825-0.32032 0.35832-0.57434 0.53861-0.77064 1.7427-1.8977 3.5782 1.5706 5.4649 2.1517 0.66244 0.5467 1.2993 0.67392 1.9156 0.56071v-18.562c-0.0971-0.105-0.19576-0.20845-0.29279-0.3135zm-399.72 0.314v18.562c1.9657-0.36111 3.7204-3.2394 5.4165-3.3394 0.6238-0.03675 1.239 0.30325 1.8548 1.2844-2.1522 1.937-4.6035 3.557-7.2713 4.681v5.1735c0.55565-0.06638 1.1149-0.25305 1.6766-0.60629 3.1125-0.26994 6.4504-5.5389 9.0929-5.5864 0.73992-0.01325 1.4249 0.38161 2.0357 1.4114-3.2762 3.117-8.0705 7.946-12.806 8.242v6.1458c1.4868 0.06087 2.8704 0.81894 2.5964 2.3837-1.7058 17.26 2.9033 34.797 11.895 49.567 1.2312 1.4381 0.60806 5.2442-1.5882 2.979-7.8667-10.74-11.406-23.99-12.903-37.04v22.07c1.6135 3.6059 5.0081 9.8749 5.1831 14.308-1.5724-2.08-3.3712-2.98-5.1831-2.95v8.129c2.8927-0.0765 5.7828 0.11462 8.6731 0.94465 6.6476-0.58609 13.693 2.2834 19.983-0.95984 10.928-6.42 17.252-17.88 26.688-26.005 4.273-3.343 4.308-11.232-0.447-14.262-18.234-18.463-37.272-36.086-54.897-55.135zm176.13 8.082 0.46265 0.89216c-41.69 42.339-82.178 85.868-126.05 126.01-5.3608 5.007-10.256 10.479-15.574 15.529-2.1293-1.386 0.37374-4.8523 1.5067-6.5546 3.2645-5.1876 10.777-5.8901 13.026-11.855 2.131-5.7387 8.2251-6.6406 12.218-10.165 1.4493-4.9108 5.1375-9.0916 9.9824-10.898 5.2024-1.5562 4.5196-9.1588 9.8912-10.546 3.3792-1.4254 6.2459-3.9381 7.6097-7.3942 1.6375-4.8683 7.4459-5.1216 10.895-8.0171 0.0229-6.0767 5.1828-11.315 11.344-11.307 2.5213-4.3829 3.9425-10.534 9.76-11.629 5.4159-4.3159 7.2157-12.147 14.697-14.236 2.3086-5.2393 5.811-10.641 11.724-12.054 3.8282-3.5051 4.5228-9.592 9.6965-12.127 8.3521-2.5675 8.9333-15.627 18.814-15.646zm49.683 0.55795c5.1438 0.23818 9.3447 7.4186 11.845 11.783 4.641 3.936 10.919 6.7962 12.713 13.164 3.6396 4.2143 10.617 5.2522 12.441 11.482 1.286 5.9833 9.6996 5.2476 11.147 11.131 1.3729 3.2656 3.9223 5.9081 7.2147 7.2465 4.8784 1.6524 5.1476 7.4764 8.064 10.921 5.7466-0.00049 10.687 4.726 10.572 10.626 4.3964 2.5267 10.553 3.9783 11.67 9.8 4.3367 5.4325 12.175 7.2629 14.293 14.753 5.2482 2.3287 10.664 5.8525 12.1 11.771 3.5199 3.8417 9.6094 4.5586 12.164 9.742 2.5996 8.362 15.661 8.9939 15.718 18.875l-0.88941 0.45851c-23.9-23.74-48.08-47.18-72.68-70.19-22.62-23.993-45.53-47.691-68.62-71.221 0.77-0.278 1.52-0.385 2.26-0.351zm-6.8915 2.874c0.24206-0.01 0.49414 0.102 0.75959 0.40189 13.48 11.32 24.364 25.353 37.243 37.328 31.603 35.266 67.033 66.75 100.72 99.944 1.3477 2.1523 7.2242 5.4922 3.1019 7.7837-48.16-47.69-96.27-95.425-143.75-143.81 0.58-0.478 1.21-1.608 1.94-1.638zm-37.623 0.15468c0.66929 0.01125 1.3097 0.41872 1.8865 1.4515-47.76 48.258-95.606 96.392-144.04 143.97-1.795-1.03-1.963-2.6-0.353-3.92 11.331-12.72 24.627-23.49 36.296-35.88 35.387-31.74 67.007-67.283 100.33-101.1 1.6075-1.0075 3.8783-4.5549 5.8861-4.523zm31.58 1.9045c-4.134 4.1648-11.132 12.07-17.055 6.462-2.8218-2.1398-6.4435-3.3404-8.4839-6.3847 4.6147 0.23919 8.7215 4.2092 13.532 4.3144 4.1246-1.1015 7.7316-3.8626 12.007-4.3918zm-27.804 4.0893c5.2033 2.9351 9.7363 6.9696 15.047 9.713 5.2845-2.7922 9.7989-6.8297 15.056-9.6564 34.928 33.718 67.654 69.655 102.98 102.97 12.819 12.558 25.777 25.101 38.051 38.149-2.9152 5.1921-6.9334 9.7109-9.6564 15.011 2.8086 5.2991 6.8675 9.8253 9.7144 15.094-11.853 12.469-24.296 24.372-36.376 36.629-36.2 33.631-69.358 70.442-104.97 104.63-5.2033-2.9351-9.7363-6.9696-15.047-9.713-5.2883 2.7883-9.7989 6.8297-15.056 9.6564-34.92-33.72-67.65-69.66-102.97-102.98-12.825-12.55-25.779-25.1-38.053-38.15 2.9152-5.1921 6.9334-9.7109 9.6564-15.011-2.3597-5.3942-8.1157-10.184-9.3926-15.476 11.807-12.28 24.073-24.12 36.054-36.24 36.195-33.63 69.355-70.444 104.98-104.63zm195.83 8.1193c0.56891-0.06125 1.1501 0.15738 1.7415 0.81206 3.1069 4.6778 0.46671 10.895-4.2965 13.258-4.0895-0.95062-6.1222-6.2763-3.1999-9.3374 0.30231-0.31665 0.65737-0.60924 1.0689-0.87008 1.3887-0.9791 2.9793-3.679 4.686-3.8628zm-362.74 0.159c1.9873-0.18876 3.8612 2.9343 5.4262 4.2067 4.0973 2.718 1.7972 8.9932-2.5315 9.7296-4.7184-2.2739-7.3326-8.7746-4.2855-13.214 0.46841-0.45975 0.93214-0.67874 1.3907-0.72229zm-9.5446 6.2258c0.6566 0.0555 1.2025 0.60021 1.0427 1.6545-0.93609 12.298 1.0797 24.574 3.9816 36.495 1.9707 6.7523 6.7488 12.121 9.6592 18.418 1.1007 1.4839-1.2179 3.7782-2.2926 1.899-11.648-16.5-15.084-37.605-14.07-57.265 0.1153-0.323 0.2945-0.583 0.5069-0.777 0.3451-0.314 0.7785-0.457 1.1725-0.424zm382.05 0.173c3.2302-0.19049 2.2148 5.7475 2.1268 8.3914 0.0494 17.681-3.8187 35.751-14.467 50.13-0.93423 1.265-2.7812-0.63475-2.1116-1.812 2.1818-5.2664 6.1502-9.611 8.1745-14.958 5.1185-13.272 5.5133-27.782 5.951-41.712 0.11325-0.01925 0.22172-0.0325 0.32592-0.03863zm-359.97 7.429c5.5504-0.21968 9.6431 8.0415 4.302 11.344-5.8612 6.3381-15.606-0.72448-18.861-6.462 2.5804-1.5881 4.8904 1.9322 7.5323 0.38255 2.9235-0.83124 4.4346-3.8492 7.0269-5.2646zm337.1 0.162c2.1708 0.06412 4.3746 1.5534 5.7218 3.8435 3.0824 3.9406 6.4782-0.70888 9.8401 0.83692-2.8796 3.7258-6.219 7.9109-11.22 8.4963-5.9721 2.5567-13.484-5.677-8.5806-10.957 0.17924-0.24126 0.36612-0.4606 0.55934-0.66015 1.0868-1.1225 2.3767-1.5977 3.6792-1.5592zm-184.3 4.7219c-4.907-0.06875-9.8325 0.65696-14.453 2.084-4.8253 2.5334-8.8942 6.0401-12.698 9.8746-4.8899 4.9302-9.342 10.402-14.403 15.048-4.9723 5.4108-11.019 13.549-5.7729 20.818 21.164 22.29 42.601 44.408 64.167 66.358 21.137-21.506 42.043-43.282 62.973-64.981 6.9762-7.4223-0.0221-17.332-5.661-23.14-11.581-9.5347-20.481-26.811-37.55-25.765-8.5473-1.1604-16.789 3.1494-25.341 1.3479-3.6397-1.0583-7.4447-1.5914-11.261-1.6448zm-4.0921 3.9706c6.3646-0.08925 12.902 1.1419 19.206 0.97641 10.362 0.43832 20.871-2.1641 31.125 0.08975 9.9701 6.4068 17.095 16.329 25.644 24.426 4.5692 4.5308 7.4072 11.432 4.2827 17.541-20.6 19.193-40.024 39.8-59.347 60.285-18.455-19.129-36.386-38.861-55.806-57.033-7.4857-4.0604-5.7134-14.893-0.46403-19.981 5.6612-5.402 10.819-11.348 16.341-16.897 2.5097-2.5224 5.0946-4.9636 7.8362-7.234 3.6073-1.591 7.3637-2.1188 11.183-2.1724zm-1.1449 2.258c-2.5126 0.03075-4.9708 0.44595-7.3017 1.7788-3.5655 2.3943-6.9597 5.106-9.9851 8.1718-1.0085 1.0219-1.9755 2.0829-2.8947 3.1847-4.3723 6.0108-10.048 10.849-15.094 16.248-2.3881 3.7804-1.9886 9.9035 2.1199 12.464 18.335 18.565 37.482 36.28 55.189 55.45 18.48-19.903 38.526-38.248 57.452-57.744 1.8854-3.7008 1.5981-9.0912-2.0039-11.758-9.9938-8.7908-16.962-21.522-29.461-27.224-11.742-1.6579-23.624 2.8303-35.337 0.005-4.1571 0.3879-8.4961-0.62861-12.684-0.57728zm204.83 1.265c0.51629 0.97605 1.3181 2.1365 0.70986 3.2524-5.7661 9.8584-17.125 16.208-28.585 15.215-5.0766-0.93104-11.473-7.1734-7.1871-12.044 0.41712-0.54982 0.89733-1.119 1.4252-1.6642 2.2877-2.3627 5.4921-4.2792 8.5557-2.2553 4.62 1.0415 6.1011 8.1466 11.484 6.4026 5.1947-1.5793 10.851-3.8676 13.598-8.9065zm-366.82 0.484c3.4246 4.2138 10.793 9.2846 17.401 8.4604 3.3111-2.9034 6.5919-7.2468 11.471-7.1415 4.376 1.8932 10.225 6.5154 6.8418 11.906-8.0165 9.3934-23.088 3.9314-30.43-3.6336-1.8205-2.4718-7.7871-5.7422-5.284-9.5915zm169.48 3.5935c0.56794 0.06188 1.2221 0.69588 1.6435 1.0469 7.829 10.917 10.914 24.185 12.974 37.21 1.5333-13.172 4.8633-26.639 12.843-37.464 1.4821-1.8359 2.8063 0.23985 2.0992 1.87-9.0498 15.081-14.071 32.917-12.156 50.587 0.50535 3.287-6.3507 3.2429-5.7618 0.0386 1.7058-17.26-2.9033-34.797-11.895-49.567-0.5393-0.97609-0.76809-2.1326-0.52066-3.2262 0.074-0.14718 0.15683-0.25656 0.24721-0.3356 0.15815-0.1383 0.33825-0.18082 0.52756-0.1602zm-7.9729 0.34388c1.3436 0.041 2.6335 2.7402 3.2552 3.6654 10.027 15.935 12.474 35.103 12.329 53.509-0.1005 1.6313-2.977 3.1452-2.9817 0.69606 0.6465-13.177-0.92653-26.581-4.8931-39.184-1.9624-6.4068-7.8376-11.278-8.9673-17.81 0.10813-0.1687 0.21768-0.31006 0.32731-0.42675 0.30833-0.32816 0.62078-0.45968 0.93084-0.45024zm44.494 0.1533c0.97383-0.06462 1.9338 0.74342 1.4943 2.0923-2.7787 6.3171-7.6624 11.609-9.4382 18.408-3.34 11.863-4.9479 24.232-4.2026 36.564 0.71809 4.1204-3.8782 1.003-3.0839-1.1836 0.22282-9.9074 0.733-19.873 2.4762-29.639 2.9623-8.6239 6.0708-17.355 11.231-24.953 0.12951-0.40641 0.34029-0.7094 0.59524-0.91979 0.2762-0.22792 0.60347-0.34721 0.92807-0.36875zm-16.94 1.1035c0.30313-0.0025 0.49198 0.26905 0.48476 1.0013-1.7145 4.7606-3.7776 9.3939-5.5574 14.135-1.6757-5.0166-4.8407-9.8133-5.6375-14.947 1.7954-0.60309 4.6495 4.8727 7.1664 2.1558 0.70274 0.12804 2.6344-2.339 3.5438-2.345zm-35.75 5.654c0.36819-0.005 0.73671 0.01638 1.1021 0.06488 6.4817 2.9798 9.8832 9.6616 13.434 15.427 0.68145 1.0416 0.79488 3.651-0.92532 3.425-4.3516-3.1638-8.3113-7.7122-14.116-7.8845-3.5249-0.47509-9.1934-2.1288-7.2755-6.8929 0.24841-0.3311 0.52091-0.64916 0.81483-0.95294 1.8002-1.8606 4.3888-3.1526 6.9661-3.1861zm61.301 0.2845c2.7508-0.12731 5.5508 1.0595 7.4398 3.7413 2.7977 5.5869-5.0809 7.0331-8.9383 7.3597-5.289 0.41212-8.5445 6.4746-13.046 7.4219-1.2377-4.8546 4.481-9.3879 6.8915-13.514 0.48226-0.92699 1.0855-1.7337 1.7747-2.4127 1.6281-1.6042 3.7383-2.4974 5.8778-2.5964zm152.28 1.5868c0.76036 0.06025 0.9167 1.2803 1.1463 1.8921-2.9226 5.3303-5.9586 10.853-10.526 14.96-3.9984 4.8138-13.958 0.41846-12.457-5.69 0.12682-0.17826 0.26174-0.3456 0.40189-0.50133 2.1023-2.336 5.6338-2.2443 8.4936-2.9334 5.0967-0.60442 8.548-4.9927 12.577-7.676 0.13524-0.04387 0.25598-0.05975 0.3646-0.05112zm-366.46 0.167c1.5036 0.11688 3.2027 3.0912 4.5727 3.49 4.3286 5.2098 12.026 3.0663 16.763 7.321 2.1361 4.9331-4.2414 8.227-8.3223 8.0848-5.9352-2.2571-9.3022-8.1289-12.51-13.244-0.86273-1.4834-2.486-3.3763-1.5067-5.2094 0.31964-0.34416 0.65568-0.46891 1.0027-0.44195zm141.67 11.486c5.4316-0.10175 11.389 2.277 15.773 4.8641 2.8173 3.8135 11.979 7.528 9.5639 13.366-4.0055-4.8791-16.179-13.597-21.582-4.4788-5.2449 7.3988-17.891-0.5021-14.366-8.1345 0.56263-0.86625 1.1849-1.617 1.8548-2.2622 2.4282-2.3389 5.497-3.2935 8.756-3.3546zm82.346 0.23478c2.8531-0.0112 5.6884 0.58721 8.3693 1.957 8.5336 4.0049 2.5716 14.243-4.3407 14.932-5.1487-0.46669-7.5694-5.7543-11.845-7.5475-6.1638 0.64078-12.726 3.6568-16.001 9.1399-1.2274-1.488-1.1235-3.522 0.27897-4.8476 1.027-1.4874 2.2368-2.9357 3.5894-4.2993 5.2498-5.2924 12.658-9.3049 19.95-9.3346zm-70.118 17.062c5.2034 0.11262 11.022 4.5422 13.243 8.9148-1.7408 1.0254-3.4313-0.10588-5.0754-0.7002-4.0239-0.46838-6.2053 3.3498-9.0805 5.3558-4.5431 1.0431-9.3886-5.5646-6.2673-9.3706 0.48028-0.82932 1.0195-1.5203 1.6062-2.0868 1.595-1.5402 3.5379-2.1571 5.574-2.113zm59.293 0.0787c2.8241-0.0504 5.4575 1.1452 7.1498 4.2744 2.9938 3.7601-1.4036 9.9966-5.8999 9.4313-2.9255-2.1668-6.7715-7.4516-10.92-4.8876-1.0961 0.9192-4.8962 0.5975-2.7152-1.0758 0.53976-0.97365 1.2749-1.935 2.1503-2.8312 2.6591-2.7222 6.6041-4.8464 10.235-4.9111zm58.271 13.209c-5.9766-0.0722-11.045 4.6912-14.729 9.2504-19.338 19.007-39.102 37.603-58.351 56.722 19.346 19.17 39.201 37.837 58.559 56.987 4.0875 3.6048 8.1526 9.7322 14.389 9.057 6.3962 0.44223 10.651-5.0904 15.393-8.3941 7.7138-9.0831 18.441-15.857 23.879-26.71 5.6206-13.667-3.4508-28.11 1.6476-41.824 0.16736-6.7982 0.58381-13.906-1.9929-20.368-3.6764-7.4082-10.512-12.457-16.193-18.215-5.2095-6.152-11.607-11.24-18.325-15.621-1.4702-0.59375-2.8966-0.86719-4.2758-0.88388zm-175.87 0.598c-1.8241-0.0351-3.6755 0.28425-5.3917 0.87836-5.7804 3.4304-10.738 7.8797-15.447 12.62-4.7088 4.7405-9.1674 9.7718-13.947 14.367-7.6593 7.4824-7.296 19.042-6.0104 28.81 1.8132 6.6714 1.6352 13.765-0.47509 20.329-0.16737 6.7981-0.58766 13.902 1.9929 20.368 3.6764 7.4082 10.504 12.457 16.193 18.215 5.2095 6.152 11.607 11.24 18.325 15.621 7.841 3.1667 14.467-2.7591 19.005-8.3665 19.338-19.007 39.102-37.603 58.352-56.722-21.315-21.039-43.059-41.664-64.45-62.626-2.1399-2.3938-5.1053-3.4368-8.1455-3.4955zm109.66 0.058c0.80806-0.0461 1.6278 0.31548 2.4044 1.3065 5.2488 4.6358-1.5963 9.9129-5.1265 12.689-3.929-1.0325-3.922-6.9949-2.0426-9.8512 0.47837-0.77163 1.1063-1.6593 1.8216-2.4155 0.88519-0.93574 1.9041-1.6698 2.9431-1.7291zm-43.288 0.1823c5.0109 0.0401 9.0043 12.067 2.5812 13.628-3.3796-2.7819-10.216-7.5318-5.411-12.275 0.93807-0.95729 1.9019-1.3609 2.8298-1.3534zm108.99 4.5658c4.069-0.0251 8.3998 1.7985 11.113 4.5976 8.0752 9.1786 19.118 16.006 25.434 26.613 2.4311 10.623-0.56918 21.53 0.16159 32.269-0.18505 9.585 2.7634 19.675-1.0731 28.842-6.8162 8.7316-15.679 15.602-23.283 23.622-4.5249 4.5403-11.398 7.36-17.523 4.2081-19.272-20.674-39.955-40.177-60.514-59.579 19.059-18.382 38.721-36.237 56.819-55.588 1.8899-3.5016 5.2762-4.9621 8.8664-4.9843zm-175.62 0.40328c1.8289 0.0218 3.667 0.43507 5.4345 1.3286 19.272 20.674 39.955 40.176 60.514 59.578-19.059 18.382-38.721 36.237-56.819 55.588-4.0317 7.4702-14.872 5.657-19.98 0.38808-8.079-9.1825-19.118-16.006-25.434-26.613-2.5286-11.387 0.84311-23.066-0.21544-34.576 0.0287-9.0441-2.8005-18.923 1.6324-27.348 2.2814-2.666 4.6971-5.2023 7.1788-7.6746 5.4597-5.439 11.24-10.568 16.618-16.084 3.0693-2.789 7.0456-4.6345 11.069-4.5865zm175.93 1.6007c-2.7686 0.0409-5.4924 1.2106-6.9965 3.5839-18.495 18.264-36.136 37.344-55.239 54.978 19.974 18.557 38.397 38.672 57.965 57.673 3.7042 1.9034 9.0968 1.6335 11.75-1.9584 8.7525-9.9602 21.457-16.881 27.11-29.357 1.6128-11.736-2.9193-23.633-0.13948-35.336-0.64592-6.5233 2.2042-13.428-1.0745-19.603-6.4702-10.953-17.949-17.32-26.113-26.787-1.6817-2.1453-4.4944-3.2338-7.263-3.193zm-176.36 0.45575c-3.4942 0.0129-6.9432 1.8692-8.8982 4.9401-4.222 5.3326-10.091 8.8489-14.817 13.588-0.67521 0.67705-1.3268 1.3786-1.9473 2.1144-3.2474 4.0782-7.6468 7.7165-8.8651 13.019-0.6995 11.561 3.0073 23.093 0.44194 34.558 0.638 6.4004-2.1665 13.167 1.0966 19.219 6.4702 10.953 17.945 17.324 26.113 26.787 3.3595 4.2867 11.248 4.3506 14.26-0.39223 18.495-18.264 36.136-37.343 55.239-54.976-19.974-18.557-38.397-38.672-57.965-57.673-1.4711-0.81495-3.0687-1.1908-4.657-1.185zm88.678 2.5702c1.8349-0.0479 3.6538 0.60937 5.3641 2.352 1.4936 2.1526 10.587 4.4591 6.2093 7.8058-3.7703-2.3374-7.185-5.6075-11.594-6.7368-4.4048 1.1125-7.8109 4.3722-11.576 6.6913-0.41191-0.61115-1.9445-1.4848-1.1974-2.2166 3.3162-3.0397 8.105-7.7734 12.794-7.8956zm87.549 2.74c3.8995 0.0276 8.0807 3.5821 8.6717 7.9715 1.0197 9.2803-2.8118 19.165-10.144 25.09-1.9158 1.885-5.2323 5.8098-8.1165 3.1171 5.6479-3.4479 9.1964-10.666 8.7656-17.12-3.9076-3.8386-10.799-10.501-4.6017-15.66 0.35826-0.65035 0.7642-1.1978 1.2084-1.6504 1.2078-1.2304 2.6905-1.7592 4.2164-1.7484zm-177.04 0.29003c5.3365 0.087 11.392 6.4088 8.1193 11.732-1.1663 4.374-7.9427 5.8273-6.1706 11.071 1.5992 5.2008 3.9082 10.867 8.9576 13.633-3.2846 2.7-6.451-1.8541-8.6427-3.7316-7.5249-6.4598-12.843-18.666-8.216-28.101 0.46052-1.323 1.1008-2.3244 1.8589-3.0508 1.1609-1.1122 2.5993-1.5767 4.0935-1.5523zm89.474 5.5008c2.8005 1.0687 5.2647 2.8802 7.629 4.6929-1.9167 3.4167-3.9178-0.73598-6.0035-1.3811-3.5526-2.932-6.376 5.9834-9.1869 1.4943 2.2265-2.0034 4.7804-3.679 7.5613-4.8061zm103.75 8.5419c3.5307-0.15509 7.1376 5.5454 6.241 9.1841-3.2265 6.9804-10.574 10.46-16.955 13.934-4.2967-0.5572 0.60559-4.3824 1.6697-5.9773 4.384-3.9225 3.7197-10.066 5.8944-15.033 0.24905-0.3769 0.50798-0.69765 0.77479-0.96674 0.75041-0.75683 1.5606-1.105 2.3754-1.1408zm-208.49 0.40463c2.0394 0.0484 4.0253 1.4329 4.1763 3.9968 0.21688 6.9908 4.2422 12.618 8.7394 17.636-0.96452 3.4799-6.0842-0.56833-7.5834-1.6614-5.4119-3.5881-15.443-9.65-9.5266-17.182 0.25185-0.6617 0.62295-1.201 1.0703-1.6241 0.75494-0.71409 1.7281-1.0941 2.7166-1.1573 0.13591-0.009 0.27145-0.0113 0.40741-0.009zm299.48 0.2403c-1.3556 5.7172-7.6039 8.044-10.17 13.018-2.9869 1.81-6.0645-3.382-4.4567-5.7052 3.5312-4.2389 9.9331-4.7575 14.627-7.3128zm-390.18 0.0304c4.7066 2.1549 10.222 3.1793 14.217 6.6457 2.9412 2.3665-1.6831 9.3898-4.4733 5.7107-2.6231-4.6538-8.5083-6.8761-9.7434-12.356zm267.53 0.26242c2.7751 0.0345 5.5652 1.7977 6.752 4.8973 1.8976 6.6716-3.116 12.947-8.4646 16.364-0.92052-1.5949-0.11762-3.1978 0.55519-4.686 1.6167-5.7243-8.9061-8.4088-4.1335-13.92 0.20773-0.27791 0.42946-0.53377 0.66154-0.7665 1.3055-1.3091 2.9643-1.91 4.6293-1.8893zm-145.17 0.51238c3.3562 0.0348 6.7819 2.4836 6.9785 6.3073-1.7676 3.0676-5.3426 5.2248-5.8419 9.0626 0.49122 1.9318 2.1384 3.8697 0.92531 5.8751-5.2116-3.2269-11.321-10.732-7.9895-17.132 0.41119-1.0783 0.99948-1.9266 1.7028-2.566 1.1869-1.079 2.6992-1.5626 4.2247-1.5468zm133.01 11.185c2.574 0.0635 5.1473 1.8192 5.6527 4.6252-2.2671 4.8133-9.1796 7.4723-13.517 3.9554-1.7398-2.4141 1.9851-4.0922 3.1102-5.9096 0.24534-0.42924 0.52857-0.80318 0.84108-1.1242 0.94406-0.96975 2.1552-1.4571 3.3988-1.5371 0.17101-0.0113 0.34216-0.0139 0.51376-0.01zm-121.08 0.54c3.4925 0.054 7.1767 4.1274 9.1012 6.984-2.0175 6.8637-16.618 1.6816-13.275-4.5078 0.26508-0.38 0.5378-0.71194 0.81757-0.99714 1.0492-1.0695 2.1918-1.4971 3.356-1.4791zm176.54 1.754c1.2906-0.0334 2.4348 1.8072 0.95156 2.5702-14.368 10.168-32.02 14.081-49.448 14.079-2.9408-0.14385-8.1227 1.7544-9.017-2.1821 12.943-0.89646 27.86-0.81464 40.845-5.7149 5.8658-1.8966 10.413-6.3828 16.113-8.6137 0.18313-0.0899 0.37082-0.13335 0.55518-0.13811zm-231.2 0.41019c1.6514 0.13057 3.6736 2.0382 4.9539 2.4887 15.046 11.008 34.589 11.371 52.383 11.709 0.0952 3.6355-4.6546 2.7867-7.1001 2.7014-17.809-0.3144-36.169-3.7544-51.072-14.113-0.3656-0.48055-1.529-1.0783-0.97365-1.7567 0.10139-0.17303 0.2079-0.32183 0.32179-0.44747 0.42702-0.47115 0.93693-0.62496 1.4874-0.58142zm285.77 3.5148c0.22962-0.0139 0.46157-0.0125 0.69329 0.005 2.3833 0.17909 4.7314 1.9702 4.0755 4.4954-4.8427 2.9658-7.4985 8.9537-13.196 10.498 1.3856-4.0856 3.2284-8.0828 4.8945-12.072 0.43565-1.9463 1.9253-2.8294 3.5328-2.9265zm-340.59 0.0594c1.2308 0.0541 2.3915 0.68716 3.1972 2.207 1.6398 4.3294 3.8635 8.5067 5.3268 12.89-5.6109-1.3044-7.9223-7.4164-12.733-9.9976-0.98014-0.65064-0.92251-2.2088-0.28312-3.0867 1.2112-1.1939 2.9102-2.0819 4.4926-2.0122zm286.36 4.465c1.3014 0.0501 2.3748 0.9021 0.90738 2.2373-10.825 8.0944-24.343 11.074-37.464 13.141 13.178 1.5838 26.658 4.9653 37.514 12.986 1.8416 1.4891-0.22883 2.8056-1.8617 2.0923-15.115-9.1077-32.972-14.198-50.634-12.351-2.6328 0.30206-2.716-3.1383-2.0398-4.8682 2.8332-1.8871 7.0601-0.1892 10.503-0.44746 14.61-0.41726 28.915-4.7317 41.377-12.332 0.4684-0.33859 1.1072-0.48128 1.6987-0.45852zm-232.42 0.32733c0.44123-0.0166 0.90436 0.0604 1.3093 0.13672 15.115 9.1077 32.973 14.198 50.635 12.351 3.285-0.49274 3.2673 6.363 0.0607 5.7618-17.266-1.7721-34.786 2.7693-49.521 11.705-1.4334 1.2256-5.2427 0.58972-2.9859-1.5979 10.837-7.9216 24.267-11.405 37.466-12.819-13.26-2.6473-28.59-4.7879-38.383-14.811 0.07127-0.11738 0.15301-0.21767 0.24308-0.30245 0.31526-0.29673 0.73406-0.4074 1.1753-0.42399zm276.78 2.1393c-0.49458 4.3254-3.2561 7.978-4.4305 12.122 0.34706 4.8145 3.9974 8.8793 4.3711 13.544-4.044-2.9252-5.7225-7.9143-8.448-11.897-0.4232-4.4922 3.6464-7.8162 5.9662-11.213 0.63217-0.63986 1.909-1.9165 2.5412-2.5564zm-112.89 0.13259c2.9471-0.17881 5.1712 7.3133 7.1788 8.7132 4.144 5.0176-2.1225 10.175-4.4526 14.236-0.771 2.3095-3.0838 3.53-4.3973 1.1974 2.3229-3.7614 5.5802-7.1644 6.6926-11.569-1.1294-4.4091-4.4071-7.8244-6.7368-11.602 0.59857-0.64664 1.1695-0.94192 1.7153-0.97503zm-94.875 0.33006c0.58518 0.0624 1.1547 0.44389 1.6062 1.2457-2.3001 3.6463-5.3218 6.9611-6.6112 11.166-1.0921 5.0228 9.7009 10.091 4.813 13.51-3.5298-3.0087-5.795-7.1818-8.1096-11.129-1.7138-4.8708 3.7022-8.449 5.5105-12.35 0.23852-0.72172 0.63081-1.3381 1.0952-1.7719 0.5108-0.47713 1.1108-0.7336 1.696-0.6712zm-113.03 0.27623c2.8378 0.48529 4.4286 5.141 6.3529 7.7243 5.9692 5.9769-2.2396 13.187-6.2852 17.425 0.54072-4.2869 3.2637-7.9093 4.4305-12.022-0.53103-4.669-3.4262-8.6221-4.4981-13.127zm340.47 2.0896c3.2453 0.77782 9.5505 4.2646 6.4869 8.1359-5.5806 2.5114-12.257-0.24307-17.995 2.0799 5.7435 2.3565 12.509-0.87009 17.988 1.9197 3.0824 3.956-3.3947 7.7323-6.8529 8.0212-6.0694-2.1614-11.167-6.4775-16.46-10.016 5.2556-3.8095 10.487-8.2493 16.832-10.141zm-360.52 0.49719c5.9784-0.18899 12.164 7.1674 17.267 9.8346-5.4366 3.5212-10.468 8.1993-16.837 9.9989-3.2529-0.77784-9.5505-4.2646-6.4869-8.1359 5.5884-2.4499 12.184 0.0624 18.004-1.8727-5.3398-2.0294-11.094-0.42796-16.555-1.3521-2.5384-0.5308-3.1319-3.684-1.254-5.3157 1.8989-2.1931 3.8685-3.0941 5.8613-3.1571zm223.02 2.0205c1.305 0.19865 2.5621 3.5433 3.5121 4.6418 3.147 3.5838-1.5783 7.317-3.3422 10.319-3.8363-2.6945 3.1685-5.2224 1.7305-8.4535-0.88259-1.8251-2.383-3.2474-3.4458-4.9539 0.22688-0.54132 0.45485-0.92347 0.68362-1.1739 0.20019-0.21912 0.40111-0.33835 0.60076-0.37565 0.0874-0.0164 0.17403-0.0174 0.26103-0.004zm-84.843 0.65738c1.1474-0.0866 0.0528 4.0002-1.5648 5.2895-3.5669 3.6285 5.7968 6.7097 1.3148 9.5763-4.0954-3.7123-6.3329-9.2278-1.5385-13.345 0.22306-0.2774 0.42799-0.51281 0.61457-0.70847 0.52477-0.55034 0.90913-0.79208 1.1739-0.81208zm157.79 1.1615c2.0834 1.4474-4.8357 4.7427-1.7291 7.2976-0.17094 0.94018 4.288 4.0743 1.359 4.0341-4.7672-1.7328-9.4091-3.8147-14.157-5.6127 4.8756-1.791 9.5435-4.3504 14.527-5.719zm-231.83 0.62976c5.2366 0.28645 10.287 3.7127 15.353 5.469-4.9374 1.5913-9.5582 4.1965-14.519 5.5574-2.0947-1.3207 3.8849-4.0609 2.218-6.5324-0.93964-1.5527-2.1164-2.9452-3.0522-4.494zm-45.485 10.185c-2.0411 4.5872-3.1289 9.8528-6.2728 13.866-2.0554 3.1477-8.7224-0.34689-6.6788-3.675 4.8969-2.72 7.2806-8.7968 12.952-10.191zm324.16 0.27207c4.3449 0.16098 7.9953 7.615 12.54 9.7918 2.0002 4.0768-6.0283 7.159-7.7298 2.6682-1.6932-4.153-3.5665-8.295-5.2329-12.452 0.14166-0.01 0.28245-0.0135 0.4226-0.009zm-99.912 1.167c1.3641 0.0345 2.7958 0.27973 4.0134 0.24031 17.559 0.35617 35.709 3.9668 50.258 14.348 1.8831 1.0785-0.41569 3.4016-1.9072 2.3008-7.1048-3.5952-13.483-8.9403-21.482-10.533-10.18-1.6817-20.339-4.2692-30.736-3.0646-1.1871-0.46678-5.2342 0.81275-4.2868-1.6269 0.16255-0.24693 0.34204-0.45998 0.53724-0.6422 0.94345-0.88068 2.2391-1.0565 3.6032-1.022zm-125.96 0.79274c1.2541 0.0131 2.5039 0.042 3.7482 0.0842 1.8664 0.40282 2.3166 3.2287-0.0719 2.9016-12.032-0.92138-24.074 0.80577-35.712 3.7662-7.1485 1.6254-12.64 6.6777-19.149 9.6633-1.0886 0.84245-3.1267-0.41276-2.4956-1.6131 15.136-11.754 34.867-14.999 53.679-14.802zm63.191 7.879c-1.0972 0.97318-2.1609 1.9807-3.2027 3.0107-4.5145 4.4634-8.6153 9.3521-13.229 13.722-15.691 16.999-32.65 32.828-47.93 50.153-5.0466 8.7312 3.364 17.019 8.8306 23.083 10.831 9.0611 19.379 24.829 35.382 23.912 8.6818 1.1952 17.05-3.1186 25.729-1.3438 7.9394 2.3991 16.614 1.9696 24.553-0.0152 8.2434-3.1665 13.633-10.658 19.702-16.65 6.1321-5.1859 11.195-11.563 15.551-18.265 3.1366-7.8289-2.8148-14.478-8.4397-19.038-19.081-19.411-37.753-39.247-56.946-58.57zm93.472 0.31212c1.4205-0.019 3.2524 1.0816 4.1018 1.8216 4.7746 3.5485 11.265 6.4275 13.242 12.504 0.0306 3.9694-2.8636 10.072-7.7533 8.5612-3.0446-2.263-2.7637-6.3884-3.6184-9.6799-0.79258-4.9382-5.6248-8.0694-7.56-12.28 0.0996-0.19341 0.21961-0.35103 0.35631-0.47923 0.33036-0.30981 0.75841-0.44111 1.2319-0.44746zm-35.922 0.0525c3.7912 0.0441 7.7167 2.5564 8.6552 6.1237-2.4409 8.2717-14.631 1.43-13.449-4.5216 1.375-1.1322 3.0704-1.6221 4.7937-1.602zm23.471 0.0649c0.28096 0.004 0.56288 0.0693 0.84245 0.22235 9.8806 5.804 16.274 17.188 15.324 28.645-1.1817 4.3509-4.9358 9.7986-10.075 8.3223-3.7428-1.988-8.6806-6.6592-5.8985-11.18 1.0238-4.6161 8.1217-6.0682 6.357-11.457-1.5992-5.2008-3.9082-10.868-8.9576-13.634 0.73055-0.38439 1.5643-0.92871 2.4072-0.91841zm-174.01 0.19472c4.3005 0.56105-0.62095 4.3824-1.6697 5.9773-5.1971 4.3048-3.017 12.009-7.2575 16.726-6.4064 2.2526-11.196-8.7193-5.5602-12.586 0.46094-0.59365 0.95271-1.1519 1.4722-1.6794 3.6366-3.6924 8.5796-5.8941 13.015-8.4383zm36.644 0.2997c1.5503 0.0675 3.06 0.56915 4.331 1.602 1.6788 2.6673-2.2799 4.6101-3.7772 6.5228-2.5291 4.3368-10.004 1.3977-9.4562-2.9582 0.43525-0.86649 1.0264-1.6538 1.7263-2.3368 1.8955-1.8496 4.5922-2.9423 7.176-2.8298zm-24.142 0.28864c0.81358-0.0355 1.664 0.16729 2.5564 0.68364-5.6288 3.3827-8.8438 10.351-8.9314 16.739 2.6903 3.6328 7.4952 6.7991 7.3514 11.881-1.8764 4.3688-6.4761 10.199-11.88 6.7948-8.5042-6.6804-4.6917-18.908 0.0691-26.546 1.8478-1.317 3.7664-4.3599 5.9386-6.6609 1.4934-1.582 3.106-2.8138 4.8959-2.892zm151.4 0.25826c5.3198 1.6186 13.272 12.929 6.596 18.459-3.2565 5.3565-11.828 1.1442-11.213-4.3863 1.7114-2.3345 4.2364-4.1541 5.1983-7.0006 1.6346-2.4038-1.9318-4.6221-0.58144-7.0724zm-141.24 0.0719c1.0322 1.7448-0.0915 3.4322-0.67949 5.074-0.48707 4.2332 3.7349 6.3172 5.6182 9.5031 0.24099 5.5513-8.0058 9.613-11.329 4.2592-4.1284-2.91-2.5114-8.7342-0.31488-12.338 0.9285-1.2516 1.9599-2.4376 3.0812-3.53 1.1212-1.0924 2.3319-2.0913 3.6239-2.9679zm231.5 0.19887c0.6349 0.7805 2.44 1.6442 1.2444 2.7014-11.268 13.437-25.258 24.265-37.184 37.098-35.39 31.736-67.008 67.284-100.32 101.1-2.151 1.3433-5.4639 7.2026-7.7713 3.0715 13.82-13.904 27.963-27.5 41.479-41.693 33.273-34.996 68.692-67.86 102.56-102.28zm-321.59 0.12288c48.168 47.701 96.276 95.434 143.76 143.82-2.3032 4.0416-5.6161-1.8073-7.7492-3.1281-34.6-35.05-67.51-71.86-104.16-104.89-10.163-11.96-25.41-21.4-33.304-34.32 0.45582-0.51735 0.94549-1.0078 1.4667-1.4598zm160.43 5.0298c18.455 19.129 36.386 38.861 55.806 57.033 7.3089 3.9296 5.832 14.552 0.73611 19.625-8.2187 8.0648-15.619 17.073-24.449 24.488-9.6195 4.2426-20.301 0.93128-30.389 1.196-10.362-0.43832-20.871 2.1641-31.125-0.0897-9.9739-6.403-17.095-16.329-25.644-24.426-4.573-4.5347-7.4072-11.432-4.2827-17.541 18.274-17.105 35.775-35.189 52.895-53.494 1.5514-1.7417 3.0084-3.6134 4.6873-5.248 0.55964-0.54489 1.144-1.064 1.765-1.5427zm165.35 1.4308c2.2422 6.1809-6.4 11.223-11.377 14.062-3.9182 4.6259-6.7547 10.894-13.116 12.663-4.2003 3.6234-5.2122 10.597-11.435 12.396-5.9784 1.263-5.2103 9.678-11.089 11.102-3.2604 1.3603-5.8955 3.905-7.2175 7.1884-1.6375 4.8683-7.4536 5.1216-10.895 8.0171-0.0229 6.0767-5.1828 11.315-11.344 11.307-2.5213 4.3829-3.9464 10.538-9.76 11.629-5.4159 4.3159-7.2157 12.147-14.697 14.236-2.3086 5.2393-5.811 10.641-11.724 12.054-3.8282 3.5051-4.5267 9.5958-9.6965 12.127-8.3521 2.5675-8.9333 15.627-18.814 15.646l-0.46266-0.89217c20.495-20.233 40.066-41.351 60.204-61.919 26.251-27.428 54.651-52.697 81.425-79.617zm-329.9 0.116c24.438 24.392 49.406 48.225 74.453 71.977 21.746 23.608 45.31 46.613 66.621 69.856-9.0956 1.1956-10.939-11.36-17.813-14.794-5.9312-2.1381-7.0684-8.3254-10.627-12.497-4.9203-1.472-9.1116-5.1733-10.937-10.025-1.5762-5.2084-9.1793-4.5581-10.583-9.9313-1.4384-3.3847-3.9657-6.2654-7.4232-7.6387-4.8784-1.6524-5.1477-7.4764-8.0641-10.921-5.7466 0.00049-10.693-4.7298-10.573-10.626-4.4003-2.5305-10.556-3.9822-11.669-9.8-4.3367-5.4325-12.176-7.2629-14.294-14.753-5.2482-2.3287-10.663-5.8525-12.098-11.771-3.5198-3.8417-9.6132-4.5625-12.164-9.742-2.5995-8.362-15.661-8.9939-15.718-18.875l0.88941-0.45851zm348.21 1.1546c0.95213-0.0524 1.9502 0.48767 2.3216 1.4529 2.6151 4.4772 8.328 6.6569 9.4976 12.018-4.7066-2.1549-10.222-3.1793-14.217-6.6457-2.038-1.8005-0.41071-4.3809 0.87974-6.056 0.39205-0.49302 0.94651-0.7378 1.5178-0.76925zm-366.94 0.0939c2.1237-0.11225 4.0238 3.356 3.6377 5.3171-3.0957 5.1188-10.231 5.3011-15.066 8.0903 1.2829-5.606 7.3851-7.8936 9.9478-12.695 0.48854-0.46979 0.99043-0.68673 1.4805-0.71263zm183.3 0.96674c-18.48 19.903-38.526 38.248-57.452 57.744-1.8893 3.697-1.5981 9.0912 2.0039 11.758 8.5674 7.5942 14.609 17.551 24.1 24.16 4.4306 4.3233 10.892 3.8575 16.518 3.0314 7.9773 0.19958 15.884-2.2848 23.796-0.0125 6.6476-0.58608 13.693 2.2834 19.983-0.95983 10.928-6.4282 17.252-17.883 26.688-26.011 4.2738-3.343 4.3083-11.231-0.44609-14.261-18.335-18.565-37.482-36.28-55.189-55.45zm176.43 8.3969 0.46267 0.89079c-41.7 42.338-82.184 85.869-126.05 126.01-5.3608 5.007-10.257 10.479-15.576 15.529-2.1293-1.386 0.37512-4.8509 1.5081-6.5532 3.2645-5.1876 10.775-5.8915 13.025-11.856 2.131-5.7387 8.2251-6.6406 12.218-10.165 1.4493-4.9108 5.1388-9.0916 9.9837-10.898 5.2024-1.5562 4.5196-9.1588 9.8912-10.546 3.3792-1.4254 6.2459-3.9381 7.6097-7.3942 1.6375-4.8683 7.4445-5.1216 10.894-8.0171 0.0229-6.0767 5.1842-11.315 11.345-11.307 2.5213-4.3829 3.9411-10.533 9.7586-11.627 5.4159-4.3159 7.2171-12.148 14.699-14.237 2.3086-5.2393 5.8097-10.641 11.722-12.054 3.8282-3.5051 4.5228-9.592 9.6965-12.127 8.3521-2.5675 8.9333-15.625 18.814-15.645zm-350.32 0.55656c5.1438 0.23818 9.3461 7.4186 11.847 11.783 4.641 3.936 10.919 6.7962 12.713 13.164 3.6396 4.2143 10.617 5.2536 12.441 11.484 1.286 5.9833 9.6982 5.2462 11.145 11.13 1.3729 3.2656 3.9237 5.9081 7.2161 7.2465 4.8784 1.6524 5.1463 7.4764 8.0627 10.921 5.7466-0.00048 10.689 4.7273 10.573 10.627 4.3964 2.5267 10.553 3.977 11.67 9.7987 4.3367 5.4325 12.175 7.2643 14.293 14.754 5.2482 2.3287 10.664 5.8512 12.1 11.769 3.5198 3.8417 9.6094 4.56 12.164 9.7434 2.5996 8.362 15.661 8.9926 15.718 18.874l-0.8894 0.45989c-23.89-23.71-48.07-47.15-72.673-70.16-22.618-23.99-45.527-47.69-68.62-71.22 0.77106-0.27779 1.5246-0.3862 2.2594-0.35218zm-6.8915 2.874c0.24206-0.01 0.49552 0.10338 0.76097 0.40329 13.48 11.32 24.363 25.351 37.242 37.326 31.603 35.266 67.035 66.75 100.72 99.944 1.3477 2.1523 7.2228 5.4922 3.1005 7.7837-48.168-47.701-96.276-95.432-143.76-143.82 0.58066-0.47681 1.2101-1.6084 1.9363-1.638zm362.38 0.15608c0.66928 0.0113 1.3097 0.41872 1.8865 1.4515-47.758 48.258-95.604 96.388-144.03 143.97-1.7985-1.0322-1.9674-2.602-0.35769-3.9195 11.331-12.723 24.627-23.488 36.296-35.88 35.39-31.736 67.008-67.284 100.32-101.1 1.6075-1.0075 3.8769-4.5549 5.8847-4.523zm-175.89 3.5535c0.6238-0.0367 1.2404 0.30324 1.8562 1.2844-2.2303 2.0072-4.7804 3.679-7.5614 4.8061-2.8005-1.0687-5.2724-2.8803-7.629-4.6929 0.17825-0.32032 0.35833-0.57432 0.53861-0.77064 1.7427-1.8977 3.5782 1.5706 5.4649 2.1517 2.7755 2.2906 5.1029-2.6474 7.3307-2.7787zm5.353 4.9456c0.73991-0.0132 1.4263 0.38299 2.0371 1.4128-4.6134 4.3904-12.242 12.186-18.473 5.9096-1.8353-2.1724-7.2843-3.3531-7.4743-6.3861 4.031-3.8234 9.3054 8.1174 14.819 4.65 3.1125-0.26994 6.449-5.5388 9.0916-5.5864zm-29.866 5.614c0.5689-0.0613 1.1514 0.15738 1.7429 0.81206 3.1069 4.6777 0.46671 10.895-4.2965 13.258-4.0895-0.95062-6.1222-6.2763-3.1999-9.3374 0.30232-0.31665 0.65598-0.60923 1.0676-0.87007 1.3887-0.97909 2.9793-3.679 4.686-3.8628zm37.265 0.15744c1.9873-0.18876 3.8598 2.9343 5.4248 4.2067 4.0974 2.718 1.7986 8.9932-2.5301 9.7296-4.7184-2.2739-7.334-8.7732-4.2868-13.213 0.46842-0.45975 0.93353-0.68013 1.3921-0.72369zm-9.5459 6.2259c0.65659 0.0555 1.2025 0.60021 1.0427 1.6545-0.93609 12.298 1.0797 24.575 3.9816 36.496 1.9707 6.7524 6.7502 12.119 9.6606 18.417 1.1007 1.4839-1.218 3.7796-2.2926 1.9004-11.648-16.498-15.086-37.607-14.072-57.267 0.11525-0.32295 0.29445-0.58239 0.50687-0.77615 0.34515-0.31488 0.77856-0.45729 1.1725-0.42399zm-17.951 0.17401c3.2302-0.19048 2.2161 5.7488 2.1282 8.3927 0.0494 17.681-3.82 35.751-14.468 50.13-0.93424 1.265-2.7798-0.63612-2.1103-1.8133 2.1818-5.2665 6.1503-9.611 8.1745-14.958 5.1185-13.272 5.5119-27.782 5.9496-41.712 0.11325-0.0192 0.22174-0.0325 0.32594-0.0386zm9.0073 3.6156c1.6014-0.0434 3.2105 0.71876 2.9168 2.3962-1.7058 17.26 2.9033 34.797 11.895 49.567 1.2312 1.4381 0.60944 5.2442-1.5868 2.979-7.9633-10.867-11.498-24.31-12.963-37.514-2.1937 13.086-5.0047 26.658-13.164 37.464-1.7158 2.0389-2.8723-0.70383-1.9694-2.276 9.4909-15.245 13.724-33.486 12.162-51.355 0.0679-0.12025 0.1521-0.232 0.24859-0.3356 0.5427-0.58271 1.5002-0.89925 2.4611-0.92531zm31.023 3.8131c5.5504-0.21968 9.6431 8.0415 4.302 11.344-5.8612 6.3381-15.605-0.72447-18.86-6.462 2.5804-1.5882 4.889 1.9322 7.531 0.38255 2.9236-0.83124 4.4346-3.8492 7.0269-5.2646zm-62.903 0.16157c2.1708 0.0641 4.3746 1.5534 5.7218 3.8435 3.0824 3.9407 6.4782-0.70886 9.8401 0.83694-2.8796 3.7258-6.219 7.9109-11.22 8.4963-5.972 2.5567-13.485-5.677-8.582-10.957 0.17924-0.24126 0.36613-0.4606 0.55933-0.66016 1.0868-1.1225 2.3781-1.5977 3.6806-1.5592zm215.7 4.7219c-4.907-0.0688-9.8339 0.65696-14.454 2.084-4.8253 2.5334-8.8942 6.0401-12.698 9.8746-4.8899 4.9302-9.342 10.404-14.403 15.05-4.9723 5.4108-11.018 13.548-5.7715 20.817 21.08 22.19 42.41 44.19 63.86 66.03v-6.8805c-18.344-19.027-36.183-38.636-55.493-56.704-7.4857-4.0604-5.7134-14.893-0.46403-19.981 5.6612-5.402 10.819-11.348 16.341-16.897 2.5097-2.5224 5.0946-4.9622 7.8362-7.2326 3.6073-1.591 7.3637-2.1202 11.182-2.1738 6.3647-0.0892 12.902 1.1419 19.207 0.97642 0.46318 0.0196 0.92702 0.0264 1.3907 0.0345v-2.9085c-1.7384 0.0459-3.4845-0.0561-5.2439-0.42676-3.6398-1.0583-7.4433-1.5928-11.26-1.6462zm-366.59 0.0952c-5.649 0.03-11.224 1.85-16.88 1.99v2.9072c9.9105 0.17421 19.94-2.0965 29.736 0.0566 9.9701 6.4068 17.093 16.329 25.642 24.426 4.5692 4.5308 7.4086 11.43 4.2841 17.54-20.6 19.193-40.024 39.8-59.347 60.285-0.10543-0.11-0.20972-0.22-0.315-0.33v6.8805c0.112 0.114 0.22359 0.22851 0.3356 0.3425 21.137-21.5 42.044-43.28 62.974-64.98 6.9762-7.4223-0.02221-17.332-5.661-23.14-11.581-9.5347-20.481-26.811-37.55-25.765-1.0684-0.14504-2.1316-0.20494-3.1916-0.20164zm361.35 6.1333c-2.5126 0.0308-4.9694 0.44596-7.3003 1.7788-3.5655 2.3943-6.9611 5.106-9.9865 8.1718-1.0085 1.0219-1.9755 2.0829-2.8947 3.1847-4.3723 6.0108-10.048 10.849-15.094 16.248-2.3882 3.7804-1.9886 9.9048 2.1199 12.466 18.235 18.463 37.272 36.086 54.897 55.135v-18.57c-2.6895 0.4944-4.9843 5.7157-7.2713 2.0633 2.1486-1.9333 4.6032-3.5573 7.2713-4.6818v-5.1542c-4.2673 1.1782-7.6109 4.3425-11.294 6.6112-0.41192-0.61115-1.9445-1.4848-1.1974-2.2166 3.2449-2.9744 7.8999-7.56 12.492-7.8707v-6.1347c-1.4862-0.0833-2.875-0.88302-2.5964-2.3989 1.7058-17.26-2.9033-34.797-11.895-49.567-0.53931-0.97609-0.76808-2.1312-0.52066-3.2248 0.0741-0.14718 0.15821-0.25795 0.24859-0.33698 0.15815-0.13831 0.33687-0.18082 0.52619-0.16021 0.56792 0.0619 1.2235 0.69588 1.6448 1.0468 7.378 10.288 10.529 22.665 12.593 34.958v-20.001c-1.7236-4.7517-4.6091-9.3315-5.3668-14.214 1.3761-0.46223 3.375 2.6352 5.3668 2.8892v-8.4908c-3.0267 0.0112-6.0472-0.2284-9.057-0.95432-4.1571 0.3879-8.4975-0.62861-12.685-0.57729zm-358.57 0.22c-6.546 0.1-13.117 1.31-19.661 1.33v8.4908c0.6069 0.0774 1.2131-0.0989 1.8009-0.73335 0.70274 0.12803 2.633-2.339 3.5424-2.345 0.30314-0.002 0.49337 0.26904 0.48614 1.0013-1.7145 4.7606-3.779 9.3939-5.5588 14.135-0.082-0.25-0.18182-0.49-0.2706-0.73v20.001c0.12617 0.7515 0.26252 1.5035 0.38117 2.2539 1.5333-13.172 4.8619-26.64 12.841-37.466 1.4821-1.8359 2.8063 0.23985 2.0992 1.87-9.0492 15.08-14.069 32.91-12.154 50.58 0.2661 1.73-1.5111 2.53-3.167 2.44v6.1347c0.10084-0.006 0.20169-0.0236 0.30245-0.0263 1.8349-0.0479 3.6552 0.61074 5.3654 2.3533 1.4936 2.1526 10.587 4.4577 6.2093 7.8044-3.7701-2.33-7.1848-5.6-11.594-6.73-0.09557 0.02-0.18824 0.05-0.283 0.08v5.1542c0.096754-0.0408 0.19133-0.0863 0.28864-0.12569 2.8005 1.0687 5.2661 2.8816 7.6304 4.6942-1.9166 3.42-3.9178-0.73-6.0035-1.38-0.6621-0.55-1.2994-0.68-1.9155-0.57v18.57c0.097113 0.105 0.19576 0.20845 0.29279 0.3135 18.48-19.9 38.525-38.24 57.451-57.74 1.8854-3.7008 1.5981-9.0912-2.0039-11.758-9.9938-8.7908-16.962-21.521-29.461-27.222-2.2017-0.31085-4.4087-0.40541-6.6181-0.37289zm163.43 1.0648c0.51627 0.97604 1.3181 2.1365 0.70987 3.2524-5.7661 9.8584-17.126 16.208-28.587 15.215-5.0766-0.93105-11.472-7.1734-7.1857-12.044 0.41712-0.54982 0.89595-1.1176 1.4239-1.6628 2.2877-2.3627 5.4935-4.2792 8.5571-2.2553 4.62 1.0415 6.1011 8.1452 11.484 6.4012 5.1947-1.5793 10.851-3.8676 13.598-8.9065zm33.191 0.48613c3.4246 4.2139 10.793 9.2832 17.401 8.459 3.3111-2.9034 6.5932-7.2468 11.473-7.1415 4.376 1.8932 10.224 6.5154 6.8404 11.906-8.0165 9.3934-23.086 3.9328-30.429-3.6322-1.8205-2.4718-7.7885-5.7422-5.2854-9.5915zm161.51 3.936c1.3436 0.0409 2.6321 2.7402 3.2538 3.6654 10.027 15.935 12.474 35.103 12.329 53.509-0.1005 1.6313-2.977 3.1466-2.9817 0.69744 0.6465-13.177-0.92514-26.582-4.8917-39.185-1.9624-6.4068-7.8377-11.278-8.9673-17.81 0.10813-0.1687 0.2163-0.31006 0.32593-0.42676 0.30833-0.32815 0.62217-0.45967 0.93222-0.45022zm-355.51 0.1533c0.97382-0.0646 1.9352 0.7448 1.4957 2.0937-2.7787 6.3171-7.6624 11.609-9.4382 18.408-3.34 11.863-4.9479 24.232-4.2026 36.564 0.71808 4.1204-3.8796 1.0016-3.0853-1.185 0.22283-9.9074 0.733-19.871 2.4763-29.638 2.9623-8.6239 6.0708-17.355 11.231-24.953 0.1295-0.40642 0.34168-0.71079 0.59662-0.92117 0.27619-0.22793 0.60209-0.34722 0.9267-0.36875zm347.31 6.7562c0.36819-0.005 0.73534 0.0164 1.1007 0.0649 6.4817 2.9798 9.8846 9.6616 13.435 15.427 0.68145 1.0416 0.79352 3.6524-0.9267 3.4264-4.3516-3.1638-8.31-7.7135-14.115-7.8859-3.5249-0.4751-9.1934-2.1274-7.2755-6.8915 0.24841-0.33109 0.51954-0.65055 0.81345-0.95432 1.8002-1.8606 4.3902-3.1526 6.9675-3.1861zm-338.7 0.2845c2.7508-0.12732 5.5508 1.0595 7.4398 3.7413 2.7977 5.5869-5.0796 7.0345-8.9369 7.3611-5.289 0.41213-8.5445 6.4746-13.046 7.4218-1.2377-4.8546 4.481-9.3892 6.8915-13.515 0.48226-0.92698 1.0855-1.7323 1.7747-2.4113 1.6281-1.6042 3.7369-2.4988 5.8764-2.5978zm152.28 1.5882c0.76035 0.0602 0.9167 1.2803 1.1463 1.8921-2.9226 5.3303-5.96 10.852-10.528 14.958-3.9984 4.8138-13.957 0.41845-12.456-5.69 0.12681-0.17826 0.26036-0.3456 0.40051-0.50134 2.1023-2.336 5.6352-2.2429 8.495-2.932 5.0967-0.60442 8.5466-4.9941 12.576-7.6774 0.13523-0.0439 0.25735-0.0584 0.36598-0.0497zm33.548 0.16572c1.5036 0.11688 3.2041 3.0912 4.5741 3.49 4.3286 5.2098 12.024 3.0676 16.762 7.3224 2.1362 4.9331-4.2414 8.2256-8.3223 8.0834-5.9352-2.2571-9.3008-8.1289-12.508-13.244-0.86273-1.4834-2.4873-3.375-1.5081-5.208 0.31964-0.34416 0.65568-0.47029 1.0027-0.44333zm-17.008 9.7642c1.4615 3.4615 5.2903 10.263 5.4759 14.962-3.229-4.2788-7.4113-3.5882-10.702 0.002 0.16291-5.1244 3.6463-9.9932 5.226-14.965zm158.68 1.7222c5.4316-0.10175 11.388 2.2784 15.772 4.8655 2.8173 3.8135 11.979 7.528 9.5639 13.366-4.0055-4.8791-16.179-13.598-21.582-4.4802-5.2449 7.3988-17.889-0.50209-14.364-8.1345 0.56264-0.86625 1.1836-1.617 1.8534-2.2622 2.4282-2.3389 5.4984-3.2935 8.7573-3.3546zm-317.65 0.23479c2.8531-0.0112 5.687 0.58721 8.3679 1.957 8.5336 4.0049 2.573 14.243-4.3393 14.932-5.1487-0.4667-7.5694-5.7543-11.845-7.5475-6.1638 0.64076-12.726 3.6568-16.001 9.1399-1.2274-1.488-1.1249-3.522 0.2776-4.8476 1.027-1.4874 2.2368-2.9357 3.5894-4.2993 5.2498-5.2924 12.66-9.3049 19.951-9.3346zm329.88 17.062c5.2034 0.11263 11.023 4.5422 13.244 8.9148-1.7408 1.0254-3.4327-0.10588-5.0768-0.7002-4.0239-0.46838-6.2039 3.3512-9.0791 5.3572-4.5431 1.0431-9.3886-5.566-6.2673-9.3719 0.48028-0.82934 1.0195-1.5203 1.6062-2.0868 1.595-1.5402 3.5365-2.1571 5.5726-2.113zm-340.71 0.0788c2.8241-0.0504 5.4589 1.1452 7.1512 4.2744 2.9938 3.7601-1.405 9.9979-5.9013 9.4327-2.9255-2.1668-6.7701-7.453-10.919-4.889-1.0961 0.9192-4.8976 0.5975-2.7166-1.0759 0.53976-0.97365 1.2763-1.935 2.1517-2.8312 2.6591-2.7222 6.6028-4.8464 10.234-4.9111zm58.271 13.209c-5.9766-0.0722-11.045 4.6926-14.729 9.2518-19.338 19.007-39.101 37.602-58.35 56.72 0.12625 0.1251 0.2535 0.24921 0.37979 0.37428h6.9026c-0.12989-0.12263-0.25958-0.24618-0.38946-0.36875 19.059-18.382 38.723-36.237 56.82-55.588 1.8899-3.5016 5.2748-4.9635 8.8651-4.9856 4.069-0.0251 8.4012 1.7985 11.115 4.5976 8.0752 9.1786 19.116 16.007 25.432 26.615 2.2398 9.7867-0.12372 19.815 0.0608 29.73h3.0881c-0.12313-3.786 0.21482-7.548 1.5938-11.257 0.16737-6.7981 0.58382-13.908-1.9929-20.369-3.6764-7.4082-10.512-12.457-16.193-18.215-5.2095-6.152-11.607-11.238-18.325-15.62-1.4702-0.59375-2.8979-0.86857-4.2772-0.88526zm224.13 0.598c-1.8241-0.0352-3.6755 0.28425-5.3917 0.87835-5.7804 3.4304-10.738 7.8797-15.447 12.62-4.7088 4.7405-9.1674 9.7718-13.947 14.367-7.6593 7.4824-7.296 19.042-6.0104 28.81 0.80678 2.9685 1.2167 6.0204 1.2402 9.0722h3.0176c-0.002-1.6176-0.0589-3.2339-0.20716-4.8462 0.0288-9.0441-2.8005-18.923 1.6324-27.348 2.2814-2.666 4.6971-5.2023 7.1788-7.6746 5.4597-5.439 11.24-10.568 16.618-16.084 3.0693-2.789 7.0456-4.6345 11.069-4.5865 1.8289 0.0217 3.6683 0.43507 5.4359 1.3286 19.15 20.544 39.692 39.93 60.123 59.211h6.9026c-21.193-20.909-42.805-41.415-64.069-62.253-2.1399-2.3937-5.1053-3.4368-8.1455-3.4955zm-290.33 0.0594c0.80805-0.0461 1.6278 0.31548 2.4044 1.3065 5.2488 4.6358-1.5977 9.9115-5.1279 12.688-3.929-1.0325-3.9206-6.9949-2.0412-9.8512 0.47837-0.77163 1.105-1.6593 1.8202-2.4155 0.88518-0.93575 1.9055-1.6685 2.9444-1.7277zm356.71 0.18092c5.0109 0.0401 9.0043 12.068 2.5812 13.63-3.3796-2.7819-10.214-7.5331-5.4096-12.276 0.93806-0.9573 1.9005-1.3609 2.8284-1.3534zm-290.69 6.5697c-2.7686 0.0409-5.4924 1.212-6.9965 3.5853-18.495 18.264-36.135 37.343-55.237 54.976 0.1346 0.12505 0.26743 0.25185 0.40189 0.37703h18.475c0.03821-0.37055-0.01037-0.74992-0.18368-1.1394-0.88258-1.8251-2.383-3.2488-3.4458-4.9553 0.22688-0.54131 0.45623-0.92347 0.68501-1.1739 0.20018-0.21912 0.40111-0.33697 0.60076-0.37427 1.3976-0.26105 2.7598 3.466 3.7731 4.6376 0.87501 0.99645 1.1273 2.0046 1.0178 3.0052h5.3323c0.02616-0.0947 0.05731-0.18743 0.08149-0.28311-1.1294-4.4091-4.4071-7.8244-6.7368-11.602 0.59857-0.64664 1.1695-0.9433 1.7153-0.97641 2.9471-0.1788 5.1712 7.3133 7.1788 8.7132 1.1404 1.3807 1.4894 2.7724 1.3521 4.1487h6.085c-0.02799-0.79445 0.10605-1.6136 0.34389-2.2221 2.8332-1.8871 7.0588-0.1892 10.502-0.44747 14.61-0.41726 28.917-4.7317 41.378-12.332 0.4684-0.33859 1.1072-0.48127 1.6987-0.45851 1.3014 0.0501 2.3748 0.9021 0.90736 2.2373-10.825 8.0944-24.343 11.073-37.464 13.139 0.21384 0.0258 0.42821 0.0562 0.64219 0.0829h21.155c-0.0929-0.0354-0.18463-0.0739-0.27759-0.10913 4.8756-1.791 9.5421-4.3504 14.526-5.719 1.7001 1.1811-2.5916 3.5924-2.5412 5.8281h8.5709c-0.041-3.1276 0.17354-6.2486 0.91151-9.3554-0.64592-6.5233 2.2056-13.428-1.0731-19.603-6.4702-10.953-17.949-17.32-26.113-26.787-1.6817-2.1453-4.4958-3.2338-7.2644-3.193zm223.62 0.46c-3.4942 0.0129-6.9432 1.8692-8.8982 4.9401-4.222 5.3326-10.091 8.8475-14.817 13.587-0.6752 0.67705-1.3268 1.38-1.9473 2.1158-3.2474 4.0782-7.6468 7.7165-8.8651 13.019-0.50176 8.293 1.2538 16.57 1.3452 24.819h8.5599c-0.0343-0.2369-0.12288-0.47222-0.28036-0.70572-0.93964-1.5527-2.1178-2.9438-3.0535-4.4926 4.9931 0.27313 9.8175 3.3855 14.648 5.1984h20.165c-12.763-2.4833-27.02-4.8964-36.311-14.406 0.0712-0.11737 0.15162-0.21905 0.24169-0.30384 0.31527-0.29672 0.73406-0.40602 1.1753-0.42261 0.44123-0.0166 0.90574 0.0604 1.3106 0.13673 15.115 9.1077 32.972 14.197 50.634 12.35 1.5466-0.23199 2.3515 1.1655 2.4459 2.6461h6.0132c0.25821-3.7703 4.2978-6.8175 5.8143-10.089 0.23854-0.72171 0.62944-1.3368 1.0938-1.7705 0.51079-0.47714 1.1108-0.73499 1.6959-0.67258 0.58518 0.0624 1.1561 0.44525 1.6076 1.2471-2.3001 3.6463-5.3231 6.9598-6.6126 11.165-0.009 0.04-0.0113 0.0801-0.018 0.12013h5.6513c-0.019-1.9109 0.75561-3.8053 2.6945-5.4704 0.22307-0.2774 0.42662-0.51281 0.61319-0.70848 0.52476-0.55034 0.90914-0.79207 1.1739-0.81207 1.1474-0.0866 0.0528 4.0015-1.5648 5.2909-0.57062 0.58046-0.80753 1.1463-0.82588 1.7001h18.533c-19.819-18.453-38.128-38.424-57.564-57.298-1.4711-0.81496-3.0687-1.1894-4.657-1.1836zm-223.77 5.3088c3.8995 0.0276 8.0807 3.5821 8.6717 7.9715 1.0197 9.2803-2.8117 19.165-10.144 25.09-1.9158 1.885-5.2337 5.8098-8.1179 3.1171 5.6479-3.4479 9.1978-10.666 8.767-17.12-3.9075-3.8386-10.8-10.501-4.6031-15.66 0.35828-0.65035 0.76558-1.1964 1.2098-1.649 1.2078-1.2304 2.6905-1.7606 4.2164-1.7498zm222.96 0.29002c5.3365 0.087 11.392 6.4088 8.1193 11.732-1.1663 4.374-7.9427 5.8287-6.1706 11.072 1.5992 5.2008 3.9096 10.867 8.959 13.633-3.2847 2.7-6.4524-1.8555-8.6441-3.733-7.5249-6.4598-12.843-18.666-8.216-28.101 0.46052-1.323 1.1008-2.3244 1.8589-3.0508 1.1609-1.1122 2.5992-1.5767 4.0935-1.5523zm-110.87 4.7343c1.323 0.0335 2.6266 0.55521 3.8546 1.8023 2.9218 2.2474 6.7164 3.4758 8.8568 6.6277-4.6185-0.24304-8.7215-4.2092-13.532-4.3145-4.1284 1.0976-7.7353 3.8735-12.022 4.3835 0.47501-0.52115 1.4209-1.559 1.8921-2.084 2.8345-2.2287 6.9817-6.5157 10.95-6.4151zm-95.91 9.3098c3.5307-0.15509 7.1376 5.5454 6.241 9.1841-3.2265 6.9804-10.574 10.459-16.955 13.932-4.2966-0.5572 0.60559-4.3824 1.6697-5.9773 4.384-3.9225 3.7197-10.066 5.8944-15.033 0.24904-0.37691 0.50797-0.69765 0.77478-0.96675 0.75042-0.75681 1.5607-1.1036 2.3754-1.1394zm191.51 0.40327c2.0394 0.0484 4.0253 1.4329 4.1763 3.9968 0.21689 6.9908 4.2436 12.618 8.7408 17.636-0.96454 3.4799-6.0856-0.56834-7.5848-1.6614-5.4119-3.5881-15.443-9.6486-9.5266-17.18 0.25186-0.6617 0.62296-1.2024 1.0703-1.6255 0.75493-0.7141 1.7281-1.0941 2.7166-1.1573 0.13592-0.009 0.27146-0.0113 0.40742-0.009zm-100.52 0.24169c-1.3556 5.7172-7.6053 8.0426-10.172 13.017-2.9869 1.81-6.0632-3.382-4.4553-5.7052 3.5312-4.2389 9.9331-4.7561 14.627-7.3114zm9.8152 0.0304c4.7066 2.1549 10.222 3.1779 14.217 6.6443 2.9412 2.3665-1.6831 9.3912-4.4733 5.7121-2.6231-4.6538-8.5083-6.8761-9.7434-12.356zm-132.47 0.26103c2.7751 0.0346 5.5638 1.7991 6.7507 4.8986 1.8976 6.6716-3.1147 12.945-8.4632 16.363-0.92053-1.5949-0.11758-3.1978 0.55519-4.686 1.6167-5.7244-8.9074-8.4088-4.1349-13.92 0.20772-0.2779 0.42944-0.53239 0.66153-0.7651 1.3055-1.3091 2.9657-1.9114 4.6307-1.8907zm254.83 0.51376c3.3562 0.0348 6.7819 2.4822 6.9785 6.306-1.7676 3.0676-5.3412 5.2261-5.8405 9.064 0.49122 1.9318 2.1384 3.8697 0.92531 5.8751-5.2116-3.2269-11.322-10.732-7.9908-17.132 0.41119-1.0783 1.0009-1.928 1.7042-2.5674 1.1869-1.079 2.6978-1.5612 4.2233-1.5454zm-127.48 0.93913c3.7198 4.011 8.4653 10.38 10.377 16.53-0.76921 3.2461-4.2227 9.5311-8.1096 6.4565-2.5712-5.598 0.24166-12.195-1.9307-18.015-2.1809 5.7732 0.4643 12.48-2.0702 17.991-3.8943 3.0482-7.3602-3.1544-8.1152-6.4841 1.8269-6.1808 6.3691-11.192 9.8484-16.479zm-139.51 10.26c2.574 0.0636 5.1473 1.8206 5.6527 4.6266-2.2672 4.8133-9.1796 7.471-13.517 3.954-1.7398-2.4141 1.9837-4.0922 3.1088-5.9096 0.24534-0.42924 0.52855-0.8018 0.84107-1.1228 0.94406-0.96975 2.1565-1.4585 3.4002-1.5385 0.171-0.0113 0.34216-0.0139 0.51376-0.01zm278.92 0.54c3.4925 0.054 7.178 4.1288 9.1026 6.9854-2.0175 6.8637-16.619 1.6802-13.276-4.5092 0.2651-0.38001 0.53781-0.71056 0.81758-0.99575 1.0492-1.0695 2.1918-1.4985 3.356-1.4805zm-223.46 1.7554c1.2906-0.0334 2.4347 1.8072 0.95155 2.5702-14.368 10.168-32.02 14.081-49.448 14.079-2.9408-0.14385-8.1241 1.753-9.0184-2.1835 12.943-0.89647 27.86-0.81327 40.845-5.7135 5.8658-1.8966 10.414-6.3828 16.114-8.6137 0.18313-0.0899 0.37082-0.13335 0.55519-0.1381zm168.8 0.41016c1.6514 0.13059 3.6736 2.0382 4.9539 2.4887 15.046 11.008 34.589 11.371 52.383 11.709 0.0952 3.6355-4.6546 2.7853-7.1001 2.7-17.809-0.31441-36.168-3.7544-51.07-14.113-0.36561-0.48054-1.5304-1.0783-0.97504-1.7567 0.10138-0.17303 0.20929-0.32043 0.32317-0.44608 0.42703-0.47117 0.93554-0.62497 1.486-0.58144zm-114.23 3.5134c0.22966-0.0139 0.46159-0.0125 0.6933 0.005 2.3833 0.17909 4.7314 1.9702 4.0755 4.4954-4.8427 2.9658-7.4985 8.9537-13.196 10.498 1.3856-4.0856 3.2271-8.0828 4.8931-12.072 0.43566-1.9463 1.9265-2.8294 3.5342-2.9265zm59.407 0.0594c1.2308 0.0542 2.3915 0.68855 3.1972 2.2083 1.6398 4.3294 3.8621 8.5053 5.3254 12.888-5.6109-1.3044-7.9223-7.4163-12.733-9.9975-0.98014-0.65064-0.92114-2.2088-0.28174-3.0867 1.2112-1.1939 2.9102-2.0819 4.4926-2.0122z"/>
</pattern>
</defs>
<rect id="rect5448" height="960" width="1600" y="0" x="0" fill="url(#pattern5450)"/>
</svg>
