<?xml version="1.0" encoding="utf-8"?>

<!DOCTYPE svg PUBLIC "-//W3C//DTD SVG 1.1//EN" "http://www.w3.org/Graphics/SVG/1.1/DTD/svg11.dtd">
<svg version="1.1" id="Layer_1" xmlns="http://www.w3.org/2000/svg" xmlns:xlink="http://www.w3.org/1999/xlink" x="0px" y="0px"
	 viewBox="0 0 1600 1600" enable-background="new 0 0 1600 1600" xml:space="preserve">
<g>
	<path d="M420.279,1179.721l4.409-4.409c-6.842-5.172-13.661-10.382-20.439-15.655
		C409.559,1166.125,414.904,1172.819,420.279,1179.721z"/>
	<path d="M182.52,1230.558l64.779-64.779l59.622,37.707c19.198,12.125,37.058,24.118,53.615,35.978l14.618-14.618
		c-12.147-17.216-23.933-34.434-35.36-51.654l-39.641-60.266l58.011-58.011l51.565,34.162c21.685,14.34,41.774,27.954,60.326,40.869
		l15.399-15.399c-16.071-22.847-30.791-44.658-44.142-65.432l-30.295-47.053l64.779-64.779l67.819,119.103l42.075-42.075
		l-93.461-93.461l65.745-65.745l74.447,74.447l62.522-62.522l-74.447-74.447l65.745-65.745l93.461,93.461l36.092-36.092
		l-93.461-93.461l65.745-65.745l93.461,93.461l83.789-83.789l-37.706-37.706l-60.266,60.266l-55.755-55.755l185.955-185.955
		l55.755,55.755l-59.944,59.944l37.706,37.706l83.791-83.791l-93.461-93.461l178.22-178.22l52.209,52.209l-112.475,112.475
		l26.749,26.749l101.84-101.84l14.503,14.503L1600,0H0v1600l301.623-301.623L182.52,1230.558z"/>
	<path fill="#FFFFFF" d="M535.738,1180.928c-15.042-18.043-29.222-36.524-42.541-55.433c-2.618-3.677-5.195-7.323-7.744-10.947
		l-15.399,15.399c4.242,2.953,8.431,5.882,12.509,8.761C497.387,1149.243,515.113,1163.313,535.738,1180.928z"/>
	<path fill="#FFFFFF" d="M1282.445,317.555l35.45,35.451l-101.84,101.84l31.583,31.583l115.376-115.376l54.465,54.465
		l-181.121,181.121L1114.86,485.14l-83.791,83.791l121.499,121.499l-65.744,65.745l-121.5-121.499l-83.789,83.789l121.499,121.499
		l-65.745,65.745L815.792,784.208l-36.092,36.092l121.5,121.499l-65.745,65.745l-84.759-84.759l-62.522,62.522l84.759,84.759
		l-65.745,65.745l-121.499-121.499l-42.075,42.075l88.165,154.834l-63.812,63.812l-62.844-42.219
		c-27.29-18.415-54.095-37.592-80.434-57.502l-4.409,4.409c4.625,5.938,9.272,12.029,13.941,18.287
		c4.512,5.801,10.852,14.508,19.014,26.105l8.058,11.925l8.057,11.28l8.056,11.925l43.83,62.522l-64.778,64.778l-154.835-88.164
		L0,1600h1600V0L1282.445,317.555z"/>
	<path fill="#FFFFFF" d="M425.841,1290.825c-13.753-15.898-26.538-32.117-38.351-48.665c-4.153-5.771-8.265-11.542-12.337-17.313
		l-14.618,14.618c4.567,3.271,9.053,6.535,13.419,9.785C390.28,1261.286,407.582,1275.143,425.841,1290.825z"/>
	<path fill="#FFFFFF" d="M409.727,1089.078l-51.565-34.162l-58.011,58.011l39.641,60.266c11.427,17.22,23.214,34.438,35.36,51.654
		l45.126-45.126c-5.375-6.902-10.72-13.595-16.031-20.064c6.779,5.273,13.597,10.483,20.439,15.655l45.365-45.365
		C451.501,1117.032,431.412,1103.418,409.727,1089.078z"/>
	<path fill="#FFFFFF" d="M306.92,1203.487l-59.622-37.707l-64.779,64.779l119.103,67.819l58.912-58.912
		C343.978,1227.605,326.118,1215.612,306.92,1203.487z"/>
	<path fill="#FFFFFF" d="M411.016,1002.062l30.295,47.053c13.351,20.774,28.071,42.585,44.142,65.432l58.161-58.161l-67.819-119.103
		L411.016,1002.062z"/>
	<path d="M387.49,1242.16c11.814,16.548,24.599,32.767,38.351,48.665c-18.259-15.682-35.561-29.539-51.887-41.575
		c-4.366-3.251-8.852-6.514-13.419-9.785l-58.912,58.912l154.835,88.164l64.778-64.778l-43.83-62.522l-8.056-11.925l-8.057-11.28
		l-8.058-11.925c-8.162-11.597-14.502-20.304-19.014-26.105c-4.67-6.258-9.316-12.349-13.941-18.287l-45.126,45.126
		C379.225,1230.618,383.337,1236.389,387.49,1242.16z"/>
	<path d="M493.197,1125.495c13.32,18.909,27.5,37.39,42.541,55.433c-20.626-17.615-38.351-31.685-53.176-42.219
		c-4.079-2.879-8.267-5.808-12.509-8.761l-45.365,45.365c26.339,19.91,53.145,39.087,80.434,57.502l62.844,42.219l63.812-63.812
		l-88.165-154.834l-58.161,58.161C488.002,1118.172,490.579,1121.818,493.197,1125.495z"/>
	<polygon fill="#FFFFFF" points="620.494,792.584 694.941,867.031 632.418,929.554 557.971,855.107 492.227,920.851 
		585.688,1014.312 779.699,820.301 686.238,726.84 	"/>
	<polygon points="707.187,1135.812 772.932,1070.067 688.172,985.308 750.695,922.785 835.454,1007.545 901.199,941.8 
		779.699,820.301 585.688,1014.312 	"/>
	
		<rect x="755.445" y="638.519" transform="matrix(0.7071 -0.7071 0.7071 0.7071 -263.3506 773.4267)" fill="#FFFFFF" width="92.977" height="132.174"/>
	
		<rect x="862.925" y="726.173" transform="matrix(0.7071 -0.7071 0.7071 0.7071 -307.8703 880.9075)" width="92.977" height="171.826"/>
	<polygon fill="#FFFFFF" points="1053.307,471.28 997.552,415.525 811.597,601.48 867.352,657.235 927.618,596.969 965.325,634.675 
		1031.069,568.931 993.363,531.224 	"/>
	
		<rect x="1012.458" y="576.64" transform="matrix(0.7071 -0.7071 0.7071 0.7071 -158.3369 942.8467)" width="92.977" height="171.826"/>
	<polygon fill="#FFFFFF" points="1166.102,404.893 1139.353,378.144 1251.828,265.668 1199.619,213.459 1021.399,391.679 
		1114.86,485.14 1282.445,317.555 1267.942,303.053 	"/>
	<polygon points="1236.359,606.639 1417.48,425.519 1363.015,371.053 1247.639,486.43 1216.055,454.846 1317.895,353.006 
		1282.445,317.555 1114.86,485.14 	"/>
</g>
</svg>
