<?xml version="1.0" standalone="no"?>
<!DOCTYPE svg PUBLIC "-//W3C//DTD SVG 20010904//EN"
 "http://www.w3.org/TR/2001/REC-SVG-20010904/DTD/svg10.dtd">
<svg version="1.0" xmlns="http://www.w3.org/2000/svg"
 width="1800.000000pt" height="1800.000000pt" viewBox="0 0 1800.000000 1800.000000"
 preserveAspectRatio="xMidYMid meet">
<metadata>
Created by potrace 1.12, written by Peter Selinger 2001-2015
</metadata>
<g transform="translate(0.000000,1800.000000) scale(0.100000,-0.100000)"
fill="#000000" stroke="none">
<path d="M0 9000 l0 -9000 8005 0 8005 0 0 2365 0 2364 -37 10 c-71 18 -648
172 -665 177 -17 5 -18 -108 -18 -2270 l0 -2276 -213 0 -213 0 -29 30 -29 30
-255 0 -256 0 -245 245 -245 245 255 0 255 0 182 -182 183 -183 0 2265 0 2265
-430 115 -430 115 1229 5 c1222 5 1230 5 1257 26 15 11 37 33 48 48 21 27 21
32 21 1091 0 1059 0 1064 -21 1091 -11 15 -33 37 -48 48 -27 20 -39 21 -471
21 -432 0 -444 -1 -471 -21 -15 -11 -37 -33 -48 -48 -21 -27 -21 -36 -24 -957
l-2 -929 -305 0 -305 0 0 1931 c0 1541 -3 1930 -12 1927 -7 -3 -248 -67 -535
-144 l-523 -139 3 -1529 2 -1529 219 -126 220 -126 -342 -5 c-324 -5 -342 -6
-368 -26 -54 -40 -68 -70 -72 -151 -6 -116 2 -133 133 -263 94 -94 123 -117
158 -125 l42 -11 3 -1874 2 -1874 37 -38 37 -38 -254 0 -255 0 218 -218 217
-217 0 -373 0 -372 -324 0 -325 0 -3 159 c-3 174 -7 187 -72 235 -26 20 -40
21 -361 21 -321 0 -335 -1 -361 -21 -65 -48 -69 -61 -72 -235 l-3 -159 -265 0
-264 0 0 1397 0 1398 265 -265 265 -264 2 -718 c3 -706 3 -717 24 -744 11 -15
33 -37 48 -48 26 -20 40 -21 361 -21 321 0 335 1 361 21 15 11 37 33 48 48 20
26 21 43 24 309 l3 281 -218 218 -218 218 255 0 254 0 -37 38 -37 38 -2 876
c-3 868 -3 877 -24 904 -11 15 -33 37 -48 48 -26 20 -40 21 -361 21 -321 0
-335 -1 -361 -21 -15 -11 -37 -33 -48 -48 -20 -26 -21 -43 -26 -467 l-5 -440
-40 41 -39 40 -255 0 -255 0 -126 124 c-116 115 -129 124 -178 135 -74 15
-111 14 -157 -8 -46 -21 -79 -54 -94 -94 -8 -20 -11 -488 -11 -1523 l0 -1494
-249 0 -249 0 -7 30 -7 30 -2064 0 c-1135 0 -2064 3 -2064 8 0 4 28 114 62
244 l63 237 297 3 c281 3 298 4 324 24 68 50 69 54 69 289 0 200 -1 215 -21
241 -50 67 -55 69 -285 72 -131 2 -209 7 -209 13 0 6 20 85 45 177 44 162 45
170 45 314 l0 148 919 2 c911 3 920 3 947 24 15 11 37 33 48 48 20 27 21 39
21 441 0 402 -1 414 -21 441 -11 15 -33 37 -48 48 -27 20 -41 21 -487 24 -252
1 -459 5 -459 9 0 3 23 92 51 197 l51 191 86 87 87 88 817 0 c450 0 818 3 818
8 0 4 -37 145 -82 315 l-82 307 -529 0 c-419 0 -528 -3 -524 -12 2 -7 13 -46
23 -86 l19 -72 -165 -165 -165 -165 -5 329 c-5 313 -6 331 -26 357 -11 15 -33
37 -48 48 -26 20 -40 21 -321 21 -281 0 -295 -1 -321 -21 -15 -11 -37 -33 -48
-48 -21 -27 -21 -38 -26 -929 l-5 -902 -235 -137 c-129 -75 -238 -137 -242
-137 -4 -1 -8 113 -10 253 -3 280 -3 279 -72 330 -26 20 -40 21 -361 21 -321
0 -335 -1 -361 -21 -15 -11 -37 -33 -48 -48 -21 -27 -21 -32 -24 -1352 l-2
-1324 -325 0 -325 0 0 1937 0 1938 92 92 93 93 -715 0 -715 0 -157 -157 -158
-158 0 1089 c0 912 -2 1087 -14 1083 -18 -7 -802 -217 -810 -217 -3 0 -6 -627
-6 -1392 l0 -1393 258 258 257 257 715 0 715 0 -173 -173 -172 -172 0 -1543 0
-1542 -385 0 -385 0 0 1157 0 1158 272 272 273 273 -715 0 -715 0 -277 -277
-278 -278 0 1526 0 1525 190 110 189 109 -1159 3 -1160 2 0 315 c0 173 2 315
4 315 3 0 80 21 173 48 l168 47 1612 5 c1608 5 1612 5 1639 26 15 11 37 33 48
48 20 26 21 40 21 301 0 261 -1 275 -21 301 -49 66 -58 69 -262 74 l-187 5 93
24 92 23 -2 986 -3 987 -400 107 c-220 59 -406 108 -412 108 -10 0 -13 -247
-13 -1205 l0 -1204 -37 -10 c-21 -5 -157 -42 -302 -80 -145 -39 -265 -71 -267
-71 -2 0 -4 616 -4 1369 l0 1369 148 -39 147 -39 1470 1 1470 1 -117 31 -118
31 -2 2337 -3 2338 -21 27 c-11 15 -33 37 -48 48 -26 20 -40 21 -321 21 -281
0 -295 -1 -321 -21 -15 -11 -37 -33 -48 -48 -21 -27 -21 -33 -26 -1439 -3
-777 -9 -1398 -13 -1382 -4 17 -35 132 -69 258 l-61 228 -513 -3 c-500 -3
-513 -4 -540 -24 -15 -11 -37 -33 -48 -48 -20 -26 -21 -40 -21 -341 0 -301 1
-315 21 -341 11 -15 33 -37 48 -48 27 -21 39 -21 651 -24 581 -2 624 -4 629
-20 3 -9 55 -204 116 -432 61 -228 113 -421 115 -427 4 -10 -447 -13 -2230
-13 l-2235 0 0 445 0 445 1234 2 c1229 3 1235 3 1262 24 15 11 37 33 48 48 20
26 21 40 21 341 0 301 -1 315 -21 341 -11 15 -33 37 -48 48 -27 21 -33 21
-1262 24 l-1234 2 0 445 0 444 204 3 c224 3 230 5 280 72 20 26 21 41 21 281
0 240 -1 255 -21 281 -50 67 -56 69 -280 72 l-204 3 0 405 0 404 750 0 750 0
0 1700 0 1700 -880 0 -880 0 0 -9000z m1370 7423 l0 -1288 -108 108 -107 107
-448 0 -447 0 0 405 0 405 42 0 c42 0 46 -3 250 -207 l208 -208 0 983 0 982
305 0 305 0 0 -1287z m-295 -6282 l290 -78 3 -1594 2 -1594 -197 -52 c-109
-29 -246 -66 -305 -82 l-108 -29 0 1754 c0 1397 3 1754 13 1754 6 -1 143 -36
302 -79z m358 -4857 l-63 -36 0 -1701 0 -1702 178 178 177 177 715 0 715 0
-173 -173 -172 -172 0 -743 0 -742 -305 0 -305 0 0 437 0 438 152 152 153 153
-715 0 -715 0 -157 -157 -158 -158 0 1828 c0 1005 -2 1827 -4 1827 -3 0 -113
-63 -247 -140 -133 -77 -244 -140 -246 -140 -1 0 -3 160 -3 355 l0 355 618 0
617 -1 -62 -35z m197 -4609 l-245 -245 -562 0 -563 0 0 152 0 153 92 92 93 93
715 0 715 0 -245 -245z"/>
<path d="M2860 15835 c0 -1754 -2 -2165 -13 -2165 -7 0 -39 27 -72 60 l-60 60
-767 -2 c-756 -3 -767 -3 -794 -24 -15 -11 -37 -33 -48 -48 -20 -26 -21 -41
-21 -281 0 -240 1 -255 21 -281 11 -15 33 -37 48 -48 27 -21 34 -21 1149 -24
l1122 -2 107 -107 108 -108 0 2153 0 2152 385 0 385 0 2 -1079 c3 -1073 3
-1080 24 -1107 11 -15 33 -37 48 -48 26 -20 40 -21 321 -21 281 0 295 1 321
21 15 11 37 33 48 48 21 27 21 34 24 1107 l2 1079 325 0 325 0 0 -3760 0
-3759 38 -10 c81 -22 798 -213 815 -217 16 -5 17 80 17 1681 l0 1687 -37 66
-37 65 20 76 19 76 628 3 c616 2 627 2 627 -17 0 -11 -4 -23 -10 -26 -17 -11
-11 -37 8 -33 13 3 22 -11 39 -62 l21 -65 1 106 1 106 213 165 c116 90 218
168 225 172 9 6 12 -161 12 -822 l0 -830 -51 -7 c-27 -4 -52 -5 -55 -2 -3 2
-34 98 -69 212 -36 114 -66 209 -68 212 -2 2 -258 2 -570 1 l-566 -3 70 -120
69 -120 0 -862 0 -863 -110 0 -110 0 0 -655 0 -655 -652 -1 c-372 0 -642 -4
-628 -9 14 -5 51 -16 83 -25 l57 -16 0 -614 0 -615 435 0 435 0 2 498 3 499
133 -36 132 -35 0 -563 0 -563 -1324 -2 c-1320 -3 -1325 -3 -1352 -24 -15 -11
-37 -33 -48 -48 -20 -26 -21 -40 -21 -301 0 -261 1 -275 21 -301 11 -15 33
-37 48 -48 26 -20 43 -21 398 -26 l370 -5 -336 -90 -336 -89 0 -806 0 -805
158 156 c136 136 171 165 263 218 l106 61 669 0 669 0 -213 -213 -212 -213 2
-681 c3 -671 3 -682 24 -709 11 -15 33 -37 48 -48 26 -20 40 -21 361 -21 321
0 335 1 361 21 15 11 37 33 48 48 21 27 21 37 26 1053 l5 1025 240 139 240
138 5 -379 c5 -363 6 -380 26 -406 11 -15 33 -37 48 -48 26 -20 43 -21 299
-24 174 -2 285 1 309 7 44 14 95 69 103 113 3 18 4 294 3 613 l-3 581 -317
-183 -317 -183 -661 2 -662 3 339 196 338 195 3 385 2 384 135 36 135 36 0
-424 0 -423 730 0 730 0 0 -317 0 -318 -192 -192 -193 -193 521 0 521 0 61
-228 c34 -125 72 -265 84 -312 l23 -85 5 373 5 373 60 -61 59 -60 256 0 255 0
242 -242 243 -243 0 753 0 752 180 0 180 0 0 355 c0 195 3 355 7 355 4 0 42
-9 85 -21 l78 -21 0 -1351 0 -1351 -63 62 -63 62 -254 0 -255 0 -260 260 -260
260 -5 -1042 -5 -1043 -49 183 -49 183 -318 -3 c-303 -3 -319 -4 -345 -24 -15
-11 -37 -33 -48 -48 -20 -27 -21 -39 -21 -441 0 -402 1 -414 21 -441 11 -15
33 -37 48 -48 27 -20 43 -21 484 -26 l457 -5 86 -320 85 -320 -1297 -5 c-1291
-5 -1298 -5 -1325 -26 -68 -50 -69 -54 -69 -289 0 -235 1 -239 69 -289 27 -21
31 -21 1410 -24 l1383 -2 22 -85 23 -85 34 0 34 0 0 1787 0 1788 263 -263 262
-262 255 0 254 0 63 -62 63 -62 0 1581 0 1581 143 -38 c78 -20 197 -52 264
-70 l123 -32 2 -1079 c3 -1071 3 -1078 24 -1105 11 -15 33 -37 48 -48 26 -20
40 -21 361 -21 321 0 335 1 361 21 15 11 37 33 48 48 21 27 21 38 24 734 l2
707 -348 348 c-323 323 -352 349 -398 362 -44 12 -17 13 268 14 l316 1 76 -45
c42 -25 79 -45 81 -45 3 0 5 563 5 1251 0 1186 -1 1250 -17 1245 -10 -3 -161
-44 -336 -91 l-318 -85 -764 0 -765 0 0 425 0 425 929 2 c921 3 930 3 957 24
15 11 37 33 48 48 20 26 21 41 21 281 0 240 -1 255 -21 281 -11 15 -33 37 -48
48 -27 20 -41 21 -462 24 l-434 3 -95 -55 -95 -55 -2 1754 c-3 1753 -3 1754
-24 1781 -50 68 -54 69 -289 69 -235 0 -239 -1 -289 -69 -20 -27 -21 -41 -24
-456 l-3 -428 131 -225 c71 -125 130 -232 130 -239 0 -7 -45 -89 -99 -183
l-99 -170 -848 -3 c-663 -2 -850 -5 -856 -15 -4 -6 -8 257 -8 587 l0 598 90
-83 c50 -46 119 -110 154 -142 l63 -57 650 2 650 3 -202 350 -202 350 -827 3
-828 2 -100 93 c-54 50 -105 93 -113 95 -9 2 -18 -20 -30 -75 -9 -43 -19 -86
-22 -95 -4 -17 -55 -18 -846 -20 l-841 -3 -76 -282 -75 -282 -3 1736 c-1 955
0 1738 2 1740 2 2 111 -58 242 -134 l239 -138 3 -697 2 -697 -55 -204 c-30
-112 -55 -209 -55 -215 0 -9 342 -12 1458 -12 l1457 -1 190 -331 190 -331 5
1404 c3 772 9 1414 14 1427 l8 22 -1925 0 -1925 0 -308 178 c-170 98 -318 183
-329 190 -15 9 586 11 2487 12 l2508 0 2 -1394 c3 -1391 3 -1395 24 -1422 50
-68 54 -69 289 -69 235 0 239 1 289 69 21 27 21 31 24 1422 l2 1394 265 0 265
0 2 -3250 3 -3250 430 248 430 249 3 3001 2 3002 325 0 324 0 3 -369 c3 -355
4 -371 24 -397 11 -15 33 -37 48 -48 27 -20 39 -21 461 -21 422 0 434 1 461
21 15 11 37 33 48 48 20 26 21 42 24 397 l3 369 304 0 305 0 2 -683 3 -683
305 177 305 177 908 1 907 1 0 -327 -1 -328 -133 -77 -133 -78 -1244 0 -1244
0 -98 -367 c-54 -203 -98 -371 -97 -375 0 -5 317 -9 705 -10 l706 -3 -261
-154 c-143 -84 -260 -160 -260 -167 0 -8 1 -14 3 -14 6 0 657 -90 685 -95 l32
-6 0 278 0 278 246 145 c135 80 249 146 254 148 6 2 10 -170 10 -456 l0 -460
23 -5 c12 -3 84 -13 160 -23 75 -10 137 -20 136 -23 0 -3 -62 -61 -137 -128
l-137 -122 -1192 -1 c-656 0 -1193 3 -1193 6 0 3 29 114 65 248 l65 242 -2
816 c-3 807 -3 817 -24 844 -11 15 -33 37 -48 48 -27 20 -39 21 -461 21 -422
0 -434 -1 -461 -21 -15 -11 -37 -33 -48 -48 l-21 -27 -3 -2188 -2 -2187 -156
-89 -155 -90 688 -3 c378 -1 703 0 721 3 44 8 99 59 113 103 6 24 9 141 7 329
-3 276 -4 293 -24 319 -11 15 -33 37 -48 48 -26 20 -42 21 -332 24 -282 3
-305 4 -300 20 3 9 55 206 116 437 62 231 115 423 119 428 4 4 405 6 891 5
l885 -3 -268 -240 c-226 -203 -288 -265 -263 -265 9 0 712 -80 744 -84 l32 -5
0 407 0 407 253 226 252 226 3 -661 2 -662 218 -23 c119 -13 220 -27 224 -30
3 -3 -37 -44 -89 -91 l-95 -85 -953 -5 c-944 -5 -954 -5 -981 -26 -15 -11 -37
-33 -48 -48 -20 -26 -21 -40 -21 -341 0 -301 1 -315 21 -341 11 -15 33 -37 48
-48 27 -20 42 -21 518 -26 l491 -5 -286 -259 c-158 -143 -287 -266 -287 -273
0 -7 6 -13 13 -13 7 0 167 27 355 60 189 33 347 60 352 60 6 0 10 111 10 284
l0 283 255 232 255 232 0 -471 c0 -444 1 -471 18 -466 9 3 188 34 397 71 209
36 388 67 398 69 16 4 17 -18 17 -345 l0 -349 -2294 -2 -2295 -3 -27 -21 c-15
-11 -37 -33 -48 -48 -20 -26 -21 -41 -21 -281 0 -240 1 -255 21 -281 11 -15
33 -37 48 -48 27 -21 35 -21 1184 -26 l1157 -5 -78 -20 -77 -19 2 -827 c3
-818 3 -828 24 -855 11 -15 33 -37 48 -48 27 -20 39 -21 471 -21 432 0 444 1
471 21 15 11 37 33 48 48 21 27 21 35 24 1000 l2 973 233 62 c127 34 242 64
254 67 l23 6 2 -2360 3 -2361 21 -27 c11 -15 33 -37 48 -48 26 -20 42 -21 392
-24 l364 -3 0 -444 0 -445 -270 0 -270 0 0 -2215 0 -2215 410 0 410 0 0 9000
0 9000 -7570 0 -7570 0 0 -2165z m11190 1730 l0 -255 -25 0 -25 0 0 255 0 255
25 0 25 0 0 -255z m-10110 123 l0 -123 38 57 c28 43 43 58 61 58 26 0 30 9
-37 -93 l-25 -38 20 -22 c11 -12 33 -43 48 -69 l27 -48 -24 0 c-17 0 -29 10
-43 36 -10 19 -29 49 -42 67 l-23 31 0 -67 c0 -60 -2 -67 -20 -67 -19 0 -20 7
-20 193 0 107 3 197 7 200 3 4 12 7 20 7 10 0 13 -27 13 -122z m6810 58 c0
-62 0 -63 25 -58 79 15 105 -29 105 -178 0 -93 -1 -100 -20 -100 -19 0 -20 7
-20 104 0 116 -9 136 -61 136 l-29 0 0 -120 c0 -113 -1 -120 -20 -120 -19 0
-20 7 -20 193 0 107 3 197 7 200 3 4 12 7 20 7 9 0 13 -17 13 -64z m2020 0 c0
-62 0 -63 25 -58 79 15 105 -29 105 -178 0 -93 -1 -100 -20 -100 -19 0 -20 7
-20 104 0 116 -9 136 -61 136 l-29 0 0 -120 c0 -113 -1 -120 -20 -120 -19 0
-20 7 -20 193 0 107 3 197 7 200 3 4 12 7 20 7 9 0 13 -17 13 -64z m2700 0 c0
-62 0 -63 25 -58 79 15 105 -29 105 -178 0 -93 -1 -100 -20 -100 -19 0 -20 7
-20 104 0 116 -9 136 -61 136 l-29 0 0 -120 c0 -113 -1 -120 -20 -120 -19 0
-20 7 -20 193 0 107 3 197 7 200 3 4 12 7 20 7 9 0 13 -17 13 -64z m2240 -136
l0 -199 -34 -7 c-49 -9 -94 4 -112 32 -21 31 -29 129 -15 182 14 50 48 76 91
70 l30 -5 0 57 c0 59 4 70 27 70 10 0 13 -40 13 -200z m-5445 145 c32 -31 33
-87 2 -136 -70 -115 -87 -145 -87 -156 0 -9 19 -13 60 -13 53 0 60 -2 60 -20
0 -18 -7 -20 -80 -20 l-80 0 0 28 c0 34 30 100 71 157 59 82 40 165 -30 138
-24 -9 -33 -8 -41 2 -8 10 -5 17 12 29 34 24 85 20 113 -9z m220 0 c32 -31 33
-81 2 -126 l-23 -34 23 -34 c33 -48 30 -95 -6 -132 -16 -16 -39 -29 -50 -29
-81 0 -117 88 -67 162 24 36 24 36 5 64 -43 66 -8 154 61 154 19 0 40 -9 55
-25z m690 0 c32 -31 33 -87 2 -136 -70 -115 -87 -145 -87 -156 0 -9 19 -13 60
-13 53 0 60 -2 60 -20 0 -18 -7 -20 -80 -20 l-80 0 0 28 c0 34 30 100 71 157
59 82 40 165 -30 138 -24 -9 -33 -8 -41 2 -8 10 -5 17 12 29 34 24 85 20 113
-9z m219 -8 c19 -25 21 -42 21 -157 0 -115 -2 -131 -21 -157 -29 -38 -79 -39
-107 -2 -22 30 -35 171 -23 252 14 94 83 127 130 64z m-9968 -11 c29 -33 31
-75 4 -109 l-20 -26 25 -25 c27 -27 32 -66 15 -111 -12 -32 -64 -55 -124 -55
-79 0 -76 -8 -76 180 0 125 3 170 13 174 6 3 41 4 76 3 55 -3 67 -7 87 -31z
m1332 -69 c18 -56 32 -108 32 -115 0 -26 18 -10 24 21 4 17 18 69 32 115 23
78 26 82 53 82 26 0 29 -4 34 -42 4 -24 9 -105 13 -180 l6 -138 -26 0 c-26 0
-26 1 -27 78 -1 42 -4 104 -8 137 l-6 60 -12 -40 c-6 -22 -21 -73 -33 -112
-31 -109 -47 -102 -90 40 l-35 112 -7 -45 c-3 -25 -7 -87 -7 -137 l-1 -93 -26
0 -27 0 7 143 c10 206 12 217 45 217 27 0 29 -5 59 -103z m1290 0 c18 -56 32
-108 32 -115 0 -26 18 -10 24 21 4 17 18 69 32 115 23 78 26 82 53 82 26 0 29
-4 34 -42 4 -24 9 -105 13 -180 l6 -138 -26 0 c-26 0 -26 1 -27 78 -1 42 -4
104 -8 137 l-6 60 -12 -40 c-6 -22 -21 -73 -33 -112 -31 -109 -47 -102 -90 40
l-35 112 -7 -45 c-3 -25 -7 -87 -7 -137 l-1 -93 -26 0 -27 0 7 143 c10 206 12
217 45 217 27 0 29 -5 59 -103z m1338 69 c29 -33 31 -75 4 -109 l-20 -26 25
-25 c27 -27 32 -66 15 -111 -12 -32 -64 -55 -124 -55 -79 0 -76 -8 -76 180 0
125 3 170 13 174 6 3 41 4 76 3 55 -3 67 -7 87 -31z m411 -59 l36 -89 29 69
c16 37 33 78 38 91 6 12 18 22 30 22 19 0 19 -1 -4 -62 -13 -35 -33 -85 -45
-111 -15 -34 -21 -69 -21 -118 0 -67 -1 -69 -25 -69 -24 0 -25 2 -25 69 0 50
-6 83 -24 122 -13 30 -33 80 -45 112 l-21 58 21 -3 c16 -2 29 -23 56 -91z
m1383 73 c0 -18 -7 -20 -55 -20 l-55 0 0 -55 0 -55 50 0 c43 0 50 -3 50 -20 0
-17 -7 -20 -50 -20 l-50 0 0 -85 c0 -84 0 -85 -25 -85 l-25 0 0 180 0 180 80
0 c73 0 80 -2 80 -20z m2110 -130 c0 -160 -7 -191 -47 -209 -52 -24 -125 -6
-116 28 4 16 9 19 23 11 30 -16 68 -12 80 9 5 11 10 84 10 165 l0 146 25 0 25
0 0 -150z m2290 -30 c0 -173 -1 -180 -20 -180 -19 0 -20 7 -20 140 0 128 -6
160 -25 130 -9 -15 -22 -12 -29 5 -6 16 59 84 82 85 9 0 12 -43 12 -180z m240
161 c0 -16 -8 -20 -37 -23 -37 -3 -38 -4 -41 -49 -3 -43 -1 -47 28 -59 55 -23
78 -107 45 -170 -18 -35 -43 -50 -82 -50 -37 0 -55 13 -48 33 5 11 15 14 39
10 27 -4 36 -1 50 18 21 31 20 82 -1 102 -10 8 -31 19 -47 23 -28 7 -28 8 -22
58 3 28 6 68 6 89 l0 37 55 0 c48 0 55 -3 55 -19z m467 -33 c14 -26 40 -83 59
-125 l34 -78 0 128 0 127 25 0 25 0 0 -180 0 -180 -23 0 c-18 0 -27 10 -41 48
-9 26 -37 88 -61 137 l-43 90 -1 -137 -1 -138 -25 0 -25 0 0 181 0 180 26 -3
c20 -2 33 -15 51 -50z m662 41 c62 -22 81 -113 35 -168 -25 -30 -25 -33 -10
-56 9 -13 25 -47 36 -75 l20 -50 -23 0 c-18 0 -27 13 -50 70 -26 64 -31 70
-58 70 l-29 0 0 -70 c0 -68 -1 -70 -25 -70 l-25 0 0 174 c0 130 3 176 13 179
22 10 83 7 116 -4z m1270 0 c62 -22 81 -113 35 -168 -25 -30 -25 -33 -10 -56
9 -13 25 -47 36 -75 l20 -50 -23 0 c-18 0 -27 13 -50 70 -26 64 -31 70 -58 70
l-29 0 0 -70 c0 -68 -1 -70 -25 -70 l-25 0 0 174 c0 130 3 176 13 179 22 10
83 7 116 -4z m-7639 -39 c0 -39 1 -40 35 -40 28 0 35 -4 35 -20 0 -16 -7 -20
-35 -20 l-35 0 0 -89 c0 -95 11 -118 49 -108 23 6 38 -22 19 -35 -27 -16 -66
-8 -87 18 -19 24 -21 40 -21 174 0 81 3 150 7 153 19 19 33 5 33 -33z m4030 0
c0 -39 1 -40 35 -40 28 0 35 -4 35 -20 0 -16 -7 -20 -35 -20 l-35 0 0 -89 c0
-95 11 -118 49 -108 23 6 38 -22 19 -35 -27 -16 -66 -8 -87 18 -19 24 -21 40
-21 174 0 81 3 150 7 153 19 19 33 5 33 -33z m3100 0 c0 -39 1 -40 35 -40 28
0 35 -4 35 -20 0 -16 -7 -20 -35 -20 l-35 0 0 -89 c0 -95 11 -118 49 -108 23
6 38 -22 19 -35 -27 -16 -66 -8 -87 18 -19 24 -21 40 -21 174 0 81 3 150 7
153 19 19 33 5 33 -33z m-11905 -56 c41 -44 46 -175 10 -231 -28 -43 -102 -43
-130 0 -20 31 -29 104 -20 162 13 88 88 125 140 69z m424 2 c15 -16 24 -41 28
-80 l6 -56 -68 0 -67 0 6 -32 c8 -43 33 -61 74 -54 24 4 35 1 39 -11 19 -49
-104 -41 -136 9 -16 26 -26 116 -17 163 15 77 89 110 135 61z m221 14 c28 -15
40 -65 40 -171 0 -92 -1 -99 -20 -99 -19 0 -20 7 -20 104 0 116 -9 136 -61
136 l-29 0 0 -120 c0 -113 -1 -120 -20 -120 -19 0 -20 7 -20 134 0 132 0 135
23 139 42 8 88 7 107 -3z m1145 -16 c41 -44 46 -175 10 -231 -28 -43 -102 -43
-130 0 -20 31 -29 104 -20 162 13 88 88 125 140 69z m836 7 c22 -18 24 -27 27
-139 l4 -121 -36 -7 c-82 -15 -136 18 -136 82 0 48 28 75 83 81 41 5 47 9 47
29 0 35 -28 56 -66 52 -23 -3 -35 1 -39 11 -13 34 77 44 116 12z m408 -5 c15
-16 24 -41 28 -80 l6 -56 -68 0 -67 0 6 -32 c8 -43 33 -61 74 -54 24 4 35 1
39 -11 19 -49 -104 -41 -136 9 -16 26 -26 116 -17 163 15 77 89 110 135 61z
m1242 5 c22 -18 24 -27 27 -139 l4 -121 -36 -7 c-82 -15 -136 18 -136 82 0 48
28 75 83 81 41 5 47 9 47 29 0 35 -28 56 -66 52 -23 -3 -35 1 -39 11 -13 34
77 44 116 12z m229 9 c28 -15 40 -65 40 -171 0 -92 -1 -99 -20 -99 -19 0 -20
7 -20 104 0 116 -9 136 -61 136 l-29 0 0 -120 c0 -113 -1 -120 -20 -120 -19 0
-20 7 -20 134 0 132 0 135 23 139 42 8 88 7 107 -3z m525 -16 c41 -44 46 -175
10 -231 -28 -43 -102 -43 -130 0 -20 31 -29 104 -20 162 13 88 88 125 140 69z
m674 2 c15 -16 24 -41 28 -80 l6 -56 -68 0 -67 0 6 -32 c8 -43 33 -61 74 -54
24 4 35 1 39 -11 19 -49 -104 -41 -136 9 -16 26 -26 116 -17 163 15 77 89 110
135 61z m226 14 c6 0 22 2 37 6 81 19 108 -23 108 -171 0 -98 -1 -105 -20
-105 -19 0 -20 7 -20 101 0 107 -9 139 -40 139 -44 0 -45 -5 -42 -125 4 -111
3 -115 -17 -115 -20 0 -21 5 -21 101 0 116 -8 139 -50 139 l-30 0 0 -120 c0
-113 -1 -120 -20 -120 -19 0 -20 7 -20 134 0 152 -2 148 80 141 25 -3 50 -5
55 -5z m465 0 c28 -15 40 -65 40 -171 0 -92 -1 -99 -20 -99 -19 0 -20 7 -20
104 0 116 -9 136 -61 136 l-29 0 0 -120 c0 -113 -1 -120 -20 -120 -19 0 -20 7
-20 134 0 132 0 135 23 139 42 8 88 7 107 -3z m245 -16 c41 -44 46 -175 10
-231 -28 -43 -102 -43 -130 0 -20 31 -29 104 -20 162 13 88 88 125 140 69z
m203 18 c7 -5 10 -16 6 -25 -4 -12 -14 -15 -35 -10 -60 12 -81 -46 -27 -75 81
-43 101 -100 52 -149 -22 -22 -32 -25 -75 -21 -57 6 -62 9 -53 32 5 12 14 15
45 10 67 -11 95 39 42 73 -85 52 -105 102 -58 148 24 25 76 33 103 17z m1082
-2 c28 -15 40 -65 40 -171 0 -92 -1 -99 -20 -99 -19 0 -20 7 -20 104 0 116 -9
136 -61 136 l-29 0 0 -120 c0 -113 -1 -120 -20 -120 -19 0 -20 7 -20 134 0
132 0 135 23 139 42 8 88 7 107 -3z m239 -14 c15 -16 24 -41 28 -80 l6 -56
-68 0 -67 0 6 -32 c8 -43 33 -61 74 -54 24 4 35 1 39 -11 19 -49 -104 -41
-136 9 -16 26 -26 116 -17 163 15 77 89 110 135 61z m2666 -2 c41 -44 46 -175
10 -231 -28 -43 -102 -43 -130 0 -20 31 -29 104 -20 162 13 88 88 125 140 69z
m703 20 c22 -6 22 -9 22 -161 l0 -155 -29 -29 c-21 -20 -39 -29 -63 -29 -41 0
-63 13 -55 33 4 12 15 14 40 10 39 -6 67 15 67 51 0 19 -4 22 -30 18 -66 -9
-107 56 -97 153 3 29 11 62 18 73 23 36 72 50 127 36z m600 -2 c7 -5 10 -16 6
-25 -4 -12 -14 -15 -35 -10 -60 12 -81 -46 -27 -75 81 -43 101 -100 52 -149
-22 -22 -32 -25 -75 -21 -57 6 -62 9 -53 32 5 12 14 15 45 10 67 -11 95 39 42
73 -85 52 -105 102 -58 148 24 25 76 33 103 17z m531 -16 c15 -16 24 -41 28
-80 l6 -56 -68 0 -67 0 6 -32 c8 -43 33 -61 74 -54 24 4 35 1 39 -11 19 -49
-104 -41 -136 9 -16 26 -26 116 -17 163 15 77 89 110 135 61z m199 16 c7 -5
10 -16 6 -25 -4 -12 -14 -15 -35 -10 -60 12 -81 -46 -27 -75 81 -43 101 -100
52 -149 -22 -22 -32 -25 -75 -21 -57 6 -62 9 -53 32 5 12 14 15 45 10 67 -11
95 39 42 73 -85 52 -105 102 -58 148 24 25 76 33 103 17z m191 -16 c15 -16 24
-41 28 -80 l6 -56 -68 0 -67 0 6 -32 c8 -43 33 -61 74 -54 24 4 35 1 39 -11
19 -49 -104 -41 -136 9 -16 26 -26 116 -17 163 15 77 89 110 135 61z m600 0
c15 -16 24 -41 28 -80 l6 -56 -68 0 -67 0 6 -32 c8 -43 33 -61 74 -54 24 4 35
1 39 -11 19 -49 -104 -41 -136 9 -16 26 -26 116 -17 163 15 77 89 110 135 61z
m-10799 -2 c0 -8 -22 -57 -50 -108 -27 -51 -50 -96 -50 -99 0 -4 23 -7 50 -7
43 0 50 -3 50 -20 0 -18 -7 -20 -75 -20 -70 0 -75 1 -75 22 0 12 22 63 50 115
l50 93 -45 0 c-38 0 -45 3 -45 20 0 18 7 20 70 20 57 0 70 -3 70 -16z m826
-11 c12 -54 46 -183 49 -183 2 0 17 55 45 168 8 31 16 42 30 42 11 0 20 -3 20
-6 0 -3 -14 -60 -30 -126 -47 -189 -79 -243 -137 -236 -37 4 -38 32 0 36 34 4
63 52 48 80 -9 16 -50 158 -65 225 -5 22 -3 27 14 27 13 0 22 -9 26 -27z
m3914 -77 c0 -116 9 -136 61 -136 l29 0 0 120 c0 113 1 120 20 120 19 0 20 -7
20 -135 l0 -134 -35 -7 c-19 -3 -51 -3 -70 0 -52 10 -65 43 -65 171 0 98 1
105 20 105 19 0 20 -7 20 -104z m5746 77 c3 -16 16 -66 28 -113 l22 -85 23 95
c13 52 25 103 28 113 2 9 13 17 24 17 15 0 19 -5 15 -17 -2 -10 -19 -71 -36
-135 -27 -98 -35 -118 -51 -118 -22 0 -29 16 -63 135 -39 135 -39 135 -16 135
13 0 22 -9 26 -27z m-256 -705 l0 -223 -38 -21 c-20 -12 -135 -78 -254 -148
l-218 -125 0 369 0 370 255 0 255 0 0 -222z m830 32 l0 -190 -357 0 -358 0 55
33 c460 269 598 346 628 346 l32 1 0 -190z m-7470 -830 c0 -6 -47 -186 -105
-401 -58 -216 -105 -393 -105 -395 0 -2 -616 -4 -1370 -4 -843 0 -1370 4
-1370 9 0 5 47 186 105 401 58 215 105 393 105 396 0 2 617 4 1370 4 918 0
1370 -3 1370 -10z m680 -5112 l0 -1043 -83 -46 -82 -46 -3 178 -2 179 -180 0
-180 0 -2 450 -3 451 -199 -346 -200 -345 -358 0 -358 0 0 506 c0 278 3 503 8
501 4 -2 50 -30 103 -61 l95 -56 513 2 514 3 206 357 c113 197 207 358 209
358 1 0 2 -469 2 -1042z m-2425 295 c-2 -16 -7 -133 -10 -260 -5 -187 -3 -233
7 -233 7 0 138 19 291 41 152 23 280 40 283 37 4 -5 -48 -225 -97 -410 l-10
-38 -453 0 -454 0 90 -156 c49 -86 88 -157 86 -158 -2 -1 -56 0 -120 2 l-118
4 0 207 0 208 -216 374 c-119 206 -220 382 -225 392 -9 16 16 17 470 17 l481
0 -5 -27z m1875 -2973 l0 -1500 -1500 0 -1500 0 0 1500 0 1500 1500 0 1500 0
0 -1500z m1708 -923 l-3 -473 -262 70 -263 71 0 805 0 805 263 70 262 70 3
-472 c1 -260 1 -686 0 -946z m-1158 470 l0 -634 -82 22 -83 22 -3 591 -2 591
57 16 c32 9 63 18 68 20 6 2 18 4 28 4 16 1 17 -36 17 -632z m-5080 -1544 l0
-518 -323 -185 -322 -186 -3 615 c-1 338 -1 615 0 617 3 3 629 172 641 173 4
1 7 -232 7 -516z m2469 428 c8 -5 11 -16 7 -28 -5 -15 -13 -19 -31 -15 -30 5
-55 -13 -55 -39 0 -15 8 -19 40 -19 36 0 40 -2 40 -25 0 -22 -4 -25 -40 -25
l-40 0 0 -90 0 -90 -35 0 -35 0 0 141 0 141 29 29 c22 22 39 29 68 29 21 0 44
-4 52 -9z m1211 -135 c0 -136 1 -145 20 -151 41 -13 16 -61 -26 -51 -61 16
-64 25 -64 187 0 161 -4 151 58 158 9 1 12 -34 12 -143z m-2249 97 c8 -8 8
-17 1 -30 -8 -14 -23 -18 -64 -18 -46 0 -53 -3 -53 -20 0 -14 15 -27 54 -46
63 -30 81 -51 81 -95 0 -68 -72 -107 -162 -90 -51 10 -60 19 -49 48 9 24 12
25 48 15 52 -13 93 -3 93 24 0 15 -14 26 -54 44 -59 26 -86 56 -86 95 0 31 25
68 54 81 27 11 123 6 137 -8z m1840 0 c8 -8 8 -17 1 -30 -8 -14 -23 -18 -64
-18 -46 0 -53 -3 -53 -20 0 -14 15 -27 54 -46 63 -30 81 -51 81 -95 0 -68 -72
-107 -162 -90 -51 10 -60 19 -49 48 9 24 12 25 48 15 52 -13 93 -3 93 24 0 15
-14 26 -54 44 -59 26 -86 56 -86 95 0 31 25 68 54 81 27 11 123 6 137 -8z
m809 -28 c0 -34 1 -35 40 -35 36 0 40 -2 40 -25 0 -22 -4 -25 -40 -25 l-40 0
0 -59 c0 -65 14 -86 54 -79 19 4 26 0 30 -16 7 -28 -11 -38 -67 -33 -76 7 -81
17 -85 167 -4 128 -3 128 20 133 46 9 48 8 48 -28z m-2413 -33 c7 -4 10 -17 7
-29 -5 -18 -11 -20 -44 -16 -31 4 -40 1 -54 -18 -21 -30 -21 -78 0 -108 13
-19 24 -22 55 -19 32 3 40 0 45 -15 8 -25 -11 -37 -59 -37 -101 0 -156 91
-111 185 8 18 30 40 47 49 34 17 94 21 114 8z m201 -16 c13 -13 18 -40 20
-115 4 -96 3 -98 -20 -104 -50 -14 -115 -7 -142 14 -57 45 -18 129 60 129 22
0 34 5 34 14 0 23 -28 39 -60 34 -27 -4 -40 6 -40 32 0 25 123 22 148 -4z
m253 -5 c28 -28 29 -33 29 -120 l0 -91 -35 0 -35 0 0 83 c0 86 -8 107 -42 107
-16 0 -18 -10 -18 -95 l0 -95 -35 0 -35 0 0 114 c0 130 -6 122 93 125 41 1 53
-3 78 -28z m549 14 c16 -9 36 -29 45 -45 32 -62 11 -146 -45 -175 -83 -43
-170 16 -170 115 0 91 90 146 170 105z m254 7 c3 -5 3 -17 0 -28 -4 -16 -12
-19 -40 -16 l-34 4 0 -96 0 -96 -35 0 -35 0 0 110 c0 105 1 111 23 120 28 11
114 13 121 2z m576 -7 c16 -9 36 -29 45 -45 32 -62 11 -146 -45 -175 -83 -43
-170 16 -170 115 0 91 90 146 170 105z m1000 0 c16 -9 36 -29 45 -45 32 -62
11 -146 -45 -175 -83 -43 -170 16 -170 115 0 91 90 146 170 105z m281 -14 c28
-28 29 -33 29 -120 l0 -91 -35 0 -35 0 0 83 c0 86 -8 107 -42 107 -16 0 -18
-10 -18 -95 l0 -95 -35 0 -35 0 0 114 c0 130 -6 122 93 125 41 1 53 -3 78 -28z
m-961 -64 c0 -86 8 -107 42 -107 16 0 18 10 18 95 l0 95 35 0 35 0 0 -114 0
-113 -31 -7 c-70 -14 -109 -7 -140 23 -28 28 -29 33 -29 120 l0 91 35 0 35 0
0 -83z m460 -32 l0 -115 -35 0 -35 0 0 115 0 115 35 0 35 0 0 -115z m140 -430
l0 -195 -372 -1 -373 -1 70 -19 c39 -11 94 -27 123 -35 l52 -15 0 -207 0 -207
-243 243 -242 242 -295 0 -295 0 195 195 195 195 592 0 593 0 0 -195z"/>
<path d="M17600 17635 c-15 -18 -25 -103 -16 -139 8 -34 33 -56 62 -56 l25 0
-3 103 c-3 101 -3 102 -29 105 -14 2 -31 -4 -39 -13z"/>
<path d="M13311 17709 c-6 -18 -11 -71 -11 -119 0 -100 13 -150 40 -150 27 0
40 50 40 150 0 100 -13 150 -40 150 -11 0 -22 -12 -29 -31z"/>
<path d="M3720 17634 c-8 -9 -16 -44 -18 -78 -3 -74 12 -111 48 -111 16 0 29
9 37 25 16 32 16 118 0 150 -15 30 -49 37 -67 14z"/>
<path d="M5510 17634 c-8 -9 -16 -44 -18 -78 -3 -74 12 -111 48 -111 16 0 29
9 37 25 16 32 16 118 0 150 -15 30 -49 37 -67 14z"/>
<path d="M8750 17634 c-8 -9 -16 -44 -18 -78 -3 -74 12 -111 48 -111 16 0 29
9 37 25 16 32 16 118 0 150 -15 30 -49 37 -67 14z"/>
<path d="M10360 17634 c-8 -9 -16 -44 -18 -78 -3 -74 12 -111 48 -111 16 0 29
9 37 25 16 32 16 118 0 150 -15 30 -49 37 -67 14z"/>
<path d="M14550 17634 c-8 -9 -16 -44 -18 -78 -3 -74 12 -111 48 -111 16 0 29
9 37 25 16 32 16 118 0 150 -15 30 -49 37 -67 14z"/>
<path d="M15255 17636 c-26 -19 -33 -117 -11 -151 13 -19 24 -25 44 -23 27 3
27 3 30 96 3 91 2 92 -21 92 -13 0 -31 -6 -42 -14z"/>
<path d="M7560 9365 l0 -315 315 0 315 0 0 315 0 315 -315 0 -315 0 0 -315z
m540 0 l0 -225 -225 0 -225 0 0 225 0 225 225 0 225 0 0 -225z"/>
<path d="M7740 9365 l0 -135 135 0 135 0 0 135 0 135 -135 0 -135 0 0 -135z"/>
<path d="M8370 9635 l0 -45 -45 0 -45 0 0 -45 0 -45 45 0 45 0 0 -45 0 -45 45
0 45 0 0 -45 0 -45 -45 0 -45 0 0 -45 0 -45 -45 0 -45 0 0 -135 0 -135 -180 0
-180 0 0 -90 0 -90 -45 0 -45 0 0 -45 0 -45 -45 0 -45 0 0 -45 0 -45 90 0 90
0 0 45 0 45 135 0 135 0 0 45 0 45 45 0 45 0 0 -45 0 -45 45 0 45 0 0 -45 0
-45 45 0 45 0 0 -45 0 -45 -45 0 -45 0 0 -90 0 -90 -45 0 -45 0 0 90 0 90 -45
0 -45 0 0 45 0 45 -45 0 -45 0 0 -45 0 -45 -45 0 -45 0 0 -90 0 -90 135 0 135
0 0 -45 0 -45 45 0 45 0 0 -45 0 -45 45 0 45 0 0 90 0 90 90 0 90 0 0 45 0 45
-90 0 -90 0 0 45 0 45 45 0 45 0 0 45 0 45 45 0 45 0 0 -45 0 -45 405 0 405 0
0 45 0 45 -180 0 -180 0 0 45 0 45 -45 0 -45 0 0 -45 0 -45 -135 0 -135 0 0
90 0 90 45 0 45 0 0 90 0 90 45 0 45 0 0 -90 0 -90 90 0 90 0 0 45 0 45 -45 0
-45 0 0 45 0 45 90 0 90 0 0 -45 0 -45 45 0 45 0 0 -45 0 -45 45 0 45 0 0 -45
0 -45 45 0 45 0 0 90 0 90 -90 0 -90 0 0 45 0 45 90 0 90 0 0 90 0 90 -45 0
-45 0 0 45 0 45 45 0 45 0 0 45 0 45 -45 0 -45 0 0 45 0 45 45 0 45 0 0 90 0
90 -45 0 -45 0 0 45 0 45 -135 0 -135 0 0 -45 0 -45 -45 0 -45 0 0 45 0 45
-45 0 -45 0 0 -45 0 -45 45 0 45 0 0 -45 0 -45 -90 0 -90 0 0 45 0 45 -45 0
-45 0 0 45 0 45 -180 0 -180 0 0 -45z m360 -90 l0 -45 45 0 45 0 0 -45 0 -45
45 0 45 0 0 -45 0 -45 -45 0 -45 0 0 45 0 45 -45 0 -45 0 0 45 0 45 -90 0 -90
0 0 -45 0 -45 45 0 45 0 0 -45 0 -45 -45 0 -45 0 0 45 0 45 -45 0 -45 0 0 45
0 45 45 0 45 0 0 45 0 45 90 0 90 0 0 -45z m630 0 l0 -45 -45 0 -45 0 0 -45 0
-45 -45 0 -45 0 0 -180 0 -180 -45 0 -45 0 0 45 0 45 -45 0 -45 0 0 -90 0 -90
-45 0 -45 0 0 135 0 135 90 0 90 0 0 90 0 90 45 0 45 0 0 90 0 90 90 0 90 0 0
-45z m-540 -405 l0 -90 -45 0 -45 0 0 -45 0 -45 -45 0 -45 0 0 -45 0 -45 45 0
45 0 0 -45 0 -45 -90 0 -90 0 0 -90 0 -90 -45 0 -45 0 0 45 0 45 -45 0 -45 0
0 90 0 90 -45 0 -45 0 0 45 0 45 135 0 135 0 0 90 0 90 -45 0 -45 0 0 -45 0
-45 -45 0 -45 0 0 45 0 45 45 0 45 0 0 45 0 45 180 0 180 0 0 -90z m-630 -315
l0 -45 -90 0 -90 0 0 45 0 45 90 0 90 0 0 -45z"/>
<path d="M9540 9365 l0 -315 315 0 315 0 0 315 0 315 -315 0 -315 0 0 -315z
m540 0 l0 -225 -225 0 -225 0 0 225 0 225 225 0 225 0 0 -225z"/>
<path d="M9720 9365 l0 -135 135 0 135 0 0 135 0 135 -135 0 -135 0 0 -135z"/>
<path d="M9540 8870 l0 -90 45 0 45 0 0 -90 0 -90 45 0 45 0 0 45 0 45 135 0
135 0 0 -45 0 -45 45 0 45 0 0 -90 0 -90 -45 0 -45 0 0 45 0 45 -45 0 -45 0 0
-45 0 -45 45 0 45 0 0 -135 0 -135 -45 0 -45 0 0 -90 0 -90 -90 0 -90 0 0 45
0 45 45 0 45 0 0 45 0 45 -45 0 -45 0 0 45 0 45 90 0 90 0 0 45 0 45 -45 0
-45 0 0 90 0 90 -45 0 -45 0 0 -45 0 -45 -45 0 -45 0 0 45 0 45 -45 0 -45 0 0
-90 0 -90 45 0 45 0 0 -90 0 -90 -90 0 -90 0 0 135 0 135 -45 0 -45 0 0 -45 0
-45 -45 0 -45 0 0 -45 0 -45 45 0 45 0 0 -45 0 -45 -45 0 -45 0 0 -90 0 -90
-45 0 -45 0 0 90 0 90 -45 0 -45 0 0 -45 0 -45 -135 0 -135 0 0 45 0 45 90 0
90 0 0 45 0 45 45 0 45 0 0 90 0 90 -90 0 -90 0 0 -45 0 -45 -45 0 -45 0 0 45
0 45 -45 0 -45 0 0 -45 0 -45 45 0 45 0 0 -90 0 -90 -45 0 -45 0 0 -45 0 -45
-45 0 -45 0 0 45 0 45 -45 0 -45 0 0 -45 0 -45 -45 0 -45 0 0 -45 0 -45 45 0
45 0 0 -45 0 -45 -90 0 -90 0 0 90 0 90 -45 0 -45 0 0 45 0 45 -45 0 -45 0 0
45 0 45 -135 0 -135 0 0 45 0 45 -45 0 -45 0 0 -90 0 -90 -45 0 -45 0 0 45 0
45 -45 0 -45 0 0 45 0 45 -45 0 -45 0 0 -135 0 -135 135 0 135 0 0 -45 0 -45
90 0 90 0 0 -45 0 -45 45 0 45 0 0 -45 0 -45 90 0 90 0 0 -180 0 -180 45 0 45
0 0 -135 0 -135 45 0 45 0 0 -45 0 -45 45 0 45 0 0 135 0 135 -45 0 -45 0 0
45 0 45 135 0 135 0 0 -45 0 -45 -45 0 -45 0 0 -45 0 -45 45 0 45 0 0 45 0 45
135 0 135 0 0 -135 0 -135 90 0 90 0 0 45 0 45 -45 0 -45 0 0 90 0 90 -45 0
-45 0 0 45 0 45 45 0 45 0 0 135 0 135 -45 0 -45 0 0 90 0 90 -90 0 -90 0 0
-45 0 -45 45 0 45 0 0 -45 0 -45 -45 0 -45 0 0 -45 0 -45 -45 0 -45 0 0 -45 0
-45 -45 0 -45 0 0 90 0 90 45 0 45 0 0 135 0 135 225 0 225 0 0 -45 0 -45 -45
0 -45 0 0 -45 0 -45 45 0 45 0 0 45 0 45 90 0 90 0 0 -45 0 -45 -45 0 -45 0 0
-45 0 -45 -45 0 -45 0 0 -45 0 -45 45 0 45 0 0 -90 0 -90 90 0 90 0 0 -135 0
-135 -90 0 -90 0 0 -45 0 -45 90 0 90 0 0 45 0 45 45 0 45 0 0 135 0 135 45 0
45 0 0 -135 0 -135 45 0 45 0 0 -45 0 -45 45 0 45 0 0 45 0 45 45 0 45 0 0
-45 0 -45 90 0 90 0 0 45 0 45 45 0 45 0 0 90 0 90 -45 0 -45 0 0 90 0 90 -45
0 -45 0 0 -45 0 -45 -45 0 -45 0 0 -45 0 -45 -45 0 -45 0 0 -90 0 -90 -45 0
-45 0 0 135 0 135 45 0 45 0 0 45 0 45 45 0 45 0 0 45 0 45 -45 0 -45 0 0 135
0 135 45 0 45 0 0 45 0 45 45 0 45 0 0 -90 0 -90 -45 0 -45 0 0 -45 0 -45 45
0 45 0 0 45 0 45 45 0 45 0 0 -90 0 -90 45 0 45 0 0 90 0 90 -45 0 -45 0 0 45
0 45 45 0 45 0 0 495 0 495 -45 0 -45 0 0 45 0 45 -45 0 -45 0 0 -90 0 -90
-90 0 -90 0 0 45 0 45 -45 0 -45 0 0 45 0 45 -90 0 -90 0 0 -90z m-90 -765 l0
-45 90 0 90 0 0 -90 0 -90 -90 0 -90 0 0 45 0 45 -45 0 -45 0 0 90 0 90 45 0
45 0 0 -45z m630 -45 l0 -90 -45 0 -45 0 0 90 0 90 45 0 45 0 0 -90z m-1800
-135 l0 -45 45 0 45 0 0 -45 0 -45 135 0 135 0 0 -45 0 -45 -90 0 -90 0 0 -45
0 -45 45 0 45 0 0 -45 0 -45 -45 0 -45 0 0 -45 0 -45 -45 0 -45 0 0 45 0 45
45 0 45 0 0 45 0 45 -45 0 -45 0 0 90 0 90 -45 0 -45 0 0 45 0 45 -90 0 -90 0
0 45 0 45 90 0 90 0 0 -45z m1440 -270 l0 -135 -135 0 -135 0 0 135 0 135 135
0 135 0 0 -135z"/>
<path d="M7650 8825 l0 -45 -45 0 -45 0 0 -180 0 -180 45 0 45 0 0 180 0 180
45 0 45 0 0 45 0 45 -45 0 -45 0 0 -45z"/>
<path d="M7560 7835 l0 -45 180 0 180 0 0 45 0 45 -180 0 -180 0 0 -45z"/>
<path d="M7560 7385 l0 -315 315 0 315 0 0 315 0 315 -315 0 -315 0 0 -315z
m540 0 l0 -225 -225 0 -225 0 0 225 0 225 225 0 225 0 0 -225z"/>
<path d="M7740 7385 l0 -135 135 0 135 0 0 135 0 135 -135 0 -135 0 0 -135z"/>
<path d="M9180 7295 l0 -45 90 0 90 0 0 45 0 45 -90 0 -90 0 0 -45z"/>
<path d="M8820 7160 l0 -90 45 0 45 0 0 90 0 90 -45 0 -45 0 0 -90z"/>
<path d="M2090 17545 l0 -345 245 0 245 0 0 65 0 65 -165 0 -165 0 0 85 0 85
135 0 135 0 0 65 0 65 -135 0 -135 0 0 65 0 65 155 0 155 0 0 65 0 65 -235 0
-235 0 0 -345z"/>
<path d="M2010 16725 l0 -345 80 0 80 0 0 223 1 222 35 -40 c41 -45 170 -237
229 -337 l39 -68 68 0 68 0 0 345 0 345 -80 0 -80 0 0 -201 0 -201 -76 108
c-42 60 -110 151 -151 202 l-75 92 -69 0 -69 0 0 -345z"/>
<path d="M2030 16185 l0 -65 105 0 105 0 0 -280 0 -280 80 0 80 0 0 280 0 280
105 0 105 0 0 65 0 65 -290 0 -290 0 0 -65z"/>
<path d="M2090 15085 l0 -345 245 0 245 0 0 65 0 65 -165 0 -165 0 0 85 0 85
135 0 135 0 0 65 0 65 -135 0 -135 0 0 65 0 65 155 0 155 0 0 65 0 65 -235 0
-235 0 0 -345z"/>
<path d="M2135 14604 c-16 -3 -40 -7 -52 -9 l-23 -5 0 -335 0 -335 80 0 80 0
0 115 0 115 39 0 c47 0 65 -19 143 -146 l51 -84 89 0 89 0 -28 50 c-15 28 -54
86 -85 130 l-57 80 27 14 c116 60 138 240 41 337 -52 52 -113 70 -249 74 -63
2 -128 1 -145 -1z m259 -158 c29 -18 41 -54 32 -91 -10 -39 -49 -58 -132 -63
l-74 -5 0 93 0 93 74 -5 c46 -3 85 -11 100 -22z"/>
<path d="M4410 8438 l0 -808 395 0 395 0 0 703 0 702 -395 106 -395 106 0
-809z"/>
<path d="M16330 3775 l0 -415 295 0 295 0 0 80 0 80 -200 0 -200 0 0 100 0
100 165 0 165 0 0 80 0 80 -165 0 -165 0 0 75 0 75 185 0 185 0 0 80 0 80
-280 0 -280 0 0 -415z"/>
<path d="M16212 3132 c2 -5 62 -94 135 -198 73 -104 133 -192 135 -195 2 -4
-29 -51 -68 -105 -73 -101 -152 -219 -193 -286 l-23 -38 110 0 109 0 82 125
c45 68 86 127 91 130 12 7 79 -78 138 -176 l47 -78 107 -1 107 0 -100 153
c-54 83 -119 180 -144 213 l-45 62 96 138 c53 77 117 167 141 202 l44 62 -108
0 -108 -1 -74 -110 c-41 -60 -80 -114 -87 -120 -9 -7 -34 22 -96 110 l-83 121
-108 0 c-60 0 -107 -4 -105 -8z"/>
<path d="M16510 1675 l0 -415 95 0 95 0 0 415 0 415 -95 0 -95 0 0 -415z"/>
<path d="M16250 960 l0 -80 125 0 125 0 0 -335 0 -335 95 0 95 0 0 335 0 335
125 0 125 0 0 80 0 80 -345 0 -345 0 0 -80z"/>
</g>
</svg>
