<?xml version="1.0" standalone="no"?>
<!DOCTYPE svg PUBLIC "-//W3C//DTD SVG 20010904//EN"
 "http://www.w3.org/TR/2001/REC-SVG-20010904/DTD/svg10.dtd">
<svg version="1.0" xmlns="http://www.w3.org/2000/svg"
 width="400.000000pt" height="400.000000pt" viewBox="0 0 400.000000 400.000000"
 preserveAspectRatio="xMidYMid meet">
<metadata>
Created by potrace 1.15, written by Peter Selinger 2001-2017
</metadata>
<g transform="translate(0.000000,400.000000) scale(0.100000,-0.100000)"
fill="#000000" stroke="none">
<path d="M3108 3784 c-5 -4 -8 -29 -8 -55 0 -58 -66 -194 -122 -251 -48 -48
-80 -56 -286 -68 -242 -15 -404 -59 -591 -162 -331 -183 -650 -603 -761 -1004
-12 -44 -26 -83 -31 -89 -6 -6 -110 -10 -267 -11 -324 -1 -440 -20 -625 -104
l-47 -21 -75 46 c-41 26 -92 64 -115 86 -48 47 -100 54 -124 17 -20 -32 -46
-125 -46 -164 l0 -33 68 2 c59 1 76 -3 145 -35 88 -42 93 -50 122 -178 58
-257 137 -412 285 -561 83 -83 194 -162 314 -224 44 -22 81 -45 83 -51 2 -6
-10 -28 -27 -49 -23 -29 -30 -48 -30 -81 0 -60 25 -84 86 -84 36 0 77 -15 188
-67 77 -36 180 -80 227 -97 l86 -31 -146 -1 c-118 -1 -166 -6 -251 -27 l-105
-25 -25 23 c-38 36 -109 64 -165 66 -27 1 -63 4 -78 8 -26 5 -22 8 43 30 89
30 120 63 120 126 0 56 -33 97 -98 122 -72 28 -283 25 -422 -6 -127 -28 -166
-45 -185 -82 -52 -100 47 -175 270 -205 l50 -6 -87 -22 c-107 -27 -148 -59
-148 -117 0 -48 27 -81 91 -108 149 -64 328 -66 512 -3 58 19 58 19 83 -1 14
-11 58 -32 97 -48 66 -26 83 -28 204 -29 121 0 142 3 230 31 119 37 153 66
153 132 -1 53 -18 85 -61 109 -28 16 -29 18 -9 14 14 -3 77 -10 140 -16 63 -6
174 -17 247 -26 216 -25 393 6 601 106 115 55 171 91 252 161 72 61 372 399
466 525 84 112 164 266 193 372 37 136 81 183 184 203 32 5 76 17 99 25 22 8
61 14 87 14 65 0 91 21 91 71 0 47 -23 96 -80 167 -53 67 -78 69 -114 8 -27
-46 -82 -86 -176 -130 -92 -43 -114 -38 -325 69 -103 52 -192 95 -199 95 -7 0
-20 8 -30 18 -15 18 -14 31 18 213 80 450 84 552 31 799 l-34 162 92 100 c51
55 105 106 120 114 49 26 67 51 67 93 0 32 -6 44 -32 67 -59 49 -200 99 -220
78z m135 -150 c23 -13 36 -24 29 -24 -7 0 -69 -56 -138 -125 -82 -81 -130
-122 -139 -119 -21 8 -19 27 5 42 12 7 40 43 64 80 24 37 53 76 65 86 13 12
21 31 21 51 0 53 14 54 93 9z m-643 -308 c-14 -8 -71 -30 -127 -49 -56 -20
-117 -44 -135 -53 -56 -28 -249 -163 -330 -231 -100 -83 -211 -207 -206 -230
7 -38 37 -21 139 80 95 96 332 282 405 320 63 32 319 128 410 153 145 39 149
33 43 -61 -128 -113 -368 -361 -470 -485 -108 -133 -213 -279 -205 -287 15
-15 93 57 179 164 182 227 553 604 637 648 40 21 45 8 43 -108 -4 -202 -43
-377 -159 -729 -41 -126 -72 -232 -69 -238 4 -6 -32 -10 -103 -10 -224 0 -452
-59 -702 -181 -77 -37 -140 -66 -140 -63 0 16 54 102 170 268 123 177 142 216
106 216 -23 0 -205 -237 -297 -387 -24 -40 -48 -73 -52 -73 -20 0 -219 104
-226 119 -11 19 6 71 63 200 47 107 102 201 171 293 37 49 55 82 55 102 0 27
-1 28 -22 14 -34 -22 -151 -182 -199 -272 -23 -43 -63 -130 -90 -195 -42 -102
-51 -116 -73 -119 -15 -2 -28 2 -31 10 -3 8 11 61 30 119 136 390 412 754 700
918 151 87 361 160 460 160 48 0 49 0 25 -13z m486 -411 c6 -117 3 -150 -26
-325 -44 -269 -68 -382 -85 -399 -11 -12 -24 -12 -71 -3 -32 7 -70 12 -86 12
-15 0 -28 2 -28 5 0 3 11 27 24 53 13 26 49 124 79 217 91 278 129 448 143
645 l8 105 18 -90 c10 -49 21 -148 24 -220z m-191 -786 c124 -25 241 -63 291
-95 22 -14 30 -22 18 -19 -275 74 -575 70 -889 -12 -106 -28 -131 -42 -122
-67 9 -22 27 -20 144 14 219 63 531 80 733 41 106 -21 336 -84 347 -95 11 -11
-3 -16 -93 -31 -132 -23 -384 -83 -509 -120 -142 -43 -443 -152 -472 -171 -28
-18 -30 -44 -4 -44 11 0 143 40 294 90 288 94 440 135 622 170 61 11 130 25
155 30 35 7 48 6 59 -5 12 -12 9 -23 -24 -77 -109 -178 -263 -344 -542 -582
-95 -81 -173 -154 -173 -162 0 -22 36 -16 83 13 61 38 307 255 413 364 93 96
192 217 233 283 13 20 25 35 28 33 7 -8 -67 -183 -111 -260 -24 -42 -64 -104
-88 -139 -68 -94 -322 -381 -421 -475 -197 -185 -405 -283 -639 -300 -88 -6
-488 24 -488 37 0 3 44 19 98 34 219 63 535 189 737 294 85 44 111 62 113 80
2 12 1 22 -1 22 -3 0 -117 -48 -254 -106 -445 -190 -645 -257 -801 -270 -104
-8 -196 17 -371 101 -75 36 -144 65 -153 65 -9 0 -19 4 -23 9 -9 16 231 209
318 256 40 21 53 65 20 65 -29 0 -201 -112 -288 -186 -69 -60 -77 -64 -58 -34
11 19 46 82 78 140 32 58 72 128 91 155 46 70 182 219 288 315 201 183 314
260 519 350 89 40 117 57 117 71 0 12 -7 19 -19 19 -22 0 -166 -57 -248 -99
-150 -75 -401 -271 -551 -429 -65 -67 -80 -79 -66 -52 111 227 422 498 740
646 325 151 582 190 869 133z m-1483 -63 c83 -18 292 -123 296 -149 5 -23 -60
-83 -105 -98 -30 -9 -41 -6 -128 36 -105 52 -175 68 -175 42 0 -15 190 -117
217 -117 31 0 20 -25 -32 -72 -76 -69 -293 -341 -300 -375 -11 -50 -70 -206
-83 -220 -11 -11 -18 -10 -42 2 -66 34 -85 -5 -23 -46 44 -29 48 -38 29 -64
-14 -20 -16 -19 -83 13 -212 104 -380 257 -477 433 -38 70 -90 199 -82 206 3
3 17 -19 32 -49 77 -153 244 -334 413 -446 74 -50 96 -60 107 -51 8 6 14 15
14 19 0 5 -37 34 -82 66 -108 75 -270 233 -341 332 -55 76 -134 219 -156 282
-12 37 -17 39 105 -51 218 -162 600 -386 621 -365 16 15 -39 58 -190 147 -94
56 -199 120 -232 142 -105 71 -305 229 -305 242 0 18 16 22 117 36 118 16 294
6 528 -30 104 -16 193 -27 197 -25 21 13 3 34 -39 48 -108 36 -432 71 -590 64
-62 -3 -113 -4 -113 -2 0 6 138 47 203 60 100 19 603 12 699 -10z m2453 -97
l25 -49 -23 0 c-13 0 -77 -15 -144 -34 -144 -41 -175 -45 -197 -27 -15 13 -12
16 36 32 112 36 223 88 241 114 23 31 31 27 62 -36z m-3027 -1218 c34 -18 25
-52 -19 -73 -54 -27 -130 -38 -259 -38 l-118 0 2 32 c1 29 -3 33 -39 43 -38
11 -39 12 -18 23 41 22 128 31 278 28 95 -2 158 -7 173 -15z m89 -303 c59 -28
31 -67 -69 -94 -33 -8 -104 -14 -188 -14 l-136 0 4 35 c4 31 2 35 -19 35 -13
0 -30 4 -37 9 -14 8 25 22 118 41 63 13 292 5 327 -12z m670 -40 c20 -16 16
-46 -10 -62 -42 -28 -148 -46 -276 -46 -122 0 -123 0 -118 22 9 33 -10 58 -43
58 -48 0 -35 18 23 30 126 27 390 26 424 -2z"/>
<path d="M2155 1506 c-49 -18 -124 -47 -165 -65 -135 -59 -442 -225 -484 -262
-40 -35 -40 -36 -17 -44 17 -5 41 2 90 27 287 146 502 253 594 293 81 36 107
52 107 66 0 26 -20 24 -125 -15z"/>
<path d="M3085 795 c-130 -29 -161 -41 -180 -69 -18 -24 -20 -89 -4 -118 14
-26 117 -73 197 -88 150 -30 407 14 474 80 23 23 28 37 28 77 0 59 -17 86 -73
115 -37 19 -60 22 -187 25 -124 2 -161 -1 -255 -22z m383 -72 c18 -3 37 -14
44 -26 9 -17 7 -24 -12 -39 -42 -34 -120 -50 -265 -55 l-140 -5 0 33 c0 30 -4
35 -44 50 l-44 16 84 17 c46 9 100 18 119 20 41 5 211 -2 258 -11z"/>
</g>
</svg>
