<?xml version="1.0" encoding="UTF-8" standalone="no"?>
<svg xmlns:rdf="http://www.w3.org/1999/02/22-rdf-syntax-ns#" xmlns="http://www.w3.org/2000/svg" height="889" viewBox="0 0 466 889" width="466" version="1.1" xmlns:cc="http://creativecommons.org/ns#" xmlns:dc="http://purl.org/dc/elements/1.1/">
<path d="m186.24 886.88c-5.6336-3.6078-5.7946-13.013-0.34662-20.244 9.6838-12.853 20.064-39.884 21.749-56.637 0.39698-3.9466 1.2083-6.8276 2.0652-7.3338 1.0094-0.59635 1.2078-1.7356 0.69636-4-0.39327-1.7414-0.86802-14.641-1.055-28.666-0.18697-14.025-0.48418-35.893-0.66047-48.595-0.19113-13.771-0.77059-24.268-1.4354-26-1.5709-4.0934-3.4178-31.208-3.7739-55.405-0.27008-18.355 0.0604-26.722 1.9874-50.317 0.30622-3.7495 0.20482-6.5997-0.22533-6.3338-1.7578 1.0864-18.46-8.5028-20.661-11.862-1.9717-3.0092-2.0352-8.2665-0.14588-12.083 1.1624-2.3482 1.2172-3.7215 0.28651-7.1795-0.98865-3.6732-0.89258-4.7554 0.68161-7.6785 1.7965-3.3359 1.7919-3.4596-0.23476-6.3059-2.33-3.28-6.17-12.52-6.17-14.86 0-3.447 2.2645-0.40518 5.3112 7.1344 1.7749 4.3923 5.1941 10.585 7.5981 13.762 4.438 5.8651 4.8892 9.5107 0.55355 4.4735-2.9028-3.3726-4.8557-3.621-3.9312-0.5 1.2713 4.2917 6.1408 9.2668 12.289 12.555 3.3987 1.8178 6.1794 3.9169 6.1794 4.6645 0 1.4366 8.2884 6.5303 10.626 6.5303 1.9259 0 1.7121-2.0323-0.37438-3.558-0.96163-0.70316-1.4229-1.604-1.025-2.0019 0.39788-0.39788 1.5222 0.17862 2.4984 1.2811 1.0307 1.164 4.2908 2.5348 7.775 3.2692 3.3 0.69553 6.6303 1.5064 7.4007 1.8019 0.77037 0.29552-0.45721-2.1244-2.728-5.3775-3.9097-5.6012-7.8106-16.574-6.5927-18.544 1.2424-2.0102 2.1784-0.55787 2.7498 4.2665 0.69863 5.8988 5.8252 15.292 9.6702 17.718 2.4675 1.5568 2.4774 1.5509 0.75816-0.45836-2.4278-2.8373-5.5366-12.316-6.325-19.285-1.0732-9.4861 1.0326-7.7882 2.3515 1.896 2.6047 19.125 6.3431 20.939 29.82 14.471 1.3258-0.36525 2.343-5.9519 2.4542-13.478 0.0447-3.025 0.50107-6.4 1.0141-7.5 0.61215-1.3124 0.81872 2.7413 0.60089 11.792l-0.33195 13.792 3.0788-0.64721c4.7376-0.99592 5.1091-1.8066 3.7789-8.2468-1.6685-8.078-1.5433-9.8302 1.2989-18.187 1.3744-4.0409 2.6119-9.4072 2.75-11.925 0.14-2.65 0.67-4.37 1.25-4.08 1.6174 0.80868 0.69866 11.456-1.484 17.198-2.3645 6.221-2.6682 9.5758-0.48859 5.3963 0.83331-1.5979 2.1296-3.3979 2.8807-4 3.7716-3.0234 6.0239-12.719 5.8299-25.095-0.16084-10.26 0.19118-13.357 2.4275-21.356 2.9234-10.457 2.8907-22.257-0.0916-33.097-0.82517-2.9994-1.3238-5.63-1.108-5.8458 0.69514-0.69514 4.534 13.408 4.534 16.657 0 1.7282 0.45 3.1422 1 3.1422 1.6373 0 1.1152-7.05-1.0286-13.889-2.22-7.08-7.77-18.11-9.11-18.11-1.2468 0-1.0558 1.4035 0.38933 2.8592 1.0022 1.0097 0.90315 1.1272-0.5 0.59301-0.9625-0.36643-1.8013-0.95559-1.864-1.3092-0.0627-0.35365-0.25609-1.768-0.42973-3.143-0.93497-7.4037-2.3147-7.2806-2.2933 0.20471 0.0334 11.671-2.7077 18.958-5.5115 14.652-1.2587-1.9329-1.3904-3.976-0.73253-11.357 0.75291-8.4467 1.4911-6.489 1.4264 3.7829-0.0315 5.0077 1.8622-0.98739 2.3502-7.4403 0.49972-6.6074 0.27255-8.0339-2.0671-12.979-1.45-3.05-2.63-6.14-2.63-6.86 0-1.8809-4.7997-11.758-6.1061-12.566-0.6062-0.37465-1.9306-2.5316-2.9432-4.7932-1.7454-3.8985-1.8855-3.9919-2.6969-1.7984-0.88536 2.3934-2.2021-2.7712-3.8453-15.083-1.1569-8.6679-2.7234-4.1731-2.1376 6.1338l0.54591 9.606-1.3818-5.5c-0.75997-3.025-1.678-8.425-2.0402-12-1.1538-11.39-2.5636-10.404-2.0053 1.4026 0.37916 8.0181 0.22056 10.608-0.59945 9.7876-0.61325-0.61325-1.3266-5.873-1.5852-11.688-0.51858-11.66-1.0876-12.642-7.08-12.221l-3.121 0.21939-0.002 10.309c-0.001 6.6176-0.36007 10.088-1.002 9.691-0.55241-0.34141-1-4.8437-1-10.059 0-7.72-0.27-9.44-1.5-9.44-1.7629 0-1.6177-0.84885-1.8305 10.7-0.16 8.42-2.67 16.9-2.67 9 0-4.0814-1.665-3.2342-2.2526 1.1462-0.28374 2.1154-2.2054 7.8529-4.2704 12.75-7.7208 18.31-8.7499 22.139-8.7003 32.371 0.0505 10.422-1.3382 10.522-2.4197 0.17485-0.77393-7.4045 0.29468-11.867 6.8143-28.455 5.9139-15.047 5.778-16.372-0.67471-6.577-10.598 16.086-15.199 35.988-10.957 47.39 0.69854 1.8774 0.63569 1.898-1.0251 0.33699-1.2482-1.1733-1.9191-3.7575-2.2781-8.7751-0.5849-8.1747-1.6955-9.8466-2.6356-3.9677-0.35688 2.2318-1.9353 6.6111-3.5077 9.7318-8.9068 17.678-7.6071 41.561 2.712 49.834 3.4786 2.7888 2.0335 4.3469-1.5717 1.6946-11.24-8.2689-12.205-34.883-1.9823-54.648 2.411-4.6616 3.224-8.6215 1.3599-6.6237-5.509 5.9042-11.525 25.607-11.577 37.917-0.0198 4.675-0.77802 11.875-1.685 16s-1.9191 9.489-2.2492 11.92c-0.33007 2.431-1.1626 4.606-1.8501 4.8333-1.9853 0.65639-1.5386-7.9596 0.76745-14.805 3.8958-11.565 3.5599-22.108-0.75244-23.617-0.97076-0.3396-3.4283-2.1957-5.4611-4.1247l-3.6961-3.5072-2.6942 1.9003c-1.4818 1.0452-3.3363 2.3503-4.1212 2.9003-2.4605 1.7242-5.958-3.8274-6.7344-10.689-1.4-12.42-3.55-12.03-3.55 0.66 0 8.5103 0.25741 9.8349 2.575 13.25 2.5785 3.7996 2.7975 9.3109 0.40238 10.128-0.53755 0.18334-0.97736 2.3305-0.97736 4.7714 0 4.9139-3.4045 7.9643-6.2516 5.6014-1.9883-1.6502-5.0507-10.989-4.2515-12.965 1.2275-3.0354 3.4923-33.652 2.5585-34.586-0.48479-0.48479-2.9456-1.1141-5.4684-1.3985-6.9972-0.78868-5.9415-5.6189 1.5635-7.1538 3.1967-0.65379 6.7598-8.8853 5.0204-11.598-0.35443-0.55276-0.49787-6.0675-0.31875-12.255 0.21662-7.4832-0.0303-11.25-0.73753-11.25-1.2142 0-4.1145 5.1763-4.1145 7.3434 0 1.9048-2.3616 2.7343-5.817 2.0433-1.8745-0.3749-3.2287-0.0366-4.1115 1.0272-2.2371 2.6956-5.7385 1.9804-6.9217-1.4138-0.77618-2.2266-1.6741-3-3.4828-3-1.496 0-3.0695-0.96534-4.0751-2.5-0.90094-1.375-2.233-2.5-2.96-2.5-2.0074 0-4.951-3.726-4.2947-5.4363 0.31886-0.83094 0.0352-1.8602-0.63035-2.2872-0.66556-0.42705-1.8244-2.1264-2.5751-3.7764-0.75077-1.65-1.8375-3.9-2.415-5-0.57747-1.1-3.4517-9.3769-6.3873-18.393l-5.3373-16.393 2.5102-15.133c1.3806-8.3232 2.7452-18.046 3.0325-21.607 0.57067-7.0742 2.3552-21.186 2.7304-21.591 0.12912-0.13957 5.6499-5.7952 12.268-12.568 6.6185-6.7729 13.149-13.684 14.512-15.358 4.704-5.7774 8.9543-4.7617 8.9543 2.1399 0 1.8073 0.44017 3.558 0.97816 3.8905s3.6906 4.7917 7.0058 9.9093 6.9761 10.16 8.1354 11.204c1.952 1.7594-1.169-3.3894-9.911-16.351-1.9477-2.8876-3.3181-5.4734-3.0454-5.746 0.66638-0.66639 3.752 2.8215 8.4546 9.5569 2.1353 3.0583 6.7304 9.3326 10.211 13.943l6.3289 8.3824-0.66651 9.057c-0.58676 7.9732 0.29205 27.739 2.1144 47.557 0.55694 6.0566 0.41683 6.6948-2.0539 9.3554-1.5133 1.6296-3.0088 4.7677-3.4838 7.3101-0.45773 2.4501-1.7853 5.4692-2.9501 6.7091s-2.1179 3.1479-2.1179 4.2399-0.4632 2.4488-1.0293 3.0149c-0.63512 0.63512-0.92235 6.3428-0.75 14.904l0.28 13.88 3.8501 2.6129c2.5682 1.7429 4.5496 4.2556 5.9511 7.5465 2.3788 5.5859 3.7503 6.9485 5.1988 5.1649 5.7126-7.0341 16.792-3.7437 15.524 4.6105-1.0385 6.8427 5.0854 9.1029 7.9039 2.9171 0.65933-1.4471 2.5203-4.2996 4.1354-6.3389 1.6152-2.0393 2.9449-4.3181 2.955-5.0639 0.0411-3.0484 6.96-17.913 11.263-24.197 2.5329-3.6992 4.9075-7.7233 5.277-8.9425 0.36947-1.2192 1.6008-3.2317 2.7364-4.4723 1.6387-1.7903 2.1541-3.9601 2.4983-10.518l0.43368-8.2627-4.4543-3.9817c-2.4499-2.19-6.0318-5.1833-7.9598-6.6519-8.3938-6.3938-5.1657-27.067 5.7231-36.652 4.0252-3.5432 4.464-4.3101 3.4984-6.1145-1.35-2.5225-1.1394-2.5235-5.4573 0.0242-3.3318 1.9658-4.0611 2.0194-12.523 0.91962-4.9416-0.64226-9.3593-0.93627-9.8171-0.65336-0.45777 0.28292-1.4706 0.11992-2.2507-0.36221-1.8895-1.1678 2.7831-3.0554 9.2639-3.7424 5.7028-0.60452 6.1448-1.7568 1-2.6072-6.7732-1.1195-10.684-0.61991-14.75 1.8842-2.2 1.355-5.125 2.4525-6.5 2.439-3.7572-0.0371 4.923-7.3444 11.5-9.6809 4.8154-1.7107 4.8843-1.7877 1.865-2.085-1.7291-0.17026-5.9546 0.837-9.4224 2.2461-7.4887 3.0429-7.9426 3.0853-7.9426 0.74187 0-8.8779 20.477-12.493 34.822-6.1478 5.4796 2.4239 5.9194 2.437 3.8172 0.1142-1.6618-1.8362-9.7269-4.538-16.889-5.6578-4.5771-0.7156-4.793-1.9364-0.60078-3.3978 4.3582-1.5193 10.822-1.3722 15.725 0.35781 5.0376 1.7774 5.3708 0.36925 0.63811-2.6964-4.3944-2.8466-4.416-3.7592-0.089-3.7592 2.3658 0 4.8257 1.0704 7.9627 3.4649 4.8954 3.7368 6.8166 3.3338 3.6003-0.75509-1.0925-1.3889-1.9864-2.8689-1.9864-3.2888 0-0.41994-0.71908-1.5581-1.598-2.5293-1.841-2.0343-1.1086-3.8918 1.5345-3.8918 2.3525 0 4.2611 2.3213 3.5125 4.2721-0.32199 0.83908-0.1099 1.8195 0.47129 2.1787 0.6431 0.39745 0.82362 0.0456 0.46119-0.89885-1.1925-3.1076 0.6299-1.4498 2.5555 2.3247 1.8759 3.677 5.0629 6.2248 5.0629 4.0475 0-5.0939-3.6594-14.761-6.645-17.555-6.273-5.8694-8.542-13.676-6.2239-21.413 3.6384-12.144-10.61-16.246-32.4-9.3293-14.636 4.6461-16.094 3.8698-7.1368-3.8 5.6136-4.8068 9.5279-6.9384 17.405-9.4782 1.2351-0.39823 1.1722-0.66765-0.35668-1.5258-2.9786-1.6718-17.883 0.062-28.01 3.2585-10.018 3.1622-12.723 3.6076-10.912 1.7974 3.4458-3.4458 20.529-8.8504 28.029-8.8673 2.8875-0.007 5.25-0.44148 5.25-0.96656 0-2.6872-16.341-2.364-25.813 0.51061-5.1372 1.559-9.1934 1.8658-9.1761 0.69408 0.016-1.0795 11.569-5.785 17.737-7.224 7.0886-1.6539 5.9318-2.6219-3.9671-3.3198-14.598-1.0291-27.945 2.0854-45.718 10.668-8.8733 4.285-9.3002 2.4438-0.56285-2.4272 2.2-1.2265 5.9574-3.3308 8.3497-4.6764 9.0964-5.1161 26.651-10.256 38.501-11.273l11.149-0.95711 9.75 4.8219c11.011 5.4458 12.909 5.3959 3.5-0.0921-11.138-6.4968-19.305-9.3804-18.167-6.4146 0.43395 1.1309-0.68982 1.119-6.7814-0.0717-15.548-3.0389-58.984 5.206-64.885 12.316-0.63895 0.76989-1.8941 1.3811-2.7893 1.3582-3.5897-0.0918 16.917-14.718 24.344-17.364 1.6334-0.58176 1.7221-0.8568 0.51637-1.602-1.1191-0.69163-0.53462-1.2902 2.528-2.5892 5.5341-2.3471 2.944-2.8339-4.6719-0.878-11.12 2.8558-18.632 7.2211-27.03 15.708-6.518 6.59-10.814 9.46-10.814 7.22 0-2.6805 13.735-16.419 22-22.006 12.897-8.7178 7.9161-8.0395-7.4736 1.0178-10.598 6.2375-14.799 9.5644-26.669 21.125-8.3117 8.0944-9.8602 9.299-9.8551 7.6666 0.0067-2.1339 22.572-23.216 26.26-24.534 0.68053-0.24321 0.9072-0.79644 0.5037-1.2294-0.40349-0.43295-3.5535 1.1399-7 3.4952-6.753 4.6149-5.9328 3.1489 2.9814-5.3288 5.8928-5.6043 6.0368-6.1605 1.1644-4.4972-6.0141 2.053-13.552 7.5161-17.005 12.324-1.8458 2.5702-3.5072 4.2191-3.6922 3.6643-0.52259-1.5678 2.6852-7.303 6.0933-10.894 2.99-3.15 3.015-3.25 0.804-3.25-2.623 0-15.111 5.97-15.111 7.22 0 0.45887-1.4625 2.4367-3.25 4.3951-4.0836 4.4741-5.6694 7.2774-5.7146 10.102-0.04223 2.6411-3.0622 9.2839-4.2206 9.2839-1.2119 0-0.99454-2.8897 0.70957-9.4322 2.12-8.1392-0.67272-8.0333-9.8887 0.37508-4.1605 3.7959-8.4824 6.5438-9.1858 5.8403-0.20837-0.20837 1.9099-2.1573 4.7073-4.331s7.3939-5.7616 10.215-7.9732c5.623-4.41 13.225-9.48 14.212-9.48 0.3449 0 2.042-1.193 3.7714-2.6511 3.0008-2.53 17.726-10.18 22.76-11.824 6.5962-2.1542-2.616-1.4261-10.258 0.81078-19.975 5.8469-35.636 14.305-47.507 25.656-5.654 5.41-8.35 7.15-8.35 5.39 0-2.2009 14.67-14.16 25.12-20.477 4.6088-2.7863 7.3108-4.7566 6.0044-4.3786-4.0104 1.1604-1.5357-1.2007 5.1692-4.9319 10.367-5.769 17.966-8.1808 41.456-13.157 4.7641-1.0092 2.2815-2.6302-3-1.9588-21.471 2.7294-48.014 12.357-66.406 24.087-6.8596 4.3748-7.5368 3.2343-1.1004-1.8534 2.8252-2.2332 6.5137-5.5897 8.1966-7.4588 10.608-11.782 30.069-21.219 43.859-21.27 2.3104-0.008 4.8758-0.48449 5.7008-1.0579 10.384-7.2178-26.083 1.6503-38.903 9.4605-5.1415 3.1323-9.5235 5.5197-9.7378 5.3054-0.70406-0.70406 4.7673-5.5811 7.735-6.8947 3.4152-1.5117 3.9268-3.2517 0.65572-2.2299-13.779 4.31-30.604 16.1-40.585 28.44-1.7059 2.11-2.2286 2.29-3.343 1.12-1.0398-1.08-1.0549-1.47-0.071-1.83 0.6875-0.25 1.25-1.04 1.25-1.76 0-0.71591 1.0619-1.9974 2.3597-2.8478 1.2978-0.85037 2.9853-2.1556 3.75-2.9005 0.76467-0.74493 3.6297-2.9134 6.3667-4.8189s5.887-4.2902 7-5.2993c1.113-1.0092 3.3736-2.5264 5.0236-3.3717 2.793-1.4308 11.355-9.9854 11.455-11.446 0.19496-2.8372-18.009 6.6506-26.705 13.919-5.3248 4.4503-7.4986 3.7913-2.8724-0.87082 3.9154-3.94 7.3624-6.89 8.0584-6.89 0.35965 0 5.2462-2.1996 10.859-4.8881 16.736-8.01 22.935-10.85 28.205-12.91 8.3189-3.2464 22.214-6.264 35.775-7.769 7.0638-0.78398 13.687-1.877 14.718-2.4289 2.8365-1.518 13.974-1.2025 19.924 0.56451 7.3117 2.1713 5.7199 2.9109-1.974 0.91722-4.268-1.106-7.9055-1.4083-11.361-0.94443-6.2066 0.83336-9.5038 2.3835-5.1658 2.4288 4.034 0.0421 2.4306 1.2654-2.6852 2.0489l-4.2314 0.64799 2.9641 1.2234c1.9546 0.80675 5.1098 0.99366 9.2639 0.54879 7.14-0.77 9.47-2.44 3.4-2.44-2.2 0-4.3174-0.51358-4.7054-1.1413-0.50818-0.82225 0.76307-1.0002 4.5476-0.63655 2.8891 0.27761 5.5425 0.9604 5.8963 1.5173 0.35388 0.55692 2.8934 1.0511 5.6434 1.0981 10.013 0.17121 23.537 4.2856 20.42 6.2122-0.74385 0.45972-1.8175 0.47027-2.386 0.0234-3.1718-2.4932-30.687-3.7984-32.557-1.5443-1.047 1.2616-0.50655 1.4711 3.7945 1.4711 3.2464 0 5.1952 0.46831 5.5249 1.3277 0.28021 0.73022 4.0408 2.1342 8.357 3.1199 10.292 2.3506 35.121 10.377 35.875 11.597 0.32461 0.52523 1.3157 0.95497 2.2024 0.95497 0.88673 0 2.3227 0.60089 3.191 1.3353 0.86831 0.73441 3.1537 1.9509 5.0787 2.7034 1.925 0.75245 4.0257 2.0634 4.6682 2.9131 0.64253 0.84977 1.3913 1.3207 1.6639 1.0466 0.76595-0.77019-2.5449-4.353-5.3322-5.7702-1.375-0.6991-3.9461-2.274-5.7135-3.4997-7.6996-5.3397-12.44-7.8837-13.752-7.3803-0.89965 0.34523-1.5231-0.23193-1.7223-1.5945-0.21268-1.4543-1.3491-2.4028-3.5623-2.9733-3.3-0.85-4.5-2.78-1.73-2.78 0.83721 0 5.1588 1.8284 9.6035 4.0632s8.3228 3.8216 8.618 3.5264c0.59624-0.59624-6.4729-8.8006-8.2627-9.5896-0.62382-0.275-2.4498-1.528-4.0576-2.7844-8.8473-6.9134-13.672-10.372-15.677-11.239-1.2355-0.53431-2.9214-1.3968-3.7464-1.9166-3.1263-1.9697-14.727-7.0459-20.241-8.8575-7.6489-2.5126-6.3001-3.5234 1.5662-1.1737 20.122 6.0106 23.567 7.6875 43.596 21.217 26.45 17.867 47.375 36.664 56.728 50.956 8.686 13.273 6.9267 5.3398-3.0578-13.789-12.051-23.088-24.696-37.809-43.158-50.246-5.45-3.67-7.86-6.17-5.96-6.17 0.2583 0 5.0958 3.1831 10.75 7.0735s11.633 7.9199 13.286 8.9545c3.1856 1.9938 13.813 13.543 16.848 18.309 0.99349 1.5602 2.002 2.6412 2.241 2.4021 0.87592-0.87592-6.8746-13.733-16.721-27.739-1.7401-2.475-7.8501-9.0694-13.578-14.654-5.7278-5.5848-10.018-10.399-9.5336-10.698 2.4061-1.487 22.645 21.415 39.638 44.853 2.3684 3.2668 0.43107-3.6958-3.339-12-5.7457-12.656-21.586-34.574-31.333-43.356-2.2245-2.0042-6.0726-5.7816-8.5513-8.3941-6.0983-6.4275-7.9123-6.2773-15.097 1.25-5.164 5.4102-8.0952 7.3174-8.0685 5.25 0.0168-1.2986 6.9004-9.5881 11.284-13.589 7.0175-6.4044 15.467-3.1415 29.338 11.329 3.4217 3.5697 6.5108 6.2008 6.8647 5.8469 1.68-1.68-9.2-17.84-12.01-17.84-0.75572 0-1.6994-0.52647-2.0971-1.1699-0.4816-0.77924-0.18437-0.96322 0.89006-0.55093 4.5445 1.7439-2.929-8.6964-15.09-21.081-15.751-16.04-19.228-15.255-26.824 6.0596-2.5867 7.2578-3.8871 9.5586-4.8553 8.5904-0.79501-0.79501 5.3071-17.798 8.129-22.651 4.3154-7.421 11.927-8.4018 20.333-2.6198 2.8606 1.9678 5.4088 3.37 5.6627 3.1162 0.93-0.925-11.02-11.386-20.2-17.693-8.0904-5.5573-9.9854-7.6413-8.5362-9.3875 1.7692-2.1318 3.0934-2.0446 3.0934 0.20384 0 1.1186 2.401 3.4112 6.25 5.9679 15.468 10.275 27.406 20.517 33.468 28.716 2.6076 3.5265 2.9992 1.7927 0.6322-2.7997-3.6967-7.1723-14.429-22.591-19.834-28.494-8.6149-9.4087-5.8598-8.6767 4.1696 1.1077 10.646 10.385 10.951 10.422 5.8014 0.68571-1.0182-1.925-2.8216-5.3451-4.0075-7.6001-1.1859-2.2551-2.904-5.1677-3.8179-6.4725-1.83-2.613-2.1-3.926-0.82-3.926 0.46172 0 1.3319 1.0808 1.9338 2.4018 0.60189 1.321 3.067 5.0335 5.4781 8.25 5.1516 6.8726 9.6615 13.898 13.383 20.848 1.4725 2.75 2.8588 4.4702 3.0806 3.8227 0.40848-1.1924-0.82983-4.5039-7.831-20.942-2.13-5.015-3.88-9.585-3.88-10.154 0-1.5364-6.8408-13.393-9.1666-15.888-2.3243-2.4932-2.1037-5.6635 0.42809-6.1511 1.2365-0.23812 1.7562 0.33612 1.7999 1.9885 0.0337 1.2778 1.7921 5.0233 3.9076 8.3233 10.977 17.124 21.323 36.844 26.75 50.987 3.2091 8.3631 6.2942 13.884 5.0368 9.0133-5.51-21.316-17.21-58.775-21.66-69.354-3.48-8.2521-3.87-11.146-1.49-11.146 1.006 0 1.3952 0.55202 1.0406 1.476-0.73547 1.9166 1.2662 8.3781 5.1187 16.524 2.4309 5.1399 12.188 34.126 15.762 46.825 0.35993 1.2789 0.87947 2.1003 1.1545 1.8253 1.2021-1.2021-10.321-47.096-14.074-56.054-0.89949-2.1469-1.4686-4.0703-1.2648-4.2742 0.86295-0.86295 2.535 2.6583 4.5953 9.6777 1.2108 4.125 2.5906 8.4 3.0662 9.5 3.9078 9.0371 5.5262 13.665 10.418 29.794 3.06 10.111 5.57 18.77 5.57 19.244 0 2.1957-1.9588-1.6699-3.979-7.8522-2.6771-8.1927-3.7098-8.2216-1.6724-0.04674 0.80334 3.2233 1.7561 7.9981 2.1173 10.611 0.90132 6.5193 2.0963 5.9537 3.8724-1.8328 0.82585-3.6205 2.1521-7.333 2.9473-8.25 0.79519-0.91699 1.7398-2.9047 2.0992-4.4172 0.35935-1.5125 1.0948-2.75 1.6343-2.75 1.6622 0 1.0933 3.9854-1.4095 9.875-7.3827 17.373-8.3754 24.846-5.1524 38.788 3.1815 13.762 4.7363 19.477 5.179 19.034 0.43151-0.43151-2.4206-21.248-3.5854-26.169-0.51712-2.1846-0.76966-4.1425-0.5612-4.3509 0.41803-0.41803 1.0852 2.0022 5.1081 18.531 5.0336 20.681 4.7965 13.182-0.52831-16.708-2.2265-12.498-2.6902-19.362-1.0285-15.224 0.50272 1.2518 2.256 9.5212 3.8962 18.376 2.9924 16.155 4.8723 22.128 3.7291 11.848-1.9175-17.243-3.6398-40.426-3.4545-46.5 0.11741-3.85-0.0763-10.532-0.43046-14.848-0.82992-10.115-0.0537-9.1641 2.7785 3.4037 2.2225 9.8623 2.2325 10.152 0.41309 11.972-1.3251 1.3251-1.7296 2.8205-1.3979 5.1687 0.25665 1.8173 1.3621 11.146 2.4566 20.731 1.0945 9.5851 2.1507 17.588 2.3471 17.785 1.07 1.07 1.5584-16.509 0.67268-24.212-1.2991-11.298-1.2934-11.404 0.48054-9.0589 1.4534 1.9215 1.4679 1.9215 1.4365 0-0.0615-3.7676-2.7636-22.301-3.402-23.334-1.8302-2.9613-3.796-41.211-2.2001-42.807 0.8722-0.8722 1.2443-0.28379 2.0235 3.1995 0.52196 2.3335 0.424 2.6667-0.44089 1.5-0.83304-1.1238-0.96615 0.50662-0.53068 6.5 1.4824 20.402 6.9256 64.177 8.1298 65.381 1.9568 1.9568-1.0775-32.191-5.0064-56.34-0.80162-4.9273-1.262-9.1542-1.0231-9.3931 0.58973-0.58973 1.1774 1.4134 2.1568 7.3519 0.68791 4.1709 0.90756 2.5956 1.3246-9.5 0.61454-17.822 1.7054-11.483 2.4769 14.392 0.66996 22.468 1.8312 21.748 3.053-1.8921 0.67-12.909 2.47-18.383 2.47-7.5 0 10.783 3.0887 1.774 5.8286-17 0.79509-5.4481 0.86378-4.558 0.42448 5.5-0.52655 12.056 0.10195 13.747 2.4785 6.6682l1.23-3.668-0.47721 4c-0.26247 2.2-1.8182 12.775-3.4572 23.5-4.2047 27.515-4.1443 27-3.1722 27 1.9733 0 7.2278-22.88 11.138-48.5 2.7163-17.796 2.7507-17.942 2.8893-12.17 0.0638 2.6565-0.58785 10.24-1.4481 16.853-2.0271 15.582-1.3178 16.142 3.7109 2.9288 0.50002-1.3138 1.1443-2.1535 1.4318-1.866 0.56694 0.56694-3.0851 13.143-4.6513 16.018-1.2658 2.3229-2.3824 14.771-1.1425 12.737 0.5028-0.825 1.4777-3.75 2.1664-6.5 0.68874-2.75 2.7476-9.725 4.5753-15.5s4.3282-13.875 5.5567-18c2.1704-7.2875 4.7572-12.269 3.6348-7-0.51681 2.4262-7.7575 33.459-9.2164 39.5-1.4806 6.1314 9.9623-12.679 13.515-22.217 0.65906-1.7693 1.8392-3.7488 2.6226-4.3989 1.2164-1.0095 1.2564-0.75886 0.27447 1.7168-2.32 5.864-5.12 19.398-4 19.398 0.33469 0 1.4308-2.1375 2.4358-4.75s2.4334-6.325 3.1742-8.25c2.9329-7.6208 12.704-25 14.055-25 2.1053 0 1.8016 1.1464-2.1605 8.1539-8.21 14.524-14.26 29.846-11.78 29.846 0.78913 0 1.6865-0.7875 1.9941-1.75 1.2158-3.8042 2.7764-6.25 3.9879-6.25 1.9365 0 2.7037-1.9172 1.3971-3.4914-0.67209-0.80982-0.81431-1.9549-0.33609-2.7062 1.12-1.756 4.33-1.921 4.33-0.223 0 0.75147-0.62379 1.1181-1.3973 0.82132-1.1164-0.42839-1.308 0.48254-0.95329 4.5314 0.28 3.145 0.05 5.067-0.6 5.067-0.58 0-1.05 0.498-1.05 1.107 0 0.60884 0.66269 0.85269 1.4726 0.54189 0.84567-0.32451 2.1064 0.33971 2.9612 1.5601l1.4886 2.1252 1.0193-2.681c0.93-2.448 8.06-10.515 8.06-9.121 0 1.2802-2.364 5.0999-4.8722 7.8723-1.4453 1.5976-2.1778 2.7013-1.6278 2.4528 4.8531-2.1927 6.6083-2.8286 10.75-3.8947 2.6125-0.67248 4.75-1.6624 4.75-2.1997 0-0.53736 0.62017-0.73905 1.3781-0.44818 0.75798 0.29086 1.8049 0.10205 2.3266-0.41959 1.481-1.481 11.772-2.476 10.893-1.0531-0.4 0.637-1.24 1.158-1.88 1.158-0.6407 0-7.7377 2.0771-15.771 4.6158l-14.606 4.6158 1.0368 3.8842c1.092 4.091 2.0017 4.7792 3.3239 2.5143 0.88-1.502 8.51-5.63 10.41-5.63 0.6547 0-1.8151 2.1375-5.4884 4.75-6.483 4.6107-6.6607 4.8526-6.0613 8.25 0.82035 4.6502 1.3488 4.9707 3.2984 2 2.5562-3.895 9.2954-11.013 11.578-12.229 1.7211-0.91673 1.8806-0.86456 0.96323 0.31508-0.60468 0.77755-3.1773 4.1137-5.717 7.4137s-5.5324 6.9474-6.6506 8.1052c-2.0909 2.1652-2.4857 4.0514-1.426 6.813 0.68127 1.7754 2.393 2.1523 2.393 0.52692 0-1.2219 6.8765-11.606 11.553-17.445 1.7618-2.2 3.5134-5.0125 3.8926-6.25 0.37915-1.2375 1.3889-2.25 2.244-2.25 1.3864 0 1.3792 0.24337-0.0664 2.25-0.89155 1.2375-2.7379 4.3557-4.103 6.9292-1.3651 2.5736-2.9491 4.9679-3.52 5.3208-0.82249 0.50833-4.9802 7.6635-6.8276 11.75-0.75769 1.676 4.6474 0.60663 6.3297-1.2523 5.0143-5.5407 23.792-11.916 31.074-10.549 4.7279 0.88695 4.3236 1.142-4.7976 3.026-13.556 2.8-28.682 9.5195-28.76 12.776-0.01 0.4125 4.5945 0.79486 10.232 0.84968 13.216 0.12852 18.748 1.6611 6.5 1.8006-8.3204 0.09479-11.198 1.2515-7 2.8135 2.6453 0.98419 7.25 4.5385 7.25 5.5962 0 0.51365-1.0125 0.21872-2.25-0.65541-11.559-8.1647-16.333-9.0016-20.657-3.6213l-3.2607 4.0575 3.8336-0.16971c2.1085-0.09334 4.7693 0.22371 5.9128 0.70456 3.7057 1.5582 14.403 8.8467 14.412 9.8195 0.005 0.5199 1.2179 2.2074 2.6958 3.75s2.208 2.8047 1.6224 2.8047c-0.58556 0-1.6691-0.72834-2.4079-1.6185-0.7388-0.8902-4.7314-3.8934-8.8724-6.6739-4.141-2.7804-7.6792-5.4271-7.8625-5.8815-0.55828-1.3836-3.5736-0.93119-7.9788 1.1972-5.26 2.541-5.33 3.974-0.2 3.974 3.0261 0 4.7696 0.71768 7.25 2.9844l3.2658 2.9844-4.2017-1.9844c-11.625-5.4902-23.171 5.3284-35.236 33.016-1.3182 3.025-3.6106 8.2-5.0943 11.5-5.8021 12.905-15.439 38.379-13.948 36.869 0.47204-0.47801 2.2545-4.6634 3.961-9.3009 7.3084-19.861 29.277-60.007 35.631-65.114 1.4885-1.1963 1.4383-0.92184-0.28286 1.5454-4.0804 5.8492-17.447 30.002-19.262 34.807-1.6534 4.3755 0.45218 2.2476 2.8739-2.9043 1.1951-2.5424 2.448-4.3475 2.7843-4.0112 0.33627 0.33627 0.09 1.6232-0.54721 2.8599-0.63723 1.2367-2.2488 5.1735-3.5812 8.7485s-4.2617 10.428-6.5096 15.228c-2.2479 4.8006-4.0938 9.9756-4.1022 11.5-0.0216 3.9393-2.4591 11.596-3.8379 12.056-0.86004 0.28668-0.89308-0.32184-0.12689-2.3371 0.56975-1.4986 0.84894-2.9116 0.62041-3.1402-0.3434-0.3434-3.6404 8.1971-3.6404 9.43 0 0.20948 0.45 0.10276 1-0.23716 1.6827-1.04 1.1464 2.0706-2.5 14.5-1.925 6.5617-3.5 12.621-3.5 13.465 0 2.9783 2.0367 1.4831 3.6984-2.7152 3.5846-9.0566 11.415-23.433 14.843-27.25l3.5919-4-0.63718 3c-0.73813 3.4753-0.32756 3.108 5.0309-4.5 10.341-14.682 30.253-34.842 40.452-40.956l6.5212-3.909 16.751-0.31746c9.213-0.1746 16.751-0.0411 16.75 0.29662-0.002 1.1012-9.0267 1.8859-21.689 1.8859h-12.408l-5.702 3.6417c-9.7032 6.1972-22.336 20.712-14.269 16.394 3.453-1.848 15.101-5.1766 16.883-4.8247 0.92614 0.18284-1.4661 1.3883-5.3161 2.6788-11.776 3.9471-23.17 12.681-33.412 25.61-8.3276 10.512-7.4819 10.654 3.1993 0.53657 3.5514-3.364 4.9961-4.1963 5.5968-3.2244 0.60631 0.98104 2.0784 0.22733 5.8615-3.001 5-4.22 14.25-9.79 16.33-9.79 1.7048 0-7.2641 10.503-20.644 24.175-21.109 21.57-11.437 14.563 14.096-10.213 12.802-12.422 31.234-27.047 33.906-26.903 0.60195 0.0323 0.23395 0.59484-0.81779 1.25-1.0517 0.65515-2.6313 1.8662-3.5101 2.6912s-4.9683 4.2643-9.0878 7.643c-12.133 9.9513-16.48 15.295-8.358 10.275 7.333-4.532 2.3068 1.3752-7.5792 8.9076-1.679 1.2793-3.0528 2.8373-3.0528 3.4622 0 0.62485-1.8937 3.0656-4.2082 5.4239-2.5934 2.6425-3.6273 4.2878-2.6943 4.2878 2.0618 0 6.7225-3.6132 11.419-8.8527 10.257-11.443 46.895-39.112 51.823-39.138 1.0118-0.005 2.6902-1.022 3.7297-2.2595 1.2174-1.4493 2.1641-1.8743 2.6603-1.1943 1.1996 1.6441 9.3402 5.1261 13.77 5.8901 3.5798 0.61734 12.162 4.4084 10.215 4.5123-0.43165 0.0231-6.1752-1.5395-12.764-3.4723-13.294-3.9001-11.011-4.116-20.952 1.9813-7.7286 4.7406-17.852 11.678-20.595 14.113-1.5977 1.4183-5.9134 5.0141-9.5905 7.9906-9.872 7.9915-9.9566 9.6983-0.25165 5.0805 2.7154-1.2921 12.362-4.9345 21.437-8.0942 19.164-6.6726 20.643-7.5671 12.45-7.5286-5.254 0.0247-12.988 2.1145-23.95 6.4715-5.2609 2.091 0.72788-1.595 7.0413-4.3339 7.5318-3.2674 16.712-5.1457 25.209-5.158 10.384-0.0149 4.3757 4.2839-16.75 11.984-16.799 6.1232-27.609 10.754-31.065 13.308-3.0668 2.2668-3.1231 2.2791 17.065-3.7355 19.717-5.8744 36.089-9.2724 48.938-10.157 5.5679-0.38348 10.361-1.082 10.652-1.5522 0.87252-1.4118-19.47-0.96127-28.521 0.63161-9.0417 1.5912-11.18 1.445-5.8807-0.40216 6.8909-2.4022 22.688-3.4728 33.262-2.2543 5.5274 0.6369 14.325 1.2155 19.55 1.2858 19.133 0.25739 31 3.4453 31 8.328 0 0.73817 0.73941 1.6259 1.6431 1.9726 0.90372 0.34679 1.366 0.90769 1.0272 1.2464-0.62716 0.62715-7.2846-3.8872-9.2529-6.2744-1.33-1.61-33.42-3.16-33.42-1.61 0 0.53032 2.7676 1.2773 6.1502 1.66 6.7883 0.768 22.415 5.6789 24.209 7.6077 0.88805 0.95502 0.5869 1.0815-1.3592 0.57081-1.375-0.36082-6.7041-1.77-11.842-3.1316-17.961-4.7593-27.311-5.6802-44.131-4.3467-15.69 1.2439-15.673 2.4234 0.0455 3.2532 14.792 0.78092 26.998 2.1096 34.428 3.7478 18.254 4.0247 33.5 9.4304 33.5 11.878 0 0.54073 0.675 0.98315 1.5 0.98315s1.5 0.64332 1.5 1.4296c0 1.0855-1.049 0.8433-4.3586-1.0064-5.9162-3.3066-20.028-8.0964-26.141-8.8728l-5-0.635 3.5 1.8434c12.209 6.4303 23.541 14.74 24.746 18.146 0.31022 0.87729 1.7318 2.5672 3.1592 3.7554 1.4273 1.1882 2.2194 2.5382 1.7601 3-0.45929 0.4618-1.9002-0.39786-3.202-1.9104s-2.726-2.7567-3.1649-2.765c-0.43889-0.008-4.173-3.171-8.298-7.0283-7.5955-7.1026-14.572-11.107-26.14-15.004-6.58-2.21-7.86-2.37-7.86-0.95 0 0.55 0.47787 1 1.0619 1 1.2436 0 12.204 5.0439 12.938 5.9537 0.92039 1.1416 10.331 7.0463 11.23 7.0463 0.48817 0 0.63129 0.41468 0.31805 0.92151-0.47359 0.76628-17.785-7.4186-21.049-9.952-9.3221-7.2358-40.19-9.8824-55.35-4.7455-9.127 3.0927-7.6936 3.8036 8.7226 4.3261 6.255 0.19909 11.618 0.60675 11.917 0.90591 0.29916 0.29917-0.76857 0.55083-2.3727 0.55925-7.0296 0.0369-4.9122 1.749 6.6605 5.3857 13.937 4.3798 15.437 4.1722 7.2821-1.0076-3.2226-2.0468-6.0842-4.0088-6.3592-4.3601-2.0735-2.6486-11.507-5.143-15.576-4.1185-2.3702 0.59683-5.5502 1.0852-7.0667 1.0852-4.7773 0-1.1676-1.5903 6.3955-2.8176l7.2527-1.177 7.4906 3.6544c12.55 6.1224 39.333 28.897 35.49 30.178-0.79136 0.26379-3.3711-1.6956-5.942-4.5131-6.4847-7.1066-14.57-13.444-16.303-12.779-0.80506 0.30893-5.9134-0.62137-11.352-2.0674-19.97-5.3097-25.501-5.8508-35.435-3.4676-4.6334 1.1115-6.8043 2.9888-3.4563 2.9888 1.3324 0 4.6064 1.6406 21.468 10.758 2.4556 1.3278 6.0556 3.6605 8 5.1838s5.4478 3.9652 7.7853 5.4265c4.1779 2.6118 5.4784 4.6318 2.9821 4.6318-0.69732 0-2.9234-1.125-4.9469-2.5s-4.2088-2.5-4.8562-2.5-4.6614-1.7439-8.92-3.8754c-12.926-6.4696-39.025-11.508-42.356-8.1772-1.0889 1.0889-0.92693 1.1625 6.8474 3.1093 2.75 0.68865 7.8747 2.5326 11.388 4.0977 3.5136 1.5651 7.1136 2.8525 8 2.8609 2.1551 0.0205 4.5478 1.5971 3.4518 2.2745-0.48039 0.2969-3.9235-0.52678-7.6514-1.8304-6.7066-2.3452-19.865-4.4466-18.462-2.9483 0.71241 0.76061 7.0697 3.5498 17.523 7.6881 2.8875 1.1431 5.25 2.4659 5.25 2.9396 0 1.6054-3.7662 0.8716-10.725-2.0894-8.0015-3.4049-16.718-5.031-27.025-5.0418-9.8925-0.0103-9.1239 1.4273 1.5 2.8057 9.7874 1.2699 19.25 3.8565 19.25 5.262 0 1.2838-1.6997 1.1459-7.4776-0.60673-6.3571-1.9283-27.139-3.0412-30.522-1.6346-2.3293 0.96841-2.2269 1.0441 1.5 1.1083 5.2957 0.0913 10.458 1.4982 19.283 5.256 8.7416 3.7219 8.9006 5.4269 0.46491 4.985-6.9726-0.3653-8.499 0.85667-5.3102 4.251 8.1444 8.6693 6.5851 16.962-1.714 9.1156-6.72-6.36-17.94-14.55-19.92-14.55-2.0824 0-1.5329 1.4085 1.7799 4.5629 2.7979 2.664 8.9154 10.889 8.9154 11.987 0 1.4369-2.8896-0.009-5.9578-2.9816-5.92-5.73-21.04-13.4-21.04-10.66 0 0.52056 1.1937 1.8854 2.6527 3.033 3.4558 2.7184 2.5493 3.4593-2.5517 2.0858-4.7713-1.2848-10.545-0.11-14.256 2.9009l-2.3447 1.902 2.133 2.335c3.0961 3.3892 5.0041 7.708 5.6742 12.844 0.5851 4.4841-0.0415 6.4295-4.9336 15.317-0.85548 1.5542-1.3281 3.0531-1.0502 3.331 0.9884 0.98841 4.6791-1.761 6.1299-4.5666 2.8824-5.5739 8.5708-11.131 8.5378-8.3402-0.005 0.4125-2.2549 3.3739-5 6.581-10.296 12.029-5.6916 12.183 6.2436 0.20899 5.2199-5.2369 8.241-7.5298 9.8904-7.5067l2.3749 0.0333-2.5 1.9787c-11.21 8.88-11.98 9.95-7.07 9.95 1.6634 0 4.2107-1.0833 5.9106-2.5137 4.4034-3.7052 15.629-8.1646 16.599-6.5943 0.25314 0.40958-1.2033 1.3461-3.2365 2.0813-4.2676 1.5429-10.166 5.1783-10.184 6.2767-0.0329 1.9924 8.8207-0.61622 12.988-3.8267 0.825-0.63563 4.425-1.4294 8-1.764 7.2709-0.68046 6.674 1.4431-0.77092 2.7427-4.53 0.79-12.73 4.72-12.73 6.1 0 0.61393 5.0745 1.0153 13.144 1.0397 9.6013 0.029 13.588 0.40843 14.792 1.4076 2.8722 2.3837 0.20939 3.137-7.3159 2.0698-7.12-1.01-12.12-0.59-12.12 1.02 0 1.7678 3.2428 3.9134 6.7822 4.4874 4.6338 0.75149 8.6681 2.3587 7.8854 3.1414-0.325 0.32501-2.5207 0.10901-4.8792-0.47999-6.9721-1.7411-23.86 1.2718-22.198 3.9604 0.29022 0.46957 2.1886 0.85721 4.2186 0.86141 5.8432 0.0121 21.191 5.1926 21.191 7.1529 0 1.475-3.3324 0.89928-9.5-1.6414-6.2706-2.5831-17.774-3.5028-19-1.5191-0.35434 0.57333 0.54599 1 2.1101 1 3.3607 0 17.39 5.117 17.39 6.3428 0 0.48972-1.0125 0.59541-2.25 0.23486-7.0324-2.0489-9.7942-1.7465-15.25 1.6699-1.1 0.68882-2.1165 1.2939-2.2588 1.3446-0.14237 0.0507 1.109 3.1088 2.7807 6.7958 3.5613 7.8542 3.4695 8.1613-2.7169 9.089-7.5371 1.1303-8.9192 4.7734-5.3616 14.133 1.0683 2.8107 1.6906 6.0732 1.3829 7.25-0.40129 1.5345-0.10234 2.1396 1.0571 2.1396 1.2739 0 1.6166 1.0631 1.6166 5.0147 0 6.2709-3.8516 9.4724-10.25 8.5199l-3.75-0.55826v8.2819c0 11.19 2.6877 20.61 10.077 35.315 3.4494 6.8648 6.3057 13.983 6.6212 16.5 0.43457 3.467 1.8146 5.9788 6.3639 11.583 8.4508 10.41 12.576 19.291 14.442 31.094 0.97969 6.1955 7.3793 5.4113 11.602-1.4217 1.6777-2.7145 2.6836-3.3283 5.4551-3.3283 2.9178 0 3.6702-0.53006 5.3233-3.75 3.9168-7.6296 10.758-8.9844 28.365-5.617 4.078 0.7799-1.2885 9.367-5.8538 9.367-2.1148 0-6.4377 7.0477-5.4645 8.9088 0.99202 1.8972-0.0838 5.1426-2.3198 6.9983-0.88652 0.73575-1.6119 1.9311-1.6119 2.6563 0 1.9095-1.9894 2.8472-3.2871 1.5494-1.997-1.997-5.5006-1.1974-7.8904 1.801-1.2774 1.6026-6.043 5.7086-10.59 9.1246l-8.2679 6.2107 0.57067 5.1255c0.31387 2.819 1.0464 7.8254 1.6279 11.125 1.7246 9.7877-1.3902 24.668-6.5711 31.392-0.59001 0.76577-1.1163 3.495-1.1696 6.0649-0.11238 5.4216-3.9226 13.835-6.9154 15.269-5.1085 2.449-6.2407 5.5728-6.9208 19.095-1.053 20.935-3.856 48.417-6.2907 61.678-0.85834 4.675-1.5429 9.4-1.5212 10.5 0.0868 4.3999-1.9503 31.821-3.343 45-1.301 12.311-2.8335 23.388-6.5721 47.5-3.4175 22.041-4.695 61.289-2.2704 69.75 0.46551 1.6244 0.22506 2.25-0.86487 2.25-2.1965 0-2.7097-2.1371-2.8412-11.832-0.11317-8.3403-0.15181-8.4791-1.0216-3.6682-1.714 9.4808 0.035 32.347 2.2636 29.595 1.0242-1.2648 1.6684-3.266 1.4316-4.4471-0.23681-1.1811-0.69238-3.385-1.0124-4.8975-0.76535-3.6176 2.1436-3.8439 3.0489-0.23719 1.2072 4.8099-0.41326 10.85-3.4602 12.898-2.3998 1.6129-2.7233 2.3528-2.1823 4.9913 0.34935 1.7037 0.22872 4.6727-0.26808 6.5977-1.5815 6.1281 2.3269 14.478 8.0822 17.267 5.6944 2.7594 7.3314 5.0657 5.1465 7.2506-4.0095 4.0095-20.236-1.5903-27.334-9.4327-1.04-1.16-3.11-2.09-4.64-2.09-1.8432 0-3.604-1.0076-5.3159-3.0421-2.371-2.8178-2.7278-2.9372-4.8389-1.619-1.2535 0.78274-3.5824 1.7268-5.1752 2.0978-1.6556 0.3857-6.0502 3.7563-10.26 7.869-10.45 10.21-24.106 13.335-33.101 7.575zm20.638-6.0706c1.72-1.75 3.12-3.92 3.12-4.8 0-0.8877 1.6134-3.1648 3.5853-5.0602 3.2984-3.1704 6.4147-7.8199 6.4147-9.5708 0-0.39819-1.1721 0.36696-2.6046 1.7003l-2.6046 2.4243 1.6046-3.8721c2.231-5.3835 1.9506-6.6817-0.67562-3.1279-6.1771 8.3591-11.978 12.942-10.062 7.95 0.31362-0.81726 0.0647-2.7154-0.55313-4.218-0.61784-1.5026-1.4566-6.0949-1.8639-10.205l-0.74054-7.473-4.4123 8.973c-9.2178 18.745-2.6826 39.021 8.7937 27.283zm-13.284-0.30259c-0.89821-1.3708-1.9134-4.5372-2.2559-7.0364-0.71884-5.2445-2.4444-5.4388-3.5209-0.39644-1.2461 5.8369 0.77938 9.9252 4.9173 9.9252 2.4269 0 2.4495-0.0657 0.85947-2.4924zm75.4 0.61c0-2.2851-8.2766-9.133-9.6554-7.9887-1.6975 1.4088-2.0406 1.0945-5.9404-5.4409-3.0343-5.085-3.991-5.5744-8.1542-4.1719-3.0748 1.0359-1.315 4.4839 2.2885 4.4839 3.1012 0 3.8736 0.54194 6.25 4.3856 3.2366 5.2347 15.212 12.109 15.212 8.7321zm-47.51-12.098c2.48-4.7958 1.7114-5.7831-1.1693-1.5022-1.4738 2.1902-3.0488 4.1321-3.5 4.3155-0.45 0.19-0.82 0.77-0.82 1.29 0 1.8064 3.9681-1.1562 5.4896-4.0985zm38.51-0.39c0-3.36-4.72-14.63-6.12-14.63-1.6955 0-2.1479 7.0425-0.56473 8.7918 0.85206 0.94151 2.0194 2.9485 2.594 4.46 1.0725 2.8209 4.0944 3.8349 4.0944 1.3739zm-12.25-10.44c0.93469-1.1721 0.95837-1.7476 0.0939-2.2819-3.1555-1.9502 2.9703-52.613 10.387-85.903 1.6542-7.425 3.3597-15.525 3.7901-18 0.43037-2.475 1.7715-8.55 2.9802-13.5 7.1472-29.268 2.4395-144.12-5.9572-145.34l-2.3402-0.33896 0.70562 10.839c0.3881 5.9614 1.1225 17.364 1.6321 25.339 2.6419 41.349 2.0967 99.255-1.0546 112-0.53545 2.1656-0.61074-0.69366-0.1975-7.5 1.0754-17.713 0.65121-66.64-0.8541-98.5-0.76659-16.225-1.4031-32.301-1.4145-35.725-0.0239-7.1878-2.746-9.1388-7.9725-5.7142-3.6531 2.3936-11.343 1.503-16.502-1.9112-2.2017-1.457-5.0253-2.6638-6.2746-2.6818s-4.7101-0.87459-7.6907-1.9036c-7.0388-2.4301-7.8192-2.0007-8.6682 4.7697-1.0105 8.0591 0.29525 51.167 2.0333 67.127 1.3456 12.356 1.3634 15.182 0.0879 13.906-0.25641-0.25641-1.3365-7.8689-2.4001-16.917-1.1419-9.7133-1.9748-14.289-2.0338-11.172-0.13301 7.0292 2.5054 31.922 4.8991 46.222 2.2799 13.62 3.4579 28.147 2.1166 26.102-1.347-2.054-2.5228 12.635-1.704 21.288 0.37 3.9106 1.3751 14.31 2.2336 23.11 3.1828 32.626 3.1172 30.602 1.1663 35.979-0.99362 2.7386-2.2534 8.3636-2.7995 12.5-1.9504 14.773-2.8449 19.84-3.8261 21.673-2.1191 3.9595-4.0192 18.992-3.0029 23.757 1.5901 7.4555 8.6173 4.8572 11.685-4.3207 0.62709-1.876 2.1755-4.801 3.441-6.5 8.6083-11.557 10.47-43.881 7.8679-136.59-0.50176-17.875-0.54834-32.735-0.10349-33.023 0.88371-0.57101-0.3612-11.439-2.5747-22.477-2.6131-13.031-6.4343-63.196-4.7337-62.145 0.53587 0.33118 1.282 5.2244 1.658 10.874 1.9976 30.011 4.6144 50.659 10.554 83.272 1.1018 6.05 2.3017 13.858 2.6664 17.352 0.51614 4.944 0.88336 5.9586 1.6566 4.5769 1.1416-2.0399 0.14029-93.349-1.1261-102.69-0.42949-3.1673-0.44346-6.3047-0.031-6.972 1.1809-1.9107 1.6268 0.57325 2.2853 12.731 0.32769 6.05 1.0267 16.625 1.5534 23.5 0.52666 6.875 1.0275 18.35 1.113 25.5 0.13374 11.189 0.2749 12.234 1.0134 7.5 0.85969-5.511 0.28024-65.564-0.6471-67.064-0.27116-0.43876-0.0777-1.0544 0.42987-1.3681 2.3726-1.4664 3.3151 78.129 2.0209 170.68-0.60733 43.431-1.8514 56.28-2.0013 20.671-0.11846-28.13-1.348-22.777-2.8904 12.583-1.4369 32.942-3.0505 45.497-2.6349 20.5 0.17616-10.595-0.0385-15.426-0.59969-13.5-0.48072 1.65-1.1015 11.325-1.3794 21.5-0.27797 10.175-0.98972 19.477-1.5817 20.67-2.1896 4.415-0.22057 9.1693 3.9606 9.5633 5.4138 0.51007 9.5402-0.26063 10.966-2.048zm-31.162-44.394c-1.4962-7.2843-1.0531-15.77 0.71872-13.762 0.9837 1.1151 1.6292 14.893 0.72394 15.452-0.53465 0.33043-1.1838-0.43012-1.4427-1.6901zm32.53-27.3c-0.0591-1.65 0.31692-5.7 0.83557-9 0.51866-3.3 1.4518-12.3 2.0736-20 0.62184-7.7 1.7485-18.275 2.5037-23.5l1.3731-9.5-0.50071 14c-0.60677 16.965-5.9385 57.683-6.2853 48zm-38.02-108.25c0.089-3.3467 0.18578-3.4812 0.90032-1.25 1.1448 3.5746 1.1448 5 0 5-0.55 0-0.95514-1.6875-0.90032-3.75zm39.9 172.27c0-0.74671 0.52107-1.5313 1.1579-1.7436 0.79611-0.26537 0.88839-1.307 0.2953-3.3333l-0.86-2.94-0.35866 3.25c-0.19726 1.7875-0.78015 3.25-1.2953 3.25s-0.93664 0.92656-0.93664 2.059c0 1.1325 0.45 1.7809 1 1.441 0.55-0.33992 1-1.229 1-1.9757zm7.1502-8.8333 0.1502-4.191 0.5998 4.5c0.86182 6.4657 2.5998 4.6295 2.5998-2.7468 0-6.4056-0.62954-7.5771-2.4199-4.5032-0.76602 1.3152-1.0268 0.0704-1.0497-5.0098-0.0247-5.487 0.3365-7.074 1.9184-8.4284 2.19-1.88 1.82-3.31-0.86-3.31-1.85 0-4.6186 22.27-3.3648 27.065 0.81971 3.1346 2.2618 1.1268 2.4231-3.3736zm-44.4-55.94c-0.36602-2.1161-0.43608-2.0865-1.1774 0.49776-0.43352 1.5113-0.43552 3.5363-0.004 4.5 0.97892 2.1885 1.814-1.343 1.1818-4.9978zm48.234-2.2788c0.67038-4.2747 1.7324-7.4547 2.7456-8.2212 0.93709-0.70888 1.1368-1.25 0.46127-1.25-0.71596 0-1.2387-1.6954-1.3103-4.25-0.11804-4.2085-3.6344 13.494-3.8072 19.167-0.13156 4.3196 0.792 1.6873 1.9106-5.4455zm-24.37-10.67c0.61-10.25-1.1-50.99-2.64-62.8-0.5392-4.125-1.1616-9.075-1.383-11-0.85952-7.4708-3.8782-22-4.5708-22-0.40098 0-0.3569 2.1375 0.098 4.75 0.45486 2.6125 1.1071 9.1375 1.4494 14.5 0.34233 5.3625 1.0304 9.75 1.5291 9.75 0.49868 0 0.90668 0.70156 0.90668 1.559 0 0.85746-0.45 1.2809-1 0.94098-0.62592-0.38684-1 1.72-1 5.6321 0 5.4736 0.16674 6.0221 1.3419 4.4149 1.1853-1.621 1.4179-1.0306 1.9929 5.0589 0.9657 10.228 0.81642 15.394-0.44479 15.394-1.1252 0-0.59985 27.337 0.77589 40.371 0.86387 8.1839 2.2375 5.114 2.9416-6.5742zm-2.32-20.3c0.008-2.75 0.20172-3.7563 0.43157-2.2362 0.22986 1.5201 0.22371 3.7701-0.0136 5-0.23736 1.2299-0.42542-0.0137-0.41792-2.7638zm29.403 4.75c-0.25153-0.9625-0.45733-0.175-0.45733 1.75s0.2058 2.7125 0.45733 1.75c0.25152-0.9625 0.25152-2.5375 0-3.5zm9.659-57c1.2578-13.318 0.57064-18.889-0.89421-7.25-1.6249 12.91-1.6715 14-0.59868 14 0.47046 0 1.1423-3.0375 1.4929-6.75zm-31.605-17.456c-0.1903-4.0116-0.34727-0.99375-0.34883 6.7062-0.002 7.7 0.15414 10.982 0.34599 7.2938 0.19186-3.6884 0.19314-9.9884 0.003-14zm34.62-19.91c0.30814-5.1606 0.579-11.97 0.60193-15.133 0.0346-4.7817 0.33637-5.7551 1.7917-5.7804 1.5714-0.0273 1.5853-0.12663 0.13635-0.97338-1.3057-0.763-1.7393-3.5724-2.272-14.72-1.4976-31.339-1.8755-36.797-2.6818-38.739-0.47646-1.148-0.53715 2.3278-0.13905 7.9628 0.38857 5.5 0.70649 27.065 0.70649 47.922 0 35.614 0.54855 41.365 1.8564 19.461zm-7.3447-20.938-1.0681-2.4449 0.51456 2.5c0.283 1.375 0.61011 5.65 0.7269 9.5l0.21235 7 0.34118-7.0551c0.18765-3.8803-0.13946-8.1553-0.7269-9.5zm12.186-41.875c0.0601-12.971-0.37491-17.775-1.4477-15.987-0.47942 0.79904 0.39741 32.103 0.88554 31.614 0.2706-0.2706 0.52356-7.303 0.56215-15.628zm-41.639-10.652c1.7763-1.4473 1.7856-1.5322 0.10934-1-1.0075 0.3199-3.0325 0.58853-4.5 0.59695-2.09 0.012-2.3432 0.22537-1.1682 0.98469 2.1094 1.3632 3.3286 1.2356 5.5589-0.58164zm0.23-3.61c4.971-4.971-3.6028-11.8-14.815-11.8-6.9152 0-8.7935 2.5911-5.5105 7.6016 1.672 2.5518 1.6633 2.5774-0.63977 1.8803-1.9446-0.5886-2.1186-0.48007-1.0412 0.64936 0.82298 0.86267 3.6124 1.3584 7.6666 1.3624 3.5051 0.003 6.7104 0.34383 7.123 0.75633 1.1734 1.1732 5.8875 0.87929 7.2168-0.45zm20.266-1.8352c2.2385-1.198 2.4511-3.4532 0.68426-7.2576-2.0862-4.4921-9.75-2.0408-9.75 3.1185 0 4.7462 4.28 6.7004 9.0657 4.1391zm20.512-5.748c5.7636-3.7643 7.4164-9.538 2.0274-7.0826-3.4114 1.5544-6.6429 6.7918-6.4685 10.484 0.0918 1.9421 0.26812 2.2297 0.54072 0.88197 0.22249-1.1 1.9777-3.0274 3.9004-4.2832zm-67.612-0.15111c1.9364-3.6183 1.0728-4.7514-6.0044-7.8773-6.9922-3.0884-7.0528-3.0961-9-1.1489-2.8332 2.8332-2.4859 3.6344 2.5396 5.8574 5.281 2.336 5.843 3.5208 1.25 2.6354-3.0661-0.59113-3.1402-0.53905-1.3089 0.92054 2.9273 2.3332 11.205 2.0773 12.524-0.38714zm44.03-6.06c1.9879-1.2847-0.51039-1.2847-3.5 0-2 0.85943-2 0.85943 0 0.9144 1.1 0.0302 2.675-0.38124 3.5-0.9144zm-62.571-3.5714c0.86429-0.86428 1.5714-2.2143 1.5714-3 0-1.6959-0.29289-1.6598 3.8413-0.47409 2.8608 0.82047 3.1586 0.75027 2.121-0.5-0.66-0.81-1.76-1.46-2.44-1.46-0.6809 0-2.8958-1.125-4.922-2.5-4.2376-2.8757-4.7299-3.0147-4.0072-1.1314 0.31159 0.81199-0.3112 1.5873-1.5314 1.9064-2.5295 0.66149-2.742 4.3102-0.40157 6.8963 2.0295 2.2425 3.7133 2.3176 5.7736 0.25731zm87.485-3.6979c1.3644-2.2214 1.3612-2.2227-0.77152-0.3257-2.935 2.6106-2.7402 0.4725 0.45337-4.9769 1.4273-2.4354 2.1993-4.4281 1.7156-4.4281-1.8749 0-6.9101 11.067-5.6215 12.356 0.88085 0.88084 2.8051-0.31503 4.224-2.6251zm14.855-2.7896c-0.58023-6.0385-2.2583-8.3138-4.1967-5.6901-1.9741 2.672 0.0728 10.749 2.724 10.749 1.7509 0 1.9072-0.53673 1.4727-5.0589zm-2.78 1.7c0-1.3625-0.29123-3.3015-0.64718-4.309-0.43678-1.2363-0.3162-1.5067 0.37089-0.83179 1.5433 1.5159 2.4174 6.2948 1.28 6.9977-0.56 0.35-1-0.46-1-1.86zm-5.0534-2.997c-0.96285-0.88745-1.0959-0.73326-0.59378 0.68801 0.35595 1.0075 0.69938 2.3575 0.76318 3 0.0638 0.64251 0.331 0.33291 0.59378-0.68801s-0.0807-2.3709-0.76318-3zm-6.4947-9.2385c3.78-3.79 8.54-19.99 8.54-29.11 0-2.0168 0.40807-3.155 1-2.7892 1.5213 0.94022 1.2014-3.6466-0.65522-9.3954-1.391-4.307-1.4598-5.7775-0.43069-9.2122 0.67349-2.2479 1.0361-4.2756 0.8057-4.5059-1.6333-1.6333-4.7405 14.954-4.1611 22.213 0.76228 9.5493-1.1376 19.676-5.3302 28.412-2.868 5.9756-2.795 7.4129 0.22333 4.3946zm21.185-4.102c1.4822-3.1332 2.8506-7.9707 3.0408-10.75l0.34586-5.0532-1.4909 5.2493c-1.82 6.36-5.22 13.25-6.56 13.25-0.54 0-0.98 0.68-0.98 1.5 0 3.4357 3.1272 1.1073 5.6364-4.1968zm-9.38-3.55c3.2203-7.0363 4.1554-10.846 2.5062-10.21-0.94827 0.36543-1.204-1.0719-1.0277-5.7766l0.23-6.26-1.41 4.5c-5.8595 18.737-6.7699 24.302-2.32 14.182 1.2419-2.8243 2.5955-5.1457 3.008-5.1587 1.2278-0.0386 0.8644 1.8293-1.1217 5.7663-1.0294 2.0406-2.1848 4.7227-2.5674 5.9602-1.2437 4.0224 0.23411 2.3775 2.6953-3zm8.7814-4.8896c0.57856-2.1486 0.79833-4.3169 0.48836-4.8185-0.30996-0.50153-0.0878-3.0348 0.49365-5.6294 0.61058-2.7245 0.73368-6.6599 0.29139-9.315-0.80122-4.8099-2.4467 5.4616-2.3473 14.652 0.0193 1.7875-0.44115 3.25-1.0233 3.25-0.58213 0-0.73811 0.51827-0.34662 1.1517 0.39148 0.63344-0.11797 1.7584-1.1321 2.5-1.1282 0.825-1.3401 1.3483-0.54579 1.3483 0.79275 0 1.0529 0.63902 0.66824 1.6414-0.52549 1.3694-0.37867 1.433 0.88583 0.38352 0.83364-0.69187 1.9891-3.0159 2.5676-5.1645zm-5.0411-29.368c-1.8824-3.8885-2.0273-5.3749-1.4047-14.414 0.69354-10.07-0.002-12.412-2.2477-7.5707-0.93812 2.0226-0.89102 2.4922 0.25 2.4922 1.8254 0 1.7736 2.0583-0.23136 9.204-1.5164 5.4043-1.5164 5.9688 0 7.6444 0.9005 0.99504 1.6373 2.4712 1.6373 3.2804 0 0.80919 0.45941 1.9307 1.0209 2.4922 0.5615 0.5615 1.349 4.139 1.75 7.95l0.7291 6.9291 0.29765-6.8358c0.23225-5.3339-0.1635-7.7884-1.8012-11.171zm1.545-9.8617c0.34762-1.853 0.48051-4.4404 0.29532-5.75-0.20772-1.4688-0.73611-0.17807-1.3792 3.369-0.57337 3.1625-0.70626 5.75-0.29531 5.75 0.41094 0 1.0316-1.516 1.3792-3.369zm6.7222 2.119c1.23-0.6875 2.4614-1.4905 2.7364-1.7845 0.275-0.29397 1.85-1.5617 3.5-2.8172 10.896-8.2906 14.846-16.893 7.0756-15.408-1.619 0.30949-2.816-0.24582-3.9164-1.817-1.4638-2.0899-1.884-2.173-5.5034-1.0887-5.2704 1.5791-5.7868 2.4636-6.5178 11.165-0.34655 4.125-0.90933 8.7375-1.2506 10.25-0.69296 3.0709 0.34619 3.473 3.8762 1.5zm-154.26-11.69c0-1.1799-1.9504-2.442-2.6667-1.7257-0.71 0.72 0.55 2.67 1.73 2.67 0.52 0 0.94-0.42 0.94-0.94zm185.3-6.6009c2-2.7475 2.1796-2.5937-5.2552-4.5013-2.4478-0.62807-6.0379-2.4503-7.9778-4.0494-3.97-3.28-9.07-3.97-9.07-1.24 0 2.4943 2.9958 5.3287 5.6319 5.3287 1.3855 0 2.9959 1.0286 3.9929 2.5502 0.98488 1.5031 2.2595 2.3244 3.1043 2.0002 0.78833-0.30251 2.3969 0.12489 3.5746 0.94978 2.9013 2.0322 3.8876 1.8609 6.0008-1.0421zm-187.43-10.21c-0.10864-9.5537-0.27919-10.815-0.9124-6.75-1.1477 7.3688-1.12 18.5 0.046 18.5 0.61751 0 0.94889-4.4943 0.86639-11.75zm189.01 1.2464c1.3072-1.9194 3.9178-4.4424 5.8015-5.6066 2.0814-1.2864 3.2969-2.7586 3.0987-3.7533-0.50155-2.5168-4.7827-1.4402-8.5268 2.1443-2.5309 2.423-3.25 2.7314-3.25 1.3938 0-0.94469 1.1002-2.2189 2.445-2.8316 1.3447-0.6127 2.6806-1.7281 2.9686-2.4786 0.89361-2.3287-3.0369-1.5524-6.3791 1.2599-1.7154 1.4434-3.4374 2.3031-3.8267 1.9104-0.38928-0.39274 0.64223-1.7965 2.2922-3.1195 2.6111-2.0936 2.7379-2.406 0.97784-2.4104-2.4676-0.006-9.4778 5.5915-9.4778 7.5678 0 0.78496-0.43588 1.4272-0.96862 1.4272-2.0784 0 0.39397 3.1409 4.3292 5.4998 5.6032 3.3587 7.6805 3.1605 10.516-1.0033zm-41.895-7.7829c-2.7834-9.1637-5.1726-13.812-9.6413-18.759-5.706-6.3159-5.71-4.5782-0.007 3.0028 5.3243 7.0775 6.0345 8.6025 9.308 19.986 1.0191 3.5439 2.0039 5.6596 2.1884 4.7015 0.18451-0.95807-0.6472-4.9772-1.8482-8.9313zm-113.98 5.15c0-3.3205 2.1742-10.09 4.1815-13.02 2.4114-3.5196 2.4191-3.4986-2.1416-5.8253-9.7022-4.9497-16.144 7.971-8.3147 16.678 4.1952 4.6654 6.2749 5.384 6.2749 2.168zm-18.54-3.12c0.37844-1.7875 0.63348-5.7551 0.56675-8.8169-0.10446-4.7934 0.25148-5.9397 2.5618-8.25 3.6851-3.6851 5.1831-3.3902 1.9993 0.39362-2.7549 3.274-3.0824 4.5957-1.6854 6.8014 1.2481 1.9705 2.7604 0.67006 4.9335-4.2425 1.3033-2.9463 2.8714-4.6864 5.0285-5.5799 4.6791-1.9381 4.485-6.455-0.3459-8.0493-3.981-1.3138-6.1013-0.41149-10.34 4.4003-9.7889 11.113-10.598 12.574-9.7837 17.668 1.4599 9.1298 5.6254 12.476 7.0651 5.6754zm8.5707-23.5c-0.0219-2.2364 0.43604-3.25 1.4682-3.25 1.9082 0 1.9226 2.059 0.0318 4.5589-1.3888 1.8361-1.4699 1.7653-1.5-1.3089zm-2.4012 21.23c-0.33906-0.88358-1.0915-1.3129-1.6721-0.9541-0.72494 0.44804-0.68251 1.102 0.13544 2.0875 1.453 1.7508 2.3808 1.0664 1.5367-1.1334zm-11.558-14.692c5.585-4.1291 6.9319-11.058 3.1772-16.344-1.5439-2.1736-10.529-8.3898-11.372-7.8682-1.703 1.0525-0.84784 3.481 1.6222 4.6064 3.27 1.4899 3.1536 2.4287-0.53765 4.3375-2.6618 1.3764-3.002 2.0293-2.75 5.2757 0.28616 3.6857 0.26604 3.7064-3.8845 4.0085-6.3991 0.4658-7.975 3.1963-1.8447 3.1963 3.5843 0 5.4468 0.60476 7.6992 2.5 3.6287 3.0534 4.1256 3.0715 7.8907 0.28784zm116.4-18.54c-0.41163-0.9625-0.96459-3.1-1.2288-4.75s-1.0497-3.675-1.7455-4.5c-2.3867-2.8298-8.534-18.548-9.9821-25.523l-1.4484-6.9769 0.57816 6.5c0.65352 7.3472 3.1006 15.169 7.337 23.453 1.5876 3.1042 3.1953 7.0847 3.5729 8.8455 0.84168 3.9258 1.2735 4.7015 2.6172 4.7015 0.61651 0 0.73984-0.72049 0.29955-1.75zm-123.47-13.13c0-1.5812-0.29954-4.3727-0.66564-6.2032-0.91533-4.5766-1.9638-1.3688-1.492 4.5645 0.39249 4.9349 2.1576 6.2754 2.1576 1.6387zm-21-4.62c0-1.375 0.40186-2.5 0.89301-2.5 4.1525 0-1.5651-8.8369-5.7969-8.9594-0.77215-0.0224-4.2203-1.6156-7.6625-3.5406-7.6947-4.3031-12.319-3.9696-6.9336 0.5 0.825 0.68469 1.5 2.3636 1.5 3.7308 0 2.1566 0.33338 2.4023 2.516 1.8545 2.0738-0.52048 2.6898-0.17426 3.505 1.97 0.85034 2.2366 1.4012 2.5109 3.9274 1.956 2.764-0.60708 3.0034-0.40405 4.0335 3.4216 1.23 4.57 4.02 5.66 4.02 1.57zm10.818-4.2656c1.4072-2.8739 2.0628-5.5204 1.6684-6.7344-0.60501-1.8622-0.5512-1.8804 0.78071-0.26554 1.69 2.06 2.73 1.34 2.73-1.9 0-1.28 0.45-2.33 1-2.33s1 1.575 1 3.5 0.45 3.5 1 3.5c1.1635 0 1.2838-11.137 0.34243-31.714-0.35764-7.8176-1.0386-13.974-1.5134-13.68-0.4747 0.29339-0.56018 8.6021-0.18995 18.464 0.59 15.85 0.49 17.93-0.88 17.93-2.38 0-11.76 11.35-11.76 14.22 0 5.4986 2.8826 5.0108 5.8182-0.98467zm3.6521-42.654c-0.49-23.5-0.37-26.58 0.99-26.58 2.4558 0 1.7814-1.9575-1.0444-3.0319-3.3013-1.2551-4.0035-0.76812-5.4734 3.7958-0.6618 2.0548-1.5378 4.1861-1.9466 4.7361-0.40884 0.55-1.769 3.925-3.0227 7.5-1.2536 3.575-2.9671 7.0036-3.8076 7.6191-1.3566 0.99339-1.1626 3.2407 1.7262 20 4.1893 24.305 3.384 22.709 8.6739 17.189l4.4538-4.6475-0.54931-26.58zm-6.887-8.6079c-1.6042-1.6347-2.6167-3.2722-2.25-3.6389 0.36667-0.36666 0.77917-0.47692 0.91667-0.245 0.1375 0.23191 1.5717 1.8819 3.1871 3.6667 3.6774 4.063 2.1013 4.2476-1.8538 0.21722zm-3.96 41.489c-0.85-2.23-5.62-30.34-5.62-33.16 0-2.7974-3.1738-9.3719-5.4269-11.242-0.8652-0.71805-1.5731-1.136-1.5731-0.92877s-1.168 3.5248-2.5955 7.3724c-9.2588 24.956-9.2441 24.279-0.65452 30.021 3.7125 2.4818 8.279 5.6288 10.148 6.9934 3.8744 2.8291 6.6232 3.2814 5.7254 0.94197zm-14.62-4.21c-0.003-1.2842-9.9684-7.613-10.753-6.8289-0.90259 0.9026 2.2529 3.4121 6.0045 4.7753 1.5125 0.54958 2.75 1.4052 2.75 1.9014 0 0.49619 0.45 0.90217 1 0.90217s0.99913-0.3375 0.99807-0.75zm107-4.95c0-2.011-0.28907-2.4109-1.1328-1.5672-0.62303 0.62303-0.86216 1.838-0.53139 2.7 0.91 2.39 1.66 1.88 1.66-1.13zm-69-11.24c0-1.1684 0.675-3.7399 1.5-5.7144 1.7676-4.2306 1.7823-4.3458 0.55372-4.3458-0.52046 0-1.9308 2.7-3.134 6s-2.515 6-2.915 6c-0.40003 0-0.5132 1.1202-0.25148 2.4893l0.47585 2.4893 1.8855-2.397c1.04-1.32 1.89-3.35 1.89-4.52zm-55.438-3.5646c-5.0141-17.582-3.875-19.762 1.4354-2.7471 1.7806 5.7053 3.6287 9.9826 4.1688 9.6488 0.53361-0.32979 0.65487-1.3416 0.26945-2.2485-0.75945-1.787-5.2248-17.082-6.1743-21.149-0.50965-2.1828-0.38425-2.3353 0.98848-1.2014 2.1218 1.7525 3.0117 0.1123 2.2223-4.0957-0.44041-2.3476-0.18101-3.6996 0.87858-4.5789 1.0399-0.86301 1.3323-2.3025 0.94845-4.6682-0.41989-2.5875-0.15862-3.5725 1.0729-4.0451 1.1582-0.44444 1.628-1.878 1.628-4.968 0-3.0145 0.51005-4.6288 1.6672-5.2763 1.6606-0.9293 0.96255-10.023-1.183-15.412-0.59859-1.5035-0.26375-1.6598 2.4103-1.125 3.5713 0.71426 3.6398 0.4504 1.6163-6.22-1.9286-6.3575-1.1021-8.1968 1.3072-2.9089 1.3056 2.8654 4.1189 3.3549 4.311 0.75 0.071-0.9625 0.0333-3.8376-0.0838-6.3892-0.11703-2.5516 0.2749-4.9406 0.87096-5.309 2.6379-1.6303 1.2662 13.16-1.4163 15.27-1.5019 1.1814-2.5 2.9871-2.5 4.5229 0 1.406-0.71046 2.954-1.5788 3.4399-1.1685 0.65394-1.6573 2.8107-1.881 8.2997-0.35802 8.7864-1.3073 13.611-3.2694 16.617-0.84549 1.2953-1.1577 3.08-0.7587 4.3371 0.47538 1.4978 0.0491 2.722-1.4266 4.0968-1.738 1.6192-1.9089 2.3265-0.98093 4.0603 0.83109 1.5529 0.83146 3.0749 0.001 5.8452-1.2226 4.0808 2.2801 16.854 4.394 16.023 2.209-0.86784 10.579-25.452 9.3692-27.52-0.6291-1.076-1.2844-6.026-1.4563-11-0.29222-8.457-0.25573-8.6545 0.56239-3.0437 1.4212 9.7465 3.0888 12.425 2.49 4-0.27363-3.85-0.0863-8.575 0.41624-10.5l0.91375-3.5 0.10236 4.8867c0.43823 20.921 3.2155 26.084 8.0783 15.019 3.2832-7.4709 3.1339-10.304-0.47595-9.0326-4.5894 1.6167-5.5 1.6808-5.5 0.38715 0-0.75589 1.2375-1.8633 2.75-2.461 2.4652-0.9741 2.5231-1.0977 0.55902-1.193-3.56-0.18-3.79-2.11-0.25-2.11 2.8303 0 3.1009-0.24466 2.488-2.25-0.37818-1.2375-0.8434-3.284-1.0338-4.5478-0.77165-5.1213-5.131-6.393-8.2618-2.4102-1.9671 2.5024-1.5107-0.36082 0.77032-4.8319 2.3314-4.57 2.9879-4.8007 4.8656-1.7102 3.5763 5.8862 8.6967 11.75 10.261 11.75 0.95452 0 2.0356 0.48555 2.4024 1.079 0.42863 0.69354 2.4476 0.83408 5.6517 0.39341l4.9848-0.68559-0.31512 7.5508c-0.17332 4.1529 0.01 7.8759 0.40731 8.2732 0.39734 0.39734 0.77128 6.3849 0.83097 13.306 0.0948 10.989 1.3273 27.255 1.7491 23.083 0.0834-0.825 1.2639-4.2 2.6233-7.5 2.3943-5.8122 2.4724-6.7626 2.4954-30.367l0.02-24.37-2.5 0.4779c-1.9519 0.37313-2.5 0.0644-2.5-1.4082 0-1.0723-1.0387-2.281-2.4074-2.8014-1.5499-0.58926-2.6521-2.0293-3.0943-4.0428-0.37781-1.7202-1.3195-3.3703-2.0926-3.667-0.82819-0.3178-1.4057-1.9436-1.4057-3.9572 0-2.7255-0.50639-3.6103-2.5-4.3683-1.375-0.52277-2.5-1.6366-2.5-2.4752 0-6.7042-4.2827-0.23222-6.8526 10.356-1.1116 4.5796-2.2745 8.5801-2.5842 8.8898-1.1024 1.1024-0.47609-3.3741 1.4368-10.27 1.068-3.85 1.9549-7.5625 1.9709-8.25 0.0475-2.0383-3.1133-1.4213-3.6725 0.71688-0.28289 1.0818-1.3997 2.2479-2.4817 2.5913-4.0588 1.2882-3.334-0.4285 2.9333-6.9473 1.2375-1.2872 2.25-3.2644 2.25-4.3938 0-2.7338 1.0029-5.2171 2.107-5.2171 0.49115 0 0.89301 1.575 0.89301 3.5 0 3.0412 0.31901 3.5 2.4336 3.5 1.9114 0 2.5015 0.59003 2.75 2.75 0.19556 1.6996 1.1758 3.127 2.5664 3.7371 1.6719 0.73351 2.25 1.8254 2.25 4.25 0 2.8137 0.34413 3.2629 2.5 3.2629 2.1811 0 2.5 0.43783 2.5 3.4326 0 2.499 0.51887 3.5973 1.9076 4.0381 1.0492 0.333 2.1601 1.2633 2.4686 2.0674 0.30855 0.80406 1.6698 1.4619 3.025 1.4619 3.0276 0 4.2157-2.9937 2.4654-6.2122l-1.2441-2.2878-0.593 2.4433c-0.59713 2.4604-17.826-20.339-23.596-31.226l-2.0666-3.899-6.399 7.3407c-3.5195 4.0374-8.362 9.3657-10.761 11.841-6.4379 6.6413-7.8368 10.093-8.5251 21.036-0.67306 10.701-3.689 24.895-6.6892 31.481-2.3965 5.2606-2.4331 5.8724-0.44991 7.5182 1.0701 0.88808 1.2232 1.5993 0.5 2.3224-0.57 0.56-1.04 1.84-1.04 2.83 0 3.1622-1.7666 1.9307-2.7973-1.95l-0.99599-3.75-0.10335 3.7056c-0.09224 3.3071 7.5843 29.44 8.4065 28.618 0.18278-0.18278-0.69379-3.9304-1.9479-8.3279zm136.54-3.6098c9.4514-2.027 16.956-10.827 19.455-22.814 3.44-16.56 9.09-25.08 16.59-25.08 4.5142 0 4.8443-1.07 1.2117-3.9274-4.4843-3.5274-9.2187-1.9413-11.89 3.9834-0.94894 2.1044-2.2871 4.0418-2.9738 4.3052-0.68663 0.26348-1.5674 2.1795-1.9573 4.2578s-1.3467 4.6894-2.1263 5.8024c-0.77955 1.113-1.4174 3.5411-1.4174 5.3958 0 17.116-10.713 26.921-28.437 26.026-7.4952-0.37849-10.107 0.55777-4.8125 1.7254 1.5125 0.33359 3.2 0.75663 3.75 0.9401 2.1392 0.71358 7.6321 0.44203 12.597-0.62275zm1.5024-6.2798c7.3794-3.4361 10.432-8.5514 11.773-19.726 0.68973-5.7505-0.16208-6.7541-2.4874-2.9305-5.4918 9.0305-14.309 6.4591-12.418-3.6213 0.56734-3.0242 0.41084-3.4485-1.155-3.1318-1.22 0.24674-1.7584 1.1723-1.6492 2.8351 0.25523 3.888-1.5366 9.7067-3.1838 10.339-6.8774 2.6391-13.279-6.9265-8.8586-13.237 1.3159-1.8787 1.402-2.7898 0.4594-4.8587l-1.1602-2.5464-2.3664 2.2232c-13.485 12.669-12.211 31.625 2.4476 36.402 4.3163 1.4069 13.724 0.52317 18.6-1.7472zm26.895 0.3879c-0.99854-1.1034-2.0324-1.7892-2.2975-1.5242-0.67193 0.67194 1.8222 3.5303 3.0805 3.5303 0.5679 0 0.21556-0.90276-0.78298-2.0061zm7.322-2.321c0.22-1.88-0.15-2.68-1.22-2.68-2.1885 0-3.819 3.3826-2.3423 4.8593 1.7324 1.7324 3.2 0.83039 3.5571-2.1864zm-112.21-14.68c-1.047-13.667-1.1292-14.04-1.431-6.5-0.38469 9.6109 0.70735 23.048 1.7761 21.855 0.4211-0.47017 0.26579-7.3798-0.34514-15.355zm105.39 5.06c0-1.6175-0.45-3.2191-1-3.559-0.59512-0.3678-1 0.82295-1 2.941 0 1.9575 0.45 3.559 1 3.559s1-1.3234 1-2.941zm5-0.22569c0-3.6413-0.43653-3.5093-1.3784 0.41667-0.39164 1.6325-0.24563 2.75 0.35933 2.75 0.56048 0 1.019-1.425 1.019-3.1667zm-137.92-7.1026c1.1696-4.0687-0.89429-2.3414-3.1576 2.6427-1.0307 2.2696-1.8821 4.8016-1.8921 5.6266-0.0237 1.9465 4.0135-4.6646 5.0497-8.2693zm95.725-4.8163c0.34711-4.1408-1.3697-6.1014-4.6026-5.2559-4.1162 1.0764-2.1064 9.7538 2.1197 9.1522 1.7094-0.24335 2.2475-1.0878 2.4829-3.8963zm15 1.89c1.7709-1.7709 1.4623-4.2527-0.78124-6.283-2.67-2.42-5.02-0.5-5.02 4.1 0 3.6264 3.1634 4.8141 5.8 2.1776zm-141.93-21.3c0.67714-5.5 1.4545-11.462 1.7275-13.25 0.75149-4.9212-1.9075-4.1309-3.3649 1-0.66396 2.3375-1.4217 9.2353-1.6839 15.328-0.26218 6.0932-0.72933 11.943-1.0381 13-0.30879 1.0568 0.26876 0.12151 1.2834-2.0785 1.0147-2.2 2.3989-8.5 3.076-14zm151.65 11.094c1.88-3.49 0.37-8.59-2.54-8.59-3.3508 0-6.7379 8.9058-4.3103 11.333 1.8079 1.8079 5.1159 0.48555 6.8526-2.7392zm-17.783-0.5805c5.0341-0.0131 5.2931-0.14891 6.698-3.5114 0.8038-1.9238 2.5666-4.0013 3.9174-4.6168 3.0353-1.383 4.4982-8.4692 2.4973-12.097-1.2051-2.1853-1.2796-2.1982-1.6574-0.28808-1.3926 7.0401-8.8829 11.5-19.314 11.5-7.4718 0-7.789 0.32085-5.2384 5.2997 2.0259 3.9545 3.2926 4.8681 5.8605 4.227 1.1-0.27464 4.3565-0.5055 7.2366-0.51301zm43.26-3.01c0-1.2529-1.0612-1.2529-3 0-1.213 0.78387-1.0694 0.9723 0.75 0.98469 1.24 0.01 2.25-0.43 2.25-0.98zm-19.2-6.2c2.9904-2.9904-2.1458-11.418-5.3421-8.7651-1.8139 1.5054-1.8148 2.1751-0.009 6.4972 1.4994 3.5886 3.277 4.3419 5.351 2.2679zm-48.9-1.1797c0.95449-1.1501 0.35078-1.2962-3.6276-0.87815-6.4354 0.67631-7.9029 2.2579-2.095 2.2579 2.6716 0 5.0543-0.57447 5.7226-1.3797zm26.992-2.6814c4.4796-2.3349 6.5805-6.5642 5.1413-10.35-2.4435-6.427-17.133-2.8765-23.169 5.5999l-2.2143 3.1097 2.2853 1.8505c3.2531 2.6342 12.711 2.5233 17.956-0.21055zm-31.277-2.429c-3.0745-2.3278-12.212-4.0096-14.856-2.7346-2.0559 0.99122-1.8992 1.1023 1.7406 1.2331 2.2 0.0791 5.575 0.75029 7.5 1.4916 5.0774 1.9553 8.1926 1.9608 5.6159 0.01zm66.89-4.38c1.65-0.89096 3.9-1.9141 5-2.2736 1.6143-0.52765 1.6698-0.67293 0.28751-0.75339-2.55-0.15-12.79 3.89-12.79 5.04 0 1.1672 3.2031 0.30766 7.5-2.0125zm-63.5-0.1281c-8.0466-6.2986-20.178-8.3006-28.404-4.6872-5.3767 2.362-3.9072 3.1553 2.384 1.287 5.9619-1.7705 15.859-0.31627 22.803 3.3507 4.7873 2.5279 6.4148 2.553 3.2165 0.0495zm5.1209-6.7726c-1.2788-2.3894-10.468-6.479-13.445-5.9834-1.7127 0.28513-1.3237 0.635 1.8287 1.6445 2.2024 0.70526 5.8024 2.5259 8 4.0459 4.4584 3.0836 5.1397 3.1388 3.6167 0.29303zm5.88 0.27c0-0.825-0.45-1.5-1-1.5s-1 0.675-1 1.5 0.45 1.5 1 1.5 1-0.675 1-1.5zm25.5-5.9078c0-5.7604-0.92427-6.49-2.0025-1.5807-0.64 2.89-2.5 4.23-2.5 1.79 0-0.93333-0.26667-0.93333-1.2 0-0.66 0.66-2.085 1.2-3.1667 1.2-3.9491 0-0.45722 1.6137 8.3667 3.8664 0.275 0.0702 0.5-2.3032 0.5-5.2742zm-14.552 3.4612c1.1328-0.71671 0.85077-1.0658-1.2966-1.6048-2.9965-0.75207-4.2225-0.18183-3.1924 1.4849 0.80327 1.2997 2.5504 1.3464 4.489 0.11993zm-13.063-4.5047c-1.3119-1.3828-2.8069-2.5219-3.3223-2.5314-0.5154-0.01 0.35179 1.328 1.9271 2.9723s3.0703 2.7834 3.3223 2.5314c0.25197-0.25197-0.61522-1.5895-1.9271-2.9723zm58.69-4.55c0.23 0 0.42-0.69 0.42-1.54 0-1.2253-0.4037-1.3191-2-0.46482-2.3603 1.2632-2.7174 3.4893-0.41821 2.607 0.86998-0.33385 1.77-0.60699 2-0.60699zm13.3-0.04 2.62-0.03-2.5-1.43c-3.3084-1.8913-4.0489-1.8273-7 0.60471l-2.5 2.0602 3.375-0.58247c1.8562-0.32036 4.5562-0.59842 6-0.61791zm-171.85-10.99c11.39-12.05 12.85-13.97 10.65-13.97-1.2142 0-6.1839 5.3843-20.004 21.673-6.4016 7.5449-0.34849 2.5587 9.351-7.7029zm122.97 4.91c0-1.1-0.45-1.7219-1-1.382-0.55 0.33992-1 1.518-1 2.618s0.45 1.7219 1 1.382c0.55-0.33992 1-1.518 1-2.618zm24 1.0014c0-1.0455-0.319-1.0819-2.4182-0.27638-2.2961 0.88109-1.9434 2.3003 0.41821 1.6828 1.1-0.28766 2-0.92053 2-1.4064zm-28.96-12.43c1.6663-2.0077 3.7076-13.204 3.0011-16.46-1.4684-6.7678-6.8546-0.49557-6.989 8.1388-0.12674 8.1401 1.4346 11.398 3.9879 8.3216zm-6.04-6.85c0-2.3546 0.9-7.8 2-12.101s2-8.4533 2-9.2274c0-0.95235-0.64668-1.2022-2-0.77265-1.1473 0.36414-2 0.1797-2-0.43261 0-0.59-0.44-1.07-0.98-1.07-1.3318 0-5.2564 7.8572-4.6577 9.3247 0.26372 0.64642 0.51501 0.3878 0.55843-0.5747 0.04-0.96 0.53-1.75 1.08-1.75 1.295 0 1.2855 0.0725-0.60566 4.5986-1.8413 4.4069-1.3102 11.355 1.1558 15.118 2.1066 3.2151 3.4498 2.0019 3.4498-3.116zm12.832-3.6317c0.70794-3.8406 0.69082-7.0493-0.056-10.5-1.3379-6.1816-1.4955-5.5815-2.0959 7.9824-0.49838 11.259 0.3563 12.259 2.1519 2.5176zm6.886-2.7055c-0.22985-1.5201-0.42406-0.51375-0.43157 2.2362-0.007 2.75 0.18056 3.9937 0.41792 2.7638s0.24351-3.4799 0.0136-5zm-3.1743-5.9475c-0.33-1.27-1.05-2.31-1.61-2.31-1.0116 0-0.85071 2.2645 0.74619 10.5l0.77561 4 0.33358-4.9337c0.18347-2.7136 0.072-5.976-0.24777-7.25zm50.749-12.888c-2.68-3.41-8.86-7.42-11.46-7.42-0.67959 0 0.76498 1.2866 3.2102 2.8591s5.5367 4.0475 6.8701 5.5c3.5822 3.9023 4.6038 3.2073 1.3683-0.93101zm-105.76-3.01c4.2759-1.1427 8.3621-1.4389 14.46-1.0481 6.3555 0.40732 8.024 0.27277 6.6134-0.53328-4.95-2.83-28.61-0.6-28.61 2.7 0 0.751 1.202 0.5722 7.5399-1.1216zm68.46-0.41c0-1.1941-2.7211-1.1941-5.5 0-1.6044 0.68942-1.2582 0.87333 1.75 0.92971 2.06 0.04 3.75-0.38 3.75-0.93zm14-2.051c0-1.4424-6.318-3.9644-9.7179-3.8793-2.1638 0.0542-1.6709 0.40631 2.2179 1.5845 2.75 0.83315 5.4275 1.9268 5.95 2.4304 1.2271 1.1826 1.55 1.1544 1.55-0.13549zm23.615-6.4398c-2.1237-1.6078-9.0708-2.8772-12.708-2.3221-1.4979 0.2286 0.42525 0.97558 5.0934 1.9784 9.5339 2.048 9.887 2.0639 7.615 0.34373zm-101.62-10.07c0-2.2885-17.547-7.4457-25-7.3476-5.4947 0.0724-5.4913 0.0742 3.5 1.9186 4.95 1.0154 11.475 2.7446 14.5 3.8426 6.0502 2.1962 7 2.4114 7 1.5863zm12-2.94c-1.2918-1.375-2.8327-2.4838-3.4243-2.464-0.59163 0.0198 0.27431 1.1426 1.9243 2.495 3.8538 3.159 4.4846 3.1459 1.5-0.031zm84-2.5133c6.7713-1.2818 8.3511-1.8204 5.5-1.8751-4.7999-0.0922-16.785 2.3354-19.243 3.8978-1.4321 0.91019-1.2021 0.99276 1.2428 0.44622 1.65-0.36885 7.275-1.4799 12.5-2.4689zm-35.13-2.49c1.1358-1.925 1.7025-3.5 1.2593-3.5-0.68194 0-1.5759 1.4224-3.928 6.25-1.1348 2.329 0.92333 0.20826 2.6688-2.75zm97.94-0.98495c-6.2317-4.2346-13.78-6.7515-17.774-5.9268l-3.5336 0.72965 5 1.2078c2.75 0.66427 7.7 2.3535 11 3.7539 7.7352 3.2825 9.9351 3.3801 5.3073 0.23546zm-61.316-3.5851c3.6861-1.1385 6.4819-2.2902 6.2128-2.5592-0.63238-0.63238-11.908 2.5735-13.154 3.7399-1.3597 1.2728-0.56427 1.1375 6.9413-1.1807zm-162.88-1.8061c4.9217-1.5819 11.297-3.1991 14.167-3.5938 2.87-0.39 5.22-1.11 5.22-1.6 0-0.94583-2.5111-0.62744-13.5 1.7117-6.8487 1.4578-15.5 4.6956-15.5 5.8009 0 0.78884-0.23143 0.84468 9.6146-2.3199zm164.23-3.6971c1.7345-0.86528 3.1536-1.7956 3.1536-2.0674 0-0.75574-4.2538 0.73963-6.4725 2.2753-2.6865 1.8595-0.55806 1.7261 3.3189-0.20794zm35.384 0.93461c2.0516-0.33913 3.4875-1.0092 3.191-1.489-0.63383-1.0256-14.791-1.1525-18.421-0.1652l-2.5 0.67988 2.5 0.70679c3.251 0.91912 10.516 1.0467 15.23 0.26752zm-197.22-2.35c1.2421-0.80271 1.1561-0.96937-0.5-0.96937-1.1 0-2.675 0.43621-3.5 0.96937-1.2421 0.80271-1.1561 0.96937 0.5 0.96937 1.1 0 2.675-0.43621 3.5-0.96937zm30 0c0-0.55-1.6875-0.94676-3.75-0.88169-3.7322 0.11776-3.7358 0.12194-0.75 0.88169 4.3299 1.1018 4.5 1.1018 4.5 0zm41.127-1.75c-1.4398-2.671-6.0336-6.6768-6.7897-5.9206-0.36882 0.36882 1.0919 2.2269 3.2461 4.129 4.5399 4.0088 4.8133 4.147 3.5436 1.7916zm70.87-6.03c0-0.83878-5.4741 4.0157-6.8361 6.0623-0.81008 1.2173 0.39664 0.4344 2.6816-1.7397 2.28-2.17 4.15-4.11 4.15-4.32zm-99 5.9577c0-3.3016-22.316-9.1666-34.917-9.1764-10.217-0.008-8.173 1.1846 2.6276 1.5329 8.6193 0.27795 20.442 3.3034 27.15 6.9473 2.9805 1.6193 5.1394 1.9117 5.1394 0.69621zm16-0.18c0-0.55-0.17004-1-0.37788-1-0.20783 0-2.0078-0.68104-4-1.5134-4.5007-1.8805-4.6893-1.1078-0.37212 1.5244 3.6441 2.2218 4.75 2.4521 4.75 0.98904zm128-4.2773c7.4029-3.4422 7.5322-3.5238 6.7773-4.2788-0.63859-0.6386-15.276 5.2326-18.277 7.3312-3.4342 2.4013 4.0344 0.41888 11.5-3.0525zm-191.58 0.28c1.4415 0 1.6821-0.29999 0.88205-1.1-0.80003-0.80003-2.6133-0.66009-6.6491 0.51314-7.0829 2.059-8.281 3.7168-1.3954 1.9307 2.84-0.74 6.07-1.34 7.16-1.34zm-20.42-2.83c2.475-1.1212 9.9-3.1587 16.5-4.5277s10.538-2.524 8.75-2.5667c-1.79-0.05-3.25-0.53-3.25-1.08 0-1.415-4.4658-1.2427-14.14 0.54528-9.75 1.8-20.86 5.24-20.86 6.46 0 0.46677 1.4625 0.38648 3.25-0.17841 9.8521-3.1135 20.087-4.9277 14.75-2.6144-11.757 5.0956-16 7.2018-16 7.9426 0 0.84214 1.6801 0.23281 11-3.9894zm141.37-1.67c0.433-1.9609 0.35108-2.4805-0.23652-1.5-0.49444 0.825-1.1778 3.075-1.5187 5-0.72876 4.116 0.70461 1.2577 1.7552-3.5zm-162.87 3.5c0.78687-1.2732-1.5299-1.2732-3.5 0-1.2195 0.78809-1.0903 0.97224 0.69098 0.98469 1.205 0.01 2.469-0.43 2.809-0.98zm251.45-1.0302c2.6905-1.5749-6.1309-1.0334-9.447 0.57983-2.9315 1.4261-2.8756 1.4466 2.447 0.89432 2.9959-0.31083 6.1459-0.9742 7-1.4742zm-142.59-2.47c-0.31659-0.825-1.1763-1.5-1.9104-1.5-0.73415 0-3.906-2.25-7.0486-5-5.411-4.7351-9.1023-6.7529-6.4026-3.5 0.68469 0.825 1.5693 1.5 1.9657 1.5 0.72911 0 6.9177 5.1007 9.9085 8.1667 2.0591 2.1108 4.2499 2.3202 3.4874 0.33333zm-123.48-1.41c13.235-3.31 17.068-4.09 20.075-4.09 1.6096 0 3.2047-0.45 3.5447-1 1.7267-2.7939-19.885 1.2179-29.807 5.5333-4.4005 1.9137-2.7508 1.7964 6.1871-0.44001zm100.12 1.43c0-2.763-28.426-12.489-38.629-13.217-10.684-0.76205-31.632 2.8397-29.343 5.045 0.25907 0.2495 3.621-0.15949 7.471-0.90887 9.7835-1.9043 26.349-1.8183 33.346 0.17306 8.5621 2.4367 17.378 5.4365 19.635 6.6813 1.1104 0.6124 2.6227 1.2138 3.3606 1.3365 0.7379 0.12268 1.6004 0.48183 1.9167 0.79809 0.69851 0.69852 2.2417 0.76177 2.2417 0.0919zm-124.98-4.1c11.643-5.8431 25.732-9.8209 39.28-11.09 9.247-0.86641 5.2258-2.4293-6.3033-2.4499-13.993-0.025-28.956 5.1322-38 13.097-5.5993 4.9313-4.1711 5.0573 5.0231 0.44303zm288.73 1.95c3.2493-0.87077 2.7772-2.5321-0.5-1.7596-3.1822 0.75002-5.4001 2.397-3.2 2.3763 0.7975-0.008 2.4625-0.285 3.7-0.61664zm-164-2.62c-0.81465-2.4555-15.966-9.0978-25.766-11.295-14.245-3.1944-33.794-4.0563-37.486-1.6527-1.7281 1.1249-1.2522 1.2223 3.5 0.71661 11.918-1.2683 32.275 2.8414 51 10.296 8.7316 3.476 9.3051 3.6029 8.752 1.9357zm46.333-6.8548c-0.88096-2.2023-0.9632-2.2274-1.0215-0.31185-0.0349 1.1458 0.23661 2.3833 0.60328 2.75 1.1944 1.1944 1.3975 0.0101 0.4182-2.4382zm-103.83-1.89c2.06-0.01 3.75-0.46 3.75-1.01 0-1.5682-10.219-1.1006-13 0.59483-2.4601 1.4996-2.4361 1.5152 1.5 0.97557 2.2-0.30162 5.6875-0.55334 7.75-0.55939zm-78.386-1.91c6.1113-3.1922 13.338-5.8273 19.636-7.1601 3.3-0.69835 7.2781-1.9032 8.8403-2.6775 1.5621-0.77428 3.4726-1.1651 4.2455-0.86855 1.4318 0.54943 12.161-1.1221 13.835-2.1555 6.3234-3.9025-28.542 0.87559-37.274 5.1083-7.371 3.57-14.147 7.76-14.147 8.75 0 1.2998 0.77538 1.1412 4.8638-0.99432zm261.64-2.1c1.5808-1.65 2.4242-3 1.8742-3s-2.2934 1.35-3.8742 3-2.4242 3-1.8742 3 2.2934-1.35 3.8742-3zm-191.39-2.6637c7.2295-1.7449 9.7304-4.0902 3.1431-2.9474-2.0625 0.3578-6.675 0.90457-10.25 1.215-8.3941 0.72901-10.42 1.488-6.5 2.4349 4.7429 1.1456 6.2786 1.0663 13.607-0.70252zm148.86-3.9885c1.1631-3.1087 3.911-9.4682 6.1063-14.132 2.1953-4.664 3.8265-8.645 3.6249-8.8466-0.49342-0.49343-11.438 22.729-12.265 26.024-1.1538 4.5971 0.35085 2.7887 2.5335-3.0451zm-157.47-0.75l8-1.2546-4.7491-0.78368c-5.077-0.84-17.75 0.98-17.75 2.55 0 1.1791 4.7631 1.0089 14.5-0.51808zm140.43-28.1c1.9182-19.849 2.0261-22.307 0.57022-13-2.1575 13.792-4.52 34.964-4.3745 39.202 0.14437 4.2048 2.3014-10.652 3.8043-26.202zm-172.34 22.01c5.452-0.83 14.638-1.51 20.413-1.53 7.525-0.026 10.012-0.321 8.7759-1.0411-4.9936-2.9102-29.413-1.296-38.121 2.5199-4.1633 1.8244-2.8789 1.8318 8.9321 0.0516zm162.56-21.01l-0.87263-11-0.13384 9c-0.16563 11.138 1.1843 26.18 1.6155 18 0.14497-2.75-0.12911-9.95-0.60905-16zm-3.0343 10.426c-0.56304-4.8579-0.90177-6.0429-0.97944-3.4262-0.12509 4.2143 0.88185 11.811 1.4856 11.207 0.19502-0.19503-0.0327-3.6964-0.50611-7.7808zm18.86-21.43c2.1973-12.65 6.0141-30.398 8.4817-39.441 5.4555-19.991 5.2029-22.162-0.45411-3.9032-2.2738 7.3392-5.2037 16.719-6.5107 20.844-2.369 7.4765-4.981 25.316-5.93 40.5-0.66145 10.583-0.28526 9.0491 4.4132-18zm-35.505-2.7256c-0.91-3.45-3.14-12.35-4.96-19.77-5.53-22.529-9.02-32.631-17.53-50.764-6.2554-13.316-7.6418-14.401-2.1142-1.6547 5.9799 13.789 14.58 41.021 21.765 68.918 2.371 9.2056 3.9847 13.947 4.1775 12.274 0.17274-1.4991-0.42821-5.5491-1.3354-9zm58.184-4.4451c-0.53183-0.53184-6.6763 10.923-6.6472 12.392 0.008 0.42819 1.6272-2.0653 3.5971-5.541 1.9699-3.4758 3.3424-6.5588 3.05-6.8512zm-36.51-7.32l-0.86229-11.5-0.13181 10c-0.0725 5.5 0.1948 11.8 0.59397 14 1.1808 6.5078 1.3736 0.48324 0.40013-12.5zm-30.683-0.55089c-5.37-22.251-15.26-47.668-21.59-55.45-2.5152-3.0934-2.3435-2.6103 2.9464 8.2924 4.7354 9.7597 15.827 41.068 18.672 52.704 1.0079 4.1228 1.9986 6.998 2.2015 6.3893 0.2029-0.60871-0.80517-5.98-2.2402-11.936zm-13.01 3.9133c-4.45-6.94-15.18-18.36-17.26-18.36-0.88556 0 0.49244 2.1372 3.4085 5.2865 6.8655 7.4144 10.497 11.619 13.811 15.991 4.2656 5.6272 4.2912 3.7318 0.0395-2.9148zm46.44-19.11c-0.08-12.245-0.33-15.043-1.13-12.571-0.94 2.921-0.19 28.321 0.83 28.321 0.21962 0 0.35337-7.0875 0.29722-15.75zm26.069 8.3659c1.0465-3.6593 1.4937-6.4005 0.99388-6.0916-0.97937 0.60528-3.9608 9.8819-3.9608 12.324 0 2.6943 1.0371 0.51582 2.9669-6.2323zm-13.03-26.037c0.0326-1.0542-0.20794-1.6494-0.53461-1.3227-0.88517 0.88517-4.3518 21.697-4.2874 25.739 0.0521 3.2685 4.6923-20.228 4.822-24.417zm32.099 22.702c1.75-2.593 2.4803-4.1323 1.6228-3.4207-1.5693 1.3024-5.9368 8.1352-5.2 8.1352 0.21748 0 1.8272-2.1215 3.5772-4.7145zm-4.67-23.28c1.453-3.025 4.208-8.2 6.1224-11.5 3.5458-6.1124 4.2608-8.9146 2.545-9.975-0.52773-0.32616-1.9335 1.5598-3.1238 4.191-1.18 2.631-3.85 8.384-5.91 12.784-4.6241 9.857-8.5224 20.692-9.3545 26-0.41469 2.6454 0.67904 0.61358 3.2297-6 2.1212-5.5 5.0455-12.475 6.4985-15.5zm-82.085 20.748c-0.57666-1.2367-1.8577-4.2735-2.8468-6.7485-0.98909-2.475-2.4185-5.175-3.1764-6-0.75793-0.825 0.22245 2.2524 2.1786 6.8386s3.5567 8.5987 3.5567 8.9167c0 0.31793 0.30068 0.27738 0.66817-0.0901 0.3675-0.3675 0.19637-1.68-0.38028-2.9167zm66.725-4.2952c2.1839-7.6368 1.1479-7.6557-1.3804-0.0252-1.6094 4.8572-2.1402 8.4125-1.1008 7.3731 0.29266-0.29265 1.4092-3.5992 2.4812-7.3479zm17.753-7.5918c3.8557-7.5012 8.1857-15.368 9.6222-17.482 3.042-4.4767 3.4454-7.6866 0.90463-7.1972-2.4486 0.47156-14.325 25.033-17.803 36.818-1.1929 4.0421-0.12327 2.2577 7.2766-12.138zm-90.6 8.185c-2.1319-6.1157-19.134-28.047-19.16-24.715-0.006 0.78011 5.2622 7.6664 9.3014 12.158 0.99432 1.1057 3.6906 5.2391 5.9916 9.1854 4.3409 7.4445 5.6994 8.629 3.8666 3.3715zm63.8-10.04c4.4668-17.922 7.9604-29 9.1453-29 0.56478 0 0.73197-0.47716 0.37154-1.0604-0.70572-1.1419 1.12-6.4931 3.05-8.9396 1.6765-2.1252 2.5808-5 1.5728-5-3.4341 0-10.031 16.143-14.07 34.428-5.34 24.182-5.39 30.912-0.07 9.572zm39.717-10.178c1.0642-1.177 1.2345-2.1835 0.57018-3.3705-1.2289-2.1959-4.169 1.6596-10.067 13.201-6.1907 12.115-5.0409 13.206 1.9066 1.809 3.34-5.4789 6.7554-10.717 7.5899-11.64zm-46.72-9.185c6.1-20.347 3.9-19.048-3.15 1.863-2.0874 6.1879-3.1483 11.5-3.3953 17l-0.35927 8 1.3766-6.5c0.75714-3.575 3.2464-12.739 5.5316-20.363zm47.894 17.559c1.7799-2.2474 2.7053-4.3038 2.2604-5.0236-0.90957-1.4717-3.0238 0.66846-5.511 5.5786-2.2339 4.41-0.43901 4.1036 3.2506-0.55496zm-85.86-1.446c0-1.238-0.45-2.925-0.98-3.75-0.72-1.116-0.97-0.539-0.98 2.25-0.01 2.062 0.43 3.75 0.98 3.75s0.99311-1.0125 0.98469-2.25zm30.852-19.328c0.69282-8.0177 1.7148-17.04 2.2711-20.049 0.55627-3.0091 0.85006-6.9117 0.65288-8.6723-0.40573-3.6227-1.1812-2.3856-2.3813 3.7989l-0.7762 4-0.55171-4.5c-0.9052-7.3832-1.7676-3.3591-2.4646 11.5-1.173 25.007-1.0185 28.5 1.2606 28.5 0.40129 0 1.2965-6.56 1.9893-14.578zm26.74 7.328c0.95199-2.8875 3.9132-9.9252 6.5804-15.639 2.6672-5.7141 4.8495-10.552 4.8495-10.75 0-1.1795-2.1718-0.0686-2.7162 1.3893-0.35939 0.9625-1.8795 3.775-3.3781 6.25-2.45 4.043-7.91 19.785-7.91 22.802 0 2.4503 0.88812 1.0502 2.5702-4.0516zm17.768-13.654c2.1349-4.373 2.0948-5.2479-0.43709-9.5392-2.66-4.512-2.55-4.568-3.9 1.943-0.63 3.025-1.56 5.5-2.07 5.5s-0.93 0.45-0.93 1c0 2.3545 2.0827 0.69273 3.7846-3.0196 2.236-4.8774 3.5628-4.2412 1.7937 0.86005-3.5808 10.325-2.5881 12.162 1.76 3.256zm6.41-6.6369c-0.28149-2.4973-1.3525-5.4696-2.3801-6.605-1.0275-1.1354-1.721-2.3547-1.541-2.7094 0.47479-0.9359-2.6111-2.6944-3.3796-1.9259-0.3566 0.35659 0.76321 2.4049 2.4885 4.5517 1.7252 2.1468 3.4043 5.5517 3.7312 7.5663 0.84798 5.2255 1.6917 4.5404 1.081-0.87765zm-46.85-25.209c-0.08-4.388-0.29-5.158-0.9-3.25-1.1629 3.6311-1.1629 9 0 9 0.56228 0 0.95637-2.5169 0.90032-5.75zm4.9433 534.59c-1.6081-2.8488-1.488-16.763 0.17134-19.864 1.8533-3.4629 2.1083-1.7278 0.83619 5.6904-0.89265 5.2055-0.91093 8.0605-0.0727 11.363 1.2945 5.1 0.94716 6.1445-0.93478 2.8105zm11.132-1.4008c-0.53-1.42-0.97-4.29-0.97-6.38 0-2.097-0.68529-5.4529-1.5229-7.4575-1.3912-3.3297-1.3795-3.6998 0.13593-4.2813 2.4532-0.94136 4.9251 1.0955 4.6273 3.8128-0.1428 1.303-0.30685 5.6315-0.36455 9.619-0.11388 7.8697-0.41114 8.6024-1.9006 4.6849zm-19.352-2.9736c-0.34295-0.8937-0.58486-2.3756-0.53759-3.2931 0.0473-0.91751 0.4824-0.34083 0.96694 1.2815 0.94266 3.1563 0.60928 4.7182-0.42935 2.0116zm-28-5.59c-0.94362-4.7181-0.7652-8.0546 0.28741-5.375 1.3694 3.4861 2.07 8.5 1.1876 8.5-0.4675 0-1.1312-1.4062-1.475-3.125zm5.4937-3.3178c-1.223-4.8572-1.4532-14.9-0.47686-20.807 1.2089-7.3141 1.8582-3.5572 1.8582 10.753 0 7.9736-0.0591 14.497-0.13129 14.497-0.0722-0.00011-0.6347-1.9995-1.25-4.443zm21.217-4.1244c-0.33077-0.86197-0.0916-2.077 0.53139-2.7 0.85-0.85 1.14-0.45 1.14 1.56 0 3.0087-0.74874 3.5184-1.6642 1.1328zm14.257-12.112c4.64-10.27 6.41-16.16 6.41-21.31 0-2.76 0.45-5.02 1-5.02 3.2218 0-0.0274 17.623-4.6216 25.066-4.9058 7.948-6.0409 8.4591-2.7857 1.2544zm-25.99 0.92c0.35341-1.5125 1.487-5.3233 2.519-8.4684 1.04-3.14 1.88-7.98 1.88-10.75s0.45-5.03 1-5.03c1.4984 0 1.2053 6.8438-0.55813 13.032-0.85697 3.0074-2.0578 7.3804-2.6685 9.7179-1.2053 4.6135-3.2224 6.0085-2.169 1.5zm42.017 1.6847c-0.75067-1.695 0.73446-6.8736 1.5359-5.3557 0.26746 0.50653 0.18725 2.271-0.17823 3.921-0.48949 2.2098-0.84709 2.5877-1.3577 1.4347zm-31.17-7.18c2.7197-8.9393 3.0213-17.605 1.0353-29.75l-0.57233-3.5 1.6145 2.8258c3.0829 5.3959 1.537 32.674-1.8517 32.674-0.50069 0-0.60231-1.0125-0.2258-2.25zm34.224-11.526c-2.1614-3.3425-1.8407-11.766 0.75791-19.908 1.9304-6.0481 2.4423-9.2445 1.9617-12.25-0.41896-2.62-0.27088-4.0666 0.41626-4.0666 2.1444 0 2.533 8.9554 0.66684 15.368-0.98156 3.3727-2.0531 9.7322-2.3812 14.132-0.35526 4.7642-0.93021 7.484-1.4215 6.7243zm-83.67-7.52c0-3.5307-0.21675-8.6198-0.48166-11.309l-0.48166-4.8896 1.4048 4c1.635 4.6555 2.021 17.096 0.55851 18-0.627 0.38751-1-1.7764-1-5.8014zm60.05 4.8c-1.4543-16.348-1.8655-18.376-5.0305-24.805-3.7874-7.6934-3.9167-18.86-0.28281-24.432l1.7612-2.7004 0.33936 2.3696c0.18665 1.3033-0.41519 5.0588-1.3374 8.3456-1.9466 6.9376-1.432 11.278 2.0392 17.202 2.6996 4.6064 4.5245 16.594 3.403 22.353-0.39277 2.017-0.7942 2.7672-0.89205 1.6672zm32.819-2c-0.58173-2.4605 0.19852-5.7485 3.753-15.815 2.8319-8.0201 2.7878-12.386-0.22826-22.591-0.49464-1.6737-0.36701-2.1937 0.41918-1.7078 4.1204 2.5466 4.6096 19.835 0.79543 28.114-1.5202 3.3-3.1021 7.8-3.5153 10-0.52589 2.8001-0.8931 3.4-1.2241 2zm-83.862-25.978c-4.8641-11.348-4.9246-15.504-0.37288-25.647 4.2547-9.4807 5.8796-8.0782 1.8826 1.6249-3.0542 7.4144-3.1743 13.599-0.41845 21.562 2.5414 7.3436 1.7586 9.1083-1.0912 2.46zm74.062-10.937c-0.74577-0.8986-1.0593-1.9304-0.69678-2.293 0.93392-0.93393 2.9316 1.2902 2.4518 2.7296-0.27581 0.82743-0.81782 0.69257-1.755-0.43666zm-19.07-14.52c0-4.3675-0.45-8.2191-1-8.559-1.2347-0.76311-1.3315-4.5-0.11658-4.5 0.48589 0 1.1296 1.0125 1.4304 2.25 0.30085 1.2375 1.0229 4.05 1.6045 6.25 1.1266 4.2614 0.44652 12.5-1.0319 12.5-0.49 0-0.89-3.57-0.89-7.94zm6.8033-4.7403c-0.31481-7.4161-0.98512-11.825-2.1313-14.019-1.9-3.65-2.11-5.3-0.67-5.3 0.55 0 1 0.6178 1 1.3729 0 0.75509 0.87403 3.3488 1.9423 5.7637 2.1597 4.8824 3.0889 20.232 1.3312 21.99-0.68121 0.68121-1.1607-2.5175-1.4702-9.8078zm6.2402 3.9313c0.024-0.9625 0.43302-3.7691 0.90903-6.2368 0.77808-4.0337 0.17443-11.249-1.4524-17.36-0.38761-1.456-0.0335-1.202 1.0935 0.78432 1.9625 3.4589 2.9504 13.449 1.9738 19.961-0.65416 4.3623-2.6167 6.5795-2.5239 2.8515zm-44.068-2.8151c-3.24-8.53 6.76-45.43 12.31-45.43 1.3621 0 0.0478 4.3898-3.73 12.459-5.6018 11.965-6.7517 16.354-6.8878 26.291-0.13807 10.08-0.24148 10.49-1.6881 6.6849zm49.446-20.892c-1.0212-4.0688 0.079-5.0773 1.2778-1.1713 0.61247 1.9956 0.71428 3.6284 0.22624 3.6284s-1.1649-1.1057-1.504-2.4571zm-3.15-7.79c-3.1034-3.986-6.3939-11.768-6.0698-14.356 0.33271-2.656 0.61829-2.359 3.4675 3.6056 4.0659 8.5118 5.5126 14.488 2.6023 10.75zm-27.153-39.5c-0.07-6.25 0.27-10.25 0.88-10.25 1.1574 0 1.1574 12.951 0 17.5-0.51189 2.0117-0.80235-0.37673-0.88169-7.25zm-224.62-158.25c-0.717-1.16 1.144-4 2.619-4 1.3819 0 1.0241 2.6335-0.53342 3.9261-1.0081 0.83662-1.6038 0.85908-2.0861 0.0786zm380.97-7.25c-1.538-1.2375-5.6337-3.825-9.1014-5.75-3.4678-1.925-10.708-6.0476-16.088-9.1613-5.38-3.12-11.69-6.43-14.03-7.36-3.38-1.35-5.76-3.48-3.89-3.48 5.68 0 47.64 23.52 47.64 26.7 0 1.8835-1.3553 1.5979-4.5267-0.9538zm-379-12.69c1.436-2.77 3.533-4.89 3.533-3.57 0 1.46-3.143 6.51-4.051 6.51-0.55 0-0.31664-1.3215 0.51857-2.9366zm442.03-3.54c-2.75-2.4426-4.325-4.4434-3.5-4.4462 2.2597-0.008 9.4435 5.2772 9.8183 7.2232 0.51069 2.6518-0.90836 2.0281-6.3183-2.777zm-433.64-35.55c1.298-1.08 2.986-1.97 3.75-1.97s1.389-0.51 1.389-1.12c0-1.502-5.3857-0.39713-10.137 2.0796-4.597 2.3961-5.6717 1.5247-2.1476-1.7414 4.466-4.15 29.285-9.53 29.285-6.36 0 0.84916-9.1702 5.2318-13.931 6.6581-1.3372 0.40057-3.8122 1.5704-5.5 2.5997-4.0154 2.4486-5.7162 2.3516-2.708-0.15444zm102.93-5.8916c-2.5894-0.36173-5.0644-1.0396-5.5-1.5064-1.1192-1.1992 11.905 0.22846 13.114 1.4375 1.1056 1.1056-0.11411 1.1166-7.6142 0.0689zm287.71-8.6c-2.2-1.3359-5.35-3.0548-7-3.8196-3.2259-1.4953-12.839-8.3931-15.825-11.355-1.4127-1.4014-3.1626-1.7596-7.75-1.5867-6.7126 0.25299-7.3237-0.23188-2.7277-2.1643 5.5324-2.3262 10.347-0.15085 26.994 12.196 3.1302 2.3217 7.2927 4.9849 9.25 5.9183 3.5286 1.6827 4.7127 3.3666 2.3087 3.2832-0.6875-0.0239-3.05-1.1364-5.25-2.4724zm-278-5.48c-4.4-2.1588-8.5686-3.942-9.2636-3.9626-0.69496-0.0206-2.045-0.44694-3-0.94742-20.782-10.891-46.729-12.766-70.094-5.0666-5.6125 1.8495-8.5358 2.0365-6.9434 0.44411 9.9337-9.9337 54.442-8.8019 78.301 1.9911 1.65 0.74642 5.025 2.18 7.5 3.1858 4.3374 1.7626 13 7.0444 13 7.9265 0 0.89185-1.7285 0.24213-9.5-3.5708zm-87.193 1.5663c9.2189-6.99 56.509-11.984 69.443-7.3331 3.9499 1.4202 4.3348 3.2472 0.5 2.3731-14.092-3.2122-52.729-0.14248-66.565 5.2887-3.8366 1.506-5.5746 1.3369-3.3779-0.32868zm320.69-10.07c2.7995-1.6003 7-1.9704 7-0.61663 0 1.056-3.5273 2.0978-7 2.0675l-2.5-0.0218 2.5-1.43zm-234-43.44c0-2.3263 11.499-20.275 14.239-22.227l3.0507-2.1723 4.105 2.23c4.6668 2.5352 17.289 13.762 16.434 14.617-0.3097 0.3097-2.9854-1.3887-5.9461-3.7742-14.62-11.782-13.68-12.025-27.3 7.016-3.79 5.29-4.59 6.04-4.59 4.31zm-12.51-24.285c-1.7884-4.5143 12.824-27.442 16.976-26.636 1.6147 0.31334 1.3399 0.9808-2.05 4.9791-4.1349 4.877-5.9152 7.6746-11.062 17.383-2.4413 4.605-3.3397 5.5988-3.8643 4.2746zm84.97-12.344c-1.06-5.963-4.4-20.367-5.89-25.431-3.8232-12.938-6.1947-23.96-4.8706-22.636 1.3197 1.3197 8.9013 29.282 12.783 47.144 0.24001 1.1046 0.0408 2.6484-0.44277 3.4308-0.63396 1.0258-1.0738 0.32617-1.577-2.5083zm2.02-32.181c-1.65-8.388-2.68-15.25-2.28-15.25 1.5138 0 6.0458 21.446 5.6229 26.608-0.23695 2.8924-1.0932-0.02434-3.3343-11.358zm6.3 7.75c-0.36-1.375-0.95-7-1.3-12.5s-0.99-11.912-1.43-14.25c-0.43-2.338-0.44-4.25-0.01-4.25 0.43065 0 1.0868 1.9125 1.458 4.25 0.37125 2.3375 1.5358 7.7 2.5879 11.917 2.1448 8.5961 2.4259 11.193 0.96082 8.8767-0.65075-1.0288-1.0207-0.000533-1.2592 3.5-0.26271 3.8551-0.48621 4.4011-1.0056 2.4567zm105.22 1.228c0-0.54212 1.4625-1.5278 3.25-2.1904s4.0813-1.6484 5.0974-2.1906c1.0161-0.54223 2.0927-0.74057 2.3925-0.44075 1.0059 1.0059-1.7772 3.3712-4.522 3.8432-1.4948 0.25704-3.5053 0.80414-4.4678 1.2158-0.98924 0.42306-1.75 0.31993-1.75-0.23725zm-30.21-11.228c0.33697-2.2959 0.0542-3-1.2046-3-2.8828 0-2.9039-2.9281-0.0509-7.0451 3.3119-4.7791 4.3057-4.5209 1.9233 0.4996-2.2164 4.6707-1.0527 5.8075 2.0537 2.0064 2.9523-3.6126 3.2066-1.7825 0.49171 3.5391-1.1 2.1562-2 4.6133-2 5.4602 0 0.847-0.37 1.54-0.83 1.54-0.45474 0-0.62867-1.35-0.3865-3zm12.49-3.527c2.0772-2.0641 4.0694-3.4602 4.4272-3.1024 0.78485 0.78485-2.4025 3.8839-5.7669 5.6071-1.84 0.94243-1.5118 0.32884 1.3397-2.5047zm-27.78-10.473c0.39863-1.375 1.1748-2.95 1.7248-3.5 0.66667-0.66667 0.7584-0.16667 0.27521 1.5-0.39863 1.375-1.1748 2.95-1.7248 3.5-0.66667 0.66667-0.7584 0.16667-0.27521-1.5zm18.5-2.726c0-0.49071 0.68823-1.7657 1.5294-2.8333 1.4811-1.8798 1.5206-1.8646 1.25 0.48054-0.26 2.235-2.78 4.37-2.78 2.353zm-74.23-4.8309c-1.28-2.0771-1.98-8.4431-0.93-8.4431 0.58628 0 1.3569 1.5508 1.7125 3.4463 0.68533 3.6531 0.22102 6.6198-0.78204 4.9968zm7.23-6.4431c0-1.8667 0.26667-2.1333 1.2-1.2 0.93333 0.93333 0.93333 1.4667 0 2.4-0.93 0.9333-1.2 0.6667-1.2-1.2z"/>
</svg>
