<?xml version="1.0" encoding="UTF-8" standalone="no"?>
<svg xmlns:rdf="http://www.w3.org/1999/02/22-rdf-syntax-ns#" xmlns="http://www.w3.org/2000/svg" height="398.56mm" width="438.57mm" version="1.1" xmlns:cc="http://creativecommons.org/ns#" xmlns:dc="http://purl.org/dc/elements/1.1/" viewBox="0 0 1553.9721 1412.2179">
<g transform="translate(796.99 136.6)">
<path d="m167.14-124.78a15.714 15.714 0 0 0 -15.715 15.715 15.714 15.714 0 0 0 15.715 15.715 15.714 15.714 0 0 0 15.715 -15.715 15.714 15.714 0 0 0 -15.715 -15.715zm312.86 0a15.714 15.714 0 0 0 -15.71 15.71 15.714 15.714 0 0 0 15.71 15.718 15.714 15.714 0 0 0 15.71 -15.718 15.714 15.714 0 0 0 -15.71 -15.71zm-1037.1 2.8574a15.714 15.714 0 0 0 -15.715 15.715 15.714 15.714 0 0 0 15.715 15.715 15.714 15.714 0 0 0 15.715 -15.715 15.714 15.714 0 0 0 -15.715 -15.715zm-169.05 18.139c-7.789-0.0979-15.6 5.4779-15.6 15.559 0 14.583 20.378 20.553 27.984 8.1973 2.2905-3.7205 3.1731-9.1444 2.0645-12.682-2.3477-7.4903-8.3911-10.998-14.449-11.074zm765.09 11.881c-5.4413-0.15667-11.076 0.73008-16.793 2.748-48.051 16.962-43.406 88.076 10.133 155.13 11.693 14.643 16.071 20.99 19.66 28.5 1.183 2.475 5.7188 11.925 10.078 21 4.3593 9.075 9.4238 20.325 11.256 25 6.0455 15.427 14.98 19.747 14.98 7.2441 0-1.4383 0.79812-2.6046 2.1152-3.0918 2.0054-0.74186 2.1221-1.5038 2.25-14.717 0.21837-22.553 1.9433-24.602 34.074-40.455 80.415-39.675 104.95-66.707 96.076-105.87-4.0085-17.697-23.018-38.177-46.926-50.555-24.968-12.927-64.609 3.3503-78.805 32.357-4.662 9.5261-4.5682 9.5681-7.377-3.3086-7.244-33.011-27.188-53.309-50.767-53.988zm-330.12 2.375c-9.521 0-13.064 6.7134-13.064 24.75 0 7.2876-0.0403 13.25-0.0899 13.25-0.0496-0.00011-3.6092-0.9-7.9102-2-20.365-5.2084-33.819 1.1911-27.465 13.064 1.5728 2.9388 0.23823 2.3469-4.8828-2.168-17.8-15.693-47.329-16.487-61.416-1.6523-4.0207 4.234-4.0369 4.2403-3.3008 1.2559 10.471-42.453-22.481-52.789-57.086-17.906-14.085 14.198-16.712 20.203-17.211 39.336-0.62551 23.996 7.525 63.001 17.883 85.57 1.7668 3.85 4.4604 10.365 5.9844 14.479 4.2789 11.548 8.1408 12.067 9.3789 1.2617 1.0321-9.0071 3.2645-14.492 7.6348-18.76 4.6941-4.5837 4.7658-4.4376 1.418 2.875-5.7283 12.512-0.46239 10.415 8.7988-3.5039 9.6168-14.453 20.327-22.802 36.371-28.354 51.941-17.972 74.671-38.403 64.768-58.221-1.581-3.1637-3.036-6.1275-3.2324-6.5859-0.19636-0.4584 2.0536 0.3924 5 1.8906 5.5076 2.8006 11.904 3.6035 17.107 2.1484 2.326-0.65049 2.75-0.46595 2.75 1.1914 0 9.7915 12.182 31.565 21.4 38.25 13.316 9.6568 20.827-8.7884 11.164-27.414-1.4102-2.718-2.5644-5.0706-2.5644-5.2266 0-0.15601 5.2875 2.5924 11.75 6.1074 16.42 8.9309 22.388 10.561 30.455 8.3203 13.656-3.7927 7.857-21.334-9.1309-27.621-2.5158-0.93114-4.7671-1.8423-5.002-2.0254-0.73741-0.57491 3.1311-3.1668 11.928-7.9922 17.338-9.511 21.918-14.588 18.855-20.9-5.0969-10.504-32.365-7.3062-51.447 6.0332l-6.4082 4.4785-0.006-9.7148c-0.009-16.027-4.2128-24.217-12.43-24.217zm328.39 4.6387c5.4317 0.12103 11.104 1.5083 16.836 4.3828 18.611 9.3329 23.351 16.814 30.26 47.742 4.8419 21.677 8.868 23.081 16.217 5.6543 11.913-28.25 47.43-45.693 71.23-34.984 36.755 16.538 55.75 54.358 40.914 81.459-11.054 20.192-41.23 42.113-88.244 64.098-17.308 8.0935-18.679 8.2257-10.908 1.0586 9.0317-8.3298 9.2452-8.4767 51.805-36.049 28.111-18.211 37.237-29.686 38.668-48.609 2.5705-33.988-19.135-53.036-52.924-46.443-23.547 4.5946-46.482 29.9-58.861 64.943-4.0271 11.4-4.6346 10.537-4.8418-6.8906-0.29395-24.729-4.0845-42.675-11.826-56-29.264-50.369-81.874-26.172-75.012 34.5l0.67969 6-2.5918-7.5c-13.107-37.794 9.2179-74.018 38.549-73.365zm-328.05 1.5312c6.2525 0.37252 8.8549 18.268 4.8477 34.83-1.6228 6.7071-3.6817 11.161-4.8301 10.451-0.6727-0.41575-0.62021-1.1097 0.1543-2.043 0.93966-1.1322 0.46944-2.0565-2.373-4.6602-8.8797-8.1335-7.6758-37.448 1.584-38.559 0.2092-0.02508 0.4155-0.03155 0.61719-0.01953zm1019.9 5.6895c-0.61968-0.10695-1.8695 0.45674-3.6348 1.6562-2.3349 1.5866-5.0516 2.4844-7.5234 2.4844-2.1278 0-8.56 1.3665-14.295 3.0371-7.6896 2.24-14.029 3.2942-24.148 4.0137-14.756 1.049-39.075 3.3922-51.223 4.9355-28.934 3.676-62.668 5.6177-102.23 5.8867-32.242 0.21918-39.45 1.8224-66.297 14.738-53.333 25.659-53.65 90.201-0.46875 95.598 22.319 2.2649 35.398 0.26552 45.818-7.002 7.6812-5.357 7.7665-5.2923 5.2207 3.8945-5.6431 20.364 5.594 56.06 22.676 72.033 39.55 36.984 116.1-10.741 147.78-92.135 3.1042-7.975 7.59-19.45 9.9688-25.5 2.3787-6.05 5.463-15.3 6.8535-20.555 4.7442-17.93 12.382-33.218 21.359-42.748 4.3009-4.5658 7.9405-8.4347 8.0879-8.5996 0.7292-0.81628 2.7985-10.399 2.4629-11.406-0.0622-0.18643-0.1997-0.29638-0.40625-0.33203zm-1154.8 1.7383c3.1212 0.13702 5.7526 1.1188 7.6191 3.1328 3.7545 4.0512 7.3636 19.27 4.5703 19.27-0.44084 0-1.7309-2.201-2.8672-4.8906-8.6036-20.364-45.967-4.5844-58.387 24.658l-2.0117 4.7324 0.55469-4.3047c2.499-19.413 33.667-43.338 50.521-42.598zm287.97 0.86719c-8.3183-0.16758-15.529 6.2948-14.602 17.168l0.52344 6.1328-4.2012-0.95312c-41.723-9.4523-76.85 17.424-40.506 30.992 4.8191 1.799 28.057 4.856 40.068 5.2715 1.2294 0.0425-1.8137 1.1342-6.7637 2.4258-41.245 10.762-55.517 31.252-36.295 52.105 16.315 17.699 41.966 8.8608 58.68-20.219 4.5114-7.849 16.023-25.215 17.195-25.939 1.0502-0.64905 1.4927 0.42047 2.375 5.7402 1.8149 10.943 13.03 19.165 25.959 19.031 19.382-0.20079 29.251-9.4381 24.639-23.062-1.4783-4.3668-9.1831-15.107-10.896-15.189-0.36128-0.0174-1.905-1.1312-3.4316-2.4746l-2.7773-2.4434 5.9121-5.9102c10.168-10.168 12.386-20.657 5.5117-26.064-7.3009-5.7429-32.766-9.5389-41.561-6.1953-2.128 0.80905-2.8228 0.4772-5.1797-2.4766-4.2707-5.3523-9.6594-7.8389-14.65-7.9395zm-452.64 1.459c-7.6691-0.16837-15.825 1.743-22.84 6.0781-4.6072 2.8474-7.3222 6.5247-12.924 17.498-2.5269 4.95-5.6463 10.272-6.9316 11.826l-2.3379 2.8262-0.61719-6.6035c-1.9095-20.449-19.231-27.311-33.688-13.346-1.3763 1.3296-4.9763 4.005-8 5.9434-13.465 8.6321-20.861 18.114-23.451 30.072-0.7482 3.4542-2.1037 8.3062-3.0137 10.781-1.6002 4.3522-2.4422 30.721-1.0527 32.969 1.1322 1.832 3.5007 28.204 3.5098 39.08 0.0135 16.152 3.2629 18.971 8.832 7.6582 5.1486-10.458 13.687-18.387 27.178-25.236 12.272-6.2309 20.336-13.296 37.355-32.727 7.602-8.6788 19.359-17.729 30.713-23.643 22.602-11.773 37.58-32.289 34.023-46.602-2.5442-10.238-13.974-16.296-26.756-16.576zm820.06 1.0117c-2.9678 0.08679-4.2514 0.94394-1.9473 2.6426 1.0742 0.79187 3.4366 1.9752 5.25 2.6309 2.4074 0.87053 3.2969 1.804 3.2969 3.457 0 2.7819 1.68 3.6752 10 5.3223 6.5942 1.3054 14 6.4614 14 9.7461 0 0.73064 0.6748 1.5876 1.5 1.9043 1.9284 0.73999 11.703 13.658 17.793 23.516 17.348 28.08 57.049 52.856 84.666 52.838 38.203-0.025 53.323-12.07 42.041-33.492-4.9528-9.4042-4.9804-8.9679 0.75-11.885 9.709-4.9421 12.212-11.974 8.7226-24.496-3.3578-12.049-10.228-21.67-17.99-25.188-3.9493-1.7899-10.379-2.4892-54.982-5.9805-23.131-1.8105-72.316-0.72733-84.346 1.8574-8.6337 1.8551-9.6245 1.8901-13 0.45117-5.3384-2.2756-11.938-3.4358-15.754-3.3242zm-368.68 4.0645c7.9922 0 15.142 7.3785 10.713 11.055-2.5398 2.1079-4.4336 6.584-4.4336 10.479 0 1.9982-0.3375 3.4734-0.75 3.2773-9.5774-4.5518-10.306-5.1951-11.828-10.432-2.48-8.5308 0.0821-14.379 6.2988-14.379zm-96.188 2c8.2825-0.08926 12.763 2.5603 7.2168 7.7617-1.2375 1.1605-6.525 4.4636-11.75 7.3418s-11.975 6.8996-15 8.9355c-4.3975 2.9597-6.7277 3.8062-11.625 4.2246-8.878 0.75851-13.674 3.2495-13.148 6.8301 0.36038 2.4554 0.19004 2.663-1.4648 1.7773-8.1263-4.349 3.2275-22.114 19.246-30.113 8.9491-4.469 19.217-6.679 26.525-6.7578zm533.41 0.10156c8.0545 0.09504 6.1919 1.14-3.4394 4.2207-4.4 1.4074-10.9 3.8777-14.443 5.4902l-6.4414 2.9316-4.5586-2.7363c-2.5068-1.5052-6.0191-3.3583-7.8066-4.1172-7.0885-3.0096 1.6311-4.9452 25.25-5.6074 4.9683-0.13929 8.7546-0.21332 11.439-0.18164zm-260.54 0.41797c23.292-0.17324 43.553 32.22 43.619 74.172 0.0644 41.003 5.2748 47.403 14.91 18.309 9.1929-27.758 14.071-36.13 29.637-50.861 35.435-33.535 82.675-14.018 71.07 29.361-4.73 17.509-11.33 23.511-58.84 53.494-37.16 23.451-55.719 47.379-55.839 71.999-0.05 10.243-1.0845 11.344-3.998 4.2559-1.3014-3.1662-3.8612-8.9666-5.6875-12.891-1.8263-3.9241-3.3203-8.335-3.3203-9.8008 0-2.9657-1.8679-6.9977-6.1191-13.213-1.5607-2.2817-4.9419-8.1317-7.5137-13-5.129-9.709-8.122-13.93-16.041-22.62-15.13-16.604-30.87-54.409-33.875-81.359-1.9665-17.644 8.85-40.293 21.832-45.717 3.4012-1.4211 6.7917-2.11 10.119-2.1348zm-613.23 1.5859c0.78403-0.03786 3.9693 2.3129 4.752 3.6562 1.6488 2.8301 1.2443 2.7754-1.9258-0.26172-1.65-1.5808-3-3.0312-3-3.2227 0-0.11284 0.0618-0.16647 0.17383-0.17188zm886.33 2.3945h31c29.331 0 31.425 0.12257 38.898 2.2871 15.241 4.4144 21.62 13.283 15.115 21.014-2.91 3.4583-9.113 6.0714-23.209 9.7754-19.379 5.0922-22.575 10.44-7.3809 12.348 21.798 2.7371 30.695 23.076 10.094 23.076-21.217 0-40.323-9.5888-70.094-35.176-8.5663-7.3626-17.904-15.059-20.75-17.104-7.6061-5.4645-7.3337-5.7064 13.826-12.316l12.5-3.9043zm-901.98 0.024c14.308-0.0541 21.628 7.9333 17.418 19.006-2.6037 6.8482-25.468 27.152-38.004 33.748-24.077 12.669-27.038 14.697-46.021 31.48-12.727 11.252-25.278 24.776-31.326 33.758-6.9198 10.276-7.1787 9.9244-8.0098-10.896-0.4783-11.983 0.0913-13.444 2.3867-6.125 1.9156 6.1079 3.8849 9.5 5.5137 9.5 1.8797 0 1.8602-1.6664-0.084-7.125-3.7168-10.435-7.4142-34.004-7.4336-47.391-0.0174-12.024 21.354-41.149 31.605-43.072 7.5115-1.4092 13.653 4.1353 15.453 13.949 1.2114 6.6041 0.57647 29.816-0.92382 33.762-1.2434 3.2704 0.13559 5.795 2.3906 4.377 1.7942-1.1283 4.5985-6.1104 10.414-18.5 16.213-34.541 28.111-46.401 46.621-46.471zm1299.9 0.4707c2.9947 0-1.872 7.1395-9.6172 14.109-13.894 12.503-30.756 40.46-43.451 72.041-10.747 26.736-15.683 36.178-25.031 47.887-26.958 33.763-41.636 40.909-68.863 33.525-35.5-9.6268-46.145-54.126-19.992-83.572 6.3158-7.1112 5.5086-10.697-1.8457-8.1992-2.7706 0.94101-24.337 8.5108-45.039 15.807-24.824 8.7486-45.039 4.2496-53.039-11.805-11.671-23.421 14.479-50.301 60.416-62.1 23.863-6.1292 27.982-6.2913 104.54-4.1211 15.981 0.45304 24.154 0.22125 34-0.9668 23.015-2.777 27.355-3.5903 62.156-11.637 2.3061-0.53319 4.9019-0.96875 5.7695-0.96875zm-1140.8 0.26758c13.335 0.31892 18.307 15.16 9.166 32.621-4.4444 8.4894-5.0554 12.149-2.5 14.973 2.3699 2.6188 2.0569 5.2075-2.375 19.639-7.3216 23.84-2.2378 29.311 9.5293 10.254 23.124-37.45 32.552-45.743 53.471-47.041 16.271-1.0097 26.614 9.3928 21.502 21.627-3.9317 9.4099-22.7 21.926-46.002 30.676-7.7 2.8914-16.925 7.1258-20.5 9.4102-3.575 2.2843-8.975 5.421-12 6.9707-7.1504 3.6631-19.268 12.715-25.16 18.795-6.1506 6.3465-6.0589 6.3894-11.701-5.4414-24.816-52.034-15.654-102.3 20.361-111.7 2.2296-0.5819 4.304-0.83267 6.209-0.78711zm324.83 1.5547c3.5505 0.08347 7.9441 0.67302 13.215 1.7617 14.258 2.945 17.212 5.7094 13.59 12.715-2.8142 5.4422-5.636 8.7061-10.072 11.645l-4.2656 2.8242-6.5234-1.9902c-8.6514-2.6407-13.309-1.893-14.143 2.2734-0.39546 1.9773-1.1945 2.9492-2.4238 2.9492-1.1387 0-2.8614 1.799-4.5488 4.75-1.4938 2.6125-6.1594 9.7-10.369 15.75-4.2098 6.05-9.1442 13.692-10.965 16.98-17.495 31.605-41.66 40.544-54.432 20.137-11.353-18.141 7.0582-33.902 48.738-41.723 7.378-1.3844 12.655-2.9142 14-4.0586l2.1602-1.8359-2.3613-2c-2.0505-1.7372-3.8248-2.0015-13.5-2.0117-23.239-0.0246-43.837-2.938-52.516-7.4258-18.612-9.6246 12.64-25.728 39.898-20.559 11.199 2.1238 12.252 2.6921 15.979 8.6328 5.911 9.4231 17.868 19.547 20.504 17.359 2.7535-2.2852 1.5419-4.5299-5.5938-10.359-3.8991-3.1854-6.8491-6.0318-6.5566-6.3242 0.65084-0.65084 6.0525 2.984 10.238 6.8887 4.1326 3.855 6.7442 1.7661 3.2871-2.6289l-2.1309-2.709 2.2305-1.5625c2.9665-2.0778 5.0215-7.2364 5.0215-12.609 0-4.7879 3.7279-7.0528 11.539-6.8691zm504.39 0.27734c0.53 0.03614 2.1285 1.3252 4.4004 3.8398 8.5441 9.4573 12.685 26.04 7.8457 31.418-0.9197 1.0219-3.8272 2.9515-6.4609 4.2871-7.4589 3.7824-7.9866 7.9088-2.2617 17.678 7.1635 12.223 4.479 18.108-10.367 22.729-24.628 7.6652-48.507 3.7997-66.582-10.777-3.3-2.6614-9.1419-7.0744-12.98-9.8066-11.677-8.3117-19.374-16.26-27.078-27.967-3.9817-6.05-8.4816-12.689-10.002-14.754-5.8288-7.9159 9.2627 2.3205 28.74 19.494 28.07 24.749 45.766 33.666 70.32 35.434 24.826 1.7868 25.88-25.842 1.2559-32.926-3.0952-0.89043-4.6391-1.7435-3.7559-2.0742 0.825-0.3089 6.0412-1.9357 11.592-3.6133 20.251-6.1207 26.919-17.375 17.35-29.283-2.0063-2.4966-2.5456-3.7139-2.0156-3.6777zm267.57 0.96289-7 1.334c-3.85 0.73334-10.272 1.8446-14.27 2.4688-8.54 1.3333-20.216 1.4553-16.23 0.16992 3.8469-1.2407 17.461-2.9317 28-3.4785l9.5-0.49414zm-1318.4 0.97266c5.0463-0.05518 9.62 3.859 11.447 10.498 1.389 5.0468 1.3624 27.155-0.0352 29.416-1.4083 2.2787-2.0417-0.06411-2.3281-8.6055-0.51803-15.449-4.796-23.99-13.703-27.359l-3-1.1348 2.5-1.3906c1.7033-0.9465 3.437-1.4054 5.1191-1.4238zm328.17 7.8281c3.6702-0.03146 8.2436 0.67452 13.354 2.248 12.215 3.7616 16.717 7.4763 14.371 11.859-1.0023 1.8729-0.40099 2.8275 5.459 8.6875 11.979 11.979 16.009 22.489 12.883 33.592-0.78512 2.7884-2.7728 2.0807-8.4277-3-8.7472-7.8589-18.882-31.234-15.932-36.746 0.69723-1.3028 0.99684-3.0754 0.66602-3.9375-0.75254-1.9611-4.5377-2.059-5.2754-0.13672-2.3079 6.0143-18.796 3.9531-24.295-3.0371-4.5799-5.8224-0.87718-9.4601 7.1973-9.5293zm-51.102 0.55078c23.144 0.62018 48.446 23.855 41.326 40.895-2.9985 7.1764-4.4657 5.8327-1.8887-1.7305 4.45-13.06-6.5516-25.513-23.318-26.393-22.264-1.1685-35.176 7.3811-53.795 35.621-10.045 15.236-10.29 15.399-6.9609 4.6523 1.3561-4.3782 2.8717-10.462 3.3691-13.52 3.0237-18.587 18.15-35.821 34.193-38.959 2.3098-0.45176 4.68-0.63056 7.0742-0.56641zm-162.94 8.3398c-7.2014 0.15405-13.858 2.6832-18.094 8.0742-6.6934 8.5186-10.121 24.172-5.293 24.172 1.3517 0 2.148-0.64174 2.1719-1.75 0.4852-22.482 19.816-32.076 39.594-19.65 16.155 10.15 14.136 34.4-2.8652 34.4-8.738 0-9.9418-9.7839-1.5469-12.572 5.767-1.9155 4.7597-4.4277-1.7754-4.4277-12.948 0-11.698 19.948 1.3594 21.699 13.251 1.7773 25.275-14.706 20.615-28.262-4.6814-13.617-20.418-21.978-34.166-21.684zm1236.4 6.4375c0.28632-0.03901 0.29128 0.36084-0.0898 1.3086-0.4424 1.1-1.4645 3.8-2.2695 6s-2.3178 7.2379-3.3633 11.195c-2.085 7.8915-14.928 42.592-20.996 56.729-6.5131 15.174-20.387 36.744-29.686 46.156-15.454 15.643-27.041 25.535-36.764 31.387-42.547 25.607-77.246 8.9586-88.014-42.23-3.1945-15.186 1.7574-35.674 11.898-49.234 2.7356-3.6578 2.9617-0.64264 0.35351 4.7148-30.951 63.575 43.116 114.16 92.383 63.1 21.524-22.309 27.92-32.656 41.918-67.816 8.484-21.31 11.75-27.564 27.223-52.131 3.1498-5.0013 6.5473-9.0607 7.4062-9.1777zm-955.77 2.3867c7.663-0.13616 16.01 3.0986 20.596 8.5488 2.9505 3.5064 3.4947 9.2948 0.96485 10.266-6.5382 2.509-25.15-4.0543-38.535-13.59l-2.3828-1.6992 3.2129-0.05078c1.7669-0.0289 5.7604-1.0066 8.875-2.1719 2.2378-0.83729 4.7152-1.2573 7.2695-1.3027zm712.84 1.9395c0.47838 0.05536-1.2969 1.9766-5.3359 5.9824-39.981 39.652-2.669 79.789 54.285 58.396 16.741-6.2882 15.783-2.7859-2.5293 9.252-5.8938 3.8743-8.3082 4.8839-12 5.0137-2.5419 0.0893-6.4211 0.28977-8.6211 0.44531-10.836 0.76616-28.972-1.2071-34.531-3.7578-27.047-12.409-25.078-52.648 3.5312-72.178 3.0936-2.1118 4.8291-3.1974 5.2012-3.1543zm-568.56 3.6426 3.3984 1.4199c1.8683 0.78063 6.2692 1.4199 9.7793 1.4199 14.161 0 30.502 19.601 23.627 28.342-4.1857 5.3213-19.542 7.3864-27.629 3.7148-8.4533-3.8379-11.546-12.757-9.8652-28.455l0.68945-6.4414zm83.67 27.166c-9.081-0.2193-17.811 6.6634-17.811 18.191 0 18.354 25.029 23.861 33.551 7.3828 2.287-4.4225 1.872-12.978-0.82422-16.979-3.8921-5.7755-9.4674-8.4641-14.916-8.5957zm-601.26 7.6717c1.4875 0-4.1185 6.2962-15.723 17.66-11.269 11.036-18.236 16.02-21.072 15.074-1.5785-0.52617 4.0671-6.4273 15.691-16.404 6.1059-5.2406 12.284-10.564 13.73-11.83 2.6659-2.333 6.2169-4.5 7.373-4.5zm916.23 20.384c-7.9242 0.09177-7.9709 3.4621-0.15821 10.137 10.514 8.9825 26.404 31.588 30.211 42.979 5.2147 15.601 3.6325 15.532-6.9902-0.30078-12.337-18.387-45.12-42.157-58.188-42.189l-3.8867-0.0098 3.8867 3.0977c2.1381 1.7037 5.9137 4.266 8.3887 5.6953 6.4035 3.6981 27.803 17.992 32.229 21.527 10.042 8.0216 31.249 43.172 37.818 62.68 2.3152 6.875 5.0156 14.096 6 16.049 0.9843 1.9524 3.4104 7.6514 5.3926 12.664 9.0617 22.916 19.285 32.267 39.141 35.805 44.094 7.8571 72.24-26.728 43.871-53.91-5.3182-5.0957-5.3496-5.2554-1.2012-6.1523 9.3255-2.0162 17.13-8.6846 26.471-22.619 7.4199-11.069 8.3482-15.054 5.457-23.418-6.1066-17.665-27.654-32.074-56.678-37.904-13.898-2.7917-24.021-5.4237-31.062-8.0742-29.204-10.992-41.997-14.358-54.746-14.404-5.3947-0.0196-14.04-0.55593-19.211-1.1914-2.6678-0.32786-4.9155-0.48016-6.7441-0.45898zm-855.12 0.91602c-6.1667 0.15804-12.531 2.8171-18.484 8.1953-10.697 9.6643-7.3358 18.082 10.072 25.221 8.2699 3.3912 8.3958 3.9646 1.043 4.7637-39.271 4.2679-67.901 27.006-47.037 37.357 13.073 6.4858 28.119 4.9898 48.918-4.8633 13.812-6.5434 17.711-7.3748 10.695-2.2832-13.351 9.6894-20.304 19.516-17.645 24.939 7.7055 15.716 33.229 4.8253 50.57-21.578 3.0894-4.7038 5.746-8.7271 5.9024-8.9395 0.15634-0.21233 3.0328 2.159 6.3926 5.2695 18.95 17.545 49.037 16.027 38.092-1.9219-3.2632-5.3512-11.038-11.238-22.242-16.838l-10.91-5.4512 3.5859-2.2168c11.445-7.0732 18.021-24.805 11.586-31.24-7.2744-7.2744-31.854 3.4787-37.145 16.25-1.7068 4.1206-2.4452 3.8391-4.498-1.7148-6.0742-16.434-17.124-25.251-28.896-24.949zm-1.1152 5.7402c15.337-0.27348 31.417 16.703 29.762 34.955-0.5319 5.8658 0.5094 7.8669 2.4336 4.6777 0.43983-0.72898 1.6187-1.6258 2.6191-1.9941 1.2483-0.45956 1.6275-1.2768 1.207-2.6016-2.6803-8.445 15.877-27.033 27.023-27.068 12.699-0.0407 0.85533 22.582-13.598 25.973-12.599 2.956-11.145 5.6908 5.8887 11.072 18.366 5.8023 36.53 21.309 27.59 23.553-7.8963 1.9818-19.362-2.7472-29.232-12.059-9.2461-8.7223-9.9219-8.6119-16.984 2.8164-10.986 17.777-26.886 30.611-36.352 29.342-11.603-1.5563-8.3129-8.3464 11.344-23.414 20.661-15.837 11.166-19.034-17.205-5.793-19.424 9.0656-34.779 11.1-45.207 5.9883-13.692-6.7111 12.108-24.242 40.322-27.398 16.867-1.887 20.792-3.0575 20.869-6.2188 0.0306-1.2546-2.6921-2.7317-13.484-7.3203-19.348-8.2265-20.883-14.707-5.3223-22.482 2.672-1.3352 5.486-1.9767 8.3262-2.0273zm868 0.73242c2.2645-0.02143 5.8351 0.09344 11.346 0.29297l15.654 0.56641 17 5.6934c27.59 9.2398 27.8 9.447 7.7988 7.7148-36.514-3.1622-51.918-6.7332-55.168-12.791-0.55075-1.0268-0.40506-1.4408 3.3691-1.4766zm8.7324 13.969c0.81955-0.04327 2.2966 0.28419 4.4453 0.77539 8.0225 1.834 17.606 3.175 32.322 4.5234 32.379 2.9669 74.204 11.418 86.703 17.52 13.621 6.6494 21.203 29.998 12.213 37.611-8.5362 7.2289-41.875 10.58-54.857 5.5137-12.12-4.7297-9.0345 2.5058 4.5879 10.756 29.21 17.69 35.949 36.982 17.273 49.453-26.161 17.47-56.178 3.137-67.91-32.426-1.2645-3.8328-3.3693-9.4076-4.6758-12.389-3.0472-6.9526-7.5994-22.767-10.301-35.779-3.8257-18.427-6.9436-25.862-15.787-37.656-4.434-5.9134-5.8167-7.8072-4.0137-7.9023zm-399.23 1.1406c-18.997 0.29201-36.534 7.0015-49.309 19.049-19.595 18.479-17.235 31.913 10.262 58.414 12.348 11.901 12.356 11.94 3.1445 13.514-45.875 7.8348-42.272 60.422 5.7344 83.68l7.334 3.5527-4.0449 3.2031c-15.623 12.377-20.129 44.251-11.541 81.646 0.81374 3.5432 3.0405 10.608 4.9473 15.699 5.88 15.699 11.693 45.184 9.4434 47.895-3.0666 3.695 4.7694 2.4227 15.436-2.5059 11.849-5.475 20.003-7.0293 36.879-7.0293 46.252 0 75.067-23.536 81.689-66.725 6.1244-39.938-46.047-71.966-73.791-45.301-3.0176 2.9003-3.036 2.8732-8.7852-14.02-0.75996-2.233 18.705-3.9734 44.32-3.9629 28.131 0.0115 49.221-3.6128 81.855-14.066 5.0477-1.6169 15.645-4.309 23.551-5.9805 21.895-4.6292 29.948-9.9453 15.064-9.9453-10.183 0-18.122-10.843-28.189-38.5-6.36-17.51-12.297-27.85-21.434-37.34-4.59-4.76-11.977-13.01-16.418-18.32-4.441-5.32-11.085-12.29-14.766-15.501-3.681-3.212-11.008-9.976-16.281-15.034-22.712-21.782-36.454-28.317-63.877-30.377-8.09-0.607-18.433-1.405-22.986-1.773-2.7636-0.22336-5.5089-0.3132-8.2227-0.27148zm-0.88672 7.1172-5.8066 5.3965c-24.65 22.906-13.199 49.338 33.598 77.555 8.0852 4.875 7.8516 6.0448-0.78711 3.9258-3.7824-0.92779-11.896-1.377-24.842-1.377h-19.227l-0.56055-2.5586c-0.33309-1.5155-6.8036-8.8472-15.883-18-16.467-16.601-20.605-22.617-20.605-29.949 0-15.377 27.803-34.903 49.807-34.979l4.3066-0.01367zm-148.86 1.7656c-14.381-0.09-26.72 10.897-24.646 21.947l0.6289 3.3496-5.3672-2.1406c-15.597-6.2193-22.101-7.2748-41.367-6.7207-36.754 1.057-59.303 23.679-32.221 32.324 2.8707 0.91641 7.6957 3.1343 10.721 4.9297 4.6675 2.7703 9.6435 4.891 17 7.2441 0.825 0.2639-1.8668 1.3466-5.9805 2.4043-34.941 8.9839-54.56 34.773-47.498 62.436 8.8812 34.787 37.36 40.158 73.871 13.93 5.764-4.1407 6.9548-3.8557 3.0762 0.73828-16.44 19.472-4.035 47.246 21.09 47.221 17.176-0.017 29.974-13.603 35.016-37.174l1.7637-8.2461 5.3008 10.746c9.408 19.074 18.356 25.021 29.334 19.494 15.347-7.7265 16.395-45.254 2.0098-71.998-3.2222-5.9904-3.6031-7.2517-2.1914-7.2598 17.614-0.10071 35.216-31.712 30.062-53.99-3.5838-15.494-22.222-18.582-35.664-5.9082-3.9564 3.7301-3.5417 4.0916-5.5156-4.8027-4.178-18.826-14.081-28.427-29.422-28.523zm169.63 0.01758c12.041 0.24617 27.103 5.3945 46.121 15.412 31.279 16.475 48.54 32.742 62.932 59.305 2.384 4.4 5.9077 10.163 7.8301 12.809 1.9224 2.6451 4.735 8.4951 6.25 13s3.8934 11.116 5.2852 14.691 3.4642 9.7022 4.6055 13.617c2.2583 7.747 4.106 10.282 5.9121 8.1055 1.1752-1.416-1.562-11.722-6.832-25.723-1.5526-4.125-3.7661-10.544-4.9199-14.264s-3.4928-9.0307-5.1973-11.801c-3.8944-6.3292-3.0796-7.5831 1.1562-1.7793 4.4506 6.0979 11.057 19.571 15.369 31.344 2.0146 5.5 6.0949 14.5 9.0664 20 6.5663 12.154 6.5319 11.857 1.293 11.08-25.487-3.7799-44.999-1.9043-68.637 6.6016-33.36 12.005-50.809 12.815-85.113 3.9512-44.342-11.458-66.451-42.939-42.67-60.758 7.7745-5.8254 34.646-8.1113 52.17-4.4375 8.8346 1.8521 26.611 6.6728 37.859 10.266 10.001 3.1946 13.141 3.1198 13.141-0.31055 0-1.3606-1.9125-2.4568-12-6.8789-51.892-22.748-85.422-57.114-74.277-76.131 7.2443-12.361 17.01-18.379 30.656-18.1zm-385.15 0.08008c0.3397 0.05099 1.2561 0.76411 2.6426 2.082 3.811 3.6226 4.1862 4.6174 2.6562 7.0371-0.73643 1.1647-1.2943 0.62726-2.5938-2.5-0.9104-2.191-2.1127-4.8824-2.6719-5.9824-0.2333-0.45892-0.23702-0.66732-0.0332-0.63672zm215.46 5.1367c14.001 0.0469 25.594 19.907 24.154 48.219-0.68337 13.439-0.12895 15.781 3.7363 15.781 2.9312 0 3.9141-3.2262 3.9141-12.857 0-16.181 16.202-29.457 28.146-23.064 5.0022 2.6771 6.2797 18.523 2.4648 30.572-7.0542 22.28-28.681 30.16-37.047 13.498-7.6645-15.265-17.293-29.576-24.281-36.092-21.602-20.141-22.587-21.989-15.498-29.078 4.8084-4.8084 9.7432-6.9941 14.41-6.9785zm-423.66 17.188c-4.3912 0.15034-8.7559 2.4848-11.541 7.0527-6.8628 11.256 5.9614 24.903 17.75 18.889 7.3344-3.7417 10.078-11.314 6.5586-18.109-2.7798-5.3673-7.7909-8.0024-12.768-7.832zm335.95 2.9043c1.0945-0.03835 0.39518 0.86948-2.5547 2.7402-2.456 1.5575-5.6936 4.2915-7.1953 6.0762s-2.7305 4.3352-2.7305 5.668c0 2.938-0.56408 2.9864-4.7832 0.41406-5.0934-3.1054-2.2797-6.8208 9.0566-11.961 4.2243-1.9154 7.1125-2.8992 8.207-2.9375zm31.02 1.4082h19l13.865 6c20.482 8.8629 34.137 23.518 47.084 50.533 1.8613 3.884 5.2571 9.094 7.5469 11.578 13.028 14.134 20.205 53.719 12.102 66.754-10.328 16.614-28.272-3.0838-32.672-35.865-2.0037-14.928-2.1629-15.5-4.3223-15.5-3.2463 0-3.971 2.2595-5.1367 16.037-3.2426 38.324-12.778 54.971-31.467 54.932-23.68-0.0496-30.068-24.204-11.096-41.953 20.73-19.394 21.154-19.853 19.994-21.73-1.9132-3.0982-4.705-2.5124-13.422 2.8184-42.94 26.26-71.881 29.555-80.6 9.1777-9.8968-23.13 20.323-44.62 67.951-48.322 23.724-1.8442 26.523-7.0737 7.5332-14.068-5.2434-1.9313-5.6278-2.2925-5.5-5.1504 0.16893-3.7794-3.1007-6.0013-11.895-8.084-3.2822-0.77736-12.237-2.9008-19.9-4.7188-18.559-4.4026-20.609-6.3541-13.639-12.984 8.6619-8.2398 13.102-9.4531 34.572-9.4531zm469.5 7.2695c-18.742 0-23.223 25.343-5.7676 32.615 13.018 5.4233 27.226-9.2367 21.697-22.385-2.6022-6.1877-8.897-10.23-15.93-10.23zm-566.85 10.246c-21.956-0.083-23.21 32.37-1.3027 33.719 13.747 0.8466 22.192-12.308 15.902-24.77-2.7713-5.4906-8.376-8.9257-14.6-8.9492zm626.61 5.793c-27.103-0.20564-41.825 47.204-16.803 85.535 5.5856 8.5562 5.6287 8.6562 3.6211 8.6562-0.78014 0-2.356-1.517-3.502-3.3711-6.5847-10.654-33.903-32.824-49.803-40.416-31.66-15.118-57.73 12.196-34.477 36.121 8.9883 9.2479 36.941 19.666 52.764 19.666 5.4862 0 5.5595 1.0012 0.37695 5.166-30.524 24.53-29.045 69.118 1.7656 53.223 13.095-6.7558 27.907-16.236 33.828-21.652l6.2988-5.7637 0.56641 2.7637c0.31053 1.5197 1.0262 5.9137 1.5918 9.7637 4.2586 28.989 30.049 45.571 50.125 32.23 10.048-6.6769 10.984-30.847 1.7285-44.602-3.5335-5.2511-3.3223-5.6667 1.75-3.4492 23.377 10.22 51.552-7.7238 41.107-26.18-3.7523-6.6302-12.659-10.522-25.732-11.242l-10.379-0.57227 5.0234-1.9082c32.04-12.174 26.9-50.532-6.0176-44.91-20.637 3.5244-32.811 14.077-39.084 33.879-3.6388 11.487-10.514 18.944-10.514 11.404 0-9.7344 5.7764-20.704 18.463-35.062 16.026-18.138 15.183-36.786-2.2949-50.832-7.2368-5.8157-14.15-8.3998-20.404-8.4473zm2.1758 7.3496c8.5632 0.10161 17.408 5.6997 23.562 17.846 5.2526 10.366 3.1239 18.209-8.5469 31.496-22.053 25.107-27.054 59.381-6.5938 45.189l2.8613-1.9863-0.70507 3.2109c-0.67313 3.0648 3.2739 11.086 5.4551 11.086 3.0634 0 25.458 25.958 28.039 32.5 3.23 8.1878 2.4807 24.337-1.3125 28.293-6.6982 6.9856-21.358 6.9568-29.346-0.0566-10.476-9.1977-15.41-26.437-15.807-55.236-0.22312-16.185-1.4542-20.473-9.3906-32.707-13.183-20.322-15.509-27.157-14.973-43.973 0.72151-22.603 13.397-35.821 26.756-35.662zm258.06 0.43359c-1.4391-0.0614-2.8898 0.0907-4.3086 0.48242-12.158 3.3569-16.276 17.834-7.5976 26.711 11.897 12.168 32.066-0.27121 26.404-16.285-2.2451-6.35-8.2619-10.642-14.498-10.908zm-55.5 4.1523-2.3496 2.5469c-1.2916 1.4008-4.4416 3.4357-7 4.5215-8.9965 3.818-12.672 3.8259-18.229 0.0391-6.6811-4.5535-6.643-4.5796 7.8281-5.1816 7.0125-0.29171 14.325-0.84479 16.25-1.2285l3.5-0.69727zm-743.21 5.7715c6.1664-0.16658 12.216 0.65974 17.781 2.6738 10.781 3.9015 10.614 4.3439-1.918 5.1074-37.238 2.2686-63.371 15.839-71.238 36.99l-1.9394 5.2129 0.43359-7.7188c1.2442-22.176 30.16-41.544 56.881-42.266zm-179.67 0.43555c-10.928 0.14064-23.362 3.1938-37.416 9.1172-33.159 13.976-41.557 37.02-19.605 53.799 4.5089 3.4464 5.3611 4.9408 3.1543 5.5293-19.042 5.0779-29.435 10.119-38.033 18.455-25.91 25.118 5.8424 51.372 62.283 51.498 21.947 0.0491 25.281-1.3216 58-23.855 14.438-9.9432 22-13.578 22-10.572 0 0.50781 1.1991 2.3504 2.666 4.0938 10.821 12.86 32.334 11.429 32.334-2.1504 0-5.6842 2.3936-5.2054 16.01 3.207 12.636 7.807 16.398 7.1365 7.6524-1.3633-5.3774-5.2262-13.298-9.6172-21.162-11.732-6.0423-1.6252-15.309-11.423-20.59-21.77-0.76021-1.4895-2.9719-5.407-4.916-8.707-4.0509-6.8761-6.7495-12.758-10.893-23.742-10.686-28.329-27.442-42.116-51.484-41.807zm2.2852 5.3574c2.138 0.11019 7.7527 1.2216 13.598 2.9609 12.695 3.778 23.07 16.641 32.459 40.242 4.683 11.772 13.702 28.298 20.678 37.891 5.4374 7.4765 5.323 7.5976-7.1582 7.5976h-10.402l-1.0977-4.25c-0.60393-2.3375-1.292-4.9298-1.5293-5.7598-0.23726-0.82996-0.85824-6.754-1.3809-13.166-3.215-39.445-13.199-54.493-42.318-63.783-4.07-1.2985-4.5105-1.8181-2.8477-1.7324zm-150.12 0.0215c-6.5909-0.0193-13.988 0.15822-22.287 0.51563-25.34 1.0912-30.71 2.0091-63.795 10.896-9.9286 2.667-9.3731 7.4974 1.2246 10.645 13.084 3.8855 27.572 13.352 42.766 27.945 24.346 23.384 36.165 29.746 52.922 28.484 10.66-0.80269 15.78-4.8802 17.895-14.25 1.4668-6.4987 3.242-4.0035 4.1621 5.8496 1.9275 20.641-29.669 26.738-51.732 9.9824-4.3871-3.3318-34.08-33.296-42.697-43.088-6.5658-7.4607-15.562-11.64-22.893-10.635-5.4808 0.75122-5.5098 1.6701-0.10156 3.2422 8.3201 2.4184 14.533 7.2842 29.422 23.037 36.783 38.919 41.885 42.365 62.828 42.449 29.688 0.11954 41.629-25.939 21.59-47.113-2.9247-3.0902-2.7498-3.4433 3.25-6.5781 14.263-7.4521 21.15-20.289 15.41-28.723-5.9899-8.801-19.402-12.577-47.963-12.66zm-0.30274 4.8066c0.74664-0.004 1.4223 0.006 2.0156 0.0312 30.05 1.2657 20.146 23.46-11 24.65-15.649 0.59819-15.453 3.4036 0.5 7.1602 25.775 6.0693 39.751 21.425 29.15 32.025-3.6893 3.6893-8.8892 4.6156-17.557 3.1309-13.355-2.2877-17.35-4.9783-45.062-30.355-11.49-10.521-22.736-18.43-31.189-21.934-6.7867-2.8129-6.7153-3.5602 0.4082-4.3008 6.4631-0.67195 13.236-1.9944 24.25-4.7383 9.9537-2.4796 37.285-5.617 48.484-5.6699zm135.35 0.0781c9.1561-0.0471 19.159 2.17 29.162 7.0371 17.356 8.4445 23.287 21.529 26.953 59.461 0.59604 6.1672 1.4834 12.242 1.9727 13.5 1.3358 3.4338-0.88169 4.5267-10.754 5.2988-9.4278 0.73736-28.54 5.1308-39.672 9.1191-18.405 6.594-51.617 13.375-65.461 13.365-20.773-0.014-21.196-28.728-0.56055-38.051 12.958-5.8545 22.936-7.2103 27.76-3.7754 7.8681 5.6026 20.126 8.503 22.721 5.377 3.0088-3.6253-2.1711-8.4663-11.896-11.117-3.0596-0.83397-6.2375-1.9586-7.0625-2.5s-3.3814-2.2095-5.6797-3.707c-5.3099-3.46-6.1681-5.4005-6.9609-15.715-1.7882-23.265 16.08-38.173 39.479-38.293zm-110.89 1.8027c1.3066 0.0153 3.8129 0.7185 8.1094 1.998 12.394 3.6912 15.824 9.7109 10.064 17.662-4.1471 5.7249-11.927 11.088-17.965 12.383-2.824 0.60564-5.3636 1.4732-5.6445 1.9277-0.50432 0.81602-15.495-5.9824-15.504-7.0312-0.003-0.29806 2.7596-1.8103 6.1387-3.3613 12.219-5.6088 17.453-12.841 14.465-19.992-1.0396-2.4882-1.344-3.6056 0.33594-3.5859zm484.7 8.3262c2.164 0.0404 2.5815 1.2138-0.0391 3.6562-23.365 21.778-0.6038 58.434 43.398 69.893 43.602 11.355 56.874 10.4 106.5-7.6582 9.7279-3.5397 47.5-4.6488 47.5-1.3945 0 0.38353-2.5875 1.514-5.75 2.5098-12.614 3.9716-37.614 10.658-45.451 12.156-4.565 0.87274-9.1988 1.811-10.299 2.0859-2.0542 0.51348-60.917 2.7578-74.689 2.8477-6.9851 0.0456-7.9471-0.1934-10.5-2.6055-1.5457-1.4604-4.8355-3.7074-7.3105-4.9941-4.556-2.3687-5.4079-2.4402-20.5-1.7188-10.079 0.48178-23.821-6.5315-38.004-19.396-16.012-14.524-15.548-40.579 0.89453-50.215 5.7994-3.3986 11.468-5.218 14.25-5.166zm-412.86 2.9648c0.12971-0.0123 0.15844 0.0759 0.0566 0.28711-0.23954 0.49691-1.5233 3.1543-2.8516 5.9043-1.8747 3.8814-2.5347 7.2373-2.9492 15l-0.5332 10-2.1914-3.416c-4.041-6.3031-3.8819-14.161 0.41797-20.773 1.2514-1.9245 7.1428-6.9159 8.0508-7.002zm966.34 6.4824c0.94759-0.0296 1.8789 3.5067 1.8789 9.25 0 5.8092-0.3834 7.1863-2.9961 10.793-5.8536 8.0807-14.928 12.225-28.004 12.789l-9.5 0.41016 6.5-1.873c19.51-5.6221 28.836-13.905 30.596-27.172 0.38194-2.8792 0.95684-4.1795 1.5254-4.1973zm-281.95 4.4199c14.37 0.23783 34.626 11.767 54.891 32.449l10.436 10.65-5 2.2832c-4.0582 1.8532-6.8169 2.2939-14.641 2.3438-39.839 0.25364-74.457-22.9-61.078-40.852 3.5468-4.7589 8.8609-6.9831 15.393-6.875zm146.91 2.1992c11.385 0.28183 17.244 7.6032 12.852 19.273-1.4369 3.8175-7.5843 10.044-12.342 12.498-12.023 6.2032-46.064 10.888-44.098 6.0684 0.39261-0.9625 1.996-5.4913 3.5644-10.064 4.8672-14.192 9.8421-19.23 24.404-24.711 5.8633-2.207 11.164-3.1747 15.619-3.0644zm292.53 10.861c-4.3566-0.25018-10.341 5.7417-26.125 25.729-5.8639 7.425-10.992 13.846-11.395 14.27-0.4029 0.42304-2.1417-1.377-3.8652-4-6.3542-9.6707-26.043-27.831-34.598-31.91-11.103-5.2946-7.367 8.3212 7.416 27.021 3.8617 4.8851 6.8668 9.0395 6.6758 9.2305-0.1909 0.19097-5.4786 0.79732-11.75 1.3477-32.361 2.8398-35.939 18.541-4.2246 18.541 7.8366 0 14.249 0.0922 14.25 0.20508 0.00091 0.11283-1.7336 4.1628-3.8535 9-19.625 44.781-6.6157 54.949 19.725 15.418l3.582-5.3789 1.2285 2.8789c0.6759 1.5825 1.2506 3.6169 1.2754 4.5215 0.2305 8.4051 6.6087 19.855 11.061 19.855 6.1847 0 7.1045-4.7101 3.9199-20.078-2.7069-13.063-2.4481-15.1 2.0645-16.25 23.355-5.9537 56-24.106 56-31.139 0-0.72187-0.86196-2.3734-1.9141-3.6719-2.3362-2.8834-15.873-3.2243-27.365-0.6875-3.7282 0.82298-6.6532 1.2342-6.5 0.91211 0.1532-0.32206 2.011-4.1025 4.1289-8.4004 6.7026-13.602 7.201-25.756 1.1172-27.283-0.27839-0.0699-0.56308-0.11418-0.85352-0.13086zm-1.6973 9.3379c1.7144-0.0435-0.5297 6.0161-6.5332 18.172-8.1808 16.564-6.9521 17.973 12.402 14.215 5.657-1.0983 12.182-1.9807 14.5-1.9609l4.2148 0.0371-3 2.457c-1.65 1.3514-9.975 6.0053-18.5 10.342v-0.002c-10.871 5.5297-17.839 8.4058-23.332 9.627-10.478 2.3292-12.831 4.4124-13.453 11.918l-0.47656 5.7539-2.1445-3.834c-4.2153-7.5382-8.1193-6.0192-17.047 6.6328-5.6627 8.025-13.864 17.033-15.508 17.033-1.2267 0 6.7603-22.84 11.488-32.854 6.1016-12.922 5.8415-13.146-15.229-13.146-9.0725 0-16.299-0.40197-16.299-0.90625 0-1.9482 9.998-4.2891 21.275-4.9805 17.669-1.0832 19.583-4.1389 9.9121-15.822-7.468-9.0218-13.515-17.298-13.008-17.805 2.4602-2.4602 27.414 24.274 28.738 30.789 1.7337 8.5286 7.1022 4.7968 24.775-17.223 9.8345-12.253 15.508-18.4 17.223-18.443zm-929.55 21.908c1.2298 0.052 3.465 0.31821 6.6328 0.8125 5.9941 0.93529 6.7597 1.2316 3.8144 1.4766-2.026 0.16853-5.5596-0.19922-7.8516-0.8164-3.8985-1.0498-4.6453-1.5592-2.5957-1.4727zm604.37 5.2754c15.807-0.12212 47.821 1.2304 51.018 2.6016 9.707 4.1638 12.39 13.393 5.8086 19.975-10.212 10.212-49.418 2.0482-57.354-11.943-0.3898-0.68721-2.3965-3.0706-4.459-5.2949-2.0625-2.2244-3.75-4.3256-3.75-4.6699 0-0.42255 3.4674-0.62726 8.7363-0.66797zm-43.957 2.5098c0.88993-0.11618 1.6754 0.5993 2.3945 2.1777 0.91711 2.0128 1.7785 2.57 3.4726 2.2461 1.998-0.38194 2.2959 0.0348 2.6289 3.6719 0.80825 8.8277 0.60057 15.192-0.56055 17.184-7.1841 12.323-46.039 35.841-52.508 31.783-13.495-8.465 16.373-53.278 37.137-55.719 3.0172-0.35461 6.1879-0.91451 7.0469-1.2441 0.13156-0.0505 0.26154-0.083 0.38868-0.0996zm-792.64 9.0156c0.43935-0.0167 0.35222 1.6626 0.0879 5.4316-0.29103 4.1495 0.14994 7.1417 1.584 10.75 1.0929 2.75 2.0316 5.1283 2.0879 5.2852 0.0563 0.15685-0.76101-0.17826-1.8184-0.74414-5.9609-3.1902-7.8866-11.564-4.0898-17.791 1.146-1.8796 1.8067-2.9186 2.1484-2.9316zm995.14 4.3184c-39.35-0.18199-78.696 29.377-68.105 60.787 2.2242 6.5966 7.6713 5.0176 5.7539-1.668-10.076-35.131 53.279-67.567 89.984-46.068 30.284 17.737 22.211 45.505-17.117 58.881-12.483 4.2458-19.316 2.5419-23.662-5.8984-9.1289-17.729 10.505-36.787 26.959-26.168 10.718 6.917 8.2985 16.24-5.3223 20.516-8.1271 2.5513-10.435 3.944-6.7226 4.0566 1.3475 0.0409 3.5037 0.26953 4.791 0.50781 16.567 3.0665 26.637-16.233 14.492-27.773-22.585-21.461-56.594 10.983-37.686 35.951 17.455 23.049 78.658-12.856 69.477-40.76-3.2473-9.8692-13.525-21.189-23.576-25.965-9.204-4.3732-19.235-6.352-29.266-6.3984zm-830.78 0.11914c2.0181 0.009 3.5678 0.10591 4.1406 0.31836 3.7049 1.374 4.5027 6.578 1.4336 9.3555-5.6605 5.1227-27.943-2.899-22.678-8.1641 0.77728-0.77728 11.049-1.5372 17.104-1.5098zm-36.379 0.28516c2.8588 0.11142 0.0608 1.8944-11.625 9.6914-15.21 10.148-26.234 16.798-32.926 19.861-11.976 5.4828-45.783 3.7282-62.176-3.2266-4.7776-2.027-5.6065-1.7693 15.602-4.8203 17.01-2.447 37.754-7.5363 52.5-12.879 10.764-3.9002 26.247-7.6986 34-8.3418 2.0902-0.17341 3.6721-0.3223 4.625-0.28516zm345.99 4.6094c2.5194 0.0548 5.7001 0.84937 10.525 2.1738 5.9703 1.6388 12.74 3.2824 15.045 3.6543 10.05 1.6215 17.854 23.939 11.67 33.377-1.6263 2.4821-1.6324 2.4728-4.873-6.6035-13.185-36.927-41.129-28.56-51.939 15.553-2.7654 11.284-3.9294 9.1315-3.2754-6.0547 0.80083-18.596 3.7984-28.038 11.193-35.258 5.0922-4.9715 7.4552-6.9331 11.654-6.8418zm12.299 13.586c1.0495-0.0168 2.0541 0.21357 2.998 0.71875 6.2682 3.3547 14.617 24.447 15.258 38.545 1.1931 26.261 1.9272 30.394 5.4199 30.484 1.9272 0.0496 3.9838-4.528 4.9531-11.027 3.3806-22.666 9.855-34.828 21.604-40.576 23.26-11.38 47.981 14.026 36.332 37.338-9.596 19.203-39.432 39.164-64.682 43.273-11.56 1.8813-19.858 6.4925-29.736 16.527-9.5204 9.6717-8.5124 9.9223-10.514-2.6016-1.3874-8.6826-1.371-8.8146 0.9375-8.2109 2.2982 0.60099 3.7914-2.0349 2.25-3.9707-3.8693-4.8592-12.921-33.467-13.838-43.736-1.9663-22.018 16.633-56.566 29.018-56.764zm-559.99 5.2676c-12.238 0.0305-22.539 6.2022-26.029 18.207-4.1556 14.295 3.717 22.668 24.061 25.596l8.9531 1.2891-7.9531 2.8184c-29.183 10.343-40.268 26.785-27.195 40.338 15.257 15.817 43.166 7.8551 64.947-18.529l3.5312-4.2773 2.6406 5.3984c5.0472 10.316 12.722 17.265 22.264 20.16 18.873 5.7259 26.841-6.7412 14.371-22.486-3.6586-4.6193-3.6867-4.8688-0.48047-4.2559 4.4614 0.85285 11.484-2.5607 13.068-6.3516 1.6871-4.0377 1.7062-3.2942-0.16992-6.9102-2.1602-4.1636-6.0558-7.1333-11.932-9.0976-2.75-0.91936-5.1376-1.787-5.3047-1.9258-0.16713-0.13882 0.61851-1.7638 1.7461-3.6133 7.2811-11.943-14.108-23.681-25.279-13.873l-3.7031 3.252-3.7305-2.6094c-2.0512-1.4356-6.6535-5.3316-10.229-8.6582-10.471-9.7432-22.778-14.498-33.576-14.471zm790.27 2.5762c-5.201-0.32714-10.445 8.9082-16.701 28.92-2.3214 7.425-4.7898 14.625-5.4863 16-2.5295 4.9938-2.8748 9-0.77539 9 4.669 0 7.3737-4.6903 12.979-22.5 4.1514-13.191 8.219-22.662 9.416-21.922 1.8698 1.1556 0.88719 31.473-1.2617 38.922-5.4209 18.79-3.4296 20.538 19.277 16.928 13.848-2.2016 14.589-1.523 3.2168 2.9434-17.48 6.8652-19.098 9.1476-17.352 24.461 0.60642 5.3176 0.96466 15.068 0.79688 21.668l-0.30469 12-3.4609-8.9551c-7.3482-19.018-14.618-20.722-21.51-5.0449-6.2306 14.174-24.181 36.277-26.469 32.592-4.1431-6.6742-3.6641-33.704 0.77539-43.76 6.912-15.657 3.7552-16.525-21.615-5.9394-28.279 11.799-55.686 18.328-63.824 15.205-4.1545-1.5942 14.483-15.486 31.104-23.184 10.883-5.0406 25.02-8.3044 39.273-9.0664 18.608-0.99478 18.842-4.0431 1.4375-18.73-9.9827-8.4243-16.741-16.723-25.672-31.521-0.91969-1.5239 0.62509-0.88464 3.4609 1.4336 2.4726 2.0213 17.882 9.7893 27.5 13.863 10.087 4.2722 17 8.2192 23.168 13.225 4.4822 3.6374 5.9088 4.0976 6.6133 2.1328 1.4963-4.1731-9.507-11.932-33.066-23.316-10.607-5.1254-21.59-11.154-24.406-13.396-25.393-20.218-9.4087 18.552 17.094 41.461 9.9153 8.571 9.9143 8.502 0.20508 8.502-36.488 0-92.788 37.019-68.494 45.037 11.87 3.9176 52.264-6.1921 78.637-19.682 3.3008-1.6883 3.3865-0.99289 0.65625 5.3106-5.3064 12.251-2.0809 48.411 4.5449 50.953 6.9386 2.6626 28.108-19.957 35.604-38.041 3.0171-7.2793 3.6444-6.8947 8.6016 5.2793 12.078 29.663 19.513 20.414 17.066-21.23-1.2502-21.279-2.759-18.828 16.041-26.049 24.072-9.2457 28.388-12.416 23.242-17.072-2.4245-2.1941-10.58-1.7841-32.744 1.6465-16.862 2.6098-15.789 3.1749-12.664-6.6641 3.7089-11.679 3.3561-44.787-0.52148-48.91-1.4709-1.5642-2.9246-2.4064-4.3809-2.498zm-162.2 0.74414 5.3867 0.64063c24.85 2.9535 37.068 29.942 27.078 59.812-10.548 31.54-34.84 46.673-74.986 46.709-11.071 0.01-16.121 0.45657-21.25 1.8789-7.7896 2.16-8.1947 1.6927-2.7734-3.2051 5.9819-5.4043 11.064-7.556 24.336-10.301 20.882-4.3187 37.81-14.097 57.109-32.988 19.452-19.041 15.269-47.847-8.6406-59.496l-6.2598-3.0508zm-14.213 0.32422c1.4982-0.0168-0.11539 1.0843-4.7734 3.2168-3.017 1.3812-7.1795 3.7528-9.25 5.2715l-3.7637 2.7617 3.5-3.7852c3.8962-4.213 6.9191-6.0319 11.75-7.0723 1.1934-0.257 2.0377-0.38698 2.5371-0.39258zm-613.37 1.0234c9.4932-0.15132 20.357 3.4686 29.295 11.562 3.0198 2.7347 8.0323 6.8915 11.141 9.2383 4.9593 3.7443 5.6524 4.6914 5.6524 7.7305 0 4.5801 1.6798 3.9597 5.5-2.0293 4.0804-6.397 12.637-7.6334 18.707-2.7031l2.293 1.8633-2.0762 2.832c-1.3551 1.8489-4.0468 3.4821-7.75 4.7012-9.7076 3.1957-7.9979 6.3681 4.168 7.7324 13.627 1.5282 24.619 8.5905 17.576 11.293-4.7383 1.8182-17.113-0.99543-21.387-4.8633-0.95874-0.86765-2.4485-1.3074-3.3106-0.97656-3.5222 1.3516-2.5727 3.5666 4.3535 10.158 12.818 12.199 18.396 23.379 12.412 24.881-10.778 2.7052-22.292-5.1295-29.891-20.342-4.5168-9.042-6.8854-9.612-12.473-3-20.267 23.984-36.783 31.709-52.91 24.752-23.031-9.9353-5.0591-29.81 36.787-40.684 17.658-4.5882 15.269-6.9111-7.7774-7.5625-23.13-0.65376-31.562-3.7188-32.877-11.951-2.2579-14.136 8.6917-22.412 22.566-22.633zm473.11 8.709c-7.4809-0.23894-15.154 3.9249-18.033 12.65-3.5644 10.8 5.2855 23.365 16.516 23.447 12.22 0.0893 21.148-10.748 18.396-22.332-2.1102-8.8848-9.398-13.527-16.879-13.766zm-219.06 3.5098c-67.737 0.54295-110.76 33.693-83.926 72.775 9.6293 14.027 29.947 23.565 59.666 28.012 4.2906 0.64193 7.9566 1.2811 8.1465 1.4219 0.18984 0.1408-3.6768 4.2263-8.5918 9.0781-39.064 38.562-12.854 90.701 36.746 73.098 20.462-7.2619 24.233-8.7196 27.244-10.529 21.501-12.924 29.755-19.956 44.307-37.746 4.0487-4.95 9.2061-11.224 11.461-13.939 2.2548-2.716 5.7077-7.891 7.6719-11.5 5.1789-9.5157 11.413-18.896 16.34-24.588 2.3676-2.735 7.6772-10.148 11.799-16.473 19.553-30.006 16.243-26.724 29.33-29.074 11.689-2.0994 14.215-3.5234 8.0098-4.5156-2.432-0.38889-4.1621-1.2112-4.1621-1.9785 0-2.0208-1.7422-2.6404-4.0117-1.4258-1.129 0.60424-5.5762 1.7174-9.8828 2.4746-16.123 2.8347-29.549 8.517-37.926 16.049-8.3594 7.5158-10.541 12.006-14.152 29.152-11.81 56.076-55.766 96.976-102.19 95.086-40.57-1.6517-30.148-42.228 17.646-68.705 19.031-10.543 21.889-18.187 5.6894-15.219-20.843 3.8191-18.942 3.7474-22.01 0.8086-2.682-2.5695-3.1503-2.6524-14.742-2.6524-37.766 0-51.932-6.0942-51.904-22.33 0.0282-16.483 14.25-29.01 48.486-42.705 19.586-7.8351 28.997-9.3261 54.891-8.6953 19.403 0.47265 20.696 0.68914 42.609 7.1133 4.95 1.4512 11.925 3.4908 15.5 4.5332 22.668 6.6097 73.845 5.4995 66.895-1.4512-1.15-1.15-4.1664-1.672-11.242-1.9453-7.248-0.27997-14.742-1.6112-29.912-5.3144-11.132-2.7176-23.165-5.4651-26.74-6.1055-3.575-0.64035-8.525-1.5969-11-2.125-19.469-4.1544-26.626-5.4434-45-8.1133-12.21-1.7742-23.957-2.5596-35.041-2.4707zm-3.9961 6.623c6.5366-0.0903 13.392 0.0846 20.537 0.54296l13 0.83399-9.5 0.77148c-5.225 0.42419-12.875 1.2691-17 1.877-12.34 1.8186-30.853 8.4269-44 15.707-3.575 1.9796-8.0522 4.4646-9.9492 5.5215-15.446 8.6053-24.597 20.634-25.801 33.914l-0.55078 6.0645-2.3457-3.873c-21.067-34.792 12.422-60.486 75.609-61.359zm-325.53 0.0879c-4.7575 0.10767-8.9002 1.9596-10.92 5.8652-1.8792 3.6339-1.9579 9.0463-0.16797 11.494 1.9733 2.6986 3.8351 1.0279 3.1172-2.7988-2.5769-13.736 19.016-13.138 26.227 0.72657 3.684 7.0834-3.1152 16.221-8.0293 10.791-1.2827-1.4174-3.6621-9.8459-3.6621-12.971 0-0.28517-0.9 0.29552-2 1.291-4.8888 4.4243 1.4044 18.5 8.2715 18.5 8.3055 0 13.664-11.936 9.1211-20.316-4.3871-8.0933-14.028-12.761-21.957-12.582zm416.89 11.537c0.63437 0.015 1.6279 0.13099 2.8242 0.34765 2.3926 0.43335 7.2746 1.3162 10.85 1.9609 10.577 1.9076 18.201 4.4736 14.533 4.8906-1.632 0.18556-5.682-0.18585-9-0.82421-6.4274-1.2366-18.47-4.9369-19.883-6.1094-0.23379-0.19395 0.0414-0.2806 0.67578-0.26562zm51.492 26.445c2.7201-0.29471 1.2229 2.4873-3.4844 9.2617-3.1165 4.485-7.7805 11.304-10.363 15.154-2.5828 3.85-7.7024 10.6-11.377 15s-8.6856 11.361-11.137 15.469c-4.9984 8.3762-5.2742 8.4033-2.5371 0.25 1.0558-3.1452 3.2994-11.745 4.9863-19.109 4.4089-19.247 9.1702-25.605 24.242-32.371 4.8878-2.1942 8.0378-3.4775 9.6699-3.6543zm522.39 3.1016c-4.4047 0.0708-8.9307 1.6344-12.777 5.0117-4.2628 3.7428-7.4277 9.6062-7.4277 13.762 0 3.9167-0.29137 3.8635-7.9121-1.459-18.993-13.265-36.088-10.234-36.088 6.3965 0 8.1222 8.3302 17.699 17.064 19.617 6.3134 1.3867 3.7389 2.4863-5.8242 2.4863-28.762 0-42.137 19.251-24.453 35.195 10.179 9.1773 21.649 7.598 37.518-5.168 9.1206-7.3372 8.3229-7.4019 8.9336 0.72265 1.866 24.825 27.14 39.979 36.203 21.707 2.7222-5.4877 3.274-18.113 1.1543-26.387-1.9605-7.6526-2.4484-7.0711 5.1777-6.1719 23.017 2.7139 41.263-11.438 36.238-28.107-2.5171-8.35-11.68-14.194-22.262-14.199l-6.75-0.004v-5.6465c0-10.846-9.1046-17.912-18.795-17.756zm89.045 6.3574c-3.4876-0.12028-7.0309 0.90126-10.111 3.2012-11.76 8.7804-8.0278 27.011 6.1875 30.217 13.72 3.0943 24.974-11.455 18.488-23.902-3.0944-5.9384-8.7519-9.3152-14.564-9.5156zm-87.85 0.38477c5.2958 0.13279 10.136 3.0848 11.203 8.7715 1.0739 5.7246-1.3021 11.813-6.166 15.799-4.7879 3.9233-6.2158 6.859-4.3984 9.0488 1.9835 2.39 3.8158 1.7047 9.3086-3.4902 5.9201-5.5989 8.9976-7.0566 14.902-7.0566 14.538 0 20.896 13.406 10.92 23.021-11.509 11.093-46.029 6.5879-46.141-6.0215-0.0211-2.3907 0.0654-2.3547 2 0.81836 1.2728 2.0877 2.6637 3.1958 3.748 2.9902 2.9722-0.56352 2.546-4.9469-0.98828-10.172-10.517-15.547-11.673-19.096-8.3262-25.568 2.8894-5.5875 8.6417-8.2734 13.938-8.1406zm-49.162 7.5644c12.934 0.24923 31.431 18.66 32.529 36.264 0.55702 8.9283 1.6764 10.697 5.3262 8.418 2.4224-1.5128 7.5085 4.9812 10 12.768 1.6615 5.1929 0.595 23.645-1.5 25.957-5.7861 6.3848-18.229-2.1977-22.104-15.244-2.6804-9.0258-1.5417-15.559 3.7168-21.316 2.3162-2.536 2.0373-5.668-0.54883-6.166-2.2584-0.43493-9.8571 4.5534-20.23 13.281-11.516 9.689-15.498 11.832-21.99 11.832-14.866 0-21.9-16.709-10.062-23.9 6.3023-3.8287 8.917-4.2306 28.625-4.4082 21.594-0.19463 24.36-0.59731 24.799-3.6055 0.43509-2.9854-1.127-3.7878-13.145-6.7559-22.206-5.4845-31.841-15.518-23.199-24.16 2.11-2.11 4.7984-3.0204 7.7832-2.9629zm-396.03 9.3594c-6.3323 0.0176-13.791 2.6042-22.629 7.6484-38.902 22.203-46.885 33.975-50.533 74.5-2.8707 31.893-3.7838 33.243-18.543 27.434-10.584-4.1662-29.384-3.9014-24.271 0.34179 0.72261 0.59972 5.5798 1.9676 10.793 3.041 18.103 3.7275 32.406 12.378 53.889 32.586 27.22 25.605 33.109 27.035 65.998 16.029 36.912-12.351 52.5-28.241 49.129-50.078-3.5348-22.9-20.944-28.85-49.338-16.861-2.7286 1.1521-1.4784-2.7576 5.9316-18.537 9.1737-19.535 10.346-29.994 5.3047-47.344-5.6556-19.464-13.642-28.793-25.73-28.76zm-3.1152 6.3379c17.459 0.45791 31.783 27.662 24.297 52.879-0.88683 2.9873-2.9729 8.129-4.6367 11.426-3.481 6.8972-4.02 6.4152-5.1152-4.5742-5.3609-53.79-56.176-47.359-75.709 9.5801-5.6426 16.449-4.9785 1.7281 0.91602-20.297 4.6027-17.198 19.625-30.896 51.506-46.965 2.943-1.4833 5.8852-2.1238 8.7422-2.0488zm-391.58 3.7012c-39.871-0.14026-63.513 48.408-29.979 75.281 6.7234 5.3878 7.242 6.8281 2.459 6.8281-1.5925 0-5.9539 1.1474-9.6914 2.5508s-9.5516 2.929-12.92 3.3887c-37.101 5.0633-35.635 44.703 2.1562 58.32 13.327 4.8023 20.921 5.6902 46.469 5.4375l23.5-0.23242 10-4.1074c12.99-5.3365 25.028-7.3574 43.814-7.3574 8.6327 0 14.819-0.40738 15.186-1 0.33992-0.55 1.4649-1 2.5-1 2.491 0 3.2225-1.357 1.7168-3.1816-0.66988-0.81178-3.5672-2.9425-6.4395-4.7344-9.8763-6.1612-12.819-11.077-12.621-21.084 0.97627-49.41 0.85573-50.486-7.416-66.322-9.0601-17.346-33.594-35.391-55.885-41.104-4.4266-1.1345-8.725-1.6691-12.85-1.6836zm-0.46485 6.7715c16.86 0.0135 36.393 7.782 52.676 24.115 11.142 11.176 15.549 20.177 18.719 38.223 0.7222 4.1121-0.36097 35.044-1.2852 36.695-1.0676 1.9077-3.0096-0.68413-9.1406-12.195-2.3435-4.4-4.6-8.45-5.0137-9-1.1294-1.5016-8.9411-23.009-11.26-31-3.6734-12.661-5.016-15.595-9.3379-20.402-14.755-16.411-50.869-19.756-64.092-5.9356-14.085 14.721-8.8589 27.767 17.336 43.277 12.618 7.4716 20.876 13.36 17.025 12.141-1.0075-0.31911-4.8944-0.58008-8.6367-0.58008-17.242 0-36.348-20.423-36.164-38.656 0.24108-23.897 17.497-36.699 39.174-36.682zm-108.42 5.5039c-15.778-0.1388-31.34 5.0958-37.404 16.203-3.0482 5.5835-1.6525 30.631 1.707 30.631 0.60158 0 0.75866-3.1653 0.41016-8.25-0.31101-4.5375-0.073-10.95 0.52734-14.25 4.6137-25.361 62.819-26.204 71.127-1.0293 4.4929 13.614-14.187 36.62-25.395 31.275-8.2924-3.9544-14.359-21.644-7.7441-22.58 9.2399-1.3079 14.466 6.3681 10.127 14.873-2.2151 4.342-2.1625 4.4565 1.3086 2.875 11.87-5.4082 4.3496-23.228-9.8594-23.363-12.745-0.12098-13.651 15.342-1.6738 28.6 14.905 16.498 46.193-12.07 37.832-34.543-4.9208-13.226-23.081-20.284-40.963-20.441zm295.15 6.4961c2.0142-0.0694 1.0052 0.95542-3.0293 3.2461-15.555 8.8322-32.694 27.005-39.512 41.896-3.0934 6.7568-3.9357 5.3423-2.293-3.8496 2.4045-13.455 24.801-39.892 33.885-40 2.0231-0.024 5.5902-0.41303 7.9277-0.86523 1.3434-0.25989 2.3501-0.40459 3.0215-0.42774zm-191.85 4.0312c18.38-0.50735 40.199 10.509 44.057 27.725 1.4619 6.5234 12.53 34.205 15.445 38.631 1.286 1.9524 3.5758 6.0024 5.0898 9s4.0421 7.3312 5.6172 9.6289c12.977 18.931 13.027 22.013 0.36719 22.525-9.1646 0.37098-10.792 0.7586-19.48 4.6465-16.072 7.1921-50.001 12.377-62.268 9.5156-27.831-6.4925-44.93-20.815-40.902-34.26 4.1504-13.853 8.6658-16.38 30.508-17.08l17.855-0.57421 2.373-2.7559 2.3711-2.7578 8.7715 1.1836c23.227 3.1349 21.14-1.2321-9.2285-19.305-26.385-15.702-31.247-22.941-23.553-35.074 4.6641-7.3545 13.349-10.783 22.977-11.049zm384.78 2.875c17.977-0.20074 31.146 53.395 15.51 63.123-12.892 8.0206-20.219 20.092-14.162 23.334 4.2562 2.2779 10.866-2.674 17.541-13.143 1.5374-2.4111 3.4688-4.9453 4.293-5.6328 1.9482-1.6251 25.328-1.7246 28.432-0.12109 6.4596 3.3373 7.1808 6.5471 2.8008 12.471-20.571 27.821-39.815 28.75-81.205 3.9258-7.6981-4.6171-14.126-7.2208-22.068-8.9414-3.0672-0.66449-3.2739 1.1043 2.2637-19.258 10.044-36.932 25.579-55.523 46.596-55.758zm130.26 5.8672c-36.638 0.12892-53.529 43.526-21.078 64.342l5.3828 3.4531-6.172 3.28c-16.532 8.8327-23.09 20.305-23.086 40.381 0.006 30.913 11.458 49.08 36.998 58.689l7.5 2.8223 26 0.0391c45.451 0.0679 63.299-10.884 77.996-47.859l3.2188-8.1016 8.5801-4.5c32.209-16.895 36.586-24.448 19.713-34.006-2.0343-1.1523-0.98624-1.9571 5.1484-3.957 7.5155-2.45 7.7864-4.5408 0.47656-3.6816-3.1002 0.36437-7.4234 1.3769-9.6055 2.25-5.3789 2.1522-10.271-2.0986-21.988-19.105-11.124-16.145-25.768-27.881-52.225-41.848-17.03-8.9906-19.531-9.7994-31.354-10.152-5.5217-0.16482-13.586-0.8372-17.92-1.4941-2.6093-0.39552-5.1395-0.5789-7.582-0.57031zm-410.1 1.3086c-2.2987 0.006-4.6191 0.59012-6.7148 1.8281-8.9342 5.2776-7.9631 20.099 1.5781 24.086 11.717 4.8958 22.77-6.7675 17.381-18.342-2.2334-4.797-7.187-7.5854-12.244-7.5723zm411.17 5.1914c2.8421 0.0212 1.3241 1.2868-4.8379 7.5977-14.746 15.102-14.559 31.71 0.50976 45.482 7.5378 6.8891 4.3399 7.6331-8.3672 1.9473-29.734-13.305-23.7-52.608 8.4102-54.775 1.9055-0.1286 3.3378-0.25901 4.2852-0.25195zm14.729 2.332c0.36914 0.0176 0.7061 0.0821 1.0059 0.19727 0.95123 0.36538 7.3555 1.7786 14.23 3.1387 28.168 5.5725 41.597 15.214 74.102 53.207 14.967 17.494 14.033 15.398 9.4766 21.275-3.2836 4.2353-10.588 17.997-12.014 22.637-0.37588 1.2232-2.1181 3.2117-3.873 4.418-1.755 1.2063-7.2414 5.4056-12.191 9.332-46.312 36.736-77.074 40.524-99.727 12.281-29.113-36.297-12.648-63.601 34.516-57.24 18.951 2.5558 25.055 2.5853 25.535 0.1289 0.52779-2.699-0.61798-3.4356-8.8867-5.7246-37.333-10.335-52.558-26.154-43.982-45.697 3.4823-7.9359 16.272-18.217 21.809-17.953zm217.25 41.213c-12.8-0.036-24.642 3.9983-33.691 12.109l-3.8203 3.4258 3-0.60938c1.65-0.33482 7.2233-2.1566 12.385-4.0488 22.674-8.3124 36.078-6.6207 60.115 7.5879 6.325 3.7387 14.425 8.4734 18 10.521 14.082 8.0678 16 10.812 16 22.895 0 35.465-19.728 51.862-49 40.73-3.025-1.1504-7.1875-2.0915-9.25-2.0918-3.3332-0.00044-3.75-0.27787-3.75-2.5 0-2.9392 0.10576-2.9547 6.7734-0.97461 14.06 4.1754 31.993-7.2907 33.668-21.527 2.8613-24.317-7.7218-37.4-34.721-42.924-5.3784-1.1005-12.642-3.3666-16.143-5.0371-7.4319-3.5469-7.3678-3.5372-9.7656-1.3672-1.7258 1.5619-1.9295 1.5534-3.1582-0.12695-3.128-4.2778-22.881 17.516-31.17 34.391-18.557 37.776 8.3158 76.4 38.859 55.854 6.9125-4.65 7.2156-4.5407 5.1016 1.8301-7.3142 22.042-39.432 33.45-49.85 17.707-5.9148-8.9379-13.525-37.182-13.578-50.395-0.09-22.319 14.35-50.316 27.797-53.895 5.1292-1.3649 5.1955-3.7109 0.0898-3.1894-12.785 1.3058-26.854 20.904-31.396 43.732-4.3438 21.832 3.4301 58.239 14.965 70.082 16.369 16.806 49.738 3.0253 58.5-24.16 4.1312-12.818 4.6134-13.064 17.527-8.8887 27.105 8.7628 47.749-3.358 52.988-31.111 2.1275-11.269 1.9579-23.942-0.38867-29-2.6931-5.8044-7.1033-9.4969-20.6-17.244-6.6-3.7886-13.823-8.0461-16.053-9.4609-12.878-8.1727-26.636-12.278-39.436-12.314zm-309 2.5195c15.087 0 24.947 21.159 16.543 35.5-7.6367 13.031-48.864 31.5-70.314 31.5-7.4665 0-13.299-3.6148-28.238-17.498-7.425-6.9001-17.205-15.348-21.734-18.773l-8.2363-6.2285 3.2363-0.71289c6.2992-1.3859 12.624 0.66639 25.234 8.1875 33.755 20.133 46.565 22.675 66 13.094 25.704-12.672 35.164-37.849 16.025-42.652-3.8822-0.97436-2.9967-2.416 1.4844-2.416zm-491.71 12.219c0.97015 0.16106 0.2413 2.0793-1.8887 6.0312-6.8967 12.796-4.0827 23.563 8.8164 33.732 3.1516 2.4848 5.7391 4.6217 5.75 4.75 0.0109 0.12832-1.9721-0.54776-4.4062-1.5039-20.358-7.9968-28.252-31.136-13.758-40.328 2.9496-1.8706 4.7318-2.8069 5.4863-2.6816zm-58.549 3.9824c-5.3433-0.12532-10.568 2.9127-13.598 9.0195-7.132 14.376 10.594 28.432 22.85 18.119 6.3058-5.3059 7.855-13.31 3.7441-19.35-3.4734-5.1036-8.2814-7.6785-12.996-7.7891zm850.1 5.3476c8.241-0.034 31.606 8.4994 38.912 14.85 6.9778 6.0652 9.8406 16.5 7.0664 25.76-3.807 12.707-21.569 15.789-28.293 4.9082-3.1692-5.1278-7.3492 0.0329-8.0898 9.9883-2.5682 34.519-32.451 24.512-32.451-10.867 0-14.379 9.6407-35.267 20.34-44.068 0.46902-0.38583 1.3383-0.56545 2.5156-0.57031zm-95.902 8.918c0.69961 0.0622 1.6186 0.449 2.7676 1.1543 1.528 0.93795 3.7918 2.3169 5.0293 3.0644 3.2667 1.9735 3.0385 2.3049-5.7539 8.3301-18.666 12.792-22.91 11.422-10.697-3.4531l2.4121-2.9375 1.4082 2.9375c0.77439 1.6157 2.077 2.9375 2.8945 2.9375 1.5077 0 1.5368-0.54733 0.41406-7.6465-0.48825-3.0872-0.01375-4.5235 1.5254-4.3867zm-157.34 1.5117c0.54918-0.0825 0.10789 1.6403-1.7227 5.2285-10.333 20.254 11.436 60.347 37.535 69.133 12.865 4.3306 33.796 1.216 48.699-7.248 13.687-7.7732 27.071-16.187 31.873-20.037 8.9812-7.2004 8.4268-6.9412 7.584-3.5547-0.41066 1.65-2.3709 5.7-4.3574 9-13.244 22-29.655 29.5-64.547 29.5-31.533 0-47.244-5.999-56.166-21.443-8.5326-14.771-10.132-43.002-3.1152-54.975 2.1291-3.633 3.6676-5.521 4.2168-5.6035zm227.04 12.69c0.40721-0.0669 0.0177 1.7616-1.2656 5.498-5.7964 16.876 0.0721 42.466 11.701 51.02 4.6119 3.392 0.39436 3.7511-4.8887 0.41602-15.416-9.7318-19.158-30.798-9.0703-51.066 1.9109-3.8396 3.1162-5.8003 3.5234-5.8672zm-485.24 18.102c-19.852 0.13974-39.678 1.5276-52.939 4.2344-2.7672 0.56479-13.567 1.2043-24 1.4199-30.394 0.62826-40.656 3.5618-61.516 17.588-34.172 22.977-42.779 48.211-27.445 80.469 8.4043 17.68 17.899 21.478 53.742 21.492 23.125 0.009 22.519-0.55374 11.094 10.291-37.408 35.509-45.929 62.439-27.15 85.807 28.943 36.015 81.135 22.976 135.68-33.9 10.597-11.05 16.497-20.338 20.131-31.689 4.7216-14.751 20.803-41.005 37.623-61.418 5.6018-6.7986 8.594-13.171 12.793-27.24 1.4379-4.8177 6.5756-16.456 11.582-26.24 10.141-19.82 11.207-24.483 6.6367-29.053-2.5548-2.5548-12.026-4.1904-19.328-3.3379-2.5148 0.29359-7.1637-0.66904-14.117-2.9238-11.7-3.7939-37.264-5.6777-62.787-5.498zm564.4 2.2109c0.13463 0 0.16211 0.33334 0.16211 1 0 0.825-0.43559 2.175-0.96875 3-0.86167 1.3333-0.9707 1.3333-0.9707 0 0-0.825 0.43754-2.175 0.9707-3 0.43083-0.66666 0.672-1 0.80664-1zm-526.31 3.0195c1.65-0.005 4.575 0.39789 6.5 0.89454 1.925 0.49664 5.3 1.2511 7.5 1.6777 6.8346 1.3254 0.24701 1.7143-7.3457 0.43359-7.7111-1.3006-11.451-2.9903-6.6543-3.0059zm-35.453 3.9805c17.265 0 22.664 0.36246 31.168 2.0957 6.888 1.4039 15.152 2.2034 25.02 2.4199 13.4 0.294 15.254 0.56192 20.469 2.9492 9.1647 4.1957 9.3661 5.6387 1.707 12.227-10.857 9.3388-22.543 28.975-29.494 49.557-5.0235 14.875-11.591 28.08-24.529 49.322-13.946 22.897-36.777 45.495-56.387 55.812-3.025 1.5915-10.225 5.6846-16 9.0938-38.032 22.451-66.665 19.99-69.529-5.9766-2.2355-20.269 7.9882-36.613 40.789-65.215 12.588-10.976 14.788-19.335 3.8574-14.65-19.886 8.5217-32.063 10.925-51.117 10.09-48.615-2.1298-55.543-56.368-10.852-84.957 11.829-7.5672 20.521-9.9531 42.852-11.766 15.806-1.283 22.606-2.3437 33.408-5.209 8.5188-2.2597 14.766-1.9438 34.951 1.7637 17.547 3.223 20.706 1.1432 6.0488-3.9824-9.0459-3.1633-7.0158-3.5742 17.639-3.5742zm-363.13 2.7227c-2.674-0.012-4.1736 3.8274-4.082 12.035 0.13295 11.916 4.4956 21.02 17.131 35.742 9.6833 11.282 9.1049 11.646-19.965 12.57-11.825 0.37598-21.612 0.73924-21.75 0.80664-0.1375 0.0674-0.25 3.6903-0.25 8.0508v7.9277l5.75 2.1797c4.0362 1.5298 8.9288 2.3369 16.414 2.709 5.8649 0.29151 11.246 0.8912 11.959 1.332 1.54 0.95176 1.7654 0.23424-11.049 35.158-10.296 28.06-11.256 33.766-5.6895 33.766 3.579 0 6.2114-2.5775 12.541-12.273 13.001-19.916 11.014-19.172 19.125-7.1524 8.3007 12.301 14.689 15.525 19.857 10.023 5.0717-5.3986 3.2945-16.655-4.3574-27.611-6.6399-9.5074-6.1375-9.6406 14.596-3.8848 39.055 10.842 61.795 3.9891 30.17-9.0918-4.2997-1.7784-9.3914-3.9338-11.316-4.7891l-3.5-1.5547 5-0.81641c2.75-0.44829 12.707-1.9562 22.127-3.3516 24.261-3.5935 29.392-5.677 27.34-11.105-1.6722-4.4224-7.8282-5.7261-30.467-6.4512-11.55-0.36992-21.112-0.73263-21.25-0.80664-2.1561-1.1605 5.975-12.51 17.379-24.256 16.411-16.903 7.8615-19.5-13.93-4.2305-12.483 8.7471-31.703 19.352-35.076 19.352-0.62314 0-2.2105-2.8125-3.5273-6.25-13.931-36.366-26.847-57.999-33.18-58.027zm285.58 0.4082-9.5 0.87305c-5.225 0.48031-11.699 1.0654-14.387 1.3008-3.708 0.32469-4.4439 0.18003-3.0508-0.59961 1.0098-0.56513 7.4838-1.1502 14.387-1.3008l12.551-0.27344zm163.81 1.375c0.39743-0.0574 0.98932 0.021 1.7754 0.22656 2.2319 0.58365 3.97 3.931 3.1543 6.0742-0.33181 0.87176-1.4195 0.20515-3.2656-2-2.2998-2.7471-2.8563-4.1287-1.6641-4.3008zm-445.62 9.9277c0.33282-0.006 0.94035 1.0885 2.2852 3.5664 7.2012 13.269 14.054 29.556 11.129 26.449-8.0199-8.5174-14.659-21.943-13.912-28.135 0.14551-1.2056 0.23918-1.876 0.49804-1.8809zm445.87 6.3711c0.59568 0.14133-0.36482 2.067-2.6894 6.1953-6.9238 12.296-10.848 21.159-14.387 32.496-3.9238 12.569-5.6762 15.965-12.713 24.648-2.3866 2.945-7.5861 9.743-11.553 15.105-3.9667 5.3625-7.3828 9.75-7.5918 9.75s2.6173-5.9625 6.2793-13.25 8.1557-17.905 9.9863-23.594c6.8455-21.272 18.384-41.062 28.361-48.641 2.4386-1.8524 3.8433-2.8209 4.3066-2.7109zm96.406 0.31445c-16.578-0.12178-26.86 20.212-13.967 36.604 2.9499 3.7502 1.971 3.7938-5.0918 0.22852-21.53-10.868-38.604-9.3075-50.857 4.6484-13.858 15.783-5.7214 30.737 20.148 37.031l6.6934 1.6289-8.0078 7.5332c-28.405 26.722 3.7786 52.71 41.668 33.646 8.0877-4.0692 7.7191-4.2514 6.3418 3.1406-3.792 20.351 3.1501 33.536 18.49 35.119 25.763 2.6589 36.82-28.021 22.262-61.766l-3.2637-7.5664 5.1641 0.42773c14.873 1.2334 30.302-16.303 25.336-28.795-3.0821-7.7521-12.25-11.675-24.824-10.623l-7.5547 0.63281 0.33008-6.4141c0.89759-17.376-9.5178-36.817-23.117-43.148-3.3945-1.5804-6.6801-2.3056-9.75-2.3281zm0.20117 6.9727c13.63 0.41694 30.097 25.674 24.811 43.908-2.7048 9.3297-8.9905 6.9163-24.949-9.5801-14.891-15.393-16.699-23.627-6.9844-31.801 2.1734-1.8288 4.599-2.6046 7.123-2.5273zm-404.87 1.9121c-18.485 0.0144-22.014 25.806-4.2598 31.125 12.14 3.6373 23.753-8.5328 19.51-20.445-2.5709-7.2173-7.5241-10.686-15.25-10.68zm-59.146 17.609c0.42616-0.0434-0.35558 0.75855-2.6191 2.5391-3.2613 2.5653-14.393 17.458-16.197 21.67-3.5337 8.2483-0.53816 9.5025 24.664 10.314 28.244 0.9099 31.665 2.2301 13.5 5.2109-5.5 0.90255-16.883 2.5628-25.297 3.6894-28.387 3.8014-28.591 7.9342-0.93554 18.918 13.691 5.4375 3.9326 4.7104-21.268-1.584-29.966-7.4848-36.305-5.2476-26.346 9.2988 6.119 8.9378 8.2975 13.917 8.3242 19.021 0.0396 7.5598-3.2859 6.3812-9.5508-3.3848-11.398-17.768-16.935-17.741-26.928 0.12696-3.5314 6.3147-6.7592 10.134-5.0547 5.9805 0.43206-1.0527 2.9934-7.9891 5.6914-15.414 2.698-7.425 6.726-18.064 8.9512-23.643 7.1625-17.956 5.2683-21.105-13.469-22.391-30.743-2.1099-30.128-7.9668 0.83789-7.9668 16.392 0 23.945-1.402 27.682-5.1387 2.5669-2.5669 3.351-1.769 3.2188 3.2754-0.0866 3.3014 0.29669 4.1601 2.1719 4.873 1.2521 0.47605 2.5708 1.3438 2.9316 1.9277 1.0425 1.6869 4.3472 1.2325 4.9961-0.6875 0.32914-0.97387 5.5541-4.1893 11.783-7.25 6.1563-3.025 16.046-8.765 21.977-12.754 6.159-4.1427 10.225-6.5605 10.936-6.6328zm419.65 8.8066c6.795 0.0463 14.359 1.9964 22.201 5.9473 4.675 2.3553 11 5.279 14.057 6.4961 4.2982 1.7114 7.6933 4.3562 14.98 11.674 9.3069 9.3458 12.963 11.451 12.963 7.4629 0-2.5859 4.9329-2.7443 9.0859-0.29101 4.1755 2.4665 6.611 0.12717 2.9668-2.8496-5.9838-4.8878 13.479-7.6781 22.248-3.1895 5.1208 2.6213 5.5184 7.8006 1.0996 14.33-5.4611 8.0698-12.552 10.317-22.246 7.0508-11.088-3.7353-12.891-0.66193-6.3184 10.773 16.69 29.039 12.703 58.348-8.1504 59.91-16.438 1.2314-21.118-24.274-9.166-49.947 2.7255-5.8544 3.2173-11.931 1.1074-13.682-2.5424-2.11-4.5506 0.0103-6.8516 7.2402-6.921 21.747-47.584 33.042-59.209 16.445-6.5795-9.3935 13.922-30.659 31.711-32.893 7.6292-0.95796 12.027-3.0962 11.533-5.6055-0.61633-3.1289-3.3686-3.8081-9.5156-2.3516-27.562 6.5311-55.158-5.785-47.783-21.326 4.7734-10.059 13.962-15.272 25.287-15.195zm236.67 10.838c-7.415 0.28256-15.437 5.3154-20.191 15.285-1.8937 3.9711-2.4876 4.1308-6.123 1.6348-22.794-15.651-60.746-6.0278-63.789 16.174-1.69 12.33 12.841 29.641 24.885 29.646 3.2467 0.001 1.7471 1.4886-4.0176 3.9824-22.954 9.9301-26.459 39.671-5.8262 49.432 20.152 9.5332 41.494 1.1518 52.85-20.754l3.1934-6.1582 0.66992 9.5c1.8176 25.782 19.333 41.056 37.422 32.633 15.895-7.4015 18.216-30.243 5.0566-49.754l-3.627-5.3789 8.2676-0.58398c20.074-1.4152 30.222-19.361 23.242-41.104-2.9794-9.2816-11.588-13.462-25.885-12.57l-8.3398 0.51953-0.56055-5.4277c-1.196-11.62-8.82-17.4-17.224-17.08zm1.0293 7.123c4.3142-0.0373 7.8899 3.0358 8.9648 9.3984 1.1824 6.9988 0.04823 9.6242-5.4473 12.615-8.1788 4.4514-12.2 11.021-8.8164 14.404 3.3136 3.3136 9.2706 0.62107 16.801-7.5957 9.0411-9.8654 28.064-10.107 31.852-0.4043 2.7387 7.0148 2.2811 20.632-0.86524 25.723-5.7439 9.2938-24.56 9.7233-34.129 0.77929-3.2707-3.0571-7.211-2.8286-7.6758 0.44336-0.2074 1.46 0.69858 3.2063 2.5957 5 21.08 19.93 27.259 48.957 12.145 57.043-10.552 5.6454-22.467-2.1454-26.379-17.248-2.9283-11.304-0.41047-41.539 3.459-41.539 4.4578 0 5.0339-4.147 1.498-10.789-1.375-2.5829-2.5-5.7004-2.5-6.9297 0-2.7635-4.2107-14.106-7.2344-19.486l-2.248-3.9961 3.0293-5.5703c4.2267-7.76 10.065-11.8 14.954-11.84zm-54.949 7.57c14.171-0.12775 28.314 5.5253 29.938 17.07 1.2075 8.5869 3.443 13.629 10.414 23.484 4.5864 6.484 6.9442 11.741 3.9023 8.6992-3.9454-3.9454-7.4535-0.041-13.223 14.711-11.231 28.717-25.788 39.162-45.469 32.625-30.274-10.055-9.3219-44.535 26.613-43.795 12.131 0.2497 16.279-0.64523 16.279-3.5156 0-3.5968-2.0267-4.2246-13.635-4.2246-29.904 0-47.435-10.71-44.926-27.443 1.7358-11.575 15.935-17.484 30.105-17.611zm-406.64 27.6c0.71104-0.0446 1.0064 0.22438 0.82031 0.78321-0.21449 0.64422-1.1417 1.3163-2.0586 1.4941-2.4128 0.46795-2.0536-1.4878 0.39063-2.127 0.32714-0.0856 0.61064-0.13552 0.84766-0.1504zm567.71 1.3262c-8.4336-0.17192-16.544 8.6237-11.23 18.898 1.9544 3.7794 6.2301 6.2354 10.818 6.2148 9.6635-0.0432 15.804-10.546 10.883-18.617-2.736-4.4869-6.6372-6.418-10.471-6.4961zm-688.08 12.295c-16.42-0.25007-31.839 8.1912-30.623 24.584 0.22569 3.0421 4.0938 1.2612 4.0938-1.8848 0-22.584 42.309-23.339 55.361-0.98828 10.935 18.725-22.812 41.245-34.283 22.877-4.4651-7.1497 8.2068-8.6224 14.486-1.6836 3.935 4.3481 5.746 1.5905 2.4766-3.7715-7.7082-12.642-28.387-5.4739-21.637 7.5 12.704 24.417 54.902 0.9224 45.191-25.162-5.3098-14.264-20.578-21.25-35.066-21.471zm231.03 6.0293c0.62542 0.0899-1.1814 4.3892-4.9668 13.682-14.724 36.145-56.931 71.815-96.088 81.209-36.223 8.6901-69.264-21.216-56.992-51.586 3.0352-7.5114 11.242-17.315 9.8359-11.75-11.194 44.305 27.56 57.086 80.381 26.51 7.5765-4.3857 16.025-9.2074 18.775-10.715 11.853-6.4974 28.69-22.07 41.404-38.295 4.652-5.9364 7.0985-9.134 7.6504-9.0547zm58.094 5.5781c-7.2762-0.1376-14.641 5.1249-14.641 13.727 0 10.352 11.04 17.429 19.973 12.803 7.396-3.8305 10.226-13.172 6.0605-20.004-2.6927-4.4161-7.0268-6.4428-11.393-6.5254zm-353.7 38.25c-16.975 0.0507-37.515 0.96918-41.66 2.3223-21.666 7.0723-26.939 35.645-9.3711 50.777 6.0693 5.228 5.7648 5.8711-2.7871 5.8711-21.745 0-28.831 8.0011-31.588 35.672-2.8226 28.326 1.1033 41.34 14.162 46.943 1.7656 0.75767 5.2874 2.6939 7.8242 4.3027 11.123 7.0543 38.031 4.5718 57.217-5.2793 1.5122-0.77643 6.35-2.5734 10.75-3.9922s11.825-3.9383 16.5-5.5996c16.395-5.8264 29.371-4.0764 48.195 6.498 5.6672 3.1834 13.738 7.4796 17.934 9.5469 5.022 2.4744 8.4075 4.8932 9.9102 7.082 4.2932 6.2536 8.9609 8.768 8.9609 4.8262 0-1.1 0.47226-2 1.0488-2 0.57656 0 2.9108 0.9 5.1875 2s4.635 2 5.2402 2c1.2115 0 7.4955 7.1928 9.3926 10.75 1.6179 3.0337 5.1309 3.0151 5.1309-0.0273 0-1.2526-0.66254-3.2242-1.4727-4.3809-1.3818-1.9728-1.2975-2.1378 1.373-2.6719 4.6034-0.92066 4.6749-3.445 0.21484-7.5625-2.1587-1.9928-7.6794-5.7155-12.27-8.2715-37.511-20.887-49.801-39.572-49.832-75.768-0.0172-20.316-1.7428-28.859-7.9414-39.309-2.0421-3.4427-4.9116-8.354-6.377-10.912-5.3085-9.2671-20.452-19.202-33.348-21.879-3.3078-0.68669-12.209-0.96989-22.395-0.93945zm-13.113 6.0449c6.3138 0.093 6.0018 1.0126 0.88477 3.377-19.537 9.027-21.938 33.316-5.2891 53.5 5.4702 6.6319 5.7745 6.3237-5.0469 5.084-22.859-2.6188-43.103 0.97355-52.139 9.252-2.8813 2.6398-2.9807 0.54816-0.16211-3.4102 4.4017-6.1816 10.739-8.2276 26.912-8.6856 20.837-0.59002 23.581-3.2686 10.559-10.307-12.526-6.7697-17.819-13.985-17.861-24.35-0.07-17.168 8.5484-23.411 33.553-24.303 3.6441-0.1299 6.4852-0.18919 8.5898-0.1582zm549.83 4.8438c-25.457-0.004-59.26 6.4002-86.828 17.205l-12.658 4.9609-6.0605-2.043c-10.02-3.3756-34.125-2.3433-34.125 1.4609 0 1.8613 3.0617 2.4552 17.592 3.416 14.869 0.98325 17.033 1.7799 23.301 8.5801 5.2792 5.7273 4.8355 6.4116-1.9316 2.9824-6.1479-3.1154-15.964-4.5742-15.957-2.3711 0.002 0.76444 3.3674 3.116 7.4785 5.2266 10.386 5.3318 16.601 10.573 23.77 20.039 38.689 51.09 79.415 62.971 110.4 32.205 13.712-13.616 15.33-18.978 8.1875-27.113-3.6165-4.1189-3.34-4.5806 4.1641-6.9785 20.904-6.68 32.008-17.342 28.959-27.805-2.9542-10.138-22.203-22.147-44.152-27.551-6.0907-1.4994-13.649-2.2136-22.135-2.2148zm-531.05 0.30274c6.3453-0.0704 13.511 1.092 21.271 3.748 26.013 8.9027 33.516 21.038 35.57 57.531 1.3306 23.633 3.7952 33.341 12.127 47.766 6.5033 11.259 6.4836 10.97 0.65625 9.1738-31.952-9.8497-50.389-9.4718-99.25 2.0293-17.213 4.0517-35.948 7.0118-39.201 6.1953-7.7699-1.9501-18.472-36.332-14.367-46.156 7.5567-18.086 44.17-25.082 69.77-13.332 10.992 5.0448 13.068 1.8641 4.6856-7.1758-2.805-3.025-6.9984-7.75-9.3203-10.5-21.538-25.508-9.4376-48.974 18.059-49.279zm363.56 1.3418c-12.723 0.13966-25.182 13.766-25.182 27.543 0 2.4107-1.2222 2.4106-3.4024 0.002-0.94177-1.0406-5.1321-3.6281-9.3125-5.75l-7.6016-3.8574-14.592 0.0117c-44.525 0.0338-61.36 45.129-17.293 46.32l12.299 0.33399-6.9336 7.2969c-22.22 23.392-12.034 60.05 15.121 54.42 7.0312-1.4578 12.564-4.8085 18.092-10.957 2.9331-3.2623 4.7647-4.6347 5.0391-3.7754 0.23713 0.74265 0.95073 3.0386 1.5859 5.1035 6.2907 20.449 28.215 27.652 40.742 13.385 6.551-7.4612 5.9456-19.547-1.5352-30.639-2.0402-3.025-3.8449-5.7913-4.0098-6.1484-0.16486-0.35709 1.4101-0.0404 3.5 0.70507 17.274 6.1615 36.397-8.0449 28.426-21.117v-0.002c-2.6195-4.2956-9.3595-9.8772-18.012-14.918-6.8134-3.9694-7.2229-4.3906-5.2812-5.4297 15.134-8.0996 5.2393-52.713-11.65-52.527zm156.46 4.6094c0.30867 0.002 0.08159 0.20474-0.64258 0.64648-0.825 0.50326-5.325 1.6764-10 2.6055-11.56 2.2972-23.382 4.2489-30 4.9551-3.025 0.32277-11.541 2.4076-18.924 4.6309-13.898 4.1853-19.874 4.9781-9.4922 1.2598 6.0119-2.1532 23.234-7.1191 31.416-9.0586 4.6172-1.0945 16.484-2.684 28-3.752 3.575-0.33153 7.4-0.81839 8.5-1.0801 0.57933-0.13782 0.95738-0.20804 1.1426-0.20703zm-636.99 0.2207a15.714 15.714 0 0 0 -15.715 15.715 15.714 15.714 0 0 0 15.715 15.715 15.714 15.714 0 0 0 15.715 -15.715 15.714 15.714 0 0 0 -15.715 -15.715zm477.2 1.0059c4.9882-0.14138 9.9299 4.239 12.836 13.709 6.5438 21.324 3.696 28.694-11.824 30.609-9.5399 1.1772-9.5395 5.1538 0 7.041 16.847 3.3328 35.845 18.309 32.102 25.305-1.7938 3.3518-8.8915 6.3355-14.967 6.293-6.0691-0.0425-8.8958-1.2425-18.678-7.9394-6.994-4.7883-8.4305-5.1973-10.312-2.9297-2.1098 2.5422-0.29944 6.0488 7.9531 15.41 14.204 16.112 16.754 27.115 7.9941 34.486-13.563 11.412-30.957-5.9374-30.957-30.877 0-4.0427-1.8223-7.5059-3.9492-7.5059-1.5445 0-2.8257 2.5352-3.9316 7.7832-4.6573 22.1-29.692 31.661-38.533 14.717-7.5806-14.529 0.40392-33.193 19.664-45.969 3.5691-2.3675 5.75-4.5203 5.75-5.6738 0-2.2602 1.204-2.143-19.549-1.8789-22.57 0.28725-26.451-1.246-26.451-10.445 0-25.728 42.476-34.865 66.963-14.404 7.2588 6.0653 8.7532 5.2272 10.641-5.9746 2.3451-13.918 8.8366-21.574 15.25-21.756zm175.2 4.6973c1.8358-0.0336 3.5683 0.041 5.5605 0.17968 18.11 1.2605 26.243 8.7981 18.904 17.52-2.8156 3.3462-13.017 8.631-25.512 13.217-15.078 5.534-15.717 8.3962-3.248 14.592 25.283 12.563 16.35 28.84-15.85 28.881-16.236 0.0207-22.084-2.9232-38.686-19.473-6.4486-6.4285-17.258-16.763-24.02-22.967-14.424-13.233-14.365-12.649-1.6484-16.059 5.4681-1.466 13.5-3.633 17.848-4.8164 4.3472-1.1834 11.772-2.6318 16.5-3.2168 4.7278-0.585 14.221-2.1295 21.096-3.4336 17.117-3.2469 23.547-4.323 29.055-4.4238zm30.506 0.91601c1.1078-0.0274 3.581 0.99399 7.7383 3.0566 17.012 8.4407 21.354 15.88 14.014 24.006-4.4163 4.8883-10.472 8.0985-22.539 11.945-14.138 4.5069-15.641 7.0663-8.2734 14.088 11.201 10.675-11.74 34.741-34.047 35.717-21.76 0.95171-54.189-19.885-70.961-45.596-5.1017-7.8206-1.8543-5.4796 14.727 10.617 22.299 21.648 29.228 25.832 44.572 26.91 37.516 2.6348 55.765-25.677 26.254-40.732-5.1886-2.647-5.5294-2.2225 5.2051-6.5039 23.112-9.2182 30.7-18.886 23.76-30.27-1.3008-2.1334-1.557-3.2108-0.44922-3.2383zm-455.19 25.902c-10.193 0.065-20.431 10.441-14.988 23.469 6.0615 14.507 30.568 8.5885 30.568-7.3828 0-1.375-0.8375-4.3452-1.8613-6.5996-3.0541-6.725-8.3796-9.5204-13.719-9.4863zm103.04 32.4c-10.437-0.10493-24.753 3.087-44.49 9.4902-10.213 3.3134-20.788 6.3282-23.5 6.6992-15.158 2.0741-23.848 5.5384-23.143 9.2266 0.30947 1.6188-0.16433 2.6729-1.5274 3.4024-2.7505 1.472-1.1876 2.6888 5.793 4.5117 14.911 3.8937 24.388 12.249 38.904 34.295 10.608 16.111 19.75 26.121 27.326 29.926 19.98 10.033 37.913 6.078 42.084-9.2793 2.1153-7.7892-3.3549-23.992-10.305-30.521-3.4581-3.2487-3.4008-3.4435 3.2852-10.973 9.7687-11.001 12.962-23.84 8.3574-33.596-4.1118-8.7104-10.957-13.063-22.785-13.182zm-1.334 5.5195c6.941 0.0431 11.71 1.9586 15.74 5.6523 4.6923 4.3002 3.746 5.2582-2.0137 2.0391-7.2479-4.051-13.765-4.8334-24.738-2.9688-15.117 2.5689-43.272 12.722-45.564 16.432-1.4226 2.3018 1.7534 2.9233 5.4277 1.0625 29.833-15.109 62.021-16.552 68.812-3.084 2.7538 5.4609 2.818 4.5126-0.74024 10.717-3.4487 6.0132-5.5439 7.6853-12.465 9.9414-9.4984 3.0963-9.9516 5.5412-2.0996 11.342 14.727 10.88 16.195 23.237 3.7012 31.16-12.282 7.7888-22.033 1.1037-34.551-23.684-10.204-20.206-20.66-30.077-38.697-36.529-4.918-1.7592-8.8164-3.3242-8.6621-3.4785 0.15429-0.1543 4.7762-1.19 10.271-2.3027 5.4953-1.1127 16.742-4.2564 24.992-6.9844 19.148-6.3314 31.662-9.3698 40.586-9.3144zm392.71 1.8242c-4.9872 0.15427-9.8457 2.9026-12.295 8.334-4.2372 9.3965 2.6532 20.006 12.994 20.006 9.6494 0 17.015-10.416 13.43-18.992-2.6604-6.3639-8.4767-9.5225-14.129-9.3476zm-459.7 26.561c0.90969-0.15126 8.5977 3.8644 12.965 6.8301 8.4766 5.7564 13.21 11.819 20.57 26.34 3.6563 7.2137 8.3839 15.314 10.506 17.998 4.6193 5.8436 4.7668 6.4017 0.96875 3.6973-5.4171-3.8573-12.699-12.784-19.66-24.102-4.7165-7.6679-9.9195-14.381-16.189-20.889-5.0817-5.274-9.2442-9.6777-9.25-9.7871-0.003-0.0487 0.0292-0.0778 0.0899-0.0879zm-158.97 17.488c1.8375 0.19458-3.4067 2.6145-14.627 6.0566-13.811 4.2369-20.981 5.5469-26.139 4.7734-5.4789-0.82161-4.823-2.2246 1.4121-3.0195 8.5053-1.0844 20.584-3.4416 28.158-5.4961 6.4402-1.7469 10.093-2.4312 11.195-2.3144zm420.79 6.3808c-3.5491 0.0122-3.5847 2.4423 2.918 5.9082 4.6917 2.5007 5.835 3.5672 5.4414 5.0723-1.1129 4.2558 0.74714 6.9065 8.8105 12.557 7.2358 5.0702 8.8704 6.8706 16.133 17.762 4.4447 6.6656 11.106 15.719 14.805 20.119 6.5841 7.8331 15.13 20.19 22.021 31.844 16.283 27.535 55.142 43.052 78.957 31.527 27.177-13.151 23.212-38.031-10.449-65.551l-4.9492-4.0469 6.9492-1.1699c22.054-3.7153 36.719-21.023 31.016-36.604-3.5274-9.6369-10.886-12.368-33.566-12.455-7.425-0.0284-16.2-0.49792-19.5-1.043-10.192-1.6834-80.376-1.2669-92.52 0.54882l-10.371 1.5508-6.166-3.1309c-4.0044-2.0326-7.3998-2.896-9.5293-2.8887zm92.76 8.627c16.944 0.07 32.935 1.643 39.385 4.3711 15.364 6.4987 19.534 12.862 13.008 19.848-6.3046 6.7491-20.278 11.601-36.063 12.521-18.191 1.0609-17.596 4.0727 2.1445 10.871 46.634 16.06 50.36 51.587 4.3516 41.49-25.048-5.4968-47.799-21.537-58-40.893-6.3711-12.088-14.327-21.685-23.654-28.531-4.5323-3.327-10.846-11.008-10.846-13.193 0-0.51981 5.9625-1.4611 13.25-2.0918s19.325-1.898 26.75-2.8184c8.9986-1.1154 19.507-1.6162 29.674-1.5742zm-511.57 1.07c-19.83-0.54373-41.337 12.319-39.637 32.736 1.236 14.838 5.7449 15.338 5.3027 0.58789-0.80918-26.996 47.41-38.443 57.744-13.709 6.5586 15.697-16.055 38.871-26.416 27.07-5.7906-6.5952-3.5453-9.4648 7.4043-9.4648 7.9124 0 8.9394-2.5076 1.9785-4.8301-12.999-4.3371-21.927 3.6689-16.295 14.613 12.181 23.67 49.885-6.0446 38.426-30.283-5.3143-11.241-16.61-16.394-28.508-16.721zm566.51 0.50977c0.88414 0.02 1.9077 0.0586 3.0762 0.10546 14.577 0.58452 21.08 10.17 15.176 22.365-4.2251 8.7279-16.041 15.797-28.209 16.877-8.4336 0.74852-10.664 1.6924-10.664 4.5059 0 1.578-0.4171 1.9003-1.75 1.3574-0.9625-0.39202-3.6625-1.3826-6-2.2012-5.6665-1.9843-5.3656-2.7396 1.6113-4.0371 26.449-4.9187 39.088-20.444 26.715-32.816-5.5081-5.5081-6.1441-6.2964 0.04492-6.1562zm-273.62 0.92187c-0.1798-0.0144-0.34656-0.0129-0.50195 0.002-9.1398 0.87516 3.6212 20.772 31.408 48.971 41.88 42.5 54.499 81.195 33.027 101.28-17.883 16.727-31.641 9.3505-40.957-21.963-4.5328-15.236-7.3877-21.5-9.8008-21.5-3.4995 0-4.3484 2.616-5.2578 16.217-2.3648 35.367-17.419 45.46-36.6 24.539-15.632-17.051-11.822-51.038 9.2832-82.816 13.304-20.032 19.921-44.816 13.641-51.096-2.3465-2.3465-3.4687 0.4161-2.4492 6.0254 1.6425 9.0368-5.0875 28.997-12.855 38.131-2.4537 2.8851-2.412 2.7452 3.0781-10.354 6.283-14.99 8.3867-27.321 5.8848-34.498-1.9927-5.7164-3.107-3.5116-5.9883 11.852-2.0109 10.722-5.475 19.269-18.451 45.518-17.623 35.649-20.69 62.421-10.322 90.131 7.295 19.498 45.23 18.091 55.928-2.0742 3.2224-6.0743 4.1348-5.8007 7.2656 2.1758 13.176 33.568 48.499 40.848 67.076 13.824 6.2392-9.076 8.8758-33.652 5.5312-51.574-2.1986-11.782-38.11-72.97-55.561-94.668-10.787-13.412-27.805-27.676-33.379-28.121zm11.441 15.16c2.79 0.22897 25.54 25.829 25.553 28.936 0.002 0.4442-2.455-1.3128-5.459-3.9062-9.5342-8.2313-21.868-23.403-20.301-24.971 0.047-0.047 0.11703-0.066 0.20703-0.0586zm-63.732 3.6602c0.83481 0.10514 0.37793 1.5862-1.6836 4.207-2.5634 3.2588-7.96 5.7804-12.18 5.6914l-3.3476-0.0723 4.3144-1.916c2.3736-1.0539 6.3112-3.5504 8.75-5.5488 2.0651-1.6922 3.4972-2.4431 4.1465-2.3613zm-361.96 3.2598a15.714 15.714 0 0 0 -15.713 15.713 15.714 15.714 0 0 0 15.713 15.715 15.714 15.714 0 0 0 15.715 -15.715 15.714 15.714 0 0 0 -15.715 -15.713zm209.37 11c-15.268-0.2153-28.584 3.9034-39.783 12.355-42.686 32.214-47.756 64.46-11.77 74.84l7.4746 2.1562-5.5352 3.8125c-32.032 22.061-14.137 89.436 23.787 89.559 9.1283 0.03 9.4918 0.633 3.8301 6.373-11.395 11.552-17.589 27.541-19.059 49.195-1.7081 25.164-5.6544 35.416-20.953 54.434-5.0812 6.3162-10.671 13.284-12.422 15.484-14.829 18.633-40.764 32.933-46.047 25.391-6.6879-9.5483 11.642-43.361 30.043-55.418 6.124-4.0126 1.681-6.744-7.1797-4.4141-13.473 3.5427-20.262 4.4075-23.02 2.9316-2.023-1.0827-3.9533-1.1125-10.236-0.1562-14.25 2.169-19.973-0.3194-23.805-10.352-9.1194-23.879 16.157-43.482 56.066-43.482 27.254 0 61.139-7.4302 60.316-13.227-0.36747-2.5894 2.264-2.5091-28.822-0.8984-10.175 0.5272-20.3 1.4453-22.5 2.0391-8.755 2.3632-28.746 5.2542-42.219 6.1054-20.881 1.3192-27.196 4.9515-38.195 21.969-17.624 27.268-9.8007 42.463 23.227 45.111 18.29 1.4666 18.263 1.4463 10.018 7.6113-24.636 18.42-32.533 38.23-22.307 55.961 14.362 24.901 33.715 25.368 63.197 1.5234 26.182-21.175 35.393-33.078 47.07-60.824 1.8813-4.4702 4.5425-9.6452 5.9141-11.5s3.9904-6.0711 5.8203-9.3711c1.8298-3.3 4.9612-8.475 6.957-11.5 11.277-17.092 14.345-35.908 8.4394-51.742-1.8143-4.8647-1.7485-4.9913 7.8281-15.117 4.9102-5.1918 5.3138-5.3998 12.162-6.2597 9.2121-1.1567 14.339-3.8057 30.059-15.529 24.55-18.31 30.379-26.271 43.66-59.648 13.715-34.466 33.276-59.677 51.369-66.203 2.75-0.9919 6.2152-3.0386 7.7012-4.5469 1.486-1.5082 5.986-3.9476 10-5.4219 17.459-6.4124 20.321-8.5312 11.525-8.5312-4.996 0-17.746 3.1171-20.227 4.9453-6.519 4.8048-8.7359 4.6044-42-3.7949-13.2-3.3331-26.238-6.5549-28.975-7.1602-2.7363-0.60521-10.185-3.3058-16.553-6.002-16.396-6.9427-31.388-10.507-44.859-10.697zm-2.8047 6.7598c12.234 0.0433 26.053 2.3083 36.773 6.5977 6.2062 2.4832 4.0958 2.7401-11.129 1.3477-37.953-3.4712-61.845 7.1576-75.004 33.369-11.171 22.251-3.3826 31.135 27.299 31.135 21.872 0 21.184-0.44499 9.7832 6.3164-35.449 21.023-37.467 57.92-4.0352 73.783 13.909 6.5999 32.799 6.8489 43.438 0.5723 5.4179-3.1967 4.3347-2.0159-4.1836 4.5625-13.807 10.663-16.945 11.632-37.75 11.664-49.098 0.075-59.647-72.653-12.295-84.771 9.2516-2.3676 7.7694-5.7648-3.2051-7.3438-33.851-4.8703-42.501-16.076-30.432-39.416 3.7498-7.2513 27.555-28.829 37.277-33.789 5.3907-2.7501 13.948-4.061 23.463-4.0274zm295.02 2.1816c-9.384 0.17247-10.513 5.1494-5.7207 21.406 5.7416 19.476 5.9788 20.926 3.002 18.455-3.8509-3.196-3.1516 3.9188 1.4844 15.105 4.4784 10.806 6.7019 21.395 7.9219 37.713 2.6437 35.361 25.069 54.553 36.48 31.221 3.4129-6.9779 3.8785-7.2341 5.9316-3.2637 6.2649 12.115 26.021 22.67 36.57 19.537 15.25-4.5288 22.758-21.149 18.584-41.139-3.8025-18.21-13.197-30.411-35.586-46.215-13.922-9.8268-21.807-16.555-38-32.43-19.809-19.419-20.666-20.028-28.682-20.363-0.69968-0.0293-1.3607-0.0388-1.9863-0.0273zm0.82617 8.0488c2.9472 0.0492 9.6691 5.1131 21.818 15.219 62.515 51.999 82.102 81.174 64.924 96.711-18.285 16.538-34.304 7.8746-41.359-22.367-1.2745-5.4632-2.6556-7.779-4.668-7.8281-1.8679-0.046-2.6863 3.6362-3.1074 13.984-1.0182 25.019-10.272 21.086-17.859-7.5898-1.1511-4.3507-2.4528-9.2602-2.8926-10.91-0.43975-1.65-2.4151-8.5825-4.3906-15.404-1.9755-6.8218-4.7257-17.905-6.1113-24.631-1.3856-6.7256-3.8676-16.767-5.5156-22.314-2.9566-9.9522-3.7851-14.918-0.83789-14.869zm-288.31 1.7656c7.9868-0.0147 18.106 0.6514 31.652 1.8008 21.939 1.8615 54.666 12.176 62.043 19.553 0.87995 0.8799 2.0166 1.5996 2.5273 1.5996 2.7522 0-0.95994-4.5328-6.5352-7.9785-5.0078-3.095-4.2046-3.25 5.0059-0.95899 13.794 3.4309 13.25 2.6464 5.4902 7.916-7.1815 4.8768-13.026 13.118-29.801 42.021-3.0324 5.225-7.1751 11.975-9.2051 15-2.0299 3.025-6.986 11.35-11.016 18.5-23.119 41.022-52.675 52.925-79.322 31.947-26.626-20.961-13.443-46.586 36.549-71.043 12.309-6.022 14.766-8.4678 11.156-11.107-2.2336-1.6333-4.5796-1.2017-17.52 3.2207-52.668 18-75.818-6.3055-36.547-38.371 10.702-8.7384 17.951-12.067 35.521-12.1zm479.94 18.221c1.7296 0.0838 5.2526 8.1316 7.5645 19.232 0.22908 1.1 0.46661 2.225 0.52734 2.5 0.0607 0.275-0.34646 2.1421-0.9043 4.1504-8.0002 28.803-68.195 17.015-86.297-16.9-3.2581-6.1042-3.1008-6.2061 3.6992-2.3379 40.673 23.137 75.964 22.492 74.445-1.3613-0.23648-3.7139 0.17865-5.3213 0.96484-5.2832zm-627.79 8.2363c-22.642 0.01-30.604 4.1375-40.553 21.041-11.338 19.264-10.738 28.216 2.8262 42.152 9.2306 9.4836 9.3264 10.62 1.041 12.34-14.331 2.975-24.314 9.8571-24.314 16.758v4.459l4.3555-4.0137c4.7418-4.3709 8.6445-6.8238 8.6445-5.4316 0 0.4841-0.84878 1.6505-1.8867 2.5898-15.026 13.599-9.115 37.186 11.734 46.818 9.8899 4.5692 9.8291 5.0104-0.6914 4.9414-9.139-0.06-14.08-1.7349-18.906-6.4062l-3.25-3.1446v4.627c0 9.964 17.611 14.673 38.404 10.268 3.7974-0.8045 12.797-1.9571 20-2.5606 7.2026-0.6035 16.471-2.008 20.596-3.123 16.198-4.3784 37.505-4.1529 47.062 0.498 5.0115 2.4388 5.7643 2.5468 9.6211 1.3965 5.8051-1.7313 6.0955-2.3739 1.9688-4.3418-2.4726-1.1791-4.2266-3.0606-5.623-6.0313-2.49-5.2972-2.5004-5.6244-0.16993-4.8847 5.6266 1.7858 4.4144-2.8776-1.8594-7.1543-6.3677-4.3408-7.2586-5.5663-12.41-17.066-6.0642-13.538-14.468-41.035-19.973-65.352-7.4364-32.849-12.72-38.386-36.617-38.379zm-0.85938 5.709c12.48-0.0391 23.932 5.698 27.811 18.854 2.173 7.3707 2.7415 14.732 0.89258 11.549-19.087-32.862-61.015-26.711-67.387 9.8848-0.85812 4.9289-2.2749 2.459-2.3867-4.1602-0.37085-21.947 21.601-36.066 41.07-36.127zm307.11 14.053c0.27091 0.10391-0.0298 2.1948-0.8457 6.4844-5.8009 30.497 7.214 56.827 29.598 59.879l5.5 0.74805-4 1.2344c-2.2 0.6787-7.503 1.2684-11.783 1.3106-16.281 0.1608-18.352-2.9922-21.309-32.422-1.7144-17.067-1.3457-28.013 1.1445-33.973 0.92857-2.2224 1.4846-3.3426 1.6953-3.2617zm-310.47 0.0508c7.08-0.11572 13.703 3.1826 19.391 9.875 7.8958 9.2906 9.6655 12.929 16.711 34.369 7.6095 23.157 10.945 31.166 16.668 40.018 4.5989 7.1129 15.407 26.571 15.434 27.785 0.0104 0.4749-1.443 0.6036-3.2305 0.2851-19.797-3.5268-34.164-2.8538-51.729 2.4258-41.969 12.615-78.44-16.722-52.73-42.416 6.6065-6.6027 11.874-8.598 30.102-11.404 10.106-1.5558 9.0682-3.6879-8.2812-17.008-15.145-11.628-15.785-24.188-1.8125-35.637 6.628-5.4312 13.231-8.1909 19.479-8.293zm433.24 21.279c0.51173 0.097 1.1661 2.4114 2.0527 6.9043 1.3983 7.0855 0.41611 34.536-1.3809 38.596-13.185 29.787-46.563 25.05-60.369-8.5684-2.6856-6.5394-5.7015-10.82-8.2168-11.658-1.147-0.3823 0.87955-17.192 2.2363-18.549 0.21781-0.2178 1.63 3.5596 3.1367 8.3926 13.713 43.985 58.428 38.978 61.221-6.8555 0.34329-5.635 0.74035-8.3717 1.3203-8.2617zm95.803 3.4043c0.47863 0 1.3582 1.0125 1.9551 2.25 1.3089 2.7141 1.3203 2.75 0.83593 2.75-0.21174 0-1.1225-1.125-2.0234-2.5-0.90094-1.375-1.2462-2.5-0.76758-2.5zm-75.322 19.316c0.55014-0.0831 1.626 1.9528 2.8789 5.9023 0.92148 2.905 3.4244 8.2062 5.5625 11.781 4.8128 8.0472 4.8282 8.1416 0.66601 4.1074-4.5732-4.4325-8.4784-11.872-9.2715-17.658-0.37318-2.7226-0.26382-4.0682 0.16406-4.1328zm-472 7.8027c0.41993-0.10583 1.174 0.28815 2.5078 1.1211 2.6972 1.6845 2.4971 2.7598-0.51367 2.7598-1.8333 0-2.5-0.5333-2.5-2 0-1.1691 0.0859-1.775 0.50586-1.8809zm555.32 12.305c1.0473 0.1307-0.0142 2.4292-3.5254 6.5312-3.7146 4.3397-10.087 8.0229-13.805 7.9765-1.6469-0.021-1.3873-0.5027 1.4726-2.7285 1.9102-1.4866 6.2977-5.077 9.75-7.9785 3.2026-2.6918 5.2928-3.9024 6.1074-3.8008zm-292.34 23.576c-14.021 0-25.354 21.529-20.135 38.25l0.85938 2.75h-5.6504c-26.321 0-43.841 14.724-35.715 30.016 5.4863 10.324 17.546 10.626 32.756 0.8223 3.7911-2.4436 7.3856-4.7396 7.9883-5.1035 0.60267-0.3639-0.63238 4.3833-2.7441 10.551-5.6804 16.59-5.2187 28.921 1.207 32.244 12.063 6.238 32.941-9.108 32.941-24.213v-4.291l7.5176 5.0508c11.841 7.9549 17.859 10.4 25.496 10.355 24.634-0.143 25.036-28.692 0.48633-34.518-8.0771-1.9166-8.292-2.1944-2.3398-3.0274 20.87-2.9207 36.319-25.643 25.078-36.885-13.903-13.903-40.209-6.0866-51.307 15.244-2.3524 4.5216-4.4503 7.6958-4.6641 7.0547-0.21373-0.6412 0.26319-2.4326 1.0605-3.9824 10.501-20.41 4.1627-40.318-12.836-40.318zm-0.0449 5.709c2.3052-0.1276 4.6687 0.5942 6.9375 2.3789 6.9247 5.447 7.3702 13.278 1.6152 28.412-8.777 23.081 0.91405 25.136 13.176 2.7949 7.6718-13.978 12.847-17.279 27.105-17.289 15.573-0.011 20.469 5.0788 15.15 15.752-5.3384 10.713-13.081 14.911-30.062 16.295-15.978 1.3023-27.369 4.5855-27.369 7.8887 0 3.895 0.73411 4.0575 18.357 4.0801 25.453 0.033 38.081 7.4927 32.139 18.984-6.2698 12.124-30.773 4.4694-49.205-15.371-7.6662-8.2519-11.115-5.9408-5.6719 3.7988 8.0931 14.48-0.82891 31.513-16.725 31.93-9.9622 0.2612-6.9851-23.507 5.4121-43.209 6.7633-10.748 7.9409-17.154 3.1523-17.154-3.0973 0-7.3128-3.5675-8.3652-7.0801-4.5389-15.149 4.3645-31.658 14.354-32.211zm119.48 31.447c-0.70369-0.01-1.4321 0.022-2.1836 0.094-16.706 1.6053-15.052 26.742 1.7598 26.742 10.578 0 17.066-11.632 11.541-20.693-2.4447-4.0094-6.1914-6.0758-11.117-6.1425zm-145.05 9.9296c6.6513 0.01 11.798 1.9037 12.045 6.4141 0.0301 0.55-3.7515 3.8272-8.4043 7.2832-21.2 15.747-34.514 16.468-34.514 1.8691 0-8.7111 18.175-15.58 30.873-15.566zm-98.52 7.5938c2.8089 0.1625 4.0804 19.616 1.1152 28.129-1.8106 5.1984-6.7029 14.931-8.8945 17.691-1.7328 2.1828-1.7292 3.5985-0.0723-21.301 0.5089-7.6472 3.0988-16.846 6.5625-23.318 0.45612-0.8523 0.88779-1.2244 1.2891-1.2012zm-112.92 15.016-7.5938 7.4024c-4.2574 4.1506-8.7047 9.6133-10.125 12.436-5.6849 11.296-5.7128 21.764-0.082 30.684l2.5723 4.0742-4.1113-0.5508c-24.641-3.305-11.647-48.231 15.418-53.309l3.9219-0.7363zm173.7 39.498c-8.0579-0.1995-16.212 5.1607-16.895 15.654-0.43668 6.7116 1.7048 11.455 6.7168 14.877 12.636 8.6263 28.953-1.8361 26.082-16.725-1.7596-9.126-8.7944-13.631-15.904-13.807zm-137.62 18.875c0.5945 0.029 1.0212 0.1403 1.2285 0.3476 0.31989 0.3199-2.3507 3.6187-5.9355 7.3321-22.24 23.036-26.043 52.252-6.8027 52.252 12.288 0 30.007-12.122 48.275-33.025 5.2702-6.0303 4.6045-3.7455-1.6113 5.5254-5.2719 7.8631-17.292 20.274-26.674 27.543-4.125 3.1959-9.075 7.2111-11 8.9218-14.282 12.692-30.916 14.076-41.533 3.459-17.344-17.344-12.638-37.595 13.238-56.984 4.2875-3.2127 9.3699-7.2859 11.295-9.0508 2.9726-2.7253 15.358-6.5242 19.52-6.3203z"/>
</g>
</svg>
