<?xml version="1.0" encoding="UTF-8" standalone="no"?>
<!-- Created with Inkscape (http://www.inkscape.org/) -->

<svg
   xmlns:dc="http://purl.org/dc/elements/1.1/"
   xmlns:cc="http://creativecommons.org/ns#"
   xmlns:rdf="http://www.w3.org/1999/02/22-rdf-syntax-ns#"
   xmlns:svg="http://www.w3.org/2000/svg"
   xmlns="http://www.w3.org/2000/svg"
   xmlns:sodipodi="http://sodipodi.sourceforge.net/DTD/sodipodi-0.dtd"
   xmlns:inkscape="http://www.inkscape.org/namespaces/inkscape"
   id="svg4156"
   version="1.1"
   inkscape:version="0.91 r13725"
   width="327.1875"
   height="684.375"
   viewBox="0 0 327.1875 684.375"
   sodipodi:docname="CrenulateMoonwort.svg">
  <metadata
     id="metadata4162">
    <rdf:RDF>
      <cc:Work
         rdf:about="">
        <dc:format>image/svg+xml</dc:format>
        <dc:type
           rdf:resource="http://purl.org/dc/dcmitype/StillImage" />
        <dc:title></dc:title>
      </cc:Work>
    </rdf:RDF>
  </metadata>
  <defs
     id="defs4160" />
  <sodipodi:namedview
     pagecolor="#ffffff"
     bordercolor="#666666"
     borderopacity="1"
     objecttolerance="10"
     gridtolerance="10"
     guidetolerance="10"
     inkscape:pageopacity="0"
     inkscape:pageshadow="2"
     inkscape:window-width="1600"
     inkscape:window-height="837"
     id="namedview4158"
     showgrid="false"
     inkscape:zoom="0.97899543"
     inkscape:cx="163.59375"
     inkscape:cy="342.1875"
     inkscape:window-x="-8"
     inkscape:window-y="-8"
     inkscape:window-maximized="1"
     inkscape:current-layer="svg4156" />
  <path
     style="fill:#000000"
     d="m 0,683.62207 c 0,-2.1467 20.755917,-18.93457 23.410019,-18.93457 0.551408,0 3.885999,-1.73975 14.340048,-7.48161 1.4266,-0.78355 5.856288,-3.07848 9.84375,-5.09985 9.538678,-4.83544 21.216038,-12.20262 26.468683,-16.69893 4.515124,-3.86499 13.17841,-12.2772 12.852839,-12.48035 -0.679136,-0.42375 -20.231328,1.70617 -21.759089,2.37033 -1.570803,0.68287 -11.670334,3.74158 -21.09375,6.38837 -2.737704,0.76894 -10.3125,5.73969 -10.3125,6.76727 0,0.38698 -0.738281,0.964 -1.640625,1.28228 -0.902344,0.31828 -2.167969,0.82452 -2.8125,1.12497 -0.675174,0.31473 -1.171875,-0.0855 -1.171875,-0.94425 0,-1.70743 12.178611,-9.83914 16.40625,-10.95453 1.546875,-0.40812 6.821937,-2.17047 11.722359,-3.91633 5.924183,-2.1106 11.578963,-3.39681 16.875,-3.83831 12.432405,-1.03644 12.405659,-1.02164 8.786637,-4.85892 -6.37283,-6.75717 -9.556922,-11.3957 -11.904836,-17.34276 -2.172253,-5.50212 -2.424173,-7.402 -2.386855,-18.00066 0.03113,-8.84039 0.3674,-12.11959 1.324266,-12.91372 1.7236,-1.43047 2.972986,-0.50145 3.684931,2.74002 0.617525,2.81156 4.687515,7.37211 5.387516,6.03686 0.223065,-0.4255 1.163553,-3.51582 2.089971,-6.86738 2.3714,-8.57916 6.186906,-18.96203 7.579291,-20.625 2.838194,-3.38975 4.122492,-10.79419 5.546073,-31.97513 0.810703,-12.06212 1.678753,-23.40768 1.929009,-25.21237 0.250247,-1.80469 1.108866,-17.41406 1.908029,-34.6875 0.799171,-17.27344 1.63079,-32.25 1.848046,-33.28125 0.217266,-1.03125 0.634322,-7.57031 0.926804,-14.53125 0.292469,-6.96094 0.940699,-16.66406 1.440489,-21.5625 2.65545,-26.02602 3.85681,-36.54879 4.65589,-40.78125 0.48674,-2.57812 1.10595,-6.79687 1.37604,-9.375 0.27007,-2.57812 1.13241,-9.53906 1.91629,-15.46875 0.78389,-5.92969 1.60145,-12.15234 1.81683,-13.82812 0.36752,-2.8596 0.20793,-3.05565 -2.59635,-3.18967 -4.77722,-0.22831 -4.94921,-0.27832 -6.58555,-1.91466 -1.960677,-1.96067 -2.061214,-7.18353 -0.15238,-7.91602 0.8609,-0.33037 1.40625,-1.75176 1.40625,-3.66525 0,-1.7191 0.42187,-3.38635 0.9375,-3.70503 0.51562,-0.31867 0.9375,-1.6092 0.9375,-2.86783 0,-1.25863 0.38836,-2.28842 0.86301,-2.28842 0.47465,0 1.14099,-1.26562 1.48074,-2.8125 0.33975,-1.54687 1.14396,-2.8125 1.78712,-2.8125 0.76606,0 1.02702,-0.97006 0.75661,-2.8125 -0.31211,-2.12655 -0.0464,-2.8125 1.08936,-2.8125 0.94588,0 1.48579,-0.78113 1.45796,-2.10937 -0.0243,-1.16016 0.38695,-5.27344 0.91392,-9.14063 2.28141,-16.74225 4.11064,-36.35198 4.13631,-44.34218 0.0393,-12.24051 0.71162,-11.22891 -22.170849,-33.36022 -6.06834,-5.86913 -12.114298,-12.08836 -13.435464,-13.8205 l -2.40212,-3.14934 -1.837593,2.33612 c -1.010675,1.28486 -2.363705,2.33612 -3.006734,2.33612 -0.643027,0 -2.08618,1.05469 -3.207005,2.34375 -1.120826,1.28906 -2.638723,2.34375 -3.373105,2.34375 -0.734381,0 -2.108265,1.58203 -3.053074,3.51562 -1.919798,3.92895 -5.133355,4.99519 -8.230195,2.73073 -1.583275,-1.15772 -2.344546,-1.1399 -5.785705,0.13548 -4.73321,1.75425 -5.839097,1.13191 -8.778517,-4.94011 -1.698966,-3.5096 -1.816501,-4.56182 -0.907817,-8.12727 0.574105,-2.25263 1.24317,-5.36133 1.486812,-6.9082 0.937685,-5.95335 1.306098,-6.74271 3.64422,-7.80803 3.284529,-1.49653 3.365252,-1.47635 6.858544,1.71428 1.693612,1.54687 4.002475,2.80614 5.130808,2.79838 2.640181,-0.0182 8.122444,-1.93206 10.992016,-3.83738 2.203139,-1.46283 2.213218,-1.53416 0.57094,-4.04058 -1.591582,-2.42906 -1.779554,-2.48087 -3.918006,-1.0797 -1.235419,0.80948 -2.678113,1.47178 -3.205985,1.47178 -1.76829,0 -4.731137,-3.20871 -4.737129,-5.13023 -0.0035,-1.12689 -1.148809,-2.55135 -2.8125,-3.49804 C 53.213743,141.11835 52.5,140.02886 52.5,138.02517 c 0,-1.69775 -0.862905,-3.43732 -2.34375,-4.7249 -1.289063,-1.12083 -2.34375,-3.05021 -2.34375,-4.28752 0,-1.2373 -0.608231,-2.48304 -1.351625,-2.76832 -0.743392,-0.28526 -2.057538,-1.59602 -2.920321,-2.9128 -1.474147,-2.24983 -1.467022,-2.5493 0.118212,-4.96867 0.927799,-1.41601 1.727652,-3.50529 1.777449,-4.64285 0.10165,-2.32208 3.929411,-6.84511 5.792888,-6.84511 0.66812,0 2.150481,1.26563 3.294135,2.8125 1.143655,1.54688 2.855771,2.8125 3.804703,2.8125 2.730854,0 17.564464,14.32894 17.593143,16.99459 0.009,0.8392 0.649228,2.05101 1.422666,2.69291 1.975399,1.63943 1.745431,7.40097 -0.438362,10.98255 -1.470528,2.41177 -1.604439,3.2545 -0.670368,4.21875 0.641981,0.66273 3.104113,3.7362 5.471405,6.82995 2.367292,3.09375 10.940656,11.95312 19.051925,19.6875 8.11126,7.73437 15.36811,15.26186 16.12633,16.72775 0.75821,1.46588 1.55761,2.48622 1.77642,2.2674 0.21881,-0.21882 0.83465,-5.63693 1.36852,-12.04025 0.53387,-6.40332 1.15652,-12.90803 1.38367,-14.4549 1.26437,-8.61059 0.67061,-15.00332 -1.82857,-19.6875 -1.37553,-2.57813 -3.9896,-8.0625 -5.80904,-12.1875 -8.00685,-18.15294 -8.03376,-18.19632 -10.34965,-16.6789 -1.74828,1.14552 -2.61834,1.17157 -5.410311,0.16199 -2.588663,-0.93608 -3.576788,-0.95327 -4.452608,-0.0774 -0.619085,0.61908 -1.854366,1.1256 -2.745067,1.1256 -2.14499,0 -5.505544,-4.36901 -5.505544,-7.15768 0,-1.27027 -0.557794,-2.21732 -1.305948,-2.21732 -0.718271,0 -1.562021,-0.66731 -1.875,-1.48293 -0.784901,-2.04542 -0.715566,-7.43305 0.106233,-8.254854 0.371407,-0.37141 0.547101,-2.163113 0.390432,-3.981563 -0.156668,-1.81845 0.559344,-5.48723 1.591138,-8.152839 1.031795,-2.665611 2.138881,-6.043053 2.460193,-7.505428 1.30621,-5.944911 10.109377,-10.03249 14.877702,-6.908167 1.90776,1.250018 2.13868,2.212034 2.30106,9.586655 0.0993,4.508463 0.59609,8.697973 1.10405,9.310021 0.50796,0.612047 1.58256,3.954383 2.38801,7.427417 2.06837,8.918628 4.81429,15.851348 8.48769,21.429118 1.74235,2.64562 4.32919,7.47588 5.74854,10.7339 1.41934,3.25802 2.95377,5.92367 3.40982,5.92367 0.45605,0 0.6222,-0.53941 0.36921,-1.19868 -0.41401,-1.07887 0.18698,-9.56116 1.6559,-23.37132 1.25719,-11.81963 0.80155,-33.010512 -0.85253,-39.64875 -4.16747,-16.725231 -9.8255,-26.780732 -20.21462,-35.925612 l -5.55837,-4.892675 -2.09306,2.831019 C 95.731031,39.085186 92.665007,39.268823 90.167494,36.09375 89.153517,34.804687 87.857272,33.75 87.28695,33.75 86.716628,33.75 86.25,33.399413 86.25,32.970919 86.25,32.542424 85.202303,31.631126 83.921784,30.945814 82.641266,30.260501 81.347212,28.923588 81.046109,27.974895 80.712181,26.922783 79.609127,26.25 78.218074,26.25 c -1.777852,0 -2.280574,-0.492546 -2.280574,-2.234408 0,-1.415585 -0.660184,-2.40705 -1.801513,-2.705515 C 72.819706,20.965863 72.15764,19.65976 71.677947,16.460939 71.120636,12.744521 71.322045,11.762908 73.01071,9.9654056 74.10482,8.8007798 75,7.1476469 75,6.2917771 75,4.434537 79.578413,1.875 82.900582,1.875 c 2.800337,0 4.174984,1.9294999 7.234872,10.155105 2.001379,5.38012 2.902809,6.478163 9.620415,11.71875 4.076661,3.180317 9.139161,7.280777 11.250001,9.112132 2.11084,1.831356 5.63291,4.716098 7.82684,6.410536 3.51779,2.716894 6.07526,6.03637 11.74936,15.250087 1.58489,2.573581 5.35543,15.78838 5.35543,18.769455 0,1.250101 0.64055,1.634918 2.46946,1.483553 1.87983,-0.155579 3.77501,-1.940452 7.93735,-7.475351 8.62014,-11.462669 10.14389,-15.350618 6.23381,-15.905938 -1.6562,-0.235218 -2.17409,-1.004515 -2.41059,-3.580829 -0.16566,-1.804687 -0.69301,-3.682031 -1.17187,-4.171875 C 147.7911,42.408441 147.89805,37.5 149.12947,37.5 c 0.55245,0 0.31946,-0.685003 -0.51777,-1.52223 -1.75523,-1.755234 -1.16263,-6.712052 1.00722,-8.424873 0.72522,-0.572468 1.31858,-1.918664 1.31858,-2.991546 0,-1.072882 0.42827,-2.215378 0.9517,-2.53888 0.52344,-0.323502 1.56877,-2.065024 2.32296,-3.870049 1.20868,-2.892778 1.20467,-3.536097 -0.0338,-5.426248 -1.49779,-2.285914 -1.23564,-3.467087 1.94595,-8.7679994 2.45611,-4.09219385 5.49138,-4.82219851 8.45884,-2.0344145 1.26056,1.1841933 2.29189,1.6576649 2.29189,1.0521593 0,-1.7645943 4.24495,-1.2688191 6.03063,0.704327 0.89854,0.9928856 1.45595,2.5749168 1.23867,3.515625 -0.21728,0.9407083 0.3778,3.0245686 1.32239,4.6308016 1.98411,3.373901 1.82752,7.82551 -0.61094,17.367926 -0.36954,1.446142 -0.21117,2.73635 0.38078,3.102204 1.59082,0.983176 1.18662,5.030047 -0.68981,6.906476 -1.31436,1.314362 -1.47491,2.079969 -0.70312,3.353014 0.81646,1.346741 0.45461,2.110863 -1.97017,4.160461 -2.0799,1.758078 -3.06353,3.493046 -3.28125,5.787611 -0.27844,2.934406 -0.6464,3.325876 -3.52068,3.745635 -2.62347,0.383131 -3.5961,1.200775 -5.325,4.476486 -3.2564,6.169847 -10.6564,16.252191 -14.62435,19.9254 -5.99203,5.54693 -7.11662,8.680922 -8.63729,24.070154 -0.75389,7.62944 -1.65848,22.94202 -2.0102,34.02796 l -0.63949,20.15625 2.25264,-3.28125 c 4.49738,-6.55103 6.2605,-9.93603 7.66216,-14.71054 1.07724,-3.66944 1.14123,-4.75644 0.26007,-4.41831 -1.80474,0.69254 -6.19754,-3.25854 -6.19754,-5.57434 0,-1.13692 0.71527,-3.0883 1.58949,-4.33643 0.87422,-1.24812 1.71318,-3.97871 1.86436,-6.06797 0.15118,-2.08926 0.45633,-5.06428 0.6781,-6.61116 0.22177,-1.54687 0.4375,-3.76172 0.47939,-4.92187 0.0419,-1.16016 0.91991,-2.95313 1.95116,-3.98438 1.12762,-1.12762 1.875,-3.125 1.875,-5.010947 0,-3.452165 2.34015,-6.239053 5.23893,-6.239053 0.99553,0 2.33698,-0.84375 2.981,-1.875 0.64403,-1.03125 1.99128,-1.875 2.9939,-1.875 2.71168,0 6.59867,2.002056 6.59867,3.398748 0,0.672533 0.73828,1.623261 1.64062,2.11273 0.90235,0.489478 2.44604,2.40405 3.43043,4.25461 1.46069,2.745952 1.59398,3.794422 0.72491,5.701822 -0.72474,1.59064 -0.77401,3.1022 -0.15424,4.73231 0.75953,1.99771 0.5262,2.77959 -1.40614,4.71193 -3.31476,3.31476 -4.23558,5.40158 -4.23558,9.59892 0,2.14239 -0.59131,4.18759 -1.40625,4.86393 -0.90152,0.7482 -1.40625,2.8236 -1.40625,5.78241 0,3.69971 -0.47527,5.09059 -2.39573,7.01104 -1.98589,1.9859 -2.94813,2.29209 -5.625,1.78991 -1.90722,-0.3578 -3.22927,-0.22732 -3.22927,0.31873 0,2.00796 -7.89795,17.65965 -10.69346,21.19166 -4.69032,5.92602 -6.18154,8.65588 -6.18154,11.31607 0,1.36168 -0.60114,4.857 -1.33588,7.76736 -0.73474,2.91036 -1.60848,9.08844 -1.94165,13.72907 -0.33318,4.64062 -0.97281,10.75781 -1.42142,13.59375 -0.70499,4.45667 -1.44922,26.35899 -1.06016,31.19994 0.12307,1.53124 0.35844,1.50284 2.85748,-0.34478 1.49786,-1.10741 3.18536,-1.72796 3.75,-1.37899 0.56465,0.34897 1.02663,0.21785 1.02663,-0.29137 0,-1.74713 3.03814,-3.98659 4.57401,-3.37157 3.00623,1.2038 5.73849,1.12719 5.73849,-0.1609 0,-1.7217 3.23184,-1.62504 4.69709,0.14048 0.87443,1.05362 1.49541,1.15329 2.41748,0.38804 0.68244,-0.56637 1.68071,-0.75788 2.21837,-0.42559 0.53767,0.3323 3.19288,0.78249 5.90045,1.00042 9.4919,0.764 15.01379,2.45672 17.44688,5.34828 1.25634,1.49308 2.53834,2.31212 2.84887,1.82007 0.31054,-0.49205 1.3413,-1.0489 2.29059,-1.23745 1.32348,-0.26289 0.75836,-0.95293 -2.42349,-2.95915 -12.96618,-8.17547 -19.26666,-18.91547 -13.36499,-22.78239 1.80663,-1.18375 2.34375,-2.33708 2.34375,-5.03256 0,-2.37213 0.63769,-4.07131 1.98259,-5.2828 1.09042,-0.98227 2.36113,-2.77598 2.82379,-3.98603 0.46266,-1.21005 1.65773,-2.41362 2.65572,-2.6746 1.36061,-0.35581 1.88546,-1.44708 2.09808,-4.3624 0.21721,-2.97809 0.77718,-4.10446 2.39295,-4.81333 1.16015,-0.50899 2.10937,-1.68877 2.10937,-2.62173 0,-0.93296 1.27742,-2.41496 2.8387,-3.29332 1.56129,-0.87836 3.07978,-2.53112 3.37445,-3.6728 0.29467,-1.14168 1.29859,-2.3179 2.23094,-2.61381 0.93236,-0.29592 1.93187,-1.15478 2.22113,-1.9086 0.28926,-0.75381 1.39777,-1.37056 2.46334,-1.37056 1.06557,0 3.01864,-0.70845 4.34014,-1.57432 1.90371,-1.24737 2.76402,-1.34871 4.14231,-0.48795 1.10393,0.68941 1.94694,0.75083 2.30711,0.16807 0.75072,-1.2147 4.51155,-1.17613 5.74661,0.059 0.67798,0.67798 1.34472,0.53443 2.1773,-0.46875 1.61708,-1.94847 4.9185,-1.8236 7.64091,0.28902 1.22969,0.95425 2.81194,1.53564 3.51611,1.29199 0.70416,-0.24367 1.64692,0.13574 2.09502,0.84312 0.62031,0.97924 0.81815,0.9993 0.82908,0.0841 0.0264,-2.21439 4.04589,-2.98047 6.1081,-1.16416 1.03125,0.90828 2.98862,1.91409 4.34972,2.23512 4.14162,0.97685 4.14126,1.01255 -0.26964,26.84988 -0.57218,3.35156 -2.0124,10.10156 -3.2005,15 -1.18809,4.89843 -2.4038,10.59375 -2.70157,12.65625 l -0.5414,3.75 1.65044,-2.20336 c 0.90775,-1.21184 3.16153,-3.95403 5.0084,-6.09375 1.84687,-2.13972 4.64972,-5.78883 6.22853,-8.10914 1.57882,-2.32032 4.01017,-5.27344 5.403,-6.5625 5.55886,-5.14472 5.74867,-7.78044 1.43535,-19.93178 -1.05435,-2.97028 -2.15942,-7.61091 -2.4557,-10.3125 -0.29628,-2.70158 -1.13476,-7.21545 -1.8633,-10.03082 -1.85469,-7.16744 -1.71608,-9.48556 0.60345,-10.09213 1.08334,-0.2833 1.7238,-1.03636 1.46189,-1.71891 -0.73932,-1.92661 1.47478,-6.75436 3.62555,-7.90542 1.41798,-0.75888 2.69871,-0.77059 4.61458,-0.0422 2.32891,0.88545 2.92281,0.71591 4.87643,-1.39208 1.8232,-1.96727 2.56006,-2.22076 4.08427,-1.40502 1.32483,0.70902 3.08871,0.68584 6.13263,-0.0806 3.70374,-0.93261 4.51153,-0.85998 6.06427,0.54523 0.98524,0.89163 2.34311,1.42393 3.01748,1.18288 2.22759,-0.79625 4.50737,1.15543 4.50737,3.85868 0,3.57054 -2.66968,12.28271 -4.6385,15.13718 -2.77405,4.02191 -3.25816,5.04331 -2.03087,4.28479 1.91915,-1.18609 5.46049,-7.46218 6.13471,-10.87214 0.35413,-1.79103 1.00291,-4.10015 1.44175,-5.1314 0.43884,-1.03125 1.03384,-2.61329 1.32223,-3.51563 0.28838,-0.90234 1.38132,-1.64062 2.42876,-1.64062 1.04743,0 1.90442,-0.42188 1.90442,-0.9375 0,-0.51563 0.97031,-0.9375 2.15625,-0.9375 1.18594,0 2.55703,-0.37867 3.04688,-0.84148 1.17735,-1.11239 7.6156,-1.97139 16.71311,-2.22991 7.87172,-0.22369 9.57747,0.71145 6.94859,3.80943 -0.74941,0.88314 -1.45368,3.29275 -1.56504,5.35469 -0.11135,2.06195 -0.8103,4.67667 -1.5532,5.81049 -0.8395,1.28123 -0.99985,2.27837 -0.42366,2.63447 1.97121,1.21828 0.75672,4.13053 -3.27074,7.84291 -4.28922,3.95367 -3.9843,4.94706 0.7591,2.47306 2.34114,-1.22106 2.9714,-1.22116 5.33117,-8.9e-4 3.66469,1.89509 3.95318,2.58827 3.83219,9.20819 -0.0581,3.18054 -0.10906,6.732 -0.11318,7.89216 -0.004,1.16016 -0.37847,2.10938 -0.83191,2.10938 -0.77455,0 -1.73876,4.06762 -2.22228,9.375 -0.75226,8.25712 -13.97235,12.03614 -27.86978,7.96669 -9.82469,-2.87686 -14.22143,-3.35548 -20.85605,-2.27036 -3.47864,0.56895 -6.56213,1.41847 -6.8522,1.88781 -0.29007,0.46935 -1.259,0.85336 -2.15316,0.85336 -1.66148,0 -19.54056,18.44846 -21.57843,22.26562 -1.52517,2.85683 -1.39437,2.83624 5.97109,-0.93976 1.54688,-0.79303 7.45313,-2.5548 13.125,-3.91505 5.67188,-1.36024 12.42188,-3.07397 15,-3.80828 16.28288,-4.63775 22.01719,-5.25847 25.57265,-2.76813 1.14598,0.80268 2.0836,2.27924 2.0836,3.28125 0,1.00202 0.43092,1.82185 0.9576,1.82185 1.57559,0 3.27632,4.57858 2.12747,5.72743 -0.69376,0.69376 -0.67603,1.81841 0.0593,3.76674 0.84927,2.24995 0.78374,2.96135 -0.34488,3.74438 -1.05083,0.72907 -1.10527,1.08358 -0.22145,1.44219 1.39925,0.56777 1.56192,3.71753 0.23437,4.53801 -0.51562,0.31867 -0.9375,1.3773 -0.9375,2.35249 0,0.9752 -0.58755,2.11046 -1.30566,2.5228 -0.71812,0.41234 -1.5745,2.75936 -1.90306,5.2156 -0.81999,6.12985 -1.97465,8.82553 -4.31737,10.07931 -2.43878,1.30521 -5.59891,4.39017 -5.59891,5.46574 0,0.43572 -0.87857,1.5873 -1.95239,2.5591 -1.07382,0.97179 -2.50082,3.04108 -3.17111,4.59842 -0.67029,1.55734 -4.2214,6.06285 -7.89136,10.01221 -3.66995,3.94938 -6.67264,7.57291 -6.67264,8.0523 0,0.47939 -1.68266,1.67777 -3.73924,2.66308 -3.59085,1.72035 -4.8876,4.2656 -2.82326,5.54145 0.51563,0.31867 0.9375,1.50771 0.9375,2.64231 0,1.1346 0.88708,2.6169 1.97128,3.29399 1.51841,0.94826 1.83461,1.80774 1.37639,3.74114 -0.32719,1.38053 -0.81664,5.25224 -1.08765,8.60381 -0.27103,3.35156 -1.10134,7.02812 -1.84514,8.17014 -0.74381,1.14201 -1.35238,3.13328 -1.35238,4.42506 0,1.52722 -0.99256,3.0825 -2.83793,4.44684 -1.69473,1.25297 -2.63029,2.63927 -2.32248,3.44141 1.05994,2.76217 -5.32345,8.57905 -9.41457,8.57905 -0.63905,0 -1.41205,0.65186 -1.71778,1.44857 -0.30574,0.79673 -2.08137,2.08598 -3.94587,2.86501 -1.86449,0.77905 -4.23243,2.20128 -5.26208,3.16055 -1.02964,0.95926 -2.99054,2.02318 -4.35756,2.36428 -1.36701,0.34109 -3.21661,1.27903 -4.11023,2.08432 -1.25047,1.12686 -2.7907,1.32711 -6.6861,0.86928 -3.89147,-0.45736 -5.33016,-0.27093 -6.22441,0.80656 -0.72066,0.86835 -2.78796,1.40143 -5.43485,1.40143 -2.34946,0 -5.60912,0.48359 -7.24367,1.07465 -8.32629,3.01083 -15.72133,-5.66981 -15.69064,-18.4184 0.005,-2.0625 0.1683,-7.125 0.36297,-11.25 0.22869,-4.84577 -0.11388,-8.91006 -0.96798,-11.48438 l -1.32193,-3.98437 -6.84256,0 c -6.51224,0 -7.08202,0.17929 -11.80307,3.71414 -6.99434,5.23694 -18.04113,18.35978 -23.79374,28.26532 -0.5614,0.96669 -1.72156,2.53203 -2.57812,3.47852 -0.85657,0.9465 -1.5574,2.06469 -1.5574,2.48489 0,0.42019 -2.04299,4.18385 -4.53998,8.36368 -4.85243,8.12273 -11.39747,21.32775 -11.39747,22.99513 0,0.55591 -0.31889,1.01075 -0.70865,1.01075 -0.38975,0 -1.29989,1.37109 -2.02251,3.04687 -0.72264,1.67579 -2.48134,5.57813 -3.90824,8.67188 -1.42691,3.09375 -3.33168,7.94531 -4.23284,10.78125 -0.90116,2.83594 -2.16805,6 -2.81531,7.03125 -1.92284,3.06358 -3.12491,12.07601 -4.06392,30.46875 -1.1894,23.29724 -0.78714,69.91596 0.63501,73.59375 0.59816,1.54687 2.14289,6.60937 3.43273,11.25 1.28984,4.64062 3.22753,10.96875 4.30598,14.0625 1.07845,3.09375 2.36764,8.57812 2.86488,12.1875 0.49724,3.60937 1.21683,7.94744 1.5991,9.64015 l 0.69502,3.07765 4.80036,-5.45493 c 2.64019,-3.00021 5.69276,-7.20418 6.78347,-9.34216 2.33406,-4.57512 3.31609,-5.36073 4.66674,-3.73328 0.65453,0.78865 0.70858,2.46693 0.15816,4.91154 -0.45986,2.04245 -1.48181,7.08853 -2.271,11.21353 -2.09983,10.97564 -6.56667,21.49992 -12.97173,30.56258 -2.0444,2.89266 -3.18409,3.65617 -5.45759,3.65617 -2.78054,0 -3.67576,0.55757 -6.33465,3.94538 -1.15027,1.46559 -0.99894,1.51525 1.875,0.6153 1.71943,-0.53844 5.83867,-1.5833 9.15387,-2.32193 6.36258,-1.41758 10.85809,-0.94334 27.25362,2.87506 17.27797,4.02392 37.08216,4.50313 57.40475,1.38906 6.84145,-1.04834 14.54837,-2.08585 17.1265,-2.30558 l 4.6875,-0.39952 -5.15625,1.40789 c -8.05423,2.19917 -8.18115,2.22164 -21.5625,3.81506 -9.40301,1.1197 -16.75292,1.36002 -28.59375,0.93495 -18.18931,-0.65297 -16.75579,-0.44604 -34.62615,-4.99823 -4.2556,-1.08404 -15.36009,-1.33766 -18.39817,-0.4202 -6.39309,1.93064 -10.26326,3.58143 -9.70507,4.13961 0.31292,0.31293 1.12904,0.35403 1.81358,0.0913 0.68456,-0.26269 5.24889,1.44423 10.14297,3.79316 4.89407,2.34893 10.72634,4.69755 12.96058,5.21915 5.34971,1.24893 9.16264,2.71598 17.65601,6.79323 6.90622,3.31535 18.46247,6.79778 38.90625,11.72426 9.14605,2.20398 12.25521,2.49204 27.48791,2.54666 15.76404,0.0565 16.91961,0.17198 14.0625,1.40504 -4.35697,1.88035 -23.12095,1.74289 -35.45666,-0.25975 -9.61832,-1.5615 -12.80454,-2.35857 -27.1875,-6.80123 -3.86719,-1.19451 -9.14063,-2.6757 -11.71875,-3.29152 -2.57813,-0.61582 -5.74219,-1.8255 -7.03125,-2.68817 -3.85486,-2.57977 -11.33102,-5.78503 -17.8125,-7.63678 -3.35156,-0.95754 -8.625,-3.00112 -11.71875,-4.54129 -6.18266,-3.07795 -11.03415,-4.28728 -17.10823,-4.2646 -2.19078,0.008 -3.98375,-0.23121 -3.98438,-0.53199 -6.2e-4,-0.30079 -0.63395,-0.54688 -1.40739,-0.54688 -1.71713,0 -1.72351,-0.668 0.0911,9.53125 1.78085,10.0096 6.53164,22.78416 11.85414,31.875 2.11321,3.60938 4.5847,7.82813 5.49219,9.375 0.9075,1.54688 2.94518,4.05159 4.52817,5.56602 5.0512,4.83245 3.12158,6.08044 -2.19027,1.41658 -3.64913,-3.20398 -12.76714,-18.91155 -16.33284,-28.13653 -0.68477,-1.77159 -1.81629,-4.69763 -2.51451,-6.50232 -0.69821,-1.80468 -1.71179,-6.51296 -2.2524,-10.46283 -1.24237,-9.07691 -2.547766,-12.03713 -5.308169,-12.03713 -4.192223,0 -10.660147,13.87231 -10.709113,22.96875 -0.04742,8.80966 -7.539658,35.95003 -10.165846,36.82542 -1.171399,0.39047 1.165679,-8.293 3.07904,-11.44025 1.968871,-3.23855 5.209738,-21.92929 5.209738,-30.04562 0,-4.24863 4.492696,-15.06397 6.917794,-16.65332 0.578026,-0.37883 0.669844,-0.69523 0.20404,-0.70313 -0.465803,-0.008 -3.017411,1.98956 -5.67024,4.43877 -7.262509,6.7051 -13.542327,11.80263 -16.313689,13.24234 -1.36491,0.70907 -3.114468,1.82641 -3.887905,2.48299 -1.755076,1.4899 -6.198509,3.98918 -18.75,10.54627 -13.718309,7.16664 -15.184428,7.98637 -18.476286,10.33037 -1.5988,1.13846 -3.379297,2.06991 -3.956662,2.06991 -1.829794,0 -10.650308,6.37947 -16.2078672,11.72242 C 2.292844,684.03301 0,685.41552 0,683.62207 Z m 108.63759,-66.28829 c 3.43449,-3.10286 6.47255,-8.27316 9.90988,-16.86503 1.098,-2.74454 1.53363,-7.26911 1.62475,-16.875 0.12315,-12.98239 0.0828,-13.25233 -3.71543,-24.84375 -2.11196,-6.44531 -4.31283,-13.61719 -4.89083,-15.9375 -0.578,-2.32031 -1.62949,-5.48599 -2.33665,-7.03483 -1.98922,-4.35687 -2.958,-19.49501 -2.7596,-43.12142 0.37908,-45.1421 2.08565,-60.22681 8.36722,-73.95972 1.29281,-2.82639 2.35057,-5.37573 2.35057,-5.6652 0,-0.64817 4.2064,-9.80033 10.88669,-23.68691 2.77794,-5.77463 5.05081,-10.75481 5.05081,-11.06706 0,-0.31226 1.59584,-2.97038 3.54631,-5.90693 1.95047,-2.93655 4.37625,-7.01442 5.39062,-9.06193 2.83783,-5.72814 14.17911,-20.77693 21.33765,-28.31302 7.85903,-8.27351 12.89517,-10.94011 20.52569,-10.86824 7.77273,0.0732 10.38515,1.37601 11.79085,5.88003 1.4356,4.59985 1.48383,11.51028 0.12455,17.84838 -1.68513,7.85747 1.55684,17.42712 6.78795,20.03675 4.08366,2.0372 4.55888,1.89857 4.55888,-1.3299 0,-2.91772 2.16411,-3.97942 3.10635,-1.52396 0.27196,0.70869 1.78758,1.73931 3.36806,2.29027 2.91217,1.01519 4.96974,0.0575 5.90506,-2.74848 0.25275,-0.75825 1.23737,-0.62414 3.3184,0.452 4.73086,2.44643 7.66659,2.01949 8.8176,-1.28233 1.03261,-2.96214 2.50354,-3.54349 4.3341,-1.71293 1.61756,1.61756 5.83793,-0.52087 5.83793,-2.95804 0,-1.55839 0.53429,-1.85603 2.98122,-1.66073 2.4906,0.19879 3.07855,-0.14776 3.57262,-2.1058 0.50298,-1.99335 1.05068,-2.2981 3.66342,-2.03841 3.82212,0.37991 6.65774,-1.97549 6.65774,-5.53022 0,-3.33794 0.90977,-5.68417 1.95386,-5.03888 1.71722,1.0613 4.60864,-1.52436 4.60864,-4.12129 0,-1.43018 0.58355,-3.39839 1.29678,-4.37378 0.98896,-1.35249 1.0467,-2.17389 0.24323,-3.46044 -0.78101,-1.2506 -0.77796,-2.12824 0.0118,-3.39286 0.58592,-0.93823 0.85861,-2.78722 0.60597,-4.10885 -0.25265,-1.32164 0.002,-2.68827 0.56643,-3.03696 1.76865,-1.09309 1.13119,-2.17814 -1.9005,-3.235 -2.904,-1.01233 -2.91411,-1.0387 -1.32638,-3.46188 1.523,-2.32439 1.51265,-2.53892 -0.21526,-4.46223 -0.99835,-1.11124 -2.07063,-2.7454 -2.38284,-3.63145 -0.31221,-0.88605 -1.95711,-2.20902 -3.65532,-2.93994 -1.69822,-0.73092 -6.97135,-4.98073 -11.71806,-9.44401 -7.65746,-7.20024 -9.17203,-9.19393 -13.43506,-17.68521 -7.24488,-14.43067 -6.5808,-13.94722 -11.70505,-8.52096 -2.37679,2.51686 -5.63085,6.36909 -7.23127,8.56049 -1.60041,2.19141 -3.26019,3.98438 -3.68841,3.98438 -0.42821,0 -0.78744,0.52734 -0.79828,1.17187 -0.0109,0.64454 -2.22569,3.53997 -4.92187,6.43428 -4.76983,5.12036 -10.01757,11.58425 -12.87092,15.85374 -0.77344,1.1573 -2.06042,2.78586 -2.85996,3.61903 -1.71853,1.7908 -4.06732,5.53875 -4.91507,7.84295 -0.53761,1.46121 0.0961,1.64063 5.79464,1.64063 5.88366,0 6.74817,-0.26717 10.74878,-3.32187 5.07803,-3.87736 16.24303,-9.93288 23.31263,-12.64399 2.72263,-1.04409 5.79398,-2.25013 6.82523,-2.68009 3.13422,-1.30675 8.23784,-2.76746 12.07356,-3.45559 5.51691,-0.98974 3.93916,1.55898 -1.81998,2.94002 -10.85475,2.60298 -26.95908,10.24054 -37.59269,17.82854 l -5.80939,4.14548 -8.9173,0 c -4.90452,0 -9.13607,-0.35398 -9.40347,-0.78662 -0.26738,-0.43265 0.23506,-2.69899 1.11656,-5.03631 1.40738,-3.73178 4.7091,-8.07376 13.32145,-17.51865 4.17404,-4.57753 6.84436,-7.91503 10.44261,-13.05169 1.94072,-2.77049 6.69162,-8.4771 10.55752,-12.68137 3.8659,-4.20426 7.92488,-8.80427 9.01994,-10.22224 1.88327,-2.43859 4.54765,-3.32289 5.9093,-1.96125 0.33927,0.33928 0.16415,1.16235 -0.38916,1.82904 -0.74814,0.90146 -0.24837,2.31339 1.94967,5.50814 1.62564,2.36277 3.80608,6.07486 4.84544,8.24908 1.03935,2.17421 2.59143,5.24728 3.44908,6.82904 4.84097,8.92821 18.09767,19.78598 25.34421,20.75795 3.59774,0.48256 4.1828,0.23985 7.40452,-3.0717 3.351,-3.44443 4.42625,-4.93089 6.87069,-9.49817 0.60669,-1.13355 1.93094,-2.18824 2.94279,-2.34375 1.185,-0.18213 2.28536,-1.58526 3.09194,-3.94267 0.68872,-2.01296 2.0992,-4.54421 3.1344,-5.625 7.1232,-7.43696 8.86326,-8.99633 10.03878,-8.99633 1.59901,0 1.71234,-1.11343 0.26104,-2.56473 -0.79464,-0.79464 -0.67574,-1.45373 0.46875,-2.59821 0.84341,-0.84343 1.53348,-2.74913 1.53348,-4.23492 0,-3.42382 1.81459,-7.57622 4.02433,-9.20902 1.64814,-1.21783 1.64867,-1.31028 0.0144,-2.57813 -1.63111,-1.26542 -1.62822,-1.36667 0.0766,-2.68596 1.68866,-1.30682 1.69623,-1.48595 0.16172,-3.8279 -1.52885,-2.33331 -1.52451,-2.51931 0.0861,-3.69698 1.56452,-1.14401 1.42493,-1.36926 -1.80234,-2.90824 -3.49904,-1.66857 -4.53198,-3.6162 -2.32635,-4.38635 0.64453,-0.22505 -0.60404,-0.58614 -2.77461,-0.80241 -4.17145,-0.41563 -16.32591,1.66946 -24.17852,4.14781 -2.57812,0.81368 -7.97305,2.4154 -11.98873,3.55936 -4.01567,1.14398 -7.52104,2.43562 -7.7897,2.87032 -0.26866,0.4347 -1.23582,0.79036 -2.14926,0.79036 -1.79588,0 -9.40971,3.62272 -11.82275,5.62537 -2.45914,2.0409 -3.69647,-0.11897 -2.37025,-4.13749 2.14357,-6.49504 18.81443,-26.74276 22.05819,-26.79093 0.51563,-0.007 3.29262,-1.6138 6.17108,-3.56921 4.18912,-2.84578 4.99218,-3.78081 4.02395,-4.68527 -0.6653,-0.62149 -1.64932,-1.12997 -2.1867,-1.12997 -1.74373,0 -1.05966,-1.14654 3.9448,-6.6117 6.22618,-6.79935 12.0759,-14.34566 14.85977,-19.16955 1.19028,-2.0625 3.76539,-5.67559 5.72249,-8.02909 1.95711,-2.35349 3.55836,-5.15441 3.55836,-6.22426 0,-1.06985 0.87581,-2.94113 1.94623,-4.15842 1.75127,-1.99153 1.90006,-2.02541 1.48533,-0.33823 -1.0645,4.33063 -4.45834,12.25635 -5.62021,13.125 -0.68968,0.51562 -2.42993,2.83594 -3.86723,5.15625 -1.43731,2.32031 -3.50637,5.27344 -4.59792,6.5625 -3.22304,3.80622 4.65009,-3.52813 14.04666,-13.08541 4.79467,-4.87667 8.97366,-8.61058 9.28665,-8.29758 0.58699,0.58706 -15.29654,18.57049 -16.40212,18.57049 -0.9803,0 -9.40246,8.6824 -9.40246,9.693 0,0.50056 0.84375,0.14652 1.875,-0.78675 1.03125,-0.93327 1.87091,-1.31506 1.86591,-0.84843 -0.005,0.46664 -2.98031,3.53329 -6.61178,6.81477 -3.63148,3.2815 -6.45967,6.10936 -6.28489,6.28416 0.33695,0.33695 9.27382,-2.01517 12.43701,-3.27332 1.03125,-0.41018 4.40625,-1.51877 7.5,-2.46352 3.09375,-0.94477 6.45715,-2.26948 7.47423,-2.94383 1.01706,-0.67434 2.46029,-1.22608 3.20716,-1.22608 1.69977,0 13.01553,-5.46536 13.73883,-6.63566 0.72885,-1.1793 2.29853,-1.09334 2.29853,0.12588 0,0.54462 -1.79297,1.82316 -3.98438,2.84121 -2.1914,1.01804 -4.61718,2.23991 -5.39062,2.71525 -1.8027,1.1079 -6.19462,3.03898 -15,6.59531 -4.84908,1.95844 -6.01291,2.69027 -3.75,2.35803 4.44267,-0.65228 20.6957,-2.33859 22.73437,-2.35877 0.90235,-0.009 1.64063,0.30937 1.64063,0.70735 0,0.39799 -5.80078,1.49295 -12.89063,2.43325 -23.68908,3.14183 -29.6848,4.73557 -16.76109,4.45532 3.32342,-0.0721 7.24135,0.34033 8.70653,0.91643 1.46517,0.57609 5.73226,1.31862 9.48241,1.65004 3.75017,0.33144 6.7033,0.99741 6.5625,1.47994 -0.34153,1.17056 -7.30902,0.7235 -14.61102,-0.93751 -8.93846,-2.03324 -10.85822,-1.50678 -3.45745,0.94816 9.89408,3.282 12.16009,3.57627 17.80721,2.3125 5.95007,-1.33156 7.60654,-2.72745 6.2483,-5.26533 -0.64193,-1.19946 -0.53042,-2.41679 0.37047,-4.04431 0.70885,-1.28059 1.30378,-3.07235 1.32205,-3.98169 0.0183,-0.90933 0.4551,-2.49137 0.97072,-3.51562 0.51563,-1.02426 1.38359,-2.73909 1.92882,-3.81074 0.70421,-1.38415 0.69252,-2.3085 -0.0404,-3.19158 -0.56744,-0.68371 -0.75709,-2.33721 -0.42147,-3.67444 0.33563,-1.33723 0.37912,-3.03358 0.0967,-3.76967 -1.01319,-2.64032 -13.05068,1.84914 -22.18865,8.27541 -5.41248,3.80635 -11.11062,7.12124 -12.24105,7.12124 -2.74388,0 2.26719,-7.36731 5.08117,-7.47038 0.44486,-0.0163 2.13236,-1.11143 3.75,-2.43363 1.61764,-1.32222 6.90425,-5.40372 11.74803,-9.07001 8.02983,-6.07784 8.62045,-6.73493 6.69415,-7.44751 -2.01127,-0.74402 -2.04025,-0.89211 -0.60373,-3.08452 0.82993,-1.26664 1.50897,-3.17482 1.50897,-4.24039 0,-1.06557 0.63281,-2.18024 1.40625,-2.47703 0.91185,-0.34991 1.40625,-1.80409 1.40625,-4.13619 l 0,-3.59656 -4.92188,0.0957 c -2.70703,0.0527 -5.22071,0.55255 -5.58596,1.11089 -0.47068,0.71954 -0.98176,0.69752 -1.75486,-0.0756 -1.24847,-1.24847 -3.17338,-0.72501 -6.37936,1.73478 -1.22969,0.94348 -3.0331,1.71542 -4.00757,1.71542 -1.02727,0 -2.14621,0.98485 -2.66287,2.34375 -0.4901,1.28906 -1.28632,2.34375 -1.76939,2.34375 -0.48307,0 -1.16303,1.68529 -1.51103,3.74509 -0.34801,2.0598 -1.02392,3.98686 -1.50205,4.28236 -0.47813,0.2955 -1.69605,2.15777 -2.70649,4.1384 -1.01043,1.98062 -3.53566,5.5636 -5.6116,7.96216 -2.07594,2.39857 -3.78847,4.86271 -3.80563,5.47588 -0.0338,1.21137 -3.20537,5.33361 -4.10346,5.33361 -1.27882,0 -0.39486,-4.99295 1.69758,-9.58861 1.23774,-2.71845 3.34711,-7.34186 4.6875,-10.27425 1.34039,-2.93239 2.43707,-5.81897 2.43707,-6.41463 0,-0.59566 0.84375,-2.15568 1.875,-3.4667 1.90399,-2.42053 2.59497,-7.75581 1.00447,-7.75581 -0.4788,0 -1.50335,0.63281 -2.27679,1.40625 -2.05226,2.05226 -2.87365,1.75187 -4.10101,-1.49976 -1.22059,-3.23371 -3.36106,-3.27138 -3.8325,-0.0674 -0.37926,2.57748 -1.80875,2.58394 -4.5374,0.0205 -1.90774,-1.79222 -2.21107,-1.84414 -2.73885,-0.46875 -0.32644,0.85068 -0.35588,2.16599 -0.0654,2.92291 0.60722,1.5824 -0.85149,2.86382 -1.69901,1.49252 -0.30994,-0.50153 -1.172,-0.67837 -1.91568,-0.393 -0.74367,0.28538 -2.02592,-0.15492 -2.84944,-0.97844 -3.32391,-3.32391 -6.05088,-1.38956 -6.05088,4.29214 0,2.06103 -0.5207,2.95975 -1.92802,3.32778 -1.1784,0.30816 -1.73026,1.01954 -1.41939,1.82968 0.78893,2.0559 4.25534,15.71319 6.62059,26.08434 1.17593,5.15625 2.44023,10.10808 2.80956,11.00406 0.85833,2.08235 -2.78585,8.38225 -8.44729,14.60329 -2.34093,2.57231 -5.48214,6.30047 -6.98046,8.28479 -1.49831,1.98433 -3.38363,4.34615 -4.1896,5.24849 -0.80593,0.90227 -1.46536,1.98233 -1.46536,2.40007 0,0.92655 -5.59393,6.74048 -6.48541,6.74048 -0.35086,0 -1.17869,-1.49546 -1.83963,-3.32325 -0.90574,-2.50478 -0.95914,-4.40965 -0.21685,-7.73438 1.70934,-7.65612 2.91569,-14.41902 4.38226,-24.56737 0.7824,-5.41406 1.79692,-10.89844 2.2545,-12.1875 0.45756,-1.28906 1.09415,-4.31359 1.41462,-6.72116 0.543,-4.07925 0.45184,-4.34319 -1.3384,-3.87504 -1.62713,0.42551 -1.92109,0.0637 -1.92109,-2.36413 0,-3.98857 -1.51657,-4.5147 -3.2654,-1.13283 -1.59009,3.07491 -3.69946,3.71496 -4.5905,1.39293 -0.30608,-0.79762 -1.14392,-1.32497 -1.86189,-1.17187 -0.71795,0.15309 -2.13998,-0.74804 -3.16006,-2.00253 l -1.85467,-2.28089 -3.47241,2.04877 c -2.84375,1.67786 -3.83577,1.85429 -5.47955,0.97457 -1.50517,-0.80555 -2.09651,-0.80611 -2.36445,-0.002 -0.47462,1.42385 -3.26437,1.36599 -4.81826,-0.0999 -0.75865,-0.71571 -1.38497,-0.80694 -1.60899,-0.23438 -1.15587,2.95428 -2.14345,3.72412 -3.29728,2.57029 -1.69992,-1.69991 -2.49522,-1.43454 -2.83321,0.94534 -0.16477,1.16016 -0.93239,2.10937 -1.70583,2.10937 -0.83333,0 -1.59722,1.14584 -1.875,2.8125 -0.375,2.25 -0.9375,2.8125 -2.8125,2.8125 -2.76071,0 -4.08899,1.6738 -3.30029,4.15877 0.31024,0.97746 0.0444,2.09832 -0.59063,2.49082 -0.64145,0.39645 -1.31816,0.22317 -1.5225,-0.38985 -0.86832,-2.60494 -2.08658,-0.76888 -2.08658,3.14468 0,3.19029 -0.40855,4.39892 -1.64062,4.8535 -2.39023,0.88188 -2.99154,2.19067 -2.3895,5.20082 0.49641,2.48209 0.36427,2.62936 -1.85877,2.07141 -2.30181,-0.57772 -2.41816,-0.40069 -3.04766,4.63773 -0.51697,4.13764 -1.00282,5.23837 -2.31213,5.23837 -2.48784,0 -2.84165,3.21829 -0.80612,7.33248 1.1804,2.38579 4.28472,5.50869 8.91025,8.96358 10.60074,7.91788 17.13019,10.28556 31.26955,11.33881 l 7.96875,0.5936 -4.6875,-2.97419 c -2.57813,-1.63581 -5.32031,-3.56918 -6.09375,-4.29638 -4.74737,-4.46355 -6.909,-5.96543 -9.69187,-6.73383 -1.71997,-0.4749 -5.64349,-2.81752 -8.71894,-5.20582 -5.26023,-4.08494 -6.043,-5.25001 -8.57841,-12.76825 -0.84865,-2.51648 1.52302,0.28912 3.29831,3.9018 2.01976,4.11015 8.60835,9.7818 14.31591,12.32357 2.32031,1.03332 6.4789,3.60611 9.2413,5.71732 6.46497,4.94094 9.42081,6.76326 12.3212,7.59616 1.9356,0.55583 1.65445,0.0743 -1.61443,-2.76478 -6.21015,-5.39413 -14.32307,-20.06964 -14.32307,-25.90947 0,-2.12742 -9.10117,-11.34694 -13.125,-13.29568 -2.432,-1.17782 -2.78281,-1.59463 -1.35542,-1.61045 3.15298,-0.035 10.24622,5.08303 13.28482,9.58538 1.55945,2.31067 3.58202,6.44921 4.49462,9.19676 0.91259,2.74756 3.07211,7.33999 4.79893,10.20541 3.49474,5.79907 9.46772,12.91578 8.30672,9.89735 -0.39666,-1.03125 -0.86977,-3.98438 -1.05135,-6.5625 -0.96344,-13.67858 -1.45237,-16.45958 -3.95584,-22.5 -1.49592,-3.60938 -4.44454,-9.9375 -6.55249,-14.0625 -2.10794,-4.125 -3.95208,-8.13281 -4.09807,-8.90625 -0.36577,-1.93772 1.23825,-2.66499 2.06767,-0.9375 0.37135,0.77344 2.15881,4.52547 3.97213,8.33784 l 3.29694,6.93161 -0.39326,-8.23784 c -0.21629,-4.53082 -0.81245,-9.02114 -1.32482,-9.97848 -0.61891,-1.15646 -0.61692,-1.74063 0.006,-1.74063 1.7542,0 2.87847,3.61376 2.87847,9.25234 0,3.09408 0.4482,6.80445 0.99599,8.24525 0.703,1.84901 0.703,2.71733 0,2.95167 -1.53663,0.5122 -1.21022,2.19921 1.4965,7.73466 1.91721,3.92082 2.66257,7.26116 3.22934,14.47233 0.40526,5.15625 1.33023,11.27344 2.05548,13.59375 l 1.31865,4.21875 0.17849,-8.90625 c 0.0982,-4.89844 0.85572,-12.07031 1.68345,-15.9375 1.61627,-7.55132 2.23006,-29.00513 0.93205,-32.57813 -1.33043,-3.66224 1.20955,-2.39938 2.79212,1.38823 1.24771,2.9862 1.31879,5.1451 0.48615,14.76562 -0.53638,6.19741 -1.16172,12.32272 -1.38967,13.61178 -0.22793,1.28906 -0.88112,4.875 -1.45151,7.96875 -1.46486,7.94523 -1.54767,17.52513 -0.17368,20.09245 0.94632,1.76823 0.92689,2.32828 -0.10344,2.98117 -0.69777,0.44215 -1.57184,0.81038 -1.94237,0.81828 -0.37053,0.008 -0.43087,0.64716 -0.13408,1.4206 0.29681,0.77344 0.0727,1.40625 -0.49817,1.40625 -0.57079,0 -1.0378,0.86223 -1.0378,1.91607 0,1.05384 -2.10937,4.45074 -4.6875,7.54867 -2.57812,3.09793 -4.6875,6.01386 -4.6875,6.47985 0,0.46599 -4.95703,5.86589 -11.01562,11.99977 -12.97021,13.1314 -15.70701,16.02281 -21.84168,23.07557 -1.82933,2.1031 -4.03038,4.94809 -4.89123,6.32219 -1.13206,1.80701 -2.10073,2.35832 -3.50051,1.99227 -3.0377,-0.79438 -3.9694,-3.44013 -2.47252,-7.02119 1.7024,-4.07272 4.20529,-11.33403 5.9138,-17.15695 0.75645,-2.57812 1.74921,-5.95312 2.20615,-7.5 3.95141,-13.37691 5.42646,-20.85561 5.53317,-28.05404 l 0.0684,-4.61655 -2.33392,2.19262 c -2.26592,2.12871 -2.38886,2.1429 -4.21875,0.48686 -1.03634,-0.93816 -1.88451,-2.29807 -1.88451,-3.02202 0,-0.72395 -0.44043,-1.04408 -0.97873,-0.71139 -0.5383,0.33269 -1.90939,0.0235 -3.04688,-0.68696 -1.13747,-0.71051 -3.05207,-1.22469 -4.25463,-1.14261 -1.20258,0.082 -2.40491,-0.41991 -2.67185,-1.11555 -0.35139,-0.91572 -0.95819,-1.01171 -2.19871,-0.3478 -1.77327,0.94902 -4.6617,0.35181 -4.6617,-0.96384 0,-0.41219 -0.84375,-0.52879 -1.875,-0.25911 -1.18567,0.31006 -1.875,0.0288 -1.875,-0.76511 0,-0.6905 -0.69513,-0.26302 -1.54472,0.94995 l -1.54472,2.20539 -1.60523,-2.1281 -1.60523,-2.12809 -2.0063,2.0063 c -2.52304,2.52304 -5.38618,2.5854 -6.02794,0.1313 -0.71128,-2.71993 -1.96831,-2.30282 -3.24381,1.07637 -0.93099,2.46649 -1.34307,2.76128 -2.50821,1.79429 -1.60511,-1.33211 -3.35134,-0.58511 -3.35134,1.43363 0,0.75963 -0.89498,1.7122 -1.98882,2.11684 -2.30396,0.85229 -2.78829,5.04634 -3.02682,26.21076 -0.13976,12.40019 -0.12644,12.48349 2.20314,13.77345 4.48447,2.48318 20.26207,9.5503 22.67149,10.15503 1.33384,0.33478 4.62551,2.0894 7.3148,3.89915 2.6893,1.80976 5.04773,3.29048 5.24097,3.29048 0.19323,0 -0.0824,-1.14075 -0.61247,-2.535 -1.35057,-3.55227 -8.01132,-11.1811 -20.31792,-23.27095 -5.80078,-5.69863 -10.54687,-10.90713 -10.54687,-11.57446 0,-0.66734 0.37957,-1.07272 0.84348,-0.90084 1.2812,0.47468 20.64336,19.39192 25.17214,24.59373 2.19141,2.51708 3.98438,4.41075 3.98438,4.20816 0,-0.20259 -1.24363,-4.71931 -2.76363,-10.03716 -2.72369,-9.5291 -2.85807,-9.76103 -9.29975,-16.05118 -5.82136,-5.68441 -6.60893,-6.88232 -7.20186,-10.95421 -0.36615,-2.51452 -1.24376,-5.71104 -1.95024,-7.10341 -1.76006,-3.46877 -1.70809,-5.0808 0.115,-3.56777 0.76974,0.63883 1.84283,2.80782 2.38465,4.81998 1.67629,6.22526 4.30922,11.56814 7.33117,14.87675 1.59327,1.74441 3.13345,2.93507 3.42261,2.64591 0.91945,-0.91945 -1.41182,-9.38976 -3.32306,-12.07386 C 148.69915,255.60653 148.62413,255 150.44468,255 c 1.66338,0 4.05394,4.39602 5.86284,10.78125 3.88666,13.71955 6.12365,22.00088 6.96412,25.78125 1.89628,8.5291 2.21533,9.51949 3.11842,9.68 2.41298,0.42887 8.34199,-19.95426 8.34432,-28.68672 9.4e-4,-4.10189 -0.39289,-4.88443 -4.72003,-9.375 -4.65966,-4.83563 -10.5112,-13.80578 -9.006,-13.80578 0.42619,0 1.48237,1.16016 2.34709,2.57812 0.8647,1.41797 3.65557,4.89844 6.20193,7.73438 l 4.62975,5.15625 -0.71455,-3.96724 c -0.393,-2.18197 -1.19081,-4.54111 -1.77292,-5.24251 -1.01083,-1.21796 -0.57712,-2.509 0.84287,-2.509 1.09294,0 2.64199,4.73392 3.7948,11.59696 1.62765,9.68993 0.11184,19.57823 -4.97675,32.46554 -1.52696,3.86719 -3.00101,8.08594 -3.27564,9.375 -0.27464,1.28906 -1.38235,3.0465 -2.46157,3.90541 -1.75545,1.39709 -1.82966,1.80935 -0.70428,3.91214 1.6355,3.05595 0.85154,5.90128 -3.17273,11.51533 -1.80307,2.51535 -5.45324,7.73743 -8.11151,11.60462 -2.65827,3.86719 -5.85484,8.29688 -7.10349,9.84375 -4.76256,5.90005 -13.30629,18.16043 -18.6389,26.74711 -3.05179,4.91404 -6.08883,9.7656 -6.74898,10.78125 -0.66016,1.01565 -3.34447,6.20236 -5.96514,11.52602 -4.30972,8.75484 -6.53618,11.61902 -7.94041,10.21478 -0.27155,-0.27153 0.33186,-2.11663 1.3409,-4.10018 1.61282,-3.17046 2.76751,-9.76989 4.32178,-24.70023 0.46065,-4.42509 1.12921,-9.80518 2.09698,-16.875 0.31762,-2.32031 0.68222,-5.53038 0.81022,-7.13347 0.12801,-1.60309 0.48225,-4.55622 0.78721,-6.5625 0.30496,-2.00628 0.80566,-9.34309 1.11265,-16.30403 0.30701,-6.96094 0.94193,-15.60937 1.41093,-19.21875 2.35149,-18.09666 3.56613,-34.09537 4.235,-55.78125 0.6136,-19.89386 3.13912,-59.65882 4.16793,-65.625 0.48902,-2.83594 1.17384,-7.68271 1.5218,-10.7706 0.63412,-5.62718 2.33891,-8.82505 9.7744,-18.33485 3.0139,-3.8547 6.8262,-12.11095 7.75865,-16.80275 0.88824,-4.46939 -0.70205,-2.56834 -2.59661,3.10402 -0.83392,2.49677 -2.45829,5.87177 -3.60971,7.5 -1.15143,1.62824 -2.54252,3.77599 -3.09131,4.77278 -0.54879,0.99678 -1.7199,2.26241 -2.60246,2.8125 -2.69392,1.67907 -3.3782,-1.0207 -3.31074,-13.06235 0.066,-11.78799 1.54267,-44.2523 2.19608,-48.28125 0.20905,-1.289062 0.673,-4.453125 1.03098,-7.03125 0.89155,-6.420831 2.61714,-9.450818 8.80952,-15.46875 8.77845,-8.531157 15.6601,-20.013664 18.29776,-30.531028 0.85676,-3.416241 1.41439,-6.354706 1.23917,-6.529925 -0.17522,-0.175219 -1.93595,3.55666 -3.91273,8.293062 -3.29746,7.900763 -9.42565,18.478392 -11.147,19.240409 -0.39294,0.173949 -1.95406,2.118014 -3.46917,4.320146 -1.53398,2.229561 -4.12555,4.558535 -5.84807,5.255506 -1.70133,0.688396 -3.3868,1.685238 -3.74548,2.215204 -0.99689,1.472942 -1.47861,0.475312 -1.99828,-4.138374 -1.65315,-14.677069 -3.20417,-19.560115 -8.04016,-25.3125 -1.08372,-1.289062 -3.27865,-3.925781 -4.87764,-5.859375 -1.59899,-1.933594 -3.35897,-3.515625 -3.91106,-3.515625 -0.55209,0 -0.17331,0.949219 0.84173,2.109375 1.89258,2.163145 3.97481,6.296723 8.14634,16.171875 5.73973,13.587492 7.09738,22.726894 6.12764,41.25 -0.35093,6.70313 -0.705,18.83203 -0.78684,26.95313 -0.0836,8.299 -0.52805,14.76562 -1.01481,14.76562 -0.47631,0 -0.86602,0.84375 -0.86602,1.875 0,1.03125 -0.25569,1.875 -0.5682,1.875 -0.83408,0 -4.21996,-4.40801 -7.15019,-9.30869 -1.40918,-2.35678 -2.56933,-4.02018 -2.57813,-3.69642 -0.0219,0.80834 2.42654,6.80782 5.3076,13.00511 2.86668,6.16635 3.13894,12.98945 1.34669,33.75 -1.53115,17.73621 -1.85016,19.69617 -3.19712,19.64251 -0.62117,-0.0247 -2.8169,-2.40913 -4.8794,-5.29864 -2.0625,-2.8895 -8.14412,-9.51379 -13.5147,-14.72063 -24.123645,-23.38815 -27.142061,-26.69088 -30.916006,-33.82811 -1.086549,-2.05486 -1.975544,-3.15934 -1.975544,-2.4544 0,0.70494 0.886213,2.71563 1.969363,4.4682 2.961341,4.79155 1.87254,7.44852 -4.189651,10.22389 -2.729657,1.24968 -7.038176,2.54305 -9.574488,2.87418 -5.627751,0.73471 -7.19994,1.83347 -6.381284,4.45973 1.337105,4.28946 4.599169,3.30076 3.504169,-1.06206 -0.457941,-1.8246 -0.161048,-2.12058 2.148384,-2.14184 3.691068,-0.0339 15.974971,-3.3561 14.377927,-3.88844 -0.711325,-0.23711 -0.892222,-0.67803 -0.401994,-0.97984 1.782867,-1.0976 10.596521,6.08384 25.808921,21.02931 8.548423,8.39845 16.710893,17.27598 18.138803,19.72788 1.42792,2.45189 3.279,4.8401 4.11352,5.30711 1.2307,0.68874 1.48713,2.32578 1.35758,8.66701 -0.0878,4.29984 -0.59051,11.40383 -1.11705,15.78664 -0.52653,4.38281 -1.60719,17.88281 -2.40146,30 -0.79427,12.11719 -1.84423,26.46094 -2.33325,31.875 -0.48901,5.41406 -1.35161,15.11719 -1.91688,21.5625 -1.00798,11.49315 -3.06972,27.26748 -4.65625,35.625 -0.44048,2.32031 -1.06955,7.80469 -1.39794,12.1875 -0.32839,4.38281 -1.1814,13.03125 -1.89558,19.21875 -0.71418,6.1875 -1.54292,17.15625 -1.84165,24.375 -0.29872,7.21875 -0.74378,16.07812 -0.98903,19.6875 -0.54252,7.98461 -0.96015,14.54623 -2.35692,37.03125 -0.592568,9.53906 -1.395396,21.77344 -1.784065,27.1875 -0.388669,5.41406 -0.791456,15.53906 -0.895078,22.5 -0.297984,20.017 -2.3232,30.87278 -8.146192,43.66603 -7.173405,15.76014 -10.087304,30.49484 -7.890843,39.90161 0.991043,4.24434 6.617097,17.10314 8.146662,18.61986 0.789403,0.78278 -0.702179,-10.31069 -2.458022,-18.28125 C 85.225811,584.71663 85.624344,577.5 88.156224,577.5 c 1.726853,0 2.144323,0.80425 3.232319,6.22703 0.325064,1.62017 1.833121,4.90435 3.351241,7.29818 1.518122,2.39382 2.760216,4.62643 2.760216,4.96135 0,0.33493 0.935625,2.53512 2.079178,4.88933 2.022122,4.16291 3.816212,15.14112 2.875182,17.59343 -0.93213,2.42906 -2.14209,1.13733 -2.152,-2.29745 -0.0137,-4.75034 -2.008672,-10.99901 -6.126857,-19.19072 l -3.431049,-6.8249 0.613803,8.90625 c 0.706019,10.24431 2.037417,16.35135 3.902149,17.89895 1.664747,1.38161 1.637747,0.79038 -0.170212,-3.72817 -0.809775,-2.02382 -1.337119,-5.09094 -1.171875,-6.81585 0.276675,-2.88819 0.476494,-2.62167 2.526993,3.3706 1.22461,3.57871 2.226563,7.48106 2.226563,8.67187 0,1.83376 0.483806,2.1651 3.161365,2.1651 2.29801,0 4.15624,-0.89882 6.80435,-3.29122 z M 205.5,359.8125 c -0.6828,-0.6828 -1.13706,-4.09141 -1.15568,-8.67188 -0.0169,-4.15078 -0.41319,-10.5 -0.88071,-14.10937 -0.84613,-6.5324 0.0599,-10.22341 1.59231,-6.48705 0.40594,0.98976 2.25858,4.11986 4.11697,6.9558 1.8584,2.83594 3.66004,6.05226 4.00365,7.14738 0.67568,2.15345 10.46414,11.91302 12.76244,12.72477 0.77262,0.27289 1.15314,0.77038 0.84559,1.10556 -0.30755,0.33517 -2.05732,-0.0166 -3.88836,-0.78162 -3.94777,-1.64948 -10.71637,-9.32923 -14.28831,-16.21172 -2.85368,-5.4985 -3.69478,-6.1718 -2.92789,-2.34375 0.28407,1.41797 0.74095,6.23891 1.01529,10.71319 0.27435,4.4743 0.7534,8.79851 1.06456,9.60938 0.66864,1.74244 -0.66117,1.948 -2.25986,0.34931 z m 36.375,-16.12952 c -3.35156,-1.17465 -10.73438,-3.72329 -16.40625,-5.66363 -5.67188,-1.94036 -10.94531,-4.07976 -11.71875,-4.75422 -0.77344,-0.67448 -3.76953,-2.26701 -6.65798,-3.53895 -5.66447,-2.4944 -7.81521,-5.73443 -4.50411,-6.78533 0.97367,-0.30903 2.17568,-0.31134 2.67113,-0.005 0.49545,0.30621 9.25313,0.97833 19.46151,1.49362 10.20839,0.51529 19.61539,1.0819 20.90445,1.25914 1.28906,0.17723 3.92578,0.37607 5.85937,0.44189 1.9336,0.0658 3.51563,0.56063 3.51563,1.09962 0,0.58977 -1.2132,0.7681 -3.04688,0.44786 -3.88597,-0.67867 -46.95206,-2.36641 -47.45858,-1.85989 -0.20877,0.20877 0.71311,0.79503 2.04862,1.30279 1.33549,0.50776 4.24166,2.07083 6.45813,3.4735 3.79211,2.39979 19.48633,8.4037 28.89701,11.05469 2.33312,0.65725 5.49718,1.87416 7.03125,2.70425 4.23177,2.28983 0.33481,1.91961 -7.05455,-0.6702 z m 14.0625,-16.96423 c 0,-0.25781 0.21094,-0.46875 0.46875,-0.46875 0.25781,0 0.46875,0.21094 0.46875,0.46875 0,0.25781 -0.21094,0.46875 -0.46875,0.46875 -0.25781,0 -0.46875,-0.21094 -0.46875,-0.46875 z m -55.75548,-5.45664 c 1.01708,-0.68085 8.81017,-4.04013 17.31798,-7.46508 20.86728,-8.40043 29.2345,-10.48431 32.8125,-8.17203 1.01349,0.65497 0.12008,0.9128 -3.19885,0.92315 -4.47358,0.014 -13.64234,2.16677 -16.48865,3.87152 -0.77344,0.46325 -2.03906,1.09156 -2.8125,1.39627 -0.77344,0.3047 -7.04677,2.83327 -13.94072,5.61903 -12.34497,4.98845 -17.63297,6.46678 -13.68976,3.82714 z m 60.54294,-24.67738 c -2.63604,-1.14953 -9.27828,-6.07461 -13.72726,-10.17848 -3.26907,-3.01547 -15.52295,-24.84375 -13.94671,-24.84375 0.24887,0 9.2e-4,-0.84375 -0.55099,-1.875 -0.70048,-1.30885 -0.70437,-1.875 -0.0128,-1.875 0.54482,0 1.44847,1.16016 2.00812,2.57812 0.55965,1.41797 1.39742,3.21094 1.86171,3.98438 0.46429,0.77344 1.34152,2.46094 1.94943,3.75 5.31128,11.26276 14.79276,22.13123 23.14396,26.52957 6.42161,3.38207 5.88405,4.81244 -0.72539,1.93016 z m 0.92971,-10.72343 c -3.78829,-2.3095 -22.59217,-21.47037 -22.59217,-23.02109 0,-0.59241 -0.63281,-1.31994 -1.40625,-1.61674 -1.81135,-0.69508 -1.82689,-2.47347 -0.0216,-2.47347 0.76155,0 2.11129,1.16016 2.99942,2.57812 0.88813,1.41797 2.26895,3.25347 3.06848,4.07888 0.79954,0.82541 2.55385,2.72385 3.89847,4.21875 3.96703,4.41042 11.32484,11.09927 15.5706,14.15493 2.17406,1.56468 3.68578,3.11193 3.35937,3.43834 -0.89686,0.89686 -1.41452,0.75272 -4.87631,-1.35772 z m 14.43908,-11.80999 c -2.34979,-0.5247 -21.06832,-9.56671 -22.96875,-11.09508 -2.80898,-2.25904 -12.34697,-7.01873 -14.06492,-7.01873 -0.96906,0 -2.02265,-0.42188 -2.34133,-0.9375 -1.56683,-2.53519 5.61308,-0.45189 12.95882,3.76008 10.91366,6.25777 10.54385,6.06333 17.50993,9.20717 3.35156,1.51259 8.30859,3.26363 11.01562,3.89121 2.70704,0.62758 4.92188,1.52085 4.92188,1.98505 0,0.85877 -3.63488,0.9662 -7.03125,0.2078 z m 9.375,-19.07064 c -7.16475,-4.79427 -22.94004,-7.09451 -32.68229,-4.76552 -6.88738,1.64651 -15.59896,2.69226 -15.59896,1.87252 0,-1.28022 2.22184,-2.17131 7.03125,-2.81999 2.57812,-0.34772 7.36833,-1.11496 10.6449,-1.70496 9.66305,-1.74 26.23891,1.25906 30.88561,5.58812 1.09166,1.01704 2.39946,1.84916 2.90621,1.84916 0.50676,0 1.18211,0.42188 1.50078,0.9375 0.97684,1.58056 -1.71742,1.03059 -4.6875,-0.95683 z M 236.25,249.04863 c 0,-1.38095 4.1791,-3.39086 12.1875,-5.86152 2.83594,-0.87491 7.47656,-2.36007 10.3125,-3.30035 15.43664,-5.11816 25.56611,-5.79968 33.34132,-2.24322 2.8029,1.28208 5.09618,2.75864 5.09618,3.28125 0,0.52262 -0.15941,0.95021 -0.35426,0.95021 -0.81823,0 -6.7372,-2.70773 -7.41942,-3.39413 -0.40835,-0.41085 -3.57878,-0.88794 -7.04541,-1.0602 -5.12874,-0.25485 -8.39617,0.31506 -17.53882,3.05913 -6.17971,1.85479 -12.92334,3.78117 -14.98584,4.28087 -2.0625,0.4997 -5.70553,1.95327 -8.09562,3.23019 -5.01711,2.68038 -5.49813,2.77292 -5.49813,1.05777 z m 27.00188,-48.36682 c 0.29662,-4.10083 -0.16995,-7.3743 -1.7705,-12.42187 -2.48298,-7.83045 -3.14042,-22.28203 -1.10638,-24.32013 1.67191,-1.67525 2.21058,-0.63446 1.30867,2.52853 -0.89783,3.14871 0.2096,13.92327 2.22722,21.66945 0.75511,2.89907 1.52876,5.42686 1.71923,5.61733 0.35732,0.35732 1.1602,-8.27999 2.06246,-22.18787 0.48814,-7.52432 1.45984,-10.53984 2.92436,-9.07531 0.82977,0.82978 -2.2544,32.69908 -3.64498,37.66431 -2.18886,7.81555 -4.26865,8.10937 -3.72009,0.52556 z M 286.875,188.52053 c 0,-0.87388 14.26834,-12.42788 19.06571,-15.43875 1.46271,-0.918 2.90412,-1.42445 3.20313,-1.12544 0.65661,0.6566 1.02886,0.34141 -5.86259,4.96388 -3.09375,2.07515 -7.79636,5.7264 -10.45025,8.11388 -4.89269,4.40157 -5.956,5.024 -5.956,3.48643 z M 92.8125,618.28125 c 0,-0.25781 -0.210938,-0.46875 -0.46875,-0.46875 -0.257813,0 -0.46875,0.21094 -0.46875,0.46875 0,0.25781 0.210937,0.46875 0.46875,0.46875 0.257812,0 0.46875,-0.21094 0.46875,-0.46875 z m -6.5625,-2.6672 c 0,-0.1779 -0.949219,-1.12712 -2.109375,-2.10937 l -2.109375,-1.78593 1.785926,2.10937 c 1.67833,1.98229 2.432824,2.53617 2.432824,1.78593 z m -4.6875,-4.8328 c 0,-0.25781 -0.210938,-0.46875 -0.46875,-0.46875 -0.257813,0 -0.46875,0.21094 -0.46875,0.46875 0,0.25781 0.210937,0.46875 0.46875,0.46875 0.257812,0 0.46875,-0.21094 0.46875,-0.46875 z m -0.9375,-1.76021 c 0,-0.19467 -0.64247,-0.88716 -1.427711,-1.53885 -1.193763,-0.99073 -1.330948,-0.93274 -0.837198,0.35396 0.504277,1.31412 2.264909,2.23521 2.264909,1.18489 z m 1.297111,-3.40794 c -0.712842,-2.06903 -1.683207,-4.49481 -2.156366,-5.39062 -0.473159,-0.8958 -1.348535,-4.79279 -1.945278,-8.65998 -1.047096,-6.78569 -3.913884,-14.08406 -6.329744,-16.11448 -0.919704,-0.77296 -1.070875,0.71515 -0.716749,7.05563 0.512599,9.17788 1.759558,15.50819 3.851825,19.55419 1.95207,3.77488 2.619068,2.80636 0.900283,-1.30727 -0.755441,-1.80803 -1.616964,-5.35327 -1.914493,-7.87832 -0.517755,-4.39404 -0.480893,-4.49045 0.859253,-2.24725 0.770119,1.28906 1.415166,3.03596 1.433438,3.882 0.04507,2.08702 6.044338,14.868 6.978889,14.868 0.184261,0 -0.248215,-1.69285 -0.961058,-3.7619 z m 45.732769,-6.85568 c 2.97644,-5.83189 1.58143,-7.16988 -1.56113,-1.49731 -1.54687,2.79222 -3.14483,5.8964 -3.55102,6.89815 -0.73085,1.80251 -0.71767,1.80255 1.27164,0.004 1.10558,-0.99987 2.83381,-3.4318 3.84051,-5.40428 z m 3.98551,-15.6016 c 1.84826,-3.79773 3.18351,-7.08192 2.96724,-7.29819 -0.21627,-0.21627 -0.90916,0.59214 -1.53975,1.79645 -0.63059,1.20432 -2.77415,3.97322 -4.76346,6.1531 -2.81575,3.0855 -3.61692,4.72289 -3.61692,7.39206 l 0,3.42862 1.79622,-2.28352 c 0.98792,-1.25594 3.30843,-5.39077 5.15667,-9.18852 z m -5.74677,-211.43337 c 0.6257,-1.02921 2.21085,-3.34953 3.52255,-5.15625 1.31172,-1.80672 2.84881,-4.36634 3.41578,-5.68803 1.36978,-3.19321 13.82194,-21.10637 17.55451,-25.25317 13.67158,-15.18885 14.40924,-23.23253 2.08955,-22.78516 -5.9859,0.21737 -26.12444,-1.63675 -27.85869,-2.56491 -1.33156,-0.71262 -1.63718,-0.0216 -2.20925,4.99589 -0.36515,3.20262 -0.83919,9.6198 -1.05343,14.26043 -0.55102,11.93638 -2.11397,29.19202 -3.73624,41.25 -0.76308,5.67187 -1.60721,12.21094 -1.87582,14.53125 l -0.4884,4.21875 4.7509,-7.96875 c 2.613,-4.38281 5.26285,-8.81083 5.88854,-9.84005 z m 37.23138,-60.9412 c 0,-0.25781 -0.21094,-0.46875 -0.46875,-0.46875 -0.25781,0 -0.46875,0.21094 -0.46875,0.46875 0,0.25781 0.21094,0.46875 0.46875,0.46875 0.25781,0 0.46875,-0.21094 0.46875,-0.46875 z m -3.4368,-1.40314 c -0.25478,-0.2561 -4.33182,-0.78139 -9.06009,-1.16731 -11.92076,-0.97294 -22.75164,-2.93609 -22.19061,-4.02213 0.25781,-0.49908 0.78288,-0.80271 1.16681,-0.67473 2.53265,0.84422 20.37089,3.04856 24.6699,3.04856 2.87323,0 6.04007,0.43672 7.03742,0.97048 3.5845,1.91837 1.71774,0.18784 -2.88148,-2.67119 -2.58216,-1.60516 -6.32396,-3.35715 -8.31511,-3.89332 -1.99115,-0.53615 -4.62456,-1.75911 -5.85202,-2.71769 -1.22747,-0.95857 -3.28646,-2.06373 -4.57552,-2.45592 -1.28906,-0.39218 -4.84135,-1.94093 -7.89398,-3.44166 -6.43436,-3.16327 -6.74408,-2.9662 -7.58489,4.82623 -0.30647,2.84037 -0.7629,6.14888 -1.01426,7.35225 -0.26561,1.27158 -0.0777,1.9535 0.44865,1.62818 0.49812,-0.30785 2.93992,0.13091 5.4262,0.97502 2.48628,0.84412 7.47454,1.79893 11.08502,2.12181 7.83613,0.70078 20.18668,0.77755 19.53396,0.12142 z m 23.37958,-12.0314 c 4.0076,-4.47038 12.30428,-13.5154 18.43705,-20.10005 11.20567,-12.03129 17.87017,-20.82426 17.87017,-23.57741 0,-1.11506 -0.98603,-1.48676 -3.98438,-1.502 -7.0429,-0.0358 -19.81047,-2.40412 -23.67187,-4.39104 l -3.75,-1.9296 -0.18495,5.42251 c -0.10173,2.98239 -0.79974,7.88956 -1.55116,10.90483 -0.75142,3.01526 -1.6318,7.40986 -1.95642,9.76575 -0.62183,4.51284 -5.29836,20.00335 -7.48072,24.77905 -1.71197,3.74634 -2.76273,8.92493 -1.79187,8.83108 0.4277,-0.0413 4.05656,-3.73275 8.06415,-8.20312 z m -71.08427,-6.01672 c 0.58898,-10.66361 0.50085,-11.89014 -0.81796,-11.38407 -0.81292,0.31195 -1.47805,1.57673 -1.47805,2.81063 0,1.23389 -0.42187,2.24345 -0.9375,2.24345 -0.51562,0 -0.9375,1.02979 -0.9375,2.28842 0,1.25863 -0.42187,2.54916 -0.9375,2.86783 -0.51562,0.31867 -0.9375,1.92959 -0.9375,3.57982 0,1.98509 -0.63449,3.39665 -1.875,4.17136 -2.88515,1.8018 -2.27274,2.80484 2.57813,4.22261 2.44921,0.71583 4.5048,1.26769 4.56795,1.22636 0.0632,-0.0413 0.41189,-5.45321 0.77493,-12.02641 z m 1.45399,-13.36124 c 0,-0.25781 -0.21094,-0.46875 -0.46875,-0.46875 -0.25781,0 -0.46875,0.21094 -0.46875,0.46875 0,0.25781 0.21094,0.46875 0.46875,0.46875 0.25781,0 0.46875,-0.21094 0.46875,-0.46875 z M 287.5,201.875 c -0.34375,-0.34375 -0.90625,-0.34375 -1.25,0 -0.34375,0.34375 -0.0625,0.625 0.625,0.625 0.6875,0 0.96875,-0.28125 0.625,-0.625 z M 49.166463,179.1471 c 0.289916,-0.46909 0.26492,-1.53618 -0.05555,-2.3713 -0.525904,-1.37049 -0.70076,-1.3569 -1.794908,0.13943 C 46.085124,178.59857 46.310684,180 47.8125,180 c 0.454763,0 1.064047,-0.3838 1.353963,-0.8529 z m 13.476866,-2.73616 C 62.84228,175.05887 62.448647,174.375 61.471454,174.375 60.514245,174.375 60,175.2214 60,176.79687 c 0,2.93693 2.201687,2.61548 2.643329,-0.38593 z m -6.783954,-1.09844 c 0.730469,0 1.328125,-0.35649 1.328125,-0.7922 0,-1.25935 -3.695633,-4.26216 -4.390434,-3.56736 -0.345917,0.34591 0.184013,1.24397 1.177622,1.99568 1.023393,0.77425 1.298538,1.37967 0.634687,1.39657 -0.644531,0.0164 -1.138569,0.76809 -1.097862,1.67043 0.04421,0.9801 0.264391,1.16882 0.546875,0.46875 0.260074,-0.64453 1.070519,-1.17187 1.800987,-1.17187 z m -6.677208,-4.29449 c 1.77129,-2.70333 1.337629,-5.08051 -0.926822,-5.08051 -0.820051,0 -1.230269,0.42187 -0.911595,0.9375 0.318674,0.51562 -0.03317,0.9375 -0.781869,0.9375 -1.38903,0 -2.499381,1.90824 -2.499381,4.29543 0,2.21834 3.430537,1.48802 5.119667,-1.08992 z m 13.458229,-1.5729 c 0.163156,-1.41356 -0.153251,-2.57011 -0.703125,-2.57011 -0.549874,0 -0.999771,0.46701 -0.999771,1.0378 0,0.57079 -0.597899,0.80837 -1.328663,0.52795 -1.709611,-0.65604 -2.607548,1.62304 -1.195713,3.03487 1.759549,1.75955 3.908984,0.7271 4.227272,-2.03051 z m 6.813298,-0.4664 c 0.342097,-1.67267 0.358871,-3.03475 0.03728,-3.02686 -1.422654,0.035 -2.6888,1.59208 -3.289768,4.04587 -0.540679,2.20762 -0.374136,2.60085 0.99025,2.3381 0.984816,-0.18967 1.888792,-1.53114 2.262242,-3.35711 z m 6.015056,-3.04121 c 0.318674,-0.51563 0.290837,-1.40441 -0.06186,-1.97509 -0.630107,-1.01954 -2.233507,0.54281 -2.267535,2.20946 -0.02098,1.02764 1.653563,0.85915 2.329394,-0.23437 z m -10.366535,-0.85007 c 0.288955,-0.46754 -0.31896,-0.62927 -1.350921,-0.35941 -2.189051,0.57245 -2.465763,1.20948 -0.525372,1.20948 0.743007,0 1.587339,-0.38253 1.876293,-0.85007 z m 5.893879,-1.59134 c -0.311524,-0.31152 -1.120117,-0.34482 -1.796875,-0.074 -0.747875,0.29927 -0.525728,0.52142 0.566406,0.5664 0.988281,0.0407 1.541992,-0.18087 1.230469,-0.49239 z m -19.511351,-2.48047 c 0.499865,-1.31911 0.413579,-2.58691 -0.230319,-3.38404 -0.693279,-0.85827 -1.143558,-0.93293 -1.378354,-0.22854 -0.191793,0.57538 -0.781723,0.77853 -1.310958,0.45145 -1.016855,-0.62846 -2.589046,1.23199 -2.613256,3.0924 -0.01245,0.95696 1.389467,1.68219 4.000229,2.06936 0.403335,0.0598 1.09303,-0.84047 1.532658,-2.00062 z m 14.672374,-15.80565 c 0.350099,-0.56647 -0.418145,-2.08464 -1.707208,-3.3737 -1.523106,-1.5231 -2.56772,-1.98135 -2.983408,-1.30876 -0.351812,0.56925 -0.219409,1.03499 0.294229,1.03499 0.549393,0 0.707444,1.39541 0.383886,3.38926 -0.521057,3.2109 -0.446697,3.33398 1.412978,2.33871 1.079639,-0.5778 2.249424,-1.51403 2.599523,-2.0805 z m 91.166303,-7.33648 c 0.25703,-0.77109 -0.46155,-0.62359 -2.058,0.42243 -1.34911,0.88398 -2.45292,2.03203 -2.45292,2.55125 0,1.2176 3.99075,-1.41317 4.51092,-2.97368 z m -97.465362,0.0342 c 1.361755,-2.05091 1.323837,-2.13157 -0.857267,-1.82362 -1.564515,0.2209 -2.380538,1.01827 -2.595304,2.536 -0.385213,2.72227 1.419268,2.34994 3.452571,-0.71238 z M 67.5,140.27104 c 0,-0.19467 -0.738281,-0.93296 -1.640625,-1.64063 -1.486927,-1.16613 -1.520087,-1.13297 -0.353958,0.35396 1.224721,1.56165 1.994583,2.05827 1.994583,1.28667 z m 7.489897,-1.04011 c 1.461802,-1.76137 0.455691,-6.10593 -1.414008,-6.10593 -0.994787,0 -1.388389,1.06311 -1.388389,3.75 0,3.94306 0.874823,4.67851 2.802397,2.35593 z m 72.838023,-0.65671 c -0.29927,-0.74787 -0.52142,-0.52573 -0.5664,0.56641 -0.0407,0.98827 0.18086,1.54199 0.49239,1.23047 0.31152,-0.31153 0.34482,-1.12013 0.074,-1.79688 z M 69.05149,136.44668 C 68.746162,135.65101 68.057656,135 67.521479,135 c -0.617021,0 -0.554816,0.67261 0.169463,1.83236 1.29354,2.07129 2.204304,1.81311 1.360548,-0.38568 z m -4.36399,-0.0404 c 0,-0.25781 -0.210938,-0.46875 -0.46875,-0.46875 -0.257813,0 -0.46875,0.21094 -0.46875,0.46875 0,0.25781 0.210937,0.46875 0.46875,0.46875 0.257812,0 0.46875,-0.21094 0.46875,-0.46875 z m 84.375,0 c 0,-0.25781 -0.21094,-0.46875 -0.46875,-0.46875 -0.25781,0 -0.46875,0.21094 -0.46875,0.46875 0,0.25781 0.21094,0.46875 0.46875,0.46875 0.25781,0 0.46875,-0.21094 0.46875,-0.46875 z m -87.110975,-3.6578 c -0.62049,-0.74763 -1.056714,-1.91799 -0.969388,-2.60077 0.244101,-1.90857 -1.097118,-5.46018 -2.061964,-5.46018 -0.473628,0 -0.391938,0.87671 0.181533,1.94826 0.573472,1.07154 0.789081,2.60911 0.479131,3.41683 -0.309949,0.80771 0.147166,2.2539 1.015812,3.21374 1.8163,2.00699 3.056809,1.53283 1.354876,-0.51788 z M 57.8125,133.4375 c -0.34375,-0.34375 -0.90625,-0.34375 -1.25,0 -0.34375,0.34375 -0.0625,0.625 0.625,0.625 0.6875,0 0.96875,-0.28125 0.625,-0.625 z m 91.875,-0.9375 c -0.34375,-0.34375 -0.625,-0.0625 -0.625,0.625 0,0.6875 0.28125,0.96875 0.625,0.625 0.34375,-0.34375 0.34375,-0.90625 0,-1.25 z m 7.31468,0.67203 c 0.30269,-0.48975 -0.30523,-1.34834 -1.35092,-1.90798 -1.0457,-0.55964 -1.90126,-0.82624 -1.90126,-0.59246 0,0.23378 -0.25607,1.09238 -0.56905,1.90798 -0.40475,1.05475 -0.0147,1.48293 1.35092,1.48293 1.05599,0 2.16763,-0.40071 2.47031,-0.89047 z m -85.570012,-2.41621 c 0.823829,-1.8081 0.812958,-2.63569 -0.0459,-3.49455 -1.62983,-1.62983 -4.283581,0.29853 -4.651662,3.38016 -0.237468,1.98813 0.09382,2.48357 1.660723,2.48357 1.183695,0 2.384045,-0.93645 3.036841,-2.36918 z m 74.066692,-0.009 c 0.87623,-1.9231 0.81034,-2.6517 -0.34419,-3.80623 -1.27879,-1.2788 -1.59718,-1.16941 -3.04999,1.04787 -0.89219,1.36164 -1.3924,3.07445 -1.11159,3.80623 0.81537,2.12484 3.32624,1.54091 4.50577,-1.04787 z m -90.124728,0.4704 c 2.187026,-1.17046 2.3599,-3.97135 0.348166,-5.64095 -1.289215,-1.06995 -1.38728,-0.88667 -0.816461,1.52584 0.534159,2.25758 0.428664,2.53486 -0.597298,1.56997 -1.892743,-1.77991 -2.746039,-1.41577 -2.746039,1.17205 0,2.53652 0.979011,2.88923 3.811632,1.37327 z m 9.313368,0.50191 c 0,-0.25781 -0.210938,-0.46875 -0.46875,-0.46875 -0.257813,0 -0.46875,0.21094 -0.46875,0.46875 0,0.25781 0.210937,0.46875 0.46875,0.46875 0.257812,0 0.46875,-0.21094 0.46875,-0.46875 z m -0.9375,-1.875 c 0,-0.25781 -0.210937,-0.46875 -0.46875,-0.46875 -0.257813,0 -0.46875,0.21094 -0.46875,0.46875 0,0.25781 0.210937,0.46875 0.46875,0.46875 0.257813,0 0.46875,-0.21094 0.46875,-0.46875 z m 51.12449,-4.1593 c -0.78301,-1.51418 -1.89062,-3.04166 -2.46136,-3.39438 -1.08348,-0.66963 0.41717,2.72263 2.20105,4.97556 1.61152,2.03523 1.73683,1.27409 0.26031,-1.58118 z m 45.80646,1.27012 c 0.97592,-2.5432 0.64189,-3.20457 -1.61845,-3.20457 -3.07706,0 -3.69565,0.97336 -1.88799,2.9708 1.90555,2.10561 2.76613,2.16299 3.50644,0.23377 z m -95.021755,-2.30126 c 2.113157,-2.11316 1.713457,-3.71581 -0.926721,-3.71581 -1.704162,0 -2.857474,1.73369 -2.857474,4.29543 0,1.88566 1.557466,1.6471 3.784195,-0.57962 z M 147.8125,125 c -0.34375,-0.34375 -0.625,-0.0625 -0.625,0.625 0,0.6875 0.28125,0.96875 0.625,0.625 0.34375,-0.34375 0.34375,-0.90625 0,-1.25 z m -95.481671,-3.82812 c 0.242421,-1.70692 -0.149485,-2.10938 -2.054046,-2.10938 -2.670735,0 -3.824625,1.29586 -3.020299,3.39189 0.847594,2.2088 4.717409,1.23072 5.074345,-1.28251 z m 7.626345,0.28597 c 1.722522,-2.07551 0.857602,-5.6766 -1.363424,-5.6766 -1.034006,0 -1.764198,0.54265 -1.627966,1.20985 0.135869,0.66542 -0.165694,1.98104 -0.67014,2.92362 -1.53306,2.86455 1.502952,4.14406 3.66153,1.54313 z m 89.295156,-0.9891 c -0.51225,-3.44363 -1.05519,-4.21875 -2.95504,-4.21875 -2.37076,0 -3.78165,4.4555 -1.81481,5.73099 2.25528,1.46254 5.07919,0.56725 4.76985,-1.51224 z m 5.43517,1.875 c 0,-0.25781 -0.21094,-0.46875 -0.46875,-0.46875 -0.25781,0 -0.46875,0.21094 -0.46875,0.46875 0,0.25781 0.21094,0.46875 0.46875,0.46875 0.25781,0 0.46875,-0.21094 0.46875,-0.46875 z m -43.125,-1.875 c 0,-0.25781 -0.21094,-0.46875 -0.46875,-0.46875 -0.25781,0 -0.46875,0.21094 -0.46875,0.46875 0,0.25781 0.21094,0.46875 0.46875,0.46875 0.25781,0 0.46875,-0.21094 0.46875,-0.46875 z m 49.51833,-2.11896 c 0.2251,-1.57779 -0.16899,-2.09979 -1.5853,-2.09979 -2.2858,0 -3.14083,1.18013 -2.34936,3.24267 0.83226,2.16884 3.57588,1.37192 3.93466,-1.14288 z M 53.207653,113.67237 c 0.212172,-0.64426 -0.287499,-1.42974 -1.110381,-1.74551 -1.730998,-0.66425 -4.527151,1.29751 -3.717238,2.60797 0.752903,1.21823 4.354279,0.57483 4.827619,-0.86246 z m 42.114113,-0.43848 c 0.800521,-0.61629 0.839643,-1.60467 0.142659,-3.60403 -1.113066,-3.19295 -1.4367,-3.2968 -3.74998,-1.20331 -1.957337,1.77136 -2.216133,4.13427 -0.626869,5.72353 1.05313,1.05313 1.919765,0.86561 4.23419,-0.91619 z m 7.771364,0.71076 c 1.18156,-1.4237 0.55784,-6.63393 -0.90218,-7.53626 -1.34265,-0.82981 -3.465366,2.05622 -3.212306,4.36743 0.132056,1.20611 0.275259,2.72027 0.318234,3.3648 0.106519,1.59789 2.406002,1.47918 3.796252,-0.19597 z M 155.3125,113.75 c -0.34375,-0.34375 -0.625,-0.0625 -0.625,0.625 0,0.6875 0.28125,0.96875 0.625,0.625 0.34375,-0.34375 0.34375,-0.90625 0,-1.25 z m 7.8125,1.09375 c 0,-0.25781 -0.21094,-0.46875 -0.46875,-0.46875 -0.25781,0 -0.46875,0.21094 -0.46875,0.46875 0,0.25781 0.21094,0.46875 0.46875,0.46875 0.25781,0 0.46875,-0.21094 0.46875,-0.46875 z m -13.45599,-1.18623 c 1.05748,-0.67738 1.58902,-2.97487 1.37644,-5.94939 -0.16894,-2.36403 -4.74054,-1.04186 -6.00679,1.73725 -0.88966,1.9526 -0.77428,2.53015 0.7245,3.62607 2.03037,1.48464 2.41335,1.54211 3.90585,0.58607 z m 10.27955,-2.13796 c 0.45798,0.0645 0.9675,-0.74325 1.13227,-1.79493 0.18513,-1.18162 -0.21872,-1.91213 -1.05708,-1.91213 -2.0036,0 -3.7629,2.54917 -3.04695,4.41491 0.48397,1.26121 0.79412,1.35115 1.38158,0.40061 0.41662,-0.67411 1.13221,-1.17292 1.59018,-1.10846 z m 7.42057,0.93938 c 0.7481,-1.21047 -1.33361,-3.88017 -2.47536,-3.17454 -0.4572,0.28257 -0.83127,1.33261 -0.83127,2.33343 0,1.92142 2.28045,2.5015 3.30663,0.84111 z m -60.49856,-4.37674 c -1.02151,-1.59308 -1.04797,-1.59104 -0.53511,0.0413 0.29675,0.94452 0.57285,2.21014 0.61356,2.8125 0.0534,0.79047 0.2023,0.77895 0.53509,-0.0413 0.25361,-0.62511 -0.0225,-1.89073 -0.61354,-2.8125 z m -16.770461,-2.97474 c 1.899663,-1.53826 2.01499,-1.96979 0.889022,-3.3265 -1.559062,-1.878551 -4.647164,-1.5889 -5.995272,0.56233 -0.707514,1.12902 -0.63726,1.97367 0.253422,3.04688 1.580443,1.90431 2.196264,1.86844 4.852828,-0.28271 z m 66.462391,1.29879 c 0,-0.25781 -0.21094,-0.46875 -0.46875,-0.46875 -0.25781,0 -0.46875,0.21094 -0.46875,0.46875 0,0.25781 0.21094,0.46875 0.46875,0.46875 0.25781,0 0.46875,-0.21094 0.46875,-0.46875 z m 10.14333,-2.18281 c 0.19894,-1.35207 -0.19468,-2.03594 -1.17188,-2.03594 -0.9572,0 -1.47145,0.8464 -1.47145,2.42187 0,2.93693 2.20169,2.61548 2.64333,-0.38593 z M 161.25,104.25 c 0,-0.4125 -0.50625,-1.25625 -1.125,-1.875 -0.875,-0.875 -0.875,-1.125 0,-1.125 0.61875,0 1.125,-0.42187 1.125,-0.9375 0,-1.418944 -2.42963,-1.122197 -3.74009,0.45682 -1.54984,1.86744 -0.52445,4.23068 1.83567,4.23068 1.04743,0 1.90442,-0.3375 1.90442,-0.75 z m -60.63344,-1.50262 c 0.27757,-0.72332 -0.0588,-2.08562 -0.747338,-3.027342 -1.19145,-1.629404 -1.342838,-1.600032 -3.130238,0.607312 -1.033022,1.27574 -1.681378,2.63804 -1.440778,3.02734 0.758522,1.22731 4.791034,0.76683 5.318354,-0.60731 z m 3.81982,-4.000505 c -0.72469,-2.407969 -1.52715,-4.587656 -1.78325,-4.843744 -0.85156,-0.851564 -0.48072,3.273778 0.56359,6.269479 1.62691,4.66697 2.68208,3.43353 1.21966,-1.425735 z m 47.97575,3.660645 c 1.70667,-1.16863 2.36345,-4.140523 1.21962,-5.518751 -0.92444,-1.113881 -1.34988,-1.07416 -2.82867,0.264131 -3.1789,2.87686 -1.74708,7.5527 1.60905,5.25462 z M 94.746797,97.897294 C 95.763169,96.672647 95.742694,96.27375 94.627219,95.567906 92.478787,94.208438 91.875,94.529466 91.875,97.03125 c 0,2.681072 1.092128,3.01042 2.871797,0.866044 z M 165,98.4375 c 0,-0.515625 -0.42188,-0.9375 -0.9375,-0.9375 -0.51563,0 -0.9375,0.421875 -0.9375,0.9375 0,0.515625 0.42187,0.9375 0.9375,0.9375 0.51562,0 0.9375,-0.421875 0.9375,-0.9375 z M 89.430948,95.079572 c 1.026457,-2.674902 0.601119,-3.238396 -1.540323,-2.040641 -1.160156,0.648901 -2.257088,1.257219 -2.437628,1.351822 -0.180538,0.0946 -0.05017,0.621947 0.289704,1.171875 0.919056,1.487063 3.038776,1.209441 3.688247,-0.483056 z m 10.28308,0.07668 C 99.417225,94.382812 98.599959,93.75 97.897875,93.75 c -0.749531,0 -1.05375,0.580556 -0.736903,1.40625 0.296803,0.773437 1.114069,1.40625 1.816153,1.40625 0.749531,0 1.053755,-0.580556 0.736903,-1.40625 z M 161.25,94.21875 c 0,-0.875 -0.88541,-1.40625 -2.34375,-1.40625 -1.45834,0 -2.34375,0.53125 -2.34375,1.40625 0,0.874997 0.88541,1.40625 2.34375,1.40625 1.45834,0 2.34375,-0.531253 2.34375,-1.40625 z M 97.5,90.875868 C 97.5,89.389535 95.670928,86.25 94.804997,86.25 c -1.019344,0 -2.948737,4.356261 -2.242281,5.062716 C 93.528157,92.278157 97.5,91.92673 97.5,90.875868 Z M 89.0625,88.125 c 0,-0.515625 -0.446773,-0.9375 -0.992828,-0.9375 -0.546056,0 -0.732096,0.421875 -0.413422,0.9375 0.318674,0.515625 0.765446,0.9375 0.992828,0.9375 0.227383,0 0.413422,-0.421875 0.413422,-0.9375 z M 101.25,84.061419 c 0,-1.133672 -0.41018,-1.191432 -2.260369,-0.318286 -1.79355,0.846418 -2.074715,1.413629 -1.361419,2.746429 0.785907,1.468489 1.070138,1.508512 2.260369,0.318286 C 100.63736,86.059068 101.25,84.823175 101.25,84.061419 Z M 93.231513,80.291855 C 92.489452,77.335243 91.37085,77.126044 90,79.6875 c -0.800918,1.49653 -0.712959,1.875 0.435765,1.875 0.791579,0 1.439235,0.717187 1.439235,1.59375 0,1.11823 0.295202,1.298548 0.989395,0.604355 0.546242,-0.546242 0.710675,-2.09991 0.367118,-3.46875 z M 100.3125,80.625 C 101.49518,78.415137 100.08577,75 97.991091,75 c -1.8591,0 -2.775535,1.840559 -1.534407,3.081686 C 97.030509,78.655509 97.5,79.884375 97.5,80.8125 c 0,2.249672 1.563966,2.145408 2.8125,-0.1875 z m 66.43359,-28.950426 c -0.20409,-0.59424 -0.85592,-0.668875 -1.63183,-0.186847 -0.71058,0.441453 -0.97938,1.308442 -0.59731,1.926644 0.82152,1.329236 2.76283,-0.185918 2.22914,-1.739797 z M 156.39333,47.099797 C 156.58527,45.754409 156.20549,45 155.33625,45 c -1.81761,0 -3.7814,2.473542 -2.9858,3.760841 1.04687,1.693878 3.72098,0.595204 4.04288,-1.661044 z M 166.5625,48.125 c -0.34375,-0.34375 -0.625,-0.0625 -0.625,0.625 0,0.6875 0.28125,0.96875 0.625,0.625 0.34375,-0.34375 0.34375,-0.90625 0,-1.25 z m -1.09375,-3.59375 c 0,-1.289063 -0.31641,-2.34375 -0.70313,-2.34375 -0.38671,0 -0.70312,1.054687 -0.70312,2.34375 0,1.289062 0.31641,2.34375 0.70312,2.34375 0.38672,0 0.70313,-1.054688 0.70313,-2.34375 z m 5.55803,-0.785612 c 0.76272,-1.223662 0.66608,-1.82246 -0.40156,-2.487992 -1.00963,-0.629377 -1.58574,-0.423625 -2.04348,0.729812 -1.58564,3.995576 0.23458,5.30447 2.44503,1.75818 z M 152.8125,41.25 c 0,-1.03125 -0.39698,-1.875 -0.88217,-1.875 -1.25845,0 -2.14521,1.706368 -1.46158,2.8125 0.9798,1.585347 2.34375,1.039767 2.34375,-0.9375 z m -39.29284,-1.721484 c -0.98851,-1.847047 -6.48097,-6.758664 -11.51702,-10.299065 -1.70301,-1.19724 -1.02089,-0.35349 1.51584,1.875 2.53672,2.228489 5.88388,5.422893 7.43812,7.098674 3.20635,3.457073 3.89429,3.812819 2.56306,1.325391 z m 44.91784,0.839312 c 0,-1.26597 -1.70901,-2.143576 -2.82779,-1.452127 -0.52404,0.323872 -0.71008,0.981582 -0.41342,1.461578 0.70375,1.138703 3.24121,1.131304 3.24121,-0.0095 z m 9.83749,-4.752954 c -0.81125,-1.312628 -2.29892,0.47346 -2.32314,2.789144 -0.012,1.14461 0.23781,1.120608 1.50282,-0.144411 0.83588,-0.83587 1.20425,-2.023523 0.82032,-2.644733 z m 5.64554,0.902637 c 0.33515,-1.055993 0.10099,-2.532556 -0.52037,-3.28125 -2.12104,-2.555701 -2.56491,-1.512478 -1.91382,4.498114 0.15894,1.467337 1.85067,0.621633 2.43419,-1.216864 z M 95.017791,35.849036 c 0.242521,-0.392405 -0.113963,-1.472338 -0.792169,-2.399851 -1.379035,-1.885937 -2.883286,-0.56452 -1.99437,1.751959 0.561038,1.462041 2.06697,1.812181 2.786539,0.647892 z m 65.071949,-0.458411 c 0.58878,-0.730648 0.62846,-2.006374 0.10541,-3.388261 -0.69419,-1.834044 -1.07988,-2.016398 -2.23577,-1.057083 -2.06641,1.714964 -1.70546,5.617219 0.51958,5.617219 0.36655,0 1.09141,-0.527344 1.61078,-1.171875 z m -6.35409,-2.34375 c -0.0208,-2.380792 -1.485,-4.327194 -2.69334,-3.580404 C 150.46904,29.820772 150,31.140446 150,32.399078 c 0,1.663422 0.51209,2.288422 1.875,2.288422 1.16618,0 1.86957,-0.620214 1.86065,-1.640625 z M 89.0625,30.9375 C 89.0625,30.421875 88.615727,30 88.069672,30 c -0.546056,0 -0.732096,0.421875 -0.413422,0.9375 0.318674,0.515625 0.765446,0.9375 0.992828,0.9375 0.227383,0 0.413422,-0.421875 0.413422,-0.9375 z m 8.418694,-0.491406 c -0.652238,-0.785897 -1.42995,-1.184834 -1.728263,-0.886525 -0.298312,0.298309 0.07819,0.934856 0.836719,1.41455 1.984659,1.255138 2.243981,1.101555 0.891544,-0.528025 z M 167.8125,31.40625 c 0,-0.257813 -0.21094,-0.46875 -0.46875,-0.46875 -0.25781,0 -0.46875,0.210937 -0.46875,0.46875 0,0.257812 0.21094,0.46875 0.46875,0.46875 0.25781,0 0.46875,-0.210938 0.46875,-0.46875 z m -4.6875,-4.163422 c 0,-3.07662 -1.50342,-4.551909 -3.05626,-2.999071 -0.73218,0.732177 -0.71489,1.682879 0.0616,3.387062 1.45544,3.194333 2.99467,2.994909 2.99467,-0.387991 z m 10.3125,-0.17012 c 0,-0.452489 -0.63281,-0.822708 -1.40625,-0.822708 -0.80829,0 -1.40625,0.846088 -1.40625,1.989792 0,1.662408 0.23138,1.79777 1.40625,0.822708 0.77344,-0.641896 1.40625,-1.537302 1.40625,-1.989792 z M 86.099347,25.860146 c 0.2712,-1.398833 0.02545,-1.484108 -1.666882,-0.578401 -1.091739,0.584282 -1.723566,1.485307 -1.404059,2.00228 0.838579,1.356849 2.699071,0.494211 3.070941,-1.423879 z m 6.713153,-0.0789 c 0,-1.610215 -1.560528,-2.648762 -2.815035,-1.873433 -0.623806,0.385532 -0.607982,1.201422 0.04703,2.425336 1.048335,1.958827 2.768001,1.615948 2.768001,-0.551903 z m 63.75,-0.46875 c 0,-1.041667 -0.625,-1.875 -1.40625,-1.875 -0.78125,0 -1.40625,0.833333 -1.40625,1.875 0,1.041667 0.625,1.875 1.40625,1.875 0.78125,0 1.40625,-0.833333 1.40625,-1.875 z M 81.393329,21.723442 c 0.164769,-1.119768 -0.05016,-2.035942 -0.477612,-2.035942 -1.112149,0 -3.106977,3.43374 -2.403509,4.137208 1.06887,1.06887 2.576437,-0.03064 2.881121,-2.101266 z M 174.84375,21.5625 c 0.31868,-0.515625 -0.0534,-0.9375 -0.82685,-0.9375 -0.77343,0 -1.66697,0.421875 -1.98565,0.9375 -0.31868,0.515625 0.0534,0.9375 0.82685,0.9375 0.77343,0 1.66697,-0.421875 1.98565,-0.9375 z M 87.65625,19.375 c 0,-2.443639 -1.838346,-2.290284 -2.188263,0.182546 -0.214766,1.517735 0.08001,2.082707 0.9375,1.796875 0.68792,-0.229307 1.250763,-1.120046 1.250763,-1.979421 z m 3.28125,1.71875 C 90.9375,20.835937 90.726562,20.625 90.46875,20.625 90.210937,20.625 90,20.835937 90,21.09375 c 0,0.257812 0.210937,0.46875 0.46875,0.46875 0.257812,0 0.46875,-0.210938 0.46875,-0.46875 z m 71.8528,-1.791723 c -2.01567,-3.035755 -4.2598,-4.062898 -5.30263,-2.427027 -1.97631,3.100189 -0.5021,4.546295 4.44515,4.360404 1.86795,-0.07019 1.95871,-0.274834 0.85748,-1.933377 z m 6.8972,1.791723 c 0,-0.257813 -0.21094,-0.46875 -0.46875,-0.46875 -0.25781,0 -0.46875,0.210937 -0.46875,0.46875 0,0.257812 0.21094,0.46875 0.46875,0.46875 0.25781,0 0.46875,-0.210938 0.46875,-0.46875 z M 76.40625,18.75 C 76.724924,18.234375 76.538884,17.8125 75.992828,17.8125 75.446773,17.8125 75,18.234375 75,18.75 c 0,0.515625 0.186039,0.9375 0.413422,0.9375 0.227382,0 0.674154,-0.421875 0.992828,-0.9375 z m 3.397582,-2.125 c -0.925889,-0.919001 -1.033575,-0.811316 -0.524807,0.524808 0.35206,0.924582 0.876273,1.444894 1.164918,1.156249 0.288644,-0.288644 5.94e-4,-1.045119 -0.64011,-1.681057 z m 94.542498,0.303575 c 1.55139,-2.898814 -0.5929,-6.616075 -3.81649,-6.616075 -1.43368,0 -2.86741,-0.421875 -3.18609,-0.9375 -0.31868,-0.515625 -1.04177,-0.9375 -1.60688,-0.9375 -0.56511,0 -0.26129,0.84663 0.67517,1.8814 0.93645,1.03477 2.162,1.828535 2.72343,1.763923 2.43099,-0.279773 4.30203,0.173491 4.30203,1.042177 0,0.515625 -0.84375,0.9375 -1.875,0.9375 -1.19318,0 -1.875,0.625 -1.875,1.71875 0,3.370893 3.06487,4.125676 4.65883,1.147325 z m -9.61383,-2.786127 c 0.8818,-1.411977 0.8615,-2.010445 -0.0951,-2.804366 -1.54231,-1.280008 -2.44988,-0.386505 -2.44988,2.411918 0,2.654146 1.03306,2.813448 2.545,0.392448 z M 77.652497,12.794722 c 0.238516,-1.238517 -0.146202,-1.623235 -1.384719,-1.384719 -0.943248,0.181654 -1.863621,1.102027 -2.045275,2.045275 -0.238516,1.238517 0.146202,1.623235 1.384719,1.384719 0.943248,-0.181654 1.863621,-1.102027 2.045275,-2.045275 z m 6.933038,1.682242 c 0.28767,-0.287669 0.312732,-1.32724 0.0557,-2.310156 -0.399423,-1.527382 -0.657115,-1.597353 -1.773039,-0.481429 -0.718131,0.71813 -1.305693,1.757702 -1.305693,2.310156 0,1.049335 2.117855,1.38661 3.023035,0.481429 z M 88.125,13.59375 c 0,-0.257812 -0.210938,-0.46875 -0.46875,-0.46875 -0.257813,0 -0.46875,0.210938 -0.46875,0.46875 0,0.257813 0.210937,0.46875 0.46875,0.46875 0.257812,0 0.46875,-0.210937 0.46875,-0.46875 z m 71.5249,-1.707906 c 0.59927,-1.561656 -2.73892,-3.8331411 -3.59576,-2.4467509 -0.86882,1.4057689 0.23533,3.6859069 1.78489,3.6859069 0.73444,0 1.54935,-0.55762 1.81087,-1.239156 z M 81.595476,7.9290172 C 82.387761,6.9743718 82.480035,6.1675347 81.867034,5.5545336 80.501912,4.1894119 77.8125,5.5463902 77.8125,7.600302 c 0,2.1416027 2.125156,2.3262649 3.782976,0.3287152 z M 172.18887,5.2289452 C 171.298,2.9073815 168.75,3.4323795 168.75,5.9375 c 0,1.203125 0.29129,2.4787947 0.64732,2.8348215 1.05399,1.0539863 3.40875,-1.9349711 2.79155,-3.5433763 z m -8.12637,0.3666315 c 0,-3.3331514 -2.27635,-4.6585127 -4.38296,-2.5518977 -1.83747,1.8374596 -0.16212,5.393821 2.54094,5.393821 1.42593,0 1.84202,-0.6419633 1.84202,-2.8419233 z"
     id="path4166"
     inkscape:connector-curvature="0" />
</svg>
