<?xml version="1.0" encoding="UTF-8" standalone="no"?>
<svg id="svg9527" xmlns:rdf="http://www.w3.org/1999/02/22-rdf-syntax-ns#" xmlns="http://www.w3.org/2000/svg" height="274.87mm" width="276.4mm" version="1.1" xmlns:cc="http://creativecommons.org/ns#" xmlns:dc="http://purl.org/dc/elements/1.1/" viewBox="0 0 979.37709 973.93939">
<g id="layer1" transform="translate(-224.6 451.75)">
<path id="path514" fill="#070707" d="m831.71-451.75c-19.1 1.025-39.275 7.7484-50.35 24.461-33.812 37.462-32.113 90.813-44.176 137.05-18.975 63.65-19.099 130.36-29.449 195.45-1.425 10.65-10.401-1.4125-9.2383-6.875 2.0125-91.45 2.7867-182.95 3.7617-274.4-2.3125-12.3 2.6891-27.614-6.6484-37.701-7.6875 2.45-12.988-4.7121-19.676-6.9121-12.425 13.7-27.5-10.312-37.775 8.0879-12.912-4.7875-25.95 2.8504-38.625-1.9121-9.2125-1.1875-14.987 8.1992-19.975 14.387-18.812-10.375-40.425-8.0758-52.812 10.824-16.675-6.85-27.7 6.9887-33.4 21.639-20.312-10.975-30.686 6.7129-27.111 25.025-16.162-7.05-33.75-4.5504-33.463 16.975-17.138-1.7125-30.312 9.2992-26.062 27.637-7.7 0.5625-16.039-1.775-23.326 1.1875-6.4375 6.0625-5.7 16.139-8.3125 24.014-8.45-0.7125-16.936-0.61328-25.361-0.30078-3.275 7.55-5.1625 15.55-6.5625 23.65-18.062 2.95-15.562 22.95-18.375 36.725-7.0875 0.5625-20.912-5.2258-23.375 4.6992 0.0625 12.112 1.3125 24.214 1 36.389-8.0625 1.275-16.163 2.2988-24.15 3.9238-1.3125 10.375 0.8242 20.789 1.5117 31.164-8.6875 3.625-17.487 6.9621-26.137 10.662 1.2875 10.338 6.8621 20.55 5.5371 30.912-9.7375 8.4625-25.862 5.5383-34.5 16.363-1.625 31.75 31.601 42.261 57.451 45.086 89.138 27.212 180.85 44.226 271.26 66.264 0.0875 0.85 0.2753 2.575 0.3633 3.4375-80.088 4.5125-160.39 4.7613-240.55 7.1738-22.825 0.6-47.524 3.45-66.574 17-15.3 21.7-0.05 46.289 0.625 69.201 12.388 17.925 15.673 40.762 18.273 62.125 1.3125 14.588 25.326 16.3 21.051 32.85-2.5625 11.638 2.575 22.225 12.875 27.713-2.9 16.962 8.3383 30.038 23.738 34.525 0.5125 8.0375 1.2375 16.175 3.5 24.037 4.6625 1.1375 9.3492 2.3 14.074 3.5-1.6125 16.862 12.212 24.299 26.699 26.699 5.6125 10.338 11.675 21.55 25.375 22.275 2.5875 7.4 5.725 14.626 10.75 20.801 6.175 1.0625 12.438 2.2488 18.688 3.4863 1.0375 5.65 2.0004 11.264 3.0254 17.014 5.875 1.1875 11.713 2.4121 17.613 3.7871-0.7875 23.575 30.512 20.125 34.324 42.037 25 3 50.688 11.112 67.812 30.012 9.725 1.325 19.589-1.7496 29.326-2.6621 3.4125 11.675 6.1617 23.7 11.699 34.625 8.7625 18.488 32.538 5.5387 47.363 3.8262 22.688-22.05 24.398-57.364 32.211-86.764 7.4375-44.425 19.563-87.888 27.176-132.28 11.288 43.35 10.874 88.663 13.074 133.11 0.9 26.625 0.3754 56.601 17.338 78.863 22.7 17.388 48.014-11.625 72.326-3.7129 10.412 3.3375 12.575-9.6383 15.938-16.613 12.15 0.825 24.387 8.8883 36.574 4.7383 5.0375-5.2875 5.8746-13.375 11.162-18.475 12.512 0.4625 24.376 7.8109 37.014 6.3984 9.4-3.7 9.6375-15.373 15.438-22.398 13.762-3.9625 29.6 8.8242 42.162-1.4883 3.6875-7.8 1.7992-17.637 6.6367-24.762 10.35 1.075 20.838 6.6359 31.363 3.5234 6.975-7.7 3.3-19.538 4.625-28.75 9.9-0.125 20.586 4.3391 30.111 0.47656 6.4125-9.1875 7.0383-21.325 10.551-31.812 9.3875 2.15 20.125 7.3121 29.338 3.0371 5.725-7.75 4.1613-18.7 6.3613-27.713 23.075 6.2375 25.451-16.65 25.889-32.787 9.825-2.8 22.886 1.7875 30.486-6 4.425-13.55 1.5266-28.501 3.4766-42.551 9.6875 1.0875 19.45-0.22422 28.85-2.6367 2.125-14.175-2.4258-27.775-5.4258-41.375 7.125-1.85 14.012-4.4129 20.688-7.5254 2.275-10.712-4.3246-19.337-8.0996-28.574 3.025-5.5375 10.038-8.2625 12.338-14-3.275-8.0375-9.65-14.763-11.375-23.551 9.7625-4.625 22.187-5.8246 28.35-15.787 14.625-21.362 0.7383-54.2-23.324-61.625-22.225-7.5125-45.976-8.8133-69.051-12.176-85.462-12.888-171.61-19.024-257.9-22.012-0.6375-2.4625-1.2504-4.8871-1.8379-7.2871 84.412-0.475 169.04 2.8609 253.49-2.9766 27.888-2.5 60.913 4.8383 83.988-14.887 7.25-9.775 16.05-27.8 2.0996-36.375 2.2375-9.8125-1.8262-18.126-8.8262-24.676 5.15-10.113 1.2887-20.762-3.7988-29.949 12.7-12.5 4.4863-26.212-11.576-27.537 8.1625-15.125 5.4883-33.875-11.074-42.25 7.025-11.738 1.5496-26.912-11.338-31.912 4.775-18.2 1.9887-38.601-21.236-35.988 9.4875-18.15-8.15-27.637-21.625-34.412-1.8875-7.175 4.7125-17.912-1.875-24.375-8.8125-5.2125-19.738-3.6746-29.463-5.5371-3.2625-12.45-14.126-20.588-26.639-21.963 1.0375-7.8625 1.9125-15.675 0.9375-23.525-9.625-0.825-19.238-0.77422-28.812-0.13672-0.875-7.35-1.9117-14.639-3.1367-21.889-9.5375-0.425-19.075-0.73789-28.525-1.6504 0.85-7.65 7.1754-16.987 1.1504-23.574-7.3625-3.0625-15.575 0.2875-23.225-0.0625 0.5375-8.2875 5.2379-18.963-0.5371-26.113-11.175-3.8625-23.089 3.05-34.451 3.5-4.075-6.775-2.2617-17.549-10.512-21.299-9.15-2.0875-18.625 1.2125-27.838 1.1875-3.8625-20.075-24.05-11.65-37.875-13.975-0.8125-9.4-2.7996-22.212-13.475-25.062zm-6.8965 11.164c1.0105-0.0414 2.1289 0.12891 3.3711 0.56055 5.175 7.05 2.4754 18.037 8.9629 24.262 8.5875 3.775 18.486 0.52539 27.486-0.34961 3.7625 14.8 20.351 15.237 32.613 13.662 10.362-1.525 7.3246 15.176 16.475 16.514 9.3 1.2 18.751 0.875 28.176 1.375-4.15 17 7.5879 27.362 23.713 27.225-8.65 21.238 14.05 24.012 28.625 22.887 3.1875 15.938 12.962 28.5 31.938 22.4-0.6125 5.8625-5.0633 11.463-3.9258 17.301 5.625 6.6 15.663 7.2371 23.363 10.1 6.4375 14.95 18.974 23.774 35.861 21.887-2.7625 17.312 8.7133 30.275 24.801 34.287-0.5 7.6125-6.4496 15.777-3.6621 23.414 7.5875 4.075 17.275 3.4992 25.85 5.1367-9.3125 15.275-4.0504 29.938 9.9121 39.238-5.8875 15.975 5.6996 27.048 16.537 36.773-6.3875 12.138-7.5867 27.425 5.8633 34.463-5.6875 10.938-2.9887 22.15 6.3613 29.725-4.2625 9-10.561 23.051 3.6641 26.326 4.55 13.138 6.4488 28.886-0.076 41.674-23.762 13.888-52.788 5.4262-78.775 8.7637-64.625-1.275-129.26 6.6988-193.71-0.95117 20.75-9.725 42.899-16.1 63.986-25.063 4.325-1.0875 3.0008-6.4621 3.5508-9.6621-36.7 9.675-69.8 33.775-108 36.275-1.925-16.663-2.0637-33.426-4.0137-50.051 26.462-15.362 52.101-32.111 78.363-47.799 6.925-4.3125-5.0246-6.8625-8.5996-5.0625-25.638 14.425-49.812 31.575-75.25 46.375-4.95 3.5875-9.8754-0.975-13.713-3.8125 18.662-14.95 38.913-27.775 57.775-42.463-0.15-0.925-0.425-2.7633-0.5625-3.6758-23.875 7.025-42.226 24.764-62.238 38.639-7 4.6125-15.338 4.5621-22.625 0.91211 26.125-24 53.163-47.013 79.613-70.676-5.225-0.8625-10.788-1.1492-14.963 2.6758-30.862 24.875-57.588 54.674-89.238 78.574-1.5125-6.175-4.6875-13.723 1.375-18.586 19.725-22.362 41.552-42.927 61.039-65.477 3.6125-5.4875-6.5266-4.0859-9.0391-2.0234-20.212 19.712-37.875 42-58.975 60.85 2.325-29.825 34.4-47.562 49.125-72.037-17.438-2.4125-23.262 17.324-36.037 24.611 4.0875-15.212 16.1-26.512 21.25-41.225-26.162 15.65-33.3 48.2-53.1 69.662-3.2125 0.4625-6.2371-1.1488-9.2246-1.9863 16.3-34.625 37.512-67.026 52.137-102.33-10.8-1.3875-14.362 10.801-18.562 18.514-11.95 26.225-25.087 51.911-38.85 77.236-3.5125 7.55-14.25 2.2262-20.475 4.1387 0.0875-36.888 8.2992-73.088 9.6367-109.9 6.5375-54.012 22.512-106.24 29.938-160.11 6.9375-27.862 18.875-69.2 52.775-71.9 1.7086-4.6828 4.0218-11.073 9.4785-11.297zm-171.38 37.828c10.391-0.14961 21.275 4.1855 31.012 7.0566 8.975 32.9 5.45 67.551 1.75 100.99 1.9 77.775-8.9367 156.24 2.3008 233.45-10.775-3.675-22.85-5.6246-32.463-11.662-7.5625-12.788 12.588-17.037 9.5508-29.35-6.45-36-18.801-70.65-27.264-106.19-0.9375 0.0125-2.8359 0.0492-3.7734 0.0742 1.425 13.688 4.8992 27.075 6.9492 40.713-3.15-2.5125-6.1629-4.9242-9.2754-7.3242 4.425 21.812 11.125 43.099 15.1 65.049-15.338-21.538-21.261-48.736-38.736-68.799 2.25 17.675 15.586 31.836 16.299 49.961-12.7-11.662-16.937-29.886-31.262-40.023 14.775 33.938 34.85 65.787 46.1 101.2-6.1625 0.6125-10.411-3.8133-14.424-7.5508 1.675-3.9125 4.1121-8.6109 0.7871-12.336-13.35-23.475-27.289-46.988-46.264-66.426-1.3 0.45-2.575 0.93711-3.8125 1.4746 13.025 22.912 28.401 44.414 41.551 67.264-24.05-20.275-45.15-44.239-70.562-62.727-0.1625 0.9625-0.4879 2.9008-0.6504 3.8633 24.75 26.15 49.462 52.362 75.162 77.574 3.775 2.4875 1.3133 14.989-3.5742 9.6641-19.85-27.688-45.588-50.513-71.988-71.801 12.738 20.162 31.412 35.788 44.062 55.988-20.862-13.825-39.187-31.089-59.975-45.014 0.5 4.275 1.3 8.5254 2.1875 12.775-8.8875-6.4125-16.486-15.288-27.049-18.838 32.038 37.275 68.148 71.1 101.59 107.21 3.9125-13.25-8.5113-22.025-16.549-30.213-18.788-19.1-38.501-37.324-56.451-57.199 24.362 11.987 42.375 33.55 63.65 50.025 21.975 12.85 14.651 48.712 41.613 56 3.5875 31.588-1.9762 66.299 17.174 94.012 15.512 24.5 45.989 30.513 72.477 35.338-3.5625 15.312-7.1 33.725-22.062 41.85-11.4 3.325-26.225 2.9879-33.938-7.4121-12.35-13.95-6.3379-33.776-6.7754-50.514l-3.4512-0.54883c-15.75 19.525-43.373 7.8629-57.398-6.8496-4.6125-22.588 9.4-49.114 31.875-56.326-11.288-9.425-27.376 0.86328-40.426-2.1992-8.15-7.625-5.2125-20.075-5-29.938 2.5-16.25 23.788-11.838 35.051-17.988-21.15-20.237-42.875-0.12539-50.963 20.787-101.91-18.325-202.66-42.925-302.4-70.662-13.425-4.05-27.137-9.5004-36.324-20.588 10.462-8.7125 29.299-9.2984 32.887-24.461-0.5375-7.6875-2.2867-15.014-3.5117-22.514 19.775-4.175 27.775-22.287 22.938-40.912 28.175 4.0875 25.825-24.825 22.1-42.963 22.275 9.05 25.549-12.713 26.611-29.088 13.525-6.45 20.225-18.736 19.562-33.361 7.975 1.6 17.914 9.5254 25.701 3.0254 5.375-7.65 3.3379-18.001 4.2754-26.738 8.8375 0.55 21.449 8.4879 27.449-0.97461 2.325-8.7 2.7379-17.637 3.4629-26.537 8.4625 1.225 17.988 6.9746 26.525 3.5371 3.9375-7.0375 1.5238-15.812 2.4863-23.375 7.775 1.975 16.238 11.025 24.463 6.6875 5.9875-8.6125 3.8754-20.012 5.8379-29.812 7.075 0.85 14.874 5.85 21.762 2.375 5.3625-7.825 8.3129-16.863 12.838-25.113 16.775 15.55 30.224-1.8238 36.762-17.236 10.5 1.8125 19.138 9.8617 30.051 9.6367 6.8125-3.3875 10.888-10.449 17.25-14.512 6.375 2.3625 12.137 6.3996 19.287 6.4121 1.8375-2.225 3.6746-4.4258 5.5371-6.6133 5.1 2.2625 10.913 5.0371 16.613 3.4746 4.9371-3.3945 10.244-4.7029 15.688-4.7812zm-164.54 299.82c-1.442-0.0371-2.9024 0.40391-4.3711 1.5664 36.175 29.675 70.962 61.449 109.01 88.799-0.1125-5.825 0.0875-12.386-5.1875-16.049-28.362-23.45-58.162-45.113-87.225-67.676-3.7406-2.1188-7.9026-6.5293-12.228-6.6406zm245.35 27.98c10.894-0.19375 22.099 4.773 27.33 14.561 5.9875 10.625 2.2004 23.762 2.0254 35.262-25.175-1.2875-49.887-9.2613-75.162-6.6113-16.888 2.5875-30.1 14.537-41.225 26.725-24.638-4.5875-27.625-43.162-3.4629-50.162 17.925-8.625 34.201 3.6484 47.426 14.273 11.325 4.125 13.911-10.411 17.611-17.648 3.9812-10.85 14.563-16.205 25.457-16.398zm-256.88 4.998c30.075 20.288 61.536 38.749 92.961 56.924-1.4625-7.425-4.925-14.512-11.812-18.225-25.062-16.312-50.848-34.474-81.148-38.699zm476.41 16.4c-5.2375 0.075-10.438 1.0238-14.9 3.7988-26.688 15.6-54.075 29.988-80.525 46 4.0375 1.025 8.35 5.3246 12.625 2.3496 25.962-11.85 50.701-26.275 74.988-41.225 4.325-2.125 6.475-6.5613 7.8125-10.924zm-482.8 3.6875c27.262 22.2 60.438 36.137 90 55.137 3.8375 3.9375 19.014 4.5492 11.139-2.5508-31.73-20.651-64.88-41.212-101.14-52.587zm328.62 14.799c9.7375 9.7625 23.9 1.8246 34.75 7.8496 11.488 14.337 15.312 36.677 4.75 52.539-10.912 12.038-27.75 11.462-42.525 10.699 0.8875-21.15-6.4246-43.238-24.225-55.926 9.2-4.8375 18.2-10.05 27.25-15.162zm-104.91 14.363c29.7 0.4 72.55-0.1875 86.15 32.25 10.25 38.3-0.7012 91.012-43.451 103.64-43.51 11.51-88.26-29.53-85.66-73.555-8.3-29.05 13.15-60.275 42.963-62.338zm14.305 27.16c-25.234 0.03891-44.555 28.215-40.606 52.414-0.675 10.9 8.9625 20.612 20.062 18.562-1.975-6.15-5.5242-11.637-8.5742-17.225 8.575-1.5875 17.176-2.9871 25.863-3.9121-5.3375-12.312 7.8746-21.125 6.7246-33.525 8.9625 1.15 22.711 11.675 28.236 0.6875-0.9625-12.738-16.786-14.413-26.586-16.625-1.7297-0.25703-3.4389-0.37955-5.1211-0.37695zm120.5 39.1c5.5901-0.08125 10.864 1.2941 15.471 5.8145 9.9375 14.625 6.7746 39.451-9.5254 48.113-17.438 3.8375-37.5 7.6621-53.25-3.3379 4.9875-15.25 8.7879-30.875 14.275-45.938 10.533 0.96797 22.357-4.4972 33.029-4.6523zm-247.38 2.127c2.275 8.6625 8.6113 16.725 18.674 15.162-4.4875 12.138-6.0379 26.338-13.588 37-35.1 16.45-67.674 38.576-94.674 66.514 15.825-9 30.112-20.539 46.574-28.451-11.162 16.475-27.649 28.275-41.674 42.15 0.2375 1.0375 0.7117 3.0883 0.9492 4.1133 24.262-13.675 42.763-35.425 65.363-51.562 12.025-6.3125 12.95-22.888 27.188-26.375 10.65 21.562 34.148 31.574 57.023 33.074 10.938 20.562 18.988 47.562 45.375 52-11.15 98.688-26.661 197-52.924 292.85-3.4125 17.188-21.138 31.125-38.713 26.9-15.5-8.1375-8.525-31.525-21-42.25-13.362-5.6625-32.262 7.5137-40.762-9.0488-16.788-8.625-34.401-19.051-54.113-19.301-5.375-10.912-14.138-20.074-26.275-22.637-1.325-12.175-8.8-21.589-21.312-23.602-0.9625-14.462-14.138-20.988-27.65-19.75-0.8125-13.3-10.025-24.549-23.912-24.949-3.65-14.488-15.537-21.75-29.975-23.475 3.375-13.362-8.3879-22.663-20.15-25.088 7.2125-15.875-8.4504-29.225-23.65-30.312 3.375-14.675 0.8375-28.325-14.062-34.5 7.175-18.475-6.2625-35.588-22.438-43.188 9-22.238-14.387-37.976-7.7246-60.988-15.025-5.175-7.1746-22.011-12.787-32.986-4.375-9.4-4.6879-21.175-0.0254-30.438 22.362-11.888 48.85-11.625 73.5-12.838 84.2-2.6 168.94 2.1871 252.76-8.0254zm280.6 8.8379c94.362-0.375 188.45 12.149 281.86 25.012 16.125 3.5625 44.277 6.0891 42.414 28.852 0.5125 6.8125 6.4109 14.486 2.0859 21.148-7.1875 8.6375-22.3 3.2883-29 12.801-6.375 11.8 11.888 22.812 2.75 33.574-9.425 9.7875-1.8238 21.276 2.0762 31.488-26.162 3.7625-16.95 29.912-12.588 47.75-8.825 0.9125-21.451-1.8617-27.613 6.6133-4.8375 12.475-2.8867 26.386-3.9492 39.523-9.825 1.3125-19.749 2.2633-28.949 6.1758-3.8625 8.825-6.0375 18.2-8.5625 27.475-19.225-5.825-23.3 14.6-23.625 29.1-8.7625-0.3-18.126-3.6496-26.639-0.91211-9.2625 7.8-9.6996 21.001-12.475 32.051-9.3375 1.225-19.176-8.6258-27.488-1.6758-6.4 8.05-8.1121 18.525-10.975 28.162-9.4-0.325-19.25-7.5242-28.225-2.5117-7.3875 7.225-5.8379 18.338-8.0254 27.625-12.35-0.5-24.561-4.9258-36.924-2.8008-8.8875 3.675-9.9766 15.189-14.414 22.664-13.275-0.425-25.462-6.4016-38.574-7.4766-7.075 5.875-10.15 14.888-14.725 22.625-15.25-7.2875-39.714-16.174-43.889 8.4258-20.962-9.0125-40.462 4.7129-60.574 7.7129-13.912-4.05-12.063-22.064-14.588-33.389-6.525-91.262-14.7-182.7-11.9-274.27 7.5875 21.062 11.126 43.825 23.051 63.162-2.65-24.675-9.8992-48.537-14.574-72.85 2.6625-0.725 5.3371-1.3879 8.0371-2.0254 2.025-7.3625 4.1504-14.576 6.1504-21.889 8.7125 7.075 21.425 13.526 20.875 26.363 9.5125 27.125 19.811 54.187 32.236 80.137-2-31.825-20.737-59.137-25.662-90.262 9.1125 0.075 18.388-0.81211 27.525 0.33789 19.038 24.2 33.599 52.063 53.861 75.463 2.475 3.0875 5.2375 0.29922 7.3125-1.6758-17.488-25.988-36.662-51.025-52.574-77.912 1.45-6.2625 7.7371-10.862 11.35-16.287 28.738 16.2 41.001 51.437 69.764 68.762 0.325-3.5875 1.0742-7.7883-1.9883-10.488-18.838-21.975-39.3-42.512-58.213-64.412-3.1125-3.3625-3.1242-8.225-3.4492-12.438 26.712 22.35 43.936 54.55 72.736 74.4-15.462-36.8-53.774-59.651-75.574-93.051 21.938-7.3625 35.075 14.826 50.4 25.801 17.675 13.125 32.925 29.988 52.312 40.625 2.125-3.4875 3.4246-8.3117-0.5879-11.012-25.125-19.612-51.1-38.188-74.875-59.463 3.575-2.4625 6.8633-8.9254 11.988-6.5879 26.25 14.738 50.298 33.201 75.836 49.051 2.075-16.75-18.712-21.376-26.199-33.576 12.975 5.075 23.975 15.412 38.4 16.5-19.075-22.65-48.464-38.387-77.201-45.162 1.4625 3.925 2.9625 7.7492 4.5 11.762-3.85-1.8625-7.5367-4.0109-11.012-6.4609 8.7625-12.238 5.6879-28.513 8.0879-42.551zm-287.38 5.0996c-34.988 6.025-74.025 11.601-103.22 32.076 35.562-5.25 71.975-13.751 103.22-32.076zm296.54 4.9375c32.325 18.362 68.076 31.851 104.36 39.676-1.7875-4.5-5.3508-7.7887-10.176-8.8262-30.812-11.838-60.925-27.325-94.188-30.85zm-277.76 10.062c-36.738 3.1125-72.014 18.987-102.98 38.35 16.938-3.525 32.939-10.687 49.977-13.787-19.225 12.888-40.038 23.326-59.926 35.176 0.1875 0.9625 0.5754 2.8988 0.7754 3.8613 31.688-15.4 65.361-28.712 94.299-48.949-6.4 1.1625-12.762 2.5371-19.162 3.5371 10.438-9.425 25.739-9.9375 37.014-18.188zm275.86 3.263c22.36 15.025 45.07 31.845 72.33 36.385-21.78-16.02-46.31-28.872-72.33-36.385zm-95.037 26.324c12.788 6.425 28.962 15.162 27.1 32.125-0.65 22.762-29.912 27.462-46.938 20.562-7.15-8.05-8.3012-19.35-12.639-28.812 10.462-8.45 21.652-15.925 32.477-23.875zm-186.61 29.061c-0.9849-0.0129-2.0625 0.26367-2.8242 0.87695-27.3 12.175-42.225 39.487-59.312 62.387 0.9125 0.8625 1.85 1.775 2.8125 2.75 20.4-20.375 40.312-41.249 60.074-62.236 3.1281-2.3203 1.4167-3.749-0.75-3.7773zm11.438 13.34c-26.475 9.0125-44.874 34.862-51.012 61.449 17.65-19.888 34.674-40.462 51.012-61.449zm31.67 9.2578c-2.5816 0.0714-5.0512 0.77539-7.1074 2.5801-21.362 20.062-34.738 47.937-38.188 76.949 16.688-26.95 27.6-59.162 55.162-77.662-3.0445-1.0055-6.548-1.959-9.8672-1.8672zm18.5 13.52c-3.7 0.1375-7.8516 0.16094-10.102 3.4609-19.05 23.662-29.748 53.026-34.898 82.701 16.125-27.988 31.438-56.85 45-86.162zm93.799 8.25c-1.3125 0.9625-2.5988 1.9609-3.8613 3.0234 6.725 25.212 13.825 50.325 20.725 75.5 6.3-27.25-7.9508-53.373-16.863-78.523zm39.125 0.59961c-5.4 32.55 17.201 61.988 31.488 89.775 2.8125-32.788-18.501-61.075-31.488-89.775zm-112.55 8.15c-20.85 22.262-41.277 51.012-39.664 82.824 5.65-11.3 10.988-22.862 19.15-32.625-2.775 14.95-11.962 31.037-3.7617 45.725 5.7125-20.625 18.874-39.388 20.486-60.588-4.3875 2.825-8.6996 5.7766-13.037 8.6641 3.825-14.538 27.576-30.388 16.826-44z"/>
</g>
</svg>
