<?xml version="1.0" encoding="UTF-8" standalone="no"?>
<svg xmlns:rdf="http://www.w3.org/1999/02/22-rdf-syntax-ns#" xmlns="http://www.w3.org/2000/svg" height="747" viewBox="0 0 1739 747" width="1739" version="1.1" xmlns:cc="http://creativecommons.org/ns#" xmlns:dc="http://purl.org/dc/elements/1.1/">
<path d="m863.15 740.47c-1.6522-1.3902-4.8502-6.2277-7.1065-10.75-2.2564-4.5223-5.4266-9.7314-7.0448-11.576-3.4616-3.9454-3.3058-4.4459 5.2559-16.887 13.291-19.313 22.221-16.742 36.083 10.387 1.5704 3.0734 1.5394 3.2243-1.3346 6.5-1.6183 1.8445-4.7884 7.0536-7.0448 11.576-4.54 9.09-8.63 13.28-12.96 13.28-1.5857 0-4.1772-1.1196-5.8506-2.5277zm-411.15-7.83c0-2.4346 7.9551-10.475 18.84-19.042 23.692-18.647 32.824-30.186 68.925-87.099l10.149-16 12.001-3.329c41.703-11.568 73.58-31.671 121.3-76.497 14.496-13.617 14.311-13.949-1.8517-3.3296-126 82.789-245.45 96.455-309.89 35.453-10.224-9.6781-10.202-10.32 0.14638-4.1863 37.798 22.406 73.653 24.228 96.278 4.8925 3.6887-3.1524 5.9007-4.3866 7-3.9059 30.533 13.351 91.162 9.6665 137.11-8.3331 45.925-17.992 80.789-40.762 166.5-108.74 22.876-18.145 28.5-22.081 28.5-19.951 0 2.0947-15.746 21.783-29.535 36.93-51.386 56.446-67.475 79.324-78.028 110.95-10.546 31.607-8.2014 54.96 7.8074 77.769 1.0108 1.4402 0.71214 2.2524-1.8387 5-12.597 13.568-12.527 32.603 0.21556 58.602 5.4858 11.193 5.4037 11.352-3.4678 6.6896-50.227-26.394-48.897-109.43 3.0144-188.2 8.9052-13.512 9.1323-13.579-9.6678 2.847-51.73 45.2-79.53 79.78-93.55 116.34l-2.6833 7-10.383 2.5582c-31.032 7.6458-49.9 17.191-89.892 45.474-31.99 22.63-46.99 31.6-46.99 28.11zm822.95-4.2084c-11.297-6.657-15.663-9.5603-35.94-23.901-39.991-28.283-58.859-37.828-89.892-45.474l-10.383-2.5582-2.6833-7c-14.017-36.565-41.821-71.142-93.551-116.34-18.8-16.426-18.573-16.359-9.6678-2.847 51.912 78.764 53.242 161.8 3.0143 188.2-8.8715 4.6619-8.9537 4.5034-3.4678-6.6896 12.742-25.999 12.812-45.034 0.2155-58.602-2.5508-2.7476-2.8495-3.5598-1.8387-5 16.009-22.81 18.353-46.163 7.8074-77.769-10.6-31.63-26.7-54.5-78.06-110.95-13.79-15.15-29.54-34.84-29.54-36.93 0-2.13 5.6235 1.8068 28.5 19.951 85.711 67.982 120.57 90.752 166.5 108.74 45.945 18 106.57 21.685 137.11 8.3331 1.0993-0.48072 3.3113 0.7535 7 3.9059 22.625 19.335 58.48 17.513 96.278-4.8925 10.348-6.1341 10.371-5.4918 0.1464 4.1863-64.444 61.001-183.89 47.336-309.9-35.453-16.163-10.62-16.348-10.287-1.8517 3.3296 47.72 44.826 79.597 64.929 121.3 76.497l12.001 3.329 10.149 16c36.101 56.913 45.233 68.452 68.925 87.099 21.325 16.784 25.906 25.509 7.7883 14.833zm-488-24.95c-62.387-12.747-69.092-113.34-11.921-178.86 18.551-21.261 58.985-61.024 65.482-64.395 23.062-11.966 20.927 1.3433-4.334 27.013-8.1 8.231-19.452 19.768-25.227 25.638-47.888 48.675-66 80.233-66 115 0 50.842 67.672 82.919 101.79 48.251 31.152-31.653 5.287-99.604-30.015-78.852-12.397 7.2876-14.491 28.11-5.021 49.946 3.7815 8.7194 0.0204 8.3254-10-1.0476-31.111-29.101 20.505-81.347 52.56-53.202l3.6846 3.2351-0.0151-4.3536c-0.0824-23.84-25.913-31.87-59.115-18.379-8.0445 3.2688-8.2249 3.2389-7.3957-1.2248 2.1197-11.411 24.254-39.25 31.206-39.25 5.0555 0 13.991 7.096 22.617 17.961 15.385 19.378 16.276 19.676 15.397 5.1446-0.67129-11.096-3.1088-19.351-10.528-35.656-7.5925-16.687-7.8633-14.591 3.3912-26.255 15.026-15.573 15.859-15.573 30.885 0 11.254 11.664 10.984 9.5679 3.3912 26.255-7.4188 16.305-9.8562 24.561-10.528 35.656-0.87912 14.531 0.0121 14.233 15.397-5.1446 8.63-10.86 17.56-17.96 22.62-17.96 6.9523 0 29.086 27.839 31.206 39.25 0.82921 4.4637 0.64884 4.4936-7.3957 1.2248-33.203-13.491-59.033-5.4608-59.115 18.379l-0.0151 4.3536 3.6846-3.2351c32.055-28.145 83.671 24.102 52.56 53.202-10.021 9.373-13.782 9.767-10 1.0476 18.895-43.568-19.623-77.497-42.076-37.063-24.237 43.647 11.8 90.945 59.352 77.899 56.438-15.484 65.57-73.337 20.984-132.94-17.385-23.239-84.958-91.251-115.53-116.28-49.391-40.435-59.671-53.464-43.859-55.585 7.0663-0.9478 43.832 24.845 60.385 42.362 1.65 1.7462 8.175 7.7952 14.5 13.442 16.135 14.405 32.772 30.8 35.454 34.938 1.2477 1.925 11.285 12.743 22.304 24.039 40.079 41.085 49.705 55.681 57.82 87.669 17.54 69.144-4.337 115.91-55.666 118.99-21.915 1.3158-31.885-3.4181-62.019-29.447-4.6163-3.9874-8.6183-7.2499-8.8933-7.2499s-4.277 3.2624-8.8933 7.2499c-32.78 28.32-46.6 33.66-73.11 28.24zm-335-165.07c-31.597-3.7583-47.908-10.04-78.742-30.324-33.347-21.937-58.759-29.408-75.671-22.247-4.8434 2.051-5.276 0.0751-1.6507-7.541 5.9056-12.407 12.453-17.888 22.044-18.454 5.9224-0.34945 5.8774-1.3566-0.53522-11.967-21.897-36.23-44.297-53.908-70.431-55.587-29.575-1.8993-51.109 20.863-36.008 38.062 11.371 12.95 36.611-0.32519 34.567-18.181-0.70838-6.191 1.0744-6.874 4.82-1.8465 7.5664 10.156-4.8012 35.803-19.326 40.076-33.663 9.9023-47.328-42.485-16.242-62.266 28.703-18.264 85.316 10.683 119.45 61.077 5.5059 8.129 7.0484 8.9946 7.5008 4.2095 2.9656-31.37 21.312-60.398 40.409-63.938 6.3898-1.1844 6.1732 0.26988-1.2607 8.4629-59.599 65.685-12.71 132.16 90.076 127.7 66.042-2.8666 155.77-46.684 271.5-132.58 4.95-3.674 13.275-9.7787 18.5-13.566 5.225-3.7872 13.357-10.071 18.071-13.964 4.7143-3.8931 12.286-9.768 16.827-13.055 4.5406-3.2874 17.736-13.29 29.322-22.227 21.321-16.446 27.564-19.644 30.158-15.446 4.9629 8.0301-34.12 46.47-72.052 70.868-1.5545 0.99983-11.601 8.391-22.326 16.425-128.72 96.424-238.23 144.73-309 136.32zm794.5-0.3539c-56.293-5.5977-136.28-43.15-231.5-108.68-42.946-29.556-46.317-32.78-45.261-43.287 0.97811-9.7356 4.2859-9.1377 21.761 3.9336 165.68 123.93 280.49 162.47 355.92 119.49 45.06-25.678 48.762-68.464 9.6544-111.57-7.4339-8.193-7.6505-9.6473-1.2607-8.4629 19.097 3.5399 37.443 32.568 40.409 63.938 0.4523 4.7848 1.9945 3.9198 7.5046-4.2095 34.179-50.426 90.736-79.345 119.45-61.077 31.086 19.781 17.421 72.168-16.242 62.266-14.524-4.2725-26.892-29.919-19.326-40.076 3.7456-5.0275 5.5284-4.3445 4.82 1.8465-2.5807 22.555 32.523 32.676 38.514 11.104 7.1613-25.788-34.67-40.682-65.94-23.477-23.322 12.832-58.11 59.271-44.981 60.046 9.5912 0.56592 16.139 6.047 22.044 18.454 3.6253 7.6161 3.1928 9.592-1.6507 7.541-16.907-7.1597-42.3 0.30305-75.671 22.239-40.138 26.385-72.322 34.544-118.24 29.978zm-730.89-51.31c-0.23603-1.2375-0.9687-6.075-1.6281-10.75-8.1797-57.989-34.695-89.835-79.569-95.565-4.6502-0.59381-5.1935-0.9416-6.3147-4.0424-2.2122-6.1178 0.0695-10.03 6.3147-10.828 44.874-5.7302 71.389-37.576 79.569-95.565 1.8689-13.249 1.783-13 4.4809-13 11.856 0 45.063 16.392 42.861 21.157-3.7227 8.0546-37.96 43.103-65.785 67.343-21.345 18.595-22.089 19.283-21.493 19.878 0.29584 0.29584 4.3443-0.0846 8.9966-0.84544 38.494-6.2952 60.154-18.229 103.46-57.002 6.6-5.9093 13.21-11.607 14.688-12.661l2.688-1.917 3.3959 2.9816c1.8677 1.6399 8.7133 5.558 15.212 8.707 21.487 10.411 23.514 14.469 10.513 21.046-22.043 11.151-39.169 17.383-106.5 38.754-16.823 5.3398 19.328 5.9771 62 1.0929 23.341-2.6716 57.089-9.4039 73-14.563 1.65-0.53496 7.2404-2.3109 12.423-3.9465l9.4232-2.9738 4.6354 4.3358c2.5494 2.3847 9.6247 6.8879 15.723 10.007 23.294 11.915 23.268 17.138-0.14597 29.233-6.0178 3.1087-13.027 7.6033-15.577 9.988l-4.6354 4.3358-9.4232-2.9738c-5.1827-1.6356-10.773-3.4115-12.423-3.9465-9.5912-3.1096-34.888-8.7642-53.5-11.959-27.046-4.6423-89.072-7.8547-88.249-4.5705 0.1378 0.55 3.2878 1.9634 7 3.1408 120.89 38.345 129.18 43.514 95.734 59.718-6.4991 3.149-13.345 7.0671-15.212 8.707l-3.3959 2.9816-2.688-1.917c-1.48-1.03-8.09-6.73-14.69-12.64-43.305-38.773-64.965-50.707-103.46-57.002-4.6523-0.76083-8.7008-1.1413-8.9966-0.84544-0.59524 0.59524 0.14806 1.2827 21.493 19.878 42.267 36.821 69.804 67.421 64.415 71.577-12.499 9.6415-43.356 19.851-44.344 14.673zm690.6-1.269c-18.573-6.1749-31.314-13.784-29.533-17.638 3.7227-8.0546 37.96-43.103 65.785-67.343 21.345-18.595 22.089-19.283 21.493-19.878-0.2958-0.29584-4.3443 0.0846-8.9966 0.84544-38.494 6.2952-60.154 18.229-103.46 57.002-6.6 5.9093-13.21 11.607-14.688 12.661l-2.6879 1.917-3.3959-2.9816c-1.8677-1.6399-8.7133-5.558-15.212-8.707-21.487-10.411-23.514-14.469-10.513-21.046 22.043-11.151 39.169-17.383 106.5-38.754 16.823-5.3398-19.328-5.9771-62-1.0929-23.341 2.6716-57.089 9.4039-73 14.563-1.65 0.53496-7.2404 2.3109-12.423 3.9465l-9.4231 2.9738-4.6354-4.3358c-2.5494-2.3847-9.6247-6.8879-15.723-10.007-23.294-11.915-23.268-17.138 0.146-29.233 6.0178-3.1087 13.027-7.6033 15.577-9.988l4.6354-4.3358 9.4231 2.9738c5.1828 1.6356 10.773 3.4115 12.423 3.9465 9.5912 3.1096 34.888 8.7642 53.5 11.959 27.046 4.6423 89.072 7.8547 88.25 4.5705-0.1378-0.55-3.2878-1.9634-7-3.1408-120.89-38.345-129.18-43.514-95.734-59.718 6.4991-3.149 13.345-7.0671 15.212-8.707l3.3959-2.9816 2.6879 1.917c1.4784 1.0543 8.088 6.7519 14.688 12.661 43.305 38.773 64.965 50.707 103.46 57.002 4.6523 0.76083 8.7008 1.1413 8.9966 0.84544 0.5953-0.59524-0.148-1.2827-21.493-19.878-27.825-24.24-62.062-59.288-65.785-67.343-2.2-4.78 31-21.17 42.8-21.17 2.6979 0 2.612-0.24928 4.4809 13 8.1797 57.989 34.695 89.835 79.569 95.565 6.2453 0.7975 8.527 4.7099 6.3148 10.828-1.1213 3.1008-1.6646 3.4486-6.3148 4.0424-44.874 5.7302-71.389 37.576-79.569 95.565-1.8985 13.459-1.7309 13.006-4.7883 12.951-1.502-0.027-7.3612-1.5884-13.02-3.4699zm-779.31-10.85c-24.355-8.5977-31.825-30.632-14.44-42.594 6.121-4.2114 6.2478-4.1038 6.7417 5.7181 0.79798 15.869 8.1608 24.25 21.305 24.25 32.158 0 31.098-57.588-1.25-67.932-8.0355-2.5697-8.9375-3.6604-3.8207-4.6204 19.701-3.696 40.499 20.967 40.556 48.093 0.0605 28.828-23.043 46.281-49.092 37.086zm857.84-0.0458c-34.71-14.274-27.847-76.713 9.3075-84.681 11.6-2.4877 15.298 0.78411 4.7123 4.1692-32.3 10.34-33.4 67.93-1.2 67.93 13.14 0 20.487-8.3676 21.292-24.25 0.4975-9.822 0.6241-9.9294 6.745-5.7181 26.452 18.199-9.328 55.497-40.816 42.548zm-1209.7-43.37c0-0.56209 3.0375-3.2549 6.75-5.9841 25.63-18.841 58.803-31.897 107.53-42.323 6.6146-1.4152 8.662-0.53915 6.8133 2.9151-1.1829 2.2103-7.6152 4.87-18.597 7.6896-8.7295 2.2414-10.172 3.3768-8.415 6.6245 4.8442 8.9554-0.37081 26.777-7.4586 25.489-21.565-3.9196-60.24-1.1946-84.376 5.9452-1.2998 0.38448-2.25 0.23396-2.25-0.3564zm1583-0.3386c-14.914-5.969-61.268-8.9505-81.626-5.2502-7.0878 1.2883-12.303-16.534-7.4586-25.489 1.7568-3.2477 0.3145-4.3831-8.415-6.6245-10.982-2.8196-17.414-5.4793-18.597-7.6896-1.8487-3.4543 0.1987-4.3303 6.8133-2.9151 48.73 10.426 81.904 23.482 107.53 42.323 8.2353 6.054 9.0093 8.5507 1.75 5.6455zm-773.5-1.7666c-9.2706-2.2166 39.949-48.804 82.5-78.088 1.925-1.3248 9.35-6.7468 16.5-12.049 79.877-59.233 171.18-109.37 225.5-123.83 61.262-16.308 106.36-9.7139 155.74 22.775 33.347 21.937 58.759 29.408 75.671 22.247 4.8435-2.051 5.276-0.0751 1.6507 7.541-5.9056 12.407-12.453 17.888-22.044 18.454-5.9224 0.34945-5.8773 1.3566 0.5352 11.967 21.897 36.23 44.297 53.908 70.431 55.587 29.575 1.8993 51.109-20.863 36.008-38.062-11.37-12.95-36.611 0.32519-34.568 18.181 0.7084 6.191-1.0744 6.874-4.82 1.8465-7.5665-10.156 4.8012-35.803 19.326-40.076 33.663-9.9023 47.328 42.485 16.242 62.266-28.703 18.264-85.316-10.683-119.45-61.077-5.5059-8.129-7.0483-8.9946-7.5007-4.2095-2.9657 31.37-21.312 60.398-40.409 63.938-6.3898 1.1844-6.1732-0.26988 1.2607-8.4629 59.599-65.685 12.71-132.16-90.076-127.7-61.498 2.6693-143.88 40.998-247.5 115.16-29.085 20.814-87.971 66.006-99 75.977-4.4 3.9777-10.469 8.4812-13.486 10.008-3.0173 1.5266-7.1211 3.8079-9.1196 5.0694-4.1816 2.6397-9.0862 3.5696-13.394 2.5395zm-482-16.025c-7.4441-1.8207-7.1602-1.0286-7.7223-21.54-0.27947-10.198-0.27938-26.888 0.00019-37.09l0.50832-18.548 2.9628-1.5321c6.3614-3.2896 20.276-1.7333 21.884 2.4477 3.0037 7.8089 3.0125 64.531 0.0112 72.333-1.0301 2.6776-1.3044 2.7749-12.144 4.3093-1.375 0.19464-3.85 0.0237-5.5-0.37988zm927 0.41639c-0.55-0.18708-3.1604-0.63155-5.801-0.98771-6.2992-0.84966-6.6236-1.7941-7.8168-22.76-2.8828-50.652 3.659-65.83 23.869-55.379l2.9629 1.5321 0.5083 18.548c0.2795 10.202 0.2795 26.895 0 37.097l-0.5083 18.548-2.6069 1.318c-2.8144 1.4229-8.9847 2.6345-10.607 2.0828zm-469.5-15.55c-23.357-12.819-28.138-24.459-15.25-37.127 21.099-20.738 27.401-20.738 48.5 0 12.829 12.609 7.1762 25.904-15.967 37.555-6.7225 3.3842-10.507 3.2904-17.283-0.42847zm-544.5-2.2941c-15.668-7.2921-13.259-43.167 3.1053-46.237 28.155-5.282 43.848 31.376 18.726 43.744-7.3643 3.6254-17.027 4.729-21.831 2.4933zm1090.9-0.0666c-27.117-8.4885-23.618-42.398 4.7685-46.208 14.748-1.9798 21.156 5.175 21.156 23.624 0 20.109-8.9435 27.9-25.924 22.585zm-1357.9-10.69c-52.376-4.289-51.088-19.631 2.0044-23.873 19.193-1.5334 35.301-0.28892 82.496 6.3735 9.625 1.3588 23.238 3.0233 30.25 3.6989 7.0125 0.67565 12.75 1.5302 12.75 1.8989 0 0.36875-5.7375 1.2233-12.75 1.8989-7.0125 0.67565-20.625 2.3402-30.25 3.6989-31.162 4.3991-39.689 5.4052-54.217 6.3972-15.755 1.0758-16.01 1.075-30.283-0.0938zm1608.7 0.0453c-11.679-0.78355-14.581-1.1357-49.182-5.9684-11.275-1.5748-26.238-3.4132-33.25-4.0854-7.0125-0.6722-12.75-1.5239-12.75-1.8926 0-0.36875 5.7375-1.2233 12.75-1.8989 7.0125-0.67565 20.625-2.3402 30.25-3.6989 47.195-6.6624 63.303-7.9069 82.496-6.3735 54.268 4.3358 54.338 19.585 0.1092 23.937-13.875 1.1135-13.545 1.1137-30.423-0.0187zm-1469.7-22.14c-46.02-11.3-61.47-16.48-82.5-27.65-19.115-10.15-36.899-23.43-27.75-20.73 24.136 7.1398 62.811 9.8649 84.376 5.9452 7.0878-1.2883 12.303 16.534 7.4586 25.489-1.7568 3.2477-0.3145 4.3831 8.415 6.6245 10.863 2.7891 17.41 5.4727 18.55 7.6029 2.0585 3.8463-0.56232 4.679-8.5503 2.7166zm36.409-0.64353c-39.381-13.047-32.374-78.199 7.1596-66.569 14.524 4.2725 26.892 29.919 19.326 40.076-3.7456 5.0275-5.5284 4.3445-4.82-1.8465 2.5807-22.555-32.523-32.676-38.514-11.104-7.1614 25.788 34.67 40.682 65.94 23.477 23.322-12.832 58.11-59.271 44.981-60.046-9.5911-0.56592-16.139-6.047-22.044-18.454-3.6253-7.6161-3.1928-9.592 1.6507-7.541 16.912 7.1616 42.324-0.30945 75.671-22.247 87.273-57.413 183.13-35.909 349.24 78.348 49.62 34.13 57.796 42.55 44.432 45.756-7.9176 1.8994-11.344 0.71585-22.943-7.9258-164.31-122.41-278.37-160.37-353.41-117.6-45.06 25.678-48.762 68.464-9.6544 111.57 7.4339 8.193 7.6505 9.6473 1.2607 8.4629-19.097-3.5399-37.443-32.568-40.409-63.938-0.45239-4.7852-1.9948-3.9195-7.5008 4.2095-29.785 43.975-81.861 74.824-110.37 65.38zm1317.6 0.85358c-2.02-3.2684 4.2503-6.7457 18.987-10.53 8.7295-2.2414 10.172-3.3768 8.415-6.6245-4.8442-8.9554 0.3708-26.777 7.4586-25.489 21.565 3.9196 60.24 1.1946 84.376-5.9452 4.1414-1.2251 2.3412 1.3113-4.5 6.3405-24.856 18.272-54.485 30.271-100.63 40.755-12.19 2.7692-13.245 2.8808-14.103 1.4932zm-618.05-2.5c-5-2.5-23.8-16.83-39.45-30.06-11.36-9.61-97.78-96.08-108.93-108.99-68.11-78.89-41.49-197.23 40.27-179.04 13.579 3.0211 20.679 7.5122 44.765 28.317 4.6163 3.9874 8.6183 7.2499 8.8933 7.2499s4.277-3.2625 8.8933-7.2499c24.086-20.805 31.186-25.296 44.765-28.317 81.703-18.177 108.47 100.77 40.263 178.94-18.551 21.261-58.985 61.024-65.482 64.395-23.062 11.966-20.927-1.3433 4.334-27.013 8.1-8.231 19.452-19.768 25.227-25.638 47.888-48.675 66-80.233 66-115 0-50.842-67.672-82.919-101.79-48.251-31.152 31.653-5.287 99.604 30.015 78.852 12.397-7.2876 14.491-28.11 5.021-49.946-3.7815-8.7194-0.0204-8.3254 10 1.0476 31.111 29.101-20.505 81.347-52.56 53.202l-3.68-3.23 0.0151 4.3536c0.0824 23.84 25.913 31.87 59.115 18.379 8.0445-3.2688 8.2249-3.2389 7.3957 1.2248-2.1197 11.411-24.254 39.25-31.206 39.25-5.0555 0-13.991-7.096-22.617-17.961-15.385-19.378-16.276-19.676-15.397-5.1446 0.67129 11.096 3.1088 19.351 10.528 35.656 7.5925 16.687 7.8633 14.591-3.3912 26.255-15.026 15.573-15.859 15.573-30.885 0-11.254-11.664-10.984-9.5679-3.3912-26.255 7.4188-16.305 9.8562-24.561 10.528-35.656 0.87912-14.531-0.0121-14.233-15.397 5.1446-8.63 10.87-17.56 17.97-22.62 17.97-6.9523 0-29.086-27.839-31.206-39.25-0.82921-4.4637-0.64884-4.4936 7.3957-1.2248 33.203 13.491 59.033 5.4608 59.115-18.379l0.0151-4.3536-3.6846 3.2351c-32.055 28.145-83.671-24.102-52.56-53.202 10.021-9.373 13.782-9.767 10-1.0476-18.895 43.568 19.623 77.497 42.076 37.063 24.237-43.647-11.8-90.945-59.352-77.899-56.437 15.483-65.558 73.199-21.007 132.94 18.055 24.209 79.439 85.98 114.9 115.62 29.605 24.748 53.877 47.822 53.428 50.792-0.80085 5.307-10.718 7.0537-18.353 3.2326zm-489.7-4.16c-3.2299-0.94364-1.7961-2.0991 5.5-4.4323 32.36-10.34 33.41-67.93 1.24-67.93-13.14 0-20.487 8.3676-21.292 24.25-0.4975 9.822-0.62409 9.9294-6.7449 5.7181-25.989-17.881 8.2893-54.764 39.904-42.936 40.028 14.976 22.094 97.223-18.607 85.332zm858.98-0.45268c-36.544-8.6096-41.83-71.882-7.0918-84.879 31.614-11.828 65.893 25.055 39.904 42.936-6.1209 4.2112-6.2475 4.1039-6.745-5.7181-0.8044-15.882-8.1513-24.25-21.292-24.25-32.166 0-31.115 57.586 1.2402 67.932 11.434 3.6564 6.4913 6.9262-6.0155 3.9796zm-492.7-35.62c-2.475-1.9539-9-7.0599-14.5-11.347-5.5-4.2867-18.1-14.189-28-22.006-122.82-96.97-215.42-129.92-282.61-100.54-1.0993 0.48072-3.3113-0.7535-7-3.9059-22.625-19.335-58.48-17.513-96.278 4.8925-10.348 6.1341-10.371 5.4918-0.14638-4.1863 64.444-61.001 183.89-47.336 309.89 35.453 16.163 10.62 16.348 10.287 1.8517-3.3296-47.72-44.826-79.597-64.929-121.3-76.497l-11.99-3.33-10.15-16c-36.1-56.913-45.23-68.452-68.92-87.099-13.71-10.792-22.21-20.401-18.04-20.401 2.5016 0 23.143 13.169 46.19 29.468 39.991 28.283 58.859 37.828 89.892 45.474l10.39 2.558 2.6833 7c14.017 36.565 41.821 71.142 93.551 116.34 18.8 16.426 18.573 16.359 9.6678 2.847-51.912-78.764-53.242-161.8-3.0144-188.2 8.8715-4.6619 8.9537-4.5033 3.4678 6.6896-12.742 25.999-12.812 45.034-0.21556 58.602 2.5509 2.7476 2.8496 3.5598 1.8387 5-16.009 22.81-18.353 46.163-7.8074 77.769 10.552 31.626 26.642 54.504 78.028 110.95 25.377 27.876 36.87 45.11 22.535 33.793zm131 3.137c0-2.0947 15.746-21.783 29.535-36.93 51.386-56.446 67.475-79.324 78.028-110.95 10.546-31.607 8.2014-54.96-7.8074-77.769-1.0108-1.4402-0.7121-2.2524 1.8387-5 12.597-13.568 12.527-32.603-0.2155-58.602-5.4859-11.193-5.4037-11.352 3.4678-6.6896 50.227 26.394 48.897 109.43-3.0143 188.2-8.9053 13.512-9.1324 13.579 9.6678-2.847 51.73-45.196 79.534-79.773 93.551-116.34l2.6833-7 10.383-2.5582c31-7.646 49.9-17.191 89.9-45.474 23.1-16.299 43.7-29.468 46.2-29.468 4.1696 0-4.327 9.6094-18.038 20.401-23.692 18.647-32.824 30.186-68.925 87.099l-10.149 16-12.001 3.329c-41.703 11.568-73.58 31.671-121.3 76.497-14.496 13.617-14.311 13.949 1.8517 3.3296 126-82.789 245.45-96.455 309.9-35.453 10.224 9.6781 10.202 10.32-0.1464 4.1863-37.798-22.406-73.653-24.228-96.278-4.8925-3.6887 3.1524-5.9007 4.3866-7 3.9059-30.533-13.351-91.162-9.6665-137.11 8.3331-45.925 17.992-80.789 40.762-166.5 108.74-22.876 18.145-28.5 22.081-28.5 19.951zm-67.88-267.94c-3.8745-3.5004-12.409-15.171-15.458-21.137-1.5704-3.0734-1.5394-3.2243 1.3346-6.5 1.6183-1.8445 4.7884-7.0536 7.0448-11.576 8.878-17.793 17.036-17.793 25.914 0 2.2564 4.5223 5.4266 9.7314 7.0448 11.576 3.4616 3.9454 3.3058 4.4459-5.2559 16.887-9.8045 14.247-14.211 16.544-20.625 10.75z"/>
</svg>
