<?xml version="1.0" encoding="utf-8"?>

<!DOCTYPE svg PUBLIC "-//W3C//DTD SVG 1.1//EN" "http://www.w3.org/Graphics/SVG/1.1/DTD/svg11.dtd">
<svg version="1.1" id="Layer_1" xmlns="http://www.w3.org/2000/svg" xmlns:xlink="http://www.w3.org/1999/xlink" x="0px" y="0px"
	 viewBox="0 0 1656.098 1656.098" enable-background="new 0 0 1656.098 1656.098" xml:space="preserve">
<g>
	<path d="M1071.991,178.903c-8.074,31.14,12.65,44.616,25.252,46.559c14.55,61.09,53.915,89.96,53.915,89.96l38.364-0.971
		c-43.675-29.076-40.864-79.313-38.94-91.903c25.221-81.522,88.291-43.681,95.12-22.375c7.678-85.371-75.726-88.26-108.748-50.443
		c22.369,0,17.495,22.338,17.495,22.338c-15.503,28.142-32.014,9.749-32.014,9.749c-8.668-59.184,34.903-93.178,50.443-104.832
		C1264.791,25.996,1332,92.464,1332,92.464c16.426-5.803,20.232-29.113,20.232-29.113
		c-163.985-101.882-261.824,45.647-255.026,80.612c-48.513-75.658-100.364-39.499-118.369-14.532
		C1005.279,92.768,1078.365,154.332,1071.991,178.903z"/>
	<path d="M178.903,584.107c31.14,8.074,44.616-12.65,46.559-25.252c61.09-14.55,89.96-53.915,89.96-53.915l-0.971-38.364
		c-29.076,43.675-79.313,40.864-91.903,38.94c-81.522-25.221-43.681-88.291-22.375-95.12c-85.371-7.679-88.26,75.726-50.443,108.748
		c0-22.369,22.338-17.495,22.338-17.495c28.142,15.503,9.749,32.014,9.749,32.014c-59.184,8.668-93.178-34.903-104.832-50.443
		c-50.989-91.914,15.479-159.124,15.479-159.124c-5.803-16.426-29.113-20.232-29.113-20.232
		C-38.53,467.851,108.999,565.69,143.963,558.892c-75.658,48.513-39.499,100.365-14.532,118.369
		C92.768,650.819,154.332,577.734,178.903,584.107z"/>
	<path d="M584.107,1477.195c8.074-31.14-12.65-44.616-25.252-46.559c-14.55-61.09-53.915-89.96-53.915-89.96l-38.364,0.971
		c43.675,29.077,40.864,79.313,38.94,91.903c-25.221,81.522-88.291,43.681-95.12,22.375c-7.679,85.371,75.726,88.26,108.748,50.443
		c-22.369,0-17.495-22.338-17.495-22.338c15.503-28.142,32.014-9.749,32.014-9.749c8.668,59.184-34.903,93.178-50.443,104.832
		c-91.914,50.989-159.124-15.479-159.124-15.479c-16.426,5.803-20.232,29.113-20.232,29.113
		c163.985,101.882,261.824-45.647,255.026-80.612c48.513,75.658,100.365,39.499,118.369,14.532
		C650.819,1563.33,577.734,1501.767,584.107,1477.195z"/>
	<path d="M1477.195,1071.991c-31.14-8.074-44.616,12.65-46.559,25.252c-61.09,14.55-89.96,53.915-89.96,53.915l0.971,38.364
		c29.077-43.675,79.313-40.864,91.903-38.94c81.522,25.221,43.681,88.291,22.375,95.12c85.371,7.678,88.26-75.726,50.443-108.748
		c0,22.369-22.338,17.495-22.338,17.495c-28.142-15.503-9.749-32.014-9.749-32.014c59.184-8.668,93.178,34.903,104.832,50.443
		c50.989,91.914-15.479,159.124-15.479,159.124c5.803,16.426,29.113,20.232,29.113,20.232
		c101.882-163.985-45.647-261.824-80.612-255.026c75.658-48.513,39.499-100.364,14.532-118.369
		C1563.33,1005.279,1501.767,1078.365,1477.195,1071.991z"/>
	<path d="M1477.195,584.107c-31.14,8.074-44.616-12.65-46.559-25.252c-61.09-14.55-89.96-53.915-89.96-53.915l0.971-38.364
		c29.077,43.675,79.313,40.864,91.903,38.94c81.522-25.221,43.681-88.291,22.375-95.12c85.371-7.679,88.26,75.726,50.443,108.748
		c0-22.369-22.338-17.495-22.338-17.495c-28.142,15.503-9.749,32.014-9.749,32.014c59.184,8.668,93.178-34.903,104.832-50.443
		c50.989-91.914-15.479-159.124-15.479-159.124c5.803-16.426,29.113-20.232,29.113-20.232
		c101.882,163.985-45.647,261.824-80.612,255.026c75.658,48.513,39.499,100.365,14.532,118.369
		C1563.33,650.819,1501.767,577.734,1477.195,584.107z"/>
	<path d="M584.107,178.903c8.074,31.14-12.65,44.616-25.252,46.559c-14.55,61.09-53.915,89.96-53.915,89.96l-38.364-0.971
		c43.675-29.076,40.864-79.313,38.94-91.903c-25.221-81.522-88.291-43.681-95.12-22.375c-7.679-85.371,75.726-88.26,108.748-50.443
		c-22.369,0-17.495,22.338-17.495,22.338c15.503,28.142,32.014,9.749,32.014,9.749c8.668-59.184-34.903-93.178-50.443-104.832
		c-91.914-50.989-159.124,15.479-159.124,15.479c-16.426-5.803-20.232-29.113-20.232-29.113
		C467.851-38.53,565.69,108.999,558.892,143.963c48.513-75.658,100.365-39.499,118.369-14.532
		C650.819,92.768,577.734,154.332,584.107,178.903z"/>
	<path d="M178.903,1071.991c31.14-8.074,44.616,12.65,46.559,25.252c61.09,14.55,89.96,53.915,89.96,53.915l-0.971,38.364
		c-29.076-43.675-79.313-40.864-91.903-38.94c-81.522,25.221-43.681,88.291-22.375,95.12c-85.371,7.678-88.26-75.726-50.443-108.748
		c0,22.369,22.338,17.495,22.338,17.495c28.142-15.503,9.749-32.014,9.749-32.014c-59.184-8.668-93.178,34.903-104.832,50.443
		C25.996,1264.791,92.464,1332,92.464,1332c-5.803,16.426-29.113,20.232-29.113,20.232
		c-101.882-163.985,45.647-261.824,80.612-255.026c-75.658-48.513-39.499-100.364-14.532-118.369
		C92.768,1005.279,154.332,1078.365,178.903,1071.991z"/>
	<path d="M1071.991,1477.195c-8.074-31.14,12.65-44.616,25.252-46.559c14.55-61.09,53.915-89.96,53.915-89.96l38.364,0.971
		c-43.675,29.077-40.864,79.313-38.94,91.903c25.221,81.522,88.291,43.681,95.12,22.375c7.678,85.371-75.726,88.26-108.748,50.443
		c22.369,0,17.495-22.338,17.495-22.338c-15.503-28.142-32.014-9.749-32.014-9.749c-8.668,59.184,34.903,93.178,50.443,104.832
		c91.914,50.989,159.124-15.479,159.124-15.479c16.426,5.803,20.232,29.113,20.232,29.113
		c-163.985,101.882-261.824-45.647-255.026-80.612c-48.513,75.658-100.364,39.499-118.369,14.532
		C1005.279,1563.33,1078.365,1501.767,1071.991,1477.195z"/>
	<path d="M1488.864,1488.864c6.709-19.577,6.275-43.022-19.317-61.725c-20.458-14.984-41.055-18.541-59.508-17.1
		c-1.441,18.453,2.116,39.05,17.1,59.508C1445.841,1495.139,1469.286,1495.573,1488.864,1488.864z M167.235,1488.864
		c19.577,6.709,43.022,6.275,61.725-19.317c14.984-20.458,18.541-41.055,17.1-59.508c-18.453-1.441-39.049,2.116-59.508,17.1
		C160.959,1445.841,160.525,1469.286,167.235,1488.864z M167.235,167.235c-6.709,19.577-6.275,43.022,19.317,61.725
		c20.458,14.984,41.055,18.541,59.508,17.1c1.441-18.453-2.116-39.049-17.1-59.508C210.257,160.959,186.812,160.525,167.235,167.235
		z M1488.864,167.235c-19.577-6.709-43.022-6.275-61.725,19.317c-14.984,20.458-18.541,41.055-17.1,59.508
		c18.453,1.441,39.05-2.116,59.508-17.1C1495.139,210.257,1495.573,186.812,1488.864,167.235z M1308.97,1308.97
		c-4.01-20.656-4.03-46.607,7.079-73.225l-4.996-51.627c0,0-22.859,37.145-35.066,91.87c-54.725,12.207-91.87,35.066-91.87,35.066
		l51.627,4.996C1262.363,1304.94,1288.315,1304.961,1308.97,1308.97z M347.128,1308.97c20.656-4.01,46.607-4.03,73.225,7.079
		l51.627-4.996c0,0-37.145-22.859-91.87-35.066c-12.207-54.725-35.066-91.87-35.066-91.87l-4.996,51.627
		C351.158,1262.363,351.137,1288.315,347.128,1308.97z M347.128,347.128c4.01,20.656,4.03,46.607-7.079,73.225l4.996,51.627
		c0,0,22.859-37.145,35.066-91.87c54.725-12.207,91.87-35.066,91.87-35.066l-51.627-4.996
		C393.735,351.158,367.783,351.137,347.128,347.128z M1308.97,347.128c-20.656,4.01-46.607,4.03-73.225-7.079l-51.627,4.996
		c0,0,37.145,22.859,91.87,35.066c12.207,54.725,35.066,91.87,35.066,91.87l4.996-51.627
		C1304.94,393.735,1304.961,367.783,1308.97,347.128z"/>
	<path d="M828.049,288.145c78.926-4.008,165.59,11.172,215.181,30.494c-17.755,0-53.933,5.779-53.933,35.978
		c0,22.068,19.706,35.595,39.919,38.178l4.654-0.076c0,0,3.427-0.001,9.779-0.001c15.7-2.302,28.688-12.194,28.688-30.981
		c0-28.87-41.854-25.191-40.852-1.336c0.668,15.965,31.522,15.977,28.426-1.335c0,0,2.379,3.035,0,11.108
		c-4.449,15.078-53.466,19.376-56.137-13.476c-1.445-17.713,22.957-23.431,41.611-23.431c47.529-1.032,108.201,12.468,136.306,8.559
		c294.95-15.601,213.397-218.344,213.397-218.344c-8.741,16.511-27.194,23.309-27.194,23.309
		c28.196,75.635-29.058,116.426-44.573,129.987c-93.129,57.303-180.418,41.799-253.23,32.148c0,0,47.742-42.734-12.625-88.321
		c-42.553-32.111-92.006,5.184-84.8,45.89c-7.71-23.832-37.301-88.199-128.658-72.964c-5.52,0.922-10.835,2.058-15.958,3.383
		c-5.123-1.325-10.437-2.46-15.958-3.383c-91.357-15.236-120.948,49.132-128.658,72.964c7.206-40.706-42.248-78.002-84.8-45.89
		c-60.368,45.587-12.625,88.321-12.625,88.321c-72.812,9.651-160.101,25.155-253.23-32.148
		c-15.515-13.561-72.769-54.352-44.573-129.987c0,0-18.453-6.798-27.194-23.309c0,0-81.553,202.744,213.397,218.344
		c28.105,3.909,88.776-9.591,136.306-8.559c18.654,0,43.056,5.718,41.611,23.431c-2.67,32.852-51.687,28.554-56.137,13.476
		c-2.379-8.073,0-11.108,0-11.108c-3.096,17.312,27.759,17.3,28.426,1.335c1.002-23.855-40.852-27.534-40.852,1.336
		c0,18.787,12.987,28.679,28.687,30.981c6.351,0.001,9.779,0.001,9.779,0.001l4.654,0.076c20.213-2.583,39.919-16.11,39.919-38.178
		c0-30.199-36.178-35.978-53.933-35.978C662.459,299.317,749.123,284.138,828.049,288.145z M1367.953,828.049
		c4.008,78.926-11.172,165.59-30.494,215.181c0-17.755-5.779-53.933-35.978-53.933c-22.068,0-35.595,19.706-38.178,39.919
		l0.076,4.654c0,0,0,3.427,0.001,9.779c2.302,15.7,12.194,28.688,30.981,28.688c28.87,0,25.191-41.854,1.336-40.852
		c-15.965,0.668-15.977,31.522,1.335,28.426c0,0-3.035,2.379-11.108,0c-15.078-4.449-19.376-53.466,13.476-56.137
		c17.713-1.445,23.431,22.957,23.431,41.611c1.032,47.529-12.469,108.201-8.559,136.306
		c15.6,294.95,218.344,213.397,218.344,213.397c-16.511-8.741-23.31-27.194-23.31-27.194
		c-75.635,28.196-116.426-29.058-129.987-44.573c-57.303-93.129-41.799-180.418-32.148-253.23c0,0,42.734,47.742,88.321-12.625
		c32.111-42.553-5.184-92.006-45.891-84.8c23.832-7.71,88.199-37.301,72.964-128.658c-0.922-5.52-2.058-10.835-3.383-15.958
		c1.325-5.123,2.46-10.437,3.383-15.958c15.236-91.357-49.132-120.948-72.964-128.658c40.706,7.206,78.002-42.248,45.891-84.8
		c-45.587-60.368-88.321-12.625-88.321-12.625c-9.651-72.812-25.155-160.101,32.148-253.23
		c13.56-15.515,54.352-72.769,129.987-44.573c0,0,6.798-18.453,23.31-27.194c0,0-202.744-81.553-218.344,213.397
		c-3.909,28.105,9.591,88.776,8.559,136.306c0,18.654-5.718,43.056-23.431,41.611c-32.852-2.67-28.554-51.687-13.476-56.137
		c8.073-2.379,11.108,0,11.108,0c-17.312-3.096-17.3,27.759-1.335,28.426c23.855,1.002,27.534-40.852-1.336-40.852
		c-18.787,0-28.679,12.987-30.981,28.687c-0.001,6.351-0.001,9.779-0.001,9.779l-0.076,4.654
		c2.583,20.213,16.11,39.919,38.178,39.919c30.199,0,35.978-36.178,35.978-53.933
		C1356.781,662.459,1371.96,749.123,1367.953,828.049z M828.049,1367.953c-78.926,4.008-165.59-11.172-215.181-30.494
		c17.755,0,53.933-5.779,53.933-35.978c0-22.068-19.706-35.595-39.919-38.178l-4.654,0.076c0,0-3.428,0-9.779,0.001
		c-15.7,2.302-28.687,12.194-28.687,30.981c0,28.87,41.854,25.191,40.852,1.336c-0.668-15.965-31.522-15.977-28.426,1.335
		c0,0-2.379-3.035,0-11.108c4.449-15.078,53.466-19.376,56.137,13.476c1.445,17.713-22.957,23.431-41.611,23.431
		c-47.529,1.032-108.201-12.469-136.306-8.559c-294.95,15.6-213.397,218.344-213.397,218.344
		c8.741-16.511,27.194-23.31,27.194-23.31c-28.196-75.635,29.058-116.426,44.573-129.987
		c93.129-57.303,180.418-41.799,253.23-32.148c0,0-47.742,42.734,12.625,88.321c42.553,32.111,92.006-5.184,84.8-45.891
		c7.71,23.832,37.301,88.199,128.658,72.964c5.52-0.922,10.835-2.058,15.958-3.383c5.122,1.325,10.437,2.46,15.958,3.383
		c91.357,15.236,120.948-49.132,128.658-72.964c-7.206,40.706,42.248,78.002,84.8,45.891c60.368-45.587,12.625-88.321,12.625-88.321
		c72.812-9.651,160.101-25.155,253.23,32.148c15.515,13.56,72.769,54.352,44.573,129.987c0,0,18.453,6.798,27.194,23.31
		c0,0,81.553-202.744-213.397-218.344c-28.105-3.909-88.776,9.591-136.306,8.559c-18.654,0-43.056-5.718-41.611-23.431
		c2.67-32.852,51.687-28.554,56.137-13.476c2.379,8.073,0,11.108,0,11.108c3.096-17.312-27.759-17.3-28.426-1.335
		c-1.002,23.855,40.852,27.534,40.852-1.336c0-18.787-12.987-28.679-28.688-30.981c-6.351-0.001-9.779-0.001-9.779-0.001
		l-4.654-0.076c-20.213,2.583-39.919,16.11-39.919,38.178c0,30.199,36.178,35.978,53.933,35.978
		C993.639,1356.781,906.975,1371.96,828.049,1367.953z M288.145,828.049c-4.008-78.926,11.172-165.59,30.494-215.181
		c0,17.755,5.779,53.933,35.978,53.933c22.068,0,35.595-19.706,38.178-39.919l-0.076-4.654c0,0-0.001-3.428-0.001-9.779
		c-2.302-15.7-12.194-28.687-30.981-28.687c-28.87,0-25.191,41.854-1.336,40.852c15.965-0.668,15.977-31.522-1.335-28.426
		c0,0,3.035-2.379,11.108,0c15.078,4.449,19.376,53.466-13.476,56.137c-17.713,1.445-23.431-22.957-23.431-41.611
		c-1.032-47.529,12.468-108.201,8.559-136.306C326.227,179.457,123.483,261.01,123.483,261.01
		c16.511,8.741,23.309,27.194,23.309,27.194c75.635-28.196,116.426,29.058,129.987,44.573
		c57.303,93.129,41.799,180.418,32.148,253.23c0,0-42.734-47.742-88.321,12.625c-32.111,42.553,5.184,92.006,45.89,84.8
		c-23.832,7.71-88.199,37.301-72.964,128.658c0.922,5.52,2.058,10.835,3.383,15.958c-1.325,5.122-2.46,10.437-3.383,15.958
		c-15.236,91.357,49.132,120.948,72.964,128.658c-40.706-7.206-78.002,42.248-45.89,84.8c45.587,60.368,88.321,12.625,88.321,12.625
		c9.651,72.812,25.155,160.101-32.148,253.23c-13.561,15.515-54.352,72.769-129.987,44.573c0,0-6.798,18.453-23.309,27.194
		c0,0,202.744,81.553,218.344-213.397c3.909-28.105-9.591-88.776-8.559-136.306c0-18.654,5.718-43.056,23.431-41.611
		c32.852,2.67,28.554,51.687,13.476,56.137c-8.073,2.379-11.108,0-11.108,0c17.312,3.096,17.3-27.759,1.335-28.426
		c-23.855-1.002-27.534,40.852,1.336,40.852c18.787,0,28.679-12.987,30.981-28.688c0.001-6.351,0.001-9.779,0.001-9.779l0.076-4.654
		c-2.583-20.213-16.11-39.919-38.178-39.919c-30.199,0-35.978,36.178-35.978,53.933
		C299.317,993.639,284.138,906.975,288.145,828.049z M828.049,224.664c112.64-20.648,124.644,48.388,124.644,48.388
		c-50.052-11.973-91.399-14.503-124.644-12.282c-33.245-2.222-74.593,0.308-124.644,12.282
		C703.405,273.052,715.409,204.016,828.049,224.664z M1431.434,828.049c20.648,112.64-48.388,124.644-48.388,124.644
		c11.973-50.052,14.503-91.399,12.282-124.644c2.222-33.245-0.308-74.593-12.282-124.644
		C1383.046,703.405,1452.082,715.409,1431.434,828.049z M828.049,1431.434c-112.64,20.648-124.644-48.388-124.644-48.388
		c50.052,11.973,91.399,14.503,124.644,12.282c33.245,2.222,74.592-0.308,124.644-12.282
		C952.693,1383.046,940.689,1452.082,828.049,1431.434z M224.664,828.049c-20.648-112.64,48.388-124.644,48.388-124.644
		c-11.973,50.052-14.503,91.399-12.282,124.644c-2.222,33.245,0.308,74.592,12.282,124.644
		C273.052,952.693,204.016,940.689,224.664,828.049z M1031.302,296.325c0,0-14.659-2.106-31.049-13.561
		c-16.378-11.448-1.955-57.278,34.873-42.734c36.876,14.569,24.299,43.669,18.484,53.357
		C1047.782,303.099,1031.302,296.325,1031.302,296.325z M296.325,624.796c0,0-2.106,14.659-13.561,31.049
		c-11.448,16.378-57.278,1.955-42.734-34.873c14.569-36.876,43.669-24.299,53.357-18.484
		C303.099,608.316,296.325,624.796,296.325,624.796z M624.796,1359.773c0,0,14.659,2.106,31.049,13.561
		c16.378,11.448,1.955,57.278-34.873,42.734c-36.876-14.569-24.299-43.669-18.484-53.357
		C608.316,1352.999,624.796,1359.773,624.796,1359.773z M1359.773,1031.302c0,0,2.106-14.659,13.561-31.049
		c11.448-16.378,57.278-1.955,42.734,34.873c-14.569,36.876-43.669,24.299-53.357,18.484
		C1352.999,1047.782,1359.773,1031.302,1359.773,1031.302z M1362.711,602.488c9.688-5.816,38.788-18.393,53.357,18.484
		c14.544,36.828-31.286,51.25-42.734,34.873c-11.455-16.389-13.561-31.049-13.561-31.049S1352.999,608.316,1362.711,602.488z
		 M602.488,293.387c-5.816-9.688-18.393-38.788,18.484-53.357c36.828-14.544,51.25,31.286,34.873,42.734
		c-16.389,11.455-31.049,13.561-31.049,13.561S608.316,303.099,602.488,293.387z M293.387,1053.61
		c-9.688,5.816-38.788,18.393-53.357-18.484c-14.544-36.828,31.286-51.25,42.734-34.873c11.455,16.389,13.561,31.049,13.561,31.049
		S303.099,1047.782,293.387,1053.61z M1053.61,1362.711c5.816,9.688,18.393,38.788-18.484,53.357
		c-36.828,14.544-51.25-31.286-34.873-42.734c16.389-11.455,31.049-13.561,31.049-13.561S1047.782,1352.999,1053.61,1362.711z"/>
	<path d="M1349.179,85.508c-5.233,6.981-18.344,21.78-37.453,1.154c-4.613-4.99-8.401-13.761-8.401-13.761
		s-13.088,34.096,12.99,59.227c21.015,20.263,52.55,12.42,66.493-1.53c13.949-13.949,29.034-44.324,6.877-70.304
		c-26.484-31.068-68.392-14.144-68.392-14.144s14.52,1.166,25.598,8.802C1357.969,62.581,1357.21,74.812,1349.179,85.508z"/>
	<path d="M85.508,306.919c6.981,5.233,21.78,18.344,1.154,37.453c-4.99,4.613-13.761,8.401-13.761,8.401s34.096,13.087,59.227-12.99
		c20.263-21.015,12.42-52.55-1.53-66.493c-13.949-13.949-44.324-29.034-70.304-6.877c-31.068,26.484-14.144,68.392-14.144,68.392
		s1.166-14.52,8.802-25.598C62.581,298.129,74.812,298.888,85.508,306.919z"/>
	<path d="M306.919,1570.59c5.233-6.981,18.344-21.78,37.453-1.154c4.613,4.99,8.401,13.761,8.401,13.761s13.087-34.096-12.99-59.227
		c-21.015-20.263-52.55-12.42-66.493,1.53c-13.949,13.949-29.034,44.324-6.877,70.304c26.484,31.068,68.392,14.144,68.392,14.144
		s-14.52-1.166-25.598-8.802C298.129,1593.517,298.888,1581.286,306.919,1570.59z"/>
	<path d="M1570.59,1349.179c-6.981-5.233-21.78-18.344-1.154-37.453c4.99-4.613,13.761-8.401,13.761-8.401
		s-34.096-13.088-59.227,12.99c-20.263,21.015-12.42,52.55,1.53,66.493c13.949,13.949,44.324,29.034,70.304,6.877
		c31.068-26.484,14.144-68.392,14.144-68.392s-1.166,14.52-8.802,25.598C1593.517,1357.969,1581.286,1357.21,1570.59,1349.179z"/>
	<path d="M1570.59,306.919c-6.981,5.233-21.78,18.344-1.154,37.453c4.99,4.613,13.761,8.401,13.761,8.401
		s-34.096,13.087-59.227-12.99c-20.263-21.015-12.42-52.55,1.53-66.493c13.949-13.949,44.324-29.034,70.304-6.877
		c31.068,26.484,14.144,68.392,14.144,68.392s-1.166-14.52-8.802-25.598C1593.517,298.129,1581.286,298.888,1570.59,306.919z"/>
	<path d="M306.919,85.508c5.233,6.981,18.344,21.78,37.453,1.154c4.613-4.99,8.401-13.761,8.401-13.761s13.087,34.096-12.99,59.227
		c-21.015,20.263-52.55,12.42-66.493-1.53c-13.949-13.949-29.034-44.324-6.877-70.304c26.484-31.068,68.392-14.144,68.392-14.144
		s-14.52,1.166-25.598,8.802C298.129,62.581,298.888,74.812,306.919,85.508z"/>
	<path d="M85.508,1349.179c6.981-5.233,21.78-18.344,1.154-37.453c-4.99-4.613-13.761-8.401-13.761-8.401
		s34.096-13.088,59.227,12.99c20.263,21.015,12.42,52.55-1.53,66.493c-13.949,13.949-44.324,29.034-70.304,6.877
		c-31.068-26.484-14.144-68.392-14.144-68.392s1.166,14.52,8.802,25.598C62.581,1357.969,74.812,1357.21,85.508,1349.179z"/>
	<path d="M1349.179,1570.59c-5.233-6.981-18.344-21.78-37.453-1.154c-4.613,4.99-8.401,13.761-8.401,13.761
		s-13.088-34.096,12.99-59.227c21.015-20.263,52.55-12.42,66.493,1.53c13.949,13.949,29.034,44.324,6.877,70.304
		c-26.484,31.068-68.392,14.144-68.392,14.144s14.52-1.166,25.598-8.802C1357.969,1593.517,1357.21,1581.286,1349.179,1570.59z"/>
	<path d="M1263.408,392.69c-105.466,0.014-191.614,0.025-219.76,0.029c-6.351,0.001-9.779,0.001-9.779,0.001l-4.654,0.076
		l-201.167,3.277l-201.167-3.277l-4.654-0.076c0,0-3.428-0.001-9.779-0.001c-28.146-0.004-114.293-0.015-219.76-0.029
		c0.014,105.466,0.025,191.614,0.029,219.76c0.001,6.351,0.001,9.779,0.001,9.779l0.076,4.654l3.277,201.167l-3.277,201.167
		l-0.076,4.654c0,0-0.001,3.427-0.001,9.779c-0.004,28.146-0.015,114.293-0.029,219.76c105.466-0.014,191.614-0.025,219.76-0.029
		c6.351-0.001,9.779-0.001,9.779-0.001l4.654-0.076l201.167-3.277l201.167,3.277l4.654,0.076c0,0,3.427,0,9.779,0.001
		c28.146,0.004,114.293,0.015,219.76,0.029c-0.014-105.466-0.025-191.614-0.029-219.76c-0.001-6.351-0.001-9.779-0.001-9.779
		l-0.076-4.654l-3.277-201.167l3.277-201.167l0.076-4.654c0,0,0-3.428,0.001-9.779
		C1263.383,584.303,1263.395,498.156,1263.408,392.69z M828.049,413.283l205.821,3.353l205.565,0.027l0.027,205.565l3.353,205.821
		l-3.353,205.821l-0.027,205.565l-205.565,0.027l-205.821,3.353l-205.821-3.353l-205.565-0.027l-0.027-205.565l-3.353-205.821
		l3.353-205.821l0.027-205.565l205.565-0.027L828.049,413.283z"/>
</g>
</svg>
